<?xml version="1.0" encoding="utf-8"?>
<!-- Generator: Adobe Illustrator 19.1.0, SVG Export Plug-In . SVG Version: 6.00 Build 0)  -->
<svg version="1.2" baseProfile="tiny" xmlns="http://www.w3.org/2000/svg" xmlns:xlink="http://www.w3.org/1999/xlink" x="0px"
	 y="0px" viewBox="0 0 260 260" xml:space="preserve">
<g id="Capa_1">
</g>
<g id="Layer_1">
	<g>
		<path fill="#FFFFFF" d="M131.5,0v5.9c33,0,63.6,12.8,86.8,36c23.2,23.2,36,54.1,36,86.9c0,32.8-12.8,63.7-36,86.9
			c-23.2,23.2-54.1,36-86.9,36s-63.7-12.8-86.9-36c-23.2-23.2-36-54-36-86.9c0-32.8,12.8-63.7,36-86.9c23.2-23.2,53.9-36,86.9-36V0
			 M131.4-0.1C60.3-0.1,2.6,57.6,2.6,128.8c0,71.2,57.7,128.8,128.8,128.8c71.2,0,128.8-57.7,128.8-128.8
			C260.3,57.6,202.6-0.1,131.4-0.1L131.4-0.1z"/>
	</g>
	<g>
		<polyline fill="none" stroke="#FFFFFF" stroke-width="6" stroke-linecap="round" stroke-miterlimit="10" points="57.3,143.6 
			131.2,69.6 205.2,143.6 		"/>
		
			<line fill="none" stroke="#FFFFFF" stroke-width="6" stroke-linecap="round" stroke-miterlimit="10" x1="130.5" y1="70" x2="130.5" y2="187"/>
	</g>
</g>
</svg>
