<?xml version="1.0" encoding="utf-8"?>
<!-- Generator: Adobe Illustrator 19.1.0, SVG Export Plug-In . SVG Version: 6.00 Build 0)  -->
<svg version="1.2" baseProfile="tiny" xmlns="http://www.w3.org/2000/svg" xmlns:xlink="http://www.w3.org/1999/xlink" x="0px"
	 y="0px" viewBox="0 0 260 260" xml:space="preserve">
<g id="Capa_1">
</g>
<g id="Layer_1">
	<path fill="#342411" d="M68.2,120.1c-5.6,0-10.1,4.5-10.3,10c0,0,0,0,0,0c1-4.7,5.2-8.2,10.2-8.2c5.2,0,9.5,3.8,10.3,8.8
		c0,0.1,0.1,0.1,0.1,0.2c0-0.2,0-0.3,0-0.5C78.5,124.8,73.9,120.1,68.2,120.1z"/>
	<path fill="#342411" d="M162.6,96.9c5.2,0,9.5,3.8,10.3,8.8c0,0.1,0.1,0.1,0.1,0.2c0-0.2,0-0.3,0-0.5c0-5.7-4.6-10.3-10.3-10.3
		c-5.6,0-10.1,4.5-10.3,10c0,0,0,0,0,0C153.5,100.4,157.6,96.9,162.6,96.9z"/>
	<path fill="#342411" d="M98.3,174.5c-5.6,0-10.1,4.5-10.3,10c0,0,0,0,0,0c1-4.7,5.2-8.2,10.2-8.2c5.2,0,9.5,3.8,10.3,8.8
		c0,0.1,0.1,0.1,0.1,0.2c0-0.2,0-0.3,0-0.5C108.6,179.1,104,174.5,98.3,174.5z"/>
	<path fill="#342411" d="M112.8,66.6c0-0.2,0-0.3,0-0.5c0-5.7-4.6-10.3-10.3-10.3c-5.6,0-10.1,4.5-10.3,10c0,0,0,0,0,0
		c1-4.7,5.2-8.2,10.2-8.2c5.2,0,9.5,3.8,10.3,8.8C112.7,66.4,112.8,66.5,112.8,66.6z"/>
	<path fill="#342411" d="M192.8,138.5c-5.6,0-10.1,4.5-10.3,10c0,0,0,0,0,0c1-4.7,5.2-8.2,10.2-8.2c5.2,0,9.5,3.8,10.3,8.8
		c0,0.1,0.1,0.1,0.1,0.2c0-0.2,0-0.3,0-0.5C203.1,143.2,198.5,138.5,192.8,138.5z"/>
	<path fill="#342411" d="M143.3,192.9c1-4.7,5.2-8.2,10.2-8.2c5.2,0,9.5,3.8,10.3,8.8c0,0.1,0.1,0.1,0.1,0.2c0-0.2,0-0.3,0-0.5
		c0-5.7-4.6-10.3-10.3-10.3C147.9,182.9,143.4,187.3,143.3,192.9C143.2,192.9,143.2,192.9,143.3,192.9z"/>
	<path fill="#342411" d="M132.3,122.8c-10.5,0-19,8.3-19.2,18.7c0,0,0,0,0,0c1.9-8.7,9.7-15.3,19-15.3c9.7,0,17.7,7.1,19.2,16.4
		c0.1,0.1,0.2,0.3,0.2,0.4c0-0.3,0-0.6,0-1C151.5,131.5,142.9,122.8,132.3,122.8z"/>
	<path fill="#332414" d="M130.3,0.2C58.7,0.2,0.6,58.2,0.6,129.9c0,71.6,58.1,129.7,129.7,129.7c71.6,0,129.7-58.1,129.7-129.7
		C260,58.2,201.9,0.2,130.3,0.2z M205.5,152.4c-1.1,7.5-8.1,12.8-15.6,11.7c-6.3-0.9-11-6-11.7-12.1l-23.3-3c0,0,0,0.1,0,0.1
		c-0.8,2.6-2.1,5-3.9,7.3c-1.9,2.4-4.1,4.2-6.5,5.7l6.8,17.2c6.1-0.7,12.1,2.6,14.5,8.6c2.8,7.1-0.6,15.1-7.7,17.9
		c-7.1,2.8-15.1-0.6-17.9-7.7c-2.4-5.9-0.3-12.5,4.6-16.2l-6.9-17.2c0,0-0.1,0-0.1,0c-2.6,0.6-5.4,0.7-8.2,0.3
		c-3-0.4-5.7-1.4-8.2-2.8l-11.4,14.5c3.7,4.9,3.8,11.8-0.2,16.8c-4.7,6-13.4,7-19.4,2.3c-6-4.7-7-13.4-2.3-19.4
		c4-5,10.7-6.5,16.3-4.1l11.5-14.6c0,0-0.1-0.1-0.1-0.1c-1.8-2-3.3-4.3-4.4-7c-1.1-2.8-1.6-5.6-1.6-8.5l-28.3-5.9
		c-2.4,5.6-8.3,9.1-14.7,8.2c-7.5-1.1-12.8-8.1-11.7-15.6c1.1-7.5,8.1-12.8,15.6-11.7c6.3,0.9,11,6,11.7,12.1l28.4,5.9
		c0,0,0-0.1,0-0.1c0.8-2.6,2.1-5,3.9-7.3c1.9-2.4,4.1-4.2,6.5-5.7l-17.4-41.6c-6.1,0.7-12.1-2.6-14.5-8.6C86.5,64.8,89.9,56.8,97,54
		c7.1-2.8,15.1,0.6,17.9,7.7c2.4,5.9,0.3,12.5-4.6,16.2l17.5,41.7c0,0,0.1,0,0.1,0c2.6-0.6,5.4-0.7,8.3-0.3c3,0.4,5.7,1.4,8.2,2.8
		l7.2-8.9c-3.7-4.9-3.8-11.8,0.2-16.8c4.7-6,13.4-7,19.4-2.3c6,4.7,7,13.4,2.3,19.4c-4,5-10.7,6.5-16.3,4.1l-7.2,9
		c0,0,0.1,0.1,0.1,0.1c1.8,2,3.3,4.3,4.4,7c1.1,2.8,1.6,5.6,1.6,8.5l23.3,3c2.4-5.6,8.3-9.1,14.7-8.2
		C201.4,137.9,206.6,144.9,205.5,152.4z"/>
</g>
</svg>
