<?xml version="1.0" encoding="utf-8"?>
<!-- Generator: Adobe Illustrator 19.1.0, SVG Export Plug-In . SVG Version: 6.00 Build 0)  -->
<svg version="1.2" baseProfile="tiny" xmlns="http://www.w3.org/2000/svg" xmlns:xlink="http://www.w3.org/1999/xlink" x="0px"
	 y="0px" viewBox="0 0 260 260" xml:space="preserve">
<g id="Capa_1">
</g>
<g id="Layer_1">
	<path fill="#FFFFFF" d="M130.4,4.5c33.6,0,65.1,13.1,88.9,36.8c23.7,23.7,36.8,55.3,36.8,88.9c0,33.6-13.1,65.1-36.8,88.9
		c-23.7,23.7-55.3,36.8-88.9,36.8S65.3,242.8,41.6,219c-23.7-23.7-36.8-55.3-36.8-88.9c0-33.6,13.1-65.1,36.8-88.9
		C65.3,17.5,96.9,4.5,130.4,4.5 M130.4,0.5C58.8,0.5,0.7,58.5,0.7,130.2c0,71.6,58.1,129.7,129.7,129.7s129.7-58.1,129.7-129.7
		C260.1,58.5,202.1,0.5,130.4,0.5L130.4,0.5z"/>
	<rect x="121.5" y="73.8" fill="#FFFFFF" width="17.9" height="23.2"/>
	<path fill="#FFFFFF" d="M98.4,109.3c0-2.9,2.4-5.3,5.3-5.3h53.5c2.9,0,5.3,2.4,5.3,5.3V126H98.4V109.3z"/>
	<path fill="#FFFFFF" d="M84.9,139.3c0-3.6,2.9-6.4,6.4-6.4h78.2c3.6,0,6.4,2.9,6.4,6.4v16.3h-91V139.3z"/>
	<path fill="#FFFFFF" d="M189.4,186.5H71.5v-16.7c0-4.2,3.4-7.6,7.6-7.6h102.7c4.2,0,7.6,3.4,7.6,7.6V186.5z"/>
</g>
</svg>
