<?xml version="1.0" encoding="utf-8"?>
<!-- Generator: Adobe Illustrator 19.1.0, SVG Export Plug-In . SVG Version: 6.00 Build 0)  -->
<svg version="1.2" baseProfile="tiny" xmlns="http://www.w3.org/2000/svg" xmlns:xlink="http://www.w3.org/1999/xlink" x="0px"
	 y="0px" viewBox="0 0 260 260" xml:space="preserve">
<g id="Capa_1">
</g>
<g id="Layer_1">
	<path fill="#332414" d="M130.4,0.5C58.8,0.5,0.7,58.5,0.7,130.2c0,71.6,58.1,129.7,129.7,129.7s129.7-58.1,129.7-129.7
		C260.1,58.5,202.1,0.5,130.4,0.5z M121.5,73.8h17.9v23.2h-17.9V73.8z M98.4,109.3c0-2.9,2.4-5.3,5.3-5.3h53.5
		c2.9,0,5.3,2.4,5.3,5.3V126H98.4V109.3z M84.9,139.3c0-3.6,2.9-6.4,6.4-6.4h78.2c3.6,0,6.4,2.9,6.4,6.4v16.3h-91V139.3z
		 M189.4,186.5H71.5v-16.7c0-4.2,3.4-7.6,7.6-7.6h102.7c4.2,0,7.6,3.4,7.6,7.6V186.5z"/>
</g>
</svg>
