<?xml version="1.0" encoding="utf-8"?>
<!-- Generator: Adobe Illustrator 19.1.0, SVG Export Plug-In . SVG Version: 6.00 Build 0)  -->
<svg version="1.2" baseProfile="tiny" xmlns="http://www.w3.org/2000/svg" xmlns:xlink="http://www.w3.org/1999/xlink" x="0px"
	 y="0px" viewBox="0 0 260 260" xml:space="preserve">
<g id="Capa_1">
</g>
<g id="Layer_1">
	<path fill="#332414" d="M130.2,0C58.6,0,0.5,58.1,0.5,129.7c0,71.6,58.1,129.7,129.7,129.7s129.7-58.1,129.7-129.7
		C259.9,58.1,201.9,0,130.2,0z M191.2,152.2c-4.5,3.8-9.9,6.1-16,6.6c-6.5,0.6-13.1-1-20.9-5.1c-9.6-5-18.4-12.3-20.6-14.2l1.8-1.5
		c2-1.7,3.9-3.5,5.9-5.2c0.1,0,0.4-0.1,0.4-0.1c0,0,0.1,0.1,0.2,0.1l0.2,0.1c1.2,0.9,2.3,1.8,3.5,2.8c1.8,1.4,1.8,1.6,3.7,3
		c5.8,4.4,11,7.6,17.2,8.9c4.6,1,8.4,0.9,11.9-0.3c8.9-3.1,14.1-12.2,12.2-21.1c-1.6-7.3-6-12-13.1-14.2c-4.4-1.3-9-1-14.7,1
		c-5.8,2.1-10.8,5.6-14.8,8.8c-2.9,2.3-7.4,5.9-8.1,6.5l-2.1,1.8c-4.9,4.2-10.1,8.6-15.2,12.7c-8.4,6.7-15.8,11.1-23.4,13.8
		c-6.8,2.4-13.3,2.8-19.6,1C69,154.7,60.5,145,59,134.1c-1.4-10.8,2-19.8,10.2-26.8c4.5-3.8,9.9-6.1,16-6.6c6.5-0.6,13.1,1,20.9,5.1
		c9.4,4.9,18.7,12.5,20.9,14.3l-1.6,1.4c-2.1,1.8-4.3,3.6-6.4,5.3l-0.1,0.1c0,0,0,0,0,0c-0.1-0.1-0.2-0.2-0.4-0.3
		c-1.5-1.1-1.5-1.2-2.9-2.3c-1.5-1.2-3-2.4-4.6-3.6c-5.8-4.4-11-7.6-17.2-8.9c-2-0.5-3.9-0.7-5.7-0.7c-2.2,0-4.3,0.3-6.2,1
		c-8.9,3.1-14.1,12.2-12.2,21.1c1.6,7.3,6,12,13.1,14.2c4.4,1.3,9,1,14.7-1c5.8-2.1,10.8-5.6,14.8-8.8c2.9-2.3,7.4-5.9,8.1-6.5
		l2.1-1.8c5-4.2,10.1-8.6,15.2-12.7c8.4-6.7,15.8-11.1,23.4-13.8c6.8-2.4,13.3-2.8,19.6-1c10.8,3,19.3,12.7,20.7,23.6
		C202.9,136.2,199.4,145.2,191.2,152.2z"/>
</g>
</svg>
