<?xml version="1.0" encoding="utf-8"?>
<!-- Generator: Adobe Illustrator 19.1.0, SVG Export Plug-In . SVG Version: 6.00 Build 0)  -->
<svg version="1.2" baseProfile="tiny" xmlns="http://www.w3.org/2000/svg" xmlns:xlink="http://www.w3.org/1999/xlink" x="0px"
	 y="0px" viewBox="0 0 260 260" xml:space="preserve">
<g id="Capa_1">
</g>
<g id="Layer_1">
	<path fill="#FFFFFF" d="M130.6,4c33.6,0,65.1,13.1,88.9,36.8c23.7,23.7,36.8,55.3,36.8,88.9c0,33.6-13.1,65.1-36.8,88.9
		c-23.7,23.7-55.3,36.8-88.9,36.8s-65.1-13.1-88.9-36.8c-23.7-23.7-36.8-55.3-36.8-88.9c0-33.6,13.1-65.1,36.8-88.9
		C65.4,17,97,4,130.6,4 M130.6,0C58.9,0,0.9,58,0.9,129.7c0,71.6,58.1,129.7,129.7,129.7s129.7-58.1,129.7-129.7
		C260.3,58,202.2,0,130.6,0L130.6,0z"/>
	
		<rect x="72.4" y="56.4" transform="matrix(-0.8599 0.5105 -0.5105 -0.8599 237.8611 112.2882)" fill="#F4AC71" width="62.3" height="64.9"/>
	<polygon fill="#FFFFFF" points="148.1,102.9 167.5,135.5 93.8,135.1 	"/>
	
		<rect x="94" y="137.8" transform="matrix(1 8.348518e-03 -8.348518e-03 1 1.4732 -1.086)" fill="#F8CDAA" width="73.6" height="76.2"/>
	
		<rect x="156.6" y="90.4" transform="matrix(0.5105 0.8599 -0.8599 0.5105 179.3768 -97.7971)" fill="#F4AC71" width="37.9" height="36.4"/>
</g>
</svg>
