<?xml version="1.0" encoding="utf-8"?>
<!-- Generator: Adobe Illustrator 19.1.0, SVG Export Plug-In . SVG Version: 6.00 Build 0)  -->
<svg version="1.2" baseProfile="tiny" xmlns="http://www.w3.org/2000/svg" xmlns:xlink="http://www.w3.org/1999/xlink" x="0px"
	 y="0px" viewBox="0 0 260 260" xml:space="preserve">
<g id="Capa_1">
</g>
<g id="Layer_1">
	<path fill="#342411" d="M132.3,122.8c-10.5,0-19,8.3-19.2,18.7c0,0,0,0,0,0c1.9-8.7,9.7-15.3,19-15.3c9.7,0,17.7,7.1,19.2,16.4
		c0.1,0.1,0.2,0.3,0.2,0.4c0-0.3,0-0.6,0-1C151.5,131.5,142.9,122.8,132.3,122.8z"/>
	<path fill="#FFFFFF" d="M130.3,4.2c33.6,0,65.1,13.1,88.9,36.8c23.7,23.7,36.8,55.3,36.8,88.9c0,33.6-13.1,65.1-36.8,88.9
		c-23.7,23.7-55.3,36.8-88.9,36.8c-33.6,0-65.1-13.1-88.9-36.8C17.7,195,4.6,163.4,4.6,129.9c0-33.6,13.1-65.1,36.8-88.9
		S96.7,4.2,130.3,4.2 M130.3,0.2C58.7,0.2,0.6,58.2,0.6,129.9c0,71.6,58.1,129.7,129.7,129.7c71.6,0,129.7-58.1,129.7-129.7
		C260,58.2,201.9,0.2,130.3,0.2L130.3,0.2z"/>
	<path fill="#FFFFFF" d="M193.9,136.8c-6.3-0.9-12.3,2.6-14.7,8.2l-23.3-3c0-2.8-0.5-5.7-1.6-8.5c-1.1-2.7-2.6-5-4.4-7
		c0,0-0.1-0.1-0.1-0.1l7.2-9c5.6,2.4,12.3,0.9,16.3-4.1c4.7-6,3.7-14.6-2.3-19.4c-6-4.7-14.6-3.7-19.4,2.3c-4,5-3.9,11.9-0.2,16.8
		l-7.2,8.9c-2.4-1.4-5.2-2.4-8.2-2.8c-2.8-0.4-5.6-0.3-8.3,0.3c0,0-0.1,0-0.1,0l-17.5-41.7c4.9-3.6,7-10.2,4.6-16.2
		c-2.8-7.1-10.8-10.5-17.9-7.7c-7.1,2.8-10.5,10.8-7.7,17.9c2.4,5.9,8.4,9.3,14.5,8.6l17.4,41.6c-2.4,1.4-4.7,3.3-6.5,5.7
		c-1.8,2.2-3.1,4.7-3.9,7.3c0,0,0,0.1,0,0.1l-28.4-5.9c-0.7-6.1-5.4-11.1-11.7-12.1c-7.5-1.1-14.5,4.1-15.6,11.7
		c-1.1,7.5,4.1,14.5,11.7,15.6c6.3,0.9,12.3-2.6,14.7-8.2l28.3,5.9c0,2.8,0.5,5.7,1.6,8.5c1.1,2.7,2.6,5,4.4,7c0,0,0.1,0.1,0.1,0.1
		l-11.5,14.6c-5.6-2.4-12.3-0.9-16.3,4.1c-4.7,6-3.7,14.6,2.3,19.4c6,4.7,14.6,3.7,19.4-2.3c4-5,3.9-11.9,0.2-16.8l11.4-14.5
		c2.4,1.4,5.2,2.4,8.2,2.8c2.8,0.4,5.6,0.3,8.2-0.3c0,0,0.1,0,0.1,0l6.9,17.2c-4.9,3.6-7,10.2-4.6,16.2c2.8,7.1,10.8,10.5,17.9,7.7
		c7.1-2.8,10.5-10.8,7.7-17.9c-2.4-5.9-8.4-9.3-14.5-8.6l-6.8-17.2c2.4-1.4,4.7-3.3,6.5-5.7c1.8-2.2,3.1-4.7,3.9-7.3
		c0,0,0-0.1,0-0.1l23.3,3c0.7,6.1,5.4,11.1,11.7,12.1c7.5,1.1,14.5-4.1,15.6-11.7C206.6,144.9,201.4,137.9,193.9,136.8z M162.7,95.1
		c5.7,0,10.3,4.6,10.3,10.3c0,0.2,0,0.3,0,0.5c0-0.1-0.1-0.1-0.1-0.2c-0.8-5-5.1-8.8-10.3-8.8c-5,0-9.1,3.5-10.2,8.2c0,0,0,0,0,0
		C152.6,99.5,157.1,95.1,162.7,95.1z M102.4,57.6c-5,0-9.1,3.5-10.2,8.2c0,0,0,0,0,0c0.1-5.6,4.7-10,10.3-10
		c5.7,0,10.3,4.6,10.3,10.3c0,0.2,0,0.3,0,0.5c0-0.1-0.1-0.1-0.1-0.2C111.9,61.4,107.6,57.6,102.4,57.6z M78.5,131
		c0-0.1-0.1-0.1-0.1-0.2c-0.8-5-5.1-8.8-10.3-8.8c-5,0-9.1,3.5-10.2,8.2c0,0,0,0,0,0c0.1-5.6,4.7-10,10.3-10
		c5.7,0,10.3,4.6,10.3,10.3C78.5,130.6,78.5,130.8,78.5,131z M108.6,185.3c0-0.1-0.1-0.1-0.1-0.2c-0.8-5-5.1-8.8-10.3-8.8
		c-5,0-9.1,3.5-10.2,8.2c0,0,0,0,0,0c0.1-5.6,4.7-10,10.3-10c5.7,0,10.3,4.6,10.3,10.3C108.6,185,108.6,185.1,108.6,185.3z
		 M153.5,182.9c5.7,0,10.3,4.6,10.3,10.3c0,0.2,0,0.3,0,0.5c0-0.1-0.1-0.1-0.1-0.2c-0.8-5-5.1-8.8-10.3-8.8c-5,0-9.1,3.5-10.2,8.2
		c0,0,0,0,0,0C143.4,187.3,147.9,182.9,153.5,182.9z M203.1,149.3c0-0.1-0.1-0.1-0.1-0.2c-0.8-5-5.1-8.8-10.3-8.8
		c-5,0-9.1,3.5-10.2,8.2c0,0,0,0,0,0c0.1-5.6,4.7-10,10.3-10c5.7,0,10.3,4.6,10.3,10.3C203.1,149,203.1,149.2,203.1,149.3z"/>
</g>
</svg>
