<?xml version="1.0" encoding="utf-8"?>
<!-- Generator: Adobe Illustrator 19.1.0, SVG Export Plug-In . SVG Version: 6.00 Build 0)  -->
<svg version="1.2" baseProfile="tiny" id="Capa_1" xmlns="http://www.w3.org/2000/svg" xmlns:xlink="http://www.w3.org/1999/xlink"
	 x="0px" y="0px" viewBox="-44 0 260 260" xml:space="preserve">
<g id="Capa_1_1_">
</g>
<g>
	<path fill="#939598" d="M84.9,0.1V6c33,0,63.6,12.8,86.8,36c23.2,23.2,36,54,36,86.9c0,32.8-12.8,63.7-36,86.9
		c-23.2,23.2-54.1,36-86.9,36s-63.7-12.8-86.9-36s-36-54.1-36-86.9s12.8-63.7,36-86.9S51.8,6,84.8,6L84.9,0.1 M84.8,0
		C13.7,0-44,57.7-44,128.9S13.7,257.7,84.8,257.7c71.2,0,128.8-57.7,128.8-128.8C213.7,57.7,156,0,84.8,0L84.8,0z"/>
</g>
<polyline fill="none" stroke="#939598" stroke-width="6" stroke-linecap="round" stroke-miterlimit="10" points="159.4,114 
	85.4,187.9 11.5,114 "/>
<line fill="none" stroke="#939598" stroke-width="6" stroke-linecap="round" stroke-miterlimit="10" x1="85.5" y1="188" x2="85.5" y2="71"/>
</svg>
