<?xml version="1.0" encoding="utf-8"?>
<!-- Generator: Adobe Illustrator 19.1.0, SVG Export Plug-In . SVG Version: 6.00 Build 0)  -->
<svg version="1.2" baseProfile="tiny" xmlns="http://www.w3.org/2000/svg" xmlns:xlink="http://www.w3.org/1999/xlink" x="0px"
	 y="0px" viewBox="0 0 260 260" xml:space="preserve">
<g id="Capa_1">
</g>
<g id="Layer_1">
	<path fill="#FFFFFF" d="M129.6,4c33.6,0,65.1,13.1,88.9,36.8c23.7,23.7,36.8,55.3,36.8,88.9c0,33.6-13.1,65.1-36.8,88.9
		c-23.7,23.7-55.3,36.8-88.9,36.8c-33.6,0-65.1-13.1-88.9-36.8c-23.7-23.7-36.8-55.3-36.8-88.9c0-33.6,13.1-65.1,36.8-88.9
		C64.4,17,96,4,129.6,4 M129.6,0C57.9,0-0.1,58-0.1,129.7c0,71.6,58.1,129.7,129.7,129.7c71.6,0,129.7-58.1,129.7-129.7
		C259.3,58,201.2,0,129.6,0L129.6,0z"/>
	<path fill="#FFFFFF" d="M213.4,182c-0.8,0-1.5,0-2.2-0.1l-165-0.4l-0.1-4c0.2,0,22.6-1.4,34.4-22.5h0c4.9-8.7,26.2-55.5,29.4-66
		c3.7-11.8,13.8-24.4,21.3-23c7,1.3,13.9,8.9,20,22c2.1,4.4,4.6,11,7.6,18.8c5.7,14.9,12.8,33.3,18.8,41.2c1.2,1.6,2.4,3.3,3.7,5.1
		c7.6,10.6,16.9,23.7,30.2,24.9l4,0l0.2,4C214.9,182,214.1,182,213.4,182z"/>
	<path fill="#F8CDAA" d="M178,155.4c-1.3-1.8-2.5-3.4-3.6-5c-4.7-6.3-10.1-18.7-14.9-30.9v2.5h-2v-5h1c-1.2-3-2.3-6-3.4-8.8
		c-3-7.7-5.5-14.3-7.5-18.5c-5.2-11-10.8-17.8-16.1-19.5V72h-2v-2.1c-4.5,0.6-12.5,9.9-15.7,20.3c-1.3,4.2-4.9,13-9.3,22.9v0.9h-0.4
		c-0.4,1-0.9,2-1.3,3h1.7v5h-2v-4.4C95.2,134.1,86.7,152.1,84,157c-6.2,11.2-15,17.3-22.6,20.6l41.1,0.1V176h2v1.7l25,0.1V176h2v1.7
		l26,0.1V176h2v1.8l39.6,0.1C190.4,172.7,183.8,163.4,178,155.4z M104.5,174h-2v-1h2V174z M104.5,170h-2v-5h2V170z M104.5,162h-2v-5
		h2V162z M104.5,154h-2v-5h2V154z M104.5,146h-2v-5h2V146z M104.5,138h-2v-5h2V138z M104.5,130h-2v-5h2V130z M131.5,174h-2v-4h2V174
		z M131.5,167h-2v-5h2V167z M131.5,159h-2v-5h2V159z M131.5,151h-2v-5h2V151z M131.5,143h-2v-5h2V143z M131.5,135h-2v-5h2V135z
		 M131.5,127h-2v-5h2V127z M131.5,119h-2v-5h2V119z M131.5,111h-2v-5h2V111z M131.5,103h-2v-5h2V103z M131.5,95h-2v-5h2V95z
		 M131.5,87h-2v-5h2V87z M131.5,79h-2v-5h2V79z M159.5,174h-2v-1h2V174z M159.5,170h-2v-5h2V170z M159.5,162h-2v-5h2V162z
		 M159.5,154h-2v-5h2V154z M159.5,146h-2v-5h2V146z M159.5,138h-2v-5h2V138z M159.5,130h-2v-5h2V130z"/>
</g>
</svg>
