<?xml version="1.0" encoding="utf-8"?>
<!-- Generator: Adobe Illustrator 19.1.0, SVG Export Plug-In . SVG Version: 6.00 Build 0)  -->
<svg version="1.2" baseProfile="tiny" id="Capa_1" xmlns="http://www.w3.org/2000/svg" xmlns:xlink="http://www.w3.org/1999/xlink"
	 x="0px" y="0px" viewBox="-44 0 260 260" xml:space="preserve">
<g id="Capa_1_1_">
</g>
<g>
	<path fill="#060000" d="M86.5,0v5.9c33,0,63.6,12.8,86.8,36s36,54,36,86.9c0,32.8-12.8,63.7-36,86.9s-54.1,36-86.9,36
		s-63.7-12.8-86.9-36s-36-54.1-36-86.9s12.8-63.7,36-86.9s53.9-36,86.9-36V0 M86.4-0.1C15.3-0.1-42.4,57.6-42.4,128.8
		S15.3,257.6,86.4,257.6c71.2,0,128.8-57.7,128.8-128.8C215.3,57.6,157.6-0.1,86.4-0.1L86.4-0.1z"/>
</g>
<polyline fill="none" stroke="#060000" stroke-width="6" stroke-linecap="round" stroke-miterlimit="10" points="161,114 87,187.9 
	13.1,114 "/>
<line fill="none" stroke="#060000" stroke-width="6" stroke-linecap="round" stroke-miterlimit="10" x1="87.1" y1="188" x2="87.1" y2="71"/>
</svg>
