<?xml version="1.0" encoding="utf-8"?>
<!-- Generator: Adobe Illustrator 19.1.0, SVG Export Plug-In . SVG Version: 6.00 Build 0)  -->
<svg version="1.2" baseProfile="tiny" xmlns="http://www.w3.org/2000/svg" xmlns:xlink="http://www.w3.org/1999/xlink" x="0px"
	 y="0px" viewBox="0 0 260 260" xml:space="preserve">
<g id="Capa_1">
</g>
<g id="Layer_1">
	<polygon fill="#AFA699" points="86.4,136.3 173.6,136.3 169.3,219.8 85.7,218.4 80.3,135.6 	"/>
	<polygon fill="#7E6E59" points="50.6,70.6 90,134.8 150.6,99.3 113.7,38.7 	"/>
	<polygon fill="#7E6E59" points="137,82.1 176.4,146.3 237.1,110.8 200.1,50.2 	"/>
	<path fill="#332414" d="M130.6,0C58.9,0,0.9,58,0.9,129.7c0,71.6,58.1,129.7,129.7,129.7c71.6,0,129.7-58.1,129.7-129.7
		C260.3,58,202.2,0,130.6,0z M60.2,76.8L113.7,45l33.1,55.8l-53.5,31.8L60.2,76.8z M148.1,102.9l19.4,32.6l-73.7-0.3L148.1,102.9z
		 M167.3,214.3l-73.6-0.6l0.6-76.2l73.6,0.6L167.3,214.3z M169.6,134.2l-19.4-32.6L181.6,83l19.4,32.6L169.6,134.2z"/>
</g>
</svg>
