<svg xmlns="http://www.w3.org/2000/svg" viewBox="0 0 32.98 104.68"><defs><style>.cls-1{isolation:isolate;}.cls-2{fill:#bee6f7;}.cls-3{fill:#00a7e7;}.cls-4{fill:#edeceb;}.cls-5{fill:#b1e2f8;}.cls-6{fill:#bbbdbf;mix-blend-mode:multiply;}.cls-7{fill:#0a7190;}</style></defs><title>Agua</title><g class="cls-1"><g id="Capa_2" data-name="Capa 2"><g id="Layer_1" data-name="Layer 1"><path class="cls-2" d="M33,99.74c0-.06,0-.13,0-.19,0-.26,0-.52,0-.74a41.48,41.48,0,0,0-3.55-15.67V58.21A38.44,38.44,0,0,0,32.72,42c0-14.64-7.28-26.56-16.23-26.56S.25,27.4.25,42A38.42,38.42,0,0,0,3.59,58.21V83.13A41.38,41.38,0,0,0,0,98.77c0,.25,0,.51,0,.78v1.11H.07c.31,2.37,1.59,4,3.17,4H29.72c1.59,0,2.86-1.66,3.17-4H33Z"/><rect class="cls-2" x="8.61" y="7.72" width="15.81" height="11.16"/><rect class="cls-3" x="8.61" y="0.06" width="15.81" height="11.16"/><path class="cls-4" d="M26.27,21.94H6.72A29.75,29.75,0,0,0,1.87,33.29H31.11A29.76,29.76,0,0,0,26.27,21.94Z"/><path class="cls-4" d="M30.14,54.4H2.84a31.23,31.23,0,0,0,1.45,3.66V83.28A40.7,40.7,0,0,0,.74,98.83c0,.23,0,.47,0,.71,0,.07,0,.15,0,.22s0,.13,0,.21h0c.12,2.26,1.21,4,2.54,4H29.73c1.33,0,2.41-1.77,2.54-4h0c0-.07,0-.14,0-.21s0-.15,0-.22c0-.24,0-.48,0-.71a40.7,40.7,0,0,0-3.56-15.55V58.05A31.23,31.23,0,0,0,30.14,54.4Z"/><path class="cls-5" d="M32,42a41.53,41.53,0,0,0-.91-8.75H1.87A41.53,41.53,0,0,0,1,42,39.92,39.92,0,0,0,2.84,54.4H30.14A39.91,39.91,0,0,0,32,42Z"/><path class="cls-6" d="M33,99.73c0-.06,0-.13,0-.19,0-.27,0-.52,0-.74a41.45,41.45,0,0,0-3.56-15.68V58.18a34.75,34.75,0,0,0,2.55-8h0c.25-1.3.45-2.64.58-4v0q.2-2,.2-4.16c0-.8,0-1.6-.07-2.38,0-.27,0-.53-.06-.79,0-.52-.08-1-.13-1.54,0-.31-.08-.6-.12-.9-.06-.46-.13-.91-.2-1.36S32,34.41,32,34.1s-.17-.84-.26-1.26-.14-.61-.22-.91-.21-.81-.33-1.21-.16-.57-.25-.84-.28-.83-.42-1.24l-.26-.71c-.19-.5-.39-1-.6-1.44-.06-.13-.11-.27-.17-.4l0-.1h0a22.48,22.48,0,0,0-5-7.15h0V0h-6V104.68H29.72c1.58,0,2.86-1.66,3.18-4H33Z"/><path class="cls-7" d="M5.33,43c-.41.79-.82,1.65-1.21,2.5H2.33C3.63,43.1,4.91,40.7,6.12,38.3h2c.82,2.38,1.74,4.78,2.65,7.15H9c-.25-.86-.56-1.7-.86-2.5Zm2.51-1.14L7,39.43,5.81,41.82Z"/><path class="cls-7" d="M11.44,46.52a6.5,6.5,0,0,0,2.1.42c1.65,0,1.58-1.17,1.63-2.36h0a2.26,2.26,0,0,1-1.91.93,2.18,2.18,0,0,1-2.34-2.34c0-.94.43-3.18,3.63-3.18a13.29,13.29,0,0,1,2.34.26c-.1,1.14-.24,3.1-.28,5.55,0,1.69-1.09,2.19-2.66,2.19a10.25,10.25,0,0,1-2.42-.3Zm3-5.48a1.87,1.87,0,0,0-2,2,1.25,1.25,0,0,0,1.33,1.4A1.55,1.55,0,0,0,15.2,43a17.68,17.68,0,0,0,.13-1.91A4.7,4.7,0,0,0,14.47,41Z"/><path class="cls-7" d="M22,44.61h0a2.09,2.09,0,0,1-2,1c-1.1,0-2-.44-2-1.64,0-.89.16-2,.17-3.81h1.55c0,.44-.21,2.53-.21,3.13a1,1,0,0,0,1.11,1.13A1.37,1.37,0,0,0,22,43.12a27.29,27.29,0,0,0,.17-3h1.53c-.14,1.78-.25,3.55-.27,5.33H22Z"/><path class="cls-7" d="M27.54,45.48a5.13,5.13,0,0,1-1,.1c-1.75,0-1.94-1-1.94-1.51,0-2.16,3.84-1.47,3.84-2.63,0-.51-.59-.59-1-.59a6,6,0,0,0-2.13.45l.16-1A10.28,10.28,0,0,1,27.83,40c1,0,2.11.23,2.11,1.39,0,.76-.19,2.45-.19,4.06H28.24c.05-.47.09-1,.19-2.75-.57.49-2.39.44-2.39,1.39,0,.5.48.63.92.63a2.54,2.54,0,0,0,.85-.16Z"/></g></g></g></svg>