<svg xmlns="http://www.w3.org/2000/svg" viewBox="0 0 500 470"><defs><style>.cls-1{isolation:isolate;}.cls-2{fill:#73c8ea;}.cls-3{fill:#f0beac;}.cls-4{fill:#9e2a31;}.cls-5{fill:#f8bcbf;}.cls-6{fill:#936245;}.cls-7{fill:#dbaf9e;}.cls-8{mix-blend-mode:multiply;}.cls-9{fill:#bbbdbf;}.cls-10{fill:#782a27;}.cls-11{fill:#f37e69;}.cls-12{fill:#f1f1f2;}.cls-13{fill:#ec9887;}.cls-14{fill:#e2ebe3;}.cls-15{fill:#4f321d;}.cls-16{fill:#522419;}.cls-17{fill:#ed4634;}.cls-18{fill:#aaa4c5;}.cls-19{fill:#2f0700;}.cls-20{fill:#383433;}.cls-21{fill:#124d61;}.cls-22{fill:#2b7c98;}.cls-23{fill:#ea4f56;}.cls-24{fill:#d4d6d7;}.cls-25{fill:#daa390;}.cls-26{fill:#a3563f;}.cls-27{fill:#632f1e;}.cls-28{fill:#3d0000;}.cls-29{fill:#721c1e;}.cls-30{fill:none;}</style></defs><title>Feedback1</title><g class="cls-1"><g id="Capa_2" data-name="Capa 2"><g id="Layer_1" data-name="Layer 1"><ellipse class="cls-2" cx="254.88" cy="366.91" rx="239.65" ry="9.71"/><path class="cls-3" d="M174.34,265.86s1.7,1.51,1.24,7.44c-.27,3.51,1.86,5,.58,5.86s-3.45-1.4-4-3.29a57.29,57.29,0,0,0-.31,6.48c0,2.42-2,3.67-2.95,1.53s.34-8.53.34-8.53-.3,3.4-.48,5.82c-.23,3-.8,4-2,3.89-2.08-.2-1.44-4.2-.6-7.92,0,0-.3,6.27-2.34,6.16s-2-3-.28-7.53c0,0-.5,4.21-2.45,3.6s.56-4.54,2.05-8.06,1.32-5.5,5.3-7.64C171.21,262.18,174.34,265.86,174.34,265.86Z"/><path class="cls-3" d="M186.93,210.3c.06-.13,0,0-.07.1l-.16.3-.34.71c-.23.5-.45,1-.67,1.58-.44,1.09-.85,2.24-1.25,3.41-.79,2.33-1.51,4.75-2.17,7.19-1.33,4.89-2.46,9.9-3.46,14.95s-1.88,10.1-2.68,15.26-1.57,10.3-2.3,15.45h0a3.21,3.21,0,0,1-6.38-.6c.25-5.25.53-10.48.86-15.73s.7-10.55,1.32-15.82,1.31-10.56,2.27-15.86c.49-2.65,1-5.31,1.69-8,.33-1.34.69-2.69,1.11-4.07.21-.69.43-1.38.68-2.09l.4-1.1.24-.59c.1-.24.14-.36.36-.78a6,6,0,0,1,10.55,5.67Z"/><path class="cls-3" d="M232.87,265.86s-1.71,1.51-1.24,7.44c.28,3.51-1.85,5-.58,5.86s3.45-1.4,4-3.29a56.1,56.1,0,0,1,.31,6.48c0,2.42,2,3.67,3,1.53s-.34-8.53-.34-8.53.3,3.4.48,5.82c.22,3,.8,4,2,3.89,2.08-.2,1.44-4.2.6-7.92,0,0,.3,6.27,2.34,6.16s2-3,.28-7.53c0,0,.5,4.21,2.45,3.6s-.56-4.54-2.05-8.06-1.32-5.5-5.3-7.64C236,262.18,232.87,265.86,232.87,265.86Z"/><path class="cls-3" d="M230.83,204.63c.21.42.26.54.36.78l.24.59.41,1.1c.25.71.47,1.41.68,2.09.42,1.37.78,2.72,1.11,4.07.66,2.69,1.2,5.35,1.69,8,1,5.31,1.68,10.59,2.27,15.86s1,10.6,1.31,15.82.61,10.48.86,15.73a3.21,3.21,0,0,1-6.37.61v0c-.72-5.15-1.49-10.32-2.3-15.46s-1.66-10.21-2.68-15.26-2.14-10.06-3.46-14.95c-.66-2.44-1.38-4.86-2.17-7.19-.4-1.16-.81-2.31-1.25-3.41-.22-.55-.44-1.08-.67-1.58l-.34-.71-.16-.3c0-.06-.13-.23-.07-.1a6,6,0,1,1,10.55-5.67Z"/><path class="cls-3" d="M203.92,270.71l-4.19,91.83a6,6,0,0,1-12,0l-4.19-91.83a10.19,10.19,0,1,1,20.35-.93C203.93,270.09,203.93,270.41,203.92,270.71Z"/><path class="cls-4" d="M193.74,353.27c-5.13,0-6.34,1.41-6.34,1.41l.36,7.86a6,6,0,0,0,12,0l.36-7.86S198.88,353.27,193.74,353.27ZM199,357.5s.22,4.28-5.16,4.28-5.39-4.28-5.39-4.28l-.09-1.88s1-1.19,5.36-1.19,5.36,1.19,5.36,1.19Z"/><path class="cls-3" d="M223.64,270.71l-4.19,91.83a6,6,0,0,1-12,0l-4.19-91.83a10.19,10.19,0,1,1,20.35-.93C223.66,270.09,223.65,270.41,223.64,270.71Z"/><path class="cls-4" d="M207.12,354.68l.36,7.86a6,6,0,0,0,12,0l.36-7.86s-1.21-1.41-6.35-1.41S207.12,354.68,207.12,354.68Zm1,.94s1-1.19,5.37-1.19,5.37,1.19,5.37,1.19l-.09,1.88s0,4.28-5.39,4.28-5.17-4.28-5.17-4.28Z"/><path class="cls-5" d="M183.64,249.27c-1,3-2.08,6.91-3.24,11.35h46.41c-1.16-4.44-2.26-8.36-3.24-11.35a58.14,58.14,0,0,1-.59-32.8l2.68-15c-5.38-2.48-16.3-2.33-16.3-2.33H197.85s-10.92-.15-16.3,2.33l2.68,15A58.12,58.12,0,0,1,183.64,249.27Z"/><path class="cls-4" d="M181.63,260.55c-2.44,21.44.65,51.92.65,51.92H202.7l.9-34.79,1,34.79h20.3s3.09-30.48.65-51.92Z"/><path class="cls-6" d="M203.61,188.65c-14.12,0-26.51-8.33-33.61-19.12.3,6.86,2.75,7.24,5.64,12.61,0,0,7.54,8,28,6.52,14.38-1,20.45-1.34,28-6.52,2.9-5.37,5.35-5.75,5.64-12.61C230.11,180.31,217.72,188.65,203.61,188.65Z"/><path class="cls-7" d="M213.34,199.84s-5.72-6.25-.67-12.34l-8.11-.15v0l-1,0-1,0v0l-8.11.15c5,6.09-.67,12.34-.67,12.34a21.44,21.44,0,0,0,19.47,0Z"/><path class="cls-3" d="M243.53,150c0,18.3-17.87,38.62-39.92,38.62S163.68,168.32,163.68,150s17.87-31.24,39.92-31.24S243.53,131.73,243.53,150Z"/><g class="cls-8"><path class="cls-9" d="M201.34,166.88a6.19,6.19,0,0,0-.78,1.93,2.31,2.31,0,0,0,.34,1.84,2.86,2.86,0,0,0,1.59,1,3.73,3.73,0,0,0,2-.13,2.81,2.81,0,0,1-2.1.59,2.84,2.84,0,0,1-1.92-1.19,2.47,2.47,0,0,1-.28-2.23A4.5,4.5,0,0,1,201.34,166.88Z"/></g><path class="cls-10" d="M203.61,175.84c-5.85,0-7.92-.56-7.92-.56s.19,7.48,7.92,7.48,7.92-7.48,7.92-7.48S209.46,175.84,203.61,175.84Z"/><path class="cls-11" d="M200.15,182.13a8.87,8.87,0,0,0,3.46.63,7.35,7.35,0,0,0,6.23-2.76,4.82,4.82,0,0,0-3.36-.47c-1.44.31-1.14,1.07-1.77,1C201.13,179.84,200.15,182.13,200.15,182.13Z"/><path class="cls-12" d="M210.3,175.5h0a51.48,51.48,0,0,1-6.69.35,46.11,46.11,0,0,1-7.32-.44h0s-.09,1.81,2.87,2.44C203.61,178.8,210,178.08,210.3,175.5Z"/><path class="cls-13" d="M195.69,175.28s6.41-1.36,7.46-.81c1.46.75-.36-1.16,8.37.81A46.15,46.15,0,0,1,195.69,175.28Z"/><path class="cls-13" d="M211.51,175.28a8,8,0,0,1-15.83,0s-.45,8.74,7.93,8.74S211.51,175.28,211.51,175.28Z"/><path class="cls-6" d="M184.92,120.41c-21.24,1.47-23.54,18.1-22.08,33,1.81,18.5,12.8,28.72,12.8,28.72-6.08-11.25-4.71-26.33-4.71-26.33,17.92-9.52,14-14.69,14-14.69,16.57,16.43,48.42,4.19,51.36,14.69,0,0,1.38,15.08-4.71,26.33,0,0,11-10.18,12.81-28.72C246.73,128.59,220.19,99.92,184.92,120.41Z"/><path class="cls-3" d="M169.55,171.37h0a4.49,4.49,0,0,1-4.49-4.49h0a4.49,4.49,0,0,1,4.49-4.49h0c2.49,0,4.49,3,4.49,4.49S172,171.37,169.55,171.37Z"/><g class="cls-8"><path class="cls-9" d="M169.55,165.53a1.63,1.63,0,0,1,1.16.29,1.13,1.13,0,0,1,0,2.11,1.63,1.63,0,0,1-1.16.29,2,2,0,0,0,1-.5.93.93,0,0,0,0-1.68A2.08,2.08,0,0,0,169.55,165.53Z"/></g><path class="cls-3" d="M237.66,171.37h0a4.49,4.49,0,0,0,4.49-4.49h0a4.49,4.49,0,0,0-4.49-4.49h0c-2.48,0-4.5,3-4.5,4.49S235.17,171.37,237.66,171.37Z"/><g class="cls-8"><path class="cls-9" d="M237.66,165.53a2.05,2.05,0,0,0-1,.5.93.93,0,0,0,0,1.68,2,2,0,0,0,1,.5,1.63,1.63,0,0,1-1.16-.29,1.13,1.13,0,0,1,0-2.11A1.64,1.64,0,0,1,237.66,165.53Z"/></g><path class="cls-14" d="M194.48,163.17c.67,1.4-3.19,4-7.46,4s-7.75-3.43-7.73-4.74,3.46-4.74,7.73-4.74S194.06,162.29,194.48,163.17Z"/><path class="cls-6" d="M179.29,162.39a4.26,4.26,0,0,1,1-2.25,7.22,7.22,0,0,1,1.92-1.6,6.76,6.76,0,0,1,4.79-.88,16.77,16.77,0,0,0-4.3,1.73A10,10,0,0,0,179.29,162.39Z"/><circle class="cls-6" cx="187.22" cy="162.39" r="4.04"/><circle class="cls-15" cx="187.22" cy="162.39" r="1.63"/><path class="cls-6" d="M194.55,155.74a21.5,21.5,0,0,0-8-1.78,16.89,16.89,0,0,0-4,.46,41.15,41.15,0,0,0-4.07,1.25,9.92,9.92,0,0,1,3.58-2.68,10.81,10.81,0,0,1,4.48-1,11,11,0,0,1,4.47,1A9.07,9.07,0,0,1,194.55,155.74Z"/><path class="cls-14" d="M212.73,163.17c-.66,1.4,3.2,4,7.47,4s7.75-3.43,7.73-4.74-3.46-4.74-7.73-4.74S213.15,162.29,212.73,163.17Z"/><path class="cls-6" d="M227.92,162.39a10.07,10.07,0,0,0-3.43-3,16.82,16.82,0,0,0-4.3-1.73,6.75,6.75,0,0,1,4.79.88,7.13,7.13,0,0,1,1.92,1.6A4.27,4.27,0,0,1,227.92,162.39Z"/><path class="cls-6" d="M215.94,162.39a4,4,0,1,0,4-4A4,4,0,0,0,215.94,162.39Z"/><circle class="cls-15" cx="219.99" cy="162.39" r="1.63"/><path class="cls-6" d="M212.66,155.74A9.09,9.09,0,0,1,216.2,153a11.06,11.06,0,0,1,4.47-1,10.81,10.81,0,0,1,4.48,1,9.89,9.89,0,0,1,3.58,2.68,41.15,41.15,0,0,0-4.07-1.25,16.89,16.89,0,0,0-4-.46A21.49,21.49,0,0,0,212.66,155.74Z"/><path class="cls-5" d="M181.55,201.52s-10.32-1.31-8.86,15.8l9.78,5.31,2.44-5.94Z"/><path class="cls-5" d="M225.62,201.52s10.32-1.31,8.86,15.8l-9.78,5.31-2.44-5.94Z"/><path class="cls-6" d="M190,231.26c-3.09-1.87-5.26,1.1-5.26,1.1l-.42.24s-8.15,6.52,1.06,21.51a11.84,11.84,0,0,1,6.56-7.86C197.61,243.42,193.06,233.14,190,231.26Z"/><path class="cls-6" d="M195.41,188.72c-.32-1.44-6.56-.8-9.73-3.5-1.16-.38-15.5-10.4-15-9.26,1.84,4,8.3,12.59,8.62,14.49a11.15,11.15,0,0,0,2.88,5.11,5.16,5.16,0,0,0-.7,2.66A8.08,8.08,0,0,0,183,202a11.1,11.1,0,0,0,1.35,1.67c-1.38,1.45-2.64,2.8-2.23,5.08a5.07,5.07,0,0,0,1.19,2.36c-3.14,2.9-1.94,5.9-.81,8.09a3.26,3.26,0,0,0-1.18,3.43,6.81,6.81,0,0,0,1.84,3.27,4.88,4.88,0,0,0-1.62,2.52c-1.76,6.63,13.41,5.86,11.76-2.4a5.67,5.67,0,0,0-.81-1.65,5,5,0,0,0,1.56-4,4.36,4.36,0,0,0-.84-2.36c1.92-1.15,1.93-3.23,1-5.08,2.71-1.9,2.26-6.67.65-9.37,1.38-1.48,1.42-3.51-.11-5.54a5,5,0,0,0-.48-.52C195.64,193.95,196.28,192.72,195.41,188.72Z"/><path class="cls-16" d="M386.61,158.06c-17.48,0-32.86-4.59-41.65-18,.36,8.5-7.67,132.93,41.63,132.93S427.85,148.6,428.22,140.1C419.42,153.47,404.09,158.06,386.61,158.06Z"/><path class="cls-3" d="M356.58,261.77s1.75,1.55,1.27,7.63c-.28,3.6,1.9,5.1.59,6s-3.54-1.43-4.07-3.38a57.94,57.94,0,0,0-.32,6.64c0,2.48-2.1,3.76-3,1.57s.35-8.75.35-8.75-.31,3.49-.49,6c-.24,3.13-.83,4.11-2.1,4-2.13-.21-1.48-4.31-.62-8.12,0,0-.3,6.43-2.4,6.32s-2.09-3.11-.29-7.73c0,0-.51,4.32-2.51,3.69s.57-4.66,2.1-8.26,1.35-5.64,5.43-7.84C353.37,258,356.58,261.77,356.58,261.77Z"/><path class="cls-3" d="M369.49,204.79c.06-.14,0,0-.07.1l-.16.31-.35.73c-.23.52-.46,1.06-.69,1.62-.45,1.12-.87,2.3-1.28,3.49-.81,2.39-1.54,4.87-2.22,7.37-1.36,5-2.52,10.15-3.55,15.33s-1.92,10.36-2.75,15.65-1.61,10.57-2.35,15.85h0a3.29,3.29,0,0,1-6.54-.61c.25-5.39.54-10.75.88-16.13s.72-10.82,1.35-16.23,1.34-10.82,2.33-16.26c.49-2.72,1.05-5.45,1.73-8.2.34-1.38.71-2.76,1.14-4.17.21-.71.44-1.42.7-2.15l.42-1.13.24-.6c.11-.24.15-.37.37-.8a6.14,6.14,0,0,1,10.82,5.81Z"/><path class="cls-3" d="M416.59,261.77s-1.75,1.55-1.27,7.63c.28,3.6-1.9,5.1-.59,6s3.54-1.43,4.06-3.38a59.2,59.2,0,0,1,.31,6.64c0,2.48,2.1,3.76,3,1.57s-.35-8.75-.35-8.75.31,3.49.49,6c.23,3.13.83,4.11,2.1,4,2.12-.21,1.48-4.31.62-8.12,0,0,.31,6.43,2.4,6.32s2.09-3.11.29-7.73c0,0,.51,4.32,2.51,3.69s-.58-4.66-2.11-8.26-1.35-5.64-5.43-7.84C419.81,258,416.59,261.77,416.59,261.77Z"/><path class="cls-3" d="M414.51,199c.22.43.26.56.37.8l.25.6.41,1.13c.26.73.49,1.44.7,2.15.43,1.41.8,2.79,1.14,4.17.67,2.75,1.23,5.48,1.73,8.2,1,5.44,1.72,10.86,2.33,16.26s1,10.87,1.35,16.23.63,10.74.88,16.13a3.29,3.29,0,0,1-6.54.63v0c-.74-5.28-1.53-10.58-2.35-15.85s-1.71-10.47-2.75-15.65-2.19-10.32-3.55-15.33c-.68-2.5-1.41-5-2.22-7.37-.41-1.19-.83-2.37-1.28-3.49-.23-.56-.45-1.11-.69-1.62l-.35-.73-.16-.31c0-.06-.13-.24-.07-.1A6.14,6.14,0,0,1,414.51,199Z"/><path class="cls-3" d="M386.91,266.74l-4.29,94.17a6.15,6.15,0,0,1-12.28,0L366,266.74a10.45,10.45,0,1,1,20.87-1C386.92,266.1,386.92,266.43,386.91,266.74Z"/><path class="cls-17" d="M376.47,351.4c-5.27,0-6.51,1.45-6.51,1.45l.37,8.06a6.15,6.15,0,0,0,12.28,0l.37-8.06S381.74,351.4,376.47,351.4Zm5.41,4.35s.22,4.39-5.3,4.39-5.53-4.39-5.53-4.39l-.08-1.93s1-1.22,5.5-1.22,5.5,1.22,5.5,1.22Z"/><path class="cls-3" d="M407.14,266.74l-4.29,94.17a6.15,6.15,0,0,1-12.28,0l-4.3-94.17a10.45,10.45,0,1,1,20.87-1C407.15,266.1,407.15,266.43,407.14,266.74Z"/><path class="cls-17" d="M390.19,352.85l.37,8.06a6.14,6.14,0,0,0,12.28,0l.37-8.06s-1.24-1.45-6.51-1.45S390.19,352.85,390.19,352.85Zm1,1s1-1.22,5.5-1.22,5.5,1.22,5.5,1.22l-.09,1.93s0,4.39-5.52,4.39-5.3-4.39-5.3-4.39Z"/><path class="cls-18" d="M366.11,244.76c-1,3.06-2.13,7.08-3.32,11.63h47.59c-1.19-4.55-2.32-8.57-3.31-11.63a59.57,59.57,0,0,1-.61-33.64l2.74-15.33c-5.52-2.55-16.71-2.39-16.71-2.39h-11.8s-11.2-.16-16.72,2.39l2.75,15.33A59.65,59.65,0,0,1,366.11,244.76Z"/><path class="cls-17" d="M366.07,244.91c-5.79,17.85-16,56.24-16,56.24h73s-10.2-38.4-16-56.24c0,0-3,2.36-20.53,2.36S366.07,244.91,366.07,244.91Z"/><path class="cls-7" d="M396.57,194.06s-5.87-6.41-.69-12.65l-8.32-.16v0l-1,0-1,0v0l-8.32.16c5.18,6.25-.68,12.65-.68,12.65a22,22,0,0,0,20,0Z"/><path class="cls-3" d="M427.53,143c0,18.76-18.33,39.6-40.94,39.6s-40.95-20.84-40.95-39.6,18.33-32,40.95-32S427.53,124.22,427.53,143Z"/><g class="cls-8"><path class="cls-9" d="M384.26,160.26a6.5,6.5,0,0,0-.8,2,2.36,2.36,0,0,0,.35,1.89,2.94,2.94,0,0,0,1.63,1.05,3.83,3.83,0,0,0,2.07-.13,2.89,2.89,0,0,1-2.15.61,2.92,2.92,0,0,1-2-1.22,2.54,2.54,0,0,1-.29-2.28A4.58,4.58,0,0,1,384.26,160.26Z"/></g><path class="cls-10" d="M386.59,169.45c-6,0-8.12-.57-8.12-.57s.19,7.67,8.12,7.67,8.12-7.67,8.12-7.67S392.6,169.45,386.59,169.45Z"/><path class="cls-11" d="M383,175.9a9.06,9.06,0,0,0,3.55.65,7.53,7.53,0,0,0,6.38-2.83,4.93,4.93,0,0,0-3.45-.49c-1.48.32-1.18,1.1-1.81,1C384.06,173.56,383,175.9,383,175.9Z"/><path class="cls-12" d="M393.45,169.1h0a52.59,52.59,0,0,1-6.86.35,47.32,47.32,0,0,1-7.51-.45h0s-.09,1.86,2.94,2.51C386.59,172.49,393.18,171.75,393.45,169.1Z"/><path class="cls-13" d="M378.47,168.88s6.58-1.39,7.65-.83c1.49.77-.37-1.19,8.58.83A47.29,47.29,0,0,1,378.47,168.88Z"/><path class="cls-13" d="M394.7,168.88a8.19,8.19,0,0,1-16.23,0s-.47,9,8.14,9S394.7,168.88,394.7,168.88Z"/><path class="cls-16" d="M376.47,108.3c-30.83-1.59-33.19,22.87-31.69,38.15,1.85,19,13.13,29.45,13.13,29.45-6.23-11.54-4.82-27-4.82-27,18.37-9.76,28.25-21.63,28.25-21.63,17,16.86,35.74,10.86,38.76,21.63,0,0,1.4,15.46-4.83,27,0,0,11.33-10.44,13.14-29.45C430.81,121,405.71,90.42,376.47,108.3Z"/><path class="cls-3" d="M351.67,164.87h0a4.61,4.61,0,0,1-4.61-4.61h0a4.61,4.61,0,0,1,4.61-4.61h0c2.54,0,4.61,3.06,4.61,4.61S354.21,164.87,351.67,164.87Z"/><g class="cls-8"><path class="cls-9" d="M351.67,158.88a1.67,1.67,0,0,1,1.18.3,1.16,1.16,0,0,1,0,2.16,1.66,1.66,0,0,1-1.18.3,2.1,2.1,0,0,0,1-.52,1,1,0,0,0,0-1.73A2.11,2.11,0,0,0,351.67,158.88Z"/></g><path class="cls-3" d="M421.51,164.87h0a4.61,4.61,0,0,0,4.61-4.61h0a4.61,4.61,0,0,0-4.61-4.61h0c-2.54,0-4.61,3.06-4.61,4.61S419,164.87,421.51,164.87Z"/><g class="cls-8"><path class="cls-9" d="M421.51,158.88a2.11,2.11,0,0,0-1,.51,1,1,0,0,0,0,1.73,2.1,2.1,0,0,0,1,.52,1.67,1.67,0,0,1-1.18-.3,1.16,1.16,0,0,1,0-2.16A1.67,1.67,0,0,1,421.51,158.88Z"/></g><path class="cls-14" d="M377.23,156.46c.69,1.43-3.28,4.06-7.65,4.06s-7.95-3.52-7.92-4.86,3.55-4.86,7.92-4.86S376.8,155.55,377.23,156.46Z"/><path class="cls-16" d="M361.65,155.66a4.39,4.39,0,0,1,1-2.31,7.35,7.35,0,0,1,2-1.65,6.92,6.92,0,0,1,4.91-.9,17.14,17.14,0,0,0-4.41,1.77A10.33,10.33,0,0,0,361.65,155.66Z"/><circle class="cls-16" cx="369.79" cy="155.66" r="4.15"/><circle class="cls-19" cx="369.79" cy="155.66" r="1.67"/><path class="cls-16" d="M377.31,148.84a22,22,0,0,0-8.23-1.83,17.29,17.29,0,0,0-4.08.47,42.25,42.25,0,0,0-4.17,1.29,10.15,10.15,0,0,1,3.67-2.75,11.08,11.08,0,0,1,4.59-1,11.34,11.34,0,0,1,4.59,1A9.32,9.32,0,0,1,377.31,148.84Z"/><path class="cls-14" d="M395.95,156.46c-.68,1.43,3.28,4.06,7.65,4.06s8-3.52,7.92-4.86-3.55-4.86-7.92-4.86S396.38,155.55,395.95,156.46Z"/><path class="cls-16" d="M411.52,155.66a10.28,10.28,0,0,0-3.51-3.09,17.15,17.15,0,0,0-4.41-1.77,6.93,6.93,0,0,1,4.91.9,7.33,7.33,0,0,1,2,1.65A4.36,4.36,0,0,1,411.52,155.66Z"/><path class="cls-16" d="M399.25,155.66a4.15,4.15,0,1,0,4.15-4.15A4.15,4.15,0,0,0,399.25,155.66Z"/><circle class="cls-19" cx="403.39" cy="155.66" r="1.67"/><path class="cls-16" d="M395.87,148.84a9.32,9.32,0,0,1,3.64-2.8,11.34,11.34,0,0,1,4.59-1,11.08,11.08,0,0,1,4.59,1,10.15,10.15,0,0,1,3.67,2.75,42.18,42.18,0,0,0-4.17-1.29,17.34,17.34,0,0,0-4.09-.47A22,22,0,0,0,395.87,148.84Z"/><path class="cls-18" d="M364,195.79s-10.58-1.34-9.08,16.2l10,5.44,2.51-6.09Z"/><path class="cls-18" d="M409.16,195.79s10.58-1.34,9.08,16.2l-10,5.44-2.51-6.09Z"/><path class="cls-3" d="M147.79,154.79c0,16.29-15.92,34.39-35.55,34.39s-35.55-18.1-35.55-34.39,15.91-32.61,35.55-32.61S147.79,138.5,147.79,154.79Z"/><path class="cls-20" d="M90.31,120.37s-11.6.68-16,10c-11.94,25.18,8.36,42.28,8.36,42.28s-7.74-9.74,1.06-9.74c.81,0,.65,3.2,3.17-4.06,1.57-4.52,9.78-8.23,8.47-18.41,0,0,4.54,12,22.29,11.38,24.26-.9,21.05,22.13,24.19,10.62.73-2.68,4.61-2,.67,9.19,0,0,19.59-16.23,5.63-41.42C140,115.49,112.24,101.3,90.31,120.37Z"/><path class="cls-3" d="M92.81,309.49l1.72,44.26c.59.11,6.59,1.16,9.07.21l3.19-44.47Z"/><path class="cls-21" d="M94.47,353.74s6.59,1.23,9.17.2c0,0,2,6.56.62,10l-.08,1.72s-10.42.59-14.69.59c-3.12,0-8.88-.74-9.1-1.51l.15-.67a4.46,4.46,0,0,1,3.28-5.23A34.52,34.52,0,0,0,94.47,353.74Z"/><path class="cls-3" d="M131.67,309.49,130,353.74c-.6.11-6.6,1.16-9.07.21l-3.18-44.47Z"/><path class="cls-21" d="M130,353.74s-6.59,1.23-9.16.2c0,0-2,6.56-.63,10l.08,1.72s10.42.59,14.69.59c3.12,0,8.87-.74,9.09-1.51l-.15-.67a4.46,4.46,0,0,0-3.28-5.23A34.63,34.63,0,0,1,130,353.74Z"/><path class="cls-22" d="M90.2,271.13,92.48,355l11.67-.15s6.79-62.59,7.59-62.59h1l7.46,62.64H132l2.31-83.78Z"/><rect class="cls-21" x="90.2" y="265.09" width="44.07" height="6.04"/><path class="cls-3" d="M82.8,271.82s1.67,1.61,1.22,7.92c-.27,3.73,1.82,5.3.56,6.24s-3.38-1.48-3.89-3.51a65.61,65.61,0,0,0-.3,6.9c0,2.58-2,3.9-2.9,1.63s.34-9.08.34-9.08-.3,3.62-.47,6.2c-.22,3.25-.79,4.27-2,4.14-2-.21-1.41-4.47-.59-8.42,0,0-.29,6.68-2.3,6.55s-2-3.22-.28-8c0,0-.49,4.48-2.41,3.83s.55-4.83,2-8.57,1.29-5.85,5.21-8.13C79.72,267.9,82.8,271.82,82.8,271.82Z"/><path class="cls-3" d="M91.73,210.47c0-.11,0,.12-.07.21l-.12.41-.24.9-.47,1.9c-.3,1.3-.6,2.61-.85,3.94-.52,2.66-1,5.36-1.47,8.06-.89,5.41-1.86,10.88-2.44,16.26s-1.2,11-1.76,16.47l-.81,8.26-.69,7.89,0,.53a4.4,4.4,0,0,1-8.77-.53v-.56l0-.29,0-.54.09-1.05.18-2.09.37-4.15.74-8.3c.5-5.54,1-11.06,1.59-16.62s1.28-11.14,2-16.7c.38-2.78.77-5.55,1.22-8.35l.7-4.22.41-2.16.24-1.12.14-.6c.06-.24.08-.35.22-.79a5.12,5.12,0,1,1,9.71,3.26Z"/><path class="cls-23" d="M88.22,201.12s-7.27-.06-9.81,19.2c-.47,3.6-2.06,12.83-2.06,12.83l10.53,3.55L90.56,218Z"/><path class="cls-3" d="M141.68,271.82s-1.67,1.61-1.22,7.92c.28,3.73-1.82,5.3-.57,6.24s3.39-1.48,3.89-3.51a66.55,66.55,0,0,1,.3,6.9c0,2.58,2,3.9,2.89,1.63s-.33-9.08-.33-9.08.3,3.62.47,6.2c.23,3.25.79,4.27,2,4.14,2-.21,1.42-4.47.59-8.42,0,0,.29,6.68,2.3,6.55s2-3.22.27-8c0,0,.49,4.48,2.41,3.83s-.55-4.83-2-8.57-1.3-5.85-5.21-8.13C144.75,267.9,141.68,271.82,141.68,271.82Z"/><path class="cls-3" d="M142.46,207.22c.14.43.16.55.22.79l.14.6.24,1.12.41,2.16.7,4.23c.45,2.8.85,5.58,1.22,8.35.74,5.56,1.41,11.06,2,16.7s1.09,11.09,1.59,16.62l.74,8.3.37,4.15.18,2.09.09,1.05,0,.54,0,.29v.56a4.4,4.4,0,0,1-8.77.54l0-.54-.69-7.89-.81-8.26c-.56-5.5-1.13-11-1.76-16.47s-1.55-10.85-2.44-16.26c-.46-2.7-.95-5.4-1.47-8.06-.26-1.33-.56-2.65-.85-3.94l-.47-1.9-.24-.9-.12-.41c0-.09-.1-.32-.07-.21a5.12,5.12,0,1,1,9.71-3.26Z"/><path class="cls-23" d="M136.26,201.12s7.27-.06,9.81,19.2c.47,3.6,2.06,12.83,2.06,12.83L137.6,236.7,133.92,218Z"/><path class="cls-23" d="M119.6,197.52s-1.68,1.86-7.36,1.86-7.36-1.86-7.36-1.86l-3.3,1.74s2.12,3.48,10.67,3.48,10.66-3.48,10.66-3.48Z"/><path class="cls-24" d="M136.24,201.12c-2.8-1.32-8.86-1.8-13.33-2l.24.13s-2.12,3.48-10.67,3.48-10.66-3.48-10.66-3.48l.25-.13c-4.63.17-11,.65-13.83,2L90.59,218s-1.4,45.42-1.88,47.14h47.07c-.48-1.72-1.89-47.14-1.89-47.14Z"/><g class="cls-8"><path class="cls-9" d="M110.07,169.68a6,6,0,0,0-.75,1.84,2.2,2.2,0,0,0,.33,1.76,2.75,2.75,0,0,0,1.52,1,3.56,3.56,0,0,0,1.93-.12,2.69,2.69,0,0,1-2,.57,2.73,2.73,0,0,1-1.84-1.14,2.37,2.37,0,0,1-.27-2.13A4.29,4.29,0,0,1,110.07,169.68Z"/></g><path class="cls-10" d="M112.24,178.26c-5.61,0-7.57-.54-7.57-.54a7.87,7.87,0,0,0,15.15,0S117.84,178.26,112.24,178.26Z"/><path class="cls-25" d="M104.67,177.73s4.91-.43,6.88-.46a39.33,39.33,0,0,1,8.26.46A44,44,0,0,1,104.67,177.73Z"/><path class="cls-12" d="M105.3,177.84a4.51,4.51,0,0,0,2.86,1.48c4.19.82,9.83.4,11.12-1.49A44.84,44.84,0,0,1,105.3,177.84Z"/><path class="cls-25" d="M119.81,177.73c-1.39,3.9-5.49,4.66-7.59,4.66s-6.39-.91-7.55-4.66c0,0,1.05,6.36,7.59,6.63S119.81,177.73,119.81,177.73Z"/><path class="cls-3" d="M81.2,168.24h0a4.1,4.1,0,0,1-4.1-4.09h0a4.1,4.1,0,0,1,4.1-4.1h0c2.26,0,4.1,2.72,4.1,4.1S83.46,168.24,81.2,168.24Z"/><g class="cls-8"><path class="cls-9" d="M81.2,162.93a1.48,1.48,0,0,1,1.05.26,1,1,0,0,1,0,1.92,1.49,1.49,0,0,1-1.05.26,1.88,1.88,0,0,0,.9-.46.85.85,0,0,0,0-1.53A1.89,1.89,0,0,0,81.2,162.93Z"/></g><path class="cls-3" d="M143.28,168.24h0a4.09,4.09,0,0,0,4.09-4.09h0a4.1,4.1,0,0,0-4.09-4.1h0c-2.26,0-4.1,2.72-4.1,4.1S141,168.24,143.28,168.24Z"/><g class="cls-8"><path class="cls-9" d="M143.28,162.93a1.89,1.89,0,0,0-.9.45.85.85,0,0,0,0,1.53,1.89,1.89,0,0,0,.9.46,1.48,1.48,0,0,1-1.05-.26,1,1,0,0,1,0-1.92A1.49,1.49,0,0,1,143.28,162.93Z"/></g><path class="cls-14" d="M103.57,165.9c.63,1.33-3,3.77-7.08,3.77s-7.36-3.25-7.34-4.5,3.29-4.5,7.34-4.5S103.17,165.06,103.57,165.9Z"/><circle class="cls-26" cx="96.68" cy="165.16" r="3.84"/><circle class="cls-27" cx="96.68" cy="165.16" r="1.55"/><path class="cls-20" d="M103.65,158.84A20.4,20.4,0,0,0,96,157.15a16,16,0,0,0-3.78.43,38.73,38.73,0,0,0-3.86,1.19,9.4,9.4,0,0,1,3.4-2.55,10.24,10.24,0,0,1,4.26-.92,10.5,10.5,0,0,1,4.24.94A8.61,8.61,0,0,1,103.65,158.84Z"/><path class="cls-14" d="M120.91,165.9c-.64,1.33,3,3.77,7.08,3.77s7.36-3.25,7.34-4.5-3.29-4.5-7.34-4.5S121.31,165.06,120.91,165.9Z"/><circle class="cls-26" cx="127.8" cy="165.16" r="3.84"/><circle class="cls-27" cx="127.8" cy="165.16" r="1.55"/><path class="cls-20" d="M120.84,158.84a8.61,8.61,0,0,1,3.37-2.59,10.5,10.5,0,0,1,4.24-.94,10.26,10.26,0,0,1,4.26.91,9.42,9.42,0,0,1,3.4,2.55,39,39,0,0,0-3.86-1.19,16,16,0,0,0-3.78-.43A20.43,20.43,0,0,0,120.84,158.84Z"/><path class="cls-7" d="M119.62,188.16a27.22,27.22,0,0,1-14.77,0h-.07a8.41,8.41,0,0,1,.37,9.61c.67.5,2.66,1.63,7.08,1.63s6.41-1.13,7.08-1.63a8.41,8.41,0,0,1,.37-9.61Z"/><path class="cls-20" d="M91.46,117.33a7.47,7.47,0,0,0-8-4.31s1.83.5,3.64,3.54a6.62,6.62,0,0,0-6.17,1.8s5.08-.87,5.5.6,8.93,1.88,8.93,1.88l.64-3.19s-3.13-3.3,2.71-9.79C98.69,107.85,91.13,109.29,91.46,117.33Z"/><path class="cls-3" d="M327.06,152.3c0,16.56-16.18,35-36.14,35s-36.14-18.39-36.14-35,16.18-33.15,36.14-33.15S327.06,135.74,327.06,152.3Z"/><path class="cls-16" d="M252.6,122.86c-14.05,24.6,8.23,47.61,8.23,47.61s-8.84-10.78.11-10.78c.82,0,1.63,4.14,4.2-3.24,1.59-4.6,25.93-12.95,24.59-23.29a21,21,0,0,0,15.43,13.12c25,5.44,9.23,22.19,14.51,13.55,1.47-2.41,7.09-3.52,3.09,7.82,0,0,15.76-25.15,5.08-47C318.31,101.14,268.34,95.3,252.6,122.86Z"/><path class="cls-3" d="M273.26,348.89l-.34,5.66c.6.11,6.7,1.18,9.22.22l-.24-5.87Z"/><path class="cls-28" d="M272.86,354.54s6.7,1.25,9.32.21c0,0,2,6.66.64,10.15l-.08,1.74s-10.6.6-14.94.6c-3.17,0-9-.75-9.24-1.53l.16-.69A4.53,4.53,0,0,1,262,359.7,35.08,35.08,0,0,0,272.86,354.54Z"/><path class="cls-3" d="M308.58,348.89l.34,5.66c-.6.11-6.7,1.18-9.22.22l.24-5.87Z"/><path class="cls-28" d="M309,354.54s-6.69,1.25-9.31.21c0,0-2,6.66-.64,10.15l.08,1.74s10.59.6,14.93.6c3.17,0,9-.75,9.25-1.53l-.16-.69a4.53,4.53,0,0,0-3.33-5.31A35.17,35.17,0,0,1,309,354.54Z"/><path class="cls-29" d="M268.52,270.57l2,85.14H283s6.6-63.66,7.42-63.66h1l7.6,63.66h12.47l1.8-85.14Z"/><rect class="cls-28" x="268.52" y="264.43" width="44.8" height="6.14"/><path class="cls-3" d="M261,271.27s1.7,1.63,1.23,8.06c-.27,3.8,1.85,5.38.58,6.34s-3.44-1.51-4-3.56a66.66,66.66,0,0,0-.31,7c0,2.62-2,4-2.95,1.66s.34-9.23.34-9.23-.3,3.68-.48,6.3c-.23,3.3-.8,4.34-2,4.21-2.07-.22-1.44-4.54-.59-8.56,0,0-.31,6.78-2.35,6.66s-2-3.28-.28-8.15c0,0-.5,4.55-2.45,3.89s.56-4.91,2.05-8.72,1.32-5.95,5.29-8.27C257.86,267.29,261,271.27,261,271.27Z"/><path class="cls-3" d="M270.07,208.91c0-.11,0,.12-.07.21l-.12.42-.25.91-.47,1.94c-.3,1.32-.61,2.66-.87,4-.53,2.71-1,5.44-1.5,8.19-.9,5.5-1.89,11.05-2.48,16.52s-1.22,11.15-1.78,16.75l-.82,8.39-.7,8,0,.54a4.47,4.47,0,0,1-8.92-.54v-.56l0-.3,0-.55.09-1.07.19-2.12.38-4.22.75-8.44c.51-5.63,1-11.25,1.61-16.9s1.3-11.34,2.06-17c.38-2.82.79-5.65,1.24-8.49l.72-4.29.42-2.2.24-1.14.14-.61c.06-.24.09-.36.22-.8a5.21,5.21,0,1,1,9.87,3.31Z"/><path class="cls-3" d="M320.84,271.27s-1.7,1.63-1.24,8.06c.28,3.8-1.85,5.38-.57,6.34s3.44-1.51,4-3.56a66.66,66.66,0,0,1,.31,7c0,2.62,2,4,2.95,1.66s-.34-9.23-.34-9.23.3,3.68.48,6.3c.22,3.3.8,4.34,2,4.21,2.07-.22,1.44-4.54.6-8.56,0,0,.3,6.78,2.34,6.66s2-3.28.28-8.15c0,0,.5,4.55,2.45,3.89s-.56-4.91-2.05-8.72-1.32-5.95-5.3-8.27C324,267.29,320.84,271.27,320.84,271.27Z"/><path class="cls-3" d="M321.64,205.6c.14.44.16.56.22.8l.14.61.24,1.14.42,2.2.72,4.3c.46,2.84.86,5.67,1.24,8.49.75,5.65,1.43,11.25,2.05,17s1.1,11.27,1.61,16.9l.75,8.44.38,4.22.19,2.12.09,1.07,0,.55,0,.3v.56a4.47,4.47,0,0,1-8.92.55l0-.55-.7-8-.82-8.39c-.57-5.59-1.15-11.19-1.78-16.74s-1.58-11-2.48-16.53c-.47-2.75-1-5.49-1.5-8.19-.26-1.35-.57-2.69-.87-4l-.47-1.94-.25-.91-.12-.42c0-.1-.1-.32-.07-.21a5.21,5.21,0,1,1,9.88-3.31Z"/><path class="cls-22" d="M267.92,225.2l1-8.69L266.5,199.4s-7.39-.06-10,19.52c0,.34-.29,2.72-.64,6.29Z"/><path class="cls-22" d="M325.94,225.2c-.36-3.56-.6-5.94-.64-6.29-2.58-19.58-10-19.52-10-19.52l-2.38,17.11,1,8.69Z"/><path class="cls-24" d="M316.7,199.77c-2.85-1.34-10.39-2.2-14.93-2.38l-5.23.6s4.61.78-4.08.78-12.13-1.25-12.13-1.25l.26-.14c-4.7.17-12.57,1-15.45,2.39l3.77,16.74s-1.43,46.17-1.91,47.92h47.85c-.49-1.75-1.92-47.92-1.92-47.92Z"/><g class="cls-8"><path class="cls-9" d="M288.71,167.44a6.15,6.15,0,0,0-.76,1.87,2.24,2.24,0,0,0,.34,1.79,2.79,2.79,0,0,0,1.54,1,3.63,3.63,0,0,0,2-.13,2.74,2.74,0,0,1-2,.58,2.78,2.78,0,0,1-1.87-1.16,2.42,2.42,0,0,1-.27-2.17A4.36,4.36,0,0,1,288.71,167.44Z"/></g><path class="cls-10" d="M290.92,176.16c-5.7,0-7.7-.55-7.7-.55a8,8,0,0,0,15.4,0S296.61,176.16,290.92,176.16Z"/><path class="cls-25" d="M283.21,175.62s5-.43,7-.47a39.63,39.63,0,0,1,8.4.47A44.88,44.88,0,0,1,283.21,175.62Z"/><path class="cls-12" d="M283.86,175.73a4.58,4.58,0,0,0,2.91,1.5c4.26.84,10,.41,11.3-1.52A45.49,45.49,0,0,1,283.86,175.73Z"/><path class="cls-25" d="M298.61,175.62c-1.41,4-5.58,4.74-7.72,4.74s-6.49-.92-7.68-4.74c0,0,1.08,6.46,7.72,6.74S298.61,175.62,298.61,175.62Z"/><path class="cls-3" d="M259.37,166h0a4.17,4.17,0,0,1-4.17-4.16h0a4.17,4.17,0,0,1,4.17-4.17h0c2.29,0,4.16,2.77,4.16,4.17S261.66,166,259.37,166Z"/><g class="cls-8"><path class="cls-9" d="M259.37,160.57a1.5,1.5,0,0,1,1.07.27,1,1,0,0,1,0,1.95,1.5,1.5,0,0,1-1.07.27,1.91,1.91,0,0,0,.92-.46.86.86,0,0,0,0-1.56A1.91,1.91,0,0,0,259.37,160.57Z"/></g><path class="cls-3" d="M322.47,166h0a4.16,4.16,0,0,0,4.16-4.16h0a4.16,4.16,0,0,0-4.16-4.17h0c-2.3,0-4.16,2.77-4.16,4.17S320.17,166,322.47,166Z"/><g class="cls-8"><path class="cls-9" d="M322.47,160.57a1.91,1.91,0,0,0-.92.46.86.86,0,0,0,0,1.56,1.91,1.91,0,0,0,.92.46,1.51,1.51,0,0,1-1.07-.27,1,1,0,0,1,0-1.95A1.51,1.51,0,0,1,322.47,160.57Z"/></g><path class="cls-14" d="M282.11,163.59c.65,1.35-3.09,3.83-7.2,3.83s-7.48-3.31-7.46-4.58,3.34-4.58,7.46-4.58S281.7,162.74,282.11,163.59Z"/><circle class="cls-16" cx="275.1" cy="162.85" r="3.9"/><circle class="cls-19" cx="275.1" cy="162.85" r="1.57"/><path class="cls-16" d="M282.18,156.42a20.84,20.84,0,0,0-7.75-1.71,16.38,16.38,0,0,0-3.84.44,40,40,0,0,0-3.93,1.21,9.54,9.54,0,0,1,3.45-2.6,10.44,10.44,0,0,1,4.33-.93,10.68,10.68,0,0,1,4.32,1A8.76,8.76,0,0,1,282.18,156.42Z"/><path class="cls-14" d="M299.73,163.59c-.65,1.35,3.08,3.83,7.2,3.83s7.49-3.31,7.46-4.58-3.34-4.58-7.46-4.58S300.13,162.74,299.73,163.59Z"/><circle class="cls-16" cx="306.74" cy="162.85" r="3.9"/><circle class="cls-19" cx="306.74" cy="163.07" r="1.58"/><path class="cls-16" d="M299.66,156.42a8.74,8.74,0,0,1,3.42-2.64,10.65,10.65,0,0,1,4.32-1,10.44,10.44,0,0,1,4.33.93,9.56,9.56,0,0,1,3.45,2.6,40,40,0,0,0-3.93-1.21,16.36,16.36,0,0,0-3.84-.44A20.83,20.83,0,0,0,299.66,156.42Z"/><path class="cls-7" d="M298.42,186.22a27.7,27.7,0,0,1-15,0h-.07a8.55,8.55,0,0,1,.38,9.76c.68.51,2.7,1.65,7.2,1.65s6.52-1.14,7.2-1.65a8.56,8.56,0,0,1,.37-9.76Z"/><path class="cls-22" d="M298.4,195.74s-1.71,1.9-7.48,1.9-7.48-1.9-7.48-1.9l-3.35,1.78s2.15,3.54,10.84,3.54,10.84-3.54,10.84-3.54Z"/><path class="cls-16" d="M302.06,107S290.62,95.46,275.63,95c0,0,5.1,2,5.1,3.32,0,0-6.65-2.16-12.29,0l7.19,1.5s-6.18,0-10.34,1.82l24.47,5.65,17.9,7.64Z"/><rect class="cls-30" width="500" height="470"/></g></g></g></svg>