<svg xmlns="http://www.w3.org/2000/svg" xmlns:xlink="http://www.w3.org/1999/xlink" viewBox="0 0 500 470"><defs><style>.cls-1{isolation:isolate;}.cls-105,.cls-2,.cls-85{fill:none;}.cls-3{fill:#43c2cb;}.cls-4{fill:#159aa8;}.cls-5{fill:#492d20;}.cls-6{fill:#0eaac2;}.cls-7{fill:#127b80;}.cls-8{fill:#d9d1bc;}.cls-9{fill:url(#linear-gradient);}.cls-10{fill:url(#linear-gradient-2);}.cls-11{fill:url(#linear-gradient-3);}.cls-12{fill:url(#linear-gradient-4);}.cls-13{fill:url(#linear-gradient-5);}.cls-14{fill:url(#linear-gradient-6);}.cls-15{fill:url(#linear-gradient-7);}.cls-16{fill:url(#linear-gradient-8);}.cls-17{fill:url(#linear-gradient-9);}.cls-18{fill:url(#linear-gradient-10);}.cls-19{fill:url(#linear-gradient-11);}.cls-20{fill:url(#linear-gradient-12);}.cls-21{fill:url(#linear-gradient-13);}.cls-22{fill:url(#linear-gradient-14);}.cls-23{fill:url(#linear-gradient-15);}.cls-24{fill:url(#linear-gradient-16);}.cls-25{fill:url(#linear-gradient-17);}.cls-26{fill:url(#linear-gradient-18);}.cls-27{fill:url(#linear-gradient-19);}.cls-28{fill:url(#linear-gradient-20);}.cls-29{fill:url(#linear-gradient-21);}.cls-30{fill:url(#linear-gradient-22);}.cls-31{fill:url(#linear-gradient-23);}.cls-32{fill:url(#linear-gradient-24);}.cls-33{fill:url(#linear-gradient-25);}.cls-34{fill:url(#linear-gradient-26);}.cls-35{fill:url(#linear-gradient-27);}.cls-36{fill:url(#linear-gradient-28);}.cls-37{fill:url(#linear-gradient-29);}.cls-38{fill:url(#linear-gradient-30);}.cls-39{fill:url(#linear-gradient-31);}.cls-40{fill:url(#linear-gradient-32);}.cls-41{fill:url(#linear-gradient-33);}.cls-42{fill:url(#linear-gradient-34);}.cls-43{fill:url(#linear-gradient-35);}.cls-44{fill:url(#linear-gradient-36);}.cls-45{fill:url(#linear-gradient-37);}.cls-46{fill:#3c4e57;}.cls-47{fill:url(#linear-gradient-38);}.cls-48{fill:url(#linear-gradient-39);}.cls-49{fill:url(#linear-gradient-40);}.cls-50{fill:url(#linear-gradient-41);}.cls-51{fill:url(#linear-gradient-42);}.cls-52{fill:#2e7d98;}.cls-53{fill:#3e2f3e;}.cls-54{fill:#fab99f;}.cls-55{fill:#731c1e;}.cls-56{fill:#fff;}.cls-57{fill:#948271;}.cls-58{fill:#432213;}.cls-59{fill:#f3733e;}.cls-60{fill:#d5d7d7;}.cls-61{fill:#f4d9bf;}.cls-62{fill:#464545;}.cls-63{fill:#1d1d1b;}.cls-64{fill:#efcaa7;}.cls-65{fill:#c39368;}.cls-66{fill:#835627;}.cls-67{fill:#3b1b0f;}.cls-68{fill:#f8cbc1;}.cls-69{fill:#01293b;}.cls-70{fill:#023d55;}.cls-71{fill:#e7c1b8;}.cls-72{fill:#3f1517;}.cls-73{fill:#e9e6e6;}.cls-74{fill:#c7c6c5;}.cls-75{fill:#30302f;}.cls-76{fill:#100c0a;}.cls-77{fill:#57301c;}.cls-78{fill:#f3f3f3;}.cls-79{fill:#9f9f9f;}.cls-80{fill:#6a3125;}.cls-81{fill:#fbc2a1;}.cls-82{fill:#be8b6e;}.cls-83{fill:#c17c6f;}.cls-84{fill:#5c2221;}.cls-85{stroke:#d62661;stroke-linejoin:round;stroke-width:0.62px;}.cls-86{fill:#d62661;}.cls-87{fill:#3b4853;}.cls-88{fill:#43519c;}.cls-89{fill:#09958d;}.cls-90{fill:#01a79d;}.cls-91{fill:#971f24;}.cls-92,.cls-94{fill:#c53927;}.cls-92,.cls-93{mix-blend-mode:multiply;}.cls-93{fill:#941a26;}.cls-95{fill:#3c1c10;}.cls-96{fill:#32bba5;}.cls-97{fill:#ee376b;}.cls-98{fill:#7f4d2f;}.cls-99{fill:#f8a882;}.cls-100{fill:#ef4f75;}.cls-101{fill:#fee12c;}.cls-102{fill:#2c1213;}.cls-103{fill:#c4916e;}.cls-104{fill:#733030;}.cls-105{stroke:#8a5138;stroke-miterlimit:10;stroke-width:0.95px;}.cls-106,.cls-107,.cls-108{opacity:0.4;}.cls-106{fill:url(#Degradado_sin_nombre_9);}.cls-107{fill:url(#Degradado_sin_nombre_9-2);}.cls-108{fill:url(#Degradado_sin_nombre_9-3);}.cls-109{fill:#8a5138;}.cls-110{fill:#4b2e1c;}</style><linearGradient id="linear-gradient" x1="555.63" y1="36.95" x2="555.63" y2="45.35" gradientTransform="translate(-63.03 -34.76) rotate(3.83)" gradientUnits="userSpaceOnUse"><stop offset="0.32" stop-color="#bd8864"/><stop offset="1" stop-color="#af6f44"/></linearGradient><linearGradient id="linear-gradient-2" x1="527.44" y1="64.01" x2="527.44" y2="117.38" xlink:href="#linear-gradient"/><linearGradient id="linear-gradient-3" x1="522.04" y1="68.09" x2="522.04" y2="114.88" gradientTransform="translate(-63.03 -34.76) rotate(3.83)" gradientUnits="userSpaceOnUse"><stop offset="0.4" stop-color="#fcbf60"/><stop offset="1" stop-color="#eaa427"/></linearGradient><linearGradient id="linear-gradient-4" x1="516.5" y1="72.32" x2="516.5" y2="112.24" xlink:href="#linear-gradient"/><linearGradient id="linear-gradient-5" x1="511.14" y1="76.32" x2="511.14" y2="109.8" xlink:href="#linear-gradient-3"/><linearGradient id="linear-gradient-6" x1="505.71" y1="80.28" x2="505.71" y2="107.23" xlink:href="#linear-gradient"/><linearGradient id="linear-gradient-7" x1="500.5" y1="83.96" x2="500.5" y2="104.87" xlink:href="#linear-gradient-3"/><linearGradient id="linear-gradient-8" x1="495.29" y1="87.52" x2="495.29" y2="102.32" xlink:href="#linear-gradient"/><linearGradient id="linear-gradient-9" x1="488.65" y1="90.67" x2="488.65" y2="100.03" xlink:href="#linear-gradient-3"/><linearGradient id="linear-gradient-10" x1="451.57" y1="101.35" x2="451.57" y2="155.13" xlink:href="#linear-gradient-3"/><linearGradient id="linear-gradient-11" x1="469.07" y1="122.58" x2="469.07" y2="127.38" gradientTransform="translate(521.63 -347.81) rotate(90)" gradientUnits="userSpaceOnUse"><stop offset="0.49" stop-color="#f68b62"/><stop offset="0.63" stop-color="#f5855c"/><stop offset="0.82" stop-color="#f4764a"/><stop offset="1" stop-color="#f26133"/></linearGradient><linearGradient id="linear-gradient-12" x1="466.66" y1="140" x2="466.66" y2="145.13" gradientTransform="translate(535.64 -328.03) rotate(90)" xlink:href="#linear-gradient-11"/><linearGradient id="linear-gradient-13" x1="465.67" y1="110.29" x2="465.67" y2="116.92" gradientTransform="translate(507.63 -355.99) rotate(90)" xlink:href="#linear-gradient-11"/><linearGradient id="linear-gradient-14" x1="457.62" y1="124.02" x2="457.62" y2="128.88" gradientTransform="translate(511.58 -335.67) rotate(90)" xlink:href="#linear-gradient-11"/><linearGradient id="linear-gradient-15" x1="454.57" y1="134.4" x2="454.57" y2="140.51" gradientTransform="translate(518.81 -321.83) rotate(90)" xlink:href="#linear-gradient-11"/><linearGradient id="linear-gradient-16" x1="445.4" y1="121.64" x2="445.4" y2="126.45" gradientTransform="translate(497.14 -326.65) rotate(90)" xlink:href="#linear-gradient-11"/><linearGradient id="linear-gradient-17" x1="392.89" y1="128.69" x2="392.89" y2="181.03" gradientTransform="translate(-63.03 -34.76) rotate(3.83)" gradientUnits="userSpaceOnUse"><stop offset="0.35" stop-color="#c0bc62"/><stop offset="1" stop-color="#a4a336"/></linearGradient><linearGradient id="linear-gradient-18" x1="404.66" y1="135.91" x2="404.66" y2="145.72" xlink:href="#linear-gradient-3"/><linearGradient id="linear-gradient-19" x1="399.94" y1="160.95" x2="399.94" y2="168.51" xlink:href="#linear-gradient-3"/><linearGradient id="linear-gradient-20" x1="396.87" y1="149.8" x2="396.87" y2="155.91" xlink:href="#linear-gradient-3"/><linearGradient id="linear-gradient-21" x1="384.79" y1="144.98" x2="384.79" y2="150.41" xlink:href="#linear-gradient-3"/><linearGradient id="linear-gradient-22" x1="330.99" y1="145.01" x2="330.99" y2="155.74" gradientTransform="translate(-63.03 -34.76) rotate(3.83)" gradientUnits="userSpaceOnUse"><stop offset="0.14" stop-color="#f16562"/><stop offset="1" stop-color="#ef3d4d"/></linearGradient><linearGradient id="linear-gradient-23" x1="331.46" y1="152" x2="331.46" y2="161.63" xlink:href="#linear-gradient-3"/><linearGradient id="linear-gradient-24" x1="332.16" y1="157.96" x2="332.16" y2="167.27" xlink:href="#linear-gradient-22"/><linearGradient id="linear-gradient-25" x1="332.86" y1="163.52" x2="332.86" y2="172.6" xlink:href="#linear-gradient-3"/><linearGradient id="linear-gradient-26" x1="333.49" y1="168.94" x2="333.49" y2="177.64" xlink:href="#linear-gradient-22"/><linearGradient id="linear-gradient-27" x1="333.96" y1="174.62" x2="333.96" y2="183.06" xlink:href="#linear-gradient-3"/><linearGradient id="linear-gradient-28" x1="334.39" y1="181.03" x2="334.39" y2="187.93" xlink:href="#linear-gradient-22"/><linearGradient id="linear-gradient-29" x1="334.8" y1="186.7" x2="334.8" y2="194.12" xlink:href="#linear-gradient-3"/><linearGradient id="linear-gradient-30" x1="268" y1="145.01" x2="268" y2="161.96" gradientTransform="translate(-63.03 -34.76) rotate(3.83)" gradientUnits="userSpaceOnUse"><stop offset="0.57" stop-color="#9dc09f"/><stop offset="0.89" stop-color="#73a377"/></linearGradient><linearGradient id="linear-gradient-31" x1="266.05" y1="163.82" x2="266.05" y2="180.34" xlink:href="#linear-gradient-30"/><linearGradient id="linear-gradient-32" x1="206.1" y1="128.69" x2="206.1" y2="181.03" xlink:href="#linear-gradient-17"/><linearGradient id="linear-gradient-33" x1="215.52" y1="145.82" x2="215.52" y2="152.67" xlink:href="#linear-gradient-3"/><linearGradient id="linear-gradient-34" x1="206.1" y1="140.52" x2="206.1" y2="147" xlink:href="#linear-gradient-3"/><linearGradient id="linear-gradient-35" x1="203.65" y1="164.89" x2="203.65" y2="172.95" xlink:href="#linear-gradient-3"/><linearGradient id="linear-gradient-36" x1="194.72" y1="145.12" x2="194.72" y2="157.51" xlink:href="#linear-gradient-3"/><linearGradient id="linear-gradient-37" x1="191.8" y1="131.66" x2="191.8" y2="136.17" xlink:href="#linear-gradient-3"/><linearGradient id="linear-gradient-38" x1="146.37" y1="120.9" x2="146.37" y2="150.37" xlink:href="#linear-gradient-30"/><linearGradient id="linear-gradient-39" x1="140.95" y1="116.66" x2="140.95" y2="139.87" xlink:href="#linear-gradient-30"/><linearGradient id="linear-gradient-40" x1="135.86" y1="111.49" x2="135.86" y2="129.25" xlink:href="#linear-gradient-30"/><linearGradient id="linear-gradient-41" x1="130.33" y1="105.79" x2="130.33" y2="117.31" xlink:href="#linear-gradient-30"/><linearGradient id="linear-gradient-42" x1="85.09" y1="75.78" x2="85.09" y2="84.19" xlink:href="#linear-gradient"/><linearGradient id="Degradado_sin_nombre_9" x1="304.71" y1="52.49" x2="299.25" y2="225.07" gradientUnits="userSpaceOnUse"><stop offset="0" stop-color="#fff"/><stop offset="0.12" stop-color="#fff" stop-opacity="0.82"/><stop offset="0.3" stop-color="#fff" stop-opacity="0.57"/><stop offset="0.48" stop-color="#fff" stop-opacity="0.37"/><stop offset="0.64" stop-color="#fff" stop-opacity="0.21"/><stop offset="0.78" stop-color="#fff" stop-opacity="0.09"/><stop offset="0.91" stop-color="#fff" stop-opacity="0.02"/><stop offset="1" stop-color="#fff" stop-opacity="0"/></linearGradient><linearGradient id="Degradado_sin_nombre_9-2" x1="258.19" y1="73.01" x2="253.59" y2="218.59" xlink:href="#Degradado_sin_nombre_9"/><linearGradient id="Degradado_sin_nombre_9-3" x1="200.78" y1="60.54" x2="200.78" y2="220.27" xlink:href="#Degradado_sin_nombre_9"/></defs><title>Feedback1</title><g class="cls-1"><g id="Capa_2" data-name="Capa 2"><g id="Capa_1-2" data-name="Capa 1"><rect class="cls-2" width="500" height="470"/><path class="cls-3" d="M389.84,339.48s-4.38,0-6-2.87-20.67-33.45-47.43-33.85l-81.05.1v0h-1.13l-81-.1c-26.76.4-45.85,31-47.43,33.85s-6,2.87-6,2.87l-7.75.13s1.28,55.81,25.23,67.78l117-1.53,118,1.54c23.94-12,25.23-67.78,25.23-67.78Z"/><path class="cls-4" d="M147.61,340.28a14.75,14.75,0,0,0-12.88.6s-10.86,3.82-11.07,12.68-.1,34.3,7.54,44.57,16,6.84,16,6.84L161.8,394.1l-2.21-31.79Z"/><path class="cls-4" d="M363.7,340.43a14.75,14.75,0,0,1,12.88.6s10.86,3.82,11.07,12.68.1,34.3-7.54,44.57-16,6.84-16,6.84l-14.59-10.86,2.21-31.79Z"/><polygon class="cls-5" points="129.99 468.94 143.08 421.56 130.81 422.97 124.1 468.94 129.99 468.94"/><polygon class="cls-5" points="379.64 469.35 366.54 421.96 378.82 423.37 385.53 469.35 379.64 469.35"/><path class="cls-6" d="M410.11,351.6c-.07-.71-.15-1.41-.18-1.64h0a12.49,12.49,0,0,0-24.75,1.12h0l-.06.82h0l0,1.16h0c-.39,39.59-11.86,48.68-11.86,48.68H136.54s-11.46-9.1-11.86-48.68h0l0-1.16h0l-.06-.82h0A12.49,12.49,0,0,0,99.82,350h0c0,.23-.12.93-.18,1.64,0,.27-.06,1.26-.05,1.5.24,13.67,3.24,50.33,17.65,67,0,0,3.22,3.57,6.29,3.67l85.7,0v0h91.3v0l85.7,0c3.07-.1,6.29-3.67,6.29-3.67,14.4-16.63,17.41-53.28,17.65-67C410.16,352.86,410.12,351.87,410.11,351.6Z"/><path class="cls-4" d="M130.29,330s10.21-4.28,14.79,9.56l14.13-20.62,9.05-11S144.27,310.51,130.29,330Z"/><path class="cls-4" d="M379.41,330s-10.21-4.28-14.79,9.56l-14.13-20.62-9.05-11S365.43,310.51,379.41,330Z"/><path class="cls-6" d="M369.28,330.23h0s-11.87-22.53-33.2-22.94l-78.63.19-83.89-.2c-21.33.4-33.2,22.94-33.2,22.94h0a11.51,11.51,0,0,0-.57,1.1s3.69,3.78,5,7.48l.35.92h0c4.48,12.29,5.13,26.76,5.13,26.76l2,7.6,102.46-5.17,102.71,5.18,2-7.6S360,352,364.5,339.73h0l.35-.92c1.3-3.7,5-7.48,5-7.48A11.49,11.49,0,0,0,369.28,330.23Z"/><path class="cls-3" d="M378.39,375.56c-1.1-1.11-10.16-8.75-22.3-9.56-8.62-.57-56-1.45-82.83-1.91l0,0-4.08-.05c-1.85,0-23.89,0-29,0-26.06.44-77,1.37-86,2-12.15.8-21.21,8.45-22.3,9.56a4,4,0,0,0-.9,2.92c-.2,10.36,7.07,23.24,7.07,23.24l98,.07h2.05l36.12,0,0-.05,98.07-.07s7.27-12.88,7.07-23.24A4,4,0,0,0,378.39,375.56Z"/><path class="cls-6" d="M255.27,374.5H255c-49.7,0-115.94,2.25-124,2.54a4.65,4.65,0,0,0-.13,1.49c-.2,10.36,7.07,23.24,7.07,23.24l98,.07H238l36.12,0,0-.05,98.07-.07s7.27-12.88,7.07-23.24a4.67,4.67,0,0,0-.12-1.46C370.43,376.73,304.68,374.5,255.27,374.5Z"/><path class="cls-7" d="M374.06,398h-238c1.07,2.29,1.88,3.72,1.88,3.72l98,.07H238l36.12,0,0-.05,98.07-.07S373,400.3,374.06,398Z"/><path class="cls-4" d="M259.34,321.13a4,4,0,0,1-.59-.72,4.93,4.93,0,0,0-1.82-1.34c-.3-.09-.49-.57-.61-1l-1-5.19a28.81,28.81,0,0,1-1,5.68.81.81,0,0,1-.42.46,4.93,4.93,0,0,0-1.82,1.34,3.88,3.88,0,0,1-.52.65c-.75.56-5.54,1.17-5.54,1.17a30.28,30.28,0,0,1,5.13.85,2.18,2.18,0,0,1,.89.71h0l.05.07a4.93,4.93,0,0,0,1.82,1.34.74.74,0,0,1,.38.39h0s.87,3.78,1.09,5.47c0,0,.61-3.45,1.09-5.09,0-.13.07-.25.09-.36a.77.77,0,0,1,.39-.41,4.93,4.93,0,0,0,1.82-1.34,4.11,4.11,0,0,1,.64-.76l.15-.07a30.2,30.2,0,0,1,5.13-.85A33.25,33.25,0,0,1,259.34,321.13Z"/><circle class="cls-3" cx="255.38" cy="321.86" r="1.77"/><path class="cls-4" d="M259.34,348.49a4,4,0,0,1-.59-.72,4.93,4.93,0,0,0-1.82-1.34c-.3-.09-.49-.57-.61-1l-1-5.19a28.81,28.81,0,0,1-1,5.68.81.81,0,0,1-.42.46,4.93,4.93,0,0,0-1.82,1.34,3.88,3.88,0,0,1-.52.65c-.75.56-5.54,1.17-5.54,1.17a30.28,30.28,0,0,1,5.13.85,2.18,2.18,0,0,1,.89.71h0l.05.07a4.93,4.93,0,0,0,1.82,1.34.74.74,0,0,1,.38.39h0s.87,3.78,1.09,5.47c0,0,.61-3.45,1.09-5.09,0-.13.07-.25.09-.36a.77.77,0,0,1,.39-.41,4.93,4.93,0,0,0,1.82-1.34,4.1,4.1,0,0,1,.64-.76l.15-.07a30.2,30.2,0,0,1,5.13-.85A33.25,33.25,0,0,1,259.34,348.49Z"/><circle class="cls-3" cx="255.38" cy="349.22" r="1.77"/><path class="cls-4" d="M230.3,321.35a4,4,0,0,1-.59-.72,4.93,4.93,0,0,0-1.82-1.34c-.3-.09-.49-.57-.61-1l-1-5.19a28.81,28.81,0,0,1-1,5.68.81.81,0,0,1-.42.46,4.93,4.93,0,0,0-1.82,1.34,3.88,3.88,0,0,1-.52.65c-.75.56-5.54,1.17-5.54,1.17a30.29,30.29,0,0,1,5.13.85,2.18,2.18,0,0,1,.89.71h0l.05.07a4.93,4.93,0,0,0,1.82,1.34.74.74,0,0,1,.38.39h0s.87,3.78,1.09,5.47c0,0,.61-3.45,1.09-5.09,0-.13.07-.25.09-.36a.77.77,0,0,1,.39-.41,4.93,4.93,0,0,0,1.82-1.34,4.1,4.1,0,0,1,.64-.76l.15-.07a30.21,30.21,0,0,1,5.13-.85A33.25,33.25,0,0,1,230.3,321.35Z"/><circle class="cls-3" cx="226.33" cy="322.09" r="1.77"/><path class="cls-4" d="M230.3,348.72a4,4,0,0,1-.59-.72,4.93,4.93,0,0,0-1.82-1.34c-.3-.09-.49-.57-.61-1l-1-5.19a28.81,28.81,0,0,1-1,5.68.81.81,0,0,1-.42.46A4.93,4.93,0,0,0,223,348a3.88,3.88,0,0,1-.52.65c-.75.56-5.54,1.17-5.54,1.17a30.29,30.29,0,0,1,5.13.85,2.18,2.18,0,0,1,.89.71h0l.05.07a4.93,4.93,0,0,0,1.82,1.34.74.74,0,0,1,.38.39h0s.87,3.78,1.09,5.47c0,0,.61-3.45,1.09-5.09,0-.13.07-.25.09-.36a.77.77,0,0,1,.39-.41,4.93,4.93,0,0,0,1.82-1.34,4.11,4.11,0,0,1,.64-.76l.15-.07a30.2,30.2,0,0,1,5.13-.85A33.25,33.25,0,0,1,230.3,348.72Z"/><circle class="cls-3" cx="226.33" cy="349.45" r="1.77"/><path class="cls-4" d="M202.08,321.5a4,4,0,0,1-.59-.72,4.93,4.93,0,0,0-1.82-1.34c-.3-.09-.49-.57-.61-1l-1-5.19a28.8,28.8,0,0,1-1,5.68.81.81,0,0,1-.42.46,4.93,4.93,0,0,0-1.82,1.34,3.88,3.88,0,0,1-.52.65c-.75.56-5.54,1.17-5.54,1.17a30.29,30.29,0,0,1,5.13.85,2.18,2.18,0,0,1,.89.71h0l.05.07a4.93,4.93,0,0,0,1.82,1.34.74.74,0,0,1,.38.39h0s.87,3.78,1.09,5.47c0,0,.61-3.45,1.09-5.09,0-.13.07-.25.09-.36a.77.77,0,0,1,.39-.41,4.93,4.93,0,0,0,1.82-1.34,4.11,4.11,0,0,1,.64-.76l.15-.07a30.21,30.21,0,0,1,5.13-.85A33.25,33.25,0,0,1,202.08,321.5Z"/><circle class="cls-3" cx="198.11" cy="322.24" r="1.77"/><path class="cls-4" d="M202.08,348.87a4,4,0,0,1-.59-.72,4.93,4.93,0,0,0-1.82-1.34c-.3-.09-.49-.57-.61-1l-1-5.19a28.8,28.8,0,0,1-1,5.68.81.81,0,0,1-.42.46,4.93,4.93,0,0,0-1.82,1.34,3.88,3.88,0,0,1-.52.65c-.75.56-5.54,1.17-5.54,1.17a30.28,30.28,0,0,1,5.13.85,2.18,2.18,0,0,1,.89.71h0l.05.07a4.93,4.93,0,0,0,1.82,1.34.74.74,0,0,1,.38.39h0s.87,3.78,1.09,5.47c0,0,.61-3.45,1.09-5.09,0-.13.07-.25.09-.36a.77.77,0,0,1,.39-.41,4.93,4.93,0,0,0,1.82-1.34,4.11,4.11,0,0,1,.64-.76l.15-.07a30.2,30.2,0,0,1,5.13-.85A33.25,33.25,0,0,1,202.08,348.87Z"/><circle class="cls-3" cx="198.11" cy="349.6" r="1.77"/><path class="cls-4" d="M173.33,321.5a4,4,0,0,1-.59-.72,4.93,4.93,0,0,0-1.82-1.34c-.3-.09-.49-.57-.61-1l-1-5.19a28.8,28.8,0,0,1-1,5.68.81.81,0,0,1-.42.46,4.93,4.93,0,0,0-1.82,1.34,3.88,3.88,0,0,1-.52.65c-.75.56-5.54,1.17-5.54,1.17a30.29,30.29,0,0,1,5.13.85,2.18,2.18,0,0,1,.89.71h0l.05.07a4.93,4.93,0,0,0,1.82,1.34.74.74,0,0,1,.38.39h0s.87,3.78,1.09,5.47c0,0,.61-3.45,1.09-5.09,0-.13.07-.25.09-.36a.77.77,0,0,1,.39-.41,4.93,4.93,0,0,0,1.82-1.34,4.11,4.11,0,0,1,.64-.76l.15-.07a30.21,30.21,0,0,1,5.13-.85A33.25,33.25,0,0,1,173.33,321.5Z"/><circle class="cls-3" cx="169.37" cy="322.24" r="1.77"/><path class="cls-4" d="M173.33,348.87a4,4,0,0,1-.59-.72,4.93,4.93,0,0,0-1.82-1.34c-.3-.09-.49-.57-.61-1l-1-5.19a28.8,28.8,0,0,1-1,5.68.81.81,0,0,1-.42.46,4.93,4.93,0,0,0-1.82,1.34,3.88,3.88,0,0,1-.52.65c-.75.56-5.54,1.17-5.54,1.17a30.28,30.28,0,0,1,5.13.85,2.18,2.18,0,0,1,.89.71h0l.05.07a4.93,4.93,0,0,0,1.82,1.34.74.74,0,0,1,.38.39h0s.87,3.78,1.09,5.47c0,0,.61-3.45,1.09-5.09,0-.13.07-.25.09-.36a.77.77,0,0,1,.39-.41,4.93,4.93,0,0,0,1.82-1.34,4.11,4.11,0,0,1,.64-.76l.15-.07a30.2,30.2,0,0,1,5.13-.85A33.25,33.25,0,0,1,173.33,348.87Z"/><circle class="cls-3" cx="169.37" cy="349.6" r="1.77"/><path class="cls-4" d="M345.18,321.39a4,4,0,0,1-.59-.72,4.93,4.93,0,0,0-1.82-1.34c-.3-.09-.49-.57-.61-1l-1-5.19a28.79,28.79,0,0,1-1,5.68.81.81,0,0,1-.42.46,4.93,4.93,0,0,0-1.82,1.34,3.88,3.88,0,0,1-.52.65c-.75.56-5.54,1.17-5.54,1.17a30.29,30.29,0,0,1,5.13.85,2.18,2.18,0,0,1,.89.71h0l.05.07a4.93,4.93,0,0,0,1.82,1.34.74.74,0,0,1,.38.39h0s.87,3.78,1.09,5.47c0,0,.61-3.45,1.09-5.09,0-.13.07-.25.09-.36a.77.77,0,0,1,.39-.41,4.93,4.93,0,0,0,1.82-1.34,4.1,4.1,0,0,1,.64-.76l.15-.07a30.2,30.2,0,0,1,5.13-.85A33.25,33.25,0,0,1,345.18,321.39Z"/><circle class="cls-3" cx="341.22" cy="322.13" r="1.77"/><path class="cls-4" d="M345.18,348.75a4,4,0,0,1-.59-.72,4.93,4.93,0,0,0-1.82-1.34c-.3-.09-.49-.57-.61-1l-1-5.19a28.79,28.79,0,0,1-1,5.68.81.81,0,0,1-.42.46,4.93,4.93,0,0,0-1.82,1.34,3.88,3.88,0,0,1-.52.65c-.75.56-5.54,1.17-5.54,1.17a30.28,30.28,0,0,1,5.13.85,2.18,2.18,0,0,1,.89.71h0l.05.07a4.93,4.93,0,0,0,1.82,1.34.74.74,0,0,1,.38.39h0s.87,3.78,1.09,5.47c0,0,.61-3.45,1.09-5.09,0-.13.07-.25.09-.36a.77.77,0,0,1,.39-.41,4.93,4.93,0,0,0,1.82-1.34,4.1,4.1,0,0,1,.64-.76l.15-.07a30.2,30.2,0,0,1,5.13-.85A33.25,33.25,0,0,1,345.18,348.75Z"/><circle class="cls-3" cx="341.22" cy="349.49" r="1.77"/><path class="cls-4" d="M316,321.47a4,4,0,0,1-.59-.72,4.93,4.93,0,0,0-1.82-1.34c-.3-.09-.49-.57-.61-1l-1-5.19a28.8,28.8,0,0,1-1,5.68.82.82,0,0,1-.42.46,4.93,4.93,0,0,0-1.82,1.34,3.88,3.88,0,0,1-.52.65c-.75.56-5.54,1.17-5.54,1.17a30.28,30.28,0,0,1,5.13.85,2.18,2.18,0,0,1,.89.71h0l.05.07a4.93,4.93,0,0,0,1.82,1.34.74.74,0,0,1,.38.39h0s.87,3.78,1.09,5.47c0,0,.61-3.45,1.09-5.09,0-.13.07-.25.09-.36a.77.77,0,0,1,.39-.41,4.93,4.93,0,0,0,1.82-1.34,4.11,4.11,0,0,1,.64-.76l.15-.07a30.21,30.21,0,0,1,5.13-.85A33.25,33.25,0,0,1,316,321.47Z"/><circle class="cls-3" cx="312.02" cy="322.2" r="1.77"/><path class="cls-4" d="M316,348.83a4,4,0,0,1-.59-.72,4.93,4.93,0,0,0-1.82-1.34c-.3-.09-.49-.57-.61-1l-1-5.19a28.8,28.8,0,0,1-1,5.68.82.82,0,0,1-.42.46,4.93,4.93,0,0,0-1.82,1.34,3.88,3.88,0,0,1-.52.65c-.75.56-5.54,1.17-5.54,1.17a30.28,30.28,0,0,1,5.13.85,2.18,2.18,0,0,1,.89.71h0l.05.07a4.93,4.93,0,0,0,1.82,1.34.74.74,0,0,1,.38.39h0s.87,3.78,1.09,5.47c0,0,.61-3.45,1.09-5.09,0-.13.07-.25.09-.36a.77.77,0,0,1,.39-.41,4.93,4.93,0,0,0,1.82-1.34,4.11,4.11,0,0,1,.64-.76l.15-.07a30.2,30.2,0,0,1,5.13-.85A33.25,33.25,0,0,1,316,348.83Z"/><circle class="cls-3" cx="312.02" cy="349.56" r="1.77"/><path class="cls-4" d="M287.46,321.39a4,4,0,0,1-.59-.72,4.93,4.93,0,0,0-1.82-1.34c-.3-.09-.49-.57-.61-1l-1-5.19a28.8,28.8,0,0,1-1,5.68.82.82,0,0,1-.42.46,4.93,4.93,0,0,0-1.82,1.34,3.88,3.88,0,0,1-.52.65c-.75.56-5.54,1.17-5.54,1.17a30.29,30.29,0,0,1,5.13.85,2.18,2.18,0,0,1,.89.71h0l.05.07a4.93,4.93,0,0,0,1.82,1.34.74.74,0,0,1,.38.39h0s.87,3.78,1.09,5.47c0,0,.61-3.45,1.09-5.09,0-.13.07-.25.09-.36a.76.76,0,0,1,.39-.41,4.93,4.93,0,0,0,1.82-1.34,4.1,4.1,0,0,1,.64-.76l.15-.07a30.21,30.21,0,0,1,5.13-.85A33.25,33.25,0,0,1,287.46,321.39Z"/><circle class="cls-3" cx="283.5" cy="322.13" r="1.77"/><path class="cls-4" d="M287.46,348.75a4,4,0,0,1-.59-.72,4.93,4.93,0,0,0-1.82-1.34c-.3-.09-.49-.57-.61-1l-1-5.19a28.8,28.8,0,0,1-1,5.68.82.82,0,0,1-.42.46,4.93,4.93,0,0,0-1.82,1.34,3.88,3.88,0,0,1-.52.65c-.75.56-5.54,1.17-5.54,1.17a30.28,30.28,0,0,1,5.13.85,2.18,2.18,0,0,1,.89.71h0l.05.07a4.93,4.93,0,0,0,1.82,1.34.74.74,0,0,1,.38.39h0s.87,3.78,1.09,5.47c0,0,.61-3.45,1.09-5.09,0-.13.07-.25.09-.36a.77.77,0,0,1,.39-.41,4.93,4.93,0,0,0,1.82-1.34,4.1,4.1,0,0,1,.64-.76l.15-.07a30.21,30.21,0,0,1,5.13-.85A33.25,33.25,0,0,1,287.46,348.75Z"/><circle class="cls-3" cx="283.5" cy="349.49" r="1.77"/><g id="_Grupo_" data-name="&lt;Grupo&gt;"><g id="_Grupo_2" data-name="&lt;Grupo&gt;"><g id="_Grupo_3" data-name="&lt;Grupo&gt;"><path id="_Trazado_" data-name="&lt;Trazado&gt;" class="cls-8" d="M458,70.22a.74.74,0,0,1-.4-1.34,349.47,349.47,0,0,0,27.43-23.15.74.74,0,1,1,1,1.09,350.82,350.82,0,0,1-27.55,23.24A.74.74,0,0,1,458,70.22Z"/></g><g id="_Grupo_4" data-name="&lt;Grupo&gt;"><path id="_Trazado_2" data-name="&lt;Trazado&gt;" class="cls-8" d="M403.74,104a.74.74,0,0,1-.29-1.41c4.87-2.44,9.68-5,14.3-7.59a.75.75,0,0,1,.73,1.3c-4.64,2.6-9.47,5.17-14.36,7.62A.74.74,0,0,1,403.74,104Z"/></g><g id="_Grupo_5" data-name="&lt;Grupo&gt;"><path id="_Trazado_3" data-name="&lt;Trazado&gt;" class="cls-8" d="M170.15,131.71l-.12,0c-5.31-1.23-10.61-2.58-15.74-4a.74.74,0,1,1,.4-1.43c5.11,1.44,10.38,2.78,15.67,4a.74.74,0,0,1-.22,1.47Z"/></g><g id="_Grupo_6" data-name="&lt;Grupo&gt;"><path id="_Trazado_4" data-name="&lt;Trazado&gt;" class="cls-8" d="M109.47,111.6a.74.74,0,0,1-.25-.06c-4.92-2.16-9.88-4.47-14.72-6.87a.75.75,0,0,1,.66-1.34c4.83,2.39,9.76,4.69,14.66,6.84a.75.75,0,0,1-.35,1.43Z"/></g><g id="_Grupo_7" data-name="&lt;Grupo&gt;"><path id="_Trazado_5" data-name="&lt;Trazado&gt;" class="cls-8" d="M53.53,80.61a.74.74,0,0,1-.37-.13,349.82,349.82,0,0,1-34-26.39.74.74,0,0,1,1-1.12A348.21,348.21,0,0,0,54,79.25a.74.74,0,0,1-.47,1.36Z"/></g><g id="_Grupo_8" data-name="&lt;Grupo&gt;"><path id="_Trazado_6" data-name="&lt;Trazado&gt;" class="cls-8" d="M281.34,139.16a.74.74,0,0,1,0-1.48c5.26-.49,10.67-1.13,16.08-1.9a.74.74,0,1,1,.21,1.48c-5.43.77-10.86,1.41-16.15,1.9Z"/></g><g id="_Grupo_9" data-name="&lt;Grupo&gt;"><path id="_Trazado_7" data-name="&lt;Trazado&gt;" class="cls-8" d="M344.17,127.32a.75.75,0,0,1-.16-1.46c5.1-1.46,10.3-3.09,15.46-4.84a.75.75,0,1,1,.48,1.41c-5.18,1.75-10.4,3.39-15.52,4.86A.74.74,0,0,1,344.17,127.32Z"/></g><g id="_Grupo_10" data-name="&lt;Grupo&gt;"><path id="_Trazado_8" data-name="&lt;Trazado&gt;" class="cls-8" d="M225.45,139.89c-2.57-.17-5.22-.38-8.1-.64a.74.74,0,0,1-.68-.81.73.73,0,0,1,.81-.67c2.87.26,5.51.47,8.06.64a.74.74,0,1,1-.1,1.49Z"/></g></g><g id="_Grupo_11" data-name="&lt;Grupo&gt;"><path id="_Trazado_9" data-name="&lt;Trazado&gt;" class="cls-8" d="M225.45,139.89a.74.74,0,0,1,.1-1.49c2.53.17,5.17.31,8.07.44a.74.74,0,0,1,.71.78.74.74,0,0,1-.78.71C230.65,140.21,228,140.06,225.45,139.89Z"/></g></g><path id="_Trazado_10" data-name="&lt;Trazado&gt;" class="cls-9" d="M488.89,39.2a4.2,4.2,0,1,1-4.47,3.91A4.2,4.2,0,0,1,488.89,39.2Z"/><g id="_Grupo_12" data-name="&lt;Grupo&gt;"><path id="_Trazado_11" data-name="&lt;Trazado&gt;" class="cls-10" d="M458.07,69.47,461.31,118l-5.57-2.87h0l-3-47.09q2.5-1.86,5-3.76Z"/><path id="_Trazado_12" data-name="&lt;Trazado&gt;" class="cls-11" d="M452.77,68l3,47.09-5.92-3-2.37-40.17Q450.14,70,452.77,68Z"/><path id="_Trazado_13" data-name="&lt;Trazado&gt;" class="cls-12" d="M447.45,71.87,449.82,112l-5.44-2.81-2.15-33.7C444,74.33,445.73,73.11,447.45,71.87Z"/><path id="_Trazado_14" data-name="&lt;Trazado&gt;" class="cls-13" d="M442.23,75.53l2.15,33.7-5.74-3-1.78-27.13C438.67,78,440.45,76.76,442.23,75.53Z"/><path id="_Trazado_15" data-name="&lt;Trazado&gt;" class="cls-14" d="M436.87,79.15l1.78,27.13-5.28-2.72L431.7,82.49C433.44,81.39,435.16,80.28,436.87,79.15Z"/><path id="_Trazado_16" data-name="&lt;Trazado&gt;" class="cls-15" d="M431.7,82.49l1.66,21.07-5.7-2.93-1.15-14.9h0C428.26,84.66,430,83.58,431.7,82.49Z"/><path id="_Trazado_17" data-name="&lt;Trazado&gt;" class="cls-16" d="M427.66,100.62,422.53,98h0l-.76-9.42q2.38-1.4,4.74-2.84h0Z"/><path id="_Trazado_18" data-name="&lt;Trazado&gt;" class="cls-17" d="M422.54,98h0l-4.42-2.28-4.66-2.4q4.2-2.32,8.33-4.74Z"/></g><g id="_Grupo_13" data-name="&lt;Grupo&gt;"><path id="_Trazado_compuesto_" data-name="&lt;Trazado compuesto&gt;" class="cls-18" d="M404.4,98.1l-.62,5.21-5.72,48.26L359.7,121.73l-4.14-3.22A341.12,341.12,0,0,0,404.4,98.1ZM399,121.42a2.4,2.4,0,1,0-2.56,2.23A2.4,2.4,0,0,0,399,121.42Zm-3.41,17.39a2.57,2.57,0,1,0-2.73,2.39A2.56,2.56,0,0,0,395.64,138.81Zm1.69-28.91A3.31,3.31,0,1,0,393.8,113,3.31,3.31,0,0,0,397.32,109.9Zm-9.77,12.22a2.43,2.43,0,1,0-2.59,2.26A2.43,2.43,0,0,0,387.56,122.12Zm-3.16,10.82a3.06,3.06,0,1,0-3.25,2.84A3.06,3.06,0,0,0,384.4,132.94Zm-8.91-14a2.4,2.4,0,1,0-2.56,2.24A2.4,2.4,0,0,0,375.49,118.9Z"/><circle id="_Trazado_19" data-name="&lt;Trazado&gt;" class="cls-19" cx="396.65" cy="121.26" r="2.4" transform="translate(249.19 508.93) rotate(-86.17)"/><circle id="_Trazado_20" data-name="&lt;Trazado&gt;" class="cls-20" cx="393.08" cy="138.64" r="2.56" transform="translate(228.51 521.58) rotate(-86.17)"/><circle id="_Trazado_21" data-name="&lt;Trazado&gt;" class="cls-21" cx="394.02" cy="109.68" r="3.31" transform="matrix(0.07, -1, 1, 0.07, 258.28, 495.5)"/><circle id="_Trazado_22" data-name="&lt;Trazado&gt;" class="cls-22" cx="385.13" cy="121.96" r="2.43" transform="matrix(0.07, -1, 1, 0.07, 237.74, 498.09)"/><circle id="_Trazado_23" data-name="&lt;Trazado&gt;" class="cls-23" cx="381.35" cy="132.74" r="3.06" transform="translate(223.45 504.37) rotate(-86.17)"/><circle id="_Trazado_24" data-name="&lt;Trazado&gt;" class="cls-24" cx="373.09" cy="118.74" r="2.41" transform="translate(229.71 483.07) rotate(-86.17)"/></g><g id="_Grupo_14" data-name="&lt;Grupo&gt;"><path id="_Trazado_compuesto_2" data-name="&lt;Trazado compuesto&gt;" class="cls-25" d="M345.78,121.57l-1.57,5-14.53,46.37L297.5,136.52,294,132.59A339.51,339.51,0,0,0,345.78,121.57Zm-10.73,16.36-2.89-10-5.23,9.48ZM328,158.22l.37-5.48-6.61,7.13ZM317.58,147l10.14-2.38-8-3.6Zm-4.16-6.4-3.22-5-1.85,5.32Z"/><polygon id="_Trazado_25" data-name="&lt;Trazado&gt;" class="cls-26" points="332.17 127.9 335.06 137.92 326.94 137.38 332.17 127.9"/><polygon id="_Trazado_26" data-name="&lt;Trazado&gt;" class="cls-27" points="328.33 152.74 327.96 158.22 321.71 159.87 328.33 152.74"/><polygon id="_Trazado_27" data-name="&lt;Trazado&gt;" class="cls-28" points="327.72 144.58 317.58 146.97 319.71 140.99 327.72 144.58"/><polygon id="_Trazado_28" data-name="&lt;Trazado&gt;" class="cls-29" points="310.2 135.52 313.42 140.56 308.35 140.84 310.2 135.52"/></g><g id="_Grupo_15" data-name="&lt;Grupo&gt;"><path id="_Trazado_29" data-name="&lt;Trazado&gt;" class="cls-30" d="M283.86,133.79l-2.47,4.64-1.14,2.13-45.68.69-1-1.65-2.69-4.5A343.7,343.7,0,0,0,283.86,133.79Z"/><polygon id="_Trazado_30" data-name="&lt;Trazado&gt;" class="cls-31" points="280.26 140.55 277.18 146.31 238.26 147.39 234.58 141.24 280.26 140.55"/><polygon id="_Trazado_31" data-name="&lt;Trazado&gt;" class="cls-32" points="277.18 146.31 274.32 151.7 241.78 153.28 238.26 147.39 277.18 146.31"/><polygon id="_Trazado_32" data-name="&lt;Trazado&gt;" class="cls-33" points="274.32 151.7 271.52 156.94 245.11 158.85 241.78 153.28 274.32 151.7"/><polygon id="_Trazado_33" data-name="&lt;Trazado&gt;" class="cls-34" points="271.52 156.94 268.6 162.43 248.25 164.1 245.11 158.85 271.52 156.94"/><polygon id="_Trazado_34" data-name="&lt;Trazado&gt;" class="cls-35" points="268.6 162.43 265.29 168.64 251.64 169.76 248.25 164.1 268.6 162.43"/><polygon id="_Trazado_35" data-name="&lt;Trazado&gt;" class="cls-36" points="265.29 168.64 262.36 174.13 254.68 174.84 251.64 169.76 265.29 168.64"/><polygon id="_Trazado_36" data-name="&lt;Trazado&gt;" class="cls-37" points="262.36 174.13 258.54 181.31 254.68 174.84 262.36 174.13"/></g><g id="_Grupo_16" data-name="&lt;Grupo&gt;"><path id="_Trazado_37" data-name="&lt;Trazado&gt;" class="cls-38" d="M220.69,134.41l-3.27,4.1-5.91,7.42c-.94-1.35-1.41-3-3.6-3.51-3.43-.73-4.23,3-7.66,2.29s-2.63-4.48-6.06-5.21-4.23,3-7.66,2.28-2.63-4.48-6.06-5.21-4.18,2.76-7.33,2.33L170.2,131l-1.82-4.9A343.7,343.7,0,0,0,220.69,134.41Z"/><path id="_Trazado_38" data-name="&lt;Trazado&gt;" class="cls-8" d="M211.51,145.93l-4.67,5.86a4,4,0,0,0-.87-.3c-3.42-.73-4.23,3-7.66,2.29s-2.63-4.48-6.06-5.22-4.23,3-7.66,2.29-2.63-4.48-6.06-5.21a3.7,3.7,0,0,0-2.73.42l-2.66-7.17c3.15.43,4-3,7.33-2.33s2.63,4.48,6.06,5.21,4.23-3,7.66-2.28,2.63,4.48,6.06,5.21,4.23-3,7.66-2.29C210.1,142.89,210.57,144.58,211.51,145.93Z"/><path id="_Trazado_39" data-name="&lt;Trazado&gt;" class="cls-39" d="M206.84,151.79l-9.2,11.55a3.86,3.86,0,0,1-1.36-.05c-3.43-.73-2.63-4.48-6.06-5.21s-4.23,3-7.66,2.28a3.61,3.61,0,0,1-1.76-.89l-5-13.41a3.7,3.7,0,0,1,2.73-.42c3.43.73,2.63,4.48,6.06,5.21s4.23-3,7.66-2.29,2.63,4.48,6.06,5.22,4.23-3,7.66-2.29A4,4,0,0,1,206.84,151.79Z"/><path id="_Trazado_40" data-name="&lt;Trazado&gt;" class="cls-8" d="M197.64,163.35l-10.5,13.18-6.34-17.06a3.61,3.61,0,0,0,1.76.89c3.43.74,4.23-3,7.66-2.28s2.63,4.48,6.06,5.21A3.86,3.86,0,0,0,197.64,163.35Z"/></g><g id="_Grupo_17" data-name="&lt;Grupo&gt;"><path id="_Trazado_compuesto_3" data-name="&lt;Trazado compuesto&gt;" class="cls-40" d="M158.45,123.52l-4,3.42-21.35,18.48s-3.78-4.32-7.63-.51c-2,2,.91,6.33.91,6.33l-8.69,7.52-8.22-47.91-.89-5.16q4.06,1.82,8.16,3.52h0a3.45,3.45,0,0,0,1.57,4.36c2.74,1.44,4-2.1,4-2.1h0A337.26,337.26,0,0,0,158.45,123.52Zm-15.09,8.14c2.09-.82,3.47-3.5,2.56-5.13-.79-1.41-3-1.58-4.48-1.17-1.91.54-3.9,2.45-3.49,4.21S141.23,132.49,143.36,131.67Zm-7.22-8.48a3.47,3.47,0,0,0-2.21-3.72,3.2,3.2,0,0,0-3.23.28c-1.49,1.33-1,4.94,1.1,5.75A3.44,3.44,0,0,0,136.14,123.19ZM124,133.75c1.79-1.72,3.55-5.42,1.54-8.28-1.88-2.69-6.1-3.27-8.16-1.41s-1.24,5-1,6c.11.52,1.11,4.91,4,5.32C122.07,135.61,123.53,134.21,124,133.75Z"/><path id="_Trazado_41" data-name="&lt;Trazado&gt;" class="cls-41" d="M145.92,126.54c.91,1.63-.48,4.31-2.56,5.13s-5-.27-5.41-2.09,1.58-3.67,3.49-4.21C142.89,125,145.14,125.13,145.92,126.54Z"/><path id="_Trazado_42" data-name="&lt;Trazado&gt;" class="cls-42" d="M133.93,119.46a3.2,3.2,0,1,1-2.13,6c-2.07-.81-2.59-4.41-1.1-5.75A3.2,3.2,0,0,1,133.93,119.46Z"/><path id="_Trazado_43" data-name="&lt;Trazado&gt;" class="cls-43" d="M133.15,145.43l-6.72,5.82s-2.92-4.34-.91-6.33C129.37,141.11,133.15,145.43,133.15,145.43Z"/><path id="_Trazado_44" data-name="&lt;Trazado&gt;" class="cls-44" d="M125.54,125.47c2,2.86.26,6.56-1.54,8.28-.47.45-1.93,1.86-3.68,1.61-2.85-.41-3.84-4.8-4-5.32-.22-1-.91-4.24,1-6S123.66,122.79,125.54,125.47Z"/><path id="_Trazado_45" data-name="&lt;Trazado&gt;" class="cls-45" d="M122.35,111.48h0s-1.24,3.54-4,2.1a3.45,3.45,0,0,1-1.57-4.36C118.63,110,120.49,110.75,122.35,111.48Z"/></g><g id="_Grupo_18" data-name="&lt;Grupo&gt;"><path id="_Trazado_46" data-name="&lt;Trazado&gt;" class="cls-46" d="M99.35,101.37,94.82,104l-42,24.47.07-4.77L95.14,99.29C96.53,100,97.94,100.68,99.35,101.37Z"/><path id="_Trazado_47" data-name="&lt;Trazado&gt;" class="cls-47" d="M95.14,99.29,52.89,123.7l.08-5.25,37-21.8h0Q92.56,98,95.14,99.29Z"/><path id="_Trazado_48" data-name="&lt;Trazado&gt;" class="cls-46" d="M90,96.65l-37,21.8.08-5.26L85.13,94C86.75,94.93,88.37,95.79,90,96.65Z"/><path id="_Trazado_49" data-name="&lt;Trazado&gt;" class="cls-48" d="M85.13,94,53.06,113.19l.08-4.76L81.08,91.81Q83.1,92.95,85.13,94Z"/><path id="_Trazado_50" data-name="&lt;Trazado&gt;" class="cls-46" d="M81.08,91.81,53.14,108.44l.09-5.88h0L75.85,88.81C77.58,89.82,79.33,90.82,81.08,91.81Z"/><path id="_Trazado_51" data-name="&lt;Trazado&gt;" class="cls-49" d="M75.85,88.81,53.27,102.56h0l.08-5.38h0L71.08,86C72.66,86.92,74.25,87.87,75.85,88.81Z"/><path id="_Trazado_52" data-name="&lt;Trazado&gt;" class="cls-46" d="M71.08,86,53.36,97.18h0l.1-6.57,12.41-7.9Q68.44,84.35,71.08,86Z"/><path id="_Trazado_53" data-name="&lt;Trazado&gt;" class="cls-50" d="M65.83,82.7,53.42,90.6l.1-6.23L61,79.57Q63.39,81.16,65.83,82.7Z"/><path id="_Trazado_54" data-name="&lt;Trazado&gt;" class="cls-46" d="M61,79.57l-7.47,4.8.07-4.5.08-5.24Q57.28,77.15,61,79.57Z"/></g><path id="_Trazado_55" data-name="&lt;Trazado&gt;" class="cls-51" d="M20.72,51a4.21,4.21,0,0,1-4.47,3.91A4.2,4.2,0,1,1,20.72,51Z"/><path class="cls-52" d="M443,362.54l-.19,14.7-.4,30.31h0a8.86,8.86,0,0,0,17.71.34v0c.93-6.45,2.43-17.06,3.7-26.12S466.17,365,466.17,365C459.76,364.75,443,362.54,443,362.54Z"/><path class="cls-52" d="M487.81,407.75l-.59-28.38-.35-16.83s-22.74,2.33-22.86,2.33,1,7.77,2.2,17.17c1.15,8.88,2.51,19.21,3.44,25.79v0a9.08,9.08,0,0,0,18.17,0S487.81,407.77,487.81,407.75Z"/><path class="cls-53" d="M442.14,452.47a13,13,0,0,0,5.36,1.38,15.63,15.63,0,0,0,4.32-.57c.83,0,1.51,0,1.56.42s-2.35,3.2-2.42,3.16-7.43-1.66-7.43-1.66l-2.07-1.55Z"/><path class="cls-54" d="M448.5,422.72c-1.17,20.23-4,32.76-4,32.76a45.43,45.43,0,0,1,5.6.37c1.77-10.44,3.19-22,4.31-33.13Z"/><path class="cls-55" d="M442.14,452.47c-3.2,2.16-8.58,5.61-11.63,6.5-3.29,1-4,3.42-3.65,5.94,3.27,3.09,11,5.87,17.1.16,4.36-4.08,7-1.52,9.51-4.4a10.84,10.84,0,0,0-.11-7C449,456.66,444,454.05,442.14,452.47Z"/><path class="cls-55" d="M432,458.41a10.33,10.33,0,0,1,3.64,2.41l.32-.1c2.8-.82,7.56-3.79,10.8-5.94a12,12,0,0,1-4.64-2.31A73.18,73.18,0,0,1,432,458.41Z"/><path class="cls-55" d="M450.73,462.21a4.41,4.41,0,0,0,2.74-1.55,10.87,10.87,0,0,0-.09-7C451.8,454.86,450.95,459.52,450.73,462.21Z"/><path class="cls-56" d="M432.82,458.12a16.07,16.07,0,0,1-2.27.91c-3.24.95-4,3.37-3.6,5.86a12.94,12.94,0,0,0,12.77,2.72c0-.14.05-.27.07-.41C440.33,463.39,437.35,459.7,432.82,458.12Z"/><path class="cls-57" d="M444.46,462.65a12.33,12.33,0,0,1-10.26,3.13,14.62,14.62,0,0,1-7.32-3.23,6.65,6.65,0,0,0,0,2.36,13.62,13.62,0,0,0,7.2,3.34,11.7,11.7,0,0,0,9.91-3.18c4.36-4.08,7-1.52,9.51-4.4a8.58,8.58,0,0,0,.45-2C451.47,460.93,448.74,458.8,444.46,462.65Z"/><path class="cls-56" d="M444.68,462.89a12.66,12.66,0,0,1-10.53,3.22,15.21,15.21,0,0,1-7-2.94,6.76,6.76,0,0,0,0,1.58,12.16,12.16,0,0,0,2.91,1.94,13.56,13.56,0,0,0,4,1.24,11.38,11.38,0,0,0,9.64-3.1,9.71,9.71,0,0,1,6-2.78,4.8,4.8,0,0,0,3.46-1.55,7.37,7.37,0,0,0,.29-1.05,7,7,0,0,1-2.95.86A9.45,9.45,0,0,0,444.68,462.89Z"/><path class="cls-57" d="M439,467.6l.52-.17.24-1.72-.52.14Z"/><path class="cls-57" d="M436.94,468l.51-.06.25-1.79-.5.05Z"/><path class="cls-57" d="M435,468l.49,0,.25-1.8-.49,0Z"/><path class="cls-57" d="M451.64,461.61a3.74,3.74,0,0,0,.53-.26l.2-1.41-.52.14Z"/><path class="cls-57" d="M447.58,462.49l.52-.15.23-1.61-.52.18Z"/><path class="cls-57" d="M449.61,462.06l.12,0,.39-.06.23-1.66-.51.07Z"/><path class="cls-57" d="M445.47,463.47l.54-.32.2-1.44-.55.38Z"/><path class="cls-57" d="M433,467.73l.48.1.25-1.78-.48-.09Z"/><path class="cls-57" d="M431.14,467.15l.47.17.24-1.73-.48-.15Z"/><path class="cls-57" d="M441.06,466.75l.54-.31.22-1.57-.53.26Z"/><path class="cls-57" d="M427.5,465l.45.35.21-1.5-.45-.3Z"/><path class="cls-57" d="M429.29,466.28l.46.25.23-1.64-.47-.22Z"/><path class="cls-57" d="M443.24,465.27l.49-.44.07-.07.18-1.28-.56.42Z"/><path class="cls-56" d="M439.38,454.28a15.55,15.55,0,0,1,5.13,3.6l.43-.38a15.57,15.57,0,0,0-5-3.59Z"/><path class="cls-56" d="M437,455.75a15.42,15.42,0,0,1,5.07,3.57l.43-.38a15.44,15.44,0,0,0-4.92-3.55Z"/><path class="cls-56" d="M434.53,457.17a15.64,15.64,0,0,1,5.19,3.63l.43-.38a15.57,15.57,0,0,0-5-3.59Z"/><ellipse class="cls-58" cx="439.93" cy="460.69" rx="1.08" ry="1" transform="translate(-77.69 831.97) rotate(-81.97)"/><ellipse class="cls-58" cx="442.29" cy="459.21" rx="1.08" ry="1" transform="translate(-74.2 833.02) rotate(-81.97)"/><ellipse class="cls-58" cx="444.72" cy="457.77" rx="1.08" ry="1" transform="translate(-70.68 834.2) rotate(-81.97)"/><path class="cls-52" d="M460.08,409.15c0-.13,0-.26,0-.4a8.85,8.85,0,0,0-17.7,0s0,0,0,.06h0L441.83,452l12,1.52s3.17-22.93,6.25-44.33Z"/><path class="cls-53" d="M477,452.37a13,13,0,0,0,5.5.62,15.63,15.63,0,0,0,4.2-1.17c.81-.15,1.5-.22,1.6.2s-1.88,3.49-2,3.47-7.59-.61-7.59-.61l-2.27-1.25Z"/><path class="cls-54" d="M478.51,420.24c2,21.55.88,35.36.88,35.36a45.49,45.49,0,0,1,5.6-.43c.28-11.06,0-23.24-.52-34.93Z"/><path class="cls-55" d="M477,452.37c-2.86,2.59-7.71,6.75-10.61,8.06-3.12,1.41-3.52,4-2.79,6.39,3.67,2.61,11.71,4.28,17-2.23,3.75-4.64,6.76-2.48,8.8-5.69a10.84,10.84,0,0,0-1.08-6.91C484.3,455.57,479.07,453.67,477,452.37Z"/><path class="cls-55" d="M467.78,459.66a10.32,10.32,0,0,1,3.94,1.88l.3-.14c2.66-1.2,7-4.81,9.86-7.39a12,12,0,0,1-4.92-1.64A73.19,73.19,0,0,1,467.78,459.66Z"/><path class="cls-55" d="M486.84,460.82a4.41,4.41,0,0,0,2.49-1.91,10.87,10.87,0,0,0-1.07-6.89C486.87,453.39,486.68,458.12,486.84,460.82Z"/><path class="cls-56" d="M468.54,459.26a16.07,16.07,0,0,1-2.12,1.22c-3.07,1.39-3.47,3.9-2.75,6.3a13,13,0,0,0,13,.91c0-.14,0-.28,0-.42C476.71,463.43,473.24,460.2,468.54,459.26Z"/><path class="cls-57" d="M480.69,462.12a12.33,12.33,0,0,1-9.72,4.54,14.62,14.62,0,0,1-7.7-2.18,6.65,6.65,0,0,0,.3,2.34,13.62,13.62,0,0,0,7.59,2.31,11.7,11.7,0,0,0,9.36-4.54c3.75-4.64,6.76-2.48,8.8-5.69a8.58,8.58,0,0,0,.17-2C487.39,459.44,484.39,457.71,480.69,462.12Z"/><path class="cls-56" d="M480.94,462.33A12.66,12.66,0,0,1,471,467a15.21,15.21,0,0,1-7.37-1.93,6.76,6.76,0,0,0,.26,1.56,12.16,12.16,0,0,0,3.15,1.52,13.56,13.56,0,0,0,4.16.66,11.38,11.38,0,0,0,9.11-4.42,9.71,9.71,0,0,1,5.54-3.59,4.8,4.8,0,0,0,3.21-2,7.36,7.36,0,0,0,.14-1.08,7,7,0,0,1-2.8,1.26A9.45,9.45,0,0,0,480.94,462.33Z"/><path class="cls-57" d="M475.94,467.8l.49-.24v-1.73l-.49.21Z"/><path class="cls-57" d="M474,468.46l.49-.13v-1.8l-.49.12Z"/><path class="cls-57" d="M472,468.77l.49,0V466.9l-.49,0Z"/><path class="cls-57" d="M487.66,460.1a3.74,3.74,0,0,0,.49-.34v-1.42l-.49.21Z"/><path class="cls-57" d="M483.75,461.53l.49-.22v-1.62l-.49.25Z"/><path class="cls-57" d="M485.71,460.82l.11,0,.38-.11V459l-.49.14Z"/><path class="cls-57" d="M481.8,462.8l.49-.39V461l-.49.45Z"/><path class="cls-57" d="M470.09,468.75l.49,0V467l-.49,0Z"/><path class="cls-57" d="M468.13,468.44l.49.11V466.8l-.49-.09Z"/><path class="cls-57" d="M477.9,466.66l.49-.38V464.7l-.49.33Z"/><path class="cls-57" d="M464.23,466.86l.49.29v-1.51l-.49-.24Z"/><path class="cls-57" d="M466.18,467.84l.49.18v-1.66l-.49-.15Z"/><path class="cls-57" d="M479.85,464.88l.43-.5.06-.08V463c-.16.17-.33.33-.49.49Z"/><path class="cls-56" d="M474.49,454.55a15.55,15.55,0,0,1,5.58,2.85l.37-.44a15.57,15.57,0,0,0-5.45-2.85Z"/><path class="cls-56" d="M472.36,456.33a15.42,15.42,0,0,1,5.52,2.83l.38-.44a15.44,15.44,0,0,0-5.36-2.83Z"/><path class="cls-56" d="M470.1,458.08a15.64,15.64,0,0,1,5.64,2.87l.37-.43a15.57,15.57,0,0,0-5.46-2.86Z"/><ellipse class="cls-58" cx="475.93" cy="460.82" rx="1" ry="1.08"/><ellipse class="cls-58" cx="478.06" cy="459.02" rx="1" ry="1.08"/><ellipse class="cls-58" cx="480.26" cy="457.26" rx="1" ry="1.08"/><path class="cls-52" d="M487.82,408.5h0c0-.16,0-.31,0-.47a9.08,9.08,0,0,0-18.16,0c0,.16,0,.32,0,.47v.06c3,21.52,6.16,44.67,6.16,44.67l12.86-1.18Z"/><path class="cls-59" d="M437.84,314.7l-5.52-7.12L417.63,322a4.25,4.25,0,0,0-1.55,2.79,3.84,3.84,0,0,0,6.41,3.14Z"/><path class="cls-52" d="M433.13,322.86l-9.34-8.78,20.47-23.23a3.15,3.15,0,0,1,2.86-1c5.71.86,11.9,2.91,11.59,8.23C458.46,302.56,433.13,322.86,433.13,322.86Z"/><path class="cls-56" d="M440.86,316.5c-1.6,1.36-3.07,2.59-4.29,3.59l-9.4-9.93,2.92-3.34Z"/><path class="cls-60" d="M445.89,290s13.83-2.6,18.13-2.6,18.13,2.6,18.13,2.6l12.08,77.76c-6.6,3.88-26.54,5.84-29.83,5.84s-23.23-2-29.83-5.84Z"/><path class="cls-61" d="M460,293.46a4.56,4.56,0,0,0,3.63,1.08,4.1,4.1,0,0,0,3-2.18l-2.31-14.07-6.67,1.09Z"/><path class="cls-59" d="M491.78,316.39l-8.9,1.37,5.48,19.85a4.25,4.25,0,0,0,1.69,2.71,3.84,3.84,0,0,0,5.86-4.09Z"/><path class="cls-52" d="M496.62,324.47l-12.21,3.9L474,299.2a3.15,3.15,0,0,1,.53-3c3.52-4.57,8.32-9,12.82-6.14C491.17,292.47,496.62,324.47,496.62,324.47Z"/><path class="cls-56" d="M494.81,314.63c.41,2.06.77,3.94,1.06,5.49l-13.24,3.4-1.5-4.17Z"/><path class="cls-61" d="M456.25,330.82a3.7,3.7,0,0,1-1.45,1.72,3.77,3.77,0,0,1-2.81.41c-4.57,2.29-6.17,1.56-5.27.85a10.11,10.11,0,0,1,2.07-1.19c-2,.77-5.28,1.87-5.71,1-.34-.67,1.69-1.66,3.73-2.32-6.17,1.18-7.41,1.08-7.8.42-.68-1.19,1.86-1.84,8-2.94-5.52.75-10.45,1.12-10.23-.22s9.66-3,13.71-2.14c-2.13-1.53-3.36-4.84-2-5.88s6.2,5.1,6.63,5.64a3.63,3.63,0,0,1,1.57,2.65c4.52.84,19.22,3.49,34.63,6.27l-1,4.09C474.08,335.2,459.62,331.82,456.25,330.82Z"/><path class="cls-59" d="M464.19,328.51l-1.58,5.57L491.36,341h0l.14,0a3.85,3.85,0,0,0,1.35-7.58"/><path class="cls-62" d="M480,222.38c-.12-.35-3.75-10.39-11.79-9.87s-17.54,4.15-24.55,8.29-17.43,12.33-19.34,12.44,2.76,1.06,6.16,0c0,0-3.29,3.72-2.76,4.25s3.19-1,3.19-1,.85,7.23,2.34,10.1,1.81,10.63,1.17,16.79c-.33,3.18-1,5.23-.74,7.1-.32-3.73,5.13-15.92,3.39-20.91-1.81-5.21-.64-9,0-13.82s28.38-7,31.88-6.91a3.24,3.24,0,0,1,3.3,3.51C473,228,478.23,223.72,480,222.38Z"/><path class="cls-63" d="M494.57,236.33a8.89,8.89,0,0,1,2.87,1.38S495.32,224.85,480,222.4v0c-1.77,1.34-7,5.6-7.75,10a2.7,2.7,0,0,1,3.19-1.81c2.55.43,10.1,10.95,9.25,17.27s.64,14.72.64,14.72c-.32-11.05,5.21-19.87,9.88-20.51a7.72,7.72,0,0,0-1-2.55s2.13.64,2.23,1.17C496.48,240.68,496.27,237.81,494.57,236.33Z"/><path class="cls-2" d="M433.75,271c0-.14,0-.29-.07-.43A2.57,2.57,0,0,0,433.75,271Z"/><path class="cls-61" d="M484.69,247.85c.85-6.32-6.7-16.84-9.25-17.27a2.7,2.7,0,0,0-3.19,1.81,3.24,3.24,0,0,0-3.3-3.51c-3.51-.11-31.25,2.13-31.88,6.91s-1.81,8.61,0,13.82c1.73,5-4.26,15.5-3.39,20.91,0,.14,0,.29.07.43h0c.05.18.1.36.15.55.44,1.39,1.5,2.77,3.71,4.56,5.63,4.57,13.6,8.08,22,6.91s26-9.35,25.72-20.41C485.33,262.58,483.84,254.18,484.69,247.85Z"/><path class="cls-64" d="M437.05,255.56s.5-2.13-4-1.44-3.06,9.57,2.25,8.51C435.33,262.63,436.84,256.95,437.05,255.56Z"/><path class="cls-64" d="M484.57,256.15s1.76-4.47,4.69-4.94,5,5.37,2.13,8.56a6.32,6.32,0,0,1-6.15,2.24A33,33,0,0,1,484.57,256.15Z"/><path class="cls-65" d="M489.26,256.65l-.26,0a3.93,3.93,0,0,0-.68,0c-.14,0-.28.05-.44.08a3.9,3.9,0,0,0-.46.16,3.08,3.08,0,0,0-.45.25,3.26,3.26,0,0,0-.41.34,3,3,0,0,0-.35.4,3.26,3.26,0,0,0-.3.44c-.08.15-.18.29-.24.44l-.19.42c-.12.26-.18.49-.25.64l-.1.25,0-.27a4.62,4.62,0,0,1,.1-.7c0-.14.08-.3.13-.46a4.32,4.32,0,0,1,.21-.5,2.87,2.87,0,0,1,.29-.5,3.37,3.37,0,0,1,.39-.47,3.7,3.7,0,0,1,.49-.37,2.58,2.58,0,0,1,.54-.25,2.66,2.66,0,0,1,.54-.13,3,3,0,0,1,.49,0,2.6,2.6,0,0,1,.7.13A1.51,1.51,0,0,1,489.26,256.65Z"/><path class="cls-65" d="M431.87,257.9a2.27,2.27,0,0,1,.76-.34,2.42,2.42,0,0,1,.4-.08,2.88,2.88,0,0,1,.46,0,2.95,2.95,0,0,1,1,.21,3.29,3.29,0,0,1,.46.24,4.66,4.66,0,0,1,.39.31c.11.11.21.23.3.34a2.9,2.9,0,0,1,.22.34,2.62,2.62,0,0,1,.25.54l.08.21-.15-.17a5.58,5.58,0,0,0-.38-.44c-.09-.08-.16-.18-.26-.27l-.32-.27-.36-.24a3.07,3.07,0,0,0-.4-.2,2.2,2.2,0,0,0-.42-.14,4,4,0,0,0-.43-.09c-.14,0-.28,0-.41,0h-.38a5.07,5.07,0,0,0-.57.06Z"/><path class="cls-65" d="M455.53,260.8l-.4.31c-.25.19-.6.49-1,.86a6.79,6.79,0,0,0-1.2,1.37,1.6,1.6,0,0,0-.28.88.93.93,0,0,0,.48.72,3.77,3.77,0,0,0,.93.44,5,5,0,0,0,1,.21,7.39,7.39,0,0,0,1.83,0,11.38,11.38,0,0,0,1.29-.26l.48-.14a4.45,4.45,0,0,1-.46.22,7.83,7.83,0,0,1-1.28.42A6.66,6.66,0,0,1,455,266a4.72,4.72,0,0,1-1.09-.19,4,4,0,0,1-1-.48,1.35,1.35,0,0,1-.65-1.05,1.91,1.91,0,0,1,.38-1.1,4.55,4.55,0,0,1,.68-.77c.23-.22.47-.41.69-.58a11.34,11.34,0,0,1,1.11-.74C455.37,260.88,455.53,260.8,455.53,260.8Z"/><path class="cls-65" d="M448.52,271.51s0,.07-.11.22a3.22,3.22,0,0,0-.22.66,1.47,1.47,0,0,0,.12,1,1.68,1.68,0,0,0,1.09.72,5.07,5.07,0,0,0,.78.13c.28,0,.57,0,.87.05.59,0,1.22,0,1.86,0,.32,0,.65,0,1-.05s.67-.05,1-.1.68-.08,1-.14.68-.11,1-.19a20.05,20.05,0,0,0,2-.5l1-.32.91-.36c.3-.11.58-.27.86-.4a7.93,7.93,0,0,0,.81-.41l.75-.42c.24-.14.46-.3.67-.44a13.4,13.4,0,0,0,1.15-.83l.47-.36.37-.34.71-.64-.65.7-.35.37-.45.4-.51.45c-.18.16-.39.3-.6.45s-.43.32-.67.48l-.75.46a8.45,8.45,0,0,1-.81.45c-.28.14-.57.3-.87.42l-.93.39-1,.34a20.07,20.07,0,0,1-2,.54c-.34.08-.69.13-1,.18s-.69.1-1,.13-.69.07-1,.08-.67,0-1,0a17.1,17.1,0,0,1-1.9-.06c-.3,0-.59-.06-.87-.09a5.09,5.09,0,0,1-.82-.18,1.8,1.8,0,0,1-1.17-.87,1.58,1.58,0,0,1-.06-1.11,2.87,2.87,0,0,1,.28-.66A2.35,2.35,0,0,1,448.52,271.51Z"/><path class="cls-65" d="M464.53,269.17a1.83,1.83,0,0,1,.4-.23,2.47,2.47,0,0,1,.45-.15,2.65,2.65,0,0,1,.54-.07,1.7,1.7,0,0,1,.57.08.78.78,0,0,1,.25.13.6.6,0,0,1,.18.18.51.51,0,0,1,.09.2.35.35,0,0,1,0,.16,1,1,0,0,1,0,.13l-.06-.11a.33.33,0,0,0-.08-.11s-.06-.08-.12-.1a.84.84,0,0,0-.35-.12c-.07,0-.15,0-.22,0h-.24l-.5,0-.45,0C464.72,269.18,464.53,269.17,464.53,269.17Z"/><path class="cls-66" d="M467.69,250.51s1.74-2,3.86-1.81a7.53,7.53,0,0,1,3.47,1.13s-.74-2.94-3.47-3S467.79,249.76,467.69,250.51Z"/><ellipse class="cls-67" cx="471.35" cy="256.45" rx="2.99" ry="1.31" transform="translate(196.77 717.48) rotate(-87.77)"/><ellipse class="cls-56" cx="470.82" cy="255.15" rx="0.9" ry="0.4" transform="translate(160.69 691.72) rotate(-83.07)"/><path class="cls-66" d="M440.74,251.1s1.74-2,3.86-1.81a7.54,7.54,0,0,1,3.47,1.13s-.74-2.94-3.47-3S440.85,250.36,440.74,251.1Z"/><ellipse class="cls-67" cx="445.87" cy="257.05" rx="2.99" ry="1.31" transform="translate(171.69 692.59) rotate(-87.77)"/><ellipse class="cls-56" cx="445.34" cy="255.74" rx="0.9" ry="0.4" transform="translate(137.7 666.95) rotate(-83.07)"/><ellipse class="cls-68" cx="473.33" cy="261.99" rx="4.13" ry="1.72" transform="translate(-16.07 31.4) rotate(-3.74)"/><ellipse class="cls-68" cx="442.02" cy="261.6" rx="1.72" ry="4.14" transform="matrix(0.13, -0.99, 0.99, 0.13, 124.92, 665.66)"/><path class="cls-69" d="M460.56,255.69a4.65,4.65,0,0,0-2.91-1.78c-1.23,0-2.56,1.31-2.92,1.78L453,254.4c.21-.27,2.12-2.67,4.67-2.61s4.45,2.5,4.53,2.61Z"/><path class="cls-69" d="M490.57,250.68a2.72,2.72,0,0,0-1.81-.63L481,253l.75,2,9.34-3.16C490.9,251.53,490.82,250.89,490.57,250.68Z"/><path class="cls-70" d="M443.77,265.15h0a22.28,22.28,0,0,1-3.9-.35c-7.58-1.35-7.14-9.77-7-12.54a6.17,6.17,0,0,1,1-3.06,7.55,7.55,0,0,1,2.8-2.27,12.18,12.18,0,0,1,3.1-1,31.13,31.13,0,0,1,5-.52h.87c5.31,0,8.36,1.55,9.06,4.6a21.44,21.44,0,0,1,0,6.85l-.06.54C454.2,262.25,450.11,265.15,443.77,265.15Zm2-17.62h-.83a29,29,0,0,0-4.69.49,10.06,10.06,0,0,0-2.56.8,5.45,5.45,0,0,0-2,1.58,4,4,0,0,0-.67,2c-.34,6.44,1.27,9.63,5.24,10.34a20.21,20.21,0,0,0,3.53.32c7.15,0,8.61-3.67,8.84-5.86l.06-.55a20,20,0,0,0,.05-6.15C452.26,248.5,450,247.54,445.73,247.54Z"/><path class="cls-70" d="M471.53,265.15c-6.34,0-10.44-2.9-11-7.76l-.06-.54a21.48,21.48,0,0,1,0-6.85c.69-3,3.74-4.6,9.06-4.6h.87a31.14,31.14,0,0,1,5,.52,12.2,12.2,0,0,1,3.1,1,7.55,7.55,0,0,1,2.8,2.27,6.17,6.17,0,0,1,1,3.06c.15,2.77.59,11.19-7,12.54A22.29,22.29,0,0,1,471.53,265.15Zm-2-17.62c-4.25,0-6.53,1-7,2.94a20,20,0,0,0,.05,6.15l.06.55c.23,2.19,1.69,5.86,8.84,5.86a20.22,20.22,0,0,0,3.53-.32c4-.71,5.58-3.9,5.24-10.34a4.07,4.07,0,0,0-.67-2,5.46,5.46,0,0,0-2-1.58,10.07,10.07,0,0,0-2.56-.8,29,29,0,0,0-4.69-.49Z"/><path class="cls-2" d="M472.26,232.36v0Z"/><path class="cls-63" d="M468.21,226.76c-5.21-.32-27.85,3.09-31.14,6.49s-1,11-1,11a57.27,57.27,0,0,1,1-8.42c.64-4.78,28.38-7,31.88-6.91a3.24,3.24,0,0,1,3.3,3.51v0C472.34,231.94,473.19,227.06,468.21,226.76Z"/><path class="cls-2" d="M472.25,231.65l.05.48a8.12,8.12,0,0,1,.34-1.16A3.48,3.48,0,0,0,472.25,231.65Z"/><path class="cls-2" d="M484.57,256.15h0c0-.43-.06-.88-.08-1.33A3.82,3.82,0,0,0,484.57,256.15Z"/><path class="cls-66" d="M484.57,256.15c0,.4.06.79.09,1.16A3.72,3.72,0,0,0,484.57,256.15Z"/><path class="cls-66" d="M472.25,232.39s0-.07.06-.17v-.09C472.29,232.22,472.27,232.31,472.25,232.39Z"/><path class="cls-63" d="M486.07,244.21c-.53-7-7.34-14.37-10.1-14.69a3.44,3.44,0,0,0-3.33,1.44,8.12,8.12,0,0,0-.34,1.16v.09a2.68,2.68,0,0,1,3.13-1.63c2.55.43,10.1,10.95,9.25,17.27a39.39,39.39,0,0,0-.2,7C484.66,252.67,486.5,249.83,486.07,244.21Z"/><path class="cls-61" d="M451.73,343.15a3.7,3.7,0,0,0,.06,2.24,3.77,3.77,0,0,0,1.94,2.08c2.14,4.64,3.85,5.07,3.59,4a10.11,10.11,0,0,0-.88-2.22c1.08,1.85,3,4.75,3.82,4.36.69-.31-.28-2.35-1.47-4.14,4.09,4.77,5.12,5.47,5.83,5.19,1.27-.5-.3-2.6-4.39-7.26,3.85,4,7.47,7.39,8.13,6.2s-5.71-8.33-9.38-10.22c2.62.13,5.64-1.69,5.26-3.33s-8,.12-8.7.27a3.63,3.63,0,0,0-2.88,1.09c-4.06-2.16-17.21-9.26-31-16.7l-1.78,3.82C435.06,335.46,448.48,341.83,451.73,343.15Z"/><path class="cls-59" d="M416.26,323.91a3.85,3.85,0,0,1,5.22-1.55l25.48,14-2.23,5.34L417.95,329.2h0l-.13-.06A3.85,3.85,0,0,1,416.26,323.91Z"/><path d="M161.94,383.73a42.88,42.88,0,0,0-11.27-3.23c1.36,13,1.84,26.2,1.89,37.77h0c0,.06,0,.13,0,.19a3.24,3.24,0,0,0,6.48.24C161,399.92,161.94,383.73,161.94,383.73Z"/><path d="M159.05,418.46a3.24,3.24,0,0,0-6.48-.19h0c.08,21.33-1.3,37.29-1.3,37.29a5.21,5.21,0,0,1,2.63-.06c2.14-10.73,3.85-24.22,5.13-36.61A3.21,3.21,0,0,0,159.05,418.46Z"/><path d="M183.37,380.85A42.88,42.88,0,0,0,172,383.65s.35,16,1.57,34.68h0s0,0,0,.06a3.25,3.25,0,0,0,6.49.1h0C180.55,406.93,181.52,393.82,183.37,380.85Z"/><path d="M180.08,418.48h0s0-.06,0-.1a3.25,3.25,0,0,0-6.49-.06h0c.82,12.58,2,26.38,3.8,37.34a5.21,5.21,0,0,1,2.62.16S179.19,439.81,180.08,418.48Z"/><path class="cls-71" d="M144.84,373.48a3.36,3.36,0,0,0-1-1,3.31,3.31,0,0,0-1.29-.5c-.69-5.39-2.95-21.9-4.85-35.59v-.05h0a2.72,2.72,0,1,0-5.37.84h0c3.85,15.49,7.45,30.79,8.45,35a3.26,3.26,0,0,0-1.58,1.2,3.33,3.33,0,0,0-.5,2.45c-2.24,3.91-1.68,5.36-1,4.6a9,9,0,0,0,1.15-1.77c-.77,1.72-1.91,4.55-1.18,5s1.54-1.4,2.22-3.17c-1.34,5.38-1.32,6.47-.75,6.84,1,.66,1.71-1.55,3-6.86-.93,4.82-1.5,9.15-.31,9s3.08-8.36,2.56-12c1.25,2,4.1,3.19,5.08,2.08S145.3,373.89,144.84,373.48Z"/><path class="cls-72" d="M140.92,268.82c.73,6.18,8,28.79,7.64,30.47s.52,8.27,2.93,7.75,21.25-1.36,24.5-.42,16.86,6,18.32,5.23,4-22.19,4-27.74-4.61-18-7.75-21.36-35.39-4.08-40.2-.94A111.8,111.8,0,0,0,140.92,268.82Z"/><path class="cls-73" d="M169.57,307.34a7.82,7.82,0,0,1,14.87-3.29l18,29h0a5.45,5.45,0,0,1-5.94,8.09,5.48,5.48,0,0,1-3.44-2.47h0L171.5,312.57l-.31-.38-.08-.09h0A7.78,7.78,0,0,1,169.57,307.34Z"/><path class="cls-71" d="M235.07,335.37a3.36,3.36,0,0,0-1.22.68,3.31,3.31,0,0,0-.81,1.12c-5.39-.69-21.94-2.69-35.65-4.31h-.05a2.72,2.72,0,1,0-.55,5.41h0c16,.2,31.68.58,36,.68a3.26,3.26,0,0,0,.76,1.83,3.33,3.33,0,0,0,2.25,1.11c3.21,3.16,4.76,3,4.2,2.14a9,9,0,0,0-1.42-1.56c1.47,1.19,3.92,3,4.52,2.4s-1-1.85-2.5-3c4.86,2.66,5.93,2.91,6.43,2.46.89-.81-1.06-2-5.89-4.62,4.43,2.12,8.47,3.77,8.64,2.58s-7.31-5.09-10.93-5.5c2.21-.71,4.13-3.16,3.3-4.39S235.57,335,235.07,335.37Z"/><path class="cls-73" d="M199.35,330.43c-.24,0-.49-.07-.73-.13a5.56,5.56,0,0,0-2.81,10.75l.38.08.27,0,.4,0a5.5,5.5,0,0,0,.84,0l14.45-.23s.63-8.57.16-8.7S203.31,330.95,199.35,330.43Z"/><rect class="cls-74" x="206" y="331.66" width="12.22" height="8.83" rx="0.8" ry="0.8" transform="translate(-132.73 533.61) rotate(-87.55)"/><path class="cls-75" d="M165.18,463.86a13.59,13.59,0,0,0-2.3-1.31c-2.09-1.25-5.31-4-5.93-5.79.69-4.65,1.92-12.07,2.82-22.93a41.06,41.06,0,0,1-9.25-.76c-.11.92-.78,19.58-1.49,22.18s-1.16,3.74-1,5.23c1.25,2.44,3.56,1.09,5.94,4.69,3.12,4.73,8.5,4.45,11.48,3.06q.3-.14.56-.29C166.46,466.81,167.1,465.43,165.18,463.86Z"/><path class="cls-76" d="M165.18,463.86a13.59,13.59,0,0,0-2.3-1.31l-.74-.47c-2.85.13-5.31,2.09-7.27,4.27,3.18,3.49,7.86,3.14,10.57,1.88q.3-.14.56-.29C166.46,466.81,167.1,465.43,165.18,463.86Z"/><path class="cls-76" d="M148.7,456.39a10.37,10.37,0,0,0-.68,4.1c.73,1.42,1.82,1.56,3.07,2.14a11.69,11.69,0,0,0-.24-3.37A4.82,4.82,0,0,0,148.7,456.39Z"/><path class="cls-76" d="M153.94,464.9c-2.35-3.49-4.63-2.33-5.93-4.49v.09l.1.18a1.52,1.52,0,0,0,.06,1.47c.45,1,3.58,1.68,4.9,1.91a8.48,8.48,0,0,1,.88,1.13c3.12,4.73,8.5,4.45,11.48,3.06q.3-.14.56-.29l.08-.21-.47.24C162.58,469.36,157.12,469.63,153.94,464.9Z"/><path class="cls-77" d="M152.41,434.14l-.85-.12a.23.23,0,0,0-.07.45l.86.12h0a.23.23,0,0,0,.05-.46Z"/><path class="cls-77" d="M154.12,434.35l-.85-.1a.23.23,0,1,0-.06.46l.86.1h0a.23.23,0,0,0,0-.46Z"/><path class="cls-77" d="M159.24,434.63h-.85a.23.23,0,0,0,0,.46h.89a.23.23,0,0,0,0-.46Z"/><path class="cls-77" d="M155.83,434.51h0l-.72-.06H155a.23.23,0,0,0,0,.46h.13l.73.06a.23.23,0,0,0,0-.46Z"/><path class="cls-77" d="M157.53,434.62l-.85,0a.23.23,0,0,0,0,.46h0l.87,0a.23.23,0,1,0,0-.46Z"/><path class="cls-75" d="M159,463.55c-.26.14-.51.3-.75.46a.23.23,0,0,0,.26.38c.23-.15.47-.3.72-.44a.23.23,0,1,0-.22-.4Z"/><path class="cls-75" d="M156.25,465.75a6.68,6.68,0,0,0-.48.65.23.23,0,0,0,.07.32l.1,0a.23.23,0,0,0,.21-.1,6.23,6.23,0,0,1,.45-.61.23.23,0,1,0-.35-.29Z"/><path class="cls-75" d="M157.52,464.52c-.23.19-.46.38-.66.58a.23.23,0,1,0,.32.33c.2-.19.41-.38.63-.55a.23.23,0,1,0-.29-.36Z"/><path class="cls-75" d="M160.58,462.81c-.27.1-.55.21-.81.33a.23.23,0,0,0,.07.44.22.22,0,0,0,.12,0c.26-.12.52-.23.78-.32a.23.23,0,0,0-.16-.43Z"/><path class="cls-75" d="M162.28,462.36a8.61,8.61,0,0,0-.87.18.23.23,0,0,0,0,.45h.08a8.23,8.23,0,0,1,.82-.17.23.23,0,1,0-.07-.45Z"/><path class="cls-75" d="M150.49,459.26a5.17,5.17,0,0,0-.33-.84.23.23,0,1,0-.41.21,4.7,4.7,0,0,1,.3.76.23.23,0,0,0,.2.16h.09A.23.23,0,0,0,150.49,459.26Z"/><path class="cls-75" d="M149,457a.23.23,0,0,0-.3.35,4,4,0,0,1,.56.59.23.23,0,1,0,.36-.28A4.5,4.5,0,0,0,149,457Z"/><path class="cls-75" d="M150.42,459.94a.23.23,0,0,0-.19.26,6.73,6.73,0,0,1,.07.83.23.23,0,0,0,.21.22h0a.23.23,0,0,0,.23-.23,7.22,7.22,0,0,0-.07-.89A.23.23,0,0,0,150.42,459.94Z"/><path class="cls-77" d="M155.94,441.25a.61.61,0,1,0-.07.45,9,9,0,0,0,1.28.21,9.78,9.78,0,0,0,1.83,0l.05-.46A9.13,9.13,0,0,1,155.94,441.25Z"/><path class="cls-77" d="M157,456.44a9.07,9.07,0,0,1-2.48-.25.61.61,0,1,0-.07.45,9,9,0,0,0,1.28.21,9.86,9.86,0,0,0,1.27,0l0-.13Z"/><path class="cls-77" d="M155.65,444.24a.61.61,0,1,0-.07.45,9,9,0,0,0,1.28.21,9.81,9.81,0,0,0,1.76,0l.06-.46A9.12,9.12,0,0,1,155.65,444.24Z"/><path class="cls-77" d="M156.22,438.26a.61.61,0,1,0-.07.45,9,9,0,0,0,1.28.21,9.79,9.79,0,0,0,1.86,0l0-.46A9.13,9.13,0,0,1,156.22,438.26Z"/><path class="cls-77" d="M154.8,453.2a.61.61,0,1,0-.07.45,9,9,0,0,0,1.28.21,10,10,0,0,0,1.37,0l.07-.46A9.11,9.11,0,0,1,154.8,453.2Z"/><path class="cls-77" d="M155.09,450.21a.61.61,0,1,0-.07.45,9,9,0,0,0,1.28.21,9.92,9.92,0,0,0,1.53,0l.07-.46A9.13,9.13,0,0,1,155.09,450.21Z"/><path class="cls-77" d="M155.37,447.22a.61.61,0,1,0-.07.45,9,9,0,0,0,1.28.21,9.87,9.87,0,0,0,1.66,0l.06-.46A9.13,9.13,0,0,1,155.37,447.22Z"/><path class="cls-75" d="M192,461.81a13.6,13.6,0,0,0-2.47-.94c-2.26-.92-5.85-3.1-6.74-4.82,0-4.71.06-12.22-.69-23.09a41.06,41.06,0,0,1-9.26.65c0,.92,2.2,19.47,1.89,22.15s-.58,3.87-.2,5.32c1.6,2.22,3.69.54,6.58,3.74,3.8,4.2,9.07,3.11,11.81,1.28q.27-.18.51-.37C193.76,464.53,194.18,463.07,192,461.81Z"/><path class="cls-76" d="M192,461.81a13.6,13.6,0,0,0-2.47-.94l-.8-.35c-2.8.56-4.94,2.87-6.54,5.33,3.67,3,8.25,1.92,10.73.26q.27-.18.51-.37C193.76,464.53,194.18,463.07,192,461.81Z"/><path class="cls-76" d="M174.63,456.92a10.37,10.37,0,0,0-.05,4.15c.93,1.3,2,1.27,3.36,1.65a11.69,11.69,0,0,0-.75-3.3A4.82,4.82,0,0,0,174.63,456.92Z"/><path class="cls-76" d="M181.09,464.54c-2.85-3.1-4.93-1.6-6.54-3.54l0,.08.13.17a1.52,1.52,0,0,0,.28,1.45c.6.92,3.79,1.12,5.14,1.14a8.49,8.49,0,0,1,1,1c3.8,4.2,9.07,3.11,11.81,1.28q.27-.18.51-.37l0-.22-.43.3C190.31,467.64,185,468.73,181.09,464.54Z"/><path class="cls-77" d="M174.92,434.36h-.86a.23.23,0,0,0,0,.46h.87a.23.23,0,0,0,0-.46Z"/><path class="cls-77" d="M176.64,434.32l-.86,0a.23.23,0,1,0,0,.46l.86,0h0a.23.23,0,0,0,0-.46Z"/><path class="cls-77" d="M181.75,433.82l-.84.14a.23.23,0,0,0,0,.46h0l.86-.14a.23.23,0,0,0-.08-.45Z"/><path class="cls-77" d="M178.35,434.22h0l-.72,0h-.13a.23.23,0,0,0,0,.46h.13l.73,0a.23.23,0,0,0,0-.46Z"/><path class="cls-77" d="M180.06,434.07l-.85.09a.23.23,0,0,0,0,.46h0l.86-.09a.23.23,0,1,0-.05-.46Z"/><path class="cls-75" d="M185.87,462.44c-.23.18-.46.37-.67.57a.23.23,0,0,0,.31.34c.21-.19.42-.37.64-.54a.23.23,0,1,0-.28-.36Z"/><path class="cls-75" d="M183.5,465a6.7,6.7,0,0,0-.38.72.23.23,0,0,0,.12.3l.11,0a.23.23,0,0,0,.2-.14,6.22,6.22,0,0,1,.35-.67.23.23,0,1,0-.39-.24Z"/><path class="cls-75" d="M184.57,463.63c-.2.22-.4.45-.57.67a.23.23,0,1,0,.36.28c.17-.22.35-.43.54-.64a.23.23,0,1,0-.34-.31Z"/><path class="cls-75" d="M187.34,461.47c-.25.14-.51.29-.75.45a.23.23,0,0,0,.14.42.22.22,0,0,0,.11,0c.24-.16.48-.3.72-.43a.23.23,0,0,0-.22-.4Z"/><path class="cls-75" d="M189,460.77a8.6,8.6,0,0,0-.83.31.23.23,0,0,0,.11.44l.08,0a8.23,8.23,0,0,1,.78-.3.23.23,0,1,0-.14-.44Z"/><path class="cls-75" d="M176.83,459.49a5.17,5.17,0,0,0-.45-.78.23.23,0,1,0-.37.27,4.7,4.7,0,0,1,.41.71.23.23,0,0,0,.22.13l.09,0A.23.23,0,0,0,176.83,459.49Z"/><path class="cls-75" d="M175.06,457.48a.23.23,0,0,0-.24.39,4,4,0,0,1,.65.49.23.23,0,1,0,.32-.33A4.5,4.5,0,0,0,175.06,457.48Z"/><path class="cls-75" d="M176.86,460.17a.23.23,0,0,0-.15.29,6.74,6.74,0,0,1,.19.81.23.23,0,0,0,.24.19h0a.23.23,0,0,0,.19-.27,7.21,7.21,0,0,0-.2-.87A.23.23,0,0,0,176.86,460.17Z"/><path class="cls-77" d="M179.48,440.86a.61.61,0,1,0,0,.46,9,9,0,0,0,1.3,0,9.78,9.78,0,0,0,1.81-.27l0-.47A9.13,9.13,0,0,1,179.48,440.86Z"/><path class="cls-77" d="M182.83,455.71a9.07,9.07,0,0,1-2.49.13.61.61,0,1,0,0,.46,9,9,0,0,0,1.3,0,9.86,9.86,0,0,0,1.26-.15l-.07-.12C182.83,455.94,182.83,455.82,182.83,455.71Z"/><path class="cls-77" d="M179.66,443.85a.61.61,0,1,0,0,.46,9,9,0,0,0,1.3,0,9.81,9.81,0,0,0,1.74-.26v-.47A9.12,9.12,0,0,1,179.66,443.85Z"/><path class="cls-77" d="M179.31,437.86a.61.61,0,1,0,0,.46,9,9,0,0,0,1.3,0,9.79,9.79,0,0,0,1.84-.28l0-.47A9.13,9.13,0,0,1,179.31,437.86Z"/><path class="cls-77" d="M180.17,452.84a.61.61,0,1,0,0,.46,9,9,0,0,0,1.3,0,9.93,9.93,0,0,0,1.36-.17q0-.23,0-.47A9.11,9.11,0,0,1,180.17,452.84Z"/><path class="cls-77" d="M180,449.85a.61.61,0,1,0,0,.46,9,9,0,0,0,1.3,0,9.91,9.91,0,0,0,1.51-.21v-.47A9.13,9.13,0,0,1,180,449.85Z"/><path class="cls-77" d="M179.83,446.85a.61.61,0,1,0,0,.46,9,9,0,0,0,1.3,0,9.87,9.87,0,0,0,1.64-.23q0-.23,0-.47A9.13,9.13,0,0,1,179.83,446.85Z"/><path class="cls-78" d="M188.19,374.89c-.45-4.77-2.07-11.55-3.81-14.86l-.08-.62-.53-8.28-.9-40.56h0c-3.17-9.86-6.76-12.55-14.49-12.77h-.26c-7.66.21-11.26,2.86-14.41,12.51l-2.42,27.43a19,19,0,0,1,0,2.63c-.06,1.88-.8,6.83-.51,7.87s1.16,4.64,1.16,4.64-1,1.86-1.66,3v-.23c-1,.92-4.69,7.55-5.52,12.52s.28,16.85.28,16.85l.11-.3c5.8,5.25,13.59,8.64,23.58,9,.13-3.64,1.5-16.63,1.5-16.63l1.37,16.66c9.66-.05,11.53-.71,16.51-5.56A88.12,88.12,0,0,0,188.19,374.89Z"/><rect class="cls-79" x="160.52" y="295.31" width="13.68" height="4.32"/><path class="cls-71" d="M172.11,302.89a4.19,4.19,0,0,1-3,1.69,3.77,3.77,0,0,1-3.16-1.35l-.71-13.08,6.2-.34Z"/><rect class="cls-71" x="132.86" y="235.06" width="61.91" height="58.35" rx="27.46" ry="27.46"/><path class="cls-80" d="M182.33,259.48a2.28,2.28,0,0,0-2.94-.59,4.79,4.79,0,0,0-2.17,3.07.18.18,0,0,0,.19.21.13.13,0,0,0,.18,0,9.39,9.39,0,0,1,2.51-1.67,2.18,2.18,0,0,1,1.75.34c.38.21.53.31.92.1a.55.55,0,0,0,.2-.65A1.71,1.71,0,0,0,182.33,259.48Z"/><path class="cls-74" d="M171.37,299.69c0,.4.44,7,.44,7s2.56-7.07,2.56-7.47-.18-3.88-.18-3.88Z"/><path class="cls-74" d="M171.09,299.68c0,.4-1.65,7-1.65,7s-9.6-7.07-9.6-7.47.66-3.88.66-3.88Z"/><path class="cls-81" d="M133.7,335l0,0c3.58-5.39,7.08-10.75,10.14-15.49,5.13,2.46,6.26,4.23,6.26,4.23l-12,14.52,0,0A2.72,2.72,0,0,1,133.7,335Z"/><path class="cls-73" d="M164.27,308.92a7.82,7.82,0,0,0-14.83-3.46l-18.35,28.78h0a5.45,5.45,0,0,0,5.84,8.16,5.48,5.48,0,0,0,3.47-2.42h0l21.85-25.86.32-.38.08-.09h0A7.78,7.78,0,0,0,164.27,308.92Z"/><path class="cls-73" d="M141.49,337.68c0-.24-.05-.5-.05-.74a5.56,5.56,0,0,0-11.11,0c0,.13,0,.26,0,.38l0,.27.05.4a5.5,5.5,0,0,0,.23.81l3.88,13.92s8.46-1.55,8.46-2S142,341.64,141.49,337.68Z"/><rect class="cls-74" x="132.46" y="346.99" width="12.22" height="8.83" rx="0.8" ry="0.8" transform="translate(-71.12 37.21) rotate(-12.2)"/><path class="cls-82" d="M172.46,276.84c-.84-1.53-2.7-.59-3.54.25-.06.06,0,.15.1.11.72-.42,2.17-1,2.79,0,.48.72-.37,1.61-.82,2-.1.08-.08.31.08.33C172.25,279.57,173.06,277.93,172.46,276.84Z"/><path class="cls-83" d="M161.52,283.52a6.11,6.11,0,0,0,12.2,0Z"/><path class="cls-80" d="M160.33,271.09c0,2-.92,3.59-2.09,3.59s-2.12-1.61-2.12-3.59.93-3.59,2.09-3.59S160.32,269.11,160.33,271.09Z"/><path class="cls-56" d="M159.7,269.71c0,.6-.29,1.1-.64,1.11s-.64-.47-.64-1.07.29-1.1.64-1.11S159.7,269.11,159.7,269.71Z"/><path class="cls-80" d="M180,268.66c0,2-.92,3.59-2.09,3.59s-2.12-1.61-2.12-3.59.93-3.59,2.09-3.59S180,266.67,180,268.66Z"/><path class="cls-56" d="M179.36,267.28c0,.6-.29,1.1-.64,1.11s-.64-.47-.64-1.07.29-1.1.64-1.11S179.37,266.67,179.36,267.28Z"/><path class="cls-80" d="M155.17,263.85a7.22,7.22,0,0,1,4.63-.06,4.66,4.66,0,0,0-8.27,2.91A7.22,7.22,0,0,1,155.17,263.85Z"/><path class="cls-80" d="M176.81,261.76a7.22,7.22,0,0,1,4.57.71,4.66,4.66,0,0,0-8.64,1.5A7.22,7.22,0,0,1,176.81,261.76Z"/><path class="cls-84" d="M131.81,332.22c-.11.16-.22.33-.35.49A1.94,1.94,0,0,0,131.81,332.22Z"/><path class="cls-71" d="M143.29,276.88a9.17,9.17,0,0,1,.14-1.58c-1.84-.11-3.62,1.61-2.92,4.18a3.07,3.07,0,0,0,4.35,2.19A7.26,7.26,0,0,1,143.29,276.88Z"/><path class="cls-85" d="M142.51,280.35l.33-.05c1.92-.14,3.68,2.51,3.93,5.91s-1.1,6.29-3,6.43-3.68-2.51-3.93-5.91a9.32,9.32,0,0,1,.58-4.19,8.78,8.78,0,0,1,.82-1.61"/><path class="cls-82" d="M143,280a.86.86,0,0,0,.08-.4.71.71,0,0,0,0-.19.85.85,0,0,0,0-.22,1.45,1.45,0,0,0-.22-.42l-.16-.19a1.54,1.54,0,0,0-.19-.14l-.18-.12a.69.69,0,0,0-.18-.07,1.55,1.55,0,0,0-.39-.07,2.19,2.19,0,0,0,.25.3s.08.07.12.12l.12.15.13.14.11.16a3.46,3.46,0,0,1,.22.32c0,.05.06.11.09.16s.07.1.09.15Z"/><path class="cls-84" d="M146,313.48a26.59,26.59,0,0,1,3.38-1.46c1.18-.32,1.82-.32,1.92-2.14s1.82-1.82,2.46-3.1,3-2.35.85-4c-1.58-1.18-.83-1.79-1.1-2.88,0-.15,0-.3,0-.45-.55-5.12.11-6-1.44-8.23a41.63,41.63,0,0,1-5.89-17.66c-.56-7.77-1.44-6.85-1.22-10.08s2.33-5.88,2.33-8.33-.89-3.33-.44-4.89,5.22-4.12,5.22-4.12,8.88,8.94,13.33,11.58,12.77,4.74,12.77,4.74.39,2.69,2.25,3.63a5.28,5.28,0,0,0,4,0s-.52,7.83.32,9.33a7.25,7.25,0,0,1,.82,3.27s-2.06,8.85-4,10.48c0,3-.68,6,.77,7.74s2.05,2.51,3.19,3.86a1.71,1.71,0,0,1,.49,1.45c.78,2.62.87,4.74,1.82,6.93a43.4,43.4,0,0,0,1.68,4.55c.85,1.82,1.71,4.17,4,3.85s4.7,0,6.09-1.07,1.6-1.5,2.14-4,1.39-2.67,2.46-3.53a3.87,3.87,0,0,0,1.6-4,4.92,4.92,0,0,1,.32-3.63c.43-1,1.07-1.07-.21-3.31A5.07,5.07,0,0,0,205,297c.47-2.22,1.07-4.39.88-5.43a11.76,11.76,0,0,0-1.54-4s2.65-1.76,1.33-3.55c1.89-1.78,4-4.24,3.91-5.68s-1.59-1.83-1.58-1.92,1.37-2.05.52-2.73L203.86,270s1-2.7,0-3.37a5,5,0,0,0,4.34-4.1h0a4.87,4.87,0,0,0-.08-.67.89.89,0,0,0-.42-.51l.47-1.93h0c.23-1.21.49-3.28-.2-4.13a10.89,10.89,0,0,0-2.83-2.2,5.57,5.57,0,0,0,.69-5.35,8.93,8.93,0,0,0-4.29-4s-1.25-3.84-3.4-5.42a8.23,8.23,0,0,0-3-1.69s1-3.45-2.67-7.11-8.79-8.55-21.22-9.44c-2.09-.15-5.87-2-11.2-2s-6.33,3.45-7.88,4.11-3.78.11-5.55.89-4,2.64-6.22,3.76-5.22,4.33-5.77,6.28-2.78,3.33-3.44,5.2.22,3,0,5.53-.25,4.2-.25,4.2a24.58,24.58,0,0,1-4.08,2.46c-2,.89-5.55,6.32-5.33,7.77a7,7,0,0,0,.67,2.22s-1,2.75-.22,4.38c.66,1.38,2.27,2.93,2,4.12a4.66,4.66,0,0,1-.16,2.75,1.4,1.4,0,0,1-.22.31h0s-.89,2.33-.45,3.77.67,2.55.67,2.55-2.44,2.11-2.22,4,3,3.78,2.89,5.55c.4,1.22-.6,2.54-1.07,4.08l0,.16v.07a14.11,14.11,0,0,0,.12,2.89l.05.31.05.27,0,.19v0a11.52,11.52,0,0,0,2.46,4.63c.09.1.18.19.26.3l.89,1.22c1,1.37,2,2.56,2,2.56s0,.08-.07.21c1.43,2.08,2.74,4,3.05,4.51a10.94,10.94,0,0,1,.59,1.25l-.24.32.44.13a9,9,0,0,1,.51.95,2.45,2.45,0,0,0,1.35,1.2c1.36,1.78,2,2.94,4,3.18,2.78.32,3.2-1.07,4.81-1.82l1.87-.9Z"/><path class="cls-86" d="M164.4,245.27c6.43-.25,12.27-.39,16.68,2.36A18.85,18.85,0,0,0,146.8,250C151,246,157.35,245.54,164.4,245.27Z"/><path class="cls-86" d="M184.62,359.4l-.53-8.42c-11,1.08-22.54.54-33.61-3l-.91,8.44C161.12,360.16,173.17,360.64,184.62,359.4Z"/><path class="cls-87" d="M59.53,362.54l.19,14.7.4,30.31h0a8.86,8.86,0,0,1-17.71.34v0c-.93-6.45-2.43-17.06-3.7-26.12S36.34,365,36.34,365C42.75,364.75,59.53,362.54,59.53,362.54Z"/><path class="cls-87" d="M14.71,407.75l.59-28.38.35-16.83s22.74,2.33,22.86,2.33-1,7.77-2.2,17.17c-1.15,8.88-2.51,19.21-3.44,25.79v0a9.08,9.08,0,0,1-18.17,0S14.71,407.77,14.71,407.75Z"/><path class="cls-53" d="M60.38,452.47A13,13,0,0,1,55,453.85a15.63,15.63,0,0,1-4.32-.57c-.83,0-1.51,0-1.56.42s2.35,3.2,2.42,3.16S59,455.19,59,455.19l2.07-1.55Z"/><path class="cls-54" d="M54,422.72c1.17,20.23,4,32.76,4,32.76a45.43,45.43,0,0,0-5.6.37c-1.77-10.44-3.19-22-4.31-33.13Z"/><path class="cls-88" d="M60.38,452.47c3.2,2.16,8.58,5.61,11.63,6.5,3.29,1,4,3.42,3.65,5.94-3.27,3.09-11,5.87-17.1.16-4.36-4.08-7-1.52-9.51-4.4a10.84,10.84,0,0,1,.11-7C53.56,456.66,58.47,454.05,60.38,452.47Z"/><path class="cls-88" d="M70.49,458.41a10.33,10.33,0,0,0-3.64,2.41l-.32-.1c-2.8-.82-7.56-3.79-10.8-5.94a12,12,0,0,0,4.64-2.31A73.18,73.18,0,0,0,70.49,458.41Z"/><path class="cls-88" d="M51.78,462.21A4.41,4.41,0,0,1,49,460.67a10.87,10.87,0,0,1,.09-7C50.71,454.86,51.57,459.52,51.78,462.21Z"/><path class="cls-56" d="M69.69,458.12A16.07,16.07,0,0,0,72,459c3.24.95,4,3.37,3.6,5.86a12.94,12.94,0,0,1-12.77,2.72c0-.14-.05-.27-.07-.41C62.18,463.39,65.16,459.7,69.69,458.12Z"/><path class="cls-57" d="M58.05,462.65a12.33,12.33,0,0,0,10.26,3.13,14.62,14.62,0,0,0,7.32-3.23,6.65,6.65,0,0,1,0,2.36,13.62,13.62,0,0,1-7.2,3.34,11.7,11.7,0,0,1-9.91-3.18c-4.36-4.08-7-1.52-9.51-4.4a8.58,8.58,0,0,1-.45-2C51,460.93,53.78,458.8,58.05,462.65Z"/><path class="cls-56" d="M57.83,462.89a12.66,12.66,0,0,0,10.53,3.22,15.21,15.21,0,0,0,7-2.94,6.76,6.76,0,0,1,0,1.58,12.16,12.16,0,0,1-2.91,1.94,13.56,13.56,0,0,1-4,1.24,11.38,11.38,0,0,1-9.64-3.1,9.71,9.71,0,0,0-6-2.78,4.8,4.8,0,0,1-3.46-1.55,7.37,7.37,0,0,1-.29-1.05,7,7,0,0,0,2.95.86A9.45,9.45,0,0,1,57.83,462.89Z"/><path class="cls-57" d="M63.55,467.6l-.52-.17-.24-1.72.52.14Z"/><path class="cls-57" d="M65.57,468l-.51-.06-.25-1.79.5.05Z"/><path class="cls-57" d="M67.55,468l-.49,0-.25-1.8.49,0Z"/><path class="cls-57" d="M50.87,461.61a3.74,3.74,0,0,1-.53-.26l-.2-1.41.52.14Z"/><path class="cls-57" d="M54.94,462.49l-.52-.15-.23-1.61.52.18Z"/><path class="cls-57" d="M52.9,462.06l-.12,0L52.4,462l-.23-1.66.51.07Z"/><path class="cls-57" d="M57,463.47l-.54-.32-.2-1.44.55.38Z"/><path class="cls-57" d="M69.48,467.73l-.48.1L68.74,466l.48-.09Z"/><path class="cls-57" d="M71.37,467.15l-.47.17-.24-1.73.48-.15Z"/><path class="cls-57" d="M61.45,466.75l-.54-.31-.22-1.57.53.26Z"/><path class="cls-57" d="M75,465l-.45.35-.21-1.5.45-.3Z"/><path class="cls-57" d="M73.22,466.28l-.46.25-.23-1.64.47-.22Z"/><path class="cls-57" d="M59.27,465.27l-.49-.44-.07-.07-.18-1.28.56.42Z"/><path class="cls-56" d="M63.13,454.28a15.55,15.55,0,0,0-5.13,3.6l-.43-.38a15.57,15.57,0,0,1,5-3.59Z"/><path class="cls-56" d="M65.49,455.75a15.42,15.42,0,0,0-5.07,3.57l-.43-.38a15.44,15.44,0,0,1,4.92-3.55Z"/><path class="cls-56" d="M68,457.17a15.64,15.64,0,0,0-5.19,3.63l-.43-.38a15.57,15.57,0,0,1,5-3.59Z"/><ellipse class="cls-58" cx="62.59" cy="460.69" rx="1" ry="1.08" transform="translate(-63.73 13.26) rotate(-8.03)"/><ellipse class="cls-58" cx="60.22" cy="459.21" rx="1" ry="1.08" transform="translate(-63.56 12.91) rotate(-8.03)"/><ellipse class="cls-58" cx="57.8" cy="457.77" rx="1" ry="1.08" transform="translate(-63.37 12.56) rotate(-8.03)"/><path class="cls-87" d="M42.43,409.15c0-.13,0-.26,0-.4a8.85,8.85,0,0,1,17.7,0s0,0,0,.06h0L60.68,452l-12,1.52s-3.17-22.93-6.25-44.33Z"/><path class="cls-53" d="M25.55,452.37a13,13,0,0,1-5.5.62,15.63,15.63,0,0,1-4.2-1.17c-.81-.15-1.5-.22-1.6.2s1.88,3.49,2,3.47,7.59-.61,7.59-.61l2.27-1.25Z"/><path class="cls-54" d="M24,420.24c-2,21.55-.88,35.36-.88,35.36a45.49,45.49,0,0,0-5.6-.43c-.28-11.06,0-23.24.52-34.93Z"/><path class="cls-88" d="M25.55,452.37c2.86,2.59,7.71,6.75,10.61,8.06,3.12,1.41,3.52,4,2.79,6.39-3.67,2.61-11.71,4.28-17-2.23-3.75-4.64-6.76-2.48-8.8-5.69A10.84,10.84,0,0,1,14.26,452C18.21,455.57,23.44,453.67,25.55,452.37Z"/><path class="cls-88" d="M34.74,459.66a10.32,10.32,0,0,0-3.94,1.88l-.3-.14c-2.66-1.2-7-4.81-9.86-7.39a12,12,0,0,0,4.92-1.64A73.19,73.19,0,0,0,34.74,459.66Z"/><path class="cls-88" d="M15.68,460.82a4.41,4.41,0,0,1-2.49-1.91A10.87,10.87,0,0,1,14.25,452C15.64,453.39,15.84,458.12,15.68,460.82Z"/><path class="cls-56" d="M34,459.26a16.07,16.07,0,0,0,2.12,1.22c3.07,1.39,3.47,3.9,2.75,6.3a13,13,0,0,1-13,.91c0-.14,0-.28,0-.42C25.81,463.43,29.28,460.2,34,459.26Z"/><path class="cls-57" d="M21.82,462.12a12.33,12.33,0,0,0,9.72,4.54,14.62,14.62,0,0,0,7.7-2.18,6.65,6.65,0,0,1-.3,2.34,13.62,13.62,0,0,1-7.59,2.31A11.7,11.7,0,0,1,22,464.59c-3.75-4.64-6.76-2.48-8.8-5.69a8.58,8.58,0,0,1-.17-2C15.12,459.44,18.13,457.71,21.82,462.12Z"/><path class="cls-56" d="M21.57,462.33a12.66,12.66,0,0,0,10,4.66,15.21,15.21,0,0,0,7.37-1.93,6.76,6.76,0,0,1-.26,1.56,12.16,12.16,0,0,1-3.15,1.52,13.56,13.56,0,0,1-4.16.66,11.38,11.38,0,0,1-9.11-4.42,9.71,9.71,0,0,0-5.54-3.59,4.8,4.8,0,0,1-3.21-2,7.36,7.36,0,0,1-.14-1.08,7,7,0,0,0,2.8,1.26A9.45,9.45,0,0,1,21.57,462.33Z"/><path class="cls-57" d="M26.57,467.8l-.49-.24v-1.73l.49.21Z"/><path class="cls-57" d="M28.52,468.46l-.49-.13v-1.8l.49.12Z"/><path class="cls-57" d="M30.48,468.77l-.49,0V466.9l.49,0Z"/><path class="cls-57" d="M14.85,460.1a3.74,3.74,0,0,1-.49-.34v-1.42l.49.21Z"/><path class="cls-57" d="M18.76,461.53l-.49-.22v-1.62l.49.25Z"/><path class="cls-57" d="M16.81,460.82l-.11,0-.38-.11V459l.49.14Z"/><path class="cls-57" d="M20.71,462.8l-.49-.39V461l.49.45Z"/><path class="cls-57" d="M32.43,468.75l-.49,0V467l.49,0Z"/><path class="cls-57" d="M34.38,468.44l-.49.11V466.8l.49-.09Z"/><path class="cls-57" d="M24.62,466.66l-.49-.38V464.7l.49.33Z"/><path class="cls-57" d="M38.29,466.86l-.49.29v-1.51l.49-.24Z"/><path class="cls-57" d="M36.33,467.84l-.49.18v-1.66l.49-.15Z"/><path class="cls-57" d="M22.67,464.88l-.43-.5-.06-.08V463c.16.17.33.33.49.49Z"/><path class="cls-56" d="M28,454.55a15.55,15.55,0,0,0-5.58,2.85l-.37-.44a15.57,15.57,0,0,1,5.45-2.85Z"/><path class="cls-56" d="M30.15,456.33a15.42,15.42,0,0,0-5.52,2.83l-.38-.44a15.44,15.44,0,0,1,5.36-2.83Z"/><path class="cls-56" d="M32.42,458.08A15.64,15.64,0,0,0,26.77,461l-.37-.43a15.57,15.57,0,0,1,5.46-2.86Z"/><ellipse class="cls-58" cx="26.59" cy="460.82" rx="1" ry="1.08"/><ellipse class="cls-58" cx="24.45" cy="459.02" rx="1" ry="1.08"/><ellipse class="cls-58" cx="22.25" cy="457.26" rx="1" ry="1.08"/><path class="cls-87" d="M14.69,408.5h0c0-.16,0-.31,0-.47a9.08,9.08,0,0,1,18.16,0c0,.16,0,.32,0,.47v.06c-3,21.52-6.16,44.67-6.16,44.67l-12.86-1.18Z"/><path class="cls-59" d="M64.67,314.7l5.52-7.12L84.88,322a4.25,4.25,0,0,1,1.55,2.79A3.84,3.84,0,0,1,80,327.94Z"/><path class="cls-89" d="M69.38,322.86l9.34-8.78L58.25,290.84a3.15,3.15,0,0,0-2.86-1c-5.71.86-11.9,2.91-11.59,8.23C44.06,302.56,69.38,322.86,69.38,322.86Z"/><path class="cls-56" d="M61.66,316.5c1.6,1.36,3.07,2.59,4.29,3.59l9.4-9.93-2.92-3.34Z"/><path class="cls-61" d="M116.27,311.16a3.7,3.7,0,0,0,1.79,1.36,3.77,3.77,0,0,0,2.83-.21c5,1.25,6.36.19,5.33-.32a10.11,10.11,0,0,0-2.28-.71c2.12.32,5.56.68,5.79-.24.19-.73-2-1.25-4.14-1.45,6.28-.19,7.47-.55,7.7-1.29.41-1.31-2.21-1.39-8.41-1.14,5.55-.47,10.45-1.18,9.93-2.44s-10.07-.79-13.84.88c1.75-2,2.23-5.45.7-6.18s-4.95,6.32-5.25,6.94a3.63,3.63,0,0,0-1,2.92c-4.23,1.8-18,7.58-32.45,13.63l1.86,3.78C99.82,319.31,113.2,312.86,116.27,311.16Z"/><path class="cls-59" d="M79,326.7a3.85,3.85,0,0,1,2.07-5l26.92-11,2.76,5.09-26.57,13h0l-.13.06A3.85,3.85,0,0,1,79,326.7Z"/><path class="cls-90" d="M56.63,290s-13.83-2.6-18.13-2.6S20.37,290,20.37,290L8.29,367.74c6.6,3.88,26.54,5.84,29.83,5.84s23.23-2,29.83-5.84Z"/><path class="cls-59" d="M39.33,312.8a132.55,132.55,0,0,1-22-3.09l-.83,5.35a131.79,131.79,0,0,0,22.45,3.19,133.45,133.45,0,0,0,21.39-2.94l-.76-5.19A134.58,134.58,0,0,1,39.33,312.8Z"/><path class="cls-56" d="M39.13,307.95A133.76,133.76,0,0,1,18,305.08l-.72,4.63a132.55,132.55,0,0,0,22,3.09,134.58,134.58,0,0,0,20.22-2.67l-.69-4.75A134.52,134.52,0,0,1,39.13,307.95Z"/><path class="cls-61" d="M42.47,293.46a4.56,4.56,0,0,1-3.63,1.08,4.1,4.1,0,0,1-3-2.18l2.31-14.07,6.67,1.09Z"/><path class="cls-64" d="M66.67,265.27c2.61-1.24,4.7-2,5.21-.43s.77,5.34-2.65,7.09S66.67,265.27,66.67,265.27Z"/><path class="cls-65" d="M71,267.51c.07,0,.06.15,0,.15a3.38,3.38,0,0,0-2.2.9c-.54.5-.87,1.18-1.4,1.67a.28.28,0,0,1-.45-.17C66.7,268.24,69.59,267.1,71,267.51Z"/><path class="cls-91" d="M62.31,249c.56,3.3,1.11,7.24,4.28,9.11h0c.76,1,2.21,1.07,3.36,0a7.32,7.32,0,0,0,2-5.89,13.9,13.9,0,0,0,3.62,3.14c.85.5,2.83,1.36,3.6.22,1-1.42.07-3.6-.71-4.91-.25-.42-.52-.85-.82-1.27a10,10,0,0,0,4.1,1.67c1.53.13,2.1-1,1.8-2.35-.43-2-2.28-3.58-4.21-4.44-1.32-1.88-4.05-2.91-6.07-3.61-3.19-1.11-6.56-1.57-9.66.12C60.7,242.37,61.86,246.37,62.31,249Z"/><path class="cls-92" d="M62.31,249c.56,3.3,1.11,7.24,4.28,9.11h0c.76,1,2.21,1.07,3.36,0a7.32,7.32,0,0,0,2-5.89,13.9,13.9,0,0,0,3.62,3.14c.85.5,2.83,1.36,3.6.22,1-1.42.07-3.6-.71-4.91-.25-.42-.52-.85-.82-1.27a10,10,0,0,0,4.1,1.67c1.53.13,2.1-1,1.8-2.35-.43-2-2.28-3.58-4.21-4.44-1.32-1.88-4.05-2.91-6.07-3.61-3.19-1.11-6.56-1.57-9.66.12C60.7,242.37,61.86,246.37,62.31,249Z"/><path class="cls-61" d="M18.15,263.79a15.21,15.21,0,0,0,2.73,4.78.45.45,0,0,0-.07.55c3.75,7,10,13.84,17.81,16.29,7.27,2.28,16.16,2.43,22.66-2A16.17,16.17,0,0,0,67.89,275c1.36-4.61-.8-9-.07-13.64a37.82,37.82,0,0,1,2.24-7.21,14,14,0,0,0,1.14-5.87,14.48,14.48,0,0,0-2.87-7.11,14,14,0,0,0-5.26-6.28,25.65,25.65,0,0,0-10.45-3c-8.06-.85-16.6-.43-23.68,3.92-6.09,3.74-9.82,10.51-11,17.43C17.35,256.61,17,260.52,18.15,263.79Z"/><path class="cls-93" d="M43.56,283.81c2.22,1.14,5.3.25,7.5-.53,2.77-1,4.39-3.29,5.94-5.62a36.48,36.48,0,0,1-6.35-2.38,61.72,61.72,0,0,1-8.33-4.51C39.78,274.63,38.52,281.22,43.56,283.81Z"/><path class="cls-68" d="M46.33,284.34a5.62,5.62,0,0,1-2.77-.54,6.44,6.44,0,0,1-3.45-6.39A8.79,8.79,0,0,1,46.33,284.34Z"/><path class="cls-56" d="M51.54,278.58a13.26,13.26,0,0,1-3.2-.88,45.8,45.8,0,0,1-5.67-2.38c-.68-.38-1.32-.8-1.94-1.23a14.13,14.13,0,0,1,1.6-3.33,61.72,61.72,0,0,0,8.33,4.51c1.17.54,2.38,1.06,3.61,1.51C53.42,277.69,52.45,278.7,51.54,278.58Z"/><path class="cls-94" d="M10.69,252.46a25.21,25.21,0,0,0,1.42,7.87,27,27,0,0,0,4.47,7.92,17.7,17.7,0,0,0,6.17,4.58c.08.08.16.16.25.23s.25-.07.17-.18a8.89,8.89,0,0,1-1.44-2.61c-.22-.63-.27-1.49-.55-2.12A2.92,2.92,0,0,0,25,266.94a.08.08,0,0,0-.13-.09,2.77,2.77,0,0,1-4.82-.56,7.84,7.84,0,0,1-.42-3.75c.29-2.52,2-7.27,5.19-6a13.29,13.29,0,0,1,1.27,2.82,13.45,13.45,0,0,0,1,4.26.52.52,0,0,0,.43.3c1.11,0,1.55-2.37,1.72-3.14.47-2.05.89-4.11,1.28-6.18.83-4.39,3-8.19,4.46-12.33a38.76,38.76,0,0,0,10.19-.12c1.69-.24,6-.49,7.4-2.26a8.4,8.4,0,0,0,1.07,2.22c.62,1,1.54,2.59,2.82,2.85,1.85.38,2-1.08,1.65-2.54a29.11,29.11,0,0,0,3.5,3.14c.72.55,2.53,2,3.51,1.14a1.93,1.93,0,0,0,.26-2.27,38,38,0,0,0,4.24,3.51c1.36,1,3.81,2.85,5.6,2,1.63-.76-.33-3.81-.83-4.64-.16-.27-.33-.54-.51-.81a13.47,13.47,0,0,0,3.34,1.9c1.07.4,4.29,1,4.2-1.05A3.54,3.54,0,0,0,79.75,243c2.08.48,4.17.48,6-1.06a.52.52,0,0,0,0-.81c-2.19-2-5.06-2.27-7.89-2.16A12.89,12.89,0,0,0,80,236.72c.75-.94,1.74-2.28,1.18-3.54s-2.84-1.1-3.92-.64A11.32,11.32,0,0,0,73.63,235a23.62,23.62,0,0,0-7.34-5.56,51.62,51.62,0,0,0-11.54-4.53c-6.73-1.59-15.54-1.73-21.64,2.27a10.15,10.15,0,0,0-.27-2.76c-.21-.85-1-2.77-2.28-2.07s-1.4,2.73-1.53,4c-.08.84-.25,1.87-.26,2.84a9.67,9.67,0,0,0-4.41-1.74c-1.16-.11-2.47.31-1.64,1.69a10.06,10.06,0,0,0,3,2.82,12.72,12.72,0,0,0-11,4.76,19.09,19.09,0,0,0-4,12.39C10.63,250.25,10.66,251.39,10.69,252.46Z"/><path class="cls-92" d="M10.69,249.12A19.82,19.82,0,0,1,11,245c.09,3.25,1.06,6.25,3.08,7.51,4.79,3,8.13-1.1,10.08-5.46,0,3.67.13,8.24,2.37,9.29a.74.74,0,0,0,.75,0c1.53-1.11,1.45-4.09,1.92-5.73.87-3.05,2.45-6.21,2.3-9.43-.21-4.32-4.17-7.81-8.15-9.21a11.64,11.64,0,0,1,2.3,0,10.06,10.06,0,0,1-3-2.82c-.38-.62-.31-1,0-1.31,1,1.83,3.68,3.08,5.38,3.72a.75.75,0,0,0,.92-.92,4.83,4.83,0,0,0-1.58-2.26,6.17,6.17,0,0,1,1.36.83c0-1,.18-2,.26-2.84.11-1.1.23-2.76,1.07-3.64,0,.41,0,.82,0,1.23,0,1.74-.29,3.95.23,5.62a1.39,1.39,0,0,0,2,1,3.72,3.72,0,0,0,.24,4c1.91,2.63,5.47,3.55,8.59,3.74,4.38.28,9.59-.91,12-4.34-.07,3.1.32,6.28,2.71,7.59a.75.75,0,0,0,1.12-.65c-.14-1.43-.3-2.85-.47-4.27.64,1.13,1.34,2.22,2.09,3.28s2.38,4.18,4,4c2-.18,1.73-2.26.91-4.42a47.7,47.7,0,0,0,3.86,3.95c1.62,1.51,3.8,4.22,6.31,3.5a.76.76,0,0,0,.52-.92,8.84,8.84,0,0,0-1.76-3.74c2.06,1.2,4.41,2.67,6.62,2.52a.76.76,0,0,0,.72-.95A5.28,5.28,0,0,0,78,241.48a13.75,13.75,0,0,0,7.85,0,.47.47,0,0,1-.17.44c-1.8,1.54-3.89,1.53-6,1.06a3.54,3.54,0,0,1,1.71,2.37c.09,2-3.12,1.45-4.2,1.05a13.47,13.47,0,0,1-3.34-1.9c.18.27.34.54.51.81.5.83,2.46,3.88.83,4.64-1.79.84-4.24-1-5.6-2a38,38,0,0,1-4.24-3.51,1.93,1.93,0,0,1-.26,2.27c-1,.91-2.79-.58-3.51-1.14a29.11,29.11,0,0,1-3.5-3.14c.4,1.45.21,2.91-1.65,2.54-1.28-.26-2.2-1.85-2.82-2.85a8.4,8.4,0,0,1-1.07-2.22c-1.41,1.77-5.7,2-7.4,2.26a38.76,38.76,0,0,1-10.19.12c-1.46,4.14-3.63,7.94-4.46,12.33-.39,2.07-.81,4.12-1.28,6.18-.18.76-.62,3.17-1.72,3.14a.52.52,0,0,1-.43-.3,13.45,13.45,0,0,1-1-4.26,13.29,13.29,0,0,0-1.27-2.82c-3.16-1.25-4.9,3.5-5.19,6a7.84,7.84,0,0,0,.42,3.75,2.77,2.77,0,0,0,4.82.56.08.08,0,0,1,.13.09,2.92,2.92,0,0,1-3.84,1.22c.29.63.33,1.5.55,2.12a8.89,8.89,0,0,0,1.44,2.61c.08.11-.05.27-.17.18s-.17-.15-.25-.23a17.7,17.7,0,0,1-6.17-4.58,27,27,0,0,1-4.47-7.92,25.21,25.21,0,0,1-1.42-7.87C10.66,251.39,10.63,250.25,10.69,249.12Z"/><path class="cls-65" d="M53.33,270.94c.55-.07,4-1.16,3.14-2.08s-1.6-1.26-1.71-2.41a.13.13,0,0,1,.22-.1c.6.62,1.14,1.28,1.79,1.85.43.38.77.8.56,1.38s-.94.8-1.39,1a5.62,5.62,0,0,1-2.61.47A.06.06,0,0,1,53.33,270.94Z"/><path class="cls-94" d="M46.36,252.26c1.38-2.48,4.87-5.07,7.68-3.35,2,1.2,1.06,4.63.42,6.3a.1.1,0,0,1-.2,0c.07-1.64.43-3.6-.52-5.06s-3.1-.29-4.06.47A31.7,31.7,0,0,1,47,253C46.5,253.25,46.16,252.62,46.36,252.26Z"/><path class="cls-94" d="M64.4,255.45a2.54,2.54,0,0,1,2.25-1.6c2.32.23,1.26,4.2.47,5.28a.39.39,0,0,1-.7-.15c-.06-.53.91-4,0-3.91-.63,0-1.24,1.07-1.64,1.5A11.76,11.76,0,0,0,63.22,259a.12.12,0,0,1-.22-.08A11.34,11.34,0,0,1,64.4,255.45Z"/><path class="cls-65" d="M24,259.93c.65.47.64,1.56.63,2.27a5.53,5.53,0,0,1-.66,2.75c-.06.11-.21,0-.18-.09a7.4,7.4,0,0,0,.29-1.91c-.19.09-.42.16-.59.25a7.6,7.6,0,0,0-1.27.85.06.06,0,0,1-.09-.09,4.16,4.16,0,0,1,1-1.09,2.74,2.74,0,0,1,.94-.6,5.45,5.45,0,0,0-.28-1.37c-.49-1.39-2,1.31-2.29,1.65a.1.1,0,0,1-.18-.07C21.35,261.47,22.56,258.91,24,259.93Z"/><path class="cls-95" d="M61.64,264.36c-.37,1.58-.19,3,.41,3.15s1.39-1,1.76-2.56.19-3-.41-3.16S62,262.78,61.64,264.36Z"/><ellipse class="cls-56" cx="63.49" cy="263.56" rx="0.89" ry="0.34" transform="translate(-206.97 282.09) rotate(-80.38)"/><path class="cls-95" d="M47.8,258.3c-.86,1.67-1,3.3-.41,3.65s1.85-.72,2.71-2.39,1-3.3.41-3.65S48.66,256.63,47.8,258.3Z"/><ellipse class="cls-56" cx="50.14" cy="257.91" rx="1.03" ry="0.4" transform="translate(-206.65 202.3) rotate(-66.78)"/><path class="cls-68" d="M37.51,260.33c-.5,1.1,1.36,3,4.15,4.2s5.46,1.32,6,.22-1.36-3-4.15-4.2S38,259.24,37.51,260.33Z"/><path class="cls-68" d="M61.17,269.62c0,.76,1.4,1.38,3.17,1.39s3.21-.59,3.23-1.35-1.4-1.38-3.17-1.39S61.19,268.86,61.17,269.62Z"/><path class="cls-59" d="M23.53,319.35,32,316.23l4.84,20a4.25,4.25,0,0,1-.16,3.18,3.84,3.84,0,0,1-7.1-.73Z"/><path class="cls-96" d="M23.22,328.76l12.57-2.51L30.7,295.7a3.15,3.15,0,0,0-1.91-2.35c-5.3-2.29-11.64-3.82-14.19.85C12.46,298.14,23.22,328.76,23.22,328.76Z"/><path class="cls-56" d="M20,319.28c.64,2,1.24,3.82,1.74,5.31L35,321.14l-.71-4.38Z"/><path class="cls-61" d="M61.59,314.73a3.7,3.7,0,0,0,2.1.8,3.77,3.77,0,0,0,2.66-1c5.11-.21,6.16-1.63,5-1.82a10.11,10.11,0,0,0-2.39,0c2.12-.3,5.52-.93,5.49-1.87,0-.75-2.28-.63-4.39-.22,6-2,7-2.65,7-3.42,0-1.37-2.52-.71-8.39,1.3,5.19-2,9.68-4.09,8.83-5.16s-9.88,2.1-13,4.78c1.12-2.37.59-5.86-1.08-6.13s-2.95,7.47-3.06,8.14a3.63,3.63,0,0,0-.09,3.08c-3.55,2.93-15.11,12.38-27.24,22.28l2.85,3.1C48.13,327.21,59.13,317.23,61.59,314.73Z"/><path class="cls-59" d="M30.3,340.2a3.85,3.85,0,0,1,.56-5.42l22.68-18.22,4.09,4.1-21.79,20h0l-.1.09A3.85,3.85,0,0,1,30.3,340.2Z"/><path class="cls-71" d="M349.84,240.44a3.44,3.44,0,0,1,0,1.43,3.39,3.39,0,0,1-.62,1.27c3.22,4.54,13,18.53,21,30.14l0,0v0h0a2.79,2.79,0,1,1-4.62,3.1h0c-7.84-14.32-15.74-28.34-17.92-32.22a3.34,3.34,0,0,1-2,.19,3.41,3.41,0,0,1-2.08-1.5c-4.4-1.39-5-2.87-4-2.76a9.18,9.18,0,0,1,2.09.53c-1.78-.76-4.59-2.11-4.34-2.93.2-.65,2.13,0,3.87.84-4.74-3.12-5.48-4-5.31-4.63.3-1.2,2.36,0,7,3.1-4-3-7.47-5.85-6.48-6.57s8.12,4.16,10.22,7.23c-.42-2.33.87-5.24,2.38-5.09S349.89,239.82,349.84,240.44Z"/><path class="cls-71" d="M370.49,273.69l0,0c3.55,5.59,7.1,11.09,10.27,15.93-4.43,3.77-6.56,4.09-6.56,4.09l-8.57-17.29v0a2.78,2.78,0,0,1,4.84-2.74Z"/><path class="cls-86" d="M393.41,305.21c3.67,7.55-7.83,13.51-12.63,7.59s-17.21-22.56-17.21-22.56l15.38-9Z"/><path class="cls-81" d="M391.32,409.14h0s0,0,0-.07a3.87,3.87,0,0,0-7.73.06s0,.62,0,.76c1.82,25.93,1.12,46.4,1.12,46.4a5.56,5.56,0,0,1,2.8-.21c2-13.65,3.11-31.38,3.75-46.39a3.89,3.89,0,0,0,0-.5Z"/><path class="cls-97" d="M383.64,421.14c1.32,20.26.84,34.93.84,34.93a7.93,7.93,0,0,1,3.37-.19c1.69-10.14,2.79-22.55,3.5-34.42Z"/><path class="cls-98" d="M381.38,455.15h0c0-5.05,0-12.87.74-24,1.56.54,8.17.9,9.89.7,0,1-2.34,20.78-2,23.64l.06.47h0a1,1,0,0,1,0,.56c-1.09,2.15-1.93,2.34-4.34,2.34s-4.29,0-4.32-2.37C381.36,456.05,381.38,455.63,381.38,455.15Z"/><path class="cls-77" d="M389.82,432.69h.92a.25.25,0,0,1,0,.49h-.93a.25.25,0,0,1,0-.49Z"/><path class="cls-77" d="M388,432.64l.92,0a.25.25,0,1,1,0,.49l-.92,0h0a.25.25,0,0,1,0-.49Z"/><path class="cls-77" d="M382.54,432.11l.9.15a.25.25,0,0,1,0,.49h0l-.92-.15a.24.24,0,0,1,.09-.48Z"/><path class="cls-77" d="M386.15,432.53h0l.77,0h.14a.25.25,0,1,1,0,.49h-.14l-.78-.05a.25.25,0,0,1,0-.49Z"/><path class="cls-77" d="M384.34,432.37l.91.09a.25.25,0,0,1,0,.49h0l-.92-.09a.25.25,0,1,1,.06-.49Z"/><path class="cls-77" d="M384.95,439.62a.65.65,0,1,1,0,.49,9.58,9.58,0,0,1-1.39,0,10.44,10.44,0,0,1-1.93-.29l0-.5A9.75,9.75,0,0,0,384.95,439.62Z"/><path class="cls-77" d="M384.77,442.82a.65.65,0,1,1,0,.49,9.55,9.55,0,0,1-1.39,0,10.48,10.48,0,0,1-1.86-.28v-.5A9.73,9.73,0,0,0,384.77,442.82Z"/><path class="cls-77" d="M385.13,436.42a.65.65,0,1,1,0,.49,9.55,9.55,0,0,1-1.39,0,10.44,10.44,0,0,1-2-.3l0-.5A9.74,9.74,0,0,0,385.13,436.42Z"/><path class="cls-77" d="M384.21,452.41a.65.65,0,1,1,0,.49,9.58,9.58,0,0,1-1.39,0,10.61,10.61,0,0,1-1.45-.19q0-.25,0-.5A9.72,9.72,0,0,0,384.21,452.41Z"/><path class="cls-77" d="M384.4,449.21a.65.65,0,1,1,0,.49,9.57,9.57,0,0,1-1.39,0,10.58,10.58,0,0,1-1.62-.22c0-.16,0-.33,0-.5A9.74,9.74,0,0,0,384.4,449.21Z"/><path class="cls-77" d="M384.58,446a.65.65,0,1,1,0,.49,9.58,9.58,0,0,1-1.39,0,10.53,10.53,0,0,1-1.76-.25q0-.25,0-.5A9.74,9.74,0,0,0,384.58,446Z"/><path class="cls-98" d="M371.54,462a14.51,14.51,0,0,1,2.64-1c2.37-1,6.1-3.23,7.14-5.05,0-.11,0-.22.06-.32s0-.29,0-.44v-.08c.15-1.39,2.35-1.69,4.13-1.68,2,0,4.24.39,4.51,2.54V456c.31,2.53.54,3.74.15,5.2-1.71,2.37-3.93.58-7,4-4.06,4.48-9.68,3.32-12.61,1.37q-.29-.19-.54-.4C369.72,464.88,369.26,463.32,371.54,462Z"/><path class="cls-77" d="M371.54,462a14.51,14.51,0,0,1,2.64-1l.86-.38c3,.6,5.27,3.06,7,5.68-3.92,3.17-8.8,2-11.45.27q-.29-.19-.54-.4C369.72,464.88,369.26,463.32,371.54,462Z"/><path class="cls-77" d="M390.13,456.76a11.06,11.06,0,0,1,.06,4.43c-1,1.38-2.17,1.35-3.58,1.76a12.47,12.47,0,0,1,.8-3.52A5.15,5.15,0,0,1,390.13,456.76Z"/><path class="cls-58" d="M383.24,464.89c3-3.3,5.26-1.71,7-3.78l0,.09-.14.18a1.63,1.63,0,0,1-.3,1.55c-.64,1-4,1.2-5.48,1.22a9.05,9.05,0,0,0-1.11,1c-4.06,4.48-9.68,3.32-12.6,1.37q-.29-.19-.54-.4l-.05-.23.46.32C373.4,468.2,379.11,469.36,383.24,464.89Z"/><path class="cls-98" d="M378.13,462.65c.25.19.49.4.72.61a.25.25,0,0,1-.33.36c-.22-.2-.45-.4-.69-.58a.25.25,0,1,1,.3-.39Z"/><path class="cls-98" d="M380.66,465.42a7.15,7.15,0,0,1,.4.77.25.25,0,0,1-.12.32l-.11,0a.25.25,0,0,1-.21-.15,6.65,6.65,0,0,0-.37-.71.24.24,0,1,1,.42-.25Z"/><path class="cls-98" d="M379.52,463.92c.22.23.42.48.61.72a.25.25,0,1,1-.39.3c-.18-.23-.37-.46-.58-.69a.24.24,0,1,1,.36-.33Z"/><path class="cls-98" d="M376.57,461.62c.27.15.54.31.8.49a.25.25,0,0,1-.15.45.24.24,0,0,1-.12,0c-.25-.17-.51-.32-.77-.46a.25.25,0,0,1,.24-.43Z"/><path class="cls-98" d="M374.84,460.87a9.17,9.17,0,0,1,.88.33.25.25,0,0,1-.11.47l-.08,0a8.79,8.79,0,0,0-.84-.32.24.24,0,1,1,.15-.47Z"/><path class="cls-98" d="M387.78,459.5a5.51,5.51,0,0,1,.48-.83.25.25,0,1,1,.4.28,5,5,0,0,0-.44.76.25.25,0,0,1-.24.14l-.09,0A.24.24,0,0,1,387.78,459.5Z"/><path class="cls-98" d="M389.67,457.35a.25.25,0,0,1,.26.42,4.27,4.27,0,0,0-.69.53.25.25,0,1,1-.34-.36A4.8,4.8,0,0,1,389.67,457.35Z"/><path class="cls-98" d="M387.75,460.23a.25.25,0,0,1,.16.31,7.19,7.19,0,0,0-.2.86.25.25,0,0,1-.26.2h0a.25.25,0,0,1-.2-.28,7.69,7.69,0,0,1,.22-.92A.24.24,0,0,1,387.75,460.23Z"/><path class="cls-77" d="M381.37,455.47a9.68,9.68,0,0,0,2.66.14.65.65,0,1,1,0,.49,9.57,9.57,0,0,1-1.39,0,10.53,10.53,0,0,1-1.34-.16l.07-.13C381.37,455.71,381.37,455.59,381.37,455.47Z"/><path class="cls-81" d="M406.65,409.63h0s0,0,0-.07a3.87,3.87,0,0,1,7.72-.35s0,.63,0,.76c-.45,26,1.32,46.39,1.32,46.39a5.56,5.56,0,0,0-2.81-.06c-2.7-13.52-4.76-31.17-6.18-46.13a3.88,3.88,0,0,1,0-.5Z"/><path class="cls-97" d="M414.94,421.21c-.25,20.3,1,34.93,1,34.93a7.93,7.93,0,0,0-3.37,0c-2.23-10-4-22.37-5.31-34.19Z"/><path class="cls-98" d="M409.43,455.32h0c-.69-5-1.84-12.74-2.63-23.83,1.62.31,8.22-.25,9.89-.7.11,1,.59,20.9,1.32,23.69l.12.46h0a1,1,0,0,1,.06.56c-.78,2.28-1.58,2.59-4,2.93s-4.25.6-4.61-1.74C409.54,456.22,409.5,455.8,409.43,455.32Z"/><path class="cls-77" d="M414.65,431.9l.91-.12a.25.25,0,0,1,.07.49l-.91.12h0a.25.25,0,0,1-.05-.49Z"/><path class="cls-77" d="M412.82,432.1l.91-.1a.25.25,0,1,1,.06.49l-.92.1h0a.25.25,0,0,1,0-.49Z"/><path class="cls-77" d="M407.35,432.34l.91,0a.25.25,0,0,1,0,.49h0l-.93,0a.24.24,0,0,1,0-.49Z"/><path class="cls-77" d="M411,432.26h0l.77-.06h.14a.25.25,0,1,1,0,.49h-.14l-.78.06a.25.25,0,0,1,0-.49Z"/><path class="cls-77" d="M409.17,432.35l.91,0a.25.25,0,0,1,0,.49h0l-.92,0a.25.25,0,1,1,0-.49Z"/><path class="cls-77" d="M410.79,439.44a.65.65,0,1,1,.07.49,9.57,9.57,0,0,1-1.37.21,10.44,10.44,0,0,1-2,0l0-.5A9.75,9.75,0,0,0,410.79,439.44Z"/><path class="cls-77" d="M411.06,442.63a.65.65,0,1,1,.07.49,9.56,9.56,0,0,1-1.37.21,10.47,10.47,0,0,1-1.88,0l-.06-.5A9.73,9.73,0,0,0,411.06,442.63Z"/><path class="cls-77" d="M410.53,436.25a.65.65,0,1,1,.07.49,9.55,9.55,0,0,1-1.37.21,10.45,10.45,0,0,1-2,0l0-.5A9.74,9.74,0,0,0,410.53,436.25Z"/><path class="cls-77" d="M411.86,452.21a.65.65,0,1,1,.07.49,9.57,9.57,0,0,1-1.37.21,10.61,10.61,0,0,1-1.46,0l-.07-.49A9.72,9.72,0,0,0,411.86,452.21Z"/><path class="cls-77" d="M411.59,449a.65.65,0,1,1,.07.49,9.57,9.57,0,0,1-1.37.21,10.58,10.58,0,0,1-1.63,0l-.06-.49A9.74,9.74,0,0,0,411.59,449Z"/><path class="cls-77" d="M411.33,445.82a.65.65,0,1,1,.07.49,9.56,9.56,0,0,1-1.37.21,10.54,10.54,0,0,1-1.77,0l-.06-.5A9.74,9.74,0,0,0,411.33,445.82Z"/><path class="cls-98" d="M400.65,463.46a14.5,14.5,0,0,1,2.47-1.37c2.21-1.28,5.59-4.05,6.36-6,0-.11,0-.22,0-.33s0-.29,0-.44v-.08c0-1.4,2.09-2,3.85-2.24,2-.26,4.25-.2,4.83,1.88l0,.07c.66,2.47,1.06,3.63.88,5.13-1.36,2.59-3.81,1.12-6.4,4.93-3.39,5-9.12,4.64-12.29,3.12q-.32-.15-.59-.32C399.25,466.59,398.58,465.11,400.65,463.46Z"/><path class="cls-77" d="M400.65,463.46a14.51,14.51,0,0,1,2.47-1.37c.25-.15.52-.31.8-.49,3,.17,5.65,2.3,7.7,4.65-3.43,3.68-8.43,3.26-11.3,1.87q-.32-.15-.59-.32C399.25,466.59,398.58,465.11,400.65,463.46Z"/><path class="cls-77" d="M418.33,455.69a11.06,11.06,0,0,1,.68,4.38c-.79,1.51-2,1.64-3.3,2.24a12.47,12.47,0,0,1,.3-3.6A5.15,5.15,0,0,1,418.33,455.69Z"/><path class="cls-58" d="M412.64,464.7c2.55-3.7,5-2.43,6.38-4.72v.09l-.11.19a1.63,1.63,0,0,1-.08,1.57c-.5,1.06-3.84,1.75-5.26,2a9.06,9.06,0,0,0-1,1.19c-3.39,5-9.12,4.64-12.29,3.12q-.32-.15-.59-.32l-.08-.22.5.26C403.36,469.36,409.18,469.71,412.64,464.7Z"/><path class="cls-98" d="M407.27,463.2c.27.16.54.32.8.5a.25.25,0,0,1-.28.4c-.25-.17-.5-.33-.76-.48a.25.25,0,1,1,.24-.43Z"/><path class="cls-98" d="M410.16,465.59a7.13,7.13,0,0,1,.51.7.25.25,0,1,1-.42.26,6.65,6.65,0,0,0-.47-.65.24.24,0,1,1,.38-.31Z"/><path class="cls-98" d="M408.82,464.26c.25.2.48.41.7.63a.25.25,0,1,1-.34.35c-.21-.2-.43-.41-.67-.6a.24.24,0,1,1,.31-.38Z"/><path class="cls-98" d="M405.58,462.4c.29.11.58.23.86.37a.25.25,0,0,1-.08.47.24.24,0,0,1-.13,0c-.27-.13-.55-.25-.83-.35a.25.25,0,0,1,.17-.46Z"/><path class="cls-98" d="M403.76,461.9a9.17,9.17,0,0,1,.92.21.25.25,0,0,1,0,.48h-.09a8.78,8.78,0,0,0-.87-.2.24.24,0,1,1,.08-.48Z"/><path class="cls-98" d="M416.38,458.73a5.51,5.51,0,0,1,.36-.89.25.25,0,1,1,.44.22,5,5,0,0,0-.33.81.25.25,0,0,1-.21.17h-.09A.25.25,0,0,1,416.38,458.73Z"/><path class="cls-98" d="M418,456.34a.25.25,0,0,1,.31.38,4.27,4.27,0,0,0-.61.62.25.25,0,0,1-.38-.31A4.8,4.8,0,0,1,418,456.34Z"/><path class="cls-98" d="M416.45,459.45a.25.25,0,0,1,.2.28,7.19,7.19,0,0,0-.08.88.25.25,0,0,1-.22.24h0a.25.25,0,0,1-.24-.25,7.69,7.69,0,0,1,.09-.95A.24.24,0,0,1,416.45,459.45Z"/><path class="cls-77" d="M409.47,455.64a9.68,9.68,0,0,0,2.65-.24.65.65,0,1,1,.07.49,9.57,9.57,0,0,1-1.37.21,10.54,10.54,0,0,1-1.35,0l.05-.14Z"/><path class="cls-81" d="M404.28,379.78s6.47-2.92,12-3.45c-1.17,11.22-1.73,22.52-1.93,32.94h0c0,.06,0,.11,0,.17a3.87,3.87,0,0,1-7.73.25h0C405.06,393,404.28,379.78,404.28,379.78Z"/><path class="cls-99" d="M416.3,376.33c-.23,2.21-.43,4.42-.62,6.62a92.14,92.14,0,0,1-11,2.27c-.24-3.42-.36-5.44-.36-5.44S410.75,376.86,416.3,376.33Z"/><path class="cls-81" d="M392.11,379.21s-6.62-2.57-12.19-2.81c1.76,11.14,2.91,22.39,3.66,32.79h0c0,.06,0,.11,0,.17a3.87,3.87,0,0,0,7.73-.15h0C392,392.43,392.11,379.21,392.11,379.21Z"/><path class="cls-99" d="M379.92,376.4c.35,2.19.67,4.39,1,6.58A92.14,92.14,0,0,0,392,384.66c.06-3.43.07-5.46.07-5.46S385.49,376.63,379.92,376.4Z"/><path class="cls-100" d="M425.58,389.74s-3.64-95.55-25.34-98.15c-22-2.64-29.62,96-29.62,98.87C388.21,396.74,407.22,398.36,425.58,389.74Z"/><path class="cls-101" d="M415.51,314.82a200.87,200.87,0,0,1,4.8,22.19c-14.34,5.11-28.94,4.42-42.83.48a217.75,217.75,0,0,1,5.31-22A68.1,68.1,0,0,0,415.51,314.82Z"/><path class="cls-101" d="M423,356.6c.8,7.2,1.38,13.89,1.78,19.35-17.7,7.87-35.94,6.38-52.91.47.57-5.46,1.36-12.14,2.38-19.31C389.94,362.16,406.66,363.27,423,356.6Z"/><path class="cls-101" d="M389.74,298.84c3.06-4.93,6.55-7.72,10.51-7.25,3.13.38,5.89,2.69,8.31,6.37a30.35,30.35,0,0,1-10.79,1.84A32.67,32.67,0,0,1,389.74,298.84Z"/><path class="cls-86" d="M400,230.35a36.49,36.49,0,0,0-14.12,1.86c3.46-4,9.57-6.39,16.32-5.78,7.28.66,13.22,4.61,15.61,9.72C414,233,407.5,230.74,400,230.35Z"/><path class="cls-71" d="M395.69,294.72a4.29,4.29,0,0,0,3.11,1.73,3.85,3.85,0,0,0,3.23-1.38l.73-13.39-6.35-.34Z"/><path class="cls-102" d="M397.08,226.12c18.88-.89,35.09,17.5,36.19,41.06a51.84,51.84,0,0,1-1.89,16.66,117.06,117.06,0,0,1-22.59,3.25c-15.67.73-30.3-1.58-42.34-6.1a52.87,52.87,0,0,1-1.57-10.6C363.79,246.83,378.2,227,397.08,226.12Z"/><rect class="cls-71" x="368.26" y="226.39" width="66.1" height="62.31" rx="29.32" ry="29.32" transform="translate(802.63 515.1) rotate(-180)"/><path class="cls-103" d="M391,271.7c.89-1.64,2.88-.63,3.79.27.07.07,0,.16-.11.12-.77-.45-2.32-1-3,0-.51.78.4,1.72.87,2.11.11.09.09.34-.08.35C391.27,274.62,390.41,272.86,391,271.7Z"/><path class="cls-83" d="M401.58,279.67a6.53,6.53,0,0,1-12.95-1.61Z"/><path class="cls-84" d="M404,219.85c14.56.83,28.27,7.06,35,22.22,4.18,9.41,5.18,22.68,3.33,33-.31,1.74-.32,3.83-.64,5.44-.54,2.69-2.55,4.74-4.13,6.87,0-2.17.46-4.74-.11-6.79a79.33,79.33,0,0,1-2,9c-.08-.5-.32-1-.39-1.55.44,3.33-4,6.23-5.78,8.13,0,0,8.17-36.64-.89-49.47-5.26-7.46-14.62-10.19-25.32-10.91s-20.33,1-26.45,7.78c-10.54,11.65-6.84,49-6.84,49l-10-14S351.52,217,404,219.85Z"/><path class="cls-84" d="M398,229.19c-11-.16-18.93,3.61-23.7,17.92-.07.22,9.91,2.15,10.93,2.29-.66-2.72,2.43-8.12,4.21-10.23-1.33,1.84-3.4,6.82-2.62,9.23.86,2.64,5.23,2.58,7.66,2.88.52-2,1.24-4.08.65-6.18.89,2.14.87,4.5,1.43,6.6a67.53,67.53,0,0,1,8,0,19.71,19.71,0,0,0-.67-4.37,9.61,9.61,0,0,1,2.87,3.88,6.17,6.17,0,0,0,.62-2.6c1.72,1.3,1.43,2.37,3.48,2.73,1.31.23,14.66-3.23,14.65-3.27C424,243.39,420.82,229.52,398,229.19Z"/><path class="cls-104" d="M421.85,240.31c-3.44-4.93-10-9.85-23.45-10-9.86-.15-17.19,2.9-22,13.86,0,0,0,.06,0,.09.17,2.64,2.38,2.72,4.33,3.92.31-2.34,3.36-5.8,4.78-7.64,2-2.62,5.16-4.42,8-5.84-1.65,4.15-3.41,8.33-2.54,13.12a20.86,20.86,0,0,1,2.57-4.46,26,26,0,0,1,2,2.59c1.8-2.16,5.86-.78,8.29-.86s5.79-1.27,8,.24A34.78,34.78,0,0,0,407.4,239c3.49,1.32,6.35,2,9.39,4.52A30.68,30.68,0,0,0,421.85,240.31Z"/><path class="cls-81" d="M429.26,263.9a57.19,57.19,0,0,1,.14,7.34c0,2.13,5.71,2.12,6.58-2.65S432.15,261.49,429.26,263.9Z"/><path class="cls-103" d="M430.32,270a1.5,1.5,0,0,1,0-.7,1.23,1.23,0,0,1,.11-.32,1.48,1.48,0,0,1,.17-.34,2.52,2.52,0,0,1,.55-.62l.34-.25a2.68,2.68,0,0,1,.38-.16,3.59,3.59,0,0,1,.36-.12,1.19,1.19,0,0,1,.34,0,2.71,2.71,0,0,1,.69,0,3.81,3.81,0,0,1-.55.4c-.08.06-.17.09-.25.16l-.26.2-.28.19-.26.22a6,6,0,0,0-.51.44c-.09.07-.15.16-.23.23s-.15.14-.21.21Z"/><path class="cls-84" d="M414.26,229.2s8.36,1.92,13.42,8.36,7,20.27,6.85,24.11c-.22,6.16-3.52,25.18-3.52,25.18l-8,6.84s3-26.25,2.87-35.45C425.77,249.29,421.13,236.11,414.26,229.2Z"/><path class="cls-80" d="M402.52,264.23c0,2.07,1,3.75,2.18,3.75s2.21-1.68,2.21-3.75-1-3.75-2.18-3.75S402.53,262.17,402.52,264.23Z"/><path class="cls-56" d="M403.18,262.79c0,.63.3,1.15.67,1.16s.66-.49.66-1.11-.3-1.15-.67-1.16S403.17,262.17,403.18,262.79Z"/><path class="cls-80" d="M382,261.7c0,2.07,1,3.75,2.18,3.75s2.21-1.68,2.21-3.75-1-3.75-2.18-3.75S382,259.63,382,261.7Z"/><path class="cls-56" d="M382.66,260.26c0,.63.3,1.15.67,1.16s.66-.49.66-1.11-.3-1.15-.67-1.16S382.66,259.63,382.66,260.26Z"/><path class="cls-80" d="M407.9,256.69a7.53,7.53,0,0,0-4.83-.06,4.86,4.86,0,0,1,8.63,3A7.53,7.53,0,0,0,407.9,256.69Z"/><path class="cls-80" d="M385.33,254.51a7.53,7.53,0,0,0-4.77.74,4.86,4.86,0,0,1,9,1.56A7.53,7.53,0,0,0,385.33,254.51Z"/><path class="cls-86" d="M400.85,230.35a36.49,36.49,0,0,0-14.12,1.86c3.46-4,9.57-6.39,16.32-5.78,7.28.66,13.22,4.61,15.61,9.72C414.85,233,408.34,230.74,400.85,230.35Z"/><path class="cls-71" d="M427.79,244a3.44,3.44,0,0,0,.85,1.15,3.39,3.39,0,0,0,1.24.68c0,5.56.16,22.62.31,36.75,0,0,0,0,0,0v0h0a2.79,2.79,0,1,0,5.56-.15h0c-1.9-16.22-3.58-32.22-4-36.64a3.34,3.34,0,0,0,1.76-1,3.41,3.41,0,0,0,.83-2.42c2.78-3.68,2.4-5.22,1.62-4.54a9.18,9.18,0,0,0-1.4,1.64c1-1.65,2.52-4.38,1.84-4.9s-1.75,1.22-2.67,2.93c2.06-5.28,2.17-6.4,1.65-6.85-.94-.8-1.94,1.35-3.91,6.58,1.57-4.77,2.71-9.09,1.48-9.11s-4.21,8.09-4.15,11.81c-1-2.14-3.75-3.77-4.89-2.77S427.38,243.55,427.79,244Z"/><path class="cls-71" d="M435,284.6l0,0c-4.33,5-8.58,10-12.3,14.41-4.89-3.16-5.81-5.11-5.81-5.11L431,280.77l0,0a2.78,2.78,0,0,1,4,3.85Z"/><path class="cls-86" d="M416.22,314c-6.08,5.4-14.64-3.77-10.37-9.79s16.53-21.94,16.53-21.94l12.4,12Z"/><path class="cls-105" d="M254.26,52l2.59,0h.7a.61.61,0,0,0,.68-.66.92.92,0,0,0-.34-.73c-.39-.37-3.06-3.13-3.06-3.13a.71.71,0,0,0-.56-.27l-.19,0a.71.71,0,0,0-.56.27s-2.67,2.76-3.06,3.13a.92.92,0,0,0-.34.73.61.61,0,0,0,.68.66h.7l2.59,0"/><polygon class="cls-106" points="313.42 57.19 284.84 57.19 248.95 183.71 352.17 183.71 313.42 57.19"/><polygon class="cls-107" points="267.1 77.02 239.53 77.02 204.91 183.5 304.48 183.5 267.1 77.02"/><polygon class="cls-108" points="212.8 64.63 186.08 64.63 152.52 183.5 249.03 183.5 212.8 64.63"/><path class="cls-109" d="M256,54.45a1.69,1.69,0,0,1-1.83,1.49h0a1.69,1.69,0,0,1-1.83-1.49V51.86a1.69,1.69,0,0,1,1.83-1.49h0A1.69,1.69,0,0,1,256,51.86Z"/><rect class="cls-110" x="253.35" y="1.05" width="1.71" height="49.59"/><polygon class="cls-109" points="276.45 54.18 231.35 54.18 228.75 102.28 279.05 102.28 276.45 54.18"/><polygon class="cls-110" points="278.53 92.3 276.47 54.19 231.37 54.19 229.31 92.3 278.53 92.3"/><path class="cls-105" d="M299.2,26.55l2.59,0h.7a.61.61,0,0,0,.68-.66.92.92,0,0,0-.34-.73c-.39-.37-3.06-3.13-3.06-3.13a.71.71,0,0,0-.56-.27l-.19,0a.71.71,0,0,0-.56.27s-2.67,2.76-3.06,3.13a.92.92,0,0,0-.34.73.61.61,0,0,0,.68.66h.7l2.59,0"/><path class="cls-109" d="M300.9,29a1.69,1.69,0,0,1-1.83,1.49h0A1.69,1.69,0,0,1,297.23,29V26.45A1.69,1.69,0,0,1,299.07,25h0a1.69,1.69,0,0,1,1.83,1.49Z"/><rect class="cls-110" x="298.3" y="1.05" width="1.71" height="24.18"/><polygon class="cls-109" points="313.7 28.46 284.56 28.46 282.88 59.54 315.38 59.54 313.7 28.46"/><polygon class="cls-110" points="315.03 53.13 313.7 28.49 284.55 28.49 283.22 53.13 315.03 53.13"/><path class="cls-105" d="M200.08,41l2.59,0h.7a.61.61,0,0,0,.68-.66.92.92,0,0,0-.34-.73c-.39-.37-3.06-3.13-3.06-3.13a.71.71,0,0,0-.56-.27l-.19,0a.71.71,0,0,0-.56.27s-2.67,2.76-3.06,3.13a.92.92,0,0,0-.34.73.61.61,0,0,0,.68.66h.7l2.59,0"/><path class="cls-109" d="M201.77,43.53A1.69,1.69,0,0,1,199.94,45h0a1.69,1.69,0,0,1-1.83-1.49V40.94a1.69,1.69,0,0,1,1.83-1.49h0a1.69,1.69,0,0,1,1.83,1.49Z"/><rect class="cls-110" x="199.17" y="1.05" width="1.71" height="38.67"/><polygon class="cls-109" points="218.61 43.16 181.2 43.16 179.04 83.06 220.77 83.06 218.61 43.16"/><polygon class="cls-110" points="220.32 74.83 218.61 43.2 181.19 43.2 179.48 74.83 220.32 74.83"/></g></g></g></svg>