<svg xmlns="http://www.w3.org/2000/svg" xmlns:xlink="http://www.w3.org/1999/xlink" viewBox="0 0 500 470"><defs><style>.cls-1{isolation:isolate;}.cls-2{fill:none;}.cls-3{fill:#73c8ea;}.cls-4{fill:#383433;}.cls-5{fill:#f0beac;}.cls-6{fill:#d9ac40;}.cls-7{fill:#404041;}.cls-8{fill:#dbaf9e;}.cls-9{mix-blend-mode:multiply;}.cls-10{fill:#bbbdbf;}.cls-11{fill:#782a27;}.cls-12{fill:#f37e69;}.cls-13{fill:#f1f1f2;}.cls-14{fill:#ec9887;}.cls-15{fill:#e2ebe3;}.cls-16{fill:url(#Fundido_en_negro);}.cls-17{fill:#603813;}.cls-18{fill:url(#ViÒeta_negra_s_per_suave);}.cls-19{fill:url(#ViÒeta_negra_s_per_suave-2);}.cls-20{fill:url(#Fundido_en_negro-2);}.cls-21{fill:url(#ViÒeta_negra_s_per_suave-3);}.cls-22{fill:url(#ViÒeta_negra_s_per_suave-4);}.cls-23{fill:#9e2a31;}.cls-24{fill:#f8bcbf;}.cls-25{fill:#936245;}.cls-26{fill:#4f321d;}.cls-27{fill:#522419;}.cls-28{fill:#ed4634;}.cls-29{fill:#aaa4c5;}.cls-30{fill:#2f0700;}.cls-31{fill:#124d61;}.cls-32{fill:#2b7c98;}.cls-33{fill:#ea4f56;}.cls-34{fill:#d4d6d7;}.cls-35{fill:#daa390;}.cls-36{fill:#a3563f;}.cls-37{fill:#632f1e;}.cls-38{fill:#563b2e;}.cls-39{fill:#ba7c66;}.cls-40{fill:#111a2a;}.cls-41{fill:#3c495f;}.cls-42{fill:#f59e76;}.cls-43{fill:#b8674c;}.cls-44{fill:#230a00;}.cls-45{fill:#91614f;}.cls-46{fill:#3d0000;}.cls-47{fill:#721c1e;}</style><linearGradient id="Fundido_en_negro" x1="411.52" y1="155.13" x2="418" y2="155.13" gradientUnits="userSpaceOnUse"><stop offset="0" stop-color="#231f20"/><stop offset="0.09" stop-color="#231f20"/><stop offset="1" stop-color="#231f20"/></linearGradient><radialGradient id="ViÒeta_negra_s_per_suave" cx="418.17" cy="157.18" r="1.37" gradientUnits="userSpaceOnUse"><stop offset="0.57" stop-color="#130c0e"/><stop offset="0.8" stop-color="#130c0e"/><stop offset="1" stop-color="#130c0e"/></radialGradient><radialGradient id="ViÒeta_negra_s_per_suave-2" cx="417.58" cy="150.04" r="4.89" xlink:href="#ViÒeta_negra_s_per_suave"/><linearGradient id="Fundido_en_negro-2" x1="445.8" y1="155.13" x2="452.28" y2="155.13" xlink:href="#Fundido_en_negro"/><radialGradient id="ViÒeta_negra_s_per_suave-3" cx="445.64" cy="157.18" r="1.37" xlink:href="#ViÒeta_negra_s_per_suave"/><radialGradient id="ViÒeta_negra_s_per_suave-4" cx="446.22" cy="150.04" r="4.89" xlink:href="#ViÒeta_negra_s_per_suave"/></defs><title>Feedback2</title><g class="cls-1"><g id="Capa_2" data-name="Capa 2"><g id="Layer_1" data-name="Layer 1"><rect class="cls-2" width="500" height="470"/><ellipse class="cls-3" cx="249.01" cy="327.91" rx="239.65" ry="9.71"/><path class="cls-4" d="M453,178.74l-12.94-.18,25-24.76-5.81,19.93C459.17,173.71,453,178.74,453,178.74Z"/><path class="cls-4" d="M455.94,174.25c4.43-2.69,14-1.1,15.23,17s-8.59,18.88-3.61,34.15c0,0-10.25-4.12-9.79-20.93C458.16,190.34,447.14,179.59,455.94,174.25Z"/><path class="cls-4" d="M410.81,178.74l12.94-.18L399,154.34l5.5,19.38C404.63,173.71,410.81,178.74,410.81,178.74Z"/><path class="cls-4" d="M407.86,174.25c-4.43-2.69-14-1.1-15.22,17s8.59,18.88,3.61,34.15c0,0,10.25-4.12,9.78-20.93C405.64,190.34,416.66,179.59,407.86,174.25Z"/><path class="cls-5" d="M407.38,243.9s1.43,1.27,1,6.24c-.23,2.94,1.55,4.17.49,4.92s-2.89-1.17-3.33-2.76a48,48,0,0,0-.26,5.43c0,2-1.71,3.08-2.47,1.29s.29-7.16.29-7.16-.25,2.85-.4,4.88c-.19,2.56-.67,3.36-1.72,3.26-1.74-.17-1.21-3.52-.5-6.63,0,0-.25,5.25-2,5.16s-1.71-2.54-.24-6.31c0,0-.42,3.53-2.05,3s.47-3.81,1.72-6.75,1.1-4.61,4.44-6.41C404.75,240.81,407.38,243.9,407.38,243.9Z"/><path class="cls-5" d="M417.92,197.33c.05-.11,0,0-.06.08l-.13.26-.28.6c-.19.42-.38.87-.56,1.33-.37.92-.72,1.88-1,2.85-.66,2-1.26,4-1.82,6-1.11,4.1-2.06,8.3-2.9,12.53s-1.57,8.46-2.25,12.79-1.32,8.64-1.92,13h0a2.69,2.69,0,0,1-5.34-.5c.21-4.4.45-8.78.72-13.18s.59-8.84,1.1-13.26,1.1-8.85,1.9-13.29c.41-2.22.86-4.45,1.42-6.7.28-1.13.58-2.26.93-3.41.17-.58.36-1.16.57-1.76l.34-.92.2-.49c.09-.2.12-.3.3-.65a5,5,0,0,1,8.84,4.75Z"/><path class="cls-5" d="M456.43,243.9s-1.43,1.27-1,6.24c.23,2.94-1.55,4.17-.48,4.92s2.89-1.17,3.32-2.76a47.33,47.33,0,0,1,.26,5.43c0,2,1.71,3.08,2.47,1.29s-.29-7.16-.29-7.16.25,2.85.4,4.88c.19,2.56.67,3.36,1.72,3.26,1.73-.17,1.2-3.52.5-6.63,0,0,.25,5.25,2,5.16s1.71-2.54.24-6.31c0,0,.42,3.53,2.06,3s-.47-3.81-1.72-6.75-1.1-4.61-4.44-6.41C459,240.81,456.43,243.9,456.43,243.9Z"/><path class="cls-5" d="M454.72,192.58c.18.35.21.46.3.65l.2.49.34.92c.21.6.4,1.18.57,1.76.35,1.15.65,2.28.93,3.41.55,2.25,1,4.48,1.42,6.7.81,4.45,1.41,8.87,1.9,13.29s.82,8.88,1.1,13.26.51,8.78.72,13.18a2.69,2.69,0,0,1-5.34.51v0c-.61-4.32-1.25-8.65-1.92-13s-1.39-8.56-2.25-12.79-1.79-8.43-2.9-12.53c-.56-2-1.16-4.07-1.82-6-.33-1-.68-1.94-1-2.85-.18-.46-.37-.91-.56-1.32l-.28-.6-.13-.26c0-.05-.11-.2-.06-.08a5,5,0,0,1,8.84-4.75Z"/><path class="cls-5" d="M432.16,248l-3.51,77a5,5,0,0,1-10,0l-3.51-77a8.54,8.54,0,1,1,17.06-.78C432.17,247.43,432.17,247.7,432.16,248Z"/><path class="cls-6" d="M423.63,317.15c-4.3,0-5.32,1.18-5.32,1.18l.3,6.59a5,5,0,0,0,10,0l.3-6.59S427.94,317.15,423.63,317.15Zm4.42,3.55s.18,3.58-4.33,3.58-4.52-3.58-4.52-3.58l-.07-1.58s.86-1,4.49-1,4.5,1,4.5,1Z"/><path class="cls-5" d="M448.69,248l-3.51,77a5,5,0,0,1-10,0l-3.51-77a8.54,8.54,0,1,1,17.06-.78C448.71,247.43,448.7,247.7,448.69,248Z"/><path class="cls-6" d="M434.85,318.33l.3,6.59a5,5,0,0,0,10,0l.3-6.59s-1-1.18-5.32-1.18S434.85,318.33,434.85,318.33Zm.82.79s.86-1,4.5-1,4.5,1,4.5,1l-.08,1.58s0,3.58-4.52,3.58-4.33-3.58-4.33-3.58Z"/><path class="cls-6" d="M448.64,230a48.74,48.74,0,0,1-.5-27.49L450.39,190c-4.51-2.09-13.66-2-13.66-2h-9.65s-9.15-.13-13.66,2l2.24,12.53a48.73,48.73,0,0,1-.49,27.49c-4.72,14.48-13.1,55.1-13.1,55.1h59.67S453.36,244.47,448.64,230Z"/><path class="cls-7" d="M431.9,179.18c-11.83,0-22.22-7-28.17-16,.25,5.75,2.3,6.07,4.73,10.57,0,0,9.09,5.46,23.44,5.46,12.08,0,15-3.1,23.44-5.46,2.43-4.5,4.48-4.81,4.73-10.57C454.12,172.19,443.73,179.18,431.9,179.18Z"/><path class="cls-8" d="M440.06,188.56s-4.79-5.24-.56-10.34l-6.8-.13v0l-.8,0-.8,0v0l-6.8.13c4.23,5.1-.56,10.34-.56,10.34a18,18,0,0,0,16.31,0Z"/><path class="cls-5" d="M465.36,146.82c0,15.33-15,32.36-33.46,32.36s-33.46-17-33.46-32.36,15-26.19,33.46-26.19S465.36,131.48,465.36,146.82Z"/><g class="cls-9"><path class="cls-10" d="M430,160.94a5.19,5.19,0,0,0-.66,1.61,1.94,1.94,0,0,0,.29,1.54A2.41,2.41,0,0,0,431,165a3.14,3.14,0,0,0,1.69-.11,2.36,2.36,0,0,1-1.76.5,2.4,2.4,0,0,1-1.61-1,2.07,2.07,0,0,1-.24-1.87A3.77,3.77,0,0,1,430,160.94Z"/></g><path class="cls-11" d="M431.9,168.45a29.85,29.85,0,0,1-6.63-.47s.16,6.27,6.63,6.27,6.64-6.27,6.64-6.27A29.87,29.87,0,0,1,431.9,168.45Z"/><path class="cls-12" d="M429,173.72a7.48,7.48,0,0,0,2.9.53,6.17,6.17,0,0,0,5.22-2.31,4,4,0,0,0-2.82-.4c-1.21.26-1,.9-1.48.8C429.83,171.8,429,173.72,429,173.72Z"/><path class="cls-13" d="M437.51,168.16h0a43.47,43.47,0,0,1-5.61.29,38.22,38.22,0,0,1-6.14-.37h0s-.07,1.52,2.4,2C431.9,170.93,437.29,170.32,437.51,168.16Z"/><path class="cls-14" d="M425.27,168s5.37-1.14,6.25-.68c1.22.64-.3-1,7,.68A38.67,38.67,0,0,1,425.27,168Z"/><path class="cls-14" d="M438.53,168a6.69,6.69,0,0,1-13.26,0s-.38,7.32,6.65,7.32S438.53,168,438.53,168Z"/><path class="cls-4" d="M431.9,120.62c-26.41-8.22-39.37,15-34.82,31.8,4.08,15,11.38,21.29,11.38,21.29-5.09-9.43-3.94-22.07-3.94-22.07,2.5-8.75,3.4-12.66,27-12.66s25.26,3.86,27.72,12.66c0,0,1.15,12.64-3.94,22.07,0,0,8.32-5.23,11.34-20.51C470,136.23,459.53,113.09,431.9,120.62Z"/><path class="cls-5" d="M403.36,164.7h0a3.77,3.77,0,0,1-3.76-3.77h0a3.77,3.77,0,0,1,3.76-3.77h0c2.09,0,3.77,2.5,3.77,3.77S405.45,164.7,403.36,164.7Z"/><g class="cls-9"><path class="cls-10" d="M403.36,159.81a1.36,1.36,0,0,1,1,.24,1.31,1.31,0,0,1,.6.88,1.29,1.29,0,0,1-.6.88,1.38,1.38,0,0,1-1,.24,1.73,1.73,0,0,0,.83-.42,1.21,1.21,0,0,0,.45-.7,1.25,1.25,0,0,0-.45-.71A1.72,1.72,0,0,0,403.36,159.81Z"/></g><path class="cls-5" d="M460.44,164.7h0a3.77,3.77,0,0,0,3.77-3.77h0a3.77,3.77,0,0,0-3.77-3.77h0c-2.08,0-3.77,2.5-3.77,3.77S458.36,164.7,460.44,164.7Z"/><g class="cls-9"><path class="cls-10" d="M460.44,159.81a1.73,1.73,0,0,0-.83.42.78.78,0,0,0,0,1.41,1.74,1.74,0,0,0,.83.42,1.37,1.37,0,0,1-1-.24,1.3,1.3,0,0,1-.6-.88,1.32,1.32,0,0,1,.6-.88A1.36,1.36,0,0,1,460.44,159.81Z"/></g><path class="cls-15" d="M424.25,157.83c.56,1.17-2.67,3.32-6.25,3.32s-6.5-2.87-6.47-4,2.9-4,6.47-4S423.9,157.09,424.25,157.83Z"/><path class="cls-16" d="M411.52,157.18a3.56,3.56,0,0,1,.85-1.89,6,6,0,0,1,1.61-1.34,5.67,5.67,0,0,1,4-.74,14.05,14.05,0,0,0-3.6,1.45A8.38,8.38,0,0,0,411.52,157.18Z"/><circle class="cls-17" cx="418.17" cy="157.18" r="3.39"/><circle class="cls-18" cx="418.17" cy="157.18" r="1.37"/><path class="cls-19" d="M424.31,151.6a18,18,0,0,0-6.73-1.49,14.16,14.16,0,0,0-3.34.38,34.42,34.42,0,0,0-3.41,1.05,8.31,8.31,0,0,1,3-2.25,9.06,9.06,0,0,1,3.76-.81,9.27,9.27,0,0,1,3.75.83A7.62,7.62,0,0,1,424.31,151.6Z"/><path class="cls-15" d="M439.55,157.83c-.56,1.17,2.68,3.32,6.26,3.32s6.49-2.87,6.47-4-2.9-4-6.47-4S439.9,157.09,439.55,157.83Z"/><path class="cls-20" d="M452.28,157.18a8.38,8.38,0,0,0-2.87-2.52,14.06,14.06,0,0,0-3.6-1.45,5.67,5.67,0,0,1,4,.74,6,6,0,0,1,1.61,1.34A3.58,3.58,0,0,1,452.28,157.18Z"/><circle class="cls-17" cx="445.63" cy="157.18" r="3.39"/><circle class="cls-21" cx="445.63" cy="157.18" r="1.37"/><path class="cls-22" d="M439.49,151.6a7.62,7.62,0,0,1,3-2.29,9.26,9.26,0,0,1,3.75-.83,9.07,9.07,0,0,1,3.76.81,8.32,8.32,0,0,1,3,2.25,34.42,34.42,0,0,0-3.41-1.05,14.12,14.12,0,0,0-3.34-.38A18,18,0,0,0,439.49,151.6Z"/><polygon class="cls-4" points="409 150.11 409.42 151.99 411.99 151.99 412.74 147.4 412.74 151.99 419.02 151.99 420.77 137.38 420.77 151.99 424.24 151.99 424.24 148.45 425.19 151.99 428.12 151.99 428.38 149.51 428.48 151.99 429.92 151.99 429.92 146.27 431.21 151.99 434.23 151.99 435.32 147.55 435.94 151.99 440.45 151.99 441.27 144.23 441.63 151.99 447.45 151.99 447.74 147.02 448.75 151.99 452.65 151.99 452.28 146.56 454.51 151.99 456.34 151.99 453.84 127.91 409.98 127.91 407.46 151.99 408.62 151.99 409 150.11"/><path class="cls-5" d="M104.08,248s1.39,1.23,1,6.08c-.22,2.87,1.52,4.07.48,4.79s-2.82-1.14-3.24-2.69a46.82,46.82,0,0,0-.25,5.3c0,2-1.67,3-2.41,1.25s.28-7,.28-7-.25,2.78-.39,4.76c-.18,2.49-.65,3.28-1.67,3.18-1.7-.17-1.18-3.43-.49-6.47,0,0-.24,5.13-1.92,5s-1.67-2.48-.23-6.16c0,0-.41,3.44-2,2.94s.46-3.71,1.68-6.58,1.07-4.49,4.33-6.25C101.53,245,104.08,248,104.08,248Z"/><path class="cls-5" d="M114.37,202.55c0-.11,0,0-.06.08l-.13.25-.28.58c-.18.41-.37.85-.55,1.29-.36.89-.7,1.83-1,2.78-.65,1.91-1.23,3.88-1.78,5.87-1.08,4-2,8.09-2.83,12.22s-1.53,8.25-2.19,12.47-1.28,8.42-1.88,12.63h0a2.62,2.62,0,0,1-5.21-.49c.2-4.29.43-8.56.7-12.85s.57-8.62,1.07-12.93,1.07-8.63,1.86-13c.4-2.17.84-4.34,1.38-6.54.27-1.1.56-2.2.9-3.32.17-.56.35-1.13.56-1.71l.33-.9.2-.48c.08-.19.12-.29.29-.64a4.89,4.89,0,0,1,8.62,4.63Z"/><path class="cls-5" d="M151.91,248s-1.4,1.23-1,6.08c.23,2.87-1.51,4.07-.47,4.79s2.82-1.14,3.24-2.69a45.85,45.85,0,0,1,.25,5.3c0,2,1.67,3,2.41,1.25s-.28-7-.28-7,.25,2.78.39,4.76c.18,2.49.66,3.28,1.67,3.18,1.7-.17,1.18-3.43.49-6.47,0,0,.25,5.13,1.92,5s1.67-2.48.23-6.16c0,0,.41,3.44,2,2.94s-.46-3.71-1.68-6.58-1.08-4.49-4.33-6.25C154.47,245,151.91,248,151.91,248Z"/><path class="cls-5" d="M150.25,197.92c.17.34.21.44.29.64l.19.48.33.9c.2.58.39,1.15.56,1.71.34,1.12.63,2.22.9,3.32.54,2.2,1,4.37,1.38,6.54.79,4.34,1.37,8.65,1.86,13s.8,8.66,1.07,12.93.5,8.56.7,12.85a2.62,2.62,0,0,1-5.21.5v0c-.59-4.21-1.22-8.43-1.88-12.63s-1.36-8.35-2.19-12.47-1.75-8.22-2.83-12.22c-.54-2-1.13-4-1.77-5.87-.32-1-.66-1.89-1-2.78-.18-.45-.36-.88-.55-1.29l-.28-.58-.13-.25c0-.05-.11-.19-.06-.08a4.89,4.89,0,1,1,8.62-4.63Z"/><path class="cls-5" d="M128.25,251.92,124.83,327a4.9,4.9,0,0,1-9.79,0l-3.42-75.05a8.32,8.32,0,1,1,16.63-.76C128.26,251.41,128.26,251.68,128.25,251.92Z"/><path class="cls-23" d="M119.94,319.39c-4.2,0-5.18,1.15-5.18,1.15L115,327a4.9,4.9,0,0,0,9.79,0l.3-6.42S124.14,319.39,119.94,319.39Zm4.31,3.46s.18,3.5-4.22,3.5-4.4-3.5-4.4-3.5l-.07-1.54s.84-1,4.38-1,4.38,1,4.38,1Z"/><path class="cls-5" d="M144.37,251.92,141,327a4.9,4.9,0,0,1-9.79,0l-3.42-75.05a8.32,8.32,0,1,1,16.63-.76C144.39,251.41,144.38,251.68,144.37,251.92Z"/><path class="cls-23" d="M130.87,320.55l.29,6.42a4.9,4.9,0,0,0,9.79,0l.29-6.42s-1-1.15-5.19-1.15S130.87,320.55,130.87,320.55Zm.8.77s.84-1,4.39-1,4.39,1,4.39,1l-.07,1.54s0,3.5-4.4,3.5-4.22-3.5-4.22-3.5Z"/><path class="cls-24" d="M111.68,234.41c-.8,2.44-1.7,5.64-2.65,9.27H147c-.95-3.63-1.85-6.83-2.65-9.27a47.52,47.52,0,0,1-.48-26.8L146,195.38c-4.4-2-13.32-1.9-13.32-1.9H123.3s-8.92-.13-13.32,1.9l2.19,12.22A47.5,47.5,0,0,1,111.68,234.41Z"/><path class="cls-23" d="M110,243.62c-2,17.52.53,42.43.53,42.43h16.69l.74-28.43.83,28.43h16.59s2.53-24.91.53-42.43Z"/><path class="cls-25" d="M128,184.86c-11.54,0-21.67-6.81-27.47-15.63.24,5.61,2.25,5.92,4.61,10.3,0,0,6.16,6.5,22.86,5.33,11.75-.83,16.71-1.09,22.85-5.33,2.37-4.39,4.37-4.7,4.61-10.3C149.66,178,139.54,184.86,128,184.86Z"/><path class="cls-8" d="M136,194s-4.67-5.11-.54-10.08l-6.63-.12v0h-1.56v0l-6.63.12c4.12,5-.55,10.08-.55,10.08A17.52,17.52,0,0,0,136,194Z"/><path class="cls-5" d="M160.63,153.3c0,15-14.61,31.56-32.63,31.56S95.37,168.25,95.37,153.3,110,127.76,128,127.76,160.63,138.35,160.63,153.3Z"/><g class="cls-9"><path class="cls-10" d="M126.15,167.07a5.06,5.06,0,0,0-.64,1.57,1.89,1.89,0,0,0,.28,1.5,2.34,2.34,0,0,0,1.3.84,3,3,0,0,0,1.64-.1,2.3,2.3,0,0,1-1.71.48,2.33,2.33,0,0,1-1.57-1,2,2,0,0,1-.23-1.82A3.68,3.68,0,0,1,126.15,167.07Z"/></g><path class="cls-11" d="M128,174.39a29.11,29.11,0,0,1-6.47-.46s.15,6.11,6.47,6.11,6.47-6.11,6.47-6.11A29.13,29.13,0,0,1,128,174.39Z"/><path class="cls-12" d="M125.17,179.53a7.25,7.25,0,0,0,2.83.52,6,6,0,0,0,5.09-2.26,3.94,3.94,0,0,0-2.75-.39c-1.18.26-.93.88-1.44.78C126,177.66,125.17,179.53,125.17,179.53Z"/><path class="cls-13" d="M133.47,174.11h0a42.08,42.08,0,0,1-5.47.28,37.68,37.68,0,0,1-6-.36h0s-.07,1.48,2.34,2C128,176.81,133.25,176.22,133.47,174.11Z"/><path class="cls-14" d="M121.53,173.94s5.24-1.11,6.1-.66c1.19.62-.29-.95,6.84.66A37.71,37.71,0,0,1,121.53,173.94Z"/><path class="cls-14" d="M134.46,173.94a6.53,6.53,0,0,1-12.93,0s-.37,7.14,6.48,7.14S134.46,173.94,134.46,173.94Z"/><path class="cls-25" d="M112.73,129.09c-17.36,1.2-19.24,14.79-18,27,1.48,15.12,10.46,23.47,10.46,23.47-5-9.2-3.85-21.52-3.85-21.52,14.64-7.78,11.43-12,11.43-12,13.54,13.43,39.57,3.42,42,12,0,0,1.12,12.32-3.85,21.52,0,0,9-8.32,10.47-23.47C163.24,135.78,141.56,112.34,112.73,129.09Z"/><path class="cls-5" d="M100.17,170.74h0a3.67,3.67,0,0,1-3.67-3.67h0a3.67,3.67,0,0,1,3.67-3.67h0c2,0,3.67,2.44,3.67,3.67S102.2,170.74,100.17,170.74Z"/><g class="cls-9"><path class="cls-10" d="M100.17,166a1.33,1.33,0,0,1,.95.24.92.92,0,0,1,0,1.72,1.33,1.33,0,0,1-.95.24,1.67,1.67,0,0,0,.81-.41.76.76,0,0,0,0-1.38A1.7,1.7,0,0,0,100.17,166Z"/></g><path class="cls-5" d="M155.83,170.74h0a3.67,3.67,0,0,0,3.67-3.67h0a3.67,3.67,0,0,0-3.67-3.67h0c-2,0-3.68,2.44-3.68,3.67S153.8,170.74,155.83,170.74Z"/><g class="cls-9"><path class="cls-10" d="M155.83,166a1.68,1.68,0,0,0-.81.41.76.76,0,0,0,0,1.38,1.66,1.66,0,0,0,.81.41,1.33,1.33,0,0,1-.95-.24.92.92,0,0,1,0-1.72A1.34,1.34,0,0,1,155.83,166Z"/></g><path class="cls-15" d="M120.54,164c.54,1.14-2.61,3.24-6.1,3.24s-6.33-2.8-6.31-3.87,2.83-3.87,6.31-3.87S120.2,163.31,120.54,164Z"/><path class="cls-25" d="M108.13,163.4a3.48,3.48,0,0,1,.83-1.84,5.9,5.9,0,0,1,1.57-1.31,5.53,5.53,0,0,1,3.92-.72,13.71,13.71,0,0,0-3.51,1.41A8.21,8.21,0,0,0,108.13,163.4Z"/><circle class="cls-25" cx="114.6" cy="163.4" r="3.3"/><circle class="cls-26" cx="114.61" cy="163.4" r="1.33"/><path class="cls-25" d="M120.6,158a17.57,17.57,0,0,0-6.56-1.46,13.8,13.8,0,0,0-3.26.37,33.63,33.63,0,0,0-3.32,1,8.1,8.1,0,0,1,2.92-2.19,8.83,8.83,0,0,1,3.66-.79,9,9,0,0,1,3.65.81A7.42,7.42,0,0,1,120.6,158Z"/><path class="cls-15" d="M135.45,164c-.54,1.14,2.62,3.24,6.1,3.24s6.33-2.8,6.31-3.87-2.83-3.87-6.31-3.87S135.8,163.31,135.45,164Z"/><path class="cls-25" d="M147.87,163.4a8.23,8.23,0,0,0-2.8-2.46,13.75,13.75,0,0,0-3.51-1.41,5.52,5.52,0,0,1,3.91.72,5.83,5.83,0,0,1,1.57,1.31A3.49,3.49,0,0,1,147.87,163.4Z"/><circle class="cls-25" cx="141.39" cy="163.4" r="3.31"/><circle class="cls-26" cx="141.39" cy="163.4" r="1.33"/><path class="cls-25" d="M135.39,158a7.43,7.43,0,0,1,2.9-2.23,9,9,0,0,1,3.66-.81,8.83,8.83,0,0,1,3.66.79,8.09,8.09,0,0,1,2.92,2.19,33.63,33.63,0,0,0-3.32-1,13.8,13.8,0,0,0-3.26-.37A17.56,17.56,0,0,0,135.39,158Z"/><path class="cls-24" d="M110,195.38s-8.44-1.07-7.24,12.91l8,4.34,2-4.85Z"/><path class="cls-24" d="M146,195.38s8.43-1.07,7.24,12.91l-8,4.34-2-4.85Z"/><path class="cls-25" d="M116.86,219.69a3.25,3.25,0,0,0-4.3.9l-.35.19s-6.66,5.33.87,17.58a9.68,9.68,0,0,1,5.36-6.42C123.1,229.63,119.38,221.22,116.86,219.69Z"/><path class="cls-25" d="M121.3,184.92c-.26-1.18-5.36-.65-8-2.86-.95-.31-12.66-8.5-12.23-7.57,1.51,3.26,6.78,10.29,7,11.84a9.11,9.11,0,0,0,2.35,4.18,4.22,4.22,0,0,0-.57,2.18,6.6,6.6,0,0,0,1.2,3.07,9.07,9.07,0,0,0,1.1,1.36c-1.13,1.19-2.16,2.29-1.82,4.16a4.14,4.14,0,0,0,1,1.93c-2.57,2.37-1.59,4.82-.66,6.61a2.67,2.67,0,0,0-1,2.8,5.56,5.56,0,0,0,1.5,2.67,4,4,0,0,0-1.32,2.06c-1.44,5.42,11,4.79,9.61-2a4.63,4.63,0,0,0-.67-1.35,4.1,4.1,0,0,0,1.27-3.26,3.57,3.57,0,0,0-.68-1.93c1.57-.94,1.58-2.64.78-4.15,2.21-1.55,1.85-5.45.53-7.66,1.13-1.21,1.16-2.87-.09-4.52a4,4,0,0,0-.39-.42C121.49,189.19,122,188.19,121.3,184.92Z"/><path class="cls-27" d="M277.56,159.86c-14.29,0-26.85-3.75-34-14.68.3,6.95-6.27,108.64,34,108.64s33.72-101.7,34-108.64C304.38,156.11,291.85,159.86,277.56,159.86Z"/><path class="cls-5" d="M253,244.62s1.43,1.27,1,6.24c-.23,2.94,1.55,4.17.49,4.91s-2.89-1.17-3.32-2.76a47.35,47.35,0,0,0-.26,5.43c0,2-1.71,3.08-2.47,1.28s.29-7.15.29-7.15-.25,2.85-.4,4.88c-.19,2.56-.68,3.36-1.72,3.26-1.74-.17-1.21-3.52-.51-6.64,0,0-.25,5.26-2,5.17s-1.71-2.54-.24-6.31c0,0-.41,3.53-2.05,3s.47-3.8,1.72-6.75,1.1-4.61,4.44-6.41C250.39,241.53,253,244.62,253,244.62Z"/><path class="cls-5" d="M263.57,198c.05-.11,0,0-.06.08l-.13.26-.28.6c-.19.42-.38.87-.56,1.33-.37.92-.71,1.88-1,2.85-.66,2-1.26,4-1.82,6-1.11,4.1-2.06,8.3-2.9,12.53s-1.57,8.47-2.25,12.79-1.32,8.64-1.92,13h0a2.69,2.69,0,0,1-5.34-.5c.21-4.4.44-8.78.72-13.18s.59-8.84,1.1-13.26,1.1-8.85,1.9-13.29c.4-2.22.86-4.45,1.41-6.7.28-1.13.58-2.26.93-3.41.17-.58.36-1.16.57-1.76l.34-.92.2-.49c.09-.2.12-.3.3-.65a5,5,0,0,1,8.84,4.75Z"/><path class="cls-5" d="M302.07,244.62s-1.43,1.27-1,6.24c.23,2.94-1.55,4.17-.48,4.91s2.89-1.17,3.32-2.76a48.38,48.38,0,0,1,.26,5.43c0,2,1.71,3.08,2.47,1.28s-.29-7.15-.29-7.15.25,2.85.4,4.88c.19,2.56.68,3.36,1.72,3.26,1.73-.17,1.21-3.52.5-6.64,0,0,.25,5.26,2,5.17s1.71-2.54.24-6.31c0,0,.41,3.53,2.05,3s-.47-3.8-1.72-6.75-1.1-4.61-4.44-6.41C304.69,241.53,302.07,244.62,302.07,244.62Z"/><path class="cls-5" d="M300.36,193.3c.18.35.21.46.3.65l.2.49.34.92c.21.6.4,1.18.57,1.76.35,1.15.65,2.28.93,3.41.55,2.25,1,4.48,1.41,6.7.81,4.45,1.41,8.87,1.91,13.29s.82,8.88,1.1,13.26.52,8.78.72,13.18a2.69,2.69,0,0,1-5.34.51v0c-.61-4.32-1.25-8.65-1.92-13s-1.4-8.56-2.25-12.79-1.79-8.43-2.9-12.53c-.56-2-1.16-4.07-1.82-6-.33-1-.68-1.94-1-2.85-.18-.46-.37-.91-.56-1.33l-.28-.6-.13-.26c0-.05-.11-.2-.06-.08a5,5,0,0,1,8.84-4.75Z"/><path class="cls-5" d="M277.81,248.68l-3.51,77a5,5,0,0,1-10,0l-3.51-77a8.54,8.54,0,1,1,17.06-.78C277.82,248.16,277.82,248.43,277.81,248.68Z"/><path class="cls-28" d="M269.28,317.87c-4.3,0-5.32,1.18-5.32,1.18l.3,6.59a5,5,0,0,0,10,0l.3-6.59S273.58,317.87,269.28,317.87Zm4.42,3.55s.18,3.59-4.33,3.59-4.52-3.59-4.52-3.59l-.07-1.58s.85-1,4.49-1,4.5,1,4.5,1Z"/><path class="cls-5" d="M294.34,248.68l-3.51,77a5,5,0,0,1-10,0l-3.51-77a8.54,8.54,0,1,1,17.06-.78C294.35,248.16,294.35,248.43,294.34,248.68Z"/><path class="cls-28" d="M280.49,319.05l.3,6.59a5,5,0,0,0,10,0l.3-6.59s-1-1.18-5.32-1.18S280.49,319.05,280.49,319.05Zm.82.79s.85-1,4.5-1,4.49,1,4.49,1l-.07,1.58s0,3.59-4.52,3.59-4.33-3.59-4.33-3.59Z"/><path class="cls-29" d="M260.81,230.72c-.82,2.5-1.74,5.79-2.72,9.51H297c-1-3.72-1.9-7-2.71-9.51a48.68,48.68,0,0,1-.5-27.49L296,190.7c-4.51-2.08-13.66-2-13.66-2h-9.65s-9.15-.13-13.66,2l2.25,12.53A48.75,48.75,0,0,1,260.81,230.72Z"/><path class="cls-28" d="M260.77,230.84c-4.73,14.59-13.06,46-13.06,46h59.67s-8.33-31.38-13.06-46c0,0-2.48,1.93-16.78,1.93S260.77,230.84,260.77,230.84Z"/><path class="cls-8" d="M285.7,189.28s-4.79-5.24-.56-10.34l-6.8-.13v0h-1.6v0l-6.8.13c4.23,5.11-.56,10.34-.56,10.34a18,18,0,0,0,16.32,0Z"/><path class="cls-5" d="M311,147.54c0,15.33-15,32.37-33.46,32.37s-33.46-17-33.46-32.37,15-26.18,33.46-26.18S311,132.21,311,147.54Z"/><g class="cls-9"><path class="cls-10" d="M275.64,161.66a5.31,5.31,0,0,0-.66,1.61,1.93,1.93,0,0,0,.29,1.54,2.4,2.4,0,0,0,1.33.86,3.13,3.13,0,0,0,1.69-.11,2.36,2.36,0,0,1-1.76.5,2.39,2.39,0,0,1-1.61-1,2.07,2.07,0,0,1-.24-1.87A3.74,3.74,0,0,1,275.64,161.66Z"/></g><path class="cls-11" d="M277.55,169.17a29.82,29.82,0,0,1-6.63-.47s.15,6.27,6.63,6.27,6.63-6.27,6.63-6.27A29.82,29.82,0,0,1,277.55,169.17Z"/><path class="cls-12" d="M274.65,174.44a7.4,7.4,0,0,0,2.9.53,6.15,6.15,0,0,0,5.22-2.32,4,4,0,0,0-2.82-.4c-1.21.26-1,.9-1.48.8C275.47,172.52,274.65,174.44,274.65,174.44Z"/><path class="cls-13" d="M283.15,168.88h0a43,43,0,0,1-5.6.29,38.67,38.67,0,0,1-6.14-.37h0s-.07,1.52,2.4,2C277.55,171.65,282.93,171,283.15,168.88Z"/><path class="cls-14" d="M270.91,168.7s5.37-1.14,6.25-.68c1.22.63-.3-1,7,.68A38.65,38.65,0,0,1,270.91,168.7Z"/><path class="cls-14" d="M284.17,168.7a6.69,6.69,0,0,1-13.26,0s-.38,7.33,6.65,7.33S284.17,168.7,284.17,168.7Z"/><path class="cls-27" d="M269.28,119.2c-25.2-1.3-27.13,18.69-25.9,31.18,1.51,15.5,10.73,24.07,10.73,24.07-5.09-9.43-3.94-22.07-3.94-22.07,15-8,23.09-17.67,23.09-17.67,13.89,13.77,29.21,8.87,31.68,17.67,0,0,1.15,12.64-3.95,22.07,0,0,9.26-8.53,10.73-24.07C313.68,129.57,293.17,104.58,269.28,119.2Z"/><path class="cls-5" d="M249,165.42h0a3.77,3.77,0,0,1-3.77-3.77h0a3.77,3.77,0,0,1,3.77-3.77h0c2.08,0,3.76,2.5,3.76,3.77S251.09,165.42,249,165.42Z"/><g class="cls-9"><path class="cls-10" d="M249,160.53a1.37,1.37,0,0,1,1,.24.95.95,0,0,1,0,1.76,1.36,1.36,0,0,1-1,.24,1.72,1.72,0,0,0,.83-.42.78.78,0,0,0,0-1.41A1.73,1.73,0,0,0,249,160.53Z"/></g><path class="cls-5" d="M306.08,165.42h0a3.77,3.77,0,0,0,3.76-3.77h0a3.77,3.77,0,0,0-3.76-3.77h0c-2.08,0-3.77,2.5-3.77,3.77S304,165.42,306.08,165.42Z"/><g class="cls-9"><path class="cls-10" d="M306.08,160.53a1.72,1.72,0,0,0-.83.42.78.78,0,0,0,0,1.41,1.72,1.72,0,0,0,.83.42,1.36,1.36,0,0,1-1-.24.95.95,0,0,1,0-1.76A1.36,1.36,0,0,1,306.08,160.53Z"/></g><path class="cls-15" d="M269.89,158.55c.56,1.17-2.68,3.32-6.25,3.32s-6.5-2.87-6.47-4,2.9-4,6.47-4S269.54,157.81,269.89,158.55Z"/><path class="cls-27" d="M257.17,157.9A3.58,3.58,0,0,1,258,156a6,6,0,0,1,1.61-1.35,5.66,5.66,0,0,1,4-.74,14,14,0,0,0-3.6,1.45A8.44,8.44,0,0,0,257.17,157.9Z"/><circle class="cls-27" cx="263.81" cy="157.9" r="3.39"/><circle class="cls-30" cx="263.81" cy="157.9" r="1.37"/><path class="cls-27" d="M270,152.32a18,18,0,0,0-6.73-1.49,14.13,14.13,0,0,0-3.34.38,34.53,34.53,0,0,0-3.41,1.05,8.29,8.29,0,0,1,3-2.25,9.06,9.06,0,0,1,3.75-.81A9.27,9.27,0,0,1,267,150,7.61,7.61,0,0,1,270,152.32Z"/><path class="cls-15" d="M285.19,158.55c-.56,1.17,2.68,3.32,6.25,3.32s6.5-2.87,6.47-4-2.9-4-6.47-4S285.55,157.81,285.19,158.55Z"/><path class="cls-27" d="M297.92,157.9a8.4,8.4,0,0,0-2.87-2.52,14,14,0,0,0-3.6-1.45,5.67,5.67,0,0,1,4,.74,6,6,0,0,1,1.61,1.35A3.57,3.57,0,0,1,297.92,157.9Z"/><circle class="cls-27" cx="291.28" cy="157.9" r="3.39"/><circle class="cls-30" cx="291.28" cy="157.9" r="1.37"/><path class="cls-27" d="M285.13,152.32a7.62,7.62,0,0,1,3-2.28,9.27,9.27,0,0,1,3.75-.83,9.06,9.06,0,0,1,3.75.81,8.29,8.29,0,0,1,3,2.25,34.48,34.48,0,0,0-3.41-1.05,14.17,14.17,0,0,0-3.34-.38A18,18,0,0,0,285.13,152.32Z"/><path class="cls-29" d="M259.06,190.7s-8.65-1.1-7.42,13.24l8.2,4.45,2.05-5Z"/><path class="cls-29" d="M296,190.7s8.65-1.1,7.42,13.24l-8.2,4.45-2-5Z"/><path class="cls-5" d="M82.39,157.19c0,13.31-13,28.1-29.06,28.1s-29.06-14.79-29.06-28.1,13-26.65,29.06-26.65S82.39,143.87,82.39,157.19Z"/><path class="cls-4" d="M35.41,129.06s-9.48.55-13.1,8.18c-9.76,20.58,6.83,34.56,6.83,34.56s-6.33-8,.87-8c.66,0,.53,2.62,2.59-3.32,1.29-3.7,8-6.72,6.92-15,0,0,3.71,9.83,18.22,9.3C77.57,154,75,172.87,77.52,163.46c.59-2.19,3.77-1.62.55,7.51,0,0,16-13.26,4.6-33.85C76,125.07,53.33,113.47,35.41,129.06Z"/><path class="cls-5" d="M37.45,283.61l1.4,36.17c.48.09,5.39.95,7.41.17l2.6-36.34Z"/><path class="cls-31" d="M38.81,319.78s5.39,1,7.49.17c0,0,1.6,5.36.51,8.16l-.06,1.4s-8.52.48-12,.48c-2.55,0-7.26-.6-7.43-1.23l.12-.55a3.64,3.64,0,0,1,2.68-4.27A28.22,28.22,0,0,0,38.81,319.78Z"/><path class="cls-5" d="M69.21,283.61l-1.4,36.17c-.49.09-5.39.95-7.41.17l-2.6-36.34Z"/><path class="cls-31" d="M67.85,319.78s-5.38,1-7.49.17c0,0-1.6,5.36-.51,8.16l.07,1.4s8.52.48,12,.48c2.55,0,7.25-.6,7.43-1.23l-.12-.55a3.64,3.64,0,0,0-2.68-4.27A28.3,28.3,0,0,1,67.85,319.78Z"/><path class="cls-32" d="M35.32,252.27l1.86,68.54,9.54-.12s5.55-51.15,6.2-51.15h.83l6.1,51.19h9.61l1.89-68.47Z"/><rect class="cls-31" x="35.32" y="247.33" width="36.02" height="4.94"/><path class="cls-5" d="M29.27,252.84s1.37,1.31,1,6.48c-.22,3,1.49,4.33.46,5.1s-2.77-1.21-3.18-2.87a53.62,53.62,0,0,0-.25,5.64c0,2.11-1.64,3.19-2.37,1.33s.27-7.42.27-7.42-.24,3-.39,5.06c-.18,2.65-.65,3.49-1.65,3.38-1.66-.17-1.16-3.65-.48-6.89,0,0-.24,5.46-1.88,5.36s-1.64-2.64-.23-6.55c0,0-.4,3.66-2,3.13s.45-4,1.65-7,1.06-4.78,4.26-6.65C26.76,249.63,29.27,252.84,29.27,252.84Z"/><path class="cls-5" d="M36.57,202.7c0-.09,0,.09-.06.17l-.1.33-.2.74-.38,1.56c-.24,1.06-.49,2.13-.7,3.22-.43,2.18-.82,4.38-1.2,6.59-.72,4.42-1.52,8.89-2,13.29s-1,9-1.44,13.46l-.66,6.75-.56,6.44,0,.43a3.59,3.59,0,0,1-7.17-.43v-.45l0-.24,0-.44.07-.86.15-1.71.31-3.39.6-6.78c.41-4.52.82-9,1.3-13.59s1-9.11,1.65-13.65c.31-2.27.63-4.54,1-6.82l.58-3.45.34-1.77.2-.92.12-.49c.05-.2.07-.29.18-.64a4.19,4.19,0,1,1,7.94,2.66Z"/><path class="cls-33" d="M33.7,195.05s-5.94-.05-8,15.69C25.3,213.68,24,221.23,24,221.23l8.61,2.9,3-15.32Z"/><path class="cls-5" d="M77.39,252.84s-1.37,1.31-1,6.48c.22,3-1.49,4.33-.46,5.1s2.77-1.21,3.18-2.87a54.39,54.39,0,0,1,.25,5.64c0,2.11,1.64,3.19,2.37,1.33s-.27-7.42-.27-7.42.25,3,.39,5.06c.18,2.65.65,3.49,1.65,3.38,1.66-.17,1.16-3.65.49-6.89,0,0,.24,5.46,1.88,5.36s1.64-2.64.22-6.55c0,0,.4,3.66,2,3.13s-.45-4-1.65-7-1.06-4.78-4.26-6.65C79.9,249.63,77.39,252.84,77.39,252.84Z"/><path class="cls-5" d="M78,200c.11.36.13.45.18.64l.12.49.2.92.34,1.77.58,3.45c.37,2.29.69,4.56,1,6.82.6,4.54,1.15,9,1.65,13.65s.89,9.06,1.3,13.59l.6,6.78.31,3.39.15,1.71.07.86,0,.44,0,.24v.45a3.59,3.59,0,0,1-7.17.44l0-.44-.56-6.44L76.15,242c-.46-4.5-.92-9-1.44-13.46s-1.27-8.87-2-13.29c-.38-2.21-.77-4.41-1.2-6.59-.21-1.09-.45-2.16-.7-3.22l-.38-1.56-.2-.74-.1-.33c0-.08-.08-.26-.06-.17A4.19,4.19,0,1,1,78,200Z"/><path class="cls-33" d="M73,195.05s5.94-.05,8,15.69c.39,2.94,1.69,10.49,1.69,10.49l-8.61,2.9-3-15.32Z"/><path class="cls-33" d="M59.35,192.11s-1.37,1.52-6,1.52-6-1.52-6-1.52l-2.7,1.42s1.73,2.85,8.72,2.85S62,193.54,62,193.54Z"/><path class="cls-34" d="M72.94,195.05C70.65,194,65.7,193.58,62,193.43l.2.1s-1.73,2.85-8.72,2.85-8.71-2.85-8.71-2.85l.21-.11c-3.78.14-9,.53-11.3,1.62l1.91,13.76s-1.15,37.12-1.54,38.52H72.57c-.4-1.4-1.54-38.52-1.54-38.52Z"/><g class="cls-9"><path class="cls-10" d="M51.55,169.36a4.87,4.87,0,0,0-.61,1.51,1.8,1.8,0,0,0,.27,1.44,2.25,2.25,0,0,0,1.24.8A2.91,2.91,0,0,0,54,173a2.2,2.2,0,0,1-1.64.46,2.23,2.23,0,0,1-1.5-.93,1.94,1.94,0,0,1-.22-1.74A3.51,3.51,0,0,1,51.55,169.36Z"/></g><path class="cls-11" d="M53.33,176.37a27.62,27.62,0,0,1-6.19-.44,6,6,0,0,0,6.19,4.69,6,6,0,0,0,6.19-4.69A27.63,27.63,0,0,1,53.33,176.37Z"/><path class="cls-35" d="M47.14,175.93s4-.35,5.63-.38a32.14,32.14,0,0,1,6.75.38A36,36,0,0,1,47.14,175.93Z"/><path class="cls-13" d="M47.66,176A3.69,3.69,0,0,0,50,177.23c3.42.67,8,.33,9.08-1.22A36.65,36.65,0,0,1,47.66,176Z"/><path class="cls-35" d="M59.52,175.93c-1.13,3.19-4.49,3.81-6.21,3.81s-5.22-.74-6.17-3.81c0,0,.86,5.2,6.2,5.42S59.52,175.93,59.52,175.93Z"/><path class="cls-5" d="M28,168.18h0a3.35,3.35,0,0,1-3.35-3.35h0A3.35,3.35,0,0,1,28,161.48h0c1.85,0,3.35,2.23,3.35,3.35S29.81,168.18,28,168.18Z"/><g class="cls-9"><path class="cls-10" d="M28,163.84a1.21,1.21,0,0,1,.86.22.84.84,0,0,1,0,1.57,1.22,1.22,0,0,1-.86.22,1.54,1.54,0,0,0,.74-.37.69.69,0,0,0,0-1.25A1.54,1.54,0,0,0,28,163.84Z"/></g><path class="cls-5" d="M78.69,168.18h0A3.35,3.35,0,0,0,82,164.84h0a3.35,3.35,0,0,0-3.35-3.35h0c-1.85,0-3.35,2.23-3.35,3.35S76.85,168.18,78.69,168.18Z"/><g class="cls-9"><path class="cls-10" d="M78.69,163.84a1.54,1.54,0,0,0-.74.37.69.69,0,0,0,0,1.25,1.54,1.54,0,0,0,.74.37,1.21,1.21,0,0,1-.86-.22.84.84,0,0,1,0-1.57A1.22,1.22,0,0,1,78.69,163.84Z"/></g><path class="cls-15" d="M46.24,166.26c.52,1.09-2.48,3.08-5.79,3.08s-6-2.66-6-3.68,2.69-3.68,6-3.68S45.92,165.58,46.24,166.26Z"/><circle class="cls-36" cx="40.61" cy="165.66" r="3.14"/><circle class="cls-37" cx="40.61" cy="165.66" r="1.27"/><path class="cls-4" d="M46.31,160.5a16.68,16.68,0,0,0-6.23-1.38,13.08,13.08,0,0,0-3.09.35,31.65,31.65,0,0,0-3.16,1,7.68,7.68,0,0,1,2.78-2.08,8.37,8.37,0,0,1,3.48-.75,8.58,8.58,0,0,1,3.47.77A7,7,0,0,1,46.31,160.5Z"/><path class="cls-15" d="M60.42,166.26c-.52,1.09,2.48,3.08,5.79,3.08s6-2.66,6-3.68-2.69-3.68-6-3.68S60.74,165.58,60.42,166.26Z"/><circle class="cls-36" cx="66.05" cy="165.66" r="3.14"/><circle class="cls-37" cx="66.05" cy="165.66" r="1.27"/><path class="cls-4" d="M60.35,160.5a7,7,0,0,1,2.75-2.12,8.58,8.58,0,0,1,3.47-.77,8.39,8.39,0,0,1,3.48.75,7.7,7.7,0,0,1,2.78,2.08,31.85,31.85,0,0,0-3.16-1,13.08,13.08,0,0,0-3.09-.35A16.7,16.7,0,0,0,60.35,160.5Z"/><path class="cls-8" d="M59.36,184.46a22.24,22.24,0,0,1-12.07,0h-.05a6.88,6.88,0,0,1,.31,7.85c.55.41,2.17,1.33,5.79,1.33s5.24-.92,5.79-1.33a6.88,6.88,0,0,1,.3-7.85Z"/><path class="cls-4" d="M36.35,126.57A6.1,6.1,0,0,0,29.81,123s1.49.41,3,2.89a5.41,5.41,0,0,0-5,1.47s4.15-.71,4.49.49,7.3,1.54,7.3,1.54l.52-2.6s-2.56-2.7,2.21-8A7.43,7.43,0,0,0,36.35,126.57Z"/><path class="cls-38" d="M392.17,149.1a10,10,0,0,0-.84-2.76,2.16,2.16,0,0,0,.85-1.09,3.62,3.62,0,0,0-1.64-4.47l-.06,0a4.72,4.72,0,0,0-.84-2.18,3.88,3.88,0,0,0-1.44-1.23,4.93,4.93,0,0,0-2.7-2.82,3.82,3.82,0,0,0-.09-1.57,4.14,4.14,0,0,0-2.39-2.73,5.67,5.67,0,0,0-.44-2.84,3.41,3.41,0,0,0-2.56-2.19,2.87,2.87,0,0,0-1.07,0,6.63,6.63,0,0,0-1.78-1.35,3,3,0,0,0-1.48-2.79,5.07,5.07,0,0,0-4.48-.12A6.65,6.65,0,0,0,370,119a3.21,3.21,0,0,0-3-.53,2.29,2.29,0,0,0-1.19-1.58,2.81,2.81,0,0,0-3.48.43,3.38,3.38,0,0,0-1.3-2.71c-1.62-1.25-3.89.16-5.34,1.18-.11-2.28-2.29-3-4.38-2.51a4.24,4.24,0,0,0-2.79,1.87c-1.09-1-3-.3-4.26.87a3.08,3.08,0,0,0-3.48-.65c-.81.39-1.87,1.65-1.49,2.5a3.42,3.42,0,0,0-2.74,1.51,3.59,3.59,0,0,0-.54,1,4.78,4.78,0,0,0-3.79-.23,4.25,4.25,0,0,0-2.3,1.61,2.2,2.2,0,0,0-.34-.14c-2.17-.64-4.39,1.63-5.49,3.21a4.57,4.57,0,0,0-.9,2.81,8.66,8.66,0,0,0-2.32,1.51,3,3,0,0,0-.59,3.15,3.82,3.82,0,0,0-1.48,3,7.44,7.44,0,0,0,1,2.68,5.26,5.26,0,0,0-2.08,3.23,6.34,6.34,0,0,0-.09,2.47c-2.13.39-3,4.79-1.32,6.39a4.17,4.17,0,0,0-.28.79,5.3,5.3,0,0,0,0,2.53,1.32,1.32,0,0,0-.85.35,3.28,3.28,0,0,0-.77,2.69,4.27,4.27,0,0,0,.66,2.08,6.85,6.85,0,0,0,1.69,5.35c-.8,1.24-.53,3.56,0,4.83a4.85,4.85,0,0,0,3.42,2.86c-.37,1.53,1.49,3.56,2.5,4.38a8.62,8.62,0,0,0,3.65,1.7c.42,2.06,3.57,4.85,5.51,4.8.49,2.27,3.44,5.06,5.11,3.75a4.86,4.86,0,0,0,2.48,2.17c1.16.45,2.86-.19,3.15-1.23a1.38,1.38,0,0,0,1.47.19c.95-.43,5.91-3,5.95-3.95,3.48.69,2.78,2,7.17,1.17a3.32,3.32,0,0,0,.2,1.32,3,3,0,0,0,2,2,3.41,3.41,0,0,0,4.26-2.09,2.23,2.23,0,0,0,3.81-1c2.32,1.77,7.1-.27,6.45-3.11,3.4,1.86,7.78-3,7-6.65,2.66,1.65,6.47-2.1,4.9-4.91,3.65.82,6.8-6.16,4.12-9,1.84-1.37,2.47-6.41.78-8C391.87,152.49,392.36,150.89,392.17,149.1Z"/><path class="cls-39" d="M380.78,158.37c0,13.3-13,28.08-29,28.08s-29-14.78-29-28.08,13-26.63,29-26.63S380.78,145.07,380.78,158.37Z"/><path class="cls-39" d="M335.88,302.73l1.4,18.1c.49.09,5.38.95,7.4.17l2.6-18.28Z"/><path class="cls-40" d="M337.24,320.83s5.38,1,7.48.17c0,0,1.6,5.35.51,8.15l-.06,1.4s-8.51.49-12,.49c-2.55,0-7.25-.6-7.42-1.23l.12-.55a3.64,3.64,0,0,1,2.68-4.27A28.16,28.16,0,0,0,337.24,320.83Z"/><path class="cls-39" d="M367.6,302.73l-1.4,18.1c-.48.09-5.38.95-7.41.17l-2.6-18.28Z"/><path class="cls-40" d="M366.25,320.83s-5.38,1-7.48.17c0,0-1.6,5.35-.51,8.15l.06,1.4s8.51.49,12,.49c2.55,0,7.24-.6,7.42-1.23l-.12-.55a3.64,3.64,0,0,0-2.68-4.27A28.13,28.13,0,0,1,366.25,320.83Z"/><path class="cls-41" d="M333.75,253.38l1.83,68.41h9.92s5.18-51.15,5.83-51.15h.83L358,321.78h10.17l1.59-68.41Z"/><rect class="cls-40" x="333.75" y="248.44" width="35.99" height="4.93"/><path class="cls-39" d="M327.7,253.94s1.37,1.31,1,6.47c-.22,3,1.49,4.33.46,5.1s-2.77-1.21-3.18-2.86a54,54,0,0,0-.24,5.63c0,2.1-1.64,3.19-2.37,1.33s.27-7.42.27-7.42-.24,3-.39,5.06c-.18,2.65-.64,3.48-1.64,3.38-1.66-.17-1.16-3.65-.48-6.88,0,0-.24,5.45-1.88,5.35s-1.64-2.64-.22-6.54c0,0-.4,3.66-2,3.13s.45-3.95,1.65-7,1.05-4.78,4.25-6.64C325.19,250.74,327.7,253.94,327.7,253.94Z"/><path class="cls-39" d="M335,203.85c0-.09,0,.09-.06.17l-.1.33-.2.73-.38,1.55c-.24,1.06-.49,2.13-.7,3.22-.43,2.17-.83,4.37-1.2,6.58-.72,4.42-1.52,8.88-2,13.28s-1,9-1.43,13.45l-.66,6.74-.56,6.44,0,.43a3.59,3.59,0,0,1-7.16-.43v-.45l0-.24,0-.44.07-.86.15-1.7.31-3.39.6-6.78c.41-4.52.82-9,1.29-13.58s1-9.1,1.65-13.64c.31-2.27.63-4.54,1-6.82l.57-3.45.34-1.76.2-.92.12-.49c.05-.2.07-.29.18-.64a4.18,4.18,0,0,1,7.93,2.66Z"/><path class="cls-28" d="M331.67,222.05,334,210l-1.92-13.75s-5.93-.05-8,15.68c-.34,2.58-1.39,8.73-1.63,10.17Z"/><path class="cls-39" d="M375.78,253.94s-1.37,1.31-1,6.47c.22,3-1.49,4.33-.46,5.1s2.76-1.21,3.18-2.86a55.06,55.06,0,0,1,.25,5.63c0,2.1,1.64,3.19,2.36,1.33s-.27-7.42-.27-7.42.24,3,.38,5.06c.18,2.65.64,3.48,1.64,3.38,1.66-.17,1.16-3.65.48-6.88,0,0,.24,5.45,1.89,5.35s1.63-2.64.22-6.54c0,0,.4,3.66,2,3.13s-.45-3.95-1.65-7-1.06-4.78-4.25-6.64C378.29,250.74,375.78,253.94,375.78,253.94Z"/><path class="cls-39" d="M376.42,201.18c.11.36.13.45.18.64l.11.49.2.92.34,1.76.58,3.45c.37,2.28.69,4.55,1,6.82.6,4.54,1.15,9,1.65,13.64s.89,9.05,1.29,13.57l.6,6.78.31,3.39.15,1.7.07.86,0,.44,0,.24v.45a3.59,3.59,0,0,1-7.16.44l0-.44-.56-6.44-.66-6.74c-.45-4.49-.92-9-1.43-13.45s-1.27-8.86-2-13.27c-.38-2.21-.78-4.41-1.2-6.58-.21-1.09-.45-2.16-.7-3.22l-.38-1.55-.2-.73-.1-.33c0-.08-.08-.26-.06-.17a4.18,4.18,0,1,1,7.93-2.66Z"/><path class="cls-28" d="M381,222.05c-.25-1.44-1.29-7.59-1.63-10.17-2.07-15.73-8-15.68-8-15.68L369.44,210l2.38,12.1Z"/><path class="cls-42" d="M371.33,196.21c-2.28-1.08-7.24-1.37-10.88-1.51h0s-1.49,2.18-8.47,2.18-8.74-2.18-8.74-2.18l.21-.11c-3.78.14-9,.53-11.29,1.62L334.06,210s-1.15,37.09-1.54,38.49H371c-.39-1.4-1.54-38.49-1.54-38.49Z"/><g class="cls-9"><path class="cls-10" d="M350,170.53a4.82,4.82,0,0,0-.61,1.5,1.79,1.79,0,0,0,.27,1.44,2.25,2.25,0,0,0,1.24.8,2.92,2.92,0,0,0,1.57-.1,2.2,2.2,0,0,1-1.64.46,2.23,2.23,0,0,1-1.5-.93,1.94,1.94,0,0,1-.22-1.74A3.5,3.5,0,0,1,350,170.53Z"/></g><path class="cls-11" d="M351.74,177.54a27.63,27.63,0,0,1-6.19-.44,6.43,6.43,0,0,0,12.37,0A27.64,27.64,0,0,1,351.74,177.54Z"/><path class="cls-43" d="M345.55,177.1s4-.35,5.62-.37a31.84,31.84,0,0,1,6.75.37A36.05,36.05,0,0,1,345.55,177.1Z"/><path class="cls-13" d="M346.07,177.19a3.67,3.67,0,0,0,2.34,1.21c3.42.67,8,.33,9.08-1.22A36.56,36.56,0,0,1,346.07,177.19Z"/><path class="cls-43" d="M357.92,177.1c-1.13,3.18-4.48,3.81-6.2,3.81s-5.22-.74-6.17-3.81c0,0,.86,5.19,6.2,5.41S357.92,177.1,357.92,177.1Z"/><path class="cls-15" d="M344.66,167.44c.52,1.09-2.48,3.08-5.79,3.08s-6-2.66-6-3.68,2.68-3.68,6-3.68S344.34,166.75,344.66,167.44Z"/><circle class="cls-38" cx="339.03" cy="166.84" r="3.13"/><circle class="cls-44" cx="339.03" cy="166.84" r="1.26"/><path class="cls-38" d="M344.72,161.68a16.65,16.65,0,0,0-6.23-1.38,13,13,0,0,0-3.09.35,31.63,31.63,0,0,0-3.15,1,7.67,7.67,0,0,1,2.77-2.08,8.38,8.38,0,0,1,3.48-.75,8.58,8.58,0,0,1,3.47.77A7.06,7.06,0,0,1,344.72,161.68Z"/><path class="cls-15" d="M358.82,167.44c-.52,1.09,2.48,3.08,5.79,3.08s6-2.66,6-3.68-2.68-3.68-6-3.68S359.14,166.75,358.82,167.44Z"/><circle class="cls-38" cx="364.45" cy="166.84" r="3.13"/><circle class="cls-44" cx="364.45" cy="166.84" r="1.26"/><path class="cls-38" d="M358.76,161.68a7,7,0,0,1,2.75-2.11,8.57,8.57,0,0,1,3.47-.77,8.38,8.38,0,0,1,3.48.75,7.67,7.67,0,0,1,2.77,2.08,31.63,31.63,0,0,0-3.15-1,13,13,0,0,0-3.09-.35A16.64,16.64,0,0,0,358.76,161.68Z"/><path class="cls-45" d="M357.77,185.62a22.25,22.25,0,0,1-12.06,0h-.05a6.88,6.88,0,0,1,.3,7.84c.55.41,2.17,1.33,5.78,1.33s5.23-.92,5.78-1.33a6.88,6.88,0,0,1,.3-7.84Z"/><path class="cls-28" d="M357.75,193.27s-1.37,1.52-6,1.52-6-1.52-6-1.52l-2.7,1.43s1.73,2.84,8.71,2.84,8.71-2.84,8.71-2.84Z"/><path class="cls-38" d="M385.61,165.47c1.6-2.06,2.2-6.43-.65-6.7,1.15-2.15,4.3-5.78,1.86-6.61.38-1.6-2.47-2.58-2.44-4.22,0-1.43-1.37-1.9-2.62-2.08,2.46-2.5-2.94-6.57-5.69-7.4,1-1.94-.71-3.86-2.39-4.91-2.28-1.42-4.82-.78-6.84.66-1.64-5.7-9.05-8.66-12.17-4.35-1.6-6.93-17.35-5.21-17.86,1.87-5-5.48-13.87,4.56-11.45,11.26-1.72.37-4.68,4.76-5.1,5.48a6.52,6.52,0,0,0-.46,4.59,5.11,5.11,0,0,0,1,2.47,4.52,4.52,0,0,0-1,1.64,8.58,8.58,0,0,0-.19,6.57,9.32,9.32,0,0,1,.49,3.82c0,.85,0,2.14.64,2.8a2.35,2.35,0,0,0,3.17,0,5,5,0,0,0,1.64,1.84c.77.51,1.2,2,2.11,1.45,1.29-.81.13-4.13-1-4.71.47-.37.88,0,.44-.84.84-.88.58-2.58-.27-3.8a2.36,2.36,0,0,0,2.42-3.58c2.4.12,6.58-1.7,5.79-3.88a5,5,0,0,0,4.29-1.06,2.67,2.67,0,0,0,.86-1.1,5.61,5.61,0,0,0,3.58-.23,3.7,3.7,0,0,0,3.14,2.66,6.3,6.3,0,0,0,3.36-1,3.92,3.92,0,0,0,1.69,1.34,4.76,4.76,0,0,0,5-.79h0a5.7,5.7,0,0,0,3.74,1.54,3.64,3.64,0,0,0,3.84-2.47,2.8,2.8,0,0,0,.75.17,1.82,1.82,0,0,0,1.23-.33,3.64,3.64,0,0,0,3.09,2.76,2.84,2.84,0,0,0,1.11-.17,2.78,2.78,0,0,0,0,.35c.33,1.5,1.69,2.17,3.11,2.38-.33,1.36-.13,3.15.9,3.76a5,5,0,0,0,.1,2.87c.23.6.59.32,1,.45-.26.76.46-.18.19.58a21.61,21.61,0,0,0-.84,2.59c.19,4.3,4.2.42,3.2-1.31.7,0,1.12-.69,1.34-1.46,1.34,1.29,3.36.19,4.28-1.36.74.24,1.77.27,2-.65C386.07,165.77,385.89,165.54,385.61,165.47Z"/><path class="cls-39" d="M326.39,169.36h0a3.34,3.34,0,0,1-3.34-3.34h0a3.34,3.34,0,0,1,3.34-3.35h0c1.85,0,3.35,2.22,3.35,3.35S328.24,169.36,326.39,169.36Z"/><g class="cls-9"><path class="cls-10" d="M326.39,165a1.21,1.21,0,0,1,.86.22.84.84,0,0,1,0,1.57,1.22,1.22,0,0,1-.86.22,1.54,1.54,0,0,0,.74-.37.69.69,0,0,0,0-1.25A1.53,1.53,0,0,0,326.39,165Z"/></g><path class="cls-39" d="M377.09,169.36h0a3.34,3.34,0,0,0,3.35-3.34h0a3.35,3.35,0,0,0-3.35-3.35h0c-1.85,0-3.34,2.22-3.34,3.35S375.24,169.36,377.09,169.36Z"/><g class="cls-9"><path class="cls-10" d="M377.09,165a1.54,1.54,0,0,0-.74.37.69.69,0,0,0,0,1.25,1.54,1.54,0,0,0,.74.37,1.22,1.22,0,0,1-.86-.22.84.84,0,0,1,0-1.57A1.21,1.21,0,0,1,377.09,165Z"/></g><path class="cls-5" d="M228.89,155.16c0,13.53-13.23,28.57-29.54,28.57s-29.54-15-29.54-28.57,13.22-27.09,29.54-27.09S228.89,141.62,228.89,155.16Z"/><path class="cls-27" d="M168,131.1c-11.48,20.1,6.73,38.91,6.73,38.91s-7.22-8.81.09-8.81c.67,0,1.34,3.39,3.43-2.65,1.3-3.76,21.19-10.58,20.1-19A17.14,17.14,0,0,0,211,150.23c20.41,4.45,7.55,18.13,11.86,11.07,1.2-2,5.79-2.88,2.52,6.39,0,0,12.88-20.56,4.15-38.44C221.74,113.34,180.91,108.57,168,131.1Z"/><path class="cls-5" d="M184.92,315.82l-.28,4.62c.49.09,5.48,1,7.53.18l-.19-4.8Z"/><path class="cls-46" d="M184.6,320.43s5.47,1,7.61.17c0,0,1.62,5.45.52,8.29l-.06,1.43s-8.66.49-12.21.49c-2.59,0-7.37-.61-7.55-1.25L173,329a3.7,3.7,0,0,1,2.72-4.34A28.67,28.67,0,0,0,184.6,320.43Z"/><path class="cls-5" d="M213.79,315.82l.28,4.62c-.49.09-5.48,1-7.53.18l.19-4.8Z"/><path class="cls-46" d="M214.11,320.43s-5.47,1-7.61.17c0,0-1.62,5.45-.52,8.29l.07,1.43s8.66.49,12.2.49c2.59,0,7.37-.61,7.56-1.25l-.13-.56a3.7,3.7,0,0,0-2.72-4.34A28.74,28.74,0,0,1,214.11,320.43Z"/><path class="cls-47" d="M181,251.81l1.63,69.58h10.19s5.39-52,6.06-52h.84l6.22,52h10.19l1.47-69.58Z"/><rect class="cls-46" x="181.05" y="246.79" width="36.61" height="5.02"/><path class="cls-5" d="M174.9,252.38s1.39,1.34,1,6.58c-.22,3.1,1.51,4.4.47,5.19s-2.81-1.23-3.24-2.91a54.48,54.48,0,0,0-.25,5.73c0,2.14-1.67,3.24-2.41,1.35s.28-7.55.28-7.55-.25,3-.39,5.15c-.19,2.7-.66,3.54-1.67,3.44-1.69-.18-1.18-3.71-.49-7,0,0-.25,5.54-1.92,5.45s-1.67-2.68-.23-6.66c0,0-.41,3.72-2,3.18s.46-4,1.68-7.12,1.08-4.86,4.33-6.76C172.34,249.13,174.9,252.38,174.9,252.38Z"/><path class="cls-5" d="M182.32,201.42c0-.09,0,.1-.06.17l-.1.34-.2.75-.39,1.58c-.25,1.07-.5,2.17-.71,3.28-.44,2.21-.84,4.45-1.23,6.7-.74,4.5-1.55,9-2,13.5s-1,9.11-1.46,13.69l-.67,6.86-.57,6.55,0,.44a3.65,3.65,0,0,1-7.29-.44v-.46l0-.24,0-.45.07-.88.15-1.73.31-3.45.61-6.9c.41-4.6.84-9.19,1.32-13.81s1.06-9.26,1.68-13.88c.31-2.31.64-4.62,1-6.94l.59-3.51.34-1.79.2-.93.12-.49c.05-.2.07-.29.18-.65a4.26,4.26,0,1,1,8.07,2.71Z"/><path class="cls-5" d="M223.81,252.38s-1.39,1.34-1,6.58c.23,3.1-1.51,4.4-.47,5.19s2.81-1.23,3.23-2.91a54.48,54.48,0,0,1,.25,5.73c0,2.14,1.67,3.24,2.41,1.35s-.28-7.55-.28-7.55.25,3,.39,5.15c.18,2.7.65,3.54,1.67,3.44,1.69-.18,1.18-3.71.49-7,0,0,.25,5.54,1.91,5.45s1.67-2.68.23-6.66c0,0,.41,3.72,2,3.18s-.46-4-1.68-7.12-1.08-4.86-4.33-6.76C226.36,249.13,223.81,252.38,223.81,252.38Z"/><path class="cls-5" d="M224.46,198.71c.11.36.13.45.18.65l.12.49.2.93.34,1.79.58,3.51c.37,2.32.7,4.63,1,6.94.61,4.62,1.17,9.19,1.68,13.88s.9,9.21,1.32,13.81l.61,6.9.31,3.45.15,1.73.07.88,0,.45,0,.24v.46a3.65,3.65,0,0,1-7.29.45l0-.45-.57-6.55-.67-6.86c-.46-4.57-.94-9.15-1.46-13.68s-1.29-9-2-13.51c-.39-2.25-.79-4.48-1.22-6.7-.21-1.1-.46-2.2-.71-3.28l-.39-1.58-.2-.75-.1-.34c0-.08-.08-.26-.06-.17a4.26,4.26,0,0,1,8.07-2.7Z"/><path class="cls-32" d="M180.56,214.74l.79-7.1-1.95-14s-6-.05-8.15,16c0,.28-.24,2.23-.52,5.14Z"/><path class="cls-32" d="M228,214.74c-.29-2.91-.49-4.86-.52-5.14-2.11-16-8.15-16-8.15-16l-1.95,14,.79,7.1Z"/><path class="cls-34" d="M220.43,193.95c-2.33-1.09-8.49-1.8-12.2-1.95l-4.27.49s3.76.64-3.34.64-9.91-1-9.91-1l.21-.11c-3.84.14-10.27.84-12.62,2l3.08,13.68s-1.17,37.73-1.56,39.16h39.11c-.4-1.43-1.57-39.16-1.57-39.16Z"/><g class="cls-9"><path class="cls-10" d="M197.55,167.53a5,5,0,0,0-.62,1.53,1.83,1.83,0,0,0,.27,1.46,2.28,2.28,0,0,0,1.26.82,3,3,0,0,0,1.6-.1,2.24,2.24,0,0,1-1.67.47,2.27,2.27,0,0,1-1.53-.95,2,2,0,0,1-.22-1.77A3.56,3.56,0,0,1,197.55,167.53Z"/></g><path class="cls-11" d="M199.35,174.66a28.11,28.11,0,0,1-6.3-.45,6.54,6.54,0,0,0,12.59,0A28.1,28.1,0,0,1,199.35,174.66Z"/><path class="cls-35" d="M193.06,174.21s4.09-.36,5.72-.38a32.39,32.39,0,0,1,6.87.38A36.68,36.68,0,0,1,193.06,174.21Z"/><path class="cls-13" d="M193.59,174.3a3.74,3.74,0,0,0,2.38,1.23c3.48.68,8.17.33,9.23-1.24A37.18,37.18,0,0,1,193.59,174.3Z"/><path class="cls-35" d="M205.64,174.21c-1.15,3.24-4.56,3.87-6.31,3.87s-5.31-.76-6.27-3.87c0,0,.88,5.28,6.31,5.51S205.64,174.21,205.64,174.21Z"/><path class="cls-5" d="M173.57,166.33h0a3.41,3.41,0,0,1-3.41-3.4h0a3.41,3.41,0,0,1,3.41-3.41h0c1.88,0,3.4,2.26,3.4,3.41S175.45,166.33,173.57,166.33Z"/><g class="cls-9"><path class="cls-10" d="M173.57,161.91a1.23,1.23,0,0,1,.87.22.86.86,0,0,1,0,1.59,1.23,1.23,0,0,1-.87.22,1.56,1.56,0,0,0,.75-.38.71.71,0,0,0,0-1.27A1.56,1.56,0,0,0,173.57,161.91Z"/></g><path class="cls-5" d="M225.14,166.33h0a3.4,3.4,0,0,0,3.4-3.4h0a3.4,3.4,0,0,0-3.4-3.41h0c-1.88,0-3.4,2.26-3.4,3.41S223.26,166.33,225.14,166.33Z"/><g class="cls-9"><path class="cls-10" d="M225.14,161.91a1.56,1.56,0,0,0-.75.38.71.71,0,0,0,0,1.27,1.56,1.56,0,0,0,.75.38,1.23,1.23,0,0,1-.87-.22.86.86,0,0,1,0-1.59A1.23,1.23,0,0,1,225.14,161.91Z"/></g><path class="cls-15" d="M192.15,164.38c.53,1.11-2.52,3.13-5.89,3.13s-6.12-2.7-6.1-3.74,2.73-3.74,6.1-3.74S191.82,163.68,192.15,164.38Z"/><circle class="cls-27" cx="186.43" cy="163.77" r="3.19"/><circle class="cls-30" cx="186.43" cy="163.77" r="1.29"/><path class="cls-27" d="M192.21,158.52a17,17,0,0,0-6.33-1.4,13.38,13.38,0,0,0-3.14.36,32.68,32.68,0,0,0-3.21,1,7.79,7.79,0,0,1,2.82-2.12,8.53,8.53,0,0,1,3.54-.76,8.73,8.73,0,0,1,3.53.78A7.16,7.16,0,0,1,192.21,158.52Z"/><path class="cls-15" d="M206.56,164.38c-.53,1.11,2.52,3.13,5.88,3.13s6.12-2.7,6.1-3.74-2.73-3.74-6.1-3.74S206.89,163.68,206.56,164.38Z"/><circle class="cls-27" cx="212.28" cy="163.77" r="3.19"/><circle class="cls-30" cx="212.28" cy="163.96" r="1.29"/><path class="cls-27" d="M206.5,158.52a7.14,7.14,0,0,1,2.79-2.16,8.71,8.71,0,0,1,3.53-.78,8.53,8.53,0,0,1,3.54.76,7.81,7.81,0,0,1,2.82,2.12,32.68,32.68,0,0,0-3.21-1,13.37,13.37,0,0,0-3.14-.36A17,17,0,0,0,206.5,158.52Z"/><path class="cls-8" d="M205.49,182.88a22.64,22.64,0,0,1-12.27,0h-.06a7,7,0,0,1,.31,8c.56.42,2.21,1.35,5.88,1.35s5.33-.93,5.88-1.35a7,7,0,0,1,.31-8Z"/><path class="cls-32" d="M205.47,190.66s-1.39,1.55-6.11,1.55-6.12-1.55-6.12-1.55l-2.74,1.45s1.76,2.89,8.86,2.89,8.86-2.89,8.86-2.89Z"/><path class="cls-27" d="M208.46,118.16s-9.35-9.46-21.6-9.87c0,0,4.17,1.63,4.17,2.71,0,0-5.43-1.77-10,0l5.88,1.22s-5.05,0-8.45,1.49l20,4.62L213,124.58Z"/></g></g></g></svg>