<svg xmlns="http://www.w3.org/2000/svg" xmlns:xlink="http://www.w3.org/1999/xlink" viewBox="0 0 500 470"><defs><style>.cls-1{isolation:isolate;}.cls-2{fill:none;}.cls-3{fill:#73c8ea;}.cls-4{fill:#383433;}.cls-5{fill:#f0beac;}.cls-6{fill:#d9ac40;}.cls-7{fill:#404041;}.cls-8{fill:#dbaf9e;}.cls-9{mix-blend-mode:multiply;}.cls-10{fill:#bbbdbf;}.cls-11{fill:#782a27;}.cls-12{fill:#f37e69;}.cls-13{fill:#f1f1f2;}.cls-14{fill:#ec9887;}.cls-15{fill:#e2ebe3;}.cls-16{fill:url(#Fundido_en_negro);}.cls-17{fill:#603813;}.cls-18{fill:url(#ViÒeta_negra_s_per_suave);}.cls-19{fill:url(#ViÒeta_negra_s_per_suave-2);}.cls-20{fill:url(#Fundido_en_negro-2);}.cls-21{fill:url(#ViÒeta_negra_s_per_suave-3);}.cls-22{fill:url(#ViÒeta_negra_s_per_suave-4);}.cls-23{fill:#9e2a31;}.cls-24{fill:#f8bcbf;}.cls-25{fill:#936245;}.cls-26{fill:#4f321d;}.cls-27{fill:#522419;}.cls-28{fill:#ed4634;}.cls-29{fill:#aaa4c5;}.cls-30{fill:#2f0700;}.cls-31{fill:#124d61;}.cls-32{fill:#2b7c98;}.cls-33{fill:#ea4f56;}.cls-34{fill:#d4d6d7;}.cls-35{fill:#daa390;}.cls-36{fill:#a3563f;}.cls-37{fill:#632f1e;}.cls-38{fill:#563b2e;}.cls-39{fill:#ba7c66;}.cls-40{fill:#111a2a;}.cls-41{fill:#3c495f;}.cls-42{fill:#f59e76;}.cls-43{fill:#b8674c;}.cls-44{fill:#230a00;}.cls-45{fill:#91614f;}.cls-46{fill:#3d0000;}.cls-47{fill:#721c1e;}.cls-48{fill:#fbae17;}.cls-49{fill:#be8f30;}.cls-50{fill:#dd8b19;}.cls-51{fill:#ecb66d;}.cls-52{fill:#f0cac0;}.cls-53{fill:#ed4261;}.cls-54{fill:#e0bdb4;}.cls-55{fill:#eda390;}.cls-56{fill:#a4dad7;}.cls-57{fill:#260f01;}.cls-58{fill:#4d5851;}.cls-59{fill:#626d65;}.cls-60{fill:#6fb0a0;}.cls-61{fill:#5a3b25;}.cls-62{fill:#5a4a42;}.cls-63{fill:#20160f;}</style><linearGradient id="Fundido_en_negro" x1="410.97" y1="283.83" x2="417.3" y2="283.83" gradientUnits="userSpaceOnUse"><stop offset="0" stop-color="#231f20"/><stop offset="0.09" stop-color="#231f20"/><stop offset="1" stop-color="#231f20"/></linearGradient><radialGradient id="ViÒeta_negra_s_per_suave" cx="417.46" cy="285.82" r="1.33" gradientUnits="userSpaceOnUse"><stop offset="0.57" stop-color="#130c0e"/><stop offset="0.8" stop-color="#130c0e"/><stop offset="1" stop-color="#130c0e"/></radialGradient><radialGradient id="ViÒeta_negra_s_per_suave-2" cx="416.89" cy="278.85" r="4.78" xlink:href="#ViÒeta_negra_s_per_suave"/><linearGradient id="Fundido_en_negro-2" x1="444.46" y1="283.83" x2="450.79" y2="283.83" xlink:href="#Fundido_en_negro"/><radialGradient id="ViÒeta_negra_s_per_suave-3" cx="444.3" cy="285.82" r="1.34" xlink:href="#ViÒeta_negra_s_per_suave"/><radialGradient id="ViÒeta_negra_s_per_suave-4" cx="444.87" cy="278.85" r="4.78" xlink:href="#ViÒeta_negra_s_per_suave"/></defs><title>Feedback3</title><g class="cls-1"><g id="Capa_2" data-name="Capa 2"><g id="Layer_1" data-name="Layer 1"><rect class="cls-2" width="500" height="470"/><ellipse class="cls-3" cx="246.29" cy="453.44" rx="236.86" ry="8.73"/><path class="cls-4" d="M451.49,306.88l-12.64-.18,24.47-24.19L457.65,302C457.52,302,451.49,306.88,451.49,306.88Z"/><path class="cls-4" d="M454.36,302.5c4.33-2.63,13.71-1.08,14.88,16.65s-8.39,18.45-3.53,33.37c0,0-10-4-9.56-20.44C456.54,318.22,445.77,307.71,454.36,302.5Z"/><path class="cls-4" d="M410.27,306.88l12.64-.18L398.74,283,404.11,302C404.23,302,410.27,306.88,410.27,306.88Z"/><path class="cls-4" d="M407.39,302.5c-4.32-2.63-13.71-1.08-14.87,16.65s8.39,18.45,3.53,33.37c0,0,10-4,9.56-20.44C405.22,318.22,416,307.71,407.39,302.5Z"/><path class="cls-5" d="M406.92,370.54s1.4,1.24,1,6.09c-.22,2.88,1.52,4.08.48,4.8s-2.82-1.14-3.25-2.7a46.89,46.89,0,0,0-.25,5.3c0,2-1.67,3-2.41,1.26s.28-7,.28-7-.25,2.79-.4,4.77c-.19,2.5-.65,3.28-1.68,3.18-1.7-.17-1.18-3.44-.49-6.48,0,0-.24,5.13-1.92,5s-1.67-2.48-.23-6.17c0,0-.41,3.45-2,2.95s.46-3.72,1.68-6.59,1.08-4.51,4.34-6.26C404.36,367.52,406.92,370.54,406.92,370.54Z"/><path class="cls-5" d="M417.22,325c0-.11,0,0-.06.08l-.13.25-.28.58c-.19.41-.37.85-.55,1.3-.36.9-.7,1.83-1,2.79-.65,1.91-1.24,3.89-1.78,5.88-1.09,4-2,8.1-2.84,12.24s-1.53,8.27-2.2,12.49-1.29,8.44-1.88,12.65h0a2.63,2.63,0,0,1-5.22-.49c.2-4.3.43-8.58.7-12.88s.58-8.64,1.08-13,1.07-8.64,1.86-13c.4-2.17.84-4.35,1.38-6.55.27-1.1.57-2.2.91-3.33.17-.56.35-1.13.56-1.72l.33-.9.2-.48c.08-.19.12-.29.29-.64a4.9,4.9,0,0,1,8.63,4.64Z"/><path class="cls-5" d="M454.84,370.54s-1.4,1.24-1,6.09c.23,2.88-1.52,4.08-.47,4.8s2.82-1.14,3.24-2.7a46.24,46.24,0,0,1,.26,5.3c0,2,1.67,3,2.41,1.26s-.28-7-.28-7,.25,2.79.4,4.77c.18,2.5.66,3.28,1.68,3.18,1.69-.17,1.18-3.44.49-6.48,0,0,.25,5.13,1.92,5s1.67-2.48.23-6.17c0,0,.41,3.45,2,2.95s-.46-3.72-1.68-6.59-1.08-4.51-4.34-6.26C457.4,367.52,454.84,370.54,454.84,370.54Z"/><path class="cls-5" d="M453.17,320.4c.17.34.21.45.29.64l.2.48.33.9c.2.58.39,1.15.56,1.72.34,1.13.63,2.23.91,3.33.54,2.2,1,4.38,1.38,6.55.79,4.34,1.38,8.67,1.86,13s.8,8.68,1.07,13,.5,8.58.7,12.88a2.62,2.62,0,0,1-5.22.5v0c-.59-4.22-1.22-8.45-1.88-12.65s-1.36-8.36-2.2-12.49-1.75-8.23-2.84-12.24c-.54-2-1.13-4-1.78-5.88-.32-1-.66-1.89-1-2.79-.18-.45-.36-.88-.55-1.29l-.28-.58-.13-.25c0-.05-.11-.19-.06-.08a4.9,4.9,0,0,1,8.63-4.64Z"/><path class="cls-5" d="M431.13,374.51l-3.43,75.19a4.91,4.91,0,0,1-9.81,0l-3.43-75.19a8.34,8.34,0,1,1,16.66-.76C431.15,374,431.14,374.26,431.13,374.51Z"/><path class="cls-6" d="M422.8,442.11c-4.2,0-5.19,1.16-5.19,1.16l.29,6.43a4.91,4.91,0,0,0,9.81,0l.29-6.43S427,442.11,422.8,442.11Zm4.32,3.47s.18,3.5-4.23,3.5-4.41-3.5-4.41-3.5l-.07-1.54s.84-1,4.39-1,4.39,1,4.39,1Z"/><path class="cls-5" d="M447.29,374.51l-3.43,75.19a4.91,4.91,0,0,1-9.81,0l-3.43-75.19a8.34,8.34,0,1,1,16.66-.76C447.3,374,447.3,374.26,447.29,374.51Z"/><path class="cls-6" d="M433.76,443.26l.29,6.43a4.91,4.91,0,0,0,9.81,0l.29-6.43s-1-1.16-5.2-1.16S433.76,443.26,433.76,443.26Zm.8.77s.84-1,4.39-1,4.39,1,4.39,1l-.07,1.54s0,3.5-4.41,3.5-4.23-3.5-4.23-3.5Z"/><path class="cls-6" d="M447.23,357a47.62,47.62,0,0,1-.48-26.86l2.19-12.24c-4.41-2-13.35-1.91-13.35-1.91h-9.42s-8.94-.13-13.35,1.91L415,330.1a47.6,47.6,0,0,1-.48,26.86c-4.61,14.15-12.8,53.83-12.8,53.83H460S451.84,371.11,447.23,357Z"/><path class="cls-7" d="M430.88,307.31c-11.56,0-21.71-6.82-27.52-15.66.24,5.62,2.25,5.93,4.62,10.33,0,0,8.88,5.33,22.9,5.33,11.8,0,14.7-3,22.9-5.33,2.37-4.39,4.38-4.7,4.62-10.33C452.58,300.49,442.44,307.31,430.88,307.31Z"/><path class="cls-8" d="M438.85,316.48s-4.68-5.12-.55-10.1l-6.64-.12v0H430.1v0l-6.64.12c4.13,5-.55,10.1-.55,10.1a17.56,17.56,0,0,0,15.94,0Z"/><path class="cls-5" d="M463.57,275.7c0,15-14.63,31.62-32.69,31.62s-32.69-16.64-32.69-31.62,14.63-25.58,32.69-25.58S463.57,260.72,463.57,275.7Z"/><g class="cls-9"><path class="cls-10" d="M429,289.49a5.07,5.07,0,0,0-.64,1.58,1.89,1.89,0,0,0,.28,1.51,2.36,2.36,0,0,0,1.3.84,3.07,3.07,0,0,0,1.65-.1,2.31,2.31,0,0,1-1.72.49,2.34,2.34,0,0,1-1.58-1,2,2,0,0,1-.23-1.82A3.68,3.68,0,0,1,429,289.49Z"/></g><path class="cls-11" d="M430.88,296.83a29.17,29.17,0,0,1-6.48-.46s.15,6.12,6.48,6.12,6.48-6.12,6.48-6.12A29.18,29.18,0,0,1,430.88,296.83Z"/><path class="cls-12" d="M428,302a7.31,7.31,0,0,0,2.83.52,6,6,0,0,0,5.1-2.26,3.92,3.92,0,0,0-2.75-.39c-1.18.25-.94.88-1.45.78C428.86,300.11,428,302,428,302Z"/><path class="cls-13" d="M436.36,296.55h0a42.47,42.47,0,0,1-5.48.28,37.34,37.34,0,0,1-6-.36h0s-.07,1.48,2.35,2C430.88,299.25,436.14,298.66,436.36,296.55Z"/><path class="cls-14" d="M424.4,296.37s5.25-1.11,6.11-.67c1.19.62-.29-.95,6.86.67A37.78,37.78,0,0,1,424.4,296.37Z"/><path class="cls-14" d="M437.36,296.37a6.54,6.54,0,0,1-13,0s-.37,7.16,6.5,7.16S437.36,296.37,437.36,296.37Z"/><path class="cls-4" d="M430.88,250.11c-25.81-8-38.46,14.68-34,31.07C400.84,295.87,408,302,408,302c-5-9.21-3.85-21.56-3.85-21.56,2.44-8.55,3.32-12.37,26.42-12.37s24.68,3.77,27.09,12.37c0,0,1.13,12.35-3.85,21.56,0,0,8.13-5.11,11.08-20C468.13,265.35,457.87,242.75,430.88,250.11Z"/><path class="cls-5" d="M403,293.17h0a3.68,3.68,0,0,1-3.68-3.68h0a3.68,3.68,0,0,1,3.68-3.68h0c2,0,3.68,2.45,3.68,3.68S405,293.17,403,293.17Z"/><g class="cls-9"><path class="cls-10" d="M403,288.39a1.33,1.33,0,0,1,.95.24,1.28,1.28,0,0,1,.59.86,1.26,1.26,0,0,1-.59.86,1.35,1.35,0,0,1-1,.24,1.69,1.69,0,0,0,.82-.41,1.19,1.19,0,0,0,.44-.69,1.22,1.22,0,0,0-.44-.69A1.68,1.68,0,0,0,403,288.39Z"/></g><path class="cls-5" d="M458.76,293.17h0a3.68,3.68,0,0,0,3.68-3.68h0a3.68,3.68,0,0,0-3.68-3.68h0c-2,0-3.68,2.45-3.68,3.68S456.73,293.17,458.76,293.17Z"/><g class="cls-9"><path class="cls-10" d="M458.76,288.39a1.69,1.69,0,0,0-.81.41.76.76,0,0,0,0,1.38,1.7,1.7,0,0,0,.82.41,1.34,1.34,0,0,1-.95-.24,1.27,1.27,0,0,1-.59-.86,1.29,1.29,0,0,1,.59-.86A1.33,1.33,0,0,1,458.76,288.39Z"/></g><path class="cls-15" d="M423.41,286.46c.55,1.15-2.61,3.25-6.11,3.25S411,286.9,411,285.82s2.83-3.88,6.33-3.88S423.07,285.73,423.41,286.46Z"/><path class="cls-16" d="M411,285.82a3.48,3.48,0,0,1,.83-1.85,5.84,5.84,0,0,1,1.57-1.31,5.53,5.53,0,0,1,3.92-.72,13.73,13.73,0,0,0-3.52,1.41A8.19,8.19,0,0,0,411,285.82Z"/><circle class="cls-17" cx="417.46" cy="285.82" r="3.31"/><circle class="cls-18" cx="417.46" cy="285.82" r="1.33"/><path class="cls-19" d="M423.47,280.37a17.57,17.57,0,0,0-6.57-1.46,13.83,13.83,0,0,0-3.26.37,33.62,33.62,0,0,0-3.33,1,8.12,8.12,0,0,1,2.93-2.2,8.85,8.85,0,0,1,3.67-.79,9.05,9.05,0,0,1,3.66.81A7.44,7.44,0,0,1,423.47,280.37Z"/><path class="cls-15" d="M438.35,286.46c-.54,1.15,2.62,3.25,6.11,3.25s6.35-2.81,6.33-3.88-2.83-3.88-6.33-3.88S438.7,285.73,438.35,286.46Z"/><path class="cls-20" d="M450.79,285.82a8.19,8.19,0,0,0-2.81-2.47,13.73,13.73,0,0,0-3.52-1.41,5.54,5.54,0,0,1,3.92.72A5.88,5.88,0,0,1,450,284,3.49,3.49,0,0,1,450.79,285.82Z"/><circle class="cls-17" cx="444.3" cy="285.82" r="3.31"/><circle class="cls-21" cx="444.3" cy="285.82" r="1.34"/><path class="cls-22" d="M438.29,280.37a7.44,7.44,0,0,1,2.9-2.23,9,9,0,0,1,3.66-.81,8.86,8.86,0,0,1,3.67.79,8.13,8.13,0,0,1,2.93,2.2,33.62,33.62,0,0,0-3.33-1,13.79,13.79,0,0,0-3.26-.37A17.58,17.58,0,0,0,438.29,280.37Z"/><polygon class="cls-4" points="408.5 278.92 408.92 280.75 411.43 280.75 412.16 276.27 412.16 280.75 418.29 280.75 420 266.48 420 280.75 423.4 280.75 423.4 277.3 424.32 280.75 427.19 280.75 427.44 278.33 427.54 280.75 428.94 280.75 428.94 275.17 430.21 280.75 433.15 280.75 434.22 276.42 434.82 280.75 439.23 280.75 440.04 273.17 440.39 280.75 446.07 280.75 446.36 275.9 447.34 280.75 451.15 280.75 450.79 275.45 452.97 280.75 454.76 280.75 452.31 257.22 409.47 257.22 407 280.75 408.13 280.75 408.5 278.92"/><path class="cls-5" d="M110.61,374.52s1.36,1.21,1,5.94c-.22,2.8,1.48,4,.46,4.68s-2.75-1.11-3.17-2.63a45.74,45.74,0,0,0-.25,5.17c0,1.93-1.63,2.93-2.35,1.22s.27-6.81.27-6.81-.24,2.71-.39,4.65c-.18,2.44-.64,3.2-1.64,3.11-1.66-.16-1.15-3.35-.48-6.32,0,0-.24,5-1.87,4.92s-1.63-2.42-.22-6c0,0-.4,3.36-2,2.87s.45-3.62,1.64-6.43,1.05-4.39,4.23-6.1C108.11,371.57,110.61,374.52,110.61,374.52Z"/><path class="cls-5" d="M120.66,330.15c0-.11,0,0-.06.08l-.13.24-.27.57c-.18.4-.36.83-.53,1.26-.35.87-.68,1.79-1,2.72-.63,1.86-1.2,3.79-1.73,5.74-1.06,3.9-2,7.9-2.77,11.93s-1.5,8.06-2.14,12.18-1.25,8.23-1.83,12.34h0a2.56,2.56,0,0,1-5.09-.48c.2-4.19.42-8.37.69-12.56s.56-8.43,1.05-12.63,1-8.43,1.81-12.66c.39-2.12.82-4.24,1.35-6.39.26-1.07.55-2.15.88-3.25.17-.55.34-1.1.54-1.67l.32-.88.19-.47c.08-.19.12-.29.29-.62a4.78,4.78,0,0,1,8.42,4.53Z"/><path class="cls-5" d="M157.34,374.52s-1.37,1.21-1,5.94c.22,2.8-1.48,4-.46,4.68s2.75-1.11,3.16-2.63a44.79,44.79,0,0,1,.25,5.17c0,1.93,1.63,2.93,2.36,1.22s-.27-6.81-.27-6.81.24,2.71.39,4.65c.18,2.44.64,3.2,1.63,3.11,1.66-.16,1.15-3.35.48-6.32,0,0,.24,5,1.87,4.92s1.63-2.42.22-6c0,0,.4,3.36,2,2.87s-.45-3.62-1.64-6.43-1.05-4.39-4.23-6.1C159.84,371.57,157.34,374.52,157.34,374.52Z"/><path class="cls-5" d="M155.72,325.62c.17.34.2.43.29.62l.19.47.33.88c.2.57.38,1.12.54,1.67.33,1.1.62,2.17.88,3.25.53,2.14,1,4.27,1.35,6.39.77,4.24,1.34,8.45,1.81,12.66s.78,8.46,1,12.63.49,8.36.69,12.56a2.56,2.56,0,0,1-5.09.49v0c-.58-4.11-1.19-8.24-1.83-12.34s-1.33-8.15-2.14-12.18-1.71-8-2.77-11.93c-.53-1.95-1.1-3.88-1.73-5.74-.32-.93-.65-1.84-1-2.72-.17-.44-.35-.86-.53-1.26l-.27-.57-.13-.24s-.1-.19-.06-.08a4.78,4.78,0,1,1,8.42-4.53Z"/><path class="cls-5" d="M134.23,378.38l-3.34,73.32a4.79,4.79,0,0,1-9.56,0L118,378.38a8.13,8.13,0,1,1,16.25-.74C134.24,377.89,134.24,378.14,134.23,378.38Z"/><path class="cls-23" d="M126.1,444.3c-4.1,0-5.07,1.13-5.07,1.13l.29,6.28a4.78,4.78,0,0,0,9.56,0l.29-6.28S130.2,444.3,126.1,444.3Zm4.21,3.38s.17,3.42-4.12,3.42-4.3-3.42-4.3-3.42l-.07-1.5s.82-1,4.28-1,4.28,1,4.28,1Z"/><path class="cls-5" d="M150,378.38l-3.34,73.32a4.79,4.79,0,0,1-9.56,0l-3.34-73.32a8.13,8.13,0,1,1,16.25-.74C150,377.89,150,378.14,150,378.38Z"/><path class="cls-23" d="M136.79,445.43l.28,6.28a4.79,4.79,0,0,0,9.56,0l.29-6.28s-1-1.13-5.07-1.13S136.79,445.43,136.79,445.43Zm.78.75s.82-1,4.28-1,4.28,1,4.28,1l-.07,1.5s0,3.42-4.3,3.42-4.13-3.42-4.13-3.42Z"/><path class="cls-24" d="M118,361.27c-.78,2.39-1.66,5.51-2.59,9.06H152.5c-.93-3.54-1.81-6.67-2.58-9.06a46.42,46.42,0,0,1-.47-26.19l2.14-11.94c-4.3-2-13-1.86-13-1.86h-9.19s-8.72-.12-13,1.86l2.14,11.94A46.41,46.41,0,0,1,118,361.27Z"/><path class="cls-23" d="M116.43,370.27c-1.95,17.12.52,41.45.52,41.45h16.3L134,384l.81,27.77H151s2.47-24.34.52-41.45Z"/><path class="cls-25" d="M134,312.86c-11.27,0-21.17-6.65-26.84-15.27.24,5.48,2.19,5.78,4.51,10.07,0,0,6,6.35,22.33,5.2,11.48-.81,16.33-1.07,22.33-5.2,2.31-4.29,4.27-4.59,4.51-10.07C155.14,306.21,145.25,312.86,134,312.86Z"/><path class="cls-8" d="M141.75,321.8s-4.56-5-.53-9.85l-6.48-.12v0h-1.52v0l-6.47.12c4,4.86-.53,9.85-.53,9.85a17.12,17.12,0,0,0,15.54,0Z"/><path class="cls-5" d="M165.86,282c0,14.61-14.27,30.83-31.88,30.83S102.1,296.64,102.1,282s14.27-24.94,31.87-24.94S165.86,267.42,165.86,282Z"/><g class="cls-9"><path class="cls-10" d="M132.17,295.48a5,5,0,0,0-.63,1.54,1.85,1.85,0,0,0,.27,1.47,2.28,2.28,0,0,0,1.27.82,3,3,0,0,0,1.61-.1,2.25,2.25,0,0,1-1.67.47,2.27,2.27,0,0,1-1.54-1,2,2,0,0,1-.22-1.78A3.59,3.59,0,0,1,132.17,295.48Z"/></g><path class="cls-11" d="M134,302.64a28.44,28.44,0,0,1-6.32-.45s.15,6,6.32,6,6.32-6,6.32-6A28.45,28.45,0,0,1,134,302.64Z"/><path class="cls-12" d="M131.22,307.66a7.08,7.08,0,0,0,2.76.51,5.87,5.87,0,0,0,5-2.21,3.85,3.85,0,0,0-2.69-.38c-1.15.25-.91.86-1.41.76C132,305.83,131.22,307.66,131.22,307.66Z"/><path class="cls-13" d="M139.32,302.36h0a41.11,41.11,0,0,1-5.34.28,36.81,36.81,0,0,1-5.85-.35h0s-.07,1.45,2.29,2C134,305,139.11,304.43,139.32,302.36Z"/><path class="cls-14" d="M127.66,302.19s5.12-1.08,6-.65c1.16.6-.29-.93,6.69.65A36.84,36.84,0,0,1,127.66,302.19Z"/><path class="cls-14" d="M140.29,302.19a6.38,6.38,0,0,1-12.64,0s-.36,7,6.33,7S140.29,302.19,140.29,302.19Z"/><path class="cls-25" d="M119.06,258.38c-17,1.17-18.8,14.45-17.63,26.35,1.45,14.77,10.22,22.93,10.22,22.93-4.85-9-3.76-21-3.76-21,14.3-7.6,11.17-11.73,11.17-11.73,13.23,13.12,38.66,3.34,41,11.73,0,0,1.1,12-3.76,21,0,0,8.82-8.13,10.22-22.93C168.41,264.92,147.22,242,119.06,258.38Z"/><path class="cls-5" d="M106.79,299.07h0a3.59,3.59,0,0,1-3.59-3.59h0a3.59,3.59,0,0,1,3.59-3.59h0c2,0,3.59,2.38,3.59,3.59S108.77,299.07,106.79,299.07Z"/><g class="cls-9"><path class="cls-10" d="M106.79,294.41a1.3,1.3,0,0,1,.92.23.9.9,0,0,1,0,1.68,1.3,1.3,0,0,1-.92.23,1.63,1.63,0,0,0,.79-.4.74.74,0,0,0,0-1.34A1.66,1.66,0,0,0,106.79,294.41Z"/></g><path class="cls-5" d="M161.17,299.07h0a3.59,3.59,0,0,0,3.59-3.59h0a3.59,3.59,0,0,0-3.59-3.59h0c-2,0-3.59,2.38-3.59,3.59S159.18,299.07,161.17,299.07Z"/><g class="cls-9"><path class="cls-10" d="M161.17,294.41a1.64,1.64,0,0,0-.79.4.74.74,0,0,0,0,1.34,1.62,1.62,0,0,0,.79.4,1.3,1.3,0,0,1-.92-.23.9.9,0,0,1,0-1.68A1.31,1.31,0,0,1,161.17,294.41Z"/></g><path class="cls-15" d="M126.69,292.52c.53,1.12-2.55,3.16-6,3.16s-6.19-2.74-6.17-3.79,2.76-3.78,6.17-3.78S126.36,291.82,126.69,292.52Z"/><path class="cls-25" d="M114.56,291.9a3.4,3.4,0,0,1,.81-1.8,5.77,5.77,0,0,1,1.53-1.28,5.4,5.4,0,0,1,3.82-.7,13.39,13.39,0,0,0-3.43,1.38A8,8,0,0,0,114.56,291.9Z"/><circle class="cls-25" cx="120.89" cy="291.9" r="3.23"/><circle class="cls-26" cx="120.89" cy="291.9" r="1.3"/><path class="cls-25" d="M126.75,286.59a17.17,17.17,0,0,0-6.41-1.42,13.48,13.48,0,0,0-3.18.36,32.85,32.85,0,0,0-3.25,1,7.92,7.92,0,0,1,2.86-2.14,8.63,8.63,0,0,1,3.58-.77,8.81,8.81,0,0,1,3.57.79A7.24,7.24,0,0,1,126.75,286.59Z"/><path class="cls-15" d="M141.26,292.52c-.53,1.12,2.56,3.16,6,3.16s6.19-2.74,6.17-3.79-2.76-3.78-6.17-3.78S141.6,291.82,141.26,292.52Z"/><path class="cls-25" d="M153.39,291.9a8,8,0,0,0-2.74-2.4,13.43,13.43,0,0,0-3.43-1.38,5.39,5.39,0,0,1,3.82.7,5.7,5.7,0,0,1,1.53,1.28A3.41,3.41,0,0,1,153.39,291.9Z"/><circle class="cls-25" cx="147.06" cy="291.9" r="3.23"/><circle class="cls-26" cx="147.06" cy="291.9" r="1.3"/><path class="cls-25" d="M141.2,286.59a7.25,7.25,0,0,1,2.83-2.18,8.83,8.83,0,0,1,3.57-.79,8.63,8.63,0,0,1,3.58.77,7.9,7.9,0,0,1,2.86,2.14,32.85,32.85,0,0,0-3.25-1,13.48,13.48,0,0,0-3.18-.36A17.16,17.16,0,0,0,141.2,286.59Z"/><path class="cls-24" d="M116.37,323.15s-8.24-1-7.07,12.62l7.81,4.24,2-4.74Z"/><path class="cls-24" d="M151.55,323.15s8.24-1,7.07,12.62L150.82,340l-2-4.74Z"/><path class="cls-25" d="M123.1,346.89a3.17,3.17,0,0,0-4.2.88l-.34.19s-6.51,5.2.85,17.17a9.46,9.46,0,0,1,5.24-6.28C129.19,356.6,125.56,348.39,123.1,346.89Z"/><path class="cls-25" d="M127.44,312.92c-.25-1.15-5.24-.64-7.77-2.79-.92-.3-12.37-8.3-12-7.39,1.47,3.18,6.63,10,6.88,11.57a8.9,8.9,0,0,0,2.3,4.08,4.12,4.12,0,0,0-.56,2.13,6.45,6.45,0,0,0,1.17,3,8.86,8.86,0,0,0,1.07,1.33c-1.1,1.16-2.11,2.24-1.78,4.06a4,4,0,0,0,.95,1.89c-2.51,2.31-1.55,4.71-.65,6.46a2.61,2.61,0,0,0-.94,2.74,5.43,5.43,0,0,0,1.47,2.61,3.89,3.89,0,0,0-1.29,2c-1.41,5.3,10.71,4.68,9.39-1.92a4.53,4.53,0,0,0-.65-1.32,4,4,0,0,0,1.24-3.18,3.49,3.49,0,0,0-.67-1.88c1.53-.92,1.54-2.58.76-4.06,2.16-1.52,1.81-5.33.52-7.48,1.1-1.18,1.14-2.8-.09-4.42a4,4,0,0,0-.39-.41C127.62,317.1,128.13,316.12,127.44,312.92Z"/><path class="cls-27" d="M280.1,288.44c-14,0-26.24-3.67-33.26-14.34.29,6.79-6.12,106.14,33.24,106.14S313,280.89,313.32,274.1C306.29,284.78,294.05,288.44,280.1,288.44Z"/><path class="cls-5" d="M256.12,371.25s1.4,1.24,1,6.1c-.23,2.87,1.52,4.08.47,4.8s-2.82-1.14-3.25-2.7a46.26,46.26,0,0,0-.25,5.31c0,2-1.67,3-2.42,1.25s.28-7,.28-7-.25,2.78-.39,4.77c-.19,2.5-.66,3.28-1.68,3.19-1.7-.17-1.18-3.44-.49-6.48,0,0-.24,5.14-1.92,5s-1.67-2.48-.23-6.17c0,0-.41,3.45-2,2.95s.46-3.72,1.68-6.59,1.08-4.5,4.34-6.26C253.55,368.23,256.12,371.25,256.12,371.25Z"/><path class="cls-5" d="M266.42,325.75c0-.11,0,0-.06.08l-.13.25-.28.58c-.19.41-.37.85-.55,1.3-.36.9-.7,1.83-1,2.79-.65,1.91-1.23,3.89-1.78,5.88-1.09,4-2,8.11-2.84,12.24s-1.53,8.27-2.2,12.5-1.29,8.44-1.88,12.65h0a2.62,2.62,0,0,1-5.22-.49c.2-4.3.43-8.58.7-12.88s.58-8.64,1.08-13,1.07-8.64,1.86-13c.4-2.17.84-4.35,1.38-6.55.27-1.1.57-2.2.91-3.33.17-.56.35-1.13.56-1.72l.33-.9.2-.48c.08-.19.12-.29.29-.64a4.9,4.9,0,0,1,8.64,4.64Z"/><path class="cls-5" d="M304,371.25s-1.4,1.24-1,6.1c.22,2.87-1.52,4.08-.47,4.8s2.82-1.14,3.25-2.7a47.27,47.27,0,0,1,.25,5.31c0,2,1.67,3,2.42,1.25s-.28-7-.28-7,.25,2.78.39,4.77c.19,2.5.66,3.28,1.68,3.19,1.69-.17,1.18-3.44.49-6.48,0,0,.25,5.14,1.92,5s1.67-2.48.23-6.17c0,0,.41,3.45,2,2.95s-.46-3.72-1.68-6.59-1.08-4.5-4.34-6.26C306.6,368.23,304,371.25,304,371.25Z"/><path class="cls-5" d="M302.37,321.11c.18.34.21.45.29.64l.2.48.33.9c.2.59.39,1.15.56,1.72.34,1.13.63,2.23.91,3.33.54,2.2,1,4.37,1.38,6.55.79,4.34,1.38,8.67,1.86,13s.8,8.68,1.07,13,.5,8.58.71,12.88a2.62,2.62,0,0,1-5.22.5v0c-.59-4.22-1.22-8.45-1.88-12.65s-1.36-8.36-2.2-12.49-1.75-8.24-2.84-12.24c-.54-2-1.13-4-1.78-5.89-.33-1-.66-1.89-1-2.79-.18-.45-.36-.89-.55-1.3l-.28-.58-.13-.25s-.11-.19-.06-.08a4.9,4.9,0,0,1,8.64-4.64Z"/><path class="cls-5" d="M280.33,375.21l-3.43,75.19a4.91,4.91,0,0,1-9.81,0l-3.43-75.19a8.34,8.34,0,1,1,16.66-.76C280.35,374.7,280.34,375,280.33,375.21Z"/><path class="cls-28" d="M272,442.81c-4.2,0-5.19,1.16-5.19,1.16l.29,6.44a4.91,4.91,0,0,0,9.8,0l.29-6.44S276.21,442.81,272,442.81Zm4.32,3.47s.18,3.5-4.23,3.5-4.41-3.5-4.41-3.5l-.07-1.54s.83-1,4.39-1,4.39,1,4.39,1Z"/><path class="cls-5" d="M296.49,375.21l-3.43,75.19a4.91,4.91,0,0,1-9.8,0l-3.43-75.19a8.34,8.34,0,1,1,16.66-.76C296.5,374.7,296.5,375,296.49,375.21Z"/><path class="cls-28" d="M283,444l.3,6.44a4.91,4.91,0,0,0,9.8,0l.29-6.44s-1-1.16-5.19-1.16S283,444,283,444Zm.81.77s.83-1,4.39-1,4.39,1,4.39,1l-.07,1.54s0,3.5-4.41,3.5-4.23-3.5-4.23-3.5Z"/><path class="cls-29" d="M263.73,357.67c-.8,2.45-1.7,5.65-2.65,9.29h38c-1-3.63-1.85-6.84-2.65-9.29a47.56,47.56,0,0,1-.48-26.86l2.19-12.24c-4.41-2-13.35-1.91-13.35-1.91h-9.42s-8.94-.13-13.35,1.91l2.19,12.24A47.63,47.63,0,0,1,263.73,357.67Z"/><path class="cls-28" d="M263.69,357.79c-4.62,14.25-12.76,44.91-12.76,44.91h58.3s-8.14-30.66-12.76-44.91c0,0-2.43,1.89-16.39,1.89S263.69,357.79,263.69,357.79Z"/><path class="cls-8" d="M288.05,317.19s-4.68-5.12-.55-10.1l-6.64-.12v0H279.3v0l-6.64.12c4.13,5-.55,10.1-.55,10.1a17.56,17.56,0,0,0,15.94,0Z"/><path class="cls-5" d="M312.77,276.4c0,15-14.64,31.62-32.69,31.62s-32.69-16.64-32.69-31.62,14.63-25.58,32.69-25.58S312.77,261.42,312.77,276.4Z"/><g class="cls-9"><path class="cls-10" d="M278.22,290.2a5.19,5.19,0,0,0-.64,1.58,1.88,1.88,0,0,0,.28,1.51,2.35,2.35,0,0,0,1.3.84,3.06,3.06,0,0,0,1.65-.1,2.31,2.31,0,0,1-1.72.49,2.33,2.33,0,0,1-1.57-1,2,2,0,0,1-.23-1.82A3.65,3.65,0,0,1,278.22,290.2Z"/></g><path class="cls-11" d="M280.08,297.54a29.14,29.14,0,0,1-6.48-.46s.15,6.13,6.48,6.13,6.48-6.13,6.48-6.13A29.14,29.14,0,0,1,280.08,297.54Z"/><path class="cls-12" d="M277.25,302.69a7.23,7.23,0,0,0,2.83.52,6,6,0,0,0,5.1-2.26,3.94,3.94,0,0,0-2.75-.39c-1.18.26-.94.88-1.45.78C278.06,300.81,277.25,302.69,277.25,302.69Z"/><path class="cls-13" d="M285.56,297.26h0a42,42,0,0,1-5.48.28,37.78,37.78,0,0,1-6-.36h0s-.07,1.48,2.35,2C280.08,300,285.34,299.37,285.56,297.26Z"/><path class="cls-14" d="M273.6,297.08s5.25-1.11,6.11-.66c1.19.62-.3-1,6.85.66A37.76,37.76,0,0,1,273.6,297.08Z"/><path class="cls-14" d="M286.55,297.08a6.54,6.54,0,0,1-13,0s-.37,7.16,6.5,7.16S286.55,297.08,286.55,297.08Z"/><path class="cls-27" d="M272,248.71c-24.62-1.27-26.5,18.26-25.3,30.46,1.48,15.15,10.48,23.52,10.48,23.52-5-9.21-3.85-21.56-3.85-21.56,14.67-7.79,22.56-17.27,22.56-17.27,13.57,13.46,28.53,8.67,30.95,17.27,0,0,1.12,12.35-3.86,21.56,0,0,9.05-8.34,10.49-23.52C315.39,258.85,295.34,234.43,272,248.71Z"/><path class="cls-5" d="M252.2,293.88h0a3.68,3.68,0,0,1-3.68-3.68h0a3.68,3.68,0,0,1,3.68-3.68h0c2,0,3.68,2.44,3.68,3.68S254.23,293.88,252.2,293.88Z"/><g class="cls-9"><path class="cls-10" d="M252.2,289.1a1.33,1.33,0,0,1,.95.24.93.93,0,0,1,0,1.72,1.32,1.32,0,0,1-.95.24,1.68,1.68,0,0,0,.81-.41.76.76,0,0,0,0-1.38A1.69,1.69,0,0,0,252.2,289.1Z"/></g><path class="cls-5" d="M308,293.88h0a3.68,3.68,0,0,0,3.68-3.68h0a3.68,3.68,0,0,0-3.68-3.68h0c-2,0-3.68,2.44-3.68,3.68S305.93,293.88,308,293.88Z"/><g class="cls-9"><path class="cls-10" d="M308,289.1a1.68,1.68,0,0,0-.81.41.76.76,0,0,0,0,1.38,1.68,1.68,0,0,0,.81.41,1.33,1.33,0,0,1-.95-.24.93.93,0,0,1,0-1.72A1.33,1.33,0,0,1,308,289.1Z"/></g><path class="cls-15" d="M272.6,287.17c.55,1.14-2.62,3.24-6.11,3.24s-6.35-2.81-6.33-3.88,2.83-3.88,6.33-3.88S272.26,286.44,272.6,287.17Z"/><path class="cls-27" d="M260.17,286.53a3.5,3.5,0,0,1,.83-1.85,5.87,5.87,0,0,1,1.57-1.32,5.53,5.53,0,0,1,3.92-.72,13.69,13.69,0,0,0-3.52,1.42A8.24,8.24,0,0,0,260.17,286.53Z"/><circle class="cls-27" cx="266.66" cy="286.53" r="3.31"/><circle class="cls-30" cx="266.66" cy="286.53" r="1.34"/><path class="cls-27" d="M272.67,281.08a17.58,17.58,0,0,0-6.57-1.46,13.81,13.81,0,0,0-3.26.37,33.73,33.73,0,0,0-3.33,1,8.1,8.1,0,0,1,2.93-2.2,8.85,8.85,0,0,1,3.67-.79,9.06,9.06,0,0,1,3.66.81A7.44,7.44,0,0,1,272.67,281.08Z"/><path class="cls-15" d="M287.55,287.17c-.55,1.14,2.62,3.24,6.11,3.24s6.35-2.81,6.33-3.88-2.83-3.88-6.33-3.88S287.9,286.44,287.55,287.17Z"/><path class="cls-27" d="M300,286.53a8.21,8.21,0,0,0-2.81-2.47,13.69,13.69,0,0,0-3.52-1.42,5.54,5.54,0,0,1,3.92.72,5.85,5.85,0,0,1,1.57,1.31A3.48,3.48,0,0,1,300,286.53Z"/><circle class="cls-27" cx="293.49" cy="286.53" r="3.31"/><circle class="cls-30" cx="293.49" cy="286.53" r="1.34"/><path class="cls-27" d="M287.49,281.08a7.44,7.44,0,0,1,2.9-2.23,9.05,9.05,0,0,1,3.66-.81,8.85,8.85,0,0,1,3.67.79,8.1,8.1,0,0,1,2.93,2.2,33.68,33.68,0,0,0-3.33-1,13.84,13.84,0,0,0-3.26-.37A17.57,17.57,0,0,0,287.49,281.08Z"/><path class="cls-29" d="M262,318.57s-8.45-1.07-7.25,12.94l8,4.35,2-4.86Z"/><path class="cls-29" d="M298.1,318.57s8.45-1.07,7.25,12.94l-8,4.35-2-4.86Z"/><path class="cls-5" d="M89.42,285.83c0,13-12.71,27.45-28.39,27.45s-28.39-14.45-28.39-27.45,12.71-26,28.39-26S89.42,272.82,89.42,285.83Z"/><path class="cls-4" d="M43.52,258.35s-9.26.54-12.8,8c-9.53,20.1,6.67,33.76,6.67,33.76s-6.18-7.78.85-7.78c.65,0,.52,2.56,2.53-3.24,1.26-3.61,7.81-6.57,6.76-14.7,0,0,3.63,9.61,17.8,9.09,19.37-.72,16.81,17.67,19.32,8.48.58-2.14,3.68-1.58.53,7.34,0,0,15.64-13,4.49-33.07C83.17,254.46,61,243.12,43.52,258.35Z"/><path class="cls-5" d="M45.52,409.35l1.37,35.34c.47.09,5.26.93,7.24.17l2.54-35.51Z"/><path class="cls-31" d="M46.84,444.68s5.26,1,7.32.16c0,0,1.56,5.23.5,8l-.06,1.37s-8.32.47-11.73.47c-2.49,0-7.09-.59-7.26-1.21l.12-.54a3.56,3.56,0,0,1,2.62-4.18A27.57,27.57,0,0,0,46.84,444.68Z"/><path class="cls-5" d="M76.54,409.35l-1.37,35.34c-.48.09-5.27.93-7.24.17l-2.54-35.51Z"/><path class="cls-31" d="M75.21,444.68s-5.26,1-7.32.16c0,0-1.56,5.23-.5,8l.06,1.37s8.32.47,11.73.47c2.49,0,7.08-.59,7.26-1.21l-.12-.54a3.56,3.56,0,0,0-2.62-4.18A27.65,27.65,0,0,1,75.21,444.68Z"/><path class="cls-32" d="M43.43,378.72l1.82,67,9.32-.12s5.42-50,6.06-50h.81l6,50h9.39l1.85-66.89Z"/><rect class="cls-31" x="43.43" y="373.9" width="35.19" height="4.82"/><path class="cls-5" d="M37.52,379.28s1.34,1.28,1,6.33c-.22,3,1.45,4.23.45,5s-2.7-1.18-3.11-2.8a52.39,52.39,0,0,0-.24,5.51c0,2.06-1.6,3.12-2.31,1.3s.27-7.25.27-7.25-.24,2.89-.38,4.95c-.18,2.59-.63,3.41-1.61,3.3-1.63-.17-1.13-3.57-.47-6.73,0,0-.23,5.33-1.84,5.23s-1.6-2.57-.22-6.4c0,0-.39,3.58-1.92,3.06s.44-3.86,1.61-6.85,1-4.67,4.16-6.49C35.07,376.14,37.52,379.28,37.52,379.28Z"/><path class="cls-5" d="M44.66,330.29c0-.08,0,.09-.06.17l-.09.33-.19.72L43.94,333c-.24,1-.48,2.09-.68,3.15-.42,2.13-.81,4.28-1.18,6.44-.71,4.32-1.48,8.69-1.95,13s-1,8.76-1.4,13.15l-.64,6.59-.55,6.3,0,.42a3.51,3.51,0,0,1-7-.42v-.44l0-.23,0-.43.07-.84.15-1.67.3-3.32.59-6.63c.4-4.42.81-8.83,1.27-13.27s1-8.9,1.61-13.34c.3-2.22.62-4.44,1-6.67l.56-3.37.33-1.72.19-.9.11-.48c.05-.19.07-.28.18-.63a4.09,4.09,0,1,1,7.75,2.6Z"/><path class="cls-33" d="M41.85,322.82s-5.8,0-7.83,15.33c-.38,2.87-1.65,10.24-1.65,10.24l8.41,2.83,2.94-15Z"/><path class="cls-5" d="M84.53,379.28s-1.34,1.28-1,6.33c.22,3-1.45,4.23-.45,5s2.7-1.18,3.11-2.8a53.13,53.13,0,0,1,.24,5.51c0,2.06,1.6,3.12,2.31,1.3s-.27-7.25-.27-7.25.24,2.89.38,4.95c.18,2.59.63,3.41,1.61,3.3,1.63-.17,1.13-3.57.47-6.73,0,0,.23,5.33,1.84,5.23s1.6-2.57.22-6.4c0,0,.39,3.58,1.92,3.06s-.44-3.86-1.61-6.85-1-4.67-4.16-6.49C87,376.14,84.53,379.28,84.53,379.28Z"/><path class="cls-5" d="M85.16,327.69c.11.35.12.44.17.63l.11.48.19.9.33,1.72.56,3.37c.36,2.23.68,4.45,1,6.67.59,4.44,1.12,8.83,1.61,13.34s.87,8.85,1.27,13.27l.59,6.63.3,3.32.15,1.67.07.84,0,.43,0,.23v.44a3.51,3.51,0,0,1-7,.43l0-.43-.55-6.3-.64-6.59c-.45-4.39-.9-8.79-1.4-13.15s-1.24-8.66-1.95-13c-.37-2.16-.76-4.31-1.18-6.44-.21-1.06-.44-2.11-.68-3.15l-.37-1.52-.19-.72-.09-.33c0-.08-.08-.25-.06-.17a4.09,4.09,0,1,1,7.76-2.6Z"/><path class="cls-33" d="M80.21,322.82s5.8,0,7.83,15.33c.38,2.87,1.65,10.24,1.65,10.24l-8.41,2.83-2.94-15Z"/><path class="cls-33" d="M66.91,320s-1.34,1.49-5.88,1.49S55.15,320,55.15,320l-2.64,1.39s1.69,2.78,8.52,2.78,8.51-2.78,8.51-2.78Z"/><path class="cls-34" d="M80.19,322.82c-2.23-1.05-7.07-1.44-10.64-1.58l.19.1s-1.69,2.78-8.52,2.78-8.51-2.78-8.51-2.78l.2-.1c-3.69.14-8.78.52-11,1.58l1.87,13.44s-1.12,36.26-1.5,37.63H79.82c-.39-1.37-1.51-37.63-1.51-37.63Z"/><g class="cls-9"><path class="cls-10" d="M59.29,297.72a4.76,4.76,0,0,0-.6,1.47,1.76,1.76,0,0,0,.26,1.4,2.2,2.2,0,0,0,1.21.79,2.84,2.84,0,0,0,1.54-.1,2.15,2.15,0,0,1-1.6.45,2.18,2.18,0,0,1-1.47-.91,1.9,1.9,0,0,1-.22-1.7A3.43,3.43,0,0,1,59.29,297.72Z"/></g><path class="cls-11" d="M61,304.57a27,27,0,0,1-6-.43,5.82,5.82,0,0,0,6,4.58,5.82,5.82,0,0,0,6-4.58A27,27,0,0,1,61,304.57Z"/><path class="cls-35" d="M55,304.14s3.92-.34,5.5-.37a31.4,31.4,0,0,1,6.6.37A35.16,35.16,0,0,1,55,304.14Z"/><path class="cls-13" d="M55.49,304.23a3.6,3.6,0,0,0,2.29,1.18c3.35.66,7.85.32,8.87-1.19A35.8,35.8,0,0,1,55.49,304.23Z"/><path class="cls-35" d="M67.07,304.14c-1.11,3.11-4.38,3.72-6.06,3.72s-5.1-.73-6-3.72c0,0,.84,5.08,6.06,5.29S67.07,304.14,67.07,304.14Z"/><path class="cls-5" d="M36.25,296.57h0A3.27,3.27,0,0,1,33,293.3h0A3.28,3.28,0,0,1,36.25,290h0c1.8,0,3.27,2.17,3.27,3.28S38.05,296.57,36.25,296.57Z"/><g class="cls-9"><path class="cls-10" d="M36.25,292.33a1.19,1.19,0,0,1,.84.21.82.82,0,0,1,0,1.53,1.19,1.19,0,0,1-.84.21,1.5,1.5,0,0,0,.72-.36.68.68,0,0,0,0-1.22A1.51,1.51,0,0,0,36.25,292.33Z"/></g><path class="cls-5" d="M85.81,296.57h0a3.27,3.27,0,0,0,3.27-3.27h0A3.27,3.27,0,0,0,85.81,290h0c-1.8,0-3.27,2.17-3.27,3.28S84,296.57,85.81,296.57Z"/><g class="cls-9"><path class="cls-10" d="M85.81,292.33a1.51,1.51,0,0,0-.72.36.68.68,0,0,0,0,1.22,1.51,1.51,0,0,0,.72.36,1.18,1.18,0,0,1-.84-.21.82.82,0,0,1,0-1.53A1.19,1.19,0,0,1,85.81,292.33Z"/></g><path class="cls-15" d="M54.11,294.7c.51,1.06-2.42,3-5.66,3s-5.88-2.6-5.86-3.59,2.62-3.6,5.86-3.6S53.79,294,54.11,294.7Z"/><circle class="cls-36" cx="48.6" cy="294.11" r="3.07"/><circle class="cls-37" cx="48.6" cy="294.11" r="1.24"/><path class="cls-4" d="M54.17,289.07a16.29,16.29,0,0,0-6.09-1.35,12.78,12.78,0,0,0-3,.35A30.92,30.92,0,0,0,42,289a7.5,7.5,0,0,1,2.71-2,8.18,8.18,0,0,1,3.4-.73,8.38,8.38,0,0,1,3.39.75A6.87,6.87,0,0,1,54.17,289.07Z"/><path class="cls-15" d="M68,294.7c-.51,1.06,2.42,3,5.65,3s5.88-2.6,5.86-3.59-2.62-3.6-5.86-3.6S68.27,294,68,294.7Z"/><circle class="cls-36" cx="73.46" cy="294.11" r="3.07"/><circle class="cls-37" cx="73.45" cy="294.11" r="1.24"/><path class="cls-4" d="M67.89,289.07A6.87,6.87,0,0,1,70.58,287a8.38,8.38,0,0,1,3.39-.75,8.19,8.19,0,0,1,3.4.73,7.52,7.52,0,0,1,2.71,2,31.12,31.12,0,0,0-3.08-1,12.78,12.78,0,0,0-3-.35A16.31,16.31,0,0,0,67.89,289.07Z"/><path class="cls-8" d="M66.92,312.47a21.73,21.73,0,0,1-11.79,0h-.05a6.72,6.72,0,0,1,.3,7.67c.53.4,2.12,1.3,5.65,1.3s5.12-.9,5.65-1.3a6.72,6.72,0,0,1,.29-7.67Z"/><path class="cls-4" d="M44.44,255.92A6,6,0,0,0,38,252.48s1.46.4,2.9,2.82A5.29,5.29,0,0,0,36,256.74s4.05-.7,4.39.48,7.13,1.5,7.13,1.5l.51-2.54s-2.5-2.64,2.16-7.82A7.26,7.26,0,0,0,44.44,255.92Z"/><path class="cls-38" d="M392.06,277.93a9.73,9.73,0,0,0-.82-2.7,2.11,2.11,0,0,0,.83-1.06,3.54,3.54,0,0,0-1.6-4.37l-.06,0a4.62,4.62,0,0,0-.82-2.13,3.79,3.79,0,0,0-1.41-1.21,4.82,4.82,0,0,0-2.64-2.75,3.74,3.74,0,0,0-.08-1.53,4,4,0,0,0-2.33-2.67,5.54,5.54,0,0,0-.43-2.77,3.33,3.33,0,0,0-2.5-2.14,2.81,2.81,0,0,0-1,0,6.48,6.48,0,0,0-1.74-1.32,2.91,2.91,0,0,0-1.44-2.72,5,5,0,0,0-4.37-.12,6.5,6.5,0,0,0-1.18-1.84,3.14,3.14,0,0,0-3-.52,2.24,2.24,0,0,0-1.16-1.55,2.75,2.75,0,0,0-3.4.42,3.3,3.3,0,0,0-1.27-2.64c-1.58-1.22-3.8.16-5.21,1.15-.11-2.23-2.24-2.89-4.28-2.45a4.15,4.15,0,0,0-2.73,1.83c-1.07-.93-2.88-.29-4.16.85a3,3,0,0,0-3.4-.63c-.8.38-1.83,1.61-1.46,2.44A3.34,3.34,0,0,0,337.7,249a3.51,3.51,0,0,0-.52,1,4.67,4.67,0,0,0-3.71-.23,4.15,4.15,0,0,0-2.25,1.57,2.15,2.15,0,0,0-.33-.14c-2.12-.62-4.29,1.6-5.36,3.13a4.47,4.47,0,0,0-.88,2.75,8.46,8.46,0,0,0-2.27,1.47,2.92,2.92,0,0,0-.58,3.08,3.73,3.73,0,0,0-1.44,3,7.27,7.27,0,0,0,1,2.62,5.14,5.14,0,0,0-2,3.16,6.19,6.19,0,0,0-.09,2.41c-2.08.38-2.94,4.68-1.29,6.24a4.08,4.08,0,0,0-.28.78,5.18,5.18,0,0,0,0,2.47,1.29,1.29,0,0,0-.83.34,3.21,3.21,0,0,0-.75,2.63,4.17,4.17,0,0,0,.64,2,6.7,6.7,0,0,0,1.65,5.23c-.78,1.21-.52,3.47,0,4.72a4.74,4.74,0,0,0,3.34,2.79c-.37,1.49,1.46,3.48,2.44,4.28a8.42,8.42,0,0,0,3.56,1.66c.41,2,3.49,4.74,5.38,4.69.48,2.22,3.36,4.94,5,3.67a4.75,4.75,0,0,0,2.42,2.12c1.13.44,2.8-.19,3.07-1.2a1.35,1.35,0,0,0,1.44.19c.92-.42,5.77-2.93,5.81-3.86,3.4.68,2.72,1.92,7,1.14a3.24,3.24,0,0,0,.19,1.29,2.92,2.92,0,0,0,2,2,3.33,3.33,0,0,0,4.16-2,2.18,2.18,0,0,0,3.73-1c2.27,1.72,6.94-.26,6.3-3,3.32,1.82,7.6-2.92,6.85-6.49,2.6,1.61,6.32-2.05,4.78-4.8,3.56.8,6.64-6,4-8.77,1.8-1.34,2.42-6.26.76-7.85C391.77,281.24,392.25,279.68,392.06,277.93Z"/><path class="cls-39" d="M380.93,287c0,13-12.7,27.43-28.37,27.43S324.2,300,324.2,287s12.7-26,28.37-26S380.93,274,380.93,287Z"/><path class="cls-39" d="M337.07,428l1.37,17.69c.47.09,5.26.93,7.23.17L348.21,428Z"/><path class="cls-40" d="M338.39,445.7s5.25,1,7.31.16c0,0,1.56,5.23.5,8l-.06,1.37s-8.31.47-11.72.47c-2.49,0-7.08-.59-7.25-1.2l.12-.54a3.55,3.55,0,0,1,2.61-4.17A27.51,27.51,0,0,0,338.39,445.7Z"/><path class="cls-39" d="M368.06,428l-1.37,17.69c-.47.09-5.26.93-7.24.17L356.92,428Z"/><path class="cls-40" d="M366.74,445.7s-5.26,1-7.31.16c0,0-1.56,5.23-.5,8l.06,1.37s8.32.47,11.72.47c2.49,0,7.08-.59,7.25-1.2l-.12-.54a3.55,3.55,0,0,0-2.61-4.17A27.48,27.48,0,0,1,366.74,445.7Z"/><path class="cls-41" d="M335,379.81l1.79,66.83h9.69s5.06-50,5.7-50H353l5.68,50h9.94l1.55-66.83Z"/><rect class="cls-40" x="334.98" y="374.98" width="35.16" height="4.82"/><path class="cls-39" d="M329.08,380.35s1.34,1.28,1,6.32c-.22,3,1.45,4.23.45,5s-2.7-1.19-3.11-2.8a52.71,52.71,0,0,0-.24,5.5c0,2.06-1.6,3.12-2.31,1.3s.27-7.25.27-7.25-.24,2.89-.38,4.94c-.18,2.59-.63,3.4-1.6,3.3-1.63-.17-1.13-3.57-.47-6.72,0,0-.24,5.32-1.84,5.23s-1.6-2.58-.22-6.39c0,0-.39,3.57-1.92,3.05s.44-3.86,1.61-6.84,1-4.67,4.15-6.49C326.63,377.23,329.08,380.35,329.08,380.35Z"/><path class="cls-39" d="M336.21,331.41c0-.08,0,.09-.06.17l-.09.33-.19.72-.37,1.52c-.24,1-.47,2.08-.68,3.15-.42,2.12-.81,4.27-1.18,6.43-.71,4.32-1.48,8.68-1.94,13s-1,8.75-1.4,13.14l-.64,6.59-.55,6.29,0,.42a3.51,3.51,0,0,1-7-.42v-.44l0-.23,0-.43.07-.84.14-1.66.3-3.31.59-6.62c.4-4.42.8-8.83,1.26-13.26s1-8.89,1.61-13.33c.3-2.22.62-4.43,1-6.66l.56-3.37.33-1.72.19-.9.11-.48c.05-.19.07-.28.17-.63a4.09,4.09,0,0,1,7.75,2.6Z"/><path class="cls-28" d="M333,349.2l2.32-11.82L333.4,324s-5.8,0-7.82,15.32c-.34,2.52-1.36,8.53-1.59,9.94Z"/><path class="cls-39" d="M376.05,380.35s-1.34,1.28-1,6.32c.22,3-1.45,4.23-.45,5s2.7-1.19,3.11-2.8a53.8,53.8,0,0,1,.24,5.5c0,2.06,1.6,3.12,2.31,1.3s-.27-7.25-.27-7.25.24,2.89.37,4.94c.18,2.59.63,3.4,1.61,3.3,1.63-.17,1.13-3.57.47-6.72,0,0,.24,5.32,1.84,5.23s1.6-2.58.22-6.39c0,0,.39,3.57,1.92,3.05S386,388,384.84,385s-1-4.67-4.15-6.49C378.51,377.23,376.05,380.35,376.05,380.35Z"/><path class="cls-39" d="M376.67,328.81c.11.35.12.44.18.63l.11.48.19.9.33,1.72.56,3.37c.36,2.23.67,4.45,1,6.66.59,4.43,1.13,8.82,1.61,13.33s.87,8.85,1.26,13.26l.59,6.62.3,3.31.15,1.66.07.84,0,.43,0,.23v.44a3.51,3.51,0,0,1-7,.43l0-.43-.55-6.29-.64-6.59c-.44-4.39-.9-8.78-1.4-13.14s-1.24-8.65-1.94-13c-.37-2.16-.76-4.31-1.18-6.43-.21-1.06-.44-2.11-.68-3.15l-.37-1.52-.19-.72-.1-.33c0-.08-.08-.25-.06-.17a4.09,4.09,0,1,1,7.75-2.6Z"/><path class="cls-28" d="M381.15,349.2c-.24-1.41-1.26-7.41-1.6-9.94-2-15.37-7.82-15.32-7.82-15.32l-1.87,13.43,2.33,11.82Z"/><path class="cls-42" d="M371.71,324c-2.23-1.05-7.07-1.34-10.63-1.48h0s-1.46,2.13-8.28,2.13-8.54-2.13-8.54-2.13l.2-.11c-3.69.14-8.77.52-11,1.59l1.87,13.43s-1.13,36.23-1.51,37.6h37.55c-.38-1.37-1.5-37.6-1.5-37.6Z"/><g class="cls-9"><path class="cls-10" d="M350.84,298.87a4.71,4.71,0,0,0-.6,1.47,1.75,1.75,0,0,0,.26,1.4,2.19,2.19,0,0,0,1.21.78,2.85,2.85,0,0,0,1.54-.1,2.15,2.15,0,0,1-1.6.45,2.18,2.18,0,0,1-1.47-.91,1.9,1.9,0,0,1-.21-1.7A3.42,3.42,0,0,1,350.84,298.87Z"/></g><path class="cls-11" d="M352.57,305.72a27,27,0,0,1-6-.43,6.28,6.28,0,0,0,12.09,0A27,27,0,0,1,352.57,305.72Z"/><path class="cls-43" d="M346.52,305.29s3.93-.34,5.49-.37a31.11,31.11,0,0,1,6.59.37A35.22,35.22,0,0,1,346.52,305.29Z"/><path class="cls-13" d="M347,305.38a3.59,3.59,0,0,0,2.28,1.18c3.34.66,7.84.32,8.87-1.19A35.72,35.72,0,0,1,347,305.38Z"/><path class="cls-43" d="M358.6,305.29c-1.11,3.11-4.38,3.72-6.05,3.72s-5.1-.73-6-3.72c0,0,.84,5.07,6.06,5.29S358.6,305.29,358.6,305.29Z"/><path class="cls-15" d="M345.65,295.85c.5,1.06-2.42,3-5.65,3s-5.87-2.6-5.86-3.59,2.62-3.59,5.86-3.59S345.33,295.18,345.65,295.85Z"/><circle class="cls-38" cx="340.15" cy="295.26" r="3.06"/><circle class="cls-44" cx="340.15" cy="295.26" r="1.23"/><path class="cls-38" d="M345.71,290.22a16.27,16.27,0,0,0-6.08-1.35,12.75,12.75,0,0,0-3,.35,30.91,30.91,0,0,0-3.08,1,7.5,7.5,0,0,1,2.71-2,8.18,8.18,0,0,1,3.4-.73,8.39,8.39,0,0,1,3.39.75A6.9,6.9,0,0,1,345.71,290.22Z"/><path class="cls-15" d="M359.48,295.85c-.51,1.06,2.42,3,5.65,3s5.87-2.6,5.85-3.59-2.62-3.59-5.85-3.59S359.8,295.18,359.48,295.85Z"/><circle class="cls-38" cx="364.98" cy="295.26" r="3.06"/><circle class="cls-44" cx="364.98" cy="295.26" r="1.23"/><path class="cls-38" d="M359.42,290.22a6.88,6.88,0,0,1,2.69-2.07,8.38,8.38,0,0,1,3.39-.75,8.18,8.18,0,0,1,3.4.73,7.49,7.49,0,0,1,2.71,2,30.9,30.9,0,0,0-3.08-1,12.75,12.75,0,0,0-3-.35A16.26,16.26,0,0,0,359.42,290.22Z"/><path class="cls-45" d="M358.46,313.61a21.74,21.74,0,0,1-11.78,0h-.05a6.72,6.72,0,0,1,.3,7.66c.53.4,2.12,1.3,5.65,1.3s5.11-.9,5.65-1.3a6.72,6.72,0,0,1,.3-7.66Z"/><path class="cls-28" d="M358.44,321.08s-1.34,1.49-5.87,1.49-5.88-1.49-5.88-1.49l-2.63,1.39s1.69,2.78,8.51,2.78,8.51-2.78,8.51-2.78Z"/><path class="cls-38" d="M385.65,293.92c1.56-2,2.15-6.28-.64-6.55,1.13-2.1,4.2-5.65,1.82-6.45.37-1.56-2.42-2.52-2.39-4.13,0-1.4-1.33-1.86-2.56-2,2.41-2.45-2.87-6.42-5.55-7.22.95-1.89-.69-3.77-2.33-4.79-2.23-1.39-4.71-.77-6.68.65-1.61-5.56-8.84-8.47-11.89-4.25-1.56-6.77-17-5.09-17.45,1.83-4.86-5.35-13.55,4.46-11.19,11-1.68.36-4.57,4.65-5,5.36a6.37,6.37,0,0,0-.45,4.48,5,5,0,0,0,1,2.41,4.41,4.41,0,0,0-1,1.6,8.38,8.38,0,0,0-.19,6.42,9.11,9.11,0,0,1,.48,3.74c0,.83,0,2.09.63,2.73a2.29,2.29,0,0,0,3.1,0,4.89,4.89,0,0,0,1.6,1.8c.75.5,1.17,2,2.06,1.41,1.26-.79.13-4-1-4.6.46-.36.86,0,.43-.82.83-.86.57-2.52-.27-3.71a2.3,2.3,0,0,0,2.36-3.5c2.35.12,6.43-1.66,5.66-3.79a4.84,4.84,0,0,0,4.19-1,2.61,2.61,0,0,0,.84-1.08,5.48,5.48,0,0,0,3.5-.22,3.62,3.62,0,0,0,3.06,2.59,6.16,6.16,0,0,0,3.28-1,3.83,3.83,0,0,0,1.66,1.31,4.65,4.65,0,0,0,4.85-.77h0a5.57,5.57,0,0,0,3.65,1.5,3.55,3.55,0,0,0,3.76-2.41,2.73,2.73,0,0,0,.73.17,1.78,1.78,0,0,0,1.2-.32,3.55,3.55,0,0,0,3,2.7,2.78,2.78,0,0,0,1.09-.17,2.71,2.71,0,0,0,0,.34,3.27,3.27,0,0,0,3,2.32c-.32,1.33-.12,3.08.88,3.68a4.83,4.83,0,0,0,.09,2.8c.23.59.58.32.95.44-.25.74.45-.17.19.56a21.11,21.11,0,0,0-.82,2.53c.18,4.2,4.1.41,3.13-1.28.69,0,1.09-.67,1.31-1.43,1.31,1.26,3.28.18,4.18-1.33.73.24,1.73.27,1.93-.63C386.11,294.22,385.93,294,385.65,293.92Z"/><path class="cls-39" d="M327.8,297.72h0a3.27,3.27,0,0,1-3.27-3.27h0a3.27,3.27,0,0,1,3.27-3.27h0c1.81,0,3.27,2.17,3.27,3.27S329.61,297.72,327.8,297.72Z"/><g class="cls-9"><path class="cls-10" d="M327.8,293.48a1.19,1.19,0,0,1,.84.21.82.82,0,0,1,0,1.53,1.19,1.19,0,0,1-.84.21,1.51,1.51,0,0,0,.72-.36.67.67,0,0,0,0-1.22A1.49,1.49,0,0,0,327.8,293.48Z"/></g><path class="cls-39" d="M377.33,297.72h0a3.27,3.27,0,0,0,3.27-3.27h0a3.27,3.27,0,0,0-3.27-3.27h0c-1.81,0-3.27,2.17-3.27,3.27S375.52,297.72,377.33,297.72Z"/><g class="cls-9"><path class="cls-10" d="M377.33,293.48a1.51,1.51,0,0,0-.72.36.67.67,0,0,0,0,1.22,1.5,1.5,0,0,0,.72.37,1.19,1.19,0,0,1-.84-.21.82.82,0,0,1,0-1.53A1.18,1.18,0,0,1,377.33,293.48Z"/></g><path class="cls-5" d="M232.55,283.85c0,13.22-12.92,27.91-28.86,27.91s-28.86-14.69-28.86-27.91,12.92-26.47,28.86-26.47S232.55,270.62,232.55,283.85Z"/><path class="cls-27" d="M173.1,260.34c-11.22,19.64,6.57,38,6.57,38s-7.06-8.61.09-8.61c.66,0,1.31,3.31,3.35-2.59,1.27-3.67,20.7-10.34,19.64-18.6A16.75,16.75,0,0,0,215.06,279c19.94,4.35,7.37,17.71,11.58,10.82,1.17-1.92,5.66-2.81,2.46,6.25,0,0,12.59-20.08,4.05-37.55C225.56,243,185.67,238.33,173.1,260.34Z"/><path class="cls-5" d="M189.59,440.81l-.28,4.52c.48.09,5.35.94,7.36.17l-.19-4.69Z"/><path class="cls-46" d="M189.27,445.32s5.35,1,7.44.17c0,0,1.59,5.32.51,8.1l-.06,1.39s-8.46.48-11.93.48c-2.53,0-7.2-.6-7.38-1.23l.12-.55a3.61,3.61,0,0,1,2.66-4.24A28,28,0,0,0,189.27,445.32Z"/><path class="cls-5" d="M217.79,440.81l.28,4.52c-.48.09-5.35.94-7.36.17l.19-4.69Z"/><path class="cls-46" d="M218.11,445.32s-5.34,1-7.44.17c0,0-1.59,5.32-.51,8.1l.07,1.39s8.46.48,11.92.48c2.53,0,7.2-.6,7.38-1.23l-.12-.55a3.61,3.61,0,0,0-2.66-4.24A28.08,28.08,0,0,1,218.11,445.32Z"/><path class="cls-47" d="M185.8,378.28l1.59,68h10s5.27-50.83,5.92-50.83h.82l6.07,50.83h10l1.44-68Z"/><rect class="cls-46" x="185.8" y="373.37" width="35.77" height="4.9"/><path class="cls-5" d="M179.8,378.83s1.36,1.31,1,6.43c-.22,3,1.48,4.3.46,5.07s-2.75-1.21-3.16-2.84a53.22,53.22,0,0,0-.24,5.59c0,2.09-1.63,3.17-2.35,1.32s.27-7.37.27-7.37-.24,2.94-.38,5c-.18,2.64-.64,3.46-1.63,3.36-1.65-.17-1.15-3.63-.48-6.84,0,0-.24,5.42-1.87,5.32s-1.63-2.62-.22-6.5c0,0-.4,3.63-2,3.11s.45-3.92,1.64-7,1.05-4.75,4.23-6.6C177.3,375.65,179.8,378.83,179.8,378.83Z"/><path class="cls-5" d="M187,329c0-.09,0,.1-.06.17l-.1.33-.2.73-.38,1.55c-.24,1.05-.48,2.12-.69,3.2-.43,2.16-.82,4.35-1.2,6.54-.72,4.39-1.51,8.82-2,13.19s-1,8.9-1.42,13.37l-.65,6.7-.56,6.4,0,.43a3.57,3.57,0,0,1-7.12-.43v-.45l0-.24,0-.44.07-.86.15-1.69.31-3.37.6-6.74c.4-4.49.82-9,1.29-13.49s1-9.05,1.64-13.56c.31-2.25.63-4.51,1-6.78l.57-3.43.33-1.75.2-.91L179,327c.05-.2.07-.29.18-.64A4.16,4.16,0,1,1,187,329Z"/><path class="cls-5" d="M227.58,378.83s-1.36,1.31-1,6.43c.22,3-1.48,4.3-.46,5.07s2.75-1.21,3.16-2.84a53.22,53.22,0,0,1,.24,5.59c0,2.09,1.63,3.17,2.35,1.32s-.27-7.37-.27-7.37.24,2.94.39,5c.18,2.64.64,3.46,1.63,3.36,1.65-.17,1.15-3.63.48-6.84,0,0,.24,5.42,1.87,5.32s1.63-2.62.22-6.5c0,0,.4,3.63,2,3.11s-.45-3.92-1.64-7-1.05-4.75-4.23-6.6C230.08,375.65,227.58,378.83,227.58,378.83Z"/><path class="cls-5" d="M228.22,326.4c.11.35.12.44.18.64l.12.48.2.91.33,1.75.57,3.43c.36,2.27.69,4.52,1,6.78.6,4.51,1.14,9,1.64,13.56s.88,9,1.29,13.49l.6,6.74.3,3.37.15,1.69.07.86,0,.44,0,.24v.45a3.57,3.57,0,0,1-7.12.44l0-.44-.56-6.4-.65-6.7c-.45-4.47-.91-8.94-1.42-13.37s-1.26-8.8-2-13.19c-.38-2.19-.77-4.38-1.19-6.54-.21-1.08-.45-2.15-.69-3.2l-.38-1.55-.2-.73-.1-.33c0-.08-.08-.26-.06-.17a4.16,4.16,0,0,1,7.89-2.64Z"/><path class="cls-32" d="M185.33,342.05l.78-6.94-1.9-13.66s-5.9-.05-8,15.58c0,.28-.23,2.18-.51,5Z"/><path class="cls-32" d="M231.66,342.05c-.28-2.84-.48-4.74-.51-5-2.06-15.63-8-15.58-8-15.58l-1.9,13.66.77,6.94Z"/><path class="cls-34" d="M224.28,321.75c-2.27-1.07-8.3-1.76-11.92-1.9l-4.17.48s3.68.62-3.26.62-9.68-1-9.68-1l.2-.11c-3.76.14-10,.83-12.33,1.91l3,13.37S185,372,184.59,373.37h38.2c-.39-1.39-1.53-38.26-1.53-38.26Z"/><g class="cls-9"><path class="cls-10" d="M201.93,295.93a4.91,4.91,0,0,0-.61,1.49,1.79,1.79,0,0,0,.27,1.43,2.22,2.22,0,0,0,1.23.8,2.9,2.9,0,0,0,1.56-.1,2.19,2.19,0,0,1-1.63.46,2.22,2.22,0,0,1-1.49-.93,1.93,1.93,0,0,1-.22-1.73A3.48,3.48,0,0,1,201.93,295.93Z"/></g><path class="cls-11" d="M203.69,302.9a27.47,27.47,0,0,1-6.15-.44,6.39,6.39,0,0,0,12.3,0A27.45,27.45,0,0,1,203.69,302.9Z"/><path class="cls-35" d="M197.54,302.46s4-.35,5.59-.37a31.65,31.65,0,0,1,6.71.37A35.83,35.83,0,0,1,197.54,302.46Z"/><path class="cls-13" d="M198.06,302.55a3.66,3.66,0,0,0,2.33,1.2c3.4.67,8,.33,9-1.21A36.32,36.32,0,0,1,198.06,302.55Z"/><path class="cls-35" d="M209.83,302.46c-1.12,3.16-4.45,3.78-6.16,3.78s-5.19-.74-6.13-3.78c0,0,.86,5.16,6.16,5.38S209.83,302.46,209.83,302.46Z"/><path class="cls-5" d="M178.5,294.76h0a3.33,3.33,0,0,1-3.33-3.32h0a3.33,3.33,0,0,1,3.33-3.33h0c1.83,0,3.32,2.21,3.32,3.33S180.33,294.76,178.5,294.76Z"/><g class="cls-9"><path class="cls-10" d="M178.5,290.45a1.2,1.2,0,0,1,.85.22.84.84,0,0,1,0,1.56,1.2,1.2,0,0,1-.85.21,1.53,1.53,0,0,0,.73-.37.69.69,0,0,0,0-1.25A1.52,1.52,0,0,0,178.5,290.45Z"/></g><path class="cls-5" d="M228.88,294.76h0a3.32,3.32,0,0,0,3.33-3.32h0a3.32,3.32,0,0,0-3.33-3.33h0c-1.83,0-3.33,2.21-3.33,3.33S227,294.76,228.88,294.76Z"/><g class="cls-9"><path class="cls-10" d="M228.88,290.45a1.52,1.52,0,0,0-.73.37.69.69,0,0,0,0,1.25,1.53,1.53,0,0,0,.73.37,1.2,1.2,0,0,1-.85-.21.84.84,0,0,1,0-1.56A1.2,1.2,0,0,1,228.88,290.45Z"/></g><path class="cls-15" d="M196.66,292.86c.52,1.08-2.46,3.06-5.75,3.06s-6-2.64-6-3.65,2.67-3.65,6-3.65S196.33,292.18,196.66,292.86Z"/><circle class="cls-27" cx="191.06" cy="292.26" r="3.12"/><circle class="cls-30" cx="191.06" cy="292.26" r="1.26"/><path class="cls-27" d="M196.71,287.13a16.64,16.64,0,0,0-6.19-1.37,13.08,13.08,0,0,0-3.07.35,31.92,31.92,0,0,0-3.14,1,7.61,7.61,0,0,1,2.75-2.07,8.33,8.33,0,0,1,3.46-.74A8.52,8.52,0,0,1,194,285,7,7,0,0,1,196.71,287.13Z"/><path class="cls-15" d="M210.73,292.86c-.52,1.08,2.46,3.06,5.75,3.06s6-2.64,6-3.65-2.67-3.65-6-3.65S211,292.18,210.73,292.86Z"/><circle class="cls-27" cx="216.32" cy="292.26" r="3.12"/><circle class="cls-30" cx="216.32" cy="292.45" r="1.26"/><path class="cls-27" d="M210.67,287.13A7,7,0,0,1,213.4,285a8.51,8.51,0,0,1,3.45-.76,8.33,8.33,0,0,1,3.46.74,7.63,7.63,0,0,1,2.75,2.07,31.92,31.92,0,0,0-3.14-1,13.06,13.06,0,0,0-3.07-.35A16.63,16.63,0,0,0,210.67,287.13Z"/><path class="cls-8" d="M209.69,310.93a22.12,22.12,0,0,1-12,0h-.06a6.83,6.83,0,0,1,.3,7.8c.54.41,2.16,1.32,5.75,1.32s5.2-.91,5.75-1.32a6.83,6.83,0,0,1,.3-7.8Z"/><path class="cls-32" d="M209.66,318.53s-1.36,1.52-6,1.52-6-1.52-6-1.52L195,319.95s1.72,2.82,8.65,2.82,8.65-2.82,8.65-2.82Z"/><path class="cls-27" d="M212.59,247.7s-9.13-9.24-21.1-9.64c0,0,4.07,1.59,4.07,2.65,0,0-5.31-1.73-9.81,0l5.74,1.19s-4.94,0-8.25,1.46l19.54,4.51,14.29,6.1Z"/><ellipse class="cls-3" cx="253.19" cy="220.99" rx="236.86" ry="8.73"/><path class="cls-5" d="M380.89,139.68s1.36,1.21,1,5.94c-.22,2.8,1.48,4,.46,4.68s-2.75-1.11-3.17-2.63a45.72,45.72,0,0,0-.25,5.17c0,1.93-1.63,2.93-2.35,1.22s.27-6.81.27-6.81-.24,2.71-.39,4.65c-.18,2.43-.64,3.2-1.63,3.1-1.66-.16-1.15-3.35-.48-6.31,0,0-.24,5-1.87,4.91s-1.63-2.42-.22-6c0,0-.4,3.36-2,2.87s.45-3.62,1.64-6.42,1-4.39,4.23-6.1C378.39,136.74,380.89,139.68,380.89,139.68Z"/><path class="cls-5" d="M390.93,95.36c0-.1,0,0-.06.08l-.13.24-.27.57c-.18.4-.36.83-.53,1.26-.35.87-.68,1.79-1,2.72-.63,1.86-1.2,3.79-1.73,5.73-1.06,3.9-2,7.9-2.76,11.92s-1.5,8.06-2.14,12.17-1.25,8.22-1.83,12.33h0a2.56,2.56,0,0,1-5.09-.48c.2-4.19.42-8.36.69-12.55s.56-8.42,1-12.62,1-8.42,1.81-12.65c.39-2.12.82-4.24,1.35-6.38.26-1.07.55-2.15.89-3.24.17-.55.34-1.1.54-1.67l.32-.88.19-.47c.08-.19.12-.29.29-.62a4.78,4.78,0,0,1,8.41,4.52Z"/><path class="cls-5" d="M427.57,139.68s-1.36,1.21-1,5.94c.22,2.8-1.48,4-.46,4.68s2.75-1.11,3.16-2.63a45.72,45.72,0,0,1,.25,5.17c0,1.93,1.63,2.93,2.35,1.22s-.27-6.81-.27-6.81.24,2.71.39,4.65c.18,2.43.64,3.2,1.63,3.1,1.66-.16,1.16-3.35.48-6.31,0,0,.24,5,1.87,4.91s1.63-2.42.22-6c0,0,.4,3.36,2,2.87s-.45-3.62-1.64-6.42-1.05-4.39-4.23-6.1C430.07,136.74,427.57,139.68,427.57,139.68Z"/><path class="cls-5" d="M425.95,90.84c.17.34.2.43.29.62l.19.47.32.88c.2.57.38,1.12.54,1.67.33,1.1.62,2.17.88,3.24.53,2.14,1,4.26,1.35,6.38.77,4.23,1.34,8.44,1.81,12.65s.78,8.45,1,12.62.49,8.36.69,12.55a2.56,2.56,0,0,1-5.08.49v0c-.58-4.11-1.19-8.23-1.83-12.33s-1.33-8.14-2.14-12.17-1.7-8-2.76-11.92c-.53-1.95-1.1-3.87-1.73-5.73-.32-.93-.65-1.84-1-2.72-.17-.44-.35-.86-.53-1.26l-.27-.57-.13-.24s-.1-.19-.06-.08a4.78,4.78,0,1,1,8.41-4.52Z"/><path class="cls-5" d="M404.48,143.55l-3.34,73.25a4.78,4.78,0,0,1-9.55,0l-3.34-73.25a8.12,8.12,0,1,1,16.23-.74C404.49,143.05,404.49,143.31,404.48,143.55Z"/><path class="cls-17" d="M396.36,209.4c-4.1,0-5.06,1.13-5.06,1.13l.28,6.27a4.78,4.78,0,0,0,9.55,0l.28-6.27S400.46,209.4,396.36,209.4Zm4.21,3.38s.17,3.41-4.12,3.41-4.29-3.41-4.29-3.41l-.07-1.5s.82-1,4.28-1,4.28,1,4.28,1Z"/><path class="cls-5" d="M420.21,143.55l-3.34,73.25a4.78,4.78,0,0,1-9.55,0L404,143.55a8.13,8.13,0,1,1,16.23-.74C420.23,143.05,420.22,143.31,420.21,143.55Z"/><path class="cls-17" d="M407,210.53l.28,6.27a4.78,4.78,0,0,0,9.55,0l.29-6.27s-1-1.13-5.06-1.13S407,210.53,407,210.53Zm.78.75s.81-1,4.28-1,4.28,1,4.28,1l-.07,1.5s0,3.41-4.3,3.41-4.12-3.41-4.12-3.41Z"/><path class="cls-48" d="M388.3,126.45c-.78,2.38-1.66,5.51-2.58,9h37c-.92-3.54-1.8-6.66-2.58-9a46.37,46.37,0,0,1-.47-26.17l2.14-11.93c-4.3-2-13-1.86-13-1.86h-9.18s-8.71-.13-13,1.86l2.13,11.93A46.38,46.38,0,0,1,388.3,126.45Z"/><path class="cls-49" d="M388.26,126.57c-4.5,13.88-12.43,43.75-12.43,43.75h56.8s-7.93-29.87-12.43-43.75c0,0-2.36,1.84-16,1.84S388.26,126.57,388.26,126.57Z"/><path class="cls-27" d="M404.23,78.09c-11.26,0-21.15-6.65-26.81-15.25.24,5.48,2.19,5.78,4.51,10.06,0,0,6,6.34,22.31,5.2,11.47-.81,16.31-1.06,22.3-5.2,2.31-4.28,4.27-4.58,4.5-10.06C425.38,71.44,415.49,78.09,404.23,78.09Z"/><path class="cls-8" d="M412,87s-4.56-5-.53-9.84L405,77.05v0h-1.52v0l-6.47.12c4,4.86-.54,9.84-.54,9.84A17.11,17.11,0,0,0,412,87Z"/><path class="cls-5" d="M436.08,47.28c0,14.59-14.26,30.8-31.85,30.8s-31.85-16.21-31.85-30.8,14.26-24.92,31.85-24.92S436.08,32.69,436.08,47.28Z"/><g class="cls-9"><path class="cls-10" d="M402.42,60.72a5,5,0,0,0-.63,1.54,1.83,1.83,0,0,0,.27,1.47,2.28,2.28,0,0,0,1.27.82,3,3,0,0,0,1.6-.1,2.25,2.25,0,0,1-1.67.47,2.28,2.28,0,0,1-1.53-1,2,2,0,0,1-.22-1.78A3.56,3.56,0,0,1,402.42,60.72Z"/></g><path class="cls-11" d="M404.23,67.87a28.39,28.39,0,0,1-6.31-.45s.15,6,6.31,6,6.32-6,6.32-6A28.4,28.4,0,0,1,404.23,67.87Z"/><path class="cls-12" d="M401.48,72.89a7.08,7.08,0,0,0,2.76.5,5.87,5.87,0,0,0,5-2.2,3.81,3.81,0,0,0-2.68-.38c-1.15.25-.91.85-1.41.76C402.26,71.07,401.48,72.89,401.48,72.89Z"/><path class="cls-13" d="M409.57,67.6h0a41.22,41.22,0,0,1-5.33.27,36.35,36.35,0,0,1-5.84-.35h0s-.07,1.44,2.29,1.95C404.23,70.23,409.36,69.66,409.57,67.6Z"/><path class="cls-14" d="M397.92,67.43s5.11-1.08,6-.65c1.16.61-.29-.92,6.68.65A36.81,36.81,0,0,1,397.92,67.43Z"/><path class="cls-14" d="M410.54,67.43a6.37,6.37,0,0,1-12.62,0s-.36,7,6.33,7S410.54,67.43,410.54,67.43Z"/><path class="cls-27" d="M389.32,23.65C372.38,24.83,370.54,38.1,371.71,50c1.44,14.76,10.21,22.91,10.21,22.91-4.85-9-3.76-21-3.76-21,14.29-7.59,11.16-11.72,11.16-11.72,13.22,13.1,38.62,3.34,41,11.72,0,0,1.09,12-3.76,21,0,0,8.81-8.12,10.22-22.91C438.63,30.19,417.46,7.31,389.32,23.65Z"/><path class="cls-5" d="M377.07,64.31h0a3.59,3.59,0,0,1-3.58-3.58h0a3.58,3.58,0,0,1,3.58-3.59h0c2,0,3.59,2.38,3.59,3.59S379,64.31,377.07,64.31Z"/><g class="cls-9"><path class="cls-10" d="M377.07,59.65a1.3,1.3,0,0,1,.92.23,1.25,1.25,0,0,1,.58.84,1.23,1.23,0,0,1-.58.84,1.3,1.3,0,0,1-.92.23,1.64,1.64,0,0,0,.79-.4,1.15,1.15,0,0,0,.43-.67,1.18,1.18,0,0,0-.43-.67A1.63,1.63,0,0,0,377.07,59.65Z"/></g><path class="cls-5" d="M431.39,64.31h0A3.59,3.59,0,0,0,435,60.72h0a3.59,3.59,0,0,0-3.59-3.59h0c-2,0-3.59,2.38-3.59,3.59S429.41,64.31,431.39,64.31Z"/><g class="cls-9"><path class="cls-10" d="M431.39,59.65a1.62,1.62,0,0,0-.79.4.74.74,0,0,0,0,1.34,1.65,1.65,0,0,0,.79.4,1.31,1.31,0,0,1-.92-.23,1.24,1.24,0,0,1-.57-.84,1.25,1.25,0,0,1,.58-.84A1.29,1.29,0,0,1,431.39,59.65Z"/></g><path class="cls-15" d="M397,57.77c.53,1.12-2.55,3.16-6,3.16s-6.18-2.74-6.16-3.78,2.76-3.78,6.16-3.78S396.61,57.06,397,57.77Z"/><path class="cls-27" d="M384.84,57.15a3.38,3.38,0,0,1,.81-1.8,5.67,5.67,0,0,1,1.53-1.28,5.39,5.39,0,0,1,3.82-.7,13.36,13.36,0,0,0-3.43,1.38A8,8,0,0,0,384.84,57.15Z"/><circle class="cls-27" cx="391.16" cy="57.15" r="3.22"/><circle class="cls-30" cx="391.16" cy="57.15" r="1.3"/><path class="cls-27" d="M397,51.84a17.14,17.14,0,0,0-6.4-1.42,13.53,13.53,0,0,0-3.18.36,33.11,33.11,0,0,0-3.24,1A7.92,7.92,0,0,1,387,49.64a8.62,8.62,0,0,1,3.58-.77,8.81,8.81,0,0,1,3.57.79A7.25,7.25,0,0,1,397,51.84Z"/><path class="cls-15" d="M411.51,57.77c-.53,1.12,2.55,3.16,6,3.16s6.18-2.74,6.17-3.78-2.76-3.78-6.17-3.78S411.85,57.06,411.51,57.77Z"/><path class="cls-27" d="M423.63,57.15a8,8,0,0,0-2.74-2.4,13.38,13.38,0,0,0-3.43-1.38,5.39,5.39,0,0,1,3.82.7,5.67,5.67,0,0,1,1.53,1.28A3.4,3.4,0,0,1,423.63,57.15Z"/><circle class="cls-27" cx="417.3" cy="57.15" r="3.23"/><circle class="cls-30" cx="417.3" cy="57.15" r="1.3"/><path class="cls-27" d="M411.45,51.84a7.23,7.23,0,0,1,2.83-2.18,8.81,8.81,0,0,1,3.57-.79,8.6,8.6,0,0,1,3.58.77,7.91,7.91,0,0,1,2.85,2.14,32.75,32.75,0,0,0-3.24-1,13.47,13.47,0,0,0-3.18-.36A17.12,17.12,0,0,0,411.45,51.84Z"/><path class="cls-50" d="M386.64,88.36s-8.23-1-7.07,12.6l7.8,4.23,1.95-4.73Z"/><path class="cls-50" d="M421.79,88.36s8.23-1,7.07,12.6l-7.8,4.23-2-4.73Z"/><path class="cls-27" d="M455.08,55.26c3.77-20.26-3.14-33.34-14.7-32.33-7.37.64-8.93,5.28-9.25,7.21a31,31,0,0,1,4.17,8.12c10,9.67,1.85,15.23,7.45,34.64,3.92,13.61,17.55,14.84,17.55,14.84C450.44,83,451.31,75.48,455.08,55.26Z"/><path class="cls-27" d="M352.11,55.26c-3.77-20.26,3.14-33.34,14.7-32.33,7.37.64,8.93,5.28,9.25,7.21a31,31,0,0,0-4.17,8.12c-10,9.67-1.85,15.23-7.44,34.64C360.53,86.5,346.9,87.73,346.9,87.73,356.75,83,355.87,75.48,352.11,55.26Z"/><path class="cls-51" d="M200.67,99.77a3.16,3.16,0,0,0-4.09-1.28h-.39s-8.21,1.37-7.63,15.39a9.43,9.43,0,0,1,7.63-2.92C201.26,111.2,202.09,102.27,200.67,99.77Z"/><path class="cls-51" d="M217.85,68.93A5,5,0,0,0,215.59,66a3.71,3.71,0,0,0-2.49-1.26,4.26,4.26,0,0,0-4,2.44,8.87,8.87,0,0,0,0,4.68,4.1,4.1,0,0,0-1.52,1.58,6.43,6.43,0,0,0-.44,3.18,8.6,8.6,0,0,0,.29,1.69c-1.53.47-2.93.92-3.53,2.67a4,4,0,0,0-.1,2.11c-3.32.8-3.65,3.35-3.71,5.32A2.6,2.6,0,0,0,198,90.37a5.44,5.44,0,0,0,0,3,3.9,3.9,0,0,0-2.11,1.13c-3.81,3.93,7.07,9.3,9.13,2.9a4.68,4.68,0,0,0,.07-1.46,4,4,0,0,0,2.63-2.17,3.5,3.5,0,0,0,.33-2c1.78-.05,2.6-1.5,2.64-3.16,2.63-.27,4.17-3.77,4.1-6.27,1.54-.5,2.36-1.89,2.07-3.9a4.2,4.2,0,0,0-.13-.55C219.13,76,218.77,71.49,217.85,68.93Z"/><path class="cls-51" d="M274.13,99.77a3.16,3.16,0,0,1,4.09-1.28h.39s8.21,1.37,7.62,15.39a9.43,9.43,0,0,0-7.62-2.92C273.55,111.2,272.71,102.27,274.13,99.77Z"/><path class="cls-51" d="M257,68.93A5,5,0,0,1,259.21,66a3.71,3.71,0,0,1,2.49-1.26,4.27,4.27,0,0,1,4,2.44,8.94,8.94,0,0,1,0,4.68,4.07,4.07,0,0,1,1.52,1.58,6.32,6.32,0,0,1,.44,3.18,8.33,8.33,0,0,1-.29,1.69c1.53.47,2.93.92,3.53,2.67a4,4,0,0,1,.09,2.11c3.32.8,3.65,3.35,3.71,5.32a2.6,2.6,0,0,1,2.15,1.93,5.42,5.42,0,0,1,0,3,3.87,3.87,0,0,1,2.1,1.13c3.81,3.93-7.06,9.3-9.12,2.9a4.62,4.62,0,0,1-.07-1.46,4,4,0,0,1-2.64-2.17,3.52,3.52,0,0,1-.33-2c-1.78-.05-2.6-1.5-2.64-3.16-2.63-.27-4.17-3.77-4.1-6.27-1.54-.5-2.36-1.89-2.07-3.9a3.75,3.75,0,0,1,.13-.55C255.67,76,256,71.49,257,68.93Z"/><path class="cls-51" d="M214.51,72.89s20.78,15.79,44.61,0c0,0,5.49-8.22,6.09-12.72S231.51,58,231,58.45s-22.89-.6-21.32,5.86C210.52,67.88,214.51,72.89,214.51,72.89Z"/><path class="cls-52" d="M214.06,139.68s1.36,1.21,1,5.94c-.22,2.8,1.48,4,.46,4.68s-2.75-1.11-3.16-2.63a45.36,45.36,0,0,0-.25,5.17c0,1.93-1.63,2.93-2.35,1.22s.27-6.81.27-6.81-.24,2.71-.39,4.65c-.18,2.43-.64,3.2-1.63,3.1-1.65-.16-1.15-3.35-.48-6.31,0,0-.24,5-1.87,4.91s-1.63-2.42-.22-6c0,0-.39,3.36-2,2.87s.45-3.62,1.64-6.42,1-4.39,4.23-6.1C211.56,136.74,214.06,139.68,214.06,139.68Z"/><path class="cls-52" d="M224.09,95.36c.05-.1,0,0-.05.08l-.13.24-.27.57c-.18.4-.36.83-.53,1.26-.35.87-.68,1.79-1,2.72-.63,1.86-1.2,3.79-1.73,5.73-1.06,3.9-2,7.9-2.76,11.92s-1.49,8.06-2.14,12.17-1.25,8.22-1.83,12.33h0a2.56,2.56,0,0,1-5.08-.48c.2-4.19.42-8.36.69-12.55s.56-8.42,1-12.62,1-8.42,1.81-12.65c.39-2.12.82-4.24,1.35-6.38.26-1.07.55-2.15.88-3.24.17-.55.34-1.1.54-1.67l.32-.88.19-.47c.08-.19.12-.29.29-.62a4.78,4.78,0,0,1,8.41,4.52Z"/><path class="cls-52" d="M260.74,139.68s-1.36,1.21-1,5.94c.22,2.8-1.48,4-.46,4.68s2.75-1.11,3.16-2.63a46,46,0,0,1,.24,5.17c0,1.93,1.63,2.93,2.35,1.22s-.27-6.81-.27-6.81.24,2.71.38,4.65c.18,2.43.64,3.2,1.64,3.1,1.65-.16,1.15-3.35.48-6.31,0,0,.24,5,1.87,4.91s1.63-2.42.22-6c0,0,.39,3.36,2,2.87s-.45-3.62-1.64-6.42-1.05-4.39-4.23-6.1C263.24,136.74,260.74,139.68,260.74,139.68Z"/><path class="cls-52" d="M259.12,90.84c.17.34.2.43.29.62l.19.47.32.88c.2.57.38,1.12.54,1.67.33,1.1.62,2.17.88,3.24.53,2.14,1,4.26,1.35,6.38.77,4.23,1.34,8.44,1.81,12.65s.77,8.45,1,12.62.49,8.36.69,12.54a2.56,2.56,0,0,1-5.08.49v0c-.58-4.11-1.19-8.23-1.83-12.33s-1.33-8.15-2.14-12.17-1.71-8-2.76-11.92c-.53-1.95-1.1-3.87-1.73-5.73-.32-.93-.65-1.84-1-2.72-.17-.44-.35-.86-.53-1.26l-.27-.57-.13-.24s-.1-.19-.05-.08a4.78,4.78,0,0,1,8.41-4.52Z"/><path class="cls-52" d="M237.65,143.55l-3.34,73.25a4.78,4.78,0,0,1-9.55,0l-3.34-73.25a8.12,8.12,0,1,1,16.23-.74C237.66,143.05,237.66,143.31,237.65,143.55Z"/><path class="cls-53" d="M229.53,209.4c-4.1,0-5.06,1.13-5.06,1.13l.28,6.27a4.78,4.78,0,0,0,9.55,0l.29-6.27S233.63,209.4,229.53,209.4Zm4.21,3.38s.17,3.41-4.12,3.41-4.3-3.41-4.3-3.41l-.07-1.5s.81-1,4.28-1,4.28,1,4.28,1Z"/><path class="cls-52" d="M253.38,143.55,250,216.8a4.78,4.78,0,0,1-9.55,0l-3.34-73.25a8.13,8.13,0,1,1,16.23-.74C253.39,143.05,253.39,143.31,253.38,143.55Z"/><path class="cls-53" d="M240.21,210.53l.29,6.27a4.78,4.78,0,0,0,9.55,0l.29-6.27s-1-1.13-5.06-1.13S240.21,210.53,240.21,210.53Zm.78.75s.81-1,4.28-1,4.28,1,4.28,1l-.07,1.5s0,3.41-4.3,3.41-4.12-3.41-4.12-3.41Z"/><path class="cls-53" d="M253.33,126.45a46.38,46.38,0,0,1-.47-26.17L255,88.36c-4.29-2-13-1.86-13-1.86h-9.18s-8.71-.13-13,1.86l2.14,11.93a46.39,46.39,0,0,1-.47,26.17C217,140.24,209,178.9,209,178.9h56.8S257.82,140.24,253.33,126.45Z"/><path class="cls-54" d="M245.17,87s-4.56-5-.53-9.84l-6.47-.12v0h-1.53v0l-6.47.12c4,4.86-.53,9.84-.53,9.84a17.1,17.1,0,0,0,15.53,0Z"/><path class="cls-52" d="M269.25,47.28c0,14.59-14.26,30.8-31.85,30.8s-31.85-16.21-31.85-30.8,14.26-24.92,31.85-24.92S269.25,32.69,269.25,47.28Z"/><g class="cls-9"><path class="cls-10" d="M235.59,60.72a5.05,5.05,0,0,0-.63,1.54,1.83,1.83,0,0,0,.27,1.47,2.29,2.29,0,0,0,1.27.82,3,3,0,0,0,1.61-.1,2.2,2.2,0,0,1-3.21-.48,2,2,0,0,1-.22-1.78A3.55,3.55,0,0,1,235.59,60.72Z"/></g><path class="cls-11" d="M237.4,67.87a28.36,28.36,0,0,1-6.31-.45s.15,6,6.31,6,6.31-6,6.31-6A28.39,28.39,0,0,1,237.4,67.87Z"/><path class="cls-12" d="M234.64,72.89a7.08,7.08,0,0,0,2.76.5,5.86,5.86,0,0,0,5-2.2,3.81,3.81,0,0,0-2.68-.38c-1.15.25-.91.85-1.41.76C235.43,71.07,234.64,72.89,234.64,72.89Z"/><path class="cls-13" d="M242.74,67.6h0a41.22,41.22,0,0,1-5.33.27,36.42,36.42,0,0,1-5.85-.35h0s-.07,1.44,2.29,1.95C237.4,70.23,242.53,69.66,242.74,67.6Z"/><path class="cls-55" d="M231.09,67.43s5.12-1.08,6-.65c1.16.61-.29-.92,6.68.65A36.79,36.79,0,0,1,231.09,67.43Z"/><path class="cls-55" d="M243.71,67.43a6.37,6.37,0,0,1-12.62,0s-.36,7,6.33,7S243.71,67.43,243.71,67.43Z"/><path class="cls-51" d="M223,22.36S201.29,21.59,204.88,50c1.86,14.71,10.21,22.91,10.21,22.91-4.85-9-3.75-21-3.75-21,13-5.62,13-13.17,13-13.17,2.41,15,36.78,4.8,39.13,13.17,0,0,1.09,12-3.76,21,0,0,7.31-8.37,10.22-22.91C273.51,32.05,253.7,5.24,223,22.36Z"/><path class="cls-52" d="M210.24,64.31h0a3.58,3.58,0,0,1-3.58-3.58h0a3.58,3.58,0,0,1,3.58-3.59h0c2,0,3.59,2.38,3.59,3.59S212.22,64.31,210.24,64.31Z"/><g class="cls-9"><path class="cls-10" d="M210.24,59.65a1.3,1.3,0,0,1,.92.23,1.25,1.25,0,0,1,.57.84,1.23,1.23,0,0,1-.57.84,1.31,1.31,0,0,1-.92.23,1.66,1.66,0,0,0,.79-.4,1.16,1.16,0,0,0,.43-.67,1.18,1.18,0,0,0-.43-.67A1.64,1.64,0,0,0,210.24,59.65Z"/></g><path class="cls-52" d="M264.56,64.31h0a3.59,3.59,0,0,0,3.58-3.58h0a3.58,3.58,0,0,0-3.58-3.59h0c-2,0-3.59,2.38-3.59,3.59S262.58,64.31,264.56,64.31Z"/><g class="cls-9"><path class="cls-10" d="M264.56,59.65a1.64,1.64,0,0,0-.79.4,1.18,1.18,0,0,0-.43.67,1.15,1.15,0,0,0,.43.67,1.63,1.63,0,0,0,.79.4,1.31,1.31,0,0,1-.92-.23,1.24,1.24,0,0,1-.57-.84,1.25,1.25,0,0,1,.57-.84A1.29,1.29,0,0,1,264.56,59.65Z"/></g><path class="cls-15" d="M230.12,57.77c.53,1.12-2.55,3.16-6,3.16S218,58.19,218,57.15s2.76-3.78,6.16-3.78S229.78,57.06,230.12,57.77Z"/><path class="cls-36" d="M218,57.15a3.4,3.4,0,0,1,.81-1.8,5.67,5.67,0,0,1,1.53-1.28,5.39,5.39,0,0,1,3.82-.7,13.38,13.38,0,0,0-3.43,1.38A8,8,0,0,0,218,57.15Z"/><circle class="cls-36" cx="224.33" cy="57.15" r="3.22"/><circle class="cls-37" cx="224.33" cy="57.15" r="1.3"/><path class="cls-36" d="M230.18,51.84a17.12,17.12,0,0,0-6.4-1.42,13.44,13.44,0,0,0-3.18.36,32.8,32.8,0,0,0-3.25,1,7.91,7.91,0,0,1,2.85-2.14,8.6,8.6,0,0,1,3.58-.77,8.81,8.81,0,0,1,3.57.79A7.25,7.25,0,0,1,230.18,51.84Z"/><path class="cls-15" d="M244.68,57.77c-.53,1.12,2.55,3.16,6,3.16s6.18-2.74,6.16-3.78-2.76-3.78-6.16-3.78S245,57.06,244.68,57.77Z"/><path class="cls-36" d="M256.8,57.15a8,8,0,0,0-2.73-2.4,13.38,13.38,0,0,0-3.43-1.38,5.39,5.39,0,0,1,3.82.7A5.67,5.67,0,0,1,256,55.35,3.39,3.39,0,0,1,256.8,57.15Z"/><circle class="cls-36" cx="250.47" cy="57.15" r="3.22"/><circle class="cls-37" cx="250.47" cy="57.15" r="1.3"/><path class="cls-36" d="M244.62,51.84a7.23,7.23,0,0,1,2.83-2.18,8.81,8.81,0,0,1,3.57-.79,8.6,8.6,0,0,1,3.58.77,7.91,7.91,0,0,1,2.85,2.14,32.75,32.75,0,0,0-3.24-1,13.47,13.47,0,0,0-3.18-.36A17.12,17.12,0,0,0,244.62,51.84Z"/><path class="cls-38" d="M125.47,42.08a10,10,0,0,0-.85-2.82,2.24,2.24,0,0,0,.87-1.11,3.7,3.7,0,0,0-1.68-4.56l-.06,0a4.87,4.87,0,0,0-.86-2.22,4,4,0,0,0-1.47-1.26,5,5,0,0,0-2.76-2.87,3.8,3.8,0,0,0-.09-1.6,4.22,4.22,0,0,0-2.43-2.78,5.81,5.81,0,0,0-.46-2.9,3.48,3.48,0,0,0-2.61-2.23,3,3,0,0,0-1.09,0,6.73,6.73,0,0,0-1.82-1.38,3,3,0,0,0-1.51-2.85,5.16,5.16,0,0,0-4.56-.13,6.87,6.87,0,0,0-1.23-1.93,3.27,3.27,0,0,0-3.09-.54,2.33,2.33,0,0,0-1.21-1.62A2.87,2.87,0,0,0,95,9.71,3.44,3.44,0,0,0,93.68,7c-1.65-1.28-4,.17-5.44,1.2-.11-2.33-2.34-3-4.47-2.56a4.34,4.34,0,0,0-2.84,1.91c-1.11-1-3-.31-4.35.89A3.15,3.15,0,0,0,73,7.74c-.83.4-1.91,1.69-1.52,2.55a3.49,3.49,0,0,0-2.79,1.54,3.59,3.59,0,0,0-.55,1,4.89,4.89,0,0,0-3.87-.24,4.32,4.32,0,0,0-2.34,1.64,2.35,2.35,0,0,0-.35-.14c-2.21-.65-4.48,1.67-5.59,3.27a4.64,4.64,0,0,0-.92,2.87,8.9,8.9,0,0,0-2.37,1.54,3.06,3.06,0,0,0-.6,3.22,3.89,3.89,0,0,0-1.51,3.08,7.57,7.57,0,0,0,1,2.74,5.35,5.35,0,0,0-2.12,3.3,6.38,6.38,0,0,0-.1,2.51c-2.17.41-3.07,4.89-1.34,6.52a3.93,3.93,0,0,0-.29.81,5.4,5.4,0,0,0,0,2.58,1.34,1.34,0,0,0-.87.35,3.35,3.35,0,0,0-.79,2.74,4.32,4.32,0,0,0,.67,2.13c-.29,1.69.51,4.45,1.73,5.46-.82,1.27-.55,3.63,0,4.93A4.94,4.94,0,0,0,52,65.06c-.38,1.56,1.53,3.63,2.55,4.47a8.76,8.76,0,0,0,3.72,1.73c.43,2.11,3.64,4.95,5.62,4.89.5,2.32,3.5,5.16,5.22,3.83a5,5,0,0,0,2.53,2.22c1.18.46,2.92-.19,3.21-1.25a1.41,1.41,0,0,0,1.51.2c1-.44,6-3.06,6.06-4,3.55.71,2.84,2,7.31,1.19a3.34,3.34,0,0,0,.2,1.34A3.06,3.06,0,0,0,92,81.74a3.48,3.48,0,0,0,4.34-2.14,2.28,2.28,0,0,0,3.89-1c2.37,1.8,7.24-.27,6.58-3.17,3.47,1.9,7.94-3.05,7.15-6.78,2.72,1.68,6.61-2.14,5-5,3.72.84,6.94-6.29,4.21-9.16,1.87-1.4,2.52-6.53.8-8.19C125.17,45.54,125.67,43.91,125.47,42.08Z"/><path class="cls-39" d="M62.57,139.68s1.36,1.2,1,5.94c-.22,2.8,1.48,4,.46,4.68s-2.75-1.11-3.16-2.63a45.7,45.7,0,0,0-.25,5.17c0,1.93-1.63,2.93-2.35,1.22s.27-6.81.27-6.81-.24,2.71-.39,4.64c-.18,2.43-.64,3.2-1.64,3.1-1.65-.16-1.15-3.35-.47-6.32,0,0-.24,5-1.87,4.92s-1.63-2.42-.23-6c0,0-.4,3.36-2,2.87s.45-3.62,1.64-6.43,1.05-4.39,4.23-6.1C60.07,136.74,62.57,139.68,62.57,139.68Z"/><path class="cls-39" d="M72.6,95.36c0-.1,0,0-.06.08l-.13.24-.27.57c-.18.4-.36.83-.53,1.26-.35.87-.68,1.79-1,2.72-.63,1.86-1.2,3.79-1.73,5.73-1.06,3.9-2,7.9-2.76,11.92s-1.49,8.06-2.14,12.17-1.25,8.22-1.83,12.33h0a2.56,2.56,0,0,1-5.08-.48c.2-4.19.42-8.36.69-12.55s.56-8.42,1-12.62,1-8.42,1.81-12.65c.39-2.12.82-4.24,1.35-6.38.26-1.07.55-2.15.88-3.24.17-.55.34-1.1.54-1.67l.32-.88.19-.47c.08-.19.12-.29.29-.62a4.77,4.77,0,1,1,8.41,4.52Z"/><path class="cls-39" d="M109.25,139.68s-1.36,1.2-1,5.94c.22,2.8-1.48,4-.46,4.68s2.75-1.11,3.16-2.63a45.72,45.72,0,0,1,.25,5.17c0,1.93,1.63,2.93,2.35,1.22s-.27-6.81-.27-6.81.24,2.71.39,4.64c.18,2.43.64,3.2,1.63,3.1,1.66-.16,1.15-3.35.48-6.32,0,0,.24,5,1.87,4.92s1.63-2.42.23-6c0,0,.39,3.36,2,2.87s-.45-3.62-1.64-6.43-1.05-4.39-4.23-6.1C111.75,136.74,109.25,139.68,109.25,139.68Z"/><path class="cls-39" d="M107.63,90.84c.17.34.2.43.29.62l.19.47.32.88c.2.57.38,1.12.54,1.67.33,1.1.62,2.17.88,3.24.53,2.14,1,4.26,1.35,6.38.77,4.23,1.34,8.44,1.81,12.65s.78,8.45,1,12.62.49,8.36.69,12.55a2.56,2.56,0,0,1-5.08.49v0c-.58-4.11-1.19-8.23-1.83-12.33s-1.32-8.15-2.14-12.17-1.71-8-2.76-11.92c-.53-1.95-1.1-3.87-1.73-5.73-.32-.93-.65-1.84-1-2.72-.18-.44-.36-.86-.54-1.26l-.27-.57-.13-.24s-.1-.19-.06-.08a4.78,4.78,0,1,1,8.41-4.52Z"/><path class="cls-39" d="M86.16,143.55,82.82,216.8a4.78,4.78,0,0,1-9.55,0l-3.34-73.25a8.13,8.13,0,1,1,16.23-.74C86.17,143.05,86.17,143.31,86.16,143.55Z"/><path class="cls-56" d="M78,209.4c-4.1,0-5.06,1.13-5.06,1.13l.29,6.27a4.78,4.78,0,0,0,9.55,0l.28-6.27S82.14,209.4,78,209.4Zm4.21,3.38s.17,3.41-4.12,3.41-4.3-3.41-4.3-3.41l-.07-1.5s.82-1,4.28-1,4.28,1,4.28,1Z"/><path class="cls-39" d="M101.89,143.55,98.55,216.8a4.78,4.78,0,0,1-9.55,0l-3.34-73.25a8.12,8.12,0,1,1,16.23-.74C101.9,143.05,101.9,143.31,101.89,143.55Z"/><path class="cls-56" d="M88.71,210.53,89,216.8a4.78,4.78,0,0,0,9.55,0l.28-6.27s-1-1.13-5.06-1.13S88.71,210.53,88.71,210.53Zm.78.75s.82-1,4.28-1,4.28,1,4.28,1l-.07,1.5s0,3.41-4.3,3.41-4.12-3.41-4.12-3.41Z"/><path class="cls-56" d="M101.84,126.45a46.35,46.35,0,0,1-.47-26.16l2.14-11.93c-4.29-2-13-1.86-13-1.86H81.32s-8.71-.12-13,1.86l2.14,11.93A46.37,46.37,0,0,1,70,126.45c-4.5,13.78-12.47,52.45-12.47,52.45h56.8S106.33,140.23,101.84,126.45Z"/><path class="cls-45" d="M93.68,87s-4.56-5-.54-9.84L86.67,77v0H85.15v0l-6.47.12c4,4.86-.53,9.84-.53,9.84a15.14,15.14,0,0,0,7.77,1.86A15.14,15.14,0,0,0,93.68,87Z"/><path class="cls-39" d="M117.76,47.28c0,14.59-14.26,30.81-31.85,30.81S54.06,61.88,54.06,47.28,68.32,22.36,85.91,22.36,117.76,32.69,117.76,47.28Z"/><g class="cls-9"><path class="cls-10" d="M84.1,60.72a5,5,0,0,0-.63,1.54,1.84,1.84,0,0,0,.27,1.47,2.28,2.28,0,0,0,1.27.82,3,3,0,0,0,1.61-.1,2.25,2.25,0,0,1-1.67.47,2.28,2.28,0,0,1-1.53-1,2,2,0,0,1-.22-1.78A3.57,3.57,0,0,1,84.1,60.72Z"/></g><path class="cls-11" d="M85.91,67.87a28.39,28.39,0,0,1-6.31-.45s.15,6,6.31,6,6.32-6,6.32-6A28.43,28.43,0,0,1,85.91,67.87Z"/><path class="cls-12" d="M83.15,72.89a7,7,0,0,0,2.76.51,5.85,5.85,0,0,0,5-2.2,3.83,3.83,0,0,0-2.68-.38c-1.15.25-.91.85-1.41.76C83.94,71.06,83.15,72.89,83.15,72.89Z"/><path class="cls-13" d="M91.25,67.6h0a41.05,41.05,0,0,1-5.34.28,36.81,36.81,0,0,1-5.84-.35h0s-.07,1.44,2.29,2C85.91,70.23,91,69.66,91.25,67.6Z"/><path class="cls-43" d="M79.6,67.43s5.11-1.08,6-.64c1.16.6-.29-.93,6.68.64A36.81,36.81,0,0,1,79.6,67.43Z"/><path class="cls-43" d="M92.22,67.43a6.37,6.37,0,0,1-12.62,0s-.36,7,6.33,7S92.22,67.43,92.22,67.43Z"/><path class="cls-15" d="M78.63,57.77c.53,1.12-2.55,3.16-6,3.16s-6.19-2.74-6.17-3.78,2.76-3.78,6.17-3.78S78.29,57.06,78.63,57.77Z"/><path class="cls-38" d="M66.51,57.15a3.4,3.4,0,0,1,.81-1.8,5.67,5.67,0,0,1,1.53-1.28,5.39,5.39,0,0,1,3.82-.7,13.34,13.34,0,0,0-3.43,1.38A8,8,0,0,0,66.51,57.15Z"/><circle class="cls-38" cx="72.84" cy="57.15" r="3.23"/><circle class="cls-57" cx="72.84" cy="57.15" r="1.3"/><path class="cls-38" d="M78.69,51.84a17.13,17.13,0,0,0-6.4-1.42,13.47,13.47,0,0,0-3.18.36,32.82,32.82,0,0,0-3.24,1,7.9,7.9,0,0,1,2.85-2.14,8.63,8.63,0,0,1,3.58-.77,8.81,8.81,0,0,1,3.57.79A7.24,7.24,0,0,1,78.69,51.84Z"/><path class="cls-15" d="M93.19,57.77c-.53,1.12,2.55,3.16,6,3.16s6.18-2.74,6.16-3.78-2.76-3.78-6.16-3.78S93.53,57.06,93.19,57.77Z"/><path class="cls-38" d="M105.3,57.15a8,8,0,0,0-2.73-2.4,13.32,13.32,0,0,0-3.43-1.38,5.39,5.39,0,0,1,3.82.7,5.69,5.69,0,0,1,1.53,1.28A3.38,3.38,0,0,1,105.3,57.15Z"/><circle class="cls-38" cx="98.98" cy="57.15" r="3.23"/><circle class="cls-57" cx="98.98" cy="57.15" r="1.3"/><path class="cls-38" d="M93.13,51.84A7.26,7.26,0,0,1,96,49.66a8.81,8.81,0,0,1,3.57-.79,8.62,8.62,0,0,1,3.58.77A7.89,7.89,0,0,1,106,51.78a32.83,32.83,0,0,0-3.24-1,13.49,13.49,0,0,0-3.18-.36A17.16,17.16,0,0,0,93.13,51.84Z"/><path class="cls-38" d="M118.77,54.29c1.63-2.1,2.24-6.56-.66-6.84,1.18-2.19,4.38-5.9,1.9-6.74.39-1.63-2.52-2.63-2.49-4.31,0-1.46-1.39-1.94-2.68-2.12,2.51-2.56-3-6.7-5.8-7.54,1-2-.72-3.94-2.44-5-2.33-1.44-4.92-.8-7,.68-1.68-5.81-10-5.32-13.13-.92-1.64-7.07-15.56-5.64-16.08,1.59-5.07-5.59-15.57,1.45-13.1,8.29-1.76.38-4.77,4.85-5.2,5.59a6.61,6.61,0,0,0-.47,4.68,5.2,5.2,0,0,0,1,2.52,4.67,4.67,0,0,0-1,1.67,8.76,8.76,0,0,0-.19,6.7,9.5,9.5,0,0,1,.51,3.9c0,.87,0,2.18.65,2.85a2.4,2.4,0,0,0,3.23,0,5.09,5.09,0,0,0,1.67,1.87c.79.52,2.36,1.18,3.29.6a1.91,1.91,0,0,0,0-3.28c.48-.38-1.23-.64-1.68-1.5.86-.9.59-2.63-.28-3.88a2.41,2.41,0,0,0,2.47-3.66c2.46.12,6.72-1.74,5.91-4a5,5,0,0,0,4.38-1.09,2.72,2.72,0,0,0,.88-1.12A5.73,5.73,0,0,0,76.11,43a3.78,3.78,0,0,0,3.2,2.71,6.44,6.44,0,0,0,3.43-1.05A4,4,0,0,0,84.46,46a4.85,4.85,0,0,0,5.06-.81h0a5.79,5.79,0,0,0,3.81,1.57,3.71,3.71,0,0,0,3.92-2.52,2.82,2.82,0,0,0,.76.17,1.85,1.85,0,0,0,1.25-.34,3.72,3.72,0,0,0,3.15,2.82,2.9,2.9,0,0,0,1.14-.18,3.35,3.35,0,0,0,.05.35c.34,1.53,1.73,2.22,3.18,2.43-.34,1.38-.13,3.22.92,3.83a5,5,0,0,0,.1,2.93c.24.61-.26,1.36.12,1.49-.26.77.37,1.15.09,1.91a.23.23,0,0,0,.12.3c-.36,2.7,4.28.43,3.26-1.34.71,0,1.14-.7,1.37-1.49,1.36,1.32,3.42.19,4.36-1.39.76.25,1.81.28,2-.66C119.25,54.59,119.07,54.36,118.77,54.29Z"/><path class="cls-39" d="M58.75,64.31h0a3.58,3.58,0,0,1-3.59-3.58h0a3.58,3.58,0,0,1,3.59-3.58h0c2,0,3.59,2.38,3.59,3.58S60.73,64.31,58.75,64.31Z"/><g class="cls-9"><path class="cls-10" d="M58.75,59.65a1.29,1.29,0,0,1,.92.23.9.9,0,0,1,0,1.68,1.29,1.29,0,0,1-.92.23,1.62,1.62,0,0,0,.79-.4.74.74,0,0,0,0-1.34A1.62,1.62,0,0,0,58.75,59.65Z"/></g><path class="cls-39" d="M113.07,64.31h0a3.58,3.58,0,0,0,3.58-3.58h0a3.58,3.58,0,0,0-3.58-3.58h0c-2,0-3.59,2.38-3.59,3.58S111.09,64.31,113.07,64.31Z"/><g class="cls-9"><path class="cls-10" d="M113.07,59.65a1.64,1.64,0,0,0-.79.4.74.74,0,0,0,0,1.34,1.64,1.64,0,0,0,.79.4,1.3,1.3,0,0,1-.92-.23.9.9,0,0,1,0-1.68A1.3,1.3,0,0,1,113.07,59.65Z"/></g><path class="cls-56" d="M69,88.15S59.41,86.43,61,101.38l8.31,4.23,1.41-5.33Z"/><path class="cls-56" d="M102.87,88s9.53-1.61,7.9,13.33l-8.32,4.23L101,100.28Z"/><path class="cls-5" d="M188.7,49c0,13.28-13,28-29,28s-29-14.75-29-28,13-26.58,29-26.58S188.7,35.75,188.7,49Z"/><path class="cls-25" d="M158.77,14.67S138.5,8.73,128.24,28C117.57,48.07,135.6,63.6,135.6,63.6s-4.91-12.2.86-7.94c3.39,2.5-1.47-7,5.28-12.06,6-4.46,8.23-.85,18-.85,8.19,0,11.42-3.61,16.49.14,8.64,6.4,3.61,18.2,7,12.77,1.19-1.92,4.42-2,1.21,7.11,0,0,16.52-14.34,5.15-34.87C182.88,15.89,168.42,10.94,158.77,14.67Z"/><path class="cls-5" d="M143.89,193.12l1.4,18.07c.48.09,5.37.95,7.39.17l2.6-18.24Z"/><path class="cls-58" d="M145.24,211.18s5.37,1,7.47.17c0,0,1.59,5.34.51,8.13l-.06,1.4s-8.5.48-12,.48c-2.55,0-7.24-.6-7.41-1.23l.12-.55a3.63,3.63,0,0,1,2.67-4.26A28.09,28.09,0,0,0,145.24,211.18Z"/><path class="cls-5" d="M175.56,193.12l-1.4,18.07c-.49.09-5.38.95-7.39.17l-2.6-18.24Z"/><path class="cls-58" d="M174.2,211.18s-5.37,1-7.47.17c0,0-1.59,5.34-.51,8.13l.07,1.4s8.49.48,12,.48c2.54,0,7.23-.6,7.41-1.23l-.12-.55a3.63,3.63,0,0,0-2.67-4.26A28.17,28.17,0,0,1,174.2,211.18Z"/><path class="cls-59" d="M141.76,143.85l1.32,68.28h10.36s5.22-51.05,5.87-51.05h.83L166,212.13H176.5l1.19-68.28Z"/><rect class="cls-58" x="141.76" y="138.93" width="35.92" height="4.93"/><path class="cls-5" d="M135.73,144.42s1.37,1.31,1,6.46c-.22,3,1.48,4.32.46,5.09s-2.76-1.21-3.17-2.86a53.44,53.44,0,0,0-.25,5.62c0,2.1-1.64,3.18-2.36,1.33s.27-7.4.27-7.4-.24,2.95-.38,5.05c-.18,2.65-.64,3.48-1.64,3.37-1.66-.17-1.15-3.64-.48-6.87,0,0-.24,5.44-1.88,5.34s-1.64-2.63-.23-6.53c0,0-.39,3.65-2,3.12s.45-3.94,1.65-7,1.05-4.77,4.24-6.63C133.22,141.22,135.73,144.42,135.73,144.42Z"/><path class="cls-5" d="M143,94.41c0-.09,0,.09-.06.17l-.1.33-.2.73-.38,1.55c-.24,1.05-.49,2.13-.7,3.21-.43,2.17-.82,4.37-1.2,6.57-.72,4.41-1.51,8.87-2,13.25s-1,8.94-1.43,13.42l-.66,6.73-.56,6.43,0,.43a3.58,3.58,0,0,1-7.15-.43v-.45l0-.24,0-.44.07-.86.15-1.7.3-3.39.6-6.77c.41-4.51.82-9,1.29-13.55s1-9.08,1.65-13.61c.31-2.26.63-4.53,1-6.81l.57-3.44.34-1.76.2-.91.12-.49c.05-.2.07-.29.18-.64A4.17,4.17,0,1,1,143,94.41Z"/><path class="cls-60" d="M139.69,112.59l2.38-12.08-1.91-13.72s-5.93-.05-8,15.65c-.34,2.58-1.39,8.71-1.63,10.15Z"/><path class="cls-5" d="M183.72,144.42s-1.37,1.31-1,6.46c.22,3-1.48,4.32-.46,5.09s2.76-1.21,3.17-2.86a54.21,54.21,0,0,1,.25,5.62c0,2.1,1.64,3.18,2.36,1.33s-.27-7.4-.27-7.4.24,2.95.39,5.05c.18,2.65.64,3.48,1.64,3.37,1.66-.17,1.16-3.64.48-6.87,0,0,.24,5.44,1.88,5.34s1.63-2.63.22-6.53c0,0,.4,3.65,2,3.12s-.45-3.94-1.64-7-1.06-4.77-4.25-6.63C186.22,141.22,183.72,144.42,183.72,144.42Z"/><path class="cls-5" d="M184.35,91.76c.11.35.13.45.18.64l.12.49.2.92.34,1.76.57,3.44c.37,2.28.69,4.54,1,6.81.6,4.53,1.15,9,1.65,13.61s.89,9,1.29,13.55l.6,6.76.3,3.39.15,1.7.07.86,0,.44,0,.24v.45a3.58,3.58,0,0,1-7.15.44l0-.44-.56-6.43-.66-6.73c-.46-4.48-.92-9-1.43-13.42s-1.26-8.84-2-13.25c-.38-2.2-.77-4.4-1.2-6.57-.21-1.08-.45-2.16-.69-3.21l-.38-1.55-.2-.73-.1-.33c0-.08-.08-.26-.06-.17a4.17,4.17,0,1,1,7.92-2.65Z"/><path class="cls-60" d="M188.93,112.59c-.25-1.44-1.29-7.57-1.63-10.15-2.07-15.7-8-15.65-8-15.65l-1.91,13.72,2.37,12.08Z"/><path class="cls-56" d="M179.28,86.79c-2.28-1.07-7.22-1.37-10.87-1.51h0s-1.49,2.17-8.46,2.17-8.73-2.17-8.73-2.17l.21-.11c-3.77.14-9,.53-11.27,1.62l1.91,13.72s-1.14,37-1.53,38.42h38.37c-.39-1.4-1.54-38.42-1.54-38.42Z"/><g class="cls-9"><path class="cls-10" d="M158,61.17a4.86,4.86,0,0,0-.61,1.5,1.79,1.79,0,0,0,.27,1.43,2.25,2.25,0,0,0,1.24.8,2.91,2.91,0,0,0,1.57-.1,2.2,2.2,0,0,1-1.64.46,2.23,2.23,0,0,1-1.5-.93,1.94,1.94,0,0,1-.22-1.74A3.49,3.49,0,0,1,158,61.17Z"/></g><path class="cls-11" d="M159.73,68.16a27.54,27.54,0,0,1-6.17-.44,6.41,6.41,0,0,0,12.35,0A27.59,27.59,0,0,1,159.73,68.16Z"/><path class="cls-35" d="M153.55,67.72s4-.35,5.61-.37a31.79,31.79,0,0,1,6.74.37A36,36,0,0,1,153.55,67.72Z"/><path class="cls-13" d="M154.07,67.81A3.67,3.67,0,0,0,156.4,69c3.41.67,8,.33,9.06-1.22A36.49,36.49,0,0,1,154.07,67.81Z"/><path class="cls-35" d="M165.9,67.72c-1.13,3.18-4.47,3.8-6.19,3.8s-5.21-.74-6.15-3.8c0,0,.86,5.18,6.18,5.4S165.9,67.72,165.9,67.72Z"/><path class="cls-5" d="M134.43,60h0a3.34,3.34,0,0,1-3.34-3.34h0a3.34,3.34,0,0,1,3.34-3.34h0c1.84,0,3.34,2.22,3.34,3.34S136.27,60,134.43,60Z"/><g class="cls-9"><path class="cls-10" d="M134.43,55.66a1.2,1.2,0,0,1,.86.22.84.84,0,0,1,0,1.56,1.21,1.21,0,0,1-.86.21,1.54,1.54,0,0,0,.74-.37.69.69,0,0,0,0-1.25A1.52,1.52,0,0,0,134.43,55.66Z"/></g><path class="cls-5" d="M185,60h0a3.34,3.34,0,0,0,3.34-3.34h0A3.34,3.34,0,0,0,185,53.31h0c-1.84,0-3.34,2.22-3.34,3.34S183.18,60,185,60Z"/><g class="cls-9"><path class="cls-10" d="M185,55.66a1.52,1.52,0,0,0-.74.37.69.69,0,0,0,0,1.25,1.53,1.53,0,0,0,.74.37,1.21,1.21,0,0,1-.86-.21.84.84,0,0,1,0-1.56A1.21,1.21,0,0,1,185,55.66Z"/></g><path class="cls-15" d="M152.66,58.08c.52,1.09-2.47,3.07-5.77,3.07s-6-2.65-6-3.67,2.68-3.67,6-3.67S152.33,57.4,152.66,58.08Z"/><circle class="cls-25" cx="147.04" cy="57.48" r="3.13"/><circle class="cls-61" cx="147.04" cy="57.48" r="1.26"/><path class="cls-25" d="M152.72,52.33A16.61,16.61,0,0,0,146.51,51a13,13,0,0,0-3.08.35,31.57,31.57,0,0,0-3.15,1A7.66,7.66,0,0,1,143,50.2a8.35,8.35,0,0,1,3.47-.75,8.54,8.54,0,0,1,3.46.77A7,7,0,0,1,152.72,52.33Z"/><path class="cls-15" d="M166.79,58.08c-.52,1.09,2.47,3.07,5.77,3.07s6-2.65,6-3.67-2.68-3.67-6-3.67S167.12,57.4,166.79,58.08Z"/><circle class="cls-25" cx="172.41" cy="57.48" r="3.13"/><circle class="cls-61" cx="172.41" cy="57.48" r="1.26"/><path class="cls-25" d="M166.73,52.33a7,7,0,0,1,2.75-2.11,8.56,8.56,0,0,1,3.46-.77,8.36,8.36,0,0,1,3.47.75,7.66,7.66,0,0,1,2.77,2.08,31.76,31.76,0,0,0-3.15-1,13.06,13.06,0,0,0-3.08-.35A16.65,16.65,0,0,0,166.73,52.33Z"/><path class="cls-8" d="M165.74,76.22a22.21,22.21,0,0,1-12,0h-.05a6.86,6.86,0,0,1,.3,7.83c.55.41,2.17,1.33,5.77,1.33s5.22-.92,5.77-1.33a6.86,6.86,0,0,1,.3-7.83Z"/><path class="cls-60" d="M165.73,83.86s-1.37,1.52-6,1.52-6-1.52-6-1.52L151,85.28s1.72,2.84,8.69,2.84,8.69-2.84,8.69-2.84Z"/><path class="cls-5" d="M347.75,49c0,13.27-13,28-29,28s-29-14.75-29-28,13-26.58,29-26.58S347.75,35.75,347.75,49Z"/><path class="cls-62" d="M309.22,16.49s-14.48-4.16-22.51,13.32c-9.49,20.64,7.95,33.79,7.95,33.79s-7.09-8.65.09-8.65c.66,0,1.31,3.32,3.36-2.6,1.28-3.69,14.73-7.86,13.67-16.16a22.58,22.58,0,0,0,14,9.2c20,4.37,11.82,16.6,16,9.67,1.18-1.93,5.68-2.82,2.47,6.28,0,0,12.64-15.44,4.07-33C340.73,12.74,321.77,8,309.22,16.49Z"/><path class="cls-5" d="M302.94,186.5l1.4,24.69c.49.09,5.37.95,7.39.17l.93-24.86Z"/><path class="cls-46" d="M304.29,211.18s5.37,1,7.47.17c0,0,1.59,5.34.51,8.13l-.06,1.4s-8.5.48-12,.48c-2.54,0-7.23-.6-7.41-1.23l.12-.55a3.63,3.63,0,0,1,2.68-4.26A28.23,28.23,0,0,0,304.29,211.18Z"/><path class="cls-5" d="M334.6,186.5l-1.4,24.69c-.49.09-5.37.95-7.39.17l-.92-24.86Z"/><path class="cls-46" d="M333.25,211.18s-5.37,1-7.47.17c0,0-1.59,5.34-.51,8.13l.07,1.4s8.49.48,12,.48c2.55,0,7.23-.6,7.41-1.23l-.13-.55a3.63,3.63,0,0,0-2.67-4.26A28.19,28.19,0,0,1,333.25,211.18Z"/><path class="cls-47" d="M300.81,143.85l1,68.24h11.12s4.79-51,5.44-51h.83l5.28,51h11.12l1.15-68.24Z"/><rect class="cls-46" x="300.81" y="138.93" width="35.92" height="4.92"/><path class="cls-5" d="M294.78,144.42s1.36,1.31,1,6.46c-.22,3,1.48,4.32.46,5.09s-2.76-1.21-3.17-2.86a53.46,53.46,0,0,0-.25,5.62c0,2.1-1.64,3.18-2.36,1.33s.28-7.4.28-7.4-.24,2.95-.39,5.05c-.18,2.65-.64,3.48-1.64,3.37-1.66-.17-1.15-3.64-.48-6.87,0,0-.24,5.44-1.87,5.34s-1.63-2.63-.23-6.53c0,0-.4,3.65-2,3.12s.45-3.94,1.65-7,1.05-4.77,4.24-6.63C292.27,141.22,294.78,144.42,294.78,144.42Z"/><path class="cls-5" d="M302.06,94.41c0-.09,0,.1-.06.17l-.1.33-.2.73-.38,1.55c-.24,1.05-.48,2.13-.69,3.21-.43,2.17-.82,4.37-1.2,6.57-.72,4.41-1.51,8.86-2,13.25s-1,8.94-1.43,13.42l-.66,6.73-.56,6.43,0,.43a3.58,3.58,0,0,1-7.15-.43v-.45l0-.24,0-.44.07-.86.15-1.7.31-3.39.6-6.77c.41-4.51.82-9,1.29-13.55s1-9.08,1.65-13.61c.3-2.26.63-4.53,1-6.81l.57-3.44.34-1.76.2-.91.12-.49c.05-.2.07-.29.18-.64a4.18,4.18,0,0,1,7.92,2.65Z"/><path class="cls-5" d="M342.76,144.42s-1.37,1.31-1,6.46c.22,3-1.48,4.32-.46,5.09s2.76-1.21,3.17-2.86a53.84,53.84,0,0,1,.25,5.62c0,2.1,1.64,3.18,2.36,1.33s-.27-7.4-.27-7.4.24,2.95.39,5.05c.18,2.65.64,3.48,1.64,3.37,1.66-.17,1.15-3.64.48-6.87,0,0,.24,5.44,1.88,5.34s1.63-2.63.22-6.53c0,0,.4,3.65,2,3.12s-.45-3.94-1.65-7-1.05-4.77-4.24-6.63C345.27,141.22,342.76,144.42,342.76,144.42Z"/><path class="cls-5" d="M343.4,91.76c.11.36.13.45.18.64l.12.49.2.92.34,1.76L344.8,99c.37,2.28.69,4.54,1,6.81.6,4.53,1.15,9,1.65,13.61s.89,9,1.29,13.55l.6,6.77.31,3.39.15,1.7.07.86,0,.44,0,.24v.45a3.58,3.58,0,0,1-7.15.44l0-.44-.56-6.43-.66-6.73c-.45-4.48-.92-9-1.43-13.42s-1.26-8.84-2-13.25c-.38-2.2-.77-4.4-1.2-6.57-.21-1.08-.45-2.16-.7-3.21l-.38-1.55-.2-.73-.1-.33-.06-.17a4.17,4.17,0,0,1,7.91-2.66Z"/><path class="cls-32" d="M296.28,143.85l4.83-43.34-1.91-13.72s-5.92-.05-8,15.65c-.17,1.31-3.87,39.35-4.21,41.41Z"/><path class="cls-32" d="M350.55,143.85c-.34-2.06-4-40.1-4.21-41.41-2.07-15.7-8-15.65-8-15.65l-1.91,13.72,4.83,43.34Z"/><path class="cls-34" d="M339.44,87.09c-2.27-1.07-8.33-1.77-12-1.91l-4.19.48s3.69.63-3.27.63-9.73-1-9.73-1l.21-.11c-3.77.14-10.07.83-12.38,1.91l3,13.43s-1.15,37-1.54,38.42H338c-.39-1.4-1.54-38.42-1.54-38.42Z"/><g class="cls-9"><path class="cls-10" d="M317,61.17a4.88,4.88,0,0,0-.61,1.5,1.8,1.8,0,0,0,.27,1.44,2.24,2.24,0,0,0,1.24.8,2.9,2.9,0,0,0,1.57-.1,2.2,2.2,0,0,1-1.64.46,2.22,2.22,0,0,1-1.5-.93,1.92,1.92,0,0,1-.22-1.74A3.47,3.47,0,0,1,317,61.17Z"/></g><path class="cls-11" d="M318.77,68.16a27.58,27.58,0,0,1-6.18-.44,6.42,6.42,0,0,0,12.35,0A27.59,27.59,0,0,1,318.77,68.16Z"/><path class="cls-35" d="M312.6,67.72s4-.35,5.62-.38a32.06,32.06,0,0,1,6.73.38A35.91,35.91,0,0,1,312.6,67.72Z"/><path class="cls-13" d="M313.12,67.81a3.67,3.67,0,0,0,2.33,1.2c3.41.67,8,.33,9.06-1.22A36.55,36.55,0,0,1,313.12,67.81Z"/><path class="cls-35" d="M324.94,67.72c-1.13,3.18-4.47,3.8-6.19,3.8s-5.21-.74-6.15-3.8c0,0,.86,5.18,6.19,5.4S324.94,67.72,324.94,67.72Z"/><path class="cls-5" d="M293.47,60h0a3.34,3.34,0,0,1-3.34-3.34h0a3.34,3.34,0,0,1,3.34-3.34h0c1.85,0,3.34,2.22,3.34,3.34S295.32,60,293.47,60Z"/><g class="cls-9"><path class="cls-10" d="M293.47,55.66a1.22,1.22,0,0,1,.86.21,1.16,1.16,0,0,1,.53.78,1.14,1.14,0,0,1-.53.78,1.21,1.21,0,0,1-.86.21,1.55,1.55,0,0,0,.74-.37.69.69,0,0,0,0-1.25A1.53,1.53,0,0,0,293.47,55.66Z"/></g><path class="cls-5" d="M344.07,60h0a3.34,3.34,0,0,0,3.34-3.34h0a3.34,3.34,0,0,0-3.34-3.34h0c-1.84,0-3.34,2.22-3.34,3.34S342.22,60,344.07,60Z"/><g class="cls-9"><path class="cls-10" d="M344.07,55.66a1.53,1.53,0,0,0-.74.37.69.69,0,0,0,0,1.25,1.53,1.53,0,0,0,.74.37,1.2,1.2,0,0,1-.86-.21.84.84,0,0,1,0-1.56A1.21,1.21,0,0,1,344.07,55.66Z"/></g><path class="cls-15" d="M311.71,58.08c.52,1.09-2.47,3.07-5.78,3.07s-6-2.65-6-3.67,2.67-3.67,6-3.67S311.38,57.4,311.71,58.08Z"/><circle class="cls-62" cx="306.09" cy="57.48" r="3.13"/><circle class="cls-63" cx="306.09" cy="57.48" r="1.26"/><path class="cls-62" d="M311.77,52.33A16.65,16.65,0,0,0,305.55,51a13,13,0,0,0-3.08.35,31.76,31.76,0,0,0-3.15,1,7.7,7.7,0,0,1,2.77-2.08,8.36,8.36,0,0,1,3.47-.75,8.58,8.58,0,0,1,3.46.77A7,7,0,0,1,311.77,52.33Z"/><path class="cls-15" d="M325.84,58.08c-.52,1.09,2.47,3.07,5.77,3.07s6-2.65,6-3.67-2.68-3.67-6-3.67S326.16,57.4,325.84,58.08Z"/><circle class="cls-62" cx="331.45" cy="57.48" r="3.13"/><circle class="cls-63" cx="331.45" cy="57.48" r="1.26"/><path class="cls-62" d="M325.78,52.33a7,7,0,0,1,2.74-2.11,8.56,8.56,0,0,1,3.46-.77,8.35,8.35,0,0,1,3.47.75,7.66,7.66,0,0,1,2.77,2.08,31.76,31.76,0,0,0-3.15-1A13,13,0,0,0,332,51,16.61,16.61,0,0,0,325.78,52.33Z"/><path class="cls-8" d="M324.79,76.22a22.19,22.19,0,0,1-12,0h-.05a6.87,6.87,0,0,1,.3,7.83c.55.41,2.17,1.32,5.77,1.32s5.23-.92,5.77-1.32a6.87,6.87,0,0,1,.3-7.83Z"/><path class="cls-32" d="M324.77,83.86s-1.37,1.52-6,1.52-6-1.52-6-1.52l-2.69,1.42s1.72,2.84,8.69,2.84,8.69-2.84,8.69-2.84Z"/></g></g></g></svg>