<svg xmlns="http://www.w3.org/2000/svg" viewBox="0 0 90.85 106.98"><defs><style>.cls-1{isolation:isolate;}.cls-2{fill:#3b2314;}.cls-3{fill:#5fba46;}.cls-32,.cls-4{opacity:0.13;}.cls-4{mix-blend-mode:multiply;}.cls-5,.cls-6,.cls-7,.cls-9{fill:#fff;}.cls-5{opacity:0.3;mix-blend-mode:overlay;}.cls-6{opacity:0.22;}.cls-7{opacity:0.25;}.cls-8{opacity:0.38;mix-blend-mode:hard-light;}.cls-10{fill:#60c9e6;}.cls-11,.cls-21,.cls-31{opacity:0.34;}.cls-12{fill:#aeb3b6;}.cls-13{fill:#c1c6c8;}.cls-14{fill:#888d90;}.cls-15{fill:#f8d60b;}.cls-16{fill:#9c237e;}.cls-17{fill:#002544;}.cls-18{fill:#003557;}.cls-19{fill:#00001a;}.cls-20{fill:#000c2b;}.cls-21{fill:#002341;}.cls-22{fill:#1c6a9e;}.cls-23{fill:#185b88;}.cls-24{fill:#5597c0;}.cls-24,.cls-25,.cls-26{opacity:0.19;}.cls-25{fill:#71a8d2;}.cls-27{fill:#8cbddd;}.cls-28{fill:#002b4b;opacity:0.26;}.cls-29{fill:#92979a;}.cls-30{fill:#7c8083;}.cls-31{fill:#959a9d;}</style></defs><title>Globos</title><g class="cls-1"><g id="Capa_2" data-name="Capa 2"><g id="Layer_1" data-name="Layer 1"><path class="cls-2" d="M32.44,79.39l.11.17c3.72,5.59,5.12,16.79,6.36,26.67l.1.76h.65l-.11-.84c-1.24-10-2.65-21.23-6.46-26.95L33,79c-4-6-11.44-17.18-11.87-31.65s-.77-22.13-.77-22.21l-.65,0c0,.08.34,7.67.77,22.2S28.4,73.33,32.44,79.39Z"/><path class="cls-2" d="M25.72,82.39v.87c0,4.54,1,11.07,5.91,16.41a20.29,20.29,0,0,1,3.8,7.31h.67a21.22,21.22,0,0,0-4-7.76c-4.82-5.18-5.78-11.54-5.74-16v-.87c.07-5.39.17-13.54-5-18.64S9,41.33,8.9,41.15l-.6.25c.29.71,7.29,17.53,12.62,22.81C25.89,69.13,25.79,77.11,25.72,82.39Z"/><path class="cls-3" d="M41.23,23.08h0a9.45,9.45,0,0,0-18.7,2.75,21.15,21.15,0,0,0,8.32,14,4.74,4.74,0,0,0,3.44,1,4.32,4.32,0,0,0,2.79-2C43.08,29.75,41.24,23.12,41.23,23.08Z"/><path class="cls-4" d="M41.23,23.08h0a9.41,9.41,0,0,0-1.89-4.43A9.41,9.41,0,0,1,40.49,22h0s1.85,6.67-4.16,15.75a4.32,4.32,0,0,1-2.79,2,4.75,4.75,0,0,1-3.44-1A22.49,22.49,0,0,1,25.53,34a22.34,22.34,0,0,0,5.31,5.81,4.74,4.74,0,0,0,3.44,1,4.32,4.32,0,0,0,2.79-2C43.08,29.75,41.24,23.12,41.23,23.08Z"/><circle class="cls-5" cx="31.92" cy="24.68" r="9.04" transform="translate(-3.25 4.9) rotate(-8.35)"/><path class="cls-6" d="M37.36,34.48S38.88,27,35.7,23.94s-8.34-1.88-9.46.25c0,0-1-6.61,5.39-7.72,6.7-1.17,9.48,6.64,8.16,11.55S37.36,34.48,37.36,34.48Z"/><circle class="cls-7" cx="32.56" cy="21.36" r="5.54" transform="translate(-2.76 4.96) rotate(-8.35)"/><g class="cls-8"><path class="cls-9" d="M29,22.36a13.62,13.62,0,0,1,3.33-1.24,12.17,12.17,0,0,0-1.31-3A5.37,5.37,0,0,0,27.42,21,4.58,4.58,0,0,1,29,22.36Z"/><path class="cls-9" d="M32.68,21.05a10.27,10.27,0,0,1,2.16-.23A11.36,11.36,0,0,1,36,20.9a8.93,8.93,0,0,0-.73-2.22,5.78,5.78,0,0,0-3.65-.63l-.23,0A12.51,12.51,0,0,1,32.68,21.05Z"/><path class="cls-9" d="M32.46,23.87l.42,0a11.58,11.58,0,0,0-.42-2.4,13.57,13.57,0,0,0-3.25,1.2,3.81,3.81,0,0,1,.5,1.41,3.76,3.76,0,0,1,0,1A5.9,5.9,0,0,1,32.46,23.87Z"/><path class="cls-9" d="M34.83,21.13a9.86,9.86,0,0,0-2.07.22,11.89,11.89,0,0,1,.42,2.45,5.69,5.69,0,0,1,2.89.67c0-.18,0-.36.06-.55A11.12,11.12,0,0,0,36,21.21,11.19,11.19,0,0,0,34.83,21.13Z"/></g><path class="cls-10" d="M34.23,41.09a1.94,1.94,0,0,0,0,.68,1.28,1.28,0,0,0,.08.45s0,0-.07,0-.15.06-.07.15.16.13.57,0a3.27,3.27,0,0,0,1.1-.54c.32-.26.39-.41.3-.48a.08.08,0,0,0-.14,0c0,.05,0,.08-.13,0s-.6-.61-1-.67A.52.52,0,0,0,34.23,41.09Z"/><path class="cls-4" d="M36.1,41.32a.08.08,0,0,0-.14,0,.11.11,0,0,1,0,0h0c0,.08-.08.16-.76.52s-.92.28-.92.28,0,0-.07,0-.15.06-.07.15.16.13.57,0a3.27,3.27,0,0,0,1.1-.54C36.12,41.54,36.18,41.39,36.1,41.32Z"/><g class="cls-11"><path class="cls-12" d="M35.13,41.11l.16.16A.93.93,0,0,0,35.13,41.11Z"/><path class="cls-13" d="M34.81,41.45h0Z"/><path class="cls-14" d="M34.23,41.09a1.85,1.85,0,0,0-.05.34l0,.07a1.28,1.28,0,0,1,.12-.61A.8.8,0,0,0,34.23,41.09Z"/><path class="cls-4" d="M34.84,40.68a.49.49,0,0,0-.47.16,1.44,1.44,0,0,0-.08.5L34.4,41l.32.73s-.22-.68-.26-.77l.36.51L34.59,41c.05.08.37.47.36.46s-.25-.51-.25-.51l.47.51a2.88,2.88,0,0,0-.37-.54,2.56,2.56,0,0,1,.33.22l-.27-.26.31.07-.39-.18.29,0h0A.83.83,0,0,0,34.84,40.68Z"/></g><path class="cls-3" d="M77.83,19.28h0a9.45,9.45,0,0,0-18.06-5.59,21.15,21.15,0,0,0,1.47,16.19,4.74,4.74,0,0,0,2.66,2.4,4.32,4.32,0,0,0,3.37-.59C76.62,26.09,77.82,19.32,77.83,19.28Z"/><path class="cls-4" d="M77.83,19.28h0a9.41,9.41,0,0,0,.2-4.81,9.41,9.41,0,0,1-.4,3.5h0s-1.21,6.82-10.55,12.41a4.32,4.32,0,0,1-3.37.59,4.75,4.75,0,0,1-2.66-2.4A22.49,22.49,0,0,1,59,22.34a22.34,22.34,0,0,0,2.28,7.54,4.74,4.74,0,0,0,2.66,2.4,4.32,4.32,0,0,0,3.37-.59C76.62,26.09,77.82,19.32,77.83,19.28Z"/><circle class="cls-5" cx="68.75" cy="16.7" r="9.04" transform="translate(32.45 77.43) rotate(-72.79)"/><path class="cls-6" d="M69.42,27.89s4.6-6.09,3-10.23-6.71-5.29-8.64-3.86c0,0,2-6.38,8.2-4.63C78.57,11,77.71,19.25,74.4,23.1S69.42,27.89,69.42,27.89Z"/><circle class="cls-7" cx="70.75" cy="13.99" r="5.54" transform="translate(36.45 77.43) rotate(-72.79)"/><g class="cls-8"><path class="cls-9" d="M67.15,13.37a13.62,13.62,0,0,1,3.54.32,12.17,12.17,0,0,0,.09-3.23,5.37,5.37,0,0,0-4.49.94A4.58,4.58,0,0,1,67.15,13.37Z"/><path class="cls-9" d="M71,13.76a10.27,10.27,0,0,1,2,.73A11.36,11.36,0,0,1,74,15a8.93,8.93,0,0,0,.3-2.31,5.78,5.78,0,0,0-3-2.14l-.22-.06A12.51,12.51,0,0,1,71,13.76Z"/><path class="cls-9" d="M69.58,16.2l.4.14A11.58,11.58,0,0,0,70.64,14a13.57,13.57,0,0,0-3.44-.32A3.81,3.81,0,0,1,67,15.16a3.76,3.76,0,0,1-.4.88A5.9,5.9,0,0,1,69.58,16.2Z"/><path class="cls-9" d="M72.9,14.76a9.86,9.86,0,0,0-2-.7,11.89,11.89,0,0,1-.68,2.39,5.69,5.69,0,0,1,2.31,1.85l.29-.47A11.12,11.12,0,0,0,74,15.36,11.19,11.19,0,0,0,72.9,14.76Z"/></g><path class="cls-10" d="M63.75,32.5a1.94,1.94,0,0,0-.34.59c-.14.39-.12.44-.12.44s0,0-.05-.05-.16,0-.12.1.09.18.51.25a3.27,3.27,0,0,0,1.22,0c.4-.09.53-.2.48-.3a.08.08,0,0,0-.14,0s0,.07-.11-.06a2.56,2.56,0,0,0-.61-1A.52.52,0,0,0,63.75,32.5Z"/><path class="cls-4" d="M65.33,33.52a.08.08,0,0,0-.14,0l0,0h0c-.07.06-.15.11-.91.14s-1-.14-1-.14,0,0-.05-.05-.16,0-.12.1.09.18.51.25a3.27,3.27,0,0,0,1.22,0C65.25,33.73,65.38,33.62,65.33,33.52Z"/><g class="cls-11"><path class="cls-12" d="M64.55,32.9l.08.21A.93.93,0,0,0,64.55,32.9Z"/><path class="cls-13" d="M64.12,33.08h0Z"/><path class="cls-14" d="M63.75,32.5a1.85,1.85,0,0,0-.19.28s0,.08,0,.08a1.28,1.28,0,0,1,.38-.5A.8.8,0,0,0,63.75,32.5Z"/><path class="cls-4" d="M64.47,32.4a.49.49,0,0,0-.49-.06,1.44,1.44,0,0,0-.29.41l.26-.29,0,.8s.09-.71.09-.81c0,.08.09.54.1.62s0-.44,0-.52c0,.09.13.58.13.57s0-.57,0-.57l.2.66a2.88,2.88,0,0,0-.1-.65,2.56,2.56,0,0,1,.2.34l-.13-.35.24.2-.27-.33.25.15h0A.83.83,0,0,0,64.47,32.4Z"/></g><path class="cls-15" d="M60.37,20.61h0a9.45,9.45,0,0,0-18.18-5.17A21.15,21.15,0,0,0,44,31.59a4.74,4.74,0,0,0,2.72,2.34,4.32,4.32,0,0,0,3.36-.67C59.32,27.45,60.36,20.64,60.37,20.61Z"/><path class="cls-4" d="M60.37,20.61h0a9.41,9.41,0,0,0,.09-4.82,9.41,9.41,0,0,1-.31,3.51h0S59.1,26.14,49.89,32a4.32,4.32,0,0,1-3.36.67,4.75,4.75,0,0,1-2.72-2.34,22.49,22.49,0,0,1-2.24-6.18A22.34,22.34,0,0,0,44,31.59a4.74,4.74,0,0,0,2.72,2.34,4.32,4.32,0,0,0,3.36-.67C59.32,27.45,60.36,20.64,60.37,20.61Z"/><circle class="cls-5" cx="51.23" cy="18.24" r="9.04" transform="translate(19.68 62.53) rotate(-74.14)"/><path class="cls-6" d="M52.17,29.41s4.46-6.2,2.81-10.3S48.14,14,46.24,15.46c0,0,1.83-6.42,8.09-4.83,6.59,1.68,5.92,9.94,2.71,13.88S52.17,29.41,52.17,29.41Z"/><circle class="cls-7" cx="53.17" cy="15.48" r="5.54" transform="translate(23.74 62.39) rotate(-74.14)"/><g class="cls-8"><path class="cls-9" d="M49.55,14.95a13.62,13.62,0,0,1,3.54.24,12.17,12.17,0,0,0,0-3.23,5.37,5.37,0,0,0-4.47,1A4.58,4.58,0,0,1,49.55,14.95Z"/><path class="cls-9" d="M53.4,15.25a10.27,10.27,0,0,1,2.06.68,11.36,11.36,0,0,1,1,.54,8.93,8.93,0,0,0,.25-2.32,5.78,5.78,0,0,0-3.07-2.07L53.43,12A12.51,12.51,0,0,1,53.4,15.25Z"/><path class="cls-9" d="M52.05,17.73l.4.13a11.58,11.58,0,0,0,.6-2.36,13.57,13.57,0,0,0-3.45-.24,3.81,3.81,0,0,1-.12,1.49,3.76,3.76,0,0,1-.38.89A5.9,5.9,0,0,1,52.05,17.73Z"/><path class="cls-9" d="M55.34,16.21a9.86,9.86,0,0,0-2-.65A11.89,11.89,0,0,1,52.74,18a5.69,5.69,0,0,1,2.36,1.8l.28-.48a11.12,11.12,0,0,0,1-2.51A11.19,11.19,0,0,0,55.34,16.21Z"/></g><path class="cls-15" d="M46.6,34.16a1.94,1.94,0,0,0-.32.6,1.28,1.28,0,0,0-.11.44s0,0-.05,0-.16,0-.12.11.1.18.52.23a3.27,3.27,0,0,0,1.22,0c.4-.1.52-.21.47-.31a.08.08,0,0,0-.14,0s0,.07-.11-.06a2.56,2.56,0,0,0-.63-1A.52.52,0,0,0,46.6,34.16Z"/><path class="cls-4" d="M48.21,35.13a.08.08,0,0,0-.14,0l0,0h0c-.07.06-.14.11-.91.16s-1-.12-1-.12,0,0-.05,0-.16,0-.12.11.1.18.52.23a3.27,3.27,0,0,0,1.22,0C48.14,35.34,48.26,35.24,48.21,35.13Z"/><g class="cls-11"><path class="cls-12" d="M47.41,34.54l.08.21A.93.93,0,0,0,47.41,34.54Z"/><path class="cls-13" d="M47,34.72h0Z"/><path class="cls-14" d="M46.6,34.16a1.85,1.85,0,0,0-.19.29v.08a1.28,1.28,0,0,1,.36-.51A.8.8,0,0,0,46.6,34.16Z"/><path class="cls-14" d="M47.32,34a.49.49,0,0,0-.49,0,1.44,1.44,0,0,0-.28.42l.25-.29v.8s.07-.71.08-.81c0,.08.1.54.12.61s0-.44,0-.52c0,.09.15.58.14.56s0-.57,0-.57l.22.66a2.88,2.88,0,0,0-.11-.65,2.56,2.56,0,0,1,.21.33l-.14-.35.25.19-.28-.33.26.15h0A.83.83,0,0,0,47.32,34Z"/></g><path class="cls-16" d="M87.81,44.88h0A9.45,9.45,0,0,0,75,31a21.15,21.15,0,0,0-6.83,14.75,4.74,4.74,0,0,0,1.1,3.41,4.32,4.32,0,0,0,3.21,1.18C83.35,50.17,87.78,44.9,87.81,44.88Z"/><path class="cls-4" d="M87.81,44.88h0a9.41,9.41,0,0,0,2.59-4.06,9.41,9.41,0,0,1-2.1,2.83h0S83.84,48.94,73,49.11a4.32,4.32,0,0,1-3.21-1.18,4.75,4.75,0,0,1-1.1-3.41,22.49,22.49,0,0,1,1.31-6.44,22.34,22.34,0,0,0-1.8,7.67,4.74,4.74,0,0,0,1.1,3.41,4.32,4.32,0,0,0,3.21,1.18C83.35,50.17,87.78,44.9,87.81,44.88Z"/><circle class="cls-5" cx="81.23" cy="38.1" r="9.04" transform="translate(-4.28 65.26) rotate(-42.75)"/><path class="cls-6" d="M76.22,48.12s7-3,7.76-7.33-3.16-7.94-5.55-7.67c0,0,4.9-4.53,9.42.09,4.75,4.86-.13,11.57-4.92,13.26S76.22,48.12,76.22,48.12Z"/><circle class="cls-7" cx="84.33" cy="36.75" r="5.54" transform="translate(-2.54 66.99) rotate(-42.74)"/><g class="cls-8"><path class="cls-9" d="M81.52,34.41a13.62,13.62,0,0,1,2.9,2,12.17,12.17,0,0,0,1.7-2.75,5.37,5.37,0,0,0-4.36-1.43A4.58,4.58,0,0,1,81.52,34.41Z"/><path class="cls-9" d="M84.65,36.67a10.27,10.27,0,0,1,1.41,1.65,11.36,11.36,0,0,1,.59,1,8.93,8.93,0,0,0,1.42-1.85,5.78,5.78,0,0,0-1.54-3.37l-.16-.16A12.51,12.51,0,0,1,84.65,36.67Z"/><path class="cls-9" d="M82.21,38.08l.28.32a11.58,11.58,0,0,0,1.74-1.7,13.57,13.57,0,0,0-2.82-2,3.81,3.81,0,0,1-.88,1.21,3.76,3.76,0,0,1-.79.56A5.9,5.9,0,0,1,82.21,38.08Z"/><path class="cls-9" d="M85.8,38.5a9.86,9.86,0,0,0-1.35-1.58,11.89,11.89,0,0,1-1.79,1.73,5.69,5.69,0,0,1,1.08,2.76l.49-.26a11.12,11.12,0,0,0,2.18-1.61A11.19,11.19,0,0,0,85.8,38.5Z"/></g><path class="cls-16" d="M16.29,24.56h0A9.45,9.45,0,0,0,2.62,37.62a21.15,21.15,0,0,0,14.87,6.59,4.74,4.74,0,0,0,3.39-1.16A4.32,4.32,0,0,0,22,39.82C21.65,28.94,16.31,24.59,16.29,24.56Z"/><path class="cls-4" d="M16.29,24.56h0A9.41,9.41,0,0,0,12.18,22a9.41,9.41,0,0,1,2.87,2h0s5.37,4.37,5.72,15.25a4.32,4.32,0,0,1-1.12,3.23,4.75,4.75,0,0,1-3.39,1.16,22.49,22.49,0,0,1-6.46-1.2,22.34,22.34,0,0,0,7.7,1.67,4.74,4.74,0,0,0,3.39-1.16A4.32,4.32,0,0,0,22,39.82C21.65,28.94,16.31,24.59,16.29,24.56Z"/><circle class="cls-5" cx="9.62" cy="31.25" r="9.04" transform="translate(-18.93 15.3) rotate(-43.7)"/><path class="cls-6" d="M19.72,36.1s-3.09-7-7.46-7.64-7.89,3.29-7.58,5.68c0,0-4.61-4.83-.07-9.42,4.78-4.83,11.57-.07,13.34,4.7S19.72,36.1,19.72,36.1Z"/><circle class="cls-7" cx="8.22" cy="28.18" r="5.54" transform="translate(-17.19 13.49) rotate(-43.7)"/><g class="cls-8"><path class="cls-9" d="M5.93,31a13.62,13.62,0,0,1,2-2.94,12.17,12.17,0,0,0-2.78-1.65,5.37,5.37,0,0,0-1.36,4.38A4.58,4.58,0,0,1,5.93,31Z"/><path class="cls-9" d="M8.14,27.86a10.27,10.27,0,0,1,1.63-1.43,11.36,11.36,0,0,1,1-.61,8.93,8.93,0,0,0-1.88-1.39A5.78,5.78,0,0,0,5.53,26l-.16.16A12.51,12.51,0,0,1,8.14,27.86Z"/><path class="cls-9" d="M9.59,30.28,9.9,30a11.58,11.58,0,0,0-1.73-1.72,13.57,13.57,0,0,0-2,2.85A3.81,3.81,0,0,1,7.44,32a3.76,3.76,0,0,1,.58.78A5.9,5.9,0,0,1,9.59,30.28Z"/><path class="cls-9" d="M9.94,26.68a9.86,9.86,0,0,0-1.56,1.37,11.89,11.89,0,0,1,1.76,1.76,5.69,5.69,0,0,1,2.74-1.12c-.08-.16-.17-.32-.27-.49A11.12,11.12,0,0,0,11,26,11.19,11.19,0,0,0,9.94,26.68Z"/></g><path class="cls-2" d="M40.41,107h.65A94.07,94.07,0,0,0,34.5,75.46c-6-15.7-3.61-35.66-3.27-36.68l-.29-.13-.25-.21c-.33.38-3,20.83,3.21,37.25A93.44,93.44,0,0,1,40.41,107Z"/><path class="cls-2" d="M37.15,107h.65a58.8,58.8,0,0,0-5-17.67c-6.73-14.17-4.27-25.62-4.25-25.74l-.63-.14c0,.12-2.54,11.77,4.29,26.16A58.14,58.14,0,0,1,37.15,107Z"/><path class="cls-2" d="M42.69,107h.65a79.5,79.5,0,0,0-2.6-23.29C37.46,72.35,42,57.84,42,57.7l-.62-.2c0,.15-4.64,14.84-1.31,26.37A78.86,78.86,0,0,1,42.69,107Z"/><path class="cls-2" d="M46.59,107c.33-3.4.47-6.54.59-9.43.32-7.44.57-13.31,4-17.64,5.59-7,5.59-9.07,5.57-9.28l-.65,0s0,2.08-5.43,8.83c-3.6,4.5-3.86,10.46-4.19,18-.12,2.9-.26,6-.6,9.46Z"/><path class="cls-2" d="M46.86,73.7a34.1,34.1,0,0,0-2,7.12c-1.08,7.16-.72,15-.45,20.69.07,1.51.14,2.94.17,4.15,0,.4,0,.84,0,1.32h.65c0-.48,0-.93,0-1.33,0-1.22-.1-2.65-.17-4.17-.26-5.68-.63-13.46.45-20.56a33.08,33.08,0,0,1,2-7c1.6-4.32,3-8-.63-15.79-5.08-10.89.43-25.3.49-25.44l-.6-.24c-.06.15-5.66,14.81-.47,25.95C49.75,65.91,48.47,69.34,46.86,73.7Z"/><path class="cls-2" d="M27.41,99.87A57,57,0,0,1,32.05,107h.73a56.68,56.68,0,0,0-4.85-7.5c-2.84-3.87-5.08-6.93-5.64-13.18a45.45,45.45,0,0,0-6.68-19l-.54.36a44.72,44.72,0,0,1,6.57,18.7C22.22,92.79,24.63,96.07,27.41,99.87Z"/><path class="cls-2" d="M45.91,107c.46-5,.56-9.89.64-13.88,0-2,.07-3.73.15-5.12.25-4.61,1.69-8.23,3.22-12.06s3-7.61,3.39-12.51c.68-9.47,8.42-16.73,8.5-16.8l-.44-.48c-.08.07-8,7.49-8.71,17.23-.35,4.8-1.87,8.62-3.34,12.32S46.29,83.24,46,88c-.07,1.39-.11,3.13-.15,5.14-.08,4-.17,8.9-.64,13.89Z"/><path class="cls-17" d="M57.87,46.9a1.93,1.93,0,0,0-.55.39c-.29.29-.3.34-.3.34s0,0,0-.07-.14-.08-.16,0,0,.2.36.44a3.24,3.24,0,0,0,1.11.51c.4.09.56,0,.56-.07a.08.08,0,0,0-.12-.08s-.07,0-.07-.1a2.53,2.53,0,0,0-.11-1.19A.52.52,0,0,0,57.87,46.9Z"/><path class="cls-18" d="M58.87,48.49a.08.08,0,0,0-.12-.08l0,0h0c-.09,0-.18,0-.89-.26s-.81-.53-.81-.53,0,0,0-.07-.14-.08-.16,0,0,.2.36.44a3.24,3.24,0,0,0,1.11.51C58.72,48.65,58.87,48.6,58.87,48.49Z"/><g class="cls-11"><path class="cls-19" d="M58,47.58h0Z"/><path class="cls-20" d="M57.87,46.9a1.7,1.7,0,0,0-.29.17l0,.07a1.28,1.28,0,0,1,.55-.3A.77.77,0,0,0,57.87,46.9Z"/><path class="cls-20" d="M58.57,47.12a.49.49,0,0,0-.42-.26,1.42,1.42,0,0,0-.44.25l.35-.15-.36.71.43-.69c0,.07-.15.53-.17.6l.22-.47c0,.09-.12.58-.12.57s.24-.52.24-.52l-.1.68a2.91,2.91,0,0,0,.19-.63,2.62,2.62,0,0,1,0,.39l0-.37.14.28-.11-.42.16.24h0A.79.79,0,0,0,58.57,47.12Z"/></g><path class="cls-17" d="M58.68,47a.43.43,0,0,0-.14-.63c-.36-.23-.41.11-.41.11l.11.46Z"/><path class="cls-20" d="M58.47,46.52l.11,0-.11.08h.11l-.09,0,.12,0-.15,0h.19l-.2.06h.21l-.19.08h.18l-.13.1.14-.05-.06.13.09-.1s0,.09,0,.13-.21,0-.21,0l0,0-.05-.17s0-.15,0-.16,0-.1.05-.11S58.47,46.52,58.47,46.52Z"/><path class="cls-18" d="M58,46.23s-.3.12-.06.61.61.36.73.19-.16,0-.21-.23a.59.59,0,0,1,.08-.42A.51.51,0,0,0,58,46.23Z"/><path class="cls-21" d="M58.52,46.38s-.19-.08-.23.19a.5.5,0,0,0,.26.57.33.33,0,0,1-.31-.3C58.2,46.55,58.27,46.26,58.52,46.38Z"/><path class="cls-21" d="M58.23,46.31s-.15.1-.06.48.16.34.16.34-.18,0-.22-.31S58.1,46.35,58.23,46.31Z"/><path class="cls-21" d="M58,46.28s-.18.15.05.72a.74.74,0,0,1-.17-.45C57.92,46.26,58,46.28,58,46.28Z"/><path class="cls-22" d="M73.85,35.47h0a9.45,9.45,0,0,0-17.2-7.86,21.16,21.16,0,0,0-.61,16.25,4.74,4.74,0,0,0,2.33,2.72,4.32,4.32,0,0,0,3.42-.16C71.78,42.07,73.84,35.5,73.85,35.47Z"/><path class="cls-23" d="M73.85,35.47h0a9.43,9.43,0,0,0,.82-4.75,9.43,9.43,0,0,1-.84,3.42h0s-2.07,6.61-12.05,11a4.32,4.32,0,0,1-3.42.16A4.75,4.75,0,0,1,56,42.54a22.49,22.49,0,0,1-1.28-6.44,22.3,22.3,0,0,0,1.3,7.77,4.74,4.74,0,0,0,2.33,2.72,4.32,4.32,0,0,0,3.42-.16C71.78,42.07,73.84,35.5,73.85,35.47Z"/><circle class="cls-24" cx="65.17" cy="31.75" r="9.04" transform="translate(9.21 77.83) rotate(-65.45)"/><path class="cls-25" d="M64.41,42.94s5.34-5.45,4.33-9.76-6-6.11-8.08-4.94c0,0,2.77-6.07,8.72-3.55,6.26,2.66,4.35,10.73.58,14.13S64.41,42.94,64.41,42.94Z"/><path class="cls-25" d="M61.63,41c-2.89-.45-5.4-1.43-5.14-6.49a23.56,23.56,0,0,1,1.82-6.08A10.11,10.11,0,0,1,63,23.5a8.74,8.74,0,0,0-5.84,4.85s-3.31,5.53-.87,13.54h0s.74,2.64,2.89,3a4.55,4.55,0,0,0,4.6-1.53C64.41,42.4,64.6,41.44,61.63,41Z"/><circle class="cls-25" cx="67.5" cy="29.31" r="5.54" transform="translate(12.79 78.53) rotate(-65.45)"/><g class="cls-26"><path class="cls-27" d="M64,28.24a13.62,13.62,0,0,1,3.47.77A12.2,12.2,0,0,0,68,25.82a5.36,5.36,0,0,0-4.58.36A4.59,4.59,0,0,1,64,28.24Z"/><path class="cls-27" d="M67.77,29.12a10.25,10.25,0,0,1,1.93,1c.32.21.63.44.93.69a8.92,8.92,0,0,0,.59-2.26A5.79,5.79,0,0,0,68.5,26l-.21-.09A12.45,12.45,0,0,1,67.77,29.12Z"/><path class="cls-27" d="M66.06,31.36l.38.19a11.64,11.64,0,0,0,1-2.25A13.61,13.61,0,0,0,64,28.55a3.8,3.8,0,0,1-.86,2.28A5.9,5.9,0,0,1,66.06,31.36Z"/><path class="cls-27" d="M69.54,30.36a9.86,9.86,0,0,0-1.85-.94,12,12,0,0,1-1,2.29,5.7,5.7,0,0,1,2.06,2.13l.35-.43a11,11,0,0,0,1.4-2.33A11.27,11.27,0,0,0,69.54,30.36Z"/></g><path class="cls-22" d="M20.53,48.37h0a9.45,9.45,0,1,0-18.31,4.7,21.15,21.15,0,0,0,9.74,13,4.74,4.74,0,0,0,3.53.65A4.32,4.32,0,0,0,18,64.47C23.07,54.81,20.54,48.4,20.53,48.37Z"/><path class="cls-25" d="M14.48,60.34C12,61.81,9.39,62.62,6.4,58.53A23.61,23.61,0,0,1,4,52.65a10.12,10.12,0,0,1,.54-6.76,8.74,8.74,0,0,0-1.49,7.45s.9,6.38,7.83,11.07h0S13.12,66,15,65a4.55,4.55,0,0,0,2.61-4.08C17.54,59.69,17.08,58.83,14.48,60.34Z"/><path class="cls-17" d="M15.29,67.31a1.94,1.94,0,0,0-.19.65,1.37,1.37,0,0,0,0,.45s0,0-.06,0-.16,0-.1.13.13.15.56.11a3.26,3.26,0,0,0,1.19-.3c.37-.19.46-.32.39-.41a.08.08,0,0,0-.14,0s0,.08-.12,0-.46-.72-.84-.85A.52.52,0,0,0,15.29,67.31Z"/><path class="cls-18" d="M17.06,67.91a.08.08,0,0,0-.14,0s0,0,0,0h0c-.05.08-.12.14-.85.36s-1,.09-1,.09,0,0-.06,0-.16,0-.1.13.13.15.56.11a3.26,3.26,0,0,0,1.19-.3C17,68.13,17.14,68,17.06,67.91Z"/><g class="cls-11"><path class="cls-19" d="M15.78,67.78h0Z"/><path class="cls-20" d="M15.29,67.31a1.8,1.8,0,0,0-.12.32l0,.07a1.28,1.28,0,0,1,.24-.58A.8.8,0,0,0,15.29,67.31Z"/><path class="cls-20" d="M16,67a.49.49,0,0,0-.49.06,1.42,1.42,0,0,0-.18.47l.18-.34.16.78s-.08-.71-.1-.81c0,.08.22.5.25.58s-.11-.43-.13-.51c0,.09.27.53.26.52s-.14-.55-.14-.55l.36.59a2.85,2.85,0,0,0-.25-.61,2.56,2.56,0,0,1,.28.28l-.21-.31.28.13-.34-.26.28.08h0A.83.83,0,0,0,16,67Z"/></g><path class="cls-17" d="M16,66.89a.43.43,0,0,0-.51-.4c-.42,0-.25.34-.25.34l.37.29Z"/><path class="cls-20" d="M15.52,66.63l.07-.09,0,.13.08-.06-.06.08.11-.06-.09.12.15-.12-.12.17.16-.14-.1.18.14-.12,0,.16.08-.13,0,.14v-.13s.07.06.06.12-.16.14-.16.14h-.06l-.14-.1-.1-.12s0-.1,0-.12S15.52,66.63,15.52,66.63Z"/><path class="cls-18" d="M15,66.71s-.16.28.33.52.7-.11.69-.31-.14.08-.31,0a.59.59,0,0,1-.2-.38A.51.51,0,0,0,15,66.71Z"/><path class="cls-21" d="M15.46,66.49s-.19.05-.06.3a.5.5,0,0,0,.56.28.33.33,0,0,1-.43,0C15.32,66.83,15.19,66.56,15.46,66.49Z"/><path class="cls-21" d="M15.19,66.62s-.05.17.26.41.34.16.34.16-.16.1-.37-.1S15.12,66.74,15.19,66.62Z"/><path class="cls-21" d="M15,66.71s0,.23.5.53a.74.74,0,0,1-.41-.25C14.92,66.78,15,66.71,15,66.71Z"/><path class="cls-28" d="M20.53,48.37h0a9.41,9.41,0,0,0-2.35-4.21,9.43,9.43,0,0,1,1.5,3.19h0s2.54,6.44-2.48,16.1a4.32,4.32,0,0,1-2.56,2.27,4.74,4.74,0,0,1-3.53-.65,22.48,22.48,0,0,1-5-4.21A22.3,22.3,0,0,0,12,66.09a4.74,4.74,0,0,0,3.53.65A4.32,4.32,0,0,0,18,64.47C23.07,54.81,20.54,48.4,20.53,48.37Z"/><circle class="cls-24" cx="11.44" cy="50.93" r="9.04" transform="translate(-12.31 4.44) rotate(-14.4)"/><path class="cls-25" d="M17.88,60.11s.72-7.6-2.77-10.31-8.49-1-9.39,1.24c0,0-1.66-6.47,4.55-8.24,6.54-1.87,10.12,5.61,9.33,10.63S17.88,60.11,17.88,60.11Z"/><circle class="cls-25" cx="11.72" cy="47.57" r="5.54" transform="translate(-11.46 4.41) rotate(-14.4)"/><g class="cls-26"><path class="cls-27" d="M8.33,48.93a13.62,13.62,0,0,1,3.18-1.58,12.19,12.19,0,0,0-1.61-2.8,5.37,5.37,0,0,0-3.33,3.16A4.58,4.58,0,0,1,8.33,48.93Z"/><path class="cls-27" d="M11.81,47.25a10.33,10.33,0,0,1,2.12-.45c.38,0,.77-.05,1.15,0a8.87,8.87,0,0,0-1-2.13,5.78,5.78,0,0,0-3.7-.24l-.22.06A12.45,12.45,0,0,1,11.81,47.25Z"/><path class="cls-27" d="M11.89,50.07,12.3,50a11.61,11.61,0,0,0-.67-2.35,13.57,13.57,0,0,0-3.1,1.53,3.87,3.87,0,0,1,.65,1.35,3.8,3.8,0,0,1,.12,1A5.91,5.91,0,0,1,11.89,50.07Z"/><path class="cls-27" d="M14,47.1a9.91,9.91,0,0,0-2,.43,11.8,11.8,0,0,1,.68,2.4,5.69,5.69,0,0,1,2.94.36c0-.18,0-.37,0-.55a11.06,11.06,0,0,0-.38-2.69A11.21,11.21,0,0,0,14,47.1Z"/></g><path class="cls-15" d="M25.49,7.29h0a9.45,9.45,0,0,0-18.4,4.33,21.15,21.15,0,0,0,9.47,13.22,4.74,4.74,0,0,0,3.51.72,4.32,4.32,0,0,0,2.61-2.22C27.89,13.78,25.5,7.33,25.49,7.29Z"/><path class="cls-4" d="M25.49,7.29h0A9.41,9.41,0,0,0,23.23,3a9.41,9.41,0,0,1,1.43,3.22h0s2.41,6.49-2.81,16a4.32,4.32,0,0,1-2.61,2.22,4.75,4.75,0,0,1-3.51-.72,22.49,22.49,0,0,1-5-4.31,22.34,22.34,0,0,0,5.79,5.34,4.74,4.74,0,0,0,3.51.72,4.32,4.32,0,0,0,2.61-2.22C27.89,13.78,25.5,7.33,25.49,7.29Z"/><circle class="cls-5" cx="16.35" cy="9.67" r="9.04" transform="translate(-1.78 4) rotate(-13.23)"/><path class="cls-6" d="M22.6,19S23.48,11.4,20,8.62s-8.47-1.16-9.41,1c0,0-1.53-6.5,4.72-8.15,6.57-1.74,10,5.81,9.11,10.81S22.6,19,22.6,19Z"/><circle class="cls-7" cx="16.7" cy="6.32" r="5.54" transform="matrix(0.97, -0.23, 0.23, 0.97, -1, 3.99)"/><g class="cls-8"><path class="cls-9" d="M13.28,7.61A13.62,13.62,0,0,1,16.5,6.09a12.17,12.17,0,0,0-1.56-2.83,5.37,5.37,0,0,0-3.39,3.09A4.58,4.58,0,0,1,13.28,7.61Z"/><path class="cls-9" d="M16.79,6a10.27,10.27,0,0,1,2.13-.41,11.36,11.36,0,0,1,1.15,0,8.93,8.93,0,0,0-.91-2.15,5.78,5.78,0,0,0-3.69-.31l-.22.06A12.51,12.51,0,0,1,16.79,6Z"/><path class="cls-9" d="M16.82,8.82l.41-.08a11.58,11.58,0,0,0-.62-2.36,13.57,13.57,0,0,0-3.13,1.47,3.81,3.81,0,0,1,.62,1.36,3.76,3.76,0,0,1,.1,1A5.9,5.9,0,0,1,16.82,8.82Z"/><path class="cls-9" d="M18.95,5.9a9.86,9.86,0,0,0-2,.39,11.89,11.89,0,0,1,.63,2.41,5.69,5.69,0,0,1,2.93.42c0-.18,0-.37,0-.55a11.12,11.12,0,0,0-.32-2.69A11.19,11.19,0,0,0,18.95,5.9Z"/></g><path class="cls-15" d="M20,25.83a1.94,1.94,0,0,0,0,.68,1.28,1.28,0,0,0,.12.44s0,0-.07,0S20,27,20,27.08s.17.11.57,0a3.27,3.27,0,0,0,1.05-.63c.3-.28.35-.44.26-.5a.08.08,0,0,0-.13.06c0,.05,0,.08-.13,0a2.56,2.56,0,0,0-1-.58A.52.52,0,0,0,20,25.83Z"/><path class="cls-4" d="M21.92,25.9a.08.08,0,0,0-.13.06.11.11,0,0,1,0,0h0c0,.09-.07.17-.71.58s-.89.36-.89.36,0,0-.07,0S20,27,20,27.08s.17.11.57,0a3.27,3.27,0,0,0,1.05-.63C22,26.12,22,26,21.92,25.9Z"/><g class="cls-11"><path class="cls-12" d="M20.94,25.77l.17.14A.93.93,0,0,0,20.94,25.77Z"/><path class="cls-13" d="M20.65,26.14h0Z"/><path class="cls-14" d="M20,25.83a1.85,1.85,0,0,0,0,.34l0,.06a1.28,1.28,0,0,1,.07-.62A.8.8,0,0,0,20,25.83Z"/><path class="cls-14" d="M20.62,25.38a.49.49,0,0,0-.46.2,1.44,1.44,0,0,0,0,.5l.08-.38.38.7s-.28-.66-.33-.74l.4.48-.26-.45.4.42s-.29-.49-.29-.49l.51.47a2.88,2.88,0,0,0-.41-.51,2.56,2.56,0,0,1,.35.19l-.29-.24.31,0-.4-.15h.29A.83.83,0,0,0,20.62,25.38Z"/></g><path class="cls-10" d="M38.16,46.9h0a9.45,9.45,0,0,0-18.9-.18,21.15,21.15,0,0,0,6.06,15.09,4.74,4.74,0,0,0,3.24,1.54,4.32,4.32,0,0,0,3.06-1.53C38.95,53.78,38.16,46.94,38.16,46.9Z"/><path class="cls-4" d="M38.16,46.9h0A9.41,9.41,0,0,0,37,42.23a9.41,9.41,0,0,1,.62,3.47h0s.79,6.88-6.55,14.92A4.32,4.32,0,0,1,28,62.15a4.75,4.75,0,0,1-3.24-1.54A22.49,22.49,0,0,1,21,55.25a22.34,22.34,0,0,0,4.35,6.56,4.74,4.74,0,0,0,3.24,1.54,4.32,4.32,0,0,0,3.06-1.53C38.95,53.78,38.16,46.94,38.16,46.9Z"/><circle class="cls-5" cx="28.71" cy="47.04" r="9.04" transform="translate(-18.6 75.3) rotate(-89.46)"/><path class="cls-6" d="M32.57,57.56s2.66-7.16,0-10.68-7.95-3.14-9.39-1.22c0,0,.06-6.68,6.52-6.79,6.8-.12,8.34,8,6.28,12.67S32.57,57.56,32.57,57.56Z"/><circle class="cls-7" cx="29.85" cy="43.86" r="5.54" transform="translate(-14.29 73.3) rotate(-89.46)"/><g class="cls-8"><path class="cls-9" d="M26.23,44.3a13.62,13.62,0,0,1,3.48-.71,12.17,12.17,0,0,0-.84-3.12,5.37,5.37,0,0,0-4,2.19A4.58,4.58,0,0,1,26.23,44.3Z"/><path class="cls-9" d="M30,43.57a10.27,10.27,0,0,1,2.17.11,11.36,11.36,0,0,1,1.12.25,8.93,8.93,0,0,0-.38-2.3,5.78,5.78,0,0,0-3.51-1.18H29.2A12.51,12.51,0,0,1,30,43.57Z"/><path class="cls-9" d="M29.37,46.32l.42,0a11.58,11.58,0,0,0,0-2.44,13.57,13.57,0,0,0-3.39.68,3.81,3.81,0,0,1,.28,1.47,3.76,3.76,0,0,1-.13,1A5.9,5.9,0,0,1,29.37,46.32Z"/><path class="cls-9" d="M32.13,44a9.86,9.86,0,0,0-2.08-.1,11.89,11.89,0,0,1,0,2.49,5.69,5.69,0,0,1,2.75,1.11c.05-.18.1-.35.15-.53a11.12,11.12,0,0,0,.33-2.69A11.19,11.19,0,0,0,32.13,44Z"/></g><path class="cls-10" d="M28.46,63.61a1.94,1.94,0,0,0-.15.66,1.28,1.28,0,0,0,0,.45s0,0-.07,0-.16,0-.09.13.14.15.56.09a3.27,3.27,0,0,0,1.17-.36c.36-.2.45-.34.37-.43a.08.08,0,0,0-.14,0s0,.08-.12,0-.5-.7-.88-.81A.52.52,0,0,0,28.46,63.61Z"/><path class="cls-4" d="M30.26,64.13a.08.08,0,0,0-.14,0,.11.11,0,0,1,0,0h0c0,.08-.11.15-.83.4s-1,.14-1,.14,0,0-.07,0-.16,0-.09.13.14.15.56.09a3.27,3.27,0,0,0,1.17-.36C30.25,64.35,30.34,64.21,30.26,64.13Z"/><g class="cls-11"><path class="cls-12" d="M29.34,63.76l.14.18A.93.93,0,0,0,29.34,63.76Z"/><path class="cls-13" d="M29,64.05h0Z"/><path class="cls-14" d="M28.46,63.61a1.85,1.85,0,0,0-.11.33l0,.07a1.28,1.28,0,0,1,.22-.59A.8.8,0,0,0,28.46,63.61Z"/><path class="cls-4" d="M29.12,63.3a.49.49,0,0,0-.49.08,1.44,1.44,0,0,0-.16.48l.16-.35.2.77s-.12-.7-.14-.8c0,.07.24.49.27.56l-.15-.5c0,.08.3.52.29.51s-.17-.55-.17-.55l.38.58a2.88,2.88,0,0,0-.28-.6,2.56,2.56,0,0,1,.29.27l-.23-.3.29.12L29,63.34l.29.07h0A.83.83,0,0,0,29.12,63.3Z"/></g><path class="cls-10" d="M71.11,59.41h0a9.45,9.45,0,0,0-17.49-7.18,21.15,21.15,0,0,0,0,16.26,4.74,4.74,0,0,0,2.44,2.63,4.32,4.32,0,0,0,3.41-.29C69.29,66.09,71.09,59.45,71.11,59.41Z"/><path class="cls-4" d="M71.11,59.41h0a9.41,9.41,0,0,0,.63-4.77A9.41,9.41,0,0,1,71,58.09h0s-1.82,6.68-11.62,11.42A4.32,4.32,0,0,1,56,69.8a4.75,4.75,0,0,1-2.44-2.63A22.49,22.49,0,0,1,52,60.79a22.34,22.34,0,0,0,1.6,7.71,4.74,4.74,0,0,0,2.44,2.63,4.32,4.32,0,0,0,3.41-.29C69.29,66.09,71.09,59.45,71.11,59.41Z"/><circle class="cls-5" cx="62.29" cy="56.04" r="9.04" transform="translate(-13.21 92.38) rotate(-67.68)"/><path class="cls-6" d="M62,67.24s5.12-5.66,3.95-9.92-6.21-5.87-8.27-4.62c0,0,2.54-6.18,8.58-3.89,6.36,2.41,4.76,10.55,1.13,14.1S62,67.24,62,67.24Z"/><circle class="cls-7" cx="64.52" cy="53.51" r="5.54" transform="translate(-9.48 92.88) rotate(-67.68)"/><g class="cls-8"><path class="cls-9" d="M61,52.58a13.62,13.62,0,0,1,3.49.63A12.17,12.17,0,0,0,64.87,50a5.37,5.37,0,0,0-4.56.54A4.58,4.58,0,0,1,61,52.58Z"/><path class="cls-9" d="M64.79,53.31a10.27,10.27,0,0,1,2,.91,11.36,11.36,0,0,1,1,.65,8.93,8.93,0,0,0,.5-2.28,5.78,5.78,0,0,0-2.82-2.4l-.21-.08A12.51,12.51,0,0,1,64.79,53.31Z"/><path class="cls-9" d="M63.16,55.62l.38.17a11.58,11.58,0,0,0,.86-2.28,13.57,13.57,0,0,0-3.4-.63,3.81,3.81,0,0,1-.29,1.47,3.76,3.76,0,0,1-.48.84A5.9,5.9,0,0,1,63.16,55.62Z"/><path class="cls-9" d="M66.6,54.48a9.86,9.86,0,0,0-1.89-.87,11.89,11.89,0,0,1-.89,2.32A5.69,5.69,0,0,1,66,58l.34-.44a11.12,11.12,0,0,0,1.3-2.38A11.19,11.19,0,0,0,66.6,54.48Z"/></g><path class="cls-10" d="M55.9,71.33a1.94,1.94,0,0,0-.39.56c-.17.37-.16.42-.16.42s0,0,0-.06-.16,0-.13.09.07.19.49.29a3.27,3.27,0,0,0,1.22.1c.41-.06.54-.15.5-.26a.08.08,0,0,0-.14,0s-.05.07-.1-.07a2.56,2.56,0,0,0-.51-1.08A.52.52,0,0,0,55.9,71.33Z"/><path class="cls-4" d="M57.39,72.48a.08.08,0,0,0-.14,0l0,0h0c-.07.06-.16.1-.92.06s-.94-.23-.94-.23,0,0,0-.06-.16,0-.13.09.07.19.49.29a3.27,3.27,0,0,0,1.22.1C57.29,72.68,57.42,72.59,57.39,72.48Z"/><g class="cls-11"><path class="cls-12" d="M56.66,71.8l.06.22A.93.93,0,0,0,56.66,71.8Z"/><path class="cls-13" d="M56.21,71.94s0,0,0,0Z"/><path class="cls-14" d="M55.9,71.33a1.85,1.85,0,0,0-.22.26s0,.08,0,.08a1.28,1.28,0,0,1,.42-.47A.8.8,0,0,0,55.9,71.33Z"/><path class="cls-4" d="M56.63,71.29a.49.49,0,0,0-.48-.1,1.44,1.44,0,0,0-.32.39l.28-.26-.1.79s.15-.7.17-.79c0,.08,0,.55,0,.62s0-.44,0-.52c0,.09.08.59.08.58s0-.57,0-.57l.14.68a2.88,2.88,0,0,0,0-.66,2.56,2.56,0,0,1,.17.36l-.1-.36.23.22-.24-.36.24.17h0A.83.83,0,0,0,56.63,71.29Z"/></g><path class="cls-29" d="M44,59.88a1.22,1.22,0,0,0-1.8-.23c-1,.71-.12,1.16-.12,1.16L43.4,61Z"/><path class="cls-30" d="M42.48,59.93l0-.32.09.36.11-.27,0,.26.19-.3s-.06.43,0,.42.21-.51.21-.49-.05.61,0,.57l.19-.55s0,.6,0,.57.16-.49.16-.49l.14.45v-.43l.29.28-.17-.33s.26.05.31.19-.19.55-.19.55l-.14.07-.49,0-.42-.14s-.21-.21-.24-.24S42.48,59.93,42.48,59.93Z"/><path class="cls-12" d="M41.25,60.9s0,.9,1.56.76S44.35,60.4,44,59.93s-.22.38-.81.34a1.67,1.67,0,0,1-1-.62A1.43,1.43,0,0,0,41.25,60.9Z"/><path class="cls-31" d="M42.15,59.67s-.39.4.28.79a1.42,1.42,0,0,0,1.75-.14.93.93,0,0,1-1.09.52C42.29,60.67,41.58,60.22,42.15,59.67Z"/><path class="cls-31" d="M41.68,60.35s.12.49,1.23.61S44,60.87,44,60.87s-.23.46-1,.27S41.68,60.75,41.68,60.35Z"/><path class="cls-31" d="M41.41,60.82s.22.61,2,.55a2.11,2.11,0,0,1-1.36,0C41.24,61.12,41.41,60.82,41.41,60.82Z"/><path class="cls-13" d="M55.5,45.22h0A9.45,9.45,0,0,0,47.71,34.3,9.58,9.58,0,0,0,36.6,42,20.81,20.81,0,0,0,40.16,57.8a4.81,4.81,0,0,0,3,2,4.44,4.44,0,0,0,3.32-1C55.15,52.12,55.49,45.26,55.5,45.22Z"/><path class="cls-32" d="M55.5,45.22h0a9.24,9.24,0,0,0-.41-4.79,9.23,9.23,0,0,1,0,3.52h0s-.35,6.9-9,13.61a4.44,4.44,0,0,1-3.32,1,4.82,4.82,0,0,1-3-2,22.28,22.28,0,0,1-2.9-5.9,22.1,22.1,0,0,0,3.26,7.17,4.81,4.81,0,0,0,3,2,4.44,4.44,0,0,0,3.32-1C55.15,52.12,55.49,45.26,55.5,45.22Z"/><path class="cls-7" d="M55.06,45.38A9.16,9.16,0,0,1,44.43,52.7,9,9,0,0,1,37,42.25a9.16,9.16,0,0,1,10.63-7.33A9,9,0,0,1,55.06,45.38Z"/><path class="cls-6" d="M48.13,54.81S52,48.2,49.89,44.3s-7.43-4.39-9.2-2.74c0,0,1.17-6.56,7.66-5.62,6.83,1,7,9.26,4.18,13.5S48.13,54.81,48.13,54.81Z"/><path class="cls-7" d="M53.22,41.83a5.61,5.61,0,0,1-6.51,4.49,5.53,5.53,0,0,1-4.56-6.4,5.61,5.61,0,0,1,6.51-4.49A5.53,5.53,0,0,1,53.22,41.83Z"/><g class="cls-11"><path class="cls-9" d="M44,40.72a14.05,14.05,0,0,1,3.6-.13,12,12,0,0,0-.32-3.21,5.5,5.5,0,0,0-4.4,1.5A4.56,4.56,0,0,1,44,40.72Z"/><path class="cls-9" d="M47.9,40.62a10.57,10.57,0,0,1,2.15.46,11.64,11.64,0,0,1,1.08.43,8.76,8.76,0,0,0,0-2.33,5.89,5.89,0,0,0-3.32-1.74l-.23,0A12.28,12.28,0,0,1,47.9,40.62Z"/><path class="cls-9" d="M46.8,43.22l.42.09a11.37,11.37,0,0,0,.36-2.41,14,14,0,0,0-3.51.12,3.75,3.75,0,0,1-.26,2.42A6.09,6.09,0,0,1,46.8,43.22Z"/><path class="cls-9" d="M50,41.37a10.15,10.15,0,0,0-2.06-.44,11.68,11.68,0,0,1-.38,2.46,5.79,5.79,0,0,1,2.57,1.54c.08-.16.16-.33.24-.5a11,11,0,0,0,.77-2.6A11.46,11.46,0,0,0,50,41.37Z"/></g><path class="cls-6" d="M45.62,53.29c-2.91.29-5.58,0-6.61-5A23.62,23.62,0,0,1,39.24,42,10.12,10.12,0,0,1,42.52,36a8.74,8.74,0,0,0-4.43,6.17s-1.81,6.18,2.57,13.32h0s1.38,2.37,3.56,2.2a4.55,4.55,0,0,0,4.06-2.63C48.67,54,48.61,53,45.62,53.29Z"/></g></g></g></svg>