<svg xmlns="http://www.w3.org/2000/svg" xmlns:xlink="http://www.w3.org/1999/xlink" viewBox="0 0 102.97 102.28"><defs><style>.cls-1,.cls-10,.cls-100,.cls-101,.cls-102,.cls-103,.cls-104,.cls-105,.cls-106,.cls-107,.cls-108,.cls-109,.cls-11,.cls-110,.cls-111,.cls-112,.cls-113,.cls-114,.cls-115,.cls-116,.cls-117,.cls-118,.cls-119,.cls-12,.cls-120,.cls-121,.cls-122,.cls-123,.cls-124,.cls-125,.cls-126,.cls-127,.cls-128,.cls-129,.cls-13,.cls-130,.cls-131,.cls-132,.cls-133,.cls-134,.cls-135,.cls-136,.cls-137,.cls-138,.cls-139,.cls-14,.cls-140,.cls-141,.cls-142,.cls-143,.cls-144,.cls-145,.cls-146,.cls-147,.cls-148,.cls-149,.cls-15,.cls-150,.cls-151,.cls-152,.cls-153,.cls-154,.cls-155,.cls-156,.cls-157,.cls-158,.cls-159,.cls-16,.cls-160,.cls-161,.cls-162,.cls-163,.cls-164,.cls-165,.cls-166,.cls-167,.cls-168,.cls-169,.cls-17,.cls-170,.cls-171,.cls-172,.cls-173,.cls-174,.cls-175,.cls-176,.cls-177,.cls-178,.cls-179,.cls-18,.cls-180,.cls-181,.cls-182,.cls-183,.cls-184,.cls-185,.cls-186,.cls-187,.cls-188,.cls-189,.cls-19,.cls-190,.cls-191,.cls-192,.cls-193,.cls-194,.cls-195,.cls-196,.cls-197,.cls-198,.cls-199,.cls-2,.cls-20,.cls-21,.cls-22,.cls-23,.cls-24,.cls-25,.cls-26,.cls-27,.cls-28,.cls-29,.cls-3,.cls-30,.cls-31,.cls-32,.cls-33,.cls-34,.cls-35,.cls-36,.cls-37,.cls-38,.cls-39,.cls-4,.cls-40,.cls-41,.cls-42,.cls-43,.cls-44,.cls-45,.cls-46,.cls-47,.cls-48,.cls-49,.cls-5,.cls-50,.cls-51,.cls-52,.cls-53,.cls-54,.cls-55,.cls-56,.cls-57,.cls-58,.cls-59,.cls-6,.cls-60,.cls-61,.cls-62,.cls-63,.cls-64,.cls-65,.cls-66,.cls-67,.cls-68,.cls-69,.cls-7,.cls-70,.cls-71,.cls-72,.cls-73,.cls-74,.cls-75,.cls-76,.cls-77,.cls-78,.cls-79,.cls-8,.cls-80,.cls-81,.cls-82,.cls-83,.cls-84,.cls-85,.cls-86,.cls-87,.cls-88,.cls-89,.cls-9,.cls-90,.cls-91,.cls-92,.cls-93,.cls-94,.cls-95,.cls-96,.cls-97,.cls-98,.cls-99{fill-rule:evenodd;}.cls-1{fill:url(#GradientFill_1);}.cls-2{fill:url(#GradientFill_2);}.cls-3{fill:url(#GradientFill_2-2);}.cls-4{fill:url(#GradientFill_2-3);}.cls-5{fill:url(#GradientFill_2-4);}.cls-6{fill:url(#GradientFill_2-5);}.cls-7{fill:url(#GradientFill_3);}.cls-8{fill:url(#GradientFill_4);}.cls-9{fill:url(#GradientFill_5);}.cls-10{fill:url(#GradientFill_4-2);}.cls-11{fill:url(#GradientFill_4-3);}.cls-12{fill:url(#GradientFill_5-2);}.cls-13{fill:url(#GradientFill_4-4);}.cls-14{fill:url(#GradientFill_6);}.cls-15{fill:url(#GradientFill_4-5);}.cls-16{fill:url(#GradientFill_6-2);}.cls-17{fill:url(#GradientFill_4-6);}.cls-18{fill:url(#GradientFill_4-7);}.cls-19{fill:url(#GradientFill_6-3);}.cls-20{fill:url(#GradientFill_4-8);}.cls-21{fill:url(#GradientFill_6-4);}.cls-22{fill:url(#GradientFill_4-9);}.cls-23{fill:url(#GradientFill_6-5);}.cls-24{fill:url(#GradientFill_4-10);}.cls-25{fill:url(#GradientFill_4-11);}.cls-26{fill:url(#GradientFill_4-12);}.cls-27{fill:url(#GradientFill_5-3);}.cls-28{fill:url(#GradientFill_6-6);}.cls-29{fill:url(#GradientFill_6-7);}.cls-30{fill:url(#GradientFill_5-4);}.cls-31{fill:url(#GradientFill_4-13);}.cls-32{fill:url(#GradientFill_5-5);}.cls-33{fill:url(#GradientFill_4-14);}.cls-34{fill:url(#GradientFill_6-8);}.cls-35{fill:url(#GradientFill_6-9);}.cls-36{fill:url(#GradientFill_4-15);}.cls-37{fill:url(#GradientFill_6-10);}.cls-38{fill:url(#GradientFill_6-11);}.cls-39{fill:url(#GradientFill_6-12);}.cls-40{fill:url(#GradientFill_5-6);}.cls-41{fill:url(#GradientFill_4-16);}.cls-42{fill:url(#GradientFill_6-13);}.cls-43{fill:url(#GradientFill_7);}.cls-44{fill:url(#GradientFill_8);}.cls-45{fill:url(#GradientFill_9);}.cls-46{fill:url(#GradientFill_7-2);}.cls-47{fill:url(#GradientFill_8-2);}.cls-48{fill:url(#GradientFill_9-2);}.cls-49{fill:url(#GradientFill_7-3);}.cls-50{fill:url(#GradientFill_8-3);}.cls-51{fill:url(#GradientFill_9-3);}.cls-52{fill:url(#GradientFill_7-4);}.cls-53{fill:url(#GradientFill_8-4);}.cls-54{fill:url(#GradientFill_9-4);}.cls-55{fill:url(#GradientFill_7-5);}.cls-56{fill:url(#GradientFill_8-5);}.cls-57{fill:url(#GradientFill_9-5);}.cls-58{fill:url(#GradientFill_7-6);}.cls-59{fill:url(#GradientFill_8-6);}.cls-60{fill:url(#GradientFill_9-6);}.cls-61{fill:url(#GradientFill_7-7);}.cls-62{fill:url(#GradientFill_8-7);}.cls-63{fill:url(#GradientFill_9-7);}.cls-64{fill:url(#GradientFill_7-8);}.cls-65{fill:url(#GradientFill_8-8);}.cls-66{fill:url(#GradientFill_9-8);}.cls-67{fill:url(#GradientFill_7-9);}.cls-68{fill:url(#GradientFill_8-9);}.cls-69{fill:url(#GradientFill_9-9);}.cls-70{fill:url(#GradientFill_7-10);}.cls-71{fill:url(#GradientFill_8-10);}.cls-72{fill:url(#GradientFill_9-10);}.cls-73{fill:url(#GradientFill_7-11);}.cls-74{fill:url(#GradientFill_8-11);}.cls-75{fill:url(#GradientFill_9-11);}.cls-76{fill:url(#GradientFill_7-12);}.cls-77{fill:url(#GradientFill_8-12);}.cls-78{fill:url(#GradientFill_9-12);}.cls-79{fill:url(#GradientFill_7-13);}.cls-80{fill:url(#GradientFill_8-13);}.cls-81{fill:url(#GradientFill_9-13);}.cls-82{fill:url(#GradientFill_7-14);}.cls-83{fill:url(#GradientFill_8-14);}.cls-84{fill:url(#GradientFill_9-14);}.cls-85{fill:url(#GradientFill_7-15);}.cls-86{fill:url(#GradientFill_8-15);}.cls-87{fill:url(#GradientFill_9-15);}.cls-88{fill:url(#GradientFill_10);}.cls-89{fill:url(#GradientFill_11);}.cls-90{fill:url(#GradientFill_12);}.cls-91{fill:url(#GradientFill_13);}.cls-92{fill:url(#GradientFill_14);}.cls-93{fill:url(#GradientFill_11-2);}.cls-94{fill:url(#GradientFill_12-2);}.cls-95{fill:url(#GradientFill_13-2);}.cls-96{fill:url(#GradientFill_14-2);}.cls-97{fill:url(#GradientFill_11-3);}.cls-98{fill:url(#GradientFill_12-3);}.cls-99{fill:url(#GradientFill_13-3);}.cls-100{fill:url(#GradientFill_14-3);}.cls-101{fill:url(#GradientFill_11-4);}.cls-102{fill:url(#GradientFill_12-4);}.cls-103{fill:url(#GradientFill_13-4);}.cls-104{fill:url(#GradientFill_14-4);}.cls-105{fill:url(#GradientFill_11-5);}.cls-106{fill:url(#GradientFill_12-5);}.cls-107{fill:url(#GradientFill_13-5);}.cls-108{fill:url(#GradientFill_14-5);}.cls-109{fill:url(#GradientFill_11-6);}.cls-110{fill:url(#GradientFill_12-6);}.cls-111{fill:url(#GradientFill_13-6);}.cls-112{fill:url(#GradientFill_14-6);}.cls-113{fill:url(#GradientFill_20);}.cls-114{fill:url(#GradientFill_18);}.cls-115{fill:url(#GradientFill_21);}.cls-116{fill:url(#GradientFill_22);}.cls-117{fill:url(#GradientFill_20-2);}.cls-118{fill:url(#GradientFill_11-7);}.cls-119{fill:url(#GradientFill_12-7);}.cls-120{fill:url(#GradientFill_13-7);}.cls-121{fill:url(#GradientFill_14-7);}.cls-122{fill:url(#GradientFill_23);}.cls-123{fill:url(#GradientFill_21-2);}.cls-124{fill:url(#GradientFill_23-2);}.cls-125{fill:url(#GradientFill_21-3);}.cls-126{fill:url(#GradientFill_23-3);}.cls-127{fill:url(#GradientFill_21-4);}.cls-128{fill:url(#GradientFill_20-3);}.cls-129{fill:url(#GradientFill_18-2);}.cls-130{fill:url(#GradientFill_21-5);}.cls-131{fill:url(#GradientFill_22-2);}.cls-132{fill:url(#GradientFill_20-4);}.cls-133{fill:url(#GradientFill_23-4);}.cls-134{fill:url(#GradientFill_20-5);}.cls-135{fill:url(#GradientFill_22-3);}.cls-136{fill:url(#GradientFill_24);}.cls-137{fill:url(#GradientFill_21-6);}.cls-138{fill:url(#GradientFill_23-5);}.cls-139{fill:url(#GradientFill_21-7);}.cls-140{fill:url(#GradientFill_23-6);}.cls-141{fill:url(#GradientFill_21-8);}.cls-142{fill:url(#GradientFill_23-7);}.cls-143{fill:url(#GradientFill_21-9);}.cls-144{fill:url(#GradientFill_22-4);}.cls-145{fill:url(#GradientFill_20-6);}.cls-146{fill:url(#GradientFill_21-10);}.cls-147{fill:url(#GradientFill_20-7);}.cls-148{fill:url(#GradientFill_24-2);}.cls-149{fill:url(#GradientFill_21-11);}.cls-150{fill:url(#GradientFill_20-8);}.cls-151{fill:url(#GradientFill_20-9);}.cls-152{fill:url(#GradientFill_24-3);}.cls-153{fill:url(#GradientFill_21-12);}.cls-154{fill:url(#GradientFill_20-10);}.cls-155{fill:url(#GradientFill_24-4);}.cls-156{fill:url(#GradientFill_21-13);}.cls-157{fill:#231f20;}.cls-158{fill:#d0d2d3;}.cls-159{fill:#fff;}.cls-160{fill:url(#GradientFill_20-11);}.cls-161{fill:url(#GradientFill_18-3);}.cls-162{fill:url(#GradientFill_21-14);}.cls-163{fill:url(#GradientFill_22-5);}.cls-164{fill:url(#GradientFill_20-12);}.cls-165{fill:url(#GradientFill_20-13);}.cls-166{fill:url(#GradientFill_18-4);}.cls-167{fill:url(#GradientFill_21-15);}.cls-168{fill:url(#GradientFill_22-6);}.cls-169{fill:url(#GradientFill_20-14);}.cls-170{fill:url(#GradientFill_25);}.cls-171{fill:url(#GradientFill_26);}.cls-172{fill:url(#GradientFill_27);}.cls-173{fill:url(#GradientFill_26-2);}.cls-174{fill:url(#GradientFill_20-15);}.cls-175{fill:url(#GradientFill_21-16);}.cls-176{fill:url(#GradientFill_22-7);}.cls-177{fill:url(#GradientFill_21-17);}.cls-178{fill:url(#GradientFill_20-16);}.cls-179{fill:url(#GradientFill_21-18);}.cls-180{fill:url(#GradientFill_22-8);}.cls-181{fill:url(#GradientFill_21-19);}.cls-182{fill:url(#GradientFill_20-17);}.cls-183{fill:url(#GradientFill_20-18);}.cls-184{fill:url(#GradientFill_18-5);}.cls-185{fill:url(#GradientFill_7-16);}.cls-186{fill:url(#GradientFill_8-16);}.cls-187{fill:url(#GradientFill_9-16);}.cls-188{fill:url(#GradientFill_7-17);}.cls-189{fill:url(#GradientFill_8-17);}.cls-190{fill:url(#GradientFill_9-17);}.cls-191{fill:url(#GradientFill_7-18);}.cls-192{fill:url(#GradientFill_8-18);}.cls-193{fill:url(#GradientFill_9-18);}.cls-194{fill:url(#GradientFill_7-19);}.cls-195{fill:url(#GradientFill_8-19);}.cls-196{fill:url(#GradientFill_9-19);}.cls-197{fill:url(#GradientFill_7-20);}.cls-198{fill:url(#GradientFill_8-20);}.cls-199{fill:url(#GradientFill_9-20);}</style><linearGradient id="GradientFill_1" x1="109.16" y1="105.65" x2="-0.82" y2="-0.56" gradientUnits="userSpaceOnUse"><stop offset="0" stop-color="#dd7b2d"/><stop offset="1" stop-color="#fff584"/></linearGradient><linearGradient id="GradientFill_2" x1="16.65" y1="62.73" x2="-6.9" y2="39.98" gradientUnits="userSpaceOnUse"><stop offset="0" stop-color="#d8672b"/><stop offset="1" stop-color="#fbb75c"/></linearGradient><linearGradient id="GradientFill_2-2" x1="33.07" y1="98.3" x2="12.94" y2="78.86" xlink:href="#GradientFill_2"/><linearGradient id="GradientFill_2-3" x1="76.74" y1="106.84" x2="48.71" y2="79.78" xlink:href="#GradientFill_2"/><linearGradient id="GradientFill_2-4" x1="63.83" y1="24.34" x2="29.17" y2="-9.13" xlink:href="#GradientFill_2"/><linearGradient id="GradientFill_2-5" x1="111.44" y1="55.62" x2="72.73" y2="18.24" xlink:href="#GradientFill_2"/><linearGradient id="GradientFill_3" x1="65.46" y1="106.19" x2="36.3" y2="-10.75" gradientUnits="userSpaceOnUse"><stop offset="0" stop-color="#fff584"/><stop offset="1" stop-color="#fff584"/></linearGradient><linearGradient id="GradientFill_4" x1="47.12" y1="18.98" x2="38.95" y2="11.08" gradientUnits="userSpaceOnUse"><stop offset="0" stop-color="#f8dd39"/><stop offset="1" stop-color="#f3d527"/></linearGradient><linearGradient id="GradientFill_5" x1="61" y1="18.1" x2="51.33" y2="9.39" gradientUnits="userSpaceOnUse"><stop offset="0" stop-color="#fff100"/><stop offset="1" stop-color="#fff"/></linearGradient><linearGradient id="GradientFill_4-2" x1="51.93" y1="22.49" x2="45.39" y2="16.17" xlink:href="#GradientFill_4"/><linearGradient id="GradientFill_4-3" x1="35.1" y1="22.19" x2="27.25" y2="14.6" xlink:href="#GradientFill_4"/><linearGradient id="GradientFill_5-2" x1="42.11" y1="26.61" x2="32.26" y2="17.75" xlink:href="#GradientFill_5"/><linearGradient id="GradientFill_4-4" x1="65.67" y1="26.55" x2="56.36" y2="17.56" xlink:href="#GradientFill_4"/><linearGradient id="GradientFill_6" x1="70.39" y1="23.97" x2="64.09" y2="6.67" gradientUnits="userSpaceOnUse"><stop offset="0" stop-color="#ffca05"/><stop offset="1" stop-color="#fff8ad"/></linearGradient><linearGradient id="GradientFill_4-5" x1="87.58" y1="33.05" x2="73" y2="18.97" xlink:href="#GradientFill_4"/><linearGradient id="GradientFill_6-2" x1="23.68" y1="34.17" x2="18.23" y2="19.18" xlink:href="#GradientFill_6"/><linearGradient id="GradientFill_4-6" x1="32.94" y1="39.9" x2="17.34" y2="24.84" xlink:href="#GradientFill_4"/><linearGradient id="GradientFill_4-7" x1="36.04" y1="39.26" x2="27.54" y2="31.05" xlink:href="#GradientFill_4"/><linearGradient id="GradientFill_6-3" x1="45.02" y1="34.44" x2="41.26" y2="24.13" xlink:href="#GradientFill_6"/><linearGradient id="GradientFill_4-8" x1="56.24" y1="32.55" x2="44.96" y2="21.66" xlink:href="#GradientFill_4"/><linearGradient id="GradientFill_6-4" x1="61.7" y1="45.48" x2="56.16" y2="30.26" xlink:href="#GradientFill_6"/><linearGradient id="GradientFill_4-9" x1="18.51" y1="48.99" x2="10.3" y2="41.07" xlink:href="#GradientFill_4"/><linearGradient id="GradientFill_6-5" x1="28.38" y1="47.69" x2="24.42" y2="36.8" xlink:href="#GradientFill_6"/><linearGradient id="GradientFill_4-10" x1="72.61" y1="40.78" x2="58.15" y2="26.81" xlink:href="#GradientFill_4"/><linearGradient id="GradientFill_4-11" x1="74.39" y1="29.79" x2="67.36" y2="23" xlink:href="#GradientFill_4"/><linearGradient id="GradientFill_4-12" x1="92.91" y1="44.97" x2="77.37" y2="29.97" xlink:href="#GradientFill_4"/><linearGradient id="GradientFill_5-3" x1="91.58" y1="54.21" x2="71.02" y2="35.7" xlink:href="#GradientFill_5"/><linearGradient id="GradientFill_6-6" x1="71.89" y1="54.58" x2="66.3" y2="39.21" xlink:href="#GradientFill_6"/><linearGradient id="GradientFill_6-7" x1="87.4" y1="61.96" x2="82.4" y2="48.21" xlink:href="#GradientFill_6"/><linearGradient id="GradientFill_5-4" x1="20.34" y1="65.1" x2="8.31" y2="54.26" xlink:href="#GradientFill_5"/><linearGradient id="GradientFill_4-13" x1="32.31" y1="56.83" x2="18.61" y2="43.6" xlink:href="#GradientFill_4"/><linearGradient id="GradientFill_5-5" x1="59.13" y1="57.35" x2="35.97" y2="36.49" xlink:href="#GradientFill_5"/><linearGradient id="GradientFill_4-14" x1="32.47" y1="62.38" x2="18.45" y2="48.84" xlink:href="#GradientFill_4"/><linearGradient id="GradientFill_6-8" x1="32.06" y1="93.05" x2="21.74" y2="64.67" xlink:href="#GradientFill_6"/><linearGradient id="GradientFill_6-9" x1="35.73" y1="77.68" x2="25.95" y2="50.81" xlink:href="#GradientFill_6"/><linearGradient id="GradientFill_4-15" x1="65.06" y1="65.23" x2="44.66" y2="45.53" xlink:href="#GradientFill_4"/><linearGradient id="GradientFill_6-10" x1="79.51" y1="79.51" x2="68.34" y2="48.83" xlink:href="#GradientFill_6"/><linearGradient id="GradientFill_6-11" x1="46.43" y1="94.17" x2="33.67" y2="59.1" xlink:href="#GradientFill_6"/><linearGradient id="GradientFill_6-12" x1="66.55" y1="99.35" x2="58.18" y2="76.36" xlink:href="#GradientFill_6"/><linearGradient id="GradientFill_5-6" x1="68.41" y1="90.82" x2="42.7" y2="67.67" xlink:href="#GradientFill_5"/><linearGradient id="GradientFill_4-16" x1="86.35" y1="83.18" x2="59.42" y2="57.17" xlink:href="#GradientFill_4"/><linearGradient id="GradientFill_6-13" x1="70.57" y1="87.38" x2="63.09" y2="66.85" xlink:href="#GradientFill_6"/><linearGradient id="GradientFill_7" x1="60.96" y1="45.66" x2="51.04" y2="34.64" gradientUnits="userSpaceOnUse"><stop offset="0" stop-color="#e7b646"/><stop offset="1" stop-color="#d29335"/></linearGradient><linearGradient id="GradientFill_8" x1="59.08" y1="42.98" x2="53.13" y2="36.37" gradientUnits="userSpaceOnUse"><stop offset="0" stop-color="#f8d383"/><stop offset="1" stop-color="#d29335"/></linearGradient><linearGradient id="GradientFill_9" x1="57.88" y1="43.86" x2="55.22" y2="40.91" gradientUnits="userSpaceOnUse"><stop offset="0" stop-color="#e7b646"/><stop offset="1" stop-color="#b26e32"/></linearGradient><linearGradient id="GradientFill_7-2" x1="57.77" y1="81.96" x2="45.4" y2="78.64" xlink:href="#GradientFill_7"/><linearGradient id="GradientFill_8-2" x1="56.52" y1="81.19" x2="47.42" y2="78.75" xlink:href="#GradientFill_8"/><linearGradient id="GradientFill_9-2" x1="54.7" y1="82.26" x2="51.64" y2="81.44" xlink:href="#GradientFill_9"/><linearGradient id="GradientFill_7-3" x1="50.32" y1="52.05" x2="46.95" y2="41.01" xlink:href="#GradientFill_7"/><linearGradient id="GradientFill_8-3" x1="50.16" y1="50.2" x2="47.78" y2="42.42" xlink:href="#GradientFill_8"/><linearGradient id="GradientFill_9-3" x1="48.74" y1="50.55" x2="47.54" y2="46.63" xlink:href="#GradientFill_9"/><linearGradient id="GradientFill_7-4" x1="28.71" y1="58.8" x2="14.81" y2="54.82" xlink:href="#GradientFill_7"/><linearGradient id="GradientFill_8-4" x1="27.2" y1="57.93" x2="17" y2="55" xlink:href="#GradientFill_8"/><linearGradient id="GradientFill_9-4" x1="25.29" y1="59.1" x2="21.85" y2="58.11" xlink:href="#GradientFill_9"/><linearGradient id="GradientFill_7-5" x1="33.07" y1="85.11" x2="20.89" y2="73.75" xlink:href="#GradientFill_7"/><linearGradient id="GradientFill_8-5" x1="30.81" y1="82.4" x2="23.19" y2="75.29" xlink:href="#GradientFill_8"/><linearGradient id="GradientFill_9-5" x1="29.35" y1="83.31" x2="26.22" y2="80.39" xlink:href="#GradientFill_9"/><linearGradient id="GradientFill_7-6" x1="37.19" y1="33.47" x2="24.31" y2="27.46" xlink:href="#GradientFill_7"/><linearGradient id="GradientFill_8-6" x1="35.51" y1="32.23" x2="26.57" y2="28.06" xlink:href="#GradientFill_8"/><linearGradient id="GradientFill_9-6" x1="33.43" y1="32.91" x2="30.5" y2="31.55" xlink:href="#GradientFill_9"/><linearGradient id="GradientFill_7-7" x1="44.86" y1="54.2" x2="31.98" y2="48.19" xlink:href="#GradientFill_7"/><linearGradient id="GradientFill_8-7" x1="43.18" y1="52.96" x2="34.24" y2="48.79" xlink:href="#GradientFill_8"/><linearGradient id="GradientFill_9-7" x1="41.09" y1="53.64" x2="38.17" y2="52.28" xlink:href="#GradientFill_9"/><linearGradient id="GradientFill_7-8" x1="21.62" y1="34.89" x2="15.78" y2="23.43" xlink:href="#GradientFill_7"/><linearGradient id="GradientFill_8-8" x1="20.94" y1="32.63" x2="17.07" y2="25.04" xlink:href="#GradientFill_8"/><linearGradient id="GradientFill_9-8" x1="19.59" y1="33.31" x2="17.64" y2="29.48" xlink:href="#GradientFill_9"/><linearGradient id="GradientFill_7-9" x1="89.21" y1="43.17" x2="74.82" y2="34.17" xlink:href="#GradientFill_7"/><linearGradient id="GradientFill_8-9" x1="87.14" y1="41.32" x2="77.21" y2="35.11" xlink:href="#GradientFill_8"/><linearGradient id="GradientFill_9-9" x1="84.78" y1="41.88" x2="81.57" y2="39.88" xlink:href="#GradientFill_9"/><linearGradient id="GradientFill_7-10" x1="82.28" y1="79.14" x2="68.69" y2="76.26" xlink:href="#GradientFill_7"/><linearGradient id="GradientFill_8-10" x1="81.06" y1="78.43" x2="70.79" y2="76.24" xlink:href="#GradientFill_8"/><linearGradient id="GradientFill_9-10" x1="79.24" y1="79.79" x2="75.72" y2="79.04" xlink:href="#GradientFill_9"/><linearGradient id="GradientFill_7-11" x1="68.24" y1="68.68" x2="63.74" y2="55.6" xlink:href="#GradientFill_7"/><linearGradient id="GradientFill_8-11" x1="67.87" y1="66.15" x2="64.72" y2="57.01" xlink:href="#GradientFill_8"/><linearGradient id="GradientFill_9-11" x1="66.27" y1="66.86" x2="64.65" y2="62.18" xlink:href="#GradientFill_9"/><linearGradient id="GradientFill_7-12" x1="66.1" y1="33.82" x2="68.08" y2="22.54" xlink:href="#GradientFill_7"/><linearGradient id="GradientFill_8-12" x1="66.66" y1="32.84" x2="68.18" y2="24.21" xlink:href="#GradientFill_8"/><linearGradient id="GradientFill_9-12" x1="65.4" y1="31.51" x2="65.93" y2="28.47" xlink:href="#GradientFill_9"/><linearGradient id="GradientFill_7-13" x1="49.67" y1="14.24" x2="61.39" y2="18.98" xlink:href="#GradientFill_7"/><linearGradient id="GradientFill_8-13" x1="52.44" y1="15.38" x2="59.98" y2="18.42" xlink:href="#GradientFill_8"/><linearGradient id="GradientFill_9-13" x1="51.49" y1="15.5" x2="55.45" y2="17.1" xlink:href="#GradientFill_9"/><linearGradient id="GradientFill_7-14" x1="81.51" y1="53.17" x2="93.22" y2="57.9" xlink:href="#GradientFill_7"/><linearGradient id="GradientFill_8-14" x1="84.27" y1="54.3" x2="91.81" y2="57.35" xlink:href="#GradientFill_8"/><linearGradient id="GradientFill_9-14" x1="83.32" y1="54.43" x2="87.28" y2="56.03" xlink:href="#GradientFill_9"/><linearGradient id="GradientFill_7-15" x1="11.44" y1="68.22" x2="23.15" y2="72.95" xlink:href="#GradientFill_7"/><linearGradient id="GradientFill_8-15" x1="14.21" y1="69.35" x2="21.74" y2="72.4" xlink:href="#GradientFill_8"/><linearGradient id="GradientFill_9-15" x1="13.26" y1="69.48" x2="17.22" y2="71.08" xlink:href="#GradientFill_9"/><linearGradient id="GradientFill_10" x1="58.89" y1="36.48" x2="33.45" y2="-2.7" gradientUnits="userSpaceOnUse"><stop offset="0" stop-color="#fff584"/><stop offset="1" stop-color="#fff"/></linearGradient><linearGradient id="GradientFill_11" x1="23.77" y1="54.13" x2="5.82" y2="31.96" gradientUnits="userSpaceOnUse"><stop offset="0" stop-color="#f4d3d3"/><stop offset="1" stop-color="#fff"/></linearGradient><linearGradient id="GradientFill_12" x1="18.92" y1="49.63" x2="5.19" y2="32.05" gradientUnits="userSpaceOnUse"><stop offset="0" stop-color="#f8d179"/><stop offset="1" stop-color="#f7eab6"/></linearGradient><linearGradient id="GradientFill_13" x1="20.27" y1="51.08" x2="7.43" y2="35.22" gradientUnits="userSpaceOnUse"><stop offset="0" stop-color="#f1b0b2"/><stop offset="1" stop-color="#f3dddc"/></linearGradient><linearGradient id="GradientFill_14" x1="23.56" y1="53.01" x2="10.28" y2="36.6" gradientUnits="userSpaceOnUse"><stop offset="0" stop-color="#e1a0a0"/><stop offset="1" stop-color="#f3dddc"/></linearGradient><linearGradient id="GradientFill_11-2" x1="65.14" y1="82.53" x2="72.71" y2="65.53" xlink:href="#GradientFill_11"/><linearGradient id="GradientFill_12-2" x1="66.53" y1="76.37" x2="72.04" y2="64.54" xlink:href="#GradientFill_12"/><linearGradient id="GradientFill_13-2" x1="66.3" y1="77.54" x2="70.73" y2="67.59" xlink:href="#GradientFill_13"/><linearGradient id="GradientFill_14-2" x1="65.8" y1="82.38" x2="70.84" y2="71.05" xlink:href="#GradientFill_14"/><linearGradient id="GradientFill_11-3" x1="89.82" y1="58.14" x2="67.8" y2="59.68" xlink:href="#GradientFill_11"/><linearGradient id="GradientFill_12-3" x1="84.46" y1="59.38" x2="68.81" y2="60.2" xlink:href="#GradientFill_12"/><linearGradient id="GradientFill_13-3" x1="85.8" y1="59.2" x2="71.69" y2="60.19" xlink:href="#GradientFill_13"/><linearGradient id="GradientFill_14-3" x1="89.98" y1="57.59" x2="74.05" y2="58.7" xlink:href="#GradientFill_14"/><linearGradient id="GradientFill_11-4" x1="84.57" y1="9.8" x2="65.58" y2="29.46" xlink:href="#GradientFill_11"/><linearGradient id="GradientFill_12-4" x1="80.3" y1="15.44" x2="65.39" y2="30.34" xlink:href="#GradientFill_12"/><linearGradient id="GradientFill_13-4" x1="81.76" y1="13.78" x2="68.09" y2="27.94" xlink:href="#GradientFill_13"/><linearGradient id="GradientFill_14-4" x1="83.58" y1="10.06" x2="69.58" y2="24.55" xlink:href="#GradientFill_14"/><linearGradient id="GradientFill_11-5" x1="48.27" y1="31.65" x2="32.66" y2="47.81" xlink:href="#GradientFill_11"/><linearGradient id="GradientFill_12-5" x1="44.6" y1="37.7" x2="32.96" y2="49.33" xlink:href="#GradientFill_12"/><linearGradient id="GradientFill_13-5" x1="46.11" y1="35.56" x2="35.04" y2="47.03" xlink:href="#GradientFill_13"/><linearGradient id="GradientFill_14-5" x1="47.22" y1="31.83" x2="35.82" y2="43.63" xlink:href="#GradientFill_14"/><linearGradient id="GradientFill_11-6" x1="31.14" y1="11.8" x2="54" y2="18.36" xlink:href="#GradientFill_11"/><linearGradient id="GradientFill_12-6" x1="32.03" y1="11.91" x2="42" y2="14.95" xlink:href="#GradientFill_12"/><linearGradient id="GradientFill_13-6" x1="42.62" y1="17.3" x2="51.94" y2="19.97" xlink:href="#GradientFill_13"/><linearGradient id="GradientFill_14-6" x1="35.8" y1="13.14" x2="47.66" y2="16.54" xlink:href="#GradientFill_14"/><linearGradient id="GradientFill_20" x1="47.75" y1="73.41" x2="41.43" y2="56.07" gradientUnits="userSpaceOnUse"><stop offset="0" stop-color="#ec1c24"/><stop offset="1" stop-color="#f38f2d"/></linearGradient><linearGradient id="GradientFill_18" x1="48.7" y1="70.55" x2="40.11" y2="59.56" gradientUnits="userSpaceOnUse"><stop offset="0" stop-color="#f07955"/><stop offset="1" stop-color="#d12c32"/></linearGradient><linearGradient id="GradientFill_21" x1="48.2" y1="71.78" x2="46.92" y2="68.24" gradientUnits="userSpaceOnUse"><stop offset="0" stop-color="#c22930"/><stop offset="1" stop-color="#f38f2d"/></linearGradient><linearGradient id="GradientFill_22" x1="42.83" y1="63.31" x2="40.66" y2="57.34" gradientUnits="userSpaceOnUse"><stop offset="0" stop-color="#ec1c24"/><stop offset="1" stop-color="#fbda65"/></linearGradient><linearGradient id="GradientFill_20-2" x1="43.06" y1="70.33" x2="41.44" y2="65.88" xlink:href="#GradientFill_20"/><linearGradient id="GradientFill_11-7" x1="66" y1="70.59" x2="48.76" y2="49.29" xlink:href="#GradientFill_11"/><linearGradient id="GradientFill_12-7" x1="64.98" y1="69.63" x2="54.71" y2="56.48" xlink:href="#GradientFill_12"/><linearGradient id="GradientFill_13-7" x1="59.2" y1="59.18" x2="50.48" y2="48.41" xlink:href="#GradientFill_13"/><linearGradient id="GradientFill_14-7" x1="63.33" y1="67.33" x2="52.11" y2="53.48" xlink:href="#GradientFill_14"/><linearGradient id="GradientFill_23" x1="48.9" y1="36.73" x2="64.88" y2="24.69" gradientUnits="userSpaceOnUse"><stop offset="0" stop-color="#ec1c24"/><stop offset="1" stop-color="#fff100"/></linearGradient><linearGradient id="GradientFill_21-2" x1="50.03" y1="35.69" x2="65.12" y2="24.31" xlink:href="#GradientFill_21"/><linearGradient id="GradientFill_23-2" x1="34.5" y1="20.47" x2="42.39" y2="4.99" xlink:href="#GradientFill_23"/><linearGradient id="GradientFill_21-3" x1="34.26" y1="20.61" x2="41.98" y2="5.46" xlink:href="#GradientFill_21"/><linearGradient id="GradientFill_23-3" x1="55.88" y1="44.09" x2="74.3" y2="41.5" xlink:href="#GradientFill_23"/><linearGradient id="GradientFill_21-4" x1="56.12" y1="43.9" x2="73.17" y2="41.5" xlink:href="#GradientFill_21"/><linearGradient id="GradientFill_20-3" x1="35.03" y1="14.56" x2="43.65" y2="30.77" xlink:href="#GradientFill_20"/><linearGradient id="GradientFill_18-2" x1="34.12" y1="17.25" x2="44.77" y2="27.52" xlink:href="#GradientFill_18"/><linearGradient id="GradientFill_21-5" x1="34.66" y1="16" x2="36.84" y2="20.1" xlink:href="#GradientFill_21"/><linearGradient id="GradientFill_22-2" x1="41.45" y1="24.11" x2="44.33" y2="29.54" xlink:href="#GradientFill_22"/><linearGradient id="GradientFill_20-4" x1="40.15" y1="17.05" x2="42.36" y2="21.23" xlink:href="#GradientFill_20"/><linearGradient id="GradientFill_23-4" x1="68.41" y1="36.63" x2="51.31" y2="19.53" xlink:href="#GradientFill_23"/><linearGradient id="GradientFill_20-5" x1="60.18" y1="27.04" x2="52.61" y2="19.48" xlink:href="#GradientFill_20"/><linearGradient id="GradientFill_22-3" x1="52.09" y1="26.65" x2="50.13" y2="24.69" xlink:href="#GradientFill_22"/><linearGradient id="GradientFill_24" x1="69.31" y1="30.54" x2="64.29" y2="25.51" gradientUnits="userSpaceOnUse"><stop offset="0" stop-color="#ec1c24"/><stop offset="1" stop-color="#f3c630"/></linearGradient><linearGradient id="GradientFill_21-6" x1="66.7" y1="36.09" x2="52.24" y2="21.63" xlink:href="#GradientFill_21"/><linearGradient id="GradientFill_23-5" x1="37.02" y1="56.26" x2="22.77" y2="42.01" xlink:href="#GradientFill_23"/><linearGradient id="GradientFill_21-7" x1="36.3" y1="55.77" x2="22.36" y2="41.83" xlink:href="#GradientFill_21"/><linearGradient id="GradientFill_23-6" x1="37.83" y1="75.36" x2="22.97" y2="73" xlink:href="#GradientFill_23"/><linearGradient id="GradientFill_21-8" x1="37.86" y1="75.5" x2="24.09" y2="73.32" xlink:href="#GradientFill_21"/><linearGradient id="GradientFill_23-7" x1="48.94" y1="49" x2="27.44" y2="27.5" xlink:href="#GradientFill_23"/><linearGradient id="GradientFill_21-9" x1="45.93" y1="46.13" x2="28.27" y2="28.47" xlink:href="#GradientFill_21"/><linearGradient id="GradientFill_22-4" x1="26.67" y1="38.06" x2="23" y2="34.39" xlink:href="#GradientFill_22"/><linearGradient id="GradientFill_20-6" x1="39.69" y1="45.8" x2="33.56" y2="39.66" xlink:href="#GradientFill_20"/><linearGradient id="GradientFill_21-10" x1="49.68" y1="40.31" x2="45.97" y2="36.61" xlink:href="#GradientFill_21"/><linearGradient id="GradientFill_20-7" x1="96.13" y1="45.24" x2="74.73" y2="23.84" xlink:href="#GradientFill_20"/><linearGradient id="GradientFill_24-2" x1="93.61" y1="42.57" x2="76.71" y2="25.67" xlink:href="#GradientFill_24"/><linearGradient id="GradientFill_21-11" x1="91.39" y1="31.12" x2="86.53" y2="26.26" xlink:href="#GradientFill_21"/><linearGradient id="GradientFill_20-8" x1="91.58" y1="45.64" x2="85.03" y2="39.08" xlink:href="#GradientFill_20"/><linearGradient id="GradientFill_20-9" x1="47.18" y1="98.39" x2="59.14" y2="72.74" xlink:href="#GradientFill_20"/><linearGradient id="GradientFill_24-3" x1="48.93" y1="94.88" x2="58.21" y2="74.98" xlink:href="#GradientFill_24"/><linearGradient id="GradientFill_21-12" x1="58.18" y1="90.43" x2="61.05" y2="84.27" xlink:href="#GradientFill_21"/><linearGradient id="GradientFill_20-10" x1="45.11" y1="94.7" x2="48.33" y2="87.79" xlink:href="#GradientFill_20"/><linearGradient id="GradientFill_24-4" x1="85.19" y1="35.77" x2="78.5" y2="29.08" xlink:href="#GradientFill_24"/><linearGradient id="GradientFill_21-13" x1="83.25" y1="31.48" x2="80.77" y2="29.01" xlink:href="#GradientFill_21"/><linearGradient id="GradientFill_20-11" x1="25.98" y1="65.57" x2="12.82" y2="52.42" xlink:href="#GradientFill_20"/><linearGradient id="GradientFill_18-3" x1="26.37" y1="62.68" x2="12.62" y2="55.67" xlink:href="#GradientFill_18"/><linearGradient id="GradientFill_21-14" x1="25.8" y1="64.02" x2="21.93" y2="60.15" xlink:href="#GradientFill_21"/><linearGradient id="GradientFill_22-5" x1="16.71" y1="57.88" x2="12.61" y2="53.77" xlink:href="#GradientFill_22"/><linearGradient id="GradientFill_20-12" x1="19.89" y1="64.22" x2="16.65" y2="60.98" xlink:href="#GradientFill_20"/><linearGradient id="GradientFill_20-13" x1="54.71" y1="81.25" x2="37.79" y2="88.43" xlink:href="#GradientFill_20"/><linearGradient id="GradientFill_18-4" x1="51.97" y1="80.13" x2="41.32" y2="89.72" xlink:href="#GradientFill_18"/><linearGradient id="GradientFill_21-15" x1="53.2" y1="80.77" x2="49.42" y2="82.38" xlink:href="#GradientFill_21"/><linearGradient id="GradientFill_22-6" x1="44.73" y1="86.84" x2="38.99" y2="89.27" xlink:href="#GradientFill_22"/><linearGradient id="GradientFill_20-14" x1="51.85" y1="86.1" x2="47.48" y2="87.96" xlink:href="#GradientFill_20"/><linearGradient id="GradientFill_25" x1="44.5" y1="87.6" x2="30.17" y2="67.88" gradientUnits="userSpaceOnUse"><stop offset="0" stop-color="#f7aaac"/><stop offset="1" stop-color="#fff"/></linearGradient><linearGradient id="GradientFill_26" x1="43.78" y1="81.1" x2="35.48" y2="68.79" gradientUnits="userSpaceOnUse"><stop offset="0" stop-color="#f7aaac"/><stop offset="1" stop-color="#ecb6b4"/></linearGradient><linearGradient id="GradientFill_27" x1="42.9" y1="85.78" x2="33.05" y2="71.18" gradientUnits="userSpaceOnUse"><stop offset="0" stop-color="#f7aaac"/><stop offset="1" stop-color="#e69a96"/></linearGradient><linearGradient id="GradientFill_26-2" x1="40.34" y1="87.84" x2="32.51" y2="76.23" xlink:href="#GradientFill_26"/><linearGradient id="GradientFill_20-15" x1="74.76" y1="75.02" x2="50.9" y2="51.16" xlink:href="#GradientFill_20"/><linearGradient id="GradientFill_21-16" x1="74.65" y1="63.79" x2="66.92" y2="56.06" xlink:href="#GradientFill_21"/><linearGradient id="GradientFill_22-7" x1="53.84" y1="65.08" x2="48.82" y2="60.07" xlink:href="#GradientFill_22"/><linearGradient id="GradientFill_21-17" x1="68.42" y1="73.18" x2="57.55" y2="62.31" xlink:href="#GradientFill_21"/><linearGradient id="GradientFill_20-16" x1="61.43" y1="4.48" x2="63.32" y2="22.44" xlink:href="#GradientFill_20"/><linearGradient id="GradientFill_21-18" x1="55.24" y1="6.44" x2="56.03" y2="14" xlink:href="#GradientFill_21"/><linearGradient id="GradientFill_22-8" x1="68.96" y1="15.93" x2="69.49" y2="21.02" xlink:href="#GradientFill_22"/><linearGradient id="GradientFill_21-19" x1="64.22" y1="6.61" x2="64.93" y2="13.35" xlink:href="#GradientFill_21"/><linearGradient id="GradientFill_20-17" x1="99.3" y1="76.15" x2="74.72" y2="51.57" xlink:href="#GradientFill_20"/><linearGradient id="GradientFill_20-18" x1="32.69" y1="79.96" x2="14.67" y2="61.94" xlink:href="#GradientFill_20"/><linearGradient id="GradientFill_18-5" x1="33.71" y1="73.27" x2="18.42" y2="65.47" xlink:href="#GradientFill_18"/><linearGradient id="GradientFill_7-16" x1="75.98" y1="55.07" x2="69.12" y2="39.66" xlink:href="#GradientFill_7"/><linearGradient id="GradientFill_8-16" x1="75.27" y1="52.13" x2="70.62" y2="41.7" xlink:href="#GradientFill_8"/><linearGradient id="GradientFill_9-16" x1="73.51" y1="53.01" x2="71.14" y2="47.68" xlink:href="#GradientFill_9"/><linearGradient id="GradientFill_7-17" x1="6207.79" y1="1248.1" x2="6202.93" y2="1237.17" gradientTransform="matrix(0.6, -0.8, 0.8, 0.6, -4656.5, 4275.43)" xlink:href="#GradientFill_7"/><linearGradient id="GradientFill_8-17" x1="6207.29" y1="1246.01" x2="6203.99" y2="1238.61" gradientTransform="matrix(0.6, -0.8, 0.8, 0.6, -4656.5, 4275.43)" xlink:href="#GradientFill_8"/><linearGradient id="GradientFill_9-17" x1="6206.04" y1="1246.64" x2="6204.36" y2="1242.85" gradientTransform="matrix(0.6, -0.8, 0.8, 0.6, -4656.5, 4275.43)" xlink:href="#GradientFill_9"/><linearGradient id="GradientFill_7-18" x1="6106.93" y1="1131.9" x2="6100.07" y2="1116.5" gradientTransform="matrix(0.63, -0.77, 0.77, 0.63, -4671.77, 4095.05)" xlink:href="#GradientFill_7"/><linearGradient id="GradientFill_8-18" x1="6106.21" y1="1128.97" x2="6101.57" y2="1118.53" gradientTransform="matrix(0.63, -0.77, 0.77, 0.63, -4671.77, 4095.05)" xlink:href="#GradientFill_8"/><linearGradient id="GradientFill_9-18" x1="6104.46" y1="1129.85" x2="6102.08" y2="1124.52" gradientTransform="matrix(0.63, -0.77, 0.77, 0.63, -4671.77, 4095.05)" xlink:href="#GradientFill_9"/><linearGradient id="GradientFill_7-19" x1="2241.39" y1="-143.33" x2="2228.52" y2="-149.34" gradientTransform="translate(-2053.77 893.75) rotate(-18.56)" xlink:href="#GradientFill_7"/><linearGradient id="GradientFill_8-19" x1="2239.71" y1="-144.57" x2="2230.77" y2="-148.74" gradientTransform="translate(-2053.77 893.75) rotate(-18.56)" xlink:href="#GradientFill_8"/><linearGradient id="GradientFill_9-19" x1="2237.63" y1="-143.88" x2="2234.7" y2="-145.25" gradientTransform="translate(-2053.77 893.75) rotate(-18.56)" xlink:href="#GradientFill_9"/><linearGradient id="GradientFill_7-20" x1="43.94" y1="93.35" x2="33" y2="81.2" xlink:href="#GradientFill_7"/><linearGradient id="GradientFill_8-20" x1="41.93" y1="90.45" x2="35.24" y2="83.02" xlink:href="#GradientFill_8"/><linearGradient id="GradientFill_9-20" x1="40.61" y1="91.47" x2="37.61" y2="88.15" xlink:href="#GradientFill_9"/></defs><title>Pizza</title><g id="Capa_2" data-name="Capa 2"><g id="Layer_1" data-name="Layer 1"><path class="cls-1" d="M51.84,0a52.13,52.13,0,0,1,5.61.3C76.86,1.41,95.21,11.42,100.08,30.9c.27,1.1.86,4.25,1.44,8.33a49.48,49.48,0,0,1,1.23,11v.64c.6,9.32.14,18.66-3.71,20.32-1.48,2.77-1.68,6.59-4.37,9.29-3.77,3.76-10.24,7.65-12.93,11.2C67.29,111,17.42,102,9.12,79.85a.42.42,0,0,1,0-.12c-1.22-1.48-2.27-3.11-2.27-3.92,0-2-4.65-11.3-5.57-13.32C-.72,58.3.22,48.55.22,43.6.22,40.41,8.3,20,8.94,22.26,13.76,14.31,21.34,8.47,30.16,4.81A50.89,50.89,0,0,1,51.84,0Z"/><path class="cls-2" d="M3.89,35.72c0,2.8-1.73,6.48-1.73,9.07,0,4.53-3.67,12.51.44,16.62.86.86,2.15,5,2.15,6.48,0,.21,3.24,3.66,2.15.42C5,62.48,4.31,56.23,4.31,49.33c0-2.38-.21-7.13,1.3-8.63A21.74,21.74,0,0,0,6,36.37C6,34.64,4.1,34.64,3.89,35.72Z"/><path class="cls-3" d="M14,80.62c1.3,1.08,1.94,1.52,3,2.59.86.87,3.67,3.89,5.18,4.11a11,11,0,0,1,5.83,2.59c1.3,1.3,8.21,4.75,2.59,4.75a13.11,13.11,0,0,1-6-1.73c-.87-.65-7.56-5-7.56-5.83,0-1.3-1.94-2.8-2.8-3.24C13.61,83.43,11.66,81.27,14,80.62Z"/><path class="cls-4" d="M46.42,96.39c8.41-.87,17.91,2.15,23.74-3.67.21-.21,10.58-5.83,11.45-5.83,1.94,0-1.3,4.32-1.94,4.75-2.82,1.94-5,4.32-9.29,4.32-3.45,0-4.75,3.67-8,3.67-5,0-10.8-.44-15.53-.44-1.51,0-5,.21-5-1.51C41.88,96.81,46,97.68,46.42,96.39Z"/><path class="cls-5" d="M22.24,10.68c9.72,0,16-5.61,25.7-5.61,3,0,6.46-.87,9.7-.87,1.3,0,19.21,2.17,11.43-.42-5-1.52-23.31-4.32-28.26-1.94C37.35,3.55,33.46,7,29.58,7,27.86,7,20.94,10.68,22.24,10.68Z"/><path class="cls-6" d="M86.78,13.05c9.5,1.51,11.24,22,11.24,30,0,3.24,3.24,18.56,1.94,19.42-5,3.24-3.89-8.63-3.89-11.42,0-4.76.21-19.66-2.82-22.67a7.33,7.33,0,0,1-2.37-5.18C90.89,22.12,78.37,13.05,86.78,13.05Z"/><path class="cls-7" d="M15.79,23.9C33.09,6.49,66.41-2.67,85.08,20.67c13.17,16.45,9.28,25.47,9.28,44.46,0,11.45-17.7,19.22-21.8,27.43-2.38,5-24.6,2.37-29.78,2.37-11.66,0-33-18.78-33-30.66C9.75,52,5.86,52.39,10,42,13.2,34.06,8.66,28.23,15.79,23.9Z"/><path class="cls-8" d="M45.08,13.33c-1.06,0-3.36,0-3.9.54-.17.17-1.06.17-1.25.35-.52.54-1.42.54-1.77,1.25-1.06,2.12,2.84.71,3.19.71h.88c.17,0,.36-.54.54-.54h.54c.17,0,.71.35.88.35a24.62,24.62,0,0,0,3.9.36s.35-2.67-.17-2.67c0,0-1.25-.17-1.61-.17C45.79,13.5,45.43,13.15,45.08,13.33Z"/><path class="cls-9" d="M55.35,10.31c-.88,0-3.89-.54-4.24.17a8,8,0,0,0-.19.88c0,.19,0,1.07.19,1.25.35.36.87.54,1,.88a15.79,15.79,0,0,0,1.77,1.77c.19.19,0,.19.19.71a2.17,2.17,0,0,0,1.94,1.25c1.59,0,3.36.35,4.43-.71a2.25,2.25,0,0,0,.88-1.94c0-1.78-4.07-1.59-4.61-2.13a4.54,4.54,0,0,1-.71-1.25A.94.94,0,0,0,55.35,10.31Z"/><path class="cls-10" d="M46.14,17.58a2.9,2.9,0,0,0-1.42,2.84c0,1.42,5.32.88,6,.88A2,2,0,0,0,52,20.42c0-.17.52-1.59.52-1.77,0-.54-.17-.54-.17-.54v-.35L52,17.58c-.17-.17-.17-.35-.52-.35-.88,0-2.48-.17-3,.35-.17.19-.88.36-1.06.19S46.14,17.94,46.14,17.58Z"/><path class="cls-11" d="M33,16.69a9,9,0,0,0-2.12.36H30c-.36,0-3.38.88-3.55,1.23,0,.19-.35.9-.35,1.07A3.37,3.37,0,0,0,27,21,6.06,6.06,0,0,0,29,20.59,14,14,0,0,1,33,19.71c.71,0,1.78.17,2.49.17s.7-2.12.7-3c0-.54-.88-.9-1.41-.9C34.1,16,33.56,16.52,33,16.69Z"/><path class="cls-12" d="M33.56,21.66c-.54,0-2.13-.54-2.13.35,0,.54-.35,1.42,0,2S32,25,32.85,25c1.59,0,3.19-.17,4.78-.17a6.39,6.39,0,0,0,2.67-.36,11.92,11.92,0,0,0,2.3-1.94,1.56,1.56,0,0,0,.52-1.07c.19-.7-.52-1.41-.71-1.59-.52-.52.36.19-.35-.52-.17-.17-.35-.36-1.06-.36s-.71.19-.88.36-.71.35-.71.88c0,.88-3.38.35-3.72.71-.17.17-1.07,1.59-1.25,1.59C33.74,22.89,33,21.84,33.56,21.66Z"/><path class="cls-13" d="M55,19.36c0,.17.35.71.35.88.17.71,1.42,1.23,2,1.77a5.8,5.8,0,0,0,1.59.71c.88.36,1.77,1.25,2.65,1.42.36,0,.88.54,1.25.54a1.4,1.4,0,0,1,.71.35,5.82,5.82,0,0,0,3,.35V24.31a2.29,2.29,0,0,0-2.12-2.13c-.88,0-3-.52-3.9-.52-.71,0-2-.19-2-1.07,0-.52-.88-.71-1.42-.71l-1.23-.17C55.52,19.53,55.52,19.18,55,19.36Z"/><path class="cls-14" d="M59.78,9.78c2.83,2.13,7.62,2.3,10.81,3.55.17,0,1.77,1.77,2.3,2.13,1.06.88,3.71,3.36,3.71,4.61,0,.52-1.41,1.23-1.94,1.23-1.77,0-2.13-1.77-2.84-2.83-.35-.71-3.54-1.07-4.07-.54-1.59,1.59-3.9,3.54-6.2,1.94-1.77-1.06.71-2.3,1.06-3.19s1.07-1.06.71-2.3c-.52-1.94-2.48-1.77-3.9-2.48C58.9,11.73,58,11,58,10.49,58,9.08,58.54,9.6,59.78,9.78Z"/><path class="cls-15" d="M78.57,18.47c.88,1.77,3.55,4.07,5,5.49.88.88,2,1.41,2.3,2.3.71,1.41,2.67,2.65,1.59,4.25-.88,1.42-2.12,1.06-3.71.36-1.07-.54-1.07-1.78-1.07-2.84,0-1.77-4.43.17-5.49.17s-3.54-2.65-3.54-3.9c0-.88,4.6.88,4.6-1.06,0-.88-1.23-1.25-1.23-2.67C77,19.88,76.8,18.47,78.57,18.47Z"/><path class="cls-16" d="M24.52,20.78c-1.06,1.06-3.36,3.71-4.42,4.25-.54.17-5,3.55-5,4.25,0,1.07-.35,1.61,1.07,2.49.88.52,1.42,1.06,2.48.52,1.42-.71,1.94-3.36,3.36-4.42,1.25-.88,2.48-.88,3.55-1.42.71-.36,1.77-1.59,1.42-2.67C26.82,22.89,26.47,20.59,24.52,20.78Z"/><path class="cls-17" d="M15.49,34.07c1.42.71,1.94,1.23,3.9,1.23.71,0,1.77-4.78,2.65-5.67s4.09,0,5.49-.88,3.19-.88,5.14-.88c1.77,0,1.77,1.77,0,2.12-1.25.19-8.33,0-8.86,1.07-1.07,2.3.17,7.09-4.09,7.09-1.59,0-3.54-2-3.54-2C16,36.19,14.42,34.07,15.49,34.07Z"/><path class="cls-18" d="M27.72,32.82a2,2,0,0,0-1.42,2.3,2.3,2.3,0,0,0,1.77,1.59c1.42.17,4.25,0,5.67,0,1.07,0,3,.17,3.72-.17.36-.17.36,0,.54-.54,0-.17.17-.35-.17-.71-.54-.35-2-1.42-2.67-1.42a19.75,19.75,0,0,0-4.61.19,2,2,0,0,0-1.06.52c-.36.36-.36-1.23-.36-1.23C29,33.18,28.07,32.65,27.72,32.82Z"/><path class="cls-19" d="M38.52,26.27A9.92,9.92,0,0,0,36,27v.7c0,.19,0,1.07.17,1.07,1.42,0,3.2.17,4.8.17H43c.17,0,.54.54.54.54.17.71,1.77,2.12,2.3,2.65a7.42,7.42,0,0,0,2.13.17c.88,0,2.12.19,2.12-.88,0-.88.17-2.83-.88-2.83-1.23,0-3-.19-4.43-.19a3.47,3.47,0,0,1-1.59-.52L43,27.5C41.72,26.27,40.13,26.44,38.52,26.27Z"/><path class="cls-20" d="M45.62,22.72A3.13,3.13,0,0,0,44,25c0,.54,0,1.25.35,1.42.71.54,3.19.71,4.07.71.71,0,3.89,0,4.25.71l.17.35c.88.88,1.25,2.48,2.48,2.67a1.73,1.73,0,0,0,.71-.19c.17-.17,1.59-.35,1.59-.71s.17,0,.17-.35l-.88-1.77A8.76,8.76,0,0,0,53.22,27c-1.23,0-2.64-2.13-3.7-2.67L48.45,24a2.39,2.39,0,0,1-.52-.36,2,2,0,0,0-1.07-.35A1.34,1.34,0,0,1,45.62,22.72Z"/><path class="cls-21" d="M52.87,32.11c-1.76,1.42-.17,4.07,1.06,5.32a6.72,6.72,0,0,1,1.42,3c.54,2.48,5.32,3.19,7.8,3.19.71,0,2.67,0,2.84-.71.52-1.94-2.3-3.19-3.55-3.55C61.38,39,58.9,39.2,58,38.85a7.57,7.57,0,0,1-.36-2.3,11.68,11.68,0,0,0-2.84-3.19C54.46,33.18,52.51,32.29,52.87,32.11Z"/><path class="cls-22" d="M14,39.74c-1,1.46-.81,3.24-.81,4.86L13,45.73c-.16.32-.49.65-.49.81,0,.49-.32,1-.32,1.46,0,.65,0,1.78.49,2.11a12.5,12.5,0,0,0,2.43.32c.65,0,.16-1,0-1.3a3.57,3.57,0,0,1-.16-1.3V47l.32-.32c0-.16.16-.49.16-.65,0-.49.65-.81.81-1.3,0-.16.32-.65.32-.81,0-.32.49-.49.49-.81V41.19c0-.65-1.13-1.46-1.62-1.62S14.12,39.25,14,39.74Z"/><path class="cls-23" d="M19.46,40.22c-2.27,3.89,6.32,3.4,8.41,3.4,1.3,0,4.37,1.94,5.51-.32.65-1.3-.81-2.75-1.94-2.91s-2.75-.81-3.72-.32a10,10,0,0,1-2.09.49c-1.13,0-2.27-.65-3.4-.65S20.59,40.55,19.46,40.22Z"/><path class="cls-24" d="M59.26,27.12c0,1,.49,1.94.49,3.08,0,1.44-.49,2.74-.49,4s-.32,2.59,1.3,2.75a26.15,26.15,0,0,0,3.56,0c.65,0,.81.81,1.46.81.49,0,.81.65.81.65.49.16,4.21.81,4.53.81,1.3-.32,2.9-4.21,2.9-5.51,0-1.13-4.52-1.13-5.33-1.13-1,0-2.91-.65-3.24-1.3-.65-1.28,0-4.68-1.46-4.85a19.59,19.59,0,0,0-3.08-.16C60.23,26.31,59.26,27.12,59.26,27.12Z"/><path class="cls-25" d="M68.65,23.72c0,1.46-.16,2.91-.16,4.37a2.09,2.09,0,0,0,1.46,2.11,4,4,0,0,0,1.78.47h1.44c.16,0,.16-1.12.16-1.28a1.55,1.55,0,0,0-.47-1.78,7.19,7.19,0,0,1-1.3-1.78c0-.65.16-3.56-.16-3.89h-1.3c-.81.16-.49.49-1,1a2.33,2.33,0,0,1-.32.49S68.49,23.56,68.65,23.72Z"/><path class="cls-26" d="M77.87,30.83c1.94,0,3.24,1.13,4.86,1.62.65.16,1,1,1.3,1.3a5,5,0,0,0,1.46.16c1.3,0,3.4,2.59,4.37,3.56,1.62,1.62,1.94,5.51.81,7.29-.16.32-1.62,1.13-1.94.65A26.89,26.89,0,0,0,86.13,42c-.65-.65-1.46-3.56-2.59-3.72-.65-.16-3.08-.32-3.4-1C79.49,35.85,76.74,32.61,77.87,30.83Z"/><path class="cls-27" d="M75.93,34.07c-.65,3.08-.81,6-2.27,8.1-1.28,2.11,2.75,3.24,2.91,4.21C76.9,48,78.19,49,80,49.45c2.75.81,7-.32,10.2.32,4.53.81,1.3-1.46-.65-2.11-3.4-1.13-5-7.93-7.61-7.93s-3.72,0-4.21-2.43C77.38,36,78,34.39,75.93,34.07Z"/><path class="cls-28" d="M69.62,40.06c-.81.81-3.72,2.59-2.59,4.7,1.13,1.78.32,2.43-1,3.72-.32.32-1.78,1.46-1.3,2.27.81,1.28,4.86,1.77,6.48,1.77,1.46,0,2.74.32,3.39-.65.49-.65,1.3-.8,1.3-1.77,0-1.94-4.36-2.91-4.36-5.18,0-.65-.16-2.91-.49-3.08s-.65-.49-1-.49C69.62,41.36,69.62,40.71,69.62,40.06Z"/><path class="cls-29" d="M80.62,51.07c-1.62.15-4.7,2.25-4.7,4.35C75.93,57,80.46,57,81.76,57c2.11,0,2.59.32,4.21,1.46.81.49,2.75.32,3.89.32,4.37,0,5-7.75,1.3-6.63-.32,0-1,.81-1.13,1-1.3,1-5.67.65-6.15-.49A3.28,3.28,0,0,0,80.62,51.07Z"/><path class="cls-30" d="M15.09,52.91c-2.27-.56-4.86-.07-4.86,2.18a6.79,6.79,0,0,0,.65,2.43c.65,1.78,1.3,1.78,1.3,3.89,0,2.59-.65,4,2.11,5.34,1.3.65,3.24,1.3,2.43-1.13-.32-1-1.78-2.11-1.78-3.08,0-1.62-1.3-3.24.16-4.7C15.57,57.36,15.41,54.45,15.09,52.91Z"/><path class="cls-31" d="M19.14,44.76c1.94.32,3.89,1.13,6,1.13a41,41,0,0,1,6.3.16C33.7,46.38,30,49,29.16,49c-1.13,0-4.2.49-4.85-.16-2.11-2.11-1.94,2.11-1.94,2.9s.16,2.27-.65,2.58c-1.46.65-3.4.65-2.75-1.28.32-1-1.13-3.55-1.13-4.2,0-.81-.16-1.13.16-1.78C18,46.86,19,45.4,19.14,44.76Z"/><path class="cls-32" d="M34.51,45.73c3.72,0,6.15,3.24,9.07,2.27,4.21-1.3,6.79-8.1,11.8-4.37,2.11,1.62,6.8,1.3,6.8,5.18,0,4.85-4.21,2.27-6.32.16-5.49-5.51-7.75,3.71-13.25,3.71-2.59,0-6.48-4.36-6.64-4.36C33.05,48.32,34.83,46.7,34.51,45.73Z"/><path class="cls-33" d="M17.68,57.85c.81-1.78,3.08-1.3,5-1.3,1.13,0,2.91-.81,2.91-2.11,0-1.12,0-2.74,1.12-2.74,2.43,0,7.77-1.28,7.77,2.11,0,1.93-4.53,2.09-6.15,2.09a1,1,0,0,0-.81.81A4.2,4.2,0,0,1,24,59.63c-1,0-1.94-.81-2.59-.81-1.46,0-1.62,1.3-2.75,1.3C17.19,60.11,18.17,58.5,17.68,57.85Z"/><path class="cls-34" d="M17.68,69.83c-5.18.81,3.56,5,3.56,5.67,0,4.68,5.49,7.6,7.92,11.32,1.46,2.11,3.4,2.91,6.15,3.4.65,0,3.56,0,3.24-1.3,0-.16-5.83-4.7-6.48-5.34-1.78-1.78-4.21-3.89-5.67-5.67-.64-.8-.16-2.58-1-3.39-.16-.16-4.21-2.11-4.86-2.43C20.27,71.94,18.17,68.37,17.68,69.83Z"/><path class="cls-35" d="M18.81,62.38c2.91-2.43,6.15,1.3,8.25-.81A10.42,10.42,0,0,1,30.95,60c.49,0,3.72-4.37,4.53-4.86,1.3-.81,5.67,2.43,5.83,2.91,3.72,7.45-7.45.16-8.91,6.15-.65,2.75,1.46,7.77-1,9.39-.81.49-2.91-.16-3.89-.16-.65,0-1.3-1.3-1.3-1.94,0-.49-8.41-1.94-6.3-4,1.3-1.3-1.13-1.46-1.62-2.43C17.19,62.71,18.81,62.71,18.81,62.38Z"/><path class="cls-36" d="M40.66,54.45c1.62-.31,7,2.59,7.77-.64a4.71,4.71,0,0,1,5.16-3.23c2.27.49,3.08,2.42,6,2.42h5.83c1.3,0,2.59.49,2.27,2.09-.32,1.94-9.23.32-11.5.32-2.91,0-2.11,4-3.4,5.34-.81.81-4.83.81-6,.49-.81-.16-.49-1-.81-1.3a12.86,12.86,0,0,0-2.75-2.27c-.49-.16-1.62-1.13-1.62-1.62A2.52,2.52,0,0,0,40.66,54.45Z"/><path class="cls-37" d="M60.23,60.11c1.46-1.78,3.24-1.94,6.15-1.46,1.13.16,5,.49,5.34-.65.32-1-.32-3.08.32-3.4,1.28-.64,1.77,2.11,2.25,2.59C76.57,59.47,80,59.47,83.37,60c5.51.81,11.66,6,6.15,11.5-1.94,1.94-4-5.34-4-6-.65-3.89-7.77-1-10-1.62A19.94,19.94,0,0,0,67,62.38c-1.46,0-11.34,1.13-11.34-1.78C55.7,56.07,60.23,60.44,60.23,60.11Z"/><path class="cls-38" d="M42.44,89.25c-.49,3.56,5.18.65,5.18-1.94,0-5.18-2.27-5.67-6-8.42-3.24-2.42,4.86-6.79,5.34-8.57,2.11-6.48-4.37-5.67-7.93-6.8-5.34-1.78-2.75,6.48-2.75,9.55,0,2.11-5.18,1.62-6.8,1.62-2.27,0,2.59,5.33,3.08,5.49A24.38,24.38,0,0,0,37.75,82c2.75.65-.49,3.08,1.62,4.37C41.31,87.63,42.28,86.5,42.44,89.25Z"/><path class="cls-39" d="M49.24,89.41c0,3.24-2.27,4.21,2.89,4.21,6.32,0,9.55,1.3,15.06-2.43,2.27-1.46,4.7-4.53,7-6.32,3.56-2.59,1-4-2.9-3.24-3.4.65-5,4.7-8.1,6.15a28.78,28.78,0,0,1-8.42,1.62C53.27,89.41,49.56,87,49.24,89.41Z"/><path class="cls-40" d="M50.53,65c.49,2.27.49,4.86-1,6.8-2.42,3.08-4.2,1-4.2,5.18,0,3.87,4,3.87,5.17,7.27,1.61,5.18,8.08,1.3,12.13.49,6.8-1.3,2.59-8.73-1.94-4.86-1.3,1.13-3.56,3.08-5.51,3.08-.16,0-1.94-2.59-2.43-2.91-.65-.49-3.7-1.94-3.38-2.74,1.28-2.59,5.8-2.59,4.67-7.29C53.92,68.86,52.13,64.65,50.53,65Z"/><path class="cls-41" d="M54.24,63.35a10.34,10.34,0,0,1,4.53,1c2.59,1.3,7.61.16,10.69.81,3.87,1,7.44,0,11.16,0,2.43,0,1.78,2.43,2.75,4,2.43,3.72,5.51,4.37,1.3,8.57-2.43,2.43-5.51-3.71-5.51-6.14,0-3.24-7.76-1.3-9.22-1.13a33.85,33.85,0,0,1-4,.16c-.16,0-2.27-1.62-4-1.62C58.13,69,54.56,67.73,54.24,63.35Z"/><path class="cls-42" d="M58.77,71.45c-1,2.43-3.56,3.4-4.7,5.67-.65,1.28,1.13,2.09,1.78,2.42,2.91,1.94,3.56-2.74,5.83-2.74,1,0,2.59-.65,3.56-.16,1.62.81,1.62,3.06,3.72,3.06,2.43,0,2.75-2.9,5.66-1.78,1,.32,2.75,1.13,2.75,2.43,0,2.27,5.51-.81,2.27-2.43-1.3-.64-4.21-3.06-4.21-4.68,0-1-3.39-.16-3.71-.16-1.62.49-7.29.49-8.91-.32a8.23,8.23,0,0,1-2.11-1.46C60.23,70.8,59.26,71.45,58.77,71.45Z"/><path class="cls-43" d="M54.51,41.55c-1.21-.62-.95,1.44-2.57-.19C50,39.44,55.37,35.75,57.65,37c1.18.66,2.9,1.13,3.39,2.63A2.07,2.07,0,0,1,58.49,42C57.08,41.5,57,41.42,57,43c0,.36.35,1.46.09,1.46-.66,0-3.43.44-3.43-.66A12.93,12.93,0,0,1,54.51,41.55Z"/><path class="cls-44" d="M52,40.41c1.18-2.42,2.24-3,5.09-3,1.28,0,3.16.93,3.56,2.15.31.92-.61,1.58-1.41,1.58-1,0-.87-.78-1.23-1.49s-3.55-.61-4-.12a9.05,9.05,0,0,1-1.1,1.1C52.59,40.81,52,40.67,52,40.41Z"/><path class="cls-45" d="M56,40.89c0,.39-.27.7-.31,1a2.63,2.63,0,0,1,0,.62,3.14,3.14,0,0,0-.09.92c0,.3.17.26.4.3s.35.22.52.22.14,0,.22-.14.14,0,.14-.17v-.75c0-.17.12-.35.12-.47s0-.75.14-.8l.26-.12c0-.14.26-.36,0-.54,0,0-.35-.3-.44-.3a3.28,3.28,0,0,0-.66-.14c-.14,0,0,.09-.14.14S56,40.84,56,40.89Z"/><path class="cls-46" d="M51.19,82.29c-1.35.12,0,1.73-2.27,1.23-2.67-.6-.12-6.59,2.47-6.78,1.33-.09,3-.6,4.25.41a2.06,2.06,0,0,1-.85,3.4c-1.47.31-1.56.26-.69,1.63.2.3,1.08,1,.86,1.17-.56.36-2.65,2.22-3.25,1.3A12.66,12.66,0,0,1,51.19,82.29Z"/><path class="cls-47" d="M48.45,82.67c-.3-2.67.3-3.69,2.72-5.22,1.06-.69,3.15-.92,4.15-.09A1.31,1.31,0,0,1,55,79.45c-.86.55-1.17-.19-1.84-.6s-3.33,1.4-3.48,2.07a7.15,7.15,0,0,1-.34,1.51C49.17,82.69,48.62,82.87,48.45,82.67Z"/><path class="cls-48" d="M52.1,80.92c.21.34.16.73.31,1a2.86,2.86,0,0,1,.29.55,3.44,3.44,0,0,0,.42.82c.16.26.29.14.5,0s.41,0,.56-.1.11-.06.12-.22.09-.11,0-.22-.21-.34-.29-.44l-.11-.19c-.1-.15-.07-.37-.15-.49s-.4-.62-.31-.73l.15-.25c0-.14,0-.44-.29-.45a1.54,1.54,0,0,0-.54,0,3.42,3.42,0,0,0-.62.25c-.11.06,0,.09,0,.17S52,80.9,52.1,80.92Z"/><path class="cls-49" d="M46.69,47.16c-.83-1.07-1.47.92-2.27-1.25-.95-2.55,5.46-3.67,7-1.59.81,1.1,2.17,2.24,2,3.81a2.06,2.06,0,0,1-3.33,1.12c-1.06-1.06-1.06-1.16-1.74.31-.14.32-.27,1.47-.51,1.36-.6-.27-3.3-1-2.84-2A12.51,12.51,0,0,1,46.69,47.16Z"/><path class="cls-50" d="M44.87,45.05c2.09-1.69,3.26-1.73,5.85-.54,1.16.54,2.48,2.15,2.33,3.44a1.31,1.31,0,0,1-1.94.85c-.91-.41-.46-1.08-.49-1.87s-3-2-3.61-1.81a8.91,8.91,0,0,1-1.46.54C45.27,45.68,44.8,45.32,44.87,45.05Z"/><path class="cls-51" d="M48.33,47.18c-.16.36-.52.54-.71.83a2.81,2.81,0,0,1-.3.54,3.19,3.19,0,0,0-.46.81c-.14.27,0,.31.22.44s.22.35.39.42.12.06.26,0,.14,0,.19-.11l.22-.47.09-.2c.06-.16.26-.26.31-.39s.31-.67.45-.66h.3c.1-.1.39-.21.22-.47,0-.06-.2-.44-.27-.46a3.22,3.22,0,0,0-.55-.4c-.11-.06-.07.06-.17.06S48.31,47.13,48.33,47.18Z"/><path class="cls-52" d="M21.24,59.07c-1.52.14,0,1.94-2.55,1.37-3-.67-.11-7.4,2.8-7.61,1.52-.09,3.44-.65,4.8.47a2.33,2.33,0,0,1-1,3.84c-1.66.34-1.74.29-.77,1.83.21.34,1.21,1.17,1,1.32-.64.4-3,2.48-3.66,1.43A14.29,14.29,0,0,1,21.24,59.07Z"/><path class="cls-53" d="M18.15,59.49c-.32-3,.36-4.14,3.08-5.85,1.21-.77,3.56-1,4.68-.09a1.47,1.47,0,0,1-.39,2.34c-1,.61-1.32-.22-2.07-.69s-3.76,1.56-3.92,2.3a11,11,0,0,1-.39,1.71C19,59.5,18.35,59.72,18.15,59.49Z"/><path class="cls-54" d="M22.29,57.52c.24.39.17.83.34,1.2a2.64,2.64,0,0,1,.34.61,3.76,3.76,0,0,0,.46.92c.19.3.34.15.57.06s.46,0,.62-.11.12-.07.14-.25.1-.12,0-.25-.24-.37-.31-.5-.11-.17-.14-.21-.09-.41-.16-.55-.45-.71-.35-.82l.17-.29c0-.15,0-.5-.32-.5a1.58,1.58,0,0,0-.6,0,6,6,0,0,0-.71.27c-.12.07,0,.11,0,.21S22.23,57.51,22.29,57.52Z"/><path class="cls-55" d="M25.4,81.1c-1.42-.57-.92,1.72-2.9,0-2.35-2,3.29-6.64,6-5.48,1.4.61,3.36,1,4,2.62a2.31,2.31,0,0,1-2.62,3c-1.62-.45-1.68-.54-1.52,1.28,0,.4.54,1.59.24,1.62-.73.06-3.79.82-3.9-.4A13.47,13.47,0,0,1,25.4,81.1Z"/><path class="cls-56" d="M22.45,80.07c1.1-2.83,2.23-3.53,5.43-3.8,1.42-.14,3.62.71,4.2,2.06.44,1-.54,1.83-1.42,1.91-1.13.1-1.06-.8-1.53-1.54s-4-.34-4.53.25a10.29,10.29,0,0,1-1.12,1.35C23.19,80.46,22.54,80.36,22.45,80.07Z"/><path class="cls-57" d="M27,80.21c0,.45-.22.82-.24,1.22a4.17,4.17,0,0,1,0,.69,3.66,3.66,0,0,0,0,1c0,.35.22.27.47.3s.41.21.61.2.15,0,.24-.17.14-.06.12-.2,0-.45,0-.6a1.69,1.69,0,0,0,0-.25c0-.19.12-.4.1-.55s-.06-.83.07-.9l.29-.17c0-.15.26-.42,0-.6-.06,0-.44-.31-.52-.3a5.46,5.46,0,0,0-.76-.09c-.15,0,0,.11-.14.16S27,80.17,27,80.21Z"/><path class="cls-58" d="M29.86,32.29c-1.36-.11-.31,1.69-2.44.82-2.53-1,1-6.5,3.59-6.25,1.35.15,3.11-.06,4.14,1.13a2.07,2.07,0,0,1-1.42,3.21c-1.51,0-1.58,0-1,1.49.14.32.88,1.2.65,1.3-.61.26-3,1.73-3.43.71A13,13,0,0,1,29.86,32.29Z"/><path class="cls-59" d="M27.08,32.2c.17-2.69.95-3.57,3.57-4.67,1.18-.5,3.28-.37,4.12.61a1.32,1.32,0,0,1-.7,2c-.93.39-1.11-.39-1.71-.91s-3.53.8-3.79,1.43A8.48,8.48,0,0,1,28,32.11C27.81,32.33,27.23,32.43,27.08,32.2Z"/><path class="cls-60" d="M31,31.1c.15.36,0,.75.12,1.1a2.92,2.92,0,0,1,.19.59,3.6,3.6,0,0,0,.27.88c.12.29.27.17.49.12a1.48,1.48,0,0,0,.57,0c.16-.06.12,0,.15-.2s.11-.09.06-.21-.16-.36-.21-.49-.06-.16-.07-.21,0-.37-.07-.49-.29-.7-.17-.78l.19-.22c0-.14.11-.42-.2-.49a1.52,1.52,0,0,0-.52-.11,2.82,2.82,0,0,0-.66.12c-.12,0,0,.1-.07.17S30.95,31.07,31,31.1Z"/><path class="cls-61" d="M37.53,53c-1.36-.11-.31,1.69-2.44.82-2.53-1,1-6.5,3.59-6.25,1.35.15,3.11-.06,4.14,1.13a2.07,2.07,0,0,1-1.42,3.21c-1.51,0-1.58,0-1,1.49.14.32.88,1.2.65,1.3-.61.26-3,1.73-3.43.71A13,13,0,0,1,37.53,53Z"/><path class="cls-62" d="M34.75,52.93c.17-2.69.95-3.57,3.57-4.67,1.18-.5,3.28-.37,4.12.61a1.32,1.32,0,0,1-.7,2c-.93.39-1.11-.39-1.71-.91s-3.53.8-3.79,1.43a8.48,8.48,0,0,1-.59,1.43C35.47,53.06,34.9,53.16,34.75,52.93Z"/><path class="cls-63" d="M38.68,51.83c.15.36,0,.75.12,1.1a2.92,2.92,0,0,1,.19.59,3.6,3.6,0,0,0,.27.88c.12.29.27.17.49.12a1.48,1.48,0,0,0,.57,0c.16-.06.12,0,.15-.2s.11-.09.06-.21-.16-.36-.21-.49-.06-.16-.07-.21,0-.37-.07-.49-.29-.7-.17-.78l.19-.22c0-.14.11-.42-.2-.49a1.52,1.52,0,0,0-.52-.11,2.82,2.82,0,0,0-.66.12c-.12,0,0,.1-.07.17S38.61,51.8,38.68,51.83Z"/><path class="cls-64" d="M16.93,30.16c-1-.92-1.31,1.13-2.43-.87-1.33-2.38,4.82-4.48,6.69-2.69,1,1,2.48,1.89,2.54,3.46a2.06,2.06,0,0,1-3.1,1.63c-1.21-.88-1.23-1-1.67.59-.1.34,0,1.48-.31,1.42-.64-.19-3.41-.51-3.11-1.57A12.21,12.21,0,0,1,16.93,30.16Z"/><path class="cls-65" d="M14.8,28.36c1.81-2,3-2.23,5.71-1.46,1.23.35,2.8,1.74,2.85,3,0,1-1,1.36-1.78,1.15-1-.27-.64-1-.78-1.77s-3.26-1.56-3.86-1.22a9.09,9.09,0,0,1-1.35.76C15.29,28.91,14.78,28.64,14.8,28.36Z"/><path class="cls-66" d="M18.56,29.92c-.1.39-.44.61-.57.93a3.28,3.28,0,0,1-.21.59,3.34,3.34,0,0,0-.34.86c-.07.3.1.3.3.41s.29.3.45.35.12,0,.25-.06.14,0,.17-.14.11-.39.14-.51l.06-.21c0-.16.22-.3.26-.42s.2-.72.34-.73l.29,0c.09-.11.35-.27.15-.51,0,0-.26-.39-.34-.41a4.71,4.71,0,0,0-.61-.31c-.12,0-.06.07-.16.1S18.54,29.87,18.56,29.92Z"/><path class="cls-67" d="M80.68,40.61c-1.54-.3-.61,1.92-2.93.61-2.77-1.54,2.06-7.35,5-6.69,1.53.36,3.6.36,4.61,1.88a2.4,2.4,0,0,1-2.09,3.5c-1.73-.15-1.81-.24-1.3,1.58.11.39.85,1.51.55,1.59-.73.2-3.69,1.56-4,.34A15.72,15.72,0,0,1,80.68,40.61Z"/><path class="cls-68" d="M77.5,40.13c.57-3.08,1.58-4,4.77-4.9,1.42-.4,3.82,0,4.65,1.3.64.93-.19,2-1.07,2.2-1.12.31-1.22-.61-1.84-1.28s-4.16.42-4.56,1.12a10.41,10.41,0,0,1-.87,1.57C78.3,40.38,77.63,40.41,77.5,40.13Z"/><path class="cls-69" d="M82.17,39.4c.12.45-.07.87,0,1.27a3.41,3.41,0,0,1,.14.71,3.68,3.68,0,0,0,.2,1.06c.1.34.27.24.54.21a2.23,2.23,0,0,0,.66.09c.2-.06.15,0,.2-.22s.14-.09.1-.24-.12-.44-.17-.59l-.06-.25c-.06-.19,0-.44,0-.57s-.22-.83-.1-.93l.26-.22c0-.16.17-.47-.17-.59a1.82,1.82,0,0,0-.59-.21,3.88,3.88,0,0,0-.77.06c-.15,0,0,.11-.11.19S82.1,39.36,82.17,39.4Z"/><path class="cls-70" d="M75.18,80.07c-1.56.25.11,2-2.53,1.59-3.13-.49-.65-7.61,2.34-8,1.56-.19,3.5-.91,5,.15a2.4,2.4,0,0,1-.72,4c-1.68.47-1.78.42-.67,1.94.25.32,1.32,1.12,1.08,1.3-.62.45-2.91,2.77-3.66,1.73A15.51,15.51,0,0,1,75.18,80.07Z"/><path class="cls-71" d="M72,80.73c-.54-3.08.09-4.3,2.77-6.25,1.18-.87,3.59-1.31,4.81-.42a1.53,1.53,0,0,1-.24,2.44c-.95.7-1.37-.14-2.18-.55s-3.75,1.86-3.87,2.64A9.11,9.11,0,0,1,73,80.37C72.87,80.68,72.25,80.94,72,80.73Z"/><path class="cls-72" d="M76.15,78.41c.27.37.24.83.44,1.2a3.33,3.33,0,0,1,.37.61,3.75,3.75,0,0,0,.55.92c.21.29.35.12.59,0s.49,0,.65-.15.12-.1.11-.27.09-.14,0-.26-.27-.36-.36-.49a1.3,1.3,0,0,0-.15-.21c-.12-.16-.11-.42-.21-.54s-.51-.71-.41-.83l.15-.31c0-.15,0-.51-.36-.49a1.76,1.76,0,0,0-.62,0,4.45,4.45,0,0,0-.7.32c-.12.09,0,.11,0,.21S76.08,78.4,76.15,78.41Z"/><path class="cls-73" d="M63.71,62.82c-1-1.22-1.69,1.12-2.69-1.38-1.18-3,6.29-4.46,8.17-2.08,1,1.26,2.59,2.57,2.43,4.4a2.42,2.42,0,0,1-3.86,1.42c-1.27-1.21-1.27-1.33-2,.42-.16.37-.29,1.72-.57,1.59-.71-.3-3.89-1.11-3.38-2.29A14.52,14.52,0,0,1,63.71,62.82Z"/><path class="cls-74" d="M61.51,60.43c2.39-2.06,3.77-2.14,6.84-.82,1.37.6,3,2.47,2.84,4-.1,1.15-1.4,1.42-2.25,1.06-1.08-.47-.57-1.26-.62-2.18s-3.55-2.3-4.28-2a11,11,0,0,1-1.69.67C62,61.14,61.44,60.72,61.51,60.43Z"/><path class="cls-75" d="M65.64,62.8c-.19.42-.61.64-.82,1a3.06,3.06,0,0,1-.32.64,3.38,3.38,0,0,0-.52,1c-.15.32.06.36.29.51s.27.4.46.49.14,0,.3,0,.16,0,.22-.12.17-.42.24-.56l.1-.24c.09-.2.31-.32.37-.46s.34-.81.5-.8h.35c.11-.12.45-.26.25-.57,0-.06-.24-.49-.34-.54a4.62,4.62,0,0,0-.65-.45c-.14,0-.09.07-.2.09S65.61,62.74,65.64,62.8Z"/><path class="cls-76" d="M65.05,27.93c-.26-1.33-1.72.15-1.44-2.13.32-2.72,6.54-.77,7,1.78.21,1.35.88,3,0,4.3a2.07,2.07,0,0,1-3.48-.52c-.46-1.43-.41-1.52-1.69-.51-.27.21-.92,1.17-1.08,1-.41-.51-2.47-2.42-1.59-3.1A13.05,13.05,0,0,1,65.05,27.93Z"/><path class="cls-77" d="M64.39,25.24c2.64-.56,3.7,0,5.47,2.19.78,1,1.22,3.06.5,4.14a1.3,1.3,0,0,1-2.11-.14c-.62-.8.07-1.18.41-1.89s-1.72-3.18-2.39-3.25a9.88,9.88,0,0,1-1.54-.19C64.47,26,64.22,25.44,64.39,25.24Z"/><path class="cls-78" d="M66.51,28.71c-.31.25-.71.22-1,.41a2.84,2.84,0,0,1-.51.35,2.91,2.91,0,0,0-.77.5c-.25.19-.1.3,0,.5a1.51,1.51,0,0,0,.15.55c.11.15.09.11.24.1s.12.07.22,0l.41-.32.17-.14c.14-.1.36-.11.46-.19s.59-.46.71-.39l.26.12c.12,0,.44,0,.41-.32a1.56,1.56,0,0,0,0-.54,4.48,4.48,0,0,0-.3-.6c-.09-.11-.1,0-.19,0S66.52,28.65,66.51,28.71Z"/><path class="cls-79" d="M54.73,14.56c.88-1-1.18-1.27.78-2.45,2.34-1.42,4.65,4.66,2.91,6.59-.92,1-1.81,2.54-3.38,2.65a2.06,2.06,0,0,1-1.73-3.05c.85-1.23.93-1.26-.64-1.64-.35-.09-1.49,0-1.43-.26.16-.64.39-3.43,1.46-3.16A12,12,0,0,1,54.73,14.56Z"/><path class="cls-80" d="M56.44,12.37c2.07,1.73,2.32,2.88,1.64,5.66-.3,1.23-1.64,2.85-2.94,2.94-1,.09-1.4-1-1.2-1.73.24-1,1-.67,1.74-.85s1.44-3.31,1.08-3.89A9.79,9.79,0,0,1,56,13.16C55.91,12.88,56.17,12.35,56.44,12.37Z"/><path class="cls-81" d="M55,16.18c-.39-.09-.62-.42-1-.55a2.66,2.66,0,0,1-.59-.19,2.77,2.77,0,0,0-.87-.3c-.3-.07-.3.1-.39.31s-.3.29-.35.45,0,.14.07.25,0,.14.15.17l.51.12.21,0c.17,0,.31.21.44.25s.72.17.73.31l.06.29c.12.07.29.34.52.12,0,0,.37-.26.4-.35a3.36,3.36,0,0,0,.29-.61c0-.12-.07-.06-.1-.16S55.06,16.15,55,16.18Z"/><path class="cls-82" d="M86.56,53.49c.88-1-1.18-1.27.78-2.45,2.34-1.42,4.65,4.66,2.91,6.59-.92,1-1.81,2.54-3.38,2.65a2.06,2.06,0,0,1-1.73-3.05c.85-1.23.93-1.26-.64-1.64-.35-.09-1.49,0-1.43-.26.16-.64.39-3.43,1.46-3.16A12,12,0,0,1,86.56,53.49Z"/><path class="cls-83" d="M88.28,51.29c2.07,1.73,2.32,2.88,1.64,5.66-.3,1.23-1.64,2.85-2.94,2.94-1,.09-1.4-1-1.2-1.73.24-1,1-.67,1.74-.85S89,54,88.61,53.42a9.79,9.79,0,0,1-.81-1.33C87.74,51.8,88,51.28,88.28,51.29Z"/><path class="cls-84" d="M86.85,55.1c-.39-.09-.62-.42-1-.55a2.66,2.66,0,0,1-.59-.19,2.77,2.77,0,0,0-.87-.3c-.3-.07-.3.1-.39.31s-.3.29-.35.45,0,.14.07.25,0,.14.15.17l.51.12.21,0c.17,0,.31.21.44.25s.72.17.73.31l.06.29c.12.07.29.34.52.12,0,0,.37-.26.4-.35a3.36,3.36,0,0,0,.29-.61c0-.12-.07-.06-.1-.16S86.9,55.08,86.85,55.1Z"/><path class="cls-85" d="M16.49,68.54c.88-1-1.18-1.27.78-2.45,2.34-1.42,4.65,4.66,2.91,6.59-.92,1-1.81,2.54-3.38,2.65a2.06,2.06,0,0,1-1.73-3.05c.85-1.23.93-1.26-.64-1.64-.35-.09-1.49,0-1.43-.26.16-.64.39-3.43,1.46-3.16A12,12,0,0,1,16.49,68.54Z"/><path class="cls-86" d="M18.21,66.34c2.07,1.73,2.32,2.88,1.64,5.66-.3,1.23-1.64,2.85-2.94,2.94-1,.09-1.4-1-1.2-1.73.24-1,1-.67,1.74-.85s1.44-3.31,1.08-3.89a9.79,9.79,0,0,1-.81-1.33C17.67,66.86,17.94,66.33,18.21,66.34Z"/><path class="cls-87" d="M16.78,70.16c-.39-.09-.62-.42-1-.55a2.66,2.66,0,0,1-.59-.19,2.77,2.77,0,0,0-.87-.3c-.3-.07-.3.1-.39.31s-.3.29-.35.45,0,.14.07.25,0,.14.15.17l.51.12.21,0c.17,0,.31.21.44.25s.72.17.73.31l.06.29c.12.07.29.34.52.12,0,0,.37-.26.4-.35a3.36,3.36,0,0,0,.29-.61c0-.12-.07-.06-.1-.16S16.83,70.13,16.78,70.16Z"/><path class="cls-88" d="M20.94,20.62c5-4.11,18.57-13.18,25.7-12.1,10.13,1.51,17.25-2.15,25.46,6,5.62,5.62,0,8.86-2.8,3-2.17-4.32-13.39-4.1-17.49-4.1-6.9,0-13.81.65-19.42,3.45C30.87,17.59,20.94,23,20.94,20.62Z"/><path class="cls-89" d="M22.62,41.32c0-.77,1.46-1.37.72-2.11a27.94,27.94,0,0,0-4.32-3c-2-.65-.81-1.12-1.53-2.06-3.13-4.07-2-.35-3.48,1.15C12.31,37,9,43.46,8.76,45.8c-.12,1.51,0,4.76,1.23,5.64.35.26,4.41,2.27,4.85,1.84.6-.6,2.27-.39,2.43-1.63.35-2.25-1.11-6.91,2.11-7.56C20.57,43.88,22.24,41.44,22.62,41.32Z"/><path class="cls-90" d="M10.34,51.48c-.86-.5-1.49-1.31-.81-3.36.55-1.76.21-3.43,1.28-5.22.69-1.2,1.28-2.86,2.06-4,.64-1,3-5.13,3-6.12,0-2.91-1.42.51-2,1.46C12.14,37.08,9,39.95,8.5,43.62c-.25,1.88-.72,3.48-.34,5.44C8.25,49.58,9.53,52,10.34,51.48Z"/><path class="cls-91" d="M10.34,51.27c0-1.18-.39-3.06-.39-4.65,0-3,3-6.5,4.28-9.07a19,19,0,0,1,1.58-2.35c.34-.47.34-2,1.06-1,2,2.65-3.71,7.19-3.71,10.7,0,1.67-1.16,3.55-1.16,5.34C12,51.62,10.22,52.3,10.34,51.27Z"/><path class="cls-92" d="M12.91,52.6c0-.26-.72-2-.26-2.09,1.81-.6.91-2.86.91-4.1s2-3.21,2-5.09c0-1.72,2-1.63,2-3.16,0-3,4.92-.17,4.92.69,0,2.3-.64,1.88-2.48,3.71a28.36,28.36,0,0,0-3,3c-1.67,2.22.72,5.17-.26,7.17C16.21,53.84,12.82,53.75,12.91,52.6Z"/><path class="cls-93" d="M72.49,80.12c.54-.31,1.41.67,1.64-.31a37.22,37.22,0,0,0,.56-5.22c-.24-2.06.46-1.23.85-2.3,1.64-4.63-.44-1.92-1.94-2.57-1.72-.75-7.15-.8-8.78.07-1,.57-3.15,2.19-3.34,3.67-.06.41,0,4.95.41,5.14.6.26,1,1.84,1.91,1.43,1.62-.72,4.24-4.14,5.74-1.57C70.08,79.45,72.28,79.83,72.49,80.12Z"/><path class="cls-94" d="M61.56,73.79a2.15,2.15,0,0,1,2-2.27c1.36-.3,2.35-1.36,3.91-1.22,1,.07,2.34-.15,3.36,0s4.42.3,5.08-.15c1.93-1.32-.82-1-1.64-1.1-2.48-.22-5.44-1.71-8.07-.5-1.33.64-2.55.93-3.72,2.17C62.14,71.05,60.94,73.29,61.56,73.79Z"/><path class="cls-95" d="M61.7,73.69c.8-.55,1.92-1.74,3-2.45,2-1.38,5.34-.29,7.49-.3a11.43,11.43,0,0,1,2.09.34c.44.1,1.43-.59,1,.49-1.1,3-6,0-8.37,1.53-1.12.76-2.75.59-3.95,1.4C62,75.34,61,74,61.7,73.69Z"/><path class="cls-96" d="M61.69,76.58c.16-.16,1.06-1.54,1.31-1.18,1,1.33,2.22-.5,3-1.06s2.82.34,4.06-.52,1.77,1.06,2.79.36c2-1.36,1.78,4.31,1.21,4.7-1.53,1-1.47.29-3.31-.52a17.5,17.5,0,0,0-3-1.31c-2-.49-3.2,3-4.87,3C62,80.08,60.89,77,61.69,76.58Z"/><path class="cls-97" d="M82.69,51.44c-.6-.46-.27-2-1.3-1.79a29.08,29.08,0,0,0-5,1.77c-1.66,1.25-1.38,0-2.57.07-5.12.21-1.42,1.41-1.06,3.5.41,2.38,3.77,8.83,5.57,10.36,1.15,1,3.9,2.72,5.33,2.25.41-.14,4.4-2.29,4.28-2.89-.14-.83,1-2.08.09-2.94-1.66-1.58-6.3-3.09-5-6.08C83.6,54.61,82.58,51.83,82.69,51.44Z"/><path class="cls-98" d="M83.94,67.35c-.92.4-2,.46-3.24-1.28C79.59,64.6,78,63.91,77.17,62c-.59-1.25-1.59-2.7-2.09-4-.44-1.1-2.49-5.37-3.3-5.94-2.38-1.67-.4,1.46,0,2.45,1.36,3.05,1.89,7.25,4.61,9.79,1.4,1.3,2.42,2.59,4.25,3.41C81.14,67.95,83.89,68.31,83.94,67.35Z"/><path class="cls-99" d="M83.75,67.23c-1-.69-2.73-1.46-4-2.38-2.48-1.74-3.59-6.19-4.95-8.72a19.82,19.82,0,0,1-1-2.65c-.19-.55-1.41-1.41-.22-1.47,3.3-.07,3.72,7.19,6.59,9.22,1.37,1,2.24,3,3.71,4C85,66.07,84.52,67.92,83.75,67.23Z"/><path class="cls-100" d="M86.31,65.89c-.22-.11-2-.54-1.86-1,.55-1.82-1.82-2.39-2.84-3.1s-1.46-3.5-3-4.58-.16-2.58-1.42-3.46c-2.45-1.73,2.69-4.11,3.4-3.61,1.88,1.32,1.16,1.59,1.61,4.16a26.89,26.89,0,0,0,.72,4.17c.85,2.64,4.65,2.39,5.72,4.36C89.23,63.93,87.21,66.63,86.31,65.89Z"/><path class="cls-101" d="M72.25,12.24c-.77,0-1.52-1.31-2.15-.5a26.39,26.39,0,0,0-2.55,4.62c-.44,2-1,.93-1.88,1.76-3.7,3.54-.12,2,1.52,3.31,1.89,1.52,8.67,4.15,11,4.1,1.49,0,4.72-.55,5.48-1.84.21-.36,1.78-4.62,1.31-5-.66-.52-.64-2.2-1.88-2.24-2.29-.1-6.78,1.86-7.76-1.27C75,14,72.43,12.61,72.25,12.24Z"/><path class="cls-102" d="M83.7,23.36c-.41.9-1.16,1.63-3.26,1.17-1.81-.36-3.43.15-5.33-.72-1.27-.55-3-1-4.22-1.61-1-.52-5.42-2.38-6.4-2.27-2.89.31.66,1.35,1.66,1.79,3,1.4,6.23,4.2,9.94,4.31,1.89,0,3.53.35,5.44-.25C82,25.65,84.3,24.1,83.7,23.36Z"/><path class="cls-103" d="M83.49,23.37c-1.18.14-3,.72-4.6.9-3,.32-6.79-2.28-9.48-3.28a21.94,21.94,0,0,1-2.5-1.32c-.51-.3-2-.14-1.13-1,2.42-2.24,7.55,2.93,11,2.55,1.66-.19,3.65.76,5.43.56C83.65,21.67,84.52,23.39,83.49,23.37Z"/><path class="cls-104" d="M84.53,20.68c-.25.07-1.88.93-2.06.49-.8-1.73-3-.59-4.19-.45s-3.4-1.66-5.28-1.46c-1.69.19-1.83-1.82-3.36-1.66-3,.32-.7-4.87.15-5,2.3-.25,1.94.44,4,2.07a27.2,27.2,0,0,0,3.3,2.65c2.39,1.42,5.07-1.28,7.17-.51C85.41,17.26,85.69,20.64,84.53,20.68Z"/><path class="cls-105" d="M38.47,32.74c-.55,0-1.08-1.31-1.54-.5a32,32,0,0,0-1.84,4.67c-.3,2-.72.93-1.35,1.77-2.65,3.59-.09,2,1.1,3.36,1.36,1.53,6.23,4.17,7.92,4.14,1.08,0,3.39-.56,3.94-1.87.16-.36,1.28-4.67.95-5.06S47.18,37,46.28,37c-1.64-.1-4.86,1.87-5.57-1.28C40.46,34.52,38.59,33.11,38.47,32.74Z"/><path class="cls-106" d="M46.69,44c-.3.92-.82,1.66-2.34,1.2-1.3-.37-2.47.15-3.82-.72-.91-.56-2.15-1-3-1.63s-3.89-2.4-4.6-2.29c-2.08.31.47,1.36,1.2,1.82,2.18,1.41,4.47,4.24,7.14,4.35,1.36,0,2.53.35,3.9-.25C45.48,46.28,47.13,44.72,46.69,44Z"/><path class="cls-107" d="M46.54,44c-.85.14-2.17.72-3.3.9-2.17.34-4.87-2.29-6.8-3.3a13.57,13.57,0,0,1-1.81-1.35c-.36-.29-1.43-.12-.81-1,1.73-2.27,5.42,3,7.92,2.58,1.18-.19,2.63.77,3.91.57C46.65,42.28,47.29,44,46.54,44Z"/><path class="cls-108" d="M47.29,41.27c-.17.06-1.35.95-1.47.49-.57-1.74-2.12-.6-3-.46s-2.45-1.67-3.8-1.46S37.71,38,36.6,38.15c-2.13.32-.5-4.92.11-5,1.64-.25,1.4.45,2.85,2.09a25.29,25.29,0,0,0,2.37,2.68c1.72,1.43,3.64-1.3,5.16-.52C47.92,37.82,48.12,41.22,47.29,41.27Z"/><path class="cls-109" d="M50.88,21.35c-.55-2.28,1.31-4.09-.83-6.19-1.47-1.47-4.28-1.82-5.27-3.33-1.2-1.78-3.67-5.42-5.87-4.95C35.68,7.57,32.84,20,36.45,20.7a47.2,47.2,0,0,1,10,2.77C47.59,24,51.49,22.27,50.88,21.35Z"/><path class="cls-110" d="M37.59,21.34C37,19.27,36,17.39,36.44,15.22c.49-2.42.11-6,2.48-7.57.35-.22,1-.93.67-1.21-.87-.67-3.34,2.84-3.7,3.35a23.52,23.52,0,0,0-1.33,4C34,15.43,35,16.9,35,18.36c0,.76,1.11,1.36,1.46,1.89S37,21.44,37.59,21.34Z"/><path class="cls-111" d="M47.64,14.39c.41.07,1.71.26,2,.65.8,1.21.54,3.54.7,4.82.42,3.26-6.09,4-6.44,1.21a3.68,3.68,0,0,1,1.22-2.68c1.47-1.33.61-1.81.92-3.33C46.22,14,47.23,13.75,47.64,14.39Z"/><path class="cls-112" d="M39.75,8.07c2.43.61,2.14,2.27,3.65,3.49.93.77,2.07,1.54,2.23,2.84s-2,4.07-2.24,5.52c-.56,2.74-2.19.27-3.24.27-1.25,0-2.68.25-2.55-1.64.14-2.11-.21-4.31.22-6.48.22-1.13-.44-1.38.52-2.58C38.73,9,39.63,8.5,39.75,8.07Z"/><path class="cls-113" d="M41.28,56.79c4.41,2,1.08,2.2,1.17,5.36,0,.77-.11,4.52.19,4.85,1,1.2,1.78,1.77,3.23,1.53,1.16-.16,3.69-1.67,4.46-1.69,0,0,.55,1,.37,1.38-.26.57-.31.69.22,1.18.32.27-1.31,1.62-1.47,1.67-2.13.8-3.87.45-6-.52-.83-.39-3-2.22-2.89-3.23s-.66-1.32-.11-2.53a8.58,8.58,0,0,0,.24-4.26A16.08,16.08,0,0,1,41.28,56.79Z"/><path class="cls-114" d="M43.45,58.69c-2.13.77-.71,2.82-1.36,4.24-.82,1.78.52,2.59.34,4-.29,2.4,3.64,2.43,5.19,2.38,2.44-.09,2.69-3.53.82-2.35a4.44,4.44,0,0,1-2.69.61,5.9,5.9,0,0,0-1.26.12c-.31.11-.76-1.56-1.15-1.79-1.3-.92.07-3.2.06-4.28,0-.45-.45-.85,0-1.37C43.64,60,43.76,58.87,43.45,58.69Z"/><path class="cls-115" d="M50.05,69.63c-.73-.47-.9-.1-1.57,0-.34,0-1.13,0-1.37.06-.46.17-1.84-.52-2.12,0s.35.92.82,1.13a2,2,0,0,0,1.27.14s.85,0,.92-.09c.31-.11,1.12.2,1.52-.12A1.56,1.56,0,0,0,50.05,69.63Z"/><path class="cls-116" d="M42.53,58.25s-.57-.83-.7-.57c0,0-.25.4-.29.5s.26.37.12.7-1.06,2.17-.92,2.55a11.83,11.83,0,0,0,.5,1.69c.78.35.47-1.76.46-2.14A18.74,18.74,0,0,1,42.53,58.25Z"/><path class="cls-117" d="M41.48,66.45c.21.22.09.24.16.34s0,.25.1.35a3.55,3.55,0,0,1,.5,1s.1.17.1.17.16.2.32.27a7.27,7.27,0,0,1,.95.56c.24.17.2.41.07.67s-1.17-.22-1.22-.37a1.8,1.8,0,0,0-.83-1l-.31-.14a.77.77,0,0,1-.17-.59c0-.11,0-.19.06-.29s-.11-.44-.1-.49a1.65,1.65,0,0,1,.11-.65C41.35,66.08,41.62,66.58,41.48,66.45Z"/><path class="cls-118" d="M53.26,49.49c-.81,2.18-3.35,2.65-2.7,5.61.4,2,2.53,3.89,2.53,5.68,0,2.14.06,6.55,2.15,7.36C58.3,69.36,67.52,60.6,64.91,58a48.71,48.71,0,0,1-6.79-7.82C57.43,49.14,53.26,48.38,53.26,49.49Z"/><path class="cls-119" d="M64.33,56.84c-.7,2-.87,4.17-2.43,5.73-1.74,1.74-3.43,4.93-6.27,4.93-.4,0-1.33.22-1.22.64.35,1,4.35-.52,4.93-.75a24.77,24.77,0,0,0,3.3-2.55c1.4-1.11,1.33-2.9,2.14-4.12.41-.64-.17-1.73-.17-2.37S64.85,57.06,64.33,56.84Z"/><path class="cls-120" d="M52.1,57.06c-.29-.29-1.26-1.16-1.26-1.62,0-1.44,1.49-3.25,2.07-4.4,1.46-3,7.31,0,6,2.54a3.73,3.73,0,0,1-2.49,1.57c-2,.29-1.51,1.16-2.6,2.25C53.08,58.17,52.1,57.82,52.1,57.06Z"/><path class="cls-121" d="M55.17,66.69c-1.68-1.86-.52-3.08-1.11-4.93-.34-1.16-.86-2.43-.29-3.59s3.89-2.33,4.93-3.36c2-2,2,1,2.84,1.56,1,.7,2.38,1.28,1.21,2.79-1.27,1.68-2.19,3.71-3.76,5.27-.81.81-.41,1.4-1.86,1.86C56.57,66.45,55.52,66.39,55.17,66.69Z"/><path class="cls-122" d="M65.18,32.24c-.65-3.9-4.15-6.27-8-6.79-2.22-.3-6,.62-7.19,2.73-.36.65-2.94,2.67-1.57,3.23,2.59,1.11,7.81,1.07,10.56,1C60.64,32.32,64.85,34.19,65.18,32.24Z"/><path class="cls-123" d="M65.34,32.21c-1.62-.76-1.93-3.6-2.91-4.27-2.55-1.74-6.09-3-9.44-2.09A9.59,9.59,0,0,0,48,30.22c-.51,1.33,1.72,0,1.72,0,1.2-.91,2.74-2.8,4.31-3s6.37.34,7.36,1.66C61.94,29.6,64.32,32.17,65.34,32.21Z"/><path class="cls-124" d="M46.25,11.11C44,7.87,39.79,7.27,36.09,8.48c-2.13.7-5.18,3.21-5.29,5.61,0,.73-1.48,3.67,0,3.59,2.82-.14,7.5-2.45,9.93-3.75C42.21,13.15,46.82,13,46.25,11.11Z"/><path class="cls-125" d="M46.39,11c-1.79,0-3.31-2.4-4.48-2.58-3.06-.45-6.81-.07-9.42,2.24a9.57,9.57,0,0,0-2.55,6.1c.12,1.41,1.56-.73,1.56-.73.69-1.35,1.26-3.71,2.6-4.55S40,9,41.43,9.77C42.18,10.14,45.46,11.42,46.39,11Z"/><path class="cls-126" d="M72,48.08c1.31-3.74-.62-7.49-3.75-9.82-1.79-1.33-5.61-2.37-7.62-1.07-.62.4-3.86.92-2.93,2.07C59.45,41.48,64,44,66.52,45.2,68,46,70.79,49.63,72,48.08Z"/><path class="cls-127" d="M72.18,48.13c-1.06-1.44,0-4.09-.5-5.14-1.41-2.77-3.89-5.59-7.27-6.39A9.61,9.61,0,0,0,58,38.05c-1.08.92,1.49.85,1.49.85,1.49-.22,3.76-1.13,5.22-.51s5.42,3.35,5.66,5C70.44,44.2,71.29,47.61,72.18,48.13Z"/><path class="cls-128" d="M43.85,30.28c-4.63-1.37-1.38-2-1.91-5.13-.14-.76-.54-4.48-.87-4.77-1.13-1.06-2-1.49-3.41-1.07-1.12.34-3.41,2.18-4.17,2.32,0,0-.69-.92-.57-1.31.17-.61.21-.72-.39-1.13-.35-.24,1.07-1.79,1.21-1.87,2-1.1,3.79-1,6-.34.88.26,3.33,1.77,3.31,2.79s.85,1.21.47,2.48a8.74,8.74,0,0,0,.36,4.26A14.73,14.73,0,0,1,43.85,30.28Z"/><path class="cls-129" d="M41.43,28.7c2-1.06.31-2.89.76-4.37.56-1.88-.88-2.49-.9-3.87-.06-2.43-3.95-1.89-5.48-1.62-2.4.42-2.17,3.86-.47,2.44a4.43,4.43,0,0,1,2.57-1,7.75,7.75,0,0,0,1.23-.3c.29-.16,1,1.43,1.38,1.61,1.42.72.39,3.19.55,4.26,0,.44.56.76.14,1.36C41.07,27.48,41.11,28.57,41.43,28.7Z"/><path class="cls-130" d="M33.35,18.82c.8.36.92,0,1.57-.2.32-.09,1.12-.15,1.35-.26.42-.24,1.91.26,2.08-.35s-.46-.86-1-1a2,2,0,0,0-1.28,0s-.83.17-.9.21c-.29.15-1.13,0-1.49.34A1.65,1.65,0,0,0,33.35,18.82Z"/><path class="cls-131" d="M42.43,29s.67.75.76.46c0,0,.19-.42.22-.54s-.32-.34-.22-.66.73-2.3.55-2.67A15,15,0,0,0,43,24c-.83-.24-.24,1.81-.16,2.18A18.65,18.65,0,0,1,42.43,29Z"/><path class="cls-132" d="M42.29,20.74c-.25-.19-.12-.21-.21-.3s0-.26-.14-.35a3,3,0,0,1-.64-.91s-.14-.15-.14-.15-.19-.19-.35-.22a9.26,9.26,0,0,1-1-.42c-.26-.14-.25-.37-.17-.66s1.2,0,1.27.2a1.73,1.73,0,0,0,1,.82s.34.1.34.1.3.39.25.56,0,.17,0,.29.17.42.16.47a1.7,1.7,0,0,1,0,.66C42.48,21.1,42.14,20.64,42.29,20.74Z"/><path class="cls-133" d="M49.31,26.36c2.6,3.15,2.07-.07,3.85-1.87,1.47-1.47,7.54.14,9.54.77,1,.31,4.86,4.38,5.09,5.13.65,2,4.48-.14.2-2.28-.61-.3-2.44-3.43-3.46-4.24-2.11-1.67-6.75-2.08-9.5-2.08-1.42,0-3.29.45-4.16,1.59a14.13,14.13,0,0,1-1,1.67A7.94,7.94,0,0,0,49.31,26.36Z"/><path class="cls-134" d="M51.34,24c-.95-2.27,5.63-1.69,6.48-1.69a12.67,12.67,0,0,1,4.68,1.26c.34.17-2.24,0-2.79-.24-1.25-.61-3.46-.41-4.92-.41a8.36,8.36,0,0,0-2.2.61C52,24.38,52,23.94,51.34,24Z"/><path class="cls-135" d="M50.56,25.1a.71.71,0,0,0-.11.3,1.54,1.54,0,0,1-.06.24c0,.14-.14.21-.17.27a3.11,3.11,0,0,0-.1.31v.24c.07,0,.27.16.31.16s.57,0,.61-.1.2-.16.27-.27a6.46,6.46,0,0,1,.52-.44,1.29,1.29,0,0,0,.24-.31.55.55,0,0,0,.07-.2c0-.06,0-.2,0-.3s0-.07-.06-.07-.24-.06-.27,0l-.06.1c-.1.14-.46.45-.64.45s-.1-.27-.17-.35A.72.72,0,0,0,50.56,25.1Z"/><path class="cls-136" d="M65.3,27.2c1,.85,1.74,2.48,2.83,3,.75.37,1.1-.67.59-1.18s-1.84-1-2-1.4A8.29,8.29,0,0,0,66,26.15a1.59,1.59,0,0,0-1.06-.54c-.75,0-.47.4-.2.67l.41.37C65.21,26.66,65.08,27.09,65.3,27.2Z"/><path class="cls-137" d="M50.84,27.7c.51-.76,1.83-3.44,2.73-3.79a7.05,7.05,0,0,1,4.58-.06c1.32.66,3.35.14,4.56,1.36.77.76,1.92,1.28,2.82,2.17l2.23,2.23c2.53,2.54-.52,1.07-1.66-.44-2.55-3.43-4.93-4.66-9.28-4.66-2.17,0-2.23-.12-3.76,1.4C52.72,26.25,50.86,28.33,50.84,27.7Z"/><path class="cls-138" d="M30.66,40.32c-4.11,1.28-6.14,5.39-6.14,9.63,0,2.42,1.57,6.42,4,7.35.76.29,3.3,2.78,3.71,1.22.81-3,0-8.57-.52-11.53C31.42,45.19,32.8,40.38,30.66,40.32Z"/><path class="cls-139" d="M30.61,40.15C30,42,27,42.76,26.44,43.92c-1.51,3-2.38,7-.87,10.48.81,1.79,3.65,4.3,5.44,4.7,1.51.35-.22-1.86-.22-1.86-1.16-1.16-3.43-2.55-3.84-4.24s-.57-6.88.7-8.16C28.28,44.21,30.72,41.26,30.61,40.15Z"/><path class="cls-140" d="M26.08,67.78c-2.13,2.94-1.42,6.74.71,9.59C28,79,31.1,80.9,33.2,80.31c.66-.19,3.62.21,3.11-1-.95-2.4-4.32-5.79-6.17-7.51C29,70.68,27.55,66.74,26.08,67.78Z"/><path class="cls-141" d="M26,67.69c.55,1.54-1.11,3.57-.91,4.65.5,2.79,1.93,5.93,4.71,7.51a8.83,8.83,0,0,0,6,.41c1.18-.52-1.1-1.13-1.1-1.13-1.37-.19-3.59,0-4.71-.92s-3.87-4.35-3.66-5.85C26.44,71.6,26.59,68.37,26,67.69Z"/><path class="cls-142" d="M22.87,33.78c1.32,0,5.28-1.42,5.28-.66,0,1.12-2.25,1.26-1.42,2.09s.62,1.94,1.73,3.05c1.84,1.84,3.51,2.37,6.05,3A13,13,0,0,0,45,39.6c.73-.5,1.43-2.75,2.82-3.1,4.9-1.22-.17,5.39-2,6.12-4.48,1.78-10.09,2.68-14.81.31-2.15-1.07-3.86-3.16-5.64-4.48a8.37,8.37,0,0,1-2-2.91C23.26,35.35,22.7,33.64,22.87,33.78Z"/><path class="cls-143" d="M27.28,33.37c-.49.17-3.75.39-1.73,1.91,1.42,1.08,2.12,5.14,4.38,5.7,4.1,1,8.1,2.75,12.27,1.08,1.07-.42,5.9-3.76,5.9-5.08,0-.27-4.66,4-6.12,4.27-3.4.67-7.3.83-10-1.17a43.51,43.51,0,0,1-4.45-3.9C26.84,35.49,27.84,33.43,27.28,33.37Z"/><path class="cls-144" d="M23.36,34.07a3.77,3.77,0,0,0,.1,1.07c.17.6.6.87.6,1.57,0,.52,1.46,1.56,1.73,1.49.56-.17.07-1.08-.2-1.26a1.81,1.81,0,0,1-.7-1.32c0-.37-.45-.72-.45-1.25C24.44,34.09,23.67,34.13,23.36,34.07Z"/><path class="cls-145" d="M31.53,42.3c.8.7,2.23.39,2.85,1,.35.35,3.9.39,4.52.39a14.48,14.48,0,0,0,2.08,0c.35-.07.7-.17.7-.56s-3.06-.1-3.51-.1A27.82,27.82,0,0,1,34,42.69c-.55-.07-.76-.42-1.35-.6A1.45,1.45,0,0,0,31.53,42.3Z"/><path class="cls-146" d="M48.53,36.77a3,3,0,0,1-1.18,2.06,9,9,0,0,0-1,.93c-.24.39,0,.32.27.42s1.12.24,1.32-.27.7-.64.7-1.12a2.4,2.4,0,0,1,.66-1.53C49.68,36.67,48.88,36.6,48.53,36.77Z"/><path class="cls-147" d="M79.15,27.37a24.78,24.78,0,0,0-.15-4.5c-.91-1.82,6.68,1,7.49,1.82,3.49,3.49,4.4,4.25,5.46,9.11.46,2.12,1.06,4.55,0,6.42-1.67,2.84,0,2.43-3.24,4.36-1.06.6-2,3.49-2.88.75-.36-1.06-3.19-3.54-3.95-4.3-1-1,2.58.51,3.09,1,3.89,3.89,6.63-7.44,4.75-10-1.46-2-2.83-5.37-5.21-6.28a6.62,6.62,0,0,0-3.59-.35C80.16,25.65,79.81,27.22,79.15,27.37Z"/><path class="cls-148" d="M79.76,25.8c0-3.08,4.6-.86,5.92.46,2.68,2.68,7,7,5.26,11.32-.56,1.37-2.08,5.87-4.25,5.87-2.68,0,1.57-3,2.38-3.79,1.67-1.67.1-8.35-1.37-9.82-1-1-2.78-3.14-4.25-3.14C82.69,26.71,79.91,26.61,79.76,25.8Z"/><path class="cls-149" d="M87,25.85a2.6,2.6,0,0,0,.41,1.27c.25.45,1.11.81,1.52,1.11a1.8,1.8,0,0,1,.6,1.32,2.86,2.86,0,0,0,.31,1.16s.1.3.1.35c.4.81.6-.8.5-1s-.25-1.11-.55-1.41c-.46-.46-.81-1-1.27-1.47a2.6,2.6,0,0,1-.66-.76C87.85,26.11,87.65,25.9,87,25.85Z"/><path class="cls-150" d="M84.92,43.15a2.38,2.38,0,0,0,2.38.61,8.59,8.59,0,0,0,1.77-1.47A4.05,4.05,0,0,0,90,40.47a6,6,0,0,1,.45-.86c.15-.31.2,1.06.2,1.16-.2.61-1.06,1.47-1.31,2.23s-.1,1.11-1,1.62c-.41.2-.91.45-1,.81-.36,1.06-1.17-.36-1.57-.76a6.36,6.36,0,0,1-.81-.86A4.87,4.87,0,0,1,84.92,43.15Z"/><path class="cls-151" d="M57.39,77.8a24.62,24.62,0,0,0,4.16-1.71c1.4-1.48,1.38,6.61.91,7.65C60.41,88.23,60,89.35,55.83,92c-1.83,1.17-3.9,2.58-6,2.19-3.24-.59-2.29.8-5.21-1.52-.93-.78-4-.64-1.72-2.44.87-.7,2.22-4.22,2.65-5.19.57-1.23.44,2.59.14,3.25-2.29,5,9.26,3.61,11,1,1.35-2.07,4-4.53,4.07-7.08a6.72,6.72,0,0,0-.92-3.49C59.36,78.15,57.76,78.38,57.39,77.8Z"/><path class="cls-152" d="M59.07,77.83c2.89-1.07,2.4,4,1.63,5.71-1.57,3.45-4.16,9-8.78,8.88-1.46,0-6.22.1-7-1.94-.93-2.5,3.34.44,4.37.91,2.15,1,7.85-2.82,8.72-4.7.59-1.31,2-3.7,1.46-5.08C59.25,80.89,58.36,78.25,59.07,77.83Z"/><path class="cls-153" d="M61.56,84.68a2.73,2.73,0,0,0-1,.81A5.56,5.56,0,0,0,60,87.31a1.79,1.79,0,0,1-1,1,2.94,2.94,0,0,0-1,.7s-.25.2-.3.21c-.62.66,1,.29,1.12.12s1-.62,1.13-1c.27-.59.67-1.11.93-1.69a2.24,2.24,0,0,1,.49-.87A1,1,0,0,0,61.56,84.68Z"/><path class="cls-154" d="M44.62,88.71a2.32,2.32,0,0,0,.26,2.43,7.69,7.69,0,0,0,2,1.16,3.92,3.92,0,0,0,2,.21,6.62,6.62,0,0,1,1,.12c.34,0-.93.56-1,.6-.65,0-1.74-.49-2.55-.46s-1.07.3-1.84-.34c-.34-.3-.75-.69-1.11-.66-1.12,0-.07-1.21.16-1.73A5.24,5.24,0,0,1,44,89,3.32,3.32,0,0,1,44.62,88.71Z"/><path class="cls-155" d="M80.62,29.19A2.63,2.63,0,0,1,82.69,28c.76,0,.51,2.22.51,2.88a13.66,13.66,0,0,1-1.57,6.07c-.2.41-.31.41-.56.16-.45-.46.2-1.07-.61-1.47a2.16,2.16,0,0,1-.81-1.32c0-.3.71-.55,1.07-.65s.45-2,.2-2.43a2.78,2.78,0,0,1-.41-1.42C80.51,29.5,80.77,29.09,80.62,29.19Z"/><path class="cls-156" d="M81.37,29.45a1.49,1.49,0,0,0-.2.5v.91c0,.15.1.26.1.41s.21.35.21.4.1.31.3.2.25-.3.35-.55c0,0,.11-.51.11-.56s.15-.3.15-.45a6.08,6.08,0,0,1,.15-.66,1.65,1.65,0,0,0,.15-.71c0-.3-.71-.2-.76,0s-.15.25-.25.25S81.53,29.33,81.37,29.45Z"/><path class="cls-157" d="M28,43.56c.59-1.28,3.64-.51,4.63.16a2.75,2.75,0,0,1,1,3.35c-.73,1.47-3.24.52-4.22-.12-.52-.34-1.33-.9-1.49-1.56C27.93,45.22,27.53,43.45,28,43.56Z"/><path class="cls-158" d="M30.06,43.67c-.46,0-1.11-.16-1.11.42a1.36,1.36,0,0,0,.25.66,1.66,1.66,0,0,0,1.42.83h.65c.15,0,.34-.47.34-.6,0-.5-.55-.59-.69-.88S30.31,43.78,30.06,43.67Z"/><path class="cls-159" d="M30.19,44.29a3,3,0,0,0-.34,0,1.49,1.49,0,0,0,0,.42l0,.21a0,0,0,0,1,0,0c0,.1.19.21.29.22a.23.23,0,0,1,.12.06h.59c.06,0,.17,0,.19,0a.42.42,0,0,0,.09-.27.36.36,0,0,0,0-.1c0-.06-.1-.16-.12-.21s-.07,0-.1-.06,0,0,0-.06-.12,0-.14-.06A1.14,1.14,0,0,0,30.19,44.29Z"/><path class="cls-157" d="M47.15,4.16c1.12-.86,3.45,1.26,4,2.32a2.8,2.8,0,0,1-.67,3.45c-1.33.95-3.1-1.06-3.66-2.09a3.32,3.32,0,0,1-.6-2.09C46.29,5.58,46.77,3.82,47.15,4.16Z"/><path class="cls-158" d="M48.9,5.22c-.41-.22-.9-.67-1.17-.15a1.27,1.27,0,0,0-.1.7,1.67,1.67,0,0,0,.86,1.41l.57.3c.12.07.52-.26.59-.37.22-.44-.21-.77-.2-1.1S49.07,5.42,48.9,5.22Z"/><path class="cls-159" d="M48.71,5.83a1.39,1.39,0,0,0-.3-.16s-.2.3-.22.35l-.09.2a0,0,0,0,1,0,0c0,.1.06.27.15.35a.14.14,0,0,1,.07.11l.52.27s.14.09.17,0a.53.53,0,0,0,.21-.2s0-.1,0-.1a.82.82,0,0,0,0-.25s0-.07-.06-.1a.08.08,0,0,1,0-.07,1,1,0,0,1-.1-.11A1,1,0,0,0,48.71,5.83Z"/><path class="cls-157" d="M54.69,30.23c0-1.42,3.16-1.88,4.35-1.64a2.75,2.75,0,0,1,2.23,2.7c-.11,1.63-2.78,1.73-3.94,1.51a3.26,3.26,0,0,1-2-.86C55.24,31.8,54.19,30.31,54.69,30.23Z"/><path class="cls-158" d="M56.61,29.55c-.42.19-1.08.27-.86.81a1.42,1.42,0,0,0,.49.52,1.63,1.63,0,0,0,1.63.22l.6-.25c.14,0,.12-.57.07-.69-.19-.46-.72-.32-1-.55A2.52,2.52,0,0,0,56.61,29.55Z"/><path class="cls-159" d="M57,30.08a1.63,1.63,0,0,0-.31.12,1.33,1.33,0,0,0,.12.4l.1.19a0,0,0,0,1,0,0c0,.1.26.12.36.1a.25.25,0,0,1,.14,0L58,30.7s.16,0,.15-.11a.4.4,0,0,0,0-.29.31.31,0,0,0-.06-.09s-.16-.11-.19-.14-.1,0-.12,0a.1.1,0,0,1,0,0,.59.59,0,0,1-.15,0A1,1,0,0,0,57,30.08Z"/><path class="cls-157" d="M38.79,24.91c.71,1.23-1.68,3.26-2.82,3.7a2.76,2.76,0,0,1-3.33-1.12c-.77-1.43,1.44-2.94,2.54-3.36a3.36,3.36,0,0,1,2.14-.31C37.5,23.88,39.18,24.58,38.79,24.91Z"/><path class="cls-158" d="M37.52,26.51c.27-.37.78-.81.3-1.15a1.29,1.29,0,0,0-.69-.19,1.65,1.65,0,0,0-1.49.69l-.39.52c-.07.11.2.55.31.62.4.29.78-.1,1.11,0S37.3,26.64,37.52,26.51Z"/><path class="cls-159" d="M36.95,26.25s.19-.22.19-.27-.26-.24-.31-.27l-.19-.1a0,0,0,0,1-.06,0c-.07,0-.27,0-.35.11a.2.2,0,0,1-.12.06s-.31.45-.34.47-.11.12-.07.19a.44.44,0,0,0,.17.22.22.22,0,0,0,.09,0c.06,0,.2,0,.25,0s.09,0,.11,0a.05.05,0,0,1,.06,0,.45.45,0,0,1,.14-.07A1.08,1.08,0,0,0,36.95,26.25Z"/><path class="cls-157" d="M75.43,18.77C76.81,18.5,78,21.41,78,22.61a2.78,2.78,0,0,1-2.11,2.82c-1.62.27-2.34-2.3-2.39-3.48a3.32,3.32,0,0,1,.37-2.13C74,19.68,75.23,18.31,75.43,18.77Z"/><path class="cls-158" d="M76.54,20.49c-.27-.37-.52-1-1-.65a1.37,1.37,0,0,0-.39.6,1.63,1.63,0,0,0,.16,1.63l.39.52c.09.11.59,0,.69-.09.4-.3.15-.78.3-1.07S76.6,20.75,76.54,20.49Z"/><path class="cls-159" d="M76.1,21s-.15-.25-.2-.26-.31.17-.36.21l-.15.14a0,0,0,0,1,0,.06c-.09.06-.06.27,0,.37s0,.1,0,.14l.35.46c0,.06.07.15.14.14a.57.57,0,0,0,.27-.1l.07-.07s.06-.19.09-.22,0-.1,0-.12l0,0a1.07,1.07,0,0,1,0-.16A1,1,0,0,0,76.1,21Z"/><path class="cls-157" d="M98.91,49.18c1.43.37,1.22,3.65.72,4.81a2.9,2.9,0,0,1-3.28,1.69c-1.64-.47-1.16-3.24-.67-4.37A3.48,3.48,0,0,1,97,49.48C97.18,49.4,98.93,48.65,98.91,49.18Z"/><path class="cls-158" d="M99.17,51.28c-.09-.46,0-1.16-.64-1a1.45,1.45,0,0,0-.65.39,1.68,1.68,0,0,0-.59,1.61c0,.22.07.46.12.67s.55.25.69.22c.51-.09.5-.66.77-.87S99.11,51.57,99.17,51.28Z"/><path class="cls-159" d="M98.55,51.53a1.6,1.6,0,0,0-.06-.34s-.37,0-.44,0l-.21,0a.05.05,0,0,1,0,.06c-.11,0-.17.22-.17.34a.27.27,0,0,1,0,.15s.11.56.11.6,0,.17.09.19a.49.49,0,0,0,.29,0l.11,0c.06,0,.15-.14.19-.16s0-.1,0-.12a0,0,0,0,1,0,0s0-.14,0-.17A1,1,0,0,0,98.55,51.53Z"/><path class="cls-157" d="M33.05,62.73c.6-1.28,3.64-.51,4.65.16a2.78,2.78,0,0,1,1,3.36c-.73,1.46-3.24.52-4.22-.12-.51-.34-1.33-.9-1.49-1.57C33,64.4,32.57,62.62,33.05,62.73Z"/><path class="cls-158" d="M35.08,62.85c-.46,0-1.1-.17-1.1.41a1.33,1.33,0,0,0,.25.67,1.63,1.63,0,0,0,1.42.83h.64c.15,0,.34-.49.34-.61,0-.5-.54-.59-.69-.87S35.33,63,35.08,62.85Z"/><path class="cls-159" d="M35.21,63.48a1.41,1.41,0,0,0-.32,0s0,.35,0,.41l0,.21s0,0,0,0,.19.2.3.22a.24.24,0,0,1,.12.06h.59c.06,0,.16,0,.19,0a.51.51,0,0,0,.07-.27,1,1,0,0,0,0-.11c0-.06-.11-.16-.12-.2s-.09,0-.11-.06a.13.13,0,0,1,0-.06l-.15-.06A.89.89,0,0,0,35.21,63.48Z"/><path class="cls-157" d="M56.49,92.35c.07-1.41,3.19-1.82,4.37-1.57a2.76,2.76,0,0,1,2.19,2.73c-.14,1.63-2.8,1.69-4,1.46a3.31,3.31,0,0,1-2-.9C57,93.93,56,92.43,56.49,92.35Z"/><path class="cls-158" d="M58.42,91.7c-.42.17-1.08.26-.87.8A1.45,1.45,0,0,0,58,93a1.63,1.63,0,0,0,1.62.24l.6-.24c.14,0,.14-.57.09-.69-.19-.46-.72-.34-1-.56S58.7,91.72,58.42,91.7Z"/><path class="cls-159" d="M58.77,92.24a1.62,1.62,0,0,0-.31.12,1.76,1.76,0,0,0,.11.4l.1.19a.06.06,0,0,1,.06,0c0,.1.25.12.35.11s.11,0,.14,0l.55-.22c.06,0,.16,0,.16-.11a.56.56,0,0,0,0-.27.31.31,0,0,0-.06-.09c0-.06-.16-.12-.19-.15s-.1,0-.12,0,0,0,0,0a.7.7,0,0,1-.16,0A1,1,0,0,0,58.77,92.24Z"/><path class="cls-157" d="M9.11,59c1.42-.1,2.2,2.94,2.09,4.14a2.75,2.75,0,0,1-2.45,2.52c-1.63.06-2-2.58-1.91-3.75a3.28,3.28,0,0,1,.65-2.08C7.61,59.69,9,58.5,9.11,59Z"/><path class="cls-158" d="M10,60.81c-.22-.4-.39-1-.9-.77a1.4,1.4,0,0,0-.47.55,1.65,1.65,0,0,0,0,1.64l.31.57c.07.12.59.06.7,0,.44-.25.25-.76.44-1S10,61.09,10,60.81Z"/><path class="cls-159" d="M9.5,61.22a1.25,1.25,0,0,0-.15-.29S9,61.06,9,61.1l-.17.11a.06.06,0,0,1,0,.06c-.09,0-.09.26-.06.36a.21.21,0,0,1,0,.15s.26.47.27.51.06.15.14.14a.48.48,0,0,0,.27,0l.09-.07s.09-.17.11-.21,0-.09,0-.11,0,0,0,0a.61.61,0,0,1,0-.16A1,1,0,0,0,9.5,61.22Z"/><path class="cls-157" d="M24,81.83c.88-1.1,3.66.39,4.47,1.28a2.77,2.77,0,0,1,.17,3.5c-1.07,1.25-3.26-.27-4.06-1.15a3.33,3.33,0,0,1-1.08-1.88C23.53,83.41,23.58,81.6,24,81.83Z"/><path class="cls-158" d="M26,82.44c-.44-.11-1-.44-1.17.14a1.42,1.42,0,0,0,.07.7,1.66,1.66,0,0,0,1.18,1.16l.62.16c.14,0,.44-.39.47-.51.12-.49-.39-.7-.46-1S26.2,82.6,26,82.44Z"/><path class="cls-159" d="M26,83.07a3.13,3.13,0,0,0-.32-.09s-.12.34-.15.4l0,.21a0,0,0,0,1,0,0c0,.1.14.25.24.29a.26.26,0,0,1,.1.1l.57.14c.06,0,.15.06.19,0a.43.43,0,0,0,.15-.24.32.32,0,0,0,0-.11s-.06-.19-.06-.22-.07-.06-.09-.09a.13.13,0,0,1,0-.06.72.72,0,0,1-.12-.1A.93.93,0,0,0,26,83.07Z"/><path class="cls-157" d="M65.86,66.44c1.31.52.71,3.61.1,4.65a2.76,2.76,0,0,1-3.3,1.21c-1.49-.65-.7-3.2-.1-4.21.3-.54.82-1.38,1.47-1.59C64.2,66.44,65.95,66,65.86,66.44Z"/><path class="cls-158" d="M65.86,68.49c0-.46.1-1.11-.49-1.08a1.34,1.34,0,0,0-.65.29A1.7,1.7,0,0,0,64,69.16c0,.2,0,.44,0,.65s.5.3.62.3c.51,0,.56-.57.85-.73S65.77,68.75,65.86,68.49Z"/><path class="cls-159" d="M65.24,68.65a1.53,1.53,0,0,0,0-.34,1.18,1.18,0,0,0-.42,0l-.21,0s0,0,0,0-.2.2-.21.3a.35.35,0,0,1,0,.14s0,.54,0,.57,0,.17.06.19a.48.48,0,0,0,.27.07l.1,0c.06,0,.16-.12.2-.14s0-.09.06-.11,0,0,.06,0a.52.52,0,0,1,0-.15A.94.94,0,0,0,65.24,68.65Z"/><path class="cls-157" d="M87.86,75.88c1.32.52.71,3.61.1,4.65a2.76,2.76,0,0,1-3.29,1.21c-1.51-.65-.71-3.2-.11-4.22.3-.54.82-1.38,1.48-1.58C86.2,75.88,87.95,75.39,87.86,75.88Z"/><path class="cls-158" d="M87.86,77.93c0-.46.11-1.12-.47-1.08a1.39,1.39,0,0,0-.66.29A1.64,1.64,0,0,0,86,78.59l0,.65c0,.15.5.31.62.3.5,0,.55-.57.83-.73S87.77,78.18,87.86,77.93Z"/><path class="cls-159" d="M87.24,78.08a1.41,1.41,0,0,0,0-.32s-.36,0-.42,0l-.2,0a0,0,0,0,1,0,0c-.11,0-.2.2-.22.31s0,.1,0,.12,0,.55,0,.59,0,.16,0,.19a.43.43,0,0,0,.27.06l.1,0c.06,0,.16-.11.2-.14s0-.09.06-.1,0,0,.06,0a1,1,0,0,1,0-.15A1,1,0,0,0,87.24,78.08Z"/><path class="cls-157" d="M5.5,47.26c-.12-1.2,2.44-2,3.46-1.89a2.36,2.36,0,0,1,2.2,2C11.25,48.77,9,49.17,8,49.12a2.89,2.89,0,0,1-1.78-.5C6.15,48.51,5.09,47.38,5.5,47.26Z"/><path class="cls-158" d="M7,46.46c-.34.2-.87.35-.62.78a1.11,1.11,0,0,0,.47.37,1.37,1.37,0,0,0,1.4,0l.47-.27c.11-.06,0-.5,0-.59-.22-.37-.65-.2-.88-.35S7.27,46.42,7,46.46Z"/><path class="cls-159" d="M7.39,46.86a2.49,2.49,0,0,0-.24.15s.12.27.15.32l.1.14s0,0,0,0,.22.07.31,0a.22.22,0,0,1,.12,0l.42-.25s.14-.06.12-.11a.51.51,0,0,0-.06-.24.28.28,0,0,0-.06-.06s-.15-.07-.17-.1-.09,0-.1,0l0,0a.42.42,0,0,1-.14,0A1,1,0,0,0,7.39,46.86Z"/><path class="cls-157" d="M24.33,15.73c-.72-1,1.1-2.93,2-3.41a2.34,2.34,0,0,1,2.91.61c.8,1.13-.92,2.62-1.79,3.09a2.77,2.77,0,0,1-1.78.49C25.53,16.47,24,16,24.33,15.73Z"/><path class="cls-158" d="M25.24,14.25c-.19.35-.57.76-.14,1a1.15,1.15,0,0,0,.6.09,1.41,1.41,0,0,0,1.21-.72c.07-.15.17-.32.26-.49s-.22-.44-.32-.49c-.37-.21-.65.16-.93.15S25.43,14.11,25.24,14.25Z"/><path class="cls-159" d="M25.76,14.41a1.24,1.24,0,0,0-.14.25s.25.17.3.2l.16.07s0,0,0,0,.22-.06.29-.12.07-.06.1-.07l.24-.44s.07-.11,0-.15a.31.31,0,0,0-.16-.17.18.18,0,0,0-.09,0s-.17,0-.21,0l-.09.06h0l-.11.09C26,14.1,25.78,14.36,25.76,14.41Z"/><path class="cls-157" d="M51.55,46.89c-.41-1.13-3-.69-3.94-.19a2.36,2.36,0,0,0-1.1,2.78c.52,1.28,2.7.66,3.57.19.47-.25,1.2-.67,1.38-1.23C51.51,48.29,52,46.82,51.55,46.89Z"/><path class="cls-158" d="M49.83,46.85c.39,0,.95-.07.91.42a1.25,1.25,0,0,1-.26.55,1.41,1.41,0,0,1-1.26.61l-.55,0c-.12,0-.25-.44-.25-.54,0-.44.51-.46.65-.7S49.61,46.91,49.83,46.85Z"/><path class="cls-159" d="M49.68,47.36s.25,0,.27,0,0,.31,0,.36l0,.17s0,0,0,0-.17.16-.26.17-.09,0-.11,0l-.49,0c-.06,0-.15,0-.16,0a.42.42,0,0,1,0-.24.25.25,0,0,1,0-.09s.1-.14.12-.16.06,0,.09,0a.1.1,0,0,0,0,0,.42.42,0,0,0,.12,0A1,1,0,0,1,49.68,47.36Z"/><path class="cls-157" d="M78.67,47.09c-.87-.82-3,.77-3.6,1.62a2.31,2.31,0,0,0,.29,3c1,.91,2.7-.62,3.26-1.44a2.8,2.8,0,0,0,.69-1.71C79.28,48.36,79,46.84,78.67,47.09Z"/><path class="cls-158" d="M77.11,47.83c.36-.15.81-.5,1,0a1.14,1.14,0,0,1,0,.61,1.41,1.41,0,0,1-.85,1.11l-.51.21c-.11,0-.41-.27-.46-.37-.16-.39.24-.62.26-.91S76.95,48,77.11,47.83Z"/><path class="cls-159" d="M77.21,48.36s.22-.11.26-.1.15.26.17.31l0,.17s0,0,0,0-.07.22-.15.27a.31.31,0,0,0-.09.1l-.46.19s-.12.06-.15,0a.41.41,0,0,1-.16-.19.33.33,0,0,1,0-.09s0-.16,0-.21.06,0,.06-.07a.06.06,0,0,0,0-.06l.1-.09A.88.88,0,0,1,77.21,48.36Z"/><path class="cls-160" d="M12.65,52.68c4.85,0,1.89,1.56,3.29,4.38.34.69,1.78,4.15,2.19,4.32,1.38.69,2.35.86,3.57,0,1-.62,2.65-3.05,3.34-3.4.06,0,.92.7.92,1.1,0,.64,0,.75.7,1,.4.11-.52,2-.64,2.13-1.62,1.62-3.35,2-5.66,2-.92,0-3.69-.75-4-1.73s-1.16-.92-1.16-2.24a8.63,8.63,0,0,0-1.56-4A15.52,15.52,0,0,1,12.65,52.68Z"/><path class="cls-161" d="M15.41,53.51c-1.62,1.58.52,2.85.52,4.41,0,2,1.56,2.13,2,3.46.75,2.3,4.32.69,5.71,0,2.19-1.1,1-4.32-.22-2.48a4.54,4.54,0,0,1-2.19,1.67,6.8,6.8,0,0,0-1.1.64c-.24.22-1.33-1.1-1.79-1.16-1.56-.29-1.26-2.94-1.72-3.92-.17-.4-.76-.57-.52-1.26C16.1,54.57,15.76,53.54,15.41,53.51Z"/><path class="cls-162" d="M26,60.69c-.86-.11-.86.29-1.44.64a11.89,11.89,0,0,0-1.21.64c-.35.35-1.91.29-1.91.92s.7.7,1.22.7a2,2,0,0,0,1.21-.41s.75-.4.81-.46c.22-.22,1.1-.29,1.32-.75A1.59,1.59,0,0,0,26,60.69Z"/><path class="cls-163" d="M14.38,53.48s-.87-.51-.87-.22c0,0,0,.46,0,.57s.4.24.4.59-.06,2.42.22,2.7a16.2,16.2,0,0,0,1.16,1.33c.86,0-.29-1.79-.46-2.14A17.35,17.35,0,0,1,14.38,53.48Z"/><path class="cls-164" d="M16.86,61.38c.29.11.17.17.29.22s.11.24.22.29a3.31,3.31,0,0,1,.87.7c0,.06.17.11.17.11s.22.12.4.12a6.42,6.42,0,0,1,1.1.11c.29,0,.35.29.35.57s-1.16.29-1.27.17a1.8,1.8,0,0,0-1.16-.52h-.34c-.06,0-.41-.29-.41-.46s0-.17,0-.29-.3-.35-.3-.4a2,2,0,0,1-.16-.64C16.57,61.1,17,61.43,16.86,61.38Z"/><path class="cls-165" d="M38.46,88.7c1.73-4.52,2.13-1.22,5.27-1.49.77-.07,4.51-.19,4.82-.5,1.15-1,1.66-1.89,1.33-3.31-.24-1.15-1.89-3.57-2-4.35,0,0,1-.61,1.35-.47.6.24.71.27,1.17-.29.25-.34,1.68,1.21,1.74,1.36.93,2.08.69,3.85-.14,6-.34.87-2,3.18-3,3.1s-1.28.75-2.52.26a8.7,8.7,0,0,0-4.27,0A15.37,15.37,0,0,1,38.46,88.7Z"/><path class="cls-166" d="M40.23,86.41c.9,2.08,2.85.55,4.31,1.1,1.83.71,2.54-.69,3.92-.59,2.43.12,2.2-3.79,2.06-5.33-.24-2.43-3.69-2.47-2.4-.67a4.48,4.48,0,0,1,.78,2.65,5.91,5.91,0,0,0,.2,1.25c.12.3-1.51.85-1.72,1.26-.83,1.35-3.2.12-4.28.2-.44,0-.81.5-1.37,0C41.47,86.15,40.38,86.1,40.23,86.41Z"/><path class="cls-167" d="M50.71,79.14c-.41.77,0,.91.07,1.57A12.58,12.58,0,0,0,51,82.08c.2.44-.41,1.87.17,2.11s.88-.4,1.07-.88a2,2,0,0,0,0-1.27s-.1-.85-.14-.92c-.14-.3.12-1.13-.22-1.51A1.57,1.57,0,0,0,50.71,79.14Z"/><path class="cls-168" d="M39.83,87.37s-.8.62-.52.72c0,0,.41.22.51.26s.36-.29.69-.16,2.24.92,2.62.75a12.81,12.81,0,0,0,1.66-.6c.3-.81-1.78-.37-2.17-.34A18.86,18.86,0,0,1,39.83,87.37Z"/><path class="cls-169" d="M48.09,87.89c.21-.22.22-.1.32-.19s.26,0,.35-.11a3.47,3.47,0,0,1,1-.56s.17-.12.17-.12.19-.16.25-.32a6.63,6.63,0,0,1,.5-1c.16-.25.4-.22.66-.12s-.14,1.18-.29,1.25a1.79,1.79,0,0,0-.9.9s-.12.32-.12.32-.42.27-.57.21-.19,0-.3,0-.42.15-.47.12a1.84,1.84,0,0,1-.66-.06C47.72,88.05,48.21,87.76,48.09,87.89Z"/><path class="cls-170" d="M31.28,82.41c-.1-.95-2.07-1.86-1.38-2.91s1.54-.8,1.54-2.28,2-2.5,2-4.73c0-3.71,0-1.74,2.13-.73.52.26.47-1.59.47-1.81,0-1.28,2,1.86,2.39,2.28.73.75,2.39.85,3.5,2A11.1,11.1,0,0,0,45,76.1c.8.32,2,1.17.8,1.92-2.7,1.81,1.59,7.49-4.19,7.49-2.72,0-4.57-3.14-7.71-3.14Z"/><path class="cls-171" d="M34,72.6c0-.49-.21-1.76.15-1.54,1,.59,2.08,2.39,2.08,0,0-1,2.33,1.64,2.54,1.86a7.76,7.76,0,0,0,2.13,1.59,4.77,4.77,0,0,1,2.28,2c.37.52,2.5.85,2.23,1.22C44.14,79.55,40.26,74.4,39,74c-.7-.21-1.76-1.27-2.93-.7C35.16,73.82,34.42,72.43,34,72.6Z"/><path class="cls-172" d="M32,77.15a15.24,15.24,0,0,0,.69-2c.11-.32.91-1,.91-1.17,0-2,1.16.64,2.07,1.17s3,.85,3.71,1.53a11.73,11.73,0,0,0,2.86,2c2,.8,2,1,2,3.24,0,2.67-.9.59-1.74-.36-1-1.12-2.34-1.12-3.66-1.54-.65-.21-1-1.06-1.54-1.33a9.36,9.36,0,0,0-2.93-.8A5.7,5.7,0,0,1,32,77.15Z"/><path class="cls-173" d="M30.44,80.61c-.47-1.16.37-.57.69-1.27.7-1.43,1.38.21,2.72.21a11.74,11.74,0,0,1,1.91.21c.42.11,1.71,1.64,2.5,2s2.39.27,3.24.8c.64.42,2.6,2.55.64,2.55-1.33,0-2.6-.91-3.66-1.54s-1.22-1.22-2.82-1.53a13.44,13.44,0,0,0-1.92-.49c-.42,0-1.91.7-2.23.37S30.81,80.56,30.44,80.61Z"/><path class="cls-174" d="M47.86,61.41c.38-.09,4.83-3.49,4.83-1.83,0,1.18-2.5,2.35-.88,3.41,2.14,1.42,3.58,5.43,7.09,5.43,4.34,0,5.09.43,7.79-2.22,1.45-1.42,2.89-2.85,2.07-5.31-.56-1.73-2.33-.19-3.89-.19-.06,0-.38-1.48,0-1.6,1.39-.43,9.92-4.32,9.92-.62,0,2.16-1.69,6.55-3.07,7.9-2.39,2.35-12.25,8.34-15.83,4.81-2-2-5.7-1.29-5.7-5C50.18,64.53,47.6,62.37,47.86,61.41Z"/><path class="cls-175" d="M66,59.1c-.06.61,2.69.19,3.2.19a14.27,14.27,0,0,1,1.63,0c.95.19.63,1.54.63,2.34,0,.31.32.37.44.5s-.7,1.73-.82,1.85c-.7.68.51.31.76.31,1.76-.31,1.95-4.45,1.44-6.05-.38-1.17-2.58-.25-3.45-.12a11.9,11.9,0,0,0-2.58.56C66.87,58.85,66.18,58.79,66,59.1Z"/><path class="cls-176" d="M50.42,62.5a4.05,4.05,0,0,0,.13-1.06c.06-.24.94-.86,1.12-1s1.19-.5.44-.5H50.74c-.32,0-1,1-1.25,1.24a2.4,2.4,0,0,0-.63,1.42c0,.25.63,1,.7,1.17.32.43.63,1.73,1.43,1.73.51,0,1,.37,1.26-.36A3.63,3.63,0,0,0,52.56,64C52.56,63.6,50.61,62.74,50.42,62.5Z"/><path class="cls-177" d="M59.27,69.47c-.81,0-3.83-.55-3.83.31s3.51,1.79,4.4,1.79c2.95,0,3-1.79,5.27-2.41,1.38-.36,2-1.79,3.15-2.34a9.77,9.77,0,0,0,1.63-2,18,18,0,0,0-2.77,1.6C64.3,68.86,62.72,69.34,59.27,69.47Z"/><path class="cls-178" d="M70.84,21.18c-.29-.14-4.8-.17-4-1.25.6-.75,2.77-.25,2.28-1.73-.62-2,.5-5.24-1.71-7-2.73-2.14-3-2.8-6-2.44-1.63.19-3.25.37-4,2.35-.52,1.38,1.37,1.27,2.35,2.06,0,0-.52,1.13-.82,1-1.08-.41-8.4-2.17-6.54-4.53a12.65,12.65,0,0,1,5.93-3.51c2.69-.31,11.91.76,12.37,4.78.26,2.27,2.94,3.67,1.06,6C71,18,71.49,20.69,70.84,21.18Z"/><path class="cls-179" d="M58.28,13.63c.36-.36-1.59-1.46-1.91-1.71a12.46,12.46,0,0,1-1-.81c-.5-.59.39-1.31.8-1.82.15-.19,0-.39,0-.54S57.42,8,57.55,8c.78-.09-.16-.45-.31-.57-1.26-.67-3.48,1.87-4,3.15-.35.93,1.49,1.43,2.11,1.79a9.58,9.58,0,0,0,1.91.92C57.6,13.35,58,13.73,58.28,13.63Z"/><path class="cls-180" d="M69.77,19.21a3.41,3.41,0,0,0-.61.6,3.27,3.27,0,0,1-1.21.07s-1-.27-.52.1l.87.69c.19.15,1.12-.14,1.41-.16a2.06,2.06,0,0,0,1.11-.6,4.49,4.49,0,0,0,.16-1.1c0-.42.49-1.41,0-1.82-.32-.25-.45-.73-1-.39a2.93,2.93,0,0,0-.78.59C69,17.43,69.78,18.95,69.77,19.21Z"/><path class="cls-181" d="M67.74,10.35c.51.4,2.13,2.25,2.57,1.71S69,9.17,68.45,8.72c-1.86-1.46-2.8-.35-4.53-1.08-1-.45-2.17.15-3.15-.06a8.36,8.36,0,0,0-2,.45,13.55,13.55,0,0,0,2.55.35A8.29,8.29,0,0,1,67.74,10.35Z"/><path class="cls-182" d="M78.47,74.14c.22-.56.52-3.05.6-3.05,3.31,0,1.13.24,2.94-1.57.45-.46,3.91,1.35,3.91.37,0-1.81,4.9-.69,2.72-4-.91-1.36.15-1.06,1-1.28,1.88-.61,5.27-8.13,2.94-10-7.6-6.08,4.29-5.41,4.29.22a25,25,0,0,1-.3,5.34C95.62,63.79,91.18,70.71,88,72.3c-2.4,1.21-5-.75-6.85,1.73C80.35,75.16,78.32,78.16,78.47,74.14Z"/><path class="cls-183" d="M13.31,75.54c2.25,4.16,3.3,1.49,6.46,3.05,2.8,1.41,10.38-4.81,11.29-7.13A23,23,0,0,0,32.3,64.3c0-.86-1.91-.86-2.2-.56-.7.71-.15,4-1,5.37C25.54,75.07,19.27,75.49,13.31,75.54Z"/><path class="cls-184" d="M32,64.27c-2.48,0-2.08.72-2.58,2.28s-1.86,1.51-1.86,3.51c0,.35-2.2,2.25-2.55,2.6-.81.8-5.62,2.86-1.81,2.86,3.35,0,6.32-3.86,6.86-6.73.2-1.11,1.66-2.45,1.66-3.21,0-.25.25-.9.15-1.2C31.71,63.9,32.35,65.2,32,64.27Z"/><path class="cls-185" d="M70.19,48.58c-1.24-1.28-1.74,1.45-3.1-1.28C65.47,44,73.57,41.52,75.91,44c1.2,1.32,3.13,2.65,3.13,4.75,0,1.87-2.6,3.3-4.12,2s-1.55-1.38-2.21.69c-.14.45-.14,2-.46,1.89-.82-.27-4.42-.86-4-2.26A17.82,17.82,0,0,1,70.19,48.58Z"/><path class="cls-186" d="M67.52,46.07c2.44-2.59,4-2.84,7.48-1.66,1.58.53,3.55,2.49,3.55,4.22a1.7,1.7,0,0,1-2.37,1.44c-1.26-.42-.77-1.37-.92-2.42s-4.16-2.25-5-1.83a11.51,11.51,0,0,1-1.8,1C68.12,46.83,67.47,46.43,67.52,46.07Z"/><path class="cls-187" d="M72.34,48.36c-.17.5-.61.79-.81,1.21a4,4,0,0,1-.29.78,4.14,4.14,0,0,0-.49,1.14c-.11.39.11.4.38.56s.34.42.56.49.17.06.32-.07.18,0,.24-.17l.21-.68c0-.06.07-.22.08-.27.07-.23.31-.4.36-.56s.29-1,.47-1l.38-.06c.11-.14.47-.33.22-.66,0-.09-.32-.55-.43-.58a3.72,3.72,0,0,0-.75-.45c-.17-.06-.1.1-.22.12S72.3,48.29,72.34,48.36Z"/><path class="cls-188" d="M59,56.34c-1.26.16.08,1.61-2,1.21-2.54-.47-.52-6.13,1.91-6.39,1.26-.12,2.83-.65,4,.25a1.9,1.9,0,0,1-.59,3.21c-1.36.34-1.44.29-.55,1.55.19.27,1.07.92.88,1.06-.51.35-2.37,2.14-3,1.3A12.65,12.65,0,0,1,59,56.34Z"/><path class="cls-189" d="M56.45,56.79c-.43-2.49.07-3.45,2.24-5,1-.67,2.92-1,3.9-.22a1.21,1.21,0,0,1-.19,2c-.77.54-1.1-.15-1.77-.51s-3,1.41-3.15,2a8.17,8.17,0,0,1-.23,1.43C57.14,56.77,56.63,57,56.45,56.79Z"/><path class="cls-190" d="M59.8,55c.21.31.19.69.34,1a2.86,2.86,0,0,1,.32.5,2.94,2.94,0,0,0,.44.76c.17.23.28.11.48,0s.38,0,.52-.11.1-.07.1-.21.08-.1,0-.21l-.3-.41-.12-.16c-.1-.14-.1-.35-.16-.45s-.41-.57-.35-.68l.13-.24c0-.12,0-.41-.28-.41a1.37,1.37,0,0,0-.51,0,2.64,2.64,0,0,0-.57.24c-.1.07,0,.1,0,.18S59.74,55,59.8,55Z"/><path class="cls-191" d="M66.14,89.83c-1.78.15,0,2.27-3,1.58-3.55-.82-.36-8.67,3.07-8.89,1.79-.09,4-.74,5.66.59,1.46,1.18.9,4.1-1,4.48s-2.05.32-.86,2.14c.26.39,1.45,1.37,1.17,1.55-.73.46-3.47,2.87-4.27,1.64A17.82,17.82,0,0,1,66.14,89.83Z"/><path class="cls-192" d="M62.51,90.3c-.46-3.53.31-4.85,3.46-6.84,1.41-.88,4.17-1.16,5.51-.07a1.7,1.7,0,0,1-.39,2.75c-1.12.71-1.54-.27-2.45-.82S64.27,87.12,64.08,88a11.51,11.51,0,0,1-.41,2C63.48,90.32,62.76,90.58,62.51,90.3Z"/><path class="cls-193" d="M67.34,88c.28.45.22,1,.42,1.39a4,4,0,0,1,.42.72,4.14,4.14,0,0,0,.57,1.1c.23.33.38.17.67.06s.54,0,.73-.12.15-.09.15-.29.12-.14,0-.29L69.92,90l-.16-.24c-.13-.2-.12-.49-.2-.64s-.55-.83-.45-1l.19-.33c0-.18,0-.58-.37-.59a1.93,1.93,0,0,0-.72,0,3.72,3.72,0,0,0-.82.3c-.15.09,0,.14-.05.25S67.25,88,67.34,88Z"/><path class="cls-194" d="M18.13,45.66c-1.32.33.24,1.71-2.05,1.56C13.35,47,15,40.73,17.49,40.14c1.32-.29,2.93-1.05,4.28-.24a2.07,2.07,0,0,1-.32,3.5c-1.41.53-1.5.49-.43,1.72.23.26,1.22.85,1,1-.5.44-2.29,2.6-3,1.76A13,13,0,0,1,18.13,45.66Z"/><path class="cls-195" d="M15.47,46.46c-.69-2.61-.24-3.69,1.9-5.57,1-.85,3-1.4,4.1-.73a1.32,1.32,0,0,1,0,2.12c-.76.66-1.17,0-1.91-.32s-3.09,1.88-3.13,2.56a8.48,8.48,0,0,1-.1,1.54C16.19,46.35,15.68,46.62,15.47,46.46Z"/><path class="cls-196" d="M18.83,44.16c.26.29.26.7.47,1a2.92,2.92,0,0,1,.36.5,3.6,3.6,0,0,0,.54.75c.21.23.32.08.5,0s.41-.06.54-.18.1-.09.08-.24.08-.12,0-.22L21,45.34l-.14-.18c-.12-.13-.14-.35-.23-.44s-.49-.57-.42-.69l.11-.27c-.06-.13,0-.44-.34-.4a1.52,1.52,0,0,0-.53.06,2.82,2.82,0,0,0-.59.33c-.1.09,0,.1,0,.19S18.77,44.16,18.83,44.16Z"/><path class="cls-197" d="M36.84,88.89c-1.36-.7-1.07,1.63-2.89-.2-2.17-2.18,3.87-6.32,6.44-4.93,1.33.75,3.24,1.3,3.79,3a2.32,2.32,0,0,1-2.86,2.72c-1.58-.6-1.63-.7-1.63,1.13,0,.4.39,1.63.09,1.63-.73,0-3.86.49-3.85-.76A14.79,14.79,0,0,1,36.84,88.89Z"/><path class="cls-198" d="M34,87.59c1.35-2.72,2.53-3.3,5.74-3.29,1.43,0,3.54,1,4,2.43.34,1-.7,1.78-1.58,1.78-1.13,0-1-.9-1.37-1.68s-4-.71-4.55-.16A9.39,9.39,0,0,1,35,87.89C34.69,88,34.05,87.89,34,87.59Z"/><path class="cls-199" d="M38.55,88.15c0,.45-.3.8-.35,1.18a3.29,3.29,0,0,1,0,.7,3.93,3.93,0,0,0-.11,1c0,.35.2.3.45.35s.4.25.6.25.15,0,.25-.15.14,0,.14-.2,0-.44,0-.59v-.25c0-.2.15-.4.15-.55s0-.83.15-.88l.3-.15c0-.15.3-.4,0-.6a1.75,1.75,0,0,0-.5-.34,5.17,5.17,0,0,0-.73-.16c-.15,0,0,.1-.15.15S38.5,88.1,38.55,88.15Z"/></g></g></svg>