<svg xmlns="http://www.w3.org/2000/svg" xmlns:xlink="http://www.w3.org/1999/xlink" viewBox="0 0 84.19 93.04"><defs><style>.cls-1{fill:url(#Degradado_sin_nombre_35);}.cls-2{fill:url(#Degradado_sin_nombre_27);}.cls-3{fill:url(#Degradado_sin_nombre_35-2);}.cls-4{fill:url(#Degradado_sin_nombre_35-3);}.cls-5{fill:url(#Degradado_sin_nombre_27-2);}.cls-6{fill:url(#Degradado_sin_nombre_35-4);}.cls-7{fill:url(#Degradado_sin_nombre_35-5);}.cls-8{fill:url(#Degradado_sin_nombre_27-3);}.cls-9{fill:url(#Degradado_sin_nombre_35-6);}.cls-10{fill:url(#Degradado_sin_nombre_35-7);}.cls-11{fill:url(#Degradado_sin_nombre_27-4);}.cls-12{fill:url(#Degradado_sin_nombre_35-8);}.cls-13{fill:url(#Degradado_sin_nombre_35-9);}.cls-14{fill:url(#Degradado_sin_nombre_27-5);}.cls-15{fill:url(#Degradado_sin_nombre_35-10);}.cls-16{fill:url(#Degradado_sin_nombre_35-11);}.cls-17{fill:url(#Degradado_sin_nombre_27-6);}.cls-18{fill:url(#Degradado_sin_nombre_35-12);}.cls-19{fill:url(#Degradado_sin_nombre_35-13);}.cls-20{fill:url(#Degradado_sin_nombre_27-7);}.cls-21{fill:url(#Degradado_sin_nombre_35-14);}.cls-22{fill:url(#Degradado_sin_nombre_35-15);}.cls-23{fill:url(#Degradado_sin_nombre_27-8);}.cls-24{fill:url(#Degradado_sin_nombre_35-16);}.cls-25{fill:url(#Degradado_sin_nombre_35-17);}.cls-26{fill:url(#Degradado_sin_nombre_27-9);}.cls-27{fill:url(#Degradado_sin_nombre_35-18);}.cls-28{fill:url(#Degradado_sin_nombre_35-19);}.cls-29{fill:url(#Degradado_sin_nombre_27-10);}.cls-30{fill:url(#Degradado_sin_nombre_35-20);}.cls-31{fill:url(#Degradado_sin_nombre_35-21);}.cls-32{fill:url(#Degradado_sin_nombre_27-11);}.cls-33{fill:url(#Degradado_sin_nombre_35-22);}.cls-34{fill:url(#Degradado_sin_nombre_35-23);}.cls-35{fill:url(#Degradado_sin_nombre_27-12);}.cls-36{fill:url(#Degradado_sin_nombre_35-24);}.cls-37{fill:url(#Degradado_sin_nombre_35-25);}.cls-38{fill:url(#Degradado_sin_nombre_27-13);}.cls-39{fill:url(#Degradado_sin_nombre_35-26);}.cls-40{fill:url(#Degradado_sin_nombre_35-27);}.cls-41{fill:url(#Degradado_sin_nombre_27-14);}.cls-42{fill:url(#Degradado_sin_nombre_35-28);}</style><linearGradient id="Degradado_sin_nombre_35" x1="2.35" y1="5.96" x2="81.85" y2="5.96" gradientUnits="userSpaceOnUse"><stop offset="0.12" stop-color="#9e9e9e"/><stop offset="0.21" stop-color="#bdbdbd"/><stop offset="0.35" stop-color="#e1e1e1"/><stop offset="0.46" stop-color="#f7f7f7"/><stop offset="0.53" stop-color="#fff"/><stop offset="0.86" stop-color="#ababab"/></linearGradient><linearGradient id="Degradado_sin_nombre_27" x1="42.1" y1="3.52" x2="42.1" gradientUnits="userSpaceOnUse"><stop offset="0" stop-color="#9e9e9e"/><stop offset="0.53" stop-color="#fff"/><stop offset="1" stop-color="#ababab"/></linearGradient><linearGradient id="Degradado_sin_nombre_35-2" x1="20.75" y1="11.64" x2="63.44" y2="11.64" xlink:href="#Degradado_sin_nombre_35"/><linearGradient id="Degradado_sin_nombre_35-3" x1="2.35" y1="12.09" x2="81.85" y2="12.09" xlink:href="#Degradado_sin_nombre_35"/><linearGradient id="Degradado_sin_nombre_27-2" x1="42.1" y1="9.65" x2="42.1" y2="6.13" xlink:href="#Degradado_sin_nombre_27"/><linearGradient id="Degradado_sin_nombre_35-4" x1="20.75" y1="17.76" x2="63.44" y2="17.76" xlink:href="#Degradado_sin_nombre_35"/><linearGradient id="Degradado_sin_nombre_35-5" x1="2.35" y1="18.21" x2="81.85" y2="18.21" xlink:href="#Degradado_sin_nombre_35"/><linearGradient id="Degradado_sin_nombre_27-3" x1="42.1" y1="15.78" x2="42.1" y2="12.25" xlink:href="#Degradado_sin_nombre_27"/><linearGradient id="Degradado_sin_nombre_35-6" x1="20.75" y1="23.89" x2="63.44" y2="23.89" xlink:href="#Degradado_sin_nombre_35"/><linearGradient id="Degradado_sin_nombre_35-7" x1="2.35" y1="24.34" x2="81.85" y2="24.34" xlink:href="#Degradado_sin_nombre_35"/><linearGradient id="Degradado_sin_nombre_27-4" x1="42.1" y1="21.9" x2="42.1" y2="18.38" xlink:href="#Degradado_sin_nombre_27"/><linearGradient id="Degradado_sin_nombre_35-8" x1="20.75" y1="30.01" x2="63.44" y2="30.01" xlink:href="#Degradado_sin_nombre_35"/><linearGradient id="Degradado_sin_nombre_35-9" x1="2.35" y1="30.47" x2="81.85" y2="30.47" xlink:href="#Degradado_sin_nombre_35"/><linearGradient id="Degradado_sin_nombre_27-5" x1="42.1" y1="28.03" x2="42.1" y2="24.5" xlink:href="#Degradado_sin_nombre_27"/><linearGradient id="Degradado_sin_nombre_35-10" x1="20.75" y1="36.14" x2="63.44" y2="36.14" xlink:href="#Degradado_sin_nombre_35"/><linearGradient id="Degradado_sin_nombre_35-11" x1="2.35" y1="36.59" x2="81.85" y2="36.59" xlink:href="#Degradado_sin_nombre_35"/><linearGradient id="Degradado_sin_nombre_27-6" x1="42.1" y1="34.15" x2="42.1" y2="30.63" xlink:href="#Degradado_sin_nombre_27"/><linearGradient id="Degradado_sin_nombre_35-12" x1="20.75" y1="42.27" x2="63.44" y2="42.27" xlink:href="#Degradado_sin_nombre_35"/><linearGradient id="Degradado_sin_nombre_35-13" x1="2.35" y1="42.72" x2="81.85" y2="42.72" xlink:href="#Degradado_sin_nombre_35"/><linearGradient id="Degradado_sin_nombre_27-7" x1="42.1" y1="40.28" x2="42.1" y2="36.76" xlink:href="#Degradado_sin_nombre_27"/><linearGradient id="Degradado_sin_nombre_35-14" x1="20.75" y1="48.39" x2="63.44" y2="48.39" xlink:href="#Degradado_sin_nombre_35"/><linearGradient id="Degradado_sin_nombre_35-15" x1="2.35" y1="48.84" x2="81.85" y2="48.84" xlink:href="#Degradado_sin_nombre_35"/><linearGradient id="Degradado_sin_nombre_27-8" x1="42.1" y1="46.41" x2="42.1" y2="42.88" xlink:href="#Degradado_sin_nombre_27"/><linearGradient id="Degradado_sin_nombre_35-16" x1="20.75" y1="54.52" x2="63.44" y2="54.52" xlink:href="#Degradado_sin_nombre_35"/><linearGradient id="Degradado_sin_nombre_35-17" x1="2.35" y1="54.97" x2="81.85" y2="54.97" xlink:href="#Degradado_sin_nombre_35"/><linearGradient id="Degradado_sin_nombre_27-9" x1="42.1" y1="52.53" x2="42.1" y2="49.01" xlink:href="#Degradado_sin_nombre_27"/><linearGradient id="Degradado_sin_nombre_35-18" x1="20.75" y1="60.64" x2="63.44" y2="60.64" xlink:href="#Degradado_sin_nombre_35"/><linearGradient id="Degradado_sin_nombre_35-19" x1="2.35" y1="61.1" x2="81.85" y2="61.1" xlink:href="#Degradado_sin_nombre_35"/><linearGradient id="Degradado_sin_nombre_27-10" x1="42.1" y1="58.66" x2="42.1" y2="55.13" xlink:href="#Degradado_sin_nombre_27"/><linearGradient id="Degradado_sin_nombre_35-20" x1="20.75" y1="66.77" x2="63.44" y2="66.77" xlink:href="#Degradado_sin_nombre_35"/><linearGradient id="Degradado_sin_nombre_35-21" x1="2.35" y1="67.22" x2="81.85" y2="67.22" xlink:href="#Degradado_sin_nombre_35"/><linearGradient id="Degradado_sin_nombre_27-11" x1="42.1" y1="64.78" x2="42.1" y2="61.26" xlink:href="#Degradado_sin_nombre_27"/><linearGradient id="Degradado_sin_nombre_35-22" x1="20.75" y1="72.9" x2="63.44" y2="72.9" xlink:href="#Degradado_sin_nombre_35"/><linearGradient id="Degradado_sin_nombre_35-23" x1="2.35" y1="73.62" x2="81.85" y2="73.62" xlink:href="#Degradado_sin_nombre_35"/><linearGradient id="Degradado_sin_nombre_27-12" x1="42.1" y1="71.19" x2="42.1" y2="67.66" xlink:href="#Degradado_sin_nombre_27"/><linearGradient id="Degradado_sin_nombre_35-24" x1="20.75" y1="79.3" x2="63.44" y2="79.3" xlink:href="#Degradado_sin_nombre_35"/><linearGradient id="Degradado_sin_nombre_35-25" x1="2.35" y1="80.02" x2="81.85" y2="80.02" xlink:href="#Degradado_sin_nombre_35"/><linearGradient id="Degradado_sin_nombre_27-13" x1="42.1" y1="77.59" x2="42.1" y2="74.06" xlink:href="#Degradado_sin_nombre_27"/><linearGradient id="Degradado_sin_nombre_35-26" x1="20.75" y1="85.7" x2="63.44" y2="85.7" xlink:href="#Degradado_sin_nombre_35"/><linearGradient id="Degradado_sin_nombre_35-27" x1="2.35" y1="86.42" x2="81.85" y2="86.42" xlink:href="#Degradado_sin_nombre_35"/><linearGradient id="Degradado_sin_nombre_27-14" x1="42.1" y1="83.99" x2="42.1" y2="80.46" xlink:href="#Degradado_sin_nombre_27"/><linearGradient id="Degradado_sin_nombre_35-28" x1="20.75" y1="92.1" x2="63.44" y2="92.1" xlink:href="#Degradado_sin_nombre_35"/></defs><title>Platos</title><g id="Capa_2" data-name="Capa 2"><g id="Layer_1" data-name="Layer 1"><path class="cls-1" d="M81.56,0H2.63A3.35,3.35,0,0,0,2.35,1.3c0,4.26,8.59,7.95,21.18,9.81v.81H60.58v-.8h.07C73.25,9.25,81.85,5.55,81.85,1.3A3.35,3.35,0,0,0,81.56,0Z"/><rect class="cls-2" width="84.19" height="3.52" rx="1.76" ry="1.76"/><rect class="cls-3" x="20.75" y="10.69" width="42.68" height="1.89"/><path class="cls-4" d="M81.56,6.14H2.63a3.35,3.35,0,0,0-.29,1.29c0,4.26,8.59,7.95,21.18,9.81V18H60.58v-.8h.07c12.6-1.86,21.19-5.55,21.19-9.81A3.35,3.35,0,0,0,81.56,6.14Z"/><rect class="cls-5" y="6.13" width="84.19" height="3.52" rx="1.76" ry="1.76"/><rect class="cls-6" x="20.75" y="16.82" width="42.68" height="1.89"/><path class="cls-7" d="M81.56,12.26H2.63a3.35,3.35,0,0,0-.29,1.29c0,4.26,8.59,7.95,21.18,9.81v.81H60.58v-.8h.07c12.6-1.86,21.19-5.55,21.19-9.81A3.35,3.35,0,0,0,81.56,12.26Z"/><rect class="cls-8" y="12.25" width="84.19" height="3.52" rx="1.76" ry="1.76"/><rect class="cls-9" x="20.75" y="22.94" width="42.68" height="1.89"/><path class="cls-10" d="M81.56,18.39H2.63a3.35,3.35,0,0,0-.29,1.29c0,4.26,8.59,7.95,21.18,9.81v.81H60.58v-.8h.07c12.6-1.86,21.19-5.55,21.19-9.81A3.35,3.35,0,0,0,81.56,18.39Z"/><rect class="cls-11" y="18.38" width="84.19" height="3.52" rx="1.76" ry="1.76"/><rect class="cls-12" x="20.75" y="29.07" width="42.68" height="1.89"/><path class="cls-13" d="M81.56,24.52H2.63a3.35,3.35,0,0,0-.29,1.29c0,4.26,8.59,7.95,21.18,9.81v.81H60.58v-.8h.07c12.6-1.86,21.19-5.55,21.19-9.81A3.35,3.35,0,0,0,81.56,24.52Z"/><rect class="cls-14" y="24.5" width="84.19" height="3.52" rx="1.76" ry="1.76"/><rect class="cls-15" x="20.75" y="35.19" width="42.68" height="1.89"/><path class="cls-16" d="M81.56,30.64H2.63a3.35,3.35,0,0,0-.29,1.29c0,4.26,8.59,7.95,21.18,9.81v.81H60.58v-.8h.07c12.6-1.86,21.19-5.55,21.19-9.81A3.35,3.35,0,0,0,81.56,30.64Z"/><rect class="cls-17" y="30.63" width="84.19" height="3.52" rx="1.76" ry="1.76"/><rect class="cls-18" x="20.75" y="41.32" width="42.68" height="1.89"/><path class="cls-19" d="M81.56,36.77H2.63a3.35,3.35,0,0,0-.29,1.29c0,4.26,8.59,7.95,21.18,9.81v.81H60.58v-.8h.07c12.6-1.86,21.19-5.55,21.19-9.81A3.35,3.35,0,0,0,81.56,36.77Z"/><rect class="cls-20" y="36.76" width="84.19" height="3.52" rx="1.76" ry="1.76"/><rect class="cls-21" x="20.75" y="47.45" width="42.68" height="1.89"/><path class="cls-22" d="M81.56,42.89H2.63a3.35,3.35,0,0,0-.29,1.29c0,4.26,8.59,7.95,21.18,9.81v.81H60.58V54h.07c12.6-1.86,21.19-5.55,21.19-9.81A3.35,3.35,0,0,0,81.56,42.89Z"/><rect class="cls-23" y="42.88" width="84.19" height="3.52" rx="1.76" ry="1.76"/><rect class="cls-24" x="20.75" y="53.57" width="42.68" height="1.89"/><path class="cls-25" d="M81.56,49H2.63a3.35,3.35,0,0,0-.29,1.29c0,4.26,8.59,7.95,21.18,9.81v.81H60.58v-.8h.07c12.6-1.86,21.19-5.55,21.19-9.81A3.35,3.35,0,0,0,81.56,49Z"/><rect class="cls-26" y="49.01" width="84.19" height="3.52" rx="1.76" ry="1.76"/><rect class="cls-27" x="20.75" y="59.7" width="42.68" height="1.89"/><path class="cls-28" d="M81.56,55.15H2.63a3.35,3.35,0,0,0-.29,1.29c0,4.26,8.59,7.95,21.18,9.81V67H60.58v-.8h.07c12.6-1.86,21.19-5.55,21.19-9.81A3.35,3.35,0,0,0,81.56,55.15Z"/><rect class="cls-29" y="55.13" width="84.19" height="3.52" rx="1.76" ry="1.76"/><rect class="cls-30" x="20.75" y="65.82" width="42.68" height="1.89"/><path class="cls-31" d="M81.56,61.27H2.63a3.35,3.35,0,0,0-.29,1.29c0,4.26,8.59,7.95,21.18,9.81v.81H60.58v-.8h.07c12.6-1.86,21.19-5.55,21.19-9.81A3.35,3.35,0,0,0,81.56,61.27Z"/><rect class="cls-32" y="61.26" width="84.19" height="3.52" rx="1.76" ry="1.76"/><rect class="cls-33" x="20.75" y="71.95" width="42.68" height="1.89"/><path class="cls-34" d="M81.56,67.67H2.63A3.35,3.35,0,0,0,2.35,69c0,4.26,8.59,7.95,21.18,9.81v.81H60.58v-.8h.07c12.6-1.86,21.19-5.55,21.19-9.81A3.35,3.35,0,0,0,81.56,67.67Z"/><rect class="cls-35" y="67.66" width="84.19" height="3.52" rx="1.76" ry="1.76"/><rect class="cls-36" x="20.75" y="78.35" width="42.68" height="1.89"/><path class="cls-37" d="M81.56,74.07H2.63a3.35,3.35,0,0,0-.29,1.29c0,4.26,8.59,7.95,21.18,9.81V86H60.58v-.8h.07c12.6-1.86,21.19-5.55,21.19-9.81A3.35,3.35,0,0,0,81.56,74.07Z"/><rect class="cls-38" y="74.06" width="84.19" height="3.52" rx="1.76" ry="1.76"/><rect class="cls-39" x="20.75" y="84.75" width="42.68" height="1.89"/><path class="cls-40" d="M81.56,80.47H2.63a3.35,3.35,0,0,0-.29,1.29c0,4.26,8.59,7.95,21.18,9.81v.81H60.58v-.8h.07c12.6-1.86,21.19-5.55,21.19-9.81A3.35,3.35,0,0,0,81.56,80.47Z"/><rect class="cls-41" y="80.46" width="84.19" height="3.52" rx="1.76" ry="1.76"/><rect class="cls-42" x="20.75" y="91.15" width="42.68" height="1.89"/></g></g></svg>