<svg xmlns="http://www.w3.org/2000/svg" viewBox="0 0 280.02 280"><defs><style>.cls-1{fill:#545454;}.cls-2{fill:#191919;}.cls-3{fill:none;}</style></defs><title>auto_asiento</title><g id="Capa_2" data-name="Capa 2"><g id="Layer_1" data-name="Layer 1"><path class="cls-1" d="M260.9,67.78l-31.79.7a3.32,3.32,0,0,1-3.32-3.32l-1.11-9.27A3.32,3.32,0,0,1,228,52.58l34,2.21a3.32,3.32,0,0,1,3.32,3.32l-1.11,6.36A3.32,3.32,0,0,1,260.9,67.78Z"/><path class="cls-1" d="M269.4,15l-3.27-.59a3.94,3.94,0,0,0-4.46,3.35l-6,36.7a2.64,2.64,0,0,0,2.25,3l5.36.76a2.64,2.64,0,0,0,3-2.25l5.4-38A2.64,2.64,0,0,0,269.4,15Z"/><path class="cls-1" d="M269.59,3.23,266,2.88a1.2,1.2,0,0,0-1.12,1.27l-1.07,8.12a1.2,1.2,0,0,0,1.11,1.28l4.65.18a1.2,1.2,0,0,0,1.12-1.27l0-8A1.2,1.2,0,0,0,269.59,3.23Z"/><circle class="cls-2" cx="260.63" cy="56.47" r="5.33"/><rect class="cls-1" x="267.17" y="11.97" width="1.46" height="4.64" transform="translate(1.68 -18.86) rotate(4.05)"/><rect class="cls-3" x="0.02" width="280" height="280"/><rect class="cls-3" width="280" height="280"/><rect class="cls-3" x="0.02" width="280" height="280"/><rect class="cls-3" x="0.02" width="280" height="280"/><rect class="cls-3" x="0.02" width="280" height="280"/><rect class="cls-3" x="0.02" width="280" height="280"/><rect class="cls-3" x="0.02" width="280" height="280"/><rect class="cls-3" x="0.02" width="280" height="280"/></g></g></svg>