<svg xmlns="http://www.w3.org/2000/svg" xmlns:xlink="http://www.w3.org/1999/xlink" viewBox="0 0 280.25 280"><defs><style>.cls-1{fill:url(#radial-gradient);}.cls-2{fill:url(#radial-gradient-2);}.cls-3{fill:url(#radial-gradient-3);}.cls-4{fill:url(#radial-gradient-4);}.cls-5{fill:#2e2e2c;}.cls-6{fill:#fff;}.cls-7{fill:url(#linear-gradient);}.cls-8{fill:none;}</style><radialGradient id="radial-gradient" cx="53.75" cy="252.93" r="27.01" gradientUnits="userSpaceOnUse"><stop offset="0.86" stop-color="#303030"/><stop offset="0.87" stop-color="#343435"/><stop offset="0.95" stop-color="#494749"/><stop offset="1" stop-color="#504e51"/></radialGradient><radialGradient id="radial-gradient-2" cx="53.75" cy="252.93" r="17.59" gradientUnits="userSpaceOnUse"><stop offset="0" stop-color="#fff"/><stop offset="0.06" stop-color="#f8f8f8"/><stop offset="0.17" stop-color="#f0f0f0"/><stop offset="0.63" stop-color="#f0f0f0"/><stop offset="0.7" stop-color="#f0f0f0"/><stop offset="0.85" stop-color="#eee"/><stop offset="0.9" stop-color="#e7e7e7"/><stop offset="0.93" stop-color="#dcdcdc"/><stop offset="0.96" stop-color="#cbcbcb"/><stop offset="0.99" stop-color="#b5b5b5"/><stop offset="1" stop-color="#a8a8a8"/></radialGradient><radialGradient id="radial-gradient-3" cx="213.77" cy="252.93" r="27.01" xlink:href="#radial-gradient"/><radialGradient id="radial-gradient-4" cx="213.77" cy="252.93" r="17.59" xlink:href="#radial-gradient-2"/><linearGradient id="linear-gradient" x1="261.77" y1="207.69" x2="279.84" y2="207.69" gradientUnits="userSpaceOnUse"><stop offset="0" stop-color="#5f5a5e"/><stop offset="0.41"/><stop offset="0.53" stop-color="#060506"/><stop offset="0.69" stop-color="#161516"/><stop offset="0.86" stop-color="#302e30"/><stop offset="1" stop-color="#4a484b"/></linearGradient></defs><title>auto_llantas</title><g id="Capa_2" data-name="Capa 2"><g id="Layer_1" data-name="Layer 1"><circle class="cls-1" cx="53.75" cy="252.94" r="27"/><path class="cls-2" d="M53.75,270.53a17.59,17.59,0,1,1,17.59-17.6A17.61,17.61,0,0,1,53.75,270.53Z"/><path d="M46.79,239.17l4.87,8.42c1.1,1.89,2.87,1.89,4,0l4.87-8.42c.13-.12-2.95-2-6.85-2S46.66,239.05,46.79,239.17Z"/><path d="M38.44,255.79l9.48-2.2c2.13-.49,2.65-2.19,1.16-3.79l-6.63-7.12c-.08-.16-2.76,2.24-3.91,6S38.29,255.88,38.44,255.79Z"/><path d="M51.9,268.64l.67-9.71c.15-2.18-1.32-3.18-3.29-2.22L40.53,261c-.18,0,1.33,3.3,4.57,5.48S51.93,268.8,51.9,268.64Z"/><path d="M68.11,259.52,59,256c-2-.78-3.43.34-3.08,2.5l1.51,9.61c0,.18,3.54-.31,6.58-2.77S68.29,259.54,68.11,259.52Z"/><path d="M64.14,241.7l-6,7.67c-1.34,1.73-.68,3.37,1.49,3.68l9.63,1.36c.16.08.74-3.48-.72-7.1S64.2,241.54,64.14,241.7Z"/><circle class="cls-3" cx="213.77" cy="252.94" r="27"/><path class="cls-4" d="M213.77,270.53a17.59,17.59,0,1,1,17.59-17.6A17.61,17.61,0,0,1,213.77,270.53Z"/><path d="M206.84,239.23l4.85,8.38c1.09,1.89,2.86,1.89,4,0l4.85-8.38c.13-.12-2.93-2-6.82-2S206.72,239.11,206.84,239.23Z"/><path d="M198.53,255.78l9.43-2.19c2.12-.49,2.64-2.18,1.16-3.78l-6.59-7.09c-.08-.16-2.75,2.23-3.89,5.94S198.38,255.86,198.53,255.78Z"/><path d="M211.93,268.56l.66-9.66c.15-2.17-1.32-3.16-3.27-2.21l-8.71,4.23c-.18,0,1.33,3.28,4.55,5.46S212,268.73,211.93,268.56Z"/><path d="M228.07,259.49,219,256c-2-.78-3.41.33-3.07,2.48l1.5,9.56c0,.18,3.53-.31,6.55-2.75S228.24,259.51,228.07,259.49Z"/><path d="M224.11,241.75l-6,7.64c-1.34,1.72-.68,3.36,1.48,3.66l9.58,1.36c.16.08.74-3.46-.72-7.07S224.18,241.59,224.11,241.75Z"/><rect class="cls-5" x="0.22" y="227.45" width="0.82" height="8.62"/><rect class="cls-6" y="228.44" width="0.22" height="6.97"/><path class="cls-7" d="M267,180.93h7.67c2.87,0,5.2,2.91,5.2,6.5v40.52c0,3.59-2.32,6.5-5.2,6.5H267c-2.87,0-5.2-2.91-5.2-6.5V187.43C261.77,183.83,264.1,180.93,267,180.93Z"/><rect class="cls-8" x="0.25" width="280" height="280"/><rect class="cls-8" x="0.23" width="280" height="280"/><rect class="cls-8" x="0.25" width="280" height="280"/><rect class="cls-8" x="0.25" width="280" height="280"/><rect class="cls-8" x="0.25" width="280" height="280"/><rect class="cls-8" x="0.25" width="280" height="280"/><rect class="cls-8" x="0.25" width="280" height="280"/><rect class="cls-8" x="0.25" width="280" height="280"/></g></g></svg>