<svg xmlns="http://www.w3.org/2000/svg" viewBox="0 0 280.02 280"><defs><style>.cls-1{fill:#fff;}.cls-2{fill:#545454;stroke:#81cffa;stroke-width:0.78px;}.cls-2,.cls-4,.cls-5{stroke-miterlimit:10;}.cls-3{fill:#2dbccd;}.cls-4{fill:#878787;stroke:#57c9ff;stroke-width:0.2px;}.cls-5{fill:#f4911e;stroke:#fff;stroke-width:0.39px;}.cls-6{fill:#81cffa;}.cls-7{fill:none;}</style></defs><title>auto_estereo_1</title><g id="Capa_2" data-name="Capa 2"><g id="Layer_1" data-name="Layer 1"><circle class="cls-1" cx="142.74" cy="33.75" r="0.01" transform="translate(-2.57 53.72) rotate(-21.13)"/><path class="cls-1" d="M142,33.75l0,0h0Z"/><path class="cls-1" d="M122.8,33.75h0l0,0Z"/><polygon class="cls-1" points="121.94 33.75 121.93 33.76 121.93 33.75 121.94 33.75 121.94 33.75"/><path class="cls-2" d="M90.12,53.11A2,2,0,0,0,92,55.24h54.58a2,2,0,0,0,1.93-2.13v-29A2,2,0,0,0,146.62,22H92a2,2,0,0,0-1.93,2.14Z"/><circle class="cls-3" cx="95.04" cy="26.59" r="3.14"/><path class="cls-3" d="M92.53,36a.58.58,0,0,0,.64.5h3.74a.58.58,0,0,0,.64-.5V31.84a.58.58,0,0,0-.64-.5H93.17a.58.58,0,0,0-.64.5Z"/><rect class="cls-4" x="92.57" y="38.31" width="5.25" height="2.97" rx="0.64" ry="0.64"/><rect class="cls-4" x="92.57" y="42.4" width="5.25" height="2.97" rx="0.64" ry="0.64"/><rect class="cls-4" x="92.57" y="46.65" width="5.25" height="2.97" rx="0.64" ry="0.64"/><rect class="cls-4" x="140.68" y="29.69" width="5.25" height="2.97" rx="0.64" ry="0.64"/><rect class="cls-4" x="140.68" y="40.34" width="5.25" height="2.97" rx="0.64" ry="0.64"/><rect class="cls-4" x="140.68" y="36.82" width="5.25" height="2.97" rx="0.64" ry="0.64"/><rect class="cls-4" x="140.68" y="33.26" width="5.25" height="2.97" rx="0.64" ry="0.64"/><rect class="cls-4" x="140.68" y="23.6" width="5.25" height="2.97" rx="0.64" ry="0.64"/><rect class="cls-4" x="140.68" y="46.65" width="5.25" height="2.97" rx="0.64" ry="0.64"/><rect class="cls-5" x="130.3" y="48.14" width="7.22" height="1.49" rx="0.64" ry="0.64"/><rect class="cls-5" x="119.41" y="48.14" width="7.22" height="1.49" rx="0.64" ry="0.64"/><rect class="cls-5" x="110.76" y="48.14" width="7.22" height="1.49" rx="0.64" ry="0.64"/><rect class="cls-5" x="100.97" y="48.14" width="7.22" height="1.49" rx="0.64" ry="0.64"/><rect class="cls-6" x="100.81" y="24.89" width="36.13" height="21.6"/><rect class="cls-7" x="0.02" width="280" height="280"/><rect class="cls-7" width="280" height="280"/><rect class="cls-7" x="0.02" width="280" height="280"/><rect class="cls-7" x="0.02" width="280" height="280"/><rect class="cls-7" x="0.02" width="280" height="280"/><rect class="cls-7" x="0.02" width="280" height="280"/><rect class="cls-7" x="0.02" width="280" height="280"/><rect class="cls-7" x="0.02" width="280" height="280"/></g></g></svg>