<svg xmlns="http://www.w3.org/2000/svg" viewBox="0 0 280.02 280"><defs><style>.cls-1{fill:#212121;}.cls-2{fill:#2fcdff;}.cls-3{fill:#c1fc9c;}.cls-4{fill:#efefef;}.cls-5{fill:#fff;}.cls-6{fill:#f93b40;}.cls-7{fill:#6d6d6d;}.cls-8{fill:#525252;}.cls-9{fill:none;}</style></defs><title>auto_velocimetro</title><g id="Capa_2" data-name="Capa 2"><g id="Layer_1" data-name="Layer 1"><circle class="cls-1" cx="50.08" cy="38.51" r="29.93"/><path class="cls-2" d="M61.75,53.54a.67.67,0,0,1-.67.68H39.22a.67.67,0,0,1-.67-.68V51a.68.68,0,0,1,.67-.68H61.08a.67.67,0,0,1,.67.68Z"/><path class="cls-3" d="M61.75,53.54h0a.65.65,0,0,1-.64.65H39.22a.65.65,0,0,1-.64-.65V51a.65.65,0,0,1,.64-.65H61.08a.65.65,0,0,1,.64.65v2.54h.05V51a.7.7,0,0,0-.7-.71H39.22a.7.7,0,0,0-.7.71v2.54a.7.7,0,0,0,.7.71H61.08a.7.7,0,0,0,.7-.71Z"/><path class="cls-4" d="M64.47,48.17a17.06,17.06,0,1,0-28.47,0Z"/><polygon points="49.29 52.32 49.08 52.15 49.29 51.25 49.38 51.16 49.66 51.37 49.53 52.13 49.29 52.32"/><polygon points="49.28 52.51 49.37 52.68 49.28 53.35 48.88 53.45 48.93 52.76 49.28 52.51"/><polygon points="49.41 51.07 49.63 50.92 50.79 50.92 50.63 51.27 49.66 51.27 49.41 51.09 49.41 51.07"/><path d="M50.89,51l-.22.36,0,.06-.18.81.18.13.22-.17.17-.8S51.09,51,50.89,51Z"/><polygon points="49.31 52.44 49.56 52.23 50.47 52.23 50.59 52.44 50.32 52.59 49.44 52.59 49.31 52.47 49.31 52.44"/><polygon points="50.65 52.51 50.84 52.72 50.65 53.67 50.41 53.88 50.26 53.53 50.37 52.74 50.65 52.51"/><path d="M48.88,53.58l.35-.14,0,.14h.93l.11.3v0H49.16A.36.36,0,0,1,48.88,53.58Z"/><polygon points="53.47 50.92 53.68 51.19 53.47 52.18 53.2 52.36 53.01 52.13 53.19 51.16 53.47 50.92"/><polygon points="53.21 52.51 53.38 52.72 53.17 53.76 52.95 53.92 52.73 53.62 52.85 52.74 53.21 52.51"/><polygon points="56.06 50.92 56.07 50.94 56.24 51.23 56.06 52.18 55.75 52.36 55.58 52.03 55.73 51.25 56.06 50.92"/><polygon points="55.77 52.55 55.96 52.79 55.73 53.79 55.51 53.92 55.28 53.58 55.48 52.73 55.74 52.55 55.77 52.55"/><polygon points="57.08 51.12 57.35 51.31 58.31 51.31 58.47 50.92 57.32 50.92 57.08 51.07 57.08 51.12"/><polygon points="57.01 51.19 57.33 51.4 57.17 52.15 56.96 52.36 56.77 52.16 57.01 51.19"/><polygon points="57.01 52.46 57.24 52.27 58.13 52.27 58.31 52.46 58.03 52.64 57.2 52.64 57.01 52.46"/><polygon points="58.36 52.55 58.52 52.75 58.31 53.72 58.09 53.92 57.89 53.56 58.05 52.78 58.36 52.55"/><polygon points="56.91 52.51 57.09 52.73 56.95 53.37 56.77 53.47 56.51 53.37 56.62 52.69 56.91 52.51"/><path d="M56.51,53.65l.38-.18v.12l.08,0,.88,0,.12.27-1.2,0S56.54,53.82,56.51,53.65Z"/><polygon points="59.54 52.46 59.79 52.27 60.7 52.27 60.88 52.51 60.61 52.64 59.75 52.64 59.54 52.46"/><polygon points="60.94 52.55 60.96 52.57 61.09 52.72 60.88 53.71 60.66 53.92 60.48 53.55 60.61 52.76 60.94 52.55"/><polygon points="59.54 52.36 59.74 52.19 59.91 51.37 59.66 51.19 59.44 51.25 59.32 52.18 59.54 52.36"/><polygon points="59.58 51.11 59.8 50.92 61.01 50.92 61.06 51.01 60.88 51.28 59.91 51.31 59.58 51.11"/><path d="M60.92,51.31l-.18.87.18.22.22-.15.22-.84s0-.32-.2-.39Z"/><path d="M59.06,53.65l.37-.18.08.09.08.06.86,0,.15.27-1.27,0A1.57,1.57,0,0,1,59.06,53.65Z"/><rect class="cls-5" x="50.3" y="11.53" width="0.31" height="1.35"/><rect class="cls-5" x="39.28" y="13.91" width="0.31" height="1.36" transform="translate(-2.51 17.58) rotate(-24.37)"/><polygon class="cls-5" points="31.01 21.64 30.81 21.88 29.79 20.99 29.99 20.76 31.01 21.64"/><polygon class="cls-5" points="61.33 15.3 61.04 15.17 61.61 13.94 61.89 14.06 61.33 15.3"/><polygon class="cls-5" points="70.08 21.94 69.87 21.7 70.9 20.81 71.1 21.05 70.08 21.94"/><rect class="cls-5" x="75.22" y="31.11" width="1.36" height="0.31" transform="translate(-5.74 22.71) rotate(-16.41)"/><rect class="cls-5" x="44.27" y="11.41" width="0.94" height="2.12" transform="translate(-1.63 9.77) rotate(-12.24)"/><rect class="cls-5" x="55.08" y="12" width="2.12" height="0.94" transform="translate(32.07 64.7) rotate(-77.78)"/><rect class="cls-5" x="65.45" y="16.73" width="2.12" height="0.94" transform="translate(12.98 60.25) rotate(-53.31)"/><polygon class="cls-5" points="73.29 26.71 72.84 25.89 74.7 24.87 75.15 25.69 73.29 26.71"/><rect class="cls-5" x="75.22" y="46.94" width="0.94" height="2.12" transform="translate(4.77 102.8) rotate(-70.07)"/><rect class="cls-5" x="33.96" y="16.1" width="0.94" height="2.12" transform="translate(-3.43 23.96) rotate(-36.67)"/><polygon class="cls-5" points="28.15 25.79 27.69 26.62 25.84 25.59 26.3 24.77 28.15 25.79"/><rect class="cls-5" x="24.03" y="46.97" width="2.27" height="1.3" transform="translate(-14.8 11.51) rotate(-20.04)"/><path class="cls-5" d="M79.77,38.84a30.3,30.3,0,0,0-.17-3.15,29.53,29.53,0,0,0-58.68-.39,30.13,30.13,0,0,0-.21,3.55,29.41,29.41,0,0,0,2,10.82h0a29.49,29.49,0,0,0,5.49,8.87h0a29.62,29.62,0,0,0,4.91,4.39H31.73a30.38,30.38,0,1,1,36.89,0H67.31A29.9,29.9,0,0,0,72,58.75,29.41,29.41,0,0,0,79.77,38.84Z"/><path class="cls-5" d="M79.6,35.68a30.3,30.3,0,0,1,.17,3.15A29.41,29.41,0,0,1,72,58.75h0l0,0,0,0a29.51,29.51,0,0,0,5.51-8.73h0l0,0,0,0h0a29.39,29.39,0,0,0,2.14-11,30.85,30.85,0,0,0-.16-3.15h.06Z"/><path class="cls-5" d="M68.63,63v0h0a30.38,30.38,0,1,0-36.89,0h0V63h0a30.43,30.43,0,1,1,36.94,0H67.23l.07-.05h1.31Z"/><path class="cls-5" d="M75.94,49.94h1.6A29.51,29.51,0,0,1,72,58.67l-.65-1.48A28,28,0,0,0,75.94,49.94Z"/><path class="cls-5" d="M76.58,25.5h0v0a29.59,29.59,0,0,0-9.34-10.79h0l0,0h0l0,0a29.3,29.3,0,0,0-9.41-4.36v0l0,0h0A29.6,29.6,0,0,1,76.58,25.5Z"/><polygon class="cls-5" points="72.03 58.67 72.05 58.7 72.04 58.74 72 58.73 71.99 58.71 72.03 58.67"/><path class="cls-5" d="M72,58.74h0a29.9,29.9,0,0,1-4.74,4.19h-.09v0l0,0h0l0,0v0A29.57,29.57,0,0,0,72,58.71v0Z"/><polygon class="cls-5" points="71.38 57.19 72.03 58.67 71.99 58.71 71.34 57.23 71.38 57.19"/><polygon class="cls-5" points="67.22 14.69 67.2 14.72 67.19 14.73 67.13 14.69 67.18 14.67 67.22 14.69"/><polygon class="cls-5" points="67.19 14.73 65.69 15.39 65.63 15.36 67.13 14.69 67.19 14.73"/><path class="cls-5" d="M67.13,14.69l-1.5.66a28,28,0,0,0-7.69-3.55l-.22-1.48A29.3,29.3,0,0,1,67.13,14.69Z"/><polygon class="cls-5" points="57.73 10.33 57.95 11.81 57.88 11.79 57.67 10.31 57.73 10.33"/><polygon class="cls-5" points="57.72 10.29 57.73 10.33 57.67 10.31 57.66 10.3 57.69 10.27 57.72 10.29"/><path class="cls-5" d="M57.69,10.26h0l0,0v0a29.66,29.66,0,0,0-14.57-.07v0l0,0h0a29.78,29.78,0,0,1,14.6.08Z"/><polygon class="cls-5" points="43.09 10.19 43.11 10.22 43.1 10.24 43.04 10.25 43.05 10.21 43.09 10.19"/><polygon class="cls-5" points="43.1 10.24 42.77 11.71 42.71 11.73 43.04 10.25 43.1 10.24"/><path class="cls-5" d="M43.09,10.18h0l0,0v0a29.28,29.28,0,0,0-9.4,4.23l0,0h0A29.36,29.36,0,0,1,43.09,10.18Z"/><path class="cls-5" d="M43,10.25l-.34,1.48a27.83,27.83,0,0,0-7.84,3.53l-1.22-.77A29.28,29.28,0,0,1,43,10.25Z"/><polygon class="cls-5" points="34.87 15.26 34.82 15.29 33.59 14.52 33.64 14.48 34.87 15.26"/><polygon class="cls-5" points="33.61 14.46 33.64 14.48 33.59 14.52 33.58 14.51 33.57 14.47 33.61 14.46"/><path class="cls-5" d="M33.58,14.51h0A29.59,29.59,0,0,0,24,25.31v0h0a29.61,29.61,0,0,1,9.57-10.82h0Z"/><path class="cls-5" d="M33.27,62.94v0l0,0H31.72v0l0,0h1.43l.07.05v-.05h-.09a29.62,29.62,0,0,1-4.91-4.39l0,0v0A29.43,29.43,0,0,0,33.27,62.94Z"/><polygon class="cls-5" points="28.81 57 28.85 57.05 28.3 58.51 28.25 58.46 28.81 57"/><path class="cls-5" d="M28.81,57l-.55,1.46a29.35,29.35,0,0,1-5.42-8.78l1.47,0A28.14,28.14,0,0,0,28.81,57Z"/><polygon class="cls-5" points="28.3 58.51 28.29 58.52 28.25 58.54 28.25 58.54 28.24 58.51 28.25 58.46 28.3 58.51"/><path class="cls-5" d="M28.25,58.46l0,0v0a29.49,29.49,0,0,1-5.49-8.87h0l0,0h0A29.35,29.35,0,0,0,28.25,58.46Z"/><path class="cls-2" d="M27.9,46.9a.8.8,0,0,1-.17-.52,1.22,1.22,0,0,1,0-.25L28,45a1.26,1.26,0,0,1,.43-.74,1.21,1.21,0,0,1,.8-.29.82.82,0,0,1,.69.3.78.78,0,0,1,.17.52A1.33,1.33,0,0,1,30,45l-.22,1.12a1.24,1.24,0,0,1-.43.74,1.22,1.22,0,0,1-.8.29A.82.82,0,0,1,27.9,46.9Zm1.16-.37a.63.63,0,0,0,.2-.37L29.48,45a.49.49,0,0,0-.06-.39.36.36,0,0,0-.32-.14.53.53,0,0,0-.37.14.64.64,0,0,0-.2.37l-.21,1.12a.49.49,0,0,0,.06.39.37.37,0,0,0,.32.14A.53.53,0,0,0,29.06,46.53Z"/><path class="cls-2" d="M28.59,35.83v0a1.13,1.13,0,0,1-.33.8,11,11,0,0,1-1.17,1h1.2l-.1.53h-2l0-.27.05-.26q1.23-1,1.5-1.22a.72.72,0,0,0,.26-.52.35.35,0,0,0-.1-.26.39.39,0,0,0-.28-.1.49.49,0,0,0-.37.16.86.86,0,0,0-.2.44h-.55A1.48,1.48,0,0,1,27,35.3a1.13,1.13,0,0,1,.79-.3.83.83,0,0,1,.61.23A.81.81,0,0,1,28.59,35.83Z"/><path class="cls-2" d="M28.8,37.91a.81.81,0,0,1-.17-.52,1.23,1.23,0,0,1,0-.24L28.87,36a1.24,1.24,0,0,1,1.23-1,.82.82,0,0,1,.69.3.8.8,0,0,1,.17.52,1.23,1.23,0,0,1,0,.24l-.21,1.12a1.23,1.23,0,0,1-.43.74,1.21,1.21,0,0,1-.8.29A.83.83,0,0,1,28.8,37.91ZM30,37.55a.66.66,0,0,0,.2-.37l.21-1.12a.5.5,0,0,0-.06-.39.36.36,0,0,0-.32-.14.53.53,0,0,0-.37.14.65.65,0,0,0-.2.37l-.21,1.12a.48.48,0,0,0,.06.39.36.36,0,0,0,.32.14A.55.55,0,0,0,30,37.55Z"/><path class="cls-2" d="M28.15,29l0-.22,0-.22,1.83-2.19h.48l-.4,2.1h.32l-.1.53H30l-.09.46H29.4l.09-.46Zm1.44-.53.23-1.21-1,1.21Z"/><path class="cls-2" d="M30.8,29.21a.8.8,0,0,1-.17-.52,1.45,1.45,0,0,1,0-.24l.22-1.13a1.23,1.23,0,0,1,.43-.74,1.21,1.21,0,0,1,.8-.29.83.83,0,0,1,.69.3.8.8,0,0,1,.17.52,1.27,1.27,0,0,1,0,.25l-.21,1.12a1.24,1.24,0,0,1-1.23,1A.82.82,0,0,1,30.8,29.21ZM32,28.84a.63.63,0,0,0,.2-.37l.21-1.12a.5.5,0,0,0-.05-.39.37.37,0,0,0-.32-.14.54.54,0,0,0-.37.14.64.64,0,0,0-.2.37l-.22,1.12a.49.49,0,0,0,.06.39.36.36,0,0,0,.32.14A.54.54,0,0,0,32,28.84Z"/><path class="cls-2" d="M36.28,19.59h.65l-.74.88-.14.16h.16a.7.7,0,0,1,.53.23.82.82,0,0,1,.2.57h0a1.25,1.25,0,0,1-.4.91,1.23,1.23,0,0,1-.9.4.85.85,0,0,1-.71-.31.83.83,0,0,1-.18-.54,1,1,0,0,1,0-.25,1.27,1.27,0,0,1,.19-.44,7.14,7.14,0,0,1,.56-.72Zm-.95,2.16a.5.5,0,0,0,.12.34.41.41,0,0,0,.31.12.56.56,0,0,0,.42-.19.6.6,0,0,0,.18-.43.47.47,0,0,0-.11-.33.42.42,0,0,0-.31-.12.55.55,0,0,0-.41.19A.6.6,0,0,0,35.33,21.75Z"/><path class="cls-2" d="M37.29,22.44a.81.81,0,0,1-.17-.52,1.13,1.13,0,0,1,0-.24l.21-1.12a1.25,1.25,0,0,1,.43-.74,1.21,1.21,0,0,1,.8-.29.83.83,0,0,1,.69.3.81.81,0,0,1,.17.52,1.25,1.25,0,0,1,0,.24l-.21,1.12a1.24,1.24,0,0,1-1.23,1A.83.83,0,0,1,37.29,22.44Zm1.16-.37a.66.66,0,0,0,.2-.37l.21-1.12a.5.5,0,0,0-.05-.39.37.37,0,0,0-.32-.14.53.53,0,0,0-.37.14.63.63,0,0,0-.2.37l-.22,1.12a.5.5,0,0,0,.06.39.37.37,0,0,0,.32.14A.53.53,0,0,0,38.45,22.07Z"/><path class="cls-2" d="M44.91,16.17l.1.08a.73.73,0,0,1,.24.57,1.06,1.06,0,0,1-.37.8,1.24,1.24,0,0,1-.86.34.84.84,0,0,1-.62-.23.83.83,0,0,1-.23-.62,1,1,0,0,1,.36-.75,1.33,1.33,0,0,1,.28-.19h0a.63.63,0,0,1-.2-.55s0-.06,0-.08A.94.94,0,0,1,44,15a1,1,0,0,1,.65-.24.69.69,0,0,1,.51.2.68.68,0,0,1,.2.5s0,.05,0,.09a.66.66,0,0,1,0,.1.85.85,0,0,1-.36.52Zm-.61.3a.56.56,0,0,0-.4.17.53.53,0,0,0-.17.39.4.4,0,0,0,.1.29.38.38,0,0,0,.29.11.55.55,0,0,0,.39-.16.53.53,0,0,0,.17-.39.42.42,0,0,0-.1-.3A.37.37,0,0,0,44.3,16.47Zm.1-.54a.38.38,0,0,0,.24-.09.34.34,0,0,0,.14-.21v-.1a.27.27,0,0,0-.07-.2.24.24,0,0,0-.19-.08.39.39,0,0,0-.24.09.36.36,0,0,0-.14.21v.1a.27.27,0,0,0,.07.2A.25.25,0,0,0,44.4,15.93Z"/><path class="cls-2" d="M45.67,17.65a.82.82,0,0,1-.17-.52,1.45,1.45,0,0,1,0-.24l.22-1.12a1.25,1.25,0,0,1,1.23-1,.79.79,0,0,1,.86.82,1.35,1.35,0,0,1,0,.24l-.22,1.12a1.23,1.23,0,0,1-.43.74,1.2,1.2,0,0,1-.8.29A.83.83,0,0,1,45.67,17.65Zm1.16-.37a.63.63,0,0,0,.2-.37l.21-1.12a.49.49,0,0,0-.06-.39.37.37,0,0,0-.32-.14.53.53,0,0,0-.37.14.65.65,0,0,0-.2.37l-.22,1.12a.5.5,0,0,0,.06.39.37.37,0,0,0,.32.14A.53.53,0,0,0,46.83,17.29Z"/><polygon class="cls-2" points="52.88 15.23 52.48 15.23 52.58 14.71 53.54 14.71 52.95 17.8 52.67 17.8 52.4 17.8 52.88 15.23"/><path class="cls-2" d="M53.64,17.56a.8.8,0,0,1-.17-.52,1.44,1.44,0,0,1,0-.24l.21-1.12a1.24,1.24,0,0,1,.43-.74,1.2,1.2,0,0,1,.8-.29.82.82,0,0,1,.69.3.77.77,0,0,1,.17.52,1.22,1.22,0,0,1,0,.24l-.21,1.12a1.25,1.25,0,0,1-.43.74,1.2,1.2,0,0,1-.8.29A.82.82,0,0,1,53.64,17.56Zm1.16-.37a.65.65,0,0,0,.2-.37l.21-1.12a.5.5,0,0,0-.06-.39.36.36,0,0,0-.32-.14.54.54,0,0,0-.37.14.65.65,0,0,0-.2.37l-.21,1.12a.5.5,0,0,0,.05.39.37.37,0,0,0,.32.14A.54.54,0,0,0,54.8,17.19Z"/><path class="cls-2" d="M56,17.56a.81.81,0,0,1-.17-.52,1.34,1.34,0,0,1,0-.24l.21-1.12a1.23,1.23,0,0,1,.43-.74,1.2,1.2,0,0,1,.8-.29.82.82,0,0,1,.69.3.8.8,0,0,1,.17.52,1.24,1.24,0,0,1,0,.24l-.21,1.12a1.22,1.22,0,0,1-.43.74,1.2,1.2,0,0,1-.8.29A.83.83,0,0,1,56,17.56Zm1.16-.37a.65.65,0,0,0,.2-.37l.21-1.12a.49.49,0,0,0-.05-.39.36.36,0,0,0-.32-.14.54.54,0,0,0-.37.14.67.67,0,0,0-.2.37l-.21,1.12a.49.49,0,0,0,.06.39.36.36,0,0,0,.32.14A.54.54,0,0,0,57.15,17.19Z"/><polygon class="cls-2" points="60.65 20.13 60.24 20.13 60.34 19.6 61.3 19.6 60.71 22.69 60.43 22.69 60.16 22.69 60.65 20.13"/><path class="cls-2" d="M63.64,20.37v0a1.14,1.14,0,0,1-.33.81,11.5,11.5,0,0,1-1.18,1h1.2l-.1.52h-2l0-.26,0-.26c.82-.64,1.32-1,1.5-1.22a.75.75,0,0,0,.26-.52.36.36,0,0,0-.11-.26.39.39,0,0,0-.28-.1.49.49,0,0,0-.37.15.87.87,0,0,0-.2.44h-.55a1.47,1.47,0,0,1,.44-.82,1.13,1.13,0,0,1,.79-.3.83.83,0,0,1,.61.23A.81.81,0,0,1,63.64,20.37Z"/><path class="cls-2" d="M63.85,22.46a.81.81,0,0,1-.17-.52,1.24,1.24,0,0,1,0-.25l.21-1.12a1.24,1.24,0,0,1,.43-.74,1.2,1.2,0,0,1,.8-.29.82.82,0,0,1,.69.3.79.79,0,0,1,.17.52,1.49,1.49,0,0,1,0,.24l-.22,1.12a1.22,1.22,0,0,1-.43.74,1.2,1.2,0,0,1-.8.29A.83.83,0,0,1,63.85,22.46ZM65,22.09a.66.66,0,0,0,.2-.37l.21-1.12a.47.47,0,0,0-.06-.39.36.36,0,0,0-.32-.14.53.53,0,0,0-.37.14.66.66,0,0,0-.2.37l-.21,1.12a.49.49,0,0,0,.05.39.36.36,0,0,0,.32.14A.54.54,0,0,0,65,22.09Z"/><polygon class="cls-2" points="67.05 27.24 66.64 27.24 66.74 26.71 67.7 26.71 67.11 29.81 66.83 29.81 66.56 29.81 67.05 27.24"/><path class="cls-2" d="M67.53,29.34l0-.22,0-.22,1.83-2.2h.48l-.4,2.1h.32l-.1.53h-.32l-.09.46h-.55l.09-.46ZM69,28.82l.23-1.2-1,1.2Z"/><path class="cls-2" d="M70.18,29.57a.8.8,0,0,1-.17-.51,1.34,1.34,0,0,1,0-.25l.21-1.12a1.25,1.25,0,0,1,.43-.74,1.2,1.2,0,0,1,.8-.29.83.83,0,0,1,.69.3.8.8,0,0,1,.17.52,1.28,1.28,0,0,1,0,.25l-.21,1.12a1.25,1.25,0,0,1-1.23,1A.82.82,0,0,1,70.18,29.57Zm1.16-.37a.64.64,0,0,0,.2-.37l.21-1.12a.48.48,0,0,0-.05-.39.36.36,0,0,0-.32-.14.54.54,0,0,0-.37.14.64.64,0,0,0-.2.37l-.22,1.12a.51.51,0,0,0,.06.39.37.37,0,0,0,.32.14A.53.53,0,0,0,71.34,29.2Z"/><polygon class="cls-2" points="69.41 35.69 69 35.69 69.11 35.16 70.06 35.16 69.47 38.26 69.19 38.26 68.92 38.26 69.41 35.69"/><path class="cls-2" d="M71.63,35.17h.65l-.75.88-.13.16h.16a.69.69,0,0,1,.53.23.81.81,0,0,1,.2.57h0A1.36,1.36,0,0,1,71,38.32a.86.86,0,0,1-.71-.31.85.85,0,0,1-.18-.54,1.18,1.18,0,0,1,.22-.69,7.5,7.5,0,0,1,.56-.72Zm-.95,2.16a.48.48,0,0,0,.12.34.4.4,0,0,0,.31.13.55.55,0,0,0,.42-.19.61.61,0,0,0,.18-.43.46.46,0,0,0-.12-.33.41.41,0,0,0-.31-.12.57.57,0,0,0-.41.19A.6.6,0,0,0,70.69,37.33Z"/><path class="cls-2" d="M72.65,38a.8.8,0,0,1-.17-.52,1.31,1.31,0,0,1,0-.24l.21-1.12a1.23,1.23,0,0,1,.43-.74,1.2,1.2,0,0,1,.8-.29.82.82,0,0,1,.69.3.79.79,0,0,1,.17.52,1.25,1.25,0,0,1,0,.24l-.21,1.12a1.26,1.26,0,0,1-.43.74,1.21,1.21,0,0,1-.8.29A.82.82,0,0,1,72.65,38Zm1.16-.37a.64.64,0,0,0,.2-.37l.22-1.12a.5.5,0,0,0-.06-.39.37.37,0,0,0-.32-.14.53.53,0,0,0-.37.14.63.63,0,0,0-.2.37l-.21,1.12a.49.49,0,0,0,.05.39.36.36,0,0,0,.32.14A.53.53,0,0,0,73.81,37.65Z"/><polygon class="cls-2" points="68.15 46.07 67.75 46.07 67.85 45.55 68.8 45.55 68.22 48.64 67.94 48.64 67.66 48.64 68.15 46.07"/><path class="cls-2" d="M70.56,46.92l.1.08a.71.71,0,0,1,.24.57,1.07,1.07,0,0,1-.37.8,1.23,1.23,0,0,1-.86.34.84.84,0,0,1-.62-.24.83.83,0,0,1-.24-.62,1,1,0,0,1,.37-.75,1.25,1.25,0,0,1,.28-.19h0a.61.61,0,0,1-.21-.47.66.66,0,0,1,0-.08s0-.06,0-.08a1,1,0,0,1,.37-.56,1,1,0,0,1,.64-.24.69.69,0,0,1,.51.2.66.66,0,0,1,.2.5.84.84,0,0,1,0,.09s0,.07,0,.1a.84.84,0,0,1-.36.52Zm-.62.3a.55.55,0,0,0-.4.17.52.52,0,0,0-.17.39.41.41,0,0,0,.1.3.38.38,0,0,0,.29.1.55.55,0,0,0,.39-.17.52.52,0,0,0,.17-.39.4.4,0,0,0-.1-.3A.36.36,0,0,0,69.95,47.22Zm.1-.54a.39.39,0,0,0,.24-.09.34.34,0,0,0,.14-.21v-.1a.28.28,0,0,0-.07-.2.27.27,0,0,0-.19-.07.38.38,0,0,0-.24.09.33.33,0,0,0-.14.21v.1a.27.27,0,0,0,.07.2A.26.26,0,0,0,70.05,46.67Z"/><path class="cls-2" d="M71.32,48.4a.8.8,0,0,1-.17-.52,1.24,1.24,0,0,1,0-.24l.21-1.12a1.24,1.24,0,0,1,.43-.74,1.22,1.22,0,0,1,.8-.29.82.82,0,0,1,.69.3.79.79,0,0,1,.17.52,1.49,1.49,0,0,1,0,.25l-.22,1.12a1.23,1.23,0,0,1-.43.74,1.2,1.2,0,0,1-.8.29A.83.83,0,0,1,71.32,48.4ZM72.48,48a.67.67,0,0,0,.2-.37l.21-1.12a.49.49,0,0,0-.05-.39.36.36,0,0,0-.32-.14.54.54,0,0,0-.37.14.63.63,0,0,0-.2.37l-.21,1.12a.5.5,0,0,0,.05.39.37.37,0,0,0,.32.14A.55.55,0,0,0,72.48,48Z"/><path class="cls-6" d="M46.37,35.53l-.46.94-.31-.15a4.35,4.35,0,0,1,.46-.93Z"/><path class="cls-7" d="M53.39,38.5a3.71,3.71,0,0,0-.45-2.56,3.83,3.83,0,0,0-.51-.66,3.64,3.64,0,0,0-.88-.68,3.69,3.69,0,0,0-2.65-.34,3.61,3.61,0,0,0-1.59.85l-.07.06a3.65,3.65,0,0,0-1.1,2.21,3.69,3.69,0,0,0,.32,2,3.62,3.62,0,0,0,.68,1,3.68,3.68,0,0,0,5.2.1l.19-.21A3.66,3.66,0,0,0,53.39,38.5ZM53,34.74a4.43,4.43,0,1,1-7.36,1.57l.31.15.46-.94-.31-.14a4.44,4.44,0,0,1,6.9-.64Z"/><circle class="cls-8" cx="49.77" cy="37.81" r="2.63" transform="translate(-12.32 45.03) rotate(-43.85)"/><path class="cls-6" d="M45.61,36.31,28.68,27.59l.14-.29,17.25,8.08A4.35,4.35,0,0,0,45.61,36.31Z"/><rect class="cls-9" x="0.02" width="280" height="280"/><rect class="cls-9" width="280" height="280"/><rect class="cls-9" x="0.02" width="280" height="280"/><rect class="cls-9" x="0.02" width="280" height="280"/><rect class="cls-9" x="0.02" width="280" height="280"/><rect class="cls-9" x="0.02" width="280" height="280"/><rect class="cls-9" x="0.02" width="280" height="280"/><rect class="cls-9" x="0.02" width="280" height="280"/></g></g></svg>