<svg xmlns="http://www.w3.org/2000/svg" xmlns:xlink="http://www.w3.org/1999/xlink" viewBox="0 0 280.02 280"><defs><style>.cls-1{isolation:isolate;}.cls-2{fill:none;}.cls-3{fill:url(#linear-gradient);}.cls-4{fill:#c9c9c9;}.cls-5{fill:url(#linear-gradient-2);}.cls-6{fill:url(#linear-gradient-3);}.cls-7{fill:#474747;}.cls-8{fill:url(#linear-gradient-4);}.cls-9{fill:url(#linear-gradient-5);}.cls-10{mix-blend-mode:multiply;fill:url(#radial-gradient);}.cls-11{mix-blend-mode:screen;fill:url(#linear-gradient-6);}</style><linearGradient id="linear-gradient" x1="80.54" y1="210.49" x2="157.76" y2="210.49" gradientUnits="userSpaceOnUse"><stop offset="0" stop-color="#0af"/><stop offset="1" stop-color="#0072d6"/></linearGradient><linearGradient id="linear-gradient-2" x1="131.66" y1="214.01" x2="131.66" y2="221.86" gradientUnits="userSpaceOnUse"><stop offset="0" stop-color="#a8a8a8"/><stop offset="0.13" stop-color="#aaa"/><stop offset="0.18" stop-color="#b1b1b1"/><stop offset="0.21" stop-color="#bdbdbd"/><stop offset="0.24" stop-color="#cecece"/><stop offset="0.26" stop-color="#e4e4e4"/><stop offset="0.27" stop-color="#e9e9e9"/><stop offset="0.54" stop-color="#f2f2f2"/><stop offset="0.7" stop-color="#dfdfdf"/><stop offset="0.75" stop-color="#c6c6c6"/><stop offset="0.85" stop-color="#9e9e9e"/><stop offset="0.93" stop-color="#868686"/><stop offset="0.98" stop-color="#7d7d7d"/></linearGradient><linearGradient id="linear-gradient-3" x1="154.99" y1="235.66" x2="154.99" y2="238.48" gradientTransform="matrix(1, 0, 0, 1, -24.34, -19.12)" gradientUnits="userSpaceOnUse"><stop offset="0" stop-color="#999"/><stop offset="0.26" stop-color="#ebebeb"/><stop offset="0.69" stop-color="#5c5c5c"/></linearGradient><linearGradient id="linear-gradient-4" x1="92.7" y1="194.46" x2="92.7" y2="199.53" gradientUnits="userSpaceOnUse"><stop offset="0" stop-color="#5f5a5e"/><stop offset="0.28"/><stop offset="0.75"/><stop offset="0.81"/></linearGradient><linearGradient id="linear-gradient-5" x1="432.08" y1="1229.94" x2="442.72" y2="1229.94" gradientTransform="matrix(1.14, -0.15, -0.11, -0.82, -265.78, 1264.77)" gradientUnits="userSpaceOnUse"><stop offset="0.21" stop-color="#004b78"/><stop offset="0.4" stop-color="#007fcc"/><stop offset="0.59" stop-color="#0080ce"/><stop offset="0.68" stop-color="#0085d6"/><stop offset="0.74" stop-color="#008de3"/><stop offset="0.8" stop-color="#0098f5"/><stop offset="0.83" stop-color="#009eff"/><stop offset="0.99" stop-color="#0081d1"/></linearGradient><radialGradient id="radial-gradient" cx="451.74" cy="-982.04" r="6.33" gradientTransform="matrix(1.14, -0.15, -0.15, -1.11, -564.27, -829.42)" gradientUnits="userSpaceOnUse"><stop offset="0" stop-color="#fff"/><stop offset="0.23" stop-color="#fbfbfb"/><stop offset="0.45" stop-color="#efefef"/><stop offset="0.67" stop-color="#dcdcdc"/><stop offset="0.89" stop-color="silver"/><stop offset="1" stop-color="#b0b0b0"/></radialGradient><linearGradient id="linear-gradient-6" x1="95.26" y1="186.53" x2="97.04" y2="191.81" gradientUnits="userSpaceOnUse"><stop offset="0" stop-color="#707070"/><stop offset="0.34" stop-color="#949494"/><stop offset="0.35" stop-color="#919191"/><stop offset="0.51" stop-color="#5d5d5d"/><stop offset="0.66" stop-color="#353535"/><stop offset="0.8" stop-color="#181818"/><stop offset="0.91" stop-color="#060606"/><stop offset="1"/></linearGradient></defs><title>auto_puerta</title><g class="cls-1"><g id="Capa_2" data-name="Capa 2"><g id="Layer_1" data-name="Layer 1"><rect class="cls-2" x="0.02" width="280" height="280"/><rect class="cls-2" width="280" height="280"/><rect class="cls-2" x="0.02" width="280" height="280"/><rect class="cls-2" x="0.02" width="280" height="280"/><rect class="cls-2" x="0.02" width="280" height="280"/><rect class="cls-2" x="0.02" width="280" height="280"/><rect class="cls-2" x="0.02" width="280" height="280"/><rect class="cls-2" x="0.02" width="280" height="280"/><path class="cls-3" d="M84.24,198.44c2.94-7.18,32-29.37,35.57-31s34.59-2.94,36.54-2.61,1.31.33,1.31.33-7.18,52.21-8.65,60.36-3.75,30-3.75,30-60.49,1.38-60.75.12-1.57-11-3.36-19.21,1-25,1.14-29A35.5,35.5,0,0,1,84.24,198.44Z"/><path class="cls-4" d="M131.66,221.42c-3.39,0-6-1.61-6-3.66s2.65-3.66,6-3.66,6,1.61,6,3.66S135.05,221.42,131.66,221.42Zm0-6.25c-2.69,0-5,1.18-5,2.59s2.28,2.59,5,2.59,5-1.18,5-2.59S134.35,215.17,131.66,215.17Z"/><ellipse class="cls-5" cx="131.66" cy="217.76" rx="5.5" ry="3.12"/><path class="cls-6" d="M139.36,217.73a1.1,1.1,0,0,1-1.09,1.11l-13.72,0a1.1,1.1,0,0,1-1.1-1.1h0a1.1,1.1,0,0,1,1.09-1.12L138.3,216c.61,0,1.62.39,1.07,1.71Z"/><polygon class="cls-7" points="123.28 168.79 106.26 184.43 152.23 180.88 153.95 168.79 123.28 168.79"/><polygon points="90.18 199.19 149.62 199.19 152.23 180.88 106.26 184.43 90.18 199.19"/><polygon class="cls-8" points="92.7 194.46 89.69 197.7 91.59 199.53 95.71 198.18 92.7 194.46"/><path class="cls-9" d="M103.89,196.46l-1.29-9.54c-.23-1.71-2.32-2.63-4.55-1.81-4.79,1.76-6.63,11.78-6.4,12.23,1.27,2.46,4.51,2.29,8.31,2.28C102.37,199.6,104.13,198.17,103.89,196.46Z"/><path class="cls-10" d="M103.89,196.46l-1.29-9.54c-.23-1.71-2.32-2.63-4.55-1.81-4.79,1.76-6.63,11.78-6.4,12.23,1.27,2.46,4.51,2.29,8.31,2.28C102.37,199.6,104.13,198.17,103.89,196.46Z"/><path class="cls-11" d="M103.89,196.46l-1.29-9.54c-.23-1.71-2.32-2.63-4.55-1.81-4.79,1.76-6.63,11.78-6.4,12.23,1.27,2.46,4.51,2.29,8.31,2.28C102.37,199.6,104.13,198.17,103.89,196.46Z"/></g></g></g></svg>