<svg xmlns="http://www.w3.org/2000/svg" viewBox="0 0 280.02 280"><defs><style>.cls-1{fill:#525252;}.cls-2{fill:#454545;}.cls-3{fill:#636363;}.cls-4{fill:none;}</style></defs><title>auto_volante</title><g id="Capa_2" data-name="Capa 2"><g id="Layer_1" data-name="Layer 1"><circle class="cls-1" cx="184.16" cy="38.31" r="30.27"/><circle class="cls-2" cx="184.16" cy="38.31" r="26.24"/><path d="M158.54,43.22c.06-.12.1-.24.16-.35a3.89,3.89,0,0,1,.6-.87,2.88,2.88,0,0,1,3.49-.46l.33.16A12.52,12.52,0,0,1,167.87,47a12.28,12.28,0,0,1,1.61,7.08,4.35,4.35,0,0,1-3.59,2.43s-.21.09-.75-.18a26.16,26.16,0,0,1-6.67-12.78A.85.85,0,0,1,158.54,43.22Z"/><path d="M205.54,41.71l.33-.16a2.88,2.88,0,0,1,3.49.46,3.88,3.88,0,0,1,.6.87l0,0a26.15,26.15,0,0,1-7,13.62.49.49,0,0,1-.23,0,4.35,4.35,0,0,1-3.59-2.43A12.29,12.29,0,0,1,200.8,47,12.52,12.52,0,0,1,205.54,41.71Z"/><path d="M159.23,30.16c.06-1.69,1.53-3.89,2.28-5.16a26.24,26.24,0,0,1,47,3.79,8.41,8.41,0,0,1,.95,3.42,2.85,2.85,0,0,1-.7,2.51c-1.11,1-3.24.58-5.51-.86-.59-.27-1.16-.64-1.78-1a32,32,0,0,0-5.16-2.17,41.09,41.09,0,0,0-23.65-.26,33.18,33.18,0,0,0-4.91,1.88c-.88.42-1.81,1.08-2.78,1.49-2.22,1.36-4.31,1.71-5.43.7C158.65,33.67,158.59,32,159.23,30.16Z"/><path class="cls-3" d="M164.75,34a38.66,38.66,0,0,1,38.94,0,21.47,21.47,0,0,1,2,6.81c0,.28-.07.55-.11.82a12.57,12.57,0,0,0-4.71,5.3,12.58,12.58,0,0,0-1.64,6.89,21.69,21.69,0,0,1-4.47,3.32,34.6,34.6,0,0,0-21,0,21.68,21.68,0,0,1-4.18-3,12.18,12.18,0,0,0-1.6-7.16c-1.41-2.72-3.35-4.73-5.07-5.47,0-.22-.06-.43-.09-.65A21.53,21.53,0,0,1,164.75,34Z"/><rect class="cls-4" x="0.02" width="280" height="280"/><rect class="cls-4" width="280" height="280"/><rect class="cls-4" x="0.02" width="280" height="280"/><rect class="cls-4" x="0.02" width="280" height="280"/><rect class="cls-4" x="0.02" width="280" height="280"/><rect class="cls-4" x="0.02" width="280" height="280"/><rect class="cls-4" x="0.02" width="280" height="280"/><rect class="cls-4" x="0.02" width="280" height="280"/></g></g></svg>