<svg xmlns="http://www.w3.org/2000/svg" viewBox="0 0 280.02 280"><defs><style>.cls-1{fill:#303030;}.cls-2{fill:#4f4f4f;}.cls-3{fill:#474747;}.cls-4{fill:none;}</style></defs><title>auto_parabrisas</title><g id="Capa_2" data-name="Capa 2"><g id="Layer_1" data-name="Layer 1"><path class="cls-1" d="M10.37,121.16a.77.77,0,0,1-.49-.11.91.91,0,0,1,.11-.5L17.32,98.8c1.24-2.18,5-4.32,7.71-4.32H92.61a10.42,10.42,0,0,1,7.76,4.41l7.29,21.66a.83.83,0,0,1,.11.51.81.81,0,0,1-.49.11Z"/><path class="cls-2" d="M14.93,121.22l-.12-1.69c1.21-.08,29.66-2,42,0l-.27,1.67C44.4,119.26,15.23,121.2,14.93,121.22Z"/><rect class="cls-2" x="43.35" y="118.78" width="13.67" height="2.38"/><path class="cls-2" d="M59.15,121.22,59,119.53c1.13-.08,27.88-2,40.25,0L99,121.21C86.84,119.26,59.43,121.2,59.15,121.22Z"/><rect class="cls-2" x="85.79" y="118.78" width="13.67" height="2.38"/><path class="cls-3" d="M92.61,96.26H25A8.8,8.8,0,0,0,19,99.55l-1.56,4.63,81-5A9,9,0,0,0,92.61,96.26Z"/><path d="M98.41,99.22l-81,5-5.13,15.19h93.12L98.73,99.63A4.28,4.28,0,0,0,98.41,99.22Z"/><rect class="cls-4" x="0.02" width="280" height="280"/><rect class="cls-4" width="280" height="280"/><rect class="cls-4" x="0.02" width="280" height="280"/><rect class="cls-4" x="0.02" width="280" height="280"/><rect class="cls-4" x="0.02" width="280" height="280"/><rect class="cls-4" x="0.02" width="280" height="280"/><rect class="cls-4" x="0.02" width="280" height="280"/><rect class="cls-4" x="0.02" width="280" height="280"/></g></g></svg>