<svg xmlns="http://www.w3.org/2000/svg" xmlns:xlink="http://www.w3.org/1999/xlink" viewBox="0 0 363.63 357.6"><defs><style>.cls-1{fill:#8cad44;}.cls-2{isolation:isolate;}.cls-3{clip-path:url(#clip-path);}.cls-4{fill:#99e9ff;}.cls-5{fill:#c0a37e;}.cls-6{fill:#9d7e5a;}.cls-7{opacity:0.35;mix-blend-mode:multiply;}.cls-8,.cls-9{fill:none;stroke:#5e4b33;stroke-miterlimit:10;}.cls-8{stroke-width:0.4px;}.cls-9{stroke-width:0.39px;}.cls-10{fill:#dabd94;}.cls-11{fill:#c6a67e;}.cls-12{fill:#484147;}.cls-13{fill:#6d8739;}.cls-14{fill:#231f20;}.cls-15{fill:#8eb140;}.cls-16{fill:#9fbec9;}.cls-17{fill:#f9c745;}.cls-18{fill:#faf6e6;}.cls-19{fill:#bd5e4b;}.cls-20{fill:#00a7a1;}.cls-21{fill:#216f74;}.cls-22{fill:#0a7171;}.cls-23{fill:#787087;}.cls-24{fill:#688432;}.cls-25{fill:#fff;}.cls-26{fill:#f60;}</style><clipPath id="clip-path"><circle class="cls-1" cx="184.1" cy="178.74" r="173"/></clipPath></defs><title>Boton_Casa_on</title><g class="cls-2"><g id="Capa_2" data-name="Capa 2"><g id="Layer_1" data-name="Layer 1"><circle class="cls-1" cx="184.1" cy="178.74" r="173"/><g class="cls-3"><rect class="cls-4" width="363.63" height="254.84"/><rect class="cls-5" x="53.64" y="181.24" width="95.2" height="69.7"/><rect class="cls-6" x="53.64" y="181.24" width="95.2" height="9.25"/><g class="cls-7"><rect class="cls-8" x="53.98" y="181.84" width="11.92" height="4.6"/><rect class="cls-8" x="66.62" y="181.84" width="11.92" height="4.6"/><rect class="cls-8" x="79.26" y="181.84" width="11.92" height="4.6"/><rect class="cls-8" x="91.9" y="181.84" width="11.92" height="4.6"/><rect class="cls-8" x="104.54" y="181.84" width="11.92" height="4.6"/><rect class="cls-8" x="117.17" y="181.84" width="11.92" height="4.6"/><rect class="cls-8" x="129.81" y="181.84" width="11.92" height="4.6"/><polyline class="cls-8" points="148.29 186.44 142.45 186.44 142.45 181.84 148.35 181.84"/><polyline class="cls-9" points="54.22 187.05 59.87 187.05 59.87 191.65 54.16 191.65"/><polyline class="cls-9" points="54.22 197.65 59.87 197.65 59.87 202.25 54.16 202.25"/><polyline class="cls-9" points="54.22 208.27 59.87 208.27 59.87 212.87 54.16 212.87"/><polyline class="cls-9" points="54.22 218.88 59.87 218.88 59.87 223.48 54.16 223.48"/><polyline class="cls-9" points="54.22 229.5 59.87 229.5 59.87 234.09 54.16 234.09"/><polyline class="cls-9" points="54.22 240.16 59.87 240.16 59.87 244.76 54.16 244.76"/><rect class="cls-8" x="60.55" y="187.05" width="11.92" height="4.6"/><rect class="cls-8" x="73.19" y="187.05" width="11.92" height="4.6"/><rect class="cls-8" x="85.83" y="187.05" width="11.92" height="4.6"/><rect class="cls-8" x="98.47" y="187.05" width="11.92" height="4.6"/><rect class="cls-8" x="111.1" y="187.05" width="11.92" height="4.6"/><rect class="cls-8" x="123.74" y="187.05" width="11.92" height="4.6"/><rect class="cls-8" x="136.38" y="187.05" width="11.92" height="4.6"/><rect class="cls-8" x="53.98" y="192.45" width="11.92" height="4.6"/><rect class="cls-8" x="66.62" y="192.45" width="11.92" height="4.6"/><rect class="cls-8" x="79.26" y="192.45" width="11.92" height="4.6"/><rect class="cls-8" x="91.9" y="192.45" width="11.92" height="4.6"/><rect class="cls-8" x="104.54" y="192.45" width="11.92" height="4.6"/><rect class="cls-8" x="117.17" y="192.45" width="11.92" height="4.6"/><rect class="cls-8" x="129.81" y="192.45" width="11.92" height="4.6"/><polyline class="cls-8" points="148.29 197.05 142.45 197.05 142.45 192.45 148.35 192.45"/><rect class="cls-8" x="60.55" y="197.67" width="11.92" height="4.6"/><rect class="cls-8" x="73.19" y="197.67" width="11.92" height="4.6"/><rect class="cls-8" x="85.83" y="197.67" width="11.92" height="4.6"/><rect class="cls-8" x="98.47" y="197.67" width="11.92" height="4.6"/><rect class="cls-8" x="111.1" y="197.67" width="11.92" height="4.6"/><rect class="cls-8" x="123.74" y="197.67" width="11.92" height="4.6"/><rect class="cls-8" x="136.38" y="197.67" width="11.92" height="4.6"/><rect class="cls-8" x="53.98" y="203.07" width="11.92" height="4.6"/><rect class="cls-8" x="66.62" y="203.07" width="11.92" height="4.6"/><rect class="cls-8" x="79.26" y="203.07" width="11.92" height="4.6"/><rect class="cls-8" x="91.9" y="203.07" width="11.92" height="4.6"/><rect class="cls-8" x="104.54" y="203.07" width="11.92" height="4.6"/><rect class="cls-8" x="117.17" y="203.07" width="11.92" height="4.6"/><rect class="cls-8" x="129.81" y="203.07" width="11.92" height="4.6"/><polyline class="cls-8" points="148.29 207.67 142.45 207.67 142.45 203.07 148.35 203.07"/><rect class="cls-8" x="60.55" y="208.28" width="11.92" height="4.6"/><rect class="cls-8" x="73.19" y="208.28" width="11.92" height="4.6"/><rect class="cls-8" x="85.83" y="208.28" width="11.92" height="4.6"/><rect class="cls-8" x="98.47" y="208.28" width="11.92" height="4.6"/><rect class="cls-8" x="111.1" y="208.28" width="11.92" height="4.6"/><rect class="cls-8" x="123.74" y="208.28" width="11.92" height="4.6"/><rect class="cls-8" x="136.38" y="208.28" width="11.92" height="4.6"/><rect class="cls-8" x="53.98" y="213.68" width="11.92" height="4.6"/><rect class="cls-8" x="66.62" y="213.68" width="11.92" height="4.6"/><rect class="cls-8" x="79.26" y="213.68" width="11.92" height="4.6"/><rect class="cls-8" x="91.9" y="213.68" width="11.92" height="4.6"/><rect class="cls-8" x="104.54" y="213.68" width="11.92" height="4.6"/><rect class="cls-8" x="117.17" y="213.68" width="11.92" height="4.6"/><rect class="cls-8" x="129.81" y="213.68" width="11.92" height="4.6"/><polyline class="cls-8" points="148.29 218.28 142.45 218.28 142.45 213.68 148.35 213.68"/><rect class="cls-8" x="60.55" y="218.89" width="11.92" height="4.6"/><rect class="cls-8" x="73.19" y="218.89" width="11.92" height="4.6"/><rect class="cls-8" x="85.83" y="218.89" width="11.92" height="4.6"/><rect class="cls-8" x="98.47" y="218.89" width="11.92" height="4.6"/><rect class="cls-8" x="111.1" y="218.89" width="11.92" height="4.6"/><rect class="cls-8" x="123.74" y="218.89" width="11.92" height="4.6"/><rect class="cls-8" x="136.38" y="218.89" width="11.92" height="4.6"/><rect class="cls-8" x="53.98" y="224.3" width="11.92" height="4.6"/><rect class="cls-8" x="66.62" y="224.3" width="11.92" height="4.6"/><rect class="cls-8" x="79.26" y="224.3" width="11.92" height="4.6"/><rect class="cls-8" x="91.9" y="224.3" width="11.92" height="4.6"/><rect class="cls-8" x="104.54" y="224.3" width="11.92" height="4.6"/><rect class="cls-8" x="117.17" y="224.3" width="11.92" height="4.6"/><rect class="cls-8" x="129.81" y="224.3" width="11.92" height="4.6"/><polyline class="cls-8" points="148.29 228.9 142.45 228.9 142.45 224.3 148.35 224.3"/><rect class="cls-8" x="60.55" y="229.51" width="11.92" height="4.6"/><rect class="cls-8" x="73.19" y="229.51" width="11.92" height="4.6"/><rect class="cls-8" x="85.83" y="229.51" width="11.92" height="4.6"/><rect class="cls-8" x="98.47" y="229.51" width="11.92" height="4.6"/><rect class="cls-8" x="111.1" y="229.51" width="11.92" height="4.6"/><rect class="cls-8" x="123.74" y="229.51" width="11.92" height="4.6"/><rect class="cls-8" x="136.38" y="229.51" width="11.92" height="4.6"/><rect class="cls-8" x="53.98" y="234.91" width="11.92" height="4.6"/><rect class="cls-8" x="66.62" y="234.91" width="11.92" height="4.6"/><rect class="cls-8" x="79.26" y="234.91" width="11.92" height="4.6"/><rect class="cls-8" x="91.9" y="234.91" width="11.92" height="4.6"/><rect class="cls-8" x="104.54" y="234.91" width="11.92" height="4.6"/><rect class="cls-8" x="117.17" y="234.91" width="11.92" height="4.6"/><rect class="cls-8" x="129.81" y="234.91" width="11.92" height="4.6"/><polyline class="cls-8" points="148.29 239.51 142.45 239.51 142.45 234.91 148.35 234.91"/><rect class="cls-8" x="60.55" y="240.12" width="11.92" height="4.6"/><rect class="cls-8" x="73.19" y="240.12" width="11.92" height="4.6"/><rect class="cls-8" x="85.83" y="240.12" width="11.92" height="4.6"/><rect class="cls-8" x="98.47" y="240.12" width="11.92" height="4.6"/><rect class="cls-8" x="111.1" y="240.12" width="11.92" height="4.6"/><rect class="cls-8" x="123.74" y="240.12" width="11.92" height="4.6"/><rect class="cls-8" x="136.38" y="240.12" width="11.92" height="4.6"/><rect class="cls-8" x="53.98" y="245.52" width="11.92" height="4.6"/><rect class="cls-8" x="66.62" y="245.52" width="11.92" height="4.6"/><rect class="cls-8" x="79.26" y="245.52" width="11.92" height="4.6"/><rect class="cls-8" x="91.9" y="245.52" width="11.92" height="4.6"/><rect class="cls-8" x="104.54" y="245.52" width="11.92" height="4.6"/><rect class="cls-8" x="117.17" y="245.52" width="11.92" height="4.6"/><rect class="cls-8" x="129.81" y="245.52" width="11.92" height="4.6"/><polyline class="cls-8" points="148.29 250.12 142.45 250.12 142.45 245.52 148.35 245.52"/></g><rect class="cls-10" x="148.67" y="188.06" width="152.85" height="62.15"/><rect class="cls-10" x="148.67" y="133.27" width="152.85" height="53.98"/><rect class="cls-11" x="148.67" y="133.27" width="152.85" height="6.59"/><g class="cls-7"><rect class="cls-8" x="149.64" y="133.79" width="11.92" height="4.6"/><rect class="cls-8" x="162.28" y="133.79" width="11.92" height="4.6"/><rect class="cls-8" x="174.92" y="133.79" width="11.92" height="4.6"/><rect class="cls-8" x="187.56" y="133.79" width="11.92" height="4.6"/><rect class="cls-8" x="200.2" y="133.79" width="11.92" height="4.6"/><rect class="cls-8" x="212.84" y="133.79" width="11.92" height="4.6"/><rect class="cls-8" x="225.48" y="133.79" width="11.92" height="4.6"/><rect class="cls-8" x="238.11" y="133.79" width="11.92" height="4.6"/><rect class="cls-8" x="250.75" y="133.79" width="11.92" height="4.6"/><rect class="cls-8" x="263.39" y="133.79" width="11.92" height="4.6"/><rect class="cls-8" x="276.03" y="133.79" width="11.92" height="4.6"/><rect class="cls-8" x="288.67" y="133.79" width="11.92" height="4.6"/><rect class="cls-8" x="155.71" y="139.19" width="11.92" height="4.6"/><rect class="cls-8" x="168.35" y="139.19" width="11.92" height="4.6"/><rect class="cls-8" x="180.99" y="139.19" width="11.92" height="4.6"/><rect class="cls-8" x="193.63" y="139.19" width="11.92" height="4.6"/><rect class="cls-8" x="206.27" y="139.19" width="11.92" height="4.6"/><rect class="cls-8" x="218.91" y="139.19" width="11.92" height="4.6"/><rect class="cls-8" x="231.55" y="139.19" width="11.92" height="4.6"/><rect class="cls-8" x="244.18" y="139.19" width="11.92" height="4.6"/><rect class="cls-8" x="256.82" y="139.19" width="11.92" height="4.6"/><rect class="cls-8" x="269.46" y="139.19" width="11.92" height="4.6"/><rect class="cls-8" x="282.1" y="139.19" width="11.92" height="4.6"/><polyline class="cls-8" points="300.57 143.79 294.74 143.79 294.74 139.19 300.63 139.19"/><polyline class="cls-9" points="149.49 139.19 155.13 139.19 155.13 143.78 149.43 143.78"/><rect class="cls-8" x="149.64" y="144.4" width="11.92" height="4.6"/><rect class="cls-8" x="162.28" y="144.4" width="11.92" height="4.6"/><rect class="cls-8" x="174.92" y="144.4" width="11.92" height="4.6"/><rect class="cls-8" x="187.56" y="144.4" width="11.92" height="4.6"/><rect class="cls-8" x="200.2" y="144.4" width="11.92" height="4.6"/><rect class="cls-8" x="212.84" y="144.4" width="11.92" height="4.6"/><rect class="cls-8" x="225.48" y="144.4" width="11.92" height="4.6"/><rect class="cls-8" x="238.11" y="144.4" width="11.92" height="4.6"/><rect class="cls-8" x="250.75" y="144.4" width="11.92" height="4.6"/><rect class="cls-8" x="263.39" y="144.4" width="11.92" height="4.6"/><rect class="cls-8" x="276.03" y="144.4" width="11.92" height="4.6"/><rect class="cls-8" x="288.67" y="144.4" width="11.92" height="4.6"/><rect class="cls-8" x="155.71" y="149.8" width="11.92" height="4.6"/><rect class="cls-8" x="168.35" y="149.8" width="11.92" height="4.6"/><rect class="cls-8" x="180.99" y="149.8" width="11.92" height="4.6"/><rect class="cls-8" x="193.63" y="149.8" width="11.92" height="4.6"/><rect class="cls-8" x="206.27" y="149.8" width="11.92" height="4.6"/><rect class="cls-8" x="218.91" y="149.8" width="11.92" height="4.6"/><rect class="cls-8" x="231.55" y="149.8" width="11.92" height="4.6"/><rect class="cls-8" x="244.18" y="149.8" width="11.92" height="4.6"/><rect class="cls-8" x="256.82" y="149.8" width="11.92" height="4.6"/><rect class="cls-8" x="269.46" y="149.8" width="11.92" height="4.6"/><rect class="cls-8" x="282.1" y="149.8" width="11.92" height="4.6"/><polyline class="cls-8" points="300.57 154.4 294.74 154.4 294.74 149.8 300.63 149.8"/><polyline class="cls-9" points="149.49 149.8 155.13 149.8 155.13 154.4 149.43 154.4"/><rect class="cls-8" x="149.64" y="155.02" width="11.92" height="4.6"/><rect class="cls-8" x="162.28" y="155.02" width="11.92" height="4.6"/><rect class="cls-8" x="174.92" y="155.02" width="11.92" height="4.6"/><rect class="cls-8" x="187.56" y="155.02" width="11.92" height="4.6"/><rect class="cls-8" x="200.2" y="155.02" width="11.92" height="4.6"/><rect class="cls-8" x="212.84" y="155.02" width="11.92" height="4.6"/><rect class="cls-8" x="225.48" y="155.02" width="11.92" height="4.6"/><rect class="cls-8" x="238.11" y="155.02" width="11.92" height="4.6"/><rect class="cls-8" x="250.75" y="155.02" width="11.92" height="4.6"/><rect class="cls-8" x="263.39" y="155.02" width="11.92" height="4.6"/><rect class="cls-8" x="276.03" y="155.02" width="11.92" height="4.6"/><rect class="cls-8" x="288.67" y="155.02" width="11.92" height="4.6"/><rect class="cls-8" x="155.71" y="160.42" width="11.92" height="4.6"/><rect class="cls-8" x="168.35" y="160.42" width="11.92" height="4.6"/><rect class="cls-8" x="180.99" y="160.42" width="11.92" height="4.6"/><rect class="cls-8" x="193.63" y="160.42" width="11.92" height="4.6"/><rect class="cls-8" x="206.27" y="160.42" width="11.92" height="4.6"/><rect class="cls-8" x="218.91" y="160.42" width="11.92" height="4.6"/><rect class="cls-8" x="231.55" y="160.42" width="11.92" height="4.6"/><rect class="cls-8" x="244.18" y="160.42" width="11.92" height="4.6"/><rect class="cls-8" x="256.82" y="160.42" width="11.92" height="4.6"/><rect class="cls-8" x="269.46" y="160.42" width="11.92" height="4.6"/><rect class="cls-8" x="282.1" y="160.42" width="11.92" height="4.6"/><polyline class="cls-8" points="300.57 165.02 294.74 165.02 294.74 160.42 300.63 160.42"/><polyline class="cls-9" points="149.49 160.41 155.13 160.41 155.13 165.01 149.43 165.01"/><rect class="cls-8" x="149.64" y="165.63" width="11.92" height="4.6"/><rect class="cls-8" x="162.28" y="165.63" width="11.92" height="4.6"/><rect class="cls-8" x="174.92" y="165.63" width="11.92" height="4.6"/><rect class="cls-8" x="187.56" y="165.63" width="11.92" height="4.6"/><rect class="cls-8" x="200.2" y="165.63" width="11.92" height="4.6"/><rect class="cls-8" x="212.84" y="165.63" width="11.92" height="4.6"/><rect class="cls-8" x="225.48" y="165.63" width="11.92" height="4.6"/><rect class="cls-8" x="238.11" y="165.63" width="11.92" height="4.6"/><rect class="cls-8" x="250.75" y="165.63" width="11.92" height="4.6"/><rect class="cls-8" x="263.39" y="165.63" width="11.92" height="4.6"/><rect class="cls-8" x="276.03" y="165.63" width="11.92" height="4.6"/><rect class="cls-8" x="288.67" y="165.63" width="11.92" height="4.6"/><rect class="cls-8" x="155.71" y="171.03" width="11.92" height="4.6"/><rect class="cls-8" x="168.35" y="171.03" width="11.92" height="4.6"/><rect class="cls-8" x="180.99" y="171.03" width="11.92" height="4.6"/><rect class="cls-8" x="193.63" y="171.03" width="11.92" height="4.6"/><rect class="cls-8" x="206.27" y="171.03" width="11.92" height="4.6"/><rect class="cls-8" x="218.91" y="171.03" width="11.92" height="4.6"/><rect class="cls-8" x="231.55" y="171.03" width="11.92" height="4.6"/><rect class="cls-8" x="244.18" y="171.03" width="11.92" height="4.6"/><rect class="cls-8" x="256.82" y="171.03" width="11.92" height="4.6"/><rect class="cls-8" x="269.46" y="171.03" width="11.92" height="4.6"/><rect class="cls-8" x="282.1" y="171.03" width="11.92" height="4.6"/><polyline class="cls-8" points="300.57 175.63 294.74 175.63 294.74 171.03 300.63 171.03"/><polyline class="cls-9" points="149.49 171.03 155.13 171.03 155.13 175.63 149.43 175.63"/><rect class="cls-8" x="149.64" y="176.24" width="11.92" height="4.6"/><rect class="cls-8" x="162.28" y="176.24" width="11.92" height="4.6"/><rect class="cls-8" x="174.92" y="176.24" width="11.92" height="4.6"/><rect class="cls-8" x="187.56" y="176.24" width="11.92" height="4.6"/><rect class="cls-8" x="200.2" y="176.24" width="11.92" height="4.6"/><rect class="cls-8" x="212.84" y="176.24" width="11.92" height="4.6"/><rect class="cls-8" x="225.48" y="176.24" width="11.92" height="4.6"/><rect class="cls-8" x="238.11" y="176.24" width="11.92" height="4.6"/><rect class="cls-8" x="250.75" y="176.24" width="11.92" height="4.6"/><rect class="cls-8" x="263.39" y="176.24" width="11.92" height="4.6"/><rect class="cls-8" x="276.03" y="176.24" width="11.92" height="4.6"/><rect class="cls-8" x="288.67" y="176.24" width="11.92" height="4.6"/><rect class="cls-8" x="155.71" y="181.65" width="11.92" height="4.6"/><rect class="cls-8" x="168.35" y="181.65" width="11.92" height="4.6"/><rect class="cls-8" x="180.99" y="181.65" width="11.92" height="4.6"/><rect class="cls-8" x="193.63" y="181.65" width="11.92" height="4.6"/><rect class="cls-8" x="206.27" y="181.65" width="11.92" height="4.6"/><rect class="cls-8" x="218.91" y="181.65" width="11.92" height="4.6"/><rect class="cls-8" x="231.55" y="181.65" width="11.92" height="4.6"/><rect class="cls-8" x="244.18" y="181.65" width="11.92" height="4.6"/><rect class="cls-8" x="256.82" y="181.65" width="11.92" height="4.6"/><rect class="cls-8" x="269.46" y="181.65" width="11.92" height="4.6"/><rect class="cls-8" x="282.1" y="181.65" width="11.92" height="4.6"/><polyline class="cls-8" points="300.57 186.25 294.74 186.25 294.74 181.65 300.63 181.65"/><polyline class="cls-9" points="149.49 181.64 155.13 181.64 155.13 186.24 149.43 186.24"/><rect class="cls-8" x="149.64" y="186.86" width="11.92" height="4.6"/><rect class="cls-8" x="162.28" y="186.86" width="11.92" height="4.6"/><rect class="cls-8" x="174.92" y="186.86" width="11.92" height="4.6"/><rect class="cls-8" x="187.56" y="186.86" width="11.92" height="4.6"/><rect class="cls-8" x="200.2" y="186.86" width="11.92" height="4.6"/><rect class="cls-8" x="212.84" y="186.86" width="11.92" height="4.6"/><rect class="cls-8" x="225.48" y="186.86" width="11.92" height="4.6"/><rect class="cls-8" x="238.11" y="186.86" width="11.92" height="4.6"/><rect class="cls-8" x="250.75" y="186.86" width="11.92" height="4.6"/><rect class="cls-8" x="263.39" y="186.86" width="11.92" height="4.6"/><rect class="cls-8" x="276.03" y="186.86" width="11.92" height="4.6"/><rect class="cls-8" x="288.67" y="186.86" width="11.92" height="4.6"/><rect class="cls-8" x="155.71" y="192.26" width="11.92" height="4.6"/><rect class="cls-8" x="168.35" y="192.26" width="11.92" height="4.6"/><rect class="cls-8" x="180.99" y="192.26" width="11.92" height="4.6"/><rect class="cls-8" x="193.63" y="192.26" width="11.92" height="4.6"/><rect class="cls-8" x="206.27" y="192.26" width="11.92" height="4.6"/><rect class="cls-8" x="218.91" y="192.26" width="11.92" height="4.6"/><rect class="cls-8" x="231.55" y="192.26" width="11.92" height="4.6"/><rect class="cls-8" x="244.18" y="192.26" width="11.92" height="4.6"/><rect class="cls-8" x="256.82" y="192.26" width="11.92" height="4.6"/><rect class="cls-8" x="269.46" y="192.26" width="11.92" height="4.6"/><rect class="cls-8" x="282.1" y="192.26" width="11.92" height="4.6"/><polyline class="cls-8" points="300.57 196.86 294.74 196.86 294.74 192.26 300.63 192.26"/><polyline class="cls-9" points="149.49 192.26 155.13 192.26 155.13 196.85 149.43 196.85"/><rect class="cls-8" x="149.64" y="197.47" width="11.92" height="4.6"/><rect class="cls-8" x="162.28" y="197.47" width="11.92" height="4.6"/><rect class="cls-8" x="174.92" y="197.47" width="11.92" height="4.6"/><rect class="cls-8" x="187.56" y="197.47" width="11.92" height="4.6"/><rect class="cls-8" x="200.2" y="197.47" width="11.92" height="4.6"/><rect class="cls-8" x="212.84" y="197.47" width="11.92" height="4.6"/><rect class="cls-8" x="225.48" y="197.47" width="11.92" height="4.6"/><rect class="cls-8" x="238.11" y="197.47" width="11.92" height="4.6"/><rect class="cls-8" x="250.75" y="197.47" width="11.92" height="4.6"/><rect class="cls-8" x="263.39" y="197.47" width="11.92" height="4.6"/><rect class="cls-8" x="276.03" y="197.47" width="11.92" height="4.6"/><rect class="cls-8" x="288.67" y="197.47" width="11.92" height="4.6"/><rect class="cls-8" x="155.71" y="202.87" width="11.92" height="4.6"/><rect class="cls-8" x="168.35" y="202.87" width="11.92" height="4.6"/><rect class="cls-8" x="180.99" y="202.87" width="11.92" height="4.6"/><rect class="cls-8" x="193.63" y="202.87" width="11.92" height="4.6"/><rect class="cls-8" x="206.27" y="202.87" width="11.92" height="4.6"/><rect class="cls-8" x="218.91" y="202.87" width="11.92" height="4.6"/><rect class="cls-8" x="231.55" y="202.87" width="11.92" height="4.6"/><rect class="cls-8" x="244.18" y="202.87" width="11.92" height="4.6"/><rect class="cls-8" x="256.82" y="202.87" width="11.92" height="4.6"/><rect class="cls-8" x="269.46" y="202.87" width="11.92" height="4.6"/><rect class="cls-8" x="282.1" y="202.87" width="11.92" height="4.6"/><polyline class="cls-8" points="300.57 207.47 294.74 207.47 294.74 202.87 300.63 202.87"/><polyline class="cls-9" points="149.49 202.87 155.13 202.87 155.13 207.47 149.43 207.47"/><rect class="cls-8" x="149.64" y="208.09" width="11.92" height="4.6"/><rect class="cls-8" x="162.28" y="208.09" width="11.92" height="4.6"/><rect class="cls-8" x="174.92" y="208.09" width="11.92" height="4.6"/><rect class="cls-8" x="187.56" y="208.09" width="11.92" height="4.6"/><rect class="cls-8" x="200.2" y="208.09" width="11.92" height="4.6"/><rect class="cls-8" x="212.84" y="208.09" width="11.92" height="4.6"/><rect class="cls-8" x="225.48" y="208.09" width="11.92" height="4.6"/><rect class="cls-8" x="238.11" y="208.09" width="11.92" height="4.6"/><rect class="cls-8" x="250.75" y="208.09" width="11.92" height="4.6"/><rect class="cls-8" x="263.39" y="208.09" width="11.92" height="4.6"/><rect class="cls-8" x="276.03" y="208.09" width="11.92" height="4.6"/><rect class="cls-8" x="288.67" y="208.09" width="11.92" height="4.6"/><rect class="cls-8" x="155.71" y="213.49" width="11.92" height="4.6"/><rect class="cls-8" x="168.35" y="213.49" width="11.92" height="4.6"/><rect class="cls-8" x="180.99" y="213.49" width="11.92" height="4.6"/><rect class="cls-8" x="193.63" y="213.49" width="11.92" height="4.6"/><rect class="cls-8" x="206.27" y="213.49" width="11.92" height="4.6"/><rect class="cls-8" x="218.91" y="213.49" width="11.92" height="4.6"/><rect class="cls-8" x="231.55" y="213.49" width="11.92" height="4.6"/><rect class="cls-8" x="244.18" y="213.49" width="11.92" height="4.6"/><rect class="cls-8" x="256.82" y="213.49" width="11.92" height="4.6"/><rect class="cls-8" x="269.46" y="213.49" width="11.92" height="4.6"/><rect class="cls-8" x="282.1" y="213.49" width="11.92" height="4.6"/><polyline class="cls-8" points="300.57 218.09 294.74 218.09 294.74 213.49 300.63 213.49"/><polyline class="cls-9" points="149.49 213.48 155.13 213.48 155.13 218.08 149.43 218.08"/><rect class="cls-8" x="149.64" y="218.7" width="11.92" height="4.6"/><rect class="cls-8" x="162.28" y="218.7" width="11.92" height="4.6"/><rect class="cls-8" x="174.92" y="218.7" width="11.92" height="4.6"/><rect class="cls-8" x="187.56" y="218.7" width="11.92" height="4.6"/><rect class="cls-8" x="200.2" y="218.7" width="11.92" height="4.6"/><rect class="cls-8" x="212.84" y="218.7" width="11.92" height="4.6"/><rect class="cls-8" x="225.48" y="218.7" width="11.92" height="4.6"/><rect class="cls-8" x="238.11" y="218.7" width="11.92" height="4.6"/><rect class="cls-8" x="250.75" y="218.7" width="11.92" height="4.6"/><rect class="cls-8" x="263.39" y="218.7" width="11.92" height="4.6"/><rect class="cls-8" x="276.03" y="218.7" width="11.92" height="4.6"/><rect class="cls-8" x="288.67" y="218.7" width="11.92" height="4.6"/><rect class="cls-8" x="155.71" y="224.1" width="11.92" height="4.6"/><rect class="cls-8" x="168.35" y="224.1" width="11.92" height="4.6"/><rect class="cls-8" x="180.99" y="224.1" width="11.92" height="4.6"/><rect class="cls-8" x="193.63" y="224.1" width="11.92" height="4.6"/><rect class="cls-8" x="206.27" y="224.1" width="11.92" height="4.6"/><rect class="cls-8" x="218.91" y="224.1" width="11.92" height="4.6"/><rect class="cls-8" x="231.55" y="224.1" width="11.92" height="4.6"/><rect class="cls-8" x="244.18" y="224.1" width="11.92" height="4.6"/><rect class="cls-8" x="256.82" y="224.1" width="11.92" height="4.6"/><rect class="cls-8" x="269.46" y="224.1" width="11.92" height="4.6"/><rect class="cls-8" x="282.1" y="224.1" width="11.92" height="4.6"/><polyline class="cls-8" points="300.57 228.7 294.74 228.7 294.74 224.1 300.63 224.1"/><polyline class="cls-9" points="149.49 224.1 155.13 224.1 155.13 228.7 149.43 228.7"/><rect class="cls-8" x="149.64" y="229.31" width="11.92" height="4.6"/><rect class="cls-8" x="162.28" y="229.31" width="11.92" height="4.6"/><rect class="cls-8" x="174.92" y="229.31" width="11.92" height="4.6"/><rect class="cls-8" x="187.56" y="229.31" width="11.92" height="4.6"/><rect class="cls-8" x="200.2" y="229.31" width="11.92" height="4.6"/><rect class="cls-8" x="212.84" y="229.31" width="11.92" height="4.6"/><rect class="cls-8" x="225.48" y="229.31" width="11.92" height="4.6"/><rect class="cls-8" x="238.11" y="229.31" width="11.92" height="4.6"/><rect class="cls-8" x="250.75" y="229.31" width="11.92" height="4.6"/><rect class="cls-8" x="263.39" y="229.31" width="11.92" height="4.6"/><rect class="cls-8" x="276.03" y="229.31" width="11.92" height="4.6"/><rect class="cls-8" x="288.67" y="229.31" width="11.92" height="4.6"/><rect class="cls-8" x="155.71" y="234.72" width="11.92" height="4.6"/><rect class="cls-8" x="168.35" y="234.72" width="11.92" height="4.6"/><rect class="cls-8" x="180.99" y="234.72" width="11.92" height="4.6"/><rect class="cls-8" x="193.63" y="234.72" width="11.92" height="4.6"/><rect class="cls-8" x="206.27" y="234.72" width="11.92" height="4.6"/><rect class="cls-8" x="218.91" y="234.72" width="11.92" height="4.6"/><rect class="cls-8" x="231.55" y="234.72" width="11.92" height="4.6"/><rect class="cls-8" x="244.18" y="234.72" width="11.92" height="4.6"/><rect class="cls-8" x="256.82" y="234.72" width="11.92" height="4.6"/><rect class="cls-8" x="269.46" y="234.72" width="11.92" height="4.6"/><rect class="cls-8" x="282.1" y="234.72" width="11.92" height="4.6"/><polyline class="cls-8" points="300.57 239.31 294.74 239.31 294.74 234.72 300.63 234.72"/><polyline class="cls-9" points="149.49 234.71 155.13 234.71 155.13 239.31 149.43 239.31"/><rect class="cls-8" x="149.64" y="239.93" width="11.92" height="4.6"/><rect class="cls-8" x="162.28" y="239.93" width="11.92" height="4.6"/><rect class="cls-8" x="174.92" y="239.93" width="11.92" height="4.6"/><rect class="cls-8" x="187.56" y="239.93" width="11.92" height="4.6"/><rect class="cls-8" x="200.2" y="239.93" width="11.92" height="4.6"/><rect class="cls-8" x="212.84" y="239.93" width="11.92" height="4.6"/><rect class="cls-8" x="225.48" y="239.93" width="11.92" height="4.6"/><rect class="cls-8" x="238.11" y="239.93" width="11.92" height="4.6"/><rect class="cls-8" x="250.75" y="239.93" width="11.92" height="4.6"/><rect class="cls-8" x="263.39" y="239.93" width="11.92" height="4.6"/><rect class="cls-8" x="276.03" y="239.93" width="11.92" height="4.6"/><rect class="cls-8" x="288.67" y="239.93" width="11.92" height="4.6"/><rect class="cls-8" x="155.71" y="245.33" width="11.92" height="4.6"/><rect class="cls-8" x="168.35" y="245.33" width="11.92" height="4.6"/><rect class="cls-8" x="180.99" y="245.33" width="11.92" height="4.6"/><rect class="cls-8" x="193.63" y="245.33" width="11.92" height="4.6"/><rect class="cls-8" x="206.27" y="245.33" width="11.92" height="4.6"/><rect class="cls-8" x="218.91" y="245.33" width="11.92" height="4.6"/><rect class="cls-8" x="231.55" y="245.33" width="11.92" height="4.6"/><rect class="cls-8" x="244.18" y="245.33" width="11.92" height="4.6"/><rect class="cls-8" x="256.82" y="245.33" width="11.92" height="4.6"/><rect class="cls-8" x="269.46" y="245.33" width="11.92" height="4.6"/><rect class="cls-8" x="282.1" y="245.33" width="11.92" height="4.6"/><polyline class="cls-8" points="300.57 249.93 294.74 249.93 294.74 245.33 300.63 245.33"/><polyline class="cls-9" points="149.49 245.33 155.13 245.33 155.13 249.93 149.43 249.93"/></g><rect class="cls-12" x="70.43" y="237.01" width="57.71" height="13.93"/><path class="cls-13" d="M73.67,226.48a.76.76,0,0,0,.76.76l3.4.41a.76.76,0,0,0,.76-.76v-2.33a.76.76,0,0,0-.76-.76H74.64a.76.76,0,0,0-.76.76Z"/><path class="cls-13" d="M124.69,226.48a.76.76,0,0,1-.76.76l-3.4.41a.76.76,0,0,1-.76-.76v-2.33a.76.76,0,0,1,.76-.76h3.2a.76.76,0,0,1,.76.76Z"/><ellipse class="cls-12" cx="99.18" cy="245.89" rx="2.39" ry="1.34"/><path class="cls-14" d="M113.29,249.36c0,.87.39,1.58.89,1.58H117c.48,0,.87-.71.87-1.58V239.15c0-.87-.39-1.58-.87-1.58h-2.77c-.5,0-.89.7-.89,1.58Z"/><path class="cls-14" d="M80.53,249.36c0,.87.39,1.58.88,1.58h2.78c.48,0,.87-.71.87-1.58V239.15c0-.87-.39-1.58-.87-1.58H81.42c-.49,0-.88.7-.88,1.58Z"/><path class="cls-12" d="M79,245.2a.94.94,0,0,0,.95.95h38.47a.94.94,0,0,0,.95-.95h0a.94.94,0,0,0-.95-.95H79.94a.94.94,0,0,0-.95.95Z"/><polygon class="cls-15" points="77.77 245.69 120.36 245.69 123.04 240.35 120.36 227.63 112.56 216.56 99.34 216.56 85.58 216.56 77.77 227.63 75.31 240.35 77.77 245.69"/><polygon class="cls-16" points="81.25 227.4 90.75 229.46 107.62 229.46 117.1 227.4 112.22 217.87 99.41 217.87 86.51 217.87 81.25 227.4"/><polygon class="cls-13" points="75.82 237.57 80.54 239.93 88.99 240.35 99.18 240.35 109.36 240.35 117.82 239.93 122.53 237.57 123.12 240.96 120.44 245.69 99.18 245.69 77.92 245.69 75.24 240.96 75.82 237.57"/><polygon class="cls-17" points="117.4 239.3 111.07 239.5 109.29 237.43 117.4 235.65 117.4 239.3"/><polygon class="cls-17" points="80.96 239.3 87.3 239.5 89.08 237.43 80.96 235.65 80.96 239.3"/><rect class="cls-18" x="91.55" y="240.96" width="15.25" height="3.08"/><polygon class="cls-13" points="115.48 229.46 117.74 233.97 109.2 236.29 99.25 236.29 109.2 235.65 116.79 233.6 115.48 229.46"/><polygon class="cls-13" points="82.88 229.46 80.62 233.97 89.16 236.29 99.1 236.29 89.16 235.65 81.56 233.6 82.88 229.46"/><polygon class="cls-19" points="118.22 235.65 120.18 235.65 120.83 237.95 118.22 239.04 118.22 235.65"/><polygon class="cls-19" points="80.13 235.65 78.18 235.65 77.53 237.95 80.13 239.04 80.13 235.65"/><rect class="cls-12" x="96.19" y="219.27" width="5.98" height="2.06" rx="0.58" ry="0.58"/><path class="cls-12" d="M89.46,238.17a.22.22,0,0,0,.22.22h19a.22.22,0,0,0,.22-.22h0a.22.22,0,0,0-.22-.22h-19a.22.22,0,0,0-.22.22Z"/><path class="cls-12" d="M89.46,239.72a.22.22,0,0,0,.22.22h19a.22.22,0,0,0,.22-.22h0a.22.22,0,0,0-.22-.22h-19a.22.22,0,0,0-.22.22Z"/><path class="cls-12" d="M89.46,238.95a.22.22,0,0,0,.22.22h19a.22.22,0,0,0,.22-.22h0a.22.22,0,0,0-.22-.22h-19a.22.22,0,0,0-.22.22Z"/><polygon class="cls-13" points="108.44 230.48 105.62 234.55 105.18 234.55 108.44 230.48"/><polygon class="cls-13" points="89.91 230.48 92.74 234.55 93.18 234.55 89.91 230.48"/><path class="cls-19" d="M90.13,225.15A4.91,4.91,0,0,1,95,229.46h-1.2a3.73,3.73,0,0,0-3.66-3.17,3.79,3.79,0,0,0-3.47,2.28l-1.12-.24A4.91,4.91,0,0,1,90.13,225.15Z"/><rect class="cls-5" x="70.43" y="194.74" width="57.71" height="42.5"/><rect class="cls-19" x="70.43" y="200.53" width="57.71" height="1.87"/><rect class="cls-19" x="70.43" y="203.06" width="57.71" height="1.87"/><rect class="cls-19" x="70.43" y="205.59" width="57.71" height="1.87"/><rect class="cls-19" x="70.43" y="208.12" width="57.71" height="1.87"/><rect class="cls-19" x="70.43" y="210.66" width="57.71" height="1.87"/><rect class="cls-19" x="70.43" y="213.19" width="57.71" height="1.87"/><rect class="cls-19" x="70.43" y="215.72" width="57.71" height="1.87"/><rect class="cls-19" x="70.43" y="218.26" width="57.71" height="1.87"/><rect class="cls-19" x="70.43" y="220.79" width="57.71" height="1.87"/><rect class="cls-19" x="70.43" y="223.32" width="57.71" height="1.87"/><rect class="cls-19" x="70.43" y="225.85" width="57.71" height="1.87"/><rect class="cls-19" x="70.43" y="228.39" width="57.71" height="1.87"/><rect class="cls-19" x="70.43" y="230.92" width="57.71" height="1.87"/><rect class="cls-19" x="70.43" y="233.45" width="57.71" height="1.87"/><rect class="cls-19" x="70.43" y="235.99" width="57.71" height="1.87"/><rect class="cls-19" x="70.43" y="198.18" width="57.71" height="1.87"/><rect class="cls-19" x="70.43" y="195.83" width="57.71" height="1.87"/><rect class="cls-19" x="70.43" y="193.48" width="57.71" height="1.87"/><rect class="cls-20" x="142.17" y="105.17" width="165.85" height="28.1"/><path class="cls-21" d="M308,105.18h0a.71.71,0,0,0-.5.21L303,109.85l-4.18-4.19a.76.76,0,0,0-.12-.29,1.09,1.09,0,0,0-1.18,0,.71.71,0,0,0-.12.29l-4.17,4.19-4-4a.7.7,0,0,0-.2-.48,1.46,1.46,0,0,0-1.29,0,.69.69,0,0,0-.2.48l-4,4-4-4.06a.7.7,0,0,0-.17-.42.68.68,0,0,0-.63-.16.69.69,0,0,0-.63.16.72.72,0,0,0-.17.42l-4,4.06-4.17-4.19a.71.71,0,0,0-.12-.29,1.09,1.09,0,0,0-1.18,0c-.08.08-.08.19-.12.29l-4.17,4.19-4.46-4.47a.7.7,0,0,0-.5-.21h0a.72.72,0,0,0-.5.21l-4.46,4.47-4.16-4.19c0-.1,0-.21-.12-.29a1.09,1.09,0,0,0-1.18,0,.72.72,0,0,0-.12.29l-4.17,4.19-4-4a.71.71,0,0,0-.2-.48,1.47,1.47,0,0,0-1.3,0,.71.71,0,0,0-.2.48l-4,4-4-4.06a.72.72,0,0,0-.17-.42,1.33,1.33,0,0,0-1.26,0,.7.7,0,0,0-.17.42l-4,4.06L221,105.66c0-.1,0-.21-.11-.29a1.1,1.1,0,0,0-1.18,0,.71.71,0,0,0-.11.29l-4.17,4.19-4-4a.71.71,0,0,0-.2-.48.68.68,0,0,0-.65-.15.67.67,0,0,0-.64.15.74.74,0,0,0-.2.48l-4,4-4.41-4.43s0,0,0,0a.76.76,0,0,0-1,0s0,0,0,0l-4.41,4.43-4.17-4.19a.7.7,0,0,0-.11-.29,1.1,1.1,0,0,0-1.18,0,.61.61,0,0,0-.11.29l-4.18,4.19-4-4a.77.77,0,0,0-.2-.47,1.42,1.42,0,0,0-1.29,0,.72.72,0,0,0-.19.47l-4,4-4-4.05a.71.71,0,0,0-.17-.42.68.68,0,0,0-.64-.16.66.66,0,0,0-.63.16.71.71,0,0,0-.18.42l-4,4.05-4.17-4.19a.72.72,0,0,0-.12-.29,1.07,1.07,0,0,0-1.18,0c-.08.08-.09.19-.12.29L157,109.85l-4-4a.7.7,0,0,0-.2-.47,1.42,1.42,0,0,0-1.29,0,.72.72,0,0,0-.19.47l-4,4-4.45-4.47a.71.71,0,0,0-.5-.21h0c-.08,0-.15.07-.23.09v1.42l4.68,4.71a.72.72,0,0,0,1,0l4.32-4.34,4.32,4.34a.71.71,0,0,0,.51.21.72.72,0,0,0,.51-.21l4.37-4.39,4.37,4.39a.73.73,0,0,0,.52.21.71.71,0,0,0,.5-.21l4.33-4.35,4.33,4.35a.72.72,0,0,0,1,0l4.31-4.34,4.32,4.34a.72.72,0,0,0,1,0L191,107l4.37,4.39a.72.72,0,0,0,1,0l4.44-4.46,4.44,4.46a.72.72,0,0,0,1,0l4.31-4.33,4.32,4.33a.71.71,0,0,0,.51.21.71.71,0,0,0,.5-.21l4.38-4.39,4.37,4.39a.72.72,0,0,0,1,0L230,107l4.33,4.35a.73.73,0,0,0,.51.21.71.71,0,0,0,.51-.21l4.32-4.33,4.31,4.33a.72.72,0,0,0,.51.21.73.73,0,0,0,.52-.21l4.37-4.39,4.37,4.39a.71.71,0,0,0,.5.21.72.72,0,0,0,.51-.21l4.45-4.47,4.45,4.47a.72.72,0,0,0,.51.21.71.71,0,0,0,.51-.21l4.37-4.39,4.37,4.39a.74.74,0,0,0,.51.21.72.72,0,0,0,.51-.21l4.33-4.35,4.33,4.35a.71.71,0,0,0,.5.21.73.73,0,0,0,.52-.21l4.32-4.33,4.32,4.33a.72.72,0,0,0,1,0l4.37-4.39,4.37,4.39a.72.72,0,0,0,.51.21.71.71,0,0,0,.5-.21l4.48-4.5Z"/><path class="cls-21" d="M308,114.66a.7.7,0,0,0-.53.2L303,119.34l-4.18-4.19a.75.75,0,0,0-.12-.28,1.08,1.08,0,0,0-1.18,0,.69.69,0,0,0-.12.29l-4.17,4.19-4-4a.7.7,0,0,0-.2-.48,1.42,1.42,0,0,0-1.29,0,.69.69,0,0,0-.2.48l-4,4-4-4.06a.69.69,0,0,0-.17-.41.67.67,0,0,0-.63-.16.68.68,0,0,0-.63.16.71.71,0,0,0-.17.41l-4,4.06-4.17-4.19a.7.7,0,0,0-.12-.28,1.08,1.08,0,0,0-1.18,0c-.08.08-.08.18-.12.29l-4.17,4.19-4.46-4.47a.71.71,0,0,0-1,0l-4.46,4.47-4.16-4.19c0-.1,0-.2-.12-.28a1.07,1.07,0,0,0-1.18,0,.7.7,0,0,0-.12.29l-4.17,4.19-4-4a.71.71,0,0,0-.2-.48,1.44,1.44,0,0,0-1.3,0,.71.71,0,0,0-.2.48l-4,4-4-4.06a.71.71,0,0,0-.17-.41,1.3,1.3,0,0,0-1.26,0,.69.69,0,0,0-.17.41l-4,4.06L221,115.14c0-.1,0-.2-.11-.28a.71.71,0,0,0-1.3.29l-4.17,4.19-4-4a.71.71,0,0,0-.2-.48.68.68,0,0,0-.65-.15.67.67,0,0,0-.64.15.74.74,0,0,0-.2.48l-4,4-4.41-4.44s0,0,0,0a.76.76,0,0,0-1,0s0,0,0,0l-4.41,4.44-4.17-4.19a.68.68,0,0,0-.11-.29.7.7,0,0,0-.59-.18.68.68,0,0,0-.59.18.6.6,0,0,0-.11.28l-4.18,4.19-4-4a.76.76,0,0,0-.2-.47,1.42,1.42,0,0,0-1.29,0,.71.71,0,0,0-.19.47l-4,4-4-4.06a.7.7,0,0,0-.17-.42.68.68,0,0,0-.64-.16.67.67,0,0,0-.63.16.71.71,0,0,0-.18.42l-4,4.06-4.17-4.19a.69.69,0,0,0-.12-.29,1.07,1.07,0,0,0-1.18,0c-.08.08-.09.18-.12.28L157,119.34l-4-4a.7.7,0,0,0-.2-.47.66.66,0,0,0-.64-.15.67.67,0,0,0-.65.15.71.71,0,0,0-.19.47l-4,4-4.45-4.47a.67.67,0,0,0-.74-.12v1.42l4.68,4.7a.72.72,0,0,0,1,0l4.32-4.33,4.32,4.33a.71.71,0,0,0,.51.21.72.72,0,0,0,.51-.21l4.37-4.39,4.37,4.39a.73.73,0,0,0,.52.21.71.71,0,0,0,.5-.21l4.33-4.35,4.33,4.35a.72.72,0,0,0,1,0l4.31-4.33,4.32,4.33a.72.72,0,0,0,1,0l4.37-4.39,4.37,4.39a.72.72,0,0,0,1,0l4.44-4.46,4.44,4.46a.72.72,0,0,0,1,0l4.31-4.33,4.32,4.33a.71.71,0,0,0,.51.21.71.71,0,0,0,.5-.21l4.38-4.39,4.37,4.39a.72.72,0,0,0,1,0l4.33-4.35,4.33,4.35a.74.74,0,0,0,.51.21.71.71,0,0,0,.51-.21l4.32-4.33,4.31,4.33a.72.72,0,0,0,.51.21.73.73,0,0,0,.52-.21l4.37-4.39,4.37,4.39a.71.71,0,0,0,.5.21.72.72,0,0,0,.51-.21l4.45-4.47,4.45,4.47a.72.72,0,0,0,.51.21.71.71,0,0,0,.51-.21l4.37-4.39,4.37,4.39a.74.74,0,0,0,.51.21.72.72,0,0,0,.51-.21l4.33-4.35,4.33,4.35a.71.71,0,0,0,.5.21.73.73,0,0,0,.52-.21l4.32-4.33,4.32,4.33a.72.72,0,0,0,1,0l4.37-4.39,4.37,4.39a.72.72,0,0,0,.51.21.71.71,0,0,0,.5-.21l4.48-4.5Z"/><path class="cls-21" d="M308,124.14a.69.69,0,0,0-.53.2L303,128.82l-4.18-4.19a.75.75,0,0,0-.12-.28,1.08,1.08,0,0,0-1.18,0,.69.69,0,0,0-.12.29l-4.17,4.19-4-4a.7.7,0,0,0-.2-.48,1.43,1.43,0,0,0-1.29,0,.69.69,0,0,0-.2.48l-4,4-4-4.06a.69.69,0,0,0-.17-.41.67.67,0,0,0-.63-.16.68.68,0,0,0-.63.16.71.71,0,0,0-.17.41l-4,4.06-4.17-4.19a.7.7,0,0,0-.12-.28,1.08,1.08,0,0,0-1.18,0c-.08.08-.08.18-.12.29l-4.17,4.19-4.46-4.47a.71.71,0,0,0-1,0l-4.46,4.47-4.16-4.19c0-.1,0-.2-.12-.28a1.07,1.07,0,0,0-1.18,0,.7.7,0,0,0-.12.29l-4.17,4.19-4-4a.71.71,0,0,0-.2-.48,1.44,1.44,0,0,0-1.3,0,.71.71,0,0,0-.2.48l-4,4-4-4.06a.71.71,0,0,0-.17-.41,1.3,1.3,0,0,0-1.26,0,.69.69,0,0,0-.17.41l-4,4.06L221,124.63c0-.1,0-.2-.11-.28a.71.71,0,0,0-1.3.29l-4.17,4.19-4-4a.71.71,0,0,0-.2-.48.68.68,0,0,0-.65-.15.67.67,0,0,0-.64.15.74.74,0,0,0-.2.48l-4,4-4.41-4.44s0,0,0,0a.76.76,0,0,0-1,0s0,0,0,0l-4.41,4.44-4.17-4.19a.68.68,0,0,0-.11-.29.7.7,0,0,0-.59-.18.68.68,0,0,0-.59.18.6.6,0,0,0-.11.28l-4.18,4.19-4-4a.76.76,0,0,0-.2-.47,1.43,1.43,0,0,0-1.29,0,.71.71,0,0,0-.19.47l-4,4-4-4.06a.7.7,0,0,0-.17-.42.68.68,0,0,0-.64-.16.67.67,0,0,0-.63.16.7.7,0,0,0-.18.42l-4,4.06-4.17-4.19a.7.7,0,0,0-.12-.29,1.07,1.07,0,0,0-1.18,0c-.08.08-.09.18-.12.28L157,128.82l-4-4a.7.7,0,0,0-.2-.47.66.66,0,0,0-.64-.15.67.67,0,0,0-.65.15.71.71,0,0,0-.19.47l-4,4-4.45-4.47a.67.67,0,0,0-.74-.12v1.42l4.68,4.7a.72.72,0,0,0,1,0l4.32-4.33,4.32,4.33a.71.71,0,0,0,.51.21.72.72,0,0,0,.51-.21l4.37-4.39,4.37,4.39a.73.73,0,0,0,.52.21.71.71,0,0,0,.5-.21l4.33-4.35,4.33,4.35a.72.72,0,0,0,1,0l4.31-4.33,4.32,4.33a.72.72,0,0,0,1,0L191,126l4.37,4.39a.72.72,0,0,0,1,0l4.44-4.46,4.44,4.46a.72.72,0,0,0,1,0l4.31-4.33,4.32,4.33a.71.71,0,0,0,.51.21.71.71,0,0,0,.5-.21l4.38-4.39,4.37,4.39a.72.72,0,0,0,1,0L230,126l4.33,4.35a.73.73,0,0,0,.51.21.71.71,0,0,0,.51-.21l4.32-4.33,4.31,4.33a.72.72,0,0,0,.51.21.73.73,0,0,0,.52-.21l4.37-4.39,4.37,4.39a.71.71,0,0,0,.5.21.72.72,0,0,0,.51-.21l4.45-4.47,4.45,4.47a.72.72,0,0,0,.51.21.71.71,0,0,0,.51-.21l4.37-4.39,4.37,4.39a.74.74,0,0,0,.51.21.72.72,0,0,0,.51-.21l4.33-4.35,4.33,4.35a.71.71,0,0,0,.5.21.73.73,0,0,0,.52-.21l4.32-4.33,4.32,4.33a.72.72,0,0,0,1,0l4.37-4.39,4.37,4.39a.72.72,0,0,0,.51.21.71.71,0,0,0,.5-.21l4.48-4.5Z"/><rect class="cls-22" x="25.07" y="250.21" width="317.08" height="4.54"/><rect class="cls-11" x="159.17" y="172.74" width="29.28" height="5.4"/><rect class="cls-11" x="159.17" y="172.74" width="29.28" height="5.4"/><path class="cls-22" d="M184.84,171.87h-22V146.21h22Z"/><rect class="cls-16" x="164.73" y="148.14" width="18.18" height="21.81"/><rect class="cls-23" x="159.18" y="169.95" width="29.28" height="5.39"/><rect class="cls-23" x="159.18" y="169.95" width="29.28" height="5.39"/><rect class="cls-11" x="261.73" y="172.74" width="29.28" height="5.4"/><rect class="cls-11" x="261.73" y="172.74" width="29.28" height="5.4"/><path class="cls-22" d="M287.39,171.87h-22V146.21h22Z"/><rect class="cls-16" x="267.31" y="148.14" width="18.16" height="21.81"/><rect class="cls-23" x="261.74" y="169.95" width="29.28" height="5.39"/><rect class="cls-23" x="261.74" y="169.95" width="29.28" height="5.39"/><rect class="cls-11" x="210.45" y="171.83" width="29.29" height="5.39"/><rect class="cls-11" x="210.45" y="171.83" width="29.29" height="5.39"/><path class="cls-22" d="M236.1,171h-22V145.3h22Z"/><rect class="cls-16" x="216.02" y="147.23" width="18.16" height="21.81"/><rect class="cls-23" x="210.46" y="169.04" width="29.29" height="5.39"/><rect class="cls-23" x="210.46" y="169.04" width="29.29" height="5.39"/><rect class="cls-11" x="159.17" y="221.54" width="29.28" height="5.39"/><rect class="cls-11" x="159.17" y="221.54" width="29.28" height="5.39"/><path class="cls-22" d="M184.84,220.67h-22V195h22Z"/><rect class="cls-16" x="164.73" y="196.92" width="18.18" height="21.82"/><rect class="cls-23" x="159.18" y="218.74" width="29.28" height="5.38"/><rect class="cls-23" x="159.18" y="218.74" width="29.28" height="5.38"/><rect class="cls-11" x="261.73" y="221.54" width="29.28" height="5.39"/><path class="cls-22" d="M287.39,220.67h-22V195h22Z"/><rect class="cls-16" x="267.31" y="196.92" width="18.16" height="21.82"/><rect class="cls-23" x="261.74" y="218.74" width="29.28" height="5.38"/><rect class="cls-23" x="261.74" y="218.74" width="29.28" height="5.38"/><path class="cls-22" d="M239.63,250.21H210.56V195h29.07Z"/><rect class="cls-12" x="212.49" y="196.92" width="25.21" height="53.28"/><rect class="cls-23" x="216.02" y="201.61" width="18.16" height="19.06"/><rect class="cls-23" x="216.01" y="226.92" width="18.16" height="19.06"/><ellipse class="cls-17" cx="234.14" cy="223.97" rx="1.18" ry="1.29"/><path class="cls-21" d="M148.82,113.06v-1.71h-.08l0,1.76Z"/><polygon class="cls-20" points="148.7 106.72 148.7 106.72 148.74 111.06 148.7 106.72"/><polygon class="cls-20" points="39.68 181.24 148.83 181.24 148.83 169.25 148.7 154.56 73.8 154.56 39.68 181.24"/><path class="cls-21" d="M143.84,163.88l-4.18-4.19a.74.74,0,0,0-.12-.28,1.08,1.08,0,0,0-1.18,0,.69.69,0,0,0-.12.29l-4.17,4.19-4-4a.7.7,0,0,0-.2-.48,1.43,1.43,0,0,0-1.29,0,.69.69,0,0,0-.2.48l-4,4-4-4.06a.69.69,0,0,0-.17-.41.67.67,0,0,0-.63-.16.68.68,0,0,0-.63.16.71.71,0,0,0-.17.41l-4,4.06-4.17-4.19a.69.69,0,0,0-.12-.28,1.08,1.08,0,0,0-1.18,0c-.08.08-.08.18-.12.29L105,163.88l-4.46-4.47a.71.71,0,0,0-1,0l-4.46,4.47-4.16-4.19c0-.1,0-.2-.12-.28a1.07,1.07,0,0,0-1.18,0,.7.7,0,0,0-.12.29l-4.17,4.19-4-4a.71.71,0,0,0-.2-.48,1.44,1.44,0,0,0-1.3,0,.71.71,0,0,0-.2.48l-4,4-4-4.06a.71.71,0,0,0-.17-.41,1.3,1.3,0,0,0-1.26,0,.69.69,0,0,0-.17.41l-4,4.06-1.78-1.79L63,163l2.42,2.43a.72.72,0,0,0,1,0l4.33-4.35,4.33,4.35a.74.74,0,0,0,.51.21.71.71,0,0,0,.51-.21l4.32-4.33,4.31,4.33a.72.72,0,0,0,.51.21.73.73,0,0,0,.52-.21L90.19,161l4.37,4.39a.71.71,0,0,0,.5.21.72.72,0,0,0,.51-.21l4.45-4.47,4.45,4.47a.72.72,0,0,0,.51.21.71.71,0,0,0,.51-.21l4.37-4.39,4.37,4.39a.74.74,0,0,0,.51.21.72.72,0,0,0,.51-.21l4.33-4.35,4.33,4.35a.71.71,0,0,0,.5.21.73.73,0,0,0,.52-.21l4.31-4.33,4.32,4.33a.72.72,0,0,0,1,0L139,161l4.37,4.39a.72.72,0,0,0,.51.21.71.71,0,0,0,.5-.21l4.41-4.43,0-1.76a.67.67,0,0,0-.45.19Z"/><path class="cls-21" d="M54.48,177.11a.73.73,0,0,0,.51-.21l4.46-4.39,4.45,4.39a.74.74,0,0,0,1,0l4.42-4.35,4.41,4.35a.76.76,0,0,0,.52.21.73.73,0,0,0,.52-.21l4.4-4.33,4.39,4.33a.74.74,0,0,0,.52.21.75.75,0,0,0,.53-.21l4.45-4.39,4.45,4.39a.73.73,0,0,0,.51.21.75.75,0,0,0,.52-.21l4.54-4.47,4.54,4.47a.74.74,0,0,0,.52.21.73.73,0,0,0,.52-.21l4.45-4.39,4.45,4.39a.76.76,0,0,0,.52.21.74.74,0,0,0,.52-.21l4.41-4.35,4.41,4.35a.73.73,0,0,0,.51.21.75.75,0,0,0,.53-.21l4.4-4.33,4.4,4.33a.74.74,0,0,0,.52.21.74.74,0,0,0,.52-.21l4.45-4.39,4.45,4.39a.75.75,0,0,0,.52.21.73.73,0,0,0,.51-.21l4.56-4.5v-1.71a.72.72,0,0,0-.54.2l-4.53,4.47-4.25-4.19a.74.74,0,0,0-.12-.28,1.11,1.11,0,0,0-1.2,0c-.08.08-.08.18-.12.29l-4.25,4.19-4.05-4a.87.87,0,0,0-1.72,0l-4.06,4-4.11-4.06a.63.63,0,0,0-.82-.58.62.62,0,0,0-.82.58l-4.12,4.06-4.25-4.19a.69.69,0,0,0-.12-.28,1.11,1.11,0,0,0-1.2,0c-.08.08-.08.18-.12.29l-4.25,4.19-4.54-4.47a.73.73,0,0,0-1,0l-4.54,4.47-4.24-4.19c0-.1,0-.2-.13-.28a1.1,1.1,0,0,0-1.2,0c-.08.08-.08.18-.12.29l-4.25,4.19-4.05-4a.66.66,0,0,0-.85-.63.66.66,0,0,0-.87.63l-4.05,4-4.12-4.06a.7.7,0,0,0-.17-.41,1.35,1.35,0,0,0-1.28,0,.68.68,0,0,0-.18.41l-4.12,4.06-4.25-4.19c0-.1,0-.2-.11-.28a1.12,1.12,0,0,0-1.21,0,.67.67,0,0,0-.11.29l-4.25,4.19-3.22-3.17-1.16.9,3.86,3.8A.73.73,0,0,0,54.48,177.11Z"/><polygon class="cls-10" points="171.45 111.01 161.5 120.89 161.5 98.81 171.45 98.81 171.45 111.01"/><rect class="cls-15" x="159.43" y="90.26" width="14.09" height="8.55"/><rect class="cls-11" x="161.5" y="98.81" width="9.95" height="2.7"/><rect class="cls-21" x="148.64" y="185.41" width="152.85" height="3.45"/><path class="cls-24" d="M211.33,254.73,202.16,357.6S234,350.7,254,342.82s22.6-11.16,22.6-11.16L240,254.73Z"/><path class="cls-24" d="M129.13,254.53l16,96.24s-53.92-15-63.48-23.89a270.94,270.94,0,0,1-19.79-21.16l8.87-51.53Z"/><circle class="cls-25" cx="65.3" cy="118.64" r="10.42" transform="translate(-4.53 2.61) rotate(-2.21)"/><circle class="cls-25" cx="76.42" cy="127.37" r="10.42" transform="translate(-4.86 3.05) rotate(-2.21)"/><circle class="cls-25" cx="81.57" cy="114.23" r="6.92" transform="matrix(1, -0.04, 0.04, 1, -4.35, 3.24)"/><circle class="cls-25" cx="88.85" cy="120.96" r="6.92" transform="translate(-4.61 3.52) rotate(-2.21)"/><circle class="cls-25" cx="98.25" cy="127.07" r="6.92" transform="translate(-4.83 3.89) rotate(-2.21)"/><circle class="cls-25" cx="109.06" cy="127.73" r="6.92" transform="matrix(1, -0.04, 0.04, 1, -4.85, 4.31)"/><circle class="cls-25" cx="100.18" cy="121.06" r="6.92" transform="translate(-4.6 3.96) rotate(-2.21)"/><circle class="cls-25" cx="54.33" cy="127.96" r="6.92" transform="translate(-4.9 2.19) rotate(-2.21)"/><circle class="cls-25" cx="107.28" cy="66.65" r="10.42" transform="translate(-2.49 4.19) rotate(-2.21)"/><circle class="cls-25" cx="118.41" cy="75.39" r="10.42" transform="translate(-2.82 4.63) rotate(-2.21)"/><circle class="cls-25" cx="123.56" cy="62.25" r="6.92" transform="matrix(1, -0.04, 0.04, 1, -2.31, 4.82)"/><circle class="cls-25" cx="130.83" cy="68.98" r="6.92" transform="translate(-2.57 5.1) rotate(-2.21)"/><circle class="cls-25" cx="140.24" cy="75.09" r="6.92" transform="translate(-2.8 5.47) rotate(-2.21)"/><circle class="cls-25" cx="151.05" cy="75.75" r="6.92" transform="translate(-2.81 5.89) rotate(-2.21)"/><circle class="cls-25" cx="142.16" cy="69.08" r="6.92" transform="matrix(1, -0.04, 0.04, 1, -2.56, 5.54)"/><circle class="cls-25" cx="96.32" cy="75.97" r="6.92" transform="translate(-2.86 3.78) rotate(-2.21)"/><circle class="cls-25" cx="219.02" cy="66.74" r="13.33" transform="matrix(1, -0.04, 0.04, 1, -2.41, 8.51)"/><circle class="cls-25" cx="233.25" cy="77.91" r="13.33" transform="matrix(1, -0.04, 0.04, 1, -2.84, 9.07)"/><circle class="cls-25" cx="239.84" cy="61.1" r="8.85" transform="translate(-2.18 9.31) rotate(-2.21)"/><circle class="cls-25" cx="249.14" cy="69.71" r="8.85" transform="translate(-2.51 9.67) rotate(-2.21)"/><circle class="cls-25" cx="261.16" cy="77.52" r="8.85" transform="translate(-2.8 10.14) rotate(-2.21)"/><circle class="cls-25" cx="274.99" cy="78.37" r="8.85" transform="translate(-2.82 10.68) rotate(-2.21)"/><circle class="cls-25" cx="263.62" cy="69.84" r="8.85" transform="translate(-2.5 10.23) rotate(-2.21)"/><circle class="cls-25" cx="205" cy="78.66" r="8.85" transform="translate(-2.88 7.98) rotate(-2.21)"/></g><path class="cls-26" d="M184.1,15.74A163,163,0,0,1,299.36,294,163,163,0,1,1,68.84,63.49,161.93,161.93,0,0,1,184.1,15.74m0-10a173,173,0,1,0,173,173,173,173,0,0,0-173-173Z"/></g></g></g></svg>