<svg xmlns="http://www.w3.org/2000/svg" xmlns:xlink="http://www.w3.org/1999/xlink" viewBox="0 0 346.11 346.11"><defs><style>.cls-1{fill:url(#Degradado_sin_nombre_9);}.cls-2{fill:#f93;}.cls-10,.cls-11,.cls-12,.cls-13,.cls-14,.cls-15,.cls-18,.cls-2,.cls-21,.cls-22,.cls-3,.cls-4,.cls-5,.cls-8,.cls-9{fill-rule:evenodd;}.cls-17,.cls-20,.cls-3{fill:#fc0;}.cls-4{fill:#ff0;}.cls-16,.cls-19,.cls-5{fill:#fff;}.cls-21,.cls-6{fill:#26bdd1;}.cls-7,.cls-9{fill:#00488e;}.cls-8{fill:#f8fed2;stroke:#00b7ff;stroke-width:0.43px;}.cls-17,.cls-20,.cls-8{stroke-miterlimit:22.93;}.cls-10{fill:#019dcb;}.cls-11{fill:#03bddc;}.cls-12{fill:#c4ffff;}.cls-12,.cls-20,.cls-22{opacity:0.5;}.cls-13,.cls-23{fill:#024056;}.cls-14{fill:#087fa3;}.cls-15,.cls-24{fill:#05a4e2;}.cls-17,.cls-20{stroke:#f60;stroke-width:0.17px;}.cls-18{fill:#c63;}.cls-19{opacity:0.82;}.cls-22{fill:#039;}.cls-25{fill:#ccbeb5;}.cls-26{fill:#d0cba4;}</style><radialGradient id="Degradado_sin_nombre_9" cx="173.05" cy="173.05" r="173.05" gradientUnits="userSpaceOnUse"><stop offset="0" stop-color="#255572"/><stop offset="1" stop-color="#061a27"/></radialGradient></defs><title>Boton_Nave</title><g id="Capa_2" data-name="Capa 2"><g id="Layer_1" data-name="Layer 1"><circle class="cls-1" cx="173.05" cy="173.05" r="173.05"/><path class="cls-2" d="M150.06,205.19c10.18,9.42,5.29,31.27-10.93,48.8S79,285.78,77.1,284.06s8.94-46.65,25.16-64.18S139.88,195.77,150.06,205.19Z"/><path class="cls-3" d="M150.06,205.19c6.8,6.29,2.86,21.62-8.8,34.22s-42.43,23.65-43.67,22.5,7.37-32.68,19-45.29S143.26,198.9,150.06,205.19Z"/><path class="cls-4" d="M150.06,205.19c6.8,6.29,5.36,18.91-3.22,28.19s-34.14,14.69-35.38,13.54,2.17-27.05,10.75-36.32S143.26,198.9,150.06,205.19Z"/><path class="cls-5" d="M150.06,205.19c5.09,4.71,3.72,14.47-3.07,21.8s-26.52,12-27.44,11.18,2.23-20.9,9-28.23S145,200.49,150.06,205.19Z"/><rect class="cls-6" x="222.49" y="89.14" width="67.55" height="2.49" transform="translate(15.89 217.12) rotate(-47.23)"/><rect class="cls-6" x="264.03" y="70.98" width="18.07" height="2.49" transform="translate(34.62 223.63) rotate(-47.23)"/><rect class="cls-7" x="251.13" y="81.21" width="25.81" height="1.47" rx="0.42" ry="0.42" transform="translate(24.58 220.12) rotate(-47.23)"/><path class="cls-8" d="M255,91.77c12.72,11.77,3.82,42.08-19.88,67.7s-74,59.33-86.75,47.56,17-64.56,40.68-90.18S242.26,80,255,91.77Z"/><path class="cls-9" d="M212.6,137.09a17.48,17.48,0,1,0-.9-24.64A17.47,17.47,0,0,0,212.6,137.09Z"/><path class="cls-10" d="M212.08,136.61a16.77,16.77,0,1,0-.86-23.63A16.76,16.76,0,0,0,212.08,136.61Z"/><path class="cls-9" d="M213.4,135.4a14,14,0,1,0-.71-19.68A14,14,0,0,0,213.4,135.4Z"/><path class="cls-11" d="M214.6,135.42a13.39,13.39,0,1,0-.69-18.88A13.38,13.38,0,0,0,214.6,135.42Z"/><path class="cls-12" d="M218.06,135a13.41,13.41,0,0,1,5.74-22.75A13.36,13.36,0,1,0,227,138.51h-.29A13.23,13.23,0,0,1,218.06,135Z"/><path class="cls-12" d="M233.49,111.12a16.78,16.78,0,0,1-19.52,27,16.77,16.77,0,1,0,17.41-28.63A16.72,16.72,0,0,1,233.49,111.12Z"/><path class="cls-13" d="M156.2,164.82l-25.31,1.25L99.34,203.38l2,1.85,26.36-20.15,18.8,4.28C148.22,182.18,151.69,173.66,156.2,164.82Z"/><path class="cls-14" d="M155.06,165.39,131.44,167l-30.92,36.22,1.07,1L127.5,184l18.19,4.33A112.56,112.56,0,0,1,155.06,165.39Z"/><path class="cls-15" d="M132.3,167.34l13.27,19.81a105,105,0,0,1,8.7-21.3Z"/><path class="cls-15" d="M145,187.67l-13.41-20h-.06l-.88,1-2.84,15L145,187.81Z"/><polygon class="cls-15" points="126.94 183.89 129.59 169.88 103.22 200.77 104.16 201.64 126.94 183.89"/><path class="cls-13" d="M189.76,195.87l.72,25.33-34.75,34.35-2-1.85,18-27.84L166,207.44C173.07,205.17,181.29,201,189.76,195.87Z"/><path class="cls-14" d="M189.28,197l.24,23.67-33.71,33.64-1.07-1L172.84,226l-5.73-17.8A112.56,112.56,0,0,0,189.28,197Z"/><path class="cls-15" d="M189.11,219.89l-20.78-11.69a105,105,0,0,0,20.56-10.33Z"/><path class="cls-15" d="M167.84,208.76l21,11.82v.06l-1,1-14.76,4-5.41-16.78Z"/><polygon class="cls-15" points="173.02 226.51 186.78 222.79 158.03 251.47 157.09 250.61 173.02 226.51"/><ellipse class="cls-16" cx="276.43" cy="68.66" rx="4.73" ry="4.88" transform="translate(38.31 224.96) rotate(-47.23)"/><circle class="cls-17" cx="276.25" cy="68.55" r="4.71" transform="translate(38.34 224.79) rotate(-47.23)"/><path class="cls-18" d="M276.79,63.9a4.4,4.4,0,0,0-4,1.53,4.75,4.75,0,0,0,0,6.25A4.43,4.43,0,0,0,274.59,73C270.81,69.69,271.92,64.3,276.79,63.9Z"/><path class="cls-18" d="M279.61,71.09a5,5,0,0,1-3.61,2,4.08,4.08,0,0,0,3.94-1.58,4.9,4.9,0,0,0-.2-6.12,4.33,4.33,0,0,0-1.56-1.1C280.2,65.6,281.09,69.49,279.61,71.09Z"/><circle class="cls-19" cx="279.31" cy="67.42" r="1.33" transform="translate(40.14 226.67) rotate(-47.23)"/><circle class="cls-20" cx="276.57" cy="68.69" r="4.71" transform="translate(38.33 225.07) rotate(-47.23)"/><path class="cls-9" d="M196,155.32a9.4,9.4,0,1,0-.48-13.25A9.39,9.39,0,0,0,196,155.32Z"/><path class="cls-10" d="M195.76,155.06a9,9,0,1,0-.46-12.71A9,9,0,0,0,195.76,155.06Z"/><path class="cls-9" d="M196.46,154.41a7.51,7.51,0,1,0-.38-10.58A7.5,7.5,0,0,0,196.46,154.41Z"/><path class="cls-11" d="M197.11,154.42a7.2,7.2,0,1,0-.37-10.15A7.2,7.2,0,0,0,197.11,154.42Z"/><path class="cls-12" d="M199,154.18A7.21,7.21,0,0,1,202.06,142a7.18,7.18,0,1,0,1.74,14.13h-.15A7.12,7.12,0,0,1,199,154.18Z"/><path class="cls-12" d="M207.27,141.35a9,9,0,0,1-10.5,14.5,9,9,0,1,0,9.36-15.39A9,9,0,0,1,207.27,141.35Z"/><path class="cls-15" d="M170.4,140.83l42.25,39.09q2.17-1.72,4.28-3.46l-43.41-40.16Q171.94,138.53,170.4,140.83Z"/><path class="cls-15" d="M207.84,183.63l-40.77-37.72q-1.49,2.34-2.93,4.71l39.23,36.29Q205.62,185.3,207.84,183.63Z"/><path class="cls-15" d="M198.35,190.43,161,155.9q-1.4,2.45-2.72,4.9l35.37,32.72Q196,192,198.35,190.43Z"/><path class="cls-21" d="M238.07,87.28l22.7,21a27.86,27.86,0,0,0-.91-8.27L246.38,87.55A27.86,27.86,0,0,0,238.07,87.28Z"/><path class="cls-21" d="M234.3,87.87a50.7,50.7,0,0,0-6.18,1.7l31.15,28.82a50.72,50.72,0,0,0,1.21-6.3Z"/><path class="cls-21" d="M225,90.74q-2.66,1.07-5.39,2.44l36.75,34q1.15-2.82,2-5.56Z"/><path class="cls-22" d="M159.18,207.77c-12.72-11.77,17-64.56,40.68-90.18,15.84-17.13,34.29-27.82,48.58-29.52C233.8,83.57,209.29,95,189,116.85c-23.7,25.62-53.4,78.41-40.68,90.18,2.68,2.48,7,2.94,12.44,1.89A7.9,7.9,0,0,1,159.18,207.77Z"/><rect class="cls-23" x="147.19" y="196.76" width="5.39" height="17.26" transform="translate(-102.67 175.94) rotate(-47.23)"/><rect class="cls-24" x="147.81" y="197.28" width="4.17" height="16.19" rx="1.2" ry="1.2" transform="translate(-102.66 175.94) rotate(-47.23)"/><rect class="cls-23" x="148.16" y="197.77" width="3.42" height="15.26" rx="0.98" ry="0.98" transform="translate(-102.68 175.93) rotate(-47.23)"/><rect class="cls-23" x="116.29" y="202.37" width="67.55" height="5.67" transform="translate(-102.47 176.01) rotate(-47.23)"/><rect class="cls-23" x="157.83" y="184.21" width="18.07" height="5.67" transform="translate(-83.75 182.52) rotate(-47.23)"/><rect class="cls-24" x="158.36" y="184.87" width="16.95" height="4.39" rx="1.26" ry="1.26" transform="translate(-83.77 182.5) rotate(-47.23)"/><rect class="cls-24" x="119.88" y="209.71" width="47.95" height="4.39" rx="1.26" ry="1.26" transform="translate(-109.38 173.6) rotate(-47.23)"/><rect class="cls-24" x="160.51" y="190.84" width="0.44" height="5.67" rx="0.13" ry="0.13" transform="translate(-90.59 180.14) rotate(-47.23)"/><path class="cls-25" d="M302.66,157.94l-3.41-1.35a2.17,2.17,0,0,1-.77-.54,2.48,2.48,0,0,1-.7-1.76s0-.23,0-.58,0-.82,0-1.29c0-.94,0-1.87,0-1.87,0-.95-.42-1.09-1-.33l-1.11,1.47-1.11,1.44a2.45,2.45,0,0,1-2.61.71s-.86-.32-1.72-.62l-1.73-.59c-.87-.29-1.15,0-.63.75a2.8,2.8,0,0,1,.18.26l.39.59.57.86.3.46.53.81a2.26,2.26,0,0,1,.33,1.36,2.42,2.42,0,0,1-.49,1.36l-1.16,1.45-.8,1c-.22.27-.36.47-.36.47-.56.79-.3,1.21.59.93l1.75-.54c.88-.27,1.76-.51,1.76-.51a2.27,2.27,0,0,1,1.3.06,2.46,2.46,0,0,1,1.26.91l1,1.52,1,1.48c.52.74,1,.59,1-.31l0-1.78c0-.45,0-.89,0-1.23s0-.56,0-.56a2.46,2.46,0,0,1,1.58-2l.14,0,3.54-.9c.45-.11.68-.28.69-.46S303.09,158.12,302.66,157.94Z"/><path class="cls-25" d="M63.64,203.94l-3.41-1.35a2.17,2.17,0,0,1-.77-.54,2.48,2.48,0,0,1-.7-1.76s0-.23,0-.58,0-.82,0-1.29c0-.94,0-1.87,0-1.87,0-.95-.42-1.09-1-.33l-1.11,1.47-1.11,1.44a2.45,2.45,0,0,1-2.61.71s-.86-.32-1.72-.62l-1.73-.59c-.87-.29-1.15,0-.63.75a2.8,2.8,0,0,1,.18.26l.39.59.57.86.3.46.53.81a2.26,2.26,0,0,1,.33,1.36,2.42,2.42,0,0,1-.49,1.36l-1.16,1.45-.8,1c-.22.27-.36.47-.36.47-.56.79-.3,1.21.59.93l1.75-.54c.88-.27,1.76-.51,1.76-.51a2.27,2.27,0,0,1,1.3.06,2.46,2.46,0,0,1,1.26.91l1,1.52,1,1.48c.52.74,1,.59,1-.31l0-1.78c0-.45,0-.89,0-1.23s0-.56,0-.56a2.46,2.46,0,0,1,1.58-2l.14,0,3.54-.9c.45-.11.68-.28.69-.46S64.06,204.11,63.64,203.94Z"/><path class="cls-25" d="M177.73,316.5l-3.41-1.35a2.17,2.17,0,0,1-.77-.54,2.48,2.48,0,0,1-.7-1.76s0-.23,0-.58,0-.82,0-1.29c0-.94,0-1.87,0-1.87,0-.95-.42-1.09-1-.33l-1.11,1.47-1.11,1.44a2.45,2.45,0,0,1-2.61.71s-.86-.32-1.72-.62l-1.73-.59c-.87-.29-1.15,0-.63.75a2.8,2.8,0,0,1,.18.26l.39.59.57.86.3.46.53.81a2.26,2.26,0,0,1,.33,1.36,2.42,2.42,0,0,1-.49,1.36l-1.16,1.45-.8,1c-.22.27-.36.47-.36.47-.56.79-.3,1.21.59.93l1.75-.54c.88-.27,1.76-.51,1.76-.51a2.27,2.27,0,0,1,1.3.06,2.46,2.46,0,0,1,1.26.91l1,1.52,1,1.48c.52.74,1,.59,1-.31l0-1.78c0-.45,0-.89,0-1.23s0-.56,0-.56a2.46,2.46,0,0,1,1.58-2l.14,0,3.54-.9c.45-.11.68-.28.69-.46S178.16,316.67,177.73,316.5Z"/><path class="cls-25" d="M220.13,48.24l-3.41-1.35a2.17,2.17,0,0,1-.77-.54,2.48,2.48,0,0,1-.7-1.76s0-.23,0-.58,0-.82,0-1.29c0-.94,0-1.87,0-1.87,0-.95-.42-1.09-1-.33L213.27,42l-1.11,1.44a2.45,2.45,0,0,1-2.61.71s-.86-.32-1.72-.62l-1.73-.59c-.87-.29-1.15,0-.63.75a2.8,2.8,0,0,1,.18.26l.39.59.57.86.3.46.53.81a2.26,2.26,0,0,1,.33,1.36,2.42,2.42,0,0,1-.49,1.36l-1.16,1.45-.8,1c-.22.27-.36.47-.36.47-.56.79-.3,1.21.59.93l1.75-.54c.88-.27,1.76-.51,1.76-.51a2.27,2.27,0,0,1,1.3.06,2.46,2.46,0,0,1,1.26.91l1,1.52,1,1.48c.52.74,1,.59,1-.31l0-1.78c0-.45,0-.89,0-1.23s0-.56,0-.56a2.46,2.46,0,0,1,1.58-2l.14,0,3.54-.9c.45-.11.68-.28.69-.46S220.56,48.41,220.13,48.24Z"/><path class="cls-26" d="M108.94,80.31c2.35,2.28,3.86,5.67,5.05,10.33s2.06,10.61,3.46,18a104.49,104.49,0,0,1-2.11-18.19c0-4.82.68-8.48,2.38-11.37,3.41-5.77,11-8.53,25.86-10.86-7.43,1.16-13.17,1.64-17.67,1.28s-7.75-1.56-10.31-3.8a14.49,14.49,0,0,1-1.77-1.88,18.54,18.54,0,0,1-1.58-2.28,39.82,39.82,0,0,1-2.77-5.85c-1.82-4.47-3.59-10.19-6.57-17.07A67.83,67.83,0,0,1,108.16,56a27,27,0,0,1,.15,6.34,16.54,16.54,0,0,1-.49,2.63,12.8,12.8,0,0,1-.93,2.31c-1.49,2.86-4.16,5-8.26,6.59s-9.69,2.84-17.12,4C96.35,75.57,104.25,75.72,108.94,80.31Z"/><path class="cls-26" d="M219.42,284.48c1.05,2.26,1.21,5.07.8,8.7s-1.4,8.09-2.4,13.72a79.38,79.38,0,0,1,3.41-13.49C222.51,290,224,287.58,226,286c4-3.18,10.12-3.09,21.29-.74a60.35,60.35,0,0,1-12.89-3.86c-3.11-1.47-5.09-3.2-6.29-5.48a11,11,0,0,1-.75-1.81,14.08,14.08,0,0,1-.51-2,30.26,30.26,0,0,1-.39-4.9c-.09-3.67.2-8.21-.07-13.89a51.53,51.53,0,0,1-1,13.78,20.51,20.51,0,0,1-1.6,4.54,12.57,12.57,0,0,1-1.06,1.73,9.72,9.72,0,0,1-1.29,1.39c-1.83,1.63-4.29,2.4-7.65,2.45s-7.65-.6-13.23-1.78C211.75,277.72,217.32,280,219.42,284.48Z"/></g></g></svg>