<svg xmlns="http://www.w3.org/2000/svg" viewBox="0 0 280 280"><defs><style>.cls-1{isolation:isolate;}.cls-2{fill:#c0a37e;}.cls-3{fill:#9d7e5a;}.cls-4{opacity:0.35;mix-blend-mode:multiply;}.cls-15,.cls-5,.cls-6{fill:none;}.cls-5,.cls-6{stroke:#5e4b33;stroke-miterlimit:10;}.cls-5{stroke-width:0.41px;}.cls-6{stroke-width:0.41px;}.cls-7{fill:#484147;}.cls-8{fill:#6d8739;}.cls-9{fill:#231f20;}.cls-10{fill:#8eb140;}.cls-11{fill:#9fbec9;}.cls-12{fill:#f9c745;}.cls-13{fill:#faf6e6;}.cls-14{fill:#bd5e4b;}</style></defs><title>casa_garage</title><g class="cls-1"><g id="Capa_2" data-name="Capa 2"><g id="Layer_1" data-name="Layer 1"><rect class="cls-2" x="14.54" y="203.41" width="99.17" height="72.61"/><rect class="cls-3" x="14.54" y="203.41" width="99.17" height="9.63"/><g class="cls-4"><rect class="cls-5" x="14.9" y="204.03" width="12.42" height="4.79"/><rect class="cls-5" x="28.07" y="204.03" width="12.42" height="4.79"/><rect class="cls-5" x="41.23" y="204.03" width="12.42" height="4.79"/><rect class="cls-5" x="54.4" y="204.03" width="12.42" height="4.79"/><rect class="cls-5" x="67.57" y="204.03" width="12.42" height="4.79"/><rect class="cls-5" x="80.73" y="204.03" width="12.42" height="4.79"/><rect class="cls-5" x="93.9" y="204.03" width="12.42" height="4.79"/><polyline class="cls-5" points="113.14 208.82 107.06 208.82 107.06 204.03 113.2 204.03"/><polyline class="cls-6" points="15.15 209.46 21.04 209.46 21.04 214.25 15.09 214.25"/><polyline class="cls-6" points="15.15 220.5 21.04 220.5 21.04 225.3 15.09 225.3"/><polyline class="cls-6" points="15.15 231.56 21.04 231.56 21.04 236.35 15.09 236.35"/><polyline class="cls-6" points="15.15 242.62 21.04 242.62 21.04 247.41 15.09 247.41"/><polyline class="cls-6" points="15.15 253.68 21.04 253.68 21.04 258.47 15.09 258.47"/><polyline class="cls-6" points="15.15 264.78 21.04 264.78 21.04 269.57 15.09 269.57"/><rect class="cls-5" x="21.74" y="209.46" width="12.42" height="4.79"/><rect class="cls-5" x="34.91" y="209.46" width="12.42" height="4.79"/><rect class="cls-5" x="48.08" y="209.46" width="12.42" height="4.79"/><rect class="cls-5" x="61.24" y="209.46" width="12.42" height="4.79"/><rect class="cls-5" x="74.41" y="209.46" width="12.42" height="4.79"/><rect class="cls-5" x="87.57" y="209.46" width="12.42" height="4.79"/><rect class="cls-5" x="100.74" y="209.46" width="12.42" height="4.79"/><rect class="cls-5" x="14.9" y="215.09" width="12.42" height="4.79"/><rect class="cls-5" x="28.07" y="215.09" width="12.42" height="4.79"/><rect class="cls-5" x="41.23" y="215.09" width="12.42" height="4.79"/><rect class="cls-5" x="54.4" y="215.09" width="12.42" height="4.79"/><rect class="cls-5" x="67.57" y="215.09" width="12.42" height="4.79"/><rect class="cls-5" x="80.73" y="215.09" width="12.42" height="4.79"/><rect class="cls-5" x="93.9" y="215.09" width="12.42" height="4.79"/><polyline class="cls-5" points="113.14 219.88 107.06 219.88 107.06 215.09 113.2 215.09"/><rect class="cls-5" x="21.74" y="220.52" width="12.42" height="4.79"/><rect class="cls-5" x="34.91" y="220.52" width="12.42" height="4.79"/><rect class="cls-5" x="48.08" y="220.52" width="12.42" height="4.79"/><rect class="cls-5" x="61.24" y="220.52" width="12.42" height="4.79"/><rect class="cls-5" x="74.41" y="220.52" width="12.42" height="4.79"/><rect class="cls-5" x="87.57" y="220.52" width="12.42" height="4.79"/><rect class="cls-5" x="100.74" y="220.52" width="12.42" height="4.79"/><rect class="cls-5" x="14.9" y="226.15" width="12.42" height="4.79"/><rect class="cls-5" x="28.07" y="226.15" width="12.42" height="4.79"/><rect class="cls-5" x="41.23" y="226.15" width="12.42" height="4.79"/><rect class="cls-5" x="54.4" y="226.15" width="12.42" height="4.79"/><rect class="cls-5" x="67.57" y="226.15" width="12.42" height="4.79"/><rect class="cls-5" x="80.73" y="226.15" width="12.42" height="4.79"/><rect class="cls-5" x="93.9" y="226.15" width="12.42" height="4.79"/><polyline class="cls-5" points="113.14 230.94 107.06 230.94 107.06 226.15 113.2 226.15"/><rect class="cls-5" x="21.74" y="231.57" width="12.42" height="4.79"/><rect class="cls-5" x="34.91" y="231.57" width="12.42" height="4.79"/><rect class="cls-5" x="48.08" y="231.57" width="12.42" height="4.79"/><rect class="cls-5" x="61.24" y="231.57" width="12.42" height="4.79"/><rect class="cls-5" x="74.41" y="231.57" width="12.42" height="4.79"/><rect class="cls-5" x="87.57" y="231.57" width="12.42" height="4.79"/><rect class="cls-5" x="100.74" y="231.57" width="12.42" height="4.79"/><rect class="cls-5" x="14.9" y="237.2" width="12.42" height="4.79"/><rect class="cls-5" x="28.07" y="237.2" width="12.42" height="4.79"/><rect class="cls-5" x="41.23" y="237.2" width="12.42" height="4.79"/><rect class="cls-5" x="54.4" y="237.2" width="12.42" height="4.79"/><rect class="cls-5" x="67.57" y="237.2" width="12.42" height="4.79"/><rect class="cls-5" x="80.73" y="237.2" width="12.42" height="4.79"/><rect class="cls-5" x="93.9" y="237.2" width="12.42" height="4.79"/><polyline class="cls-5" points="113.14 241.99 107.06 241.99 107.06 237.2 113.2 237.2"/><rect class="cls-5" x="21.74" y="242.63" width="12.42" height="4.79"/><rect class="cls-5" x="34.91" y="242.63" width="12.42" height="4.79"/><rect class="cls-5" x="48.08" y="242.63" width="12.42" height="4.79"/><rect class="cls-5" x="61.24" y="242.63" width="12.42" height="4.79"/><rect class="cls-5" x="74.41" y="242.63" width="12.42" height="4.79"/><rect class="cls-5" x="87.57" y="242.63" width="12.42" height="4.79"/><rect class="cls-5" x="100.74" y="242.63" width="12.42" height="4.79"/><rect class="cls-5" x="14.9" y="248.26" width="12.42" height="4.79"/><rect class="cls-5" x="28.07" y="248.26" width="12.42" height="4.79"/><rect class="cls-5" x="41.23" y="248.26" width="12.42" height="4.79"/><rect class="cls-5" x="54.4" y="248.26" width="12.42" height="4.79"/><rect class="cls-5" x="67.57" y="248.26" width="12.42" height="4.79"/><rect class="cls-5" x="80.73" y="248.26" width="12.42" height="4.79"/><rect class="cls-5" x="93.9" y="248.26" width="12.42" height="4.79"/><polyline class="cls-5" points="113.14 253.05 107.06 253.05 107.06 248.26 113.2 248.26"/><rect class="cls-5" x="21.74" y="253.69" width="12.42" height="4.79"/><rect class="cls-5" x="34.91" y="253.69" width="12.42" height="4.79"/><rect class="cls-5" x="48.08" y="253.69" width="12.42" height="4.79"/><rect class="cls-5" x="61.24" y="253.69" width="12.42" height="4.79"/><rect class="cls-5" x="74.41" y="253.69" width="12.42" height="4.79"/><rect class="cls-5" x="87.57" y="253.69" width="12.42" height="4.79"/><rect class="cls-5" x="100.74" y="253.69" width="12.42" height="4.79"/><rect class="cls-5" x="14.9" y="259.32" width="12.42" height="4.79"/><rect class="cls-5" x="28.07" y="259.32" width="12.42" height="4.79"/><rect class="cls-5" x="41.23" y="259.32" width="12.42" height="4.79"/><rect class="cls-5" x="54.4" y="259.32" width="12.42" height="4.79"/><rect class="cls-5" x="67.57" y="259.32" width="12.42" height="4.79"/><rect class="cls-5" x="80.73" y="259.32" width="12.42" height="4.79"/><rect class="cls-5" x="93.9" y="259.32" width="12.42" height="4.79"/><polyline class="cls-5" points="113.14 264.11 107.06 264.11 107.06 259.32 113.2 259.32"/><rect class="cls-5" x="21.74" y="264.75" width="12.42" height="4.79"/><rect class="cls-5" x="34.91" y="264.75" width="12.42" height="4.79"/><rect class="cls-5" x="48.08" y="264.75" width="12.42" height="4.79"/><rect class="cls-5" x="61.24" y="264.75" width="12.42" height="4.79"/><rect class="cls-5" x="74.41" y="264.75" width="12.42" height="4.79"/><rect class="cls-5" x="87.57" y="264.75" width="12.42" height="4.79"/><rect class="cls-5" x="100.74" y="264.75" width="12.42" height="4.79"/><rect class="cls-5" x="14.9" y="270.37" width="12.42" height="4.79"/><rect class="cls-5" x="28.07" y="270.37" width="12.42" height="4.79"/><rect class="cls-5" x="41.23" y="270.37" width="12.42" height="4.79"/><rect class="cls-5" x="54.4" y="270.37" width="12.42" height="4.79"/><rect class="cls-5" x="67.57" y="270.37" width="12.42" height="4.79"/><rect class="cls-5" x="80.73" y="270.37" width="12.42" height="4.79"/><rect class="cls-5" x="93.9" y="270.37" width="12.42" height="4.79"/><polyline class="cls-5" points="113.14 275.16 107.06 275.16 107.06 270.37 113.2 270.37"/></g><rect class="cls-7" x="32.04" y="261.5" width="60.12" height="14.52"/><path class="cls-8" d="M35.41,250.53a.79.79,0,0,0,.79.79l3.55.42a.79.79,0,0,0,.79-.79v-2.43a.79.79,0,0,0-.79-.79H36.42a.79.79,0,0,0-.79.79Z"/><path class="cls-8" d="M88.56,250.53a.79.79,0,0,1-.79.79l-3.55.42a.79.79,0,0,1-.79-.79v-2.43a.79.79,0,0,1,.79-.79h3.33a.79.79,0,0,1,.79.79Z"/><ellipse class="cls-7" cx="61.98" cy="270.76" rx="2.49" ry="1.4"/><path class="cls-9" d="M76.69,274.37c0,.91.41,1.64.93,1.64h2.89c.5,0,.91-.74.91-1.64V263.74c0-.91-.4-1.64-.91-1.64H77.62c-.52,0-.93.73-.93,1.64Z"/><path class="cls-9" d="M42.56,274.37c0,.91.41,1.64.92,1.64h2.89c.5,0,.91-.74.91-1.64V263.74c0-.91-.4-1.64-.91-1.64H43.48c-.51,0-.92.73-.92,1.64Z"/><path class="cls-7" d="M41,270a1,1,0,0,0,1,1H82a1,1,0,0,0,1-1h0a1,1,0,0,0-1-1H41.95a1,1,0,0,0-1,1Z"/><polygon class="cls-10" points="39.68 270.55 84.05 270.55 86.84 264.98 84.05 251.73 75.92 240.2 62.16 240.2 47.82 240.2 39.68 251.73 37.12 264.98 39.68 270.55"/><polygon class="cls-11" points="43.31 251.49 53.2 253.63 70.78 253.63 80.66 251.49 75.56 241.56 62.23 241.56 48.79 241.56 43.31 251.49"/><polygon class="cls-8" points="37.65 262.09 42.57 264.55 51.37 264.98 61.98 264.98 72.59 264.98 81.41 264.55 86.31 262.09 86.92 265.62 84.13 270.55 61.98 270.55 39.84 270.55 37.05 265.62 37.65 262.09"/><polygon class="cls-12" points="80.96 263.89 74.37 264.1 72.52 261.94 80.96 260.09 80.96 263.89"/><polygon class="cls-12" points="43.01 263.89 49.61 264.1 51.47 261.94 43.01 260.09 43.01 263.89"/><rect class="cls-13" x="54.04" y="265.62" width="15.89" height="3.21"/><polygon class="cls-8" points="78.97 253.63 81.32 258.33 72.42 260.75 62.06 260.75 72.42 260.09 80.33 257.95 78.97 253.63"/><polygon class="cls-8" points="45 253.63 42.65 258.33 51.55 260.75 61.9 260.75 51.55 260.09 43.63 257.95 45 253.63"/><polygon class="cls-14" points="81.82 260.09 83.86 260.09 84.54 262.49 81.82 263.62 81.82 260.09"/><polygon class="cls-14" points="42.15 260.09 40.11 260.09 39.43 262.49 42.15 263.62 42.15 260.09"/><path class="cls-7" d="M59.48,243h5a.61.61,0,0,1,.61.61v.93a.61.61,0,0,1-.61.61h-5a.6.6,0,0,1-.6-.6v-.94A.61.61,0,0,1,59.48,243Z"/><path class="cls-7" d="M51.86,262.71a.23.23,0,0,0,.23.22H71.88a.23.23,0,0,0,.23-.22h0a.23.23,0,0,0-.23-.23H52.09a.23.23,0,0,0-.23.23Z"/><path class="cls-7" d="M51.86,264.33a.23.23,0,0,0,.23.22H71.88a.23.23,0,0,0,.23-.22h0a.23.23,0,0,0-.23-.23H52.09a.23.23,0,0,0-.23.23Z"/><path class="cls-7" d="M51.86,263.52a.23.23,0,0,0,.23.22H71.88a.23.23,0,0,0,.23-.22h0a.23.23,0,0,0-.23-.23H52.09a.23.23,0,0,0-.23.23Z"/><polygon class="cls-8" points="71.64 254.7 68.69 258.94 68.23 258.94 71.64 254.7"/><polygon class="cls-8" points="52.33 254.7 55.28 258.94 55.73 258.94 52.33 254.7"/><path class="cls-14" d="M52.56,249.15a5.12,5.12,0,0,1,5.06,4.48H56.37a3.89,3.89,0,0,0-3.81-3.3,4,4,0,0,0-3.61,2.38l-1.16-.25A5.12,5.12,0,0,1,52.56,249.15Z"/><rect class="cls-2" x="32.04" y="217.47" width="60.12" height="44.27"/><rect class="cls-14" x="32.04" y="223.5" width="60.12" height="1.94"/><rect class="cls-14" x="32.04" y="226.14" width="60.12" height="1.94"/><rect class="cls-14" x="32.04" y="228.77" width="60.12" height="1.94"/><rect class="cls-14" x="32.04" y="231.41" width="60.12" height="1.94"/><rect class="cls-14" x="32.04" y="234.05" width="60.12" height="1.94"/><rect class="cls-14" x="32.04" y="236.69" width="60.12" height="1.94"/><rect class="cls-14" x="32.04" y="239.33" width="60.12" height="1.94"/><rect class="cls-14" x="32.04" y="241.97" width="60.12" height="1.94"/><rect class="cls-14" x="32.04" y="244.61" width="60.12" height="1.94"/><rect class="cls-14" x="32.04" y="247.24" width="60.12" height="1.94"/><rect class="cls-14" x="32.04" y="249.88" width="60.12" height="1.94"/><rect class="cls-14" x="32.04" y="252.52" width="60.12" height="1.94"/><rect class="cls-14" x="32.04" y="255.16" width="60.12" height="1.94"/><rect class="cls-14" x="32.04" y="257.8" width="60.12" height="1.94"/><rect class="cls-14" x="32.04" y="260.44" width="60.12" height="1.94"/><rect class="cls-14" x="32.04" y="221.05" width="60.12" height="1.94"/><rect class="cls-14" x="32.04" y="218.61" width="60.12" height="1.94"/><rect class="cls-14" x="32.04" y="216.16" width="60.12" height="1.94"/><rect class="cls-15" width="280" height="280"/></g></g></g></svg>