<?xml version="1.0" encoding="utf-8"?>
<!-- Generator: Adobe Illustrator 21.0.0, SVG Export Plug-In . SVG Version: 6.00 Build 0)  -->
<svg version="1.1" id="Capa_1" xmlns="http://www.w3.org/2000/svg" xmlns:xlink="http://www.w3.org/1999/xlink" x="0px" y="0px"
	 viewBox="0 0 248.7 108.9" style="enable-background:new 0 0 248.7 108.9;" xml:space="preserve">
<style type="text/css">
	.st0{fill:none;}
	.st1{fill:#5A9A96;}
	.st2{fill:#CDE5EA;}
	.st3{fill:#ABCDCA;}
	.st4{fill:#7CB3B2;}
	.st5{fill:#F1D441;}
	.st6{fill:#FFFFFF;}
	.st7{fill:#42BB99;}
	.st8{fill:#1CA68D;}
	.st9{fill:#659F9C;}
	.st10{fill:url(#SVGID_1_);}
	.st11{fill:url(#SVGID_2_);}
	.st12{fill:url(#SVGID_3_);}
	.st13{fill:url(#SVGID_4_);}
</style>
<title>Insumo_casa_6</title>
<g id="Capa_2">
	<g id="Layer_1">
		<rect class="st0" width="248.7" height="108.9"/>
		<rect x="64.8" y="71" class="st1" width="124.9" height="12.5"/>
		<path class="st2" d="M186.7,57.7c0-0.3,0.1-0.7,0.1-1V35.7c0.1-5.6-4.3-10.2-9.9-10.3h-105c-5.6,0.1-10,4.8-9.9,10.3v20.9
			c0,0.4,0,0.7,0,1L186.7,57.7z"/>
		<rect x="68.5" y="58.5" class="st3" width="111.6" height="12.6"/>
		<path class="st4" d="M69.5,87.2V53c0-4.2-3.4-7.5-7.5-7.5s-7.5,3.4-7.5,7.5v34.2H69.5z"/>
		<path class="st4" d="M194.3,87.2V53c0-4.2-3.4-7.5-7.5-7.5c-4.2,0-7.5,3.4-7.5,7.5v34.2H194.3z"/>
		<path class="st5" d="M71.9,33.3l21.8-3.2c1.7-0.3,3.2,0.9,3.5,2.6l3,19.9c0.3,1.7-0.9,3.2-2.6,3.5l-21.8,3.2
			c-1.7,0.3-3.2-0.9-3.5-2.6l-3-19.9C69.1,35.1,70.2,33.6,71.9,33.3z"/>
		<path class="st6" d="M97.2,53.8c-0.7,1-2,1.3-3.1,0.7c-1-0.7-1.3-2-0.7-3.1c0.1-0.2,0.2-0.3,0.4-0.5c1.6-1.9,4.6-2,4.6-2
			S98.8,51.9,97.2,53.8z"/>
		<path class="st6" d="M95.9,45.2c-0.7,1-2,1.3-3.1,0.7c-1-0.7-1.3-2-0.7-3.1c0.1-0.2,0.2-0.3,0.4-0.5c1.6-1.9,4.6-2,4.6-2
			S97.5,43.3,95.9,45.2z"/>
		<path class="st6" d="M94.6,36.7c-0.7,1-2,1.3-3.1,0.7c-1-0.7-1.3-2-0.7-3.1c0.1-0.2,0.2-0.3,0.4-0.5c1.6-1.9,4.6-2,4.6-2
			S96.2,34.8,94.6,36.7z"/>
		<path class="st6" d="M91.4,47.3c1.1,0.5,1.7,1.8,1.2,2.9c-0.5,1.1-1.8,1.7-2.9,1.2c-0.2-0.1-0.4-0.2-0.5-0.3
			C87,49.9,86.4,47,86.4,47S89.2,46,91.4,47.3z"/>
		<path class="st6" d="M90.1,38.7c1.1,0.5,1.7,1.8,1.2,2.9c-0.5,1.1-1.8,1.7-2.9,1.2c-0.2-0.1-0.4-0.2-0.5-0.3
			c-2.2-1.2-2.8-4.2-2.8-4.2S88,37.5,90.1,38.7z"/>
		<path class="st6" d="M84.4,31.5c0.5,1,1.2,1.9,2.2,2.5c1,0.7,2.4,0.5,3.1-0.4c0.7-0.9,0.6-2.1-0.2-2.9L84.4,31.5z"/>
		
			<rect x="91.7" y="30.5" transform="matrix(0.9891 -0.1471 0.1471 0.9891 -5.4182 13.9978)" class="st6" width="0.4" height="26.3"/>
		<path class="st6" d="M72.1,34.2c0.7-1,2-1.4,3.1-0.7c1,0.7,1.4,2,0.7,3.1c-0.1,0.2-0.3,0.3-0.4,0.5c-1.6,1.9-4.6,2-4.6,2
			S70.5,36,72.1,34.2z"/>
		<path class="st6" d="M73.4,42.7c0.7-1,2-1.3,3.1-0.7c1,0.7,1.3,2,0.7,3.1c-0.1,0.2-0.2,0.3-0.4,0.5c-1.6,1.9-4.6,2-4.6,2
			S71.8,44.6,73.4,42.7z"/>
		<path class="st6" d="M74.7,51.2c0.7-1,2-1.3,3.1-0.7c1,0.7,1.3,2,0.7,3.1c-0.1,0.2-0.2,0.3-0.4,0.5c-1.6,1.9-4.6,2-4.6,2
			S73.1,53.1,74.7,51.2z"/>
		<path class="st6" d="M77.9,40.6c-1.1-0.5-1.7-1.8-1.2-2.9c0.5-1.1,1.8-1.7,2.9-1.2c0.2,0.1,0.4,0.2,0.5,0.3
			c2.2,1.2,2.8,4.2,2.8,4.2S80,41.9,77.9,40.6z"/>
		<path class="st6" d="M79.2,49.2c-1.1-0.5-1.7-1.8-1.2-2.9c0.5-1.1,1.8-1.7,2.9-1.2c0.2,0.1,0.4,0.2,0.5,0.3
			c2.2,1.2,2.8,4.2,2.8,4.2S81.3,50.4,79.2,49.2z"/>
		<path class="st6" d="M80.4,57.7c0.6,0.3,1.3,0.5,1.9,0.6l3-0.5c-0.4-1.6-1.4-3-2.7-4c-1-0.8-2.4-0.6-3.1,0.4
			c-0.8,1-0.6,2.4,0.4,3.1C80.1,57.5,80.3,57.6,80.4,57.7L80.4,57.7z"/>
		
			<rect x="77.4" y="32.6" transform="matrix(0.9891 -0.1471 0.1471 0.9891 -5.8879 11.9141)" class="st6" width="0.4" height="26.3"/>
		<circle class="st7" cx="99.4" cy="51.1" r="7"/>
		<circle class="st8" cx="99.4" cy="51.1" r="0.5"/>
		<path class="st8" d="M94.5,51.1c0,0-0.5,0.9-1,0.9s-1-0.9-1-0.9s0.5-0.9,1-0.9S94.5,51.1,94.5,51.1z"/>
		<path class="st8" d="M98.7,51.1c0,0-0.5,0.9-1,0.9s-1-0.9-1-0.9s0.5-0.9,1-0.9S98.7,51.1,98.7,51.1z"/>
		<path class="st8" d="M102.2,51c0,0-0.5,0.9-1,0.9s-1-0.9-1-0.9s0.5-0.9,1-0.9S102.2,51,102.2,51z"/>
		<path class="st8" d="M106.3,51c0,0-0.5,0.9-1,0.9s-1-0.9-1-0.9s0.5-0.9,1-0.9S106.3,51,106.3,51z"/>
		<path class="st8" d="M104.3,46.2c0,0,0.3,1-0.1,1.4s-1.4,0.1-1.4,0.1s-0.3-1,0.1-1.4S104.3,46.2,104.3,46.2z"/>
		<path class="st8" d="M94.5,46.2c0,0-0.3,1,0.1,1.4s1.4,0.1,1.4,0.1s0.3-1-0.1-1.4S94.5,46.2,94.5,46.2z"/>
		<path class="st8" d="M103.3,54c0,0-0.3,1,0.1,1.4s1.4,0.1,1.4,0.1s0.3-1-0.1-1.4S103.3,54,103.3,54z"/>
		<path class="st8" d="M102.5,52.2c0,0,0.1,1,0.7,1.2s1.3-0.5,1.3-0.5s-0.1-1-0.7-1.2S102.5,52.2,102.5,52.2z"/>
		<path class="st8" d="M100.8,53.5c0,0-0.6,0.8-0.4,1.3s1.3,0.5,1.3,0.5s0.6-0.8,0.4-1.3S100.8,53.5,100.8,53.5z"/>
		<path class="st8" d="M97.2,46.4c0,0-0.6,0.8-0.4,1.3s1.3,0.5,1.3,0.5s0.6-0.8,0.4-1.3S97.2,46.4,97.2,46.4z"/>
		<path class="st8" d="M94.5,49c0,0,0.1,1,0.7,1.2s1.3-0.5,1.3-0.5s-0.1-1-0.7-1.2S94.5,49,94.5,49z"/>
		<path class="st8" d="M97.4,55.9c0,0,1,0,1.3-0.5S98.3,54,98.3,54s-1,0-1.3,0.5S97.4,55.9,97.4,55.9z"/>
		<path class="st8" d="M100.5,48.2c0,0,1,0,1.3-0.5s-0.4-1.3-0.4-1.3s-1,0-1.3,0.5S100.5,48.2,100.5,48.2z"/>
		<path class="st8" d="M102.2,49.7c0,0,0.7,0.7,1.3,0.5s0.7-1.2,0.7-1.2s-0.7-0.7-1.3-0.5S102.2,49.7,102.2,49.7z"/>
		<path class="st8" d="M94.8,53.1c0,0,0.7,0.7,1.3,0.5s0.7-1.2,0.7-1.2s-0.7-0.7-1.3-0.5S94.8,53.1,94.8,53.1z"/>
		<path class="st8" d="M96,54.6c0,0,0.3,1-0.1,1.4s-1.4,0.1-1.4,0.1s-0.3-1,0.1-1.4S96,54.6,96,54.6z"/>
		<path class="st8" d="M99.4,48.3c0,0,0.9,0.5,0.9,1s-0.9,1-0.9,1s-0.9-0.5-0.9-1S99.4,48.3,99.4,48.3z"/>
		<path class="st8" d="M99.4,44.1c0,0,0.9,0.5,0.9,1s-0.9,1-0.9,1s-0.9-0.5-0.9-1S99.4,44.1,99.4,44.1z"/>
		<path class="st8" d="M99.4,56c0,0,0.9,0.5,0.9,1s-0.9,1-0.9,1s-0.9-0.5-0.9-1S99.4,56,99.4,56z"/>
		<path class="st8" d="M99.4,51.8c0,0,0.9,0.5,0.9,1s-0.9,1-0.9,1s-0.9-0.5-0.9-1S99.4,51.8,99.4,51.8z"/>
		<circle class="st9" cx="160.9" cy="41.9" r="1.8"/>
		
			<linearGradient id="SVGID_1_" gradientUnits="userSpaceOnUse" x1="161" y1="63.97" x2="161" y2="67.8" gradientTransform="matrix(1 0 0 -1 0 110)">
			<stop  offset="0" style="stop-color:#FFFFFF;stop-opacity:0"/>
			<stop  offset="0" style="stop-color:#F8FBFB;stop-opacity:3.000000e-02"/>
			<stop  offset="0.69" style="stop-color:#6EA4A1;stop-opacity:0.95"/>
			<stop  offset="1" style="stop-color:#659F9C"/>
		</linearGradient>
		<polyline class="st10" points="157.2,46 161,42.2 164.8,46 		"/>
		
			<linearGradient id="SVGID_2_" gradientUnits="userSpaceOnUse" x1="2059.3301" y1="-9810.7002" x2="2059.3301" y2="-9806.8701" gradientTransform="matrix(-1 0 0 1 2220.27 9848.8604)">
			<stop  offset="0" style="stop-color:#FFFFFF;stop-opacity:0"/>
			<stop  offset="0" style="stop-color:#F8FBFB;stop-opacity:3.000000e-02"/>
			<stop  offset="0.69" style="stop-color:#6EA4A1;stop-opacity:0.95"/>
			<stop  offset="1" style="stop-color:#659F9C"/>
		</linearGradient>
		<polyline class="st11" points="164.8,38.2 160.9,42 157.1,38.2 		"/>
		<circle class="st9" cx="125.6" cy="41.9" r="1.8"/>
		
			<linearGradient id="SVGID_3_" gradientUnits="userSpaceOnUse" x1="125.73" y1="63.97" x2="125.73" y2="67.8" gradientTransform="matrix(1 0 0 -1 0 110)">
			<stop  offset="0" style="stop-color:#FFFFFF;stop-opacity:0"/>
			<stop  offset="0" style="stop-color:#F8FBFB;stop-opacity:3.000000e-02"/>
			<stop  offset="0.69" style="stop-color:#6EA4A1;stop-opacity:0.95"/>
			<stop  offset="1" style="stop-color:#659F9C"/>
		</linearGradient>
		<polyline class="st12" points="121.9,46 125.7,42.2 129.6,46 		"/>
		
			<linearGradient id="SVGID_4_" gradientUnits="userSpaceOnUse" x1="2094.6101" y1="-9810.7002" x2="2094.6101" y2="-9806.8701" gradientTransform="matrix(-1 0 0 1 2220.27 9848.8604)">
			<stop  offset="0" style="stop-color:#FFFFFF;stop-opacity:0"/>
			<stop  offset="0" style="stop-color:#F8FBFB;stop-opacity:3.000000e-02"/>
			<stop  offset="0.69" style="stop-color:#6EA4A1;stop-opacity:0.95"/>
			<stop  offset="1" style="stop-color:#659F9C"/>
		</linearGradient>
		<polyline class="st13" points="129.5,38.2 125.7,42 121.8,38.2 		"/>
	</g>
</g>
</svg>
