<svg xmlns="http://www.w3.org/2000/svg" viewBox="0 0 280 280"><defs><style>.cls-1{fill:none;}.cls-2,.cls-5{fill:#363339;}.cls-2,.cls-4,.cls-7{fill-rule:evenodd;}.cls-3,.cls-7{fill:#f8a563;}.cls-4,.cls-8{fill:#f48020;}.cls-6{fill:#504e52;}.cls-9{fill:#93c83f;}.cls-10{fill:#2dbbae;}</style></defs><title>casa_cama</title><g id="Capa_2" data-name="Capa 2"><g id="Layer_1" data-name="Layer 1"><rect class="cls-1" width="280" height="280"/><path class="cls-2" d="M31.66,15.9h27.7a5.19,5.19,0,0,1,5.17,5.17v7.14H26V21.52A5.64,5.64,0,0,1,31.66,15.9Z"/><rect class="cls-3" x="16.1" y="37.81" width="59.88" height="10.17" rx="1.7" ry="1.7"/><polygon class="cls-4" points="64.43 25.89 26.04 25.8 17.29 38.21 74.9 38.11 64.43 25.89"/><rect class="cls-5" x="15.19" y="45.68" width="62.19" height="4.98" rx="0.59" ry="0.59"/><rect class="cls-6" x="17.41" y="48.22" width="3.92" height="4.98" rx="0.46" ry="0.46"/><rect class="cls-6" x="71.07" y="48.27" width="3.93" height="4.98" rx="0.46" ry="0.46"/><polygon class="cls-7" points="43.62 25.89 24.6 27.65 22.19 31.07 69.23 31.07 66.11 27.6 45.78 25.89 43.62 25.89"/><rect class="cls-8" x="23.34" y="22.47" width="21.44" height="5.94" rx="1.98" ry="1.98"/><rect class="cls-8" x="45.76" y="22.47" width="21.43" height="5.94" rx="1.98" ry="1.98"/><rect class="cls-9" x="28.43" y="20.75" width="12.08" height="8.45" rx="2.01" ry="2.01"/><rect class="cls-10" x="49.76" y="20.95" width="12.08" height="8.45" rx="2.01" ry="2.01"/></g></g></svg>