<svg xmlns="http://www.w3.org/2000/svg" viewBox="0 0 280 280"><defs><style>.cls-1{isolation:isolate;}.cls-2{fill:#dabd94;}.cls-3{fill:#c6a67e;}.cls-4{opacity:0.35;mix-blend-mode:multiply;}.cls-5,.cls-6,.cls-8{fill:none;}.cls-5,.cls-6{stroke:#5e4b33;stroke-miterlimit:10;}.cls-5{stroke-width:0.41px;}.cls-6{stroke-width:0.41px;}.cls-7{fill:#216f74;}</style></defs><title>casa_paredes</title><g class="cls-1"><g id="Capa_2" data-name="Capa 2"><g id="Layer_1" data-name="Layer 1"><rect class="cls-2" x="113.54" y="210.51" width="159.23" height="64.74"/><rect class="cls-2" x="113.54" y="153.43" width="159.23" height="56.23"/><rect class="cls-3" x="113.54" y="153.43" width="159.23" height="6.87"/><g class="cls-4"><rect class="cls-5" x="114.55" y="153.97" width="12.42" height="4.79"/><rect class="cls-5" x="127.72" y="153.97" width="12.42" height="4.79"/><rect class="cls-5" x="140.89" y="153.97" width="12.42" height="4.79"/><rect class="cls-5" x="154.05" y="153.97" width="12.42" height="4.79"/><rect class="cls-5" x="167.22" y="153.97" width="12.42" height="4.79"/><rect class="cls-5" x="180.39" y="153.97" width="12.42" height="4.79"/><rect class="cls-5" x="193.55" y="153.97" width="12.42" height="4.79"/><rect class="cls-5" x="206.72" y="153.97" width="12.42" height="4.79"/><rect class="cls-5" x="219.88" y="153.97" width="12.42" height="4.79"/><rect class="cls-5" x="233.05" y="153.97" width="12.42" height="4.79"/><rect class="cls-5" x="246.22" y="153.97" width="12.42" height="4.79"/><rect class="cls-5" x="259.38" y="153.97" width="12.42" height="4.79"/><rect class="cls-5" x="120.88" y="159.6" width="12.42" height="4.79"/><rect class="cls-5" x="134.04" y="159.6" width="12.42" height="4.79"/><rect class="cls-5" x="147.21" y="159.6" width="12.42" height="4.79"/><rect class="cls-5" x="160.38" y="159.6" width="12.42" height="4.79"/><rect class="cls-5" x="173.54" y="159.6" width="12.42" height="4.79"/><rect class="cls-5" x="186.71" y="159.6" width="12.42" height="4.79"/><rect class="cls-5" x="199.88" y="159.6" width="12.42" height="4.79"/><rect class="cls-5" x="213.04" y="159.6" width="12.42" height="4.79"/><rect class="cls-5" x="226.21" y="159.6" width="12.42" height="4.79"/><rect class="cls-5" x="239.37" y="159.6" width="12.42" height="4.79"/><rect class="cls-5" x="252.54" y="159.6" width="12.42" height="4.79"/><polyline class="cls-5" points="271.79 164.39 265.71 164.39 265.71 159.6 271.85 159.6"/><polyline class="cls-6" points="114.39 159.6 120.27 159.6 120.27 164.39 114.33 164.39"/><rect class="cls-5" x="114.55" y="165.03" width="12.42" height="4.79"/><rect class="cls-5" x="127.72" y="165.03" width="12.42" height="4.79"/><rect class="cls-5" x="140.89" y="165.03" width="12.42" height="4.79"/><rect class="cls-5" x="154.05" y="165.03" width="12.42" height="4.79"/><rect class="cls-5" x="167.22" y="165.03" width="12.42" height="4.79"/><rect class="cls-5" x="180.39" y="165.03" width="12.42" height="4.79"/><rect class="cls-5" x="193.55" y="165.03" width="12.42" height="4.79"/><rect class="cls-5" x="206.72" y="165.03" width="12.42" height="4.79"/><rect class="cls-5" x="219.88" y="165.03" width="12.42" height="4.79"/><rect class="cls-5" x="233.05" y="165.03" width="12.42" height="4.79"/><rect class="cls-5" x="246.22" y="165.03" width="12.42" height="4.79"/><rect class="cls-5" x="259.38" y="165.03" width="12.42" height="4.79"/><rect class="cls-5" x="120.88" y="170.66" width="12.42" height="4.79"/><rect class="cls-5" x="134.04" y="170.66" width="12.42" height="4.79"/><rect class="cls-5" x="147.21" y="170.66" width="12.42" height="4.79"/><rect class="cls-5" x="160.38" y="170.66" width="12.42" height="4.79"/><rect class="cls-5" x="173.54" y="170.66" width="12.42" height="4.79"/><rect class="cls-5" x="186.71" y="170.66" width="12.42" height="4.79"/><rect class="cls-5" x="199.88" y="170.66" width="12.42" height="4.79"/><rect class="cls-5" x="213.04" y="170.66" width="12.42" height="4.79"/><rect class="cls-5" x="226.21" y="170.66" width="12.42" height="4.79"/><rect class="cls-5" x="239.37" y="170.66" width="12.42" height="4.79"/><rect class="cls-5" x="252.54" y="170.66" width="12.42" height="4.79"/><polyline class="cls-5" points="271.79 175.45 265.71 175.45 265.71 170.66 271.85 170.66"/><polyline class="cls-6" points="114.39 170.65 120.27 170.65 120.27 175.44 114.33 175.44"/><rect class="cls-5" x="114.55" y="176.09" width="12.42" height="4.79"/><rect class="cls-5" x="127.72" y="176.09" width="12.42" height="4.79"/><rect class="cls-5" x="140.89" y="176.09" width="12.42" height="4.79"/><rect class="cls-5" x="154.05" y="176.09" width="12.42" height="4.79"/><rect class="cls-5" x="167.22" y="176.09" width="12.42" height="4.79"/><rect class="cls-5" x="180.39" y="176.09" width="12.42" height="4.79"/><rect class="cls-5" x="193.55" y="176.09" width="12.42" height="4.79"/><rect class="cls-5" x="206.72" y="176.09" width="12.42" height="4.79"/><rect class="cls-5" x="219.88" y="176.09" width="12.42" height="4.79"/><rect class="cls-5" x="233.05" y="176.09" width="12.42" height="4.79"/><rect class="cls-5" x="246.22" y="176.09" width="12.42" height="4.79"/><rect class="cls-5" x="259.38" y="176.09" width="12.42" height="4.79"/><rect class="cls-5" x="120.88" y="181.72" width="12.42" height="4.79"/><rect class="cls-5" x="134.04" y="181.72" width="12.42" height="4.79"/><rect class="cls-5" x="147.21" y="181.72" width="12.42" height="4.79"/><rect class="cls-5" x="160.38" y="181.72" width="12.42" height="4.79"/><rect class="cls-5" x="173.54" y="181.72" width="12.42" height="4.79"/><rect class="cls-5" x="186.71" y="181.72" width="12.42" height="4.79"/><rect class="cls-5" x="199.88" y="181.72" width="12.42" height="4.79"/><rect class="cls-5" x="213.04" y="181.72" width="12.42" height="4.79"/><rect class="cls-5" x="226.21" y="181.72" width="12.42" height="4.79"/><rect class="cls-5" x="239.37" y="181.72" width="12.42" height="4.79"/><rect class="cls-5" x="252.54" y="181.72" width="12.42" height="4.79"/><polyline class="cls-5" points="271.79 186.51 265.71 186.51 265.71 181.72 271.85 181.72"/><polyline class="cls-6" points="114.39 181.71 120.27 181.71 120.27 186.5 114.33 186.5"/><rect class="cls-5" x="114.55" y="187.15" width="12.42" height="4.79"/><rect class="cls-5" x="127.72" y="187.15" width="12.42" height="4.79"/><rect class="cls-5" x="140.89" y="187.15" width="12.42" height="4.79"/><rect class="cls-5" x="154.05" y="187.15" width="12.42" height="4.79"/><rect class="cls-5" x="167.22" y="187.15" width="12.42" height="4.79"/><rect class="cls-5" x="180.39" y="187.15" width="12.42" height="4.79"/><rect class="cls-5" x="193.55" y="187.15" width="12.42" height="4.79"/><rect class="cls-5" x="206.72" y="187.15" width="12.42" height="4.79"/><rect class="cls-5" x="219.88" y="187.15" width="12.42" height="4.79"/><rect class="cls-5" x="233.05" y="187.15" width="12.42" height="4.79"/><rect class="cls-5" x="246.22" y="187.15" width="12.42" height="4.79"/><rect class="cls-5" x="259.38" y="187.15" width="12.42" height="4.79"/><rect class="cls-5" x="120.88" y="192.77" width="12.42" height="4.79"/><rect class="cls-5" x="134.04" y="192.77" width="12.42" height="4.79"/><rect class="cls-5" x="147.21" y="192.77" width="12.42" height="4.79"/><rect class="cls-5" x="160.38" y="192.77" width="12.42" height="4.79"/><rect class="cls-5" x="173.54" y="192.77" width="12.42" height="4.79"/><rect class="cls-5" x="186.71" y="192.77" width="12.42" height="4.79"/><rect class="cls-5" x="199.88" y="192.77" width="12.42" height="4.79"/><rect class="cls-5" x="213.04" y="192.77" width="12.42" height="4.79"/><rect class="cls-5" x="226.21" y="192.77" width="12.42" height="4.79"/><rect class="cls-5" x="239.37" y="192.77" width="12.42" height="4.79"/><rect class="cls-5" x="252.54" y="192.77" width="12.42" height="4.79"/><polyline class="cls-5" points="271.79 197.56 265.71 197.56 265.71 192.77 271.85 192.77"/><polyline class="cls-6" points="114.39 192.77 120.27 192.77 120.27 197.56 114.33 197.56"/><rect class="cls-5" x="114.55" y="198.2" width="12.42" height="4.79"/><rect class="cls-5" x="127.72" y="198.2" width="12.42" height="4.79"/><rect class="cls-5" x="140.89" y="198.2" width="12.42" height="4.79"/><rect class="cls-5" x="154.05" y="198.2" width="12.42" height="4.79"/><rect class="cls-5" x="167.22" y="198.2" width="12.42" height="4.79"/><rect class="cls-5" x="180.39" y="198.2" width="12.42" height="4.79"/><rect class="cls-5" x="193.55" y="198.2" width="12.42" height="4.79"/><rect class="cls-5" x="206.72" y="198.2" width="12.42" height="4.79"/><rect class="cls-5" x="219.88" y="198.2" width="12.42" height="4.79"/><rect class="cls-5" x="233.05" y="198.2" width="12.42" height="4.79"/><rect class="cls-5" x="246.22" y="198.2" width="12.42" height="4.79"/><rect class="cls-5" x="259.38" y="198.2" width="12.42" height="4.79"/><rect class="cls-5" x="120.88" y="203.83" width="12.42" height="4.79"/><rect class="cls-5" x="134.04" y="203.83" width="12.42" height="4.79"/><rect class="cls-5" x="147.21" y="203.83" width="12.42" height="4.79"/><rect class="cls-5" x="160.38" y="203.83" width="12.42" height="4.79"/><rect class="cls-5" x="173.54" y="203.83" width="12.42" height="4.79"/><rect class="cls-5" x="186.71" y="203.83" width="12.42" height="4.79"/><rect class="cls-5" x="199.88" y="203.83" width="12.42" height="4.79"/><rect class="cls-5" x="213.04" y="203.83" width="12.42" height="4.79"/><rect class="cls-5" x="226.21" y="203.83" width="12.42" height="4.79"/><rect class="cls-5" x="239.37" y="203.83" width="12.42" height="4.79"/><rect class="cls-5" x="252.54" y="203.83" width="12.42" height="4.79"/><polyline class="cls-5" points="271.79 208.62 265.71 208.62 265.71 203.83 271.85 203.83"/><polyline class="cls-6" points="114.39 203.82 120.27 203.82 120.27 208.62 114.33 208.62"/><rect class="cls-5" x="114.55" y="209.26" width="12.42" height="4.79"/><rect class="cls-5" x="127.72" y="209.26" width="12.42" height="4.79"/><rect class="cls-5" x="140.89" y="209.26" width="12.42" height="4.79"/><rect class="cls-5" x="154.05" y="209.26" width="12.42" height="4.79"/><rect class="cls-5" x="167.22" y="209.26" width="12.42" height="4.79"/><rect class="cls-5" x="180.39" y="209.26" width="12.42" height="4.79"/><rect class="cls-5" x="193.55" y="209.26" width="12.42" height="4.79"/><rect class="cls-5" x="206.72" y="209.26" width="12.42" height="4.79"/><rect class="cls-5" x="219.88" y="209.26" width="12.42" height="4.79"/><rect class="cls-5" x="233.05" y="209.26" width="12.42" height="4.79"/><rect class="cls-5" x="246.22" y="209.26" width="12.42" height="4.79"/><rect class="cls-5" x="259.38" y="209.26" width="12.42" height="4.79"/><rect class="cls-5" x="120.88" y="214.89" width="12.42" height="4.79"/><rect class="cls-5" x="134.04" y="214.89" width="12.42" height="4.79"/><rect class="cls-5" x="147.21" y="214.89" width="12.42" height="4.79"/><rect class="cls-5" x="160.38" y="214.89" width="12.42" height="4.79"/><rect class="cls-5" x="173.54" y="214.89" width="12.42" height="4.79"/><rect class="cls-5" x="186.71" y="214.89" width="12.42" height="4.79"/><rect class="cls-5" x="199.88" y="214.89" width="12.42" height="4.79"/><rect class="cls-5" x="213.04" y="214.89" width="12.42" height="4.79"/><rect class="cls-5" x="226.21" y="214.89" width="12.42" height="4.79"/><rect class="cls-5" x="239.37" y="214.89" width="12.42" height="4.79"/><rect class="cls-5" x="252.54" y="214.89" width="12.42" height="4.79"/><polyline class="cls-5" points="271.79 219.68 265.71 219.68 265.71 214.89 271.85 214.89"/><polyline class="cls-6" points="114.39 214.88 120.27 214.88 120.27 219.67 114.33 219.67"/><rect class="cls-5" x="114.55" y="220.32" width="12.42" height="4.79"/><rect class="cls-5" x="127.72" y="220.32" width="12.42" height="4.79"/><rect class="cls-5" x="140.89" y="220.32" width="12.42" height="4.79"/><rect class="cls-5" x="154.05" y="220.32" width="12.42" height="4.79"/><rect class="cls-5" x="167.22" y="220.32" width="12.42" height="4.79"/><rect class="cls-5" x="180.39" y="220.32" width="12.42" height="4.79"/><rect class="cls-5" x="193.55" y="220.32" width="12.42" height="4.79"/><rect class="cls-5" x="206.72" y="220.32" width="12.42" height="4.79"/><rect class="cls-5" x="219.88" y="220.32" width="12.42" height="4.79"/><rect class="cls-5" x="233.05" y="220.32" width="12.42" height="4.79"/><rect class="cls-5" x="246.22" y="220.32" width="12.42" height="4.79"/><rect class="cls-5" x="259.38" y="220.32" width="12.42" height="4.79"/><rect class="cls-5" x="120.88" y="225.94" width="12.42" height="4.79"/><rect class="cls-5" x="134.04" y="225.94" width="12.42" height="4.79"/><rect class="cls-5" x="147.21" y="225.94" width="12.42" height="4.79"/><rect class="cls-5" x="160.38" y="225.94" width="12.42" height="4.79"/><rect class="cls-5" x="173.54" y="225.94" width="12.42" height="4.79"/><rect class="cls-5" x="186.71" y="225.94" width="12.42" height="4.79"/><rect class="cls-5" x="199.88" y="225.94" width="12.42" height="4.79"/><rect class="cls-5" x="213.04" y="225.94" width="12.42" height="4.79"/><rect class="cls-5" x="226.21" y="225.94" width="12.42" height="4.79"/><rect class="cls-5" x="239.37" y="225.94" width="12.42" height="4.79"/><rect class="cls-5" x="252.54" y="225.94" width="12.42" height="4.79"/><polyline class="cls-5" points="271.79 230.73 265.71 230.73 265.71 225.94 271.85 225.94"/><polyline class="cls-6" points="114.39 225.94 120.27 225.94 120.27 230.73 114.33 230.73"/><rect class="cls-5" x="114.55" y="231.37" width="12.42" height="4.79"/><rect class="cls-5" x="127.72" y="231.37" width="12.42" height="4.79"/><rect class="cls-5" x="140.89" y="231.37" width="12.42" height="4.79"/><rect class="cls-5" x="154.05" y="231.37" width="12.42" height="4.79"/><rect class="cls-5" x="167.22" y="231.37" width="12.42" height="4.79"/><rect class="cls-5" x="180.39" y="231.37" width="12.42" height="4.79"/><rect class="cls-5" x="193.55" y="231.37" width="12.42" height="4.79"/><rect class="cls-5" x="206.72" y="231.37" width="12.42" height="4.79"/><rect class="cls-5" x="219.88" y="231.37" width="12.42" height="4.79"/><rect class="cls-5" x="233.05" y="231.37" width="12.42" height="4.79"/><rect class="cls-5" x="246.22" y="231.37" width="12.42" height="4.79"/><rect class="cls-5" x="259.38" y="231.37" width="12.42" height="4.79"/><rect class="cls-5" x="120.88" y="237" width="12.42" height="4.79"/><rect class="cls-5" x="134.04" y="237" width="12.42" height="4.79"/><rect class="cls-5" x="147.21" y="237" width="12.42" height="4.79"/><rect class="cls-5" x="160.38" y="237" width="12.42" height="4.79"/><rect class="cls-5" x="173.54" y="237" width="12.42" height="4.79"/><rect class="cls-5" x="186.71" y="237" width="12.42" height="4.79"/><rect class="cls-5" x="199.88" y="237" width="12.42" height="4.79"/><rect class="cls-5" x="213.04" y="237" width="12.42" height="4.79"/><rect class="cls-5" x="226.21" y="237" width="12.42" height="4.79"/><rect class="cls-5" x="239.37" y="237" width="12.42" height="4.79"/><rect class="cls-5" x="252.54" y="237" width="12.42" height="4.79"/><polyline class="cls-5" points="271.79 241.79 265.71 241.79 265.71 237 271.85 237"/><polyline class="cls-6" points="114.39 237 120.27 237 120.27 241.79 114.33 241.79"/><rect class="cls-5" x="114.55" y="242.43" width="12.42" height="4.79"/><rect class="cls-5" x="127.72" y="242.43" width="12.42" height="4.79"/><rect class="cls-5" x="140.89" y="242.43" width="12.42" height="4.79"/><rect class="cls-5" x="154.05" y="242.43" width="12.42" height="4.79"/><rect class="cls-5" x="167.22" y="242.43" width="12.42" height="4.79"/><rect class="cls-5" x="180.39" y="242.43" width="12.42" height="4.79"/><rect class="cls-5" x="193.55" y="242.43" width="12.42" height="4.79"/><rect class="cls-5" x="206.72" y="242.43" width="12.42" height="4.79"/><rect class="cls-5" x="219.88" y="242.43" width="12.42" height="4.79"/><rect class="cls-5" x="233.05" y="242.43" width="12.42" height="4.79"/><rect class="cls-5" x="246.22" y="242.43" width="12.42" height="4.79"/><rect class="cls-5" x="259.38" y="242.43" width="12.42" height="4.79"/><rect class="cls-5" x="120.88" y="248.06" width="12.42" height="4.79"/><rect class="cls-5" x="134.04" y="248.06" width="12.42" height="4.79"/><rect class="cls-5" x="147.21" y="248.06" width="12.42" height="4.79"/><rect class="cls-5" x="160.38" y="248.06" width="12.42" height="4.79"/><rect class="cls-5" x="173.54" y="248.06" width="12.42" height="4.79"/><rect class="cls-5" x="186.71" y="248.06" width="12.42" height="4.79"/><rect class="cls-5" x="199.88" y="248.06" width="12.42" height="4.79"/><rect class="cls-5" x="213.04" y="248.06" width="12.42" height="4.79"/><rect class="cls-5" x="226.21" y="248.06" width="12.42" height="4.79"/><rect class="cls-5" x="239.37" y="248.06" width="12.42" height="4.79"/><rect class="cls-5" x="252.54" y="248.06" width="12.42" height="4.79"/><polyline class="cls-5" points="271.79 252.85 265.71 252.85 265.71 248.06 271.85 248.06"/><polyline class="cls-6" points="114.39 248.05 120.27 248.05 120.27 252.84 114.33 252.84"/><rect class="cls-5" x="114.55" y="253.49" width="12.42" height="4.79"/><rect class="cls-5" x="127.72" y="253.49" width="12.42" height="4.79"/><rect class="cls-5" x="140.89" y="253.49" width="12.42" height="4.79"/><rect class="cls-5" x="154.05" y="253.49" width="12.42" height="4.79"/><rect class="cls-5" x="167.22" y="253.49" width="12.42" height="4.79"/><rect class="cls-5" x="180.39" y="253.49" width="12.42" height="4.79"/><rect class="cls-5" x="193.55" y="253.49" width="12.42" height="4.79"/><rect class="cls-5" x="206.72" y="253.49" width="12.42" height="4.79"/><rect class="cls-5" x="219.88" y="253.49" width="12.42" height="4.79"/><rect class="cls-5" x="233.05" y="253.49" width="12.42" height="4.79"/><rect class="cls-5" x="246.22" y="253.49" width="12.42" height="4.79"/><rect class="cls-5" x="259.38" y="253.49" width="12.42" height="4.79"/><rect class="cls-5" x="120.88" y="259.11" width="12.42" height="4.79"/><rect class="cls-5" x="134.04" y="259.11" width="12.42" height="4.79"/><rect class="cls-5" x="147.21" y="259.11" width="12.42" height="4.79"/><rect class="cls-5" x="160.38" y="259.11" width="12.42" height="4.79"/><rect class="cls-5" x="173.54" y="259.11" width="12.42" height="4.79"/><rect class="cls-5" x="186.71" y="259.11" width="12.42" height="4.79"/><rect class="cls-5" x="199.88" y="259.11" width="12.42" height="4.79"/><rect class="cls-5" x="213.04" y="259.11" width="12.42" height="4.79"/><rect class="cls-5" x="226.21" y="259.11" width="12.42" height="4.79"/><rect class="cls-5" x="239.37" y="259.11" width="12.42" height="4.79"/><rect class="cls-5" x="252.54" y="259.11" width="12.42" height="4.79"/><polyline class="cls-5" points="271.79 263.9 265.71 263.9 265.71 259.11 271.85 259.11"/><polyline class="cls-6" points="114.39 259.11 120.27 259.11 120.27 263.9 114.33 263.9"/><rect class="cls-5" x="114.55" y="264.54" width="12.42" height="4.79"/><rect class="cls-5" x="127.72" y="264.54" width="12.42" height="4.79"/><rect class="cls-5" x="140.89" y="264.54" width="12.42" height="4.79"/><rect class="cls-5" x="154.05" y="264.54" width="12.42" height="4.79"/><rect class="cls-5" x="167.22" y="264.54" width="12.42" height="4.79"/><rect class="cls-5" x="180.39" y="264.54" width="12.42" height="4.79"/><rect class="cls-5" x="193.55" y="264.54" width="12.42" height="4.79"/><rect class="cls-5" x="206.72" y="264.54" width="12.42" height="4.79"/><rect class="cls-5" x="219.88" y="264.54" width="12.42" height="4.79"/><rect class="cls-5" x="233.05" y="264.54" width="12.42" height="4.79"/><rect class="cls-5" x="246.22" y="264.54" width="12.42" height="4.79"/><rect class="cls-5" x="259.38" y="264.54" width="12.42" height="4.79"/><rect class="cls-5" x="120.88" y="270.17" width="12.42" height="4.79"/><rect class="cls-5" x="134.04" y="270.17" width="12.42" height="4.79"/><rect class="cls-5" x="147.21" y="270.17" width="12.42" height="4.79"/><rect class="cls-5" x="160.38" y="270.17" width="12.42" height="4.79"/><rect class="cls-5" x="173.54" y="270.17" width="12.42" height="4.79"/><rect class="cls-5" x="186.71" y="270.17" width="12.42" height="4.79"/><rect class="cls-5" x="199.88" y="270.17" width="12.42" height="4.79"/><rect class="cls-5" x="213.04" y="270.17" width="12.42" height="4.79"/><rect class="cls-5" x="226.21" y="270.17" width="12.42" height="4.79"/><rect class="cls-5" x="239.37" y="270.17" width="12.42" height="4.79"/><rect class="cls-5" x="252.54" y="270.17" width="12.42" height="4.79"/><polyline class="cls-5" points="271.79 274.96 265.71 274.96 265.71 270.17 271.85 270.17"/><polyline class="cls-6" points="114.39 270.17 120.27 270.17 120.27 274.96 114.33 274.96"/></g><rect class="cls-7" x="113.51" y="207.76" width="159.23" height="3.59"/><rect class="cls-8" width="280" height="280"/></g></g></g></svg>