<?xml version="1.0" encoding="utf-8"?>
<!-- Generator: Adobe Illustrator 21.0.0, SVG Export Plug-In . SVG Version: 6.00 Build 0)  -->
<svg version="1.1" id="Capa_1" xmlns="http://www.w3.org/2000/svg" xmlns:xlink="http://www.w3.org/1999/xlink" x="0px" y="0px"
	 viewBox="0 0 280 280" style="enable-background:new 0 0 280 280;" xml:space="preserve">
<style type="text/css">
	.st0{fill:none;stroke:#5E4B33;stroke-width:0.41;stroke-miterlimit:10;}
	.st1{fill:#484147;}
	.st2{fill:#6D8739;}
	.st3{fill:#231F20;}
	.st4{fill:#8EB140;}
	.st5{fill:#9FBEC9;}
	.st6{fill:#F9C745;}
	.st7{fill:#FAF6E6;}
	.st8{fill:#BD5E4B;}
	.st9{fill:#C0A37E;}
	.st10{fill:none;}
</style>
<title>casa_garage</title>
<rect x="34.9" y="220.5" class="st0" width="12.4" height="4.8"/>
<rect x="48.1" y="220.5" class="st0" width="12.4" height="4.8"/>
<rect x="61.2" y="220.5" class="st0" width="12.4" height="4.8"/>
<rect x="74.4" y="220.5" class="st0" width="12.4" height="4.8"/>
<rect x="41.2" y="226.1" class="st0" width="12.4" height="4.8"/>
<rect x="54.4" y="226.1" class="st0" width="12.4" height="4.8"/>
<rect x="67.6" y="226.1" class="st0" width="12.4" height="4.8"/>
<rect x="34.9" y="231.6" class="st0" width="12.4" height="4.8"/>
<rect x="48.1" y="231.6" class="st0" width="12.4" height="4.8"/>
<rect x="61.2" y="231.6" class="st0" width="12.4" height="4.8"/>
<rect x="74.4" y="231.6" class="st0" width="12.4" height="4.8"/>
<rect x="41.2" y="237.2" class="st0" width="12.4" height="4.8"/>
<rect x="54.4" y="237.2" class="st0" width="12.4" height="4.8"/>
<rect x="67.6" y="237.2" class="st0" width="12.4" height="4.8"/>
<rect x="34.9" y="242.6" class="st0" width="12.4" height="4.8"/>
<rect x="48.1" y="242.6" class="st0" width="12.4" height="4.8"/>
<rect x="61.2" y="242.6" class="st0" width="12.4" height="4.8"/>
<rect x="74.4" y="242.6" class="st0" width="12.4" height="4.8"/>
<rect x="41.2" y="248.3" class="st0" width="12.4" height="4.8"/>
<rect x="54.4" y="248.3" class="st0" width="12.4" height="4.8"/>
<rect x="67.6" y="248.3" class="st0" width="12.4" height="4.8"/>
<rect x="34.9" y="253.7" class="st0" width="12.4" height="4.8"/>
<rect x="48.1" y="253.7" class="st0" width="12.4" height="4.8"/>
<rect x="61.2" y="253.7" class="st0" width="12.4" height="4.8"/>
<rect x="74.4" y="253.7" class="st0" width="12.4" height="4.8"/>
<rect x="41.2" y="259.3" class="st0" width="12.4" height="4.8"/>
<rect x="54.4" y="259.3" class="st0" width="12.4" height="4.8"/>
<rect x="67.6" y="259.3" class="st0" width="12.4" height="4.8"/>
<rect x="34.9" y="264.8" class="st0" width="12.4" height="4.8"/>
<rect x="48.1" y="264.8" class="st0" width="12.4" height="4.8"/>
<rect x="61.2" y="264.8" class="st0" width="12.4" height="4.8"/>
<rect x="74.4" y="264.8" class="st0" width="12.4" height="4.8"/>
<rect x="41.2" y="270.4" class="st0" width="12.4" height="4.8"/>
<rect x="54.4" y="270.4" class="st0" width="12.4" height="4.8"/>
<rect x="67.6" y="270.4" class="st0" width="12.4" height="4.8"/>
<rect x="32" y="261.5" class="st1" width="60.1" height="14.5"/>
<path class="st2" d="M35.4,250.5c0,0.4,0.4,0.8,0.8,0.8l3.5,0.4c0.4,0,0.8-0.4,0.8-0.8v-2.4c0-0.4-0.4-0.8-0.8-0.8h-3.3
	c-0.4,0-0.8,0.4-0.8,0.8L35.4,250.5z"/>
<path class="st2" d="M88.6,250.5c0,0.4-0.4,0.8-0.8,0.8l-3.6,0.4c-0.4,0-0.8-0.4-0.8-0.8v-2.4c0-0.4,0.4-0.8,0.8-0.8h3.3
	c0.4,0,0.8,0.4,0.8,0.8L88.6,250.5z"/>
<ellipse class="st1" cx="62" cy="270.8" rx="2.5" ry="1.4"/>
<path class="st3" d="M76.7,274.4c0,0.9,0.4,1.6,0.9,1.6h2.9c0.5,0,0.9-0.7,0.9-1.6v-10.6c0-0.9-0.4-1.6-0.9-1.6h-2.9
	c-0.5,0-0.9,0.7-0.9,1.6V274.4z"/>
<path class="st3" d="M42.6,274.4c0,0.9,0.4,1.6,0.9,1.6h2.9c0.5,0,0.9-0.7,0.9-1.6v-10.6c0-0.9-0.4-1.6-0.9-1.6h-2.9
	c-0.5,0-0.9,0.7-0.9,1.6V274.4z"/>
<path class="st1" d="M41,270c0,0.6,0.4,1,1,1h40c0.6,0,1-0.4,1-1l0,0c0-0.6-0.4-1-1-1H42C41.4,269,41,269.4,41,270L41,270z"/>
<polygon class="st4" points="39.7,270.5 84.1,270.5 86.8,265 84.1,251.7 75.9,240.2 62.2,240.2 47.8,240.2 39.7,251.7 37.1,265 "/>
<polygon class="st5" points="43.3,251.5 53.2,253.6 70.8,253.6 80.7,251.5 75.6,241.6 62.2,241.6 48.8,241.6 "/>
<polygon class="st2" points="37.7,262.1 42.6,264.5 51.4,265 62,265 72.6,265 81.4,264.5 86.3,262.1 86.9,265.6 84.1,270.5 
	62,270.5 39.8,270.5 37,265.6 "/>
<polygon class="st6" points="81,263.9 74.4,264.1 72.5,261.9 81,260.1 "/>
<polygon class="st6" points="43,263.9 49.6,264.1 51.5,261.9 43,260.1 "/>
<rect x="54" y="265.6" class="st7" width="15.9" height="3.2"/>
<polygon class="st2" points="79,253.6 81.3,258.3 72.4,260.8 62.1,260.8 72.4,260.1 80.3,258 "/>
<polygon class="st2" points="45,253.6 42.7,258.3 51.5,260.8 61.9,260.8 51.5,260.1 43.6,258 "/>
<polygon class="st8" points="81.8,260.1 83.9,260.1 84.5,262.5 81.8,263.6 "/>
<polygon class="st8" points="42.2,260.1 40.1,260.1 39.4,262.5 42.2,263.6 "/>
<path class="st1" d="M59.5,243h5c0.3,0,0.6,0.3,0.6,0.6l0,0v0.9c0,0.3-0.3,0.6-0.6,0.6l0,0h-5c-0.3,0-0.6-0.3-0.6-0.6l0,0v-0.9
	C58.9,243.3,59.1,243,59.5,243z"/>
<path class="st1" d="M51.9,262.7c0,0.1,0.1,0.2,0.2,0.2h19.8c0.1,0,0.2-0.1,0.2-0.2l0,0c0-0.1-0.1-0.2-0.2-0.2c0,0,0,0,0,0H52.1
	C52,262.5,51.9,262.6,51.9,262.7L51.9,262.7z"/>
<path class="st1" d="M51.9,264.3c0,0.1,0.1,0.2,0.2,0.2h19.8c0.1,0,0.2-0.1,0.2-0.2l0,0c0-0.1-0.1-0.2-0.2-0.2c0,0,0,0,0,0H52.1
	C52,264.1,51.9,264.2,51.9,264.3L51.9,264.3z"/>
<path class="st1" d="M51.9,263.5c0,0.1,0.1,0.2,0.2,0.2h19.8c0.1,0,0.2-0.1,0.2-0.2l0,0c0-0.1-0.1-0.2-0.2-0.2c0,0,0,0,0,0H52.1
	C52,263.3,51.9,263.4,51.9,263.5L51.9,263.5z"/>
<polygon class="st2" points="71.6,254.7 68.7,258.9 68.2,258.9 "/>
<polygon class="st2" points="52.3,254.7 55.3,258.9 55.7,258.9 "/>
<path class="st8" d="M52.6,249.1c2.6,0,4.7,1.9,5.1,4.5h-1.3c-0.3-1.9-1.9-3.3-3.8-3.3c-1.6,0-3,0.9-3.6,2.4l-1.2-0.2
	C48.5,250.5,50.4,249.2,52.6,249.1z"/>
<rect x="32" y="217.5" class="st9" width="60.1" height="44.3"/>
<rect x="32" y="223.5" class="st8" width="60.1" height="1.9"/>
<rect x="32" y="226.1" class="st8" width="60.1" height="1.9"/>
<rect x="32" y="228.8" class="st8" width="60.1" height="1.9"/>
<rect x="32" y="231.4" class="st8" width="60.1" height="1.9"/>
<rect x="32" y="234.1" class="st8" width="60.1" height="1.9"/>
<rect x="32" y="236.7" class="st8" width="60.1" height="1.9"/>
<rect x="32" y="239.3" class="st8" width="60.1" height="1.9"/>
<rect x="32" y="242" class="st8" width="60.1" height="1.9"/>
<rect x="32" y="244.6" class="st8" width="60.1" height="1.9"/>
<rect x="32" y="247.2" class="st8" width="60.1" height="1.9"/>
<rect x="32" y="249.9" class="st8" width="60.1" height="1.9"/>
<rect x="32" y="252.5" class="st8" width="60.1" height="1.9"/>
<rect x="32" y="255.2" class="st8" width="60.1" height="1.9"/>
<rect x="32" y="257.8" class="st8" width="60.1" height="1.9"/>
<rect x="32" y="260.4" class="st8" width="60.1" height="1.9"/>
<rect x="32" y="221.1" class="st8" width="60.1" height="1.9"/>
<rect x="32" y="218.6" class="st8" width="60.1" height="1.9"/>
<rect x="32" y="216.2" class="st8" width="60.1" height="1.9"/>
<rect class="st10" width="280" height="280"/>
</svg>
