<svg xmlns="http://www.w3.org/2000/svg" viewBox="0 0 280 280"><defs><style>.cls-1{fill:#c6a67e;}.cls-2{fill:#0a7171;}.cls-3{fill:#9fbec9;}.cls-4{fill:#787087;}.cls-5{fill:none;}</style></defs><title>casa_ventanas</title><g id="Capa_2" data-name="Capa 2"><g id="Layer_1" data-name="Layer 1"><rect class="cls-1" x="124.48" y="194.55" width="30.5" height="5.62"/><rect class="cls-1" x="124.48" y="194.55" width="30.5" height="5.62"/><path class="cls-2" d="M151.22,193.65h-23V166.92h23Z"/><rect class="cls-3" x="130.27" y="168.92" width="18.94" height="22.72"/><rect class="cls-4" x="124.49" y="191.64" width="30.5" height="5.62"/><rect class="cls-4" x="124.49" y="191.64" width="30.5" height="5.62"/><rect class="cls-1" x="231.32" y="194.55" width="30.5" height="5.62"/><rect class="cls-1" x="231.32" y="194.55" width="30.5" height="5.62"/><path class="cls-2" d="M258.05,193.65H235.12V166.92h22.93Z"/><rect class="cls-3" x="237.13" y="168.92" width="18.92" height="22.72"/><rect class="cls-4" x="231.33" y="191.64" width="30.5" height="5.62"/><rect class="cls-4" x="231.33" y="191.64" width="30.5" height="5.62"/><rect class="cls-1" x="177.9" y="193.61" width="30.51" height="5.62"/><rect class="cls-1" x="177.9" y="193.61" width="30.51" height="5.62"/><path class="cls-2" d="M204.62,192.71H181.69V166h22.93Z"/><rect class="cls-3" x="183.7" y="167.98" width="18.92" height="22.72"/><rect class="cls-4" x="177.9" y="190.7" width="30.51" height="5.62"/><rect class="cls-4" x="177.9" y="190.7" width="30.51" height="5.62"/><rect class="cls-1" x="124.48" y="245.38" width="30.5" height="5.61"/><rect class="cls-1" x="124.48" y="245.38" width="30.5" height="5.61"/><path class="cls-2" d="M151.22,244.48h-23V217.74h23Z"/><rect class="cls-3" x="130.27" y="219.75" width="18.94" height="22.73"/><rect class="cls-4" x="124.49" y="242.48" width="30.5" height="5.61"/><rect class="cls-4" x="124.49" y="242.48" width="30.5" height="5.61"/><rect class="cls-1" x="231.32" y="245.38" width="30.5" height="5.61"/><path class="cls-2" d="M258.05,244.48H235.12V217.74h22.93Z"/><rect class="cls-3" x="237.13" y="219.75" width="18.92" height="22.73"/><rect class="cls-4" x="231.33" y="242.48" width="30.5" height="5.61"/><rect class="cls-4" x="231.33" y="242.48" width="30.5" height="5.61"/><rect class="cls-5" width="280" height="280"/></g></g></svg>