<svg xmlns="http://www.w3.org/2000/svg" xmlns:xlink="http://www.w3.org/1999/xlink" viewBox="0 0 67.96 30.05"><defs><style>.cls-1{fill:#5a9a96;}.cls-2{fill:#cde5ea;}.cls-3{fill:#abcdca;}.cls-4{fill:#7cb3b2;}.cls-5{fill:#f1d441;}.cls-6{fill:#fff;}.cls-7{fill:#42bb99;}.cls-8{fill:#1ca68d;}.cls-9{fill:#659f9c;}.cls-10,.cls-11,.cls-12,.cls-13{fill-rule:evenodd;}.cls-10{fill:url(#Degradado_sin_nombre_10);}.cls-11{fill:url(#Degradado_sin_nombre_10-2);}.cls-12{fill:url(#Degradado_sin_nombre_10-3);}.cls-13{fill:url(#Degradado_sin_nombre_10-4);}</style><linearGradient id="Degradado_sin_nombre_10" x1="51.79" y1="10.03" x2="51.79" y2="8.17" gradientUnits="userSpaceOnUse"><stop offset="0" stop-color="#fff" stop-opacity="0"/><stop offset="0" stop-color="#f8fbfb" stop-opacity="0.03"/><stop offset="0.69" stop-color="#6ea4a1" stop-opacity="0.95"/><stop offset="1" stop-color="#659f9c"/></linearGradient><linearGradient id="Degradado_sin_nombre_10-2" x1="690.06" y1="9712.54" x2="690.06" y2="9710.68" gradientTransform="translate(741.82 9718.75) rotate(180)" xlink:href="#Degradado_sin_nombre_10"/><linearGradient id="Degradado_sin_nombre_10-3" x1="34.65" y1="10.03" x2="34.65" y2="8.17" xlink:href="#Degradado_sin_nombre_10"/><linearGradient id="Degradado_sin_nombre_10-4" x1="707.2" y1="9712.54" x2="707.2" y2="9710.68" gradientTransform="translate(741.82 9718.75) rotate(180)" xlink:href="#Degradado_sin_nombre_10"/></defs><title>casa_sillon</title><g id="Capa_2" data-name="Capa 2"><g id="Layer_1" data-name="Layer 1"><rect class="cls-1" x="5.02" y="22.18" width="60.69" height="6.09"/><path class="cls-2" d="M64.27,15.67c0-.17,0-.34,0-.51V5a4.91,4.91,0,0,0-4.8-5h-51a4.91,4.91,0,0,0-4.8,5V15.16c0,.17,0,.34,0,.51Z"/><rect class="cls-3" x="6.85" y="16.09" width="54.26" height="6.14"/><path class="cls-4" d="M7.33,30V13.41a3.66,3.66,0,0,0-7.33,0V30Z"/><path class="cls-4" d="M68,30V13.41a3.66,3.66,0,0,0-7.33,0V30Z"/><rect class="cls-5" x="7.87" y="3" width="13.73" height="12.77" rx="1.5" ry="1.5" transform="translate(-1.22 2.27) rotate(-8.46)"/><path class="cls-6" d="M20.76,13.79a1.08,1.08,0,1,1-1.64-1.39,3.41,3.41,0,0,1,2.23-1A3.41,3.41,0,0,1,20.76,13.79Z"/><path class="cls-6" d="M20.14,9.64A1.08,1.08,0,1,1,18.5,8.25a3.41,3.41,0,0,1,2.23-1A3.41,3.41,0,0,1,20.14,9.64Z"/><path class="cls-6" d="M19.52,5.49A1.08,1.08,0,1,1,17.89,4.1a3.41,3.41,0,0,1,2.23-1A3.41,3.41,0,0,1,19.52,5.49Z"/><path class="cls-6" d="M18,10.64a1.08,1.08,0,1,1-1.07,1.86,3.41,3.41,0,0,1-1.35-2A3.41,3.41,0,0,1,18,10.64Z"/><path class="cls-6" d="M17.34,6.49a1.08,1.08,0,1,1-1.07,1.86,3.41,3.41,0,0,1-1.35-2A3.42,3.42,0,0,1,17.34,6.49Z"/><path class="cls-6" d="M14.58,3A2.81,2.81,0,0,0,15.66,4.2a1.12,1.12,0,0,0,1.59-.32,1.11,1.11,0,0,0-.19-1.29Z"/><rect class="cls-6" x="18.13" y="2.48" width="0.18" height="12.77" transform="translate(-1.11 2.78) rotate(-8.46)"/><path class="cls-6" d="M8.6,4.26a1.08,1.08,0,1,1,1.64,1.39A3.41,3.41,0,0,1,8,6.62,3.41,3.41,0,0,1,8.6,4.26Z"/><path class="cls-6" d="M9.22,8.41A1.08,1.08,0,1,1,10.86,9.8a3.41,3.41,0,0,1-2.23,1A3.41,3.41,0,0,1,9.22,8.41Z"/><path class="cls-6" d="M9.84,12.56A1.08,1.08,0,1,1,11.48,14a3.41,3.41,0,0,1-2.23,1A3.41,3.41,0,0,1,9.84,12.56Z"/><path class="cls-6" d="M11.4,7.41a1.12,1.12,0,0,1-.52-1.54,1.12,1.12,0,0,1,1.59-.32,3.41,3.41,0,0,1,1.35,2A3.42,3.42,0,0,1,11.4,7.41Z"/><path class="cls-6" d="M12,11.56A1.08,1.08,0,1,1,13.09,9.7a3.41,3.41,0,0,1,1.35,2A3.41,3.41,0,0,1,12,11.56Z"/><path class="cls-6" d="M12.64,15.72a2.42,2.42,0,0,0,.95.29L15,15.79a3.32,3.32,0,0,0-1.33-1.94,1.08,1.08,0,1,0-1.07,1.86Z"/><rect class="cls-6" x="11.17" y="3.52" width="0.17" height="12.77" transform="translate(-1.33 1.76) rotate(-8.46)"/><circle class="cls-7" cx="21.84" cy="12.5" r="3.39"/><circle class="cls-8" cx="21.84" cy="12.5" r="0.25"/><path class="cls-8" d="M19.47,12.5S19.24,13,19,13s-.51-.45-.51-.45S18.68,12,19,12,19.47,12.5,19.47,12.5Z"/><path class="cls-8" d="M21.5,12.5S21.27,13,21,13s-.51-.45-.51-.45S20.71,12,21,12,21.5,12.5,21.5,12.5Z"/><path class="cls-8" d="M23.2,12.46s-.23.45-.51.45-.51-.45-.51-.45.23-.45.51-.45S23.2,12.46,23.2,12.46Z"/><path class="cls-8" d="M25.23,12.46s-.23.45-.51.45-.51-.45-.51-.45.23-.45.51-.45S25.23,12.46,25.23,12.46Z"/><path class="cls-8" d="M24.24,10.11s.16.48,0,.68-.68,0-.68,0-.16-.48,0-.68S24.24,10.11,24.24,10.11Z"/><path class="cls-8" d="M19.46,10.11s-.16.48,0,.68.68,0,.68,0,.16-.48,0-.68S19.46,10.11,19.46,10.11Z"/><path class="cls-8" d="M23.73,13.92s-.16.48,0,.68.68,0,.68,0,.16-.48,0-.68S23.73,13.92,23.73,13.92Z"/><path class="cls-8" d="M23.35,13s.06.5.33.6.63-.26.63-.26-.06-.5-.33-.6S23.35,13,23.35,13Z"/><path class="cls-8" d="M22.56,13.68s-.31.4-.19.65.63.26.63.26.31-.4.19-.65S22.56,13.68,22.56,13.68Z"/><path class="cls-8" d="M20.77,10.2s-.31.4-.19.65.63.26.63.26.31-.4.19-.65S20.77,10.2,20.77,10.2Z"/><path class="cls-8" d="M19.47,11.47s.06.5.33.6.63-.26.63-.26-.06-.5-.33-.6S19.47,11.47,19.47,11.47Z"/><path class="cls-8" d="M20.88,14.81s.51,0,.63-.25-.18-.66-.18-.66-.51,0-.63.25S20.88,14.81,20.88,14.81Z"/><path class="cls-8" d="M22.4,11.1s.51,0,.63-.25-.18-.66-.18-.66-.51,0-.63.25S22.4,11.1,22.4,11.1Z"/><path class="cls-8" d="M23.19,11.8s.36.36.62.27.34-.59.34-.59-.36-.36-.62-.27S23.19,11.8,23.19,11.8Z"/><path class="cls-8" d="M19.61,13.45s.36.36.62.27.34-.59.34-.59-.36-.36-.62-.27S19.61,13.45,19.61,13.45Z"/><path class="cls-8" d="M20.17,14.2s.16.48,0,.68-.68,0-.68,0-.16-.48,0-.68S20.17,14.2,20.17,14.2Z"/><path class="cls-8" d="M21.84,11.13s.45.23.45.51-.45.51-.45.51-.45-.23-.45-.51S21.84,11.13,21.84,11.13Z"/><path class="cls-8" d="M21.84,9.11s.45.23.45.51-.45.51-.45.51-.45-.23-.45-.51S21.84,9.11,21.84,9.11Z"/><path class="cls-8" d="M21.84,14.87s.45.23.45.51-.45.51-.45.51-.45-.23-.45-.51S21.84,14.87,21.84,14.87Z"/><path class="cls-8" d="M21.84,12.85s.45.23.45.51-.45.51-.45.51-.45-.23-.45-.51S21.84,12.85,21.84,12.85Z"/><circle class="cls-9" cx="51.73" cy="8.03" r="0.85"/><polyline class="cls-10" points="49.92 10.03 51.79 8.17 53.65 10.03"/><polyline class="cls-11" points="53.62 6.21 51.75 8.07 49.89 6.21"/><circle class="cls-9" cx="34.59" cy="8.03" r="0.85"/><polyline class="cls-12" points="32.78 10.03 34.65 8.17 36.51 10.03"/><polyline class="cls-13" points="36.47 6.21 34.61 8.07 32.75 6.21"/></g></g></svg>