<?xml version="1.0" encoding="utf-8"?>
<!-- Generator: Adobe Illustrator 21.0.0, SVG Export Plug-In . SVG Version: 6.00 Build 0)  -->
<svg version="1.1" id="Capa_1" xmlns="http://www.w3.org/2000/svg" xmlns:xlink="http://www.w3.org/1999/xlink" x="0px" y="0px"
	 viewBox="0 0 280 280" style="enable-background:new 0 0 280 280;" xml:space="preserve">
<style type="text/css">
	.st0{fill:#DABD94;}
	.st1{fill:#C6A67E;}
	.st2{opacity:0.35;}
	.st3{fill:none;stroke:#5E4B33;stroke-width:0.4131;stroke-miterlimit:10;}
	.st4{fill:none;stroke:#5E4B33;stroke-width:0.4064;stroke-miterlimit:10;}
	.st5{fill:#216F74;}
	.st6{fill:none;}
	.st7{fill:#C0A37E;}
	.st8{fill:#9D7E5A;}
</style>
<title>casa_paredes</title>
<g>
	<rect x="113.6" y="210.5" class="st0" width="159.2" height="64.7"/>
	<rect x="113.6" y="153.4" class="st0" width="159.2" height="56.2"/>
	<rect x="113.6" y="153.4" class="st1" width="159.2" height="6.9"/>
	<g class="st2">
		<g>
			<rect x="114.6" y="154" class="st3" width="12.4" height="4.8"/>
			<rect x="127.7" y="154" class="st3" width="12.4" height="4.8"/>
			<rect x="140.9" y="154" class="st3" width="12.4" height="4.8"/>
			<rect x="154.1" y="154" class="st3" width="12.4" height="4.8"/>
			<rect x="167.2" y="154" class="st3" width="12.4" height="4.8"/>
			<rect x="180.4" y="154" class="st3" width="12.4" height="4.8"/>
			<rect x="193.6" y="154" class="st3" width="12.4" height="4.8"/>
			<rect x="206.7" y="154" class="st3" width="12.4" height="4.8"/>
			<rect x="219.9" y="154" class="st3" width="12.4" height="4.8"/>
			<rect x="233.1" y="154" class="st3" width="12.4" height="4.8"/>
			<rect x="246.2" y="154" class="st3" width="12.4" height="4.8"/>
			<rect x="259.4" y="154" class="st3" width="12.4" height="4.8"/>
			<rect x="120.9" y="159.6" class="st3" width="12.4" height="4.8"/>
			<rect x="134.1" y="159.6" class="st3" width="12.4" height="4.8"/>
			<rect x="147.2" y="159.6" class="st3" width="12.4" height="4.8"/>
			<rect x="160.4" y="159.6" class="st3" width="12.4" height="4.8"/>
			<rect x="173.6" y="159.6" class="st3" width="12.4" height="4.8"/>
			<rect x="186.7" y="159.6" class="st3" width="12.4" height="4.8"/>
			<rect x="199.9" y="159.6" class="st3" width="12.4" height="4.8"/>
			<rect x="213.1" y="159.6" class="st3" width="12.4" height="4.8"/>
			<rect x="226.2" y="159.6" class="st3" width="12.4" height="4.8"/>
			<rect x="239.4" y="159.6" class="st3" width="12.4" height="4.8"/>
			<rect x="252.6" y="159.6" class="st3" width="12.4" height="4.8"/>
			<polyline class="st3" points="271.8,164.4 265.7,164.4 265.7,159.6 271.9,159.6 			"/>
			<polyline class="st4" points="114.4,159.6 120.3,159.6 120.3,164.4 114.4,164.4 			"/>
		</g>
		<g>
			<rect x="114.6" y="165" class="st3" width="12.4" height="4.8"/>
			<rect x="127.7" y="165" class="st3" width="12.4" height="4.8"/>
			<rect x="140.9" y="165" class="st3" width="12.4" height="4.8"/>
			<rect x="154.1" y="165" class="st3" width="12.4" height="4.8"/>
			<rect x="167.2" y="165" class="st3" width="12.4" height="4.8"/>
			<rect x="180.4" y="165" class="st3" width="12.4" height="4.8"/>
			<rect x="193.6" y="165" class="st3" width="12.4" height="4.8"/>
			<rect x="206.7" y="165" class="st3" width="12.4" height="4.8"/>
			<rect x="219.9" y="165" class="st3" width="12.4" height="4.8"/>
			<rect x="233.1" y="165" class="st3" width="12.4" height="4.8"/>
			<rect x="246.2" y="165" class="st3" width="12.4" height="4.8"/>
			<rect x="259.4" y="165" class="st3" width="12.4" height="4.8"/>
			<rect x="120.9" y="170.7" class="st3" width="12.4" height="4.8"/>
			<rect x="134.1" y="170.7" class="st3" width="12.4" height="4.8"/>
			<rect x="147.2" y="170.7" class="st3" width="12.4" height="4.8"/>
			<rect x="160.4" y="170.7" class="st3" width="12.4" height="4.8"/>
			<rect x="173.6" y="170.7" class="st3" width="12.4" height="4.8"/>
			<rect x="186.7" y="170.7" class="st3" width="12.4" height="4.8"/>
			<rect x="199.9" y="170.7" class="st3" width="12.4" height="4.8"/>
			<rect x="213.1" y="170.7" class="st3" width="12.4" height="4.8"/>
			<rect x="226.2" y="170.7" class="st3" width="12.4" height="4.8"/>
			<rect x="239.4" y="170.7" class="st3" width="12.4" height="4.8"/>
			<rect x="252.6" y="170.7" class="st3" width="12.4" height="4.8"/>
			<polyline class="st3" points="271.8,175.4 265.7,175.4 265.7,170.7 271.9,170.7 			"/>
			<polyline class="st4" points="114.4,170.7 120.3,170.7 120.3,175.4 114.4,175.4 			"/>
		</g>
		<g>
			<rect x="114.6" y="176.1" class="st3" width="12.4" height="4.8"/>
			<rect x="127.7" y="176.1" class="st3" width="12.4" height="4.8"/>
			<rect x="140.9" y="176.1" class="st3" width="12.4" height="4.8"/>
			<rect x="154.1" y="176.1" class="st3" width="12.4" height="4.8"/>
			<rect x="167.2" y="176.1" class="st3" width="12.4" height="4.8"/>
			<rect x="180.4" y="176.1" class="st3" width="12.4" height="4.8"/>
			<rect x="193.6" y="176.1" class="st3" width="12.4" height="4.8"/>
			<rect x="206.7" y="176.1" class="st3" width="12.4" height="4.8"/>
			<rect x="219.9" y="176.1" class="st3" width="12.4" height="4.8"/>
			<rect x="233.1" y="176.1" class="st3" width="12.4" height="4.8"/>
			<rect x="246.2" y="176.1" class="st3" width="12.4" height="4.8"/>
			<rect x="259.4" y="176.1" class="st3" width="12.4" height="4.8"/>
			<rect x="120.9" y="181.7" class="st3" width="12.4" height="4.8"/>
			<rect x="134.1" y="181.7" class="st3" width="12.4" height="4.8"/>
			<rect x="147.2" y="181.7" class="st3" width="12.4" height="4.8"/>
			<rect x="160.4" y="181.7" class="st3" width="12.4" height="4.8"/>
			<rect x="173.6" y="181.7" class="st3" width="12.4" height="4.8"/>
			<rect x="186.7" y="181.7" class="st3" width="12.4" height="4.8"/>
			<rect x="199.9" y="181.7" class="st3" width="12.4" height="4.8"/>
			<rect x="213.1" y="181.7" class="st3" width="12.4" height="4.8"/>
			<rect x="226.2" y="181.7" class="st3" width="12.4" height="4.8"/>
			<rect x="239.4" y="181.7" class="st3" width="12.4" height="4.8"/>
			<rect x="252.6" y="181.7" class="st3" width="12.4" height="4.8"/>
			<polyline class="st3" points="271.8,186.5 265.7,186.5 265.7,181.7 271.9,181.7 			"/>
			<polyline class="st4" points="114.4,181.7 120.3,181.7 120.3,186.5 114.4,186.5 			"/>
		</g>
		<g>
			<rect x="114.6" y="187.1" class="st3" width="12.4" height="4.8"/>
			<rect x="127.7" y="187.1" class="st3" width="12.4" height="4.8"/>
			<rect x="140.9" y="187.1" class="st3" width="12.4" height="4.8"/>
			<rect x="154.1" y="187.1" class="st3" width="12.4" height="4.8"/>
			<rect x="167.2" y="187.1" class="st3" width="12.4" height="4.8"/>
			<rect x="180.4" y="187.1" class="st3" width="12.4" height="4.8"/>
			<rect x="193.6" y="187.1" class="st3" width="12.4" height="4.8"/>
			<rect x="206.7" y="187.1" class="st3" width="12.4" height="4.8"/>
			<rect x="219.9" y="187.1" class="st3" width="12.4" height="4.8"/>
			<rect x="233.1" y="187.1" class="st3" width="12.4" height="4.8"/>
			<rect x="246.2" y="187.1" class="st3" width="12.4" height="4.8"/>
			<rect x="259.4" y="187.1" class="st3" width="12.4" height="4.8"/>
			<rect x="120.9" y="192.8" class="st3" width="12.4" height="4.8"/>
			<rect x="134.1" y="192.8" class="st3" width="12.4" height="4.8"/>
			<rect x="147.2" y="192.8" class="st3" width="12.4" height="4.8"/>
			<rect x="160.4" y="192.8" class="st3" width="12.4" height="4.8"/>
			<rect x="173.6" y="192.8" class="st3" width="12.4" height="4.8"/>
			<rect x="186.7" y="192.8" class="st3" width="12.4" height="4.8"/>
			<rect x="199.9" y="192.8" class="st3" width="12.4" height="4.8"/>
			<rect x="213.1" y="192.8" class="st3" width="12.4" height="4.8"/>
			<rect x="226.2" y="192.8" class="st3" width="12.4" height="4.8"/>
			<rect x="239.4" y="192.8" class="st3" width="12.4" height="4.8"/>
			<rect x="252.6" y="192.8" class="st3" width="12.4" height="4.8"/>
			<polyline class="st3" points="271.8,197.6 265.7,197.6 265.7,192.8 271.9,192.8 			"/>
			<polyline class="st4" points="114.4,192.8 120.3,192.8 120.3,197.6 114.4,197.6 			"/>
		</g>
		<g>
			<rect x="114.6" y="198.2" class="st3" width="12.4" height="4.8"/>
			<rect x="127.7" y="198.2" class="st3" width="12.4" height="4.8"/>
			<rect x="140.9" y="198.2" class="st3" width="12.4" height="4.8"/>
			<rect x="154.1" y="198.2" class="st3" width="12.4" height="4.8"/>
			<rect x="167.2" y="198.2" class="st3" width="12.4" height="4.8"/>
			<rect x="180.4" y="198.2" class="st3" width="12.4" height="4.8"/>
			<rect x="193.6" y="198.2" class="st3" width="12.4" height="4.8"/>
			<rect x="206.7" y="198.2" class="st3" width="12.4" height="4.8"/>
			<rect x="219.9" y="198.2" class="st3" width="12.4" height="4.8"/>
			<rect x="233.1" y="198.2" class="st3" width="12.4" height="4.8"/>
			<rect x="246.2" y="198.2" class="st3" width="12.4" height="4.8"/>
			<rect x="259.4" y="198.2" class="st3" width="12.4" height="4.8"/>
			<rect x="120.9" y="203.8" class="st3" width="12.4" height="4.8"/>
			<rect x="134.1" y="203.8" class="st3" width="12.4" height="4.8"/>
			<rect x="147.2" y="203.8" class="st3" width="12.4" height="4.8"/>
			<rect x="160.4" y="203.8" class="st3" width="12.4" height="4.8"/>
			<rect x="173.6" y="203.8" class="st3" width="12.4" height="4.8"/>
			<rect x="186.7" y="203.8" class="st3" width="12.4" height="4.8"/>
			<rect x="199.9" y="203.8" class="st3" width="12.4" height="4.8"/>
			<rect x="213.1" y="203.8" class="st3" width="12.4" height="4.8"/>
			<rect x="226.2" y="203.8" class="st3" width="12.4" height="4.8"/>
			<rect x="239.4" y="203.8" class="st3" width="12.4" height="4.8"/>
			<rect x="252.6" y="203.8" class="st3" width="12.4" height="4.8"/>
			<polyline class="st3" points="271.8,208.6 265.7,208.6 265.7,203.8 271.9,203.8 			"/>
			<polyline class="st4" points="114.4,203.8 120.3,203.8 120.3,208.6 114.4,208.6 			"/>
		</g>
		<g>
			<rect x="114.6" y="209.3" class="st3" width="12.4" height="4.8"/>
			<rect x="127.7" y="209.3" class="st3" width="12.4" height="4.8"/>
			<rect x="140.9" y="209.3" class="st3" width="12.4" height="4.8"/>
			<rect x="154.1" y="209.3" class="st3" width="12.4" height="4.8"/>
			<rect x="167.2" y="209.3" class="st3" width="12.4" height="4.8"/>
			<rect x="180.4" y="209.3" class="st3" width="12.4" height="4.8"/>
			<rect x="193.6" y="209.3" class="st3" width="12.4" height="4.8"/>
			<rect x="206.7" y="209.3" class="st3" width="12.4" height="4.8"/>
			<rect x="219.9" y="209.3" class="st3" width="12.4" height="4.8"/>
			<rect x="233.1" y="209.3" class="st3" width="12.4" height="4.8"/>
			<rect x="246.2" y="209.3" class="st3" width="12.4" height="4.8"/>
			<rect x="259.4" y="209.3" class="st3" width="12.4" height="4.8"/>
			<rect x="120.9" y="214.9" class="st3" width="12.4" height="4.8"/>
			<rect x="134.1" y="214.9" class="st3" width="12.4" height="4.8"/>
			<rect x="147.2" y="214.9" class="st3" width="12.4" height="4.8"/>
			<rect x="160.4" y="214.9" class="st3" width="12.4" height="4.8"/>
			<rect x="173.6" y="214.9" class="st3" width="12.4" height="4.8"/>
			<rect x="186.7" y="214.9" class="st3" width="12.4" height="4.8"/>
			<rect x="199.9" y="214.9" class="st3" width="12.4" height="4.8"/>
			<rect x="213.1" y="214.9" class="st3" width="12.4" height="4.8"/>
			<rect x="226.2" y="214.9" class="st3" width="12.4" height="4.8"/>
			<rect x="239.4" y="214.9" class="st3" width="12.4" height="4.8"/>
			<rect x="252.6" y="214.9" class="st3" width="12.4" height="4.8"/>
			<polyline class="st3" points="271.8,219.7 265.7,219.7 265.7,214.9 271.9,214.9 			"/>
			<polyline class="st4" points="114.4,214.9 120.3,214.9 120.3,219.7 114.4,219.7 			"/>
		</g>
		<g>
			<rect x="114.6" y="220.3" class="st3" width="12.4" height="4.8"/>
			<rect x="127.7" y="220.3" class="st3" width="12.4" height="4.8"/>
			<rect x="140.9" y="220.3" class="st3" width="12.4" height="4.8"/>
			<rect x="154.1" y="220.3" class="st3" width="12.4" height="4.8"/>
			<rect x="167.2" y="220.3" class="st3" width="12.4" height="4.8"/>
			<rect x="180.4" y="220.3" class="st3" width="12.4" height="4.8"/>
			<rect x="193.6" y="220.3" class="st3" width="12.4" height="4.8"/>
			<rect x="206.7" y="220.3" class="st3" width="12.4" height="4.8"/>
			<rect x="219.9" y="220.3" class="st3" width="12.4" height="4.8"/>
			<rect x="233.1" y="220.3" class="st3" width="12.4" height="4.8"/>
			<rect x="246.2" y="220.3" class="st3" width="12.4" height="4.8"/>
			<rect x="259.4" y="220.3" class="st3" width="12.4" height="4.8"/>
			<rect x="120.9" y="225.9" class="st3" width="12.4" height="4.8"/>
			<rect x="134.1" y="225.9" class="st3" width="12.4" height="4.8"/>
			<rect x="147.2" y="225.9" class="st3" width="12.4" height="4.8"/>
			<rect x="160.4" y="225.9" class="st3" width="12.4" height="4.8"/>
			<rect x="173.6" y="225.9" class="st3" width="12.4" height="4.8"/>
			<rect x="186.7" y="225.9" class="st3" width="12.4" height="4.8"/>
			<rect x="199.9" y="225.9" class="st3" width="12.4" height="4.8"/>
			<rect x="213.1" y="225.9" class="st3" width="12.4" height="4.8"/>
			<rect x="226.2" y="225.9" class="st3" width="12.4" height="4.8"/>
			<rect x="239.4" y="225.9" class="st3" width="12.4" height="4.8"/>
			<rect x="252.6" y="225.9" class="st3" width="12.4" height="4.8"/>
			<polyline class="st3" points="271.8,230.7 265.7,230.7 265.7,225.9 271.9,225.9 			"/>
			<polyline class="st4" points="114.4,225.9 120.3,225.9 120.3,230.7 114.4,230.7 			"/>
		</g>
		<g>
			<rect x="114.6" y="231.4" class="st3" width="12.4" height="4.8"/>
			<rect x="127.7" y="231.4" class="st3" width="12.4" height="4.8"/>
			<rect x="140.9" y="231.4" class="st3" width="12.4" height="4.8"/>
			<rect x="154.1" y="231.4" class="st3" width="12.4" height="4.8"/>
			<rect x="167.2" y="231.4" class="st3" width="12.4" height="4.8"/>
			<rect x="180.4" y="231.4" class="st3" width="12.4" height="4.8"/>
			<rect x="193.6" y="231.4" class="st3" width="12.4" height="4.8"/>
			<rect x="206.7" y="231.4" class="st3" width="12.4" height="4.8"/>
			<rect x="219.9" y="231.4" class="st3" width="12.4" height="4.8"/>
			<rect x="233.1" y="231.4" class="st3" width="12.4" height="4.8"/>
			<rect x="246.2" y="231.4" class="st3" width="12.4" height="4.8"/>
			<rect x="259.4" y="231.4" class="st3" width="12.4" height="4.8"/>
			<rect x="120.9" y="237" class="st3" width="12.4" height="4.8"/>
			<rect x="134.1" y="237" class="st3" width="12.4" height="4.8"/>
			<rect x="147.2" y="237" class="st3" width="12.4" height="4.8"/>
			<rect x="160.4" y="237" class="st3" width="12.4" height="4.8"/>
			<rect x="173.6" y="237" class="st3" width="12.4" height="4.8"/>
			<rect x="186.7" y="237" class="st3" width="12.4" height="4.8"/>
			<rect x="199.9" y="237" class="st3" width="12.4" height="4.8"/>
			<rect x="213.1" y="237" class="st3" width="12.4" height="4.8"/>
			<rect x="226.2" y="237" class="st3" width="12.4" height="4.8"/>
			<rect x="239.4" y="237" class="st3" width="12.4" height="4.8"/>
			<rect x="252.6" y="237" class="st3" width="12.4" height="4.8"/>
			<polyline class="st3" points="271.8,241.8 265.7,241.8 265.7,237 271.9,237 			"/>
			<polyline class="st4" points="114.4,237 120.3,237 120.3,241.8 114.4,241.8 			"/>
		</g>
		<g>
			<rect x="114.6" y="242.4" class="st3" width="12.4" height="4.8"/>
			<rect x="127.7" y="242.4" class="st3" width="12.4" height="4.8"/>
			<rect x="140.9" y="242.4" class="st3" width="12.4" height="4.8"/>
			<rect x="154.1" y="242.4" class="st3" width="12.4" height="4.8"/>
			<rect x="167.2" y="242.4" class="st3" width="12.4" height="4.8"/>
			<rect x="180.4" y="242.4" class="st3" width="12.4" height="4.8"/>
			<rect x="193.6" y="242.4" class="st3" width="12.4" height="4.8"/>
			<rect x="206.7" y="242.4" class="st3" width="12.4" height="4.8"/>
			<rect x="219.9" y="242.4" class="st3" width="12.4" height="4.8"/>
			<rect x="233.1" y="242.4" class="st3" width="12.4" height="4.8"/>
			<rect x="246.2" y="242.4" class="st3" width="12.4" height="4.8"/>
			<rect x="259.4" y="242.4" class="st3" width="12.4" height="4.8"/>
			<rect x="120.9" y="248.1" class="st3" width="12.4" height="4.8"/>
			<rect x="134.1" y="248.1" class="st3" width="12.4" height="4.8"/>
			<rect x="147.2" y="248.1" class="st3" width="12.4" height="4.8"/>
			<rect x="160.4" y="248.1" class="st3" width="12.4" height="4.8"/>
			<rect x="173.6" y="248.1" class="st3" width="12.4" height="4.8"/>
			<rect x="186.7" y="248.1" class="st3" width="12.4" height="4.8"/>
			<rect x="199.9" y="248.1" class="st3" width="12.4" height="4.8"/>
			<rect x="213.1" y="248.1" class="st3" width="12.4" height="4.8"/>
			<rect x="226.2" y="248.1" class="st3" width="12.4" height="4.8"/>
			<rect x="239.4" y="248.1" class="st3" width="12.4" height="4.8"/>
			<rect x="252.6" y="248.1" class="st3" width="12.4" height="4.8"/>
			<polyline class="st3" points="271.8,252.8 265.7,252.8 265.7,248.1 271.9,248.1 			"/>
			<polyline class="st4" points="114.4,248.1 120.3,248.1 120.3,252.8 114.4,252.8 			"/>
		</g>
		<g>
			<rect x="114.6" y="253.5" class="st3" width="12.4" height="4.8"/>
			<rect x="127.7" y="253.5" class="st3" width="12.4" height="4.8"/>
			<rect x="140.9" y="253.5" class="st3" width="12.4" height="4.8"/>
			<rect x="154.1" y="253.5" class="st3" width="12.4" height="4.8"/>
			<rect x="167.2" y="253.5" class="st3" width="12.4" height="4.8"/>
			<rect x="180.4" y="253.5" class="st3" width="12.4" height="4.8"/>
			<rect x="193.6" y="253.5" class="st3" width="12.4" height="4.8"/>
			<rect x="206.7" y="253.5" class="st3" width="12.4" height="4.8"/>
			<rect x="219.9" y="253.5" class="st3" width="12.4" height="4.8"/>
			<rect x="233.1" y="253.5" class="st3" width="12.4" height="4.8"/>
			<rect x="246.2" y="253.5" class="st3" width="12.4" height="4.8"/>
			<rect x="259.4" y="253.5" class="st3" width="12.4" height="4.8"/>
			<rect x="120.9" y="259.1" class="st3" width="12.4" height="4.8"/>
			<rect x="134.1" y="259.1" class="st3" width="12.4" height="4.8"/>
			<rect x="147.2" y="259.1" class="st3" width="12.4" height="4.8"/>
			<rect x="160.4" y="259.1" class="st3" width="12.4" height="4.8"/>
			<rect x="173.6" y="259.1" class="st3" width="12.4" height="4.8"/>
			<rect x="186.7" y="259.1" class="st3" width="12.4" height="4.8"/>
			<rect x="199.9" y="259.1" class="st3" width="12.4" height="4.8"/>
			<rect x="213.1" y="259.1" class="st3" width="12.4" height="4.8"/>
			<rect x="226.2" y="259.1" class="st3" width="12.4" height="4.8"/>
			<rect x="239.4" y="259.1" class="st3" width="12.4" height="4.8"/>
			<rect x="252.6" y="259.1" class="st3" width="12.4" height="4.8"/>
			<polyline class="st3" points="271.8,263.9 265.7,263.9 265.7,259.1 271.9,259.1 			"/>
			<polyline class="st4" points="114.4,259.1 120.3,259.1 120.3,263.9 114.4,263.9 			"/>
		</g>
		<g>
			<rect x="114.6" y="264.5" class="st3" width="12.4" height="4.8"/>
			<rect x="127.7" y="264.5" class="st3" width="12.4" height="4.8"/>
			<rect x="140.9" y="264.5" class="st3" width="12.4" height="4.8"/>
			<rect x="154.1" y="264.5" class="st3" width="12.4" height="4.8"/>
			<rect x="167.2" y="264.5" class="st3" width="12.4" height="4.8"/>
			<rect x="180.4" y="264.5" class="st3" width="12.4" height="4.8"/>
			<rect x="193.6" y="264.5" class="st3" width="12.4" height="4.8"/>
			<rect x="206.7" y="264.5" class="st3" width="12.4" height="4.8"/>
			<rect x="219.9" y="264.5" class="st3" width="12.4" height="4.8"/>
			<rect x="233.1" y="264.5" class="st3" width="12.4" height="4.8"/>
			<rect x="246.2" y="264.5" class="st3" width="12.4" height="4.8"/>
			<rect x="259.4" y="264.5" class="st3" width="12.4" height="4.8"/>
			<rect x="120.9" y="270.2" class="st3" width="12.4" height="4.8"/>
			<rect x="134.1" y="270.2" class="st3" width="12.4" height="4.8"/>
			<rect x="147.2" y="270.2" class="st3" width="12.4" height="4.8"/>
			<rect x="160.4" y="270.2" class="st3" width="12.4" height="4.8"/>
			<rect x="173.6" y="270.2" class="st3" width="12.4" height="4.8"/>
			<rect x="186.7" y="270.2" class="st3" width="12.4" height="4.8"/>
			<rect x="199.9" y="270.2" class="st3" width="12.4" height="4.8"/>
			<rect x="213.1" y="270.2" class="st3" width="12.4" height="4.8"/>
			<rect x="226.2" y="270.2" class="st3" width="12.4" height="4.8"/>
			<rect x="239.4" y="270.2" class="st3" width="12.4" height="4.8"/>
			<rect x="252.6" y="270.2" class="st3" width="12.4" height="4.8"/>
			<polyline class="st3" points="271.8,275 265.7,275 265.7,270.2 271.9,270.2 			"/>
			<polyline class="st4" points="114.4,270.2 120.3,270.2 120.3,275 114.4,275 			"/>
		</g>
	</g>
	<rect x="113.5" y="207.8" class="st5" width="159.2" height="3.6"/>
	<rect x="0" y="0" class="st6" width="280" height="280"/>
</g>
<rect x="14.6" y="203.4" class="st7" width="99.2" height="72.6"/>
<rect x="14.6" y="203.4" class="st8" width="99.2" height="9.6"/>
<g class="st2">
	<rect x="14.9" y="204" class="st3" width="12.4" height="4.8"/>
	<rect x="28.1" y="204" class="st3" width="12.4" height="4.8"/>
	<rect x="41.3" y="204" class="st3" width="12.4" height="4.8"/>
	<rect x="54.4" y="204" class="st3" width="12.4" height="4.8"/>
	<rect x="67.6" y="204" class="st3" width="12.4" height="4.8"/>
	<rect x="80.8" y="204" class="st3" width="12.4" height="4.8"/>
	<rect x="93.9" y="204" class="st3" width="12.4" height="4.8"/>
	<polyline class="st3" points="113.2,208.8 107.1,208.8 107.1,204 113.2,204 	"/>
	<polyline class="st4" points="15.2,209.5 21.1,209.5 21.1,214.2 15.1,214.2 	"/>
	<polyline class="st4" points="15.2,220.5 21.1,220.5 21.1,225.3 15.1,225.3 	"/>
	<polyline class="st4" points="15.2,231.6 21.1,231.6 21.1,236.4 15.1,236.4 	"/>
	<polyline class="st4" points="15.2,242.6 21.1,242.6 21.1,247.4 15.1,247.4 	"/>
	<polyline class="st4" points="15.2,253.7 21.1,253.7 21.1,258.5 15.1,258.5 	"/>
	<polyline class="st4" points="15.2,264.8 21.1,264.8 21.1,269.6 15.1,269.6 	"/>
	<rect x="21.8" y="209.5" class="st3" width="12.4" height="4.8"/>
	<rect x="34.9" y="209.5" class="st3" width="12.4" height="4.8"/>
	<rect x="48.1" y="209.5" class="st3" width="12.4" height="4.8"/>
	<rect x="61.3" y="209.5" class="st3" width="12.4" height="4.8"/>
	<rect x="74.4" y="209.5" class="st3" width="12.4" height="4.8"/>
	<rect x="87.6" y="209.5" class="st3" width="12.4" height="4.8"/>
	<rect x="100.8" y="209.5" class="st3" width="12.4" height="4.8"/>
	<rect x="14.9" y="215.1" class="st3" width="12.4" height="4.8"/>
	<rect x="28.1" y="215.1" class="st3" width="12.4" height="4.8"/>
	<rect x="41.3" y="215.1" class="st3" width="12.4" height="4.8"/>
	<rect x="54.4" y="215.1" class="st3" width="12.4" height="4.8"/>
	<rect x="67.6" y="215.1" class="st3" width="12.4" height="4.8"/>
	<rect x="80.8" y="215.1" class="st3" width="12.4" height="4.8"/>
	<rect x="93.9" y="215.1" class="st3" width="12.4" height="4.8"/>
	<polyline class="st3" points="113.2,219.9 107.1,219.9 107.1,215.1 113.2,215.1 	"/>
	<rect x="21.8" y="220.5" class="st3" width="12.4" height="4.8"/>
	<rect x="34.9" y="220.5" class="st3" width="12.4" height="4.8"/>
	<rect x="48.1" y="220.5" class="st3" width="12.4" height="4.8"/>
	<rect x="61.3" y="220.5" class="st3" width="12.4" height="4.8"/>
	<rect x="74.4" y="220.5" class="st3" width="12.4" height="4.8"/>
	<rect x="87.6" y="220.5" class="st3" width="12.4" height="4.8"/>
	<rect x="100.8" y="220.5" class="st3" width="12.4" height="4.8"/>
	<rect x="14.9" y="226.1" class="st3" width="12.4" height="4.8"/>
	<rect x="28.1" y="226.1" class="st3" width="12.4" height="4.8"/>
	<rect x="41.3" y="226.1" class="st3" width="12.4" height="4.8"/>
	<rect x="54.4" y="226.1" class="st3" width="12.4" height="4.8"/>
	<rect x="67.6" y="226.1" class="st3" width="12.4" height="4.8"/>
	<rect x="80.8" y="226.1" class="st3" width="12.4" height="4.8"/>
	<rect x="93.9" y="226.1" class="st3" width="12.4" height="4.8"/>
	<polyline class="st3" points="113.2,230.9 107.1,230.9 107.1,226.1 113.2,226.1 	"/>
	<rect x="21.8" y="231.6" class="st3" width="12.4" height="4.8"/>
	<rect x="34.9" y="231.6" class="st3" width="12.4" height="4.8"/>
	<rect x="48.1" y="231.6" class="st3" width="12.4" height="4.8"/>
	<rect x="61.3" y="231.6" class="st3" width="12.4" height="4.8"/>
	<rect x="74.4" y="231.6" class="st3" width="12.4" height="4.8"/>
	<rect x="87.6" y="231.6" class="st3" width="12.4" height="4.8"/>
	<rect x="100.8" y="231.6" class="st3" width="12.4" height="4.8"/>
	<rect x="14.9" y="237.2" class="st3" width="12.4" height="4.8"/>
	<rect x="28.1" y="237.2" class="st3" width="12.4" height="4.8"/>
	<rect x="41.3" y="237.2" class="st3" width="12.4" height="4.8"/>
	<rect x="54.4" y="237.2" class="st3" width="12.4" height="4.8"/>
	<rect x="67.6" y="237.2" class="st3" width="12.4" height="4.8"/>
	<rect x="80.8" y="237.2" class="st3" width="12.4" height="4.8"/>
	<rect x="93.9" y="237.2" class="st3" width="12.4" height="4.8"/>
	<polyline class="st3" points="113.2,242 107.1,242 107.1,237.2 113.2,237.2 	"/>
	<rect x="21.8" y="242.6" class="st3" width="12.4" height="4.8"/>
	<rect x="34.9" y="242.6" class="st3" width="12.4" height="4.8"/>
	<rect x="48.1" y="242.6" class="st3" width="12.4" height="4.8"/>
	<rect x="61.3" y="242.6" class="st3" width="12.4" height="4.8"/>
	<rect x="74.4" y="242.6" class="st3" width="12.4" height="4.8"/>
	<rect x="87.6" y="242.6" class="st3" width="12.4" height="4.8"/>
	<rect x="100.8" y="242.6" class="st3" width="12.4" height="4.8"/>
	<rect x="14.9" y="248.3" class="st3" width="12.4" height="4.8"/>
	<rect x="28.1" y="248.3" class="st3" width="12.4" height="4.8"/>
	<rect x="41.3" y="248.3" class="st3" width="12.4" height="4.8"/>
	<rect x="54.4" y="248.3" class="st3" width="12.4" height="4.8"/>
	<rect x="67.6" y="248.3" class="st3" width="12.4" height="4.8"/>
	<rect x="80.8" y="248.3" class="st3" width="12.4" height="4.8"/>
	<rect x="93.9" y="248.3" class="st3" width="12.4" height="4.8"/>
	<polyline class="st3" points="113.2,253 107.1,253 107.1,248.3 113.2,248.3 	"/>
	<rect x="21.8" y="253.7" class="st3" width="12.4" height="4.8"/>
	<rect x="34.9" y="253.7" class="st3" width="12.4" height="4.8"/>
	<rect x="48.1" y="253.7" class="st3" width="12.4" height="4.8"/>
	<rect x="61.3" y="253.7" class="st3" width="12.4" height="4.8"/>
	<rect x="74.4" y="253.7" class="st3" width="12.4" height="4.8"/>
	<rect x="87.6" y="253.7" class="st3" width="12.4" height="4.8"/>
	<rect x="100.8" y="253.7" class="st3" width="12.4" height="4.8"/>
	<rect x="14.9" y="259.3" class="st3" width="12.4" height="4.8"/>
	<rect x="28.1" y="259.3" class="st3" width="12.4" height="4.8"/>
	<rect x="41.3" y="259.3" class="st3" width="12.4" height="4.8"/>
	<rect x="54.4" y="259.3" class="st3" width="12.4" height="4.8"/>
	<rect x="67.6" y="259.3" class="st3" width="12.4" height="4.8"/>
	<rect x="80.8" y="259.3" class="st3" width="12.4" height="4.8"/>
	<rect x="93.9" y="259.3" class="st3" width="12.4" height="4.8"/>
	<polyline class="st3" points="113.2,264.1 107.1,264.1 107.1,259.3 113.2,259.3 	"/>
	<rect x="21.8" y="264.7" class="st3" width="12.4" height="4.8"/>
	<rect x="34.9" y="264.7" class="st3" width="12.4" height="4.8"/>
	<rect x="48.1" y="264.7" class="st3" width="12.4" height="4.8"/>
	<rect x="61.3" y="264.7" class="st3" width="12.4" height="4.8"/>
	<rect x="74.4" y="264.7" class="st3" width="12.4" height="4.8"/>
	<rect x="87.6" y="264.7" class="st3" width="12.4" height="4.8"/>
	<rect x="100.8" y="264.7" class="st3" width="12.4" height="4.8"/>
	<rect x="14.9" y="270.4" class="st3" width="12.4" height="4.8"/>
	<rect x="28.1" y="270.4" class="st3" width="12.4" height="4.8"/>
	<rect x="41.3" y="270.4" class="st3" width="12.4" height="4.8"/>
	<rect x="54.4" y="270.4" class="st3" width="12.4" height="4.8"/>
	<rect x="67.6" y="270.4" class="st3" width="12.4" height="4.8"/>
	<rect x="80.8" y="270.4" class="st3" width="12.4" height="4.8"/>
	<rect x="93.9" y="270.4" class="st3" width="12.4" height="4.8"/>
	<polyline class="st3" points="113.2,275.2 107.1,275.2 107.1,270.4 113.2,270.4 	"/>
</g>
<rect x="0" y="0" class="st6" width="280" height="280"/>
</svg>
