<svg xmlns="http://www.w3.org/2000/svg" viewBox="0 0 280 280"><defs><style>.cls-1{fill:none;}.cls-2{fill:#6d1243;}.cls-3{fill:#eb3d7f;}.cls-4{opacity:0.7;}.cls-5{fill:#fff;}.cls-6{opacity:0.48;}.cls-7{fill:#8b1b51;}.cls-8{fill:#fbf4a5;}.cls-9{fill:#f6901e;}.cls-10{fill:#eed240;}.cls-11{fill:#f2ef91;}.cls-12{fill:#5a5342;}.cls-13{fill:#f08d6c;}.cls-14{fill:#3b2416;}</style></defs><title>casa_comedor</title><g id="Capa_2" data-name="Capa 2"><g id="Layer_1" data-name="Layer 1"><rect class="cls-1" width="280" height="280"/><path class="cls-2" d="M223.41,27.3a.67.67,0,0,1-.65.5H218.9a.67.67,0,0,1-.65-.5Z"/><path class="cls-3" d="M222.21,27.3h1.19a.67.67,0,0,1-.65.5H222A.85.85,0,0,0,222.21,27.3Z"/><path class="cls-3" d="M219.44,27.3a.85.85,0,0,0,.21.5h-.76a.67.67,0,0,1-.65-.5Z"/><g class="cls-4"><circle class="cls-5" cx="220.45" cy="21.75" r="0.92" transform="translate(49.19 162.25) rotate(-45)"/><circle class="cls-5" cx="220.94" cy="20.53" r="0.7" transform="translate(50.19 162.24) rotate(-45)"/><circle class="cls-5" cx="220.02" cy="22.92" r="0.7" transform="translate(48.24 162.29) rotate(-45)"/><circle class="cls-5" cx="220.28" cy="20.87" r="0.99" transform="translate(49.76 161.87) rotate(-45)"/><circle class="cls-5" cx="222.67" cy="18.64" r="0.7" transform="translate(52.04 162.91) rotate(-45)"/><circle class="cls-5" cx="222.06" cy="19.84" r="1" transform="translate(51.01 162.83) rotate(-45)"/><circle class="cls-5" cx="221.97" cy="21.34" r="1" transform="translate(49.93 163.21) rotate(-45)"/><circle class="cls-5" cx="222.56" cy="18.49" r="1" transform="translate(52.11 162.79) rotate(-45)"/></g><g class="cls-6"><circle class="cls-5" cx="220.3" cy="17.5" r="1.14" transform="translate(21.48 113.98) rotate(-30.43)"/><circle class="cls-5" cx="220.09" cy="15.9" r="0.87" transform="translate(22.26 113.66) rotate(-30.43)"/><circle class="cls-5" cx="220.45" cy="19.03" r="0.87" transform="matrix(0.86, -0.51, 0.51, 0.86, 20.72, 114.27)"/><circle class="cls-5" cx="220.78" cy="16.5" r="1.22" transform="matrix(0.86, -0.51, 0.51, 0.86, 22.05, 114.09)"/><circle class="cls-5" cx="218.61" cy="13.09" r="0.87" transform="translate(23.48 112.52) rotate(-30.43)"/><circle class="cls-5" cx="218.98" cy="14.71" r="1.23" transform="translate(22.71 112.93) rotate(-30.43)"/><circle class="cls-5" cx="218.61" cy="16.54" r="1.23" transform="translate(21.74 113) rotate(-30.43)"/><circle class="cls-5" cx="218.8" cy="12.95" r="1.23" transform="translate(23.58 112.6) rotate(-30.43)"/></g><path class="cls-7" d="M218.4,23.45a.93.93,0,0,0-.93.93v1a.93.93,0,0,0,1.86,0v-1A.93.93,0,0,0,218.4,23.45Zm.45,1.91a.45.45,0,0,1-.9,0v-1a.45.45,0,1,1,.9,0Z"/><path class="cls-3" d="M217.73,25.53v-1A.93.93,0,0,1,219,23.7a.93.93,0,0,0-1.56.68v1a.93.93,0,0,0,.55.85A.93.93,0,0,1,217.73,25.53Z"/><path class="cls-7" d="M218.92,23.42V26a1.45,1.45,0,0,0,1.45,1.45h.93A1.45,1.45,0,0,0,222.75,26V23.42Z"/><path class="cls-3" d="M221.64,25.92V23.4h.76v2.51a1.31,1.31,0,0,1-1.14,1.43h0A2,2,0,0,0,221.64,25.92Z"/><path class="cls-2" d="M220.14,23.4v2.52a2,2,0,0,0,.41,1.42h0a1.31,1.31,0,0,1-1.14-1.43V23.4Z"/><path class="cls-2" d="M222.78,23.4a.08.08,0,0,1-.09.08H219a.08.08,0,0,1-.09-.08h0a.08.08,0,0,1,.09-.08h3.72a.08.08,0,0,1,.09.08Z"/><circle class="cls-8" cx="230.21" cy="23.86" r="1.71"/><path class="cls-8" d="M228.07,26a1.71,1.71,0,1,0-3.28,0Z"/><path class="cls-9" d="M230.22,26a1.71,1.71,0,1,0-2.8,0Z"/><path class="cls-10" d="M233.48,26A1.71,1.71,0,1,0,231,26Z"/><path class="cls-10" d="M237.43,26a1.71,1.71,0,0,0-3.33,0Z"/><path class="cls-8" d="M235.23,26a1.71,1.71,0,0,0-3.42,0Z"/><path class="cls-11" d="M232.24,26.21a1.71,1.71,0,0,0-3.42,0Z"/><path class="cls-12" d="M237.69,25.77h-13a.57.57,0,0,0,0,.22c0,.71,1.42,1.33,3.49,1.64v.14h6.11v-.13h0c2.08-.31,3.49-.93,3.49-1.64A.57.57,0,0,0,237.69,25.77Z"/><polygon class="cls-13" points="248.43 29.63 248.43 27.8 209.65 27.8 209.65 29.63 211.1 29.63 246.98 29.63 248.43 29.63"/><polygon class="cls-14" points="211.1 29.63 211.1 52.38 213.66 52.38 213.66 30.98 244.42 30.98 244.42 52.38 246.98 52.38 246.98 29.63 211.1 29.63"/><rect class="cls-1" x="258.75" y="33.13" width="0.01" height="14.25" transform="translate(185.08 291.55) rotate(-82.5)"/><path class="cls-1" d="M265.06,34.28H253.91A1.8,1.8,0,0,0,252.2,36l-.35,2.63h11.76Z"/><polygon class="cls-13" points="206.12 38.62 194.36 38.62 192.91 34.28 192.09 34.28 192.09 40.26 206.34 40.26 206.12 38.62"/><polygon class="cls-13" points="192.09 32.57 192.34 32.57 189.5 24.02 187.7 24.02 190.09 32.56 192.09 32.56 192.09 32.57"/><polygon class="cls-13" points="268.48 24.02 265.63 32.57 265.88 32.57 265.88 32.56 267.88 32.56 270.27 24.02 268.48 24.02"/><polygon class="cls-13" points="265.88 34.28 265.06 34.28 263.61 38.62 251.85 38.62 251.63 40.26 265.88 40.26 265.88 34.28"/><path class="cls-14" d="M265.88,32.57H252.2a1.71,1.71,0,0,0-1.71,1.71L250,37.91l-2,14.47h2l1.45-10.88h14.42V52.38h2V32.56h-2Zm-14.25,7.7h0l.22-1.64L252.2,36a1.8,1.8,0,0,1,1.71-1.71h12v6H251.63Z"/><path class="cls-14" d="M207.48,34.28a1.71,1.71,0,0,0-1.71-1.71H190V52.38h2V41.5h14.42L208,52.38h2l-2-14.47Zm-15.39,6h0v-6h12A1.8,1.8,0,0,1,205.77,36l.35,2.63.22,1.64H192.09Z"/></g></g></svg>