<svg xmlns="http://www.w3.org/2000/svg" viewBox="0 0 350 240"><defs><style>.cls-1{isolation:isolate;}.cls-2{fill:#c0a37e;}.cls-3{fill:#9d7e5a;}.cls-4{opacity:0.35;mix-blend-mode:multiply;}.cls-21,.cls-5,.cls-6{fill:none;}.cls-5,.cls-6{stroke:#5e4b33;stroke-miterlimit:10;}.cls-5{stroke-width:0.5px;}.cls-6{stroke-width:0.5px;}.cls-7{fill:#dabd94;}.cls-8{fill:#c6a67e;}.cls-9{fill:#484147;}.cls-10{fill:#6d8739;}.cls-11{fill:#231f20;}.cls-12{fill:#8eb140;}.cls-13{fill:#9fbec9;}.cls-14{fill:#f9c745;}.cls-15{fill:#faf6e6;}.cls-16{fill:#bd5e4b;}.cls-17{fill:#00a7a1;}.cls-18{fill:#216f74;}.cls-19{fill:#0a7171;}.cls-20{fill:#787087;}</style></defs><title>Casa</title><g class="cls-1"><g id="Capa_2" data-name="Capa 2"><g id="Layer_1" data-name="Layer 1"><rect class="cls-2" x="21.87" y="131.11" width="121.02" height="88.6"/><rect class="cls-3" x="21.87" y="131.11" width="121.02" height="11.76"/><g class="cls-4"><rect class="cls-5" x="22.31" y="131.87" width="15.16" height="5.85"/><rect class="cls-5" x="38.38" y="131.87" width="15.16" height="5.85"/><rect class="cls-5" x="54.45" y="131.87" width="15.16" height="5.85"/><rect class="cls-5" x="70.51" y="131.87" width="15.16" height="5.85"/><rect class="cls-5" x="86.58" y="131.87" width="15.16" height="5.85"/><rect class="cls-5" x="102.65" y="131.87" width="15.16" height="5.85"/><rect class="cls-5" x="118.71" y="131.87" width="15.16" height="5.85"/><polyline class="cls-5" points="142.2 137.71 134.78 137.71 134.78 131.87 142.27 131.87"/><polyline class="cls-6" points="22.62 138.49 29.8 138.49 29.8 144.33 22.55 144.33"/><polyline class="cls-6" points="22.62 151.97 29.8 151.97 29.8 157.82 22.55 157.82"/><polyline class="cls-6" points="22.62 165.46 29.8 165.46 29.8 171.31 22.55 171.31"/><polyline class="cls-6" points="22.62 178.96 29.8 178.96 29.8 184.8 22.55 184.8"/><polyline class="cls-6" points="22.62 192.45 29.8 192.45 29.8 198.29 22.55 198.29"/><polyline class="cls-6" points="22.62 206 29.8 206 29.8 211.85 22.55 211.85"/><rect class="cls-5" x="30.66" y="138.49" width="15.16" height="5.85"/><rect class="cls-5" x="46.73" y="138.49" width="15.16" height="5.85"/><rect class="cls-5" x="62.8" y="138.49" width="15.16" height="5.85"/><rect class="cls-5" x="78.86" y="138.49" width="15.16" height="5.85"/><rect class="cls-5" x="94.93" y="138.49" width="15.16" height="5.85"/><rect class="cls-5" x="111" y="138.49" width="15.16" height="5.85"/><rect class="cls-5" x="127.06" y="138.49" width="15.16" height="5.85"/><rect class="cls-5" x="22.31" y="145.36" width="15.16" height="5.85"/><rect class="cls-5" x="38.38" y="145.36" width="15.16" height="5.85"/><rect class="cls-5" x="54.45" y="145.36" width="15.16" height="5.85"/><rect class="cls-5" x="70.51" y="145.36" width="15.16" height="5.85"/><rect class="cls-5" x="86.58" y="145.36" width="15.16" height="5.85"/><rect class="cls-5" x="102.65" y="145.36" width="15.16" height="5.85"/><rect class="cls-5" x="118.71" y="145.36" width="15.16" height="5.85"/><polyline class="cls-5" points="142.2 151.21 134.78 151.21 134.78 145.36 142.27 145.36"/><rect class="cls-5" x="30.66" y="151.99" width="15.16" height="5.85"/><rect class="cls-5" x="46.73" y="151.99" width="15.16" height="5.85"/><rect class="cls-5" x="62.8" y="151.99" width="15.16" height="5.85"/><rect class="cls-5" x="78.86" y="151.99" width="15.16" height="5.85"/><rect class="cls-5" x="94.93" y="151.99" width="15.16" height="5.85"/><rect class="cls-5" x="111" y="151.99" width="15.16" height="5.85"/><rect class="cls-5" x="127.06" y="151.99" width="15.16" height="5.85"/><rect class="cls-5" x="22.31" y="158.85" width="15.16" height="5.85"/><rect class="cls-5" x="38.38" y="158.85" width="15.16" height="5.85"/><rect class="cls-5" x="54.45" y="158.85" width="15.16" height="5.85"/><rect class="cls-5" x="70.51" y="158.85" width="15.16" height="5.85"/><rect class="cls-5" x="86.58" y="158.85" width="15.16" height="5.85"/><rect class="cls-5" x="102.65" y="158.85" width="15.16" height="5.85"/><rect class="cls-5" x="118.71" y="158.85" width="15.16" height="5.85"/><polyline class="cls-5" points="142.2 164.7 134.78 164.7 134.78 158.85 142.27 158.85"/><rect class="cls-5" x="30.66" y="165.48" width="15.16" height="5.85"/><rect class="cls-5" x="46.73" y="165.48" width="15.16" height="5.85"/><rect class="cls-5" x="62.8" y="165.48" width="15.16" height="5.85"/><rect class="cls-5" x="78.86" y="165.48" width="15.16" height="5.85"/><rect class="cls-5" x="94.93" y="165.48" width="15.16" height="5.85"/><rect class="cls-5" x="111" y="165.48" width="15.16" height="5.85"/><rect class="cls-5" x="127.06" y="165.48" width="15.16" height="5.85"/><rect class="cls-5" x="22.31" y="172.35" width="15.16" height="5.85"/><rect class="cls-5" x="38.38" y="172.35" width="15.16" height="5.85"/><rect class="cls-5" x="54.45" y="172.35" width="15.16" height="5.85"/><rect class="cls-5" x="70.51" y="172.35" width="15.16" height="5.85"/><rect class="cls-5" x="86.58" y="172.35" width="15.16" height="5.85"/><rect class="cls-5" x="102.65" y="172.35" width="15.16" height="5.85"/><rect class="cls-5" x="118.71" y="172.35" width="15.16" height="5.85"/><polyline class="cls-5" points="142.2 178.19 134.78 178.19 134.78 172.35 142.27 172.35"/><rect class="cls-5" x="30.66" y="178.97" width="15.16" height="5.85"/><rect class="cls-5" x="46.73" y="178.97" width="15.16" height="5.85"/><rect class="cls-5" x="62.8" y="178.97" width="15.16" height="5.85"/><rect class="cls-5" x="78.86" y="178.97" width="15.16" height="5.85"/><rect class="cls-5" x="94.93" y="178.97" width="15.16" height="5.85"/><rect class="cls-5" x="111" y="178.97" width="15.16" height="5.85"/><rect class="cls-5" x="127.06" y="178.97" width="15.16" height="5.85"/><rect class="cls-5" x="22.31" y="185.84" width="15.16" height="5.85"/><rect class="cls-5" x="38.38" y="185.84" width="15.16" height="5.85"/><rect class="cls-5" x="54.45" y="185.84" width="15.16" height="5.85"/><rect class="cls-5" x="70.51" y="185.84" width="15.16" height="5.85"/><rect class="cls-5" x="86.58" y="185.84" width="15.16" height="5.85"/><rect class="cls-5" x="102.65" y="185.84" width="15.16" height="5.85"/><rect class="cls-5" x="118.71" y="185.84" width="15.16" height="5.85"/><polyline class="cls-5" points="142.2 191.69 134.78 191.69 134.78 185.84 142.27 185.84"/><rect class="cls-5" x="30.66" y="192.47" width="15.16" height="5.85"/><rect class="cls-5" x="46.73" y="192.47" width="15.16" height="5.85"/><rect class="cls-5" x="62.8" y="192.47" width="15.16" height="5.85"/><rect class="cls-5" x="78.86" y="192.47" width="15.16" height="5.85"/><rect class="cls-5" x="94.93" y="192.47" width="15.16" height="5.85"/><rect class="cls-5" x="111" y="192.47" width="15.16" height="5.85"/><rect class="cls-5" x="127.06" y="192.47" width="15.16" height="5.85"/><rect class="cls-5" x="22.31" y="199.33" width="15.16" height="5.85"/><rect class="cls-5" x="38.38" y="199.33" width="15.16" height="5.85"/><rect class="cls-5" x="54.45" y="199.33" width="15.16" height="5.85"/><rect class="cls-5" x="70.51" y="199.33" width="15.16" height="5.85"/><rect class="cls-5" x="86.58" y="199.33" width="15.16" height="5.85"/><rect class="cls-5" x="102.65" y="199.33" width="15.16" height="5.85"/><rect class="cls-5" x="118.71" y="199.33" width="15.16" height="5.85"/><polyline class="cls-5" points="142.2 205.18 134.78 205.18 134.78 199.33 142.27 199.33"/><rect class="cls-5" x="30.66" y="205.96" width="15.16" height="5.85"/><rect class="cls-5" x="46.73" y="205.96" width="15.16" height="5.85"/><rect class="cls-5" x="62.8" y="205.96" width="15.16" height="5.85"/><rect class="cls-5" x="78.86" y="205.96" width="15.16" height="5.85"/><rect class="cls-5" x="94.93" y="205.96" width="15.16" height="5.85"/><rect class="cls-5" x="111" y="205.96" width="15.16" height="5.85"/><rect class="cls-5" x="127.06" y="205.96" width="15.16" height="5.85"/><rect class="cls-5" x="22.31" y="212.83" width="15.16" height="5.85"/><rect class="cls-5" x="38.38" y="212.83" width="15.16" height="5.85"/><rect class="cls-5" x="54.45" y="212.83" width="15.16" height="5.85"/><rect class="cls-5" x="70.51" y="212.83" width="15.16" height="5.85"/><rect class="cls-5" x="86.58" y="212.83" width="15.16" height="5.85"/><rect class="cls-5" x="102.65" y="212.83" width="15.16" height="5.85"/><rect class="cls-5" x="118.71" y="212.83" width="15.16" height="5.85"/><polyline class="cls-5" points="142.2 218.67 134.78 218.67 134.78 212.83 142.27 212.83"/></g><rect class="cls-7" x="142.69" y="139.77" width="194.31" height="79.01"/><rect class="cls-7" x="142.69" y="70.12" width="194.31" height="68.62"/><rect class="cls-8" x="142.69" y="70.12" width="194.31" height="8.38"/><g class="cls-4"><rect class="cls-5" x="143.92" y="70.78" width="15.16" height="5.85"/><rect class="cls-5" x="159.99" y="70.78" width="15.16" height="5.85"/><rect class="cls-5" x="176.06" y="70.78" width="15.16" height="5.85"/><rect class="cls-5" x="192.12" y="70.78" width="15.16" height="5.85"/><rect class="cls-5" x="208.19" y="70.78" width="15.16" height="5.85"/><rect class="cls-5" x="224.26" y="70.78" width="15.16" height="5.85"/><rect class="cls-5" x="240.32" y="70.78" width="15.16" height="5.85"/><rect class="cls-5" x="256.39" y="70.78" width="15.16" height="5.85"/><rect class="cls-5" x="272.46" y="70.78" width="15.16" height="5.85"/><rect class="cls-5" x="288.52" y="70.78" width="15.16" height="5.85"/><rect class="cls-5" x="304.59" y="70.78" width="15.16" height="5.85"/><rect class="cls-5" x="320.66" y="70.78" width="15.16" height="5.85"/><rect class="cls-5" x="151.64" y="77.65" width="15.16" height="5.85"/><rect class="cls-5" x="167.7" y="77.65" width="15.16" height="5.85"/><rect class="cls-5" x="183.77" y="77.65" width="15.16" height="5.85"/><rect class="cls-5" x="199.84" y="77.65" width="15.16" height="5.85"/><rect class="cls-5" x="215.91" y="77.65" width="15.16" height="5.85"/><rect class="cls-5" x="231.97" y="77.65" width="15.16" height="5.85"/><rect class="cls-5" x="248.04" y="77.65" width="15.16" height="5.85"/><rect class="cls-5" x="264.11" y="77.65" width="15.16" height="5.85"/><rect class="cls-5" x="280.17" y="77.65" width="15.16" height="5.85"/><rect class="cls-5" x="296.24" y="77.65" width="15.16" height="5.85"/><rect class="cls-5" x="312.31" y="77.65" width="15.16" height="5.85"/><polyline class="cls-5" points="335.79 83.5 328.38 83.5 328.38 77.65 335.87 77.65"/><polyline class="cls-6" points="143.72 77.64 150.9 77.64 150.9 83.49 143.65 83.49"/><rect class="cls-5" x="143.92" y="84.27" width="15.16" height="5.85"/><rect class="cls-5" x="159.99" y="84.27" width="15.16" height="5.85"/><rect class="cls-5" x="176.06" y="84.27" width="15.16" height="5.85"/><rect class="cls-5" x="192.12" y="84.27" width="15.16" height="5.85"/><rect class="cls-5" x="208.19" y="84.27" width="15.16" height="5.85"/><rect class="cls-5" x="224.26" y="84.27" width="15.16" height="5.85"/><rect class="cls-5" x="240.32" y="84.27" width="15.16" height="5.85"/><rect class="cls-5" x="256.39" y="84.27" width="15.16" height="5.85"/><rect class="cls-5" x="272.46" y="84.27" width="15.16" height="5.85"/><rect class="cls-5" x="288.52" y="84.27" width="15.16" height="5.85"/><rect class="cls-5" x="304.59" y="84.27" width="15.16" height="5.85"/><rect class="cls-5" x="320.66" y="84.27" width="15.16" height="5.85"/><rect class="cls-5" x="151.64" y="91.14" width="15.16" height="5.85"/><rect class="cls-5" x="167.7" y="91.14" width="15.16" height="5.85"/><rect class="cls-5" x="183.77" y="91.14" width="15.16" height="5.85"/><rect class="cls-5" x="199.84" y="91.14" width="15.16" height="5.85"/><rect class="cls-5" x="215.91" y="91.14" width="15.16" height="5.85"/><rect class="cls-5" x="231.97" y="91.14" width="15.16" height="5.85"/><rect class="cls-5" x="248.04" y="91.14" width="15.16" height="5.85"/><rect class="cls-5" x="264.11" y="91.14" width="15.16" height="5.85"/><rect class="cls-5" x="280.17" y="91.14" width="15.16" height="5.85"/><rect class="cls-5" x="296.24" y="91.14" width="15.16" height="5.85"/><rect class="cls-5" x="312.31" y="91.14" width="15.16" height="5.85"/><polyline class="cls-5" points="335.79 96.99 328.38 96.99 328.38 91.14 335.87 91.14"/><polyline class="cls-6" points="143.72 91.14 150.9 91.14 150.9 96.98 143.65 96.98"/><rect class="cls-5" x="143.92" y="97.77" width="15.16" height="5.85"/><rect class="cls-5" x="159.99" y="97.77" width="15.16" height="5.85"/><rect class="cls-5" x="176.06" y="97.77" width="15.16" height="5.85"/><rect class="cls-5" x="192.12" y="97.77" width="15.16" height="5.85"/><rect class="cls-5" x="208.19" y="97.77" width="15.16" height="5.85"/><rect class="cls-5" x="224.26" y="97.77" width="15.16" height="5.85"/><rect class="cls-5" x="240.32" y="97.77" width="15.16" height="5.85"/><rect class="cls-5" x="256.39" y="97.77" width="15.16" height="5.85"/><rect class="cls-5" x="272.46" y="97.77" width="15.16" height="5.85"/><rect class="cls-5" x="288.52" y="97.77" width="15.16" height="5.85"/><rect class="cls-5" x="304.59" y="97.77" width="15.16" height="5.85"/><rect class="cls-5" x="320.66" y="97.77" width="15.16" height="5.85"/><rect class="cls-5" x="151.64" y="104.64" width="15.16" height="5.85"/><rect class="cls-5" x="167.7" y="104.64" width="15.16" height="5.85"/><rect class="cls-5" x="183.77" y="104.64" width="15.16" height="5.85"/><rect class="cls-5" x="199.84" y="104.64" width="15.16" height="5.85"/><rect class="cls-5" x="215.91" y="104.64" width="15.16" height="5.85"/><rect class="cls-5" x="231.97" y="104.64" width="15.16" height="5.85"/><rect class="cls-5" x="248.04" y="104.64" width="15.16" height="5.85"/><rect class="cls-5" x="264.11" y="104.64" width="15.16" height="5.85"/><rect class="cls-5" x="280.17" y="104.64" width="15.16" height="5.85"/><rect class="cls-5" x="296.24" y="104.64" width="15.16" height="5.85"/><rect class="cls-5" x="312.31" y="104.64" width="15.16" height="5.85"/><polyline class="cls-5" points="335.79 110.48 328.38 110.48 328.38 104.64 335.87 104.64"/><polyline class="cls-6" points="143.72 104.63 150.9 104.63 150.9 110.48 143.65 110.48"/><rect class="cls-5" x="143.92" y="111.26" width="15.16" height="5.85"/><rect class="cls-5" x="159.99" y="111.26" width="15.16" height="5.85"/><rect class="cls-5" x="176.06" y="111.26" width="15.16" height="5.85"/><rect class="cls-5" x="192.12" y="111.26" width="15.16" height="5.85"/><rect class="cls-5" x="208.19" y="111.26" width="15.16" height="5.85"/><rect class="cls-5" x="224.26" y="111.26" width="15.16" height="5.85"/><rect class="cls-5" x="240.32" y="111.26" width="15.16" height="5.85"/><rect class="cls-5" x="256.39" y="111.26" width="15.16" height="5.85"/><rect class="cls-5" x="272.46" y="111.26" width="15.16" height="5.85"/><rect class="cls-5" x="288.52" y="111.26" width="15.16" height="5.85"/><rect class="cls-5" x="304.59" y="111.26" width="15.16" height="5.85"/><rect class="cls-5" x="320.66" y="111.26" width="15.16" height="5.85"/><rect class="cls-5" x="151.64" y="118.13" width="15.16" height="5.85"/><rect class="cls-5" x="167.7" y="118.13" width="15.16" height="5.85"/><rect class="cls-5" x="183.77" y="118.13" width="15.16" height="5.85"/><rect class="cls-5" x="199.84" y="118.13" width="15.16" height="5.85"/><rect class="cls-5" x="215.91" y="118.13" width="15.16" height="5.85"/><rect class="cls-5" x="231.97" y="118.13" width="15.16" height="5.85"/><rect class="cls-5" x="248.04" y="118.13" width="15.16" height="5.85"/><rect class="cls-5" x="264.11" y="118.13" width="15.16" height="5.85"/><rect class="cls-5" x="280.17" y="118.13" width="15.16" height="5.85"/><rect class="cls-5" x="296.24" y="118.13" width="15.16" height="5.85"/><rect class="cls-5" x="312.31" y="118.13" width="15.16" height="5.85"/><polyline class="cls-5" points="335.79 123.97 328.38 123.97 328.38 118.13 335.87 118.13"/><polyline class="cls-6" points="143.72 118.12 150.9 118.12 150.9 123.97 143.65 123.97"/><rect class="cls-5" x="143.92" y="124.75" width="15.16" height="5.85"/><rect class="cls-5" x="159.99" y="124.75" width="15.16" height="5.85"/><rect class="cls-5" x="176.06" y="124.75" width="15.16" height="5.85"/><rect class="cls-5" x="192.12" y="124.75" width="15.16" height="5.85"/><rect class="cls-5" x="208.19" y="124.75" width="15.16" height="5.85"/><rect class="cls-5" x="224.26" y="124.75" width="15.16" height="5.85"/><rect class="cls-5" x="240.32" y="124.75" width="15.16" height="5.85"/><rect class="cls-5" x="256.39" y="124.75" width="15.16" height="5.85"/><rect class="cls-5" x="272.46" y="124.75" width="15.16" height="5.85"/><rect class="cls-5" x="288.52" y="124.75" width="15.16" height="5.85"/><rect class="cls-5" x="304.59" y="124.75" width="15.16" height="5.85"/><rect class="cls-5" x="320.66" y="124.75" width="15.16" height="5.85"/><rect class="cls-5" x="151.64" y="131.62" width="15.16" height="5.85"/><rect class="cls-5" x="167.7" y="131.62" width="15.16" height="5.85"/><rect class="cls-5" x="183.77" y="131.62" width="15.16" height="5.85"/><rect class="cls-5" x="199.84" y="131.62" width="15.16" height="5.85"/><rect class="cls-5" x="215.91" y="131.62" width="15.16" height="5.85"/><rect class="cls-5" x="231.97" y="131.62" width="15.16" height="5.85"/><rect class="cls-5" x="248.04" y="131.62" width="15.16" height="5.85"/><rect class="cls-5" x="264.11" y="131.62" width="15.16" height="5.85"/><rect class="cls-5" x="280.17" y="131.62" width="15.16" height="5.85"/><rect class="cls-5" x="296.24" y="131.62" width="15.16" height="5.85"/><rect class="cls-5" x="312.31" y="131.62" width="15.16" height="5.85"/><polyline class="cls-5" points="335.79 137.47 328.38 137.47 328.38 131.62 335.87 131.62"/><polyline class="cls-6" points="143.72 131.62 150.9 131.62 150.9 137.46 143.65 137.46"/><rect class="cls-5" x="143.92" y="138.25" width="15.16" height="5.85"/><rect class="cls-5" x="159.99" y="138.25" width="15.16" height="5.85"/><rect class="cls-5" x="176.06" y="138.25" width="15.16" height="5.85"/><rect class="cls-5" x="192.12" y="138.25" width="15.16" height="5.85"/><rect class="cls-5" x="208.19" y="138.25" width="15.16" height="5.85"/><rect class="cls-5" x="224.26" y="138.25" width="15.16" height="5.85"/><rect class="cls-5" x="240.32" y="138.25" width="15.16" height="5.85"/><rect class="cls-5" x="256.39" y="138.25" width="15.16" height="5.85"/><rect class="cls-5" x="272.46" y="138.25" width="15.16" height="5.85"/><rect class="cls-5" x="288.52" y="138.25" width="15.16" height="5.85"/><rect class="cls-5" x="304.59" y="138.25" width="15.16" height="5.85"/><rect class="cls-5" x="320.66" y="138.25" width="15.16" height="5.85"/><rect class="cls-5" x="151.64" y="145.11" width="15.16" height="5.85"/><rect class="cls-5" x="167.7" y="145.11" width="15.16" height="5.85"/><rect class="cls-5" x="183.77" y="145.11" width="15.16" height="5.85"/><rect class="cls-5" x="199.84" y="145.11" width="15.16" height="5.85"/><rect class="cls-5" x="215.91" y="145.11" width="15.16" height="5.85"/><rect class="cls-5" x="231.97" y="145.11" width="15.16" height="5.85"/><rect class="cls-5" x="248.04" y="145.11" width="15.16" height="5.85"/><rect class="cls-5" x="264.11" y="145.11" width="15.16" height="5.85"/><rect class="cls-5" x="280.17" y="145.11" width="15.16" height="5.85"/><rect class="cls-5" x="296.24" y="145.11" width="15.16" height="5.85"/><rect class="cls-5" x="312.31" y="145.11" width="15.16" height="5.85"/><polyline class="cls-5" points="335.79 150.96 328.38 150.96 328.38 145.11 335.87 145.11"/><polyline class="cls-6" points="143.72 145.11 150.9 145.11 150.9 150.96 143.65 150.96"/><rect class="cls-5" x="143.92" y="151.74" width="15.16" height="5.85"/><rect class="cls-5" x="159.99" y="151.74" width="15.16" height="5.85"/><rect class="cls-5" x="176.06" y="151.74" width="15.16" height="5.85"/><rect class="cls-5" x="192.12" y="151.74" width="15.16" height="5.85"/><rect class="cls-5" x="208.19" y="151.74" width="15.16" height="5.85"/><rect class="cls-5" x="224.26" y="151.74" width="15.16" height="5.85"/><rect class="cls-5" x="240.32" y="151.74" width="15.16" height="5.85"/><rect class="cls-5" x="256.39" y="151.74" width="15.16" height="5.85"/><rect class="cls-5" x="272.46" y="151.74" width="15.16" height="5.85"/><rect class="cls-5" x="288.52" y="151.74" width="15.16" height="5.85"/><rect class="cls-5" x="304.59" y="151.74" width="15.16" height="5.85"/><rect class="cls-5" x="320.66" y="151.74" width="15.16" height="5.85"/><rect class="cls-5" x="151.64" y="158.61" width="15.16" height="5.85"/><rect class="cls-5" x="167.7" y="158.61" width="15.16" height="5.85"/><rect class="cls-5" x="183.77" y="158.61" width="15.16" height="5.85"/><rect class="cls-5" x="199.84" y="158.61" width="15.16" height="5.85"/><rect class="cls-5" x="215.91" y="158.61" width="15.16" height="5.85"/><rect class="cls-5" x="231.97" y="158.61" width="15.16" height="5.85"/><rect class="cls-5" x="248.04" y="158.61" width="15.16" height="5.85"/><rect class="cls-5" x="264.11" y="158.61" width="15.16" height="5.85"/><rect class="cls-5" x="280.17" y="158.61" width="15.16" height="5.85"/><rect class="cls-5" x="296.24" y="158.61" width="15.16" height="5.85"/><rect class="cls-5" x="312.31" y="158.61" width="15.16" height="5.85"/><polyline class="cls-5" points="335.79 164.45 328.38 164.45 328.38 158.61 335.87 158.61"/><polyline class="cls-6" points="143.72 158.6 150.9 158.6 150.9 164.45 143.65 164.45"/><rect class="cls-5" x="143.92" y="165.23" width="15.16" height="5.85"/><rect class="cls-5" x="159.99" y="165.23" width="15.16" height="5.85"/><rect class="cls-5" x="176.06" y="165.23" width="15.16" height="5.85"/><rect class="cls-5" x="192.12" y="165.23" width="15.16" height="5.85"/><rect class="cls-5" x="208.19" y="165.23" width="15.16" height="5.85"/><rect class="cls-5" x="224.26" y="165.23" width="15.16" height="5.85"/><rect class="cls-5" x="240.32" y="165.23" width="15.16" height="5.85"/><rect class="cls-5" x="256.39" y="165.23" width="15.16" height="5.85"/><rect class="cls-5" x="272.46" y="165.23" width="15.16" height="5.85"/><rect class="cls-5" x="288.52" y="165.23" width="15.16" height="5.85"/><rect class="cls-5" x="304.59" y="165.23" width="15.16" height="5.85"/><rect class="cls-5" x="320.66" y="165.23" width="15.16" height="5.85"/><rect class="cls-5" x="151.64" y="172.1" width="15.16" height="5.85"/><rect class="cls-5" x="167.7" y="172.1" width="15.16" height="5.85"/><rect class="cls-5" x="183.77" y="172.1" width="15.16" height="5.85"/><rect class="cls-5" x="199.84" y="172.1" width="15.16" height="5.85"/><rect class="cls-5" x="215.91" y="172.1" width="15.16" height="5.85"/><rect class="cls-5" x="231.97" y="172.1" width="15.16" height="5.85"/><rect class="cls-5" x="248.04" y="172.1" width="15.16" height="5.85"/><rect class="cls-5" x="264.11" y="172.1" width="15.16" height="5.85"/><rect class="cls-5" x="280.17" y="172.1" width="15.16" height="5.85"/><rect class="cls-5" x="296.24" y="172.1" width="15.16" height="5.85"/><rect class="cls-5" x="312.31" y="172.1" width="15.16" height="5.85"/><polyline class="cls-5" points="335.79 177.95 328.38 177.95 328.38 172.1 335.87 172.1"/><polyline class="cls-6" points="143.72 172.09 150.9 172.09 150.9 177.94 143.65 177.94"/><rect class="cls-5" x="143.92" y="178.73" width="15.16" height="5.85"/><rect class="cls-5" x="159.99" y="178.73" width="15.16" height="5.85"/><rect class="cls-5" x="176.06" y="178.73" width="15.16" height="5.85"/><rect class="cls-5" x="192.12" y="178.73" width="15.16" height="5.85"/><rect class="cls-5" x="208.19" y="178.73" width="15.16" height="5.85"/><rect class="cls-5" x="224.26" y="178.73" width="15.16" height="5.85"/><rect class="cls-5" x="240.32" y="178.73" width="15.16" height="5.85"/><rect class="cls-5" x="256.39" y="178.73" width="15.16" height="5.85"/><rect class="cls-5" x="272.46" y="178.73" width="15.16" height="5.85"/><rect class="cls-5" x="288.52" y="178.73" width="15.16" height="5.85"/><rect class="cls-5" x="304.59" y="178.73" width="15.16" height="5.85"/><rect class="cls-5" x="320.66" y="178.73" width="15.16" height="5.85"/><rect class="cls-5" x="151.64" y="185.59" width="15.16" height="5.85"/><rect class="cls-5" x="167.7" y="185.59" width="15.16" height="5.85"/><rect class="cls-5" x="183.77" y="185.59" width="15.16" height="5.85"/><rect class="cls-5" x="199.84" y="185.59" width="15.16" height="5.85"/><rect class="cls-5" x="215.91" y="185.59" width="15.16" height="5.85"/><rect class="cls-5" x="231.97" y="185.59" width="15.16" height="5.85"/><rect class="cls-5" x="248.04" y="185.59" width="15.16" height="5.85"/><rect class="cls-5" x="264.11" y="185.59" width="15.16" height="5.85"/><rect class="cls-5" x="280.17" y="185.59" width="15.16" height="5.85"/><rect class="cls-5" x="296.24" y="185.59" width="15.16" height="5.85"/><rect class="cls-5" x="312.31" y="185.59" width="15.16" height="5.85"/><polyline class="cls-5" points="335.79 191.44 328.38 191.44 328.38 185.59 335.87 185.59"/><polyline class="cls-6" points="143.72 185.59 150.9 185.59 150.9 191.43 143.65 191.43"/><rect class="cls-5" x="143.92" y="192.22" width="15.16" height="5.85"/><rect class="cls-5" x="159.99" y="192.22" width="15.16" height="5.85"/><rect class="cls-5" x="176.06" y="192.22" width="15.16" height="5.85"/><rect class="cls-5" x="192.12" y="192.22" width="15.16" height="5.85"/><rect class="cls-5" x="208.19" y="192.22" width="15.16" height="5.85"/><rect class="cls-5" x="224.26" y="192.22" width="15.16" height="5.85"/><rect class="cls-5" x="240.32" y="192.22" width="15.16" height="5.85"/><rect class="cls-5" x="256.39" y="192.22" width="15.16" height="5.85"/><rect class="cls-5" x="272.46" y="192.22" width="15.16" height="5.85"/><rect class="cls-5" x="288.52" y="192.22" width="15.16" height="5.85"/><rect class="cls-5" x="304.59" y="192.22" width="15.16" height="5.85"/><rect class="cls-5" x="320.66" y="192.22" width="15.16" height="5.85"/><rect class="cls-5" x="151.64" y="199.09" width="15.16" height="5.85"/><rect class="cls-5" x="167.7" y="199.09" width="15.16" height="5.85"/><rect class="cls-5" x="183.77" y="199.09" width="15.16" height="5.85"/><rect class="cls-5" x="199.84" y="199.09" width="15.16" height="5.85"/><rect class="cls-5" x="215.91" y="199.09" width="15.16" height="5.85"/><rect class="cls-5" x="231.97" y="199.09" width="15.16" height="5.85"/><rect class="cls-5" x="248.04" y="199.09" width="15.16" height="5.85"/><rect class="cls-5" x="264.11" y="199.09" width="15.16" height="5.85"/><rect class="cls-5" x="280.17" y="199.09" width="15.16" height="5.85"/><rect class="cls-5" x="296.24" y="199.09" width="15.16" height="5.85"/><rect class="cls-5" x="312.31" y="199.09" width="15.16" height="5.85"/><polyline class="cls-5" points="335.79 204.93 328.38 204.93 328.38 199.09 335.87 199.09"/><polyline class="cls-6" points="143.72 199.08 150.9 199.08 150.9 204.93 143.65 204.93"/><rect class="cls-5" x="143.92" y="205.71" width="15.16" height="5.85"/><rect class="cls-5" x="159.99" y="205.71" width="15.16" height="5.85"/><rect class="cls-5" x="176.06" y="205.71" width="15.16" height="5.85"/><rect class="cls-5" x="192.12" y="205.71" width="15.16" height="5.85"/><rect class="cls-5" x="208.19" y="205.71" width="15.16" height="5.85"/><rect class="cls-5" x="224.26" y="205.71" width="15.16" height="5.85"/><rect class="cls-5" x="240.32" y="205.71" width="15.16" height="5.85"/><rect class="cls-5" x="256.39" y="205.71" width="15.16" height="5.85"/><rect class="cls-5" x="272.46" y="205.71" width="15.16" height="5.85"/><rect class="cls-5" x="288.52" y="205.71" width="15.16" height="5.85"/><rect class="cls-5" x="304.59" y="205.71" width="15.16" height="5.85"/><rect class="cls-5" x="320.66" y="205.71" width="15.16" height="5.85"/><rect class="cls-5" x="151.64" y="212.58" width="15.16" height="5.85"/><rect class="cls-5" x="167.7" y="212.58" width="15.16" height="5.85"/><rect class="cls-5" x="183.77" y="212.58" width="15.16" height="5.85"/><rect class="cls-5" x="199.84" y="212.58" width="15.16" height="5.85"/><rect class="cls-5" x="215.91" y="212.58" width="15.16" height="5.85"/><rect class="cls-5" x="231.97" y="212.58" width="15.16" height="5.85"/><rect class="cls-5" x="248.04" y="212.58" width="15.16" height="5.85"/><rect class="cls-5" x="264.11" y="212.58" width="15.16" height="5.85"/><rect class="cls-5" x="280.17" y="212.58" width="15.16" height="5.85"/><rect class="cls-5" x="296.24" y="212.58" width="15.16" height="5.85"/><rect class="cls-5" x="312.31" y="212.58" width="15.16" height="5.85"/><polyline class="cls-5" points="335.79 218.43 328.38 218.43 328.38 212.58 335.87 212.58"/><polyline class="cls-6" points="143.72 212.57 150.9 212.57 150.9 218.42 143.65 218.42"/></g><rect class="cls-9" x="43.22" y="202" width="73.36" height="17.71"/><path class="cls-10" d="M47.34,188.61a1,1,0,0,0,1,1l4.33.52a1,1,0,0,0,1-1v-3a1,1,0,0,0-1-1H48.57a1,1,0,0,0-1,1Z"/><path class="cls-10" d="M112.2,188.61a1,1,0,0,1-1,1l-4.33.52a1,1,0,0,1-1-1v-3a1,1,0,0,1,1-1H111a1,1,0,0,1,1,1Z"/><ellipse class="cls-9" cx="79.77" cy="213.3" rx="3.04" ry="1.71"/><path class="cls-11" d="M97.71,217.7c0,1.11.5,2,1.13,2h3.53c.61,0,1.11-.9,1.11-2v-13c0-1.11-.49-2-1.11-2H98.84c-.63,0-1.13.9-1.13,2Z"/><path class="cls-11" d="M56.07,217.7c0,1.11.5,2,1.12,2h3.53c.61,0,1.11-.9,1.11-2v-13c0-1.11-.49-2-1.11-2H57.19c-.62,0-1.12.9-1.12,2Z"/><path class="cls-9" d="M54.11,212.42a1.2,1.2,0,0,0,1.2,1.2h48.9a1.2,1.2,0,0,0,1.2-1.2h0a1.2,1.2,0,0,0-1.2-1.2H55.32a1.2,1.2,0,0,0-1.2,1.2Z"/><polygon class="cls-12" points="52.56 213.04 106.7 213.04 110.11 206.25 106.7 190.07 96.78 176 79.98 176 62.48 176 52.56 190.07 49.43 206.25 52.56 213.04"/><polygon class="cls-13" points="56.98 189.78 69.05 192.4 90.5 192.4 102.56 189.78 96.34 177.66 80.07 177.66 63.66 177.66 56.98 189.78"/><polygon class="cls-10" points="50.08 202.72 56.08 205.72 66.82 206.25 79.77 206.25 92.72 206.25 103.47 205.72 109.46 202.72 110.2 207.03 106.8 213.04 79.77 213.04 52.74 213.04 49.34 207.03 50.08 202.72"/><polygon class="cls-14" points="102.93 204.92 94.89 205.17 92.62 202.53 102.93 200.28 102.93 204.92"/><polygon class="cls-14" points="56.61 204.92 64.67 205.17 66.93 202.53 56.61 200.28 56.61 204.92"/><rect class="cls-15" x="70.07" y="207.03" width="19.39" height="3.92"/><polygon class="cls-10" points="100.49 192.4 103.36 198.13 92.51 201.08 79.86 201.08 92.51 200.28 102.16 197.67 100.49 192.4"/><polygon class="cls-10" points="59.05 192.4 56.17 198.13 67.03 201.08 79.67 201.08 67.03 200.28 57.38 197.67 59.05 192.4"/><polygon class="cls-16" points="103.98 200.28 106.46 200.28 107.3 203.2 103.98 204.59 103.98 200.28"/><polygon class="cls-16" points="55.56 200.28 53.07 200.28 52.24 203.2 55.56 204.59 55.56 200.28"/><path class="cls-9" d="M76,181.33a.73.73,0,0,0,.73.74h6.12a.74.74,0,0,0,.74-.74v-1.14a.74.74,0,0,0-.74-.74H76.71a.73.73,0,0,0-.73.74Z"/><path class="cls-9" d="M67.42,203.48a.28.28,0,0,0,.27.27H91.84a.28.28,0,0,0,.27-.27h0a.28.28,0,0,0-.27-.28H67.69a.28.28,0,0,0-.27.28Z"/><path class="cls-9" d="M67.42,205.45a.27.27,0,0,0,.27.27H91.84a.27.27,0,0,0,.27-.27h0a.28.28,0,0,0-.27-.28H67.69a.28.28,0,0,0-.27.28Z"/><path class="cls-9" d="M67.42,204.46a.28.28,0,0,0,.27.27H91.84a.28.28,0,0,0,.27-.27h0a.28.28,0,0,0-.27-.28H67.69a.28.28,0,0,0-.27.28Z"/><polygon class="cls-10" points="91.55 193.7 87.95 198.87 87.4 198.87 91.55 193.7"/><polygon class="cls-10" points="67.99 193.7 71.58 198.87 72.14 198.87 67.99 193.7"/><path class="cls-16" d="M68.26,186.93a6.24,6.24,0,0,1,6.18,5.47H72.91a4.74,4.74,0,0,0-4.65-4,4.82,4.82,0,0,0-4.41,2.9L62.44,191A6.25,6.25,0,0,1,68.26,186.93Z"/><rect class="cls-2" x="43.22" y="148.27" width="73.36" height="54.02"/><rect class="cls-16" x="43.22" y="155.62" width="73.36" height="2.37"/><rect class="cls-16" x="43.22" y="158.84" width="73.36" height="2.37"/><rect class="cls-16" x="43.22" y="162.06" width="73.36" height="2.37"/><rect class="cls-16" x="43.22" y="165.28" width="73.36" height="2.37"/><rect class="cls-16" x="43.22" y="168.5" width="73.36" height="2.37"/><rect class="cls-16" x="43.22" y="171.72" width="73.36" height="2.37"/><rect class="cls-16" x="43.22" y="174.94" width="73.36" height="2.37"/><rect class="cls-16" x="43.22" y="178.16" width="73.36" height="2.37"/><rect class="cls-16" x="43.22" y="181.38" width="73.36" height="2.37"/><rect class="cls-16" x="43.22" y="184.6" width="73.36" height="2.37"/><rect class="cls-16" x="43.22" y="187.82" width="73.36" height="2.37"/><rect class="cls-16" x="43.22" y="191.04" width="73.36" height="2.37"/><rect class="cls-16" x="43.22" y="194.26" width="73.36" height="2.37"/><rect class="cls-16" x="43.22" y="197.48" width="73.36" height="2.37"/><rect class="cls-16" x="43.22" y="200.7" width="73.36" height="2.37"/><rect class="cls-16" x="43.22" y="152.64" width="73.36" height="2.37"/><rect class="cls-16" x="43.22" y="149.65" width="73.36" height="2.37"/><rect class="cls-16" x="43.22" y="146.67" width="73.36" height="2.37"/><rect class="cls-17" x="134.43" y="34.4" width="210.83" height="35.73"/><path class="cls-18" d="M345.26,34.41h0a.91.91,0,0,0-.64.27l-5.66,5.69L333.61,35a1,1,0,0,0-.15-.36,1.39,1.39,0,0,0-1.5,0,.9.9,0,0,0-.15.36l-5.3,5.32-5.06-5.08a.88.88,0,0,0-.26-.61,1.85,1.85,0,0,0-1.64,0,.88.88,0,0,0-.25.61l-5.06,5.08-5.13-5.16a.89.89,0,0,0-.22-.53.86.86,0,0,0-.8-.21.87.87,0,0,0-.8.21.91.91,0,0,0-.22.53l-5.14,5.16L296.64,35a.9.9,0,0,0-.15-.36,1.39,1.39,0,0,0-1.5,0c-.1.1-.1.24-.15.36l-5.3,5.32-5.67-5.69a.89.89,0,0,0-.64-.27h0a.91.91,0,0,0-.64.27l-5.67,5.69L271.62,35c0-.12-.05-.26-.16-.36a1.38,1.38,0,0,0-1.5,0,.91.91,0,0,0-.15.36l-5.3,5.32-5.05-5.08a.9.9,0,0,0-.25-.61,1.87,1.87,0,0,0-1.65,0,.9.9,0,0,0-.25.61l-5.06,5.08-5.14-5.16a.92.92,0,0,0-.22-.53,1.69,1.69,0,0,0-1.6,0,.89.89,0,0,0-.22.53l-5.14,5.16L234.63,35c0-.12,0-.26-.14-.36a1.4,1.4,0,0,0-1.51,0,.9.9,0,0,0-.14.36l-5.3,5.32-5.06-5.08a.9.9,0,0,0-.25-.61.86.86,0,0,0-.83-.19.85.85,0,0,0-.82.19.94.94,0,0,0-.25.61l-5.05,5.08-5.61-5.63s0,0,0-.05a1,1,0,0,0-1.32,0s0,0,0,.05l-5.61,5.63L197.37,35a.89.89,0,0,0-.14-.36,1.4,1.4,0,0,0-1.51,0,.77.77,0,0,0-.14.36l-5.31,5.32-5.06-5.08a1,1,0,0,0-.25-.6,1.81,1.81,0,0,0-1.64,0,.91.91,0,0,0-.24.6L178,40.35l-5.14-5.15a.9.9,0,0,0-.22-.54.86.86,0,0,0-.81-.2.84.84,0,0,0-.8.2.91.91,0,0,0-.22.54l-5.12,5.15L160.4,35a.91.91,0,0,0-.15-.36,1.36,1.36,0,0,0-1.5,0c-.11.1-.11.24-.16.36l-5.3,5.32-5.06-5.08a.89.89,0,0,0-.25-.6,1.81,1.81,0,0,0-1.64,0,.91.91,0,0,0-.24.6L141,40.35l-5.66-5.69a.91.91,0,0,0-.64-.27h0c-.11,0-.19.09-.29.12v1.8l6,6a.92.92,0,0,0,1.3,0l5.49-5.51,5.49,5.51a.91.91,0,0,0,.65.27.92.92,0,0,0,.65-.27l5.56-5.58L165,42.3a.93.93,0,0,0,.66.27.91.91,0,0,0,.64-.27l5.5-5.53,5.51,5.53a.92.92,0,0,0,1.3,0l5.48-5.51,5.49,5.51a.91.91,0,0,0,1.29,0l5.56-5.58L202,42.3a.91.91,0,0,0,1.29,0L209,36.63l5.65,5.67a.91.91,0,0,0,1.29,0l5.48-5.51,5.5,5.51a.91.91,0,0,0,.65.27.9.9,0,0,0,.64-.27l5.56-5.58,5.56,5.58a.91.91,0,0,0,1.29,0l5.51-5.53,5.5,5.53a.93.93,0,0,0,.65.27.9.9,0,0,0,.65-.27l5.5-5.51,5.48,5.51a.91.91,0,0,0,.65.27.93.93,0,0,0,.66-.27l5.55-5.58,5.56,5.58a.9.9,0,0,0,.64.27.92.92,0,0,0,.65-.27l5.66-5.69,5.66,5.69a.92.92,0,0,0,.65.27.9.9,0,0,0,.65-.27l5.56-5.58,5.55,5.58a.94.94,0,0,0,.65.27.92.92,0,0,0,.65-.27l5.5-5.53,5.5,5.53a.9.9,0,0,0,.64.27.93.93,0,0,0,.66-.27l5.49-5.51,5.49,5.51a.91.91,0,0,0,1.29,0l5.56-5.58,5.56,5.58a.92.92,0,0,0,.65.27.91.91,0,0,0,.64-.27l5.7-5.72Z"/><path class="cls-18" d="M345.26,46.46a.88.88,0,0,0-.68.26l-5.66,5.69-5.31-5.33a1,1,0,0,0-.15-.36,1.37,1.37,0,0,0-1.5,0,.88.88,0,0,0-.15.36l-5.3,5.32-5.06-5.08a.88.88,0,0,0-.26-.61,1.81,1.81,0,0,0-1.64,0,.88.88,0,0,0-.25.61l-5.06,5.08-5.13-5.16a.88.88,0,0,0-.22-.53.85.85,0,0,0-.8-.21.86.86,0,0,0-.8.21.9.9,0,0,0-.22.53l-5.14,5.16-5.3-5.33a.88.88,0,0,0-.15-.36,1.37,1.37,0,0,0-1.5,0c-.1.1-.1.23-.15.36l-5.3,5.32-5.67-5.69a.9.9,0,0,0-1.29,0l-5.67,5.69-5.29-5.33c0-.12-.05-.26-.16-.36a1.36,1.36,0,0,0-1.5,0,.89.89,0,0,0-.15.36l-5.3,5.32-5.05-5.08a.9.9,0,0,0-.25-.61,1.83,1.83,0,0,0-1.65,0,.9.9,0,0,0-.25.61l-5.06,5.08-5.14-5.16a.9.9,0,0,0-.22-.53,1.65,1.65,0,0,0-1.6,0,.88.88,0,0,0-.22.53l-5.14,5.16-5.31-5.33c0-.12,0-.26-.14-.36a.91.91,0,0,0-1.65.36l-5.3,5.32-5.06-5.08a.9.9,0,0,0-.25-.61.87.87,0,0,0-.83-.2.85.85,0,0,0-.82.2.94.94,0,0,0-.25.61l-5.05,5.08-5.61-5.64s0,0,0,0a1,1,0,0,0-1.32,0s0,0,0,0l-5.61,5.64-5.3-5.32a.87.87,0,0,0-.14-.36.89.89,0,0,0-.76-.22.87.87,0,0,0-.75.22.76.76,0,0,0-.14.36l-5.31,5.33-5.06-5.08a1,1,0,0,0-.25-.6,1.81,1.81,0,0,0-1.64,0,.9.9,0,0,0-.24.6L178,52.41l-5.14-5.16a.89.89,0,0,0-.22-.53.86.86,0,0,0-.81-.21.85.85,0,0,0-.8.21.9.9,0,0,0-.22.53l-5.12,5.16-5.3-5.32a.88.88,0,0,0-.15-.36,1.36,1.36,0,0,0-1.5,0c-.11.1-.11.23-.16.36l-5.3,5.33-5.06-5.08a.89.89,0,0,0-.25-.6.84.84,0,0,0-.82-.2.86.86,0,0,0-.82.2.9.9,0,0,0-.24.6L141,52.41l-5.66-5.69a.85.85,0,0,0-.94-.15v1.8l6,6a.92.92,0,0,0,1.3,0l5.49-5.51,5.49,5.51a.91.91,0,0,0,.65.27.92.92,0,0,0,.65-.27l5.56-5.58L165,54.36a.93.93,0,0,0,.66.27.91.91,0,0,0,.64-.27l5.5-5.53,5.51,5.53a.92.92,0,0,0,1.3,0l5.48-5.51,5.49,5.51a.91.91,0,0,0,1.29,0l5.56-5.58L202,54.36a.91.91,0,0,0,1.29,0L209,48.68l5.65,5.67a.91.91,0,0,0,1.29,0l5.48-5.51,5.5,5.51a.91.91,0,0,0,.65.27.9.9,0,0,0,.64-.27l5.56-5.58,5.56,5.58a.91.91,0,0,0,1.29,0l5.51-5.53,5.5,5.53a.94.94,0,0,0,.65.27.9.9,0,0,0,.65-.27l5.5-5.51,5.48,5.51a.92.92,0,0,0,.65.27.93.93,0,0,0,.66-.27l5.55-5.58,5.56,5.58a.91.91,0,0,0,.64.27.92.92,0,0,0,.65-.27l5.66-5.69,5.66,5.69a.92.92,0,0,0,.65.27.9.9,0,0,0,.65-.27l5.56-5.58,5.55,5.58a.94.94,0,0,0,.65.27.92.92,0,0,0,.65-.27l5.5-5.53,5.5,5.53a.91.91,0,0,0,.64.27.93.93,0,0,0,.66-.27l5.49-5.51,5.49,5.51a.91.91,0,0,0,1.29,0l5.56-5.58,5.56,5.58a.92.92,0,0,0,.65.27.91.91,0,0,0,.64-.27l5.7-5.72Z"/><path class="cls-18" d="M345.26,58.52a.88.88,0,0,0-.68.26l-5.66,5.69-5.31-5.33a1,1,0,0,0-.15-.36,1.37,1.37,0,0,0-1.5,0,.88.88,0,0,0-.15.36l-5.3,5.32-5.06-5.08a.88.88,0,0,0-.26-.61,1.81,1.81,0,0,0-1.64,0,.88.88,0,0,0-.25.61l-5.06,5.08-5.13-5.16a.88.88,0,0,0-.22-.53.85.85,0,0,0-.8-.21.86.86,0,0,0-.8.21.9.9,0,0,0-.22.53l-5.14,5.16-5.3-5.33a.89.89,0,0,0-.15-.36,1.37,1.37,0,0,0-1.5,0c-.1.1-.1.23-.15.36l-5.3,5.32-5.67-5.69a.9.9,0,0,0-1.29,0l-5.67,5.69-5.29-5.33c0-.12-.05-.26-.16-.36a1.36,1.36,0,0,0-1.5,0,.89.89,0,0,0-.15.36l-5.3,5.32-5.05-5.08a.9.9,0,0,0-.25-.61,1.83,1.83,0,0,0-1.65,0,.9.9,0,0,0-.25.61l-5.06,5.08-5.14-5.16a.9.9,0,0,0-.22-.53,1.65,1.65,0,0,0-1.6,0,.88.88,0,0,0-.22.53l-5.14,5.16-5.31-5.33c0-.12,0-.26-.14-.36a.91.91,0,0,0-1.65.36l-5.3,5.32-5.06-5.08a.9.9,0,0,0-.25-.61.87.87,0,0,0-.83-.2.85.85,0,0,0-.82.2.94.94,0,0,0-.25.61l-5.05,5.08-5.61-5.64s0,0,0,0a1,1,0,0,0-1.32,0s0,0,0,0l-5.61,5.64-5.3-5.32a.87.87,0,0,0-.14-.36.89.89,0,0,0-.76-.22.87.87,0,0,0-.75.22.76.76,0,0,0-.14.36l-5.31,5.33-5.06-5.08a1,1,0,0,0-.25-.6,1.81,1.81,0,0,0-1.64,0,.9.9,0,0,0-.24.6L178,64.47l-5.14-5.16a.89.89,0,0,0-.22-.53.86.86,0,0,0-.81-.21.85.85,0,0,0-.8.21.9.9,0,0,0-.22.53l-5.12,5.16-5.3-5.32a.88.88,0,0,0-.15-.36,1.36,1.36,0,0,0-1.5,0c-.11.1-.11.23-.16.36l-5.3,5.33-5.06-5.08a.89.89,0,0,0-.25-.6.84.84,0,0,0-.82-.2.86.86,0,0,0-.82.2.9.9,0,0,0-.24.6L141,64.47l-5.66-5.69a.85.85,0,0,0-.94-.15v1.8l6,6a.92.92,0,0,0,1.3,0l5.49-5.51,5.49,5.51a.91.91,0,0,0,.65.27.92.92,0,0,0,.65-.27l5.56-5.58L165,66.41a.93.93,0,0,0,.66.27.91.91,0,0,0,.64-.27l5.5-5.53,5.51,5.53a.92.92,0,0,0,1.3,0l5.48-5.51,5.49,5.51a.91.91,0,0,0,1.29,0l5.56-5.58L202,66.41a.91.91,0,0,0,1.29,0L209,60.74l5.65,5.67a.91.91,0,0,0,1.29,0l5.48-5.51,5.5,5.51a.91.91,0,0,0,.65.27.9.9,0,0,0,.64-.27l5.56-5.58,5.56,5.58a.91.91,0,0,0,1.29,0l5.51-5.53,5.5,5.53a.93.93,0,0,0,.65.27.9.9,0,0,0,.65-.27l5.5-5.51,5.48,5.51a.91.91,0,0,0,.65.27.93.93,0,0,0,.66-.27l5.55-5.58,5.56,5.58a.9.9,0,0,0,.64.27.92.92,0,0,0,.65-.27l5.66-5.69,5.66,5.69a.92.92,0,0,0,.65.27.9.9,0,0,0,.65-.27l5.56-5.58,5.55,5.58a.94.94,0,0,0,.65.27.92.92,0,0,0,.65-.27l5.5-5.53,5.5,5.53a.9.9,0,0,0,.64.27.93.93,0,0,0,.66-.27l5.49-5.51,5.49,5.51a.91.91,0,0,0,1.29,0l5.56-5.58,5.56,5.58a.92.92,0,0,0,.65.27.91.91,0,0,0,.64-.27l5.7-5.72Z"/><rect class="cls-19" x="9.85" y="218.78" width="336.02" height="5.78"/><rect class="cls-8" x="156.04" y="120.3" width="37.22" height="6.86"/><rect class="cls-8" x="156.04" y="120.3" width="37.22" height="6.86"/><path class="cls-19" d="M188.66,119.2h-28V86.58h28Z"/><rect class="cls-13" x="163.1" y="89.02" width="23.11" height="27.72"/><rect class="cls-20" x="156.05" y="116.75" width="37.22" height="6.86"/><rect class="cls-20" x="156.05" y="116.75" width="37.22" height="6.86"/><rect class="cls-8" x="286.41" y="120.3" width="37.22" height="6.86"/><rect class="cls-8" x="286.41" y="120.3" width="37.22" height="6.86"/><path class="cls-19" d="M319,119.2h-28V86.58h28Z"/><rect class="cls-13" x="293.5" y="89.02" width="23.09" height="27.72"/><rect class="cls-20" x="286.42" y="116.75" width="37.22" height="6.86"/><rect class="cls-20" x="286.42" y="116.75" width="37.22" height="6.86"/><rect class="cls-8" x="221.22" y="119.15" width="37.24" height="6.86"/><rect class="cls-8" x="221.22" y="119.15" width="37.24" height="6.86"/><path class="cls-19" d="M253.84,118h-28V85.42h28Z"/><rect class="cls-13" x="228.3" y="87.87" width="23.09" height="27.73"/><rect class="cls-20" x="221.23" y="115.6" width="37.24" height="6.86"/><rect class="cls-20" x="221.23" y="115.6" width="37.24" height="6.86"/><rect class="cls-8" x="156.04" y="182.33" width="37.22" height="6.85"/><rect class="cls-8" x="156.04" y="182.33" width="37.22" height="6.85"/><path class="cls-19" d="M188.66,181.23h-28V148.6h28Z"/><rect class="cls-13" x="163.1" y="151.04" width="23.11" height="27.74"/><rect class="cls-20" x="156.05" y="178.78" width="37.22" height="6.84"/><rect class="cls-20" x="156.05" y="178.78" width="37.22" height="6.84"/><rect class="cls-8" x="286.41" y="182.33" width="37.22" height="6.85"/><path class="cls-19" d="M319,181.23h-28V148.6h28Z"/><rect class="cls-13" x="293.5" y="151.04" width="23.09" height="27.74"/><rect class="cls-20" x="286.42" y="178.78" width="37.22" height="6.84"/><rect class="cls-20" x="286.42" y="178.78" width="37.22" height="6.84"/><path class="cls-19" d="M258.31,218.78h-37V148.6h37Z"/><rect class="cls-9" x="223.81" y="151.04" width="32.05" height="67.74"/><rect class="cls-20" x="228.3" y="157" width="23.09" height="24.23"/><rect class="cls-20" x="228.29" y="189.18" width="23.09" height="24.23"/><ellipse class="cls-14" cx="251.34" cy="185.43" rx="1.5" ry="1.64"/><path class="cls-18" d="M142.88,44.43V42.26l-.11,0,0,2.24Z"/><polygon class="cls-17" points="142.72 36.38 142.72 36.38 142.77 41.9 142.72 36.38"/><polygon class="cls-17" points="4.13 131.11 142.89 131.11 142.89 115.86 142.72 97.19 47.5 97.19 4.13 131.11"/><path class="cls-18" d="M136.54,109l-5.31-5.33a.94.94,0,0,0-.15-.36,1.37,1.37,0,0,0-1.5,0,.88.88,0,0,0-.15.36l-5.3,5.32L119.08,104a.89.89,0,0,0-.26-.61,1.81,1.81,0,0,0-1.64,0,.88.88,0,0,0-.25.61L111.86,109l-5.13-5.16a.88.88,0,0,0-.22-.53.85.85,0,0,0-.8-.21.86.86,0,0,0-.8.21.9.9,0,0,0-.22.53L99.56,109l-5.3-5.33a.88.88,0,0,0-.15-.36,1.37,1.37,0,0,0-1.5,0c-.1.1-.1.23-.15.36L87.16,109l-5.67-5.69a.9.9,0,0,0-1.29,0L74.53,109l-5.29-5.33c0-.12-.05-.26-.16-.36a1.36,1.36,0,0,0-1.5,0,.88.88,0,0,0-.15.36L62.13,109,57.07,104a.9.9,0,0,0-.25-.61,1.83,1.83,0,0,0-1.65,0,.9.9,0,0,0-.25.61L49.87,109l-5.14-5.16a.9.9,0,0,0-.22-.53,1.65,1.65,0,0,0-1.6,0,.88.88,0,0,0-.22.53L37.56,109l-2.27-2.28-1.45,1.14L36.92,111a.91.91,0,0,0,1.29,0l5.51-5.53,5.5,5.53a.94.94,0,0,0,.65.27.9.9,0,0,0,.65-.27l5.5-5.51L61.48,111a.92.92,0,0,0,.65.27.93.93,0,0,0,.66-.27l5.55-5.58L73.89,111a.91.91,0,0,0,.64.27.92.92,0,0,0,.65-.27l5.66-5.69L86.51,111a.92.92,0,0,0,.65.27.9.9,0,0,0,.65-.27l5.56-5.58L98.91,111a.94.94,0,0,0,.65.27.92.92,0,0,0,.65-.27l5.5-5.53,5.5,5.53a.91.91,0,0,0,.64.27.93.93,0,0,0,.66-.27l5.49-5.51,5.49,5.51a.91.91,0,0,0,1.29,0l5.56-5.58,5.56,5.58a.92.92,0,0,0,.65.27.91.91,0,0,0,.64-.27l5.61-5.63,0-2.24a.85.85,0,0,0-.57.24Z"/><path class="cls-18" d="M22.95,125.85a.93.93,0,0,0,.65-.27L29.27,120l5.66,5.58a.94.94,0,0,0,1.32,0L41.86,120l5.6,5.53a1,1,0,0,0,.66.27.93.93,0,0,0,.66-.27l5.6-5.51L60,125.58a.94.94,0,0,0,.66.27,1,1,0,0,0,.67-.27L66.94,120l5.66,5.58a.93.93,0,0,0,.65.27,1,1,0,0,0,.66-.27l5.77-5.69,5.77,5.69a.94.94,0,0,0,.66.27.93.93,0,0,0,.66-.27L92.43,120l5.66,5.58a1,1,0,0,0,.66.27,1,1,0,0,0,.66-.27L105,120l5.61,5.53a.93.93,0,0,0,.65.27,1,1,0,0,0,.67-.27l5.59-5.51,5.59,5.51a.93.93,0,0,0,.66.27.94.94,0,0,0,.66-.27L130.1,120l5.66,5.58a1,1,0,0,0,.66.27.93.93,0,0,0,.65-.27l5.8-5.72v-2.17a.91.91,0,0,0-.69.26l-5.76,5.69L131,118.31a.94.94,0,0,0-.15-.36,1.41,1.41,0,0,0-1.53,0c-.1.1-.11.23-.16.36l-5.4,5.32-5.15-5.08a1.1,1.1,0,0,0-2.19,0l-5.16,5.08-5.22-5.16a.8.8,0,0,0-1-.73.79.79,0,0,0-1,.73l-5.23,5.16-5.4-5.33a.88.88,0,0,0-.16-.36,1.41,1.41,0,0,0-1.53,0c-.1.1-.1.23-.15.36l-5.4,5.32-5.77-5.69a.93.93,0,0,0-1.31,0l-5.77,5.69-5.39-5.33c0-.12-.05-.26-.16-.36a1.4,1.4,0,0,0-1.52,0c-.1.1-.11.23-.16.36l-5.4,5.32-5.15-5.08a.83.83,0,0,0-1.09-.8.84.84,0,0,0-1.1.8l-5.15,5.08-5.23-5.16a.89.89,0,0,0-.22-.53.88.88,0,0,0-.81-.21.8.8,0,0,0-1,.73l-5.23,5.16-5.41-5.33c0-.12,0-.26-.15-.36a.89.89,0,0,0-.76-.22.9.9,0,0,0-.77.22.86.86,0,0,0-.15.36l-5.4,5.32-4.09-4-1.47,1.15,4.91,4.83A.93.93,0,0,0,22.95,125.85Z"/><polygon class="cls-7" points="171.64 41.83 159 54.38 159 26.32 171.64 26.32 171.64 41.83"/><rect class="cls-12" x="156.36" y="15.44" width="17.92" height="10.87"/><rect class="cls-8" x="159" y="26.32" width="12.64" height="3.43"/><rect class="cls-18" x="142.65" y="136.41" width="194.31" height="4.38"/><rect class="cls-21" width="350" height="240"/></g></g></g></svg>