<svg xmlns="http://www.w3.org/2000/svg" viewBox="0 0 280 280"><defs><style>.cls-1{fill:#00a7a1;}.cls-2{fill:#216f74;}.cls-3{fill:#dabd94;}.cls-4{fill:#8eb140;}.cls-5{fill:#c6a67e;}.cls-6{fill:none;}</style></defs><title>casa_techos</title><g id="Capa_2" data-name="Capa 2"><g id="Layer_1" data-name="Layer 1"><rect class="cls-1" x="106.77" y="124.16" width="172.77" height="29.28"/><path class="cls-2" d="M279.54,124.17h0a.74.74,0,0,0-.53.22L274.35,129,270,124.68a.79.79,0,0,0-.12-.3,1.14,1.14,0,0,0-1.23,0,.74.74,0,0,0-.13.3L264.18,129,260,124.88a.72.72,0,0,0-.21-.5,1.52,1.52,0,0,0-1.34,0,.72.72,0,0,0-.21.5L254.12,129l-4.2-4.22a.73.73,0,0,0-.18-.43.7.7,0,0,0-.65-.17.71.71,0,0,0-.66.17.75.75,0,0,0-.18.43L244,129l-4.34-4.36a.74.74,0,0,0-.13-.3,1.14,1.14,0,0,0-1.23,0c-.08.08-.08.2-.12.3L233.88,129l-4.64-4.66a.73.73,0,0,0-.52-.22h0a.75.75,0,0,0-.53.22L223.53,129l-4.34-4.36c0-.1,0-.22-.13-.3a1.13,1.13,0,0,0-1.23,0,.75.75,0,0,0-.13.3L213.37,129l-4.14-4.16a.73.73,0,0,0-.2-.5,1.53,1.53,0,0,0-1.35,0,.73.73,0,0,0-.2.5L203.32,129l-4.21-4.22a.75.75,0,0,0-.18-.43,1.38,1.38,0,0,0-1.31,0,.73.73,0,0,0-.18.43L193.24,129l-4.35-4.36c0-.1,0-.22-.12-.3a1.15,1.15,0,0,0-1.23,0,.73.73,0,0,0-.12.3L183.07,129l-4.15-4.16a.74.74,0,0,0-.2-.5.71.71,0,0,0-.68-.16.7.7,0,0,0-.67.16.77.77,0,0,0-.2.5L173,129l-4.6-4.62s0,0,0,0a.79.79,0,0,0-1.09,0s0,0,0,0L162.7,129l-4.35-4.36a.73.73,0,0,0-.12-.3,1.15,1.15,0,0,0-1.23,0,.63.63,0,0,0-.12.3L152.54,129l-4.15-4.17a.8.8,0,0,0-.21-.49,1.48,1.48,0,0,0-1.34,0,.75.75,0,0,0-.2.49L142.49,129l-4.21-4.22a.74.74,0,0,0-.18-.44.7.7,0,0,0-.66-.16.69.69,0,0,0-.65.16.74.74,0,0,0-.18.44L132.4,129l-4.35-4.36a.75.75,0,0,0-.13-.3,1.11,1.11,0,0,0-1.23,0c-.09.08-.09.2-.13.3L122.23,129l-4.15-4.17a.73.73,0,0,0-.2-.49,1.48,1.48,0,0,0-1.34,0,.75.75,0,0,0-.2.49L112.18,129l-4.64-4.66a.74.74,0,0,0-.53-.22h0c-.09,0-.15.07-.24.1v1.48l4.88,4.9a.75.75,0,0,0,1.06,0l4.5-4.52,4.5,4.52a.74.74,0,0,0,.53.22.75.75,0,0,0,.53-.22l4.55-4.57,4.55,4.57a.76.76,0,0,0,.54.22.74.74,0,0,0,.53-.22l4.51-4.53,4.51,4.53a.75.75,0,0,0,1.06,0l4.49-4.52,4.5,4.52a.75.75,0,0,0,1.06,0l4.55-4.57,4.55,4.57a.75.75,0,0,0,1.06,0l4.63-4.65,4.63,4.65a.75.75,0,0,0,1.06,0l4.49-4.51,4.5,4.51a.74.74,0,0,0,.53.22.73.73,0,0,0,.53-.22l4.56-4.57,4.55,4.57a.75.75,0,0,0,1.06,0l4.51-4.53,4.51,4.53a.77.77,0,0,0,.53.22.74.74,0,0,0,.53-.22l4.5-4.51,4.49,4.51a.75.75,0,0,0,.53.22.76.76,0,0,0,.54-.22l4.55-4.57,4.55,4.57a.74.74,0,0,0,.53.22.75.75,0,0,0,.53-.22l4.64-4.66,4.64,4.66a.75.75,0,0,0,.53.22.74.74,0,0,0,.53-.22l4.55-4.57,4.55,4.57a.77.77,0,0,0,.53.22.75.75,0,0,0,.53-.22l4.51-4.53,4.51,4.53a.74.74,0,0,0,.53.22.76.76,0,0,0,.54-.22l4.5-4.51,4.5,4.51a.75.75,0,0,0,1.06,0l4.55-4.57,4.55,4.57a.75.75,0,0,0,.53.22.74.74,0,0,0,.53-.22l4.67-4.69Z"/><path class="cls-2" d="M279.54,134a.72.72,0,0,0-.56.21l-4.64,4.66L270,134.55a.78.78,0,0,0-.12-.29,1.12,1.12,0,0,0-1.23,0,.72.72,0,0,0-.13.3l-4.34,4.36L260,134.76a.72.72,0,0,0-.21-.5,1.48,1.48,0,0,0-1.34,0,.72.72,0,0,0-.21.5l-4.15,4.16-4.2-4.23a.72.72,0,0,0-.18-.43.7.7,0,0,0-.65-.17.71.71,0,0,0-.66.17.74.74,0,0,0-.18.43L244,138.92l-4.34-4.37a.73.73,0,0,0-.13-.29,1.12,1.12,0,0,0-1.23,0c-.08.08-.08.19-.12.3l-4.35,4.36-4.64-4.66a.74.74,0,0,0-1.05,0l-4.64,4.66-4.34-4.37c0-.1,0-.21-.13-.29a1.11,1.11,0,0,0-1.23,0,.73.73,0,0,0-.13.3l-4.35,4.36-4.14-4.16a.74.74,0,0,0-.2-.5,1.5,1.5,0,0,0-1.35,0,.73.73,0,0,0-.2.5l-4.15,4.16-4.21-4.23a.74.74,0,0,0-.18-.43,1.35,1.35,0,0,0-1.31,0,.72.72,0,0,0-.18.43l-4.21,4.23-4.35-4.37c0-.1,0-.21-.12-.29a.74.74,0,0,0-1.35.3l-4.35,4.36-4.15-4.16a.74.74,0,0,0-.2-.5.71.71,0,0,0-.68-.16.7.7,0,0,0-.67.16.77.77,0,0,0-.2.5L173,138.92l-4.6-4.62s0,0,0,0a.79.79,0,0,0-1.09,0s0,0,0,0l-4.6,4.62-4.35-4.36a.71.71,0,0,0-.12-.3.73.73,0,0,0-.62-.18.71.71,0,0,0-.62.18.62.62,0,0,0-.12.29l-4.35,4.37-4.15-4.17a.79.79,0,0,0-.21-.49,1.48,1.48,0,0,0-1.34,0,.74.74,0,0,0-.2.49l-4.15,4.17-4.21-4.22a.73.73,0,0,0-.18-.44.71.71,0,0,0-.66-.17.7.7,0,0,0-.65.17.73.73,0,0,0-.18.44l-4.2,4.22-4.35-4.36a.72.72,0,0,0-.13-.3,1.11,1.11,0,0,0-1.23,0c-.09.08-.09.19-.13.29l-4.34,4.37-4.15-4.17a.73.73,0,0,0-.2-.49.69.69,0,0,0-.67-.16.7.7,0,0,0-.67.16.74.74,0,0,0-.2.49l-4.15,4.17-4.64-4.66a.69.69,0,0,0-.77-.12v1.48l4.88,4.9a.75.75,0,0,0,1.06,0l4.5-4.51,4.5,4.51a.74.74,0,0,0,.53.22.75.75,0,0,0,.53-.22l4.55-4.57,4.55,4.57a.76.76,0,0,0,.54.22.74.74,0,0,0,.53-.22l4.51-4.53,4.51,4.53a.75.75,0,0,0,1.06,0l4.49-4.51,4.5,4.51a.75.75,0,0,0,1.06,0l4.55-4.57,4.55,4.57a.75.75,0,0,0,1.06,0l4.63-4.65,4.63,4.65a.75.75,0,0,0,1.06,0L178,136l4.5,4.51a.74.74,0,0,0,.53.22.74.74,0,0,0,.53-.22l4.56-4.57,4.55,4.57a.75.75,0,0,0,1.06,0l4.51-4.53,4.51,4.53a.77.77,0,0,0,.53.22.74.74,0,0,0,.53-.22l4.5-4.51,4.49,4.51a.75.75,0,0,0,.53.22.76.76,0,0,0,.54-.22l4.55-4.57,4.55,4.57a.74.74,0,0,0,.53.22.75.75,0,0,0,.53-.22l4.64-4.66,4.64,4.66a.75.75,0,0,0,.53.22.74.74,0,0,0,.53-.22l4.55-4.57,4.55,4.57a.77.77,0,0,0,.53.22.75.75,0,0,0,.53-.22l4.51-4.53,4.51,4.53a.74.74,0,0,0,.53.22.76.76,0,0,0,.54-.22l4.5-4.51,4.5,4.51a.75.75,0,0,0,1.06,0l4.55-4.57,4.55,4.57a.75.75,0,0,0,.53.22.74.74,0,0,0,.53-.22l4.67-4.69Z"/><path class="cls-2" d="M279.54,143.93a.72.72,0,0,0-.56.21l-4.64,4.66L270,144.43a.78.78,0,0,0-.12-.29,1.12,1.12,0,0,0-1.23,0,.72.72,0,0,0-.13.3l-4.34,4.36L260,144.64a.72.72,0,0,0-.21-.5,1.49,1.49,0,0,0-1.34,0,.72.72,0,0,0-.21.5l-4.15,4.16-4.2-4.23a.72.72,0,0,0-.18-.43.7.7,0,0,0-.65-.17.71.71,0,0,0-.66.17.74.74,0,0,0-.18.43L244,148.8l-4.34-4.37a.73.73,0,0,0-.13-.29,1.12,1.12,0,0,0-1.23,0c-.08.08-.08.19-.12.3l-4.35,4.36-4.64-4.66a.74.74,0,0,0-1.05,0l-4.64,4.66-4.34-4.37c0-.1,0-.21-.13-.29a1.11,1.11,0,0,0-1.23,0,.73.73,0,0,0-.13.3l-4.35,4.36-4.14-4.16a.74.74,0,0,0-.2-.5,1.5,1.5,0,0,0-1.35,0,.73.73,0,0,0-.2.5l-4.15,4.16-4.21-4.23a.74.74,0,0,0-.18-.43,1.35,1.35,0,0,0-1.31,0,.72.72,0,0,0-.18.43l-4.21,4.23-4.35-4.37c0-.1,0-.21-.12-.29a.74.74,0,0,0-1.35.3l-4.35,4.36-4.15-4.16a.74.74,0,0,0-.2-.5A.71.71,0,0,0,178,144a.7.7,0,0,0-.67.16.77.77,0,0,0-.2.5L173,148.8l-4.6-4.62s0,0,0,0a.79.79,0,0,0-1.09,0s0,0,0,0l-4.6,4.62-4.35-4.36a.71.71,0,0,0-.12-.3.73.73,0,0,0-.62-.18.71.71,0,0,0-.62.18.62.62,0,0,0-.12.29l-4.35,4.37-4.15-4.17a.79.79,0,0,0-.21-.49,1.49,1.49,0,0,0-1.34,0,.74.74,0,0,0-.2.49l-4.15,4.17-4.21-4.22a.73.73,0,0,0-.18-.44.71.71,0,0,0-.66-.17.7.7,0,0,0-.65.17.73.73,0,0,0-.18.44l-4.2,4.22-4.35-4.36a.72.72,0,0,0-.13-.3,1.11,1.11,0,0,0-1.23,0c-.09.08-.09.19-.13.29l-4.34,4.37-4.15-4.17a.73.73,0,0,0-.2-.49.69.69,0,0,0-.67-.16.7.7,0,0,0-.67.16.74.74,0,0,0-.2.49l-4.15,4.17-4.64-4.66a.69.69,0,0,0-.77-.12v1.48l4.88,4.9a.75.75,0,0,0,1.06,0l4.5-4.51,4.5,4.51a.74.74,0,0,0,.53.22.75.75,0,0,0,.53-.22l4.55-4.57,4.55,4.57a.76.76,0,0,0,.54.22.74.74,0,0,0,.53-.22l4.51-4.53,4.51,4.53a.75.75,0,0,0,1.06,0l4.49-4.51,4.5,4.51a.75.75,0,0,0,1.06,0l4.55-4.57,4.55,4.57a.75.75,0,0,0,1.06,0l4.63-4.65,4.63,4.65a.75.75,0,0,0,1.06,0l4.49-4.51,4.5,4.51a.74.74,0,0,0,.53.22.73.73,0,0,0,.53-.22l4.56-4.57,4.55,4.57a.75.75,0,0,0,1.06,0l4.51-4.53,4.51,4.53a.77.77,0,0,0,.53.22.74.74,0,0,0,.53-.22l4.5-4.51,4.49,4.51a.75.75,0,0,0,.53.22.76.76,0,0,0,.54-.22l4.55-4.57,4.55,4.57a.74.74,0,0,0,.53.22.75.75,0,0,0,.53-.22l4.64-4.66,4.64,4.66a.75.75,0,0,0,.53.22.74.74,0,0,0,.53-.22l4.55-4.57,4.55,4.57a.77.77,0,0,0,.53.22.75.75,0,0,0,.53-.22l4.51-4.53,4.51,4.53a.74.74,0,0,0,.53.22.76.76,0,0,0,.54-.22l4.5-4.51,4.5,4.51a.75.75,0,0,0,1.06,0l4.55-4.57,4.55,4.57a.75.75,0,0,0,.53.22.74.74,0,0,0,.53-.22l4.67-4.69Z"/><path class="cls-2" d="M113.7,132.38V130.6h-.09l0,1.84Z"/><polygon class="cls-1" points="113.57 125.78 113.57 125.78 113.61 130.3 113.57 125.78"/><polygon class="cls-1" points="0 203.41 113.71 203.41 113.71 190.92 113.57 175.62 35.54 175.62 0 203.41"/><path class="cls-2" d="M108.51,185.32,104.16,181a.77.77,0,0,0-.12-.29,1.12,1.12,0,0,0-1.23,0,.72.72,0,0,0-.13.3l-4.34,4.36-4.14-4.16a.73.73,0,0,0-.21-.5,1.48,1.48,0,0,0-1.34,0,.72.72,0,0,0-.21.5l-4.15,4.16-4.2-4.23a.72.72,0,0,0-.18-.43.7.7,0,0,0-.65-.17.71.71,0,0,0-.66.17.74.74,0,0,0-.18.43l-4.21,4.23L73.86,181a.72.72,0,0,0-.13-.29,1.12,1.12,0,0,0-1.23,0c-.08.08-.08.19-.12.3L68,185.32l-4.64-4.66a.74.74,0,0,0-1.05,0l-4.64,4.66L53.36,181c0-.1,0-.21-.13-.29a1.11,1.11,0,0,0-1.23,0,.72.72,0,0,0-.13.3l-4.35,4.36-4.14-4.16a.74.74,0,0,0-.2-.5,1.5,1.5,0,0,0-1.35,0,.74.74,0,0,0-.2.5l-4.15,4.16-4.21-4.23a.74.74,0,0,0-.18-.43.7.7,0,0,0-.65-.17.69.69,0,0,0-.65.17.72.72,0,0,0-.18.43l-4.21,4.23-1.86-1.87-1.19.93,2.52,2.53a.75.75,0,0,0,1.06,0l4.51-4.53,4.51,4.53a.77.77,0,0,0,.53.22.74.74,0,0,0,.53-.22l4.5-4.51L47,186.92a.75.75,0,0,0,.53.22.76.76,0,0,0,.54-.22l4.55-4.57,4.55,4.57a.74.74,0,0,0,.53.22.75.75,0,0,0,.53-.22l4.64-4.66,4.64,4.66a.75.75,0,0,0,.53.22.74.74,0,0,0,.53-.22l4.55-4.57,4.55,4.57a.77.77,0,0,0,.53.22.75.75,0,0,0,.53-.22l4.51-4.53,4.51,4.53a.74.74,0,0,0,.53.22.76.76,0,0,0,.54-.22l4.49-4.51,4.5,4.51a.75.75,0,0,0,1.06,0l4.55-4.57,4.55,4.57a.76.76,0,0,0,.53.22.74.74,0,0,0,.53-.22l4.6-4.62,0-1.84a.7.7,0,0,0-.47.2Z"/><path class="cls-2" d="M15.42,199.1a.76.76,0,0,0,.54-.22l4.64-4.57,4.64,4.57a.77.77,0,0,0,1.08,0l4.6-4.53,4.59,4.53a.79.79,0,0,0,.54.22.76.76,0,0,0,.54-.22l4.59-4.51,4.57,4.51a.77.77,0,0,0,.54.22.79.79,0,0,0,.55-.22l4.64-4.57,4.64,4.57a.76.76,0,0,0,.54.22.78.78,0,0,0,.54-.22l4.73-4.66,4.73,4.66a.77.77,0,0,0,.54.22.76.76,0,0,0,.54-.22l4.64-4.57L77,198.88a.79.79,0,0,0,.54.22.78.78,0,0,0,.54-.22l4.6-4.53,4.6,4.53a.76.76,0,0,0,.53.22.79.79,0,0,0,.55-.22l4.58-4.51,4.58,4.51a.77.77,0,0,0,.54.22.77.77,0,0,0,.54-.22l4.64-4.57,4.64,4.57a.78.78,0,0,0,.54.22.76.76,0,0,0,.54-.22l4.76-4.69v-1.78a.75.75,0,0,0-.57.21l-4.72,4.66L104,192.92a.77.77,0,0,0-.12-.29,1.16,1.16,0,0,0-1.25,0c-.08.08-.09.19-.13.3l-4.42,4.36-4.22-4.16a.9.9,0,0,0-1.8,0l-4.23,4.16-4.28-4.23a.65.65,0,0,0-.85-.6.65.65,0,0,0-.85.6l-4.29,4.23-4.42-4.37a.72.72,0,0,0-.13-.29,1.16,1.16,0,0,0-1.25,0c-.08.08-.08.19-.12.3l-4.43,4.36-4.73-4.66a.76.76,0,0,0-1.07,0l-4.73,4.66-4.42-4.37c0-.1,0-.21-.13-.29a1.15,1.15,0,0,0-1.25,0c-.08.08-.09.19-.13.3l-4.43,4.36-4.22-4.16a.68.68,0,0,0-.89-.66.69.69,0,0,0-.9.66l-4.22,4.16-4.29-4.23a.73.73,0,0,0-.18-.43.72.72,0,0,0-.67-.17.65.65,0,0,0-.85.6l-4.29,4.23-4.43-4.37c0-.1,0-.21-.12-.29a.73.73,0,0,0-.63-.18.74.74,0,0,0-.63.18.7.7,0,0,0-.12.3l-4.43,4.36L12.07,194l-1.21.94,4,4A.77.77,0,0,0,15.42,199.1Z"/><polygon class="cls-3" points="137.27 130.25 126.91 140.53 126.91 117.54 137.27 117.54 137.27 130.25"/><rect class="cls-4" x="124.75" y="108.63" width="14.68" height="8.91"/><rect class="cls-5" x="126.91" y="117.54" width="10.36" height="2.81"/><rect class="cls-6" width="280" height="280"/></g></g></svg>