<?xml version="1.0" encoding="utf-8"?>
<!-- Generator: Adobe Illustrator 21.0.0, SVG Export Plug-In . SVG Version: 6.00 Build 0)  -->
<svg version="1.1" id="Capa_1" xmlns="http://www.w3.org/2000/svg" xmlns:xlink="http://www.w3.org/1999/xlink" x="0px" y="0px"
	 viewBox="0 0 315 523.8" style="enable-background:new 0 0 315 523.8;" xml:space="preserve">
<style type="text/css">
	.st0{fill:none;}
	.st1{fill:#E5BBB1;}
	.st2{fill:#43509C;}
	.st3{fill:#374081;}
	.st4{fill:#3F2F3E;}
	.st5{fill:#FCBA9F;}
	.st6{fill:#F8733C;}
	.st7{fill:#E1522B;}
	.st8{fill:#FFFFFF;}
	.st9{fill:#948270;}
	.st10{fill:#43200F;}
	.st11{fill:#72C058;}
	.st12{fill:#99CA56;}
	.st13{fill:#84320F;}
	.st14{fill:#BF8C6E;}
	.st15{fill:#BF8572;}
	.st16{fill:#693024;}
	.st17{fill:none;stroke:#FFFFFF;stroke-width:0.3292;stroke-miterlimit:10;}
	.st18{fill:#C6704E;}
	.st19{fill:url(#SVGID_1_);}
	.st20{fill:#664138;}
	.st21{fill:url(#SVGID_2_);}
	.st22{fill:#7A4944;}
	.st23{fill:none;stroke:#C6704E;stroke-width:0.7395;stroke-linejoin:round;}
	.st24{fill:none;stroke:#C6704E;stroke-width:0.7395;stroke-miterlimit:10;}
	.st25{opacity:0.1;fill:#7A4944;enable-background:new    ;}
	.st26{fill:none;stroke:#664138;stroke-width:0.7305;stroke-miterlimit:10;}
	
		.st27{opacity:0.3;fill:none;stroke:#F9E1AF;stroke-width:0.2457;stroke-linecap:round;stroke-miterlimit:10;stroke-dasharray:0.6155,0.7395;enable-background:new    ;}
	.st28{opacity:0.4;}
	.st29{fill:none;stroke:#BC6B47;stroke-width:0.8612;stroke-miterlimit:10;}
	.st30{opacity:0.2;fill:none;stroke:#664138;stroke-width:0.7305;stroke-miterlimit:10;enable-background:new    ;}
	.st31{fill:#CC8352;}
	.st32{fill:url(#SVGID_3_);}
	.st33{fill:#874F42;}
	.st34{fill:#B1ABBA;}
	.st35{fill:#837E8C;}
	.st36{opacity:0.4;fill:#918C99;enable-background:new    ;}
	.st37{opacity:0.4;fill:none;stroke:#918C99;stroke-width:0.3517;stroke-miterlimit:10;enable-background:new    ;}
	.st38{opacity:0.4;fill:#664138;enable-background:new    ;}
	.st39{fill:url(#SVGID_4_);}
	.st40{fill:url(#SVGID_5_);}
	
		.st41{opacity:0.3;fill:none;stroke:#F9E1AF;stroke-width:0.2908;stroke-linecap:round;stroke-miterlimit:10;stroke-dasharray:0.5794,0.5794;enable-background:new    ;}
	.st42{fill:#D6D6D6;}
	.st43{opacity:0.51;fill:#FFFFFF;enable-background:new    ;}
	.st44{fill:none;stroke:#BC6B47;stroke-width:0.9041;stroke-miterlimit:10;}
	
		.st45{opacity:0.3;fill:none;stroke:#F9E1AF;stroke-width:0.2593;stroke-linecap:round;stroke-miterlimit:10;stroke-dasharray:0.6471,0.7756;enable-background:new    ;}
	.st46{opacity:0.2;fill:none;stroke:#664138;stroke-width:0.7643;stroke-miterlimit:10;enable-background:new    ;}
</style>
<title>Feedback_1</title>
<g>
	<rect class="st0" width="315" height="523.8"/>
	<g>
		<path class="st1" d="M49.8,176.4c-1.2,1.1-2,1.7-3.5,2.4c3.4,6.5,19.6,32.9,37.3,62.8l7.5-4.5C72.7,210.1,55.2,184.4,49.8,176.4z"
			/>
		<path class="st1" d="M50.1,170.9c-0.5-1-1.1-1.9-2-2.7c-0.8-1.2-9.4-15.1-12.3-13.3c-3,1.8-1.3,9,2.8,12.7
			c-8.2-2.7-28.2-1.3-28.9,1.1c-0.8,2.7,9.5,3.2,21.1,3c-12.9,0.8-18.3,1.5-17.2,4.1c0.6,1.5,3.2,2,16.3,1c-4.4,0.9-8.8,2.4-8.3,3.9
			c0.7,1.9,7.7,0.4,12.1-0.7c-1.5,0.5-3.2,1.1-4.6,2c-2,1.3,1.1,3.2,11.1-0.5c1.9,0.7,4,0.7,5.9-0.2c1.5-0.7,2.6-1.9,3.4-3.2
			c0.7-1.5,1-2.4,1.3-4C50.8,173,50.6,171.9,50.1,170.9z"/>
		<g>
			<path class="st2" d="M193.2,296.7l0.4,30.7l0.8,63.2l0,0c0,10.1-8.3,18.3-18.5,18.3c-10,0-18.1-7.8-18.5-17.6v-0.1
				c-1.9-13.5-5.1-35.6-7.7-54.5c-2.7-19.2-4.9-35-4.9-35C158.2,301.2,193.2,296.7,193.2,296.7z"/>
			<path class="st3" d="M193.2,296.7l0.4,30.7l-43.9,9.4c-2.7-19.2-4.9-35-4.9-35C158.2,301.3,193.2,296.7,193.2,296.7z"/>
		</g>
		<g>
			<path class="st2" d="M99.7,391l1.2-59.2l0.7-35.1c0,0,47.4,4.9,47.7,4.9c0,0-2.1,16.2-4.6,35.8c-2.4,18.5-5.2,40.1-7.2,53.8v0.1
				c0,10.4-8.5,18.8-19,18.8s-18.9-8.5-18.9-18.9C99.7,391.1,99.7,391,99.7,391z"/>
			<path class="st3" d="M101.6,296.7c0,0,47.4,4.9,47.7,4.9c0,0-2.1,16.2-4.6,35.8l-43.8-5.6L101.6,296.7z"/>
		</g>
		<g>
			<path class="st4" d="M195,484.2c0,0-5.1,2.8-11.2,2.9c-6,0.1-7.3-1.1-9-1.2s-3.2,0-3.2,0.9c-0.1,0.9,4.9,6.7,5.1,6.6
				c0.2-0.1,15.5-3.5,15.5-3.5l4.3-3.2L195,484.2z"/>
			<path class="st5" d="M181.7,422.2c2.4,42.2,8.4,68.3,8.4,68.3s-6.9,0-11.7,0.8c-3.7-21.8-6.6-45.8-9-69.1L181.7,422.2
				L181.7,422.2z"/>
			<path class="st6" d="M195,484.2c6.7,4.5,17.9,11.7,24.3,13.6c6.9,2,8.4,7.1,7.6,12.4c-6.8,6.5-22.9,12.2-35.7,0.3
				c-9.1-8.5-14.7-3.2-19.8-9.2c-1.8-4.8-1.2-11.6,0.2-14.6C180.7,493,191,487.6,195,484.2z"/>
			<path class="st7" d="M216.1,496.6c-2.8,1.1-5.4,2.8-7.6,5c-0.2-0.1-0.4-0.1-0.7-0.2c-5.8-1.7-15.8-7.9-22.5-12.4
				c4.2-1,7.7-3.2,9.7-4.8C200.6,488.1,209.6,493.9,216.1,496.6z"/>
			<path class="st7" d="M177,504.6c-2-0.4-3.9-1.1-5.7-3.2c-1.8-4.7-1.2-11.5,0.2-14.5C174.8,489.2,176.6,499,177,504.6z"/>
			<path class="st8" d="M214.4,496c1.7,0.8,3.4,1.5,4.7,1.9c6.8,2,8.3,7,7.5,12.2c-5.3,5-16.1,9.6-26.6,5.7
				c-0.1-0.3-0.1-0.6-0.1-0.9C198.7,507,204.9,499.3,214.4,496z"/>
			<path class="st9" d="M190.1,505.5c6.8,6.1,14.5,7.5,21.4,6.5c6.2-0.9,11.8-3.7,15.3-6.7c0.3,1.6,0.3,3.2,0.1,4.9
				c-3.3,3.1-8.8,6.1-15,7c-6.6,0.9-14.1-0.5-20.7-6.6c-9.1-8.5-14.7-3.2-19.8-9.2c-0.5-1.3-0.8-2.7-0.9-4.1
				C175.5,501.9,181.2,497.5,190.1,505.5z"/>
			<path class="st8" d="M189.6,506c7.8,7,16.2,7.5,22,6.7c5.3-0.7,10.7-3,14.7-6.1c0.1,1,0.1,2.1-0.1,3.3c-1.7,1.5-3.8,2.9-6.1,4.1
				c-2.7,1.3-5.5,2.2-8.4,2.6c-5.2,0.7-13,0.2-20.1-6.5c-5.1-4.7-9.2-5.3-12.5-5.8c-2.8-0.4-5-0.7-7.2-3.2c-0.2-0.7-0.4-1.4-0.6-2.2
				c2,1.2,4,1.5,6.1,1.8C180.9,501.1,184.7,501.6,189.6,506z"/>
			<g>
				<path class="st9" d="M201.6,515.8c-0.4-0.1-0.7-0.2-1.1-0.3l-0.5-3.6c0.4,0.1,0.7,0.2,1.1,0.3L201.6,515.8z"/>
				<path class="st9" d="M205.8,516.6c-0.3,0-0.7-0.1-1.1-0.1l-0.5-3.7c0.4,0,0.7,0.1,1.1,0.1L205.8,516.6z"/>
				<path class="st9" d="M209.9,516.7c-0.3,0-0.7,0-1,0.1l-0.5-3.8c0.4,0,0.7,0,1,0L209.9,516.7z"/>
				<path class="st9" d="M175.1,503.3c-0.4-0.2-0.7-0.3-1.1-0.6l-0.4-2.9c0.4,0.1,0.7,0.2,1.1,0.3L175.1,503.3z"/>
				<path class="st9" d="M183.6,505.2c-0.4-0.1-0.7-0.2-1.1-0.3l-0.5-3.4c0.4,0.1,0.7,0.2,1.1,0.4L183.6,505.2z"/>
				<path class="st9" d="M179.4,504.3c-0.1,0-0.2,0-0.2,0c-0.3,0-0.6-0.1-0.8-0.1l-0.5-3.5c0.3,0,0.7,0.1,1.1,0.2L179.4,504.3z"/>
				<path class="st9" d="M188,507.2c-0.4-0.2-0.8-0.5-1.1-0.7l-0.4-3c0.4,0.2,0.8,0.5,1.1,0.8L188,507.2z"/>
				<path class="st9" d="M213.9,516.1c-0.3,0.1-0.7,0.1-1,0.2l-0.5-3.7c0.3-0.1,0.7-0.1,1-0.2L213.9,516.1z"/>
				<path class="st9" d="M217.9,514.9c-0.3,0.1-0.7,0.2-1,0.4l-0.5-3.6c0.3-0.1,0.7-0.2,1-0.3L217.9,514.9z"/>
				<path class="st9" d="M197.2,514c-0.4-0.2-0.8-0.4-1.1-0.6l-0.5-3.3c0.4,0.2,0.7,0.4,1.1,0.5L197.2,514z"/>
				<path class="st9" d="M225.5,510.5c-0.3,0.3-0.6,0.5-0.9,0.7l-0.4-3.1c0.3-0.2,0.6-0.4,0.9-0.6L225.5,510.5z"/>
				<path class="st9" d="M221.7,513.1c-0.3,0.2-0.6,0.4-1,0.5l-0.5-3.4c0.3-0.1,0.7-0.3,1-0.5L221.7,513.1z"/>
				<path class="st9" d="M192.6,510.9c-0.3-0.3-0.7-0.6-1-0.9c-0.1,0-0.1-0.1-0.2-0.1l-0.4-2.7c0.4,0.3,0.8,0.6,1.2,0.9L192.6,510.9
					z"/>
			</g>
			<g>
				<path class="st8" d="M200.7,488c-3.8,1.8-7.6,4-10.7,7.5l-0.9-0.8c3-3.4,6.7-5.7,10.4-7.5C199.9,487.5,200.3,487.8,200.7,488z"
					/>
				<path class="st8" d="M205.6,491.1c-3.7,1.8-7.5,4-10.6,7.5l-0.9-0.8c3-3.4,6.6-5.6,10.3-7.4
					C204.8,490.6,205.2,490.8,205.6,491.1z"/>
				<path class="st8" d="M210.8,494.1c-3.8,1.8-7.7,4-10.8,7.6l-0.9-0.8c3-3.4,6.8-5.7,10.4-7.5C210,493.6,210.4,493.8,210.8,494.1z
					"/>
			</g>
			<g>
				
					<ellipse transform="matrix(0.9902 -0.1397 0.1397 0.9902 -68.0859 32.8032)" class="st10" cx="199.6" cy="501.4" rx="2.1" ry="2.2"/>
				
					<ellipse transform="matrix(0.9902 -0.1397 0.1397 0.9902 -67.7043 32.0726)" class="st10" cx="194.6" cy="498.3" rx="2.1" ry="2.2"/>
				
					<ellipse transform="matrix(0.9902 -0.1397 0.1397 0.9902 -67.3323 31.3458)" class="st10" cx="189.6" cy="495.3" rx="2.1" ry="2.2"/>
			</g>
			<path class="st2" d="M157.5,393.9c0-0.3,0-0.6,0-0.8c0-10.1,8.3-18.3,18.5-18.3s18.5,8.2,18.5,18.3v0.1l0,0l1.2,90.1l-25,3.2
				c0,0-6.6-47.8-13-92.5L157.5,393.9z"/>
		</g>
		<g>
			<path class="st4" d="M122.3,484c0,0-5.5,2-11.5,1.3s-7.1-2.1-8.8-2.4c-1.7-0.3-3.1-0.5-3.3,0.4c-0.2,0.9,3.9,7.3,4.1,7.2
				c0.2-0.1,15.8-1.3,15.8-1.3l4.7-2.6L122.3,484z"/>
			<path class="st5" d="M119.1,417c-4.2,45-1.8,73.8-1.8,73.8s-6.8-1-11.7-0.9c-0.6-23.1,0-48.5,1.1-72.9H119.1z"/>
			<path class="st6" d="M122.3,484c6,5.4,16.1,14.1,22.1,16.8c6.5,2.9,7.3,8.2,5.8,13.3c-7.7,5.4-24.4,8.9-35.4-4.7
				c-7.8-9.7-14.1-5.2-18.4-11.9c-1.1-5,0.4-11.7,2.3-14.4C107,490.7,117.9,486.8,122.3,484z"/>
			<path class="st7" d="M141.5,499.3c-3,0.7-5.7,2.1-8.2,3.9c-0.2-0.1-0.4-0.2-0.6-0.3c-5.5-2.5-14.5-10-20.6-15.4
				c4.3-0.4,8.1-2.1,10.3-3.4C127.4,488.6,135.4,495.6,141.5,499.3z"/>
			<path class="st7" d="M101.7,501.7c-2-0.7-3.7-1.7-5.2-4c-1.1-4.9,0.4-11.6,2.2-14.4C101.6,486.2,102,496,101.7,501.7z"/>
			<path class="st8" d="M139.9,498.4c1.6,1.1,3.1,1.9,4.4,2.5c6.4,2.9,7.2,8.1,5.7,13.1c-5.9,4.2-17.3,7.2-27.2,1.9
				c0-0.3,0-0.6,0-0.9C122.8,507.1,130.1,500.4,139.9,498.4z"/>
			<path class="st9" d="M114.5,504.4c5.9,7,13.3,9.5,20.3,9.5c6.3,0,12.2-2,16.1-4.5c0.1,1.6-0.1,3.2-0.6,4.9
				c-3.7,2.6-9.6,4.8-15.8,4.8c-6.7,0-13.9-2.5-19.5-9.5c-7.8-9.7-14.1-5.2-18.4-11.9c-0.3-1.3-0.4-2.8-0.4-4.2
				C100.5,498.8,106.8,495.2,114.5,504.4z"/>
			<path class="st8" d="M114,504.8c6.7,8,15,9.7,20.8,9.7c5.4,0,11-1.5,15.4-4c0,1-0.2,2.1-0.5,3.2c-1.9,1.3-4.1,2.4-6.6,3.2
				c-2.9,0.9-5.8,1.4-8.7,1.4c-5.3,0-12.9-1.6-19-9.2c-4.3-5.4-8.3-6.6-11.6-7.5c-2.7-0.8-4.9-1.4-6.7-4.2c-0.1-0.7-0.2-1.5-0.3-2.3
				c1.8,1.5,3.8,2,5.8,2.6C106,498.7,109.8,499.8,114,504.8z"/>
			<g>
				<path class="st9" d="M124.4,516.2c-0.3-0.2-0.7-0.3-1-0.5v-3.6c0.3,0.2,0.7,0.3,1,0.4V516.2z"/>
				<path class="st9" d="M128.5,517.6c-0.3-0.1-0.7-0.2-1-0.3v-3.8c0.3,0.1,0.7,0.2,1,0.3V517.6z"/>
				<path class="st9" d="M132.6,518.2c-0.3,0-0.7-0.1-1-0.1v-3.8c0.3,0,0.7,0.1,1,0.1V518.2z"/>
				<path class="st9" d="M100,500.2c-0.4-0.2-0.7-0.4-1-0.7v-3c0.3,0.2,0.7,0.3,1,0.4V500.2z"/>
				<path class="st9" d="M108.1,503.2c-0.3-0.2-0.7-0.3-1-0.5v-3.4c0.3,0.2,0.7,0.3,1,0.5V503.2z"/>
				<path class="st9" d="M104.1,501.7c-0.1,0-0.2,0-0.2-0.1c-0.3-0.1-0.5-0.2-0.8-0.2v-3.5c0.3,0.1,0.7,0.2,1,0.3V501.7z"/>
				<path class="st9" d="M112.2,505.8c-0.3-0.3-0.7-0.6-1-0.8v-3c0.3,0.3,0.7,0.6,1,0.9V505.8z"/>
				<path class="st9" d="M136.6,518.2c-0.3,0-0.7,0-1,0.1v-3.8c0.3,0,0.7,0,1,0V518.2z"/>
				<path class="st9" d="M140.7,517.6c-0.3,0.1-0.7,0.2-1,0.2v-3.7c0.3-0.1,0.7-0.1,1-0.2V517.6z"/>
				<path class="st9" d="M120.4,513.9c-0.3-0.2-0.7-0.5-1-0.8v-3.3c0.3,0.2,0.7,0.5,1,0.7V513.9z"/>
				<path class="st9" d="M148.9,514.3c-0.3,0.2-0.7,0.4-1,0.6v-3.2c0.3-0.2,0.7-0.3,1-0.5V514.3z"/>
				<path class="st9" d="M144.8,516.3c-0.3,0.1-0.7,0.3-1,0.4v-3.5c0.3-0.1,0.7-0.2,1-0.3V516.3z"/>
				<path class="st9" d="M116.3,510.2c-0.3-0.3-0.6-0.7-0.9-1.1c0-0.1-0.1-0.1-0.1-0.2v-2.7c0.3,0.4,0.7,0.7,1,1V510.2z"/>
			</g>
			<g>
				<path class="st8" d="M127.5,488.6c-4,1.3-8.1,2.9-11.6,5.9l-0.8-0.9c3.5-3,7.5-4.7,11.4-6C126.7,488,127.1,488.3,127.5,488.6z"
					/>
				<path class="st8" d="M131.9,492.3c-3.9,1.3-8,2.9-11.5,5.9l-0.8-0.9c3.4-2.9,7.3-4.6,11.2-5.9
					C131.2,491.7,131.5,492,131.9,492.3z"/>
				<path class="st8" d="M136.6,496c-4,1.3-8.2,2.9-11.8,6l-0.8-0.9c3.5-3,7.5-4.7,11.4-6C135.8,495.4,136.2,495.7,136.6,496z"/>
			</g>
			<g>
				<ellipse class="st10" cx="124.5" cy="501.7" rx="2.1" ry="2.2"/>
				<ellipse class="st10" cx="120" cy="497.9" rx="2.1" ry="2.2"/>
				<ellipse class="st10" cx="115.4" cy="494.2" rx="2.1" ry="2.2"/>
			</g>
			<path class="st2" d="M99.6,392.5L99.6,392.5c0-0.3,0-0.7,0-1c0-10.5,8.5-18.9,18.9-18.9c10.5,0,18.9,8.5,18.9,18.9
				c0,0.3,0,0.7,0,1v0.1c-6.3,44.9-12.8,93.2-12.8,93.2l-26.8-2.5L99.6,392.5z"/>
		</g>
		<g>
			<path class="st6" d="M189.3,197.9l17-8.1l13.9,40.7c0.8,2.1,1.2,4.4,0.3,6.6c-1.7,4.1-6.4,6.1-10.5,4.4c-2.1-0.9-3.7-2.6-4.4-4.6
				L189.3,197.9z"/>
			<path class="st11" d="M190.4,217.5l25.6-7.6l-16.4-62.5c-0.6-2.2-2.3-3.8-4.4-4.5c-11.5-3.7-24.9-5.7-29.3,4.5
				C162.2,155.9,190.4,217.5,190.4,217.5z"/>
			<path class="st8" d="M182,198.4c1.7,4,3.3,7.7,4.6,10.7l26.8-9.7l-2.3-9L182,198.4z"/>
		</g>
		<g>
			<path class="st12" d="M187.1,145.3c0,0-28.9-5.4-37.8-5.4c-9,0-37.8,5.4-37.8,5.4L86.3,307.5c13.8,8.1,55.4,12.2,62.2,12.2
				c6.9,0,48.5-4.1,62.2-12.2L187.1,145.3z"/>
			<path class="st6" d="M151.1,192.9c-5,0-28.3-2.2-46-6.4l-1.7,11.2c17.8,4.4,41.8,6.7,46.8,6.7c4.9,0,27.1-2.1,44.6-6.1l-1.6-10.8
				C176.2,191,155.7,192.9,151.1,192.9z"/>
			<path class="st8" d="M150.6,182.8c-4.8,0-26.6-2-44-6l-1.5,9.7c17.7,4.3,41,6.4,46,6.4c4.6,0,25.1-1.9,42.2-5.6l-1.4-9.9
				C175,181,155.2,182.8,150.6,182.8z"/>
		</g>
		<g>
			<path class="st6" d="M92.6,197.6l18.3,4l-14,40.6c-0.6,2.1-1.8,4.2-3.9,5.4c-3.8,2.2-8.7,0.9-10.9-3c-1.1-2-1.3-4.3-0.7-6.3
				L92.6,197.6z"/>
			<path class="st11" d="M81.5,213.8l24.9,9.7l25.5-59.4c0.9-2.1,0.5-4.4-0.7-6.3c-6.7-10-16.1-19.8-25.9-14.5
				C97.1,147.9,81.5,213.8,81.5,213.8z"/>
			<path class="st8" d="M86.5,193.6c-1.1,4.2-2.1,8.1-2.9,11.3l27.1,8.8l3.7-8.5L86.5,193.6z"/>
		</g>
		<path class="st6" d="M93.9,248.2c3.7-2.5,4.6-7.5,2.1-11.2c-0.3-0.4-34.6-49.8-34.6-49.8L50.8,193l31.8,52.9l0,0
			c0.1,0.1,0.1,0.2,0.2,0.2C85.2,249.8,90.2,250.7,93.9,248.2z"/>
		<path class="st1" d="M157.6,152.5c0,0-3,2.9-7.6,2.3c-4.6-0.7-6.3-4.5-6.3-4.5l4.8-29.3l13.9,2.3L157.6,152.5z"/>
		<path class="st1" d="M155.4,137.8l-12.9-2.1c-27.9-4.4-47.1-30.9-42.7-58.8l1-6.4c4.4-27.9,30.9-47.1,58.8-42.7l12.9,2.1
			c27.9,4.4,47.1,30.9,42.7,58.8l-1,6.4C209.8,123,183.3,142.3,155.4,137.8z"/>
		<g>
			<path class="st13" d="M236.2,53.5L236.2,53.5L236.2,53.5z"/>
			<path class="st13" d="M77.3,85.5c0.1,0.3,0.2,0.7,0.3,1C77.5,86.2,77.4,85.9,77.3,85.5z"/>
			<path class="st13" d="M237.2,53.3c0.1,0,0.1,0,0.2,0C237.3,53.3,237.2,53.3,237.2,53.3z"/>
			<path class="st13" d="M78.5,89.4c0.1,0.3,0.2,0.6,0.3,1C78.7,90,78.6,89.7,78.5,89.4z"/>
			<path class="st13" d="M230.5,54.1c-0.1,0-0.2,0-0.3,0C230.3,54.1,230.4,54.1,230.5,54.1z"/>
			<path class="st13" d="M234.8,53.7c0.1,0,0.1,0,0.2,0C235,53.7,234.9,53.7,234.8,53.7z"/>
			<path class="st13" d="M77.9,87.4c0.1,0.3,0.2,0.7,0.3,1C78.1,88.1,78,87.7,77.9,87.4z"/>
			<path class="st13" d="M233.5,53.9h0.1H233.5z"/>
			<path class="st13" d="M238.2,53c0.1,0,0.1,0,0.2,0C238.3,53,238.2,53,238.2,53z"/>
			<path class="st13" d="M241.3,49.5c0,0.1,0,0.1,0.1,0.2C241.3,49.6,241.3,49.6,241.3,49.5z"/>
			<path class="st13" d="M241.4,50L241.4,50C241.5,50.1,241.5,50,241.4,50z"/>
			<path class="st13" d="M241.5,50.3L241.5,50.3C241.5,50.4,241.5,50.4,241.5,50.3z"/>
			<path class="st13" d="M232,54c0.1,0,0.1,0,0.2,0C232.1,54,232,54,232,54z"/>
			<path class="st13" d="M241.5,50.8L241.5,50.8C241.5,50.8,241.5,50.8,241.5,50.8z"/>
			<path class="st13" d="M241,49.1c0.1,0.1,0.1,0.2,0.1,0.2C241.1,49.2,241.1,49.2,241,49.1z"/>
			<path class="st13" d="M75,72.3c0.9,4.3,2.3,10.2,4,14.2c2,4.7,3,7.9,5.8,12.2c2.2,3.4,7,8.1,11.4,8.9c4.1,0.8,6.2-2.5,8.1-5.6
				c3-4.8,5.3-9.9,7.7-15.1c2.6-5.8,5.2-11.5,8.8-16.8c2.8-4.1,6.1-7.8,9.5-11.4c-2,3.7-3.7,7.8-3.2,11.9c0.1,0.5,0.5,0.7,0.9,0.6
				c5-1.4,9-4.8,12.9-8.1c-1.6,2.2-2.8,4.5-2.7,7c0,0.4,0.6,0.7,0.9,0.6c6.8-3.5,12.9-8.1,18.8-12.9c-2.6,4.3-5.9,11-1.4,10.9
				c3.1-0.1,6.5-4,8.5-6c2.3-2.3,4.6-4.6,6.6-7.1c0,5.9,3,16.2,8,15.6c3.5-0.4,5.5-4.7,7-7.5c1.3-2.5,2.2-5.1,3.1-7.7
				c0.1,5.6,5.3,17.2,7.3,16.1c2.2-1.3,3.8-5.8,4-10.1c1.2,3.8,3.3,7.8,7,5.9c2.6-1.4,2.2-5.3,1.2-8.9c1.2,1.9,2.5,3.7,4.1,5.3
				c1.7,1.8,5.6,4.7,8.4,3.5c2.1-0.9,1.9-3.2,1-5.7c2.9,3.1,6.1,5.3,7.7,2.2c1.6-3.1-1.4-6.4-3.4-8.5s-4.2-3.9-6.5-5.6
				c5.5,1.9,10.9,4.2,16.7,1.4c1.7-0.8,2.8-1.9,3.3-3c-1.6-1.7-4.8-3.5-8-5.1c-8.6-4-14.8-2.6-14.8-2.6s9.1-9.6,5.5-9.9
				s-9.9,4.3-9.9,4.3C195,5.5,150.8-1.5,117.1,12.9S81.5,48.3,81.5,48.3s-1.1-8-3.6-5.9s1.4,8.9,1.4,8.9c-6.6-0.4-9.1,7.4-7,5.8
				c2.1-1.6,4.9-1,4.9-1C76,58.5,74.5,64.1,75,72.3z"/>
			<path class="st13" d="M240.9,48.9c0-0.1-0.1-0.1-0.1-0.2C240.8,48.8,240.8,48.8,240.9,48.9z"/>
			<path class="st13" d="M239.8,52.4c0,0-0.1,0-0.1,0.1C239.7,52.5,239.8,52.5,239.8,52.4z"/>
			<path class="st13" d="M239.1,52.8C239,52.8,239,52.8,239.1,52.8C239,52.8,239,52.8,239.1,52.8z"/>
			<path class="st13" d="M82.2,98.4c-0.1-0.2-0.2-0.4-0.3-0.6C82,98,82.1,98.2,82.2,98.4z"/>
			<path class="st13" d="M240.4,52.1C240.3,52.1,240.3,52.2,240.4,52.1C240.3,52.2,240.3,52.1,240.4,52.1z"/>
			<path class="st13" d="M81.3,96.3c-0.1-0.3-0.2-0.5-0.3-0.8C81,95.8,81.1,96.1,81.3,96.3z"/>
			<path class="st13" d="M241.3,51.2c0,0,0-0.1,0.1-0.1C241.3,51.1,241.3,51.2,241.3,51.2z"/>
			<path class="st13" d="M76.8,83.7c0.1,0.3,0.2,0.7,0.3,1C77,84.4,76.9,84,76.8,83.7z"/>
			<path class="st13" d="M80.4,94.3c-0.1-0.3-0.2-0.6-0.4-0.9C80.2,93.7,80.3,94,80.4,94.3z"/>
			<path class="st13" d="M240.7,51.9l0.1-0.1C240.8,51.8,240.7,51.9,240.7,51.9z"/>
			<path class="st13" d="M241.1,51.5L241.1,51.5L241.1,51.5z"/>
			<path class="st13" d="M75.7,78.5c0.1,0.4,0.1,0.7,0.2,1.1C75.9,79.2,75.8,78.9,75.7,78.5z"/>
			<path class="st13" d="M79.6,92.3c-0.1-0.3-0.2-0.6-0.3-0.9C79.4,91.7,79.5,92,79.6,92.3z"/>
			<path class="st13" d="M76.4,81.9c0.1,0.4,0.2,0.7,0.3,1.1C76.6,82.6,76.5,82.3,76.4,81.9z"/>
			<path class="st13" d="M75.5,76.9c0.1,0.4,0.1,0.7,0.2,1.1C75.6,77.6,75.5,77.3,75.5,76.9z"/>
			<path class="st13" d="M76,80.2c0.1,0.4,0.1,0.7,0.2,1.1C76.2,80.9,76.1,80.5,76,80.2z"/>
			<path class="st13" d="M75.3,75.3c0,0.4,0.1,0.8,0.1,1.1C75.4,76.1,75.3,75.7,75.3,75.3z"/>
			<path class="st13" d="M75,72.4c0,0.4,0.1,0.8,0.1,1.1C75.1,73.1,75,72.8,75,72.4z"/>
			<path class="st13" d="M75.1,73.8c0,0.4,0.1,0.8,0.1,1.1C75.2,74.6,75.1,74.2,75.1,73.8z"/>
		</g>
		<path class="st14" d="M182.1,109.3c-1.2-3.2-5.5-1.9-7.6-0.5c-0.2,0.1,0,0.3,0.2,0.3c1.7-0.6,4.9-1.2,5.9,0.8
			c0.8,1.6-1.4,3-2.4,3.6c-0.2,0.1-0.3,0.6,0,0.7C180.7,114.6,183,111.6,182.1,109.3z"/>
		<path class="st15" d="M176.1,132.3c0-6.7-4.4-12.4-10.6-13.3s-12,3.5-13.8,10L176.1,132.3z"/>
		<g>
			<path class="st16" d="M152.6,94.4c-0.4,3.9-2.6,6.9-4.9,6.6c-2.3-0.3-3.8-3.6-3.4-7.5c0.4-3.9,2.6-6.9,4.9-6.6
				C151.5,87.1,153,90.5,152.6,94.4z"/>
			<path class="st8" d="M151.7,91.6c-0.1,1.2-0.8,2.1-1.5,2s-1.1-1.1-1-2.2c0.1-1.2,0.8-2.1,1.5-2C151.4,89.4,151.8,90.4,151.7,91.6
				z"/>
		</g>
		<g>
			<path class="st16" d="M195.1,94.1c-0.4,3.9-2.6,6.9-4.9,6.6c-2.3-0.3-3.8-3.6-3.4-7.5c0.4-3.9,2.6-6.9,4.9-6.6
				C194,86.8,195.5,90.2,195.1,94.1z"/>
			<path class="st8" d="M194.1,91.3c-0.1,1.2-0.8,2.1-1.5,2s-1.1-1.1-1-2.2c0.1-1.2,0.8-2.1,1.5-2C193.8,89.1,194.3,90.1,194.1,91.3
				z"/>
		</g>
		<path class="st13" d="M143.4,78.2c3.5-0.8,7.1-0.4,10.1,1c-2.3-3.6-6.6-5.5-10.9-4.5c-4.3,1-7.4,4.6-7.9,8.8
			C136.9,80.9,139.9,79,143.4,78.2z"/>
		<path class="st13" d="M191.3,79.1c3.6-0.2,7,0.8,9.8,2.7c-1.6-3.9-5.6-6.5-10-6.3c-4.4,0.3-8.1,3.3-9.3,7.3
			C184.4,80.7,187.7,79.3,191.3,79.1z"/>
		<path class="st1" d="M112.9,87.2c0,0-2,8.2-2.5,14.2c-0.7,4.1-11.7,2.4-11.9-7.2C98.2,84.7,108,81.7,112.9,87.2z"/>
		<path class="st14" d="M109,98.8c0,0,0.2-0.5,0.1-1.4c0-0.2-0.1-0.4-0.1-0.7c-0.1-0.2-0.1-0.5-0.2-0.7c-0.2-0.5-0.5-1-0.9-1.4
			l-0.6-0.6c-0.2-0.2-0.5-0.3-0.7-0.4s-0.4-0.2-0.7-0.3c-0.2-0.1-0.4-0.1-0.6-0.2c-0.8-0.2-1.4-0.1-1.4-0.1s0.4,0.5,0.9,0.9
			c0.1,0.1,0.3,0.2,0.4,0.4c0.1,0.2,0.3,0.3,0.4,0.5c0.2,0.1,0.3,0.3,0.5,0.4l0.4,0.5c0.3,0.3,0.6,0.7,0.9,1
			c0.1,0.2,0.2,0.3,0.4,0.5c0.1,0.2,0.3,0.3,0.3,0.5C108.6,98.3,109,98.8,109,98.8z"/>
		<g>
			<path class="st1" d="M263,151.8c8.8-7.6,16.2-14.7,13.8-16.3c-2.1-1.3-18,11-22.3,18.4c0-0.1,0-0.2,0-0.2
				c-0.7,1.6-4.4,6.2-6.8,7.1c-0.1,1.1-0.1,2.2,0.3,3.3c0.3,1.1,0.9,2,1.7,2.8c-5,8.2-21.2,34.8-38.3,62.7l7.8,4.1
				c16.2-30.8,31-58,34.1-64.6c1.5,0.5,3.1,0.6,4.7,0.1c2-0.7,3.6-2.1,4.5-3.8c9.9-3.9,11-7.5,8.6-7c-1.6,0.3-3.3,0.9-4.7,1.6
				c4-2,10.2-5.6,9.5-7.5c-0.6-1.5-4.9,0.3-8.8,2.6c10.4-8,12-10.1,11.5-11.6C277.7,140.8,273.1,143.8,263,151.8z"/>
			<path class="st6" d="M208.9,240.9c-3.8-2.3-5-7.3-2.6-11.1c0.2-0.4,32.1-51.5,32.1-51.5l10.9,5.2L220.1,238l0,0
				c0,0.1-0.1,0.2-0.1,0.3C217.6,242,212.7,243.2,208.9,240.9z"/>
			<g>
				<line class="st17" x1="269.4" y1="126.9" x2="250.6" y2="138.1"/>
				<path class="st17" d="M254.3,150.8c6.1-3.7,14.1-1.6,17.7,4.5l0,0"/>
				<line class="st17" x1="275" y1="136.5" x2="253.6" y2="143.1"/>
				<path class="st18" d="M301.5,140.2L238,102.1c-0.6-0.4-1.5-0.2-1.9,0.5l0,0l-15.6,26.1c-0.4,0.6-0.2,1.5,0.5,1.9l0,0l63.5,38.1
					c0.6,0.4,1.5,0.2,1.9-0.5l0,0l15.6-26.1C302.3,141.4,302.1,140.6,301.5,140.2L301.5,140.2z M285.7,167.8
					c-0.2,0.3-0.6,0.4-0.8,0.2l0,0l-63.5-38.1c-0.3-0.2-0.4-0.6-0.2-0.8l15.6-26.1c0.2-0.3,0.6-0.4,0.8-0.2l63.5,38.1
					c0.3,0.2,0.4,0.6,0.2,0.8l0,0L285.7,167.8z"/>
				
					<linearGradient id="SVGID_1_" gradientUnits="userSpaceOnUse" x1="-6466.2666" y1="-6968.6772" x2="-6466.2666" y2="-6919.6001" gradientTransform="matrix(0.8577 0.5142 -0.5142 0.8577 2233.8506 9420.9619)">
					<stop  offset="0" style="stop-color:#A75D3A"/>
					<stop  offset="1" style="stop-color:#904D34"/>
				</linearGradient>
				<path class="st19" d="M219.6,130.2l16.1-26.9c0.4-0.7,1.3-0.9,2-0.5l63.3,37.9c0.7,0.4,0.9,1.3,0.5,2l-16.1,26.9
					c-0.4,0.7-1.3,0.9-2,0.5l-63.3-37.9C219.4,131.8,219.2,130.9,219.6,130.2z"/>
				<path class="st20" d="M237.4,103.4c-0.2-0.1-0.5-0.1-0.7,0.2l-16.5,27.6c-0.1,0.2-0.1,0.5,0.2,0.7l25.4,15.3l0.8,0.5l1.1,0.6
					l0.8,0.5l6.3,3.8l0.8,0.5l0.7,0.4l0.8,0.5l26.3,15.8c0.2,0.1,0.5,0.1,0.7-0.2l16.5-27.6c0.1-0.2,0.1-0.5-0.2-0.7L237.4,103.4z"
					/>
				
					<rect x="246.8" y="99" transform="matrix(0.5142 -0.8577 0.8577 0.5142 10.2479 289.6748)" class="st20" width="28.1" height="73.6"/>
				<path class="st20" d="M246.6,146.7l15-25c0.1-0.1,0.2-0.1,0.3-0.1l10.3,6.2c0.1,0.1,0.1,0.2,0.1,0.3l-15,25
					c-0.1,0.1-0.2,0.1-0.3,0.1l-10.3-6.2C246.6,146.9,246.6,146.8,246.6,146.7z"/>
				
					<linearGradient id="SVGID_2_" gradientUnits="userSpaceOnUse" x1="-6486.7104" y1="-6964.5386" x2="-6486.7104" y2="-6922.3218" gradientTransform="matrix(0.8577 0.5142 -0.5142 0.8577 2233.8528 9420.9609)">
					<stop  offset="0" style="stop-color:#A75D3A"/>
					<stop  offset="1" style="stop-color:#904D34"/>
				</linearGradient>
				<polygon class="st21" points="220.9,131.4 236.1,106.1 263.8,122.7 248.6,148 				"/>
				
					<rect x="244.8" y="135.4" transform="matrix(0.5142 -0.8577 0.8577 0.5142 8.1618 289.4636)" class="st22" width="29.5" height="4.2"/>
				<polyline class="st23" points="248.3,148 263.5,122.6 236.1,106.2 236.9,104.9 299.5,142.5 298.8,143.7 270.8,127 255.6,152.3 
									"/>
				<polyline class="st24" points="276.2,130.2 270.6,126.9 267.2,125.1 263.8,122.8 250,114.5 				"/>
				
					<rect x="244.9" y="137.1" transform="matrix(0.5142 -0.8577 0.8577 0.5142 7.9684 289.4403)" class="st25" width="29.1" height="1.1"/>
				<path class="st26" d="M257.8,128.1"/>
				<path class="st27" d="M220.3,130.7l16-26.7c0.2-0.4,0.8-0.5,1.2-0.3l62.9,37.7c0.4,0.2,0.5,0.8,0.3,1.2l-16,26.7
					c-0.2,0.4-0.8,0.5-1.2,0.3l-62.9-37.7C220.2,131.7,220.1,131.1,220.3,130.7z"/>
				
					<rect x="268.9" y="144.3" transform="matrix(0.5142 -0.8577 0.8577 0.5142 -6.5051 309.696)" class="st22" width="2.4" height="32.6"/>
				<g class="st28">
					
						<rect x="232.4" y="121.7" transform="matrix(0.5142 -0.8577 0.8577 0.5142 -4.2896 268.4746)" class="st22" width="4.9" height="32.6"/>
				</g>
				<path class="st27" d="M294.8,149.6l-9.8,16.3c-0.2,0.4-0.8,0.5-1.2,0.3l-25.2-15.1c-0.4-0.2-0.5-0.8-0.3-1.2l9.8-16.3"/>
				<line class="st29" x1="234.3" y1="111.6" x2="258.9" y2="126.4"/>
				<line class="st27" x1="233.9" y1="112.5" x2="258.3" y2="127.1"/>
				<line class="st30" x1="234.7" y1="111.1" x2="259.3" y2="125.8"/>
				<line class="st29" x1="230.5" y1="118" x2="255.1" y2="132.7"/>
				<line class="st27" x1="230.1" y1="118.8" x2="254.5" y2="133.4"/>
				<line class="st30" x1="230.9" y1="117.4" x2="255.5" y2="132.2"/>
				<line class="st29" x1="226.6" y1="124.4" x2="251.3" y2="139.1"/>
				<line class="st27" x1="226.3" y1="125.2" x2="250.6" y2="139.8"/>
				<line class="st30" x1="227" y1="123.8" x2="251.6" y2="138.5"/>
				<path class="st20" d="M298.7,144.8l-4.7,7.8c-0.3,0.5-1,0.7-1.5,0.4l-26.1-15.7c-0.5-0.3-0.7-1-0.4-1.5l4.7-7.8"/>
				<path class="st31" d="M297.7,144c0.3,0.2,0.4,0.6,0.2,0.9l-4.5,7.5c-0.2,0.3-0.6,0.4-0.9,0.2l-26-15.6c-0.3-0.2-0.4-0.6-0.2-0.9
					l4.5-7.5c0.2-0.3,0.6-0.4,0.9-0.2L297.7,144 M298,143.6L271.9,128c-0.5-0.3-1.2-0.1-1.5,0.4l-4.5,7.5c-0.3,0.5-0.1,1.2,0.4,1.5
					l26.1,15.6c0.5,0.3,1.2,0.1,1.5-0.4l4.5-7.5C298.7,144.6,298.5,144,298,143.6L298,143.6z"/>
				
					<linearGradient id="SVGID_3_" gradientUnits="userSpaceOnUse" x1="-6445.7666" y1="-6964.3589" x2="-6445.7666" y2="-6922.3179" gradientTransform="matrix(0.8577 0.5142 -0.5142 0.8577 2233.8486 9420.9521)">
					<stop  offset="0" style="stop-color:#A75D3A"/>
					<stop  offset="1" style="stop-color:#904D34"/>
				</linearGradient>
				<path class="st32" d="M255.9,151.9l14.6-24.4c0.1-0.2,0.4-0.3,0.7-0.2l27.5,16.5c0.2,0.1,0.3,0.4,0.2,0.7l-14.6,24.4
					c-0.1,0.2-0.4,0.3-0.7,0.2L256,152.5C255.8,152.4,255.7,152.1,255.9,151.9z"/>
				<ellipse transform="matrix(0.5142 -0.8577 0.8577 0.5142 7.8298 310.073)" class="st33" cx="277.6" cy="148.1" rx="2" ry="2"/>
				
					<ellipse transform="matrix(0.5142 -0.8577 0.8577 0.5142 7.8298 310.073)" class="st34" cx="277.6" cy="148.1" rx="1.6" ry="1.6"/>
				
					<ellipse transform="matrix(0.5142 -0.8577 0.8577 0.5142 7.8298 310.073)" class="st35" cx="277.6" cy="148.1" rx="0.6" ry="0.6"/>
				<path class="st36" d="M277.8,147.8c0.3,0.2,0.4,0.5,0.3,0.7c0.2-0.2,0.2-0.7,0-0.9s-0.7-0.2-0.9,0c-0.1,0.1-0.1,0.2-0.2,0.3
					C277.2,147.7,277.5,147.7,277.8,147.8z"/>
				
					<ellipse transform="matrix(0.5142 -0.8577 0.8577 0.5142 7.8298 310.073)" class="st37" cx="277.6" cy="148.1" rx="1.2" ry="1.2"/>
				
					<rect x="283.9" y="119.8" transform="matrix(0.5142 -0.8577 0.8577 0.5142 21.3799 310.2237)" class="st18" width="1.3" height="32.8"/>
				
					<rect x="269.4" y="143.6" transform="matrix(0.5142 -0.8577 0.8577 0.5142 -6.0828 309.4657)" class="st20" width="1.5" height="33"/>
				<polygon class="st38" points="255.3,152.1 254.1,151.4 269.9,126.9 270.3,127.1 				"/>
				
					<linearGradient id="SVGID_4_" gradientUnits="userSpaceOnUse" x1="-6484.042" y1="11322.5449" x2="-6484.042" y2="11349.4551" gradientTransform="matrix(0.858 0.5123 0.4075 -0.6738 1228.7113 11095.7275)">
					<stop  offset="0" style="stop-color:#A75D3A"/>
					<stop  offset="1" style="stop-color:#904D34"/>
				</linearGradient>
				<path class="st39" d="M297.2,147l3.9-6.5c0.4-0.7,0.2-1.6-0.5-2L275,123.1c-0.7-0.4-1.6-0.2-2,0.5l-3.9,6.6"/>
				
					<linearGradient id="SVGID_5_" gradientUnits="userSpaceOnUse" x1="-6483.9775" y1="11319.6748" x2="-6483.9775" y2="11349.6133" gradientTransform="matrix(0.858 0.5123 0.4075 -0.6738 1228.7113 11095.7275)">
					<stop  offset="0" style="stop-color:#C8713D"/>
					<stop  offset="1" style="stop-color:#B16137"/>
				</linearGradient>
				<path class="st40" d="M296.4,148.4l4.5-7.4c0.4-0.7,0.2-1.6-0.5-2l-25.6-15.4c-0.7-0.4-1.6-0.2-2,0.5l-4.5,7.4"/>
				<path class="st41" d="M295.8,148l4.1-6.8c0.3-0.5,0.1-1.2-0.4-1.6l-25-15c-0.5-0.3-1.2-0.1-1.6,0.4l-4.3,7.2"/>
				
					<ellipse transform="matrix(0.5142 -0.8577 0.8577 0.5142 23.6768 310.5059)" class="st33" cx="285.9" cy="134.4" rx="2" ry="2"/>
				
					<ellipse transform="matrix(0.5142 -0.8577 0.8577 0.5142 23.6768 310.5059)" class="st34" cx="285.9" cy="134.4" rx="1.6" ry="1.6"/>
				
					<ellipse transform="matrix(0.5142 -0.8577 0.8577 0.5142 23.6768 310.5059)" class="st42" cx="285.9" cy="134.4" rx="0.6" ry="0.6"/>
				
					<ellipse transform="matrix(0.5142 -0.8577 0.8577 0.5142 23.6768 310.5059)" class="st37" cx="285.9" cy="134.4" rx="1.2" ry="1.2"/>
				<path class="st43" d="M286,134.1c0.3,0.2,0.4,0.5,0.3,0.7c0.2-0.2,0.2-0.7,0-0.9s-0.7-0.2-0.9,0c-0.1,0.1-0.1,0.2-0.2,0.3
					C285.5,134,285.8,133.9,286,134.1z"/>
				<line class="st44" x1="268" y1="132.9" x2="295" y2="149.2"/>
				<line class="st45" x1="267.6" y1="133.8" x2="294.4" y2="149.9"/>
				<line class="st46" x1="268.3" y1="132.4" x2="295.4" y2="148.6"/>
			</g>
			<path class="st1" d="M254.5,153.7c0.4-5.4-3-11.7-6.4-11.1c-3.4,0.6-0.7,16.7-0.4,18.1C250.1,159.9,253.8,155.4,254.5,153.7z"/>
		</g>
	</g>
</g>
</svg>
