<svg xmlns="http://www.w3.org/2000/svg" viewBox="0 0 315.05 523.84"><defs><style>.cls-1{fill:#52b8e8;}.cls-2{fill:#89d1f4;}.cls-3{fill:#009bde;}.cls-4{fill:#00a7e7;}.cls-5{fill:#2d2d2d;}.cls-6{fill:#88a5a4;}.cls-7{fill:none;}</style></defs><title>Feedback_2</title><g id="Capa_2" data-name="Capa 2"><g id="Layer_1" data-name="Layer 1"><path class="cls-1" d="M62.27,215.82s-.15-1.85-.21-2.76v0h0a.85.85,0,0,0-.9-.77H61l-1.87.15H59.1c-.62,0-.77-.85-.77-.87-.06-.19-.29-1.23-.71-2.49a2.35,2.35,0,0,1-.15-.75c0-.6.37-.73.37-.73l1.74-.89A.76.76,0,0,0,60,206a1.09,1.09,0,0,0-.15-.52l-1.32-2.59h0l0,0h0a.74.74,0,0,0-.68-.42h0a1.15,1.15,0,0,0-.53.14l-1.63.83a.56.56,0,0,1-.23,0,1.22,1.22,0,0,1-.88-.43h0c-.1-.21-1.24-1.64-1.87-2.41a1.19,1.19,0,0,1-.33-.72.42.42,0,0,1,.17-.35l1.26-1.5a.83.83,0,0,0,0-1.21l-2.3-2h0a.91.91,0,0,0-.51-.21h0a1,1,0,0,0-.64.28h0l0,.06L49,196.49a.52.52,0,0,1-.41.16,1.75,1.75,0,0,1-.71-.21c-.46-.42-2.12-1.15-2.84-1.62-.36-.23-.45-.45-.45-.62a.6.6,0,0,1,.11-.31.59.59,0,0,0,0-.13l.53-1.59a1.49,1.49,0,0,0,0-.35.87.87,0,0,0-.64-.8l-.09,0-2.66-.86h0a1.07,1.07,0,0,0-.32,0h0a.86.86,0,0,0-.76.59l-.65,2h0c-.1.27-.56.32-.84.33h-.24c-.39-.1-1.81-.25-2.81-.34s-1-.69-1-.69-.05-.77-.15-1.84c-.07-.79-.59-.91-.87-.91h-.15l-2.84.22a.91.91,0,0,0-.82,1h0v0c0,.21.11,1.4.15,1.91v.06c0,.46-.39.66-.76.76l-.12,0a26.08,26.08,0,0,0-2.79.79h0a1.31,1.31,0,0,1-.45.09h0a.82.82,0,0,1-.79-.61l-.69-1.36v0h0v0h0a.94.94,0,0,0-.82-.56h0a.86.86,0,0,0-.37.08L21,192.94a.73.73,0,0,0-.43.68,1.15,1.15,0,0,0,.12.5l.86,1.68h0a.67.67,0,0,1,.07.29,1.07,1.07,0,0,1-.51.83c-.36.24-1.39,1-2.27,1.79l0,0h0a1.16,1.16,0,0,1-.73.31h0a.81.81,0,0,1-.63-.31l-1.27-1.08a.89.89,0,0,0-.57-.22,1,1,0,0,0-.58.21l-1.83,2.13-.12.14,0,0a.88.88,0,0,0-.24.58,1,1,0,0,0,.32.68s1.06.88,1.5,1.27a.58.58,0,0,1,.19.47,1.72,1.72,0,0,1-.2.71,21.25,21.25,0,0,0-1.46,2.59c-.25.5-.57.62-.81.62a.82.82,0,0,1-.41-.11l-1.57-.51a1.05,1.05,0,0,0-.33-.07.92.92,0,0,0-.8.53s-.57,1.76-.88,2.72a.92.92,0,0,0,.47,1.24l1.94.63c.51.17.42,1.08.42,1.08-.1.46-.26,1.82-.35,2.87s-.78,1-.87,1h0l-1.65.13a.9.9,0,0,0-.89,1.13l.2,2.58c.07.88.61,1,.87,1h.13l1.62-.12h.13a.91.91,0,0,1,1,.8c.11.67.68,2.21.84,3s-.29.94-.29.94l-1.65.84A.91.91,0,0,0,9.79,228l1.28,2.51a.75.75,0,0,0,.7.46,1.43,1.43,0,0,0,.67-.21l1.55-.79a.59.59,0,0,1,.28-.07,1.17,1.17,0,0,1,.89.66c.24.4,1.29,1.67,1.82,2.32s0,1.07,0,1.07l-1.15,1.36a.94.94,0,0,0,0,1.29s1.42,1.3,2.21,1.89a1,1,0,0,0,.61.24,1,1,0,0,0,.73-.38l1.24-1.45a.63.63,0,0,1,.46-.16,1.19,1.19,0,0,1,.67.21c.4.27,1.72,1,2.56,1.43s.61,1.06.61,1.06l-.51,1.55c-.37,1.15.46,1.35.46,1.35l2.66.86a1.35,1.35,0,0,0,.44.08.85.85,0,0,0,.83-.61l.61-1.88c.11-.33.44-.42.79-.42a3.88,3.88,0,0,1,.7.09c.36.06,1.42.18,2.5.27s1,.86,1,.86l.14,1.81c.05.71.75.77,1,.77h.1l2.58-.2c1.13-.09,1-1.06,1-1.06s-.08-1-.13-1.75.74-.95,1-1,1.43-.37,2.57-.74a1.91,1.91,0,0,1,.55-.1.72.72,0,0,1,.76.52l.84,1.63a.72.72,0,0,0,.7.41,1.39,1.39,0,0,0,.42-.07l2.66-1.36a.86.86,0,0,0,.3-1.29l-.79-1.55c-.25-.48.1-1,.56-1.27S50.36,235,51,234.48h0a1,1,0,0,1,.57-.24h0l.2,0a.53.53,0,0,1,.25.2l1.32,1.13a1.14,1.14,0,0,0,.68.29h0a.93.93,0,0,0,.69-.34h0l1.89-2.22a.83.83,0,0,0,.23-.55,1,1,0,0,0-.4-.71L55,230.82a.54.54,0,0,1-.18-.43,1.62,1.62,0,0,1,.26-.75c.21-.3,1.07-1.85,1.55-2.73h0v0a.77.77,0,0,1,.64-.45h0a.76.76,0,0,1,.44.16l1.51.49h0a1.27,1.27,0,0,0,.39.07h0a.86.86,0,0,0,.81-.7l.87-2.66a1.22,1.22,0,0,0,.06-.35.88.88,0,0,0-.65-.8L59,222.07a.86.86,0,0,1-.56-.87,2.46,2.46,0,0,1,0-.28c.12-.54.26-2.28.38-3.13h0v-.07h0v0h0a.77.77,0,0,1,.47-.49h0l.06,0h.25s.69-.07,1.71-.13a.82.82,0,0,0,.83-.89A.79.79,0,0,0,62.27,215.82ZM34.36,229h-.08a12.34,12.34,0,0,1,.07-24.69h.08A12.34,12.34,0,0,1,34.36,229Z"/><path class="cls-1" d="M67.79,256.4l-1.87.06a11.29,11.29,0,0,0-1.34-2.2l1-1.65a.34.34,0,0,0,.06-.49l-1.32-1.47a.37.37,0,0,0-.51,0l-2,1a11.73,11.73,0,0,0-2.06-1.09l-.09-1.81a.35.35,0,0,0-.24-.44l-1.92-.45a.36.36,0,0,0-.41.3l-.85,1.56a11.69,11.69,0,0,0-2.22,0v0L52.6,247.9a.35.35,0,0,0-.45-.24l-1.84.72a.37.37,0,0,0-.17.48l.19,2a11.89,11.89,0,0,0-2.24,1.4l-2-1a.36.36,0,0,0-.5,0l-1.32,1.47a.36.36,0,0,0,.06.5l1.18,1.9a12.52,12.52,0,0,0-.9,1.76l-2.2.15a.36.36,0,0,0-.44.25l-.4,1.92a.35.35,0,0,0,.29.41l1.86,1a12,12,0,0,0,.06,2.18L42,264a.35.35,0,0,0-.23.44l.71,1.85a.36.36,0,0,0,.47.18l1.83-.17a12,12,0,0,0,1.65,2.58l-1,1.12a.37.37,0,0,0-.13.49l1.08,1.65a.37.37,0,0,0,.51.07l2.22-.7a.37.37,0,0,0,.16-.22,12.59,12.59,0,0,0,1.32.69l0,.13.35,2.29a.36.36,0,0,0,.28.42l2,.25a.37.37,0,0,0,.39-.33l.76-1.8a11.63,11.63,0,0,0,2.3,0v0l1.4,1.86a.35.35,0,0,0,.44.24l1.84-.7a.36.36,0,0,0,.18-.47l-.17-2a11.87,11.87,0,0,0,1.89-1.11L64,272a.35.35,0,0,0,.5.08L66,270.79a.36.36,0,0,0,0-.5l-.95-2.12-.18-.12a11.49,11.49,0,0,0,1.09-1.9l.12,0,2.3-.32a.36.36,0,0,0,.43-.28l.27-2a.35.35,0,0,0-.32-.38l-1.8-.8a11.64,11.64,0,0,0,0-2.43l1.67-1.11a.36.36,0,0,0,.26-.44l-.6-1.88A.35.35,0,0,0,67.79,256.4Zm-8.61,4.15-.08.12-.47.32a4.29,4.29,0,0,1,0,.69l.51.22.09.12-.08.55-.12.08-.65.09,0,0a3.18,3.18,0,0,1-.31.54l.05,0,.26.6V264l-.42.36-.14,0-.5-.34a3.14,3.14,0,0,1-.54.31l0,.57,0,.14-.53.2-.13-.07-.4-.53h0a4.73,4.73,0,0,1-.65,0l-.21.5-.11.09-.56-.07-.08-.12-.1-.65,0,0a3.76,3.76,0,0,1-.38-.2l0,.06-.63.2-.14,0-.31-.47,0-.14.27-.32a3.41,3.41,0,0,1-.47-.73l-.51,0-.14,0-.2-.53.07-.13.49-.37a3.68,3.68,0,0,1,0-.62l-.53-.28-.09-.12.12-.55.13-.07.62,0a4.67,4.67,0,0,1,.26-.5L52.2,259l0-.14.37-.42h.15l.57.28a3.84,3.84,0,0,1,.63-.4l-.05-.55,0-.13.52-.21.13.07.39.52h0a3.62,3.62,0,0,1,.63,0l.24-.44.12-.09.55.13.06.12,0,.51a3.26,3.26,0,0,1,.58.31l.58-.28h.15l.37.42v.15l-.29.47a3.44,3.44,0,0,1,.38.62h.53l.13,0Z"/><path class="cls-1" d="M220.73,352.36l-1.58.05a9.86,9.86,0,0,0-1.13-1.86l.86-1.39a.29.29,0,0,0,0-.42l-1.11-1.24a.31.31,0,0,0-.43,0l-1.72.85a9.77,9.77,0,0,0-1.74-.92l-.08-1.53a.29.29,0,0,0-.2-.37l-1.63-.38a.3.3,0,0,0-.34.25l-.72,1.32a9.89,9.89,0,0,0-1.87,0v0l-1.19-1.56a.3.3,0,0,0-.38-.2l-1.55.61a.31.31,0,0,0-.15.4l.16,1.67a10,10,0,0,0-1.89,1.18l-1.7-.84a.29.29,0,0,0-.42,0l-1.12,1.24a.31.31,0,0,0,0,.43l1,1.6a10.77,10.77,0,0,0-.76,1.48l-1.86.13a.31.31,0,0,0-.37.21l-.34,1.63a.3.3,0,0,0,.25.35l1.58.83a10.13,10.13,0,0,0,0,1.84l-1.46,1.1a.3.3,0,0,0-.2.37l.59,1.56a.32.32,0,0,0,.41.15l1.54-.14a10.22,10.22,0,0,0,1.39,2.18l-.83,1a.31.31,0,0,0-.11.41l.91,1.4a.31.31,0,0,0,.43.06l1.88-.59a.36.36,0,0,0,.13-.19,11.88,11.88,0,0,0,1.12.58l0,.11.29,1.94a.3.3,0,0,0,.24.36l1.65.2a.3.3,0,0,0,.33-.28l.64-1.52a10.08,10.08,0,0,0,1.95,0v0l1.18,1.57a.3.3,0,0,0,.37.2l1.56-.59a.3.3,0,0,0,.15-.4l-.14-1.69a9.88,9.88,0,0,0,1.6-.94l1.5,1a.3.3,0,0,0,.42.06l1.28-1.07a.31.31,0,0,0,0-.42l-.8-1.79-.15-.1a9.64,9.64,0,0,0,.92-1.61l.1,0,1.95-.27a.3.3,0,0,0,.36-.23l.23-1.65a.31.31,0,0,0-.27-.33l-1.52-.67a10.34,10.34,0,0,0,0-2.06l1.41-.94a.3.3,0,0,0,.22-.37l-.51-1.59A.31.31,0,0,0,220.73,352.36Zm-7.28,3.51-.07.1-.39.28a3.72,3.72,0,0,1,0,.58l.43.18.08.1-.06.47-.11.07-.54.08h0a2.58,2.58,0,0,1-.26.45l0,0,.23.51v.12l-.36.3-.12,0-.43-.29a2.88,2.88,0,0,1-.45.26l0,.48,0,.12-.44.17-.11-.06-.33-.44h0a3.55,3.55,0,0,1-.55,0l-.18.43-.09.08-.47-.06-.07-.11-.09-.55v0l-.32-.17,0,.05-.53.17-.12,0-.26-.4,0-.12.24-.27a2.64,2.64,0,0,1-.4-.62l-.44,0-.11,0-.17-.44.06-.11.41-.31a3.68,3.68,0,0,1,0-.52l-.44-.23-.07-.11.1-.46.11-.06.52,0a2.76,2.76,0,0,1,.22-.42l-.29-.46v-.12l.32-.35H208l.48.23A3.42,3.42,0,0,1,209,354l0-.47,0-.11.44-.17.11.05.33.44h0a3.25,3.25,0,0,1,.53,0l.2-.37.1-.07.46.11.05.11,0,.43a2.71,2.71,0,0,1,.49.26l.49-.24h.13l.31.36v.12l-.25.39a2.89,2.89,0,0,1,.32.53l.45,0,.11,0Z"/><path class="cls-1" d="M285.8,143l-.22-2.92v0h0v0a.9.9,0,0,0-.95-.81h-.11l-2,.16h-.07c-.66,0-.83-.9-.83-.91a26.87,26.87,0,0,0-.74-2.64,2.39,2.39,0,0,1-.15-.79c0-.64.4-.77.4-.77l1.84-.94a.79.79,0,0,0,.47-.72,1.21,1.21,0,0,0-.15-.55l-1.39-2.73h0l0,0h0a.78.78,0,0,0-.71-.44h0a1.18,1.18,0,0,0-.55.15l-1.73.88a.51.51,0,0,1-.25.06,1.33,1.33,0,0,1-.93-.45h0c-.1-.22-1.31-1.73-2-2.54a1.21,1.21,0,0,1-.35-.76.45.45,0,0,1,.17-.37l1.34-1.58a.89.89,0,0,0,0-1.29l-2.43-2.07h0a.88.88,0,0,0-.55-.22h0a1,1,0,0,0-.67.3h0l-.06.06-1.37,1.62a.55.55,0,0,1-.43.18,1.85,1.85,0,0,1-.75-.22c-.49-.44-2.24-1.22-3-1.72-.37-.24-.47-.47-.47-.65a.53.53,0,0,1,.13-.32.73.73,0,0,1,0-.15c.09-.29.31-.94.55-1.68a1.33,1.33,0,0,0,.06-.37.92.92,0,0,0-.68-.85l-.1,0-2.82-.91h0a1.07,1.07,0,0,0-.33-.06h0a.9.9,0,0,0-.81.63s-.54,1.67-.68,2.11v0c-.11.28-.59.34-.89.34h-.25a28.48,28.48,0,0,0-3-.35c-1.07-.09-1.08-.73-1.08-.73s-.06-.82-.16-1.94c-.07-.85-.63-1-.92-1H256l-3,.23a1,1,0,0,0-.87,1h0v0c0,.21.1,1.47.15,2v.08c0,.49-.41.7-.81.79l-.12,0a26.37,26.37,0,0,0-3,.84h0a1.36,1.36,0,0,1-.48.09h0a.87.87,0,0,1-.84-.65s-.23-.47-.74-1.43v0h0v0h0a1,1,0,0,0-.87-.59h0a1,1,0,0,0-.39.08l-2.85,1.46a.78.78,0,0,0-.46.71,1.22,1.22,0,0,0,.13.53l.91,1.78h0a.76.76,0,0,1,.08.32,1.11,1.11,0,0,1-.55.87c-.37.25-1.47,1.11-2.4,1.9l0,0h0a1.21,1.21,0,0,1-.77.33h0a.9.9,0,0,1-.67-.33L237,123.8a.89.89,0,0,0-.59-.23,1.08,1.08,0,0,0-.62.22L233.9,126l-.13.15,0,0a.94.94,0,0,0-.25.61,1.07,1.07,0,0,0,.33.72l1.58,1.34a.62.62,0,0,1,.2.5,1.81,1.81,0,0,1-.21.75,23.34,23.34,0,0,0-1.54,2.74c-.26.53-.6.66-.86.66a.82.82,0,0,1-.42-.12l-1.67-.54a1.11,1.11,0,0,0-.35-.06,1,1,0,0,0-.85.55s-.59,1.87-.93,2.87a1,1,0,0,0,.49,1.32l2,.67c.55.18.45,1.14.45,1.14-.11.49-.27,1.92-.37,3s-.82,1.08-.91,1.08h0l-1.74.14a1,1,0,0,0-.95,1.18s.12,1.53.21,2.73c.08.93.65,1,.92,1l.14,0,1.72-.13h.13a1,1,0,0,1,1,.85c.12.71.71,2.34.88,3.21s-.3,1-.3,1l-1.75.89a1,1,0,0,0-.45,1.45l1.36,2.65a.79.79,0,0,0,.73.49,1.5,1.5,0,0,0,.71-.22l1.64-.84a.58.58,0,0,1,.29-.08,1.27,1.27,0,0,1,.95.7c.25.43,1.36,1.77,1.92,2.46s.05,1.13.05,1.13l-1.21,1.43a1,1,0,0,0,0,1.37s1.5,1.37,2.34,2a1.08,1.08,0,0,0,.64.25,1,1,0,0,0,.77-.39l1.31-1.54a.66.66,0,0,1,.49-.18,1.31,1.31,0,0,1,.71.23c.42.28,1.82,1.06,2.72,1.51s.63,1.13.63,1.13l-.53,1.64c-.39,1.22.48,1.43.48,1.43l2.81.91a1.54,1.54,0,0,0,.47.08.9.9,0,0,0,.87-.65s.43-1.33.64-2c.11-.35.47-.45.83-.45a3.92,3.92,0,0,1,.74.09c.38.07,1.5.2,2.64.29s1,.91,1,.91.08,1,.16,1.91c.05.75.79.82,1.06.82h.1l2.74-.21c1.21-.09,1-1.11,1-1.11s-.08-1.09-.15-1.85.78-1,1.08-1,1.51-.39,2.71-.78a2.1,2.1,0,0,1,.58-.1.76.76,0,0,1,.8.55l.88,1.72a.77.77,0,0,0,.73.43,1.54,1.54,0,0,0,.45-.07l2.81-1.44a.92.92,0,0,0,.32-1.36l-.83-1.63c-.26-.51.1-1,.59-1.34s1.77-1.37,2.5-1.94h0a1,1,0,0,1,.59-.25h0l.21,0a.58.58,0,0,1,.27.21l1.4,1.2a1.12,1.12,0,0,0,.72.3h0a1,1,0,0,0,.73-.36h0l2-2.34a.88.88,0,0,0,.25-.58,1.05,1.05,0,0,0-.42-.75l-1.55-1.32a.56.56,0,0,1-.2-.45,1.77,1.77,0,0,1,.27-.8c.23-.32,1.13-2,1.64-2.88h0v0a.79.79,0,0,1,.68-.48h0a.8.8,0,0,1,.46.17l1.6.52h0a1.32,1.32,0,0,0,.42.07h0a.91.91,0,0,0,.86-.74s.59-1.82.91-2.8a1.35,1.35,0,0,0,.06-.38.93.93,0,0,0-.69-.85l-1.81-.59a.9.9,0,0,1-.58-.91,1.59,1.59,0,0,1,0-.3c.12-.57.27-2.41.4-3.3h0V145h0v0h0v0h0a.82.82,0,0,1,.49-.52h0l.06,0h.26s.73-.07,1.82-.14a.86.86,0,0,0,.87-.94A.89.89,0,0,0,285.8,143Zm-29.51,14h-.08a13,13,0,0,1,.08-26.1h.09a13,13,0,0,1-.08,26.1Z"/><path class="cls-2" d="M174.9,39.11l-3.14.61a19.69,19.69,0,0,0-2.83-3.34l1.28-3a.59.59,0,0,0,0-.85l-2.61-2.11a.63.63,0,0,0-.86.14l-3.15,2.23a19.89,19.89,0,0,0-3.75-1.28l-.65-3a.6.6,0,0,0-.52-.68l-3.36-.22a.62.62,0,0,0-.61.6l-1,2.85a20,20,0,0,0-3.71.67v0l-2.86-2.73a.62.62,0,0,0-.82-.27l-2.9,1.7a.61.61,0,0,0-.15.85l.84,3.26a20,20,0,0,0-3.39,3L137,36.29a.6.6,0,0,0-.84.13l-1.83,2.82a.62.62,0,0,0,.23.83l2.51,2.86a19.77,19.77,0,0,0-1,3.2l-3.66.83a.61.61,0,0,0-.67.55l-.16,3.35a.62.62,0,0,0,.61.61l3.4,1.14a20.38,20.38,0,0,0,.67,3.64l-2.56,2.65a.61.61,0,0,0-.27.81l1.69,2.91a.62.62,0,0,0,.85.17l3-.77a20.09,20.09,0,0,0,3.46,3.9L141,68.07a.63.63,0,0,0-.1.85l2.27,2.48a.61.61,0,0,0,.86,0l3.54-1.76a.69.69,0,0,0,.22-.43,19.75,19.75,0,0,0,2.41.79l0,.23L151.43,74a.62.62,0,0,0,.58.63l3.35-.11a.61.61,0,0,0,.56-.66l.8-3.23a19.4,19.4,0,0,0,3.88-.66v0l2.84,2.75a.62.62,0,0,0,.81.29l2.91-1.68a.62.62,0,0,0,.17-.84l-.84-3.32a18.91,18.91,0,0,0,2.88-2.38l3.31,1.55a.61.61,0,0,0,.85,0l2.21-2.54a.62.62,0,0,0-.12-.85l-2.16-3.3-.33-.15a19.76,19.76,0,0,0,1.31-3.5l.2,0,3.79-1.16a.6.6,0,0,0,.63-.58L179,50.94a.62.62,0,0,0-.65-.56l-3.24-.85a20.19,20.19,0,0,0-.69-4.08l2.51-2.33a.6.6,0,0,0,.31-.79l-1.52-3A.6.6,0,0,0,174.9,39.11Zm-13.36,9.3-.09.21-.71.67a5.91,5.91,0,0,1,.2,1.17l.91.23.19.16,0,1-.18.16-1.07.32h-.06a5.06,5.06,0,0,1-.38,1l.1,0,.62.94,0,.24-.62.72h-.25l-.94-.44a5.34,5.34,0,0,1-.81.67l.22.95,0,.24-.82.47L157.6,57l-.81-.78h0a5.39,5.39,0,0,1-1.09.18l-.22.92-.16.19-1,0-.16-.18-.35-1.07,0-.07a5.41,5.41,0,0,1-.69-.22l-.07.12-1,.5h-.24l-.65-.7,0-.25.38-.61a5.42,5.42,0,0,1-1-1.1l-.86.22-.24,0-.47-.82.07-.23.72-.76a6,6,0,0,1-.18-1l-1-.33-.17-.17,0-1,.19-.15,1-.24a7.85,7.85,0,0,1,.31-.9l-.71-.82-.07-.23.52-.8.24,0,1,.31a6.12,6.12,0,0,1,1-.84l-.24-.92,0-.25.81-.48.24.07.81.78h0a6.25,6.25,0,0,1,1.05-.18l.3-.81.16-.17,1,.06.15.19.18.85a5.3,5.3,0,0,1,1.07.37l.9-.64.23,0,.75.6,0,.24-.37.87a5.42,5.42,0,0,1,.8,1l.89-.18.23.06Z"/><path class="cls-2" d="M243.95,291.45l-2.36.45a15.7,15.7,0,0,0-2.14-2.52l1-2.28a.46.46,0,0,0,0-.65l-2-1.59a.48.48,0,0,0-.65.11l-2.37,1.69a14.19,14.19,0,0,0-2.82-1l-.49-2.27a.46.46,0,0,0-.39-.51l-2.53-.16a.47.47,0,0,0-.46.45l-.76,2.15a14.82,14.82,0,0,0-2.79.5v0L223,283.77a.45.45,0,0,0-.62-.2l-2.18,1.28a.46.46,0,0,0-.12.64l.64,2.46a15.6,15.6,0,0,0-2.56,2.23l-2.75-.84a.44.44,0,0,0-.63.09l-1.38,2.13a.47.47,0,0,0,.17.62l1.89,2.16a15,15,0,0,0-.79,2.41l-2.75.63a.46.46,0,0,0-.51.41l-.12,2.53a.45.45,0,0,0,.46.45l2.56.86a14.65,14.65,0,0,0,.51,2.75l-1.93,2a.46.46,0,0,0-.21.61l1.27,2.19a.46.46,0,0,0,.64.13l2.28-.58a15,15,0,0,0,2.6,2.93l-1,1.62a.47.47,0,0,0-.07.65l1.71,1.87a.46.46,0,0,0,.65,0l2.67-1.33a.55.55,0,0,0,.16-.32,16.72,16.72,0,0,0,1.82.6l0,.18.91,2.84a.47.47,0,0,0,.44.48l2.53-.09a.46.46,0,0,0,.42-.5l.6-2.44a15,15,0,0,0,2.92-.5v0l2.14,2.08a.46.46,0,0,0,.61.21l2.19-1.27a.46.46,0,0,0,.13-.64l-.63-2.49a15.07,15.07,0,0,0,2.17-1.79l2.49,1.17a.46.46,0,0,0,.65,0l1.66-1.91a.46.46,0,0,0-.08-.64l-1.63-2.49-.25-.12a15.24,15.24,0,0,0,1-2.63l.15,0,2.85-.87a.46.46,0,0,0,.48-.44l-.05-2.53a.46.46,0,0,0-.49-.42l-2.44-.64a15.24,15.24,0,0,0-.53-3.08l1.89-1.74a.46.46,0,0,0,.23-.6l-1.14-2.26A.46.46,0,0,0,243.95,291.45Zm-10.07,7-.07.17-.53.5a4.73,4.73,0,0,1,.14.88l.69.18.14.12,0,.72-.14.13-.8.24h0a4.14,4.14,0,0,1-.28.75l.07,0,.47.71,0,.18-.46.54h-.19l-.71-.33a4.72,4.72,0,0,1-.61.52l.17.7,0,.18-.62.36-.17-.06-.62-.59h0a4.46,4.46,0,0,1-.83.14l-.16.69-.11.15-.73,0-.12-.13-.26-.8,0-.05-.52-.17,0,.09-.76.37h-.18l-.49-.53,0-.18.29-.46a4.23,4.23,0,0,1-.74-.84l-.65.16-.18,0-.36-.62.05-.17.55-.56a3.56,3.56,0,0,1-.14-.79l-.73-.23-.13-.13,0-.72.14-.12.78-.18a6,6,0,0,1,.22-.68l-.53-.62-.06-.17.39-.61.19,0,.78.24a4.34,4.34,0,0,1,.73-.63l-.18-.7,0-.19.61-.35.18,0,.6.58h0a3.64,3.64,0,0,1,.79-.14l.22-.62.13-.13.72,0,.11.15.14.64a4,4,0,0,1,.8.28l.67-.48.18,0,.56.45v.19l-.28.65a3.83,3.83,0,0,1,.61.71l.67-.13.17,0Z"/><path class="cls-2" d="M89.35,284.89l-2.36.46a15.31,15.31,0,0,0-2.14-2.52l1-2.29a.46.46,0,0,0,0-.64l-2-1.59a.47.47,0,0,0-.65.11L80.8,280.1a15,15,0,0,0-2.83-1l-.49-2.27a.45.45,0,0,0-.39-.51l-2.54-.17a.47.47,0,0,0-.46.46l-.76,2.14a15.1,15.1,0,0,0-2.79.51v0l-2.16-2.06a.46.46,0,0,0-.62-.21l-2.18,1.29a.47.47,0,0,0-.12.64l.64,2.46a15.52,15.52,0,0,0-2.56,2.23l-2.75-.85a.46.46,0,0,0-.64.09L58.77,285a.47.47,0,0,0,.17.62l1.89,2.16a14.82,14.82,0,0,0-.79,2.41l-2.75.63a.45.45,0,0,0-.5.41l-.13,2.52a.46.46,0,0,0,.46.46l2.56.86a14.12,14.12,0,0,0,.51,2.74l-1.93,2a.46.46,0,0,0-.2.61l1.27,2.19a.45.45,0,0,0,.64.13l2.28-.57a14.94,14.94,0,0,0,2.6,2.92l-1,1.63a.46.46,0,0,0-.07.64l1.71,1.88a.46.46,0,0,0,.65,0l2.67-1.33a.55.55,0,0,0,.16-.32,16.1,16.1,0,0,0,1.82.6l0,.18.91,2.84a.47.47,0,0,0,.44.48l2.53-.09a.46.46,0,0,0,.42-.5l.6-2.43a15,15,0,0,0,2.92-.5v0l2.14,2.08a.45.45,0,0,0,.61.21l2.19-1.26a.47.47,0,0,0,.14-.64L83,306a15.22,15.22,0,0,0,2.17-1.79l2.49,1.17a.46.46,0,0,0,.64,0L90,303.5a.48.48,0,0,0-.08-.65l-1.63-2.49-.25-.11a14.83,14.83,0,0,0,1-2.63l.15,0,2.85-.87a.46.46,0,0,0,.48-.43l0-2.53a.47.47,0,0,0-.49-.43l-2.44-.64a15.18,15.18,0,0,0-.52-3.08l1.89-1.75a.46.46,0,0,0,.24-.6L90,285.06A.46.46,0,0,0,89.35,284.89Zm-10.07,7-.07.16-.54.5a4.63,4.63,0,0,1,.15.87l.69.18.14.12,0,.72-.14.13-.8.25,0,0a4,4,0,0,1-.28.75l.07,0,.47.71,0,.18-.46.54H78.3l-.71-.34a4.71,4.71,0,0,1-.61.52l.17.7,0,.19-.62.35-.17-.06-.62-.59h0a3.89,3.89,0,0,1-.82.15l-.17.69-.11.15-.72,0-.13-.13-.26-.81v-.05l-.52-.17,0,.09-.75.37H72l-.49-.53,0-.18.29-.47a4.14,4.14,0,0,1-.74-.84l-.65.17-.18,0-.36-.61.05-.17.55-.57a4,4,0,0,1-.14-.78l-.73-.24-.13-.13,0-.72.14-.12.78-.17a4.91,4.91,0,0,1,.22-.69l-.53-.61-.06-.17.39-.6.19,0,.78.24a4.07,4.07,0,0,1,.72-.63l-.18-.7,0-.18.61-.35.18.05.61.58h0a3.67,3.67,0,0,1,.79-.13l.23-.62.12-.13.72,0,.11.15.14.65a3.77,3.77,0,0,1,.8.28l.67-.48.18,0,.57.46V290l-.28.65a4.26,4.26,0,0,1,.61.72l.67-.13.17,0Z"/><path class="cls-3" d="M229.46,106.76l-5.6-1.26a35.46,35.46,0,0,0-2.25-7.56l4.32-4.07a1.07,1.07,0,0,0,.55-1.43l-2.78-5.36a1.11,1.11,0,0,0-1.5-.38l-6.79,1.39a37,37,0,0,0-5.25-4.83l1.11-5.41a1.08,1.08,0,0,0-.37-1.49l-5.36-2.79a1.11,1.11,0,0,0-1.44.55l-3.73,4a34.88,34.88,0,0,0-6.57-1.59v-.06l-2.72-6.56a1.1,1.1,0,0,0-1.16-1l-6,.7a1.1,1.1,0,0,0-.87,1.27l-1,6a36.34,36.34,0,0,0-7.73,2.4l-5.2-4.48a1.08,1.08,0,0,0-1.48-.41l-5,3.32a1.11,1.11,0,0,0-.23,1.52l2.06,6.54a36.13,36.13,0,0,0-4,4.49l-6.62-1.25a1.1,1.1,0,0,0-1.5.4l-2.69,5.39a1.09,1.09,0,0,0,.58,1.45l4.74,4.34a35.72,35.72,0,0,0-1.52,6.48l-6.12,2.51a1.08,1.08,0,0,0-1,1.14l.67,6a1.1,1.1,0,0,0,1.27.88l5.53.93a35.66,35.66,0,0,0,2.89,8.89l-3.76,2.59a1.11,1.11,0,0,0-.78,1.33L154,137a1.11,1.11,0,0,0,1.43.61l7.1-.35a1.18,1.18,0,0,0,.67-.54,34.37,34.37,0,0,0,3.39,3.06l-.23.37-.73,7.06a1.1,1.1,0,0,0,.51,1.46l5.61,2.23a1.07,1.07,0,0,0,1.38-.69l3.66-4.74a35.5,35.5,0,0,0,6.84,1.7v.05l2.67,6.59a1.08,1.08,0,0,0,1.14,1l6-.65a1.11,1.11,0,0,0,.89-1.26l1-6.05a36.6,36.6,0,0,0,6.45-1.84l4.31,4.93a1.09,1.09,0,0,0,1.41.61L213,148a1.1,1.1,0,0,0,.43-1.48l-1.16-7-.44-.5a34.25,34.25,0,0,0,4.67-4.81l.32.21,7.06.84a1.08,1.08,0,0,0,1.46-.49l2.31-5.58a1.09,1.09,0,0,0-.65-1.39l-4.7-3.74a36.15,36.15,0,0,0,1.8-7.22l5.81-2a1.09,1.09,0,0,0,1.09-1.08l-.33-6A1.09,1.09,0,0,0,229.46,106.76Zm-28.7,5.63-.3.3-1.65.57a10.48,10.48,0,0,1-.51,2.05l1.33,1.06.19.4-.66,1.58-.42.15-2-.24-.09-.07a10.32,10.32,0,0,1-1.34,1.36l.13.14.32,2-.12.42-1.54.74-.4-.17-1.22-1.41a10.52,10.52,0,0,1-1.83.52l-.3,1.72-.25.36-1.71.19-.32-.3-.76-1.86v0a9.6,9.6,0,0,1-1.94-.48l-1,1.35-.4.2-1.59-.65-.15-.41.21-2,.06-.1a9.48,9.48,0,0,1-1-.87l-.19.15-2,.09-.4-.16-.55-1.63.22-.38,1.07-.73a10.64,10.64,0,0,1-.82-2.54l-1.57-.26-.36-.25-.19-1.7.29-.33,1.73-.71a10.75,10.75,0,0,1,.44-1.84l-1.36-1.23-.15-.42.76-1.53.42-.11,1.88.35a10.24,10.24,0,0,1,1.15-1.28l-.57-1.85.05-.43,1.43-.95.43.11,1.47,1.28a10,10,0,0,1,2.2-.69l.27-1.7.25-.36,1.7-.2.33.3.77,1.86v0a9.89,9.89,0,0,1,1.86.44l1.07-1.12.4-.15,1.53.79.1.43-.31,1.53a10.61,10.61,0,0,1,1.49,1.37l1.93-.39.43.1.79,1.53-.16.41-1.22,1.15a10.05,10.05,0,0,1,.64,2.14l1.6.36.34.27Z"/><path class="cls-1" d="M296.51,112l-1.46-.34a9.52,9.52,0,0,0-.59-2l1.13-1.07a.29.29,0,0,0,.15-.38l-.73-1.4a.3.3,0,0,0-.39-.1l-1.78.37a9.45,9.45,0,0,0-1.37-1.27l.29-1.42a.28.28,0,0,0-.1-.39l-1.4-.73a.29.29,0,0,0-.38.14l-1,1a8.55,8.55,0,0,0-1.72-.41v0l-.71-1.72a.29.29,0,0,0-.3-.27l-1.57.18a.28.28,0,0,0-.23.33l-.25,1.57a9.73,9.73,0,0,0-2,.63l-1.36-1.18a.28.28,0,0,0-.39-.1l-1.32.87a.29.29,0,0,0-.06.4l.54,1.71a10.24,10.24,0,0,0-1.06,1.17l-1.73-.33a.28.28,0,0,0-.39.1l-.71,1.41a.3.3,0,0,0,.15.39l1.24,1.13a9.76,9.76,0,0,0-.4,1.7l-1.6.66a.28.28,0,0,0-.27.29l.17,1.57a.29.29,0,0,0,.33.24l1.44.24a9.62,9.62,0,0,0,.76,2.33l-1,.68a.29.29,0,0,0-.21.35l.51,1.5a.29.29,0,0,0,.37.16L279,120a.29.29,0,0,0,.18-.14,10.63,10.63,0,0,0,.89.8l-.06.09-.19,1.85a.28.28,0,0,0,.13.38l1.47.59a.28.28,0,0,0,.36-.18l1-1.24a9.34,9.34,0,0,0,1.79.45h0l.7,1.73a.29.29,0,0,0,.3.28l1.57-.17a.29.29,0,0,0,.23-.33l.27-1.59a9.13,9.13,0,0,0,1.69-.48l1.13,1.29a.29.29,0,0,0,.37.16l1.43-.68a.29.29,0,0,0,.11-.39l-.31-1.83-.11-.13a9,9,0,0,0,1.23-1.26l.08.06,1.85.22a.29.29,0,0,0,.38-.13l.6-1.46a.28.28,0,0,0-.17-.36l-1.23-1a9.06,9.06,0,0,0,.47-1.89l1.52-.53a.29.29,0,0,0,.29-.28l-.09-1.58A.28.28,0,0,0,296.51,112ZM289,113.45l-.07.08-.44.15a2.53,2.53,0,0,1-.13.54l.35.28.05.1-.17.42-.11,0-.52-.06,0,0a2.61,2.61,0,0,1-.35.35l0,0,.09.52,0,.11-.4.2-.1,0-.32-.37a2.34,2.34,0,0,1-.48.14l-.08.45-.07.09-.44,0-.09-.07-.2-.49h0a2.25,2.25,0,0,1-.51-.13l-.27.35-.11.05-.41-.17,0-.11.05-.53,0,0a2.38,2.38,0,0,1-.25-.23l0,0-.53,0-.11,0-.14-.43.06-.1.28-.19a2.83,2.83,0,0,1-.21-.66l-.41-.07-.09-.07,0-.44.07-.08.45-.19a2.56,2.56,0,0,1,.11-.48l-.35-.32,0-.11.2-.4.11,0,.49.1a3.57,3.57,0,0,1,.3-.34l-.15-.48v-.11l.38-.25.11,0,.38.33a2.53,2.53,0,0,1,.57-.18l.07-.45.07-.1.45-.05.08.08.2.49h0a2.63,2.63,0,0,1,.49.11l.28-.29.1,0,.4.21,0,.12-.08.39a2.79,2.79,0,0,1,.39.36l.5-.11.11,0,.21.4,0,.11-.32.3a2.75,2.75,0,0,1,.17.56l.42.1.09.07Z"/><path class="cls-1" d="M161.65,307.64l-4.44-1a28.36,28.36,0,0,0-1.78-6l3.42-3.23a.86.86,0,0,0,.44-1.14L157.08,292a.87.87,0,0,0-1.19-.3l-5.39,1.11a29.79,29.79,0,0,0-4.17-3.83l.88-4.3a.85.85,0,0,0-.29-1.18l-4.25-2.22a.88.88,0,0,0-1.15.44l-3,3.15a27.8,27.8,0,0,0-5.22-1.27v0l-2.15-5.21a.88.88,0,0,0-.91-.82l-4.77.55a.88.88,0,0,0-.69,1l-.76,4.75a29,29,0,0,0-6.13,1.91l-4.13-3.56a.86.86,0,0,0-1.18-.33l-4,2.64a.88.88,0,0,0-.18,1.21l1.63,5.19a29,29,0,0,0-3.21,3.56l-5.25-1a.88.88,0,0,0-1.19.31l-2.13,4.28a.88.88,0,0,0,.46,1.15l3.77,3.44a28.3,28.3,0,0,0-1.21,5.15l-4.85,2a.86.86,0,0,0-.82.9l.53,4.76a.87.87,0,0,0,1,.71l4.39.73a28.61,28.61,0,0,0,2.29,7.06l-3,2.05a.88.88,0,0,0-.62,1.05l1.53,4.54a.88.88,0,0,0,1.13.49l5.64-.28a1,1,0,0,0,.53-.43,27.55,27.55,0,0,0,2.69,2.43l-.18.29-.58,5.62a.86.86,0,0,0,.4,1.15l4.45,1.78a.85.85,0,0,0,1.09-.55l2.91-3.76a28.15,28.15,0,0,0,5.43,1.35v0l2.12,5.23a.86.86,0,0,0,.9.82l4.77-.51a.89.89,0,0,0,.71-1l.81-4.81A28.32,28.32,0,0,0,139.7,338l3.43,3.92a.86.86,0,0,0,1.12.48l4.35-2a.87.87,0,0,0,.34-1.17l-.92-5.56-.35-.39a27.61,27.61,0,0,0,3.71-3.81l.25.16,5.61.67a.86.86,0,0,0,1.16-.39l1.84-4.42a.87.87,0,0,0-.52-1.1l-3.74-3a28.61,28.61,0,0,0,1.43-5.74L162,314a.86.86,0,0,0,.86-.86l-.27-4.79A.86.86,0,0,0,161.65,307.64Zm-22.79,4.47-.24.24-1.31.46a8.13,8.13,0,0,1-.41,1.63l1.06.84.15.32-.52,1.25-.33.12-1.59-.19-.07,0a8,8,0,0,1-1.06,1.08l.1.11.26,1.58-.1.34-1.22.59-.31-.14-1-1.12a8.67,8.67,0,0,1-1.46.41l-.24,1.37-.2.29-1.36.14-.25-.24-.6-1.48v0a8.22,8.22,0,0,1-1.54-.38l-.82,1.07-.32.16-1.26-.52-.11-.32.16-1.6.05-.08a8,8,0,0,1-.77-.69l-.15.12-1.6.07-.32-.13-.43-1.29.17-.3.85-.58a8.21,8.21,0,0,1-.65-2l-1.24-.2-.29-.2-.15-1.35.23-.26,1.38-.57a8.49,8.49,0,0,1,.35-1.46l-1.08-1-.12-.33.6-1.22.34-.09,1.49.29a8,8,0,0,1,.92-1l-.45-1.47,0-.34,1.14-.75.34.1,1.17,1a8,8,0,0,1,1.75-.55l.21-1.35.2-.29,1.35-.15.26.23.61,1.48h0a7.77,7.77,0,0,1,1.48.36l.85-.89.31-.12,1.22.63.08.34-.25,1.22a8.8,8.8,0,0,1,1.18,1.09l1.53-.31.34.08.62,1.21-.12.33-1,.91a8.21,8.21,0,0,1,.5,1.7l1.27.28.27.22Z"/><path class="cls-1" d="M148.1,219.59l-5.71-1.28a35.7,35.7,0,0,0-2.3-7.72l4.41-4.15a1.1,1.1,0,0,0,.56-1.47l-2.84-5.47a1.12,1.12,0,0,0-1.53-.39l-6.94,1.43a36.91,36.91,0,0,0-5.35-4.93l1.13-5.53a1.11,1.11,0,0,0-.38-1.52l-5.47-2.85a1.12,1.12,0,0,0-1.47.56l-3.81,4a36.35,36.35,0,0,0-6.71-1.62v-.06l-2.78-6.7a1.12,1.12,0,0,0-1.18-1l-6.12.71a1.13,1.13,0,0,0-.9,1.3l-1,6.11a37.07,37.07,0,0,0-7.89,2.45l-5.3-4.57a1.1,1.1,0,0,0-1.51-.43l-5.16,3.39a1.14,1.14,0,0,0-.23,1.56l2.1,6.67a37.08,37.08,0,0,0-4.13,4.58l-6.76-1.27a1.11,1.11,0,0,0-1.52.4l-2.75,5.51a1.13,1.13,0,0,0,.59,1.48L72,213.21a36,36,0,0,0-1.55,6.62l-6.24,2.56a1.1,1.1,0,0,0-1.06,1.15l.69,6.13a1.12,1.12,0,0,0,1.29.91l5.64.94a37.14,37.14,0,0,0,2.94,9.08l-3.83,2.64a1.12,1.12,0,0,0-.79,1.36l2,5.84a1.13,1.13,0,0,0,1.45.62l7.25-.36a1.23,1.23,0,0,0,.68-.55,35.94,35.94,0,0,0,3.47,3.12l-.24.38-.74,7.21a1.13,1.13,0,0,0,.52,1.49l5.72,2.28a1.11,1.11,0,0,0,1.41-.71l3.74-4.83a36.35,36.35,0,0,0,7,1.73v.06L104,267.6a1.11,1.11,0,0,0,1.15,1.06l6.13-.66a1.13,1.13,0,0,0,.91-1.28l1-6.18a36.76,36.76,0,0,0,6.58-1.87l4.41,5a1.11,1.11,0,0,0,1.44.62l5.59-2.63a1.13,1.13,0,0,0,.44-1.51L130.56,253l-.45-.51a35.45,35.45,0,0,0,4.78-4.9l.32.21,7.2.86a1.11,1.11,0,0,0,1.49-.5l2.36-5.69a1.12,1.12,0,0,0-.67-1.42l-4.81-3.81a37.15,37.15,0,0,0,1.84-7.38l5.93-2a1.11,1.11,0,0,0,1.11-1.11l-.33-6.15A1.12,1.12,0,0,0,148.1,219.59Zm-29.3,5.75-.31.31-1.68.59a11,11,0,0,1-.52,2.09l1.36,1.09.19.4-.67,1.61-.43.14-2-.24-.09-.07a10,10,0,0,1-1.36,1.39l.13.15.34,2-.12.43L112,236l-.4-.18-1.25-1.44a10.85,10.85,0,0,1-1.87.54l-.31,1.75-.25.36-1.74.19-.34-.31-.77-1.9v0a9.39,9.39,0,0,1-2-.49L102,235.91l-.4.21-1.63-.66-.15-.41.21-2.05.07-.12a9.89,9.89,0,0,1-1-.88l-.19.16-2.05.1-.41-.17-.56-1.66.22-.39,1.09-.75a10.78,10.78,0,0,1-.83-2.59l-1.6-.26-.36-.27-.2-1.73.3-.33,1.77-.73a11.35,11.35,0,0,1,.45-1.88l-1.38-1.25-.17-.42.78-1.57.44-.11,1.92.37a10.4,10.4,0,0,1,1.17-1.31l-.59-1.9.06-.44,1.46-1,.43.12,1.51,1.3a10.07,10.07,0,0,1,2.24-.7l.27-1.73.25-.37,1.74-.2.34.3.79,1.9h0a10.31,10.31,0,0,1,1.9.46l1.09-1.14.4-.16,1.56.81.11.43-.33,1.57a10.88,10.88,0,0,1,1.52,1.4l2-.41.44.11.8,1.57-.16.42-1.25,1.18a10.13,10.13,0,0,1,.66,2.19l1.63.36.34.27Z"/><path class="cls-3" d="M205.15,267.6a.7.7,0,0,0-.87-.44l-3.64-.12a21.74,21.74,0,0,0-2.29-4.38l2.21-3a.68.68,0,0,0,.18-.95l-2.36-3a.71.71,0,0,0-1-.06l-4.07,1.68a23.09,23.09,0,0,0-3.84-2.36l.07-3.46a.68.68,0,0,0-.41-.87l-3.67-1.08a.71.71,0,0,0-.84.51L182.78,253a24.41,24.41,0,0,0-4.28-.2v0L176,249a.69.69,0,0,0-.84-.5l-3.65,1.15a.67.67,0,0,0-.39.88l.1,3.81a22.73,22.73,0,0,0-4.53,2.4L163,254.6a.7.7,0,0,0-1-.09l-2.75,2.65a.68.68,0,0,0,0,1l2.06,3.78a22.67,22.67,0,0,0-2,3.24l-4.26,0a.7.7,0,0,0-.88.42l-1.05,3.64a.69.69,0,0,0,.53.82l3.47,2.1a22.86,22.86,0,0,0-.18,4.17l-3.51,2.27a.68.68,0,0,0-.52.82L154,283a.71.71,0,0,0,.9.4l3.56-.09a21.76,21.76,0,0,0,2.84,5.13l-2,2a.68.68,0,0,0-.33.91l1.88,3.29a.69.69,0,0,0,1,.2l4.38-1.05a.72.72,0,0,0,.35-.41,23.76,23.76,0,0,0,2.47,1.48l-.1.25.38,4.43a.68.68,0,0,0,.49.83l3.76.72a.7.7,0,0,0,.78-.59l1.73-3.35a22.14,22.14,0,0,0,4.46.23v0l2.44,3.73a.69.69,0,0,0,.83.51l3.67-1.12a.69.69,0,0,0,.41-.88l-.07-3.85a23.3,23.3,0,0,0,3.81-1.89l3.26,2.52a.69.69,0,0,0,.95.21l3.1-2.24a.68.68,0,0,0,.1-1l-1.55-4.18-.33-.25a22.44,22.44,0,0,0,2.35-3.52l.21.09,4.49-.32a.7.7,0,0,0,.85-.49l.79-3.7a.69.69,0,0,0-.57-.78l-3.37-1.74a22.07,22.07,0,0,0,.27-4.66l3.38-1.92a.68.68,0,0,0,.55-.8Zm-13.87,6.14-1.53.87a10,10,0,0,1-.12,2.1l1.51.78.27.36-.37,1.68-.38.22-2,.15-.1,0a9.66,9.66,0,0,1-1.06,1.59l.15.12.7,1.89-.05.43-1.4,1-.43-.09L185,283.64a10.16,10.16,0,0,1-1.72.85l0,1.74-.18.4-1.66.5-.39-.23-1.1-1.68v0a7.13,7.13,0,0,1-2-.11l-.78,1.51-.34.27-1.7-.33-.22-.38-.17-2,.05-.12a9.06,9.06,0,0,1-1.12-.67l-.16.2-2,.47-.43-.09-.85-1.49.15-.41.92-.93a10.16,10.16,0,0,1-1.28-2.33l-1.6.05-.4-.18-.51-1.63.23-.37,1.59-1a10.22,10.22,0,0,1,.1-1.89l-1.58-.94-.23-.37.47-1.65.4-.19h1.93a10.67,10.67,0,0,1,.89-1.47l-.92-1.71V267l1.23-1.19.44,0,1.71,1a9.89,9.89,0,0,1,2-1.09l-.05-1.71.18-.4,1.65-.52.47.21,1.2,1.66v0a16.71,16.71,0,0,1,1.84.1l.79-1.29.35-.23,1.65.49.18.4,0,1.56a9.86,9.86,0,0,1,1.73,1.06l1.84-.75.44,0,1.07,1.34-.08.44-1,1.36a9.52,9.52,0,0,1,1,2l1.65,0,.38.2.42,1.66Z"/><path class="cls-1" d="M153.71,141.8a.5.5,0,0,0-.66-.25l-2.6.22a15.73,15.73,0,0,0-2-2.93l1.32-2.34a.49.49,0,0,0,0-.69l-1.93-1.92a.5.5,0,0,0-.69,0l-2.77,1.53a16.35,16.35,0,0,0-2.93-1.37l-.24-2.47a.48.48,0,0,0-.36-.59l-2.7-.48a.5.5,0,0,0-.55.44l-1.09,2.2a17.38,17.38,0,0,0-3.07.21v0l-2.05-2.45a.5.5,0,0,0-.64-.29l-2.5,1.11a.49.49,0,0,0-.22.66l.38,2.7a17.13,17.13,0,0,0-3,2.07L122.57,136a.5.5,0,0,0-.7,0l-1.74,2.12a.48.48,0,0,0,.1.68l1.77,2.52a16.62,16.62,0,0,0-1.16,2.48l-3,.37a.49.49,0,0,0-.59.36l-.45,2.68a.5.5,0,0,0,.45.54l2.65,1.21a15.85,15.85,0,0,0,.2,3l-2.32,1.9a.49.49,0,0,0-.3.63l1.09,2.49a.5.5,0,0,0,.67.21l2.53-.36a16.17,16.17,0,0,0,2.44,3.43l-1.29,1.61a.49.49,0,0,0-.15.68l1.61,2.2a.5.5,0,0,0,.69.07l3-1.11a.51.51,0,0,0,.22-.32,16.2,16.2,0,0,0,1.88.85l-.06.19.63,3.13a.49.49,0,0,0,.41.56l2.73.2a.51.51,0,0,0,.51-.49l1-2.52a16.61,16.61,0,0,0,3.2-.2v0l2,2.46a.48.48,0,0,0,.63.3l2.53-1.09a.49.49,0,0,0,.21-.66l-.36-2.74a16.62,16.62,0,0,0,2.56-1.66l2.53,1.54a.5.5,0,0,0,.69.07l2-1.85a.49.49,0,0,0,0-.7L150,157.94l-.26-.16a15.45,15.45,0,0,0,1.39-2.69l.16,0,3.18-.59a.5.5,0,0,0,.57-.42l.26-2.71a.5.5,0,0,0-.47-.51l-2.55-1a15.33,15.33,0,0,0-.19-3.34l2.26-1.65a.49.49,0,0,0,.33-.61Zm-9.39,5.5-1,.76a7.05,7.05,0,0,1,.09,1.51l1.14.44.22.23-.12,1.22-.26.19-1.43.27-.07,0a7.71,7.71,0,0,1-.63,1.21l.12.07.65,1.28v.32l-.91.83-.31,0-1.14-.7a7.53,7.53,0,0,1-1.15.75l.16,1.24-.1.3-1.14.49-.29-.13-.93-1.11v0a4.91,4.91,0,0,1-1.43.09l-.43,1.14-.21.22-1.24-.1-.18-.25-.28-1.41,0-.08a8.46,8.46,0,0,1-.85-.39l-.1.14-1.37.5-.32,0-.72-1,.07-.31.57-.73a7.56,7.56,0,0,1-1.1-1.55l-1.14.16-.31-.09-.49-1.13.13-.28,1-.86a6.2,6.2,0,0,1-.09-1.35l-1.2-.55-.2-.25.2-1.21.27-.16,1.37-.16a7.81,7.81,0,0,1,.52-1.12l-.79-1.15-.05-.3.79-1H130l1.3.55a7.18,7.18,0,0,1,1.36-.93l-.17-1.22.09-.3,1.14-.51.34.11,1,1.09h0a11.08,11.08,0,0,1,1.32-.07l.46-1,.23-.19,1.21.21.16.27.1,1.12a6.81,6.81,0,0,1,1.33.62l1.25-.69.32,0,.87.87,0,.32-.6,1.05a7.37,7.37,0,0,1,.9,1.33l1.18-.1.29.11.43,1.15Z"/><path class="cls-1" d="M224.18,44.64a.5.5,0,0,0-.65-.25l-2.6.22a15.43,15.43,0,0,0-2-2.94l1.32-2.33a.49.49,0,0,0,0-.7l-1.92-1.92a.5.5,0,0,0-.69,0l-2.78,1.52A16.41,16.41,0,0,0,212,36.92l-.24-2.48a.49.49,0,0,0-.36-.59l-2.7-.47a.51.51,0,0,0-.56.44L207,36a17.09,17.09,0,0,0-3.07.2v0l-2.05-2.45a.5.5,0,0,0-.64-.29l-2.5,1.11a.49.49,0,0,0-.22.66l.38,2.7a16.66,16.66,0,0,0-3,2.07L193,38.81a.48.48,0,0,0-.69,0l-1.75,2.11a.48.48,0,0,0,.1.68l1.77,2.52a16.28,16.28,0,0,0-1.16,2.48l-3,.36a.49.49,0,0,0-.59.37L187.22,50a.5.5,0,0,0,.44.54l2.65,1.21a16.36,16.36,0,0,0,.2,3l-2.31,1.91a.48.48,0,0,0-.3.63L189,59.8a.5.5,0,0,0,.67.21l2.53-.36a16,16,0,0,0,2.44,3.44l-1.28,1.61a.49.49,0,0,0-.16.68l1.6,2.19a.5.5,0,0,0,.7.07l3-1.12a.51.51,0,0,0,.21-.32,16.38,16.38,0,0,0,1.88.86l0,.18.62,3.13a.49.49,0,0,0,.42.56l2.73.2a.5.5,0,0,0,.52-.48l1-2.53a16.42,16.42,0,0,0,3.2-.2v0l2,2.46a.5.5,0,0,0,.63.3l2.53-1.09a.5.5,0,0,0,.21-.67l-.36-2.74a17.19,17.19,0,0,0,2.56-1.66l2.53,1.54a.5.5,0,0,0,.69.07l2-1.85a.49.49,0,0,0,0-.69l-1.44-2.85-.26-.15a16,16,0,0,0,1.39-2.7l.16,0,3.18-.59a.51.51,0,0,0,.57-.42l.26-2.7a.49.49,0,0,0-.47-.51l-2.55-1a15.5,15.5,0,0,0-.19-3.34l2.26-1.65a.48.48,0,0,0,.33-.61Zm-9.39,5.5-1,.75a7,7,0,0,1,.08,1.51l1.15.44.21.23-.12,1.22-.26.18-1.43.27-.07,0a7.78,7.78,0,0,1-.63,1.22l.11.07.66,1.29v.32l-.92.83-.31,0-1.15-.69a7.56,7.56,0,0,1-1.15.74l.16,1.24-.1.3-1.14.49-.3-.13-.93-1.11v0a4.77,4.77,0,0,1-1.43.09l-.43,1.14-.21.22-1.24-.09-.19-.26-.28-1.41,0-.08a6.33,6.33,0,0,1-.85-.38l-.1.15-1.37.5-.32,0-.72-1,.07-.31.58-.73a7.25,7.25,0,0,1-1.1-1.56l-1.14.16-.3-.09-.49-1.13.13-.28,1-.86a6.81,6.81,0,0,1-.09-1.35l-1.2-.55-.2-.25L198,50l.27-.17,1.37-.17a7.7,7.7,0,0,1,.52-1.12l-.79-1.14,0-.31.78-.95h.32l1.3.55a6.86,6.86,0,0,1,1.37-.94l-.17-1.22.09-.3,1.14-.5.35.11,1,1.09h0a12.59,12.59,0,0,1,1.33-.07l.46-1,.23-.19,1.21.21.16.27.1,1.12a7.09,7.09,0,0,1,1.32.62l1.25-.69h.32l.87.86,0,.32-.6,1a7.39,7.39,0,0,1,.89,1.33l1.18-.1.29.12.44,1.14Z"/><path class="cls-1" d="M186.09,233,184,231.92a15,15,0,0,0-.13-3.27l2.16-1.19a.45.45,0,0,0,.37-.52l-.56-2.44a.45.45,0,0,0-.56-.3l-2.88-.14a14.87,14.87,0,0,0-1.62-2.47l1-2.06a.47.47,0,0,0,0-.65l-1.87-1.67a.46.46,0,0,0-.63.08l-1.91,1.21a15,15,0,0,0-2.47-1.32v0l-.42-2.91a.45.45,0,0,0-.35-.53l-2.49-.34a.45.45,0,0,0-.48.42l-1,2.32a14.9,14.9,0,0,0-3.35.16l-1.62-2.33a.45.45,0,0,0-.55-.32l-2.37.81a.46.46,0,0,0-.25.59l.15,2.84a15.2,15.2,0,0,0-2.09,1.39l-2.53-1.18a.45.45,0,0,0-.64,0L155.23,220a.45.45,0,0,0,.08.63l1.47,2.23a14.6,14.6,0,0,0-1.28,2.45l-2.72.37a.45.45,0,0,0-.53.35l-.35,2.49a.46.46,0,0,0,.42.49l2.13.94a15,15,0,0,0,.24,3.87l-1.77.65a.46.46,0,0,0-.45.46l.19,2.49a.45.45,0,0,0,.51.39l2.88.6a.49.49,0,0,0,.33-.15,13.55,13.55,0,0,0,1,1.58l-.13.13-1,2.75a.46.46,0,0,0,.07.64l2,1.48a.45.45,0,0,0,.62-.14l2-1.52a15,15,0,0,0,2.58,1.38v0l.39,2.92a.47.47,0,0,0,.36.54l2.48.35a.46.46,0,0,0,.49-.42l1-2.32a14.61,14.61,0,0,0,2.79-.07l1.22,2.43a.46.46,0,0,0,.51.4l2.46-.47a.47.47,0,0,0,.33-.55l.26-2.94a.59.59,0,0,0-.13-.24,14.78,14.78,0,0,0,2.37-1.46l.11.12,2.75,1.06a.45.45,0,0,0,.64,0l1.51-2a.46.46,0,0,0-.13-.63l-1.5-2a14.58,14.58,0,0,0,1.47-2.71l2.54-.21A.45.45,0,0,0,186,236l.49-2.46A.47.47,0,0,0,186.09,233Zm-18.57,9.23a12.08,12.08,0,0,1-10.32-12.63l10.34,1a1.77,1.77,0,0,0,1,1.25Zm1.38-13.68a1.75,1.75,0,0,0-1.26,1l-10.34-1a12.07,12.07,0,0,1,12.64-10.31Zm-.33,13.79L169.62,232a1.8,1.8,0,0,0,1.26-1l10.34,1A12.09,12.09,0,0,1,168.57,242.35ZM171,229.93a1.78,1.78,0,0,0-1-1.26l1-10.33A12.07,12.07,0,0,1,181.32,231Z"/><path class="cls-1" d="M181.42,350.83l-2.11-1.09a15,15,0,0,0-.13-3.27l2.15-1.19a.45.45,0,0,0,.37-.52l-.56-2.44a.45.45,0,0,0-.56-.31l-2.88-.14a15.1,15.1,0,0,0-1.62-2.48l1-2.06a.46.46,0,0,0,0-.64L175.22,335a.46.46,0,0,0-.63.08l-1.91,1.21A15.06,15.06,0,0,0,170.2,335v0l-.42-2.91a.45.45,0,0,0-.35-.53l-2.49-.33a.44.44,0,0,0-.48.42l-1,2.31a14.68,14.68,0,0,0-3.35.17l-1.62-2.33a.45.45,0,0,0-.56-.32l-2.37.82a.45.45,0,0,0-.24.59l.15,2.84a14.94,14.94,0,0,0-2.09,1.39l-2.53-1.18a.45.45,0,0,0-.64,0l-1.64,1.9a.45.45,0,0,0,.08.63l1.47,2.23a14.19,14.19,0,0,0-1.28,2.45l-2.72.38a.44.44,0,0,0-.53.35l-.35,2.48a.45.45,0,0,0,.42.49l2.13.94a14.89,14.89,0,0,0,.24,3.87l-1.78.65a.45.45,0,0,0-.44.46l.18,2.49a.46.46,0,0,0,.51.39l2.89.6a.51.51,0,0,0,.33-.16,14.06,14.06,0,0,0,1.05,1.58l-.13.13-1,2.76a.46.46,0,0,0,.07.64l2,1.48a.46.46,0,0,0,.63-.13l2-1.52a14.72,14.72,0,0,0,2.58,1.38v0l.39,2.93a.47.47,0,0,0,.35.54l2.48.35a.45.45,0,0,0,.49-.41l1-2.33a14.82,14.82,0,0,0,2.79-.07l1.22,2.42a.46.46,0,0,0,.51.4l2.46-.47a.46.46,0,0,0,.33-.55l.25-2.93A.54.54,0,0,0,171,362a14.83,14.83,0,0,0,2.37-1.45l.11.11,2.75,1.06a.45.45,0,0,0,.64,0l1.5-2a.44.44,0,0,0-.13-.63l-1.5-2a14.5,14.5,0,0,0,1.47-2.71l2.54-.21a.45.45,0,0,0,.55-.32l.49-2.46A.46.46,0,0,0,181.42,350.83Zm-18.56,9.24a12.08,12.08,0,0,1-10.32-12.64l10.33,1a1.77,1.77,0,0,0,1,1.26Zm1.38-13.68a1.76,1.76,0,0,0-1.26,1l-10.33-1a12.08,12.08,0,0,1,12.64-10.32Zm-.33,13.79L165,349.84a1.77,1.77,0,0,0,1.26-1l10.33,1A12.09,12.09,0,0,1,163.91,360.18Zm2.41-12.43a1.75,1.75,0,0,0-1-1.26l1-10.33a12.07,12.07,0,0,1,10.32,12.63Z"/><path class="cls-1" d="M313.67,177.36l-2.12-1.09a15,15,0,0,0-.13-3.27l2.16-1.18a.45.45,0,0,0,.36-.52l-.56-2.44a.45.45,0,0,0-.56-.31l-2.88-.14a15.29,15.29,0,0,0-1.62-2.48l1-2.06a.46.46,0,0,0,0-.64l-1.86-1.67a.46.46,0,0,0-.64.08l-1.91,1.21a14.71,14.71,0,0,0-2.47-1.32v0l-.42-2.91a.44.44,0,0,0-.35-.53l-2.49-.33a.44.44,0,0,0-.48.42l-1,2.31a14.59,14.59,0,0,0-3.35.17l-1.63-2.33a.46.46,0,0,0-.55-.32l-2.37.82a.45.45,0,0,0-.24.59l.15,2.84a14.79,14.79,0,0,0-2.08,1.39l-2.53-1.18a.45.45,0,0,0-.64,0l-1.64,1.9a.45.45,0,0,0,.08.63l1.47,2.24a14.55,14.55,0,0,0-1.28,2.45l-2.72.37a.45.45,0,0,0-.53.35l-.35,2.48a.46.46,0,0,0,.42.49l2.13.93a14.84,14.84,0,0,0,.24,3.87l-1.78.65a.45.45,0,0,0-.45.46l.19,2.49a.46.46,0,0,0,.51.39l2.89.6a.53.53,0,0,0,.33-.15,13.22,13.22,0,0,0,1,1.58l-.13.13-1,2.76a.46.46,0,0,0,.06.64l2,1.48a.46.46,0,0,0,.63-.14l2-1.53a14.93,14.93,0,0,0,2.58,1.39v0l.39,2.92a.47.47,0,0,0,.36.54l2.48.35a.45.45,0,0,0,.49-.41l1-2.33a14.93,14.93,0,0,0,2.79-.07l1.22,2.42a.46.46,0,0,0,.51.4l2.46-.47a.46.46,0,0,0,.33-.55l.26-2.94a.61.61,0,0,0-.13-.24,14.79,14.79,0,0,0,2.37-1.45l.1.11,2.75,1.07a.46.46,0,0,0,.64,0l1.51-2a.46.46,0,0,0-.13-.63l-1.5-2a14.46,14.46,0,0,0,1.47-2.71l2.54-.21a.46.46,0,0,0,.56-.31l.49-2.47A.46.46,0,0,0,313.67,177.36ZM295.1,186.6A12.08,12.08,0,0,1,284.78,174l10.33,1a1.76,1.76,0,0,0,1,1.25Zm1.38-13.67a1.74,1.74,0,0,0-1.26,1l-10.33-1a12.08,12.08,0,0,1,12.64-10.31Zm-.33,13.78,1-10.34a1.77,1.77,0,0,0,1.26-1l10.34,1A12.09,12.09,0,0,1,296.15,186.71Zm2.41-12.43a1.77,1.77,0,0,0-1-1.26l1-10.33a12.07,12.07,0,0,1,10.32,12.63Z"/><path class="cls-1" d="M28.14,178.64l-1.68-.86a11.92,11.92,0,0,0-.1-2.6l1.71-.94a.35.35,0,0,0,.28-.41l-.44-1.94a.36.36,0,0,0-.44-.24l-2.29-.12a11.87,11.87,0,0,0-1.29-2l.8-1.64a.36.36,0,0,0,0-.5l-1.48-1.33a.36.36,0,0,0-.5.06l-1.52,1a12.05,12.05,0,0,0-2-1v0l-.34-2.31a.36.36,0,0,0-.28-.42l-2-.26a.35.35,0,0,0-.38.33l-.8,1.84a11.88,11.88,0,0,0-2.66.13l-1.29-1.85a.37.37,0,0,0-.44-.25l-1.88.65a.36.36,0,0,0-.2.47l.12,2.26a11.89,11.89,0,0,0-1.66,1.1l-2-.93a.36.36,0,0,0-.51,0l-1.3,1.5a.36.36,0,0,0,.06.5l1.17,1.77a11.83,11.83,0,0,0-1,1.95l-2.15.3a.35.35,0,0,0-.42.28L1,175a.37.37,0,0,0,.33.39l1.69.74a11.83,11.83,0,0,0,.19,3.08l-1.41.52a.36.36,0,0,0-.35.37l.14,2a.37.37,0,0,0,.41.31l2.29.47a.4.4,0,0,0,.26-.12A11.51,11.51,0,0,0,5.37,184l-.1.1-.82,2.19a.36.36,0,0,0,.05.51L6.11,188a.37.37,0,0,0,.5-.11l1.55-1.21a11.91,11.91,0,0,0,2,1.1v0l.31,2.32a.37.37,0,0,0,.28.43l2,.28a.35.35,0,0,0,.38-.32l.83-1.85a11.7,11.7,0,0,0,2.22-.06l1,1.93a.37.37,0,0,0,.41.31l2-.38a.36.36,0,0,0,.26-.43l.21-2.33a.58.58,0,0,0-.1-.19,11.63,11.63,0,0,0,1.88-1.15l.08.09,2.19.84a.36.36,0,0,0,.51,0l1.2-1.58a.37.37,0,0,0-.1-.5l-1.19-1.58a11.6,11.6,0,0,0,1.16-2.15l2-.17a.35.35,0,0,0,.44-.25l.39-2A.37.37,0,0,0,28.14,178.64ZM13.39,186a9.61,9.61,0,0,1-8.2-10l8.21.83a1.4,1.4,0,0,0,.82,1Zm1.1-10.87a1.4,1.4,0,0,0-1,.82l-8.21-.83a9.58,9.58,0,0,1,10-8.19Zm-.26,11,.83-8.22a1.4,1.4,0,0,0,1-.81l8.21.83A9.61,9.61,0,0,1,14.23,186.07Zm1.92-9.87a1.38,1.38,0,0,0-.82-1l.83-8.21a9.59,9.59,0,0,1,8.2,10Z"/><path class="cls-1" d="M91.66,138.38l-3-.68a18.48,18.48,0,0,0-1.21-4.08l2.34-2.2a.58.58,0,0,0,.29-.77l-1.5-2.89a.6.6,0,0,0-.81-.2l-3.68.75a20.57,20.57,0,0,0-2.83-2.6l.6-2.92a.59.59,0,0,0-.2-.81l-2.89-1.5a.58.58,0,0,0-.77.3l-2,2.14a19.16,19.16,0,0,0-3.55-.87v0l-1.46-3.53a.59.59,0,0,0-.61-.56l-3.24.38a.6.6,0,0,0-.48.69l-.52,3.23a19.23,19.23,0,0,0-4.16,1.3l-2.81-2.42a.59.59,0,0,0-.8-.23l-2.72,1.79a.6.6,0,0,0-.13.82L56.58,127a19.18,19.18,0,0,0-2.18,2.42l-3.57-.67a.59.59,0,0,0-.8.21l-1.46,2.91a.6.6,0,0,0,.32.78L51.45,135a18.8,18.8,0,0,0-.83,3.5l-3.3,1.35a.61.61,0,0,0-.56.62l.36,3.24a.62.62,0,0,0,.69.48l3,.5a19.14,19.14,0,0,0,1.55,4.8l-2,1.4a.6.6,0,0,0-.42.72l1,3.08a.59.59,0,0,0,.77.32l3.83-.17a.72.72,0,0,0,.37-.3,20.64,20.64,0,0,0,1.83,1.65l-.13.2-.39,3.81a.59.59,0,0,0,.28.79l3,1.2a.6.6,0,0,0,.75-.37l2-2.55a19.41,19.41,0,0,0,3.7.92v0l1.44,3.55a.59.59,0,0,0,.62.57l3.23-.34a.61.61,0,0,0,.49-.68l.55-3.27a19.23,19.23,0,0,0,3.49-1l2.32,2.66a.58.58,0,0,0,.76.33l3-1.39a.6.6,0,0,0,.24-.79L82.38,156l-.23-.27a19.61,19.61,0,0,0,2.53-2.6l.16.11,3.8.46a.6.6,0,0,0,.8-.27l1.25-3a.6.6,0,0,0-.36-.76l-2.54-2a18.69,18.69,0,0,0,1-3.9l3.14-1.08a.59.59,0,0,0,.58-.58l-.18-3.26A.58.58,0,0,0,91.66,138.38Zm-15.49,3-.17.16-.89.31a5.14,5.14,0,0,1-.28,1.11l.73.57.09.22-.36.85-.21.08L74,144.58l0,0a5.2,5.2,0,0,1-.72.74l.06.08.19,1.07-.08.23-.82.39-.22-.1-.66-.76a5.06,5.06,0,0,1-1,.28l-.16.93-.13.19-.93.1-.17-.16-.41-1v0a5,5,0,0,1-1-.26l-.56.73-.21.1-.86-.35-.08-.21.12-1.09,0-.07a4.19,4.19,0,0,1-.52-.46l-.11.09-1.09.05-.22-.09-.29-.88.11-.21.58-.4a5.57,5.57,0,0,1-.44-1.36l-.84-.14-.2-.14-.11-.92.17-.18.93-.38a5,5,0,0,1,.24-1l-.73-.67-.09-.23.42-.83.22-.06,1,.19a5,5,0,0,1,.61-.69l-.3-1,0-.23.77-.5.23,0,.79.69a5.61,5.61,0,0,1,1.19-.37l.15-.92.14-.2.92-.1.17.16.42,1h0a5.1,5.1,0,0,1,1,.24l.59-.61.21-.08.83.42,0,.24-.16.83a5.48,5.48,0,0,1,.8.73l1-.21.24.05.41.83-.08.22-.66.62a5.31,5.31,0,0,1,.34,1.16l.86.2.18.14Z"/><path class="cls-4" d="M118.63,136.57a1.28,1.28,0,0,0-1.42-1.13L110.6,134a41.63,41.63,0,0,0-2.65-8.9l5.09-4.8a1.27,1.27,0,0,0,.65-1.69l-3.28-6.31a1.29,1.29,0,0,0-1.77-.45l-8,1.65a42.71,42.71,0,0,0-6.18-5.69l1.31-6.38a1.29,1.29,0,0,0-.44-1.76L89,96.32a1.31,1.31,0,0,0-1.7.66l-5.54,4.66a56,56,0,0,0-8.89-1.87V99.7L70.81,92c-.08-.75-.11-1.3-.79-1.22l-6.77.82c-.66.08-1,.74-.9,1.5l-1.07,7.06A42.63,42.63,0,0,0,52.21,103l-6.1-5.28a1.26,1.26,0,0,0-1.74-.49l-5.94,3.92a1.32,1.32,0,0,0-.28,1.81l2.44,7.7a40.09,40.09,0,0,0-4.76,5.29L28,114.44a1.29,1.29,0,0,0-1.77.46l-3.17,6.37a1.29,1.29,0,0,0,.67,1.7l5.61,5.11a42.1,42.1,0,0,0-1.8,7.63l-7.21,3A1.27,1.27,0,0,0,19.14,140l.78,7.08a1.3,1.3,0,0,0,1.5,1.05l6.52,1.09a42.08,42.08,0,0,0,3.4,10.48l-4.44,3.05a1.28,1.28,0,0,0-.92,1.57l2.27,6.73a1.31,1.31,0,0,0,1.69.72l8.37-.41a1.4,1.4,0,0,0,.79-.64,44.91,44.91,0,0,0,4,3.6l-.27.43L42,183.09a1.29,1.29,0,0,0,.59,1.72l6.61,2.63a1.28,1.28,0,0,0,1.63-.81l4.31-5.58a42.08,42.08,0,0,0,8.07,2l0,.06,3.15,7.76a1.31,1.31,0,0,0,1.36,1.23l7.07-.78a1.29,1.29,0,0,0,1.05-1.47L77,182.72a42.25,42.25,0,0,0,7.6-2.17l5.09,5.82a1.28,1.28,0,0,0,1.66.71l6.45-3a1.29,1.29,0,0,0,.52-1.74L96.94,174l-.51-.58a41.79,41.79,0,0,0,5.52-5.66l.37.24,8.31,1a1.27,1.27,0,0,0,1.72-.58l2.74-6.57a1.29,1.29,0,0,0-.77-1.64l-5.55-4.4a42.79,42.79,0,0,0,2.12-8.51l6.84-2.37a1.28,1.28,0,0,0,1.29-1.27ZM36,144.18A2.16,2.16,0,1,1,38.13,142,2.15,2.15,0,0,1,36,144.18ZM91,117.1a2.16,2.16,0,1,1,0,3.05A2.15,2.15,0,0,1,91,117.1ZM69.08,106.77a2.16,2.16,0,1,1-2.16,2.17A2.15,2.15,0,0,1,69.08,106.77ZM44.14,117.1a2.16,2.16,0,1,1,0,3.05A2.16,2.16,0,0,1,44.14,117.1ZM47.2,167a2.16,2.16,0,1,1,0-3A2.16,2.16,0,0,1,47.2,167Zm21.88,10.33a2.16,2.16,0,1,1,2.15-2.15A2.16,2.16,0,0,1,69.08,177.28ZM94,167a2.15,2.15,0,1,1,0-3A2.15,2.15,0,0,1,94,167Zm-24.93.55a26.08,26.08,0,1,1,26.07-26.08A26.07,26.07,0,0,1,69.08,167.5Zm33.1-23.32a2.16,2.16,0,1,1,2.16-2.15A2.15,2.15,0,0,1,102.18,144.18Z"/><path class="cls-1" d="M207,322.21l-1.32-.3a8.17,8.17,0,0,0-.53-1.79l1-1a.26.26,0,0,0,.13-.34l-.66-1.27a.26.26,0,0,0-.35-.08l-1.61.32a9.1,9.1,0,0,0-1.24-1.14l.26-1.28a.25.25,0,0,0-.08-.35l-1.27-.66a.26.26,0,0,0-.34.13l-.89.94a8.13,8.13,0,0,0-1.55-.38h0l-.64-1.55a.26.26,0,0,0-.27-.25l-1.42.17a.26.26,0,0,0-.21.3l-.23,1.41a8.42,8.42,0,0,0-1.83.57l-1.23-1.06a.26.26,0,0,0-.35-.1l-1.19.79a.26.26,0,0,0-.05.36l.49,1.55a8.74,8.74,0,0,0-1,1.06L189.1,318a.25.25,0,0,0-.35.09l-.64,1.28a.26.26,0,0,0,.14.34l1.12,1a7.74,7.74,0,0,0-.36,1.53l-1.45.59a.26.26,0,0,0-.24.27l.16,1.42a.27.27,0,0,0,.3.21l1.31.21a8.34,8.34,0,0,0,.68,2.11l-.89.61a.26.26,0,0,0-.18.32l.45,1.35a.26.26,0,0,0,.34.14l1.68-.08a.29.29,0,0,0,.16-.13,8.63,8.63,0,0,0,.8.73l-.05.09-.17,1.67a.26.26,0,0,0,.12.35l1.32.53a.28.28,0,0,0,.33-.17l.86-1.12a8.82,8.82,0,0,0,1.62.4h0l.63,1.56a.26.26,0,0,0,.27.25l1.42-.15a.27.27,0,0,0,.22-.3l.24-1.44a8.15,8.15,0,0,0,1.53-.43l1,1.17a.25.25,0,0,0,.33.14l1.3-.61a.27.27,0,0,0,.11-.35L203,330l-.1-.12a8.49,8.49,0,0,0,1.11-1.14l.07,0,1.66.2a.27.27,0,0,0,.35-.12l.55-1.32a.26.26,0,0,0-.16-.33l-1.11-.88a8.33,8.33,0,0,0,.42-1.71l1.38-.47a.27.27,0,0,0,.26-.26l-.08-1.43A.26.26,0,0,0,207,322.21Zm-6.8,1.33-.07.07-.39.14a2.26,2.26,0,0,1-.12.48l.32.25,0,.09-.16.38-.1,0-.48-.06,0,0a2.49,2.49,0,0,1-.32.32l0,0,.08.47,0,.1-.36.18-.1,0-.29-.33a2.13,2.13,0,0,1-.44.13l-.07.41-.06.08-.4,0-.07-.07-.18-.44h0a2.08,2.08,0,0,1-.46-.11l-.24.32-.09,0-.38-.16,0-.1.05-.48v0a2.05,2.05,0,0,1-.23-.2l0,0-.48,0-.1,0-.13-.39,0-.09.26-.17a2.22,2.22,0,0,1-.2-.6l-.37-.06-.09-.06,0-.4.07-.08.41-.17a2.18,2.18,0,0,1,.1-.44l-.32-.29,0-.1.18-.36.1,0,.45.09a2,2,0,0,1,.27-.3l-.13-.44,0-.1.34-.22.1,0,.35.3a2,2,0,0,1,.52-.16l.07-.4.06-.09.4,0,.08.07.18.45h0a2.69,2.69,0,0,1,.44.11l.26-.27.09,0,.36.19,0,.11-.07.36a2.32,2.32,0,0,1,.35.32l.46-.09.1,0,.18.36,0,.1-.29.28a2.12,2.12,0,0,1,.15.51l.38.09.08.06Z"/><path class="cls-1" d="M218.86,321.42a.57.57,0,0,0-.62-.5l-2.9-.65a18.15,18.15,0,0,0-1.16-3.91l2.23-2.11a.56.56,0,0,0,.29-.74l-1.44-2.77a.57.57,0,0,0-.77-.19l-3.52.72a18.54,18.54,0,0,0-2.72-2.5l.58-2.8a.57.57,0,0,0-.2-.78l-2.77-1.44a.57.57,0,0,0-.75.29l-2.43,2a25.58,25.58,0,0,0-3.9-.82v0l-.91-3.39c0-.33,0-.56-.34-.53l-3,.36c-.29,0-.43.33-.39.65l-.47,3.1a18.72,18.72,0,0,0-4,1.24L187,304.36a.56.56,0,0,0-.76-.22l-2.61,1.72a.57.57,0,0,0-.13.79l1.07,3.38a17.53,17.53,0,0,0-2.09,2.32l-3.42-.64a.56.56,0,0,0-.77.2l-1.39,2.8a.56.56,0,0,0,.29.74l2.46,2.25a18.23,18.23,0,0,0-.79,3.35l-3.17,1.29a.56.56,0,0,0-.53.59l.34,3.11a.58.58,0,0,0,.66.46l2.86.48a18.38,18.38,0,0,0,1.49,4.6l-1.94,1.34a.56.56,0,0,0-.4.69l1,3a.57.57,0,0,0,.74.31l3.67-.18a.61.61,0,0,0,.35-.27,20.93,20.93,0,0,0,1.75,1.58l-.11.19-.38,3.65a.57.57,0,0,0,.26.76l2.9,1.15a.56.56,0,0,0,.71-.36l1.89-2.44a18.29,18.29,0,0,0,3.54.88v0l1.38,3.4a.58.58,0,0,0,.59.54l3.1-.34a.56.56,0,0,0,.46-.64l.53-3.13a18.48,18.48,0,0,0,3.34-1l2.23,2.56a.56.56,0,0,0,.73.31l2.83-1.33a.57.57,0,0,0,.23-.77l-.6-3.62-.23-.26a18.11,18.11,0,0,0,2.42-2.48l.16.1,3.65.44a.56.56,0,0,0,.75-.25l1.2-2.88a.57.57,0,0,0-.34-.72l-2.43-1.93a19,19,0,0,0,.93-3.73l3-1a.56.56,0,0,0,.56-.56Zm-36.27,3.34a.95.95,0,1,1,.95-.95A.95.95,0,0,1,182.59,324.76Zm24.13-11.89a.95.95,0,1,1,0,1.34A1,1,0,0,1,206.71,312.87Zm-9.6-4.53a.95.95,0,1,1-1,.95A.94.94,0,0,1,197.12,308.35Zm-10.94,4.53a.95.95,0,1,1,0,1.34A1,1,0,0,1,186.17,312.87Zm1.34,21.88a.95.95,0,1,1-1.34-1.34.95.95,0,0,1,1.34,1.34Zm9.6,4.53a.95.95,0,1,1,.94-.94A1,1,0,0,1,197.12,339.28Zm10.94-4.53a.95.95,0,1,1-1.34-1.34.95.95,0,0,1,1.34,1.34Zm-10.94.25a11.45,11.45,0,1,1,11.44-11.45A11.45,11.45,0,0,1,197.12,335Zm14.52-10.24a.95.95,0,1,1,.95-.95A.95.95,0,0,1,211.64,324.76Z"/><path class="cls-1" d="M168.94,165.36a19,19,0,1,0,19.11,19A19.09,19.09,0,0,0,168.94,165.36Zm0,24.43a5.4,5.4,0,1,1,5.43-5.41A5.42,5.42,0,0,1,168.94,189.79Z"/><path class="cls-1" d="M197.76,185.61v-1.89l-4.48-.54c-.05-.79-.1-1.57-.22-2.33l4.45-1.5-.39-1.86-4.67.44a23.77,23.77,0,0,0-.86-2.49l4-2.6-.84-1.7-4.46,1.59a24.56,24.56,0,0,0-2.09-3.12l3.06-3.6-1.31-1.39-3.75,2.75a24,24,0,0,0-2.6-2.24l2.09-4.22-1.59-1-3,3.61a24.64,24.64,0,0,0-3-1.44l.88-4.66-1.81-.57-1.93,4.28a24.14,24.14,0,0,0-4.83-.53l-.55-4.33h-1.9l-.55,4.33a24.47,24.47,0,0,0-4.59.59l-1.93-4.27-1.82.54.87,4.55a25.09,25.09,0,0,0-3.06,1.44l-3-3.53-1.6,1,2.06,4.12a24.85,24.85,0,0,0-2.67,2.28L148,164.63,146.67,166l3,3.52a24.27,24.27,0,0,0-2.14,3.16l-4.4-1.56-.85,1.7,3.94,2.55c-.34.82-.63,1.66-.89,2.53l-4.63-.43-.4,1.86,4.38,1.47c-.12.75-.47,1.53-.53,2.31l-5,.55v1.89l5,.55c0,.76.26,1.51.37,2.25l-4.29,1.47.43,1.85,4.61-.43a25.07,25.07,0,0,0,.88,2.56l-3.89,2.51.86,1.69,4.32-1.52a25,25,0,0,0,2.15,3.21l-2.94,3.43,1.31,1.39,3.59-2.61a24.27,24.27,0,0,0,2.71,2.34l-2,4,1.6,1,2.88-3.41a24.65,24.65,0,0,0,3.13,1.5l-.84,4.4,1.82.57,1.85-4.05a23.81,23.81,0,0,0,4.53,1l.54,4.81h1.9l.54-4.79a25.14,25.14,0,0,0,5.05-.93l1.86,4,1.81-.59-.85-4.5a26.52,26.52,0,0,0,3-1.5l2.91,3.47,1.59-1-2-4.09a23.36,23.36,0,0,0,2.63-2.3l3.65,2.67,1.31-1.39-3-3.52a24.61,24.61,0,0,0,2.11-3.17l4.37,1.56.84-1.69-3.93-2.56q.49-1.23.86-2.51l4.64.43.4-1.85-4.41-1.5c.11-.72.12-1.46.16-2.2Zm-28.82,19.14a20.37,20.37,0,1,1,20.47-20.37A20.44,20.44,0,0,1,168.94,204.75Z"/><path class="cls-1" d="M300.47,136.68a6.93,6.93,0,1,0,7,6.93A7,7,0,0,0,300.47,136.68Zm0,8.9a2,2,0,1,1,2-2A2,2,0,0,1,300.47,145.58Z"/><path class="cls-1" d="M311,144.06v-.69l-1.63-.19c0-.28,0-.57-.08-.85l1.62-.54-.14-.67-1.7.16c-.09-.31-.2-.61-.32-.91l1.45-.95-.31-.62-1.62.58a9.39,9.39,0,0,0-.76-1.13l1.11-1.31-.47-.5-1.37,1a8.61,8.61,0,0,0-.95-.82l.76-1.53-.58-.38-1.1,1.31a9.16,9.16,0,0,0-1.08-.53l.32-1.69-.66-.21-.7,1.56a8.79,8.79,0,0,0-1.76-.2l-.2-1.58h-.69l-.2,1.58a9.17,9.17,0,0,0-1.67.21l-.7-1.55-.66.19.32,1.66a8.65,8.65,0,0,0-1.11.52L295,134.69l-.58.38.75,1.5a8.09,8.09,0,0,0-1,.83l-1.35-1-.48.5,1.09,1.28a8.82,8.82,0,0,0-.78,1.16l-1.6-.57-.31.62,1.43.93a8.82,8.82,0,0,0-.32.92l-1.69-.16-.15.67,1.6.54c0,.28-.17.56-.19.84l-1.81.2V144l1.8.2c0,.28.1.56.14.82l-1.56.53.15.68,1.68-.16a8.79,8.79,0,0,0,.32.94l-1.41.91.31.62,1.57-.55a9.34,9.34,0,0,0,.78,1.17l-1.07,1.25.48.5,1.31-.95a9.06,9.06,0,0,0,1,.85l-.73,1.45.58.37,1-1.24a9.14,9.14,0,0,0,1.14.54l-.31,1.6.66.21.67-1.47a9.45,9.45,0,0,0,1.65.36l.2,1.75h.69l.2-1.74a8.82,8.82,0,0,0,1.84-.34l.68,1.47.66-.22-.31-1.64a9.78,9.78,0,0,0,1.11-.54l1.06,1.27.58-.37-.74-1.49a9.25,9.25,0,0,0,1-.84l1.33,1,.47-.5-1.09-1.28a9.15,9.15,0,0,0,.77-1.15l1.59.56.31-.62-1.43-.93a8.89,8.89,0,0,0,.31-.91l1.69.16.14-.68-1.6-.54c0-.26,0-.53.06-.8Zm-10.5,7a7.42,7.42,0,1,1,7.45-7.42A7.44,7.44,0,0,1,300.47,151Z"/><path class="cls-1" d="M106.61,346.6a7.83,7.83,0,1,0,7.87,7.83A7.85,7.85,0,0,0,106.61,346.6Zm0,10.05a2.22,2.22,0,1,1,2.23-2.22A2.23,2.23,0,0,1,106.61,356.66Z"/><path class="cls-1" d="M118.48,354.94v-.78l-1.84-.23c0-.32,0-.64-.09-1l1.83-.62-.16-.76-1.92.18a8.83,8.83,0,0,0-.36-1l1.65-1.07-.35-.7-1.84.66a9.9,9.9,0,0,0-.86-1.29l1.26-1.48-.53-.57-1.55,1.13a9.85,9.85,0,0,0-1.07-.92l.86-1.74-.66-.42-1.24,1.49a9.89,9.89,0,0,0-1.22-.59l.36-1.92-.74-.24-.8,1.76a9.5,9.5,0,0,0-2-.22l-.22-1.79h-.78l-.23,1.79a9.85,9.85,0,0,0-1.89.24l-.79-1.76-.75.22.36,1.88a11.13,11.13,0,0,0-1.26.59l-1.23-1.46-.66.42.85,1.7a9.89,9.89,0,0,0-1.1.94L98,346.3l-.54.57,1.24,1.45a10.29,10.29,0,0,0-.88,1.3L96,349l-.35.7,1.62,1c-.14.34-.26.69-.36,1L95,351.6l-.16.76,1.8.61c0,.31-.2.63-.22,1l-2,.23v.77l2,.23c0,.32.11.63.15.93l-1.77.6.18.76,1.9-.18a9.73,9.73,0,0,0,.36,1.06l-1.6,1,.35.7,1.78-.63a9.84,9.84,0,0,0,.89,1.32l-1.21,1.42.54.57,1.48-1.08a9.76,9.76,0,0,0,1.12,1l-.83,1.64.66.43,1.19-1.41a10.09,10.09,0,0,0,1.29.61l-.34,1.82.75.23.76-1.67a10.06,10.06,0,0,0,1.87.4l.22,2h.78l.22-2a10,10,0,0,0,2.08-.38L110,366l.74-.25-.35-1.85a11.85,11.85,0,0,0,1.25-.61l1.2,1.43.66-.42-.84-1.69a9.71,9.71,0,0,0,1.09-.95l1.51,1.1.53-.57-1.23-1.45a9.77,9.77,0,0,0,.86-1.31l1.8.64.35-.7L116,358.3c.13-.34.25-.67.35-1l1.91.18.16-.76-1.82-.62c0-.3,0-.6.06-.91Zm-11.87,7.88a8.39,8.39,0,1,1,8.43-8.39A8.42,8.42,0,0,1,106.61,362.83Z"/><path class="cls-1" d="M83.24,56.55A13.37,13.37,0,1,0,96.67,69.92,13.41,13.41,0,0,0,83.24,56.55Zm0,17.16a3.79,3.79,0,1,1,3.81-3.8A3.81,3.81,0,0,1,83.24,73.72Z"/><path class="cls-1" d="M103.49,70.78V69.45l-3.15-.38c0-.55-.07-1.1-.15-1.64l3.12-1.05-.28-1.3-3.28.3a16.25,16.25,0,0,0-.61-1.74l2.8-1.82-.59-1.19-3.13,1.11a16.94,16.94,0,0,0-1.47-2.19L98.9,57,98,56,95.35,58a17.23,17.23,0,0,0-1.82-1.58l1.46-3-1.12-.72-2.12,2.54a16.44,16.44,0,0,0-2.09-1L90.28,51,89,50.56l-1.35,3a16.72,16.72,0,0,0-3.4-.37l-.38-3H82.54l-.39,3a17.4,17.4,0,0,0-3.22.41l-1.36-3L76.29,51l.61,3.2a16.7,16.7,0,0,0-2.15,1l-2.1-2.49-1.12.72L73,56.33a17.22,17.22,0,0,0-1.87,1.6L68.51,56l-.92,1,2.11,2.48a16.52,16.52,0,0,0-1.5,2.22l-3.09-1.09-.6,1.19,2.77,1.79a17.53,17.53,0,0,0-.62,1.77l-3.26-.3-.28,1.3,3.08,1c-.08.54-.33,1.08-.37,1.62l-3.49.39v1.33l3.49.4c0,.53.18,1.06.26,1.58l-3,1,.3,1.3,3.24-.3a16.91,16.91,0,0,0,.62,1.8l-2.73,1.77.6,1.19,3-1.07a18.15,18.15,0,0,0,1.51,2.26l-2.06,2.41.92,1L71,82.25a17.15,17.15,0,0,0,1.91,1.64l-1.41,2.8,1.12.72,2-2.39a17.14,17.14,0,0,0,2.2,1l-.59,3.09,1.28.4,1.31-2.85a17.61,17.61,0,0,0,3.18.7l.38,3.37h1.34l.38-3.36a17.29,17.29,0,0,0,3.55-.66L89,89.6l1.28-.41L89.68,86a18.35,18.35,0,0,0,2.14-1l2,2.44L95,86.7l-1.42-2.88a16.49,16.49,0,0,0,1.85-1.62L98,84.08l.92-1-2.1-2.47a17.78,17.78,0,0,0,1.48-2.22l3.07,1.09.59-1.19-2.76-1.8c.23-.57.42-1.16.6-1.77l3.26.31.28-1.3-3.1-1.06c.08-.5.08-1,.12-1.54ZM83.24,84.23A14.31,14.31,0,1,1,97.62,69.92,14.36,14.36,0,0,1,83.24,84.23Z"/><path class="cls-1" d="M243.4,192.45a35.93,35.93,0,1,0,36.08,35.92A36,36,0,0,0,243.4,192.45Zm0,46.13a10.2,10.2,0,1,1,10.24-10.21A10.23,10.23,0,0,1,243.4,238.58Z"/><path class="cls-1" d="M297.82,230.69v-3.57l-8.46-1c-.09-1.48-.17-3-.4-4.4l8.39-2.85-.74-3.49-8.83.81a45.21,45.21,0,0,0-1.63-4.69l7.54-4.91-1.61-3.2-8.41,3a47.85,47.85,0,0,0-3.94-5.89l5.77-6.8L283,191.08,276,196.26A45.09,45.09,0,0,0,271,192l3.95-8-3-1.94-5.69,6.81a47.09,47.09,0,0,0-5.62-2.73l1.68-8.79-3.42-1.07-3.66,8.07a45.18,45.18,0,0,0-9.12-1l-1-8.19h-3.59l-1,8.19a46,46,0,0,0-8.67,1.1l-3.64-8.06-3.45,1,1.65,8.61a45.7,45.7,0,0,0-5.77,2.71L215,182.12l-3,1.94,3.9,7.78a47,47,0,0,0-5.05,4.3l-7-5.06-2.48,2.61,5.68,6.65a45.47,45.47,0,0,0-4,6l-8.31-2.94-1.61,3.2,7.44,4.81a46,46,0,0,0-1.67,4.78l-8.76-.81-.75,3.49,8.28,2.79c-.23,1.43-.9,2.89-1,4.36l-9.39,1v3.58l9.37,1c.08,1.42.49,2.85.7,4.25l-8.11,2.76.83,3.5,8.7-.8a45.93,45.93,0,0,0,1.67,4.83L193,251l1.62,3.2,8.16-2.88a46.61,46.61,0,0,0,4.06,6.08l-5.55,6.48,2.48,2.61,6.78-4.91a45.51,45.51,0,0,0,5.12,4.4l-3.78,7.53,3,2L220.4,269a46.48,46.48,0,0,0,5.91,2.82l-1.59,8.31,3.45,1.07,3.49-7.64a47.09,47.09,0,0,0,8.56,1.86l1,9.07h3.58l1-9a47.1,47.1,0,0,0,9.53-1.77l3.53,7.63,3.42-1.13-1.62-8.51a46.68,46.68,0,0,0,5.75-2.82l5.51,6.57,3-2-3.83-7.72a46,46,0,0,0,5-4.33l6.9,5,2.46-2.61-5.64-6.64a46.25,46.25,0,0,0,4-6l8.25,2.95,1.61-3.2-7.43-4.84a45.14,45.14,0,0,0,1.61-4.74l8.76.81.76-3.5-8.32-2.82c.2-1.37.2-2.76.29-4.16ZM243.4,266.84A38.47,38.47,0,1,1,282,228.37,38.6,38.6,0,0,1,243.4,266.84Z"/><path class="cls-2" d="M252.07,71.14a15.78,15.78,0,1,0,15.85,15.78A15.83,15.83,0,0,0,252.07,71.14Zm0,20.26a4.48,4.48,0,1,1,4.5-4.48A4.49,4.49,0,0,1,252.07,91.4Z"/><path class="cls-2" d="M276,87.95V86.37l-3.72-.45c0-.65-.08-1.3-.18-1.93l3.69-1.25-.33-1.53-3.88.35a19.23,19.23,0,0,0-.72-2.06l3.31-2.16-.71-1.41-3.69,1.32A21,21,0,0,0,268,74.68l2.53-3-1.08-1.15-3.11,2.28A19.4,19.4,0,0,0,264.21,71l1.73-3.5-1.32-.86-2.5,3a20.46,20.46,0,0,0-2.47-1.2l.74-3.86-1.51-.47-1.6,3.55a20,20,0,0,0-4-.44l-.46-3.59h-1.58l-.45,3.59a20.24,20.24,0,0,0-3.81.49l-1.6-3.55-1.51.45.72,3.78a20.81,20.81,0,0,0-2.54,1.19l-2.47-2.93-1.33.86L240,70.88a20,20,0,0,0-2.22,1.89l-3.06-2.22-1.09,1.15,2.49,2.92a20.2,20.2,0,0,0-1.77,2.63l-3.65-1.29L230,77.36l3.27,2.11a20.71,20.71,0,0,0-.73,2.1l-3.85-.35-.33,1.53L231.95,84c-.1.63-.39,1.27-.43,1.91l-4.12.46v1.57l4.12.46c0,.63.22,1.26.31,1.86l-3.56,1.22.37,1.54,3.82-.35a19.26,19.26,0,0,0,.73,2.12l-3.23,2.08.71,1.41L234.24,97A21.31,21.31,0,0,0,236,99.66l-2.44,2.84,1.09,1.15,3-2.16a20.3,20.3,0,0,0,2.25,1.93l-1.66,3.3,1.33.86,2.39-2.82a21.33,21.33,0,0,0,2.6,1.24l-.7,3.65,1.51.47,1.53-3.35a20.29,20.29,0,0,0,3.76.82l.45,4h1.57l.45-4a21,21,0,0,0,4.19-.78l1.55,3.35,1.51-.49-.71-3.74a20.53,20.53,0,0,0,2.53-1.24l2.42,2.89,1.32-.86-1.68-3.39a19.77,19.77,0,0,0,2.19-1.9l3,2.22,1.08-1.15-2.48-2.92A20.12,20.12,0,0,0,269.83,97l3.63,1.3.71-1.41-3.26-2.13a19.71,19.71,0,0,0,.71-2.08l3.85.35.33-1.54-3.65-1.24c.09-.6.09-1.2.13-1.82Zm-23.9,15.88a16.9,16.9,0,1,1,17-16.91A17,17,0,0,1,252.07,103.83Z"/><path class="cls-1" d="M147.73,91.9s-.13-1.6-.19-2.39v0h0v0a.73.73,0,0,0-.77-.65h-.1l-1.63.13h0c-.56,0-.68-.74-.68-.75a21.59,21.59,0,0,0-.62-2.15,2.23,2.23,0,0,1-.12-.66c0-.52.33-.63.33-.63l1.5-.77a.66.66,0,0,0,.4-.59,1,1,0,0,0-.13-.45l-1.14-2.24h0l0,0h0a.63.63,0,0,0-.58-.36h0a1,1,0,0,0-.45.13l-1.42.72a.41.41,0,0,1-.2,0,1.07,1.07,0,0,1-.75-.38h0c-.08-.17-1.07-1.43-1.62-2.09a1,1,0,0,1-.28-.62.37.37,0,0,1,.14-.31l1.09-1.29a.81.81,0,0,0,.22-.52.75.75,0,0,0-.24-.53l-2-1.7h0a.72.72,0,0,0-.45-.18h0a.8.8,0,0,0-.54.24h0l-.06.06c-.18.22-.87,1-1.14,1.32a.43.43,0,0,1-.35.15,1.48,1.48,0,0,1-.61-.18c-.4-.36-1.83-1-2.47-1.41-.29-.19-.38-.39-.38-.53a.43.43,0,0,1,.09-.26l0-.13.45-1.37a1.27,1.27,0,0,0,0-.31.76.76,0,0,0-.56-.69l-.08,0-2.31-.75h0a.83.83,0,0,0-.27,0h0a.75.75,0,0,0-.67.51l-.56,1.73h0c-.09.24-.48.28-.73.29h-.2a24,24,0,0,0-2.44-.29c-.88-.06-.89-.6-.89-.6s0-.67-.13-1.6c-.06-.69-.52-.79-.75-.79h-.13l-2.47.2a.78.78,0,0,0-.71.82h0v0c0,.18.1,1.2.13,1.65v.06c0,.4-.34.57-.66.65l-.11,0a20.94,20.94,0,0,0-2.41.69h0a1.28,1.28,0,0,1-.39.08h0a.72.72,0,0,1-.68-.54l-.6-1.17v0h0v0h0a.8.8,0,0,0-.71-.48h0a.77.77,0,0,0-.32.07L112,72.06a.63.63,0,0,0-.37.59,1.05,1.05,0,0,0,.1.43l.74,1.46h0a.6.6,0,0,1,.06.26.92.92,0,0,1-.45.71c-.3.21-1.2.91-2,1.55h0a1,1,0,0,1-.63.26h0a.73.73,0,0,1-.55-.27l-1.1-.93a.71.71,0,0,0-.48-.19.87.87,0,0,0-.51.18L105.19,78l-.11.12,0,0a.78.78,0,0,0-.2.51.88.88,0,0,0,.27.59l1.3,1.1a.5.5,0,0,1,.16.41,1.47,1.47,0,0,1-.17.61,20.35,20.35,0,0,0-1.26,2.25c-.22.44-.49.55-.7.55a.77.77,0,0,1-.36-.1l-1.36-.44a.74.74,0,0,0-.29-.05.79.79,0,0,0-.69.45s-.5,1.53-.76,2.36a.79.79,0,0,0,.4,1.08l1.68.55c.45.14.36.94.36.94-.09.4-.22,1.57-.3,2.49s-.67.88-.76.88h0l-1.43.12a.78.78,0,0,0-.78,1s.1,1.25.18,2.24c.07.76.53.85.76.85h.12l1.41-.11h.1a.79.79,0,0,1,.85.69c.1.59.59,1.92.73,2.63s-.25.82-.25.82l-1.42.73a.79.79,0,0,0-.38,1.18l1.12,2.18a.65.65,0,0,0,.6.39,1.27,1.27,0,0,0,.59-.17l1.34-.69a.61.61,0,0,1,.24-.06,1,1,0,0,1,.77.57c.21.35,1.11,1.45,1.58,2s0,.93,0,.93-.49.57-1,1.17a.81.81,0,0,0,0,1.13s1.23,1.12,1.92,1.63a.78.78,0,0,0,1.16-.12l1.07-1.26a.52.52,0,0,1,.41-.14,1.08,1.08,0,0,1,.59.18c.34.24,1.49.87,2.21,1.24s.52.93.52.93-.11.34-.43,1.33.4,1.17.4,1.17l2.3.75a1.36,1.36,0,0,0,.38.06.73.73,0,0,0,.72-.52l.53-1.63c.09-.3.38-.38.68-.38a3,3,0,0,1,.62.08c.31,0,1.23.16,2.16.23s.84.75.84.75l.12,1.57a.78.78,0,0,0,.87.67h.08l2.25-.17a.8.8,0,0,0,.85-.92s-.07-.89-.12-1.52.65-.82.87-.85a21.4,21.4,0,0,0,2.23-.64,1.6,1.6,0,0,1,.48-.08.62.62,0,0,1,.65.45l.72,1.41a.65.65,0,0,0,.61.34,1.3,1.3,0,0,0,.36-.05l2.32-1.18a.76.76,0,0,0,.24-1.12l-.68-1.34c-.21-.42.09-.82.49-1.1s1.44-1.11,2-1.59h0a.83.83,0,0,1,.49-.21h0l.17,0a.45.45,0,0,1,.22.17s.44.39,1.14,1a1,1,0,0,0,.59.26h0a.85.85,0,0,0,.6-.3h0l1.63-1.92a.76.76,0,0,0,.2-.48.86.86,0,0,0-.35-.62l-1.27-1.09a.45.45,0,0,1-.16-.37,1.43,1.43,0,0,1,.23-.65c.19-.26.93-1.61,1.33-2.36h0v0a.65.65,0,0,1,.55-.39h0a.67.67,0,0,1,.39.14l1.31.42h0a1.14,1.14,0,0,0,.35.06h0a.73.73,0,0,0,.7-.59l.75-2.31a.86.86,0,0,0,0-.31.77.77,0,0,0-.56-.71l-1.49-.48a.74.74,0,0,1-.48-.74,1.29,1.29,0,0,1,0-.25c.1-.47.22-2,.33-2.7h0v0h0v0h0v0h0v0h0a.63.63,0,0,1,.4-.42h.3s.59-.06,1.48-.12a.7.7,0,0,0,.71-.76A1.2,1.2,0,0,0,147.73,91.9Zm-24.19,15.33h-.09a14.58,14.58,0,0,1,.09-29.16h.09a14.58,14.58,0,0,1-.09,29.16Z"/><path class="cls-1" d="M123.4,79.36a13.42,13.42,0,1,0,13.48,13.41A13.46,13.46,0,0,0,123.4,79.36Zm8,13.83-1.11.38a7.3,7.3,0,0,1-.34,1.38l.9.73a.2.2,0,0,1,.13.26L130.49,97a.21.21,0,0,1-.28.1L128.85,97l-.06,0a6.46,6.46,0,0,1-.9.92l.09.09.22,1.35a.21.21,0,0,1-.09.28l-1,.49a.22.22,0,0,1-.28-.11L126,99a7,7,0,0,1-1.24.35l-.2,1.16a.21.21,0,0,1-.17.24l-1.14.12a.2.2,0,0,1-.21-.19l-.5-1.23,0-.06a6.65,6.65,0,0,1-1.28-.32l-.7.91a.22.22,0,0,1-.26.14l-1.07-.44a.21.21,0,0,1-.1-.28l.14-1.35,0-.06a7.8,7.8,0,0,1-.65-.59.26.26,0,0,1-.13.1l-1.36.06a.2.2,0,0,1-.27-.11l-.38-1.1a.22.22,0,0,1,.15-.25l.72-.5a6.85,6.85,0,0,1-.55-1.7l-1.06-.18a.22.22,0,0,1-.24-.17l-.13-1.15a.21.21,0,0,1,.2-.22l1.18-.48a6.14,6.14,0,0,1,.29-1.25l-.91-.83a.21.21,0,0,1-.11-.28l.52-1a.21.21,0,0,1,.29-.07l1.27.24a6.71,6.71,0,0,1,.77-.87l-.38-1.25a.2.2,0,0,1,0-.3l1-.63a.2.2,0,0,1,.28.08l1,.86a6.67,6.67,0,0,1,1.48-.46l.18-1.15a.23.23,0,0,1,.17-.25l1.15-.13c.11,0,.31.08.32.2l.62,1.26h0a11.92,11.92,0,0,0,1.15.31l.67-.76c.06-.1.16-.15.25-.1l1,.53a.21.21,0,0,1,.06.29l-.22,1a7.2,7.2,0,0,1,1,.93l1.3-.27a.21.21,0,0,1,.29.07l.53,1a.21.21,0,0,1-.11.28l-.83.78a6.54,6.54,0,0,1,.44,1.45l1.07.24a.19.19,0,0,1,.22.17l.07,1.16A.21.21,0,0,1,131.36,93.2Z"/><path class="cls-5" d="M133.42,494.12c2.8.84,42.09,4.44,52.17,0,0,0,4.92-1.41,8.75-8.85,1-2,2.46-4.68,4-7.58H121.08l4,8.17S130.59,493.31,133.42,494.12Z"/><path class="cls-6" d="M90.34,400.58l135.58-14.06c-.11-5.29-3.86-9.55-8.5-9.55H98.87c-4.71,0-8.53,4.38-8.53,9.78v13.82Z"/><path class="cls-6" d="M94.05,419.7,222.9,406.34a3.37,3.37,0,0,0,3-3.35v-5.58a3.37,3.37,0,0,0-3.72-3.35L93.36,407.41a3.37,3.37,0,0,0-3,3.35v5.58A3.37,3.37,0,0,0,94.05,419.7Z"/><path class="cls-6" d="M225.92,432.68,90.34,446.74v.51h0c.07,5.34,3.86,9.65,8.53,9.65h8.89l5.74,11.68a9.18,9.18,0,0,0,8.24,5.13h75.45a9.18,9.18,0,0,0,8.1-4.86l6.39-11.95h5.74c4.66,0,8.43-4.31,8.5-9.65h0v-.12s0,0,0,0,0,0,0,0Z"/><path class="cls-6" d="M223.1,425.83a3.15,3.15,0,0,0,2.83-3.13v-4.78s0,0,0,0,0,0,0,0v-1.17a3.15,3.15,0,0,0-3.47-3.13L93.16,426.94a3.15,3.15,0,0,0-2.83,3.13v6a3.15,3.15,0,0,0,3.47,3.13Z"/><rect class="cls-7" width="315.05" height="523.84"/></g></g></svg>