<?xml version="1.0" encoding="utf-8"?>
<!-- Generator: Adobe Illustrator 21.0.0, SVG Export Plug-In . SVG Version: 6.00 Build 0)  -->
<svg version="1.1" id="Capa_1" xmlns="http://www.w3.org/2000/svg" xmlns:xlink="http://www.w3.org/1999/xlink" x="0px" y="0px"
	 viewBox="0 0 315 523.8" style="enable-background:new 0 0 315 523.8;" xml:space="preserve">
<style type="text/css">
	.st0{fill:none;}
	.st1{fill:#43509C;}
	.st2{fill:#374081;}
	.st3{fill:#3F2F3E;}
	.st4{fill:#FCBA9F;}
	.st5{fill:#F8733C;}
	.st6{fill:#E1522B;}
	.st7{fill:#FFFFFF;}
	.st8{fill:#948270;}
	.st9{fill:#43200F;}
	.st10{fill:#72C058;}
	.st11{fill:#E5BBB1;}
	.st12{fill:#99CA56;}
	.st13{fill:#84320F;}
	.st14{fill:#BF8C6E;}
	.st15{fill:#BF8572;}
	.st16{fill:#693024;}
</style>
<g>
	<rect class="st0" width="315" height="523.8"/>
	<g>
		<g>
			<path class="st1" d="M167.5,296.7l0.4,30.7l0.8,63.2c0,0,0,0,0,0c0,10.1-8.3,18.3-18.5,18.3c-10,0-18.1-7.8-18.5-17.6l0-0.1
				c-1.9-13.5-5.1-35.6-7.7-54.5c-2.7-19.2-4.9-35-4.9-35C132.5,301.3,167.5,296.7,167.5,296.7z"/>
			<path class="st2" d="M167.5,296.7l0.4,30.7l-43.8,9.4c-2.7-19.2-4.9-35-4.9-35C132.5,301.3,167.5,296.7,167.5,296.7z"/>
		</g>
		<g>
			<path class="st1" d="M74,391l1.2-59.2l0.7-35.1c0,0,47.4,4.9,47.7,4.9c0,0-2.1,16.2-4.6,35.8c-2.4,18.5-5.2,40.1-7.2,53.8l0,0.1
				c0,10.4-8.5,18.8-19,18.8c-10.5,0-18.9-8.5-18.9-18.9C74,391.1,74,391,74,391z"/>
			<path class="st2" d="M76,296.7c0,0,47.4,4.9,47.7,4.9c0,0-2.1,16.2-4.6,35.8l-43.8-5.6L76,296.7z"/>
		</g>
		<g>
			<path class="st3" d="M169.3,484.2c0,0-5.1,2.8-11.2,2.9c-6,0.1-7.3-1.1-9-1.2c-1.7-0.1-3.2,0-3.2,0.9c-0.1,0.9,4.9,6.7,5.1,6.6
				c0.2-0.1,15.5-3.5,15.5-3.5l4.3-3.2L169.3,484.2z"/>
			<path class="st4" d="M156,422.2c2.4,42.2,8.4,68.3,8.4,68.3s-6.9,0-11.7,0.8c-3.7-21.8-6.6-45.8-9-69.1H156z"/>
			<path class="st5" d="M169.3,484.2c6.7,4.5,17.9,11.7,24.3,13.6c6.9,2,8.4,7.1,7.6,12.4c-6.8,6.5-22.9,12.2-35.7,0.3
				c-9.1-8.5-14.7-3.2-19.8-9.2c-1.8-4.8-1.2-11.6,0.2-14.6C155.1,493,165.3,487.5,169.3,484.2z"/>
			<path class="st6" d="M190.4,496.6c-2.8,1.1-5.4,2.8-7.6,5c-0.2-0.1-0.4-0.1-0.7-0.2c-5.8-1.7-15.8-7.9-22.5-12.4
				c4.2-1,7.7-3.2,9.7-4.8C175,488.1,183.9,493.8,190.4,496.6z"/>
			<path class="st6" d="M151.4,504.6c-2-0.4-3.9-1.1-5.7-3.2c-1.8-4.7-1.2-11.5,0.2-14.5C149.1,489.2,150.9,499,151.4,504.6z"/>
			<path class="st7" d="M188.7,496c1.7,0.8,3.4,1.5,4.7,1.9c6.8,2,8.3,7,7.5,12.2c-5.3,5-16.1,9.6-26.6,5.7
				c-0.1-0.3-0.1-0.6-0.1-0.9C173.1,507,179.3,499.3,188.7,496z"/>
			<path class="st8" d="M164.4,505.5c6.8,6.1,14.5,7.5,21.4,6.5c6.2-0.9,11.8-3.7,15.3-6.7c0.3,1.6,0.3,3.2,0.1,4.9
				c-3.3,3.1-8.8,6.1-15,7c-6.6,0.9-14.1-0.5-20.7-6.6c-9.1-8.5-14.7-3.2-19.8-9.2c-0.5-1.3-0.8-2.7-0.9-4.1
				C149.8,501.9,155.5,497.4,164.4,505.5z"/>
			<path class="st7" d="M164,506c7.8,7,16.2,7.5,22,6.7c5.3-0.7,10.7-3,14.7-6.1c0.1,1,0.1,2.1-0.1,3.3c-1.7,1.5-3.8,2.9-6.1,4
				c-2.7,1.3-5.5,2.2-8.4,2.6c-5.2,0.7-13,0.2-20.1-6.5c-5.1-4.7-9.2-5.3-12.5-5.8c-2.8-0.4-5-0.7-7.2-3.2c-0.2-0.7-0.4-1.4-0.6-2.2
				c2,1.2,4,1.5,6.1,1.8C155.2,501.1,159.1,501.6,164,506z"/>
			<g>
				<path class="st8" d="M175.9,515.8c-0.4-0.1-0.7-0.2-1.1-0.3l-0.5-3.6c0.4,0.1,0.7,0.2,1.1,0.3L175.9,515.8z"/>
				<path class="st8" d="M180.1,516.6c-0.3,0-0.7-0.1-1.1-0.1l-0.5-3.7c0.4,0,0.7,0.1,1.1,0.1L180.1,516.6z"/>
				<path class="st8" d="M184.3,516.7c-0.3,0-0.7,0-1,0.1l-0.5-3.8c0.4,0,0.7,0,1,0L184.3,516.7z"/>
				<path class="st8" d="M149.5,503.3c-0.4-0.2-0.7-0.3-1.1-0.6l-0.4-2.9c0.4,0.1,0.7,0.2,1.1,0.3L149.5,503.3z"/>
				<path class="st8" d="M157.9,505.1c-0.4-0.1-0.7-0.2-1.1-0.3l-0.5-3.4c0.4,0.1,0.7,0.2,1.1,0.4L157.9,505.1z"/>
				<path class="st8" d="M153.7,504.3c-0.1,0-0.2,0-0.2,0c-0.3,0-0.6-0.1-0.8-0.1l-0.5-3.5c0.3,0,0.7,0.1,1.1,0.2L153.7,504.3z"/>
				<path class="st8" d="M162.3,507.2c-0.4-0.2-0.8-0.5-1.1-0.7l-0.4-3c0.4,0.2,0.8,0.5,1.1,0.8L162.3,507.2z"/>
				<path class="st8" d="M188.3,516.1c-0.3,0.1-0.7,0.1-1,0.2l-0.5-3.7c0.3-0.1,0.7-0.1,1-0.2L188.3,516.1z"/>
				<path class="st8" d="M192.2,514.9c-0.3,0.1-0.7,0.2-1,0.4l-0.5-3.6c0.3-0.1,0.7-0.2,1-0.3L192.2,514.9z"/>
				<path class="st8" d="M171.5,514c-0.4-0.2-0.8-0.4-1.1-0.6l-0.5-3.3c0.4,0.2,0.7,0.4,1.1,0.5L171.5,514z"/>
				<path class="st8" d="M199.8,510.5c-0.3,0.3-0.6,0.5-0.9,0.7l-0.4-3.1c0.3-0.2,0.6-0.4,0.9-0.6L199.8,510.5z"/>
				<path class="st8" d="M196.1,513.1c-0.3,0.2-0.6,0.4-1,0.5l-0.5-3.4c0.3-0.1,0.7-0.3,1-0.5L196.1,513.1z"/>
				<path class="st8" d="M167,510.9c-0.3-0.3-0.7-0.6-1-0.9c-0.1,0-0.1-0.1-0.2-0.1l-0.4-2.7c0.4,0.3,0.8,0.6,1.2,0.9L167,510.9z"/>
			</g>
			<g>
				<path class="st7" d="M175,488c-3.8,1.8-7.6,4-10.7,7.5l-0.9-0.8c3-3.4,6.7-5.7,10.4-7.5C174.3,487.5,174.6,487.8,175,488z"/>
				<path class="st7" d="M180,491.1c-3.7,1.8-7.5,4-10.6,7.5l-0.9-0.8c3-3.4,6.6-5.6,10.3-7.4C179.2,490.6,179.6,490.8,180,491.1z"
					/>
				<path class="st7" d="M185.2,494.1c-3.8,1.8-7.7,4-10.8,7.6l-0.9-0.8c3-3.4,6.8-5.7,10.4-7.5
					C184.3,493.6,184.7,493.8,185.2,494.1z"/>
			</g>
			<g>
				
					<ellipse transform="matrix(0.9902 -0.1397 0.1397 0.9902 -68.3212 29.201)" class="st9" cx="173.9" cy="501.4" rx="2.1" ry="2.2"/>
				
					<ellipse transform="matrix(0.9902 -0.1397 0.1397 0.9902 -67.951 28.4882)" class="st9" cx="169" cy="498.3" rx="2.1" ry="2.2"/>
				
					<ellipse transform="matrix(0.9902 -0.1397 0.1397 0.9902 -67.5716 27.7474)" class="st9" cx="163.9" cy="495.3" rx="2.1" ry="2.2"/>
			</g>
			<path class="st1" d="M131.9,393.9c0-0.3,0-0.6,0-0.8c0-10.1,8.3-18.3,18.5-18.3c10.2,0,18.5,8.2,18.5,18.3c0,0,0,0.1,0,0.1h0
				l1.2,90.1l-25,3.2c0,0-6.6-47.8-13-92.5L131.9,393.9z"/>
		</g>
		<g>
			<path class="st3" d="M96.6,484c0,0-5.5,2-11.5,1.3c-6-0.7-7.1-2.1-8.8-2.4c-1.7-0.3-3.1-0.5-3.3,0.4c-0.2,0.9,3.9,7.3,4.1,7.2
				c0.2-0.1,15.8-1.3,15.8-1.3l4.7-2.6L96.6,484z"/>
			<path class="st4" d="M93.4,417c-4.2,45-1.8,73.8-1.8,73.8s-6.8-1-11.7-0.9c-0.6-23.1,0-48.5,1.1-72.9H93.4z"/>
			<path class="st5" d="M96.6,484c6,5.4,16.1,14.1,22.1,16.8c6.5,2.9,7.3,8.2,5.8,13.3c-7.7,5.4-24.4,8.9-35.4-4.7
				c-7.8-9.7-14.1-5.2-18.4-11.9c-1.1-5,0.4-11.7,2.3-14.4C81.3,490.7,92.2,486.8,96.6,484z"/>
			<path class="st6" d="M115.8,499.3c-3,0.7-5.7,2.1-8.2,3.9c-0.2-0.1-0.4-0.2-0.6-0.3c-5.5-2.5-14.5-10-20.6-15.4
				c4.3-0.4,8.1-2.1,10.3-3.4C101.7,488.6,109.8,495.6,115.8,499.3z"/>
			<path class="st6" d="M76,501.7c-2-0.7-3.7-1.7-5.2-4c-1.1-4.9,0.4-11.6,2.2-14.4C76,486.2,76.4,496,76,501.7z"/>
			<path class="st7" d="M114.2,498.4c1.6,1.1,3.1,1.9,4.4,2.5c6.4,2.9,7.2,8.1,5.7,13.1c-5.9,4.2-17.3,7.2-27.2,1.9
				c0-0.3,0-0.6,0-0.9C97.2,507.1,104.4,500.4,114.2,498.4z"/>
			<path class="st8" d="M88.9,504.4c5.9,7,13.3,9.5,20.3,9.5c6.3,0,12.2-2,16.1-4.5c0.1,1.6-0.1,3.2-0.6,4.9
				c-3.7,2.6-9.6,4.8-15.8,4.8c-6.7,0-13.9-2.5-19.5-9.5c-7.8-9.7-14.1-5.2-18.4-11.9c-0.3-1.3-0.4-2.8-0.4-4.2
				C74.9,498.8,81.2,495.2,88.9,504.4z"/>
			<path class="st7" d="M88.3,504.8c6.7,8,15,9.7,20.8,9.7c5.4,0,11-1.5,15.4-4c0,1-0.2,2.1-0.5,3.2c-1.9,1.3-4.1,2.4-6.6,3.2
				c-2.9,0.9-5.8,1.4-8.7,1.4c-5.3,0-12.9-1.6-19-9.2c-4.3-5.4-8.3-6.6-11.6-7.5c-2.7-0.8-4.9-1.4-6.7-4.2c-0.1-0.7-0.2-1.5-0.3-2.3
				c1.8,1.5,3.8,2,5.8,2.6C80.3,498.7,84.1,499.8,88.3,504.8z"/>
			<g>
				<path class="st8" d="M98.8,516.2c-0.3-0.2-0.7-0.3-1-0.5v-3.6c0.3,0.2,0.7,0.3,1,0.4V516.2z"/>
				<path class="st8" d="M102.8,517.6c-0.3-0.1-0.7-0.2-1-0.3v-3.8c0.3,0.1,0.7,0.2,1,0.3V517.6z"/>
				<path class="st8" d="M106.9,518.2c-0.3,0-0.7-0.1-1-0.1v-3.8c0.3,0,0.7,0.1,1,0.1V518.2z"/>
				<path class="st8" d="M74.3,500.2c-0.4-0.2-0.7-0.4-1-0.7v-3c0.3,0.2,0.7,0.3,1,0.4V500.2z"/>
				<path class="st8" d="M82.5,503.1c-0.3-0.2-0.7-0.3-1-0.5v-3.4c0.3,0.2,0.7,0.3,1,0.5V503.1z"/>
				<path class="st8" d="M78.4,501.7c-0.1,0-0.2,0-0.2-0.1c-0.3-0.1-0.5-0.2-0.8-0.2v-3.5c0.3,0.1,0.7,0.2,1,0.3V501.7z"/>
				<path class="st8" d="M86.6,505.8c-0.3-0.3-0.7-0.6-1-0.8v-3c0.3,0.3,0.7,0.6,1,0.9V505.8z"/>
				<path class="st8" d="M111,518.2c-0.3,0-0.7,0-1,0.1v-3.8c0.3,0,0.7,0,1,0V518.2z"/>
				<path class="st8" d="M115.1,517.6c-0.3,0.1-0.7,0.2-1,0.2v-3.7c0.3-0.1,0.7-0.1,1-0.2V517.6z"/>
				<path class="st8" d="M94.7,513.9c-0.3-0.2-0.7-0.5-1-0.8v-3.3c0.3,0.2,0.7,0.5,1,0.7V513.9z"/>
				<path class="st8" d="M123.2,514.3c-0.3,0.2-0.7,0.4-1,0.6v-3.2c0.3-0.2,0.7-0.3,1-0.5V514.3z"/>
				<path class="st8" d="M119.1,516.3c-0.3,0.1-0.7,0.3-1,0.4v-3.5c0.3-0.1,0.7-0.2,1-0.3V516.3z"/>
				<path class="st8" d="M90.6,510.1c-0.3-0.3-0.6-0.7-0.9-1.1c0-0.1-0.1-0.1-0.1-0.2v-2.7c0.3,0.4,0.7,0.7,1,1V510.1z"/>
			</g>
			<g>
				<path class="st7" d="M101.8,488.6c-4,1.3-8.1,2.9-11.6,5.9l-0.8-0.9c3.5-3,7.5-4.7,11.4-6C101.1,488,101.4,488.3,101.8,488.6z"
					/>
				<path class="st7" d="M106.2,492.3c-3.9,1.3-8,2.9-11.5,5.9l-0.8-0.9c3.4-2.9,7.3-4.6,11.2-5.9
					C105.5,491.7,105.9,492,106.2,492.3z"/>
				<path class="st7" d="M111,496c-4,1.3-8.2,2.9-11.8,6l-0.8-0.9c3.5-3,7.5-4.7,11.4-6C110.2,495.4,110.6,495.7,111,496z"/>
			</g>
			<g>
				<ellipse class="st9" cx="98.8" cy="501.7" rx="2.1" ry="2.2"/>
				<ellipse class="st9" cx="94.3" cy="497.9" rx="2.1" ry="2.2"/>
				<ellipse class="st9" cx="89.8" cy="494.2" rx="2.1" ry="2.2"/>
			</g>
			<path class="st1" d="M74,392.5L74,392.5c0-0.3,0-0.7,0-1c0-10.5,8.5-18.9,18.9-18.9c10.5,0,18.9,8.5,18.9,18.9c0,0.3,0,0.7,0,1
				l0,0.1c-6.3,44.9-12.8,93.2-12.8,93.2l-26.8-2.5L74,392.5z"/>
		</g>
		<g>
			<path class="st5" d="M166.8,197.6l15.5-10.6l19.9,38.1c1.1,1.9,1.8,4.2,1.3,6.5c-1,4.3-5.4,7-9.7,5.9c-2.2-0.5-4-2-5.1-3.8
				L166.8,197.6z"/>
			<path class="st10" d="M170.9,216.8l24.2-11.4l-25.7-59.3c-0.9-2.1-2.8-3.4-5-3.8c-11.9-2-25.5-1.9-28.3,8.9
				C133.7,160.2,170.9,216.8,170.9,216.8z"/>
			<path class="st7" d="M159.7,199.2c2.3,3.7,4.4,7.1,6.2,9.9l25-13.7l-3.7-8.5L159.7,199.2z"/>
		</g>
		<g>
			<path class="st11" d="M265.6,198.7c1,1.2,2.2,2.3,3.8,2.7c2,0.6,4.1,0.3,5.9-0.6c10.4,2.4,13.3,0.1,11.1-0.9
				c-1.4-0.7-3.2-1.1-4.8-1.4c4.4,0.6,11.6,1.1,12.1-0.8c0.4-1.5-4.2-2.5-8.7-2.8c13.1-0.7,15.6-1.5,16-3.1
				c0.8-2.7-4.7-2.8-17.6-1.9c11.5-1.3,21.7-3,20.6-5.6c-1-2.3-21-1.1-28.8,2.5c3.5-4.2,4.4-11.5,1.2-12.9
				c-3.1-1.4-10,13.4-10.6,14.7c-0.7,0.8-1.3,1.8-1.6,2.9c-0.3,1.1-0.4,2.2-0.2,3.3c-8.7,4-37.2,16.7-67,30.1l4.1,7.8
				C231.7,216.5,259.3,202.4,265.6,198.7z"/>
			<path class="st5" d="M188.7,233c-1.8-4.1,0-8.8,4.1-10.6c0.4-0.2,55.6-24.4,55.6-24.4l6,10.5l-54.8,28.4l0,0
				c-0.1,0-0.2,0.1-0.3,0.1C195.2,238.8,190.5,237,188.7,233z"/>
		</g>
		<g>
			<path class="st12" d="M161.5,145.3c0,0-28.9-5.4-37.8-5.4c-9,0-37.8,5.4-37.8,5.4L60.6,307.5c13.8,8.1,55.4,12.2,62.2,12.2
				c6.9,0,48.5-4.1,62.2-12.2L161.5,145.3z"/>
			<path class="st5" d="M125.4,192.9c-5,0-28.3-2.2-45.9-6.4l-1.7,11.2c17.8,4.4,41.8,6.7,46.8,6.7c4.9,0,27.1-2.1,44.6-6.1
				l-1.6-10.8C150.5,191,130,192.9,125.4,192.9z"/>
			<path class="st7" d="M125,182.8c-4.8,0-26.6-2-44-6l-1.5,9.7c17.7,4.3,41,6.4,45.9,6.4c4.6,0,25.1-1.9,42.2-5.6l-1.4-9.9
				C149.3,181,129.5,182.8,125,182.8z"/>
		</g>
		<g>
			<path class="st5" d="M57.4,193.6l17.1,7.9L52,238.1c-1.1,1.9-2.6,3.7-4.9,4.5c-4.2,1.3-8.7-1-10-5.2c-0.7-2.2-0.4-4.5,0.7-6.3
				L57.4,193.6z"/>
			<path class="st10" d="M43,207l22.2,14.9l37.6-52.5c1.3-1.8,1.5-4.2,0.7-6.3c-4.4-11.2-11.5-22.8-22.2-19.7
				C72.4,146,43,207,43,207z"/>
			<path class="st7" d="M52.3,188.3c-2,3.9-3.8,7.4-5.3,10.4l24.6,14.5l5.4-7.5L52.3,188.3z"/>
		</g>
		<g>
			<path class="st11" d="M120.2,227.4c0.6,1.5,1.4,2.8,2.8,3.8c1.8,1.2,3.9,1.6,5.8,1.2c9.2,5.4,12.7,4,10.9,2.4
				c-1.2-1.1-2.8-2-4.2-2.7c4.1,1.9,10.7,4.6,11.8,2.9c0.8-1.4-3.3-3.7-7.5-5.3c12.7,3.2,15.3,3.2,16.2,1.9
				c1.6-2.4-3.6-4.1-16.2-7.1c11.4,2.3,21.6,3.7,21.3,0.8c-0.3-2.5-19.7-7.4-28.3-6.2c4.6-2.9,7.6-9.6,5-12
				c-2.6-2.3-13.6,9.8-14.5,10.9c-0.9,0.6-1.8,1.3-2.4,2.3c-0.6,0.9-1,2-1.2,3c-9.5,1.2-40.5,4.8-72.9,8.6l1.5,8.6
				C82.6,234.2,113.1,229,120.2,227.4z"/>
			<path class="st5" d="M36.6,237.1c-0.5-4.4,2.6-8.4,7.1-8.9c0.5-0.1,60.3-6.6,60.3-6.6l2.6,11.8l-60.7,10.7l0,0
				c-0.1,0-0.2,0-0.3,0C41.1,244.6,37.1,241.5,36.6,237.1z"/>
		</g>
		<path class="st11" d="M131.9,152.6c0,0-3,2.9-7.6,2.3c-4.6-0.7-6.3-4.5-6.3-4.5l4.8-29.3l13.9,2.3L131.9,152.6z"/>
		<path class="st11" d="M129.7,137.8l-12.9-2.1c-27.9-4.4-47.1-30.9-42.7-58.8l1-6.3c4.4-27.9,30.9-47.1,58.8-42.7l12.9,2.1
			c27.9,4.4,47.1,30.9,42.7,58.8l-1,6.3C184.1,123.1,157.7,142.3,129.7,137.8z"/>
		<g>
			<path class="st13" d="M210.5,53.5C210.5,53.5,210.5,53.5,210.5,53.5C210.5,53.5,210.5,53.5,210.5,53.5z"/>
			<path class="st13" d="M51.7,85.6c0.1,0.3,0.2,0.7,0.3,1C51.9,86.2,51.8,85.9,51.7,85.6z"/>
			<path class="st13" d="M211.5,53.3c0.1,0,0.1,0,0.2,0C211.6,53.3,211.6,53.3,211.5,53.3z"/>
			<path class="st13" d="M52.9,89.4c0.1,0.3,0.2,0.6,0.3,1C53.1,90,53,89.7,52.9,89.4z"/>
			<path class="st13" d="M204.8,54.1c-0.1,0-0.2,0-0.3,0C204.6,54.2,204.7,54.1,204.8,54.1z"/>
			<path class="st13" d="M209.2,53.7c0.1,0,0.1,0,0.2,0C209.3,53.7,209.3,53.7,209.2,53.7z"/>
			<path class="st13" d="M52.2,87.4c0.1,0.3,0.2,0.7,0.3,1C52.4,88.1,52.3,87.8,52.2,87.4z"/>
			<path class="st13" d="M207.8,53.9c0,0,0.1,0,0.1,0C207.9,53.9,207.8,53.9,207.8,53.9z"/>
			<path class="st13" d="M212.5,53.1c0.1,0,0.1,0,0.2,0C212.6,53,212.6,53.1,212.5,53.1z"/>
			<path class="st13" d="M215.6,49.6c0,0.1,0,0.1,0.1,0.2C215.7,49.7,215.6,49.6,215.6,49.6z"/>
			<path class="st13" d="M215.8,50c0,0,0,0.1,0,0.1C215.8,50.1,215.8,50,215.8,50z"/>
			<path class="st13" d="M215.8,50.3c0,0,0,0.1,0,0.1C215.8,50.4,215.8,50.4,215.8,50.3z"/>
			<path class="st13" d="M206.3,54c0.1,0,0.1,0,0.2,0C206.4,54,206.4,54,206.3,54z"/>
			<path class="st13" d="M215.8,50.9c0,0,0-0.1,0-0.1C215.8,50.8,215.8,50.8,215.8,50.9z"/>
			<path class="st13" d="M215.4,49.1c0.1,0.1,0.1,0.2,0.1,0.2C215.4,49.3,215.4,49.2,215.4,49.1z"/>
			<path class="st13" d="M49.3,72.4c0.9,4.3,2.3,10.2,4,14.2c2,4.7,3,7.9,5.8,12.2c2.2,3.4,7,8.1,11.4,8.9c4.1,0.8,6.2-2.5,8.1-5.6
				c3-4.8,5.3-9.9,7.6-15.1c2.6-5.8,5.2-11.5,8.8-16.8c2.8-4.1,6.1-7.8,9.5-11.4c-2,3.7-3.7,7.8-3.2,11.9c0.1,0.5,0.5,0.7,0.9,0.6
				c5-1.4,9-4.8,12.9-8.1c-1.6,2.2-2.8,4.5-2.7,7c0,0.4,0.6,0.7,0.9,0.6c6.8-3.5,12.9-8.1,18.8-12.9c-2.6,4.3-5.9,11-1.4,10.9
				c3.1-0.1,6.5-4,8.5-6c2.3-2.3,4.6-4.6,6.6-7.1c0,5.9,3,16.2,8,15.6c3.5-0.4,5.5-4.7,7-7.5c1.3-2.5,2.2-5.1,3.1-7.7
				c0.1,5.6,5.3,17.2,7.3,16.1c2.2-1.3,3.8-5.8,4-10.1c1.2,3.8,3.3,7.8,7,5.9c2.6-1.4,2.2-5.3,1.2-8.9c1.2,1.9,2.5,3.7,4.1,5.3
				c1.7,1.8,5.6,4.7,8.4,3.5c2.1-0.9,1.9-3.2,1-5.7c2.9,3.1,6.1,5.3,7.7,2.2c1.6-3.1-1.4-6.4-3.4-8.5c-2-2.1-4.2-3.9-6.5-5.6
				c5.5,1.9,10.9,4.2,16.7,1.4c1.7-0.8,2.8-1.9,3.3-3c-1.6-1.7-4.8-3.5-8-5.1c-8.6-4-14.8-2.6-14.8-2.6s9.1-9.6,5.5-9.9
				c-3.6-0.3-9.9,4.3-9.9,4.3C169.3,5.5,125.1-1.5,91.4,12.9C57.8,27.3,55.8,48.3,55.8,48.3s-1.1-8-3.6-5.9
				c-2.5,2.1,1.4,8.9,1.4,8.9c-6.6-0.4-9.1,7.4-7,5.8c2.1-1.6,4.9-1,4.9-1C50.4,58.5,48.8,64.2,49.3,72.4z"/>
			<path class="st13" d="M215.2,48.9c0-0.1-0.1-0.1-0.1-0.2C215.1,48.8,215.2,48.9,215.2,48.9z"/>
			<path class="st13" d="M214.1,52.5c0,0-0.1,0-0.1,0.1C214,52.5,214.1,52.5,214.1,52.5z"/>
			<path class="st13" d="M213.4,52.8C213.4,52.8,213.3,52.8,213.4,52.8C213.3,52.8,213.4,52.8,213.4,52.8z"/>
			<path class="st13" d="M56.6,98.4c-0.1-0.2-0.2-0.4-0.3-0.6C56.4,98,56.5,98.2,56.6,98.4z"/>
			<path class="st13" d="M214.7,52.2C214.7,52.2,214.7,52.2,214.7,52.2C214.7,52.2,214.7,52.2,214.7,52.2z"/>
			<path class="st13" d="M55.6,96.3c-0.1-0.3-0.2-0.5-0.3-0.8C55.4,95.8,55.5,96.1,55.6,96.3z"/>
			<path class="st13" d="M215.6,51.2c0,0,0-0.1,0.1-0.1C215.7,51.2,215.7,51.2,215.6,51.2z"/>
			<path class="st13" d="M51.2,83.7c0.1,0.3,0.2,0.7,0.3,1C51.4,84.4,51.3,84.1,51.2,83.7z"/>
			<path class="st13" d="M54.7,94.3c-0.1-0.3-0.2-0.6-0.4-0.9C54.5,93.7,54.6,94,54.7,94.3z"/>
			<path class="st13" d="M215,51.9c0,0,0.1-0.1,0.1-0.1C215.1,51.9,215.1,51.9,215,51.9z"/>
			<path class="st13" d="M215.4,51.6C215.4,51.5,215.5,51.5,215.4,51.6C215.5,51.5,215.4,51.5,215.4,51.6z"/>
			<path class="st13" d="M50.1,78.5c0.1,0.4,0.1,0.7,0.2,1.1C50.2,79.3,50.1,78.9,50.1,78.5z"/>
			<path class="st13" d="M53.9,92.3c-0.1-0.3-0.2-0.6-0.3-0.9C53.7,91.7,53.8,92,53.9,92.3z"/>
			<path class="st13" d="M50.8,81.9c0.1,0.4,0.2,0.7,0.3,1.1C50.9,82.6,50.8,82.3,50.8,81.9z"/>
			<path class="st13" d="M49.8,76.9c0.1,0.4,0.1,0.7,0.2,1.1C49.9,77.7,49.9,77.3,49.8,76.9z"/>
			<path class="st13" d="M50.4,80.2c0.1,0.4,0.1,0.7,0.2,1.1C50.5,80.9,50.5,80.6,50.4,80.2z"/>
			<path class="st13" d="M49.6,75.4c0,0.4,0.1,0.8,0.1,1.1C49.7,76.1,49.7,75.7,49.6,75.4z"/>
			<path class="st13" d="M49.3,72.4c0,0.4,0.1,0.8,0.1,1.1C49.4,73.2,49.4,72.8,49.3,72.4z"/>
			<path class="st13" d="M49.5,73.9c0,0.4,0.1,0.8,0.1,1.1C49.5,74.6,49.5,74.2,49.5,73.9z"/>
		</g>
		<path class="st14" d="M156.4,109.3c-1.2-3.2-5.5-1.9-7.6-0.5c-0.2,0.1,0,0.3,0.2,0.3c1.7-0.6,4.9-1.2,5.9,0.8
			c0.8,1.6-1.4,3-2.4,3.6c-0.2,0.1-0.3,0.6,0,0.7C155,114.6,157.3,111.6,156.4,109.3z"/>
		<path class="st15" d="M126.8,120.4c0.2,6.7,4.8,12.3,11.1,12.9c6.3,0.6,11.9-4,13.4-10.5L126.8,120.4z"/>
		<g>
			<path class="st16" d="M126.9,94.4c-0.4,3.9-2.6,6.9-4.9,6.6c-2.3-0.3-3.8-3.6-3.4-7.5c0.4-3.9,2.6-6.8,4.9-6.6
				C125.9,87.2,127.4,90.5,126.9,94.4z"/>
			<path class="st7" d="M126,91.6c-0.1,1.2-0.8,2.1-1.5,2c-0.7-0.1-1.1-1.1-1-2.2c0.1-1.2,0.8-2.1,1.5-2
				C125.7,89.4,126.1,90.4,126,91.6z"/>
		</g>
		<g>
			<path class="st16" d="M169.4,94.1c-0.4,3.9-2.6,6.9-4.9,6.6c-2.3-0.3-3.8-3.6-3.4-7.5c0.4-3.9,2.6-6.8,4.9-6.6
				C168.3,86.9,169.8,90.2,169.4,94.1z"/>
			<path class="st7" d="M168.5,91.3c-0.1,1.2-0.8,2.1-1.5,2c-0.7-0.1-1.1-1.1-1-2.2c0.1-1.2,0.8-2.1,1.5-2
				C168.2,89.1,168.6,90.1,168.5,91.3z"/>
		</g>
		<path class="st13" d="M117.8,78.2c3.5-0.8,7.1-0.4,10.1,1c-2.3-3.6-6.6-5.5-10.9-4.5c-4.3,1-7.4,4.6-7.9,8.8
			C111.3,80.9,114.2,79,117.8,78.2z"/>
		<path class="st13" d="M165.6,79.1c3.6-0.2,7,0.8,9.8,2.7c-1.6-3.9-5.6-6.5-10-6.3c-4.4,0.3-8.1,3.3-9.3,7.3
			C158.7,80.7,162,79.3,165.6,79.1z"/>
		<path class="st11" d="M87.2,87.3c0,0-2,8.2-2.5,14.2c-0.7,4.1-11.7,2.4-11.9-7.2C72.6,84.7,82.4,81.7,87.2,87.3z"/>
		<path class="st14" d="M83.3,98.8c0,0,0.2-0.5,0.1-1.4c0-0.2-0.1-0.4-0.1-0.7c-0.1-0.2-0.1-0.5-0.2-0.7c-0.2-0.5-0.5-1-0.9-1.4
			l-0.6-0.6c-0.2-0.2-0.5-0.3-0.7-0.4c-0.2-0.1-0.4-0.2-0.7-0.3c-0.2-0.1-0.4-0.1-0.6-0.2C78.8,93,78.3,93,78.3,93s0.4,0.5,0.9,0.9
			c0.1,0.1,0.3,0.2,0.4,0.4c0.1,0.2,0.3,0.3,0.4,0.5c0.2,0.1,0.3,0.3,0.5,0.4l0.4,0.5c0.3,0.3,0.6,0.7,0.9,1
			c0.1,0.2,0.2,0.3,0.4,0.5c0.1,0.2,0.3,0.3,0.3,0.5C83,98.4,83.3,98.8,83.3,98.8z"/>
	</g>
</g>
</svg>
