<svg xmlns="http://www.w3.org/2000/svg" xmlns:xlink="http://www.w3.org/1999/xlink" viewBox="0 0 315.05 523.84"><defs><style>.cls-1{isolation:isolate;}.cls-2{fill:#ddc797;}.cls-3{fill:#bfa46d;}.cls-11,.cls-12,.cls-14,.cls-15,.cls-18,.cls-19,.cls-26,.cls-31,.cls-34,.cls-35,.cls-36,.cls-37,.cls-38,.cls-4{fill:none;}.cls-37,.cls-4{stroke:#fff;}.cls-12,.cls-14,.cls-15,.cls-18,.cls-19,.cls-26,.cls-31,.cls-34,.cls-35,.cls-36,.cls-37,.cls-4{stroke-miterlimit:10;}.cls-4{stroke-width:1.46px;}.cls-5{fill:#c6704e;}.cls-6{fill:url(#linear-gradient);}.cls-15,.cls-31,.cls-35,.cls-7{opacity:0.3;}.cls-27,.cls-28,.cls-8{fill:#664138;}.cls-9{fill:url(#linear-gradient-2);}.cls-10,.cls-13,.cls-17{fill:#7a4944;}.cls-11,.cls-12{stroke:#c6704e;stroke-width:3.28px;}.cls-11{stroke-linejoin:round;}.cls-13{opacity:0.1;mix-blend-mode:screen;}.cls-14,.cls-19,.cls-36{stroke:#664138;}.cls-14,.cls-19{stroke-width:3.24px;}.cls-15,.cls-31,.cls-35{stroke:#f9e1af;stroke-linecap:round;}.cls-15{stroke-width:1.09px;stroke-dasharray:2.73 3.28;}.cls-16,.cls-25,.cls-26,.cls-28{opacity:0.4;}.cls-17,.cls-27{mix-blend-mode:darken;}.cls-18,.cls-34{stroke:#bc6b47;}.cls-18{stroke-width:3.82px;}.cls-19,.cls-36{opacity:0.2;}.cls-19,.cls-25,.cls-26,.cls-36{mix-blend-mode:multiply;}.cls-20{fill:#cc8352;}.cls-21{fill:url(#linear-gradient-3);}.cls-22{fill:#874f42;}.cls-23{fill:#b1abba;}.cls-24{fill:#837e8c;}.cls-25{fill:#918c99;}.cls-26{stroke:#918c99;stroke-width:1.56px;}.cls-29{fill:url(#linear-gradient-4);}.cls-30{fill:url(#linear-gradient-5);}.cls-31{stroke-width:1.29px;stroke-dasharray:2.57 2.57;}.cls-32{fill:#d6d6d6;}.cls-33{fill:#fff;opacity:0.51;}.cls-34{stroke-width:4.01px;}.cls-35{stroke-width:1.15px;stroke-dasharray:2.87 3.44;}.cls-36{stroke-width:3.39px;}.cls-37{stroke-width:0.73px;}</style><linearGradient id="linear-gradient" x1="-6758.95" y1="-6959.09" x2="-6758.95" y2="-6741.41" gradientTransform="translate(-6716.3 6950.99) rotate(90)" gradientUnits="userSpaceOnUse"><stop offset="0" stop-color="#a75d3a"/><stop offset="1" stop-color="#904d34"/></linearGradient><linearGradient id="linear-gradient-2" x1="-6849.7" y1="-6940.74" x2="-6849.7" y2="-6753.49" gradientTransform="translate(-6744 6957.25) rotate(90)" xlink:href="#linear-gradient"/><linearGradient id="linear-gradient-3" x1="-6668.58" y1="-6939.96" x2="-6668.58" y2="-6753.49" gradientTransform="translate(-6688.11 6948.56) rotate(90)" xlink:href="#linear-gradient"/><linearGradient id="linear-gradient-4" x1="-6668.11" y1="11235.84" x2="-6668.11" y2="11355.2" gradientTransform="matrix(0.31, 0.95, 0.75, -0.24, -6154.84, 9343.16)" xlink:href="#linear-gradient"/><linearGradient id="linear-gradient-5" x1="-6668.11" y1="11223.11" x2="-6668.11" y2="11355.9" gradientTransform="matrix(0.31, 0.95, 0.75, -0.24, -6154.84, 9343.16)" gradientUnits="userSpaceOnUse"><stop offset="0" stop-color="#c8713d"/><stop offset="1" stop-color="#b16137"/></linearGradient></defs><title>Feedback_1</title><g class="cls-1"><g id="Capa_2" data-name="Capa 2"><g id="Layer_1" data-name="Layer 1"><path class="cls-2" d="M104.91,146.57,91.23,221.65h0a5.21,5.21,0,0,1-6.05,4.19l-.23-.05L80,250.29l-31.8-1.47A71.28,71.28,0,0,0,83.4,305.57L43.48,516.66H146l40.09-204a55.6,55.6,0,0,0,27.53-37.36h0L232.91,169.9Z"/><path class="cls-3" d="M208,122.94a14.58,14.58,0,0,1,23.68,17l-8.14,11a14.59,14.59,0,0,1-23.68-17Z"/><path class="cls-3" d="M197.44,88.14a14.59,14.59,0,0,1,27.85,8.69L217.61,120a14.59,14.59,0,1,1-27.85-8.69Z"/><path class="cls-3" d="M173.9,29.83a14.59,14.59,0,0,1,28.84,4.38l-7.1,40a14.59,14.59,0,1,1-28.84-4.38Z"/><line class="cls-4" x1="211.48" y1="185.98" x2="115.73" y2="168.53"/><path class="cls-4" d="M91.22,221.65a57.29,57.29,0,0,1,46.11,66.67"/><line class="cls-4" x1="202.06" y1="234.02" x2="111.12" y2="193.85"/><polygon class="cls-3" points="98.66 308.19 83.5 305.43 80.16 323.75 98.66 308.19"/><path class="cls-5" d="M279.78,323.79,178.46,11.33a6,6,0,0,0-7.57-3.86L42.63,49.2a6,6,0,0,0-3.86,7.57L140,369.1a6,6,0,0,0,7.57,3.86l128.31-41.6A6,6,0,0,0,279.78,323.79ZM146.6,369.85a2.73,2.73,0,0,1-3.44-1.76L41.89,55.76a2.74,2.74,0,0,1,1.76-3.44L171.91,10.59a2.74,2.74,0,0,1,3.44,1.75L276.66,324.8a2.73,2.73,0,0,1-1.76,3.44Z"/><rect class="cls-6" x="77.92" y="21.93" width="152.36" height="340.21" rx="6.55" ry="6.55" transform="translate(-51.72 56.9) rotate(-17.97)"/><g class="cls-7"><path class="cls-8" d="M172.83,14a2.19,2.19,0,0,0-2.75-1.4L34.5,56.58a2.19,2.19,0,0,0-1.4,2.75L73.69,184.52,75,188.68l1.68,5.2L78.07,198,88.17,229.2l1.35,4.16L90.7,237,92,241.14,134,370.49a2.19,2.19,0,0,0,2.75,1.4l135.58-44a2.19,2.19,0,0,0,1.4-2.75Z"/></g><rect class="cls-8" x="94.39" y="27.45" width="124.51" height="326.56" transform="translate(-51.19 57.62) rotate(-17.97)"/><rect class="cls-8" x="81.92" y="164.31" width="131.06" height="55.15" rx="0.99" ry="0.99" transform="translate(-52 54.84) rotate(-17.97)"/><rect class="cls-9" x="54.92" y="35.73" width="131.06" height="143.62" transform="translate(-27.3 42.4) rotate(-17.97)"/><rect class="cls-10" x="82.17" y="183.39" width="131.06" height="18.57" transform="translate(-52.23 54.95) rotate(-17.97)"/><polyline class="cls-11" points="79.53 194.88 204.2 154.45 160.52 19.73 166.75 17.71 266.64 325.76 260.4 327.78 215.77 190.12 91.1 230.54"/><polyline class="cls-12" points="224.42 216.79 215.54 189.43 209.17 173.31 204.71 156.01 182.59 87.79"/><rect class="cls-13" x="82.22" y="190.49" width="129.29" height="4.91" transform="translate(-52.35 54.71) rotate(-17.97)"/><path class="cls-14" d="M169.19,156.24"/><rect class="cls-15" x="80.25" y="26.07" width="145.81" height="333.14" rx="3.82" ry="3.82" transform="translate(-51.95 56.63) rotate(-17.97)"/><g class="cls-16"><rect class="cls-17" x="110.05" y="228.26" width="10.83" height="144.53" transform="translate(-87.07 50.27) rotate(-17.97)"/></g><g class="cls-16"><rect class="cls-17" x="52.57" y="50.13" width="21.75" height="144.53" transform="translate(-34.66 25.54) rotate(-17.97)"/></g><path class="cls-15" d="M230.12,335.89l-80.34,26.05a3.83,3.83,0,0,1-4.82-2.46L104.81,235.66a3.83,3.83,0,0,1,2.46-4.82l80-25.94"/><line class="cls-18" x1="138.37" y1="32.47" x2="177.61" y2="153.5"/><line class="cls-15" x1="134.69" y1="34.43" x2="173.49" y2="154.08"/><line class="cls-19" x1="141.29" y1="31.74" x2="180.53" y2="152.77"/><line class="cls-18" x1="107.29" y1="42.55" x2="146.53" y2="163.58"/><line class="cls-15" x1="103.61" y1="44.5" x2="142.41" y2="164.15"/><line class="cls-19" x1="110.21" y1="41.81" x2="149.45" y2="162.85"/><line class="cls-18" x1="75.84" y1="52.74" x2="115.08" y2="173.78"/><line class="cls-15" x1="72.16" y1="54.7" x2="110.96" y2="174.35"/><line class="cls-19" x1="78.76" y1="52.01" x2="118" y2="173.05"/><path class="cls-8" d="M257.27,331.11l-38.62,12.52a4.93,4.93,0,0,1-6.19-3.16L170.8,212a4.93,4.93,0,0,1,3.16-6.19l38.62-12.52"/><path class="cls-20" d="M256.09,325.78a2.86,2.86,0,0,1-1.84,3.6l-36.88,12a2.86,2.86,0,0,1-3.6-1.84L172.16,211.17a2.86,2.86,0,0,1,1.84-3.6l36.88-12a2.86,2.86,0,0,1,3.6,1.84l41.61,128.34m2-.63L216.43,196.81a4.93,4.93,0,0,0-6.19-3.16l-36.88,12a4.93,4.93,0,0,0-3.16,6.19l41.61,128.34A4.93,4.93,0,0,0,218,343.3l36.88-12a4.93,4.93,0,0,0,3.16-6.19Z"/><rect class="cls-21" x="110.62" y="206.8" width="130.51" height="146.35" rx="2.14" ry="2.14" transform="translate(-77.78 67.9) rotate(-17.97)"/><circle class="cls-22" cx="177.03" cy="280.76" r="8.65" transform="translate(-77.97 68.29) rotate(-17.97)"/><circle class="cls-23" cx="177.03" cy="280.76" r="6.92" transform="translate(-77.97 68.29) rotate(-17.97)"/><circle class="cls-24" cx="177.03" cy="280.76" r="2.82" transform="translate(-77.97 68.29) rotate(-17.97)"/><path class="cls-25" d="M178.41,280.31a2.82,2.82,0,0,1-1.19,3.26,2.82,2.82,0,1,0-1.69-5.2A2.82,2.82,0,0,1,178.41,280.31Z"/><circle class="cls-26" cx="177.03" cy="280.76" r="5.28" transform="translate(-77.97 68.29) rotate(-17.97)"/><rect class="cls-5" x="231.84" y="188.63" width="5.92" height="145.46" transform="translate(-69.17 85.17) rotate(-17.97)"/><rect class="cls-27" x="113.51" y="225.96" width="6.83" height="146.31" transform="translate(-86.56 50.65) rotate(-17.97)"/><polygon class="cls-28" points="90.64 229.12 88.78 223.41 212.94 187.17 213.62 189.24 90.64 229.12"/><path class="cls-29" d="M245.8,334.26,278,323.8a6.55,6.55,0,0,0,4.2-8.22l-40.84-126a6.55,6.55,0,0,0-8.22-4.2l-32.24,10.45"/><path class="cls-30" d="M239.07,336.44l36.56-11.86a6.55,6.55,0,0,0,4.2-8.22L239,190.41a6.55,6.55,0,0,0-8.22-4.2L194.2,198.07"/><path class="cls-31" d="M238.06,333.32l33.62-10.9a5.09,5.09,0,0,0,3.26-6.39L235.05,193a5.09,5.09,0,0,0-6.39-3.26l-35.3,11.45"/><circle class="cls-22" cx="244.63" cy="258.84" r="8.65" transform="translate(-67.91 88.08) rotate(-17.97)"/><circle class="cls-23" cx="244.63" cy="258.84" r="6.92" transform="translate(-67.91 88.08) rotate(-17.97)"/><circle class="cls-32" cx="244.63" cy="258.84" r="2.82" transform="translate(-67.91 88.08) rotate(-17.97)"/><circle class="cls-26" cx="244.63" cy="258.84" r="5.28" transform="translate(-67.91 88.08) rotate(-17.97)"/><path class="cls-33" d="M246,258.39a2.82,2.82,0,0,1-1.19,3.26,2.82,2.82,0,1,0-1.69-5.2A2.82,2.82,0,0,1,246,258.39Z"/><line class="cls-34" x1="188.93" y1="201.81" x2="232.15" y2="335.09"/><line class="cls-35" x1="185.28" y1="203.84" x2="228" y2="335.6"/><line class="cls-36" x1="191.86" y1="201.1" x2="235.07" y2="334.38"/><path class="cls-2" d="M222.87,150.89a14.59,14.59,0,0,1,18.08,22.9l-5.22,4.06A14.59,14.59,0,0,1,217.65,155Z"/><path class="cls-37" d="M225.44,168.43a9.66,9.66,0,0,1,.42-13.66l13.23,14.08A9.66,9.66,0,0,1,225.44,168.43Z"/><path class="cls-2" d="M215,113.44a14.59,14.59,0,0,1,23.69,17l-8.14,11a14.59,14.59,0,0,1-23.68-17Z"/><path class="cls-37" d="M218.66,133.66a9.66,9.66,0,0,1-2.75-13.38L232,130.91A9.66,9.66,0,0,1,218.66,133.66Z"/><path class="cls-2" d="M201.71,75.18a14.59,14.59,0,0,1,27.85,8.69l-4.27,13a14.59,14.59,0,0,1-27.85-8.69Z"/><path class="cls-37" d="M211.54,93.21a9.66,9.66,0,0,1-6.84-11.83l18.66,5A9.65,9.65,0,0,1,211.54,93.21Z"/><path class="cls-2" d="M84.94,225.79a5.2,5.2,0,0,1-4-6h0l9.89-54.28a29.13,29.13,0,0,0-23.43-33.88L49.26,231.35h0a71.23,71.23,0,0,0-1,17.48L80,250.29Z"/><path class="cls-37" d="M63.33,154.48l12.8,2.33A13.07,13.07,0,0,0,65.62,141.6"/><rect class="cls-38" width="315.05" height="523.84"/></g></g></g></svg>