<svg xmlns="http://www.w3.org/2000/svg" xmlns:xlink="http://www.w3.org/1999/xlink" viewBox="0 0 248.71 108.94"><defs><style>.cls-1{fill:none;opacity:0.8;}.cls-2{fill:#5a9a96;}.cls-3{fill:#cde5ea;}.cls-4{fill:#abcdca;}.cls-5{fill:#7cb3b2;}.cls-6{fill:#f1d441;}.cls-7{fill:#fff;}.cls-8{fill:#42bb99;}.cls-9{fill:#1ca68d;}.cls-10{fill:#659f9c;}.cls-11,.cls-12,.cls-13,.cls-14{fill-rule:evenodd;}.cls-11{fill:url(#Degradado_sin_nombre_10);}.cls-12{fill:url(#Degradado_sin_nombre_10-2);}.cls-13{fill:url(#Degradado_sin_nombre_10-3);}.cls-14{fill:url(#Degradado_sin_nombre_10-4);}</style><linearGradient id="Degradado_sin_nombre_10" x1="161" y1="46.03" x2="161" y2="42.2" gradientUnits="userSpaceOnUse"><stop offset="0" stop-color="#fff" stop-opacity="0"/><stop offset="0" stop-color="#f8fbfb" stop-opacity="0.03"/><stop offset="0.69" stop-color="#6ea4a1" stop-opacity="0.95"/><stop offset="1" stop-color="#659f9c"/></linearGradient><linearGradient id="Degradado_sin_nombre_10-2" x1="2601.33" y1="11034.7" x2="2601.33" y2="11030.87" gradientTransform="translate(2762.27 11072.86) rotate(180)" xlink:href="#Degradado_sin_nombre_10"/><linearGradient id="Degradado_sin_nombre_10-3" x1="125.73" y1="46.03" x2="125.73" y2="42.2" xlink:href="#Degradado_sin_nombre_10"/><linearGradient id="Degradado_sin_nombre_10-4" x1="2636.61" y1="11034.7" x2="2636.61" y2="11030.87" gradientTransform="translate(2762.27 11072.86) rotate(180)" xlink:href="#Degradado_sin_nombre_10"/></defs><title>Insumo_casa_6</title><g id="Capa_2" data-name="Capa 2"><g id="Layer_1" data-name="Layer 1"><rect class="cls-1" width="248.71" height="108.94"/><rect class="cls-2" x="64.77" y="71.03" width="124.89" height="12.54"/><path class="cls-3" d="M186.69,57.65c0-.35.05-.7.05-1.05V35.73a10.11,10.11,0,0,0-9.87-10.34h-105A10.11,10.11,0,0,0,62,35.73V56.59c0,.36,0,.71.05,1.05Z"/><rect class="cls-4" x="68.53" y="58.51" width="111.65" height="12.63"/><path class="cls-5" d="M69.51,87.22V53a7.54,7.54,0,0,0-15.08,0V87.22Z"/><path class="cls-5" d="M194.28,87.22V53a7.54,7.54,0,0,0-15.08,0V87.22Z"/><rect class="cls-6" x="70.63" y="31.56" width="28.25" height="26.27" rx="3.08" ry="3.08" transform="translate(-5.65 12.95) rotate(-8.46)"/><path class="cls-7" d="M97.15,53.77a2.23,2.23,0,1,1-3.37-2.86c1.6-1.89,4.59-2,4.59-2S98.76,51.89,97.15,53.77Z"/><path class="cls-7" d="M95.88,45.23a2.23,2.23,0,1,1-3.37-2.86c1.6-1.89,4.59-2,4.59-2S97.49,43.34,95.88,45.23Z"/><path class="cls-7" d="M94.61,36.68a2.23,2.23,0,1,1-3.37-2.86c1.6-1.89,4.59-2,4.59-2S96.22,34.8,94.61,36.68Z"/><path class="cls-7" d="M91.4,47.28a2.23,2.23,0,1,1-2.2,3.83C87,49.88,86.41,47,86.41,47S89.25,46,91.4,47.28Z"/><path class="cls-7" d="M90.13,38.74a2.23,2.23,0,1,1-2.2,3.83c-2.15-1.23-2.79-4.15-2.79-4.15S88,37.51,90.13,38.74Z"/><path class="cls-7" d="M84.45,31.47A5.79,5.79,0,0,0,86.65,34a2.2,2.2,0,0,0,2.88-3.31Z"/><rect class="cls-7" x="91.74" y="30.5" width="0.36" height="26.27" transform="translate(-5.42 13.99) rotate(-8.46)"/><path class="cls-7" d="M72.14,34.15A2.23,2.23,0,1,1,75.51,37c-1.6,1.89-4.59,2-4.59,2S70.54,36,72.14,34.15Z"/><path class="cls-7" d="M73.41,42.7a2.23,2.23,0,1,1,3.37,2.86c-1.6,1.89-4.59,2-4.59,2S71.81,44.59,73.41,42.7Z"/><path class="cls-7" d="M74.68,51.24a2.23,2.23,0,1,1,3.37,2.86c-1.6,1.89-4.59,2-4.59,2S73.08,53.13,74.68,51.24Z"/><path class="cls-7" d="M77.9,40.64a2.23,2.23,0,1,1,2.2-3.83C82.25,38,82.89,41,82.89,41S80,41.88,77.9,40.64Z"/><path class="cls-7" d="M79.17,49.19a2.23,2.23,0,1,1,2.2-3.83c2.15,1.23,2.79,4.15,2.79,4.15S81.32,50.42,79.17,49.19Z"/><path class="cls-7" d="M80.44,57.73a5,5,0,0,0,1.95.6l3-.45a6.83,6.83,0,0,0-2.74-4,2.23,2.23,0,1,0-2.2,3.83Z"/><rect class="cls-7" x="77.42" y="32.63" width="0.36" height="26.27" transform="translate(-5.89 11.91) rotate(-8.46)"/><circle class="cls-8" cx="99.39" cy="51.11" r="6.97"/><circle class="cls-9" cx="99.39" cy="51.11" r="0.51"/><path class="cls-9" d="M94.5,51.11s-.47.93-1,.93-1-.93-1-.93.47-.93,1-.93S94.5,51.11,94.5,51.11Z"/><path class="cls-9" d="M98.67,51.11s-.47.93-1,.93-1-.93-1-.93.47-.93,1-.93S98.67,51.11,98.67,51.11Z"/><path class="cls-9" d="M102.19,51s-.47.93-1,.93-1-.93-1-.93.47-.93,1-.93S102.19,51,102.19,51Z"/><path class="cls-9" d="M106.35,51s-.47.93-1,.93-1-.93-1-.93.47-.93,1-.93S106.35,51,106.35,51Z"/><path class="cls-9" d="M104.32,46.19s.33,1-.08,1.4-1.4.08-1.4.08-.33-1,.08-1.4S104.32,46.19,104.32,46.19Z"/><path class="cls-9" d="M94.48,46.19s-.33,1,.08,1.4,1.4.08,1.4.08.33-1-.08-1.4S94.48,46.19,94.48,46.19Z"/><path class="cls-9" d="M103.27,54s-.33,1,.08,1.4,1.4.08,1.4.08.33-1-.08-1.4S103.27,54,103.27,54Z"/><path class="cls-9" d="M102.48,52.16s.13,1,.68,1.23,1.29-.54,1.29-.54-.13-1-.68-1.23S102.48,52.16,102.48,52.16Z"/><path class="cls-9" d="M100.85,53.54s-.64.82-.39,1.34,1.29.54,1.29.54.64-.82.39-1.34S100.85,53.54,100.85,53.54Z"/><path class="cls-9" d="M97.18,46.37s-.64.82-.39,1.34,1.29.54,1.29.54.64-.82.39-1.34S97.18,46.37,97.18,46.37Z"/><path class="cls-9" d="M94.5,49s.13,1,.68,1.23,1.29-.54,1.29-.54-.13-1-.68-1.23S94.5,49,94.5,49Z"/><path class="cls-9" d="M97.41,55.86s1,0,1.3-.51S98.34,54,98.34,54s-1,0-1.3.52S97.41,55.86,97.41,55.86Z"/><path class="cls-9" d="M100.53,48.24s1,0,1.3-.51-.37-1.35-.37-1.35-1,0-1.3.52S100.53,48.24,100.53,48.24Z"/><path class="cls-9" d="M102.16,49.67s.74.74,1.28.55.69-1.22.69-1.22-.74-.74-1.29-.55S102.16,49.67,102.16,49.67Z"/><path class="cls-9" d="M94.78,53.07s.74.74,1.28.55.69-1.22.69-1.22-.74-.74-1.29-.55S94.78,53.07,94.78,53.07Z"/><path class="cls-9" d="M96,54.6s.33,1-.08,1.4-1.4.08-1.4.08-.33-1,.08-1.4S96,54.6,96,54.6Z"/><path class="cls-9" d="M99.39,48.3s.93.47.93,1-.93,1-.93,1-.93-.47-.93-1S99.39,48.3,99.39,48.3Z"/><path class="cls-9" d="M99.39,44.13s.93.47.93,1-.93,1-.93,1-.93-.47-.93-1S99.39,44.13,99.39,44.13Z"/><path class="cls-9" d="M99.39,56s.93.47.93,1-.93,1-.93,1-.93-.47-.93-1S99.39,56,99.39,56Z"/><path class="cls-9" d="M99.39,51.82s.93.47.93,1-.93,1-.93,1-.93-.47-.93-1S99.39,51.82,99.39,51.82Z"/><circle class="cls-10" cx="160.88" cy="41.91" r="1.76"/><polyline class="cls-11" points="157.17 46.03 161 42.2 164.83 46.03"/><polyline class="cls-12" points="164.77 38.17 160.94 42 157.11 38.17"/><circle class="cls-10" cx="125.61" cy="41.91" r="1.76"/><polyline class="cls-13" points="121.9 46.03 125.73 42.2 129.56 46.03"/><polyline class="cls-14" points="129.49 38.17 125.66 42 121.83 38.17"/></g></g></svg>