<svg xmlns="http://www.w3.org/2000/svg" viewBox="0 0 248.71 108.94"><defs><style>.cls-1{fill:none;opacity:0.8;}.cls-2{fill:#f8fed2;stroke:#00b7ff;stroke-miterlimit:22.93;stroke-width:0.5px;}.cls-2,.cls-3,.cls-4,.cls-5,.cls-6{fill-rule:evenodd;}.cls-3{fill:#039;opacity:0.5;}.cls-4,.cls-7{fill:#024056;}.cls-5{fill:#087fa3;}.cls-6,.cls-8{fill:#05a4e2;}</style></defs><title>Insumo_nave_1</title><g id="Capa_2" data-name="Capa 2"><g id="Layer_1" data-name="Layer 1"><rect class="cls-1" width="248.71" height="108.94"/><path class="cls-2" d="M97,13.38c6.57,25.15,16.33,45.55,27.33,45.61s21.08-20.39,27.95-45.61Z"/><path class="cls-3" d="M109.09,13.38H97c6.57,25.15,16.33,45.55,27.33,45.61,4.26,0,8.37-3,12.21-8.18a9.23,9.23,0,0,1-2.3.28C124.38,51,115.55,34.77,109.09,13.38Z"/><path class="cls-4" d="M97.77,16.41l-20.84,21,2.21,57,3.18,0,6.84-38.15,19.58-11.13C104.58,37.68,100.86,27.6,97.77,16.41Z"/><path class="cls-5" d="M97.24,17.81l-19.1,20L80,93.42h1.7L88.17,55.6,107.27,45A131.51,131.51,0,0,1,97.24,17.81Z"/><path class="cls-6" d="M79.15,37.43,106.21,44a122.66,122.66,0,0,1-9.29-25.23Z"/><path class="cls-6" d="M106.17,44.91,78.83,38.23l-.05.05.05,1.58,9.4,15.19,18-10Z"/><polygon class="cls-6" points="87.58 55.93 78.82 41.76 80.44 89.18 81.93 89.19 87.58 55.93"/><path class="cls-4" d="M151.19,16.73,171.78,38,168.9,95l-3.18,0-6.4-38.23L139.87,45.41C144.13,37.91,148,27.87,151.19,16.73Z"/><path class="cls-5" d="M151.7,18.13l18.87,20.22L168,93.93h-1.7l-6-37.9-19-10.83A131.51,131.51,0,0,0,151.7,18.13Z"/><path class="cls-6" d="M169.56,38l-27.14,6.3A122.65,122.65,0,0,0,152,19.14Z"/><path class="cls-6" d="M142.46,45.13l27.42-6.36.05.05-.07,1.58-9.58,15.08-17.9-10.21Z"/><polygon class="cls-6" points="160.91 56.35 169.84 42.29 167.68 89.69 166.18 89.68 160.91 56.35"/><rect class="cls-7" x="121.16" y="46.29" width="6.29" height="20.17" transform="translate(67.21 180.35) rotate(-89.67)"/><rect class="cls-8" x="121.87" y="46.9" width="4.87" height="18.91" rx="1.4" ry="1.4" transform="translate(67.23 180.34) rotate(-89.67)"/><rect class="cls-7" x="122.31" y="47.48" width="3.99" height="17.83" rx="1.15" ry="1.15" transform="translate(67.18 180.37) rotate(-89.67)"/><rect class="cls-7" x="84.86" y="52.76" width="78.93" height="6.62" transform="matrix(0.01, -1, 1, 0.01, 67.53, 180.07)"/><rect class="cls-7" x="113.93" y="23.86" width="21.12" height="6.62" transform="translate(96.6 151.5) rotate(-89.67)"/><rect class="cls-8" x="114.57" y="24.65" width="19.8" height="5.12" rx="1.48" ry="1.48" transform="matrix(0.01, -1, 1, 0.01, 96.55, 151.52)"/><rect class="cls-8" x="96.23" y="64.18" width="56.02" height="5.12" rx="1.48" ry="1.48" transform="translate(56.78 190.6) rotate(-89.67)"/><rect class="cls-8" x="124.17" y="34.41" width="0.51" height="6.62" rx="0.15" ry="0.15" transform="translate(85.98 161.93) rotate(-89.67)"/></g></g></svg>