<svg xmlns="http://www.w3.org/2000/svg" viewBox="0 0 248.71 108.94"><defs><style>.cls-1{fill:none;opacity:0.8;}.cls-2{fill:#212121;}.cls-3{fill:#2fcdff;}.cls-4{fill:#c1fc9c;}.cls-5{fill:#efefef;}.cls-6{fill:#fff;}.cls-7{fill:#f93b40;}.cls-8{fill:#6d6d6d;}.cls-9{fill:#525252;}</style></defs><title>Insumo_auto_2</title><g id="Capa_2" data-name="Capa 2"><g id="Layer_1" data-name="Layer 1"><rect class="cls-1" width="248.71" height="108.94"/><circle class="cls-2" cx="124.21" cy="54.63" r="44.53"/><path class="cls-3" d="M141.58,77a1,1,0,0,1-1,1H108.05a1,1,0,0,1-1-1V73.21a1,1,0,0,1,1-1h32.53a1,1,0,0,1,1,1Z"/><path class="cls-4" d="M141.58,77h0a1,1,0,0,1-1,1H108.05a1,1,0,0,1-1-1V73.21a1,1,0,0,1,1-1h32.53a1,1,0,0,1,1,1V77h.08V73.21a1,1,0,0,0-1-1.05H108.05a1,1,0,0,0-1,1.05V77a1,1,0,0,0,1,1.05h32.53a1,1,0,0,0,1-1.05Z"/><path class="cls-5" d="M145.62,69a25.39,25.39,0,1,0-42.36,0Z"/><polygon points="123.04 75.17 122.72 74.92 123.04 73.58 123.17 73.45 123.59 73.76 123.4 74.9 123.04 75.17"/><polygon points="123.02 75.46 123.16 75.71 123.02 76.71 122.43 76.85 122.5 75.83 123.02 75.46"/><polygon points="123.22 73.31 123.54 73.09 125.27 73.09 125.04 73.61 123.59 73.61 123.22 73.35 123.22 73.31"/><path d="M125.41,73.14l-.32.54.05.09L124.87,75l.27.19.32-.25.25-1.19S125.72,73.26,125.41,73.14Z"/><polygon points="123.07 75.35 123.44 75.05 124.79 75.05 124.97 75.35 124.58 75.58 123.26 75.58 123.07 75.39 123.07 75.35"/><polygon points="125.07 75.46 125.35 75.77 125.07 77.18 124.71 77.5 124.48 76.97 124.65 75.8 125.07 75.46"/><path d="M122.43,77.05l.53-.2.05.2h1.39l.17.45v.05h-1.72A.54.54,0,0,1,122.43,77.05Z"/><polygon points="129.25 73.09 129.57 73.5 129.25 74.96 128.86 75.23 128.58 74.9 128.84 73.45 129.25 73.09"/><polygon points="128.87 75.46 129.13 75.77 128.81 77.32 128.48 77.56 128.15 77.11 128.34 75.8 128.87 75.46"/><polygon points="133.11 73.09 133.13 73.13 133.38 73.56 133.11 74.96 132.65 75.23 132.39 74.75 132.61 73.58 133.11 73.09"/><polygon points="132.68 75.52 132.96 75.88 132.63 77.36 132.29 77.56 131.95 77.05 132.25 75.78 132.63 75.52 132.68 75.52"/><polygon points="134.62 73.39 135.02 73.67 136.46 73.67 136.7 73.09 134.98 73.09 134.62 73.32 134.62 73.39"/><polygon points="134.53 73.5 135 73.8 134.76 74.92 134.45 75.23 134.17 74.93 134.53 73.5"/><polygon points="134.53 75.38 134.86 75.11 136.19 75.11 136.45 75.38 136.04 75.66 134.81 75.66 134.53 75.38"/><polygon points="136.53 75.52 136.77 75.81 136.45 77.25 136.12 77.56 135.84 77.02 136.07 75.87 136.53 75.52"/><polygon points="134.38 75.46 134.64 75.79 134.44 76.74 134.17 76.89 133.78 76.74 133.94 75.73 134.38 75.46"/><path d="M133.78,77.15l.57-.26v.18l.12,0,1.31.05.18.41-1.79,0S133.82,77.4,133.78,77.15Z"/><polygon points="138.29 75.38 138.66 75.11 140.01 75.11 140.29 75.46 139.87 75.66 138.6 75.66 138.29 75.38"/><polygon points="140.37 75.52 140.4 75.55 140.59 75.77 140.29 77.24 139.95 77.56 139.69 77 139.87 75.83 140.37 75.52"/><polygon points="138.29 75.23 138.59 74.98 138.84 73.76 138.47 73.5 138.13 73.58 137.96 74.97 138.29 75.23"/><polygon points="138.35 73.38 138.68 73.09 140.48 73.09 140.55 73.23 140.29 73.64 138.84 73.67 138.35 73.38"/><path d="M140.34,73.67,140.08,75l.26.32.32-.23.33-1.24s0-.48-.3-.58Z"/><path d="M137.58,77.15l.54-.26.12.13.11.09,1.27,0,.22.41-1.89,0A2.34,2.34,0,0,1,137.58,77.15Z"/><rect class="cls-6" x="124.54" y="14.49" width="0.46" height="2.02"/><rect class="cls-6" x="108.15" y="18.03" width="0.46" height="2.02" transform="translate(1.8 46.43) rotate(-24.37)"/><polygon class="cls-6" points="95.85 29.54 95.54 29.89 94.02 28.56 94.32 28.21 95.85 29.54"/><polygon class="cls-6" points="140.95 20.1 140.53 19.9 141.36 18.07 141.79 18.26 140.95 20.1"/><polygon class="cls-6" points="153.97 29.97 153.66 29.62 155.18 28.29 155.49 28.64 153.97 29.97"/><rect class="cls-6" x="161.61" y="43.61" width="2.02" height="0.46" transform="translate(-5.76 47.73) rotate(-16.41)"/><rect class="cls-6" x="115.57" y="14.3" width="1.4" height="3.15" transform="translate(-0.72 25) rotate(-12.24)"/><rect class="cls-6" x="131.65" y="15.19" width="3.15" height="1.4" transform="translate(89.5 142.74) rotate(-77.78)"/><rect class="cls-6" x="147.08" y="22.22" width="3.15" height="1.4" transform="translate(41.45 128.42) rotate(-53.31)"/><polygon class="cls-6" points="158.75 37.08 158.07 35.85 160.84 34.33 161.52 35.56 158.75 37.08"/><rect class="cls-6" x="161.62" y="67.17" width="1.4" height="3.15" transform="translate(42.36 197.92) rotate(-70.07)"/><rect class="cls-6" x="100.24" y="21.28" width="1.4" height="3.15" transform="translate(6.33 64.8) rotate(-36.67)"/><polygon class="cls-6" points="91.58 35.71 90.91 36.94 88.15 35.41 88.83 34.18 91.58 35.71"/><rect class="cls-6" x="85.45" y="67.22" width="3.38" height="1.93" transform="translate(-18.09 33.99) rotate(-20.04)"/><path class="cls-6" d="M168.38,55.12a45.07,45.07,0,0,0-.25-4.69,43.94,43.94,0,0,0-87.3-.59,44.82,44.82,0,0,0-.31,5.28,43.76,43.76,0,0,0,3,16.1v0a43.87,43.87,0,0,0,8.17,13.2h0A44.07,44.07,0,0,0,99.05,91H96.92a45.2,45.2,0,1,1,54.88,0h-2a44.49,44.49,0,0,0,7-6.23A43.76,43.76,0,0,0,168.38,55.12Z"/><path class="cls-6" d="M168.13,50.42a45.07,45.07,0,0,1,.25,4.69,43.76,43.76,0,0,1-11.49,29.62h0l0-.06,0-.06a43.9,43.9,0,0,0,8.19-13h.06l0,0,0,0h0a43.72,43.72,0,0,0,3.19-16.44,45.91,45.91,0,0,0-.25-4.68h0l.06,0Z"/><path class="cls-6" d="M151.81,91v0h0a45.2,45.2,0,1,0-54.88,0h0V91h0a45.28,45.28,0,1,1,55,0h-2.1l.11-.08h1.94Z"/><path class="cls-6" d="M162.69,71.64h2.38a43.9,43.9,0,0,1-8.19,13l-1-2.21A41.69,41.69,0,0,0,162.69,71.64Z"/><path class="cls-6" d="M163.64,35.27h-.06l0,0a44,44,0,0,0-13.9-16.05h0l0-.05-.06,0-.07,0a43.59,43.59,0,0,0-14-6.49v-.06l0,0h0A44,44,0,0,1,163.64,35.27Z"/><polygon class="cls-6" points="156.88 84.62 156.91 84.67 156.88 84.73 156.83 84.71 156.82 84.69 156.88 84.62"/><path class="cls-6" d="M156.88,84.73h0a44.49,44.49,0,0,1-7,6.23h-.13v0l0,0h0l0,0,0,0a44,44,0,0,0,7.13-6.28v0Z"/><polygon class="cls-6" points="155.91 82.41 156.88 84.62 156.82 84.69 155.85 82.48 155.91 82.41"/><polygon class="cls-6" points="149.71 19.18 149.69 19.24 149.66 19.25 149.58 19.2 149.66 19.16 149.71 19.18"/><polygon class="cls-6" points="149.66 19.25 147.43 20.23 147.35 20.18 149.58 19.2 149.66 19.25"/><path class="cls-6" d="M149.58,19.19l-2.23,1a41.69,41.69,0,0,0-11.43-5.27l-.32-2.2A43.59,43.59,0,0,1,149.58,19.19Z"/><polygon class="cls-6" points="135.59 12.7 135.91 14.9 135.82 14.88 135.5 12.68 135.59 12.7"/><polygon class="cls-6" points="135.58 12.64 135.59 12.7 135.5 12.68 135.5 12.65 135.53 12.61 135.58 12.64"/><path class="cls-6" d="M135.53,12.6h0l0,0v0a44.13,44.13,0,0,0-21.67-.11v0l0-.05h0a44.31,44.31,0,0,1,21.72.12Z"/><polygon class="cls-6" points="113.81 12.49 113.84 12.54 113.83 12.57 113.74 12.59 113.76 12.52 113.81 12.49"/><polygon class="cls-6" points="113.83 12.57 113.33 14.76 113.24 14.78 113.74 12.59 113.83 12.57"/><path class="cls-6" d="M113.81,12.49h0l-.05,0v.06a43.56,43.56,0,0,0-14,6.3l-.06,0h-.06A43.69,43.69,0,0,1,113.81,12.49Z"/><path class="cls-6" d="M113.74,12.59l-.5,2.2A41.4,41.4,0,0,0,101.58,20l-1.82-1.15A43.56,43.56,0,0,1,113.74,12.59Z"/><polygon class="cls-6" points="101.58 20.04 101.5 20.09 99.68 18.94 99.76 18.88 101.58 20.04"/><polygon class="cls-6" points="99.7 18.85 99.76 18.88 99.68 18.94 99.66 18.92 99.65 18.86 99.7 18.85"/><path class="cls-6" d="M99.66,18.92l0,0A44,44,0,0,0,85.49,35v0h-.06a44,44,0,0,1,14.23-16.1h0Z"/><path class="cls-6" d="M99.21,91l0,0,0,0H96.9v0l0,0h2.12l.11.08,0,0v0h-.13a44.07,44.07,0,0,1-7.31-6.53l.05,0v0A43.78,43.78,0,0,0,99.21,91Z"/><polygon class="cls-6" points="92.57 82.14 92.63 82.21 91.81 84.38 91.74 84.31 92.57 82.14"/><path class="cls-6" d="M92.57,82.14l-.82,2.18a43.67,43.67,0,0,1-8.07-13.06l2.19,0A41.87,41.87,0,0,0,92.57,82.14Z"/><polygon class="cls-6" points="91.81 84.38 91.8 84.41 91.74 84.44 91.74 84.43 91.71 84.38 91.74 84.31 91.81 84.38"/><path class="cls-6" d="M91.74,84.31l0,.07,0,.05a43.87,43.87,0,0,1-8.17-13.2v0l0,0h.06A43.67,43.67,0,0,0,91.74,84.31Z"/><path class="cls-3" d="M91.21,67.11a1.19,1.19,0,0,1-.25-.77A1.82,1.82,0,0,1,91,66l.31-1.67A1.87,1.87,0,0,1,92,63.2a1.79,1.79,0,0,1,1.19-.43,1.22,1.22,0,0,1,1,.44,1.16,1.16,0,0,1,.25.77,2,2,0,0,1,0,.36L94.07,66a1.84,1.84,0,0,1-.64,1.1,1.81,1.81,0,0,1-1.19.43A1.23,1.23,0,0,1,91.21,67.11Zm1.72-.55a.94.94,0,0,0,.3-.55l.32-1.68a.73.73,0,0,0-.09-.57.54.54,0,0,0-.48-.21.79.79,0,0,0-.55.21,1,1,0,0,0-.3.55L91.82,66a.74.74,0,0,0,.09.58.54.54,0,0,0,.47.21A.79.79,0,0,0,92.94,66.56Z"/><path class="cls-3" d="M92.24,50.64v0a1.68,1.68,0,0,1-.5,1.2A16.32,16.32,0,0,1,90,53.31h1.79l-.15.78h-3l.07-.39.08-.39Q90.64,51.89,91,51.5a1.07,1.07,0,0,0,.38-.78.52.52,0,0,0-.15-.39.59.59,0,0,0-.42-.14.73.73,0,0,0-.55.23,1.28,1.28,0,0,0-.3.66h-.82a2.2,2.2,0,0,1,.65-1.22A1.69,1.69,0,0,1,91,49.4a1.23,1.23,0,0,1,.9.34A1.2,1.2,0,0,1,92.24,50.64Z"/><path class="cls-3" d="M92.55,53.74A1.2,1.2,0,0,1,92.3,53a1.82,1.82,0,0,1,0-.36l.32-1.67a1.85,1.85,0,0,1,1.83-1.53,1.22,1.22,0,0,1,1,.44,1.19,1.19,0,0,1,.25.77,1.83,1.83,0,0,1,0,.36l-.32,1.67a1.83,1.83,0,0,1-.64,1.1,1.8,1.8,0,0,1-1.19.43A1.24,1.24,0,0,1,92.55,53.74Zm1.73-.55a1,1,0,0,0,.3-.55L94.9,51a.74.74,0,0,0-.09-.57.54.54,0,0,0-.48-.21.79.79,0,0,0-.55.21,1,1,0,0,0-.3.55l-.32,1.67a.71.71,0,0,0,.09.57.53.53,0,0,0,.47.21A.81.81,0,0,0,94.28,53.2Z"/><path class="cls-3" d="M91.58,40.45l.06-.32.06-.32,2.72-3.26h.72l-.59,3.13H95l-.15.78H94.4l-.13.69h-.82l.13-.69Zm2.14-.78.34-1.79-1.45,1.79Z"/><path class="cls-3" d="M95.53,40.79a1.2,1.2,0,0,1-.25-.77,2.16,2.16,0,0,1,0-.36L95.63,38a1.83,1.83,0,0,1,.64-1.1,1.79,1.79,0,0,1,1.19-.43,1.24,1.24,0,0,1,1,.44,1.19,1.19,0,0,1,.25.77,1.89,1.89,0,0,1,0,.37l-.32,1.67a1.85,1.85,0,0,1-1.83,1.53A1.22,1.22,0,0,1,95.53,40.79Zm1.72-.55a.94.94,0,0,0,.3-.55L97.87,38a.74.74,0,0,0-.08-.57.55.55,0,0,0-.48-.22.8.8,0,0,0-.55.21,1,1,0,0,0-.3.55l-.32,1.67a.74.74,0,0,0,.08.57.54.54,0,0,0,.48.22A.8.8,0,0,0,97.25,40.24Z"/><path class="cls-3" d="M103.68,26.48h1l-1.11,1.31-.2.23h.24a1,1,0,0,1,.79.34,1.21,1.21,0,0,1,.3.85h0a1.86,1.86,0,0,1-.59,1.36,1.84,1.84,0,0,1-1.34.59,1.26,1.26,0,0,1-1.06-.47,1.24,1.24,0,0,1-.26-.8,1.55,1.55,0,0,1,0-.37,1.88,1.88,0,0,1,.28-.66,10.62,10.62,0,0,1,.84-1.07Zm-1.41,3.21a.74.74,0,0,0,.17.5.61.61,0,0,0,.47.19.84.84,0,0,0,.62-.28.9.9,0,0,0,.27-.65.7.7,0,0,0-.17-.5.62.62,0,0,0-.47-.18.82.82,0,0,0-.61.28A.89.89,0,0,0,102.27,29.69Z"/><path class="cls-3" d="M105.18,30.72a1.2,1.2,0,0,1-.25-.77,1.68,1.68,0,0,1,0-.36l.32-1.67a1.85,1.85,0,0,1,.64-1.1,1.8,1.8,0,0,1,1.19-.43,1.24,1.24,0,0,1,1,.44,1.21,1.21,0,0,1,.25.78,1.86,1.86,0,0,1,0,.36L108,29.64a1.84,1.84,0,0,1-1.83,1.53A1.23,1.23,0,0,1,105.18,30.72Zm1.73-.55a1,1,0,0,0,.3-.55l.32-1.67a.75.75,0,0,0-.08-.58.55.55,0,0,0-.48-.21.78.78,0,0,0-.55.21.94.94,0,0,0-.3.55l-.32,1.67a.75.75,0,0,0,.08.57.54.54,0,0,0,.48.21A.79.79,0,0,0,106.9,30.17Z"/><path class="cls-3" d="M116.52,21.39l.15.12a1.08,1.08,0,0,1,.35.84,1.58,1.58,0,0,1-.55,1.19,1.84,1.84,0,0,1-1.28.5,1.25,1.25,0,0,1-.92-.35,1.23,1.23,0,0,1-.35-.92,1.44,1.44,0,0,1,.54-1.11,2,2,0,0,1,.42-.28h0a.94.94,0,0,1-.29-.81s0-.09,0-.13a1.4,1.4,0,0,1,.54-.83,1.53,1.53,0,0,1,1-.36,1,1,0,0,1,.75.29,1,1,0,0,1,.3.75s0,.08,0,.13a1,1,0,0,1,0,.14,1.26,1.26,0,0,1-.53.77Zm-.91.45a.83.83,0,0,0-.6.25.79.79,0,0,0-.25.58.6.6,0,0,0,.15.44.56.56,0,0,0,.43.16.82.82,0,0,0,.59-.24.79.79,0,0,0,.25-.57A.62.62,0,0,0,116,22,.54.54,0,0,0,115.61,21.84Zm.15-.81a.57.57,0,0,0,.36-.14.51.51,0,0,0,.21-.31v-.15a.4.4,0,0,0-.11-.29A.36.36,0,0,0,116,20a.57.57,0,0,0-.36.14.53.53,0,0,0-.21.31v.15a.4.4,0,0,0,.11.29A.38.38,0,0,0,115.77,21Z"/><path class="cls-3" d="M117.65,23.6a1.22,1.22,0,0,1-.25-.77,2.15,2.15,0,0,1,0-.36l.32-1.67a1.86,1.86,0,0,1,1.83-1.53,1.18,1.18,0,0,1,1.28,1.22,2,2,0,0,1,0,.36l-.32,1.67a1.84,1.84,0,0,1-.64,1.1,1.79,1.79,0,0,1-1.19.43A1.23,1.23,0,0,1,117.65,23.6Zm1.73-.55a.94.94,0,0,0,.3-.55l.32-1.67a.73.73,0,0,0-.09-.57.55.55,0,0,0-.48-.22.79.79,0,0,0-.55.21,1,1,0,0,0-.3.55l-.32,1.67a.74.74,0,0,0,.08.58.55.55,0,0,0,.48.21A.79.79,0,0,0,119.37,23.05Z"/><polygon class="cls-3" points="128.38 20 127.79 20 127.94 19.21 129.35 19.21 128.48 23.81 128.07 23.81 127.66 23.81 128.38 20"/><path class="cls-3" d="M129.52,23.46a1.19,1.19,0,0,1-.25-.77,2.15,2.15,0,0,1,0-.36l.32-1.67a1.84,1.84,0,0,1,.65-1.1,1.78,1.78,0,0,1,1.19-.43,1.23,1.23,0,0,1,1,.44,1.15,1.15,0,0,1,.25.77,1.82,1.82,0,0,1,0,.36l-.32,1.67a1.86,1.86,0,0,1-.64,1.1,1.78,1.78,0,0,1-1.19.43A1.22,1.22,0,0,1,129.52,23.46Zm1.73-.55a1,1,0,0,0,.3-.55l.32-1.67a.74.74,0,0,0-.08-.57.54.54,0,0,0-.48-.21.8.8,0,0,0-.55.21,1,1,0,0,0-.3.55l-.32,1.67a.74.74,0,0,0,.08.58.55.55,0,0,0,.48.21A.81.81,0,0,0,131.24,22.92Z"/><path class="cls-3" d="M133,23.46a1.21,1.21,0,0,1-.25-.77,2,2,0,0,1,0-.36l.32-1.67a1.83,1.83,0,0,1,.64-1.1,1.79,1.79,0,0,1,1.19-.43,1.22,1.22,0,0,1,1,.44,1.18,1.18,0,0,1,.25.77,1.84,1.84,0,0,1,0,.36l-.32,1.67a1.81,1.81,0,0,1-.64,1.1,1.79,1.79,0,0,1-1.19.43A1.23,1.23,0,0,1,133,23.46Zm1.73-.55a1,1,0,0,0,.3-.55l.31-1.67a.72.72,0,0,0-.08-.57.54.54,0,0,0-.48-.21.8.8,0,0,0-.55.21,1,1,0,0,0-.3.55l-.32,1.67a.73.73,0,0,0,.09.58.54.54,0,0,0,.48.21A.8.8,0,0,0,134.72,22.92Z"/><polygon class="cls-3" points="139.93 27.28 139.34 27.28 139.48 26.5 140.9 26.5 140.03 31.09 139.62 31.09 139.21 31.09 139.93 27.28"/><path class="cls-3" d="M144.39,27.64v0a1.7,1.7,0,0,1-.49,1.2,17.11,17.11,0,0,1-1.75,1.45h1.79l-.15.78h-3l.07-.39.07-.39c1.23-1,2-1.56,2.23-1.81a1.12,1.12,0,0,0,.39-.78.54.54,0,0,0-.16-.39.59.59,0,0,0-.42-.14.73.73,0,0,0-.55.23,1.29,1.29,0,0,0-.3.66h-.82a2.19,2.19,0,0,1,.65-1.22,1.68,1.68,0,0,1,1.17-.45,1.23,1.23,0,0,1,.91.34A1.2,1.2,0,0,1,144.39,27.64Z"/><path class="cls-3" d="M144.7,30.74a1.21,1.21,0,0,1-.25-.77,1.84,1.84,0,0,1,0-.36l.32-1.67a1.84,1.84,0,0,1,.64-1.1,1.79,1.79,0,0,1,1.19-.43,1.22,1.22,0,0,1,1,.44,1.18,1.18,0,0,1,.25.77,2.22,2.22,0,0,1,0,.36l-.32,1.67a1.82,1.82,0,0,1-.64,1.1,1.79,1.79,0,0,1-1.19.43A1.23,1.23,0,0,1,144.7,30.74Zm1.73-.55a1,1,0,0,0,.3-.55L147,28a.7.7,0,0,0-.09-.57.54.54,0,0,0-.47-.21.79.79,0,0,0-.55.21,1,1,0,0,0-.3.56l-.31,1.67a.72.72,0,0,0,.08.57.54.54,0,0,0,.48.21A.8.8,0,0,0,146.43,30.2Z"/><polygon class="cls-3" points="149.45 37.86 148.86 37.86 149 37.08 150.43 37.08 149.56 41.68 149.14 41.68 148.73 41.68 149.45 37.86"/><path class="cls-3" d="M150.18,41l.06-.32.06-.32L153,37.08h.72l-.6,3.13h.48l-.15.78H153l-.13.69H152l.13-.69Zm2.14-.78.34-1.79-1.45,1.79Z"/><path class="cls-3" d="M154.12,41.33a1.19,1.19,0,0,1-.25-.76,2,2,0,0,1,0-.37l.32-1.67a1.86,1.86,0,0,1,.64-1.1,1.79,1.79,0,0,1,1.19-.43,1.23,1.23,0,0,1,1,.44,1.2,1.2,0,0,1,.25.77,1.91,1.91,0,0,1,0,.37L157,40.24a1.85,1.85,0,0,1-1.83,1.53A1.22,1.22,0,0,1,154.12,41.33Zm1.72-.54a1,1,0,0,0,.3-.55l.32-1.67a.72.72,0,0,0-.08-.57.54.54,0,0,0-.48-.21.8.8,0,0,0-.55.21,1,1,0,0,0-.3.55l-.32,1.67a.75.75,0,0,0,.08.57.56.56,0,0,0,.48.21A.8.8,0,0,0,155.84,40.78Z"/><polygon class="cls-3" points="152.97 50.43 152.37 50.43 152.52 49.65 153.94 49.65 153.06 54.25 152.65 54.25 152.24 54.25 152.97 50.43"/><path class="cls-3" d="M156.28,49.66h1L156.14,51l-.2.24.23,0a1,1,0,0,1,.79.34,1.2,1.2,0,0,1,.3.85h0a2,2,0,0,1-1.93,2,1.28,1.28,0,0,1-1.06-.46,1.26,1.26,0,0,1-.26-.81,1.75,1.75,0,0,1,.32-1,11.16,11.16,0,0,1,.84-1.07Zm-1.41,3.22a.71.71,0,0,0,.17.5.6.6,0,0,0,.46.19.82.82,0,0,0,.62-.28.9.9,0,0,0,.27-.65.69.69,0,0,0-.18-.5.62.62,0,0,0-.46-.18.84.84,0,0,0-.62.29A.89.89,0,0,0,154.87,52.87Z"/><path class="cls-3" d="M157.79,53.9a1.19,1.19,0,0,1-.25-.77,2,2,0,0,1,0-.36l.32-1.67a1.83,1.83,0,0,1,.64-1.1,1.79,1.79,0,0,1,1.19-.43,1.22,1.22,0,0,1,1,.44,1.18,1.18,0,0,1,.25.78,1.85,1.85,0,0,1,0,.36l-.32,1.67a1.87,1.87,0,0,1-.64,1.1,1.81,1.81,0,0,1-1.19.43A1.22,1.22,0,0,1,157.79,53.9Zm1.73-.55a1,1,0,0,0,.3-.55l.32-1.67a.74.74,0,0,0-.08-.57.55.55,0,0,0-.48-.21.79.79,0,0,0-.55.21.94.94,0,0,0-.3.55l-.32,1.67a.73.73,0,0,0,.08.57.54.54,0,0,0,.48.21A.79.79,0,0,0,159.51,53.35Z"/><polygon class="cls-3" points="151.1 65.87 150.5 65.87 150.65 65.1 152.07 65.1 151.19 69.69 150.78 69.69 150.37 69.69 151.1 65.87"/><path class="cls-3" d="M154.69,67.14l.15.12a1.06,1.06,0,0,1,.36.84,1.59,1.59,0,0,1-.56,1.19,1.82,1.82,0,0,1-1.28.51,1.26,1.26,0,0,1-.92-.35,1.23,1.23,0,0,1-.35-.92,1.44,1.44,0,0,1,.55-1.11,1.86,1.86,0,0,1,.41-.28h0a.91.91,0,0,1-.31-.7,1,1,0,0,1,0-.11s0-.09,0-.13a1.41,1.41,0,0,1,.55-.84,1.5,1.5,0,0,1,1-.36,1,1,0,0,1,.76.3,1,1,0,0,1,.3.74,1.26,1.26,0,0,1,0,.14c0,.05,0,.1,0,.14a1.25,1.25,0,0,1-.53.77Zm-.92.45a.82.82,0,0,0-.59.25.77.77,0,0,0-.25.58.61.61,0,0,0,.15.44.57.57,0,0,0,.43.16.82.82,0,0,0,.59-.25.77.77,0,0,0,.25-.57.6.6,0,0,0-.15-.44A.54.54,0,0,0,153.77,67.58Zm.15-.81a.59.59,0,0,0,.36-.13.51.51,0,0,0,.21-.31v-.15a.41.41,0,0,0-.1-.29.4.4,0,0,0-.29-.11.57.57,0,0,0-.36.14.49.49,0,0,0-.2.31v.15a.4.4,0,0,0,.11.29A.38.38,0,0,0,153.93,66.77Z"/><path class="cls-3" d="M155.81,69.34a1.19,1.19,0,0,1-.25-.77,1.84,1.84,0,0,1,0-.36l.32-1.67a1.84,1.84,0,0,1,.64-1.1,1.81,1.81,0,0,1,1.19-.43,1.22,1.22,0,0,1,1,.44,1.18,1.18,0,0,1,.25.77,2.22,2.22,0,0,1,0,.37l-.32,1.67a1.83,1.83,0,0,1-.64,1.1,1.79,1.79,0,0,1-1.19.43A1.23,1.23,0,0,1,155.81,69.34Zm1.73-.54a1,1,0,0,0,.3-.56l.31-1.67a.72.72,0,0,0-.08-.57.54.54,0,0,0-.48-.21A.8.8,0,0,0,157,66a.93.93,0,0,0-.3.55l-.32,1.67a.74.74,0,0,0,.08.58A.56.56,0,0,0,157,69,.83.83,0,0,0,157.54,68.8Z"/><path class="cls-7" d="M118.7,50.19l-.69,1.4-.45-.23a6.48,6.48,0,0,1,.68-1.38Z"/><path class="cls-8" d="M129.13,54.61a5.52,5.52,0,0,0-.68-3.82,5.69,5.69,0,0,0-.75-1,5.42,5.42,0,0,0-1.31-1,5.49,5.49,0,0,0-3.94-.51,5.36,5.36,0,0,0-2.37,1.27l-.1.09a5.43,5.43,0,0,0-1.64,3.29,5.49,5.49,0,0,0,.47,3,5.38,5.38,0,0,0,1,1.48,5.47,5.47,0,0,0,7.73.15c.1-.1.2-.2.29-.31A5.45,5.45,0,0,0,129.13,54.61ZM128.52,49a6.6,6.6,0,1,1-11,2.34l.45.23.69-1.4-.46-.21a6.6,6.6,0,0,1,10.27-1Z"/><circle class="cls-9" cx="123.76" cy="53.59" r="3.92" transform="translate(-2.62 100.68) rotate(-43.85)"/><path class="cls-7" d="M117.56,51.36l-25.18-13c.07-.14.13-.29.21-.43l25.66,12A6.48,6.48,0,0,0,117.56,51.36Z"/></g></g></svg>