<svg xmlns="http://www.w3.org/2000/svg" viewBox="0 0 248.71 108.94"><defs><style>.cls-1{isolation:isolate;}.cls-2,.cls-6,.cls-7{fill:none;}.cls-2{opacity:0.8;}.cls-3{fill:#c0a37e;}.cls-4{fill:#9d7e5a;}.cls-5{opacity:0.35;mix-blend-mode:multiply;}.cls-6,.cls-7{stroke:#5e4b33;stroke-miterlimit:10;}.cls-6{stroke-width:0.33px;}.cls-7{stroke-width:0.32px;}.cls-8{fill:#dabd94;}.cls-9{fill:#216f74;}</style></defs><title>Insumo_casa_1</title><g class="cls-1"><g id="Capa_2" data-name="Capa 2"><g id="Layer_1" data-name="Layer 1"><rect class="cls-2" width="248.71" height="108.94"/><rect class="cls-3" x="85.31" y="47.11" width="78.1" height="57.18"/><rect class="cls-4" x="85.31" y="47.11" width="78.1" height="7.59"/><g class="cls-5"><rect class="cls-6" x="85.65" y="47.6" width="9.78" height="3.77"/><rect class="cls-6" x="96.02" y="47.6" width="9.78" height="3.77"/><rect class="cls-6" x="106.39" y="47.6" width="9.78" height="3.77"/><rect class="cls-6" x="116.75" y="47.6" width="9.78" height="3.77"/><rect class="cls-6" x="127.12" y="47.6" width="9.78" height="3.77"/><rect class="cls-6" x="137.49" y="47.6" width="9.78" height="3.77"/><rect class="cls-6" x="147.86" y="47.6" width="9.78" height="3.77"/><polyline class="cls-6" points="163.01 51.38 158.23 51.38 158.23 47.6 163.06 47.6"/><polyline class="cls-7" points="85.85 51.87 90.48 51.87 90.48 55.65 85.8 55.65"/><polyline class="cls-7" points="85.85 60.58 90.48 60.58 90.48 64.35 85.8 64.35"/><polyline class="cls-7" points="85.85 69.28 90.48 69.28 90.48 73.06 85.8 73.06"/><polyline class="cls-7" points="85.85 77.99 90.48 77.99 90.48 81.76 85.8 81.76"/><polyline class="cls-7" points="85.85 86.7 90.48 86.7 90.48 90.47 85.8 90.47"/><polyline class="cls-7" points="85.85 95.44 90.48 95.44 90.48 99.22 85.8 99.22"/><rect class="cls-6" x="91.04" y="51.88" width="9.78" height="3.77"/><rect class="cls-6" x="101.41" y="51.88" width="9.78" height="3.77"/><rect class="cls-6" x="111.78" y="51.88" width="9.78" height="3.77"/><rect class="cls-6" x="122.14" y="51.88" width="9.78" height="3.77"/><rect class="cls-6" x="132.51" y="51.88" width="9.78" height="3.77"/><rect class="cls-6" x="142.88" y="51.88" width="9.78" height="3.77"/><rect class="cls-6" x="153.25" y="51.88" width="9.78" height="3.77"/><rect class="cls-6" x="85.65" y="56.31" width="9.78" height="3.77"/><rect class="cls-6" x="96.02" y="56.31" width="9.78" height="3.77"/><rect class="cls-6" x="106.39" y="56.31" width="9.78" height="3.77"/><rect class="cls-6" x="116.75" y="56.31" width="9.78" height="3.77"/><rect class="cls-6" x="127.12" y="56.31" width="9.78" height="3.77"/><rect class="cls-6" x="137.49" y="56.31" width="9.78" height="3.77"/><rect class="cls-6" x="147.86" y="56.31" width="9.78" height="3.77"/><polyline class="cls-6" points="163.01 60.08 158.23 60.08 158.23 56.31 163.06 56.31"/><rect class="cls-6" x="91.04" y="60.59" width="9.78" height="3.77"/><rect class="cls-6" x="101.41" y="60.59" width="9.78" height="3.77"/><rect class="cls-6" x="111.78" y="60.59" width="9.78" height="3.77"/><rect class="cls-6" x="122.14" y="60.59" width="9.78" height="3.77"/><rect class="cls-6" x="132.51" y="60.59" width="9.78" height="3.77"/><rect class="cls-6" x="142.88" y="60.59" width="9.78" height="3.77"/><rect class="cls-6" x="153.25" y="60.59" width="9.78" height="3.77"/><rect class="cls-6" x="85.65" y="65.02" width="9.78" height="3.77"/><rect class="cls-6" x="96.02" y="65.02" width="9.78" height="3.77"/><rect class="cls-6" x="106.39" y="65.02" width="9.78" height="3.77"/><rect class="cls-6" x="116.75" y="65.02" width="9.78" height="3.77"/><rect class="cls-6" x="127.12" y="65.02" width="9.78" height="3.77"/><rect class="cls-6" x="137.49" y="65.02" width="9.78" height="3.77"/><rect class="cls-6" x="147.86" y="65.02" width="9.78" height="3.77"/><polyline class="cls-6" points="163.01 68.79 158.23 68.79 158.23 65.02 163.06 65.02"/><rect class="cls-6" x="91.04" y="69.29" width="9.78" height="3.77"/><rect class="cls-6" x="101.41" y="69.29" width="9.78" height="3.77"/><rect class="cls-6" x="111.78" y="69.29" width="9.78" height="3.77"/><rect class="cls-6" x="122.14" y="69.29" width="9.78" height="3.77"/><rect class="cls-6" x="132.51" y="69.29" width="9.78" height="3.77"/><rect class="cls-6" x="142.88" y="69.29" width="9.78" height="3.77"/><rect class="cls-6" x="153.25" y="69.29" width="9.78" height="3.77"/><rect class="cls-6" x="85.65" y="73.72" width="9.78" height="3.77"/><rect class="cls-6" x="96.02" y="73.72" width="9.78" height="3.77"/><rect class="cls-6" x="106.39" y="73.72" width="9.78" height="3.77"/><rect class="cls-6" x="116.75" y="73.72" width="9.78" height="3.77"/><rect class="cls-6" x="127.12" y="73.72" width="9.78" height="3.77"/><rect class="cls-6" x="137.49" y="73.72" width="9.78" height="3.77"/><rect class="cls-6" x="147.86" y="73.72" width="9.78" height="3.77"/><polyline class="cls-6" points="163.01 77.5 158.23 77.5 158.23 73.72 163.06 73.72"/><rect class="cls-6" x="91.04" y="78" width="9.78" height="3.77"/><rect class="cls-6" x="101.41" y="78" width="9.78" height="3.77"/><rect class="cls-6" x="111.78" y="78" width="9.78" height="3.77"/><rect class="cls-6" x="122.14" y="78" width="9.78" height="3.77"/><rect class="cls-6" x="132.51" y="78" width="9.78" height="3.77"/><rect class="cls-6" x="142.88" y="78" width="9.78" height="3.77"/><rect class="cls-6" x="153.25" y="78" width="9.78" height="3.77"/><rect class="cls-6" x="85.65" y="82.43" width="9.78" height="3.77"/><rect class="cls-6" x="96.02" y="82.43" width="9.78" height="3.77"/><rect class="cls-6" x="106.39" y="82.43" width="9.78" height="3.77"/><rect class="cls-6" x="116.75" y="82.43" width="9.78" height="3.77"/><rect class="cls-6" x="127.12" y="82.43" width="9.78" height="3.77"/><rect class="cls-6" x="137.49" y="82.43" width="9.78" height="3.77"/><rect class="cls-6" x="147.86" y="82.43" width="9.78" height="3.77"/><polyline class="cls-6" points="163.01 86.2 158.23 86.2 158.23 82.43 163.06 82.43"/><rect class="cls-6" x="91.04" y="86.71" width="9.78" height="3.77"/><rect class="cls-6" x="101.41" y="86.71" width="9.78" height="3.77"/><rect class="cls-6" x="111.78" y="86.71" width="9.78" height="3.77"/><rect class="cls-6" x="122.14" y="86.71" width="9.78" height="3.77"/><rect class="cls-6" x="132.51" y="86.71" width="9.78" height="3.77"/><rect class="cls-6" x="142.88" y="86.71" width="9.78" height="3.77"/><rect class="cls-6" x="153.25" y="86.71" width="9.78" height="3.77"/><rect class="cls-6" x="85.65" y="91.14" width="9.78" height="3.77"/><rect class="cls-6" x="96.02" y="91.14" width="9.78" height="3.77"/><rect class="cls-6" x="106.39" y="91.14" width="9.78" height="3.77"/><rect class="cls-6" x="116.75" y="91.14" width="9.78" height="3.77"/><rect class="cls-6" x="127.12" y="91.14" width="9.78" height="3.77"/><rect class="cls-6" x="137.49" y="91.14" width="9.78" height="3.77"/><rect class="cls-6" x="147.86" y="91.14" width="9.78" height="3.77"/><polyline class="cls-6" points="163.01 94.91 158.23 94.91 158.23 91.14 163.06 91.14"/><rect class="cls-6" x="91.04" y="95.41" width="9.78" height="3.77"/><rect class="cls-6" x="101.41" y="95.41" width="9.78" height="3.77"/><rect class="cls-6" x="111.78" y="95.41" width="9.78" height="3.77"/><rect class="cls-6" x="122.14" y="95.41" width="9.78" height="3.77"/><rect class="cls-6" x="132.51" y="95.41" width="9.78" height="3.77"/><rect class="cls-6" x="142.88" y="95.41" width="9.78" height="3.77"/><rect class="cls-6" x="153.25" y="95.41" width="9.78" height="3.77"/><rect class="cls-6" x="85.65" y="99.85" width="9.78" height="3.77"/><rect class="cls-6" x="96.02" y="99.85" width="9.78" height="3.77"/><rect class="cls-6" x="106.39" y="99.85" width="9.78" height="3.77"/><rect class="cls-6" x="116.75" y="99.85" width="9.78" height="3.77"/><rect class="cls-6" x="127.12" y="99.85" width="9.78" height="3.77"/><rect class="cls-6" x="137.49" y="99.85" width="9.78" height="3.77"/><rect class="cls-6" x="147.86" y="99.85" width="9.78" height="3.77"/><polyline class="cls-6" points="163.01 103.62 158.23 103.62 158.23 99.85 163.06 99.85"/></g><rect class="cls-8" x="61.66" y="52.7" width="125.39" height="50.98"/><rect class="cls-8" x="61.66" y="7.76" width="125.39" height="44.28"/><g class="cls-5"><rect class="cls-6" x="62.51" y="8.18" width="9.78" height="3.77"/><rect class="cls-6" x="72.88" y="8.18" width="9.78" height="3.77"/><rect class="cls-6" x="83.25" y="8.18" width="9.78" height="3.77"/><rect class="cls-6" x="93.62" y="8.18" width="9.78" height="3.77"/><rect class="cls-6" x="103.98" y="8.18" width="9.78" height="3.77"/><rect class="cls-6" x="114.35" y="8.18" width="9.78" height="3.77"/><rect class="cls-6" x="124.72" y="8.18" width="9.78" height="3.77"/><rect class="cls-6" x="135.09" y="8.18" width="9.78" height="3.77"/><rect class="cls-6" x="145.46" y="8.18" width="9.78" height="3.77"/><rect class="cls-6" x="155.83" y="8.18" width="9.78" height="3.77"/><rect class="cls-6" x="166.19" y="8.18" width="9.78" height="3.77"/><rect class="cls-6" x="176.56" y="8.18" width="9.78" height="3.77"/><rect class="cls-6" x="67.49" y="12.62" width="9.78" height="3.77"/><rect class="cls-6" x="77.86" y="12.62" width="9.78" height="3.77"/><rect class="cls-6" x="88.23" y="12.62" width="9.78" height="3.77"/><rect class="cls-6" x="98.6" y="12.62" width="9.78" height="3.77"/><rect class="cls-6" x="108.96" y="12.62" width="9.78" height="3.77"/><rect class="cls-6" x="119.33" y="12.62" width="9.78" height="3.77"/><rect class="cls-6" x="129.7" y="12.62" width="9.78" height="3.77"/><rect class="cls-6" x="140.07" y="12.62" width="9.78" height="3.77"/><rect class="cls-6" x="150.44" y="12.62" width="9.78" height="3.77"/><rect class="cls-6" x="160.81" y="12.62" width="9.78" height="3.77"/><rect class="cls-6" x="171.17" y="12.62" width="9.78" height="3.77"/><polyline class="cls-6" points="186.33 16.39 181.54 16.39 181.54 12.62 186.38 12.62"/><polyline class="cls-7" points="62.38 12.61 67.02 12.61 67.02 16.39 62.34 16.39"/><rect class="cls-6" x="62.51" y="16.89" width="9.78" height="3.77"/><rect class="cls-6" x="72.88" y="16.89" width="9.78" height="3.77"/><rect class="cls-6" x="83.25" y="16.89" width="9.78" height="3.77"/><rect class="cls-6" x="93.62" y="16.89" width="9.78" height="3.77"/><rect class="cls-6" x="103.98" y="16.89" width="9.78" height="3.77"/><rect class="cls-6" x="114.35" y="16.89" width="9.78" height="3.77"/><rect class="cls-6" x="124.72" y="16.89" width="9.78" height="3.77"/><rect class="cls-6" x="135.09" y="16.89" width="9.78" height="3.77"/><rect class="cls-6" x="145.46" y="16.89" width="9.78" height="3.77"/><rect class="cls-6" x="155.83" y="16.89" width="9.78" height="3.77"/><rect class="cls-6" x="166.19" y="16.89" width="9.78" height="3.77"/><rect class="cls-6" x="176.56" y="16.89" width="9.78" height="3.77"/><rect class="cls-6" x="67.49" y="21.32" width="9.78" height="3.77"/><rect class="cls-6" x="77.86" y="21.32" width="9.78" height="3.77"/><rect class="cls-6" x="88.23" y="21.32" width="9.78" height="3.77"/><rect class="cls-6" x="98.6" y="21.32" width="9.78" height="3.77"/><rect class="cls-6" x="108.96" y="21.32" width="9.78" height="3.77"/><rect class="cls-6" x="119.33" y="21.32" width="9.78" height="3.77"/><rect class="cls-6" x="129.7" y="21.32" width="9.78" height="3.77"/><rect class="cls-6" x="140.07" y="21.32" width="9.78" height="3.77"/><rect class="cls-6" x="150.44" y="21.32" width="9.78" height="3.77"/><rect class="cls-6" x="160.81" y="21.32" width="9.78" height="3.77"/><rect class="cls-6" x="171.17" y="21.32" width="9.78" height="3.77"/><polyline class="cls-6" points="186.33 25.09 181.54 25.09 181.54 21.32 186.38 21.32"/><polyline class="cls-7" points="62.38 21.32 67.02 21.32 67.02 25.09 62.34 25.09"/><rect class="cls-6" x="62.51" y="25.6" width="9.78" height="3.77"/><rect class="cls-6" x="72.88" y="25.6" width="9.78" height="3.77"/><rect class="cls-6" x="83.25" y="25.6" width="9.78" height="3.77"/><rect class="cls-6" x="93.62" y="25.6" width="9.78" height="3.77"/><rect class="cls-6" x="103.98" y="25.6" width="9.78" height="3.77"/><rect class="cls-6" x="114.35" y="25.6" width="9.78" height="3.77"/><rect class="cls-6" x="124.72" y="25.6" width="9.78" height="3.77"/><rect class="cls-6" x="135.09" y="25.6" width="9.78" height="3.77"/><rect class="cls-6" x="145.46" y="25.6" width="9.78" height="3.77"/><rect class="cls-6" x="155.83" y="25.6" width="9.78" height="3.77"/><rect class="cls-6" x="166.19" y="25.6" width="9.78" height="3.77"/><rect class="cls-6" x="176.56" y="25.6" width="9.78" height="3.77"/><rect class="cls-6" x="67.49" y="30.03" width="9.78" height="3.77"/><rect class="cls-6" x="77.86" y="30.03" width="9.78" height="3.77"/><rect class="cls-6" x="88.23" y="30.03" width="9.78" height="3.77"/><rect class="cls-6" x="98.6" y="30.03" width="9.78" height="3.77"/><rect class="cls-6" x="108.96" y="30.03" width="9.78" height="3.77"/><rect class="cls-6" x="119.33" y="30.03" width="9.78" height="3.77"/><rect class="cls-6" x="129.7" y="30.03" width="9.78" height="3.77"/><rect class="cls-6" x="140.07" y="30.03" width="9.78" height="3.77"/><rect class="cls-6" x="150.44" y="30.03" width="9.78" height="3.77"/><rect class="cls-6" x="160.81" y="30.03" width="9.78" height="3.77"/><rect class="cls-6" x="171.17" y="30.03" width="9.78" height="3.77"/><polyline class="cls-6" points="186.33 33.8 181.54 33.8 181.54 30.03 186.38 30.03"/><polyline class="cls-7" points="62.38 30.03 67.02 30.03 67.02 33.8 62.34 33.8"/><rect class="cls-6" x="62.51" y="34.3" width="9.78" height="3.77"/><rect class="cls-6" x="72.88" y="34.3" width="9.78" height="3.77"/><rect class="cls-6" x="83.25" y="34.3" width="9.78" height="3.77"/><rect class="cls-6" x="93.62" y="34.3" width="9.78" height="3.77"/><rect class="cls-6" x="103.98" y="34.3" width="9.78" height="3.77"/><rect class="cls-6" x="114.35" y="34.3" width="9.78" height="3.77"/><rect class="cls-6" x="124.72" y="34.3" width="9.78" height="3.77"/><rect class="cls-6" x="135.09" y="34.3" width="9.78" height="3.77"/><rect class="cls-6" x="145.46" y="34.3" width="9.78" height="3.77"/><rect class="cls-6" x="155.83" y="34.3" width="9.78" height="3.77"/><rect class="cls-6" x="166.19" y="34.3" width="9.78" height="3.77"/><rect class="cls-6" x="176.56" y="34.3" width="9.78" height="3.77"/><rect class="cls-6" x="67.49" y="38.74" width="9.78" height="3.77"/><rect class="cls-6" x="77.86" y="38.74" width="9.78" height="3.77"/><rect class="cls-6" x="88.23" y="38.74" width="9.78" height="3.77"/><rect class="cls-6" x="98.6" y="38.74" width="9.78" height="3.77"/><rect class="cls-6" x="108.96" y="38.74" width="9.78" height="3.77"/><rect class="cls-6" x="119.33" y="38.74" width="9.78" height="3.77"/><rect class="cls-6" x="129.7" y="38.74" width="9.78" height="3.77"/><rect class="cls-6" x="140.07" y="38.74" width="9.78" height="3.77"/><rect class="cls-6" x="150.44" y="38.74" width="9.78" height="3.77"/><rect class="cls-6" x="160.81" y="38.74" width="9.78" height="3.77"/><rect class="cls-6" x="171.17" y="38.74" width="9.78" height="3.77"/><polyline class="cls-6" points="186.33 42.51 181.54 42.51 181.54 38.74 186.38 38.74"/><polyline class="cls-7" points="62.38 38.73 67.02 38.73 67.02 42.51 62.34 42.51"/><rect class="cls-6" x="62.51" y="43.01" width="9.78" height="3.77"/><rect class="cls-6" x="72.88" y="43.01" width="9.78" height="3.77"/><rect class="cls-6" x="83.25" y="43.01" width="9.78" height="3.77"/><rect class="cls-6" x="93.62" y="43.01" width="9.78" height="3.77"/><rect class="cls-6" x="103.98" y="43.01" width="9.78" height="3.77"/><rect class="cls-6" x="114.35" y="43.01" width="9.78" height="3.77"/><rect class="cls-6" x="124.72" y="43.01" width="9.78" height="3.77"/><rect class="cls-6" x="135.09" y="43.01" width="9.78" height="3.77"/><rect class="cls-6" x="145.46" y="43.01" width="9.78" height="3.77"/><rect class="cls-6" x="155.83" y="43.01" width="9.78" height="3.77"/><rect class="cls-6" x="166.19" y="43.01" width="9.78" height="3.77"/><rect class="cls-6" x="176.56" y="43.01" width="9.78" height="3.77"/><rect class="cls-6" x="67.49" y="47.44" width="9.78" height="3.77"/><rect class="cls-6" x="77.86" y="47.44" width="9.78" height="3.77"/><rect class="cls-6" x="88.23" y="47.44" width="9.78" height="3.77"/><rect class="cls-6" x="98.6" y="47.44" width="9.78" height="3.77"/><rect class="cls-6" x="108.96" y="47.44" width="9.78" height="3.77"/><rect class="cls-6" x="119.33" y="47.44" width="9.78" height="3.77"/><rect class="cls-6" x="129.7" y="47.44" width="9.78" height="3.77"/><rect class="cls-6" x="140.07" y="47.44" width="9.78" height="3.77"/><rect class="cls-6" x="150.44" y="47.44" width="9.78" height="3.77"/><rect class="cls-6" x="160.81" y="47.44" width="9.78" height="3.77"/><rect class="cls-6" x="171.17" y="47.44" width="9.78" height="3.77"/><polyline class="cls-6" points="186.33 51.22 181.54 51.22 181.54 47.44 186.38 47.44"/><polyline class="cls-7" points="62.38 47.44 67.02 47.44 67.02 51.21 62.34 51.21"/><rect class="cls-6" x="62.51" y="51.72" width="9.78" height="3.77"/><rect class="cls-6" x="72.88" y="51.72" width="9.78" height="3.77"/><rect class="cls-6" x="83.25" y="51.72" width="9.78" height="3.77"/><rect class="cls-6" x="93.62" y="51.72" width="9.78" height="3.77"/><rect class="cls-6" x="103.98" y="51.72" width="9.78" height="3.77"/><rect class="cls-6" x="114.35" y="51.72" width="9.78" height="3.77"/><rect class="cls-6" x="124.72" y="51.72" width="9.78" height="3.77"/><rect class="cls-6" x="135.09" y="51.72" width="9.78" height="3.77"/><rect class="cls-6" x="145.46" y="51.72" width="9.78" height="3.77"/><rect class="cls-6" x="155.83" y="51.72" width="9.78" height="3.77"/><rect class="cls-6" x="166.19" y="51.72" width="9.78" height="3.77"/><rect class="cls-6" x="176.56" y="51.72" width="9.78" height="3.77"/><rect class="cls-6" x="67.49" y="56.15" width="9.78" height="3.77"/><rect class="cls-6" x="77.86" y="56.15" width="9.78" height="3.77"/><rect class="cls-6" x="88.23" y="56.15" width="9.78" height="3.77"/><rect class="cls-6" x="98.6" y="56.15" width="9.78" height="3.77"/><rect class="cls-6" x="108.96" y="56.15" width="9.78" height="3.77"/><rect class="cls-6" x="119.33" y="56.15" width="9.78" height="3.77"/><rect class="cls-6" x="129.7" y="56.15" width="9.78" height="3.77"/><rect class="cls-6" x="140.07" y="56.15" width="9.78" height="3.77"/><rect class="cls-6" x="150.44" y="56.15" width="9.78" height="3.77"/><rect class="cls-6" x="160.81" y="56.15" width="9.78" height="3.77"/><rect class="cls-6" x="171.17" y="56.15" width="9.78" height="3.77"/><polyline class="cls-6" points="186.33 59.92 181.54 59.92 181.54 56.15 186.38 56.15"/><polyline class="cls-7" points="62.38 56.15 67.02 56.15 67.02 59.92 62.34 59.92"/><rect class="cls-6" x="62.51" y="60.43" width="9.78" height="3.77"/><rect class="cls-6" x="72.88" y="60.43" width="9.78" height="3.77"/><rect class="cls-6" x="83.25" y="60.43" width="9.78" height="3.77"/><rect class="cls-6" x="93.62" y="60.43" width="9.78" height="3.77"/><rect class="cls-6" x="103.98" y="60.43" width="9.78" height="3.77"/><rect class="cls-6" x="114.35" y="60.43" width="9.78" height="3.77"/><rect class="cls-6" x="124.72" y="60.43" width="9.78" height="3.77"/><rect class="cls-6" x="135.09" y="60.43" width="9.78" height="3.77"/><rect class="cls-6" x="145.46" y="60.43" width="9.78" height="3.77"/><rect class="cls-6" x="155.83" y="60.43" width="9.78" height="3.77"/><rect class="cls-6" x="166.19" y="60.43" width="9.78" height="3.77"/><rect class="cls-6" x="176.56" y="60.43" width="9.78" height="3.77"/><rect class="cls-6" x="67.49" y="64.86" width="9.78" height="3.77"/><rect class="cls-6" x="77.86" y="64.86" width="9.78" height="3.77"/><rect class="cls-6" x="88.23" y="64.86" width="9.78" height="3.77"/><rect class="cls-6" x="98.6" y="64.86" width="9.78" height="3.77"/><rect class="cls-6" x="108.96" y="64.86" width="9.78" height="3.77"/><rect class="cls-6" x="119.33" y="64.86" width="9.78" height="3.77"/><rect class="cls-6" x="129.7" y="64.86" width="9.78" height="3.77"/><rect class="cls-6" x="140.07" y="64.86" width="9.78" height="3.77"/><rect class="cls-6" x="150.44" y="64.86" width="9.78" height="3.77"/><rect class="cls-6" x="160.81" y="64.86" width="9.78" height="3.77"/><rect class="cls-6" x="171.17" y="64.86" width="9.78" height="3.77"/><polyline class="cls-6" points="186.33 68.63 181.54 68.63 181.54 64.86 186.38 64.86"/><polyline class="cls-7" points="62.38 64.86 67.02 64.86 67.02 68.63 62.34 68.63"/><rect class="cls-6" x="62.51" y="69.13" width="9.78" height="3.77"/><rect class="cls-6" x="72.88" y="69.13" width="9.78" height="3.77"/><rect class="cls-6" x="83.25" y="69.13" width="9.78" height="3.77"/><rect class="cls-6" x="93.62" y="69.13" width="9.78" height="3.77"/><rect class="cls-6" x="103.98" y="69.13" width="9.78" height="3.77"/><rect class="cls-6" x="114.35" y="69.13" width="9.78" height="3.77"/><rect class="cls-6" x="124.72" y="69.13" width="9.78" height="3.77"/><rect class="cls-6" x="135.09" y="69.13" width="9.78" height="3.77"/><rect class="cls-6" x="145.46" y="69.13" width="9.78" height="3.77"/><rect class="cls-6" x="155.83" y="69.13" width="9.78" height="3.77"/><rect class="cls-6" x="166.19" y="69.13" width="9.78" height="3.77"/><rect class="cls-6" x="176.56" y="69.13" width="9.78" height="3.77"/><rect class="cls-6" x="67.49" y="73.57" width="9.78" height="3.77"/><rect class="cls-6" x="77.86" y="73.57" width="9.78" height="3.77"/><rect class="cls-6" x="88.23" y="73.57" width="9.78" height="3.77"/><rect class="cls-6" x="98.6" y="73.57" width="9.78" height="3.77"/><rect class="cls-6" x="108.96" y="73.57" width="9.78" height="3.77"/><rect class="cls-6" x="119.33" y="73.57" width="9.78" height="3.77"/><rect class="cls-6" x="129.7" y="73.57" width="9.78" height="3.77"/><rect class="cls-6" x="140.07" y="73.57" width="9.78" height="3.77"/><rect class="cls-6" x="150.44" y="73.57" width="9.78" height="3.77"/><rect class="cls-6" x="160.81" y="73.57" width="9.78" height="3.77"/><rect class="cls-6" x="171.17" y="73.57" width="9.78" height="3.77"/><polyline class="cls-6" points="186.33 77.34 181.54 77.34 181.54 73.56 186.38 73.56"/><polyline class="cls-7" points="62.38 73.56 67.02 73.56 67.02 77.33 62.34 77.33"/><rect class="cls-6" x="62.51" y="77.84" width="9.78" height="3.77"/><rect class="cls-6" x="72.88" y="77.84" width="9.78" height="3.77"/><rect class="cls-6" x="83.25" y="77.84" width="9.78" height="3.77"/><rect class="cls-6" x="93.62" y="77.84" width="9.78" height="3.77"/><rect class="cls-6" x="103.98" y="77.84" width="9.78" height="3.77"/><rect class="cls-6" x="114.35" y="77.84" width="9.78" height="3.77"/><rect class="cls-6" x="124.72" y="77.84" width="9.78" height="3.77"/><rect class="cls-6" x="135.09" y="77.84" width="9.78" height="3.77"/><rect class="cls-6" x="145.46" y="77.84" width="9.78" height="3.77"/><rect class="cls-6" x="155.83" y="77.84" width="9.78" height="3.77"/><rect class="cls-6" x="166.19" y="77.84" width="9.78" height="3.77"/><rect class="cls-6" x="176.56" y="77.84" width="9.78" height="3.77"/><rect class="cls-6" x="67.49" y="82.27" width="9.78" height="3.77"/><rect class="cls-6" x="77.86" y="82.27" width="9.78" height="3.77"/><rect class="cls-6" x="88.23" y="82.27" width="9.78" height="3.77"/><rect class="cls-6" x="98.6" y="82.27" width="9.78" height="3.77"/><rect class="cls-6" x="108.96" y="82.27" width="9.78" height="3.77"/><rect class="cls-6" x="119.33" y="82.27" width="9.78" height="3.77"/><rect class="cls-6" x="129.7" y="82.27" width="9.78" height="3.77"/><rect class="cls-6" x="140.07" y="82.27" width="9.78" height="3.77"/><rect class="cls-6" x="150.44" y="82.27" width="9.78" height="3.77"/><rect class="cls-6" x="160.81" y="82.27" width="9.78" height="3.77"/><rect class="cls-6" x="171.17" y="82.27" width="9.78" height="3.77"/><polyline class="cls-6" points="186.33 86.05 181.54 86.05 181.54 82.27 186.38 82.27"/><polyline class="cls-7" points="62.38 82.27 67.02 82.27 67.02 86.04 62.34 86.04"/><rect class="cls-6" x="62.51" y="86.55" width="9.78" height="3.77"/><rect class="cls-6" x="72.88" y="86.55" width="9.78" height="3.77"/><rect class="cls-6" x="83.25" y="86.55" width="9.78" height="3.77"/><rect class="cls-6" x="93.62" y="86.55" width="9.78" height="3.77"/><rect class="cls-6" x="103.98" y="86.55" width="9.78" height="3.77"/><rect class="cls-6" x="114.35" y="86.55" width="9.78" height="3.77"/><rect class="cls-6" x="124.72" y="86.55" width="9.78" height="3.77"/><rect class="cls-6" x="135.09" y="86.55" width="9.78" height="3.77"/><rect class="cls-6" x="145.46" y="86.55" width="9.78" height="3.77"/><rect class="cls-6" x="155.83" y="86.55" width="9.78" height="3.77"/><rect class="cls-6" x="166.19" y="86.55" width="9.78" height="3.77"/><rect class="cls-6" x="176.56" y="86.55" width="9.78" height="3.77"/><rect class="cls-6" x="67.49" y="90.98" width="9.78" height="3.77"/><rect class="cls-6" x="77.86" y="90.98" width="9.78" height="3.77"/><rect class="cls-6" x="88.23" y="90.98" width="9.78" height="3.77"/><rect class="cls-6" x="98.6" y="90.98" width="9.78" height="3.77"/><rect class="cls-6" x="108.96" y="90.98" width="9.78" height="3.77"/><rect class="cls-6" x="119.33" y="90.98" width="9.78" height="3.77"/><rect class="cls-6" x="129.7" y="90.98" width="9.78" height="3.77"/><rect class="cls-6" x="140.07" y="90.98" width="9.78" height="3.77"/><rect class="cls-6" x="150.44" y="90.98" width="9.78" height="3.77"/><rect class="cls-6" x="160.81" y="90.98" width="9.78" height="3.77"/><rect class="cls-6" x="171.17" y="90.98" width="9.78" height="3.77"/><polyline class="cls-6" points="186.33 94.75 181.54 94.75 181.54 90.98 186.38 90.98"/><polyline class="cls-7" points="62.38 90.98 67.02 90.98 67.02 94.75 62.34 94.75"/><rect class="cls-6" x="62.51" y="95.26" width="9.78" height="3.77"/><rect class="cls-6" x="72.88" y="95.26" width="9.78" height="3.77"/><rect class="cls-6" x="83.25" y="95.26" width="9.78" height="3.77"/><rect class="cls-6" x="93.62" y="95.26" width="9.78" height="3.77"/><rect class="cls-6" x="103.98" y="95.26" width="9.78" height="3.77"/><rect class="cls-6" x="114.35" y="95.26" width="9.78" height="3.77"/><rect class="cls-6" x="124.72" y="95.26" width="9.78" height="3.77"/><rect class="cls-6" x="135.09" y="95.26" width="9.78" height="3.77"/><rect class="cls-6" x="145.46" y="95.26" width="9.78" height="3.77"/><rect class="cls-6" x="155.83" y="95.26" width="9.78" height="3.77"/><rect class="cls-6" x="166.19" y="95.26" width="9.78" height="3.77"/><rect class="cls-6" x="176.56" y="95.26" width="9.78" height="3.77"/><rect class="cls-6" x="67.49" y="99.69" width="9.78" height="3.77"/><rect class="cls-6" x="77.86" y="99.69" width="9.78" height="3.77"/><rect class="cls-6" x="88.23" y="99.69" width="9.78" height="3.77"/><rect class="cls-6" x="98.6" y="99.69" width="9.78" height="3.77"/><rect class="cls-6" x="108.96" y="99.69" width="9.78" height="3.77"/><rect class="cls-6" x="119.33" y="99.69" width="9.78" height="3.77"/><rect class="cls-6" x="129.7" y="99.69" width="9.78" height="3.77"/><rect class="cls-6" x="140.07" y="99.69" width="9.78" height="3.77"/><rect class="cls-6" x="150.44" y="99.69" width="9.78" height="3.77"/><rect class="cls-6" x="160.81" y="99.69" width="9.78" height="3.77"/><rect class="cls-6" x="171.17" y="99.69" width="9.78" height="3.77"/><polyline class="cls-6" points="186.33 103.46 181.54 103.46 181.54 99.69 186.38 99.69"/><polyline class="cls-7" points="62.38 99.68 67.02 99.68 67.02 103.46 62.34 103.46"/></g><rect class="cls-9" x="61.66" y="50.54" width="125.39" height="2.83"/></g></g></g></svg>