<?xml version="1.0" encoding="utf-8"?>
<!-- Generator: Adobe Illustrator 21.0.0, SVG Export Plug-In . SVG Version: 6.00 Build 0)  -->
<svg version="1.1" id="Capa_1" xmlns="http://www.w3.org/2000/svg" xmlns:xlink="http://www.w3.org/1999/xlink" x="0px" y="0px"
	 viewBox="0 0 248.7 108.9" style="enable-background:new 0 0 248.7 108.9;" xml:space="preserve">
<style type="text/css">
	.st0{fill:none;}
	.st1{fill:none;stroke:#5E4B33;stroke-width:0.6337;stroke-miterlimit:10;}
	.st2{fill:#484147;}
	.st3{fill:#6D8739;}
	.st4{fill:#231F20;}
	.st5{fill:#8EB140;}
	.st6{fill:#9FBEC9;}
	.st7{fill:#F9C745;}
	.st8{fill:#FAF6E6;}
	.st9{fill:#BD5E4B;}
	.st10{fill:#C0A37E;}
</style>
<title>Insumo_casa_4</title>
<rect class="st0" width="248.7" height="108.9"/>
<rect x="81.5" y="13.5" class="st1" width="19.2" height="7.4"/>
<rect x="101.9" y="13.5" class="st1" width="19.2" height="7.4"/>
<rect x="122.2" y="13.5" class="st1" width="19.2" height="7.4"/>
<rect x="142.6" y="13.5" class="st1" width="19.2" height="7.4"/>
<rect x="91.3" y="22.2" class="st1" width="19.2" height="7.4"/>
<rect x="111.6" y="22.2" class="st1" width="19.2" height="7.4"/>
<rect x="132" y="22.2" class="st1" width="19.2" height="7.4"/>
<rect x="81.5" y="30.6" class="st1" width="19.2" height="7.4"/>
<rect x="101.9" y="30.6" class="st1" width="19.2" height="7.4"/>
<rect x="122.2" y="30.6" class="st1" width="19.2" height="7.4"/>
<rect x="142.6" y="30.6" class="st1" width="19.2" height="7.4"/>
<rect x="91.3" y="39.3" class="st1" width="19.2" height="7.4"/>
<rect x="111.6" y="39.3" class="st1" width="19.2" height="7.4"/>
<rect x="132" y="39.3" class="st1" width="19.2" height="7.4"/>
<rect x="81.5" y="47.7" class="st1" width="19.2" height="7.4"/>
<rect x="101.9" y="47.7" class="st1" width="19.2" height="7.4"/>
<rect x="122.2" y="47.7" class="st1" width="19.2" height="7.4"/>
<rect x="142.6" y="47.7" class="st1" width="19.2" height="7.4"/>
<rect x="91.3" y="56.4" class="st1" width="19.2" height="7.4"/>
<rect x="111.6" y="56.4" class="st1" width="19.2" height="7.4"/>
<rect x="132" y="56.4" class="st1" width="19.2" height="7.4"/>
<rect x="81.5" y="64.8" class="st1" width="19.2" height="7.4"/>
<rect x="101.9" y="64.8" class="st1" width="19.2" height="7.4"/>
<rect x="122.2" y="64.8" class="st1" width="19.2" height="7.4"/>
<rect x="142.6" y="64.8" class="st1" width="19.2" height="7.4"/>
<rect x="91.3" y="73.5" class="st1" width="19.2" height="7.4"/>
<rect x="111.6" y="73.5" class="st1" width="19.2" height="7.4"/>
<rect x="132" y="73.5" class="st1" width="19.2" height="7.4"/>
<rect x="81.5" y="81.9" class="st1" width="19.2" height="7.4"/>
<rect x="101.9" y="81.9" class="st1" width="19.2" height="7.4"/>
<rect x="122.2" y="81.9" class="st1" width="19.2" height="7.4"/>
<rect x="142.6" y="81.9" class="st1" width="19.2" height="7.4"/>
<rect x="77.1" y="76.8" class="st2" width="92.9" height="22.4"/>
<path class="st3" d="M82.3,59.9c0,0.7,0.5,1.2,1.2,1.2l5.5,0.6c0.7,0,1.2-0.5,1.2-1.2v-3.8c0-0.7-0.5-1.2-1.2-1.2h-5.1
	c-0.7,0-1.2,0.5-1.2,1.2L82.3,59.9z"/>
<path class="st3" d="M164.4,59.9c0,0.7-0.5,1.2-1.2,1.2l-5.5,0.6c-0.7,0-1.2-0.5-1.2-1.2v-3.8c0-0.7,0.5-1.2,1.2-1.2h5.1
	c0.7,0,1.2,0.5,1.2,1.2L164.4,59.9z"/>
<ellipse class="st2" cx="123.4" cy="91.1" rx="3.8" ry="2.2"/>
<path class="st4" d="M146.1,96.7c0,1.4,0.6,2.5,1.4,2.5h4.5c0.8,0,1.4-1.1,1.4-2.5V80.3c0-1.4-0.6-2.5-1.4-2.5h-4.5
	c-0.8,0-1.4,1.1-1.4,2.5V96.7z"/>
<path class="st4" d="M93.3,96.7c0,1.4,0.6,2.5,1.4,2.5h4.5c0.8,0,1.4-1.1,1.4-2.5V80.3c0-1.4-0.6-2.5-1.4-2.5h-4.5
	c-0.8,0-1.4,1.1-1.4,2.5V96.7z"/>
<path class="st2" d="M90.9,90c0,0.9,0.7,1.5,1.5,1.5h61.8c0.9,0,1.5-0.7,1.5-1.5l0,0c0-0.9-0.7-1.5-1.5-1.5H92.4
	C91.5,88.4,90.8,89.1,90.9,90L90.9,90z"/>
<polygon class="st5" points="88.9,90.8 157.5,90.8 161.8,82.2 157.5,61.7 144.9,43.9 123.6,43.9 101.5,43.9 88.9,61.7 84.9,82.2 "/>
<polygon class="st6" points="94.5,61.4 109.8,64.7 137,64.7 152.2,61.4 144.3,46 123.7,46 103,46 "/>
<polygon class="st3" points="85.7,77.7 93.4,81.5 107,82.2 123.4,82.2 139.8,82.2 153.4,81.5 161,77.7 161.9,83.2 157.6,90.8 
	123.4,90.8 89.1,90.8 84.8,83.2 "/>
<polygon class="st7" points="152.7,80.5 142.5,80.8 139.6,77.5 152.7,74.6 "/>
<polygon class="st7" points="94,80.5 104.2,80.8 107.1,77.5 94,74.6 "/>
<rect x="111.1" y="83.2" class="st8" width="24.6" height="5"/>
<polygon class="st3" points="149.6,64.7 153.2,71.9 139.5,75.7 123.5,75.7 139.5,74.6 151.7,71.3 "/>
<polygon class="st3" points="97.1,64.7 93.5,71.9 107.2,75.7 123.2,75.7 107.2,74.6 95,71.3 "/>
<polygon class="st9" points="154,74.6 157.2,74.6 158.2,78.4 154,80.1 "/>
<polygon class="st9" points="92.7,74.6 89.6,74.6 88.5,78.4 92.7,80.1 "/>
<path class="st2" d="M119.5,48.2h7.7c0.5,0,0.9,0.4,0.9,0.9l0,0v1.4c0,0.5-0.4,0.9-0.9,0.9l0,0h-7.7c-0.5,0-0.9-0.4-0.9-0.9l0,0
	v-1.5C118.6,48.7,119,48.2,119.5,48.2z"/>
<path class="st2" d="M107.7,78.7c0,0.2,0.2,0.3,0.4,0.3h30.6c0.2,0,0.3-0.1,0.4-0.3l0,0c0-0.2-0.2-0.4-0.4-0.4c0,0,0,0,0,0h-30.6
	C107.9,78.3,107.7,78.5,107.7,78.7L107.7,78.7z"/>
<path class="st2" d="M107.7,81.2c0,0.2,0.2,0.3,0.4,0.3h30.6c0.2,0,0.3-0.1,0.4-0.3l0,0c0-0.2-0.2-0.4-0.4-0.4c0,0,0,0,0,0h-30.6
	C107.9,80.8,107.7,81,107.7,81.2L107.7,81.2z"/>
<path class="st2" d="M107.7,80c0,0.2,0.2,0.3,0.4,0.3h30.6c0.2,0,0.3-0.1,0.4-0.3l0,0c0-0.2-0.2-0.4-0.4-0.4c0,0,0,0,0,0h-30.6
	C107.9,79.6,107.7,79.8,107.7,80L107.7,80z"/>
<polygon class="st3" points="138.3,66.3 133.7,72.9 133,72.9 "/>
<polygon class="st3" points="108.4,66.3 113,72.9 113.7,72.9 "/>
<path class="st9" d="M108.8,57.7c4,0,7.3,3,7.8,6.9h-1.9c-0.4-2.9-2.9-5.1-5.9-5.1c-2.4,0-4.6,1.5-5.6,3.7l-1.8-0.4
	C102.6,59.8,105.5,57.8,108.8,57.7z"/>
<rect x="77.1" y="8.8" class="st10" width="92.9" height="68.4"/>
<rect x="77.1" y="18.1" class="st9" width="92.9" height="3"/>
<rect x="77.1" y="22.2" class="st9" width="92.9" height="3"/>
<rect x="77.1" y="26.2" class="st9" width="92.9" height="3"/>
<rect x="77.1" y="30.3" class="st9" width="92.9" height="3"/>
<rect x="77.1" y="34.4" class="st9" width="92.9" height="3"/>
<rect x="77.1" y="38.5" class="st9" width="92.9" height="3"/>
<rect x="77.1" y="42.6" class="st9" width="92.9" height="3"/>
<rect x="77.1" y="46.6" class="st9" width="92.9" height="3"/>
<rect x="77.1" y="50.7" class="st9" width="92.9" height="3"/>
<rect x="77.1" y="54.8" class="st9" width="92.9" height="3"/>
<rect x="77.1" y="58.9" class="st9" width="92.9" height="3"/>
<rect x="77.1" y="62.9" class="st9" width="92.9" height="3"/>
<rect x="77.1" y="67" class="st9" width="92.9" height="3"/>
<rect x="77.1" y="71.1" class="st9" width="92.9" height="3"/>
<rect x="77.1" y="75.2" class="st9" width="92.9" height="3"/>
<rect x="77.1" y="14.3" class="st9" width="92.9" height="3"/>
<rect x="77.1" y="10.5" class="st9" width="92.9" height="3"/>
<rect x="77.1" y="6.7" class="st9" width="92.9" height="3"/>
</svg>
