<svg xmlns="http://www.w3.org/2000/svg" viewBox="0 0 150.23 41.03"><defs><style>.cls-1{fill:#303030;}.cls-2{fill:#4f4f4f;}.cls-3{fill:#474747;}</style></defs><title>Insumo_auto_9</title><g id="Capa_2" data-name="Capa 2"><g id="Layer_1" data-name="Layer 1"><path class="cls-1" d="M.77,40.95A1.18,1.18,0,0,1,0,40.77,1.4,1.4,0,0,1,.18,40L11.43,6.64C13.33,3.28,19.12,0,23.27,0H127c4.15,0,9.94,3.28,11.9,6.76L150,40a1.28,1.28,0,0,1,.17.78,1.24,1.24,0,0,1-.75.16Z"/><path class="cls-2" d="M7.76,41l-.18-2.59c1.85-.12,45.51-3,64.5,0L71.67,41C53,38,8.21,41,7.76,41Z"/><rect class="cls-2" x="51.38" y="37.29" width="20.97" height="3.65"/><path class="cls-2" d="M75.62,41l-.19-2.59c1.74-.13,42.78-3,61.76,0L136.78,41C118.1,38,76,41,75.62,41Z"/><rect class="cls-2" x="116.49" y="37.29" width="20.97" height="3.65"/><path class="cls-3" d="M127,2.74H23.27c-3.07,0-7.76,2.56-9.34,5l-2.4,7.1L135.86,7.27C133.94,4.94,129.77,2.74,127,2.74Z"/><path d="M135.86,7.27,11.53,14.89,3.67,38.21H146.55l-10.2-30.3A6.57,6.57,0,0,0,135.86,7.27Z"/></g></g></svg>