<svg xmlns="http://www.w3.org/2000/svg" viewBox="0 0 248.71 108.94"><defs><style>.cls-1{fill:none;opacity:0.8;}.cls-2{fill:#545454;}.cls-3{fill:#191919;}</style></defs><title>Insumo_auto_6</title><g id="Capa_2" data-name="Capa 2"><g id="Layer_1" data-name="Layer 1"><rect class="cls-1" width="248.71" height="108.94"/><path class="cls-2" d="M142.29,99.72l-44.82,1A4.67,4.67,0,0,1,92.8,96L91.24,83a4.67,4.67,0,0,1,4.67-4.67l47.94,3.12a4.67,4.67,0,0,1,4.67,4.67L147,95A4.67,4.67,0,0,1,142.29,99.72Z"/><path class="cls-2" d="M154.27,25.38l-4.61-.83a5.55,5.55,0,0,0-6.28,4.72L134.88,81a3.73,3.73,0,0,0,3.17,4.22l7.56,1.07a3.73,3.73,0,0,0,4.22-3.17l7.61-53.53A3.73,3.73,0,0,0,154.27,25.38Z"/><path class="cls-2" d="M154.55,8.72l-5.06-.5A1.7,1.7,0,0,0,147.91,10l-1.51,11.45a1.7,1.7,0,0,0,1.57,1.8l6.55.26a1.7,1.7,0,0,0,1.58-1.79l0-11.21A1.7,1.7,0,0,0,154.55,8.72Z"/><circle class="cls-3" cx="141.91" cy="83.77" r="7.52"/><rect class="cls-2" x="151.14" y="21.05" width="2.06" height="6.55" transform="translate(2.09 -10.67) rotate(4.05)"/></g></g></svg>