<svg xmlns="http://www.w3.org/2000/svg" viewBox="0 0 248.71 108.94"><defs><style>.cls-1{fill:none;opacity:0.8;}.cls-2{fill:#b5b5b5;}.cls-3,.cls-5{fill:#00488e;}.cls-3{stroke:#f60;stroke-miterlimit:22.93;stroke-width:0.35px;}.cls-3,.cls-4,.cls-5,.cls-6,.cls-7{fill-rule:evenodd;}.cls-4{fill:#019dcb;}.cls-6{fill:#03bddc;}.cls-7{fill:#c4ffff;opacity:0.5;}.cls-8{fill:#7d7c7f;}</style></defs><title>Insumo_nave_9</title><g id="Capa_2" data-name="Capa 2"><g id="Layer_1" data-name="Layer 1"><rect class="cls-1" width="248.71" height="108.94"/><circle class="cls-2" cx="124.36" cy="54.47" r="43.33"/><path class="cls-3" d="M124.67,90.35a35.89,35.89,0,1,0-36-35.58A35.87,35.87,0,0,0,124.67,90.35Z"/><path class="cls-4" d="M123.21,90.36A34.42,34.42,0,1,0,88.67,56.23,34.4,34.4,0,0,0,123.21,90.36Z"/><path class="cls-5" d="M123.47,86.7A28.66,28.66,0,1,0,94.71,58.28,28.64,28.64,0,0,0,123.47,86.7Z"/><path class="cls-6" d="M125.31,85A27.5,27.5,0,1,0,97.72,57.77,27.48,27.48,0,0,0,125.31,85Z"/><path class="cls-7" d="M129.86,79.5a27.53,27.53,0,0,1-23.42-42.09,27.43,27.43,0,1,0,41.82,34.72l-.43.4A27.17,27.17,0,0,1,129.86,79.5Z"/><path class="cls-7" d="M119.35,22.12a34.45,34.45,0,0,1,8.76,67.78,34.42,34.42,0,1,0-14.25-67.3A34.32,34.32,0,0,1,119.35,22.12Z"/><circle class="cls-8" cx="123.76" cy="14.64" r="1.32"/><circle class="cls-8" cx="123.76" cy="93.21" r="1.32"/><circle class="cls-8" cx="84.47" cy="53.93" r="1.32"/><circle class="cls-8" cx="163.05" cy="53.93" r="1.32"/><circle class="cls-8" cx="151.54" cy="26.14" r="1.32" transform="translate(25.9 114.81) rotate(-45)"/><circle class="cls-8" cx="95.97" cy="81.71" r="1.32" transform="translate(-29.67 91.8) rotate(-45)"/><circle class="cls-8" cx="95.97" cy="26.14" r="1.32" transform="translate(9.62 75.52) rotate(-45)"/><circle class="cls-8" cx="151.54" cy="81.71" r="1.32" transform="translate(-13.39 131.09) rotate(-45)"/></g></g></svg>