<svg xmlns="http://www.w3.org/2000/svg" xmlns:xlink="http://www.w3.org/1999/xlink" viewBox="0 0 248.71 108.94"><defs><style>.cls-1{fill:none;opacity:0.8;}.cls-2{fill:#a1a1a1;}.cls-3{fill:gray;}.cls-4,.cls-55{fill:#545454;}.cls-5{fill:url(#linear-gradient);}.cls-6{fill:#fddd9c;}.cls-7{fill:#fff;}.cls-8{fill:url(#radial-gradient);}.cls-9{fill:url(#radial-gradient-2);}.cls-10{fill:url(#radial-gradient-3);}.cls-11{fill:url(#radial-gradient-4);}.cls-12{fill:url(#linear-gradient-2);}.cls-13{fill:url(#linear-gradient-3);}.cls-14{fill:url(#linear-gradient-4);}.cls-15{fill:url(#linear-gradient-5);}.cls-16{fill:url(#linear-gradient-6);}.cls-17{fill:url(#linear-gradient-7);}.cls-18{fill:url(#linear-gradient-8);}.cls-19{fill:url(#linear-gradient-9);}.cls-20{fill:url(#radial-gradient-5);}.cls-21{fill:url(#radial-gradient-6);}.cls-22{fill:url(#radial-gradient-7);}.cls-23{fill:url(#radial-gradient-8);}.cls-24{fill:url(#linear-gradient-10);}.cls-25{fill:url(#linear-gradient-11);}.cls-26{fill:url(#linear-gradient-12);}.cls-27{fill:url(#linear-gradient-13);}.cls-28{fill:url(#linear-gradient-14);}.cls-29{fill:url(#linear-gradient-15);}.cls-30{fill:url(#linear-gradient-16);}.cls-31{fill:url(#linear-gradient-17);}.cls-32{fill:url(#linear-gradient-18);}.cls-33{fill:url(#linear-gradient-19);}.cls-34{fill:url(#radial-gradient-9);}.cls-35{fill:url(#radial-gradient-10);}.cls-36{fill:url(#radial-gradient-11);}.cls-37{fill:url(#radial-gradient-12);}.cls-38{fill:url(#linear-gradient-20);}.cls-39{fill:url(#linear-gradient-21);}.cls-40{fill:url(#linear-gradient-22);}.cls-41{fill:url(#linear-gradient-23);}.cls-42{fill:url(#linear-gradient-24);}.cls-43{fill:url(#linear-gradient-25);}.cls-44{fill:url(#linear-gradient-26);}.cls-45{fill:url(#linear-gradient-27);}.cls-46{fill:url(#linear-gradient-28);}.cls-47{fill:url(#linear-gradient-29);}.cls-48{fill:#696969;}.cls-49{fill:#303030;}.cls-50{fill:#575757;}.cls-51{fill:#d9d8d7;}.cls-52,.cls-53{fill:#fff6f6;}.cls-52{fill-rule:evenodd;}.cls-54{fill:url(#linear-gradient-30);}.cls-55{stroke:#81cffa;stroke-width:0.75px;}.cls-55,.cls-57,.cls-58{stroke-miterlimit:10;}.cls-56{fill:#2dbccd;}.cls-57{fill:#878787;stroke:#57c9ff;stroke-width:0.19px;}.cls-58{fill:#f4911e;stroke:#fff;stroke-width:0.38px;}.cls-59{fill:#c7f6ff;}</style><linearGradient id="linear-gradient" x1="333.43" y1="91.77" x2="342.75" y2="91.77" gradientTransform="translate(-223.82)" gradientUnits="userSpaceOnUse"><stop offset="0"/><stop offset="0.08" stop-color="#0c0c0c"/><stop offset="0.21" stop-color="#2b2b2b"/><stop offset="0.39" stop-color="#5c5c5c"/><stop offset="0.49" stop-color="#7d7d7d"/><stop offset="0.52" stop-color="#747474"/><stop offset="0.68" stop-color="#424242"/><stop offset="0.82" stop-color="#1e1e1e"/><stop offset="0.93" stop-color="#080808"/><stop offset="1"/></linearGradient><radialGradient id="radial-gradient" cx="348.89" cy="80.94" r="8.61" gradientTransform="translate(-223.82)" gradientUnits="userSpaceOnUse"><stop offset="0.93" stop-color="#6e6e6e"/><stop offset="1"/></radialGradient><radialGradient id="radial-gradient-2" cx="348.89" cy="80.94" r="7.4" gradientTransform="translate(-223.82)" gradientUnits="userSpaceOnUse"><stop offset="0"/><stop offset="0.26" stop-color="#fff"/><stop offset="1"/></radialGradient><radialGradient id="radial-gradient-3" cx="348.89" cy="80.94" r="2.95" gradientTransform="translate(-223.82)" gradientUnits="userSpaceOnUse"><stop offset="0"/><stop offset="0.28" stop-color="#020202"/><stop offset="0.41" stop-color="#0a0a0a"/><stop offset="0.51" stop-color="#171717"/><stop offset="0.6" stop-color="#2a2a2a"/><stop offset="0.68" stop-color="#424242"/><stop offset="0.75" stop-color="#5f5f5f"/><stop offset="0.82" stop-color="#828282"/><stop offset="0.87" stop-color="#a2a2a2"/><stop offset="1"/></radialGradient><radialGradient id="radial-gradient-4" cx="348.89" cy="80.94" r="2.28" xlink:href="#radial-gradient-3"/><linearGradient id="linear-gradient-2" x1="346.01" y1="75.65" x2="351.66" y2="75.65" gradientTransform="translate(-223.82)" gradientUnits="userSpaceOnUse"><stop offset="0"/><stop offset="0.58" stop-color="#fff"/><stop offset="1"/></linearGradient><linearGradient id="linear-gradient-3" x1="346.22" y1="75.67" x2="351.46" y2="75.67" gradientTransform="translate(-223.82)" gradientUnits="userSpaceOnUse"><stop offset="0" stop-color="#fff"/><stop offset="1"/></linearGradient><linearGradient id="linear-gradient-4" x1="-2415.8" y1="5309.87" x2="-2410.15" y2="5309.87" gradientTransform="translate(-5190.1 -2331.99) rotate(-90)" xlink:href="#linear-gradient-2"/><linearGradient id="linear-gradient-5" x1="-2415.6" y1="5309.9" x2="-2410.36" y2="5309.9" gradientTransform="translate(-5190.1 -2331.99) rotate(-90)" xlink:href="#linear-gradient-3"/><linearGradient id="linear-gradient-6" x1="-7650.03" y1="2548.06" x2="-7644.38" y2="2548.06" gradientTransform="translate(-7522.09 2634.29) rotate(180)" xlink:href="#linear-gradient-2"/><linearGradient id="linear-gradient-7" x1="-7649.82" y1="2548.08" x2="-7644.58" y2="2548.08" gradientTransform="translate(-7522.09 2634.29) rotate(180)" xlink:href="#linear-gradient-3"/><linearGradient id="linear-gradient-8" x1="-4888.22" y1="-2686.16" x2="-4882.57" y2="-2686.16" gradientTransform="translate(-2555.81 4966.28) rotate(90)" xlink:href="#linear-gradient-2"/><linearGradient id="linear-gradient-9" x1="-4888.01" y1="-2686.14" x2="-4882.77" y2="-2686.14" gradientTransform="translate(-2555.81 4966.28) rotate(90)" xlink:href="#linear-gradient-3"/><radialGradient id="radial-gradient-5" cx="328.37" cy="80.94" r="8.61" xlink:href="#radial-gradient"/><radialGradient id="radial-gradient-6" cx="328.37" cy="80.94" r="7.4" xlink:href="#radial-gradient-2"/><radialGradient id="radial-gradient-7" cx="328.37" cy="80.94" r="2.95" xlink:href="#radial-gradient-3"/><radialGradient id="radial-gradient-8" cx="328.37" cy="80.94" r="2.28" xlink:href="#radial-gradient-3"/><linearGradient id="linear-gradient-10" x1="325.5" y1="75.65" x2="331.15" y2="75.65" xlink:href="#linear-gradient-2"/><linearGradient id="linear-gradient-11" x1="325.7" y1="75.67" x2="330.94" y2="75.67" xlink:href="#linear-gradient-3"/><linearGradient id="linear-gradient-12" x1="-1180.39" y1="4612" x2="-1174.74" y2="4612" gradientTransform="translate(-3923.1 -2465.74) rotate(-72)" xlink:href="#linear-gradient-2"/><linearGradient id="linear-gradient-13" x1="-1180.19" y1="4612.02" x2="-1174.95" y2="4612.02" gradientTransform="translate(-3923.1 -2465.74) rotate(-72)" xlink:href="#linear-gradient-3"/><linearGradient id="linear-gradient-14" x1="-5958.93" y1="4582.39" x2="-5953.28" y2="4582.39" gradientTransform="translate(-7410.53 291.4) rotate(-144)" xlink:href="#linear-gradient-2"/><linearGradient id="linear-gradient-15" x1="-5958.72" y1="4582.41" x2="-5953.48" y2="4582.41" gradientTransform="translate(-7410.53 291.4) rotate(-144)" xlink:href="#linear-gradient-3"/><linearGradient id="linear-gradient-16" x1="-7408.11" y1="27.81" x2="-7402.46" y2="27.81" gradientTransform="translate(-5866.83 4460.51) rotate(144)" xlink:href="#linear-gradient-2"/><linearGradient id="linear-gradient-17" x1="-7407.9" y1="27.83" x2="-7402.66" y2="27.83" gradientTransform="translate(-5866.83 4460.51) rotate(144)" xlink:href="#linear-gradient-3"/><linearGradient id="linear-gradient-18" x1="-3523.98" y1="-2758.09" x2="-3518.33" y2="-2758.09" gradientTransform="translate(-1425.62 4280.48) rotate(72)" xlink:href="#linear-gradient-2"/><linearGradient id="linear-gradient-19" x1="-3523.78" y1="-2758.07" x2="-3518.54" y2="-2758.07" gradientTransform="translate(-1425.62 4280.48) rotate(72)" xlink:href="#linear-gradient-3"/><radialGradient id="radial-gradient-9" cx="369.07" cy="80.94" r="8.61" xlink:href="#radial-gradient"/><radialGradient id="radial-gradient-10" cx="369.07" cy="80.94" r="7.4" xlink:href="#radial-gradient-2"/><radialGradient id="radial-gradient-11" cx="369.07" cy="80.94" r="2.95" xlink:href="#radial-gradient-3"/><radialGradient id="radial-gradient-12" cx="369.07" cy="80.94" r="2.28" xlink:href="#radial-gradient-3"/><linearGradient id="linear-gradient-20" x1="366.19" y1="75.65" x2="371.84" y2="75.65" xlink:href="#linear-gradient-2"/><linearGradient id="linear-gradient-21" x1="366.4" y1="75.67" x2="371.64" y2="75.67" xlink:href="#linear-gradient-3"/><linearGradient id="linear-gradient-22" x1="-1167.82" y1="4650.7" x2="-1162.17" y2="4650.7" gradientTransform="translate(-3923.1 -2465.74) rotate(-72)" xlink:href="#linear-gradient-2"/><linearGradient id="linear-gradient-23" x1="-1167.61" y1="4650.72" x2="-1162.37" y2="4650.72" gradientTransform="translate(-3923.1 -2465.74) rotate(-72)" xlink:href="#linear-gradient-3"/><linearGradient id="linear-gradient-24" x1="-5991.85" y1="4606.31" x2="-5986.2" y2="4606.31" gradientTransform="translate(-7410.53 291.4) rotate(-144)" xlink:href="#linear-gradient-2"/><linearGradient id="linear-gradient-25" x1="-5991.64" y1="4606.33" x2="-5986.4" y2="4606.33" gradientTransform="translate(-7410.53 291.4) rotate(-144)" xlink:href="#linear-gradient-3"/><linearGradient id="linear-gradient-26" x1="-7441.03" y1="3.89" x2="-7435.38" y2="3.89" gradientTransform="translate(-5866.83 4460.51) rotate(144)" xlink:href="#linear-gradient-2"/><linearGradient id="linear-gradient-27" x1="-7440.83" y1="3.91" x2="-7435.59" y2="3.91" gradientTransform="translate(-5866.83 4460.51) rotate(144)" xlink:href="#linear-gradient-3"/><linearGradient id="linear-gradient-28" x1="-3511.41" y1="-2796.79" x2="-3505.76" y2="-2796.79" gradientTransform="translate(-1425.62 4280.48) rotate(72)" xlink:href="#linear-gradient-2"/><linearGradient id="linear-gradient-29" x1="-3511.2" y1="-2796.77" x2="-3505.96" y2="-2796.77" gradientTransform="translate(-1425.62 4280.48) rotate(72)" xlink:href="#linear-gradient-3"/><linearGradient id="linear-gradient-30" x1="355.45" y1="91.77" x2="364.76" y2="91.77" xlink:href="#linear-gradient"/></defs><title>Insumo_nave_4</title><g id="Capa_2" data-name="Capa 2"><g id="Layer_1" data-name="Layer 1"><rect class="cls-1" width="248.71" height="108.94"/><path class="cls-2" d="M94.76,99.51a3.73,3.73,0,0,0,3.75,3.71h51.26a3.73,3.73,0,0,0,3.75-3.71l2.79-26.82L155,9.42a3.73,3.73,0,0,0-3.75-3.71H98.64a3.73,3.73,0,0,0-3.75,3.71L92.39,72.59Z"/><path class="cls-3" d="M152.51,99.5l2.27-22.37s.21-1.44-2.27-1.44H95.44s-1.24-.41-1.13,1.86,1.13,21.78,1.13,21.78Z"/><path class="cls-4" d="M94.31,73.42a1.23,1.23,0,0,0,1.23,1.24h58a1.23,1.23,0,0,0,1.23-1.24V51.61a1.23,1.23,0,0,0-1.23-1.24h-58a1.23,1.23,0,0,0-1.23,1.24Z"/><path class="cls-5" d="M118.92,91.77c0,1.64-2.1,3-4.66,3s-4.66-1.34-4.66-3,2.1-3,4.66-3S118.92,90.13,118.92,91.77Z"/><path class="cls-6" d="M115.53,90a.27.27,0,0,1-.27.27h-2A.27.27,0,0,1,113,90h0a.27.27,0,0,1,.27-.27h2a.27.27,0,0,1,.27.27Z"/><path class="cls-7" d="M112.69,91.27h3.16a.39.39,0,0,1,.39.39v1.58a.39.39,0,0,1-.39.39h-.43c.26.47-.3.92-.31.92a.08.08,0,0,1-.11,0,.08.08,0,0,1,0-.11s.51-.41.21-.8h-.7c.26.47-.3.92-.3.92a.08.08,0,0,1-.11,0,.08.08,0,0,1,0-.11s.51-.41.21-.8h-.7c.26.47-.3.92-.31.92a.08.08,0,0,1-.11,0,.08.08,0,0,1,0-.11s.51-.41.21-.8h-.75a.39.39,0,0,1-.39-.39V91.66a.39.39,0,0,1,.39-.39Zm.75,1.26a.56.56,0,0,0,0,.87l.07.07h.65a.71.71,0,0,1,.05-1.05l-.2-.2h.51v.51l-.2-.2a.56.56,0,0,0,0,.87l.07.07h.65a.71.71,0,0,1,.05-1.05l-.2-.2h.51v.51l-.2-.2a.56.56,0,0,0,0,.87l.07.07h.55a.23.23,0,0,0,.23-.23V91.66a.23.23,0,0,0-.23-.23h-3.16a.23.23,0,0,0-.16.07.23.23,0,0,0-.07.16v1.58a.23.23,0,0,0,.23.23h.59a.71.71,0,0,1,.05-1.05l-.2-.2h.51v.51l-.2-.2Z"/><circle class="cls-8" cx="125.06" cy="80.94" r="8.61"/><circle class="cls-9" cx="125.06" cy="80.94" r="7.4"/><circle class="cls-10" cx="125.06" cy="80.94" r="2.95"/><circle class="cls-11" cx="125.06" cy="80.94" r="2.28"/><path class="cls-12" d="M125,73.22a12.27,12.27,0,0,0-2.52.39.4.4,0,0,0-.29.48q.53,1.8,1,3.59c.06.21.22.38.37.38a6.43,6.43,0,0,0,.92-.09,3,3,0,0,1,1.19,0,3.44,3.44,0,0,0,.59.09.68.68,0,0,0,.49-.38q.5-1.8,1-3.59a.39.39,0,0,0-.29-.48A12.26,12.26,0,0,0,125,73.22Z"/><path class="cls-13" d="M125,73.37a11.15,11.15,0,0,0-2.33.37.37.37,0,0,0-.27.46q.49,1.7,1,3.41c.05.2.21.36.34.36a5.87,5.87,0,0,0,.86-.09,2.68,2.68,0,0,1,1.11,0,3.14,3.14,0,0,0,.55.09.64.64,0,0,0,.45-.36q.46-1.7,1-3.41a.37.37,0,0,0-.27-.46A11.15,11.15,0,0,0,125,73.37Z"/><polygon class="cls-6" points="124.09 74.55 124.9 73.75 125.71 74.55 124.09 74.55"/><path class="cls-14" d="M117.35,81a12.24,12.24,0,0,0,.39,2.51.39.39,0,0,0,.48.29l3.59-1c.21-.06.38-.22.38-.37a6.43,6.43,0,0,0-.1-.92,3,3,0,0,1,0-1.19,3.45,3.45,0,0,0,.1-.59.68.68,0,0,0-.38-.49l-3.59-1a.39.39,0,0,0-.48.29A12.31,12.31,0,0,0,117.35,81Z"/><path class="cls-15" d="M117.5,81a11.14,11.14,0,0,0,.37,2.33.38.38,0,0,0,.46.27l3.41-1c.2-.05.36-.21.36-.34a5.83,5.83,0,0,0-.09-.86,2.72,2.72,0,0,1,0-1.11,3.1,3.1,0,0,0,.09-.55.64.64,0,0,0-.36-.45l-3.41-1a.37.37,0,0,0-.46.27A11.16,11.16,0,0,0,117.5,81Z"/><polygon class="cls-6" points="118.67 81.91 117.87 81.1 118.67 80.29 118.67 81.91"/><path class="cls-16" d="M125.11,88.65a12.29,12.29,0,0,0,2.52-.39.4.4,0,0,0,.29-.48q-.53-1.8-1-3.6c-.06-.21-.22-.38-.37-.38a6.33,6.33,0,0,0-.92.09,3,3,0,0,1-1.19,0,3.37,3.37,0,0,0-.59-.09.68.68,0,0,0-.49.38q-.5,1.8-1,3.6a.4.4,0,0,0,.29.48A12.3,12.3,0,0,0,125.11,88.65Z"/><path class="cls-17" d="M125.11,88.5a11.17,11.17,0,0,0,2.33-.37.38.38,0,0,0,.27-.46q-.49-1.7-1-3.41c-.05-.2-.21-.36-.34-.36a5.85,5.85,0,0,0-.86.09,2.69,2.69,0,0,1-1.11,0,3.13,3.13,0,0,0-.55-.09.64.64,0,0,0-.45.36q-.46,1.7-1,3.41a.38.38,0,0,0,.27.46A11.18,11.18,0,0,0,125.11,88.5Z"/><polygon class="cls-6" points="126.03 87.33 125.22 88.13 124.41 87.33 126.03 87.33"/><path class="cls-18" d="M132.78,80.89a12.35,12.35,0,0,0-.39-2.52.4.4,0,0,0-.49-.29l-3.59,1c-.21.06-.38.22-.38.37a6.56,6.56,0,0,0,.09.92,3,3,0,0,1,0,1.19,3.52,3.52,0,0,0-.09.59.68.68,0,0,0,.38.49l3.59,1a.4.4,0,0,0,.49-.29A12.34,12.34,0,0,0,132.78,80.89Z"/><path class="cls-19" d="M132.63,80.89a11.17,11.17,0,0,0-.37-2.33.38.38,0,0,0-.46-.27l-3.41,1c-.2.05-.36.21-.36.34a5.89,5.89,0,0,0,.09.86,2.72,2.72,0,0,1,0,1.11,3.14,3.14,0,0,0-.09.55.64.64,0,0,0,.36.45l3.41,1a.38.38,0,0,0,.46-.27A11.16,11.16,0,0,0,132.63,80.89Z"/><polygon class="cls-6" points="131.46 79.97 132.26 80.78 131.46 81.59 131.46 79.97"/><path class="cls-7" d="M119.06,81.18l-.09.27h-.12l.29-.86h.13l.29.86h-.12l-.09-.27Zm.28-.09-.09-.25c0-.06,0-.11,0-.16h0c0,.05,0,.1,0,.16l-.08.25Z"/><path class="cls-7" d="M119.77,80.59v.51c0,.19.09.27.2.27s.21-.08.21-.27v-.51h.11v.5c0,.26-.14.37-.32.37s-.31-.1-.31-.37v-.51Z"/><path class="cls-7" d="M120.65,80.69h-.26v-.09H121v.09h-.26v.76h-.11Z"/><path class="cls-7" d="M121.82,81a.4.4,0,0,1-.4.45A.39.39,0,0,1,121,81a.41.41,0,0,1,.4-.45A.39.39,0,0,1,121.82,81Zm-.67,0c0,.18.1.35.27.35s.28-.16.28-.36-.09-.35-.27-.35S121.15,80.84,121.15,81Z"/><path class="cls-7" d="M123.39,85.51l.24,0a.5.5,0,0,1,.35.11.39.39,0,0,1,.12.31.46.46,0,0,1-.12.33.53.53,0,0,1-.38.12h-.2Zm.11.76h.11a.33.33,0,0,0,.37-.36.31.31,0,0,0-.35-.33h-.13Z"/><path class="cls-7" d="M125,85.91a.4.4,0,0,1-.4.45.39.39,0,0,1-.39-.44.41.41,0,0,1,.4-.45A.39.39,0,0,1,125,85.91Zm-.67,0c0,.18.1.35.28.35s.27-.16.27-.36-.09-.35-.27-.35S124.3,85.74,124.3,85.93Z"/><path class="cls-7" d="M125.26,86.35l-.22-.86h.12l.1.43c0,.11,0,.21.06.3h0c0-.09,0-.19.07-.3l.12-.43h.12l.1.43c0,.1,0,.2.06.29h0c0-.09,0-.19.07-.3l.11-.43h.11l-.24.86h-.12l-.11-.45c0-.11,0-.2-.06-.28h0a2.51,2.51,0,0,1-.07.28l-.12.45Z"/><path class="cls-7" d="M126.19,86.35v-.86h.12l.27.43a2.43,2.43,0,0,1,.15.28h0c0-.11,0-.22,0-.35v-.36h.11v.86h-.11l-.27-.44a2.42,2.42,0,0,1-.16-.29h0c0,.11,0,.21,0,.35v.37Z"/><path class="cls-7" d="M129.07,81l-.09.27h-.12l.29-.86h.13l.29.86h-.12l-.09-.27Zm.28-.09-.08-.25,0-.16h0c0,.05,0,.1,0,.16l-.08.25Z"/><path class="cls-7" d="M129.62,81.35l.35-.92h.09l-.36.92Z"/><path class="cls-7" d="M130.75,81.27a.55.55,0,0,1-.23,0,.4.4,0,0,1-.42-.44.43.43,0,0,1,.45-.45.46.46,0,0,1,.2,0l0,.09a.39.39,0,0,0-.17,0,.32.32,0,0,0-.33.35.31.31,0,0,0,.33.35.45.45,0,0,0,.18,0Z"/><path class="cls-7" d="M124.67,74.93v.51c0,.19.09.27.2.27s.21-.08.21-.27v-.51h.11v.5c0,.26-.14.37-.33.37s-.31-.1-.31-.37v-.51Z"/><path class="cls-7" d="M125.39,74.94l.21,0a.35.35,0,0,1,.24.07.23.23,0,0,1,.08.18.26.26,0,0,1-.07.18.36.36,0,0,1-.26.09h-.09v.34h-.11Zm.11.41h.09c.13,0,.22-.07.22-.18s-.08-.17-.2-.17h-.1Z"/><path class="cls-7" d="M123.81,76.27h-.26v-.09h.64v.09h-.26V77h-.11Z"/><path class="cls-7" d="M124.72,76.63h-.33v.31h.37V77h-.48v-.86h.46v.09h-.35v.27h.33Z"/><path class="cls-7" d="M125.63,76.66c0-.12,0-.26,0-.37h0c0,.1-.06.21-.11.33l-.15.42h-.08l-.14-.41c0-.12-.07-.23-.1-.33h0c0,.11,0,.25,0,.38l0,.37h-.11l.06-.86h.14l.15.42c0,.1.06.2.09.29h0c0-.09.05-.18.09-.29l.15-.42h.14l.05.86h-.11Z"/><path class="cls-7" d="M125.93,76.19l.21,0a.35.35,0,0,1,.24.07.24.24,0,0,1,.08.18.25.25,0,0,1-.07.18.36.36,0,0,1-.26.09H126V77h-.11Zm.11.41h.09c.13,0,.22-.07.22-.18s-.08-.17-.2-.17H126Z"/><circle class="cls-20" cx="104.55" cy="80.94" r="8.61"/><circle class="cls-21" cx="104.55" cy="80.94" r="7.4"/><circle class="cls-22" cx="104.55" cy="80.94" r="2.95"/><circle class="cls-23" cx="104.55" cy="80.94" r="2.28"/><path class="cls-24" d="M104.5,73.22a12.28,12.28,0,0,0-2.52.39.4.4,0,0,0-.29.48q.53,1.8,1,3.59c.06.21.22.38.37.38A6.44,6.44,0,0,0,104,78a3,3,0,0,1,1.19,0,3.44,3.44,0,0,0,.59.09.68.68,0,0,0,.49-.38q.5-1.8,1-3.59a.39.39,0,0,0-.29-.48A12.29,12.29,0,0,0,104.5,73.22Z"/><path class="cls-25" d="M104.5,73.37a11.16,11.16,0,0,0-2.33.37.37.37,0,0,0-.27.46q.49,1.7,1,3.41c.05.2.21.36.34.36a5.88,5.88,0,0,0,.86-.09,2.68,2.68,0,0,1,1.11,0,3.14,3.14,0,0,0,.55.09.64.64,0,0,0,.45-.36q.46-1.7,1-3.41a.38.38,0,0,0-.27-.46A11.16,11.16,0,0,0,104.5,73.37Z"/><path class="cls-26" d="M97.2,78.6a12.27,12.27,0,0,0-.4,2.51.4.4,0,0,0,.37.43l3.74.13a.48.48,0,0,0,.47-.23,6.43,6.43,0,0,0,.2-.91,3,3,0,0,1,.37-1.13,3.38,3.38,0,0,0,.27-.53.68.68,0,0,0-.21-.58q-1.55-1-3.1-2.09a.39.39,0,0,0-.55.13A12.23,12.23,0,0,0,97.2,78.6Z"/><path class="cls-27" d="M97.34,78.65A11.18,11.18,0,0,0,97,81a.38.38,0,0,0,.35.4l3.53.14a.45.45,0,0,0,.44-.21,5.91,5.91,0,0,0,.18-.84,2.58,2.58,0,0,1,.12-.54,2.61,2.61,0,0,1,.22-.51,3.07,3.07,0,0,0,.25-.49.64.64,0,0,0-.2-.54q-1.48-1-2.94-2a.37.37,0,0,0-.52.12A11.11,11.11,0,0,0,97.34,78.65Z"/><path class="cls-28" d="M100.06,87.21a12.21,12.21,0,0,0,2.27,1.16.4.4,0,0,0,.52-.22q.63-1.77,1.28-3.51a.48.48,0,0,0-.08-.52,6.63,6.63,0,0,0-.8-.47,3,3,0,0,1-1-.7,3.49,3.49,0,0,0-.42-.42.68.68,0,0,0-.61,0q-1.46,1.16-2.95,2.3a.4.4,0,0,0,0,.57A12.27,12.27,0,0,0,100.06,87.21Z"/><path class="cls-29" d="M100.14,87.09a11,11,0,0,0,2.11,1.07.37.37,0,0,0,.49-.21q.6-1.66,1.23-3.32a.45.45,0,0,0-.07-.49,6,6,0,0,0-.75-.43,2.59,2.59,0,0,1-.48-.28,2.55,2.55,0,0,1-.41-.37,3.21,3.21,0,0,0-.39-.39.64.64,0,0,0-.57,0q-1.38,1.1-2.78,2.19a.38.38,0,0,0,0,.53A11.17,11.17,0,0,0,100.14,87.09Z"/><path class="cls-30" d="M109.13,87.15a12.34,12.34,0,0,0,1.8-1.8.4.4,0,0,0,0-.57q-1.48-1.14-2.95-2.3a.48.48,0,0,0-.52-.09,6.47,6.47,0,0,0-.69.62,2.73,2.73,0,0,1-.45.4,2.84,2.84,0,0,1-.52.3,3.53,3.53,0,0,0-.53.27.68.68,0,0,0-.17.59q.65,1.75,1.28,3.51a.39.39,0,0,0,.52.22A12.28,12.28,0,0,0,109.13,87.15Z"/><path class="cls-31" d="M109,87a11.12,11.12,0,0,0,1.67-1.67.38.38,0,0,0,0-.53q-1.4-1.09-2.77-2.19a.45.45,0,0,0-.49-.09,6,6,0,0,0-.64.58,2.7,2.7,0,0,1-.89.65,3.13,3.13,0,0,0-.49.25.64.64,0,0,0-.16.55q.63,1.65,1.23,3.32a.38.38,0,0,0,.49.21A11.24,11.24,0,0,0,109,87Z"/><path class="cls-32" d="M111.87,78.5a12.27,12.27,0,0,0-1.15-2.27.4.4,0,0,0-.55-.13q-1.55,1.06-3.1,2.09a.48.48,0,0,0-.25.47,6.66,6.66,0,0,0,.38.85,3,3,0,0,1,.37,1.13,3.47,3.47,0,0,0,.09.59.68.68,0,0,0,.51.35l3.74-.13a.39.39,0,0,0,.37-.43A12.29,12.29,0,0,0,111.87,78.5Z"/><path class="cls-33" d="M111.73,78.55a11.12,11.12,0,0,0-1.08-2.1.38.38,0,0,0-.52-.12q-1.47,1-2.94,2a.45.45,0,0,0-.23.43,5.93,5.93,0,0,0,.35.79,2.74,2.74,0,0,1,.34,1.05,3.11,3.11,0,0,0,.08.55.63.63,0,0,0,.48.32l3.53-.14a.38.38,0,0,0,.35-.4A11.17,11.17,0,0,0,111.73,78.55Z"/><polygon class="cls-6" points="103.58 74.55 104.39 73.75 105.2 74.55 103.58 74.55"/><polygon class="cls-6" points="98.17 79.89 97.66 78.87 98.67 78.34 98.17 79.89"/><polygon class="cls-6" points="101.58 86.68 100.45 86.85 100.27 85.73 101.58 86.68"/><polygon class="cls-6" points="109.09 85.54 108.91 86.66 107.78 86.49 109.09 85.54"/><polygon class="cls-6" points="110.33 78.04 111.34 78.56 110.83 79.58 110.33 78.04"/><circle class="cls-7" cx="104.42" cy="76.1" r="0.8"/><circle class="cls-7" cx="99.89" cy="79.62" r="0.57" transform="translate(-6.7 150.01) rotate(-72)"/><path class="cls-7" d="M108.7,78.84v.36h.41v-.36h.11v.86h-.11v-.4h-.41v.4h-.11v-.86Z"/><path class="cls-7" d="M109.53,78.84v.86h-.11v-.86Z"/><path class="cls-7" d="M101,84.56h.11v.77h.37v.09H101Z"/><path class="cls-7" d="M102.33,85a.4.4,0,0,1-.4.45.39.39,0,0,1-.39-.44.41.41,0,0,1,.4-.45A.39.39,0,0,1,102.33,85Zm-.67,0c0,.18.1.35.27.35s.28-.16.28-.36-.09-.35-.27-.35S101.66,84.81,101.66,85Z"/><path class="cls-7" d="M108.29,84.79a.4.4,0,0,1-.4.45.39.39,0,0,1-.39-.44.41.41,0,0,1,.4-.45A.39.39,0,0,1,108.29,84.79Zm-.67,0c0,.18.1.35.27.35s.28-.16.28-.36-.09-.35-.27-.35S107.62,84.62,107.62,84.8Z"/><path class="cls-7" d="M108.43,84.37h.46v.09h-.35v.28h.32v.09h-.32v.39h-.11Z"/><path class="cls-7" d="M109,84.37h.46v.09h-.35v.28h.32v.09h-.32v.39H109Z"/><path class="cls-7" d="M107.21,84.4a1,1,0,0,0-.37-.2.32.32,0,0,0-.29.07.54.54,0,0,0-.12.15,2,2,0,0,1,0-.2.3.3,0,0,0-.05-.19l-.06-.06-.09,0a.24.24,0,0,0-.17.1.94.94,0,0,0-.2.37.32.32,0,0,0,.07.29.53.53,0,0,0,.18.13h-.25a.29.29,0,0,0-.19.05l-.06.06a.17.17,0,0,0,0,.09.23.23,0,0,0,.1.17,1,1,0,0,0,.37.2.32.32,0,0,0,.3-.07.52.52,0,0,0,.12-.16,1.71,1.71,0,0,1,0,.2.31.31,0,0,0,.05.19l.06.06.09,0a.24.24,0,0,0,.17-.1.94.94,0,0,0,.2-.37.31.31,0,0,0-.07-.29.5.5,0,0,0-.16-.12H107a.31.31,0,0,0,.19-.05l.06-.06a.17.17,0,0,0,0-.09A.23.23,0,0,0,107.21,84.4Z"/><circle class="cls-34" cx="145.24" cy="80.94" r="8.61"/><circle class="cls-35" cx="145.24" cy="80.94" r="7.4"/><circle class="cls-36" cx="145.24" cy="80.94" r="2.95"/><circle class="cls-37" cx="145.24" cy="80.94" r="2.28"/><path class="cls-38" d="M145.19,73.22a12.25,12.25,0,0,0-2.52.39.39.39,0,0,0-.29.48q.53,1.8,1,3.59c.06.21.22.38.37.38a6.42,6.42,0,0,0,.92-.09,3,3,0,0,1,1.19,0,3.41,3.41,0,0,0,.59.09.68.68,0,0,0,.49-.38q.5-1.8,1-3.59a.4.4,0,0,0-.29-.48A12.3,12.3,0,0,0,145.19,73.22Z"/><path class="cls-39" d="M145.19,73.37a11.17,11.17,0,0,0-2.33.37.38.38,0,0,0-.27.46q.49,1.7,1,3.41c.05.2.21.36.34.36a5.85,5.85,0,0,0,.86-.09,2.68,2.68,0,0,1,1.11,0,3.16,3.16,0,0,0,.55.09.64.64,0,0,0,.45-.36q.47-1.7,1-3.41a.37.37,0,0,0-.27-.46A11.15,11.15,0,0,0,145.19,73.37Z"/><path class="cls-40" d="M137.89,78.6a12.39,12.39,0,0,0-.4,2.51.4.4,0,0,0,.37.43l3.74.13a.48.48,0,0,0,.47-.23,6.54,6.54,0,0,0,.2-.91,2.79,2.79,0,0,1,.13-.58,2.83,2.83,0,0,1,.24-.55,3.46,3.46,0,0,0,.27-.53.69.69,0,0,0-.21-.58q-1.56-1-3.1-2.09a.4.4,0,0,0-.55.13A12.37,12.37,0,0,0,137.89,78.6Z"/><path class="cls-41" d="M138,78.65a11.27,11.27,0,0,0-.37,2.33.38.38,0,0,0,.35.4l3.53.14a.45.45,0,0,0,.45-.21,6.06,6.06,0,0,0,.18-.84,2.55,2.55,0,0,1,.12-.54,2.63,2.63,0,0,1,.22-.51,3.1,3.1,0,0,0,.25-.49.64.64,0,0,0-.2-.54q-1.47-1-2.94-2a.37.37,0,0,0-.52.12A11.19,11.19,0,0,0,138,78.65Z"/><path class="cls-42" d="M140.75,87.21A12.18,12.18,0,0,0,143,88.37a.4.4,0,0,0,.52-.22q.63-1.77,1.28-3.51a.48.48,0,0,0-.08-.52,6.61,6.61,0,0,0-.8-.47,3,3,0,0,1-1-.7,3.6,3.6,0,0,0-.42-.42.68.68,0,0,0-.61,0q-1.46,1.16-2.95,2.3a.4.4,0,0,0,0,.57A12.29,12.29,0,0,0,140.75,87.21Z"/><path class="cls-43" d="M140.84,87.09a11,11,0,0,0,2.11,1.07.37.37,0,0,0,.49-.21q.6-1.66,1.23-3.32a.45.45,0,0,0-.07-.49,6,6,0,0,0-.75-.43,2.6,2.6,0,0,1-.48-.28,2.56,2.56,0,0,1-.41-.37,3.08,3.08,0,0,0-.39-.39.64.64,0,0,0-.57,0q-1.38,1.1-2.78,2.19a.37.37,0,0,0,0,.53A11.05,11.05,0,0,0,140.84,87.09Z"/><path class="cls-44" d="M149.82,87.15a12.28,12.28,0,0,0,1.8-1.8.39.39,0,0,0,0-.57q-1.49-1.14-2.95-2.3a.48.48,0,0,0-.52-.09,6.44,6.44,0,0,0-.69.62,2.77,2.77,0,0,1-.45.4,2.85,2.85,0,0,1-.52.3,3.46,3.46,0,0,0-.53.27.68.68,0,0,0-.17.59q.65,1.75,1.28,3.51a.39.39,0,0,0,.52.22A12.32,12.32,0,0,0,149.82,87.15Z"/><path class="cls-45" d="M149.73,87a11.1,11.1,0,0,0,1.67-1.67.37.37,0,0,0,0-.53q-1.4-1.09-2.77-2.19a.45.45,0,0,0-.49-.09,6.09,6.09,0,0,0-.64.58,2.69,2.69,0,0,1-.89.65,3.1,3.1,0,0,0-.49.25.64.64,0,0,0-.16.55q.62,1.65,1.23,3.32a.38.38,0,0,0,.49.21A11.28,11.28,0,0,0,149.73,87Z"/><path class="cls-46" d="M152.56,78.5a12.2,12.2,0,0,0-1.15-2.27.39.39,0,0,0-.55-.13q-1.55,1.06-3.1,2.09a.48.48,0,0,0-.24.47,6.68,6.68,0,0,0,.38.85,2.75,2.75,0,0,1,.24.55,2.84,2.84,0,0,1,.13.59,3.44,3.44,0,0,0,.09.59.67.67,0,0,0,.51.35l3.74-.13A.4.4,0,0,0,153,81,12.36,12.36,0,0,0,152.56,78.5Z"/><path class="cls-47" d="M152.42,78.55a11.14,11.14,0,0,0-1.08-2.1.38.38,0,0,0-.52-.12q-1.47,1-2.94,2a.45.45,0,0,0-.23.43,5.85,5.85,0,0,0,.35.79,2.71,2.71,0,0,1,.34,1.05,3.27,3.27,0,0,0,.08.55.64.64,0,0,0,.48.32l3.53-.14a.38.38,0,0,0,.35-.4A11.16,11.16,0,0,0,152.42,78.55Z"/><polygon class="cls-6" points="144.27 74.55 145.08 73.75 145.9 74.55 144.27 74.55"/><polygon class="cls-6" points="138.87 79.89 138.35 78.87 139.37 78.34 138.87 79.89"/><polygon class="cls-6" points="142.27 86.68 141.15 86.85 140.96 85.73 142.27 86.68"/><polygon class="cls-6" points="149.79 85.54 149.6 86.66 148.47 86.49 149.79 85.54"/><polygon class="cls-6" points="151.02 78.04 152.04 78.56 151.52 79.58 151.02 78.04"/><path class="cls-7" d="M145.25,75.08h0a4.39,4.39,0,0,1,.84.09,4.31,4.31,0,0,1,.8.24h0a.07.07,0,0,1,0,.09l-.64,1.43h0a.07.07,0,0,1-.09,0l-.31-.1c-.07.25.22.48.22.48a.06.06,0,0,1,0,.09.06.06,0,0,1-.08,0s-.35-.28-.27-.6h0a2.64,2.64,0,0,0-.48,0h0c-.16.28.18.56.19.56a.06.06,0,1,1-.08.09s-.39-.31-.25-.65l-.34,0-.23.05c0,.24.22.46.22.46a.06.06,0,0,1,0,.09.06.06,0,0,1-.08,0,.75.75,0,0,1-.28-.51l-.11,0a.07.07,0,0,1-.09,0l-.64-1.43h0a.07.07,0,0,1,0-.09,4.37,4.37,0,0,1,.8-.24,4.42,4.42,0,0,1,.84-.09Zm.69.84-.15.15v-.38h.38l-.15.15a.53.53,0,0,1,0,.83l-.07.07.24.08.59-1.3a4.12,4.12,0,0,0-.71-.21,4,4,0,0,0-1.62,0,4.12,4.12,0,0,0-.71.21l.58,1.3.14,0a.58.58,0,0,1,.16-.19.42.42,0,0,0,0-.66l-.15.15v-.38h.38l-.15.15a.53.53,0,0,1,0,.83l-.06.05.11,0a2.88,2.88,0,0,1,.46,0l.07-.07a.42.42,0,0,0,0-.66l-.15.15v-.38h.39l-.15.15a.53.53,0,0,1,0,.81l.39,0h.06a.67.67,0,0,1,.12-.13.42.42,0,0,0,0-.66Z"/><path class="cls-7" d="M143,84h0l-.47-.24h-.05v.09h-.49s0,0,0,0v.26s0,0,0,0h.49v.09s0,0,0,0h0L143,84S143,84,143,84Z"/><path class="cls-7" d="M141.66,85.38h0l.24-.47a0,0,0,0,0,0,0h-.11v-.49s0,0,0,0h-.26s0,0,0,0v.49h-.09s0,0,0,0v0l.24.47S141.65,85.39,141.66,85.38Z"/><path class="cls-7" d="M143.38,84.34a.23.23,0,0,0-.12,0c-.33.15-.14.74-.6.73a1.27,1.27,0,0,0-.61.07c-.14.08-.63.81-.35.85s.29-.24.36-.35.21-.22.45-.21.56.05.69-.05a1.07,1.07,0,0,0,.25-.44c0-.13.17-.32.14-.45A.22.22,0,0,0,143.38,84.34Z"/><circle class="cls-7" cx="143.51" cy="84.03" r="0.25"/><path class="cls-7" d="M140.88,78.71h0l-.47-.24h-.05v.09h-.49s0,0,0,0v.26s0,0,0,0h.49V79s0,0,0,0h0l.47-.24S140.89,78.72,140.88,78.71Z"/><path class="cls-7" d="M141.3,79a.25.25,0,0,0-.12,0c-.34.15-.14.74-.6.73a1.27,1.27,0,0,0-.61.07c-.14.08-.63.81-.35.85s.29-.24.36-.36.21-.22.45-.21.56.05.69-.06a1.08,1.08,0,0,0,.25-.44c0-.13.17-.32.14-.45A.22.22,0,0,0,141.3,79Z"/><circle class="cls-7" cx="141.44" cy="78.72" r="0.25"/><path class="cls-7" d="M147.44,85.4h0l.24-.47a0,0,0,0,0,0,0h-.11v-.49s0,0,0,0h-.26s0,0,0,0v.49h-.09s0,0,0,0v0l.24.47S147.44,85.41,147.44,85.4Z"/><path class="cls-7" d="M149.16,84.36a.24.24,0,0,0-.12,0c-.34.15-.14.74-.6.73a1.3,1.3,0,0,0-.61.07c-.14.08-.63.81-.35.85s.29-.24.36-.35.21-.22.45-.21.56.05.68-.06a1.05,1.05,0,0,0,.25-.44c0-.12.17-.32.14-.45A.22.22,0,0,0,149.16,84.36Z"/><circle class="cls-7" cx="149.29" cy="84.05" r="0.25"/><path class="cls-7" d="M149.55,78a1.67,1.67,0,0,1,.33,0,1.75,1.75,0,0,1,.32.1,0,0,0,0,1,0,0h0l-.25.56a0,0,0,0,1,0,0l0,0a.3.3,0,0,1-.11.2h0a0,0,0,0,1,0,0s.11-.09.09-.18l-.09,0-.13,0c.05.13-.1.26-.1.26h0a0,0,0,0,1,0,0s.14-.11.07-.22h0l-.19,0h0c0,.13-.1.24-.1.24h0a0,0,0,0,1,0,0s.11-.09.09-.19l-.12,0a0,0,0,0,1,0,0h0l-.25-.56a0,0,0,0,1,0,0h0a1.7,1.7,0,0,1,.32-.1,1.64,1.64,0,0,1,.33,0Zm-.27.33a.17.17,0,0,0,0,.26l0,.05h0l.15,0a.21.21,0,0,1,0-.32l-.06-.06h.15v.15l-.06-.06a.17.17,0,0,0,0,.26l0,0,.18,0h0l0,0a.21.21,0,0,1,0-.33l-.06-.06h.15v.15l-.06-.06a.16.16,0,0,0,0,.26.23.23,0,0,1,.06.08l.05,0,.23-.51-.28-.08a1.58,1.58,0,0,0-.64,0l-.28.08.23.51.09,0,0,0a.21.21,0,0,1,0-.33l-.06-.06h.15v.15l-.06-.06Z"/><path class="cls-7" d="M148.73,79.85h0l.24-.47a.06.06,0,0,0,0,0h-.11v-.49s0,0,0,0h-.26s0,0,0,0v.49h-.09s0,0,0,0v0l.24.47S148.72,79.86,148.73,79.85Z"/><path class="cls-7" d="M150.44,78.81a.23.23,0,0,0-.12,0c-.34.15-.14.74-.6.73a1.27,1.27,0,0,0-.61.07c-.14.08-.63.81-.35.85s.29-.24.36-.36.21-.22.45-.21.56.05.69-.05a1.05,1.05,0,0,0,.25-.44c0-.13.17-.32.14-.45A.22.22,0,0,0,150.44,78.81Z"/><circle class="cls-7" cx="150.58" cy="78.5" r="0.25"/><rect class="cls-48" x="95.99" y="59.5" width="57.21" height="10.74" rx="0.39" ry="0.39"/><rect class="cls-49" x="97.61" y="60.57" width="53.96" height="8.6" rx="0.97" ry="0.97"/><rect class="cls-50" x="103.69" y="61.81" width="4.1" height="3.27" rx="0.39" ry="0.39"/><rect class="cls-50" x="99.41" y="61.81" width="4.1" height="3.27" rx="0.39" ry="0.39"/><path class="cls-7" d="M100.2,65.62V66h.41v-.36h.11v.86h-.11v-.4h-.41v.4h-.11v-.86Z"/><path class="cls-7" d="M103.94,66.1c0-.12,0-.26,0-.37h0c0,.1-.07.21-.11.33l-.15.42h-.08l-.14-.41c0-.12-.07-.23-.1-.33h0c0,.11,0,.25,0,.38l0,.37h-.11l.06-.86h.14l.15.42c0,.1.06.2.09.29h0c0-.09.05-.18.09-.29l.15-.42H104l.05.86H104Z"/><path class="cls-7" d="M106,65.83a.08.08,0,0,1,.08-.08.08.08,0,0,1,0,.16A.07.07,0,0,1,106,65.83Zm0,.45a.07.07,0,0,1,.08-.08.07.07,0,0,1,.07.08.08.08,0,1,1-.15,0Z"/><path class="cls-7" d="M106.81,66c0,.28-.11.44-.29.44s-.27-.15-.28-.43.12-.43.29-.43S106.81,65.78,106.81,66Zm-.45,0c0,.22.07.34.17.34s.17-.13.17-.35-.05-.34-.17-.34S106.36,65.83,106.36,66.06Z"/><path class="cls-7" d="M107.46,66c0,.28-.11.44-.29.44s-.27-.15-.28-.43.12-.43.29-.43S107.46,65.78,107.46,66Zm-.45,0c0,.22.07.34.17.34s.17-.13.17-.35-.05-.34-.17-.34S107,65.83,107,66.06Z"/><path class="cls-7" d="M104.86,63.44c0-.12,0-.27,0-.37h0c0,.1-.06.21-.11.33l-.15.42h-.08l-.14-.41c0-.12-.07-.23-.1-.33h0c0,.11,0,.25,0,.38l0,.37h-.11l.06-.86h.14l.15.42c0,.1.06.2.09.29h0c0-.09.05-.18.09-.29l.15-.42h.14l.05.86h-.11Z"/><path class="cls-7" d="M105.89,63.38a.4.4,0,0,1-.4.45.39.39,0,0,1-.39-.44.41.41,0,0,1,.4-.45A.39.39,0,0,1,105.89,63.38Zm-.67,0c0,.18.1.35.27.35s.28-.16.28-.36-.09-.35-.27-.35S105.22,63.21,105.22,63.39Z"/><path class="cls-7" d="M106,63l.24,0a.5.5,0,0,1,.35.11.39.39,0,0,1,.12.31.46.46,0,0,1-.12.33.54.54,0,0,1-.38.12H106Zm.11.76h.11a.33.33,0,0,0,.37-.36.31.31,0,0,0-.35-.33h-.13Z"/><path class="cls-7" d="M107.33,63.42H107v.31h.37v.09h-.48V63h.46v.09H107v.27h.33Z"/><path class="cls-7" d="M99.9,63l.21,0a.36.36,0,0,1,.25.07.22.22,0,0,1,.07.16.22.22,0,0,1-.16.22h0a.21.21,0,0,1,.12.17,1.4,1.4,0,0,0,.07.23h-.11a1.1,1.1,0,0,1-.06-.21c0-.12-.07-.16-.17-.17H100v.37H99.9Zm.11.39h.11c.12,0,.19-.06.19-.16s-.08-.16-.2-.16H100Z"/><path class="cls-7" d="M101,63.42h-.33v.31h.37v.09h-.48V63H101v.09h-.35v.27H101Z"/><path class="cls-7" d="M101.2,63.69a.38.38,0,0,0,.2.06c.11,0,.18-.06.18-.15s0-.13-.16-.17-.23-.13-.23-.25a.25.25,0,0,1,.28-.23.38.38,0,0,1,.19,0l0,.09a.32.32,0,0,0-.16,0c-.12,0-.16.07-.16.13s.05.12.17.17.22.13.22.25-.1.25-.3.25a.44.44,0,0,1-.22-.06Z"/><path class="cls-7" d="M102.28,63.42H102v.31h.37v.09h-.48V63h.46v.09H102v.27h.33Z"/><path class="cls-7" d="M102.65,63.06h-.26V63H103v.09h-.26v.76h-.11Z"/><path class="cls-7" d="M142.15,61.84l.21,0a.36.36,0,0,1,.24.07.24.24,0,0,1,.08.18.26.26,0,0,1-.07.18.36.36,0,0,1-.26.09h-.09v.34h-.11Zm.11.41h.09c.13,0,.22-.07.22-.18s-.08-.17-.2-.17h-.1Z"/><path class="cls-7" d="M142.86,62.41l-.09.27h-.12l.29-.86h.13l.29.86h-.12l-.09-.27Zm.28-.09-.08-.25,0-.16h0l0,.16-.08.25Z"/><path class="cls-7" d="M143.49,62.55a.37.37,0,0,0,.2.06c.11,0,.18-.06.18-.15s0-.13-.16-.17-.23-.12-.23-.24a.25.25,0,0,1,.28-.23.39.39,0,0,1,.19,0l0,.09a.33.33,0,0,0-.16,0c-.12,0-.16.07-.16.13s.05.12.17.16.22.13.22.25-.1.25-.3.25a.44.44,0,0,1-.22-.06Z"/><path class="cls-7" d="M144.12,62.55a.37.37,0,0,0,.2.06c.12,0,.18-.06.18-.15s0-.13-.16-.17-.23-.12-.23-.24a.25.25,0,0,1,.28-.23.38.38,0,0,1,.19,0l0,.09a.32.32,0,0,0-.16,0c-.12,0-.16.07-.16.13s.05.12.17.16.22.13.22.25-.1.25-.3.25a.43.43,0,0,1-.22-.06Z"/><path class="cls-7" d="M145.2,62.28h-.33v.31h.37v.09h-.48v-.86h.46v.09h-.35v.27h.33Z"/><path class="cls-7" d="M145.38,62.68v-.86h.12l.27.43a2.19,2.19,0,0,1,.15.28h0c0-.11,0-.22,0-.35v-.36h.1v.86h-.11l-.27-.44a2.32,2.32,0,0,1-.16-.29h0c0,.11,0,.21,0,.35v.37Z"/><path class="cls-7" d="M146.88,62.65a.75.75,0,0,1-.27,0,.4.4,0,0,1-.44-.43.43.43,0,0,1,.46-.44.53.53,0,0,1,.21,0l0,.09a.44.44,0,0,0-.19,0,.32.32,0,0,0-.34.34.31.31,0,0,0,.33.35.39.39,0,0,0,.15,0v-.26h-.17v-.09h.28Z"/><path class="cls-7" d="M147.49,62.28h-.33v.31h.37v.09H147v-.86h.46v.09h-.35v.27h.33Z"/><path class="cls-7" d="M147.67,61.84l.21,0a.35.35,0,0,1,.25.07.22.22,0,0,1,.07.16.23.23,0,0,1-.16.22h0a.22.22,0,0,1,.12.17,1.59,1.59,0,0,0,.07.24h-.11a1,1,0,0,1-.06-.2c0-.12-.07-.16-.17-.17h-.1v.37h-.11Zm.11.39h.11c.12,0,.19-.06.19-.16s-.08-.16-.2-.16h-.11Z"/><rect class="cls-51" x="109.06" y="61.61" width="31.08" height="6.53" rx="0.97" ry="0.97"/><rect class="cls-50" x="99.36" y="66.88" width="2.09" height="1.31" rx="0.19" ry="0.19"/><rect class="cls-50" x="102.59" y="66.88" width="2.09" height="1.31" rx="0.19" ry="0.19"/><rect class="cls-50" x="105.69" y="66.88" width="2.09" height="1.31" rx="0.19" ry="0.19"/><path class="cls-52" d="M142.51,65.68l.18.4a.1.1,0,0,1,0,.13l-.12.05a.1.1,0,0,1-.12-.07l-.22-.49a.12.12,0,0,1,0-.08s0-.1,0-.17l-.35.24a.07.07,0,1,1-.08-.12l.29-.2.07,0h1.56l.26.17a.07.07,0,1,1-.08.12l-.37-.25c0,.07,0,.14,0,.18a.12.12,0,0,1,0,.08l-.22.49c0,.05-.07.08-.11.07l-.12-.05a.1.1,0,0,1,0-.13l.18-.4h-.69Zm-.31-.62c0-.25,0-.49,0-.57s.24-.2.31-.2.11-.14.12-.16a.38.38,0,0,1-.11-.27.34.34,0,1,1,.67,0,.38.38,0,0,1-.12.28.44.44,0,0,0,0,.09l-.91.83Zm1.16-.74a.2.2,0,0,1,.14.17c0,.09,0,.4,0,.68h-1.07l.93-.85Z"/><path class="cls-53" d="M150,67.39a.23.23,0,0,0-.09-.07,2.33,2.33,0,0,0-.25-.24.44.44,0,0,0-.23-.12h-.86a.34.34,0,0,0-.21.12,1.59,1.59,0,0,0-.19.22h-.41a.25.25,0,0,0-.17.06.21.21,0,0,0-.07.16v.24a.21.21,0,0,0,.07.16.25.25,0,0,0,.17.07h.07a.27.27,0,0,0,.51,0h.89a.27.27,0,0,0,.51,0h.07a.25.25,0,0,0,.17-.07.2.2,0,0,0,.07-.16v-.24A.21.21,0,0,0,150,67.39Z"/><path class="cls-54" d="M140.94,91.77c0,1.64-2.1,3-4.66,3s-4.66-1.34-4.66-3,2.1-3,4.66-3S140.94,90.13,140.94,91.77Z"/><path class="cls-6" d="M137.54,90a.27.27,0,0,1-.27.27h-2A.27.27,0,0,1,135,90h0a.27.27,0,0,1,.27-.27h2a.27.27,0,0,1,.27.27Z"/><path class="cls-7" d="M137.53,93.81a.46.46,0,0,1-.46-.36H135.5a.47.47,0,0,1-.91,0h-.13A.43.43,0,0,1,134,93v-.46a.43.43,0,0,1,.43-.43h.72a3.48,3.48,0,0,1,.34-.43.59.59,0,0,1,.38-.22h1.53a.73.73,0,0,1,.41.22,4.28,4.28,0,0,1,.45.47.45.45,0,0,1,.17.14.44.44,0,0,1,.08.25V93a.43.43,0,0,1-.13.3.42.42,0,0,1-.3.13H138A.46.46,0,0,1,137.53,93.81Zm-2.21-.55h1.94v.09a.27.27,0,0,0,.55,0v-.09h.29a.24.24,0,0,0,.24-.24v-.46a.24.24,0,0,0-.15-.22h0v0a4.23,4.23,0,0,0-.44-.46c-.2-.17-.28-.18-.28-.18h-1.53s-.08,0-.24.17a3.27,3.27,0,0,0-.35.44l0,0h-.82a.24.24,0,0,0-.24.24V93a.23.23,0,0,0,.24.24h.31v.09a.27.27,0,0,0,.55,0Z"/><path class="cls-7" d="M137.56,92.84l-.43-.13v.07h-1.19a.14.14,0,0,1-.1,0,.14.14,0,0,1,0-.1v-.46a.14.14,0,0,1,0-.1.14.14,0,0,1,.1,0h1.3a.07.07,0,1,0,0-.13h-1.3a.27.27,0,0,0-.19.08.27.27,0,0,0-.08.19v.46a.27.27,0,0,0,.08.19.27.27,0,0,0,.19.08h1.19V93Z"/><path class="cls-55" d="M97.19,38.16A2,2,0,0,0,99,40.22h52.63a2,2,0,0,0,1.86-2.06V10.24a2,2,0,0,0-1.86-2.06H99a2,2,0,0,0-1.86,2.06Z"/><circle class="cls-56" cx="101.94" cy="12.58" r="3.03"/><path class="cls-56" d="M99.52,21.65a.56.56,0,0,0,.62.48h3.6a.56.56,0,0,0,.62-.48v-4a.56.56,0,0,0-.62-.48h-3.6a.56.56,0,0,0-.62.48Z"/><rect class="cls-57" x="99.55" y="23.88" width="5.06" height="2.86" rx="0.62" ry="0.62"/><rect class="cls-57" x="99.55" y="27.83" width="5.06" height="2.86" rx="0.62" ry="0.62"/><rect class="cls-57" x="99.55" y="31.93" width="5.06" height="2.86" rx="0.62" ry="0.62"/><rect class="cls-57" x="145.95" y="15.57" width="5.06" height="2.86" rx="0.62" ry="0.62"/><rect class="cls-57" x="145.95" y="25.84" width="5.06" height="2.86" rx="0.62" ry="0.62"/><rect class="cls-57" x="145.95" y="22.45" width="5.06" height="2.86" rx="0.62" ry="0.62"/><rect class="cls-57" x="145.95" y="19.01" width="5.06" height="2.86" rx="0.62" ry="0.62"/><rect class="cls-57" x="145.95" y="9.7" width="5.06" height="2.86" rx="0.62" ry="0.62"/><rect class="cls-57" x="145.95" y="31.93" width="5.06" height="2.86" rx="0.62" ry="0.62"/><rect class="cls-58" x="135.93" y="33.36" width="6.97" height="1.43" rx="0.62" ry="0.62"/><rect class="cls-58" x="125.44" y="33.36" width="6.96" height="1.43" rx="0.62" ry="0.62"/><rect class="cls-58" x="117.1" y="33.36" width="6.96" height="1.43" rx="0.62" ry="0.62"/><rect class="cls-58" x="107.65" y="33.36" width="6.96" height="1.43" rx="0.62" ry="0.62"/><rect class="cls-59" x="108.09" y="10.38" width="35.67" height="20.44" transform="translate(251.85 41.19) rotate(180)"/></g></g></svg>