<svg xmlns="http://www.w3.org/2000/svg" viewBox="0 0 248.71 108.94"><defs><style>.cls-1{fill:none;opacity:0.8;}.cls-2{fill:#00a7a1;}.cls-3{fill:#216f74;}.cls-4{fill:#dabd94;}.cls-5{fill:#8eb140;}.cls-6{fill:#c6a67e;}</style></defs><title>Insumo_casa_7</title><g id="Capa_2" data-name="Capa 2"><g id="Layer_1" data-name="Layer 1"><rect class="cls-1" width="248.71" height="108.94"/><rect class="cls-2" x="27.15" y="25.66" width="194.4" height="32.94"/><path class="cls-3" d="M221.56,25.67h0a.84.84,0,0,0-.59.25l-5.22,5.24-4.9-4.91a.89.89,0,0,0-.14-.34,1.28,1.28,0,0,0-1.39,0,.83.83,0,0,0-.14.34l-4.89,4.91-4.66-4.68a.82.82,0,0,0-.24-.56,1.71,1.71,0,0,0-1.51,0,.81.81,0,0,0-.23.56L193,31.15l-4.73-4.75a.82.82,0,0,0-.2-.49.79.79,0,0,0-.74-.19.8.8,0,0,0-.74.19.84.84,0,0,0-.2.49l-4.74,4.75-4.89-4.91a.83.83,0,0,0-.14-.34,1.28,1.28,0,0,0-1.39,0c-.09.09-.09.22-.14.34l-4.89,4.91-5.23-5.24a.82.82,0,0,0-.59-.25h0a.84.84,0,0,0-.59.25l-5.23,5.24-4.88-4.91c0-.11,0-.24-.15-.34a1.27,1.27,0,0,0-1.38,0,.84.84,0,0,0-.14.34l-4.89,4.91-4.66-4.68a.83.83,0,0,0-.23-.56,1.73,1.73,0,0,0-1.52,0,.83.83,0,0,0-.23.56l-4.67,4.68-4.74-4.75a.85.85,0,0,0-.2-.49,1.56,1.56,0,0,0-1.47,0,.82.82,0,0,0-.2.49l-4.74,4.75-4.9-4.91c0-.11,0-.24-.13-.34a1.29,1.29,0,0,0-1.39,0,.83.83,0,0,0-.13.34L113,31.15l-4.67-4.68a.83.83,0,0,0-.23-.56.8.8,0,0,0-.77-.18.78.78,0,0,0-.75.18.87.87,0,0,0-.23.56l-4.66,4.68L96.53,26s0,0,0,0a.89.89,0,0,0-1.22,0s0,0,0,0l-5.17,5.19L85.2,26.24a.82.82,0,0,0-.13-.34,1.29,1.29,0,0,0-1.39,0,.71.71,0,0,0-.13.34l-4.89,4.91L74,26.46a.9.9,0,0,0-.23-.56,1.67,1.67,0,0,0-1.51,0,.84.84,0,0,0-.22.56l-4.67,4.69L62.61,26.4a.83.83,0,0,0-.2-.49.79.79,0,0,0-.74-.19.78.78,0,0,0-.74.19.84.84,0,0,0-.21.49L56,31.15,51.1,26.24A.84.84,0,0,0,51,25.9a1.25,1.25,0,0,0-1.38,0c-.1.09-.1.22-.15.34l-4.89,4.91-4.67-4.69a.82.82,0,0,0-.23-.56.79.79,0,0,0-.75-.18.79.79,0,0,0-.76.18.84.84,0,0,0-.22.56l-4.67,4.69L28,25.9a.84.84,0,0,0-.59-.25h0c-.1,0-.17.08-.26.11v1.66l5.49,5.52a.85.85,0,0,0,1.19,0l5.06-5.08L44,32.95a.84.84,0,0,0,.6.25.84.84,0,0,0,.6-.25l5.12-5.15,5.12,5.15a.86.86,0,0,0,.6.25.84.84,0,0,0,.59-.25l5.08-5.1,5.08,5.1a.85.85,0,0,0,1.19,0L73,27.86l5.06,5.08a.84.84,0,0,0,1.19,0l5.12-5.15,5.12,5.15a.84.84,0,0,0,1.19,0l5.21-5.23,5.21,5.23a.84.84,0,0,0,1.19,0l5.05-5.08,5.07,5.08a.84.84,0,0,0,.6.25.83.83,0,0,0,.59-.25l5.13-5.15,5.12,5.15a.84.84,0,0,0,1.19,0l5.08-5.1,5.07,5.1a.86.86,0,0,0,.6.25.83.83,0,0,0,.6-.25l5.07-5.08,5,5.08a.84.84,0,0,0,.6.25.86.86,0,0,0,.6-.25l5.12-5.15,5.12,5.15a.83.83,0,0,0,.59.25.85.85,0,0,0,.6-.25l5.22-5.24,5.22,5.24a.84.84,0,0,0,.6.25.83.83,0,0,0,.6-.25l5.12-5.15L181,32.95a.86.86,0,0,0,.6.25.85.85,0,0,0,.6-.25l5.08-5.1,5.08,5.1a.83.83,0,0,0,.59.25.86.86,0,0,0,.6-.25l5.06-5.08,5.06,5.08a.84.84,0,0,0,1.19,0L210,27.8l5.12,5.15a.85.85,0,0,0,.6.25.83.83,0,0,0,.59-.25l5.25-5.28Z"/><path class="cls-3" d="M221.56,36.78a.82.82,0,0,0-.63.24l-5.22,5.24-4.9-4.91a.88.88,0,0,0-.14-.33,1.26,1.26,0,0,0-1.39,0,.81.81,0,0,0-.14.34l-4.89,4.91-4.66-4.68a.82.82,0,0,0-.24-.56,1.67,1.67,0,0,0-1.51,0,.81.81,0,0,0-.23.56L193,42.26l-4.73-4.76A.81.81,0,0,0,188,37a.78.78,0,0,0-.74-.19.79.79,0,0,0-.74.19.83.83,0,0,0-.2.49l-4.74,4.76-4.89-4.91a.82.82,0,0,0-.14-.33,1.26,1.26,0,0,0-1.39,0c-.09.09-.09.22-.14.34l-4.89,4.91L164.95,37a.83.83,0,0,0-1.19,0l-5.23,5.24-4.88-4.91c0-.11,0-.24-.15-.33a1.25,1.25,0,0,0-1.38,0,.82.82,0,0,0-.14.34l-4.89,4.91-4.66-4.68a.83.83,0,0,0-.23-.56,1.69,1.69,0,0,0-1.52,0,.83.83,0,0,0-.23.56l-4.67,4.68-4.74-4.76a.83.83,0,0,0-.2-.49,1.52,1.52,0,0,0-1.47,0,.81.81,0,0,0-.2.49l-4.74,4.76-4.9-4.91c0-.11,0-.24-.13-.33a.84.84,0,0,0-1.52.34L113,42.26l-4.67-4.68a.83.83,0,0,0-.23-.56.8.8,0,0,0-.77-.18.79.79,0,0,0-.75.18.87.87,0,0,0-.23.56l-4.66,4.68-5.17-5.2s0,0,0,0a.89.89,0,0,0-1.22,0s0,0,0,0l-5.17,5.2L85.2,37.36a.8.8,0,0,0-.13-.34.82.82,0,0,0-.7-.21.8.8,0,0,0-.69.21.7.7,0,0,0-.13.33l-4.89,4.91L74,37.58a.89.89,0,0,0-.23-.56,1.67,1.67,0,0,0-1.51,0,.83.83,0,0,0-.22.56l-4.67,4.69-4.74-4.75a.82.82,0,0,0-.2-.49.8.8,0,0,0-.74-.19.78.78,0,0,0-.74.19.83.83,0,0,0-.21.49L56,42.26,51.1,37.36A.81.81,0,0,0,51,37a1.25,1.25,0,0,0-1.38,0c-.1.09-.1.22-.15.33l-4.89,4.91-4.67-4.69a.82.82,0,0,0-.23-.56.78.78,0,0,0-.75-.18.79.79,0,0,0-.76.18.83.83,0,0,0-.22.56l-4.67,4.69L28,37a.78.78,0,0,0-.86-.14v1.66l5.49,5.51a.85.85,0,0,0,1.19,0L38.9,39,44,44.06a.84.84,0,0,0,.6.25.85.85,0,0,0,.6-.25l5.12-5.15,5.12,5.15a.86.86,0,0,0,.6.25.84.84,0,0,0,.59-.25L61.66,39l5.08,5.1a.85.85,0,0,0,1.19,0L73,39l5.06,5.08a.84.84,0,0,0,1.19,0l5.12-5.15,5.12,5.15a.84.84,0,0,0,1.19,0l5.21-5.23,5.21,5.23a.84.84,0,0,0,1.19,0L107.34,39l5.07,5.08a.84.84,0,0,0,.6.25.83.83,0,0,0,.59-.25l5.13-5.15,5.12,5.15a.84.84,0,0,0,1.19,0l5.08-5.1,5.07,5.1a.86.86,0,0,0,.6.25.83.83,0,0,0,.6-.25L141.45,39l5,5.08a.85.85,0,0,0,.6.25.86.86,0,0,0,.6-.25l5.12-5.15,5.12,5.15a.84.84,0,0,0,.59.25.85.85,0,0,0,.6-.25l5.22-5.24,5.22,5.24a.85.85,0,0,0,.6.25.83.83,0,0,0,.6-.25l5.12-5.15L181,44.06a.87.87,0,0,0,.6.25.85.85,0,0,0,.6-.25l5.08-5.1,5.08,5.1a.84.84,0,0,0,.59.25.86.86,0,0,0,.6-.25L198.62,39l5.06,5.08a.84.84,0,0,0,1.19,0L210,38.91l5.12,5.15a.85.85,0,0,0,.6.25.84.84,0,0,0,.59-.25l5.25-5.27Z"/><path class="cls-3" d="M221.56,47.9a.81.81,0,0,0-.63.24l-5.22,5.24-4.9-4.91a.88.88,0,0,0-.14-.33,1.26,1.26,0,0,0-1.39,0,.81.81,0,0,0-.14.34l-4.89,4.91-4.66-4.68a.82.82,0,0,0-.24-.56,1.67,1.67,0,0,0-1.51,0,.81.81,0,0,0-.23.56L193,53.38l-4.73-4.76a.81.81,0,0,0-.2-.49.78.78,0,0,0-.74-.19.79.79,0,0,0-.74.19.83.83,0,0,0-.2.49l-4.74,4.76-4.89-4.91a.82.82,0,0,0-.14-.33,1.26,1.26,0,0,0-1.39,0c-.09.09-.09.22-.14.34l-4.89,4.91-5.23-5.24a.83.83,0,0,0-1.19,0l-5.23,5.24-4.88-4.91c0-.11,0-.24-.15-.33a1.25,1.25,0,0,0-1.38,0,.82.82,0,0,0-.14.34l-4.89,4.91-4.66-4.68a.83.83,0,0,0-.23-.56,1.69,1.69,0,0,0-1.52,0,.83.83,0,0,0-.23.56l-4.67,4.68-4.74-4.76a.83.83,0,0,0-.2-.49,1.52,1.52,0,0,0-1.47,0,.81.81,0,0,0-.2.49l-4.74,4.76-4.9-4.91c0-.11,0-.24-.13-.33a.84.84,0,0,0-1.52.34L113,53.38l-4.67-4.68a.83.83,0,0,0-.23-.56.8.8,0,0,0-.77-.18.79.79,0,0,0-.75.18.87.87,0,0,0-.23.56l-4.66,4.68-5.17-5.2s0,0,0,0a.89.89,0,0,0-1.22,0s0,0,0,0l-5.17,5.2L85.2,48.47a.8.8,0,0,0-.13-.34.82.82,0,0,0-.7-.21.8.8,0,0,0-.69.21.7.7,0,0,0-.13.33l-4.89,4.91L74,48.69a.89.89,0,0,0-.23-.56,1.67,1.67,0,0,0-1.51,0,.83.83,0,0,0-.22.56l-4.67,4.69-4.74-4.75a.82.82,0,0,0-.2-.49.8.8,0,0,0-.74-.19.78.78,0,0,0-.74.19.83.83,0,0,0-.21.49L56,53.38,51.1,48.47a.82.82,0,0,0-.14-.34,1.25,1.25,0,0,0-1.38,0c-.1.09-.1.22-.15.33l-4.89,4.91-4.67-4.69a.82.82,0,0,0-.23-.56A.78.78,0,0,0,38.9,48a.79.79,0,0,0-.76.18.83.83,0,0,0-.22.56l-4.67,4.69L28,48.14a.78.78,0,0,0-.86-.14v1.66l5.49,5.51a.85.85,0,0,0,1.19,0L38.9,50.1,44,55.18a.84.84,0,0,0,.6.25.84.84,0,0,0,.6-.25L50.27,50l5.12,5.15a.86.86,0,0,0,.6.25.84.84,0,0,0,.59-.25l5.08-5.1,5.08,5.1a.85.85,0,0,0,1.19,0L73,50.1l5.06,5.08a.84.84,0,0,0,1.19,0L84.37,50l5.12,5.15a.84.84,0,0,0,1.19,0l5.21-5.23,5.21,5.23a.84.84,0,0,0,1.19,0l5.05-5.08,5.07,5.08a.84.84,0,0,0,.6.25.83.83,0,0,0,.59-.25L118.73,50l5.12,5.15a.84.84,0,0,0,1.19,0l5.08-5.1,5.07,5.1a.86.86,0,0,0,.6.25.83.83,0,0,0,.6-.25l5.07-5.08,5,5.08a.84.84,0,0,0,.6.25.86.86,0,0,0,.6-.25L152.82,50l5.12,5.15a.83.83,0,0,0,.59.25.85.85,0,0,0,.6-.25l5.22-5.24,5.22,5.24a.84.84,0,0,0,.6.25.83.83,0,0,0,.6-.25L175.89,50,181,55.18a.86.86,0,0,0,.6.25.85.85,0,0,0,.6-.25l5.08-5.1,5.08,5.1a.83.83,0,0,0,.59.25.86.86,0,0,0,.6-.25l5.06-5.08,5.06,5.08a.84.84,0,0,0,1.19,0L210,50l5.12,5.15a.85.85,0,0,0,.6.25.83.83,0,0,0,.59-.25l5.25-5.27Z"/><polygon class="cls-4" points="61.47 32.51 49.81 44.08 49.81 18.21 61.47 18.21 61.47 32.51"/><rect class="cls-5" x="47.38" y="8.18" width="16.52" height="10.03"/><rect class="cls-6" x="49.81" y="18.21" width="11.66" height="3.17"/></g></g></svg>