<svg xmlns="http://www.w3.org/2000/svg" viewBox="0 0 248.71 108.94"><defs><style>.cls-1{fill:none;opacity:0.8;}.cls-2{fill:#525252;}.cls-3{fill:#454545;}.cls-4{fill:#636363;}</style></defs><title>Insumo_auto_3</title><g id="Capa_2" data-name="Capa 2"><g id="Layer_1" data-name="Layer 1"><rect class="cls-1" width="248.71" height="108.94"/><circle class="cls-2" cx="124.36" cy="54.47" r="42.9"/><circle class="cls-3" cx="124.36" cy="54.47" r="37.19"/><path d="M88,61.42c.08-.17.15-.34.23-.5a5.51,5.51,0,0,1,.85-1.23,4.09,4.09,0,0,1,4.95-.65l.47.22c2.31,1.19,4.84,3.92,6.72,7.54s2.7,7.45,2.28,10a6.17,6.17,0,0,1-5.09,3.44s-.29.13-1.06-.25a37.08,37.08,0,0,1-9.45-18.12A1.2,1.2,0,0,1,88,61.42Z"/><path d="M154.65,59.28l.47-.22a4.09,4.09,0,0,1,4.95.65,5.5,5.5,0,0,1,.85,1.23l0,.06a37.06,37.06,0,0,1-9.87,19.31.7.7,0,0,1-.33,0,6.17,6.17,0,0,1-5.09-3.44c-.42-2.59.35-6.33,2.28-10S152.35,60.47,154.65,59.28Z"/><path d="M89,42.9c.09-2.4,2.17-5.51,3.23-7.32A37.2,37.2,0,0,1,158.92,41c.53,1.36,1.49,3.27,1.34,4.84a4,4,0,0,1-1,3.56c-1.58,1.41-4.59.83-7.81-1.23-.83-.39-1.64-.91-2.52-1.38a45.31,45.31,0,0,0-7.31-3.08,58.24,58.24,0,0,0-33.52-.36,47,47,0,0,0-7,2.67c-1.25.6-2.56,1.53-3.93,2.11-3.15,1.93-6.11,2.43-7.7,1C88.19,47.89,88.1,45.59,89,42.9Z"/><path class="cls-4" d="M96.85,48.42c7.08-4.61,16.83-7.46,27.59-7.46S145,43.82,152,48.42a30.43,30.43,0,0,1,2.81,9.65c0,.39-.1.78-.16,1.17-2.3,1.21-4.81,3.92-6.68,7.52s-2.65,7.2-2.32,9.77a30.74,30.74,0,0,1-6.34,4.71c-3.5-1.41-8.88-2.32-14.91-2.32s-11.4.91-14.91,2.32a30.73,30.73,0,0,1-5.93-4.32c.47-2.59-.3-6.38-2.26-10.16S96.59,60,94.16,59c0-.31-.09-.61-.12-.93A30.52,30.52,0,0,1,96.85,48.42Z"/></g></g></svg>