<svg xmlns="http://www.w3.org/2000/svg" viewBox="0 0 248.71 108.94"><defs><style>.cls-1{fill:none;opacity:0.8;}.cls-2,.cls-5{fill:#363339;}.cls-2,.cls-4,.cls-7{fill-rule:evenodd;}.cls-3,.cls-7{fill:#f8a563;}.cls-4,.cls-8{fill:#f48020;}.cls-6{fill:#504e52;}.cls-9{fill:#93c83f;}.cls-10{fill:#2dbbae;}</style></defs><title>Insumo_casa_2</title><g id="Capa_2" data-name="Capa 2"><g id="Layer_1" data-name="Layer 1"><rect class="cls-1" width="248.71" height="108.94"/><path class="cls-2" d="M96.64,20.17h52.49a9.83,9.83,0,0,1,9.8,9.81V43.5H86V30.82A10.68,10.68,0,0,1,96.64,20.17Z"/><rect class="cls-3" x="67.15" y="61.69" width="113.46" height="19.27" rx="3.21" ry="3.21"/><polygon class="cls-4" points="158.73 39.11 85.98 38.93 69.4 62.45 178.58 62.26 158.73 39.11"/><rect class="cls-5" x="65.43" y="76.61" width="117.85" height="9.44" rx="1.11" ry="1.11"/><path class="cls-6" d="M70.5,81.43h5.69a.88.88,0,0,1,.88.88V90a.87.87,0,0,1-.87.87H70.5a.87.87,0,0,1-.87-.87V82.3A.87.87,0,0,1,70.5,81.43Z"/><path class="cls-6" d="M172.19,81.52h5.69a.88.88,0,0,1,.88.88v7.69a.87.87,0,0,1-.87.87h-5.69a.88.88,0,0,1-.88-.88V82.39a.87.87,0,0,1,.87-.87Z"/><polygon class="cls-7" points="119.3 39.1 83.26 42.43 78.69 48.92 167.84 48.92 161.93 42.34 123.41 39.1 119.3 39.1"/><rect class="cls-8" x="80.88" y="32.63" width="40.62" height="11.25" rx="3.75" ry="3.75"/><rect class="cls-8" x="123.36" y="32.63" width="40.62" height="11.25" rx="3.75" ry="3.75"/><rect class="cls-9" x="90.51" y="29.37" width="22.88" height="16.02" rx="3.81" ry="3.81"/><rect class="cls-10" x="130.94" y="29.75" width="22.88" height="16.02" rx="3.81" ry="3.81"/></g></g></svg>