<svg xmlns="http://www.w3.org/2000/svg" viewBox="0 0 248.71 108.94"><defs><style>.cls-1,.cls-15{fill:none;}.cls-1{opacity:0.8;}.cls-2{fill:#6d1243;}.cls-3{fill:#eb3d7f;}.cls-4{opacity:0.7;}.cls-5{fill:#fff;}.cls-6{opacity:0.48;}.cls-7{fill:#8b1b51;}.cls-8{fill:#fbf4a5;}.cls-9{fill:#f6901e;}.cls-10{fill:#eed240;}.cls-11{fill:#f2ef91;}.cls-12{fill:#5a5342;}.cls-13{fill:#f08d6c;}.cls-14{fill:#3b2416;}</style></defs><title>Insumo_casa_3</title><g id="Capa_2" data-name="Capa 2"><g id="Layer_1" data-name="Layer 1"><rect class="cls-1" width="248.71" height="108.94"/><path class="cls-2" d="M112.74,42.05a1.4,1.4,0,0,1-1.35,1h-8a1.4,1.4,0,0,1-1.35-1Z"/><path class="cls-3" d="M110.25,42.05h2.49a1.4,1.4,0,0,1-1.35,1h-1.58A1.77,1.77,0,0,0,110.25,42.05Z"/><path class="cls-3" d="M104.48,42.05a1.77,1.77,0,0,0,.44,1h-1.58a1.4,1.4,0,0,1-1.35-1Z"/><g class="cls-4"><circle class="cls-5" cx="106.59" cy="30.49" r="1.92" transform="translate(9.66 84.3) rotate(-45)"/><circle class="cls-5" cx="107.61" cy="27.96" r="1.47" transform="translate(11.74 84.28) rotate(-45)"/><circle class="cls-5" cx="105.7" cy="32.93" r="1.47" transform="translate(7.67 84.38) rotate(-45)"/><circle class="cls-5" cx="106.23" cy="28.66" r="2.06" transform="translate(10.85 83.51) rotate(-45)"/><circle class="cls-5" cx="111.21" cy="24.02" r="1.47" transform="translate(15.59 85.67) rotate(-45)"/><circle class="cls-5" cx="109.93" cy="26.51" r="2.08" transform="translate(13.45 85.5) rotate(-45)"/><circle class="cls-5" cx="109.74" cy="29.64" r="2.08" transform="translate(11.19 86.28) rotate(-45)"/><circle class="cls-5" cx="110.97" cy="23.71" r="2.08" transform="translate(15.74 85.41) rotate(-45)"/></g><g class="cls-6"><circle class="cls-5" cx="106.27" cy="21.64" r="2.37" transform="translate(3.68 56.8) rotate(-30.43)"/><circle class="cls-5" cx="105.84" cy="18.31" r="1.81" transform="translate(5.31 56.12) rotate(-30.43)"/><circle class="cls-5" cx="106.58" cy="24.84" r="1.81" transform="translate(2.1 57.4) rotate(-30.43)"/><circle class="cls-5" cx="107.27" cy="19.57" r="2.54" transform="translate(4.86 57.02) rotate(-30.43)"/><circle class="cls-5" cx="102.76" cy="12.47" r="1.81" transform="translate(7.84 53.76) rotate(-30.43)"/><circle class="cls-5" cx="103.52" cy="15.85" r="2.57" transform="translate(6.23 54.61) rotate(-30.43)"/><circle class="cls-5" cx="102.76" cy="19.64" r="2.57" transform="translate(4.21 54.75) rotate(-30.43)"/><circle class="cls-5" cx="103.14" cy="12.17" r="2.57" transform="translate(8.04 53.91) rotate(-30.43)"/></g><path class="cls-7" d="M102.32,34A1.94,1.94,0,0,0,100.38,36v2a1.94,1.94,0,0,0,3.88,0V36A1.94,1.94,0,0,0,102.32,34Zm.93,4a.93.93,0,0,1-1.87,0V36a.93.93,0,1,1,1.87,0Z"/><path class="cls-3" d="M100.92,38.37v-2a1.93,1.93,0,0,1,2.72-1.77A1.93,1.93,0,0,0,100.38,36v2a1.94,1.94,0,0,0,1.15,1.77A1.93,1.93,0,0,1,100.92,38.37Z"/><path class="cls-7" d="M103.4,34v5.27a3,3,0,0,0,3,3h1.95a3,3,0,0,0,3-3V34Z"/><path class="cls-3" d="M109.06,39.19V33.93h1.59v5.22c0,1.65-1.06,3-2.38,3h-.06A4.15,4.15,0,0,0,109.06,39.19Z"/><path class="cls-2" d="M105.94,33.93v5.26a4.15,4.15,0,0,0,.85,3h-.06c-1.31,0-2.38-1.34-2.38-3V33.93Z"/><path class="cls-2" d="M111.43,33.93a.17.17,0,0,1-.18.16h-7.76a.17.17,0,0,1-.18-.16h0a.17.17,0,0,1,.18-.16h7.76a.17.17,0,0,1,.18.16Z"/><circle class="cls-8" cx="126.91" cy="34.9" r="3.56"/><path class="cls-8" d="M122.45,39.42a3.56,3.56,0,1,0-6.82,0Z"/><path class="cls-9" d="M126.93,39.42a3.56,3.56,0,1,0-5.82,0Z"/><path class="cls-10" d="M133.71,39.42a3.56,3.56,0,1,0-5.15,0Z"/><path class="cls-10" d="M142,39.42a3.55,3.55,0,0,0-6.94,0Z"/><path class="cls-8" d="M137.37,39.42a3.56,3.56,0,0,0-7.11,0Z"/><path class="cls-11" d="M131.13,39.79a3.56,3.56,0,0,0-7.11,0Z"/><path class="cls-12" d="M142.48,38.87H115.4a1.19,1.19,0,0,0-.1.45c0,1.49,2.95,2.77,7.27,3.42V43h12.71v-.28h0c4.32-.65,7.27-1.94,7.27-3.42A1.19,1.19,0,0,0,142.48,38.87Z"/><polygon class="cls-13" points="164.85 46.91 164.85 43.09 84.09 43.09 84.09 46.91 87.12 46.91 161.82 46.91 164.85 46.91"/><polygon class="cls-14" points="87.12 46.91 87.12 94.29 92.45 94.29 92.45 49.71 156.49 49.71 156.49 94.29 161.82 94.29 161.82 46.91 87.12 46.91"/><rect class="cls-15" x="186.34" y="54.2" width="0.02" height="29.68" transform="translate(93.59 244.79) rotate(-82.5)"/><path class="cls-15" d="M199.47,56.58H176.25a3.74,3.74,0,0,0-3.56,3.56L172,65.62h24.5Z"/><polygon class="cls-13" points="76.75 65.62 52.25 65.62 49.24 56.58 47.53 56.58 47.53 69.03 77.2 69.03 76.75 65.62"/><polygon class="cls-13" points="47.53 53.02 48.06 53.02 42.13 35.23 38.4 35.23 43.37 53 47.53 53 47.53 53.02"/><polygon class="cls-13" points="206.58 35.23 200.66 53.02 201.19 53.02 201.19 53 205.34 53 210.32 35.23 206.58 35.23"/><polygon class="cls-13" points="201.19 56.58 199.47 56.58 196.46 65.62 171.96 65.62 171.51 69.03 201.19 69.03 201.19 56.58"/><path class="cls-14" d="M201.19,53H172.69a3.57,3.57,0,0,0-3.56,3.56l-.95,7.57L164,94.29h4.2l3-22.66h30V94.29h4.27V53h-4.27ZM171.51,69v0l.45-3.41.73-5.49a3.74,3.74,0,0,1,3.56-3.56h24.94V69Z"/><path class="cls-14" d="M79.58,56.58A3.57,3.57,0,0,0,76,53H47.53v0H43.26V94.29h4.27V71.62h30l3,22.66h4.2L80.52,64.15ZM47.53,69V56.58H72.46A3.74,3.74,0,0,1,76,60.14l.73,5.49L77.2,69v0Z"/></g></g></svg>