<svg xmlns="http://www.w3.org/2000/svg" viewBox="0 0 248.71 108.94"><defs><style>.cls-1{fill:none;opacity:0.8;}.cls-2{fill:#c0a37e;}.cls-3{fill:#bd5e4b;}</style></defs><title>Insumo_casa_4</title><g id="Capa_2" data-name="Capa 2"><g id="Layer_1" data-name="Layer 1"><rect class="cls-1" width="248.71" height="108.94"/><rect class="cls-2" x="65.62" y="11.12" width="117.47" height="86.5"/><rect class="cls-3" x="65.62" y="22.89" width="117.47" height="3.8"/><rect class="cls-3" x="65.62" y="28.05" width="117.47" height="3.8"/><rect class="cls-3" x="65.62" y="33.2" width="117.47" height="3.8"/><rect class="cls-3" x="65.62" y="38.36" width="117.47" height="3.8"/><rect class="cls-3" x="65.62" y="43.52" width="117.47" height="3.8"/><rect class="cls-3" x="65.62" y="48.67" width="117.47" height="3.8"/><rect class="cls-3" x="65.62" y="53.83" width="117.47" height="3.8"/><rect class="cls-3" x="65.62" y="58.98" width="117.47" height="3.8"/><rect class="cls-3" x="65.62" y="64.14" width="117.47" height="3.8"/><rect class="cls-3" x="65.62" y="69.29" width="117.47" height="3.8"/><rect class="cls-3" x="65.62" y="74.45" width="117.47" height="3.8"/><rect class="cls-3" x="65.62" y="79.6" width="117.47" height="3.8"/><rect class="cls-3" x="65.62" y="84.76" width="117.47" height="3.8"/><rect class="cls-3" x="65.62" y="89.92" width="117.47" height="3.8"/><rect class="cls-3" x="65.62" y="95.07" width="117.47" height="3.8"/><rect class="cls-3" x="65.62" y="18.11" width="117.47" height="3.8"/><rect class="cls-3" x="65.62" y="13.33" width="117.47" height="3.8"/><rect class="cls-3" x="65.62" y="8.56" width="117.47" height="3.8"/></g></g></svg>