<svg xmlns="http://www.w3.org/2000/svg" viewBox="0 0 248.71 108.94"><defs><style>.cls-1{fill:none;opacity:0.8;}.cls-2{fill:#fec006;}.cls-3{fill:#202020;opacity:0.3;}.cls-4{fill:#363339;}.cls-5{fill:#504e52;}.cls-6{fill:#7b7a7c;}.cls-7{fill:#5b5a5b;}.cls-8{fill:#9b9b9b;}.cls-9{fill:#6b6b6b;}</style></defs><title>Insumo_nave_3</title><g id="Capa_2" data-name="Capa 2"><g id="Layer_1" data-name="Layer 1"><rect class="cls-1" width="248.71" height="108.94"/><rect class="cls-2" x="57.29" y="41.46" width="134.13" height="2.67"/><rect class="cls-3" x="64.65" y="44.13" width="119.42" height="2.96"/><path class="cls-4" d="M64.71,47.76H184a0,0,0,0,1,0,0V58a3.73,3.73,0,0,1-3.73,3.73H68.44A3.73,3.73,0,0,1,64.71,58V47.76a0,0,0,0,1,0,0Z"/><path class="cls-5" d="M69.67,58.4V73.25h-.1V96.54h6.08V76h0c0-.09,0-.18,0-.27v-1.3A10.79,10.79,0,0,1,86.43,63.79l.57,0V58.4Z"/><rect class="cls-6" x="69.67" y="57.14" width="17.32" height="2.12"/><rect class="cls-6" x="69.57" y="94.62" width="6.08" height="2.12"/><path class="cls-5" d="M179,58.4V73.25h.1V96.54h-6.08V76h0c0-.09,0-.18,0-.27v-1.3a10.79,10.79,0,0,0-10.79-10.65l-.57,0V58.4Z"/><rect class="cls-6" x="161.72" y="57.14" width="17.32" height="2.12" transform="translate(340.76 116.41) rotate(-180)"/><rect class="cls-6" x="173.07" y="94.62" width="6.08" height="2.12" transform="translate(352.22 191.35) rotate(-180)"/><path class="cls-7" d="M75.24,40.37h5.59a.46.46,0,0,1,.46.46v.54a0,0,0,0,1,0,0h-6.5a0,0,0,0,1,0,0v-.54A.46.46,0,0,1,75.24,40.37Z"/><rect class="cls-7" x="77.57" y="23.55" width="0.99" height="17.43"/><path class="cls-8" d="M81.76,14.1l-7.7,26.44a.54.54,0,0,1-.67.37l-.9-.26,8-27.48.9.26A.54.54,0,0,1,81.76,14.1Z"/><rect class="cls-9" x="61.33" y="26.33" width="29.85" height="0.54" transform="translate(29.39 92.38) rotate(-73.76)"/><rect class="cls-9" x="73.81" y="28.18" width="8.17" height="0.59" transform="translate(28.78 95.3) rotate(-73.76)"/><path class="cls-8" d="M62.93,40.43h7.13a.51.51,0,0,1,.51.51v.48a0,0,0,0,1,0,0H62.42a0,0,0,0,1,0,0v-.48A.51.51,0,0,1,62.93,40.43Z"/><rect class="cls-9" x="63.19" y="40.3" width="1.21" height="0.18"/><rect class="cls-9" x="64.54" y="40.3" width="1.21" height="0.18"/><rect class="cls-9" x="65.89" y="40.3" width="1.21" height="0.18"/><rect class="cls-9" x="67.24" y="40.3" width="1.21" height="0.18"/><rect class="cls-9" x="68.59" y="40.3" width="1.21" height="0.18"/></g></g></svg>