<svg xmlns="http://www.w3.org/2000/svg" viewBox="0 0 248.71 108.94"><defs><style>.cls-1{fill:none;opacity:0.8;}.cls-2,.cls-3{fill:#cecece;}.cls-3{stroke:#5e5f60;stroke-width:0.61px;}.cls-3,.cls-4{stroke-miterlimit:22.93;}.cls-4{fill:#5e5f60;stroke:#cecece;stroke-width:0.6px;}.cls-5{fill:#828282;}</style></defs><title>Insumo_nave_5</title><g id="Capa_2" data-name="Capa 2"><g id="Layer_1" data-name="Layer 1"><rect class="cls-1" width="248.71" height="108.94"/><path class="cls-2" d="M124.36,5.23h0a26.2,26.2,0,0,1,26.2,26.2V103.7a0,0,0,0,1,0,0H98.16a0,0,0,0,1,0,0V31.43A26.2,26.2,0,0,1,124.36,5.23Z"/><path class="cls-3" d="M145.39,103.66H103.32V33.38c0-11.91,9.63-21.9,21.4-21.7A21.19,21.19,0,0,1,145.39,33Z"/><rect class="cls-4" x="116.48" y="53.9" width="13.65" height="13.65" rx="6.83" ry="6.83"/><rect class="cls-5" x="118.87" y="56.3" width="8.87" height="8.87" rx="4.43" ry="4.43"/><circle class="cls-5" cx="105.85" cy="100.06" r="0.7"/><circle class="cls-5" cx="105.85" cy="96.37" r="0.7"/><circle class="cls-5" cx="105.85" cy="92.67" r="0.7"/><circle class="cls-5" cx="105.85" cy="88.97" r="0.7"/><circle class="cls-5" cx="105.85" cy="85.28" r="0.7"/><circle class="cls-5" cx="105.85" cy="81.58" r="0.7"/><circle class="cls-5" cx="105.85" cy="77.88" r="0.7"/><circle class="cls-5" cx="105.85" cy="74.18" r="0.7"/><circle class="cls-5" cx="105.85" cy="70.49" r="0.7"/><circle class="cls-5" cx="105.85" cy="66.79" r="0.7"/><circle class="cls-5" cx="105.85" cy="63.09" r="0.7"/><circle class="cls-5" cx="105.85" cy="59.4" r="0.7"/><circle class="cls-5" cx="105.85" cy="55.7" r="0.7"/><circle class="cls-5" cx="105.85" cy="52" r="0.7"/><circle class="cls-5" cx="105.85" cy="48.31" r="0.7"/><circle class="cls-5" cx="105.85" cy="44.61" r="0.7"/><circle class="cls-5" cx="105.85" cy="40.91" r="0.7"/><circle class="cls-5" cx="105.85" cy="37.22" r="0.7"/><circle class="cls-5" cx="105.85" cy="33.52" r="0.7"/><circle class="cls-5" cx="143.11" cy="100.06" r="0.7"/><circle class="cls-5" cx="143.11" cy="96.37" r="0.7"/><circle class="cls-5" cx="143.11" cy="92.67" r="0.7"/><circle class="cls-5" cx="143.11" cy="88.97" r="0.7"/><circle class="cls-5" cx="143.11" cy="85.28" r="0.7"/><circle class="cls-5" cx="143.11" cy="81.58" r="0.7"/><circle class="cls-5" cx="143.11" cy="77.88" r="0.7"/><circle class="cls-5" cx="143.11" cy="74.18" r="0.7"/><circle class="cls-5" cx="143.11" cy="70.49" r="0.7"/><circle class="cls-5" cx="143.11" cy="66.79" r="0.7"/><circle class="cls-5" cx="143.11" cy="63.09" r="0.7"/><circle class="cls-5" cx="143.11" cy="59.4" r="0.7"/><circle class="cls-5" cx="143.11" cy="55.7" r="0.7"/><circle class="cls-5" cx="143.11" cy="52" r="0.7"/><circle class="cls-5" cx="143.11" cy="48.31" r="0.7"/><circle class="cls-5" cx="143.11" cy="44.61" r="0.7"/><circle class="cls-5" cx="143.11" cy="40.91" r="0.7"/><circle class="cls-5" cx="143.11" cy="37.22" r="0.7"/><circle class="cls-5" cx="143.11" cy="33.52" r="0.7"/><circle class="cls-5" cx="106.12" cy="29.73" r="0.7"/><circle class="cls-5" cx="107.35" cy="26.05" r="0.7"/><circle class="cls-5" cx="109" cy="22.97" r="0.7"/><circle class="cls-5" cx="111.07" cy="20.38" r="0.7"/><circle class="cls-5" cx="113.68" cy="18.11" r="0.7"/><circle class="cls-5" cx="116.83" cy="16.28" r="0.7"/><circle class="cls-5" cx="119.88" cy="15.19" r="0.7"/><circle class="cls-5" cx="123.09" cy="14.52" r="0.7"/><circle class="cls-5" cx="126.2" cy="14.56" r="0.7"/><circle class="cls-5" cx="129.32" cy="15.05" r="0.7"/><circle class="cls-5" cx="132.35" cy="16.26" r="0.7"/><circle class="cls-5" cx="134.87" cy="17.83" r="0.7"/><circle class="cls-5" cx="137.08" cy="19.63" r="0.7"/><circle class="cls-5" cx="139.02" cy="21.62" r="0.7"/><circle class="cls-5" cx="140.45" cy="23.98" r="0.7"/><circle class="cls-5" cx="141.71" cy="26.72" r="0.7"/><circle class="cls-5" cx="142.65" cy="29.97" r="0.7"/></g></g></svg>