<svg xmlns="http://www.w3.org/2000/svg" viewBox="0 0 248.71 108.94"><defs><style>.cls-1{fill:none;opacity:0.8;}.cls-2{fill:#7f8080;}.cls-3{fill:#646669;}.cls-3,.cls-6,.cls-7{fill-rule:evenodd;}.cls-4,.cls-7{fill:#363339;}.cls-5{fill:#53c4d1;}.cls-6{fill:#8dd3db;}.cls-8{fill:#07bbe8;}</style></defs><title>Insumo_casa_8</title><g id="Capa_2" data-name="Capa 2"><g id="Layer_1" data-name="Layer 1"><rect class="cls-1" width="248.71" height="108.94"/><ellipse class="cls-2" cx="76.12" cy="71.09" rx="0.92" ry="1.67"/><ellipse class="cls-2" cx="76.26" cy="75.59" rx="0.92" ry="1.67"/><ellipse class="cls-2" cx="76.26" cy="80.09" rx="0.92" ry="1.67"/><path class="cls-3" d="M101.9,76.33h45.84c-.51,4.91,1.09,10.73,9.64,14.12H92.26C100.81,87.06,102.41,81.24,101.9,76.33Z"/><rect class="cls-4" x="76.37" y="22.42" width="97.15" height="62.97" rx="2.83" ry="2.83"/><rect class="cls-5" x="79.22" y="24.84" width="90.83" height="56.76" rx="0.19" ry="0.19"/><path class="cls-6" d="M79.41,24.84h90.46c1.6,0-13.71,15.78-43.1,35.21-23.17,15.31-47.67,22-47.54,21.36V25A.19.19,0,0,1,79.41,24.84Z"/><path class="cls-7" d="M91.25,87.26h68.86a2.55,2.55,0,0,1,2.54,2.54v1.56a1,1,0,0,1-1,1H89.52a.81.81,0,0,1-.81-.81V89.8A2.55,2.55,0,0,1,91.25,87.26Z"/><rect class="cls-8" x="111.05" y="82.82" width="27.45" height="1.43"/></g></g></svg>