<svg xmlns="http://www.w3.org/2000/svg" viewBox="0 0 248.71 108.94"><defs><style>.cls-1{fill:none;opacity:0.8;}.cls-2{fill:#363339;}.cls-3{fill:#e2d6af;}.cls-4{fill:#bcad96;}.cls-5{fill:#504e52;}.cls-6{fill:#757475;}.cls-7{fill:#565656;}.cls-8{fill:#fff;opacity:0.7;}.cls-9{fill:#7f7e7f;}</style></defs><title>Insumo_nave_1_1</title><g id="Capa_2" data-name="Capa 2"><g id="Layer_1" data-name="Layer 1"><rect class="cls-1" width="248.71" height="108.94"/><path class="cls-2" d="M58.84,59.71h131a0,0,0,0,1,0,0v9.1a4.36,4.36,0,0,1-4.36,4.36H63.2a4.36,4.36,0,0,1-4.36-4.36v-9.1A0,0,0,0,1,58.84,59.71Z"/><rect class="cls-3" x="61.98" y="42.3" width="126.08" height="12.51" rx="1.48" ry="1.48"/><path class="cls-4" d="M186.59,42.77a1,1,0,0,1,1,1v9.56a1,1,0,0,1-1,1H63.46a1,1,0,0,1-1-1V43.78a1,1,0,0,1,1-1H186.59m0-.94H63.46a2,2,0,0,0-1.95,1.95v9.56a2,2,0,0,0,1.95,1.95H186.59a2,2,0,0,0,1.95-1.95V43.78a2,2,0,0,0-1.95-1.95Z"/><path class="cls-5" d="M70.45,81.49A10.42,10.42,0,0,1,80.87,71.07l.55,0V65.86H64.69v17h5.86A10.51,10.51,0,0,1,70.45,81.49Z"/><path class="cls-5" d="M178.5,81.49a10.42,10.42,0,0,0-10.42-10.42l-.55,0V65.86h16.73v17H178.4A10.51,10.51,0,0,0,178.5,81.49Z"/><path class="cls-6" d="M84.33,26.65h40.41a0,0,0,0,1,0,0V56.12a0,0,0,0,1,0,0H58.91a0,0,0,0,1,0,0v-4A25.42,25.42,0,0,1,84.33,26.65Z"/><rect class="cls-7" x="93.65" y="26.07" width="36.92" height="30.01"/><rect class="cls-3" x="151.91" y="37.54" width="30.54" height="3.82" rx="1.84" ry="1.84"/><path class="cls-4" d="M180.6,37.75a1.63,1.63,0,0,1,1.63,1.63v.15a1.63,1.63,0,0,1-1.63,1.63H153.74a1.63,1.63,0,0,1-1.63-1.63v-.15a1.63,1.63,0,0,1,1.63-1.63H180.6m0-.42H153.74a2,2,0,0,0-2,2v.15a2,2,0,0,0,2,2H180.6a2,2,0,0,0,2-2v-.15a2,2,0,0,0-2-2Z"/><path class="cls-6" d="M160.53,26.65H189.8a0,0,0,0,1,0,0V56.12a0,0,0,0,1,0,0H186a25.42,25.42,0,0,1-25.42-25.42v-4A0,0,0,0,1,160.53,26.65Z" transform="translate(350.33 82.76) rotate(-180)"/><path class="cls-8" d="M84.51,29.37c-.6-.05-1.21-.08-1.82-.08A21.37,21.37,0,0,0,61.21,50.55c0,.61,0,1.21.08,1.8A26.39,26.39,0,0,1,84.51,29.37Z"/><path class="cls-8" d="M186.71,52.47c.05-.6.08-1.21.08-1.82a21.37,21.37,0,0,0-21.26-21.48c-.61,0-1.21,0-1.8.08A26.39,26.39,0,0,1,186.71,52.47Z"/><polygon class="cls-8" points="95.49 28.41 129.07 28.41 95.35 29.49 95.49 28.41"/><circle class="cls-9" cx="65.73" cy="58.92" r="0.41"/><circle class="cls-9" cx="80.42" cy="58.92" r="0.41"/><circle class="cls-9" cx="95.11" cy="58.92" r="0.41"/><circle class="cls-9" cx="109.79" cy="58.92" r="0.41"/><circle class="cls-9" cx="124.48" cy="58.92" r="0.41"/><circle class="cls-9" cx="139.17" cy="58.92" r="0.41"/><circle class="cls-9" cx="153.86" cy="58.92" r="0.41"/><circle class="cls-9" cx="168.55" cy="58.92" r="0.41"/><circle class="cls-9" cx="183.24" cy="58.92" r="0.41"/><circle class="cls-9" cx="168.55" cy="68.02" r="0.41"/><circle class="cls-9" cx="183.24" cy="68.02" r="0.41"/><circle class="cls-9" cx="65.73" cy="67.96" r="0.41"/><circle class="cls-9" cx="80.42" cy="67.96" r="0.41"/></g></g></svg>