<svg xmlns="http://www.w3.org/2000/svg" viewBox="0 0 248.71 108.94"><defs><style>.cls-1{fill:none;opacity:0.8;}.cls-2{fill:#bcbcbc;}.cls-3{fill:#f2f3f4;}.cls-4{fill:#898989;}.cls-5{fill:#cecece;}.cls-6{fill:#d1d2d3;}.cls-7{fill:#8d8d8e;stroke:#fff;stroke-miterlimit:10;stroke-width:0.96px;}</style></defs><title>Insumo_nave_7</title><g id="Capa_2" data-name="Capa 2"><g id="Layer_1" data-name="Layer 1"><rect class="cls-1" width="248.71" height="108.94"/><path class="cls-2" d="M127.57,52.25v-36c-1.16-.1-2.33-.17-3.51-.17a38.64,38.64,0,0,0-30.78,62h61.56a38.5,38.5,0,0,0,7-15H138.37A10.83,10.83,0,0,1,127.57,52.25Z"/><path class="cls-3" d="M138.55,63.51a11.45,11.45,0,0,1-11.44-11.44V14.95l.5,0a39.53,39.53,0,0,1,36.14,39.58,39.93,39.93,0,0,1-.93,8.58l-.08.36Z"/><path class="cls-4" d="M127.57,15.45A39.29,39.29,0,0,1,162.37,63H138.55a11,11,0,0,1-11-11V15.45m-.92-1V52.07A11.91,11.91,0,0,0,138.55,64h24.55l.16-.72a40.21,40.21,0,0,0-35.61-48.71l-1-.09Z"/><rect class="cls-3" x="90.99" y="78.07" width="67.23" height="5.19" rx="2.09" ry="2.09"/><rect class="cls-3" x="91.05" y="88.3" width="67.23" height="5.19" rx="2.09" ry="2.09"/><rect class="cls-2" x="90.99" y="83.18" width="67.23" height="5.19" rx="2.09" ry="2.09"/><circle class="cls-4" cx="123.09" cy="45.54" r="1.25"/><circle class="cls-4" cx="138.33" cy="66.84" r="1.25"/><circle class="cls-4" cx="144.6" cy="66.84" r="1.25"/><circle class="cls-4" cx="150.86" cy="66.84" r="1.25"/><circle class="cls-4" cx="157.12" cy="66.84" r="1.25"/><circle class="cls-4" cx="123.09" cy="40.22" r="1.25"/><circle class="cls-4" cx="123.09" cy="34.89" r="1.25"/><circle class="cls-4" cx="123.09" cy="29.57" r="1.25"/><circle class="cls-4" cx="123.09" cy="24.24" r="1.25"/><circle class="cls-4" cx="104.49" cy="35.19" r="2.49"/><circle class="cls-4" cx="123.09" cy="18.92" r="1.25"/><rect class="cls-4" x="100.59" y="43.64" width="26.44" height="2.1" transform="translate(65.76 -67.74) rotate(45.42)"/><rect class="cls-5" x="136.84" y="44.12" width="20.9" height="1.82" transform="translate(72.28 -89.5) rotate(43.86)"/><rect class="cls-2" x="133.15" y="44.72" width="20.9" height="1.82" transform="translate(71.67 -86.77) rotate(43.86)"/><rect class="cls-6" x="132.14" y="49.12" width="20.9" height="1.82" transform="translate(74.44 -84.84) rotate(43.86)"/><circle class="cls-7" cx="128.47" cy="58.69" r="9.91"/><circle class="cls-2" cx="128.47" cy="58.69" r="5.55"/></g></g></svg>