<?xml version="1.0" encoding="utf-8"?>
<!-- Generator: Adobe Illustrator 21.0.0, SVG Export Plug-In . SVG Version: 6.00 Build 0)  -->
<svg version="1.1" id="Capa_1" xmlns="http://www.w3.org/2000/svg" xmlns:xlink="http://www.w3.org/1999/xlink" x="0px" y="0px"
	 viewBox="0 0 248.7 108.9" style="enable-background:new 0 0 248.7 108.9;" xml:space="preserve">
<style type="text/css">
	.st0{fill:none;}
	.st1{fill:#0F0F0B;}
	.st2{fill:url(#SVGID_1_);}
	.st3{fill:url(#SVGID_2_);}
	.st4{fill:url(#SVGID_3_);}
	.st5{fill:url(#SVGID_4_);}
</style>
<title>Insumo_auto_7</title>
<g>
	<rect class="st0" width="248.7" height="108.9"/>
	<g>
		<ellipse class="st1" cx="43.6" cy="54.5" rx="38.1" ry="38.1"/>
		
			<radialGradient id="SVGID_1_" cx="43.6373" cy="1168.5" r="24.8" gradientTransform="matrix(1 0 0 1 0 -1114)" gradientUnits="userSpaceOnUse">
			<stop  offset="0" style="stop-color:#FFFFFF"/>
			<stop  offset="6.000000e-02" style="stop-color:#F8F8F8"/>
			<stop  offset="0.17" style="stop-color:#F0F0F0"/>
			<stop  offset="0.63" style="stop-color:#F0F0F0"/>
			<stop  offset="0.7" style="stop-color:#F0F0F0"/>
			<stop  offset="0.85" style="stop-color:#EEEEEE"/>
			<stop  offset="0.9" style="stop-color:#E7E7E7"/>
			<stop  offset="0.93" style="stop-color:#DCDCDC"/>
			<stop  offset="0.96" style="stop-color:#CBCBCB"/>
			<stop  offset="0.99" style="stop-color:#B5B5B5"/>
			<stop  offset="1" style="stop-color:#A8A8A8"/>
		</radialGradient>
		<path class="st2" d="M43.6,79.3c-13.7,0-24.8-11.1-24.8-24.8s11.1-24.8,24.8-24.8s24.8,11.1,24.8,24.8l0,0
			C68.4,68.1,57.3,79.2,43.6,79.3z"/>
		<path d="M33.9,35.2L40.7,47c1.5,2.7,4,2.7,5.6,0l6.8-11.8c0.2-0.2-4.2-2.8-9.6-2.8S33.7,35,33.9,35.2z"/>
		<path d="M22.1,58.5l13.3-3.1c3-0.7,3.7-3.1,1.7-5.3l-9.3-10c-0.1-0.2-3.9,3.1-5.5,8.4S22,58.6,22.1,58.5z"/>
		<path d="M40.9,76.5l0.9-13.6c0.2-3.1-1.9-4.5-4.6-3.1l-12.3,5.9c-0.2,0,1.9,4.6,6.4,7.7C35.9,76.5,41,76.7,40.9,76.5z"/>
		<path d="M63.2,63.7l-12.7-4.9c-2.9-1.1-4.8,0.5-4.3,3.5l2.1,13.5c0,0.2,5-0.4,9.2-3.9S63.4,63.7,63.2,63.7z"/>
		<path d="M58.2,38.7l-8.4,10.8c-1.9,2.4-1,4.7,2.1,5.2l13.5,1.9c0.2,0.1,1-4.9-1-10C62.4,41.5,58.3,38.5,58.2,38.7z"/>
	</g>
	<g>
		<ellipse class="st1" cx="96.7" cy="54.5" rx="38.1" ry="38.1"/>
		
			<radialGradient id="SVGID_2_" cx="96.6949" cy="1168.5" r="24.8" gradientTransform="matrix(1 0 0 1 0 -1114)" gradientUnits="userSpaceOnUse">
			<stop  offset="0" style="stop-color:#FFFFFF"/>
			<stop  offset="6.000000e-02" style="stop-color:#F8F8F8"/>
			<stop  offset="0.17" style="stop-color:#F0F0F0"/>
			<stop  offset="0.63" style="stop-color:#F0F0F0"/>
			<stop  offset="0.7" style="stop-color:#F0F0F0"/>
			<stop  offset="0.85" style="stop-color:#EEEEEE"/>
			<stop  offset="0.9" style="stop-color:#E7E7E7"/>
			<stop  offset="0.93" style="stop-color:#DCDCDC"/>
			<stop  offset="0.96" style="stop-color:#CBCBCB"/>
			<stop  offset="0.99" style="stop-color:#B5B5B5"/>
			<stop  offset="1" style="stop-color:#A8A8A8"/>
		</radialGradient>
		<path class="st3" d="M96.7,79.3c-13.7,0-24.8-11.1-24.8-24.8S83,29.7,96.7,29.7s24.8,11.1,24.8,24.8l0,0
			C121.5,68.1,110.4,79.2,96.7,79.3z"/>
		<path d="M87,35.2L93.8,47c1.5,2.7,4,2.7,5.6,0l6.8-11.8c0.2-0.2-4.2-2.8-9.6-2.8S86.8,35,87,35.2z"/>
		<path d="M75.2,58.5l13.3-3.1c3-0.7,3.7-3.1,1.7-5.3l-9.3-10c-0.1-0.2-3.9,3.1-5.5,8.4S75.1,58.6,75.2,58.5z"/>
		<path d="M93.9,76.5l0.9-13.6c0.2-3.1-1.9-4.5-4.6-3.1l-12.3,5.9c-0.2,0,1.9,4.6,6.4,7.7C88.9,76.5,94,76.7,93.9,76.5z"/>
		<path d="M116.2,63.7l-12.7-4.9c-2.9-1.1-4.8,0.5-4.3,3.5l2.1,13.5c0,0.2,5-0.4,9.2-3.9C114.7,68.4,116.4,63.7,116.2,63.7z"/>
		<path d="M111.3,38.7l-8.4,10.8c-1.9,2.4-1,4.7,2.1,5.2l13.5,1.9c0.2,0.1,1-4.9-1-10S111.4,38.5,111.3,38.7z"/>
	</g>
	<g>
		<ellipse class="st1" cx="149.8" cy="54.5" rx="38.1" ry="38.1"/>
		
			<radialGradient id="SVGID_3_" cx="149.7525" cy="1168.5" r="24.8" gradientTransform="matrix(1 0 0 1 0 -1114)" gradientUnits="userSpaceOnUse">
			<stop  offset="0" style="stop-color:#FFFFFF"/>
			<stop  offset="6.000000e-02" style="stop-color:#F8F8F8"/>
			<stop  offset="0.17" style="stop-color:#F0F0F0"/>
			<stop  offset="0.63" style="stop-color:#F0F0F0"/>
			<stop  offset="0.7" style="stop-color:#F0F0F0"/>
			<stop  offset="0.85" style="stop-color:#EEEEEE"/>
			<stop  offset="0.9" style="stop-color:#E7E7E7"/>
			<stop  offset="0.93" style="stop-color:#DCDCDC"/>
			<stop  offset="0.96" style="stop-color:#CBCBCB"/>
			<stop  offset="0.99" style="stop-color:#B5B5B5"/>
			<stop  offset="1" style="stop-color:#A8A8A8"/>
		</radialGradient>
		<path class="st4" d="M149.8,79.3c-13.7,0-24.8-11.1-24.8-24.8s11.1-24.8,24.8-24.8s24.8,11.1,24.8,24.8l0,0
			C174.6,68.1,163.5,79.2,149.8,79.3z"/>
		<path d="M140.1,35.2l6.8,11.8c1.5,2.7,4,2.7,5.6,0l6.8-11.8c0.2-0.2-4.2-2.8-9.6-2.8C144.3,32.4,139.9,35,140.1,35.2z"/>
		<path d="M128.3,58.5l13.3-3.1c3-0.7,3.7-3.1,1.7-5.3l-9.3-10c-0.1-0.2-3.9,3.1-5.5,8.4C126.9,53.8,128.2,58.6,128.3,58.5z"/>
		<path d="M147,76.5l0.9-13.6c0.2-3.1-1.9-4.5-4.6-3.1L131,65.7c-0.2,0,1.9,4.6,6.4,7.7C142,76.5,147.1,76.7,147,76.5z"/>
		<path d="M169.3,63.7l-12.7-4.9c-2.9-1.1-4.8,0.5-4.3,3.5l2.1,13.5c0,0.2,5-0.4,9.2-3.9S169.5,63.7,169.3,63.7z"/>
		<path d="M164.4,38.7L156,49.5c-1.9,2.4-1,4.7,2.1,5.2l13.5,1.9c0.2,0.1,1-4.9-1-10S164.5,38.5,164.4,38.7z"/>
	</g>
	<g>
		<ellipse class="st1" cx="202.8" cy="54.5" rx="38.1" ry="38.1"/>
		
			<radialGradient id="SVGID_4_" cx="202.8101" cy="1168.5" r="24.8" gradientTransform="matrix(1 0 0 1 0 -1114)" gradientUnits="userSpaceOnUse">
			<stop  offset="0" style="stop-color:#FFFFFF"/>
			<stop  offset="6.000000e-02" style="stop-color:#F8F8F8"/>
			<stop  offset="0.17" style="stop-color:#F0F0F0"/>
			<stop  offset="0.63" style="stop-color:#F0F0F0"/>
			<stop  offset="0.7" style="stop-color:#F0F0F0"/>
			<stop  offset="0.85" style="stop-color:#EEEEEE"/>
			<stop  offset="0.9" style="stop-color:#E7E7E7"/>
			<stop  offset="0.93" style="stop-color:#DCDCDC"/>
			<stop  offset="0.96" style="stop-color:#CBCBCB"/>
			<stop  offset="0.99" style="stop-color:#B5B5B5"/>
			<stop  offset="1" style="stop-color:#A8A8A8"/>
		</radialGradient>
		<path class="st5" d="M202.8,79.3c-13.7,0-24.8-11.1-24.8-24.8s11.1-24.8,24.8-24.8s24.8,11.1,24.8,24.8l0,0
			C227.6,68.1,216.5,79.2,202.8,79.3z"/>
		<path d="M193.1,35.2l6.8,11.8c1.5,2.7,4,2.7,5.6,0l6.8-11.8c0.2-0.2-4.2-2.8-9.6-2.8C197.3,32.4,192.9,35,193.1,35.2z"/>
		<path d="M181.3,58.5l13.3-3.1c3-0.7,3.7-3.1,1.7-5.3l-9.3-10c-0.1-0.2-3.9,3.1-5.5,8.4C179.9,53.8,181.2,58.6,181.3,58.5z"/>
		<path d="M200,76.5l0.9-13.6c0.2-3.1-1.9-4.5-4.6-3.1L184,65.7c-0.2,0,1.9,4.6,6.4,7.7C195,76.5,200.1,76.7,200,76.5z"/>
		<path d="M222.3,63.7l-12.7-4.9c-2.9-1.1-4.8,0.5-4.3,3.5l2.1,13.5c0,0.2,5-0.4,9.2-3.9C220.8,68.4,222.5,63.7,222.3,63.7z"/>
		<path d="M217.4,38.7L209,49.5c-1.9,2.4-1,4.7,2.1,5.2l13.5,1.9c0.2,0.1,1-4.9-1-10S217.5,38.5,217.4,38.7z"/>
	</g>
</g>
</svg>
