<svg xmlns="http://www.w3.org/2000/svg" viewBox="0 0 248.71 108.94"><defs><style>.cls-1{fill:none;opacity:0.8;}.cls-2{fill:#fff;}.cls-3{fill:#545454;stroke:#81cffa;stroke-width:1.7px;}.cls-3,.cls-5,.cls-6{stroke-miterlimit:10;}.cls-4{fill:#2dbccd;}.cls-5{fill:#878787;stroke:#57c9ff;stroke-width:0.43px;}.cls-6{fill:#f4911e;stroke:#fff;stroke-width:0.85px;}.cls-7{fill:#81cffa;}</style></defs><title>Insumo_auto_8</title><g id="Capa_2" data-name="Capa 2"><g id="Layer_1" data-name="Layer 1"><rect class="cls-1" width="248.71" height="108.94"/><polygon class="cls-2" points="175.24 43.85 175.24 43.88 175.22 43.86 175.23 43.85 175.24 43.85"/><path class="cls-2" d="M173.62,43.85l-.09.06,0,0v0Z"/><path class="cls-2" d="M131.88,43.85v0l0,0-.09-.06Z"/><polygon class="cls-2" points="130.03 43.86 130 43.88 130 43.85 130.02 43.85 130.03 43.86"/><path class="cls-3" d="M60.86,85.94A4.43,4.43,0,0,0,65,90.57H183.67a4.43,4.43,0,0,0,4.19-4.64V23a4.43,4.43,0,0,0-4.19-4.64H65A4.43,4.43,0,0,0,60.86,23Z"/><circle class="cls-4" cx="71.57" cy="28.29" r="6.82"/><path class="cls-4" d="M66.11,48.73a1.27,1.27,0,0,0,1.4,1.08h8.12A1.27,1.27,0,0,0,77,48.73v-9a1.27,1.27,0,0,0-1.4-1.09H67.5a1.27,1.27,0,0,0-1.4,1.09Z"/><path class="cls-5" d="M67.58,53.76H76.2a1.39,1.39,0,0,1,1.39,1.39v3.67a1.39,1.39,0,0,1-1.39,1.39H67.58a1.4,1.4,0,0,1-1.4-1.4V55.15A1.39,1.39,0,0,1,67.58,53.76Z"/><path class="cls-5" d="M67.58,62.66H76.2a1.4,1.4,0,0,1,1.4,1.4v3.66a1.39,1.39,0,0,1-1.39,1.39H67.58a1.4,1.4,0,0,1-1.4-1.4V64.05a1.4,1.4,0,0,1,1.4-1.4Z"/><path class="cls-5" d="M67.58,71.9H76.2a1.39,1.39,0,0,1,1.39,1.39V77a1.39,1.39,0,0,1-1.39,1.39H67.58a1.4,1.4,0,0,1-1.4-1.4V73.3A1.4,1.4,0,0,1,67.58,71.9Z"/><path class="cls-5" d="M172.15,35h8.62a1.4,1.4,0,0,1,1.4,1.4v3.67a1.39,1.39,0,0,1-1.39,1.39h-8.62a1.4,1.4,0,0,1-1.4-1.4V36.42A1.4,1.4,0,0,1,172.15,35Z"/><path class="cls-5" d="M172.15,58.18h8.62a1.4,1.4,0,0,1,1.4,1.4v3.67a1.39,1.39,0,0,1-1.39,1.39h-8.62a1.4,1.4,0,0,1-1.4-1.4V59.58A1.4,1.4,0,0,1,172.15,58.18Z"/><path class="cls-5" d="M172.15,50.53h8.62a1.4,1.4,0,0,1,1.4,1.4v3.66a1.4,1.4,0,0,1-1.4,1.4h-8.62a1.4,1.4,0,0,1-1.4-1.4V51.93A1.39,1.39,0,0,1,172.15,50.53Z"/><path class="cls-5" d="M172.15,42.78h8.62a1.4,1.4,0,0,1,1.4,1.4v3.66a1.39,1.39,0,0,1-1.39,1.39h-8.62a1.39,1.39,0,0,1-1.39-1.39V44.18A1.39,1.39,0,0,1,172.15,42.78Z"/><path class="cls-5" d="M172.15,21.8h8.62a1.4,1.4,0,0,1,1.4,1.4v3.66a1.39,1.39,0,0,1-1.39,1.39h-8.62a1.4,1.4,0,0,1-1.4-1.4V23.2A1.4,1.4,0,0,1,172.15,21.8Z"/><path class="cls-5" d="M172.15,71.9h8.62a1.4,1.4,0,0,1,1.4,1.4V77a1.39,1.39,0,0,1-1.39,1.39h-8.62a1.4,1.4,0,0,1-1.4-1.4V73.3A1.4,1.4,0,0,1,172.15,71.9Z"/><path class="cls-6" d="M149.58,75.13h12.91a1.4,1.4,0,0,1,1.4,1.4V77a1.4,1.4,0,0,1-1.4,1.4H149.58A1.39,1.39,0,0,1,148.18,77v-.44A1.4,1.4,0,0,1,149.58,75.13Z"/><path class="cls-6" d="M125.93,75.13h12.91a1.4,1.4,0,0,1,1.4,1.4V77a1.4,1.4,0,0,1-1.4,1.4H125.93A1.39,1.39,0,0,1,124.53,77v-.44A1.4,1.4,0,0,1,125.93,75.13Z"/><path class="cls-6" d="M107.13,75.13H120a1.4,1.4,0,0,1,1.4,1.4V77a1.4,1.4,0,0,1-1.4,1.4h-12.9A1.39,1.39,0,0,1,105.73,77v-.44A1.4,1.4,0,0,1,107.13,75.13Z"/><path class="cls-6" d="M85.84,75.13h12.9a1.4,1.4,0,0,1,1.4,1.4V77a1.39,1.39,0,0,1-1.39,1.39H85.84A1.39,1.39,0,0,1,84.44,77v-.44A1.4,1.4,0,0,1,85.84,75.13Z"/><rect class="cls-7" x="84.09" y="24.59" width="78.52" height="46.94"/></g></g></svg>