<svg xmlns="http://www.w3.org/2000/svg" xmlns:xlink="http://www.w3.org/1999/xlink" viewBox="0 0 248.71 108.94"><defs><style>.cls-1{fill:none;opacity:0.8;}.cls-2{fill:#0f0f0b;}.cls-3{fill:url(#radial-gradient);}</style><radialGradient id="radial-gradient" cx="124.36" cy="54.46" r="29.85" gradientUnits="userSpaceOnUse"><stop offset="0" stop-color="#fff"/><stop offset="0.06" stop-color="#f8f8f8"/><stop offset="0.17" stop-color="#f0f0f0"/><stop offset="0.63" stop-color="#f0f0f0"/><stop offset="0.7" stop-color="#f0f0f0"/><stop offset="0.85" stop-color="#eee"/><stop offset="0.9" stop-color="#e7e7e7"/><stop offset="0.93" stop-color="#dcdcdc"/><stop offset="0.96" stop-color="#cbcbcb"/><stop offset="0.99" stop-color="#b5b5b5"/><stop offset="1" stop-color="#a8a8a8"/></radialGradient></defs><title>Insumo_auto_7</title><g id="Capa_2" data-name="Capa 2"><g id="Layer_1" data-name="Layer 1"><rect class="cls-1" width="248.71" height="108.94"/><ellipse class="cls-2" cx="124.36" cy="54.47" rx="45.81" ry="45.82"/><path class="cls-3" d="M124.36,84.31A29.85,29.85,0,1,1,154.2,54.46,29.88,29.88,0,0,1,124.36,84.31Z"/><path d="M112.6,31.22l8.23,14.22c1.85,3.2,4.85,3.2,6.7,0l8.23-14.22c.22-.21-5-3.36-11.58-3.36S112.39,31,112.6,31.22Z"/><path d="M98.5,59.29l16-3.71c3.6-.83,4.48-3.7,2-6.41l-11.19-12c-.13-.28-4.67,3.78-6.6,10.09S98.26,59.44,98.5,59.29Z"/><path d="M121.23,81l1.13-16.39c.25-3.69-2.23-5.37-5.55-3.75L102,68c-.3,0,2.25,5.57,7.72,9.26S121.3,81.27,121.23,81Z"/><path d="M148.62,65.59l-15.35-5.87c-3.45-1.32-5.78.57-5.21,4.21l2.55,16.22c0,.3,6-.52,11.11-4.67S148.91,65.62,148.62,65.59Z"/><path d="M141.91,35.5l-10.1,13c-2.27,2.91-1.15,5.7,2.51,6.22L150.57,57c.28.13,1.25-5.87-1.22-12S142,35.23,141.91,35.5Z"/></g></g></svg>