<svg xmlns="http://www.w3.org/2000/svg" xmlns:xlink="http://www.w3.org/1999/xlink" viewBox="0 0 248.71 108.94"><defs><style>.cls-1{isolation:isolate;}.cls-2{fill:none;opacity:0.8;}.cls-3{fill:url(#linear-gradient);}.cls-4{fill:#c9c9c9;}.cls-5{fill:url(#linear-gradient-2);}.cls-6{fill:url(#linear-gradient-3);}.cls-7{fill:#474747;}.cls-8{fill:url(#linear-gradient-4);}.cls-9{fill:url(#linear-gradient-5);}.cls-10{mix-blend-mode:multiply;fill:url(#radial-gradient);}.cls-11{mix-blend-mode:screen;fill:url(#linear-gradient-6);}</style><linearGradient id="linear-gradient" x1="83.54" y1="54.47" x2="165.17" y2="54.47" gradientUnits="userSpaceOnUse"><stop offset="0" stop-color="#0af"/><stop offset="1" stop-color="#0072d6"/></linearGradient><linearGradient id="linear-gradient-2" x1="137.58" y1="58.19" x2="137.58" y2="66.49" gradientUnits="userSpaceOnUse"><stop offset="0" stop-color="#a8a8a8"/><stop offset="0.13" stop-color="#aaa"/><stop offset="0.18" stop-color="#b1b1b1"/><stop offset="0.21" stop-color="#bdbdbd"/><stop offset="0.24" stop-color="#cecece"/><stop offset="0.26" stop-color="#e4e4e4"/><stop offset="0.27" stop-color="#e9e9e9"/><stop offset="0.54" stop-color="#f2f2f2"/><stop offset="0.7" stop-color="#dfdfdf"/><stop offset="0.75" stop-color="#c6c6c6"/><stop offset="0.85" stop-color="#9e9e9e"/><stop offset="0.93" stop-color="#868686"/><stop offset="0.98" stop-color="#7d7d7d"/></linearGradient><linearGradient id="linear-gradient-3" x1="163.33" y1="79.84" x2="163.33" y2="82.83" gradientTransform="matrix(1, 0, 0, 1, -26.21, -18.98)" gradientUnits="userSpaceOnUse"><stop offset="0" stop-color="#999"/><stop offset="0.26" stop-color="#ebebeb"/><stop offset="0.69" stop-color="#5c5c5c"/></linearGradient><linearGradient id="linear-gradient-4" x1="96.4" y1="37.52" x2="96.4" y2="42.88" gradientUnits="userSpaceOnUse"><stop offset="0" stop-color="#5f5a5e"/><stop offset="0.28"/><stop offset="0.75"/><stop offset="0.81"/></linearGradient><linearGradient id="linear-gradient-5" x1="521.47" y1="2604.34" x2="532.71" y2="2604.34" gradientTransform="matrix(1.14, -0.15, -0.11, -0.82, -211.92, 2244.09)" gradientUnits="userSpaceOnUse"><stop offset="0.21" stop-color="#004b78"/><stop offset="0.4" stop-color="#007fcc"/><stop offset="0.59" stop-color="#0080ce"/><stop offset="0.68" stop-color="#0085d6"/><stop offset="0.74" stop-color="#008de3"/><stop offset="0.8" stop-color="#0098f5"/><stop offset="0.83" stop-color="#009eff"/><stop offset="0.99" stop-color="#0081d1"/></linearGradient><radialGradient id="radial-gradient" cx="541.53" cy="169.87" r="6.69" gradientTransform="matrix(1.14, -0.15, -0.15, -1.11, -488.97, 307.89)" gradientUnits="userSpaceOnUse"><stop offset="0" stop-color="#fff"/><stop offset="0.23" stop-color="#fbfbfb"/><stop offset="0.45" stop-color="#efefef"/><stop offset="0.67" stop-color="#dcdcdc"/><stop offset="0.89" stop-color="silver"/><stop offset="1" stop-color="#b0b0b0"/></radialGradient><linearGradient id="linear-gradient-6" x1="99.1" y1="29.14" x2="100.99" y2="34.72" gradientUnits="userSpaceOnUse"><stop offset="0" stop-color="#707070"/><stop offset="0.34" stop-color="#949494"/><stop offset="0.35" stop-color="#919191"/><stop offset="0.51" stop-color="#5d5d5d"/><stop offset="0.66" stop-color="#353535"/><stop offset="0.8" stop-color="#181818"/><stop offset="0.91" stop-color="#060606"/><stop offset="1"/></linearGradient></defs><title>Insumo_auto_5</title><g class="cls-1"><g id="Capa_2" data-name="Capa 2"><g id="Layer_1" data-name="Layer 1"><rect class="cls-2" width="248.71" height="108.94"/><path class="cls-3" d="M87.46,41.73c3.1-7.59,33.8-31,37.59-32.77s36.56-3.1,38.63-2.76,1.38.34,1.38.34-7.59,55.19-9.14,63.81-4,31.73-4,31.73-63.94,1.46-64.22.12-1.66-11.68-3.55-20.3,1-26.39,1.21-30.7A37.52,37.52,0,0,1,87.46,41.73Z"/><path class="cls-4" d="M137.58,66c-3.58,0-6.38-1.7-6.38-3.87s2.8-3.87,6.38-3.87S144,60,144,62.16,141.17,66,137.58,66Zm0-6.61c-2.84,0-5.25,1.25-5.25,2.73s2.4,2.73,5.25,2.73,5.25-1.25,5.25-2.73S140.43,59.42,137.58,59.42Z"/><ellipse class="cls-5" cx="137.58" cy="62.16" rx="5.82" ry="3.3"/><path class="cls-6" d="M145.73,62.13a1.16,1.16,0,0,1-1.16,1.18l-14.5,0a1.16,1.16,0,0,1-1.17-1.16h0A1.16,1.16,0,0,1,130.06,61l14.54-.69c.64,0,1.71.41,1.13,1.81Z"/><polygon class="cls-7" points="128.73 10.39 110.73 26.92 159.32 23.17 161.14 10.39 128.73 10.39"/><polygon points="93.73 42.53 156.56 42.53 159.32 23.17 110.73 26.92 93.73 42.53"/><polygon class="cls-8" points="96.39 37.52 93.22 40.95 95.23 42.88 99.58 41.46 96.39 37.52"/><path class="cls-9" d="M108.23,39.64l-1.37-10.09c-.25-1.81-2.46-2.78-4.81-1.92-5.07,1.86-7,12.45-6.76,12.93,1.34,2.6,4.77,2.42,8.78,2.41C106.62,43,108.48,41.45,108.23,39.64Z"/><path class="cls-10" d="M108.23,39.64l-1.37-10.09c-.25-1.81-2.46-2.78-4.81-1.92-5.07,1.86-7,12.45-6.76,12.93,1.34,2.6,4.77,2.42,8.78,2.41C106.62,43,108.48,41.45,108.23,39.64Z"/><path class="cls-11" d="M108.23,39.64l-1.37-10.09c-.25-1.81-2.46-2.78-4.81-1.92-5.07,1.86-7,12.45-6.76,12.93,1.34,2.6,4.77,2.42,8.78,2.41C106.62,43,108.48,41.45,108.23,39.64Z"/></g></g></g></svg>