<?xml version="1.0" encoding="utf-8"?>
<!-- Generator: Adobe Illustrator 21.0.0, SVG Export Plug-In . SVG Version: 6.00 Build 0)  -->
<svg version="1.1" id="Capa_1" xmlns="http://www.w3.org/2000/svg" xmlns:xlink="http://www.w3.org/1999/xlink" x="0px" y="0px"
	 viewBox="0 0 248.7 108.9" style="enable-background:new 0 0 248.7 108.9;" xml:space="preserve">
<style type="text/css">
	.st0{fill:none;}
	.st1{fill:#00A7A1;}
	.st2{fill:#216F74;}
	.st3{fill:#DABD94;}
	.st4{fill:#8EB140;}
	.st5{fill:#C6A67E;}
</style>
<title>Insumo_casa_7</title>
<g id="Capa_2">
	<g id="Layer_1">
		<rect class="st0" width="248.7" height="108.9"/>
		<rect x="27.1" y="25.7" class="st1" width="194.4" height="32.9"/>
		<path class="st2" d="M221.6,25.7L221.6,25.7c-0.2,0-0.4,0.1-0.6,0.2l-5.2,5.2l-4.9-4.9c0-0.1-0.1-0.2-0.1-0.3
			c-0.4-0.3-1-0.3-1.4,0c-0.1,0.1-0.1,0.2-0.1,0.3l-4.9,4.9l-4.7-4.7c0-0.2-0.1-0.4-0.2-0.6c-0.5-0.2-1-0.2-1.5,0
			c-0.1,0.1-0.2,0.4-0.2,0.6l-4.7,4.7l-4.7-4.8c0-0.2-0.1-0.4-0.2-0.5c-0.2-0.2-0.5-0.3-0.7-0.2c-0.3-0.1-0.5,0-0.7,0.2
			c-0.1,0.1-0.2,0.3-0.2,0.5l-4.7,4.8l-4.9-4.9c0-0.1-0.1-0.2-0.1-0.3c-0.4-0.3-1-0.3-1.4,0c-0.1,0.1-0.1,0.2-0.1,0.3l-4.9,4.9
			l-5.2-5.2c-0.2-0.2-0.4-0.3-0.6-0.2l0,0c-0.2,0-0.4,0.1-0.6,0.2l-5.2,5.2l-4.9-4.9c0-0.1,0-0.2-0.1-0.3c-0.4-0.3-1-0.3-1.4,0
			c-0.1,0.1-0.1,0.2-0.1,0.3l-4.9,4.9l-4.7-4.7c0-0.2-0.1-0.4-0.2-0.6c-0.5-0.2-1-0.2-1.5,0c-0.1,0.2-0.2,0.4-0.2,0.6l-4.7,4.7
			l-4.7-4.8c0-0.2-0.1-0.4-0.2-0.5c-0.5-0.2-1-0.2-1.5,0c-0.1,0.1-0.2,0.3-0.2,0.5l-4.7,4.8l-4.9-4.9c0-0.1,0-0.2-0.1-0.3
			c-0.4-0.3-1-0.3-1.4,0c-0.1,0.1-0.1,0.2-0.1,0.3l-4.9,4.9l-4.7-4.7c0-0.2-0.1-0.4-0.2-0.6c-0.2-0.2-0.5-0.3-0.8-0.2
			c-0.3-0.1-0.5,0-0.8,0.2c-0.1,0.2-0.2,0.4-0.2,0.6l-4.7,4.7L96.5,26l0,0c-0.3-0.3-0.9-0.3-1.2,0l0,0l-5.2,5.2l-4.9-5
			c0-0.1-0.1-0.2-0.1-0.3c-0.4-0.3-1-0.3-1.4,0c-0.1,0.1-0.1,0.2-0.1,0.3l-4.9,4.9L74,26.5c0-0.2-0.1-0.4-0.2-0.6
			c-0.5-0.2-1-0.2-1.5,0c-0.1,0.2-0.2,0.4-0.2,0.6l-4.7,4.7l-4.8-4.8c0-0.2-0.1-0.4-0.2-0.5c-0.2-0.2-0.5-0.3-0.7-0.2
			c-0.3-0.1-0.5,0-0.7,0.2c-0.1,0.1-0.2,0.3-0.2,0.5L56,31.1l-4.9-4.9c0-0.1,0-0.2-0.1-0.3c-0.4-0.3-1-0.3-1.4,0
			c-0.1,0.1-0.1,0.2-0.2,0.3l-4.9,4.9l-4.7-4.7c0-0.2-0.1-0.4-0.2-0.6c-0.2-0.2-0.5-0.3-0.8-0.2c-0.3-0.1-0.6,0-0.8,0.2
			c-0.1,0.2-0.2,0.4-0.2,0.6l-4.7,4.7L28,25.9c-0.2-0.2-0.4-0.2-0.6-0.2l0,0c-0.1,0-0.2,0.1-0.3,0.1v1.7l5.5,5.5
			c0.3,0.3,0.9,0.3,1.2,0l5.1-5.1L44,33c0.2,0.2,0.4,0.3,0.6,0.2c0.2,0,0.4-0.1,0.6-0.2l5.1-5.1l5.1,5.1c0.2,0.2,0.4,0.2,0.6,0.2
			c0.2,0,0.4-0.1,0.6-0.2l5.1-5.1l5.1,5.1c0.3,0.3,0.9,0.3,1.2,0l5-5.1l5.1,5.1c0.3,0.3,0.9,0.3,1.2,0c0,0,0,0,0,0l5.1-5.1l5.1,5.1
			c0.3,0.3,0.9,0.3,1.2,0c0,0,0,0,0,0l5.2-5.2l5.2,5.2c0.3,0.3,0.9,0.3,1.2,0c0,0,0,0,0,0l5.1-5.1l5.1,5.1c0.2,0.2,0.4,0.3,0.6,0.2
			c0.2,0,0.4-0.1,0.6-0.2l5.1-5.1l5.1,5.1c0.3,0.3,0.9,0.3,1.2,0c0,0,0,0,0,0l5.1-5.1l5.1,5.1c0.2,0.2,0.4,0.2,0.6,0.2
			c0.2,0,0.4-0.1,0.6-0.2l5.1-5.1l5,5.1c0.2,0.2,0.4,0.3,0.6,0.2c0.2,0,0.4-0.1,0.6-0.2l5.1-5.1l5.1,5.1c0.2,0.2,0.4,0.2,0.6,0.2
			c0.2,0,0.4-0.1,0.6-0.2l5.2-5.2l5.2,5.2c0.2,0.2,0.4,0.3,0.6,0.2c0.2,0,0.4-0.1,0.6-0.2l5.1-5.1L181,33c0.2,0.2,0.4,0.2,0.6,0.2
			c0.2,0,0.4-0.1,0.6-0.2l5.1-5.1l5.1,5.1c0.2,0.2,0.4,0.2,0.6,0.2c0.2,0,0.4-0.1,0.6-0.2l5.1-5.1l5.1,5.1c0.3,0.3,0.9,0.3,1.2,0
			c0,0,0,0,0,0l5.1-5.2l5.1,5.2c0.2,0.2,0.4,0.2,0.6,0.2c0.2,0,0.4-0.1,0.6-0.2l5.2-5.3V25.7z"/>
		<path class="st2" d="M221.6,36.8c-0.2,0-0.5,0.1-0.6,0.2l-5.2,5.2l-4.9-4.9c0-0.1-0.1-0.2-0.1-0.3c-0.4-0.3-1-0.3-1.4,0
			c-0.1,0.1-0.1,0.2-0.1,0.3l-4.9,4.9l-4.7-4.7c0-0.2-0.1-0.4-0.2-0.6c-0.5-0.2-1-0.2-1.5,0c-0.1,0.1-0.2,0.4-0.2,0.6l-4.6,4.7
			l-4.7-4.8c0-0.2-0.1-0.4-0.3-0.5c-0.2-0.2-0.5-0.3-0.7-0.2c-0.3-0.1-0.5,0-0.7,0.2c-0.1,0.1-0.2,0.3-0.2,0.5l-4.7,4.8l-4.9-4.9
			c0-0.1-0.1-0.2-0.1-0.3c-0.4-0.3-1-0.3-1.4,0c-0.1,0.1-0.1,0.2-0.1,0.3l-4.9,4.9l-5.2-5.3c-0.3-0.3-0.8-0.3-1.2,0c0,0,0,0,0,0
			l-5.2,5.2l-4.9-4.9c0-0.1,0-0.2-0.1-0.3c-0.4-0.3-1-0.3-1.4,0c-0.1,0.1-0.1,0.2-0.1,0.3l-4.9,4.9l-4.7-4.7c0-0.2-0.1-0.4-0.2-0.6
			c-0.5-0.2-1-0.2-1.5,0c-0.1,0.2-0.2,0.4-0.2,0.6l-4.7,4.7l-4.7-4.8c0-0.2-0.1-0.4-0.2-0.5c-0.5-0.3-1-0.3-1.5,0
			c-0.1,0.1-0.2,0.3-0.2,0.5l-4.7,4.8l-4.9-4.9c0-0.1,0-0.2-0.1-0.3c-0.3-0.4-0.8-0.5-1.2-0.2c-0.2,0.1-0.3,0.3-0.4,0.6l-4.9,4.9
			l-4.7-4.7c0-0.2-0.1-0.4-0.2-0.6c-0.2-0.2-0.5-0.3-0.8-0.2c-0.3-0.1-0.5,0-0.8,0.2c-0.1,0.2-0.2,0.4-0.2,0.6l-4.7,4.7l-5.2-5.2
			l0,0c-0.3-0.3-0.9-0.3-1.2,0l0,0l-5.2,5.2l-4.9-4.9c0-0.1-0.1-0.2-0.1-0.3c-0.2-0.2-0.4-0.3-0.7-0.2c-0.3,0-0.5,0-0.7,0.2
			c-0.1,0.1-0.1,0.2-0.1,0.3l-4.9,4.9L74,37.6c0-0.2-0.1-0.4-0.2-0.6c-0.5-0.2-1-0.2-1.5,0c-0.1,0.2-0.2,0.4-0.2,0.6l-4.7,4.7
			l-4.7-4.8c0-0.2-0.1-0.4-0.2-0.5c-0.2-0.2-0.5-0.3-0.7-0.2c-0.3-0.1-0.5,0-0.7,0.2c-0.1,0.1-0.2,0.3-0.2,0.5L56,42.3l-4.9-4.9
			c0-0.1,0-0.2-0.1-0.4c-0.4-0.3-1-0.3-1.4,0c-0.1,0.1-0.1,0.2-0.2,0.3l-4.9,4.9l-4.7-4.7c0-0.2-0.1-0.4-0.2-0.6
			c-0.2-0.2-0.5-0.3-0.8-0.2c-0.3-0.1-0.6,0-0.8,0.2c-0.1,0.2-0.2,0.4-0.2,0.6l-4.7,4.7L28,37c-0.2-0.2-0.6-0.3-0.9-0.1v1.7l5.5,5.5
			c0.3,0.3,0.9,0.3,1.2,0l5.1-5l5.1,5.1c0.2,0.2,0.4,0.3,0.6,0.2c0.2,0,0.4-0.1,0.6-0.2l5.1-5.2l5.1,5.2c0.2,0.2,0.4,0.2,0.6,0.2
			c0.2,0,0.4-0.1,0.6-0.2l5-5.1l5.1,5.1c0.3,0.3,0.9,0.3,1.2,0L73,39l5.1,5.1c0.3,0.3,0.9,0.3,1.2,0c0,0,0,0,0,0l5.1-5.2l5.1,5.2
			c0.3,0.3,0.9,0.3,1.2,0c0,0,0,0,0,0l5.2-5.2l5.2,5.2c0.3,0.3,0.9,0.3,1.2,0c0,0,0,0,0,0l5-5.1l5.1,5.1c0.2,0.2,0.4,0.3,0.6,0.2
			c0.2,0,0.4-0.1,0.6-0.2l5.1-5.2l5.1,5.2c0.3,0.3,0.9,0.3,1.2,0c0,0,0,0,0,0l5.1-5.1l5.1,5.1c0.2,0.2,0.4,0.2,0.6,0.2
			c0.2,0,0.4-0.1,0.6-0.2l5.1-5.1l5,5.1c0.2,0.2,0.4,0.2,0.6,0.2c0.2,0,0.4-0.1,0.6-0.2l5.1-5.2l5.1,5.2c0.2,0.2,0.4,0.2,0.6,0.2
			c0.2,0,0.4-0.1,0.6-0.2l5.2-5.2l5.2,5.2c0.2,0.2,0.4,0.2,0.6,0.2c0.2,0,0.4-0.1,0.6-0.2l5.1-5.2l5.2,5.1c0.2,0.2,0.4,0.2,0.6,0.2
			c0.2,0,0.4-0.1,0.6-0.2l5.1-5.1l5.1,5.1c0.2,0.2,0.4,0.2,0.6,0.2c0.2,0,0.4-0.1,0.6-0.2l5.1-5.1l5.1,5.1c0.3,0.3,0.9,0.3,1.2,0
			c0,0,0,0,0,0l5.1-5.2l5.1,5.2c0.2,0.2,0.4,0.2,0.6,0.2c0.2,0,0.4-0.1,0.6-0.2l5.2-5.3V36.8z"/>
		<path class="st2" d="M221.6,47.9c-0.2,0-0.5,0.1-0.6,0.2l-5.2,5.2l-4.9-4.9c0-0.1-0.1-0.2-0.1-0.3c-0.4-0.3-1-0.3-1.4,0
			c-0.1,0.1-0.1,0.2-0.1,0.3l-4.9,4.9l-4.7-4.7c0-0.2-0.1-0.4-0.2-0.6c-0.5-0.2-1-0.2-1.5,0c-0.1,0.1-0.2,0.4-0.2,0.6l-4.6,4.7
			l-4.7-4.8c0-0.2-0.1-0.4-0.2-0.5c-0.2-0.2-0.5-0.3-0.7-0.2c-0.3-0.1-0.5,0-0.7,0.2c-0.1,0.1-0.2,0.3-0.2,0.5l-4.7,4.8l-4.9-4.9
			c0-0.1-0.1-0.2-0.1-0.3c-0.4-0.3-1-0.3-1.4,0c-0.1,0.1-0.1,0.2-0.1,0.3l-4.9,4.9l-5.2-5.2c-0.3-0.3-0.8-0.3-1.2,0c0,0,0,0,0,0
			l-5.2,5.2l-4.9-4.9c0-0.1,0-0.2-0.1-0.3c-0.4-0.3-1-0.3-1.4,0c-0.1,0.1-0.1,0.2-0.1,0.3l-4.9,4.9l-4.7-4.7c0-0.2-0.1-0.4-0.2-0.6
			c-0.5-0.2-1-0.2-1.5,0c-0.1,0.2-0.2,0.4-0.2,0.6l-4.7,4.7l-4.7-4.8c0-0.2-0.1-0.4-0.2-0.5c-0.5-0.3-1-0.3-1.5,0
			c-0.1,0.1-0.2,0.3-0.2,0.5l-4.7,4.8l-4.9-4.9c0-0.1,0-0.2-0.1-0.3c-0.3-0.4-0.8-0.5-1.2-0.2c-0.2,0.1-0.3,0.3-0.4,0.6l-4.9,4.9
			l-4.7-4.7c0-0.2-0.1-0.4-0.2-0.6c-0.2-0.2-0.5-0.3-0.8-0.2c-0.3-0.1-0.5,0-0.8,0.2c-0.1,0.2-0.2,0.4-0.2,0.6l-4.7,4.7l-5.2-5.2
			l0,0c-0.3-0.3-0.9-0.3-1.2,0l0,0l-5.2,5.2l-4.9-4.9c0-0.1-0.1-0.2-0.1-0.3c-0.2-0.2-0.4-0.3-0.7-0.2c-0.3,0-0.5,0-0.7,0.2
			c-0.1,0.1-0.1,0.2-0.1,0.3l-4.9,4.9L74,48.7c0-0.2-0.1-0.4-0.2-0.6c-0.5-0.2-1-0.2-1.5,0c-0.1,0.2-0.2,0.4-0.2,0.6l-4.7,4.7
			l-4.7-4.8c0-0.2-0.1-0.4-0.2-0.5c-0.2-0.2-0.5-0.3-0.7-0.2c-0.3-0.1-0.5,0-0.7,0.2c-0.1,0.1-0.2,0.3-0.2,0.5L56,53.4l-4.9-4.9
			c0-0.1-0.1-0.2-0.1-0.3c-0.4-0.3-1-0.3-1.4,0c-0.1,0.1-0.1,0.2-0.2,0.3l-4.9,4.9l-4.7-4.7c0-0.2-0.1-0.4-0.2-0.6
			c-0.2-0.2-0.5-0.2-0.7-0.1c-0.3-0.1-0.6,0-0.8,0.2c-0.1,0.2-0.2,0.4-0.2,0.6l-4.7,4.7L28,48.1c-0.2-0.2-0.6-0.3-0.9-0.1v1.7
			l5.5,5.5c0.3,0.3,0.9,0.3,1.2,0l5.1-5.1l5.1,5.1c0.2,0.2,0.4,0.3,0.6,0.2c0.2,0,0.4-0.1,0.6-0.2l5.1-5.2l5.1,5.2
			c0.2,0.2,0.4,0.2,0.6,0.2c0.2,0,0.4-0.1,0.6-0.2l5.1-5.1l5.1,5.1c0.3,0.3,0.9,0.3,1.2,0l5.1-5.1l5.1,5.1c0.3,0.3,0.9,0.3,1.2,0
			c0,0,0,0,0,0l5.1-5.2l5.1,5.2c0.3,0.3,0.9,0.3,1.2,0c0,0,0,0,0,0l5.2-5.2l5.2,5.2c0.3,0.3,0.9,0.3,1.2,0c0,0,0,0,0,0l5.1-5.1
			l5.1,5.1c0.2,0.2,0.4,0.3,0.6,0.2c0.2,0,0.4-0.1,0.6-0.2l5.1-5.2l5.1,5.2c0.3,0.3,0.9,0.3,1.2,0c0,0,0,0,0,0l5.1-5.1l5.1,5.1
			c0.2,0.2,0.4,0.2,0.6,0.2c0.2,0,0.4-0.1,0.6-0.2l5.1-5.1l5,5.1c0.2,0.2,0.4,0.3,0.6,0.2c0.2,0,0.4-0.1,0.6-0.2l5.2-5.2l5.1,5.2
			c0.2,0.2,0.4,0.2,0.6,0.2c0.2,0,0.4-0.1,0.6-0.2l5.2-5.2l5.2,5.2c0.2,0.2,0.4,0.3,0.6,0.2c0.2,0,0.4-0.1,0.6-0.2l5.1-5.2l5.1,5.2
			c0.2,0.2,0.4,0.2,0.6,0.2c0.2,0,0.4-0.1,0.6-0.2l5.1-5.1l5.1,5.1c0.2,0.2,0.4,0.2,0.6,0.2c0.2,0,0.4-0.1,0.6-0.2l5.1-5.1l5.1,5.1
			c0.3,0.3,0.9,0.3,1.2,0c0,0,0,0,0,0L210,50l5.1,5.2c0.2,0.2,0.4,0.2,0.6,0.2c0.2,0,0.4-0.1,0.6-0.2l5.2-5.3V47.9z"/>
		<polygon class="st3" points="61.5,32.5 49.8,44.1 49.8,18.2 61.5,18.2 		"/>
		<rect x="47.4" y="8.2" class="st4" width="16.5" height="10"/>
		<rect x="49.8" y="18.2" class="st5" width="11.7" height="3.2"/>
	</g>
</g>
<g>
	<polygon class="st1" points="105.8,95.3 219.5,95.3 219.5,82.8 219.4,67.5 141.4,67.5 	"/>
	<path class="st2" d="M214.3,77.2l-4.4-4.3c0-0.1-0.1-0.2-0.1-0.3c-0.4-0.2-0.9-0.2-1.2,0c-0.1,0.1-0.1,0.2-0.1,0.3l-4.3,4.4
		l-4.1-4.2c0-0.2-0.1-0.4-0.2-0.5c-0.4-0.2-0.9-0.2-1.3,0c-0.1,0.1-0.2,0.3-0.2,0.5l-4.1,4.2l-4.2-4.2c0-0.2-0.1-0.3-0.2-0.4
		c-0.2-0.2-0.4-0.2-0.6-0.2c-0.2-0.1-0.5,0-0.7,0.2c-0.1,0.1-0.2,0.3-0.2,0.4l-4.2,4.2l-4.4-4.4c0-0.1-0.1-0.2-0.1-0.3
		c-0.4-0.2-0.9-0.2-1.2,0c-0.1,0.1-0.1,0.2-0.1,0.3l-4.4,4.3l-4.6-4.7c-0.3-0.3-0.8-0.3-1,0c0,0,0,0,0,0l-4.6,4.7l-4.3-4.3
		c0-0.1,0-0.2-0.1-0.3c-0.4-0.2-0.9-0.2-1.2,0c-0.1,0.1-0.1,0.2-0.1,0.3l-4.4,4.4l-4.1-4.2c0-0.2-0.1-0.4-0.2-0.5
		c-0.4-0.2-0.9-0.2-1.4,0c-0.1,0.1-0.2,0.3-0.2,0.5l-4.1,4.2l-4.2-4.2c0-0.2-0.1-0.3-0.2-0.4c-0.2-0.2-0.4-0.2-0.7-0.2
		c-0.2-0.1-0.5,0-0.6,0.2c-0.1,0.1-0.2,0.3-0.2,0.4l-4.2,4.2l-1.9-1.9l-1.2,0.9l2.5,2.5c0.3,0.3,0.8,0.3,1.1,0l4.5-4.5l4.5,4.5
		c0.1,0.1,0.3,0.2,0.5,0.2c0.2,0,0.4-0.1,0.5-0.2l4.5-4.5l4.5,4.5c0.1,0.1,0.3,0.2,0.5,0.2c0.2,0,0.4-0.1,0.5-0.2l4.6-4.6l4.5,4.6
		c0.1,0.1,0.3,0.2,0.5,0.2c0.2,0,0.4-0.1,0.5-0.2l4.6-4.7l4.6,4.7c0.1,0.1,0.3,0.2,0.5,0.2c0.2,0,0.4-0.1,0.5-0.2l4.6-4.6l4.6,4.6
		c0.1,0.1,0.3,0.2,0.5,0.2c0.2,0,0.4-0.1,0.5-0.2l4.5-4.5l4.5,4.5c0.1,0.1,0.3,0.2,0.5,0.2c0.2,0,0.4-0.1,0.5-0.2l4.5-4.5l4.5,4.5
		c0.3,0.3,0.8,0.3,1.1,0l4.6-4.6l4.6,4.6c0.1,0.1,0.3,0.2,0.5,0.2c0.2,0,0.4-0.1,0.5-0.2l4.6-4.6v-1.8c-0.2,0-0.3,0.1-0.5,0.2
		L214.3,77.2z"/>
	<path class="st2" d="M121.2,91c0.2,0,0.4-0.1,0.5-0.2l4.6-4.6l4.6,4.6c0.3,0.3,0.8,0.3,1.1,0l4.6-4.5l4.6,4.5
		c0.1,0.1,0.3,0.2,0.5,0.2c0.2,0,0.4-0.1,0.5-0.2l4.6-4.5l4.6,4.5c0.1,0.1,0.3,0.2,0.5,0.2c0.2,0,0.4-0.1,0.6-0.2l4.6-4.6l4.6,4.6
		c0.1,0.1,0.3,0.2,0.5,0.2c0.2,0,0.4-0.1,0.5-0.2l4.7-4.7l4.7,4.7c0.1,0.1,0.3,0.2,0.5,0.2c0.2,0,0.4-0.1,0.5-0.2l4.6-4.6l4.6,4.6
		c0.1,0.1,0.3,0.2,0.5,0.2c0.2,0,0.4-0.1,0.5-0.2l4.6-4.5l4.6,4.5c0.1,0.1,0.3,0.2,0.5,0.2c0.2,0,0.4-0.1,0.6-0.2l4.6-4.5l4.6,4.5
		c0.1,0.1,0.3,0.2,0.5,0.2c0.2,0,0.4-0.1,0.5-0.2l4.6-4.6l4.6,4.6c0.1,0.1,0.3,0.2,0.5,0.2c0.2,0,0.4-0.1,0.5-0.2l4.8-4.7v-1.8
		c-0.2,0-0.4,0.1-0.6,0.2l-4.7,4.7l-4.4-4.4c0-0.1-0.1-0.2-0.1-0.3c-0.4-0.2-0.9-0.2-1.2,0c-0.1,0.1-0.1,0.2-0.1,0.3l-4.4,4.4
		l-4.2-4.2c0-0.5-0.4-0.9-0.9-0.9s-0.9,0.4-0.9,0.9l-4.2,4.2l-4.3-4.2c0-0.4-0.3-0.6-0.7-0.6c-0.1,0-0.1,0-0.2,0
		c-0.3-0.1-0.7,0.1-0.8,0.4c0,0.1,0,0.1,0,0.2l-4.3,4.2l-4.4-4.4c0-0.1-0.1-0.2-0.1-0.3c-0.4-0.2-0.9-0.2-1.2,0
		c-0.1,0.1-0.1,0.2-0.1,0.3l-4.4,4.4l-4.7-4.7c-0.3-0.3-0.8-0.3-1.1,0l-4.7,4.7l-4.4-4.4c0-0.1,0-0.2-0.1-0.3
		c-0.4-0.2-0.9-0.2-1.2,0c-0.1,0.1-0.1,0.2-0.1,0.3l-4.4,4.4l-4.2-4.2c0-0.4-0.3-0.7-0.7-0.7c-0.1,0-0.2,0-0.2,0
		c-0.4-0.1-0.8,0.1-0.9,0.4c0,0.1,0,0.1,0,0.2l-4.2,4.2l-4.3-4.2c0-0.2-0.1-0.3-0.2-0.4c-0.2-0.2-0.4-0.2-0.7-0.2
		c-0.3-0.1-0.7,0.1-0.8,0.4c0,0.1,0,0.1,0,0.2l-4.3,4.2l-4.4-4.4c0-0.1,0-0.2-0.1-0.3c-0.2-0.2-0.4-0.2-0.6-0.2
		c-0.2,0-0.5,0-0.6,0.2c-0.1,0.1-0.1,0.2-0.1,0.3l-4.4,4.4l-3.4-3.3l-1.2,0.9l4,4C120.8,91,121,91,121.2,91z"/>
</g>
</svg>
