<?xml version="1.0" encoding="utf-8"?>
<!-- Generator: Adobe Illustrator 21.0.0, SVG Export Plug-In . SVG Version: 6.00 Build 0)  -->
<svg version="1.1" id="Capa_1" xmlns="http://www.w3.org/2000/svg" xmlns:xlink="http://www.w3.org/1999/xlink" x="0px" y="0px"
	 viewBox="0 0 248.7 108.9" style="enable-background:new 0 0 248.7 108.9;" xml:space="preserve">
<style type="text/css">
	.st0{fill:none;}
	.st1{opacity:0.8;}
	.st2{fill:#05A4E2;}
	.st3{fill:#076684;}
	.st4{fill:#F8FED2;stroke:#05A4E2;stroke-width:0.4025;stroke-miterlimit:22.93;}
	.st5{fill:#FFFFFF;}
	.st6{fill:#FFCC00;stroke:#FF6600;stroke-width:0.1578;stroke-miterlimit:22.93;}
	.st7{fill:#CC6633;}
	.st8{opacity:0.82;fill:#FFFFFF;enable-background:new    ;}
	.st9{opacity:0.5;fill:#FFCC00;stroke:#FF6600;stroke-width:0.1578;stroke-miterlimit:22.93;enable-background:new    ;}
	.st10{opacity:0.5;fill:#003399;enable-background:new    ;}
	.st11{fill:#FF0000;}
	.st12{fill:#F8FED2;stroke:#00B7FF;stroke-width:0.4104;stroke-miterlimit:22.93;}
	.st13{fill:#024056;}
	.st14{fill:#087FA3;}
</style>
<title>Insumo_nave_1</title>
<rect class="st0" width="248.7" height="108.9"/>
<g class="st1">
	
		<rect x="170.1" y="50.8" transform="matrix(0.9999 -1.012274e-02 1.012274e-02 0.9999 -0.5161 2.0435)" class="st2" width="63.1" height="2.3"/>
	
		<rect x="216.3" y="50.6" transform="matrix(0.9999 -1.012274e-02 1.012274e-02 0.9999 -0.5126 2.2774)" class="st2" width="16.9" height="2.3"/>
	<path class="st3" d="M224.1,51.5l0,0.6c0,0.2-0.2,0.4-0.4,0.4l-23.3,0.2c-0.2,0-0.4-0.2-0.4-0.4l0-0.6c0-0.2,0.2-0.4,0.4-0.4
		l23.3-0.2C223.9,51.1,224.1,51.2,224.1,51.5z"/>
	<path class="st4" d="M199.9,52c0.2,16.2-26.1,29.6-58.7,29.9c-32.6,0.3-87.7-12.2-87.9-28.4s54.7-29.9,87.3-30.2
		C173.1,23,199.7,35.8,199.9,52z"/>
	<path class="st5" d="M224.9,51.8c0,2.5,2,4.5,4.5,4.5c2.5-0.2,4.4-2.3,4.2-4.9c-0.2-2.3-2-4.1-4.3-4.2
		C226.8,47.3,224.8,49.3,224.9,51.8z"/>
	<path class="st6" d="M224.8,51.6c0,2.4,2,4.4,4.4,4.3c2.4,0,4.4-2,4.3-4.4s-2-4.4-4.4-4.3c0,0,0,0,0,0
		C226.8,47.2,224.8,49.2,224.8,51.6z"/>
	<path class="st7" d="M232.7,49c-0.8-1.2-2.2-1.8-3.6-1.8c-2.2,0.1-4,1.8-4.3,4c-0.1,0.7,0,1.4,0.3,2.1
		C225,48.6,229.4,45.9,232.7,49z"/>
	<path class="st7" d="M229.7,55.5c-2,0-2.9-0.5-3.6-1.2c0.7,1.1,1.8,1.7,3.6,1.7c1.8,0,3.9-1.9,4-4.1c0-0.6,0-1.2-0.3-1.8
		C233.8,52.4,231.7,55.5,229.7,55.5z"/>
	
		<ellipse transform="matrix(0.9999 -1.012274e-02 1.012274e-02 0.9999 -0.524 2.3509)" class="st8" cx="232" cy="52.9" rx="1.2" ry="1.2"/>
	
		<ellipse transform="matrix(0.9999 -1.012274e-02 1.012274e-02 0.9999 -0.5135 2.3244)" class="st9" cx="229.4" cy="51.9" rx="4.4" ry="4.4"/>
	<path class="st2" d="M112.3,26l0.5,53.7c1.7,0.2,3.4,0.5,5.1,0.7l-0.6-55.2C115.7,25.5,114,25.8,112.3,26z"/>
	<path class="st2" d="M107.3,78.9L106.7,27c-1.7,0.3-3.4,0.7-5.1,1l0.5,49.9C103.9,78.3,105.6,78.6,107.3,78.9z"/>
	<path class="st2" d="M96.6,76.8l-0.5-47.5c-1.7,0.4-3.4,0.8-5.1,1.3l0.4,45C93.1,76,94.8,76.4,96.6,76.8z"/>
	<path class="st2" d="M192.1,37.7l0.3,28.9c2-1.7,3.7-3.7,5-5.9l-0.2-17.1C195.8,41.3,194.1,39.3,192.1,37.7z"/>
	<path class="st2" d="M189.2,35.5c-1.6-1.1-3.4-2.2-5.1-3.1l0.4,39.6c1.7-1,3.4-2,5.1-3.2L189.2,35.5z"/>
	<path class="st2" d="M181.3,31c-1.6-0.7-3.3-1.4-5.1-2.1l0.5,46.7c1.8-0.7,3.5-1.4,5.1-2.2L181.3,31z"/>
	<path class="st10" d="M59.7,61.3c-0.2-16.2,54.7-29.9,87.3-30.2c21.8-0.2,40.9,5.5,51.2,14.1c-6.3-12.8-29.8-22.2-57.6-21.9
		c-32.6,0.3-87.5,14-87.3,30.2c0,3.4,2.5,6.7,6.7,9.7C59.8,62.6,59.7,61.9,59.7,61.3z"/>
</g>
<path class="st11" d="M72.8,51l0.1,5.1c0,0.1-0.1,0.1-0.1,0.1l-0.2,0c-0.1,0-0.1-0.1-0.1-0.1L72.4,51c0-0.1,0.1-0.1,0.1-0.1l0.2,0
	C72.7,50.8,72.8,50.9,72.8,51z"/>
<path class="st12" d="M90.5,30.1c-20.6,5.4-37.3,13.4-37.4,22.4c-0.1,9,16.7,17.3,37.4,22.9V30.1z"/>
<path class="st10" d="M90.5,40v-9.9c-20.6,5.4-37.3,13.4-37.4,22.4c0,3.5,2.5,6.9,6.7,10c-0.2-0.6-0.2-1.2-0.2-1.9
	C59.7,52.5,73,45.3,90.5,40z"/>
<path class="st13" d="M88,30.7L70.8,13.7l-46.7,1.8v2.6l31.2,5.6l9.1,16C70.6,36.3,78.9,33.3,88,30.7z"/>
<path class="st14" d="M86.9,30.3L70.5,14.6L25,16.2v1.4l31,5.3l8.7,15.6C71.7,35,79.2,32.2,86.9,30.3z"/>
<path class="st2" d="M70.8,15.5l-5.4,22.2c6.6-3.3,13.5-5.8,20.7-7.6L70.8,15.5z"/>
<path class="st2" d="M64.7,37.6l5.5-22.4l0,0l-1.3,0l-12.4,7.7l8.2,14.7L64.7,37.6z"/>
<polygon class="st2" points="55.7,22.4 67.3,15.2 28.4,16.5 28.4,17.8 "/>
<path class="st13" d="M87.8,74.5L70.3,91.3L23.7,89v-2.6L55,81.1l9.3-15.9C70.4,68.7,78.6,71.8,87.8,74.5z"/>
<path class="st14" d="M86.6,74.9L70,90.3l-45.5-2.1v-1.4l31-4.9l8.9-15.5C71.5,70.1,78.9,72.9,86.6,74.9z"/>
<path class="st2" d="M70.4,89.5l-5.2-22.2c6.5,3.4,13.4,6,20.6,7.8L70.4,89.5z"/>
<path class="st2" d="M64.5,67.3l5.2,22.5l0,0l-1.3-0.1L56,81.9l8.4-14.6L64.5,67.3z"/>
<polygon class="st2" points="55.3,82.4 66.8,89.8 28,88 28,86.8 "/>
<rect x="47" y="49.9" transform="matrix(5.759587e-03 -1 1 5.759587e-03 2.5263 107.457)" class="st13" width="16.5" height="5.2"/>
<path class="st2" d="M54.5,44.7l1.7,0c0.6,0,1.1,0.5,1.1,1.2l-0.1,13.2c0,0.6-0.5,1.1-1.2,1.1l-1.7,0c-0.6,0-1.1-0.5-1.1-1.2
	l0.1-13.2C53.4,45.2,53.9,44.7,54.5,44.7z"/>
<path class="st13" d="M54.6,45.2l1.4,0c0.5,0,0.9,0.4,0.9,0.9l-0.1,12.7c0,0.5-0.4,0.9-0.9,0.9l-1.4,0c-0.5,0-0.9-0.4-0.9-0.9
	l0.1-12.7C53.7,45.6,54.1,45.2,54.6,45.2z"/>
<rect x="52.8" y="20.2" transform="matrix(5.759587e-03 -1 1 5.759587e-03 2.7669 107.7228)" class="st13" width="5.4" height="64.6"/>
<rect x="76.5" y="44" transform="matrix(5.759587e-03 -1 1 5.759587e-03 26.1481 131.5255)" class="st13" width="5.4" height="17.3"/>
<path class="st2" d="M72.3,50.5l13.8,0.1c0.7,0,1.2,0.5,1.2,1.2l0,1.8c0,0.7-0.5,1.2-1.2,1.2l-13.8-0.1c-0.7,0-1.2-0.5-1.2-1.2
	l0-1.8C71.1,51,71.6,50.5,72.3,50.5z"/>
<path class="st2" d="M25.1,50.2l43.5,0.3c0.7,0,1.2,0.5,1.2,1.2l0,1.8c0,0.7-0.5,1.2-1.2,1.2l-43.5-0.3c-0.7,0-1.2-0.5-1.2-1.2
	l0-1.8C23.9,50.7,24.4,50.2,25.1,50.2z"/>
<path class="st2" d="M70.5,49.8l0.2,0c0.1,0,0.1,0.1,0.1,0.1l0,5.2c0,0.1-0.1,0.1-0.1,0.1l-0.2,0c-0.1,0-0.1-0.1-0.1-0.1l0-5.2
	C70.4,49.9,70.4,49.8,70.5,49.8z"/>
</svg>
