<svg xmlns="http://www.w3.org/2000/svg" viewBox="0 0 248.71 108.94"><defs><style>.cls-1{fill:none;opacity:0.8;}.cls-2{fill:#4d342d;}.cls-3{fill:#fec006;}.cls-4{fill:#202020;opacity:0.15;}.cls-5{fill:#99695a;}.cls-6{fill:#fff;}</style></defs><title>Insumo_nave_6</title><g id="Capa_2" data-name="Capa 2"><g id="Layer_1" data-name="Layer 1"><rect class="cls-1" width="248.71" height="108.94"/><polygon class="cls-2" points="134.26 87.75 134.26 65.55 124.84 65.55 124.84 87.75 110.92 91.57 110.92 95.09 147.83 95.09 147.83 91.57 134.26 87.75"/><rect class="cls-3" x="123.58" y="74.22" width="11.56" height="6.07" rx="2.04" ry="2.04"/><polygon class="cls-4" points="134.26 65.55 129.91 65.55 129.91 95.09 147.83 95.09 147.83 91.57 134.26 87.75 134.26 65.55"/><path class="cls-2" d="M140.19,55.78c-11-.88-30.28,2.49-30.28,2.49s3.07-27.61-5.69-42.43c-5.48-9.26-9.6-7.27-11.92-4.48A9.71,9.71,0,0,0,90.14,18a27.23,27.23,0,0,0,1,6.09c1.34,4.73,13.38,38.44,13.38,38.44h50.36S151.21,56.66,140.19,55.78Z"/><path class="cls-5" d="M140.19,55.78c-9-.72-19.21-.16-25.75.07a2.51,2.51,0,0,1-2.6-2.43c-.23-7.6-.32-25.24-7.62-37.58C99.56,8,95.88,8.22,93.46,10.19c0,0,11.92-8.89,15.05,47.55a.93.93,0,0,0,1,.88c6.68-.66,37.7-5.71,45.3,3.92C154.83,62.54,151.21,56.66,140.19,55.78Z"/><path class="cls-3" d="M156.8,62.54H104.47l1,3.57H156.8a1.78,1.78,0,0,0,0-3.57Z"/><circle class="cls-3" cx="116.98" cy="96.09" r="3.81"/><circle class="cls-6" cx="116.98" cy="96.09" r="2.13"/><circle class="cls-3" cx="141.4" cy="96.09" r="3.81"/><circle class="cls-6" cx="141.4" cy="96.09" r="2.13"/></g></g></svg>