<?xml version="1.0" encoding="utf-8"?>
<!-- Generator: Adobe Illustrator 21.0.0, SVG Export Plug-In . SVG Version: 6.00 Build 0)  -->
<svg version="1.1" id="Capa_1" xmlns="http://www.w3.org/2000/svg" xmlns:xlink="http://www.w3.org/1999/xlink" x="0px" y="0px"
	 viewBox="0 0 248.7 108.9" style="enable-background:new 0 0 248.7 108.9;" xml:space="preserve">
<style type="text/css">
	.st0{fill:none;}
	.st1{fill:#0F0F0B;}
	.st2{fill:url(#SVGID_1_);}
	.st3{fill:url(#SVGID_2_);}
	.st4{fill:url(#SVGID_3_);}
	.st5{fill:url(#SVGID_4_);}
</style>
<title>Insumo_auto_7</title>
<rect class="st0" width="248.7" height="108.9"/>
<ellipse class="st1" cx="51.8" cy="54.5" rx="38.1" ry="38.1"/>
<radialGradient id="SVGID_1_" cx="51.8207" cy="55.5383" r="24.7937" gradientTransform="matrix(1 0 0 -1 0 110)" gradientUnits="userSpaceOnUse">
	<stop  offset="0" style="stop-color:#FFFFFF"/>
	<stop  offset="6.000000e-02" style="stop-color:#F8F8F8"/>
	<stop  offset="0.17" style="stop-color:#F0F0F0"/>
	<stop  offset="0.63" style="stop-color:#F0F0F0"/>
	<stop  offset="0.7" style="stop-color:#F0F0F0"/>
	<stop  offset="0.85" style="stop-color:#EEEEEE"/>
	<stop  offset="0.9" style="stop-color:#E7E7E7"/>
	<stop  offset="0.93" style="stop-color:#DCDCDC"/>
	<stop  offset="0.96" style="stop-color:#CBCBCB"/>
	<stop  offset="0.99" style="stop-color:#B5B5B5"/>
	<stop  offset="1" style="stop-color:#A8A8A8"/>
</radialGradient>
<path class="st2" d="M51.8,79.3C38.1,79.3,27,68.2,27,54.5c0-13.7,11.1-24.8,24.8-24.8s24.8,11.1,24.8,24.8c0,0,0,0,0,0
	C76.6,68.1,65.5,79.2,51.8,79.3z"/>
<path d="M42.1,35.2L48.9,47c1.5,2.7,4,2.7,5.6,0l6.8-11.8c0.2-0.2-4.2-2.8-9.6-2.8S41.9,35,42.1,35.2z"/>
<path d="M30.3,58.5l13.3-3.1c3-0.7,3.7-3.1,1.7-5.3l-9.3-10c-0.1-0.2-3.9,3.1-5.5,8.4S30.2,58.6,30.3,58.5z"/>
<path d="M43.3,76.5l0.9-13.6c0.2-3.1-1.9-4.5-4.6-3.1l-12.3,5.9c-0.2,0,1.9,4.6,6.4,7.7C38.3,76.5,43.4,76.7,43.3,76.5z"/>
<path d="M66.1,63.7l-12.7-4.9c-2.9-1.1-4.8,0.5-4.3,3.5l2.1,13.5c0,0.2,5-0.4,9.2-3.9S66.3,63.7,66.1,63.7z"/>
<path d="M66.4,38.7L58,49.5c-1.9,2.4-1,4.7,2.1,5.2l13.5,1.9c0.2,0.1,1-4.9-1-10S66.5,38.5,66.4,38.7z"/>
<ellipse class="st1" cx="99.1" cy="54.5" rx="38.1" ry="38.1"/>
<radialGradient id="SVGID_2_" cx="99.0502" cy="55.5383" r="24.7937" gradientTransform="matrix(1 0 0 -1 0 110)" gradientUnits="userSpaceOnUse">
	<stop  offset="0" style="stop-color:#FFFFFF"/>
	<stop  offset="6.000000e-02" style="stop-color:#F8F8F8"/>
	<stop  offset="0.17" style="stop-color:#F0F0F0"/>
	<stop  offset="0.63" style="stop-color:#F0F0F0"/>
	<stop  offset="0.7" style="stop-color:#F0F0F0"/>
	<stop  offset="0.85" style="stop-color:#EEEEEE"/>
	<stop  offset="0.9" style="stop-color:#E7E7E7"/>
	<stop  offset="0.93" style="stop-color:#DCDCDC"/>
	<stop  offset="0.96" style="stop-color:#CBCBCB"/>
	<stop  offset="0.99" style="stop-color:#B5B5B5"/>
	<stop  offset="1" style="stop-color:#A8A8A8"/>
</radialGradient>
<path class="st3" d="M99.1,79.3c-13.7,0-24.8-11.1-24.8-24.8c0-13.7,11.1-24.8,24.8-24.8s24.8,11.1,24.8,24.8c0,0,0,0,0,0
	C123.8,68.1,112.7,79.2,99.1,79.3z"/>
<path d="M89.3,35.2L96.1,47c1.5,2.7,4,2.7,5.6,0l6.8-11.8c0.2-0.2-4.2-2.8-9.6-2.8S89.1,35,89.3,35.2z"/>
<path d="M77.6,58.5l13.3-3.1c3-0.7,3.7-3.1,1.7-5.3l-9.3-10c-0.1-0.2-3.9,3.1-5.5,8.4C76.2,53.7,77.4,58.6,77.6,58.5z"/>
<path d="M90.6,76.5l0.9-13.6c0.2-3.1-1.9-4.5-4.6-3.1l-12.3,5.9c-0.2,0,1.9,4.6,6.4,7.7C85.5,76.5,90.6,76.7,90.6,76.5z"/>
<path d="M113.3,63.7l-12.7-4.9c-2.9-1.1-4.8,0.5-4.3,3.5l2.1,13.5c0,0.2,5-0.4,9.2-3.9C111.8,68.5,113.5,63.7,113.3,63.7z"/>
<path d="M113.6,38.7l-8.4,10.8c-1.9,2.4-1,4.7,2.1,5.2l13.5,1.9c0.2,0.1,1-4.9-1-10S113.7,38.5,113.6,38.7z"/>
<ellipse class="st1" cx="146.3" cy="54.5" rx="38.1" ry="38.1"/>
<radialGradient id="SVGID_3_" cx="146.2797" cy="55.5383" r="24.7937" gradientTransform="matrix(1 0 0 -1 0 110)" gradientUnits="userSpaceOnUse">
	<stop  offset="0" style="stop-color:#FFFFFF"/>
	<stop  offset="6.000000e-02" style="stop-color:#F8F8F8"/>
	<stop  offset="0.17" style="stop-color:#F0F0F0"/>
	<stop  offset="0.63" style="stop-color:#F0F0F0"/>
	<stop  offset="0.7" style="stop-color:#F0F0F0"/>
	<stop  offset="0.85" style="stop-color:#EEEEEE"/>
	<stop  offset="0.9" style="stop-color:#E7E7E7"/>
	<stop  offset="0.93" style="stop-color:#DCDCDC"/>
	<stop  offset="0.96" style="stop-color:#CBCBCB"/>
	<stop  offset="0.99" style="stop-color:#B5B5B5"/>
	<stop  offset="1" style="stop-color:#A8A8A8"/>
</radialGradient>
<path class="st4" d="M146.3,79.3c-13.7,0-24.8-11.1-24.8-24.8s11.1-24.8,24.8-24.8s24.8,11.1,24.8,24.8c0,0,0,0,0,0
	C171.1,68.1,160,79.2,146.3,79.3z"/>
<path d="M136.5,35.2l6.8,11.8c1.5,2.7,4,2.7,5.6,0l6.8-11.8c0.2-0.2-4.2-2.8-9.6-2.8S136.3,35,136.5,35.2z"/>
<path d="M124.8,58.5l13.3-3.1c3-0.7,3.7-3.1,1.7-5.3l-9.3-10c-0.1-0.2-3.9,3.1-5.5,8.4C123.4,53.7,124.6,58.6,124.8,58.5z"/>
<path d="M137.8,76.5l0.9-13.6c0.2-3.1-1.9-4.5-4.6-3.1l-12.3,5.9c-0.2,0,1.9,4.6,6.4,7.7C132.8,76.5,137.8,76.7,137.8,76.5z"/>
<path d="M160.5,63.7l-12.7-4.9c-2.9-1.1-4.8,0.5-4.3,3.5l2.1,13.5c0,0.2,5-0.4,9.2-3.9S160.8,63.7,160.5,63.7z"/>
<path d="M160.9,38.7l-8.4,10.8c-1.9,2.4-1,4.7,2.1,5.2l13.5,1.9c0.2,0.1,1-4.9-1-10S160.9,38.5,160.9,38.7z"/>
<ellipse class="st1" cx="193.5" cy="54.5" rx="38.1" ry="38.1"/>
<radialGradient id="SVGID_4_" cx="193.5092" cy="55.5383" r="24.7937" gradientTransform="matrix(1 0 0 -1 0 110)" gradientUnits="userSpaceOnUse">
	<stop  offset="0" style="stop-color:#FFFFFF"/>
	<stop  offset="6.000000e-02" style="stop-color:#F8F8F8"/>
	<stop  offset="0.17" style="stop-color:#F0F0F0"/>
	<stop  offset="0.63" style="stop-color:#F0F0F0"/>
	<stop  offset="0.7" style="stop-color:#F0F0F0"/>
	<stop  offset="0.85" style="stop-color:#EEEEEE"/>
	<stop  offset="0.9" style="stop-color:#E7E7E7"/>
	<stop  offset="0.93" style="stop-color:#DCDCDC"/>
	<stop  offset="0.96" style="stop-color:#CBCBCB"/>
	<stop  offset="0.99" style="stop-color:#B5B5B5"/>
	<stop  offset="1" style="stop-color:#A8A8A8"/>
</radialGradient>
<path class="st5" d="M193.5,79.3c-13.7,0-24.8-11.1-24.8-24.8s11.1-24.8,24.8-24.8s24.8,11.1,24.8,24.8c0,0,0,0,0,0
	C218.3,68.1,207.2,79.2,193.5,79.3z"/>
<path d="M183.7,35.2l6.8,11.8c1.5,2.7,4,2.7,5.6,0l6.8-11.8c0.2-0.2-4.2-2.8-9.6-2.8C187.9,32.4,183.6,35,183.7,35.2z"/>
<path d="M172,58.5l13.3-3.1c3-0.7,3.7-3.1,1.7-5.3l-9.3-10c-0.1-0.2-3.9,3.1-5.5,8.4C170.6,53.7,171.8,58.6,172,58.5z"/>
<path d="M185,76.5l0.9-13.6c0.2-3.1-1.9-4.5-4.6-3.1L169,65.7c-0.2,0,1.9,4.6,6.4,7.7C180,76.5,185.1,76.7,185,76.5z"/>
<path d="M207.8,63.7L195,58.8c-2.9-1.1-4.8,0.5-4.3,3.5l2.1,13.5c0,0.2,5-0.4,9.2-3.9S208,63.7,207.8,63.7z"/>
<path d="M202.2,38.7l-8.4,10.8c-1.9,2.4-1,4.7,2.1,5.2l13.5,1.9c0.2,0.1,1-4.9-1-10S202.3,38.5,202.2,38.7z"/>
</svg>
