<svg xmlns="http://www.w3.org/2000/svg" viewBox="0 0 248.71 108.94"><defs><style>.cls-1{fill:none;opacity:0.8;}.cls-2{fill:#7f8080;}.cls-3{fill:#646669;}.cls-3,.cls-6,.cls-7{fill-rule:evenodd;}.cls-4,.cls-7{fill:#363339;}.cls-5{fill:#53c4d1;}.cls-6{fill:#8dd3db;}.cls-8{fill:#07bbe8;}</style></defs><title>Insumo_nave_8</title><g id="Capa_2" data-name="Capa 2"><g id="Layer_1" data-name="Layer 1"><rect class="cls-1" width="248.71" height="108.94"/><ellipse class="cls-2" cx="78.58" cy="67.47" rx="0.87" ry="1.59"/><ellipse class="cls-2" cx="78.72" cy="71.74" rx="0.87" ry="1.59"/><ellipse class="cls-2" cx="78.72" cy="76.02" rx="0.87" ry="1.59"/><path class="cls-3" d="M103,72.44h43.51c-.48,4.66,1,10.18,9.15,13.4H93.89C102,82.63,103.53,77.11,103,72.44Z"/><rect class="cls-4" x="78.81" y="21.29" width="92.19" height="59.75" rx="2.68" ry="2.68"/><rect class="cls-5" x="81.52" y="23.58" width="86.2" height="53.87" rx="0.18" ry="0.18"/><path class="cls-6" d="M81.7,23.58h85.84c1.52,0-13,15-40.9,33.41-22,14.53-45.24,20.89-45.12,20.27V23.77A.18.18,0,0,1,81.7,23.58Z"/><path class="cls-7" d="M92.94,82.82h65.35a2.42,2.42,0,0,1,2.41,2.41v1.48a.93.93,0,0,1-.93.93H91.3a.77.77,0,0,1-.77-.77V85.23A2.42,2.42,0,0,1,92.94,82.82Z"/><rect class="cls-8" x="111.73" y="78.61" width="26.05" height="1.36"/></g></g></svg>