<svg xmlns="http://www.w3.org/2000/svg" viewBox="0 0 280 280"><defs><style>.cls-1{fill:#4d342d;}.cls-2{fill:#fec006;}.cls-3{fill:#202020;opacity:0.15;}.cls-4{fill:#99695a;}.cls-5{fill:#fff;}.cls-6{fill:none;}</style></defs><title>nave_sillon</title><g id="Capa_2" data-name="Capa 2"><g id="Layer_1" data-name="Layer 1"><polygon class="cls-1" points="235.64 128.5 235.64 112.46 228.83 112.46 228.83 128.5 218.78 131.25 218.78 133.8 245.44 133.8 245.44 131.25 235.64 128.5"/><rect class="cls-2" x="227.93" y="118.73" width="8.35" height="4.39" rx="1.47" ry="1.47"/><polygon class="cls-3" points="235.64 112.46 232.5 112.46 232.5 133.8 245.44 133.8 245.44 131.25 235.64 128.5 235.64 112.46"/><path class="cls-1" d="M239.92,105.4c-8-.64-21.87,1.8-21.87,1.8s2.22-19.94-4.11-30.65c-4-6.69-6.93-5.25-8.61-3.24a7,7,0,0,0-1.56,4.81,19.67,19.67,0,0,0,.69,4.4c1,3.41,9.66,27.76,9.66,27.76h36.37S247.88,106,239.92,105.4Z"/><path class="cls-4" d="M239.92,105.4a166.09,166.09,0,0,0-18.6,0,1.81,1.81,0,0,1-1.88-1.76c-.17-5.49-.23-18.23-5.51-27.14-3.37-5.69-6-5.5-7.77-4.08,0,0,8.61-6.42,10.87,34.34a.67.67,0,0,0,.73.63c4.82-.47,27.23-4.13,32.72,2.83C250.49,110.29,247.88,106,239.92,105.4Z"/><path class="cls-2" d="M251.92,110.29h-37.8l.74,2.58h37.06a1.29,1.29,0,0,0,0-2.58Z"/><circle class="cls-2" cx="223.16" cy="134.52" r="2.75"/><circle class="cls-5" cx="223.16" cy="134.52" r="1.54"/><circle class="cls-2" cx="240.8" cy="134.52" r="2.75"/><circle class="cls-5" cx="240.8" cy="134.52" r="1.54"/><rect class="cls-6" width="280" height="280"/></g></g></svg>