<svg xmlns="http://www.w3.org/2000/svg" viewBox="0 0 280 280"><defs><style>.cls-1{fill:#363339;}.cls-2{fill:#e2d6af;}.cls-3{fill:#bcad96;}.cls-4{fill:#504e52;}.cls-5{fill:#757475;}.cls-6{fill:#565656;}.cls-7{fill:#fff;opacity:0.7;}.cls-8{fill:#7f7e7f;}.cls-9{fill:none;}</style></defs><title>nave_cama</title><g id="Capa_2" data-name="Capa 2"><g id="Layer_1" data-name="Layer 1"><path class="cls-1" d="M8.84,40H105a0,0,0,0,1,0,0v6.67a3.2,3.2,0,0,1-3.2,3.2H12a3.2,3.2,0,0,1-3.2-3.2V40a0,0,0,0,1,0,0Z"/><rect class="cls-2" x="11.15" y="27.19" width="92.5" height="9.18" rx="1.08" ry="1.08"/><path class="cls-3" d="M102.56,27.53a.74.74,0,0,1,.74.74v7a.74.74,0,0,1-.74.74H12.23a.74.74,0,0,1-.74-.74v-7a.74.74,0,0,1,.74-.74h90.33m0-.69H12.23a1.43,1.43,0,0,0-1.43,1.43v7a1.43,1.43,0,0,0,1.43,1.43h90.33A1.43,1.43,0,0,0,104,35.29v-7a1.43,1.43,0,0,0-1.43-1.43Z"/><path class="cls-4" d="M17.36,55.94A7.65,7.65,0,0,1,25,48.29l.4,0V44.47H13.13V56.95h4.3A7.71,7.71,0,0,1,17.36,55.94Z"/><path class="cls-4" d="M96.63,55.94A7.65,7.65,0,0,0,89,48.29l-.4,0V44.47h12.27V56.95h-4.3A7.71,7.71,0,0,0,96.63,55.94Z"/><path class="cls-5" d="M27.54,15.71H57.19a0,0,0,0,1,0,0V37.33a0,0,0,0,1,0,0H8.89a0,0,0,0,1,0,0v-3A18.65,18.65,0,0,1,27.54,15.71Z"/><rect class="cls-6" x="34.38" y="15.29" width="27.09" height="22.02"/><rect class="cls-2" x="77.12" y="23.7" width="22.4" height="2.8" rx="1.35" ry="1.35"/><path class="cls-3" d="M98.17,23.85A1.2,1.2,0,0,1,99.37,25v.11a1.2,1.2,0,0,1-1.19,1.19H78.47a1.2,1.2,0,0,1-1.19-1.19V25a1.2,1.2,0,0,1,1.19-1.19H98.17m0-.31H78.47A1.5,1.5,0,0,0,77,25v.11a1.5,1.5,0,0,0,1.5,1.5H98.17a1.5,1.5,0,0,0,1.5-1.5V25a1.5,1.5,0,0,0-1.5-1.5Z"/><path class="cls-5" d="M83.45,15.71h21.48a0,0,0,0,1,0,0V37.33a0,0,0,0,1,0,0H102.1A18.65,18.65,0,0,1,83.45,18.67v-3A0,0,0,0,1,83.45,15.71Z" transform="translate(188.37 53.03) rotate(-180)"/><path class="cls-7" d="M27.67,17.71c-.44,0-.89-.06-1.34-.06a15.68,15.68,0,0,0-15.76,15.6c0,.45,0,.89.06,1.32A19.36,19.36,0,0,1,27.67,17.71Z"/><path class="cls-7" d="M102.65,34.65c0-.44.06-.89.06-1.34a15.68,15.68,0,0,0-15.6-15.76c-.45,0-.89,0-1.32.06A19.36,19.36,0,0,1,102.65,34.65Z"/><polygon class="cls-7" points="35.73 17 60.36 17 35.62 17.79 35.73 17"/><circle class="cls-8" cx="13.89" cy="39.39" r="0.3"/><circle class="cls-8" cx="24.67" cy="39.39" r="0.3"/><circle class="cls-8" cx="35.45" cy="39.39" r="0.3"/><circle class="cls-8" cx="46.22" cy="39.39" r="0.3"/><circle class="cls-8" cx="57" cy="39.39" r="0.3"/><circle class="cls-8" cx="67.77" cy="39.39" r="0.3"/><circle class="cls-8" cx="78.55" cy="39.39" r="0.3"/><circle class="cls-8" cx="89.33" cy="39.39" r="0.3"/><circle class="cls-8" cx="100.1" cy="39.39" r="0.3"/><circle class="cls-8" cx="89.33" cy="46.06" r="0.3"/><circle class="cls-8" cx="100.1" cy="46.06" r="0.3"/><circle class="cls-8" cx="13.89" cy="46.02" r="0.3"/><circle class="cls-8" cx="24.67" cy="46.02" r="0.3"/><rect class="cls-9" width="280" height="280"/></g></g></svg>