<svg xmlns="http://www.w3.org/2000/svg" viewBox="0 0 280 280"><defs><style>.cls-1,.cls-11,.cls-9{opacity:0.5;}.cls-10,.cls-2{fill:#05a4e2;}.cls-3{fill:#076684;}.cls-13,.cls-4{fill:#f8fed2;}.cls-4{stroke:#05a4e2;stroke-width:0.51px;}.cls-13,.cls-4,.cls-6,.cls-9{stroke-miterlimit:22.93;}.cls-10,.cls-11,.cls-13,.cls-14,.cls-15,.cls-4,.cls-5,.cls-6,.cls-7{fill-rule:evenodd;}.cls-5,.cls-8{fill:#fff;}.cls-6,.cls-9{fill:#fc0;stroke:#f60;stroke-width:0.2px;}.cls-7{fill:#c63;}.cls-8{opacity:0.82;}.cls-11{fill:#039;}.cls-12{fill:red;}.cls-13{stroke:#00b7ff;stroke-width:0.52px;}.cls-14,.cls-16{fill:#024056;}.cls-15{fill:#087fa3;}.cls-17{fill:none;}</style></defs><title>nave_plataforma</title><g id="Capa_2" data-name="Capa 2"><g id="Layer_1" data-name="Layer 1"><g class="cls-1"><rect class="cls-2" x="137.89" y="13.98" width="2.95" height="79.93" transform="translate(-0.54 1.41) rotate(-0.58)"/><rect class="cls-2" x="137.6" y="13.98" width="2.95" height="21.38" transform="translate(-0.24 1.4) rotate(-0.58)"/><rect class="cls-3" x="138.33" y="25.48" width="1.74" height="30.54" rx="0.5" ry="0.5" transform="translate(-0.4 1.4) rotate(-0.58)"/><path class="cls-4" d="M139.39,56.17c20.5-.21,37.46,33.1,37.88,74.39s-15.5,111.17-36,111.38S103.43,172.61,103,131.31,118.89,56.38,139.39,56.17Z"/><path class="cls-5" d="M139.13,24.47a5.7,5.7,0,0,0,5.72-5.66,5.78,5.78,0,0,0-11.54.12A5.7,5.7,0,0,0,139.13,24.47Z"/><path class="cls-6" d="M138.89,24.5A5.57,5.57,0,1,0,133.26,19,5.58,5.58,0,0,0,138.89,24.5Z"/><path class="cls-7" d="M135.52,14.49a5.2,5.2,0,0,0-2.23,4.59,5.62,5.62,0,0,0,5.06,5.39,5.24,5.24,0,0,0,2.63-.41C135.07,24.33,131.64,18.79,135.52,14.49Z"/><path class="cls-7" d="M143.78,18.38c0,2.57-.64,3.65-1.51,4.62,1.39-.92,2.13-2.26,2.1-4.56s-2.44-4.89-5.14-5.1a5.13,5.13,0,0,0-2.24.32C139.83,13.18,143.76,15.81,143.78,18.38Z"/><circle class="cls-8" cx="140.55" cy="15.48" r="1.57" transform="translate(-0.15 1.42) rotate(-0.58)"/><circle class="cls-9" cx="139.22" cy="18.79" r="5.57" transform="translate(-0.18 1.4) rotate(-0.58)"/><path class="cls-10" d="M106.46,167.08l68.1-.69q.47-3.24.87-6.45l-70,.7Q105.92,163.85,106.46,167.08Z"/><path class="cls-10" d="M173.43,173.5l-65.71.66q.62,3.22,1.3,6.43l63.23-.64Q172.88,176.74,173.43,173.5Z"/><path class="cls-10" d="M170.79,187.06l-60.15.61q.79,3.25,1.64,6.43l57-.57Q170.07,190.33,170.79,187.06Z"/><path class="cls-10" d="M121.19,66.05l36.59-.37a33,33,0,0,0-7.5-6.37l-21.72.22A33,33,0,0,0,121.19,66.05Z"/><path class="cls-10" d="M118.42,69.63a60,60,0,0,0-3.94,6.49l50.21-.51a60,60,0,0,0-4.07-6.4Z"/><path class="cls-10" d="M112.73,79.67q-1.42,3.08-2.65,6.47l59.23-.6q-1.3-3.36-2.78-6.42Z"/><path class="cls-11" d="M151.17,233.78c-20.5.21-37.83-69.34-38.24-110.63-.28-27.6,6.91-51.79,17.83-64.85-16.25,8-28.09,37.72-27.74,73,.42,41.29,17.74,110.83,38.24,110.63,4.32,0,8.43-3.18,12.23-8.48A9.35,9.35,0,0,1,151.17,233.78Z"/></g><rect class="cls-12" x="137.89" y="217.18" width="6.7" height="0.52" rx="0.15" ry="0.15" transform="translate(-2.18 1.43) rotate(-0.58)"/><path class="cls-13" d="M111.57,194.74c6.82,26.1,16.94,47.26,28.36,47.33s21.87-21.16,29-47.33Z"/><path class="cls-11" d="M124.16,194.74H111.57c6.82,26.1,16.94,47.26,28.36,47.33,4.42,0,8.69-3.12,12.67-8.49a9.58,9.58,0,0,1-2.38.29C140,233.81,130.86,216.94,124.16,194.74Z"/><path class="cls-14" d="M112.42,197.89,90.79,219.71l2.3,59.19,3.3,0,7.1-39.59,20.32-11.55C119.48,220,115.62,209.49,112.42,197.89Z"/><path class="cls-15" d="M111.86,199.34,92,220.09l2,57.7h1.76l6.67-39.25,19.82-11A136.45,136.45,0,0,1,111.86,199.34Z"/><path class="cls-10" d="M93.1,219.69l28.08,6.86a127.27,127.27,0,0,1-9.64-26.17Z"/><path class="cls-10" d="M121.13,227.46l-28.37-6.93-.05.06.06,1.64L102.52,238l18.69-10.38Z"/><polygon class="cls-10" points="101.85 238.89 92.75 224.19 94.43 273.39 95.98 273.4 101.85 238.89"/><path class="cls-14" d="M167.84,198.21l21.37,22.07-3,59.16-3.3,0-6.64-39.66L156.1,228C160.52,220.19,164.5,209.78,167.84,198.21Z"/><path class="cls-15" d="M168.37,199.67l19.58,21-2.64,57.67h-1.76L177.33,239l-19.69-11.23A136.45,136.45,0,0,0,168.37,199.67Z"/><path class="cls-10" d="M186.9,220.24l-28.16,6.54a127.26,127.26,0,0,0,9.94-26.06Z"/><path class="cls-10" d="M158.78,227.68l28.45-6.6.05.06-.08,1.64-9.94,15.65L158.7,227.83Z"/><polygon class="cls-10" points="177.93 239.33 187.2 224.74 184.95 273.92 183.4 273.91 177.93 239.33"/><rect class="cls-16" x="136.68" y="228.89" width="6.53" height="20.92" transform="translate(-100.21 377.91) rotate(-89.67)"/><rect class="cls-2" x="137.42" y="229.52" width="5.05" height="19.62" rx="1.46" ry="1.46" transform="translate(-100.2 377.89) rotate(-89.67)"/><rect class="cls-16" x="137.87" y="230.13" width="4.14" height="18.5" rx="1.19" ry="1.19" transform="translate(-100.24 377.93) rotate(-89.67)"/><rect class="cls-16" x="99.02" y="235.6" width="81.89" height="6.87" transform="translate(-99.88 377.61) rotate(-89.67)"/><rect class="cls-16" x="129.18" y="205.61" width="21.91" height="6.87" transform="translate(-69.71 347.97) rotate(-89.67)"/><rect class="cls-2" x="129.85" y="206.43" width="20.55" height="5.32" rx="1.53" ry="1.53" transform="translate(-69.77 347.99) rotate(-89.67)"/><rect class="cls-2" x="110.82" y="247.45" width="58.13" height="5.32" rx="1.53" ry="1.53" transform="translate(-111.03 388.54) rotate(-89.67)"/><rect class="cls-2" x="139.81" y="216.56" width="0.53" height="6.87" rx="0.15" ry="0.15" transform="translate(-80.73 358.79) rotate(-89.67)"/><rect class="cls-17" width="280" height="280"/></g></g></svg>