<svg xmlns="http://www.w3.org/2000/svg" viewBox="0 0 280 280"><defs><style>.cls-1{fill:none;}.cls-2{fill:#b5b5b5;}.cls-3,.cls-5{fill:#00488e;}.cls-3{stroke:#f60;stroke-miterlimit:22.93;stroke-width:0.15px;}.cls-3,.cls-4,.cls-5,.cls-6,.cls-7{fill-rule:evenodd;}.cls-4{fill:#019dcb;}.cls-6{fill:#03bddc;}.cls-7{fill:#c4ffff;opacity:0.5;}.cls-8{fill:#7d7c7f;}</style></defs><title>nave_ventanaç</title><g id="Capa_2" data-name="Capa 2"><g id="Layer_1" data-name="Layer 1"><rect class="cls-1" width="280" height="280"/><circle class="cls-2" cx="140.7" cy="107.57" r="18.41"/><path class="cls-3" d="M140.83,122.82a15.25,15.25,0,1,0-15.3-15.12A15.24,15.24,0,0,0,140.83,122.82Z"/><path class="cls-4" d="M140.21,122.83a14.63,14.63,0,1,0-14.68-14.5A14.62,14.62,0,0,0,140.21,122.83Z"/><path class="cls-5" d="M140.32,121.27a12.18,12.18,0,1,0-12.22-12.07A12.17,12.17,0,0,0,140.32,121.27Z"/><path class="cls-6" d="M141.1,120.56A11.68,11.68,0,1,0,129.38,109,11.68,11.68,0,0,0,141.1,120.56Z"/><path class="cls-7" d="M143,118.21a11.7,11.7,0,0,1-10-17.89,11.66,11.66,0,1,0,17.77,14.76l-.18.17A11.54,11.54,0,0,1,143,118.21Z"/><path class="cls-7" d="M138.57,93.83a14.64,14.64,0,0,1,3.72,28.8A14.63,14.63,0,1,0,136.24,94,14.59,14.59,0,0,1,138.57,93.83Z"/><circle class="cls-8" cx="140.44" cy="90.65" r="0.56"/><circle class="cls-8" cx="140.44" cy="124.04" r="0.56"/><circle class="cls-8" cx="123.75" cy="107.34" r="0.56"/><circle class="cls-8" cx="157.14" cy="107.34" r="0.56"/><circle class="cls-8" cx="152.25" cy="95.54" r="0.56" transform="translate(-22.96 135.64) rotate(-45)"/><circle class="cls-8" cx="128.64" cy="119.15" r="0.56" transform="translate(-46.57 125.86) rotate(-45)"/><circle class="cls-8" cx="128.64" cy="95.54" r="0.56" transform="translate(-29.88 118.94) rotate(-45)"/><circle class="cls-8" cx="152.25" cy="119.15" r="0.56" transform="translate(-39.66 142.55) rotate(-45)"/></g></g></svg>