<svg xmlns="http://www.w3.org/2000/svg" viewBox="0 0 280 280"><defs><style>.cls-1{fill:#bcbcbc;}.cls-2{fill:#f2f3f4;}.cls-3{fill:#898989;}.cls-4{fill:#cecece;}.cls-5{fill:#d1d2d3;}.cls-6{fill:#8d8d8e;stroke:#fff;stroke-miterlimit:10;stroke-width:0.49px;}.cls-7{fill:none;}</style></defs><title>nave_casco</title><g id="Capa_2" data-name="Capa 2"><g id="Layer_1" data-name="Layer 1"><path class="cls-1" d="M58.56,187V168.5c-.59-.05-1.19-.09-1.8-.09A19.82,19.82,0,0,0,41,200.22H72.54a19.75,19.75,0,0,0,3.57-7.71h-12A5.56,5.56,0,0,1,58.56,187Z"/><path class="cls-2" d="M64.19,192.75a5.87,5.87,0,0,1-5.87-5.87v-19l.26,0a20.28,20.28,0,0,1,18.54,20.31,20.49,20.49,0,0,1-.48,4.4l0,.18Z"/><path class="cls-3" d="M58.56,168.09a20.16,20.16,0,0,1,17.85,24.42H64.19a5.65,5.65,0,0,1-5.63-5.63V168.09m-.47-.51v19.3a6.11,6.11,0,0,0,6.1,6.1h12.6l.08-.37a20.63,20.63,0,0,0-18.27-25l-.51,0Z"/><rect class="cls-2" x="39.79" y="200.22" width="34.49" height="2.66" rx="1.07" ry="1.07"/><rect class="cls-2" x="39.82" y="205.47" width="34.49" height="2.66" rx="1.07" ry="1.07"/><rect class="cls-1" x="39.79" y="202.84" width="34.49" height="2.66" rx="1.07" ry="1.07"/><circle class="cls-3" cx="56.26" cy="183.53" r="0.64"/><circle class="cls-3" cx="64.08" cy="194.46" r="0.64"/><circle class="cls-3" cx="67.29" cy="194.46" r="0.64"/><circle class="cls-3" cx="70.5" cy="194.46" r="0.64"/><circle class="cls-3" cx="73.72" cy="194.46" r="0.64"/><circle class="cls-3" cx="56.26" cy="180.8" r="0.64"/><circle class="cls-3" cx="56.26" cy="178.07" r="0.64"/><circle class="cls-3" cx="56.26" cy="175.34" r="0.64"/><circle class="cls-3" cx="56.26" cy="172.61" r="0.64"/><circle class="cls-3" cx="46.71" cy="178.22" r="1.28"/><circle class="cls-3" cx="56.26" cy="169.87" r="0.64"/><rect class="cls-3" x="44.71" y="182.56" width="13.56" height="1.08" transform="translate(145.77 17.9) rotate(45.42)"/><rect class="cls-4" x="63.31" y="182.8" width="10.72" height="0.93" transform="translate(146.14 3.54) rotate(43.86)"/><rect class="cls-1" x="61.42" y="183.11" width="10.72" height="0.93" transform="translate(145.82 4.94) rotate(43.86)"/><rect class="cls-5" x="60.9" y="185.37" width="10.72" height="0.93" transform="translate(147.24 5.93) rotate(43.86)"/><circle class="cls-6" cx="59.02" cy="190.28" r="5.08"/><circle class="cls-1" cx="59.02" cy="190.28" r="2.85"/><rect class="cls-7" width="280" height="280"/></g></g></svg>