<?xml version="1.0" encoding="utf-8"?>
<!-- Generator: Adobe Illustrator 21.0.0, SVG Export Plug-In . SVG Version: 6.00 Build 0)  -->
<svg version="1.1" id="Capa_1" xmlns="http://www.w3.org/2000/svg" xmlns:xlink="http://www.w3.org/1999/xlink" x="0px" y="0px"
	 viewBox="0 0 280 280" style="enable-background:new 0 0 280 280;" xml:space="preserve">
<style type="text/css">
	.st0{fill:none;}
	.st1{fill:#CECECE;}
	.st2{fill:#CECECE;stroke:#5E5F60;stroke-width:0.35;stroke-miterlimit:22.93;}
	.st3{fill:#5E5F60;stroke:#CECECE;stroke-width:0.35;stroke-miterlimit:22.93;}
	.st4{fill:#828282;}
</style>
<title>nave_puerta</title>
<g id="Capa_2">
	<g id="Layer_1">
		<rect class="st0" width="280" height="280"/>
		<path class="st1" d="M140.3,137.1L140.3,137.1c8.4,0,15.2,6.8,15.2,15.2l0,0v42.1l0,0H125l0,0v-42.1
			C125,143.9,131.8,137,140.3,137.1C140.3,137,140.3,137,140.3,137.1z"/>
		<path class="st2" d="M152.5,194.3h-24.5v-40.9c-0.1-6.9,5.5-12.6,12.4-12.6c0,0,0,0,0,0c6.7,0.2,12,5.7,12,12.4L152.5,194.3z"/>
		<path class="st3" d="M139.7,165.4L139.7,165.4c2.2,0,4,1.8,4,4v0c0,2.2-1.8,4-4,4h0c-2.2,0-4-1.8-4-4v0
			C135.7,167.2,137.5,165.4,139.7,165.4z"/>
		<path class="st4" d="M139.7,166.8L139.7,166.8c1.4,0,2.6,1.2,2.6,2.6l0,0c0,1.4-1.2,2.6-2.6,2.6l0,0c-1.4,0-2.6-1.2-2.6-2.6l0,0
			C137.1,167.9,138.3,166.8,139.7,166.8z"/>
		<circle class="st4" cx="129.5" cy="192.2" r="0.4"/>
		<circle class="st4" cx="129.5" cy="190.1" r="0.4"/>
		<circle class="st4" cx="129.5" cy="187.9" r="0.4"/>
		<circle class="st4" cx="129.5" cy="185.8" r="0.4"/>
		<circle class="st4" cx="129.5" cy="183.6" r="0.4"/>
		<circle class="st4" cx="129.5" cy="181.5" r="0.4"/>
		<circle class="st4" cx="129.5" cy="179.3" r="0.4"/>
		<circle class="st4" cx="129.5" cy="177.2" r="0.4"/>
		<circle class="st4" cx="129.5" cy="175" r="0.4"/>
		<circle class="st4" cx="129.5" cy="172.9" r="0.4"/>
		<circle class="st4" cx="129.5" cy="170.7" r="0.4"/>
		<circle class="st4" cx="129.5" cy="168.6" r="0.4"/>
		<circle class="st4" cx="129.5" cy="166.4" r="0.4"/>
		<circle class="st4" cx="129.5" cy="164.3" r="0.4"/>
		<circle class="st4" cx="129.5" cy="162.1" r="0.4"/>
		<circle class="st4" cx="129.5" cy="160" r="0.4"/>
		<circle class="st4" cx="129.5" cy="157.8" r="0.4"/>
		<circle class="st4" cx="129.5" cy="155.7" r="0.4"/>
		<circle class="st4" cx="129.5" cy="153.5" r="0.4"/>
		<circle class="st4" cx="151.2" cy="192.2" r="0.4"/>
		<circle class="st4" cx="151.2" cy="190.1" r="0.4"/>
		<circle class="st4" cx="151.2" cy="187.9" r="0.4"/>
		<circle class="st4" cx="151.2" cy="185.8" r="0.4"/>
		<circle class="st4" cx="151.2" cy="183.6" r="0.4"/>
		<circle class="st4" cx="151.2" cy="181.5" r="0.4"/>
		<circle class="st4" cx="151.2" cy="179.3" r="0.4"/>
		<circle class="st4" cx="151.2" cy="177.2" r="0.4"/>
		<circle class="st4" cx="151.2" cy="175" r="0.4"/>
		<circle class="st4" cx="151.2" cy="172.9" r="0.4"/>
		<circle class="st4" cx="151.2" cy="170.7" r="0.4"/>
		<circle class="st4" cx="151.2" cy="168.6" r="0.4"/>
		<circle class="st4" cx="151.2" cy="166.4" r="0.4"/>
		<circle class="st4" cx="151.2" cy="164.3" r="0.4"/>
		<circle class="st4" cx="151.2" cy="162.1" r="0.4"/>
		<circle class="st4" cx="151.2" cy="160" r="0.4"/>
		<circle class="st4" cx="151.2" cy="157.8" r="0.4"/>
		<circle class="st4" cx="151.2" cy="155.7" r="0.4"/>
		<circle class="st4" cx="151.2" cy="153.5" r="0.4"/>
		<circle class="st4" cx="129.7" cy="151.3" r="0.4"/>
		<circle class="st4" cx="130.4" cy="149.2" r="0.4"/>
		<circle class="st4" cx="131.4" cy="147.4" r="0.4"/>
		<circle class="st4" cx="132.6" cy="145.9" r="0.4"/>
		<circle class="st4" cx="134.1" cy="144.5" r="0.4"/>
		<circle class="st4" cx="135.9" cy="143.5" r="0.4"/>
		<circle class="st4" cx="137.7" cy="142.8" r="0.4"/>
		<circle class="st4" cx="139.6" cy="142.4" r="0.4"/>
		<circle class="st4" cx="141.4" cy="142.5" r="0.4"/>
		<circle class="st4" cx="143.2" cy="142.8" r="0.4"/>
		<circle class="st4" cx="144.9" cy="143.5" r="0.4"/>
		<circle class="st4" cx="146.4" cy="144.4" r="0.4"/>
		<circle class="st4" cx="147.7" cy="145.4" r="0.4"/>
		<circle class="st4" cx="148.8" cy="146.6" r="0.4"/>
		<circle class="st4" cx="149.7" cy="148" r="0.4"/>
		<circle class="st4" cx="150.4" cy="149.6" r="0.4"/>
		<circle class="st4" cx="150.9" cy="151.4" r="0.4"/>
	</g>
</g>
</svg>
