<svg xmlns="http://www.w3.org/2000/svg" viewBox="0 0 280 280"><defs><style>.cls-1{fill:red;}.cls-2{fill:none;}.cls-3,.cls-4{fill:#cecece;}.cls-4{stroke:#5e5f60;stroke-width:0.35px;}.cls-4,.cls-5{stroke-miterlimit:22.93;}.cls-5{fill:#5e5f60;stroke:#cecece;stroke-width:0.35px;}.cls-6{fill:#828282;}</style></defs><title>nave_puerta</title><g id="Capa_2" data-name="Capa 2"><g id="Layer_1" data-name="Layer 1"><rect class="cls-1" x="137.89" y="217.18" width="6.7" height="0.52" rx="0.15" ry="0.15" transform="translate(-2.18 1.43) rotate(-0.58)"/><rect class="cls-2" width="280" height="280"/><path class="cls-3" d="M140.3,137.05h0a15.25,15.25,0,0,1,15.25,15.25v42.06a0,0,0,0,1,0,0H125a0,0,0,0,1,0,0V152.3A15.25,15.25,0,0,1,140.3,137.05Z"/><path class="cls-4" d="M152.54,194.34H128.05v-40.9a12.52,12.52,0,0,1,12.45-12.63,12.33,12.33,0,0,1,12,12.38Z"/><rect class="cls-5" x="135.71" y="165.38" width="7.95" height="7.95" rx="3.97" ry="3.97"/><rect class="cls-6" x="137.1" y="166.77" width="5.16" height="5.16" rx="2.58" ry="2.58"/><circle class="cls-6" cx="129.52" cy="192.24" r="0.41"/><circle class="cls-6" cx="129.52" cy="190.09" r="0.41"/><circle class="cls-6" cx="129.52" cy="187.94" r="0.41"/><circle class="cls-6" cx="129.52" cy="185.79" r="0.41"/><circle class="cls-6" cx="129.52" cy="183.64" r="0.41"/><circle class="cls-6" cx="129.52" cy="181.49" r="0.41"/><circle class="cls-6" cx="129.52" cy="179.33" r="0.41"/><circle class="cls-6" cx="129.52" cy="177.18" r="0.41"/><circle class="cls-6" cx="129.52" cy="175.03" r="0.41"/><circle class="cls-6" cx="129.52" cy="172.88" r="0.41"/><circle class="cls-6" cx="129.52" cy="170.73" r="0.41"/><circle class="cls-6" cx="129.52" cy="168.58" r="0.41"/><circle class="cls-6" cx="129.52" cy="166.42" r="0.41"/><circle class="cls-6" cx="129.52" cy="164.27" r="0.41"/><circle class="cls-6" cx="129.52" cy="162.12" r="0.41"/><circle class="cls-6" cx="129.52" cy="159.97" r="0.41"/><circle class="cls-6" cx="129.52" cy="157.82" r="0.41"/><circle class="cls-6" cx="129.52" cy="155.67" r="0.41"/><circle class="cls-6" cx="129.52" cy="153.52" r="0.41"/><circle class="cls-6" cx="151.21" cy="192.24" r="0.41"/><circle class="cls-6" cx="151.21" cy="190.09" r="0.41"/><circle class="cls-6" cx="151.21" cy="187.94" r="0.41"/><circle class="cls-6" cx="151.21" cy="185.79" r="0.41"/><circle class="cls-6" cx="151.21" cy="183.64" r="0.41"/><circle class="cls-6" cx="151.21" cy="181.49" r="0.41"/><circle class="cls-6" cx="151.21" cy="179.33" r="0.41"/><circle class="cls-6" cx="151.21" cy="177.18" r="0.41"/><circle class="cls-6" cx="151.21" cy="175.03" r="0.41"/><circle class="cls-6" cx="151.21" cy="172.88" r="0.41"/><circle class="cls-6" cx="151.21" cy="170.73" r="0.41"/><circle class="cls-6" cx="151.21" cy="168.58" r="0.41"/><circle class="cls-6" cx="151.21" cy="166.42" r="0.41"/><circle class="cls-6" cx="151.21" cy="164.27" r="0.41"/><circle class="cls-6" cx="151.21" cy="162.12" r="0.41"/><circle class="cls-6" cx="151.21" cy="159.97" r="0.41"/><circle class="cls-6" cx="151.21" cy="157.82" r="0.41"/><circle class="cls-6" cx="151.21" cy="155.67" r="0.41"/><circle class="cls-6" cx="151.21" cy="153.52" r="0.41"/><circle class="cls-6" cx="129.68" cy="151.31" r="0.41"/><circle class="cls-6" cx="130.39" cy="149.17" r="0.41"/><circle class="cls-6" cx="131.36" cy="147.37" r="0.41"/><circle class="cls-6" cx="132.56" cy="145.87" r="0.41"/><circle class="cls-6" cx="134.08" cy="144.54" r="0.41"/><circle class="cls-6" cx="135.91" cy="143.48" r="0.41"/><circle class="cls-6" cx="137.69" cy="142.84" r="0.41"/><circle class="cls-6" cx="139.56" cy="142.45" r="0.41"/><circle class="cls-6" cx="141.37" cy="142.48" r="0.41"/><circle class="cls-6" cx="143.18" cy="142.77" r="0.41"/><circle class="cls-6" cx="144.95" cy="143.47" r="0.41"/><circle class="cls-6" cx="146.42" cy="144.38" r="0.41"/><circle class="cls-6" cx="147.7" cy="145.43" r="0.41"/><circle class="cls-6" cx="148.83" cy="146.59" r="0.41"/><circle class="cls-6" cx="149.66" cy="147.96" r="0.41"/><circle class="cls-6" cx="150.39" cy="149.56" r="0.41"/><circle class="cls-6" cx="150.94" cy="151.45" r="0.41"/></g></g></svg>