<svg xmlns="http://www.w3.org/2000/svg" viewBox="0 0 280 280"><defs><style>.cls-1{fill:#fec006;}.cls-2{fill:#202020;opacity:0.3;}.cls-3{fill:#363339;}.cls-4{fill:#504e52;}.cls-5{fill:#7b7a7c;}.cls-6{fill:#5b5a5b;}.cls-7{fill:#9b9b9b;}.cls-8{fill:#6b6b6b;}.cls-9{fill:none;}</style></defs><title>nave_mesa</title><g id="Capa_2" data-name="Capa 2"><g id="Layer_1" data-name="Layer 1"><rect class="cls-1" x="181.55" y="23.61" width="93.88" height="1.87"/><rect class="cls-2" x="186.7" y="25.48" width="83.58" height="2.07"/><path class="cls-3" d="M186.74,28h83.49a0,0,0,0,1,0,0v7.14a2.61,2.61,0,0,1-2.61,2.61H189.35a2.61,2.61,0,0,1-2.61-2.61V28A0,0,0,0,1,186.74,28Z"/><path class="cls-4" d="M190.21,35.47V45.86h-.07v16.3h4.25V47.79h0c0-.06,0-.12,0-.19V46.7a7.55,7.55,0,0,1,7.55-7.46l.4,0v-3.8Z"/><rect class="cls-5" x="190.21" y="34.59" width="12.12" height="1.48"/><rect class="cls-5" x="190.14" y="60.81" width="4.25" height="1.48"/><path class="cls-4" d="M266.76,35.47V45.86h.07v16.3h-4.25V47.79h0c0-.06,0-.12,0-.19V46.7A7.55,7.55,0,0,0,255,39.24l-.4,0v-3.8Z"/><rect class="cls-5" x="254.63" y="34.59" width="12.12" height="1.48" transform="translate(521.39 70.66) rotate(-180)"/><rect class="cls-5" x="262.58" y="60.81" width="4.25" height="1.48" transform="translate(529.41 123.11) rotate(-180)"/><path class="cls-6" d="M194.11,22.85H198a.32.32,0,0,1,.32.32v.38a0,0,0,0,1,0,0h-4.55a0,0,0,0,1,0,0v-.38A.32.32,0,0,1,194.11,22.85Z"/><rect class="cls-6" x="195.74" y="11.07" width="0.7" height="12.2"/><path class="cls-7" d="M198.68,4.46,193.29,23a.38.38,0,0,1-.47.26l-.63-.18,5.6-19.23.63.18A.38.38,0,0,1,198.68,4.46Z"/><rect class="cls-8" x="184.37" y="13.03" width="20.89" height="0.38" transform="translate(127.66 196.57) rotate(-73.76)"/><rect class="cls-8" x="193.11" y="14.32" width="5.72" height="0.42" transform="translate(127.23 198.62) rotate(-73.76)"/><path class="cls-7" d="M185.49,22.89h5a.36.36,0,0,1,.36.36v.34a0,0,0,0,1,0,0h-5.7a0,0,0,0,1,0,0v-.34A.36.36,0,0,1,185.49,22.89Z"/><rect class="cls-8" x="185.68" y="22.8" width="0.84" height="0.13"/><rect class="cls-8" x="186.62" y="22.8" width="0.84" height="0.13"/><rect class="cls-8" x="187.57" y="22.8" width="0.84" height="0.13"/><rect class="cls-8" x="188.51" y="22.8" width="0.84" height="0.13"/><rect class="cls-8" x="189.46" y="22.8" width="0.84" height="0.13"/><rect class="cls-9" width="280" height="280"/></g></g></svg>