<?xml version="1.0" encoding="utf-8"?>
<!-- Generator: Adobe Illustrator 21.0.0, SVG Export Plug-In . SVG Version: 6.00 Build 0)  -->
<svg version="1.1" id="Capa_1" xmlns="http://www.w3.org/2000/svg" xmlns:xlink="http://www.w3.org/1999/xlink" x="0px" y="0px"
	 viewBox="0 0 280 280" style="enable-background:new 0 0 280 280;" xml:space="preserve">
<style type="text/css">
	.st0{opacity:0.8;}
	.st1{fill:#05A4E2;}
	.st2{fill:#076684;}
	.st3{fill:#F8FED2;stroke:#05A4E2;stroke-width:0.51;stroke-miterlimit:22.93;}
	.st4{fill:#FFFFFF;}
	.st5{fill:#FFCC00;stroke:#FF6600;stroke-width:0.2;stroke-miterlimit:22.93;}
	.st6{fill:#CC6633;}
	.st7{opacity:0.82;fill:#FFFFFF;enable-background:new    ;}
	.st8{opacity:0.5;fill:#FFCC00;stroke:#FF6600;stroke-width:0.2;stroke-miterlimit:22.93;enable-background:new    ;}
	.st9{opacity:0.5;fill:#003399;enable-background:new    ;}
	.st10{fill:#FF0000;}
	.st11{fill:#F8FED2;stroke:#00B7FF;stroke-width:0.52;stroke-miterlimit:22.93;}
	.st12{fill:#024056;}
	.st13{fill:#087FA3;}
	.st14{fill:none;}
</style>
<title>nave_plataforma</title>
<g class="st0">
	
		<rect x="137.9" y="14" transform="matrix(0.9999 -1.012274e-02 1.012274e-02 0.9999 -0.5389 1.4135)" class="st1" width="2.9" height="79.9"/>
	
		<rect x="137.6" y="14" transform="matrix(0.9999 -1.012274e-02 1.012274e-02 0.9999 -0.2425 1.4091)" class="st1" width="2.9" height="21.4"/>
	<path class="st2" d="M138.7,25.5l0.7,0c0.3,0,0.5,0.2,0.5,0.5l0.3,29.5c0,0.3-0.2,0.5-0.5,0.5l-0.7,0c-0.3,0-0.5-0.2-0.5-0.5
		L138.2,26C138.2,25.7,138.4,25.5,138.7,25.5z"/>
	<path class="st3" d="M139.4,56.2c20.5-0.2,37.5,33.1,37.9,74.4s-15.5,111.2-36,111.4s-37.8-69.3-38.3-110.6S118.9,56.4,139.4,56.2z
		"/>
	<path class="st4" d="M139.1,24.5c3.1,0,5.7-2.5,5.7-5.7c-0.2-3.2-3-5.6-6.2-5.4c-2.9,0.2-5.2,2.6-5.4,5.5
		C133.4,22.1,136,24.5,139.1,24.5z"/>
	<path class="st5" d="M138.9,24.5c3.1,0,5.5-2.6,5.5-5.6s-2.6-5.5-5.6-5.5c-3.1,0-5.5,2.6-5.5,5.6c0,0,0,0,0,0
		C133.3,22.1,135.8,24.5,138.9,24.5z"/>
	<path class="st6" d="M135.5,14.5c-1.5,1-2.3,2.8-2.2,4.6c0.1,2.8,2.3,5.1,5.1,5.4c0.9,0.1,1.8,0,2.6-0.4
		C135.1,24.3,131.6,18.8,135.5,14.5z"/>
	<path class="st6" d="M143.8,18.4c0,2.6-0.6,3.6-1.5,4.6c1.4-0.9,2.1-2.3,2.1-4.6s-2.4-4.9-5.1-5.1c-0.8-0.1-1.5,0-2.2,0.3
		C139.8,13.2,143.8,15.8,143.8,18.4z"/>
	
		<ellipse transform="matrix(0.9999 -1.012274e-02 1.012274e-02 0.9999 -0.1495 1.4235)" class="st7" cx="140.5" cy="15.5" rx="1.6" ry="1.6"/>
	
		<ellipse transform="matrix(0.9999 -1.012274e-02 1.012274e-02 0.9999 -0.183 1.4103)" class="st8" cx="139.2" cy="18.8" rx="5.6" ry="5.6"/>
	<path class="st1" d="M106.5,167.1l68.1-0.7c0.3-2.2,0.6-4.3,0.9-6.4l-70,0.7C105.8,162.8,106.1,164.9,106.5,167.1z"/>
	<path class="st1" d="M173.4,173.5l-65.7,0.7c0.4,2.1,0.8,4.3,1.3,6.4l63.2-0.6C172.7,177.8,173.1,175.7,173.4,173.5z"/>
	<path class="st1" d="M170.8,187.1l-60.2,0.6c0.5,2.2,1.1,4.3,1.6,6.4l57-0.6C169.8,191.4,170.3,189.2,170.8,187.1z"/>
	<path class="st1" d="M121.2,66.1l36.6-0.4c-2.2-2.5-4.7-4.6-7.5-6.4l-21.7,0.2C125.8,61.3,123.3,63.5,121.2,66.1z"/>
	<path class="st1" d="M118.4,69.6c-1.4,2.1-2.8,4.2-3.9,6.5l50.2-0.5c-1.2-2.2-2.6-4.4-4.1-6.4L118.4,69.6z"/>
	<path class="st1" d="M112.7,79.7c-0.9,2.1-1.8,4.2-2.7,6.5l59.2-0.6c-0.9-2.2-1.8-4.4-2.8-6.4L112.7,79.7z"/>
	<path class="st9" d="M151.2,233.8c-20.5,0.2-37.8-69.3-38.2-110.6c-0.3-27.6,6.9-51.8,17.8-64.8c-16.2,8-28.1,37.7-27.7,73
		c0.4,41.3,17.7,110.8,38.2,110.6c4.3,0,8.4-3.2,12.2-8.5C152.7,233.7,152,233.8,151.2,233.8z"/>
</g>
<path class="st10" d="M138.1,217.2l6.4-0.1c0.1,0,0.2,0.1,0.2,0.1l0,0.2c0,0.1-0.1,0.2-0.1,0.2l-6.4,0.1c-0.1,0-0.2-0.1-0.2-0.1
	l0-0.2C137.9,217.3,138,217.2,138.1,217.2z"/>
<path class="st11" d="M111.6,194.7c6.8,26.1,16.9,47.3,28.4,47.3s21.9-21.2,29-47.3H111.6z"/>
<path class="st9" d="M124.2,194.7h-12.6c6.8,26.1,16.9,47.3,28.4,47.3c4.4,0,8.7-3.1,12.7-8.5c-0.8,0.2-1.6,0.3-2.4,0.3
	C140,233.8,130.9,216.9,124.2,194.7z"/>
<path class="st12" d="M112.4,197.9l-21.6,21.8l2.3,59.2h3.3l7.1-39.6l20.3-11.6C119.5,220,115.6,209.5,112.4,197.9z"/>
<path class="st13" d="M111.9,199.3L92,220.1l2,57.7h1.8l6.7-39.2l19.8-11C117.8,218.6,114.3,209.1,111.9,199.3z"/>
<path class="st1" d="M93.1,219.7l28.1,6.9c-4.2-8.3-7.4-17.1-9.6-26.2L93.1,219.7z"/>
<path class="st1" d="M121.1,227.5l-28.4-6.9l-0.1,0.1l0.1,1.6l9.8,15.8l18.7-10.4L121.1,227.5z"/>
<polygon class="st1" points="101.8,238.9 92.8,224.2 94.4,273.4 96,273.4 "/>
<path class="st12" d="M167.8,198.2l21.4,22.1l-3,59.2h-3.3l-6.6-39.7L156.1,228C160.5,220.2,164.5,209.8,167.8,198.2z"/>
<path class="st13" d="M168.4,199.7l19.6,21l-2.6,57.7h-1.8l-6.2-39.3l-19.7-11.2C162.2,218.8,165.8,209.4,168.4,199.7z"/>
<path class="st1" d="M186.9,220.2l-28.2,6.5c4.3-8.3,7.6-17,9.9-26.1L186.9,220.2z"/>
<path class="st1" d="M158.8,227.7l28.4-6.6l0.1,0.1l-0.1,1.6l-9.9,15.6l-18.6-10.6L158.8,227.7z"/>
<polygon class="st1" points="177.9,239.3 187.2,224.7 184.9,273.9 183.4,273.9 "/>
<rect x="136.7" y="228.9" transform="matrix(5.759587e-03 -1 1 5.759587e-03 -100.2059 377.9071)" class="st12" width="6.5" height="20.9"/>
<path class="st1" d="M130.1,240.3l0-2.1c0-0.8,0.7-1.5,1.5-1.5l16.7,0.1c0.8,0,1.5,0.7,1.5,1.5l0,2.1c0,0.8-0.7,1.5-1.5,1.5
	l-16.7-0.1C130.8,241.8,130.1,241.1,130.1,240.3z"/>
<path class="st12" d="M130.7,240.2l0-1.8c0-0.7,0.5-1.2,1.2-1.2l16.1,0.1c0.7,0,1.2,0.5,1.2,1.2l0,1.8c0,0.7-0.5,1.2-1.2,1.2
	l-16.1-0.1C131.2,241.4,130.7,240.9,130.7,240.2z"/>
<rect x="99" y="235.6" transform="matrix(5.759587e-03 -1 1 5.759587e-03 -99.869 377.6022)" class="st12" width="81.9" height="6.9"/>
<rect x="129.2" y="205.6" transform="matrix(5.759587e-03 -1 1 5.759587e-03 -69.7064 347.9737)" class="st12" width="21.9" height="6.9"/>
<path class="st1" d="M137.4,217.8l0.1-17.5c0-0.8,0.7-1.5,1.5-1.5l2.3,0c0.8,0,1.5,0.7,1.5,1.5l-0.1,17.5c0,0.8-0.7,1.5-1.5,1.5
	l-2.3,0C138.1,219.3,137.4,218.6,137.4,217.8z"/>
<path class="st1" d="M137.1,277.6l0.3-55.1c0-0.8,0.7-1.5,1.5-1.5l2.3,0c0.8,0,1.5,0.7,1.5,1.5l-0.3,55.1c0,0.8-0.7,1.5-1.5,1.5
	l-2.3,0C137.7,279.2,137.1,278.5,137.1,277.6z"/>
<path class="st1" d="M136.6,220.1l0-0.2c0-0.1,0.1-0.1,0.2-0.1l6.6,0c0.1,0,0.1,0.1,0.1,0.2l0,0.2c0,0.1-0.1,0.1-0.2,0.1l-6.6,0
	C136.7,220.2,136.6,220.2,136.6,220.1z"/>
<rect class="st14" width="280" height="280"/>
</svg>
