<svg xmlns="http://www.w3.org/2000/svg" viewBox="0 0 350 240"><defs><style>.cls-1,.cls-13{fill:#26bdd1;}.cls-2,.cls-4{fill:#00488e;}.cls-3{fill:#f8fed2;stroke:#00b7ff;stroke-width:0.46px;}.cls-12,.cls-3,.cls-9{stroke-miterlimit:22.93;}.cls-10,.cls-13,.cls-14,.cls-15,.cls-16,.cls-17,.cls-18,.cls-19,.cls-20,.cls-21,.cls-3,.cls-4,.cls-5,.cls-6,.cls-7{fill-rule:evenodd;}.cls-5{fill:#019dcb;}.cls-6{fill:#03bddc;}.cls-7{fill:#c4ffff;}.cls-12,.cls-14,.cls-7{opacity:0.5;}.cls-11,.cls-19,.cls-8{fill:#fff;}.cls-12,.cls-17,.cls-9{fill:#fc0;}.cls-12,.cls-9{stroke:#f60;stroke-width:0.18px;}.cls-10{fill:#c63;}.cls-11{opacity:0.82;}.cls-14{fill:#039;}.cls-15,.cls-23{fill:#05a4e2;}.cls-16{fill:#f93;}.cls-18{fill:#ff0;}.cls-20,.cls-22{fill:#024056;}.cls-21{fill:#087fa3;}.cls-24{fill:#ccbeb5;}.cls-25{fill:#d0cba4;}.cls-26{fill:none;}</style></defs><title>Nave</title><g id="Capa_2" data-name="Capa 2"><g id="Layer_1" data-name="Layer 1"><rect class="cls-1" x="243.18" y="46.23" width="72.25" height="2.67" transform="translate(33.41 188.31) rotate(-39.45)"/><rect class="cls-1" x="290.08" y="29.42" width="19.33" height="2.67" transform="translate(48.74 197.46) rotate(-39.45)"/><rect class="cls-2" x="274.96" y="38.96" width="27.6" height="1.58" rx="0.45" ry="0.45" transform="translate(40.53 192.53) rotate(-39.45)"/><path class="cls-3" d="M277.76,48.85c11.78,14.31-2,45.14-30.87,68.86s-87,52.16-98.81,37.84,27.34-66,56.16-89.68S266,34.53,277.76,48.85Z"/><path class="cls-4" d="M226.28,90.74A18.7,18.7,0,1,0,228.9,64.5,18.68,18.68,0,0,0,226.28,90.74Z"/><path class="cls-5" d="M225.8,90.15A17.93,17.93,0,1,0,228.31,65,17.92,17.92,0,0,0,225.8,90.15Z"/><path class="cls-4" d="M227.36,89.06a14.93,14.93,0,1,0,2.09-21A14.92,14.92,0,0,0,227.36,89.06Z"/><path class="cls-6" d="M228.64,89.26a14.32,14.32,0,1,0,2-20.1A14.31,14.31,0,0,0,228.64,89.26Z"/><path class="cls-7" d="M232.37,89.29A14.34,14.34,0,0,1,241.75,66a14.29,14.29,0,1,0-.37,28.32l-.3,0A14.15,14.15,0,0,1,232.37,89.29Z"/><path class="cls-7" d="M252.18,66.24A17.94,17.94,0,0,1,227.59,92a17.93,17.93,0,1,0,22.6-27.81A17.88,17.88,0,0,1,252.18,66.24Z"/><ellipse class="cls-8" cx="303.83" cy="27.47" rx="5.06" ry="5.22" transform="translate(51.76 199.3) rotate(-39.45)"/><circle class="cls-9" cx="303.65" cy="27.32" r="5.04" transform="translate(51.81 199.16) rotate(-39.45)"/><path class="cls-10" d="M304.89,22.47a4.7,4.7,0,0,0-4.5,1,5.08,5.08,0,0,0-.93,6.62,4.74,4.74,0,0,0,1.78,1.62C297.72,27.74,299.67,22.19,304.89,22.47Z"/><path class="cls-10" d="M306.85,30.5a5.33,5.33,0,0,1-4.11,1.56,4.36,4.36,0,0,0,4.4-1.11,5.24,5.24,0,0,0,.67-6.51,4.63,4.63,0,0,0-1.5-1.39C308.26,24.76,308.64,29,306.85,30.5Z"/><circle class="cls-11" cx="307.05" cy="26.57" r="1.42" transform="translate(53.06 201.15) rotate(-39.45)"/><circle class="cls-12" cx="303.97" cy="27.52" r="5.04" transform="translate(51.76 199.4) rotate(-39.45)"/><path class="cls-13" d="M260.48,41.64l21,25.54a29.8,29.8,0,0,0,.23-8.89L269.25,43.13A29.8,29.8,0,0,0,260.48,41.64Z"/><path class="cls-13" d="M256.39,41.72a54.23,54.23,0,0,0-6.8.91l28.84,35.05a54.24,54.24,0,0,0,2.2-6.5Z"/><path class="cls-13" d="M246.09,43.41q-3,.75-6.06,1.8l34,41.35q1.63-2.83,2.94-5.6Z"/><path class="cls-14" d="M159.44,157.9c-11.78-14.31,27.34-66,56.16-89.68C234.87,52.37,256,43.7,271.36,44c-14.86-6.89-42.48,1.63-67.12,21.9-28.83,23.72-67.94,75.36-56.16,89.68,2.48,3,7,4.13,12.91,3.8A8.45,8.45,0,0,1,159.44,157.9Z"/><path class="cls-4" d="M198.89,113a9.57,9.57,0,1,0,1.34-13.44A9.57,9.57,0,0,0,198.89,113Z"/><path class="cls-5" d="M198.64,112.69a9.18,9.18,0,1,0,1.29-12.89A9.18,9.18,0,0,0,198.64,112.69Z"/><path class="cls-4" d="M199.45,112.13a7.65,7.65,0,1,0,1.07-10.73A7.64,7.64,0,0,0,199.45,112.13Z"/><path class="cls-6" d="M200.1,112.23a7.34,7.34,0,1,0,1-10.3A7.33,7.33,0,0,0,200.1,112.23Z"/><path class="cls-7" d="M202,112.25a7.34,7.34,0,0,1,4.8-11.92,7.32,7.32,0,1,0-.19,14.5l-.15,0A7.25,7.25,0,0,1,202,112.25Z"/><path class="cls-7" d="M212.15,100.44a9.19,9.19,0,0,1-12.59,13.19,9.18,9.18,0,1,0,11.57-14.24A9.16,9.16,0,0,1,212.15,100.44Z"/><path class="cls-15" d="M175,94.83l37.25,45.27q2.43-1.43,4.79-2.91L178.79,90.68Q176.89,92.72,175,94.83Z"/><path class="cls-16" d="M150.14,153.85c9.43,11.46,1.08,33.9-18.64,50.13s-68.37,25-70.09,22.88,16.23-48.14,36-64.37S140.71,142.39,150.14,153.85Z"/><path class="cls-17" d="M150.14,153.85c6.3,7.65-.1,23.32-14.28,35s-48.39,18.92-49.54,17.52,12.55-33.56,26.73-45.24S143.84,146.2,150.14,153.85Z"/><path class="cls-18" d="M150.14,153.85c6.3,7.65,2.94,20.82-7.49,29.4s-38.3,10.62-39.45,9.22,6.21-28.35,16.65-36.94S143.84,146.2,150.14,153.85Z"/><path class="cls-19" d="M150.14,153.85c4.71,5.73,1.84,15.87-6.4,22.66s-29.84,8.92-30.7,7.88,5.39-21.82,13.64-28.61S145.43,148.13,150.14,153.85Z"/><path class="cls-20" d="M162.49,112l-27-2.34-38.83,35,1.85,2.25,30.85-17.53,19.3,7.26C151.52,129.2,156.43,120.68,162.49,112Z"/><path class="cls-21" d="M161.2,112.4l-25.26-1.72-38,33.91,1,1.2,30.38-17.64,18.65,7.23A120.39,120.39,0,0,1,161.2,112.4Z"/><path class="cls-15" d="M136.8,111.16,148,134.07a112.29,112.29,0,0,1,12.31-21.31Z"/><path class="cls-15" d="M147.36,134.56,136,111.41H136l-1.08,1-5.18,15.51,17.59,6.81Z"/><polygon class="cls-15" points="128.73 127.93 133.56 113.47 101.15 142.38 102.02 143.44 128.73 127.93"/><path class="cls-20" d="M193.56,149.72l-2.9,26.95L148.87,208,147,205.79l23.15-26.89-3.4-20.34C174.53,157.16,183.84,154,193.56,149.72Z"/><path class="cls-21" d="M192.88,150.9,189.7,176l-40.59,30.77-1-1.2,23.16-26.41-3.5-19.69A120.39,120.39,0,0,0,192.88,150.9Z"/><path class="cls-15" d="M189.39,175.08l-20.33-15.4a112.28,112.28,0,0,0,23.28-8Z"/><path class="cls-15" d="M168.47,160.21,189,175.77v.07l-1.15.88-16.22,2.1-3.3-18.57Z"/><polygon class="cls-15" points="171.38 179.77 186.5 177.81 151.89 204.05 151.02 203 171.38 179.77"/><path class="cls-15" d="M214.49,139.36,176.75,93.49q-1.92,2.26-3.79,4.57l36.32,44.14Q211.9,140.81,214.49,139.36Z"/><path class="cls-15" d="M203.45,145.2l-34.55-42q-1.84,2.4-3.59,4.8L198,147.8Q200.74,146.55,203.45,145.2Z"/><rect class="cls-22" x="147.04" y="144.8" width="5.76" height="18.46" transform="translate(-63.72 130.35) rotate(-39.45)"/><rect class="cls-23" x="147.71" y="145.36" width="4.46" height="17.31" rx="1.29" ry="1.29" transform="translate(-63.71 130.35) rotate(-39.45)"/><rect class="cls-22" x="148.08" y="145.88" width="3.65" height="16.32" rx="1.05" ry="1.05" transform="translate(-63.73 130.34) rotate(-39.45)"/><rect class="cls-22" x="114.02" y="150.83" width="72.25" height="6.06" transform="translate(-63.56 130.45) rotate(-39.45)"/><rect class="cls-22" x="160.92" y="134.02" width="19.33" height="6.06" transform="translate(-48.22 139.6) rotate(-39.45)"/><rect class="cls-23" x="161.48" y="134.72" width="18.13" height="4.69" rx="1.35" ry="1.35" transform="translate(-48.24 139.58) rotate(-39.45)"/><rect class="cls-23" x="116.95" y="157.71" width="51.29" height="4.69" rx="1.35" ry="1.35" transform="translate(-69.21 127.07) rotate(-39.45)"/><rect class="cls-23" x="162.88" y="140.16" width="0.47" height="6.06" rx="0.14" ry="0.14" transform="translate(-53.82 136.26) rotate(-39.45)"/><path class="cls-24" d="M306.13,130.34l-3.25-1.84a2.21,2.21,0,0,1-.71-.65,2.52,2.52,0,0,1-.46-1.88s.05-.23.11-.58l.21-1.29.31-1.88c.16-1-.27-1.16-.94-.47l-1.33,1.33-1.32,1.3a2.5,2.5,0,0,1-2.73.36s-.82-.44-1.65-.86l-1.66-.84c-.84-.41-1.17-.12-.74.67a2.85,2.85,0,0,1,.15.29l.32.65.46.95.24.5.43.89a2.3,2.3,0,0,1,.15,1.41,2.47,2.47,0,0,1-.68,1.31L291.66,131l-.94.9c-.26.24-.43.42-.43.42-.68.72-.47,1.18.46,1l1.84-.3c.92-.15,1.84-.27,1.84-.27a2.32,2.32,0,0,1,1.31.24,2.5,2.5,0,0,1,1.14,1.09l.84,1.68.84,1.64c.43.82.9.73,1-.17l.29-1.79c.08-.45.15-.9.2-1.23s.1-.56.1-.56a2.51,2.51,0,0,1,1.87-1.85l.15,0,3.69-.42c.47-.05.72-.19.76-.37S306.54,130.57,306.13,130.34Z"/><path class="cls-24" d="M48.73,122.79,45.48,121a2.21,2.21,0,0,1-.71-.65,2.52,2.52,0,0,1-.46-1.88s.05-.23.11-.58l.21-1.29.31-1.88c.16-1-.27-1.16-.94-.47l-1.33,1.33-1.32,1.3a2.5,2.5,0,0,1-2.73.36s-.82-.44-1.65-.86l-1.66-.84c-.84-.41-1.17-.12-.74.67a2.85,2.85,0,0,1,.15.29l.32.65.46.95.24.5.43.89a2.3,2.3,0,0,1,.15,1.41,2.47,2.47,0,0,1-.68,1.31l-1.37,1.31-.94.9c-.26.24-.43.42-.43.42-.68.72-.47,1.18.46,1l1.84-.3c.92-.15,1.84-.27,1.84-.27a2.32,2.32,0,0,1,1.31.24,2.5,2.5,0,0,1,1.14,1.09l.84,1.68.84,1.64c.43.82.9.73,1-.17l.29-1.79c.08-.45.15-.9.2-1.23s.1-.56.1-.56a2.51,2.51,0,0,1,1.87-1.85l.15,0,3.69-.42c.47-.05.72-.19.76-.37S49.14,123,48.73,122.79Z"/><path class="cls-24" d="M184.6,221.12l-3.25-1.84a2.21,2.21,0,0,1-.71-.65,2.52,2.52,0,0,1-.46-1.88s.05-.23.11-.58l.21-1.29.31-1.88c.16-1-.27-1.16-.94-.47l-1.33,1.33-1.32,1.3a2.5,2.5,0,0,1-2.73.36s-.82-.44-1.65-.86l-1.66-.84c-.84-.41-1.17-.12-.74.67a2.85,2.85,0,0,1,.15.29l.32.65.46.95.24.5.43.89a2.3,2.3,0,0,1,.15,1.41,2.47,2.47,0,0,1-.68,1.31l-1.37,1.31-.94.9c-.26.24-.43.42-.43.42-.68.72-.47,1.18.46,1l1.84-.3c.92-.15,1.84-.27,1.84-.27a2.32,2.32,0,0,1,1.31.24,2.5,2.5,0,0,1,1.14,1.09l.84,1.68.84,1.64c.43.82.9.73,1-.17l.29-1.79c.08-.45.15-.9.2-1.23s.1-.56.1-.56a2.51,2.51,0,0,1,1.87-1.85l.15,0,3.69-.42c.47-.05.72-.19.76-.37S185,221.36,184.6,221.12Z"/><path class="cls-24" d="M243,10.37l-3.25-1.84a2.21,2.21,0,0,1-.71-.65A2.52,2.52,0,0,1,238.55,6s.05-.23.11-.58l.21-1.29.31-1.88c.16-1-.27-1.16-.94-.47L236.9,3.11l-1.32,1.3a2.5,2.5,0,0,1-2.73.36s-.82-.44-1.65-.86l-1.66-.84c-.84-.41-1.17-.12-.74.67A2.85,2.85,0,0,1,229,4l.32.65.46.95.24.5.43.89a2.3,2.3,0,0,1,.15,1.41,2.47,2.47,0,0,1-.68,1.31L228.5,11l-.94.9c-.26.24-.43.42-.43.42-.68.72-.47,1.18.46,1l1.84-.3c.92-.15,1.84-.27,1.84-.27a2.32,2.32,0,0,1,1.31.24,2.5,2.5,0,0,1,1.14,1.09l.84,1.68.84,1.64c.43.82.9.73,1-.17l.29-1.79c.08-.45.15-.9.2-1.23s.1-.56.1-.56a2.51,2.51,0,0,1,1.87-1.85l.15,0,3.69-.42c.47-.05.72-.19.76-.37S243.37,10.61,243,10.37Z"/><path class="cls-25" d="M100.33,46.29c2.05,2.63,3.11,6.26,3.67,11.12s.62,11,1,18.65a106.42,106.42,0,0,1,.38-18.65c.65-4.86,1.85-8.46,4-11.15,4.24-5.35,12.28-7.1,27.59-7.39-7.66.14-13.51-.16-18-1.14s-7.61-2.64-9.88-5.26a14.76,14.76,0,0,1-1.53-2.14,18.88,18.88,0,0,1-1.28-2.52,40.56,40.56,0,0,1-2-6.28c-1.22-4.77-2.22-10.78-4.28-18.13a69.09,69.09,0,0,1,2.9,18.29,27.5,27.5,0,0,1-.72,6.42,16.85,16.85,0,0,1-.86,2.59,13,13,0,0,1-1.26,2.2c-1.9,2.68-4.88,4.42-9.25,5.51S80.63,39.93,73,40.07C88.28,39.77,96.23,41,100.33,46.29Z"/><path class="cls-25" d="M225,211.1c.75,2.42.52,5.28-.39,8.89s-2.53,8-4.32,13.52a80.85,80.85,0,0,1,5.3-13.14c1.78-3.28,3.6-5.51,5.82-6.85,4.45-2.66,10.64-1.73,21.59,2.19A61.47,61.47,0,0,1,240.55,210c-2.93-1.91-4.69-3.93-5.6-6.4a11.21,11.21,0,0,1-.51-1.93,14.34,14.34,0,0,1-.23-2.14,30.82,30.82,0,0,1,.28-5c.42-3.71,1.33-8.25,1.85-14a52.49,52.49,0,0,1-2.87,13.77,20.89,20.89,0,0,1-2.25,4.36,12.8,12.8,0,0,1-1.31,1.6,9.9,9.9,0,0,1-1.49,1.23c-2.07,1.39-4.66,1.83-8.05,1.42s-7.63-1.66-13.11-3.62C218.22,203.23,223.54,206.25,225,211.1Z"/><rect class="cls-26" width="350" height="240"/></g></g></svg>