<svg xmlns="http://www.w3.org/2000/svg" viewBox="0 0 280 280"><defs><style>.cls-1{fill:#7f8080;}.cls-2{fill:#646669;}.cls-2,.cls-5,.cls-6{fill-rule:evenodd;}.cls-3,.cls-6{fill:#363339;}.cls-4{fill:#53c4d1;}.cls-5{fill:#8dd3db;}.cls-7{fill:#07bbe8;}.cls-8{fill:red;}.cls-9{fill:none;}</style></defs><title>nave_tv</title><g id="Capa_2" data-name="Capa 2"><g id="Layer_1" data-name="Layer 1"><ellipse class="cls-1" cx="200.86" cy="193.8" rx="0.53" ry="0.96"/><ellipse class="cls-1" cx="200.94" cy="196.38" rx="0.53" ry="0.96"/><ellipse class="cls-1" cx="200.94" cy="198.96" rx="0.53" ry="0.96"/><path class="cls-2" d="M215.62,196.8h26.26c-.29,2.81.62,6.15,5.52,8.09H210.1C215,202.95,215.92,199.61,215.62,196.8Z"/><rect class="cls-3" x="201" y="165.93" width="55.64" height="36.06" rx="1.62" ry="1.62"/><rect class="cls-4" x="202.64" y="167.31" width="52.02" height="32.51" rx="0.11" ry="0.11"/><path class="cls-5" d="M202.74,167.31h51.81c.92,0-7.85,9-24.69,20.16-13.27,8.77-27.3,12.61-27.23,12.23V167.42A.11.11,0,0,1,202.74,167.31Z"/><path class="cls-6" d="M209.53,203.06H249a1.46,1.46,0,0,1,1.46,1.46v.89a.56.56,0,0,1-.56.56H208.54a.47.47,0,0,1-.46-.46v-1A1.46,1.46,0,0,1,209.53,203.06Z"/><rect class="cls-7" x="220.87" y="200.52" width="15.72" height="0.82"/><rect class="cls-8" x="137.89" y="217.18" width="6.7" height="0.52" rx="0.15" ry="0.15" transform="translate(-2.18 1.43) rotate(-0.58)"/><rect class="cls-9" width="280" height="280"/></g></g></svg>