<svg xmlns="http://www.w3.org/2000/svg" xmlns:xlink="http://www.w3.org/1999/xlink" viewBox="0 0 280 280"><defs><style>.cls-1{fill:#a1a1a1;}.cls-2{fill:gray;}.cls-3,.cls-54{fill:#545454;}.cls-4{fill:url(#linear-gradient);}.cls-5{fill:#fddd9c;}.cls-6{fill:#fff;}.cls-7{fill:url(#radial-gradient);}.cls-8{fill:url(#radial-gradient-2);}.cls-9{fill:url(#radial-gradient-3);}.cls-10{fill:url(#radial-gradient-4);}.cls-11{fill:url(#linear-gradient-2);}.cls-12{fill:url(#linear-gradient-3);}.cls-13{fill:url(#linear-gradient-4);}.cls-14{fill:url(#linear-gradient-5);}.cls-15{fill:url(#linear-gradient-6);}.cls-16{fill:url(#linear-gradient-7);}.cls-17{fill:url(#linear-gradient-8);}.cls-18{fill:url(#linear-gradient-9);}.cls-19{fill:url(#radial-gradient-5);}.cls-20{fill:url(#radial-gradient-6);}.cls-21{fill:url(#radial-gradient-7);}.cls-22{fill:url(#radial-gradient-8);}.cls-23{fill:url(#linear-gradient-10);}.cls-24{fill:url(#linear-gradient-11);}.cls-25{fill:url(#linear-gradient-12);}.cls-26{fill:url(#linear-gradient-13);}.cls-27{fill:url(#linear-gradient-14);}.cls-28{fill:url(#linear-gradient-15);}.cls-29{fill:url(#linear-gradient-16);}.cls-30{fill:url(#linear-gradient-17);}.cls-31{fill:url(#linear-gradient-18);}.cls-32{fill:url(#linear-gradient-19);}.cls-33{fill:url(#radial-gradient-9);}.cls-34{fill:url(#radial-gradient-10);}.cls-35{fill:url(#radial-gradient-11);}.cls-36{fill:url(#radial-gradient-12);}.cls-37{fill:url(#linear-gradient-20);}.cls-38{fill:url(#linear-gradient-21);}.cls-39{fill:url(#linear-gradient-22);}.cls-40{fill:url(#linear-gradient-23);}.cls-41{fill:url(#linear-gradient-24);}.cls-42{fill:url(#linear-gradient-25);}.cls-43{fill:url(#linear-gradient-26);}.cls-44{fill:url(#linear-gradient-27);}.cls-45{fill:url(#linear-gradient-28);}.cls-46{fill:url(#linear-gradient-29);}.cls-47{fill:#696969;}.cls-48{fill:#303030;}.cls-49{fill:#575757;}.cls-50{fill:#d9d8d7;}.cls-51,.cls-52{fill:#fff6f6;}.cls-51{fill-rule:evenodd;}.cls-53{fill:url(#linear-gradient-30);}.cls-54{stroke:#81cffa;stroke-width:0.43px;}.cls-54,.cls-56,.cls-57{stroke-miterlimit:10;}.cls-55{fill:#2dbccd;}.cls-56{fill:#878787;stroke:#57c9ff;stroke-width:0.11px;}.cls-57{fill:#f4911e;stroke:#fff;stroke-width:0.21px;}.cls-58{fill:#c7f6ff;}.cls-59{fill:none;}</style><linearGradient id="linear-gradient" x1="272.42" y1="130.97" x2="277.67" y2="130.97" gradientTransform="translate(-223.82)" gradientUnits="userSpaceOnUse"><stop offset="0"/><stop offset="0.08" stop-color="#0c0c0c"/><stop offset="0.21" stop-color="#2b2b2b"/><stop offset="0.39" stop-color="#5c5c5c"/><stop offset="0.49" stop-color="#7d7d7d"/><stop offset="0.52" stop-color="#747474"/><stop offset="0.68" stop-color="#424242"/><stop offset="0.82" stop-color="#1e1e1e"/><stop offset="0.93" stop-color="#080808"/><stop offset="1"/></linearGradient><radialGradient id="radial-gradient" cx="281.13" cy="124.86" r="4.85" gradientTransform="translate(-223.82)" gradientUnits="userSpaceOnUse"><stop offset="0.93" stop-color="#6e6e6e"/><stop offset="1"/></radialGradient><radialGradient id="radial-gradient-2" cx="281.13" cy="124.86" r="4.17" gradientTransform="translate(-223.82)" gradientUnits="userSpaceOnUse"><stop offset="0"/><stop offset="0.26" stop-color="#fff"/><stop offset="1"/></radialGradient><radialGradient id="radial-gradient-3" cx="281.13" cy="124.86" r="1.66" gradientTransform="translate(-223.82)" gradientUnits="userSpaceOnUse"><stop offset="0"/><stop offset="0.28" stop-color="#020202"/><stop offset="0.41" stop-color="#0a0a0a"/><stop offset="0.51" stop-color="#171717"/><stop offset="0.6" stop-color="#2a2a2a"/><stop offset="0.68" stop-color="#424242"/><stop offset="0.75" stop-color="#5f5f5f"/><stop offset="0.82" stop-color="#828282"/><stop offset="0.87" stop-color="#a2a2a2"/><stop offset="1"/></radialGradient><radialGradient id="radial-gradient-4" cx="281.13" cy="124.86" r="1.29" xlink:href="#radial-gradient-3"/><linearGradient id="linear-gradient-2" x1="279.51" y1="121.88" x2="282.69" y2="121.88" gradientTransform="translate(-223.82)" gradientUnits="userSpaceOnUse"><stop offset="0"/><stop offset="0.58" stop-color="#fff"/><stop offset="1"/></linearGradient><linearGradient id="linear-gradient-3" x1="279.62" y1="121.89" x2="282.58" y2="121.89" gradientTransform="translate(-223.82)" gradientUnits="userSpaceOnUse"><stop offset="0" stop-color="#fff"/><stop offset="1"/></linearGradient><linearGradient id="linear-gradient-4" x1="-2147.41" y1="5711.06" x2="-2144.23" y2="5711.06" gradientTransform="translate(-5656.74 -2020.93) rotate(-90)" xlink:href="#linear-gradient-2"/><linearGradient id="linear-gradient-5" x1="-2147.3" y1="5711.07" x2="-2144.34" y2="5711.07" gradientTransform="translate(-5656.74 -2020.93) rotate(-90)" xlink:href="#linear-gradient-3"/><linearGradient id="linear-gradient-6" x1="-7736.59" y1="3284.14" x2="-7733.41" y2="3284.14" gradientTransform="translate(-7677.67 3411.98) rotate(180)" xlink:href="#linear-gradient-2"/><linearGradient id="linear-gradient-7" x1="-7736.48" y1="3284.15" x2="-7733.52" y2="3284.15" gradientTransform="translate(-7677.67 3411.98) rotate(180)" xlink:href="#linear-gradient-3"/><linearGradient id="linear-gradient-8" x1="-5309.67" y1="-2305.04" x2="-5306.49" y2="-2305.04" gradientTransform="translate(-2244.75 5432.91) rotate(90)" xlink:href="#linear-gradient-2"/><linearGradient id="linear-gradient-9" x1="-5309.56" y1="-2305.03" x2="-5306.6" y2="-2305.03" gradientTransform="translate(-2244.75 5432.91) rotate(90)" xlink:href="#linear-gradient-3"/><radialGradient id="radial-gradient-5" cx="269.57" cy="124.86" r="4.85" xlink:href="#radial-gradient"/><radialGradient id="radial-gradient-6" cx="269.57" cy="124.86" r="4.17" xlink:href="#radial-gradient-2"/><radialGradient id="radial-gradient-7" cx="269.57" cy="124.86" r="1.66" xlink:href="#radial-gradient-3"/><radialGradient id="radial-gradient-8" cx="269.57" cy="124.86" r="1.29" xlink:href="#radial-gradient-3"/><linearGradient id="linear-gradient-10" x1="267.95" y1="121.88" x2="271.13" y2="121.88" xlink:href="#linear-gradient-2"/><linearGradient id="linear-gradient-11" x1="268.06" y1="121.89" x2="271.02" y2="121.89" xlink:href="#linear-gradient-3"/><linearGradient id="linear-gradient-12" x1="-923.03" y1="4914.63" x2="-919.84" y2="4914.63" gradientTransform="translate(-4346.68 -2271.03) rotate(-72)" xlink:href="#linear-gradient-2"/><linearGradient id="linear-gradient-13" x1="-922.91" y1="4914.64" x2="-919.96" y2="4914.64" gradientTransform="translate(-4346.68 -2271.03) rotate(-72)" xlink:href="#linear-gradient-3"/><linearGradient id="linear-gradient-14" x1="-5848.07" y1="5263.75" x2="-5844.88" y2="5263.75" gradientTransform="translate(-7779.81 949.1) rotate(-144)" xlink:href="#linear-gradient-2"/><linearGradient id="linear-gradient-15" x1="-5847.95" y1="5263.76" x2="-5845" y2="5263.76" gradientTransform="translate(-7779.81 949.1) rotate(-144)" xlink:href="#linear-gradient-3"/><linearGradient id="linear-gradient-16" x1="-7702.75" y1="686.85" x2="-7699.56" y2="686.85" gradientTransform="translate(-5778.98 5209.66) rotate(144)" xlink:href="#linear-gradient-2"/><linearGradient id="linear-gradient-17" x1="-7702.63" y1="686.86" x2="-7699.68" y2="686.86" gradientTransform="translate(-5778.98 5209.66) rotate(144)" xlink:href="#linear-gradient-3"/><linearGradient id="linear-gradient-18" x1="-3922.68" y1="-2491.56" x2="-3919.5" y2="-2491.56" gradientTransform="translate(-1109.54 4623.15) rotate(72)" xlink:href="#linear-gradient-2"/><linearGradient id="linear-gradient-19" x1="-3922.57" y1="-2491.55" x2="-3919.61" y2="-2491.55" gradientTransform="translate(-1109.54 4623.15) rotate(72)" xlink:href="#linear-gradient-3"/><radialGradient id="radial-gradient-9" cx="292.5" cy="124.86" r="4.85" xlink:href="#radial-gradient"/><radialGradient id="radial-gradient-10" cx="292.5" cy="124.86" r="4.17" xlink:href="#radial-gradient-2"/><radialGradient id="radial-gradient-11" cx="292.5" cy="124.86" r="1.66" xlink:href="#radial-gradient-3"/><radialGradient id="radial-gradient-12" cx="292.5" cy="124.86" r="1.29" xlink:href="#radial-gradient-3"/><linearGradient id="linear-gradient-20" x1="290.88" y1="121.88" x2="294.07" y2="121.88" xlink:href="#linear-gradient-2"/><linearGradient id="linear-gradient-21" x1="291" y1="121.89" x2="293.95" y2="121.89" xlink:href="#linear-gradient-3"/><linearGradient id="linear-gradient-22" x1="-915.94" y1="4936.44" x2="-912.76" y2="4936.44" gradientTransform="translate(-4346.68 -2271.03) rotate(-72)" xlink:href="#linear-gradient-2"/><linearGradient id="linear-gradient-23" x1="-915.83" y1="4936.45" x2="-912.87" y2="4936.45" gradientTransform="translate(-4346.68 -2271.03) rotate(-72)" xlink:href="#linear-gradient-3"/><linearGradient id="linear-gradient-24" x1="-5866.62" y1="5277.23" x2="-5863.44" y2="5277.23" gradientTransform="translate(-7779.81 949.1) rotate(-144)" xlink:href="#linear-gradient-2"/><linearGradient id="linear-gradient-25" x1="-5866.51" y1="5277.24" x2="-5863.55" y2="5277.24" gradientTransform="translate(-7779.81 949.1) rotate(-144)" xlink:href="#linear-gradient-3"/><linearGradient id="linear-gradient-26" x1="-7721.3" y1="673.37" x2="-7718.11" y2="673.37" gradientTransform="translate(-5778.98 5209.66) rotate(144)" xlink:href="#linear-gradient-2"/><linearGradient id="linear-gradient-27" x1="-7721.18" y1="673.38" x2="-7718.23" y2="673.38" gradientTransform="translate(-5778.98 5209.66) rotate(144)" xlink:href="#linear-gradient-3"/><linearGradient id="linear-gradient-28" x1="-3915.6" y1="-2513.37" x2="-3912.41" y2="-2513.37" gradientTransform="translate(-1109.54 4623.15) rotate(72)" xlink:href="#linear-gradient-2"/><linearGradient id="linear-gradient-29" x1="-3915.48" y1="-2513.36" x2="-3912.53" y2="-2513.36" gradientTransform="translate(-1109.54 4623.15) rotate(72)" xlink:href="#linear-gradient-3"/><linearGradient id="linear-gradient-30" x1="284.83" y1="130.97" x2="290.08" y2="130.97" xlink:href="#linear-gradient"/></defs><title>nave_mando</title><g id="Capa_2" data-name="Capa 2"><g id="Layer_1" data-name="Layer 1"><path class="cls-1" d="M40.23,135.33a2.1,2.1,0,0,0,2.11,2.09H71.23a2.1,2.1,0,0,0,2.11-2.09l1.57-15.11-.73-35.66a2.1,2.1,0,0,0-2.11-2.09H42.41a2.1,2.1,0,0,0-2.11,2.09l-1.41,35.6Z"/><path class="cls-2" d="M72.77,135.32l1.28-12.61s.12-.81-1.28-.81H40.61s-.7-.23-.64,1,.64,12.27.64,12.27Z"/><path class="cls-3" d="M40,120.62a.7.7,0,0,0,.69.7H73.36a.7.7,0,0,0,.69-.7V108.33a.7.7,0,0,0-.69-.7H40.66a.7.7,0,0,0-.69.7Z"/><ellipse class="cls-4" cx="51.22" cy="130.97" rx="2.63" ry="1.68"/><path class="cls-5" d="M51.93,130a.15.15,0,0,1-.15.15H50.66a.15.15,0,0,1-.15-.15h0a.15.15,0,0,1,.15-.15h1.12a.15.15,0,0,1,.15.15Z"/><path class="cls-6" d="M50.33,130.69h1.78a.22.22,0,0,1,.22.22v.89a.22.22,0,0,1-.22.22h-.24c.14.27-.17.52-.17.52a0,0,0,0,1-.06,0,0,0,0,0,1,0-.06s.29-.23.12-.45h-.39c.14.27-.17.52-.17.52a0,0,0,0,1-.06,0,0,0,0,0,1,0-.06s.29-.23.12-.45h-.39c.14.27-.17.52-.17.52a0,0,0,0,1-.06,0,0,0,0,0,1,0-.06s.29-.23.12-.45h-.42a.22.22,0,0,1-.22-.22v-.89a.22.22,0,0,1,.22-.22Zm.42.71a.31.31,0,0,0,0,.49l0,0h.37a.4.4,0,0,1,0-.59l-.11-.11h.29v.29l-.11-.11a.31.31,0,0,0,0,.49l0,0h.37a.4.4,0,0,1,0-.59l-.11-.11h.29v.29l-.11-.11a.31.31,0,0,0,0,.49l0,0h.31a.13.13,0,0,0,.13-.13v-.89a.13.13,0,0,0-.13-.13H50.33a.13.13,0,0,0-.09,0,.13.13,0,0,0,0,.09v.89a.13.13,0,0,0,.13.13h.33a.4.4,0,0,1,0-.59l-.11-.11h.29v.29l-.11-.11Z"/><circle class="cls-7" cx="57.3" cy="124.86" r="4.85"/><circle class="cls-8" cx="57.3" cy="124.86" r="4.17"/><circle class="cls-9" cx="57.3" cy="124.86" r="1.66"/><circle class="cls-10" cx="57.3" cy="124.86" r="1.29"/><path class="cls-11" d="M57.27,120.51a6.94,6.94,0,0,0-1.42.22.22.22,0,0,0-.17.27q.3,1,.58,2c0,.12.13.21.21.21a3.62,3.62,0,0,0,.52-.05,1.72,1.72,0,0,1,.67,0l.33.05a.38.38,0,0,0,.27-.21q.28-1,.58-2a.22.22,0,0,0-.17-.27A6.92,6.92,0,0,0,57.27,120.51Z"/><path class="cls-12" d="M57.28,120.6a6.31,6.31,0,0,0-1.32.21.21.21,0,0,0-.15.26q.28,1,.54,1.92c0,.11.12.2.19.2a3.31,3.31,0,0,0,.48-.05,1.51,1.51,0,0,1,.62,0l.31.05a.36.36,0,0,0,.25-.2q.26-1,.54-1.92a.21.21,0,0,0-.15-.26A6.29,6.29,0,0,0,57.28,120.6Z"/><polygon class="cls-5" points="56.76 121.26 57.21 120.81 57.67 121.26 56.76 121.26"/><path class="cls-13" d="M53,124.89a6.9,6.9,0,0,0,.22,1.42.22.22,0,0,0,.27.17l2-.58c.12,0,.21-.13.21-.21a3.62,3.62,0,0,0-.05-.52,1.69,1.69,0,0,1,0-.67,2,2,0,0,0,.05-.33.38.38,0,0,0-.21-.27l-2-.58a.22.22,0,0,0-.27.16A6.94,6.94,0,0,0,53,124.89Z"/><path class="cls-14" d="M53,124.89a6.28,6.28,0,0,0,.21,1.31.21.21,0,0,0,.26.15l1.92-.54c.11,0,.2-.12.2-.19a3.28,3.28,0,0,0-.05-.48,1.53,1.53,0,0,1,0-.62,1.75,1.75,0,0,0,.05-.31.36.36,0,0,0-.2-.25l-1.92-.54a.21.21,0,0,0-.26.15A6.29,6.29,0,0,0,53,124.89Z"/><polygon class="cls-5" points="53.7 125.41 53.25 124.95 53.7 124.49 53.7 125.41"/><path class="cls-15" d="M57.33,129.21a7,7,0,0,0,1.42-.22.22.22,0,0,0,.17-.27q-.3-1-.58-2c0-.12-.13-.21-.21-.21a3.57,3.57,0,0,0-.52.05,1.7,1.7,0,0,1-.67,0,1.9,1.9,0,0,0-.33-.05.38.38,0,0,0-.27.21q-.28,1-.58,2a.22.22,0,0,0,.17.27A6.94,6.94,0,0,0,57.33,129.21Z"/><path class="cls-16" d="M57.33,129.13a6.32,6.32,0,0,0,1.32-.21.21.21,0,0,0,.15-.26q-.28-1-.54-1.92c0-.11-.12-.2-.19-.2a3.29,3.29,0,0,0-.48.05,1.52,1.52,0,0,1-.62,0l-.31-.05a.36.36,0,0,0-.25.2q-.26,1-.54,1.92a.21.21,0,0,0,.15.26A6.31,6.31,0,0,0,57.33,129.13Z"/><polygon class="cls-5" points="57.85 128.46 57.39 128.92 56.94 128.46 57.85 128.46"/><path class="cls-17" d="M61.65,124.83a7,7,0,0,0-.22-1.42.22.22,0,0,0-.27-.17l-2,.58c-.12,0-.21.13-.21.21a3.7,3.7,0,0,0,.05.52,1.69,1.69,0,0,1,0,.67,2,2,0,0,0-.05.33.38.38,0,0,0,.21.27l2,.58a.22.22,0,0,0,.27-.17A7,7,0,0,0,61.65,124.83Z"/><path class="cls-18" d="M61.57,124.83a6.29,6.29,0,0,0-.21-1.31.21.21,0,0,0-.26-.15l-1.92.54c-.11,0-.2.12-.2.19a3.32,3.32,0,0,0,.05.48,1.53,1.53,0,0,1,0,.62,1.77,1.77,0,0,0-.05.31.36.36,0,0,0,.2.25l1.92.54a.21.21,0,0,0,.26-.15A6.29,6.29,0,0,0,61.57,124.83Z"/><polygon class="cls-5" points="60.91 124.31 61.36 124.77 60.91 125.23 60.91 124.31"/><path class="cls-6" d="M53.92,125l-.05.15H53.8l.17-.48H54l.17.48h-.07l-.05-.15Zm.16,0,0-.14,0-.09h0l0,.09,0,.14Z"/><path class="cls-6" d="M54.32,124.67V125c0,.11,0,.15.11.15s.12,0,.12-.15v-.29h.06v.28c0,.15-.08.21-.18.21s-.17-.06-.17-.21v-.28Z"/><path class="cls-6" d="M54.82,124.72h-.15v-.05H55v.05h-.15v.43h-.06Z"/><path class="cls-6" d="M55.48,124.9a.23.23,0,0,1-.22.25.22.22,0,0,1-.22-.25.23.23,0,0,1,.22-.25A.22.22,0,0,1,55.48,124.9Zm-.38,0c0,.1.06.2.15.2s.16-.09.16-.2-.05-.2-.15-.2S55.1,124.8,55.1,124.91Z"/><path class="cls-6" d="M56.36,127.44h.13a.28.28,0,0,1,.2.06.22.22,0,0,1,.07.17.26.26,0,0,1-.07.19.3.3,0,0,1-.21.07h-.11Zm.06.43h.06a.19.19,0,0,0,.21-.21.17.17,0,0,0-.2-.19h-.07Z"/><path class="cls-6" d="M57.25,127.67a.23.23,0,0,1-.22.25.22.22,0,0,1-.22-.25.23.23,0,0,1,.22-.25A.22.22,0,0,1,57.25,127.67Zm-.38,0c0,.1.06.2.16.2s.15-.09.15-.2-.05-.2-.15-.2S56.88,127.57,56.88,127.67Z"/><path class="cls-6" d="M57.41,127.91l-.12-.48h.07l.06.24,0,.17h0s0-.11,0-.17l.06-.24h.07l.06.25c0,.06,0,.12,0,.17h0c0-.05,0-.11,0-.17l.06-.24h.06l-.14.48h-.07l-.06-.25c0-.06,0-.11,0-.16h0a1.42,1.42,0,0,1,0,.16l-.07.25Z"/><path class="cls-6" d="M57.94,127.91v-.48H58l.15.24.09.16h0c0-.06,0-.12,0-.2v-.2h.06v.48h-.06l-.15-.25-.09-.16h0c0,.06,0,.12,0,.2v.21Z"/><path class="cls-6" d="M59.56,124.91l0,.15h-.06l.17-.48h.07l.17.48h-.07l-.05-.15Zm.16,0,0-.14,0-.09h0l0,.09,0,.14Z"/><path class="cls-6" d="M59.87,125.09l.2-.52h.05l-.2.52Z"/><path class="cls-6" d="M60.51,125a.31.31,0,0,1-.13,0,.23.23,0,0,1-.24-.25.24.24,0,0,1,.25-.25.26.26,0,0,1,.11,0l0,.05-.1,0a.18.18,0,0,0-.19.2.18.18,0,0,0,.18.19l.1,0Z"/><path class="cls-6" d="M57.09,121.48v.29c0,.11,0,.15.11.15s.12,0,.12-.15v-.29h.06v.28c0,.15-.08.21-.18.21s-.17-.06-.17-.21v-.28Z"/><path class="cls-6" d="M57.49,121.48h.12a.2.2,0,0,1,.14,0,.13.13,0,0,1,0,.1.15.15,0,0,1,0,.1.2.2,0,0,1-.15.05h-.05V122h-.06Zm.06.23h.05c.08,0,.12,0,.12-.1s0-.1-.11-.1h-.06Z"/><path class="cls-6" d="M56.6,122.23h-.15v-.05h.36v.05h-.15v.43H56.6Z"/><path class="cls-6" d="M57.11,122.43h-.19v.17h.21v.05h-.27v-.48h.26v.05h-.2v.15h.19Z"/><path class="cls-6" d="M57.62,122.45c0-.07,0-.15,0-.21h0l-.06.18-.09.23h0l-.08-.23c0-.07,0-.13-.06-.19h0c0,.06,0,.14,0,.21v.21H57.2l0-.48h.08l.08.23,0,.16h0l.05-.16.09-.23h.08l0,.48h-.06Z"/><path class="cls-6" d="M57.79,122.18h.12a.2.2,0,0,1,.14,0,.13.13,0,0,1,0,.1.14.14,0,0,1,0,.1.2.2,0,0,1-.15.05h-.05v.19h-.06Zm.06.23h.05c.08,0,.12,0,.12-.1s0-.1-.11-.1h-.06Z"/><circle class="cls-19" cx="45.74" cy="124.86" r="4.85"/><circle class="cls-20" cx="45.74" cy="124.86" r="4.17"/><circle class="cls-21" cx="45.74" cy="124.86" r="1.66"/><circle class="cls-22" cx="45.74" cy="124.86" r="1.29"/><path class="cls-23" d="M45.71,120.51a6.93,6.93,0,0,0-1.42.22.22.22,0,0,0-.17.27q.3,1,.58,2c0,.12.13.21.21.21a3.63,3.63,0,0,0,.52-.05,1.72,1.72,0,0,1,.67,0l.33.05a.38.38,0,0,0,.27-.21q.28-1,.58-2a.22.22,0,0,0-.17-.27A6.93,6.93,0,0,0,45.71,120.51Z"/><path class="cls-24" d="M45.71,120.6a6.31,6.31,0,0,0-1.32.21.21.21,0,0,0-.15.26q.28,1,.54,1.92c0,.11.12.2.19.2a3.31,3.31,0,0,0,.48-.05,1.51,1.51,0,0,1,.62,0l.31.05a.36.36,0,0,0,.25-.2q.26-1,.54-1.92a.21.21,0,0,0-.15-.26A6.3,6.3,0,0,0,45.71,120.6Z"/><path class="cls-25" d="M41.6,123.55a6.91,6.91,0,0,0-.23,1.42.22.22,0,0,0,.21.24l2.11.07a.27.27,0,0,0,.27-.13,3.62,3.62,0,0,0,.11-.51,1.69,1.69,0,0,1,.21-.64,1.91,1.91,0,0,0,.15-.3.39.39,0,0,0-.12-.33l-1.75-1.18a.22.22,0,0,0-.31.07A6.89,6.89,0,0,0,41.6,123.55Z"/><path class="cls-26" d="M41.68,123.57a6.3,6.3,0,0,0-.21,1.32.21.21,0,0,0,.2.23l2,.08a.25.25,0,0,0,.25-.12,3.33,3.33,0,0,0,.1-.47,1.46,1.46,0,0,1,.07-.31,1.47,1.47,0,0,1,.13-.29,1.73,1.73,0,0,0,.14-.28.36.36,0,0,0-.11-.3l-1.66-1.11a.21.21,0,0,0-.29.07A6.26,6.26,0,0,0,41.68,123.57Z"/><path class="cls-27" d="M43.21,128.4a6.88,6.88,0,0,0,1.28.65.22.22,0,0,0,.3-.12q.35-1,.72-2a.27.27,0,0,0,0-.29,3.74,3.74,0,0,0-.45-.26,1.68,1.68,0,0,1-.54-.4,2,2,0,0,0-.24-.24.39.39,0,0,0-.35,0l-1.66,1.3a.22.22,0,0,0,0,.32A6.93,6.93,0,0,0,43.21,128.4Z"/><path class="cls-28" d="M43.26,128.33a6.21,6.21,0,0,0,1.19.6.21.21,0,0,0,.28-.12q.34-.94.69-1.87a.25.25,0,0,0,0-.28,3.41,3.41,0,0,0-.42-.24,1.46,1.46,0,0,1-.27-.16,1.43,1.43,0,0,1-.23-.21,1.81,1.81,0,0,0-.22-.22.36.36,0,0,0-.32,0l-1.56,1.24a.21.21,0,0,0,0,.3A6.3,6.3,0,0,0,43.26,128.33Z"/><path class="cls-29" d="M48.32,128.36a7,7,0,0,0,1-1,.22.22,0,0,0,0-.32l-1.66-1.3a.27.27,0,0,0-.29,0A3.65,3.65,0,0,0,47,126a1.54,1.54,0,0,1-.25.23,1.6,1.6,0,0,1-.29.17,2,2,0,0,0-.3.15.39.39,0,0,0-.1.33q.37,1,.72,2A.22.22,0,0,0,47,129,6.93,6.93,0,0,0,48.32,128.36Z"/><path class="cls-30" d="M48.27,128.29a6.27,6.27,0,0,0,.94-.94.21.21,0,0,0,0-.3l-1.56-1.24a.25.25,0,0,0-.27,0,3.4,3.4,0,0,0-.36.32,1.52,1.52,0,0,1-.5.37,1.76,1.76,0,0,0-.28.14.36.36,0,0,0-.09.31q.35.93.69,1.87a.21.21,0,0,0,.28.12A6.31,6.31,0,0,0,48.27,128.29Z"/><path class="cls-31" d="M49.87,123.49a6.94,6.94,0,0,0-.65-1.28.22.22,0,0,0-.31-.07l-1.75,1.18a.27.27,0,0,0-.14.26,3.76,3.76,0,0,0,.21.48,1.69,1.69,0,0,1,.21.64,2,2,0,0,0,.05.33.38.38,0,0,0,.29.19l2.11-.07a.22.22,0,0,0,.21-.24A6.93,6.93,0,0,0,49.87,123.49Z"/><path class="cls-32" d="M49.79,123.52a6.27,6.27,0,0,0-.61-1.19.21.21,0,0,0-.29-.07l-1.66,1.11a.25.25,0,0,0-.13.24,3.34,3.34,0,0,0,.2.44,1.55,1.55,0,0,1,.19.59,1.75,1.75,0,0,0,0,.31.36.36,0,0,0,.27.18l2-.08a.21.21,0,0,0,.2-.23A6.29,6.29,0,0,0,49.79,123.52Z"/><polygon class="cls-5" points="45.2 121.26 45.65 120.81 46.11 121.26 45.2 121.26"/><polygon class="cls-5" points="42.15 124.27 41.86 123.69 42.43 123.4 42.15 124.27"/><polygon class="cls-5" points="44.07 128.1 43.43 128.19 43.33 127.56 44.07 128.1"/><polygon class="cls-5" points="48.3 127.45 48.2 128.09 47.56 127.99 48.3 127.45"/><polygon class="cls-5" points="49 123.23 49.57 123.52 49.28 124.1 49 123.23"/><circle class="cls-6" cx="45.67" cy="122.14" r="0.45"/><circle class="cls-6" cx="43.12" cy="124.12" r="0.32" transform="translate(-88.25 126.76) rotate(-72)"/><path class="cls-6" d="M48.08,123.68v.2h.23v-.2h.06v.48h-.06v-.23h-.23v.23H48v-.48Z"/><path class="cls-6" d="M48.55,123.68v.48h-.06v-.48Z"/><path class="cls-6" d="M43.77,126.9h.06v.43H44v.05h-.27Z"/><path class="cls-6" d="M44.49,127.14a.23.23,0,0,1-.22.26.22.22,0,0,1-.22-.25.23.23,0,0,1,.22-.25A.22.22,0,0,1,44.49,127.14Zm-.38,0c0,.1.06.2.15.2s.16-.09.16-.2-.05-.2-.15-.2S44.12,127,44.12,127.15Z"/><path class="cls-6" d="M47.85,127a.23.23,0,0,1-.22.25.22.22,0,0,1-.22-.25.23.23,0,0,1,.22-.25A.22.22,0,0,1,47.85,127Zm-.38,0c0,.1.06.2.15.2s.16-.09.16-.2-.05-.2-.15-.2S47.47,126.93,47.47,127Z"/><path class="cls-6" d="M47.93,126.8h.26v.05H48V127h.18v.05H48v.22h-.06Z"/><path class="cls-6" d="M48.28,126.8h.26v.05h-.2V127h.18v.05h-.18v.22h-.06Z"/><path class="cls-6" d="M47.24,126.81a.55.55,0,0,0-.21-.11.18.18,0,0,0-.17,0,.3.3,0,0,0-.07.09,1.12,1.12,0,0,1,0-.11.17.17,0,0,0,0-.11l0,0h0a.14.14,0,0,0-.1.06.53.53,0,0,0-.11.21.18.18,0,0,0,0,.16.3.3,0,0,0,.1.07h-.14a.16.16,0,0,0-.11,0l0,0a.1.1,0,0,0,0,0,.13.13,0,0,0,.06.1.55.55,0,0,0,.21.11.18.18,0,0,0,.17,0,.29.29,0,0,0,.07-.09,1,1,0,0,1,0,.11.17.17,0,0,0,0,.11l0,0h0a.13.13,0,0,0,.1-.06.53.53,0,0,0,.11-.21.18.18,0,0,0,0-.17L47,127h.13a.18.18,0,0,0,.11,0l0,0a.09.09,0,0,0,0,0A.13.13,0,0,0,47.24,126.81Z"/><circle class="cls-33" cx="68.68" cy="124.86" r="4.85"/><circle class="cls-34" cx="68.68" cy="124.86" r="4.17"/><circle class="cls-35" cx="68.68" cy="124.86" r="1.66"/><circle class="cls-36" cx="68.68" cy="124.86" r="1.29"/><path class="cls-37" d="M68.65,120.51a6.93,6.93,0,0,0-1.42.22.22.22,0,0,0-.16.27q.3,1,.58,2c0,.12.13.21.21.21a3.62,3.62,0,0,0,.52-.05,1.72,1.72,0,0,1,.67,0l.33.05a.38.38,0,0,0,.27-.21q.28-1,.58-2a.22.22,0,0,0-.17-.27A6.93,6.93,0,0,0,68.65,120.51Z"/><path class="cls-38" d="M68.65,120.6a6.32,6.32,0,0,0-1.32.21.21.21,0,0,0-.15.26q.28,1,.54,1.92c0,.11.12.2.19.2a3.3,3.3,0,0,0,.48-.05,1.51,1.51,0,0,1,.62,0l.31.05a.36.36,0,0,0,.25-.2q.26-1,.54-1.92a.21.21,0,0,0-.15-.26A6.29,6.29,0,0,0,68.65,120.6Z"/><path class="cls-39" d="M64.53,123.55a7,7,0,0,0-.23,1.42.22.22,0,0,0,.21.24l2.11.07a.27.27,0,0,0,.27-.13,3.69,3.69,0,0,0,.11-.51,1.57,1.57,0,0,1,.07-.33,1.59,1.59,0,0,1,.14-.31,2,2,0,0,0,.15-.3.39.39,0,0,0-.12-.33l-1.75-1.18a.22.22,0,0,0-.31.07A7,7,0,0,0,64.53,123.55Z"/><path class="cls-40" d="M64.61,123.57a6.35,6.35,0,0,0-.21,1.32.21.21,0,0,0,.2.23l2,.08a.25.25,0,0,0,.25-.12,3.42,3.42,0,0,0,.1-.47,1.44,1.44,0,0,1,.07-.31,1.48,1.48,0,0,1,.13-.29,1.75,1.75,0,0,0,.14-.28.36.36,0,0,0-.11-.3l-1.66-1.11a.21.21,0,0,0-.29.07A6.31,6.31,0,0,0,64.61,123.57Z"/><path class="cls-41" d="M66.15,128.4a6.87,6.87,0,0,0,1.28.65.22.22,0,0,0,.3-.12q.35-1,.72-2a.27.27,0,0,0,0-.29,3.72,3.72,0,0,0-.45-.26,1.67,1.67,0,0,1-.54-.4,2,2,0,0,0-.24-.24.39.39,0,0,0-.35,0l-1.66,1.3a.22.22,0,0,0,0,.32A7,7,0,0,0,66.15,128.4Z"/><path class="cls-42" d="M66.19,128.33a6.2,6.2,0,0,0,1.19.6.21.21,0,0,0,.28-.12q.34-.94.69-1.87a.25.25,0,0,0,0-.28,3.38,3.38,0,0,0-.42-.24,1.46,1.46,0,0,1-.27-.16,1.44,1.44,0,0,1-.23-.21,1.74,1.74,0,0,0-.22-.22.36.36,0,0,0-.32,0l-1.56,1.24a.21.21,0,0,0,0,.3A6.23,6.23,0,0,0,66.19,128.33Z"/><path class="cls-43" d="M71.26,128.36a6.92,6.92,0,0,0,1-1,.22.22,0,0,0,0-.32l-1.66-1.3a.27.27,0,0,0-.29,0,3.63,3.63,0,0,0-.39.35,1.56,1.56,0,0,1-.25.23,1.6,1.6,0,0,1-.29.17,2,2,0,0,0-.3.15.39.39,0,0,0-.1.33q.37,1,.72,2A.22.22,0,0,0,70,129,6.94,6.94,0,0,0,71.26,128.36Z"/><path class="cls-44" d="M71.21,128.29a6.26,6.26,0,0,0,.94-.94.21.21,0,0,0,0-.3l-1.56-1.24a.25.25,0,0,0-.27,0,3.43,3.43,0,0,0-.36.32,1.51,1.51,0,0,1-.5.37,1.75,1.75,0,0,0-.28.14.36.36,0,0,0-.09.31q.35.93.69,1.87a.21.21,0,0,0,.28.12A6.33,6.33,0,0,0,71.21,128.29Z"/><path class="cls-45" d="M72.8,123.49a6.9,6.9,0,0,0-.65-1.28.22.22,0,0,0-.31-.07l-1.75,1.18a.27.27,0,0,0-.14.26,3.76,3.76,0,0,0,.21.48,1.55,1.55,0,0,1,.14.31,1.6,1.6,0,0,1,.07.33,1.94,1.94,0,0,0,.05.33.38.38,0,0,0,.29.19l2.11-.07a.22.22,0,0,0,.21-.24A7,7,0,0,0,72.8,123.49Z"/><path class="cls-46" d="M72.72,123.52a6.28,6.28,0,0,0-.61-1.19.21.21,0,0,0-.29-.07l-1.66,1.11a.25.25,0,0,0-.13.24,3.3,3.3,0,0,0,.2.44,1.52,1.52,0,0,1,.19.59,1.84,1.84,0,0,0,0,.31.36.36,0,0,0,.27.18l2-.08a.21.21,0,0,0,.2-.23A6.29,6.29,0,0,0,72.72,123.52Z"/><polygon class="cls-5" points="68.13 121.26 68.59 120.81 69.05 121.26 68.13 121.26"/><polygon class="cls-5" points="65.08 124.27 64.79 123.69 65.36 123.4 65.08 124.27"/><polygon class="cls-5" points="67 128.1 66.37 128.19 66.26 127.56 67 128.1"/><polygon class="cls-5" points="71.24 127.45 71.13 128.09 70.5 127.99 71.24 127.45"/><polygon class="cls-5" points="71.93 123.23 72.5 123.52 72.22 124.1 71.93 123.23"/><path class="cls-6" d="M68.68,121.56h0a2.48,2.48,0,0,1,.47,0,2.43,2.43,0,0,1,.45.14h0a0,0,0,0,1,0,.05l-.36.81h0a0,0,0,0,1-.05,0l-.18-.06c0,.14.12.27.12.27a0,0,0,0,1,0,0,0,0,0,0,1,0,0s-.2-.16-.15-.34h0l-.27,0h0c-.09.16.1.32.11.32a0,0,0,1,1,0,.05s-.22-.18-.14-.37l-.19,0-.13,0c0,.14.13.26.13.26a0,0,0,0,1,0,0,0,0,0,0,1,0,0,.42.42,0,0,1-.16-.29l-.06,0a0,0,0,0,1-.05,0l-.36-.81h0a0,0,0,0,1,0-.05,2.46,2.46,0,0,1,.45-.14,2.49,2.49,0,0,1,.47,0Zm.39.47-.08.08v-.22h.22l-.09.09a.3.3,0,0,1,0,.47l0,0,.13,0,.33-.73a2.32,2.32,0,0,0-.4-.12,2.26,2.26,0,0,0-.92,0,2.32,2.32,0,0,0-.4.12l.33.73.08,0a.33.33,0,0,1,.09-.11.24.24,0,0,0,0-.37l-.08.08v-.22h.22l-.09.09a.3.3,0,0,1,0,.47l0,0h.06l.26,0,0,0a.24.24,0,0,0,0-.37l-.08.08v-.22h.22l-.09.09a.3.3,0,0,1,0,.46l.22,0h0l.07-.07a.24.24,0,0,0,0-.37Z"/><path class="cls-6" d="M67.39,126.6h0l-.26-.14h0v.05H66.8v.15h.29v.05h0l.26-.14S67.39,126.6,67.39,126.6Z"/><path class="cls-6" d="M66.66,127.36h0l.14-.26a0,0,0,0,0,0,0h-.06v-.29h-.15v.29h-.05v0h0l.14.26Z"/><path class="cls-6" d="M67.62,126.78h-.07c-.19.09-.08.42-.34.41a.72.72,0,0,0-.35,0c-.08,0-.36.46-.2.48s.16-.13.2-.2.12-.12.25-.12.32,0,.39,0a.6.6,0,0,0,.14-.25c0-.07.1-.18.08-.26A.12.12,0,0,0,67.62,126.78Z"/><circle class="cls-6" cx="67.7" cy="126.6" r="0.14"/><path class="cls-6" d="M66.22,123.61h0l-.26-.14h0v.05h-.29v.15h.29v.05h0l.26-.14S66.23,123.61,66.22,123.61Z"/><path class="cls-6" d="M66.46,123.79h-.07c-.19.09-.08.42-.34.41a.72.72,0,0,0-.34,0c-.08,0-.36.46-.2.48s.16-.14.2-.2.12-.12.25-.12.32,0,.39,0a.61.61,0,0,0,.14-.25c0-.07.1-.18.08-.26A.13.13,0,0,0,66.46,123.79Z"/><circle class="cls-6" cx="66.53" cy="123.61" r="0.14"/><path class="cls-6" d="M69.92,127.38h0l.14-.26a0,0,0,0,0,0,0H70v-.29h-.15v.29h-.05s0,0,0,0h0l.14.26Z"/><path class="cls-6" d="M70.88,126.79h-.07c-.19.09-.08.42-.34.41a.73.73,0,0,0-.35,0c-.08,0-.35.46-.2.48s.16-.14.2-.2.12-.12.25-.12.32,0,.39,0a.59.59,0,0,0,.14-.25c0-.07.1-.18.08-.26A.12.12,0,0,0,70.88,126.79Z"/><circle class="cls-6" cx="70.96" cy="126.62" r="0.14"/><path class="cls-6" d="M71.1,123.21l.19,0,.18.05a0,0,0,0,1,0,0h0l-.14.32h0a.17.17,0,0,1-.06.11h0a0,0,0,0,1,0,0s.06,0,.05-.1h-.13c0,.08-.06.14-.06.14h0a0,0,0,0,1,0,0s.08-.06,0-.12H71c0,.07-.06.13-.06.13h0a0,0,0,0,1,0,0s.06-.05,0-.11l-.07,0h0l-.14-.32a0,0,0,0,1,0,0h0l.18-.05.19,0Zm-.15.19a.09.09,0,0,0,0,.15l0,0h.1a.12.12,0,0,1,0-.18l0,0h.09v.09l0,0a.09.09,0,0,0,0,.15l0,0h.11a.12.12,0,0,1,0-.19l0,0h.09v.09l0,0a.09.09,0,0,0,0,.15l0,0h0l.13-.29-.16,0-.18,0-.18,0-.16,0,.13.29.05,0,0,0a.12.12,0,0,1,0-.19l0,0H71v.09l0,0Z"/><path class="cls-6" d="M70.64,124.25h0l.14-.26a0,0,0,0,0,0,0h-.06v-.29h-.15V124h-.05v0h0l.14.26Z"/><path class="cls-6" d="M71.61,123.66h-.07c-.19.09-.08.42-.34.41a.71.71,0,0,0-.34,0c-.08,0-.36.46-.2.48s.16-.14.2-.2.12-.12.25-.12.32,0,.39,0a.59.59,0,0,0,.14-.25c0-.07.1-.18.08-.26A.12.12,0,0,0,71.61,123.66Z"/><circle class="cls-6" cx="71.68" cy="123.49" r="0.14"/><rect class="cls-47" x="40.92" y="112.78" width="32.24" height="6.05" rx="0.22" ry="0.22"/><rect class="cls-48" x="41.84" y="113.38" width="30.41" height="4.85" rx="0.55" ry="0.55"/><rect class="cls-49" x="45.26" y="114.08" width="2.31" height="1.84" rx="0.22" ry="0.22"/><rect class="cls-49" x="42.85" y="114.08" width="2.31" height="1.84" rx="0.22" ry="0.22"/><path class="cls-6" d="M43.29,116.23v.2h.23v-.2h.06v.48h-.06v-.23h-.23v.23h-.06v-.48Z"/><path class="cls-6" d="M45.4,116.5c0-.07,0-.15,0-.21h0l-.06.18-.09.23h0l-.08-.23c0-.07,0-.13-.06-.19h0c0,.06,0,.14,0,.21v.21H45l0-.48h.08l.08.23,0,.16h0l.05-.16.09-.23h.08l0,.48h-.06Z"/><path class="cls-6" d="M46.56,116.35a0,0,0,0,1,0,0,0,0,0,0,1,0,.09A0,0,0,0,1,46.56,116.35Zm0,.25a0,0,0,0,1,0,0,0,0,0,0,1,0,0,0,0,0,1,1-.08,0Z"/><path class="cls-6" d="M47,116.47c0,.16-.06.25-.16.25s-.15-.08-.16-.24.07-.24.16-.24S47,116.32,47,116.47Zm-.25,0c0,.12,0,.19.09.19s.09-.08.09-.19,0-.19-.09-.19S46.76,116.35,46.76,116.48Z"/><path class="cls-6" d="M47.39,116.47c0,.16-.06.25-.16.25s-.15-.08-.16-.24.07-.24.16-.24S47.39,116.32,47.39,116.47Zm-.25,0c0,.12,0,.19.09.19s.09-.08.09-.19,0-.19-.09-.19S47.13,116.35,47.13,116.48Z"/><path class="cls-6" d="M45.92,115c0-.07,0-.15,0-.21h0l-.06.18-.09.23h0l-.08-.23c0-.07,0-.13-.06-.19h0c0,.06,0,.14,0,.21v.21H45.5l0-.48h.08l.08.23,0,.16h0l.05-.16.09-.23H46l0,.48h-.06Z"/><path class="cls-6" d="M46.5,115a.23.23,0,0,1-.22.25.22.22,0,0,1-.22-.25.23.23,0,0,1,.22-.25A.22.22,0,0,1,46.5,115Zm-.38,0c0,.1.06.2.15.2s.16-.09.16-.2-.05-.2-.15-.2S46.12,114.87,46.12,115Z"/><path class="cls-6" d="M46.58,114.74h.13a.28.28,0,0,1,.2.06A.22.22,0,0,1,47,115a.26.26,0,0,1-.07.19.3.3,0,0,1-.21.07h-.11Zm.06.43h.06a.19.19,0,0,0,.21-.21.17.17,0,0,0-.2-.19h-.07Z"/><path class="cls-6" d="M47.31,115h-.19v.17h.21v.05h-.27v-.48h.26v.05h-.2v.15h.19Z"/><path class="cls-6" d="M43.12,114.74h.12a.2.2,0,0,1,.14,0,.12.12,0,0,1,0,.09.13.13,0,0,1-.09.12h0a.12.12,0,0,1,.07.1.79.79,0,0,0,0,.13h-.06a.62.62,0,0,1,0-.12c0-.07,0-.09-.1-.09h-.06v.21h-.06Zm.06.22h.06c.07,0,.11,0,.11-.09s0-.09-.11-.09h-.06Z"/><path class="cls-6" d="M43.76,115h-.19v.17h.21v.05h-.27v-.48h.26v.05h-.2v.15h.19Z"/><path class="cls-6" d="M43.86,115.14a.21.21,0,0,0,.11,0c.06,0,.1,0,.1-.08S44,115,44,115s-.13-.07-.13-.14a.14.14,0,0,1,.16-.13.22.22,0,0,1,.11,0l0,.05a.18.18,0,0,0-.09,0c-.07,0-.09,0-.09.07s0,.07.1.09.12.07.12.14-.05.14-.17.14a.25.25,0,0,1-.12,0Z"/><path class="cls-6" d="M44.47,115h-.19v.17h.21v.05h-.27v-.48h.26v.05h-.2v.15h.19Z"/><path class="cls-6" d="M44.67,114.78h-.15v-.05h.36v.05h-.15v.43h-.06Z"/><path class="cls-6" d="M66.93,114.1h.12a.2.2,0,0,1,.14,0,.14.14,0,0,1,0,.1.14.14,0,0,1,0,.1.2.2,0,0,1-.15.05H67v.19h-.06Zm.06.23H67c.08,0,.12,0,.12-.1s0-.1-.11-.1H67Z"/><path class="cls-6" d="M67.34,114.42l-.05.15h-.06l.16-.48h.07l.16.48h-.07l-.05-.15Zm.16,0,0-.14,0-.09h0l0,.09,0,.14Z"/><path class="cls-6" d="M67.69,114.5a.21.21,0,0,0,.11,0c.06,0,.1,0,.1-.08s0-.07-.09-.1-.13-.07-.13-.14a.14.14,0,0,1,.16-.13.22.22,0,0,1,.11,0l0,.05a.18.18,0,0,0-.09,0c-.07,0-.09,0-.09.07s0,.07.1.09.12.07.12.14-.05.14-.17.14a.25.25,0,0,1-.12,0Z"/><path class="cls-6" d="M68,114.5a.21.21,0,0,0,.11,0c.06,0,.1,0,.1-.08s0-.07-.09-.1-.13-.07-.13-.14a.14.14,0,0,1,.16-.13.22.22,0,0,1,.11,0l0,.05a.18.18,0,0,0-.09,0c-.07,0-.09,0-.09.07s0,.07.1.09.12.07.12.14-.06.14-.17.14a.24.24,0,0,1-.12,0Z"/><path class="cls-6" d="M68.65,114.35h-.19v.17h.21v.05H68.4v-.48h.26v.05h-.2v.15h.19Z"/><path class="cls-6" d="M68.76,114.57v-.48h.07l.15.24.09.16h0c0-.06,0-.12,0-.2v-.2h.06v.48h-.06l-.15-.25a1.31,1.31,0,0,1-.09-.16h0c0,.06,0,.12,0,.2v.21Z"/><path class="cls-6" d="M69.6,114.55a.42.42,0,0,1-.15,0,.23.23,0,0,1-.25-.24.24.24,0,0,1,.26-.25.3.3,0,0,1,.12,0v.05l-.11,0a.18.18,0,0,0-.19.19.18.18,0,0,0,.19.2h.08v-.14h-.1v0h.16Z"/><path class="cls-6" d="M69.94,114.35h-.19v.17H70v.05h-.27v-.48H70v.05h-.2v.15h.19Z"/><path class="cls-6" d="M70,114.1h.12a.2.2,0,0,1,.14,0,.12.12,0,0,1,0,.09.13.13,0,0,1-.09.12h0a.12.12,0,0,1,.07.1.9.9,0,0,0,0,.13H70.3a.57.57,0,0,1,0-.12c0-.07,0-.09-.1-.09h-.06v.21H70Zm.06.22h.06c.07,0,.11,0,.11-.09s0-.09-.11-.09h-.06Z"/><rect class="cls-50" x="48.28" y="113.97" width="17.51" height="3.68" rx="0.55" ry="0.55"/><rect class="cls-49" x="42.82" y="116.94" width="1.18" height="0.74" rx="0.11" ry="0.11"/><rect class="cls-49" x="44.64" y="116.94" width="1.18" height="0.74" rx="0.11" ry="0.11"/><rect class="cls-49" x="46.39" y="116.94" width="1.18" height="0.74" rx="0.11" ry="0.11"/><path class="cls-51" d="M67.14,116.26l.1.22a.05.05,0,0,1,0,.07l-.06,0a.05.05,0,0,1-.06,0l-.12-.28a.07.07,0,0,1,0,0s0-.06,0-.09l-.2.13a0,0,0,1,1,0-.07l.16-.11h.92l.15.1a0,0,0,1,1,0,.07l-.21-.14s0,.08,0,.1a.07.07,0,0,1,0,0l-.12.28s0,0-.06,0l-.06,0a.05.05,0,0,1,0-.07l.1-.22h-.39Zm-.17-.35c0-.14,0-.28,0-.32s.14-.12.18-.12.06-.08.07-.09a.21.21,0,0,1-.06-.15.19.19,0,1,1,.38,0,.22.22,0,0,1-.07.16l0,.05-.52.47Zm.66-.42a.11.11,0,0,1,.08.1c0,.05,0,.22,0,.38h-.6l.52-.48Z"/><path class="cls-52" d="M71.39,117.23l-.05,0-.14-.13a.25.25,0,0,0-.13-.06h-.49a.19.19,0,0,0-.12.06l-.11.12h-.23a.14.14,0,0,0-.1,0,.12.12,0,0,0,0,.09v.13a.12.12,0,0,0,0,.09.14.14,0,0,0,.1,0h0a.15.15,0,0,0,.29,0h.5a.15.15,0,0,0,.29,0h0a.14.14,0,0,0,.1,0,.11.11,0,0,0,0-.09v-.13A.12.12,0,0,0,71.39,117.23Z"/><ellipse class="cls-53" cx="63.63" cy="130.97" rx="2.62" ry="1.68"/><path class="cls-5" d="M64.34,130a.15.15,0,0,1-.15.15H63.07a.15.15,0,0,1-.15-.15h0a.15.15,0,0,1,.15-.15h1.12a.15.15,0,0,1,.15.15Z"/><path class="cls-6" d="M64.33,132.11a.26.26,0,0,1-.26-.2h-.89a.26.26,0,0,1-.51,0H62.6a.24.24,0,0,1-.24-.24v-.26a.24.24,0,0,1,.24-.24H63a2,2,0,0,1,.19-.24.34.34,0,0,1,.21-.13h.86a.41.41,0,0,1,.23.13,2.41,2.41,0,0,1,.25.26.25.25,0,0,1,.1.08.25.25,0,0,1,0,.14v.26a.24.24,0,0,1-.07.17.24.24,0,0,1-.17.07h-.07A.26.26,0,0,1,64.33,132.11Zm-1.25-.31h1.09v.05a.15.15,0,0,0,.31,0v-.05h.17a.13.13,0,0,0,.13-.13v-.26a.13.13,0,0,0,0-.08l-.06,0h0a2.38,2.38,0,0,0-.25-.26c-.11-.1-.16-.1-.16-.1h-.86s0,0-.13.09a1.84,1.84,0,0,0-.2.25l0,0H62.6a.13.13,0,0,0-.13.13v.26a.13.13,0,0,0,.13.13h.17v.05a.15.15,0,0,0,.31,0Z"/><path class="cls-6" d="M64.34,131.57l-.24-.07v0h-.67l-.06,0a.08.08,0,0,1,0-.06v-.26a.08.08,0,0,1,0-.06l.06,0h.73a0,0,0,1,0,0-.07h-.73a.15.15,0,0,0-.11,0,.15.15,0,0,0,0,.11v.26a.15.15,0,0,0,0,.11.15.15,0,0,0,.11,0h.67v0Z"/><path class="cls-54" d="M41.6,100.75a1.11,1.11,0,0,0,1,1.16H72.3a1.11,1.11,0,0,0,1-1.16V85a1.11,1.11,0,0,0-1-1.16H42.64a1.11,1.11,0,0,0-1,1.16Z"/><circle class="cls-55" cx="44.27" cy="86.34" r="1.71"/><path class="cls-55" d="M42.91,91.45a.32.32,0,0,0,.35.27h2a.32.32,0,0,0,.35-.27V89.19a.32.32,0,0,0-.35-.27h-2a.32.32,0,0,0-.35.27Z"/><rect class="cls-56" x="42.93" y="92.71" width="2.85" height="1.61" rx="0.35" ry="0.35"/><rect class="cls-56" x="42.93" y="94.93" width="2.85" height="1.61" rx="0.35" ry="0.35"/><rect class="cls-56" x="42.93" y="97.24" width="2.85" height="1.61" rx="0.35" ry="0.35"/><rect class="cls-56" x="69.07" y="88.02" width="2.85" height="1.61" rx="0.35" ry="0.35"/><rect class="cls-56" x="69.07" y="93.81" width="2.85" height="1.61" rx="0.35" ry="0.35"/><rect class="cls-56" x="69.07" y="91.9" width="2.85" height="1.61" rx="0.35" ry="0.35"/><rect class="cls-56" x="69.07" y="89.96" width="2.85" height="1.61" rx="0.35" ry="0.35"/><rect class="cls-56" x="69.07" y="84.72" width="2.85" height="1.61" rx="0.35" ry="0.35"/><rect class="cls-56" x="69.07" y="97.24" width="2.85" height="1.61" rx="0.35" ry="0.35"/><rect class="cls-57" x="63.43" y="98.05" width="3.93" height="0.81" rx="0.35" ry="0.35"/><rect class="cls-57" x="57.52" y="98.05" width="3.93" height="0.81" rx="0.35" ry="0.35"/><rect class="cls-57" x="52.81" y="98.05" width="3.92" height="0.81" rx="0.35" ry="0.35"/><rect class="cls-57" x="47.49" y="98.05" width="3.92" height="0.81" rx="0.35" ry="0.35"/><rect class="cls-58" x="47.74" y="85.1" width="20.1" height="11.52" transform="translate(115.58 181.71) rotate(180)"/><rect class="cls-59" width="280" height="280"/></g></g></svg>