<svg xmlns="http://www.w3.org/2000/svg" viewBox="0 0 490.52 336.36"><defs><style>.cls-1,.cls-13{fill:#26bdd1;}.cls-2,.cls-4{fill:#00488e;}.cls-3{fill:#f8fed2;stroke:#00b7ff;stroke-width:0.64px;}.cls-12,.cls-3,.cls-9{stroke-miterlimit:22.93;}.cls-10,.cls-13,.cls-14,.cls-15,.cls-16,.cls-17,.cls-18,.cls-19,.cls-20,.cls-3,.cls-4,.cls-5,.cls-6,.cls-7,.cls-8,.cls-9{fill-rule:evenodd;}.cls-5{fill:#019dcb;}.cls-6{fill:#03bddc;}.cls-7{fill:#c4ffff;}.cls-12,.cls-14,.cls-7{opacity:0.5;}.cls-11,.cls-8{fill:#fff;}.cls-12,.cls-17,.cls-9{fill:#fc0;}.cls-12,.cls-9{stroke:#f60;stroke-width:0.26px;}.cls-10{fill:#c63;}.cls-11{opacity:0.82;}.cls-14{fill:#039;}.cls-15,.cls-22{fill:#05a4e2;}.cls-16{fill:#f93;}.cls-18{fill:#ff0;}.cls-19,.cls-21{fill:#024056;}.cls-20{fill:#087fa3;}.cls-23{fill:#ccbeb5;}.cls-24{fill:#d0cba4;}.cls-25{fill:none;}</style></defs><title>Resultado_3_nave</title><g id="Capa_2" data-name="Capa 2"><g id="Layer_1" data-name="Layer 1"><rect class="cls-1" x="340.82" y="64.8" width="101.26" height="3.74" transform="translate(46.82 263.91) rotate(-39.45)"/><rect class="cls-1" x="406.54" y="41.23" width="27.09" height="3.74" transform="translate(68.31 276.73) rotate(-39.45)"/><rect class="cls-2" x="385.36" y="54.6" width="38.69" height="2.21" rx="0.64" ry="0.64" transform="translate(56.8 269.83) rotate(-39.45)"/><path class="cls-3" d="M389.27,68.46C405.78,88.52,386.41,131.73,346,165s-122,73.1-138.49,53,38.32-92.44,78.71-125.68S372.76,48.4,389.27,68.46Z"/><path class="cls-4" d="M317.13,127.17a26.2,26.2,0,1,0,3.67-36.78A26.19,26.19,0,0,0,317.13,127.17Z"/><path class="cls-5" d="M316.45,126.35A25.13,25.13,0,1,0,320,91.07,25.12,25.12,0,0,0,316.45,126.35Z"/><path class="cls-4" d="M318.65,124.81a20.92,20.92,0,1,0,2.93-29.37A20.91,20.91,0,0,0,318.65,124.81Z"/><path class="cls-6" d="M320.44,125.09a20.07,20.07,0,1,0,2.81-28.18A20.06,20.06,0,0,0,320.44,125.09Z"/><path class="cls-7" d="M325.67,125.14a20.1,20.1,0,0,1,13.14-32.62,20,20,0,1,0-.52,39.68l-.42-.06A19.83,19.83,0,0,1,325.67,125.14Z"/><path class="cls-7" d="M353.42,92.84A25.15,25.15,0,0,1,319,128.93a25.13,25.13,0,1,0,31.67-39A25.06,25.06,0,0,1,353.42,92.84Z"/><path class="cls-8" d="M420.33,43a7.1,7.1,0,1,0,.83-10.15A7.22,7.22,0,0,0,420.33,43Z"/><path class="cls-9" d="M420.12,42.78a7.06,7.06,0,1,0,1-9.93A7.07,7.07,0,0,0,420.12,42.78Z"/><path class="cls-10" d="M427.3,31.5a6.59,6.59,0,0,0-6.3,1.45,7.12,7.12,0,0,0-1.3,9.28,6.64,6.64,0,0,0,2.49,2.27C417.24,38.88,420,31.09,427.3,31.5Z"/><path class="cls-10" d="M430,42.74c-2.51,2.07-4.11,2.28-5.76,2.19,2,.64,3.91.3,6.17-1.55s2.89-6.29.94-9.12a6.49,6.49,0,0,0-2.1-2C432,34.71,432.56,40.67,430,42.74Z"/><circle class="cls-11" cx="430.33" cy="37.24" r="1.99" transform="translate(74.37 281.91) rotate(-39.45)"/><circle class="cls-12" cx="426" cy="38.57" r="7.06" transform="translate(72.54 279.46) rotate(-39.45)"/><path class="cls-13" d="M365.06,58.36l29.46,35.8a41.76,41.76,0,0,0,.32-12.46L377.35,60.45A41.76,41.76,0,0,0,365.06,58.36Z"/><path class="cls-13" d="M359.33,58.47a76,76,0,0,0-9.53,1.27l40.42,49.12a76,76,0,0,0,3.08-9.11Z"/><path class="cls-13" d="M344.89,60.84q-4.16,1-8.5,2.53l47.68,58q2.28-4,4.12-7.85Z"/><path class="cls-14" d="M223.45,221.29c-16.51-20.06,38.32-92.44,78.71-125.68,27-22.22,56.58-34.36,78.14-34-20.83-9.65-59.54,2.28-94.07,30.69C245.84,125.56,191,197.94,207.52,218c3.48,4.22,9.84,5.79,18.09,5.32A11.84,11.84,0,0,1,223.45,221.29Z"/><path class="cls-4" d="M278.74,158.36a13.42,13.42,0,1,0,1.88-18.83A13.41,13.41,0,0,0,278.74,158.36Z"/><path class="cls-5" d="M278.4,157.93a12.87,12.87,0,1,0,1.8-18.06A12.86,12.86,0,0,0,278.4,157.93Z"/><path class="cls-4" d="M279.52,157.15a10.72,10.72,0,1,0,1.5-15A10.71,10.71,0,0,0,279.52,157.15Z"/><path class="cls-6" d="M280.44,157.29a10.28,10.28,0,1,0,1.44-14.43A10.27,10.27,0,0,0,280.44,157.29Z"/><path class="cls-7" d="M283.12,157.31a10.29,10.29,0,0,1,6.73-16.7,10.26,10.26,0,1,0-.26,20.32l-.22,0A10.16,10.16,0,0,1,283.12,157.31Z"/><path class="cls-7" d="M297.33,140.77a12.88,12.88,0,0,1-17.65,18.48,12.87,12.87,0,1,0,16.22-20A12.84,12.84,0,0,1,297.33,140.77Z"/><path class="cls-15" d="M245.28,132.9l52.2,63.45q3.4-2,6.72-4.07l-53.63-65.18Q247.91,129.94,245.28,132.9Z"/><path class="cls-16" d="M210.42,215.62c13.21,16.06,1.51,47.51-26.13,70.26s-95.82,35-98.23,32.07,22.74-67.47,50.39-90.22S197.21,199.56,210.42,215.62Z"/><path class="cls-17" d="M210.42,215.62c8.83,10.73-.14,32.68-20,49S122.59,291.18,121,289.22s17.58-47,37.46-63.4S201.59,204.89,210.42,215.62Z"/><path class="cls-18" d="M210.42,215.62c8.83,10.73,4.13,29.18-10.5,41.21s-53.68,14.88-55.29,12.92S153.34,230,168,218,201.59,204.89,210.42,215.62Z"/><path class="cls-8" d="M210.42,215.62c6.6,8,2.58,22.24-9,31.75s-41.82,12.51-43,11,7.56-30.59,19.12-40.1S203.82,207.6,210.42,215.62Z"/><path class="cls-19" d="M227.73,156.9l-37.84-3.28-54.43,49,2.59,3.15,43.23-24.57,27.05,10.17C212.35,181.07,219.24,169.13,227.73,156.9Z"/><path class="cls-20" d="M225.92,157.53l-35.4-2.41-53.27,47.52,1.39,1.68,42.58-24.72,26.14,10.13A168.72,168.72,0,0,1,225.92,157.53Z"/><path class="cls-15" d="M191.73,155.79l15.69,32.11A157.37,157.37,0,0,1,224.67,158Z"/><path class="cls-15" d="M206.53,188.58l-15.86-32.45h-.1l-1.52,1.35-7.26,21.74,24.65,9.55Z"/><polygon class="cls-15" points="180.41 179.3 187.18 159.03 141.76 199.55 142.98 201.03 180.41 179.3"/><path class="cls-19" d="M271.28,209.82l-4.07,37.77-58.58,44L206,288.41l32.44-37.69-4.77-28.51C244.6,220.26,257.65,215.8,271.28,209.82Z"/><path class="cls-20" d="M270.32,211.48l-4.45,35.2L209,289.81l-1.39-1.68,32.45-37-4.9-27.6A168.72,168.72,0,0,0,270.32,211.48Z"/><path class="cls-15" d="M265.43,245.37l-28.49-21.58a157.36,157.36,0,0,0,32.63-11.17Z"/><path class="cls-15" d="M236.11,224.53l28.78,21.81v.1l-1.62,1.23-22.73,2.94-4.62-26Z"/><polygon class="cls-15" points="240.19 251.95 261.38 249.21 212.87 285.98 211.66 284.49 240.19 251.95"/><path class="cls-15" d="M300.61,195.32,247.71,131q-2.69,3.17-5.31,6.4l50.9,61.86Q297,197.35,300.61,195.32Z"/><path class="cls-15" d="M285.13,203.49l-48.42-58.85q-2.58,3.36-5,6.73l45.89,55.77Q281.33,205.38,285.13,203.49Z"/><rect class="cls-21" x="206.08" y="202.94" width="8.07" height="25.87" transform="translate(-89.3 182.68) rotate(-39.45)"/><rect class="cls-22" x="207.01" y="203.72" width="6.25" height="24.26" rx="1.8" ry="1.8" transform="translate(-89.28 182.69) rotate(-39.45)"/><rect class="cls-21" x="207.53" y="204.45" width="5.12" height="22.88" rx="1.48" ry="1.48" transform="translate(-89.31 182.67) rotate(-39.45)"/><rect class="cls-21" x="159.8" y="211.39" width="101.26" height="8.49" transform="translate(-89.07 182.83) rotate(-39.45)"/><rect class="cls-21" x="225.52" y="187.83" width="27.09" height="8.49" transform="translate(-67.58 195.65) rotate(-39.45)"/><rect class="cls-22" x="226.31" y="188.81" width="25.41" height="6.57" rx="1.9" ry="1.9" transform="translate(-67.6 195.62) rotate(-39.45)"/><rect class="cls-22" x="163.91" y="221.03" width="71.88" height="6.57" rx="1.9" ry="1.9" transform="translate(-97 178.08) rotate(-39.45)"/><rect class="cls-22" x="228.28" y="196.43" width="0.66" height="8.49" rx="0.19" ry="0.19" transform="translate(-75.43 190.97) rotate(-39.45)"/><path class="cls-23" d="M429,182.67l-4.56-2.57a3.1,3.1,0,0,1-1-.91,3.54,3.54,0,0,1-.64-2.63s.07-.32.15-.82l.29-1.81c.22-1.32.43-2.64.43-2.64.22-1.34-.38-1.62-1.32-.66l-1.86,1.87-1.85,1.82a3.5,3.5,0,0,1-3.83.5s-1.15-.62-2.31-1.21l-2.33-1.17c-1.18-.58-1.64-.16-1,.93a4,4,0,0,1,.21.4l.44.91.64,1.33.34.71.6,1.25a3.23,3.23,0,0,1,.2,2,3.46,3.46,0,0,1-1,1.83l-1.92,1.83-1.32,1.27c-.36.34-.6.59-.6.59-1,1-.66,1.66.65,1.44l2.58-.42c1.29-.21,2.58-.38,2.58-.38a3.25,3.25,0,0,1,1.83.34,3.51,3.51,0,0,1,1.6,1.53l1.17,2.35,1.18,2.3c.6,1.15,1.26,1,1.47-.24l.41-2.51c.11-.63.21-1.26.28-1.73s.14-.79.14-.79a3.52,3.52,0,0,1,2.63-2.59l.21,0,5.18-.59c.65-.07,1-.27,1.06-.52S429.62,183,429,182.67Z"/><path class="cls-23" d="M68.29,172.08l-4.56-2.57a3.1,3.1,0,0,1-1-.91A3.54,3.54,0,0,1,62.1,166s.07-.32.15-.82l.29-1.81c.22-1.32.43-2.64.43-2.64.22-1.34-.38-1.62-1.32-.66l-1.86,1.87-1.85,1.82a3.5,3.5,0,0,1-3.83.5S53,163.61,51.8,163l-2.33-1.17c-1.18-.58-1.64-.16-1,.93a4,4,0,0,1,.21.4l.44.91.64,1.33.34.71.6,1.25a3.23,3.23,0,0,1,.2,2,3.46,3.46,0,0,1-1,1.83L48,173l-1.32,1.27c-.36.34-.6.59-.6.59-1,1-.66,1.66.65,1.44l2.58-.42c1.29-.21,2.58-.38,2.58-.38a3.25,3.25,0,0,1,1.83.34,3.51,3.51,0,0,1,1.6,1.53l1.17,2.35,1.18,2.3c.6,1.15,1.26,1,1.47-.24l.41-2.51c.11-.63.21-1.26.28-1.73s.14-.79.14-.79a3.52,3.52,0,0,1,2.63-2.59l.21,0,5.18-.59c.65-.07,1-.27,1.06-.52S68.86,172.41,68.29,172.08Z"/><path class="cls-23" d="M258.71,309.9l-4.56-2.57a3.1,3.1,0,0,1-1-.91,3.54,3.54,0,0,1-.64-2.63s.07-.32.15-.82l.29-1.81c.22-1.32.43-2.64.43-2.64.22-1.34-.38-1.62-1.32-.66l-1.86,1.87-1.85,1.82a3.5,3.5,0,0,1-3.83.5s-1.15-.62-2.31-1.21l-2.33-1.17c-1.18-.58-1.64-.16-1,.93a4,4,0,0,1,.21.4l.44.91.64,1.33.34.71.6,1.25a3.23,3.23,0,0,1,.2,2,3.46,3.46,0,0,1-1,1.83l-1.92,1.83-1.32,1.27c-.36.34-.6.59-.6.59-1,1-.66,1.66.65,1.44l2.58-.42c1.29-.21,2.58-.38,2.58-.38a3.25,3.25,0,0,1,1.83.34,3.51,3.51,0,0,1,1.6,1.53l1.17,2.35,1.18,2.3c.6,1.15,1.26,1,1.47-.24l.41-2.51c.11-.63.21-1.26.28-1.73s.14-.79.14-.79A3.52,3.52,0,0,1,253,312l.21,0,5.18-.59c.65-.07,1-.27,1.06-.52S259.28,310.23,258.71,309.9Z"/><path class="cls-23" d="M340.51,14.54,336,12a3.1,3.1,0,0,1-1-.91,3.54,3.54,0,0,1-.64-2.63s.07-.32.15-.82l.29-1.81c.22-1.32.43-2.64.43-2.64.22-1.34-.38-1.62-1.32-.66L332,4.36l-1.85,1.82a3.5,3.5,0,0,1-3.83.5s-1.15-.62-2.31-1.21L321.7,4.3c-1.18-.58-1.64-.16-1,.93a4,4,0,0,1,.21.4l.44.91L322,7.88l.34.71.6,1.25a3.23,3.23,0,0,1,.2,2,3.46,3.46,0,0,1-1,1.83l-1.92,1.83-1.32,1.27c-.36.34-.6.59-.6.59-1,1-.66,1.66.65,1.44l2.58-.42c1.29-.21,2.58-.38,2.58-.38a3.25,3.25,0,0,1,1.83.34,3.51,3.51,0,0,1,1.6,1.53l1.17,2.35,1.18,2.3c.6,1.15,1.26,1,1.47-.24l.41-2.51c.11-.63.21-1.26.28-1.73s.14-.79.14-.79a3.52,3.52,0,0,1,2.63-2.59l.21,0,5.18-.59c.65-.07,1-.27,1.06-.52S341.09,14.86,340.51,14.54Z"/><path class="cls-24" d="M140.62,64.87c2.88,3.68,4.36,8.77,5.15,15.59s.87,15.4,1.41,26.14c-.54-10.74-.36-19.32.53-26.13s2.59-11.86,5.56-15.62c5.94-7.5,17.21-9.94,38.67-10.36-10.73.2-18.94-.23-25.24-1.6S156,49.17,152.86,45.5a20.68,20.68,0,0,1-2.14-3,26.46,26.46,0,0,1-1.8-3.53,56.85,56.85,0,0,1-2.78-8.81c-1.71-6.68-3.11-15.11-6-25.41,2.89,10.3,4.06,18.82,4.07,25.63a38.54,38.54,0,0,1-1,9A23.61,23.61,0,0,1,142,43a18.27,18.27,0,0,1-1.76,3.09c-2.67,3.76-6.84,6.2-13,7.72S113,56,102.28,56.16C123.72,55.74,134.87,57.48,140.62,64.87Z"/><path class="cls-24" d="M315.37,295.86c1,3.39.73,7.4-.55,12.46s-3.54,11.17-6.05,18.94a113.31,113.31,0,0,1,7.43-18.42c2.49-4.59,5-7.72,8.16-9.6,6.24-3.72,14.9-2.42,30.26,3.07-7.67-2.75-13.39-5.27-17.49-7.95s-6.57-5.51-7.84-9a15.71,15.71,0,0,1-.71-2.71,20.1,20.1,0,0,1-.32-3,43.19,43.19,0,0,1,.4-7c.59-5.2,1.87-11.57,2.59-19.66a73.56,73.56,0,0,1-4,19.3,29.28,29.28,0,0,1-3.15,6.12,17.94,17.94,0,0,1-1.83,2.25,13.88,13.88,0,0,1-2.09,1.72c-2.91,2-6.53,2.56-11.29,2s-10.7-2.33-18.37-5.07C305.84,284.82,313.28,289.05,315.37,295.86Z"/><rect class="cls-25" width="490.52" height="336.36"/></g></g></svg>