<svg xmlns="http://www.w3.org/2000/svg" viewBox="0 0 490.52 336.36"><defs><style>.cls-1{isolation:isolate;}.cls-2{fill:#c0a37e;}.cls-3{fill:#9d7e5a;}.cls-4{opacity:0.35;mix-blend-mode:multiply;}.cls-21,.cls-5,.cls-6{fill:none;}.cls-5,.cls-6{stroke:#5e4b33;stroke-miterlimit:10;}.cls-5{stroke-width:0.71px;}.cls-6{stroke-width:0.7px;}.cls-7{fill:#dabd94;}.cls-8{fill:#c6a67e;}.cls-9{fill:#484147;}.cls-10{fill:#6d8739;}.cls-11{fill:#231f20;}.cls-12{fill:#8eb140;}.cls-13{fill:#9fbec9;}.cls-14{fill:#f9c745;}.cls-15{fill:#faf6e6;}.cls-16{fill:#bd5e4b;}.cls-17{fill:#00a7a1;}.cls-18{fill:#216f74;}.cls-19{fill:#0a7171;}.cls-20{fill:#787087;}</style></defs><title>Resultado_1_casa</title><g class="cls-1"><g id="Capa_2" data-name="Capa 2"><g id="Layer_1" data-name="Layer 1"><rect class="cls-2" x="30.65" y="183.74" width="169.61" height="124.18"/><rect class="cls-3" x="30.65" y="183.74" width="169.61" height="16.48"/><g class="cls-4"><rect class="cls-5" x="31.27" y="184.81" width="21.24" height="8.19"/><rect class="cls-5" x="53.79" y="184.81" width="21.24" height="8.19"/><rect class="cls-5" x="76.3" y="184.81" width="21.24" height="8.19"/><rect class="cls-5" x="98.82" y="184.81" width="21.24" height="8.19"/><rect class="cls-5" x="121.34" y="184.81" width="21.24" height="8.19"/><rect class="cls-5" x="143.86" y="184.81" width="21.24" height="8.19"/><rect class="cls-5" x="166.38" y="184.81" width="21.24" height="8.19"/><polyline class="cls-5" points="199.29 193 188.89 193 188.89 184.81 199.4 184.81"/><polyline class="cls-6" points="31.7 194.09 41.76 194.09 41.76 202.28 31.6 202.28"/><polyline class="cls-6" points="31.7 212.99 41.76 212.99 41.76 221.18 31.6 221.18"/><polyline class="cls-6" points="31.7 231.9 41.76 231.9 41.76 240.09 31.6 240.09"/><polyline class="cls-6" points="31.7 250.81 41.76 250.81 41.76 259 31.6 259"/><polyline class="cls-6" points="31.7 269.71 41.76 269.71 41.76 277.91 31.6 277.91"/><polyline class="cls-6" points="31.7 288.71 41.76 288.71 41.76 296.9 31.6 296.9"/><rect class="cls-5" x="42.97" y="194.1" width="21.24" height="8.19"/><rect class="cls-5" x="65.49" y="194.1" width="21.24" height="8.19"/><rect class="cls-5" x="88.01" y="194.1" width="21.24" height="8.19"/><rect class="cls-5" x="110.53" y="194.1" width="21.24" height="8.19"/><rect class="cls-5" x="133.04" y="194.1" width="21.24" height="8.19"/><rect class="cls-5" x="155.56" y="194.1" width="21.24" height="8.19"/><rect class="cls-5" x="178.08" y="194.1" width="21.24" height="8.19"/><rect class="cls-5" x="31.27" y="203.72" width="21.24" height="8.19"/><rect class="cls-5" x="53.79" y="203.72" width="21.24" height="8.19"/><rect class="cls-5" x="76.3" y="203.72" width="21.24" height="8.19"/><rect class="cls-5" x="98.82" y="203.72" width="21.24" height="8.19"/><rect class="cls-5" x="121.34" y="203.72" width="21.24" height="8.19"/><rect class="cls-5" x="143.86" y="203.72" width="21.24" height="8.19"/><rect class="cls-5" x="166.38" y="203.72" width="21.24" height="8.19"/><polyline class="cls-5" points="199.29 211.91 188.89 211.91 188.89 203.72 199.4 203.72"/><rect class="cls-5" x="42.97" y="213.01" width="21.24" height="8.19"/><rect class="cls-5" x="65.49" y="213.01" width="21.24" height="8.19"/><rect class="cls-5" x="88.01" y="213.01" width="21.24" height="8.19"/><rect class="cls-5" x="110.53" y="213.01" width="21.24" height="8.19"/><rect class="cls-5" x="133.04" y="213.01" width="21.24" height="8.19"/><rect class="cls-5" x="155.56" y="213.01" width="21.24" height="8.19"/><rect class="cls-5" x="178.08" y="213.01" width="21.24" height="8.19"/><rect class="cls-5" x="31.27" y="222.63" width="21.24" height="8.19"/><rect class="cls-5" x="53.79" y="222.63" width="21.24" height="8.19"/><rect class="cls-5" x="76.3" y="222.63" width="21.24" height="8.19"/><rect class="cls-5" x="98.82" y="222.63" width="21.24" height="8.19"/><rect class="cls-5" x="121.34" y="222.63" width="21.24" height="8.19"/><rect class="cls-5" x="143.86" y="222.63" width="21.24" height="8.19"/><rect class="cls-5" x="166.38" y="222.63" width="21.24" height="8.19"/><polyline class="cls-5" points="199.29 230.82 188.89 230.82 188.89 222.63 199.4 222.63"/><rect class="cls-5" x="42.97" y="231.92" width="21.24" height="8.19"/><rect class="cls-5" x="65.49" y="231.92" width="21.24" height="8.19"/><rect class="cls-5" x="88.01" y="231.92" width="21.24" height="8.19"/><rect class="cls-5" x="110.53" y="231.92" width="21.24" height="8.19"/><rect class="cls-5" x="133.04" y="231.92" width="21.24" height="8.19"/><rect class="cls-5" x="155.56" y="231.92" width="21.24" height="8.19"/><rect class="cls-5" x="178.08" y="231.92" width="21.24" height="8.19"/><rect class="cls-5" x="31.27" y="241.54" width="21.24" height="8.19"/><rect class="cls-5" x="53.79" y="241.54" width="21.24" height="8.19"/><rect class="cls-5" x="76.3" y="241.54" width="21.24" height="8.19"/><rect class="cls-5" x="98.82" y="241.54" width="21.24" height="8.19"/><rect class="cls-5" x="121.34" y="241.54" width="21.24" height="8.19"/><rect class="cls-5" x="143.86" y="241.54" width="21.24" height="8.19"/><rect class="cls-5" x="166.38" y="241.54" width="21.24" height="8.19"/><polyline class="cls-5" points="199.29 249.74 188.89 249.74 188.89 241.54 199.4 241.54"/><rect class="cls-5" x="42.97" y="250.83" width="21.24" height="8.19"/><rect class="cls-5" x="65.49" y="250.83" width="21.24" height="8.19"/><rect class="cls-5" x="88.01" y="250.83" width="21.24" height="8.19"/><rect class="cls-5" x="110.53" y="250.83" width="21.24" height="8.19"/><rect class="cls-5" x="133.04" y="250.83" width="21.24" height="8.19"/><rect class="cls-5" x="155.56" y="250.83" width="21.24" height="8.19"/><rect class="cls-5" x="178.08" y="250.83" width="21.24" height="8.19"/><rect class="cls-5" x="31.27" y="260.45" width="21.24" height="8.19"/><rect class="cls-5" x="53.79" y="260.45" width="21.24" height="8.19"/><rect class="cls-5" x="76.3" y="260.45" width="21.24" height="8.19"/><rect class="cls-5" x="98.82" y="260.45" width="21.24" height="8.19"/><rect class="cls-5" x="121.34" y="260.45" width="21.24" height="8.19"/><rect class="cls-5" x="143.86" y="260.45" width="21.24" height="8.19"/><rect class="cls-5" x="166.38" y="260.45" width="21.24" height="8.19"/><polyline class="cls-5" points="199.29 268.64 188.89 268.64 188.89 260.45 199.4 260.45"/><rect class="cls-5" x="42.97" y="269.74" width="21.24" height="8.19"/><rect class="cls-5" x="65.49" y="269.74" width="21.24" height="8.19"/><rect class="cls-5" x="88.01" y="269.74" width="21.24" height="8.19"/><rect class="cls-5" x="110.53" y="269.74" width="21.24" height="8.19"/><rect class="cls-5" x="133.04" y="269.74" width="21.24" height="8.19"/><rect class="cls-5" x="155.56" y="269.74" width="21.24" height="8.19"/><rect class="cls-5" x="178.08" y="269.74" width="21.24" height="8.19"/><rect class="cls-5" x="31.27" y="279.36" width="21.24" height="8.19"/><rect class="cls-5" x="53.79" y="279.36" width="21.24" height="8.19"/><rect class="cls-5" x="76.3" y="279.36" width="21.24" height="8.19"/><rect class="cls-5" x="98.82" y="279.36" width="21.24" height="8.19"/><rect class="cls-5" x="121.34" y="279.36" width="21.24" height="8.19"/><rect class="cls-5" x="143.86" y="279.36" width="21.24" height="8.19"/><rect class="cls-5" x="166.38" y="279.36" width="21.24" height="8.19"/><polyline class="cls-5" points="199.29 287.56 188.89 287.56 188.89 279.36 199.4 279.36"/><rect class="cls-5" x="42.97" y="288.65" width="21.24" height="8.19"/><rect class="cls-5" x="65.49" y="288.65" width="21.24" height="8.19"/><rect class="cls-5" x="88.01" y="288.65" width="21.24" height="8.19"/><rect class="cls-5" x="110.53" y="288.65" width="21.24" height="8.19"/><rect class="cls-5" x="133.04" y="288.65" width="21.24" height="8.19"/><rect class="cls-5" x="155.56" y="288.65" width="21.24" height="8.19"/><rect class="cls-5" x="178.08" y="288.65" width="21.24" height="8.19"/><rect class="cls-5" x="31.27" y="298.27" width="21.24" height="8.19"/><rect class="cls-5" x="53.79" y="298.27" width="21.24" height="8.19"/><rect class="cls-5" x="76.3" y="298.27" width="21.24" height="8.19"/><rect class="cls-5" x="98.82" y="298.27" width="21.24" height="8.19"/><rect class="cls-5" x="121.34" y="298.27" width="21.24" height="8.19"/><rect class="cls-5" x="143.86" y="298.27" width="21.24" height="8.19"/><rect class="cls-5" x="166.38" y="298.27" width="21.24" height="8.19"/><polyline class="cls-5" points="199.29 306.47 188.89 306.47 188.89 298.27 199.4 298.27"/></g><rect class="cls-7" x="199.97" y="195.89" width="272.33" height="110.73"/><rect class="cls-7" x="199.97" y="98.28" width="272.33" height="96.18"/><rect class="cls-8" x="199.97" y="98.28" width="272.33" height="11.75"/><g class="cls-4"><rect class="cls-5" x="201.7" y="99.2" width="21.24" height="8.19"/><rect class="cls-5" x="224.22" y="99.2" width="21.24" height="8.19"/><rect class="cls-5" x="246.74" y="99.2" width="21.24" height="8.19"/><rect class="cls-5" x="269.26" y="99.2" width="21.24" height="8.19"/><rect class="cls-5" x="291.77" y="99.2" width="21.24" height="8.19"/><rect class="cls-5" x="314.29" y="99.2" width="21.24" height="8.19"/><rect class="cls-5" x="336.81" y="99.2" width="21.24" height="8.19"/><rect class="cls-5" x="359.33" y="99.2" width="21.24" height="8.19"/><rect class="cls-5" x="381.85" y="99.2" width="21.24" height="8.19"/><rect class="cls-5" x="404.36" y="99.2" width="21.24" height="8.19"/><rect class="cls-5" x="426.88" y="99.2" width="21.24" height="8.19"/><rect class="cls-5" x="449.4" y="99.2" width="21.24" height="8.19"/><rect class="cls-5" x="212.52" y="108.82" width="21.24" height="8.19"/><rect class="cls-5" x="235.04" y="108.82" width="21.24" height="8.19"/><rect class="cls-5" x="257.55" y="108.82" width="21.24" height="8.19"/><rect class="cls-5" x="280.07" y="108.82" width="21.24" height="8.19"/><rect class="cls-5" x="302.59" y="108.82" width="21.24" height="8.19"/><rect class="cls-5" x="325.11" y="108.82" width="21.24" height="8.19"/><rect class="cls-5" x="347.62" y="108.82" width="21.24" height="8.19"/><rect class="cls-5" x="370.14" y="108.82" width="21.24" height="8.19"/><rect class="cls-5" x="392.66" y="108.82" width="21.24" height="8.19"/><rect class="cls-5" x="415.18" y="108.82" width="21.24" height="8.19"/><rect class="cls-5" x="437.7" y="108.82" width="21.24" height="8.19"/><polyline class="cls-5" points="470.61 117.02 460.21 117.02 460.21 108.82 470.72 108.82"/><polyline class="cls-6" points="201.42 108.82 211.49 108.82 211.49 117.01 201.32 117.01"/><rect class="cls-5" x="201.7" y="118.11" width="21.24" height="8.19"/><rect class="cls-5" x="224.22" y="118.11" width="21.24" height="8.19"/><rect class="cls-5" x="246.74" y="118.11" width="21.24" height="8.19"/><rect class="cls-5" x="269.26" y="118.11" width="21.24" height="8.19"/><rect class="cls-5" x="291.77" y="118.11" width="21.24" height="8.19"/><rect class="cls-5" x="314.29" y="118.11" width="21.24" height="8.19"/><rect class="cls-5" x="336.81" y="118.11" width="21.24" height="8.19"/><rect class="cls-5" x="359.33" y="118.11" width="21.24" height="8.19"/><rect class="cls-5" x="381.85" y="118.11" width="21.24" height="8.19"/><rect class="cls-5" x="404.36" y="118.11" width="21.24" height="8.19"/><rect class="cls-5" x="426.88" y="118.11" width="21.24" height="8.19"/><rect class="cls-5" x="449.4" y="118.11" width="21.24" height="8.19"/><rect class="cls-5" x="212.52" y="127.73" width="21.24" height="8.19"/><rect class="cls-5" x="235.04" y="127.73" width="21.24" height="8.19"/><rect class="cls-5" x="257.55" y="127.73" width="21.24" height="8.19"/><rect class="cls-5" x="280.07" y="127.73" width="21.24" height="8.19"/><rect class="cls-5" x="302.59" y="127.73" width="21.24" height="8.19"/><rect class="cls-5" x="325.11" y="127.73" width="21.24" height="8.19"/><rect class="cls-5" x="347.62" y="127.73" width="21.24" height="8.19"/><rect class="cls-5" x="370.14" y="127.73" width="21.24" height="8.19"/><rect class="cls-5" x="392.66" y="127.73" width="21.24" height="8.19"/><rect class="cls-5" x="415.18" y="127.73" width="21.24" height="8.19"/><rect class="cls-5" x="437.7" y="127.73" width="21.24" height="8.19"/><polyline class="cls-5" points="470.61 135.93 460.21 135.93 460.21 127.73 470.72 127.73"/><polyline class="cls-6" points="201.42 127.73 211.49 127.73 211.49 135.92 201.32 135.92"/><rect class="cls-5" x="201.7" y="137.02" width="21.24" height="8.19"/><rect class="cls-5" x="224.22" y="137.02" width="21.24" height="8.19"/><rect class="cls-5" x="246.74" y="137.02" width="21.24" height="8.19"/><rect class="cls-5" x="269.26" y="137.02" width="21.24" height="8.19"/><rect class="cls-5" x="291.77" y="137.02" width="21.24" height="8.19"/><rect class="cls-5" x="314.29" y="137.02" width="21.24" height="8.19"/><rect class="cls-5" x="336.81" y="137.02" width="21.24" height="8.19"/><rect class="cls-5" x="359.33" y="137.02" width="21.24" height="8.19"/><rect class="cls-5" x="381.85" y="137.02" width="21.24" height="8.19"/><rect class="cls-5" x="404.36" y="137.02" width="21.24" height="8.19"/><rect class="cls-5" x="426.88" y="137.02" width="21.24" height="8.19"/><rect class="cls-5" x="449.4" y="137.02" width="21.24" height="8.19"/><rect class="cls-5" x="212.52" y="146.64" width="21.24" height="8.19"/><rect class="cls-5" x="235.04" y="146.64" width="21.24" height="8.19"/><rect class="cls-5" x="257.55" y="146.64" width="21.24" height="8.19"/><rect class="cls-5" x="280.07" y="146.64" width="21.24" height="8.19"/><rect class="cls-5" x="302.59" y="146.64" width="21.24" height="8.19"/><rect class="cls-5" x="325.11" y="146.64" width="21.24" height="8.19"/><rect class="cls-5" x="347.62" y="146.64" width="21.24" height="8.19"/><rect class="cls-5" x="370.14" y="146.64" width="21.24" height="8.19"/><rect class="cls-5" x="392.66" y="146.64" width="21.24" height="8.19"/><rect class="cls-5" x="415.18" y="146.64" width="21.24" height="8.19"/><rect class="cls-5" x="437.7" y="146.64" width="21.24" height="8.19"/><polyline class="cls-5" points="470.61 154.84 460.21 154.84 460.21 146.65 470.72 146.65"/><polyline class="cls-6" points="201.42 146.64 211.49 146.64 211.49 154.83 201.32 154.83"/><rect class="cls-5" x="201.7" y="155.93" width="21.24" height="8.19"/><rect class="cls-5" x="224.22" y="155.93" width="21.24" height="8.19"/><rect class="cls-5" x="246.74" y="155.93" width="21.24" height="8.19"/><rect class="cls-5" x="269.26" y="155.93" width="21.24" height="8.19"/><rect class="cls-5" x="291.77" y="155.93" width="21.24" height="8.19"/><rect class="cls-5" x="314.29" y="155.93" width="21.24" height="8.19"/><rect class="cls-5" x="336.81" y="155.93" width="21.24" height="8.19"/><rect class="cls-5" x="359.33" y="155.93" width="21.24" height="8.19"/><rect class="cls-5" x="381.85" y="155.93" width="21.24" height="8.19"/><rect class="cls-5" x="404.36" y="155.93" width="21.24" height="8.19"/><rect class="cls-5" x="426.88" y="155.93" width="21.24" height="8.19"/><rect class="cls-5" x="449.4" y="155.93" width="21.24" height="8.19"/><rect class="cls-5" x="212.52" y="165.56" width="21.24" height="8.19"/><rect class="cls-5" x="235.04" y="165.56" width="21.24" height="8.19"/><rect class="cls-5" x="257.55" y="165.56" width="21.24" height="8.19"/><rect class="cls-5" x="280.07" y="165.56" width="21.24" height="8.19"/><rect class="cls-5" x="302.59" y="165.56" width="21.24" height="8.19"/><rect class="cls-5" x="325.11" y="165.56" width="21.24" height="8.19"/><rect class="cls-5" x="347.62" y="165.56" width="21.24" height="8.19"/><rect class="cls-5" x="370.14" y="165.56" width="21.24" height="8.19"/><rect class="cls-5" x="392.66" y="165.56" width="21.24" height="8.19"/><rect class="cls-5" x="415.18" y="165.56" width="21.24" height="8.19"/><rect class="cls-5" x="437.7" y="165.56" width="21.24" height="8.19"/><polyline class="cls-5" points="470.61 173.75 460.21 173.75 460.21 165.56 470.72 165.56"/><polyline class="cls-6" points="201.42 165.55 211.49 165.55 211.49 173.74 201.32 173.74"/><rect class="cls-5" x="201.7" y="174.84" width="21.24" height="8.19"/><rect class="cls-5" x="224.22" y="174.84" width="21.24" height="8.19"/><rect class="cls-5" x="246.74" y="174.84" width="21.24" height="8.19"/><rect class="cls-5" x="269.26" y="174.84" width="21.24" height="8.19"/><rect class="cls-5" x="291.77" y="174.84" width="21.24" height="8.19"/><rect class="cls-5" x="314.29" y="174.84" width="21.24" height="8.19"/><rect class="cls-5" x="336.81" y="174.84" width="21.24" height="8.19"/><rect class="cls-5" x="359.33" y="174.84" width="21.24" height="8.19"/><rect class="cls-5" x="381.85" y="174.84" width="21.24" height="8.19"/><rect class="cls-5" x="404.36" y="174.84" width="21.24" height="8.19"/><rect class="cls-5" x="426.88" y="174.84" width="21.24" height="8.19"/><rect class="cls-5" x="449.4" y="174.84" width="21.24" height="8.19"/><rect class="cls-5" x="212.52" y="184.47" width="21.24" height="8.19"/><rect class="cls-5" x="235.04" y="184.47" width="21.24" height="8.19"/><rect class="cls-5" x="257.55" y="184.47" width="21.24" height="8.19"/><rect class="cls-5" x="280.07" y="184.47" width="21.24" height="8.19"/><rect class="cls-5" x="302.59" y="184.47" width="21.24" height="8.19"/><rect class="cls-5" x="325.11" y="184.47" width="21.24" height="8.19"/><rect class="cls-5" x="347.62" y="184.47" width="21.24" height="8.19"/><rect class="cls-5" x="370.14" y="184.47" width="21.24" height="8.19"/><rect class="cls-5" x="392.66" y="184.47" width="21.24" height="8.19"/><rect class="cls-5" x="415.18" y="184.47" width="21.24" height="8.19"/><rect class="cls-5" x="437.7" y="184.47" width="21.24" height="8.19"/><polyline class="cls-5" points="470.61 192.66 460.21 192.66 460.21 184.47 470.72 184.47"/><polyline class="cls-6" points="201.42 184.46 211.49 184.46 211.49 192.65 201.32 192.65"/><rect class="cls-5" x="201.7" y="193.75" width="21.24" height="8.19"/><rect class="cls-5" x="224.22" y="193.75" width="21.24" height="8.19"/><rect class="cls-5" x="246.74" y="193.75" width="21.24" height="8.19"/><rect class="cls-5" x="269.26" y="193.75" width="21.24" height="8.19"/><rect class="cls-5" x="291.77" y="193.75" width="21.24" height="8.19"/><rect class="cls-5" x="314.29" y="193.75" width="21.24" height="8.19"/><rect class="cls-5" x="336.81" y="193.75" width="21.24" height="8.19"/><rect class="cls-5" x="359.33" y="193.75" width="21.24" height="8.19"/><rect class="cls-5" x="381.85" y="193.75" width="21.24" height="8.19"/><rect class="cls-5" x="404.36" y="193.75" width="21.24" height="8.19"/><rect class="cls-5" x="426.88" y="193.75" width="21.24" height="8.19"/><rect class="cls-5" x="449.4" y="193.75" width="21.24" height="8.19"/><rect class="cls-5" x="212.52" y="203.38" width="21.24" height="8.19"/><rect class="cls-5" x="235.04" y="203.38" width="21.24" height="8.19"/><rect class="cls-5" x="257.55" y="203.38" width="21.24" height="8.19"/><rect class="cls-5" x="280.07" y="203.38" width="21.24" height="8.19"/><rect class="cls-5" x="302.59" y="203.38" width="21.24" height="8.19"/><rect class="cls-5" x="325.11" y="203.38" width="21.24" height="8.19"/><rect class="cls-5" x="347.62" y="203.38" width="21.24" height="8.19"/><rect class="cls-5" x="370.14" y="203.38" width="21.24" height="8.19"/><rect class="cls-5" x="392.66" y="203.38" width="21.24" height="8.19"/><rect class="cls-5" x="415.18" y="203.38" width="21.24" height="8.19"/><rect class="cls-5" x="437.7" y="203.38" width="21.24" height="8.19"/><polyline class="cls-5" points="470.61 211.57 460.21 211.57 460.21 203.38 470.72 203.38"/><polyline class="cls-6" points="201.42 203.37 211.49 203.37 211.49 211.56 201.32 211.56"/><rect class="cls-5" x="201.7" y="212.66" width="21.24" height="8.19"/><rect class="cls-5" x="224.22" y="212.66" width="21.24" height="8.19"/><rect class="cls-5" x="246.74" y="212.66" width="21.24" height="8.19"/><rect class="cls-5" x="269.26" y="212.66" width="21.24" height="8.19"/><rect class="cls-5" x="291.77" y="212.66" width="21.24" height="8.19"/><rect class="cls-5" x="314.29" y="212.66" width="21.24" height="8.19"/><rect class="cls-5" x="336.81" y="212.66" width="21.24" height="8.19"/><rect class="cls-5" x="359.33" y="212.66" width="21.24" height="8.19"/><rect class="cls-5" x="381.85" y="212.66" width="21.24" height="8.19"/><rect class="cls-5" x="404.36" y="212.66" width="21.24" height="8.19"/><rect class="cls-5" x="426.88" y="212.66" width="21.24" height="8.19"/><rect class="cls-5" x="449.4" y="212.66" width="21.24" height="8.19"/><rect class="cls-5" x="212.52" y="222.29" width="21.24" height="8.19"/><rect class="cls-5" x="235.04" y="222.29" width="21.24" height="8.19"/><rect class="cls-5" x="257.55" y="222.29" width="21.24" height="8.19"/><rect class="cls-5" x="280.07" y="222.29" width="21.24" height="8.19"/><rect class="cls-5" x="302.59" y="222.29" width="21.24" height="8.19"/><rect class="cls-5" x="325.11" y="222.29" width="21.24" height="8.19"/><rect class="cls-5" x="347.62" y="222.29" width="21.24" height="8.19"/><rect class="cls-5" x="370.14" y="222.29" width="21.24" height="8.19"/><rect class="cls-5" x="392.66" y="222.29" width="21.24" height="8.19"/><rect class="cls-5" x="415.18" y="222.29" width="21.24" height="8.19"/><rect class="cls-5" x="437.7" y="222.29" width="21.24" height="8.19"/><polyline class="cls-5" points="470.61 230.48 460.21 230.48 460.21 222.29 470.72 222.29"/><polyline class="cls-6" points="201.42 222.28 211.49 222.28 211.49 230.47 201.32 230.47"/><rect class="cls-5" x="201.7" y="231.57" width="21.24" height="8.19"/><rect class="cls-5" x="224.22" y="231.57" width="21.24" height="8.19"/><rect class="cls-5" x="246.74" y="231.57" width="21.24" height="8.19"/><rect class="cls-5" x="269.26" y="231.57" width="21.24" height="8.19"/><rect class="cls-5" x="291.77" y="231.57" width="21.24" height="8.19"/><rect class="cls-5" x="314.29" y="231.57" width="21.24" height="8.19"/><rect class="cls-5" x="336.81" y="231.57" width="21.24" height="8.19"/><rect class="cls-5" x="359.33" y="231.57" width="21.24" height="8.19"/><rect class="cls-5" x="381.85" y="231.57" width="21.24" height="8.19"/><rect class="cls-5" x="404.36" y="231.57" width="21.24" height="8.19"/><rect class="cls-5" x="426.88" y="231.57" width="21.24" height="8.19"/><rect class="cls-5" x="449.4" y="231.57" width="21.24" height="8.19"/><rect class="cls-5" x="212.52" y="241.2" width="21.24" height="8.19"/><rect class="cls-5" x="235.04" y="241.2" width="21.24" height="8.19"/><rect class="cls-5" x="257.55" y="241.2" width="21.24" height="8.19"/><rect class="cls-5" x="280.07" y="241.2" width="21.24" height="8.19"/><rect class="cls-5" x="302.59" y="241.2" width="21.24" height="8.19"/><rect class="cls-5" x="325.11" y="241.2" width="21.24" height="8.19"/><rect class="cls-5" x="347.62" y="241.2" width="21.24" height="8.19"/><rect class="cls-5" x="370.14" y="241.2" width="21.24" height="8.19"/><rect class="cls-5" x="392.66" y="241.2" width="21.24" height="8.19"/><rect class="cls-5" x="415.18" y="241.2" width="21.24" height="8.19"/><rect class="cls-5" x="437.7" y="241.2" width="21.24" height="8.19"/><polyline class="cls-5" points="470.61 249.39 460.21 249.39 460.21 241.2 470.72 241.2"/><polyline class="cls-6" points="201.42 241.19 211.49 241.19 211.49 249.38 201.32 249.38"/><rect class="cls-5" x="201.7" y="250.48" width="21.24" height="8.19"/><rect class="cls-5" x="224.22" y="250.48" width="21.24" height="8.19"/><rect class="cls-5" x="246.74" y="250.48" width="21.24" height="8.19"/><rect class="cls-5" x="269.26" y="250.48" width="21.24" height="8.19"/><rect class="cls-5" x="291.77" y="250.48" width="21.24" height="8.19"/><rect class="cls-5" x="314.29" y="250.48" width="21.24" height="8.19"/><rect class="cls-5" x="336.81" y="250.48" width="21.24" height="8.19"/><rect class="cls-5" x="359.33" y="250.48" width="21.24" height="8.19"/><rect class="cls-5" x="381.85" y="250.48" width="21.24" height="8.19"/><rect class="cls-5" x="404.36" y="250.48" width="21.24" height="8.19"/><rect class="cls-5" x="426.88" y="250.48" width="21.24" height="8.19"/><rect class="cls-5" x="449.4" y="250.48" width="21.24" height="8.19"/><rect class="cls-5" x="212.52" y="260.11" width="21.24" height="8.19"/><rect class="cls-5" x="235.04" y="260.11" width="21.24" height="8.19"/><rect class="cls-5" x="257.55" y="260.11" width="21.24" height="8.19"/><rect class="cls-5" x="280.07" y="260.11" width="21.24" height="8.19"/><rect class="cls-5" x="302.59" y="260.11" width="21.24" height="8.19"/><rect class="cls-5" x="325.11" y="260.11" width="21.24" height="8.19"/><rect class="cls-5" x="347.62" y="260.11" width="21.24" height="8.19"/><rect class="cls-5" x="370.14" y="260.11" width="21.24" height="8.19"/><rect class="cls-5" x="392.66" y="260.11" width="21.24" height="8.19"/><rect class="cls-5" x="415.18" y="260.11" width="21.24" height="8.19"/><rect class="cls-5" x="437.7" y="260.11" width="21.24" height="8.19"/><polyline class="cls-5" points="470.61 268.3 460.21 268.3 460.21 260.11 470.72 260.11"/><polyline class="cls-6" points="201.42 260.1 211.49 260.1 211.49 268.29 201.32 268.29"/><rect class="cls-5" x="201.7" y="269.39" width="21.24" height="8.19"/><rect class="cls-5" x="224.22" y="269.39" width="21.24" height="8.19"/><rect class="cls-5" x="246.74" y="269.39" width="21.24" height="8.19"/><rect class="cls-5" x="269.26" y="269.39" width="21.24" height="8.19"/><rect class="cls-5" x="291.77" y="269.39" width="21.24" height="8.19"/><rect class="cls-5" x="314.29" y="269.39" width="21.24" height="8.19"/><rect class="cls-5" x="336.81" y="269.39" width="21.24" height="8.19"/><rect class="cls-5" x="359.33" y="269.39" width="21.24" height="8.19"/><rect class="cls-5" x="381.85" y="269.39" width="21.24" height="8.19"/><rect class="cls-5" x="404.36" y="269.39" width="21.24" height="8.19"/><rect class="cls-5" x="426.88" y="269.39" width="21.24" height="8.19"/><rect class="cls-5" x="449.4" y="269.39" width="21.24" height="8.19"/><rect class="cls-5" x="212.52" y="279.02" width="21.24" height="8.19"/><rect class="cls-5" x="235.04" y="279.02" width="21.24" height="8.19"/><rect class="cls-5" x="257.55" y="279.02" width="21.24" height="8.19"/><rect class="cls-5" x="280.07" y="279.02" width="21.24" height="8.19"/><rect class="cls-5" x="302.59" y="279.02" width="21.24" height="8.19"/><rect class="cls-5" x="325.11" y="279.02" width="21.24" height="8.19"/><rect class="cls-5" x="347.62" y="279.02" width="21.24" height="8.19"/><rect class="cls-5" x="370.14" y="279.02" width="21.24" height="8.19"/><rect class="cls-5" x="392.66" y="279.02" width="21.24" height="8.19"/><rect class="cls-5" x="415.18" y="279.02" width="21.24" height="8.19"/><rect class="cls-5" x="437.7" y="279.02" width="21.24" height="8.19"/><polyline class="cls-5" points="470.61 287.21 460.21 287.21 460.21 279.02 470.72 279.02"/><polyline class="cls-6" points="201.42 279.01 211.49 279.01 211.49 287.2 201.32 287.2"/><rect class="cls-5" x="201.7" y="288.3" width="21.24" height="8.19"/><rect class="cls-5" x="224.22" y="288.3" width="21.24" height="8.19"/><rect class="cls-5" x="246.74" y="288.3" width="21.24" height="8.19"/><rect class="cls-5" x="269.26" y="288.3" width="21.24" height="8.19"/><rect class="cls-5" x="291.77" y="288.3" width="21.24" height="8.19"/><rect class="cls-5" x="314.29" y="288.3" width="21.24" height="8.19"/><rect class="cls-5" x="336.81" y="288.3" width="21.24" height="8.19"/><rect class="cls-5" x="359.33" y="288.3" width="21.24" height="8.19"/><rect class="cls-5" x="381.85" y="288.3" width="21.24" height="8.19"/><rect class="cls-5" x="404.36" y="288.3" width="21.24" height="8.19"/><rect class="cls-5" x="426.88" y="288.3" width="21.24" height="8.19"/><rect class="cls-5" x="449.4" y="288.3" width="21.24" height="8.19"/><rect class="cls-5" x="212.52" y="297.93" width="21.24" height="8.19"/><rect class="cls-5" x="235.04" y="297.93" width="21.24" height="8.19"/><rect class="cls-5" x="257.55" y="297.93" width="21.24" height="8.19"/><rect class="cls-5" x="280.07" y="297.93" width="21.24" height="8.19"/><rect class="cls-5" x="302.59" y="297.93" width="21.24" height="8.19"/><rect class="cls-5" x="325.11" y="297.93" width="21.24" height="8.19"/><rect class="cls-5" x="347.62" y="297.93" width="21.24" height="8.19"/><rect class="cls-5" x="370.14" y="297.93" width="21.24" height="8.19"/><rect class="cls-5" x="392.66" y="297.93" width="21.24" height="8.19"/><rect class="cls-5" x="415.18" y="297.93" width="21.24" height="8.19"/><rect class="cls-5" x="437.7" y="297.93" width="21.24" height="8.19"/><polyline class="cls-5" points="470.61 306.12 460.21 306.12 460.21 297.93 470.72 297.93"/><polyline class="cls-6" points="201.42 297.92 211.49 297.92 211.49 306.11 201.32 306.11"/></g><rect class="cls-9" x="60.58" y="283.1" width="102.82" height="24.83"/><path class="cls-10" d="M66.35,264.34a1.35,1.35,0,0,0,1.35,1.35l6.06.72a1.35,1.35,0,0,0,1.35-1.35v-4.15a1.35,1.35,0,0,0-1.35-1.35H68.07a1.36,1.36,0,0,0-1.36,1.35Z"/><path class="cls-10" d="M157.25,264.34a1.35,1.35,0,0,1-1.35,1.35l-6.06.72a1.35,1.35,0,0,1-1.35-1.35v-4.15a1.35,1.35,0,0,1,1.35-1.35h5.7a1.35,1.35,0,0,1,1.35,1.35Z"/><ellipse class="cls-9" cx="111.79" cy="298.93" rx="4.27" ry="2.39"/><path class="cls-11" d="M136.94,305.11c0,1.55.7,2.81,1.58,2.81h4.94c.86,0,1.55-1.26,1.55-2.81V286.92c0-1.56-.69-2.81-1.55-2.81h-4.94c-.88,0-1.58,1.26-1.58,2.81Z"/><path class="cls-11" d="M78.58,305.11c0,1.55.7,2.81,1.57,2.81h4.94c.86,0,1.55-1.26,1.55-2.81V286.92c0-1.56-.69-2.81-1.55-2.81H80.15c-.87,0-1.57,1.26-1.57,2.81Z"/><path class="cls-9" d="M75.84,297.7a1.68,1.68,0,0,0,1.69,1.69h68.54a1.68,1.68,0,0,0,1.69-1.69h0a1.68,1.68,0,0,0-1.69-1.69H77.53a1.68,1.68,0,0,0-1.69,1.69Z"/><polygon class="cls-12" points="73.66 298.58 149.54 298.58 154.31 289.05 149.54 266.39 135.63 246.66 112.09 246.66 87.57 246.66 73.66 266.39 69.28 289.05 73.66 298.58"/><polygon class="cls-13" points="79.86 265.98 96.77 269.65 126.83 269.65 143.73 265.98 135.02 248.99 112.21 248.99 89.22 248.99 79.86 265.98"/><polygon class="cls-10" points="70.18 284.11 78.59 288.31 93.65 289.05 111.79 289.05 129.94 289.05 145.01 288.31 153.41 284.11 154.45 290.15 149.67 298.58 111.79 298.58 73.92 298.58 69.14 290.15 70.18 284.11"/><polygon class="cls-14" points="144.25 287.19 132.98 287.54 129.81 283.85 144.25 280.68 144.25 287.19"/><polygon class="cls-14" points="79.34 287.19 90.63 287.54 93.81 283.85 79.34 280.68 79.34 287.19"/><rect class="cls-15" x="98.21" y="290.15" width="27.18" height="5.49"/><polygon class="cls-10" points="140.84 269.65 144.86 277.68 129.65 281.81 111.93 281.81 129.65 280.68 143.18 277.03 140.84 269.65"/><polygon class="cls-10" points="82.75 269.65 78.72 277.68 93.94 281.81 111.66 281.81 93.94 280.68 80.41 277.03 82.75 269.65"/><polygon class="cls-16" points="145.72 280.68 149.21 280.68 150.37 284.78 145.72 286.73 145.72 280.68"/><polygon class="cls-16" points="77.86 280.68 74.38 280.68 73.22 284.78 77.86 286.73 77.86 280.68"/><path class="cls-9" d="M106.48,254.13a1,1,0,0,0,1,1h8.58a1,1,0,0,0,1-1v-1.6a1,1,0,0,0-1-1h-8.58a1,1,0,0,0-1,1Z"/><path class="cls-9" d="M94.48,285.17a.39.39,0,0,0,.39.38h33.85a.39.39,0,0,0,.38-.38h0a.39.39,0,0,0-.38-.39H94.87a.39.39,0,0,0-.39.39Z"/><path class="cls-9" d="M94.48,287.93a.39.39,0,0,0,.39.38h33.85a.39.39,0,0,0,.38-.38h0a.39.39,0,0,0-.38-.39H94.87a.39.39,0,0,0-.39.39Z"/><path class="cls-9" d="M94.48,286.55a.39.39,0,0,0,.39.38h33.85a.39.39,0,0,0,.38-.38h0a.39.39,0,0,0-.38-.4H94.87a.39.39,0,0,0-.39.4Z"/><polygon class="cls-10" points="128.3 271.47 123.27 278.71 122.48 278.71 128.3 271.47"/><polygon class="cls-10" points="95.29 271.47 100.32 278.71 101.1 278.71 95.29 271.47"/><path class="cls-16" d="M95.67,262a8.75,8.75,0,0,1,8.66,7.67h-2.14A6.65,6.65,0,0,0,95.67,264a6.75,6.75,0,0,0-6.18,4.07l-2-.44A8.75,8.75,0,0,1,95.67,262Z"/><rect class="cls-2" x="60.58" y="207.8" width="102.82" height="75.71"/><rect class="cls-16" x="60.58" y="218.1" width="102.82" height="3.33"/><rect class="cls-16" x="60.58" y="222.61" width="102.82" height="3.33"/><rect class="cls-16" x="60.58" y="227.13" width="102.82" height="3.33"/><rect class="cls-16" x="60.58" y="231.64" width="102.82" height="3.33"/><rect class="cls-16" x="60.58" y="236.15" width="102.82" height="3.33"/><rect class="cls-16" x="60.58" y="240.67" width="102.82" height="3.33"/><rect class="cls-16" x="60.58" y="245.18" width="102.82" height="3.33"/><rect class="cls-16" x="60.58" y="249.69" width="102.82" height="3.33"/><rect class="cls-16" x="60.58" y="254.2" width="102.82" height="3.33"/><rect class="cls-16" x="60.58" y="258.72" width="102.82" height="3.33"/><rect class="cls-16" x="60.58" y="263.23" width="102.82" height="3.33"/><rect class="cls-16" x="60.58" y="267.74" width="102.82" height="3.33"/><rect class="cls-16" x="60.58" y="272.25" width="102.82" height="3.33"/><rect class="cls-16" x="60.58" y="276.77" width="102.82" height="3.33"/><rect class="cls-16" x="60.58" y="281.28" width="102.82" height="3.33"/><rect class="cls-16" x="60.58" y="213.92" width="102.82" height="3.33"/><rect class="cls-16" x="60.58" y="209.74" width="102.82" height="3.33"/><rect class="cls-16" x="60.58" y="205.55" width="102.82" height="3.33"/><rect class="cls-17" x="188.4" y="48.21" width="295.48" height="50.07"/><path class="cls-18" d="M483.88,48.23l0,0h0a1.27,1.27,0,0,0-.9.38l-7.93,8-7.44-7.46a1.36,1.36,0,0,0-.21-.51,2,2,0,0,0-2.11,0,1.27,1.27,0,0,0-.21.51l-7.43,7.46-7.08-7.12a1.24,1.24,0,0,0-.36-.85,2.59,2.59,0,0,0-2.3,0,1.23,1.23,0,0,0-.36.85l-7.1,7.12-7.19-7.23a1.25,1.25,0,0,0-.31-.74,1.21,1.21,0,0,0-1.12-.29,1.22,1.22,0,0,0-1.13.29,1.28,1.28,0,0,0-.3.74l-7.2,7.23-7.43-7.46a1.27,1.27,0,0,0-.21-.51,2,2,0,0,0-2.11,0c-.14.14-.14.33-.21.51l-7.43,7.46-7.94-8a1.25,1.25,0,0,0-.9-.38h0a1.27,1.27,0,0,0-.9.38l-7.94,8-7.42-7.46c-.07-.17-.07-.37-.22-.51a1.94,1.94,0,0,0-2.1,0,1.28,1.28,0,0,0-.21.51l-7.43,7.46-7.08-7.12a1.26,1.26,0,0,0-.35-.85,2.62,2.62,0,0,0-2.31,0,1.26,1.26,0,0,0-.35.85l-7.09,7.12-7.2-7.23a1.28,1.28,0,0,0-.3-.74,2.37,2.37,0,0,0-2.24,0,1.25,1.25,0,0,0-.31.74l-7.2,7.23-7.44-7.46c-.06-.17-.06-.37-.2-.51a2,2,0,0,0-2.11,0,1.26,1.26,0,0,0-.2.51l-7.43,7.46-7.09-7.12a1.26,1.26,0,0,0-.35-.85,1.21,1.21,0,0,0-1.17-.27,1.19,1.19,0,0,0-1.15.27,1.32,1.32,0,0,0-.35.85l-7.08,7.12-7.86-7.9s0-.05,0-.07a1.35,1.35,0,0,0-1.86,0s0,.05,0,.07L284,56.55l-7.43-7.46a1.25,1.25,0,0,0-.2-.51,2,2,0,0,0-2.11,0,1.09,1.09,0,0,0-.2.51l-7.44,7.46-7.09-7.13a1.36,1.36,0,0,0-.36-.84,2.54,2.54,0,0,0-2.3,0,1.27,1.27,0,0,0-.34.84l-7.1,7.13-7.2-7.22a1.26,1.26,0,0,0-.3-.75,1.2,1.2,0,0,0-1.13-.28,1.18,1.18,0,0,0-1.12.28,1.27,1.27,0,0,0-.31.75l-7.18,7.22-7.43-7.46a1.27,1.27,0,0,0-.21-.51,1.9,1.9,0,0,0-2.1,0c-.15.14-.15.33-.22.51l-7.43,7.46-7.1-7.13a1.25,1.25,0,0,0-.35-.84,2.54,2.54,0,0,0-2.3,0,1.27,1.27,0,0,0-.34.84l-7.11,7.13-7.94-8a1.27,1.27,0,0,0-.9-.38h0c-.15,0-.26.12-.4.17V50.9l8.34,8.38a1.29,1.29,0,0,0,1.82,0l7.69-7.73,7.69,7.73a1.27,1.27,0,0,0,.9.38,1.28,1.28,0,0,0,.91-.38l7.79-7.82,7.78,7.82a1.3,1.3,0,0,0,.92.38,1.27,1.27,0,0,0,.9-.38l7.71-7.75,7.72,7.75a1.29,1.29,0,0,0,1.82,0l7.68-7.73,7.69,7.73a1.28,1.28,0,0,0,1.81,0l7.79-7.82,7.79,7.82a1.28,1.28,0,0,0,1.81,0l7.92-7.95,7.92,7.95a1.28,1.28,0,0,0,1.81,0l7.68-7.72,7.7,7.72a1.27,1.27,0,0,0,.9.38,1.26,1.26,0,0,0,.9-.38l7.8-7.82,7.79,7.82a1.28,1.28,0,0,0,1.81,0l7.72-7.75,7.71,7.75a1.31,1.31,0,0,0,.91.38,1.26,1.26,0,0,0,.9-.38l7.7-7.72,7.67,7.72a1.28,1.28,0,0,0,.9.38,1.3,1.3,0,0,0,.92-.38l7.78-7.82,7.79,7.82a1.27,1.27,0,0,0,.9.38,1.29,1.29,0,0,0,.91-.38l7.94-8,7.94,8a1.28,1.28,0,0,0,.91.38,1.26,1.26,0,0,0,.9-.38l7.79-7.82,7.78,7.82a1.31,1.31,0,0,0,.91.38,1.29,1.29,0,0,0,.91-.38l7.71-7.75,7.71,7.75a1.27,1.27,0,0,0,.9.38,1.3,1.3,0,0,0,.92-.38L449,51.57l7.69,7.72a1.28,1.28,0,0,0,1.81,0l7.79-7.82,7.79,7.82a1.29,1.29,0,0,0,.91.38,1.27,1.27,0,0,0,.9-.38l8-8Z"/><path class="cls-18" d="M483.88,65.12a1.24,1.24,0,0,0-1,.36l-7.93,8L467.55,66a1.33,1.33,0,0,0-.21-.5,1.92,1.92,0,0,0-2.11,0A1.23,1.23,0,0,0,465,66l-7.43,7.46-7.08-7.12a1.24,1.24,0,0,0-.36-.85,2.54,2.54,0,0,0-2.3,0,1.23,1.23,0,0,0-.36.85l-7.1,7.12-7.19-7.23a1.23,1.23,0,0,0-.31-.74,1.19,1.19,0,0,0-1.12-.29,1.21,1.21,0,0,0-1.13.29,1.26,1.26,0,0,0-.3.74l-7.2,7.23L415.74,66a1.24,1.24,0,0,0-.21-.5,1.92,1.92,0,0,0-2.11,0c-.14.14-.14.33-.21.51l-7.43,7.46-7.94-8a1.27,1.27,0,0,0-1.8,0l-7.94,8L380.67,66c-.07-.17-.07-.36-.22-.5a1.9,1.9,0,0,0-2.1,0,1.24,1.24,0,0,0-.21.51l-7.43,7.46-7.08-7.12a1.26,1.26,0,0,0-.35-.85,2.57,2.57,0,0,0-2.31,0,1.26,1.26,0,0,0-.35.85l-7.09,7.12-7.2-7.23a1.27,1.27,0,0,0-.3-.74,2.32,2.32,0,0,0-2.24,0,1.23,1.23,0,0,0-.31.74l-7.2,7.23L328.83,66c-.06-.17-.06-.36-.2-.5a1.27,1.27,0,0,0-2.31.51l-7.43,7.46-7.09-7.12a1.26,1.26,0,0,0-.35-.85,1.22,1.22,0,0,0-1.17-.28,1.2,1.2,0,0,0-1.15.28,1.32,1.32,0,0,0-.35.85l-7.08,7.12-7.86-7.9s0,0,0-.07a1.35,1.35,0,0,0-1.86,0s0,0,0,.07L284,73.45,276.62,66a1.22,1.22,0,0,0-.2-.51,1.24,1.24,0,0,0-1.06-.31,1.21,1.21,0,0,0-1.05.31,1.06,1.06,0,0,0-.2.5l-7.44,7.47-7.09-7.13a1.35,1.35,0,0,0-.36-.84,2.54,2.54,0,0,0-2.3,0,1.26,1.26,0,0,0-.34.84l-7.1,7.13-7.2-7.23a1.24,1.24,0,0,0-.3-.74,1.21,1.21,0,0,0-1.13-.29,1.19,1.19,0,0,0-1.12.29,1.26,1.26,0,0,0-.31.74l-7.18,7.23L224.8,66a1.24,1.24,0,0,0-.21-.51,1.9,1.9,0,0,0-2.1,0c-.15.14-.15.33-.22.5l-7.43,7.47-7.1-7.13a1.24,1.24,0,0,0-.35-.84,1.18,1.18,0,0,0-1.15-.28,1.2,1.2,0,0,0-1.15.28,1.26,1.26,0,0,0-.34.84l-7.11,7.13-7.94-8a1.19,1.19,0,0,0-1.31-.21V67.8l8.34,8.38a1.29,1.29,0,0,0,1.82,0l7.69-7.72,7.69,7.72a1.27,1.27,0,0,0,.9.38,1.29,1.29,0,0,0,.91-.38l7.79-7.82,7.78,7.82a1.31,1.31,0,0,0,.92.38,1.27,1.27,0,0,0,.9-.38l7.71-7.75,7.72,7.75a1.29,1.29,0,0,0,1.82,0l7.68-7.72,7.69,7.72a1.28,1.28,0,0,0,1.81,0l7.79-7.82,7.79,7.82a1.28,1.28,0,0,0,1.81,0l7.92-7.95,7.92,7.95a1.28,1.28,0,0,0,1.81,0l7.68-7.72,7.7,7.72a1.27,1.27,0,0,0,.9.38,1.26,1.26,0,0,0,.9-.38l7.8-7.82,7.79,7.82a1.28,1.28,0,0,0,1.81,0l7.72-7.76,7.71,7.76a1.31,1.31,0,0,0,.91.38,1.26,1.26,0,0,0,.9-.38l7.7-7.72,7.67,7.72a1.29,1.29,0,0,0,.9.38,1.31,1.31,0,0,0,.92-.38l7.78-7.82,7.79,7.82a1.27,1.27,0,0,0,.9.38,1.29,1.29,0,0,0,.91-.38l7.94-8,7.94,8a1.29,1.29,0,0,0,.91.38,1.26,1.26,0,0,0,.9-.38l7.79-7.82,7.78,7.82a1.32,1.32,0,0,0,.91.38,1.29,1.29,0,0,0,.91-.38l7.71-7.76,7.71,7.76a1.27,1.27,0,0,0,.9.38,1.31,1.31,0,0,0,.92-.38L449,68.46l7.69,7.72a1.28,1.28,0,0,0,1.81,0l7.79-7.82,7.79,7.82a1.29,1.29,0,0,0,.91.38,1.27,1.27,0,0,0,.9-.38l8-8Z"/><path class="cls-18" d="M483.88,82a1.24,1.24,0,0,0-1,.36l-7.93,8-7.44-7.47a1.33,1.33,0,0,0-.21-.5,1.92,1.92,0,0,0-2.11,0,1.23,1.23,0,0,0-.21.51l-7.43,7.46-7.08-7.12a1.24,1.24,0,0,0-.36-.85,2.54,2.54,0,0,0-2.3,0,1.23,1.23,0,0,0-.36.85l-7.1,7.12-7.19-7.23a1.23,1.23,0,0,0-.31-.74,1.19,1.19,0,0,0-1.12-.29,1.21,1.21,0,0,0-1.13.29,1.26,1.26,0,0,0-.3.74l-7.2,7.23-7.43-7.47a1.24,1.24,0,0,0-.21-.5,1.92,1.92,0,0,0-2.11,0c-.14.14-.14.33-.21.51l-7.43,7.46-7.94-8a1.27,1.27,0,0,0-1.8,0l-7.94,8-7.42-7.47c-.07-.17-.07-.36-.22-.5a1.9,1.9,0,0,0-2.1,0,1.24,1.24,0,0,0-.21.51l-7.43,7.46-7.08-7.12a1.26,1.26,0,0,0-.35-.85,2.57,2.57,0,0,0-2.31,0,1.26,1.26,0,0,0-.35.85l-7.09,7.12-7.2-7.23a1.27,1.27,0,0,0-.3-.74,2.32,2.32,0,0,0-2.24,0,1.23,1.23,0,0,0-.31.74l-7.2,7.23-7.44-7.47c-.06-.17-.06-.36-.2-.5a1.27,1.27,0,0,0-2.31.51l-7.43,7.46-7.09-7.12a1.26,1.26,0,0,0-.35-.85,1.22,1.22,0,0,0-1.17-.27,1.19,1.19,0,0,0-1.15.27,1.32,1.32,0,0,0-.35.85l-7.08,7.12-7.86-7.9s0,0,0-.07a1.35,1.35,0,0,0-1.86,0s0,0,0,.07L284,90.35l-7.43-7.46a1.22,1.22,0,0,0-.2-.51,1.24,1.24,0,0,0-1.06-.31,1.21,1.21,0,0,0-1.05.31,1.06,1.06,0,0,0-.2.5l-7.44,7.47-7.09-7.13a1.35,1.35,0,0,0-.36-.84,2.54,2.54,0,0,0-2.3,0,1.26,1.26,0,0,0-.34.84l-7.1,7.13-7.2-7.23a1.24,1.24,0,0,0-.3-.74,1.21,1.21,0,0,0-1.13-.29,1.19,1.19,0,0,0-1.12.29,1.26,1.26,0,0,0-.31.74l-7.18,7.23-7.43-7.46a1.24,1.24,0,0,0-.21-.51,1.9,1.9,0,0,0-2.1,0c-.15.14-.15.33-.22.5l-7.43,7.47-7.1-7.13a1.24,1.24,0,0,0-.35-.84,1.18,1.18,0,0,0-1.15-.27,1.2,1.2,0,0,0-1.15.27,1.26,1.26,0,0,0-.34.84l-7.11,7.13-7.94-8a1.19,1.19,0,0,0-1.31-.21V84.7l8.34,8.38a1.29,1.29,0,0,0,1.82,0l7.69-7.72,7.69,7.72a1.27,1.27,0,0,0,.9.38,1.28,1.28,0,0,0,.91-.38l7.79-7.82,7.78,7.82a1.3,1.3,0,0,0,.92.38,1.27,1.27,0,0,0,.9-.38l7.71-7.75,7.72,7.75a1.29,1.29,0,0,0,1.82,0l7.68-7.72,7.69,7.72a1.28,1.28,0,0,0,1.81,0l7.79-7.82,7.79,7.82a1.28,1.28,0,0,0,1.81,0l7.92-7.95,7.92,7.95a1.28,1.28,0,0,0,1.81,0l7.68-7.72,7.7,7.72a1.27,1.27,0,0,0,.9.38,1.26,1.26,0,0,0,.9-.38l7.8-7.82,7.79,7.82a1.28,1.28,0,0,0,1.81,0l7.72-7.76,7.71,7.76a1.31,1.31,0,0,0,.91.38,1.26,1.26,0,0,0,.9-.38l7.7-7.72,7.67,7.72a1.28,1.28,0,0,0,.9.38,1.3,1.3,0,0,0,.92-.38l7.78-7.82,7.79,7.82a1.27,1.27,0,0,0,.9.38,1.29,1.29,0,0,0,.91-.38l7.94-8,7.94,8a1.28,1.28,0,0,0,.91.38,1.26,1.26,0,0,0,.9-.38l7.79-7.82,7.78,7.82a1.31,1.31,0,0,0,.91.38,1.29,1.29,0,0,0,.91-.38l7.71-7.76,7.71,7.76a1.27,1.27,0,0,0,.9.38,1.3,1.3,0,0,0,.92-.38L449,85.35l7.69,7.72a1.28,1.28,0,0,0,1.81,0l7.79-7.82,7.79,7.82a1.29,1.29,0,0,0,.91.38,1.27,1.27,0,0,0,.9-.38l8-8Z"/><rect class="cls-19" x="13.8" y="306.62" width="470.93" height="8.1"/><rect class="cls-8" x="218.69" y="168.59" width="52.17" height="9.62"/><rect class="cls-8" x="218.69" y="168.59" width="52.17" height="9.62"/><path class="cls-19" d="M264.4,167.05H225.15V121.33H264.4Z"/><rect class="cls-13" x="228.58" y="124.77" width="32.39" height="38.85"/><rect class="cls-20" x="218.7" y="163.62" width="52.17" height="9.61"/><rect class="cls-20" x="218.7" y="163.62" width="52.17" height="9.61"/><rect class="cls-8" x="401.41" y="168.59" width="52.16" height="9.62"/><rect class="cls-8" x="401.41" y="168.59" width="52.16" height="9.62"/><path class="cls-19" d="M447.13,167.05H407.91V121.33h39.22Z"/><rect class="cls-13" x="411.34" y="124.77" width="32.35" height="38.85"/><rect class="cls-20" x="401.42" y="163.62" width="52.16" height="9.61"/><rect class="cls-20" x="401.42" y="163.62" width="52.16" height="9.61"/><rect class="cls-8" x="310.04" y="166.98" width="52.19" height="9.61"/><rect class="cls-8" x="310.04" y="166.98" width="52.19" height="9.61"/><path class="cls-19" d="M355.75,165.44H316.52V119.71h39.22Z"/><rect class="cls-13" x="319.96" y="123.15" width="32.36" height="38.86"/><rect class="cls-20" x="310.05" y="162.01" width="52.19" height="9.61"/><rect class="cls-20" x="310.05" y="162.01" width="52.19" height="9.61"/><rect class="cls-8" x="218.69" y="255.53" width="52.17" height="9.6"/><rect class="cls-8" x="218.69" y="255.53" width="52.17" height="9.6"/><path class="cls-19" d="M264.4,254H225.15V208.25H264.4Z"/><rect class="cls-13" x="228.58" y="211.69" width="32.39" height="38.88"/><rect class="cls-20" x="218.7" y="250.56" width="52.17" height="9.59"/><rect class="cls-20" x="218.7" y="250.56" width="52.17" height="9.59"/><rect class="cls-8" x="401.41" y="255.53" width="52.16" height="9.6"/><path class="cls-19" d="M447.13,254H407.91V208.25h39.22Z"/><rect class="cls-13" x="411.34" y="211.69" width="32.35" height="38.88"/><rect class="cls-20" x="401.42" y="250.56" width="52.16" height="9.59"/><rect class="cls-20" x="401.42" y="250.56" width="52.16" height="9.59"/><path class="cls-19" d="M362,306.62H310.24V208.25H362Z"/><rect class="cls-9" x="313.67" y="211.69" width="44.92" height="94.93"/><rect class="cls-20" x="319.96" y="220.04" width="32.36" height="33.96"/><rect class="cls-20" x="319.95" y="265.13" width="32.36" height="33.96"/><ellipse class="cls-14" cx="352.25" cy="259.87" rx="2.1" ry="2.3"/><path class="cls-18" d="M200.25,62.26v-3l-.15,0,0,3.14Z"/><polygon class="cls-17" points="200.02 50.98 200.02 50.98 200.09 58.72 200.02 50.98"/><polygon class="cls-17" points="5.79 183.74 200.26 183.74 200.26 162.38 200.02 136.22 66.57 136.22 5.79 183.74"/><path class="cls-18" d="M191.37,152.82l-7.44-7.47a1.32,1.32,0,0,0-.21-.5,1.92,1.92,0,0,0-2.1,0,1.23,1.23,0,0,0-.21.51L174,152.82l-7.08-7.12a1.24,1.24,0,0,0-.36-.85,2.54,2.54,0,0,0-2.3,0,1.23,1.23,0,0,0-.35.85l-7.1,7.12-7.19-7.23a1.23,1.23,0,0,0-.31-.74,1.19,1.19,0,0,0-1.12-.29,1.21,1.21,0,0,0-1.13.29,1.26,1.26,0,0,0-.3.74l-7.2,7.23-7.43-7.47a1.24,1.24,0,0,0-.21-.5,1.92,1.92,0,0,0-2.1,0c-.14.14-.14.33-.21.51l-7.43,7.46-7.94-8a1.27,1.27,0,0,0-1.8,0l-7.94,8L97,145.35c-.07-.17-.07-.36-.22-.5a1.9,1.9,0,0,0-2.1,0,1.24,1.24,0,0,0-.21.51l-7.43,7.46L80,145.7a1.26,1.26,0,0,0-.35-.85,2.57,2.57,0,0,0-2.31,0,1.26,1.26,0,0,0-.35.85l-7.09,7.12-7.2-7.23a1.27,1.27,0,0,0-.3-.74,2.32,2.32,0,0,0-2.24,0,1.23,1.23,0,0,0-.31.74l-7.2,7.23-3.18-3.19-2,1.59,4.31,4.33a1.28,1.28,0,0,0,1.81,0l7.72-7.76L69,155.55a1.31,1.31,0,0,0,.91.38,1.26,1.26,0,0,0,.9-.38l7.7-7.72,7.67,7.72a1.29,1.29,0,0,0,.9.38,1.31,1.31,0,0,0,.92-.38l7.78-7.82,7.79,7.82a1.27,1.27,0,0,0,.9.38,1.29,1.29,0,0,0,.91-.38l7.94-8,7.94,8a1.29,1.29,0,0,0,.91.38,1.26,1.26,0,0,0,.9-.38l7.79-7.82,7.78,7.82a1.32,1.32,0,0,0,.91.38,1.29,1.29,0,0,0,.91-.38l7.71-7.76,7.71,7.76a1.27,1.27,0,0,0,.9.38,1.31,1.31,0,0,0,.92-.38l7.69-7.72,7.69,7.72a1.28,1.28,0,0,0,1.81,0l7.79-7.82,7.79,7.82a1.29,1.29,0,0,0,.91.38,1.27,1.27,0,0,0,.9-.38l7.86-7.9,0-3.14a1.2,1.2,0,0,0-.8.34Z"/><path class="cls-18" d="M32.16,176.37a1.3,1.3,0,0,0,.92-.38L41,168.18,49,176a1.32,1.32,0,0,0,1.84,0l7.87-7.76L66.51,176a1.35,1.35,0,0,0,.93.38,1.3,1.3,0,0,0,.92-.38l7.85-7.72L84,176a1.32,1.32,0,0,0,.92.38,1.34,1.34,0,0,0,.94-.38l7.93-7.82,7.93,7.82a1.31,1.31,0,0,0,.92.38,1.33,1.33,0,0,0,.93-.38l8.08-8,8.08,8a1.32,1.32,0,0,0,.92.38,1.3,1.3,0,0,0,.92-.38l7.94-7.82,7.93,7.82a1.35,1.35,0,0,0,.93.38,1.33,1.33,0,0,0,.93-.38l7.86-7.76L155,176a1.31,1.31,0,0,0,.91.38,1.34,1.34,0,0,0,.94-.38l7.83-7.72,7.83,7.72a1.31,1.31,0,0,0,.92.38,1.32,1.32,0,0,0,.92-.38l7.93-7.82,7.93,7.82a1.33,1.33,0,0,0,.93.38,1.31,1.31,0,0,0,.92-.38l8.13-8v-3a1.27,1.27,0,0,0-1,.36l-8.08,8-7.58-7.47a1.32,1.32,0,0,0-.21-.5,2,2,0,0,0-2.14,0c-.14.14-.15.33-.22.51l-7.57,7.46-7.22-7.12a1.54,1.54,0,0,0-3.07,0L156,173.27,148.64,166a1.12,1.12,0,0,0-1.45-1,1.11,1.11,0,0,0-1.45,1l-7.33,7.23-7.57-7.47a1.23,1.23,0,0,0-.22-.5,2,2,0,0,0-2.14,0c-.14.14-.14.33-.21.51l-7.57,7.46-8.09-8a1.31,1.31,0,0,0-1.84,0l-8.09,8L95.1,165.8c-.07-.17-.08-.36-.23-.5a2,2,0,0,0-2.14,0c-.14.14-.15.33-.22.51L85,173.27l-7.22-7.12A1.17,1.17,0,0,0,76.21,165a1.18,1.18,0,0,0-1.54,1.13l-7.22,7.12L60.11,166a1.25,1.25,0,0,0-.31-.74,1.24,1.24,0,0,0-1.14-.29,1.12,1.12,0,0,0-1.45,1l-7.33,7.23-7.58-7.47c-.06-.17-.06-.36-.2-.5A1.25,1.25,0,0,0,41,165a1.26,1.26,0,0,0-1.08.32,1.2,1.2,0,0,0-.2.51l-7.57,7.46-5.73-5.65-2.06,1.61L31.24,176A1.31,1.31,0,0,0,32.16,176.37Z"/><polygon class="cls-7" points="240.56 58.62 222.84 76.21 222.84 36.88 240.56 36.88 240.56 58.62"/><rect class="cls-12" x="219.14" y="21.64" width="25.11" height="15.24"/><rect class="cls-8" x="222.84" y="36.88" width="17.72" height="4.81"/><rect class="cls-18" x="199.92" y="191.18" width="272.33" height="6.14"/><rect class="cls-21" width="490.52" height="336.36"/></g></g></g></svg>