<svg xmlns="http://www.w3.org/2000/svg" viewBox="0 0 420 420"><defs><style>.cls-1{fill:none;}.cls-2{fill:#fcfcfc;opacity:0.5;}</style></defs><title>Avion_5</title><g id="Capa_2" data-name="Capa 2"><g id="Capa_1-2" data-name="Capa 1"><rect class="cls-1" width="420" height="420" transform="translate(420 0) rotate(90)"/><path class="cls-2" d="M404.06,268.35a108.55,108.55,0,0,1-19.83-8c-.37-.2-1.85-1.13-2.59-1.57-.67-.59-2.19-1.83-2.09-1.75q-1.16-1.06-2.29-2.16a102.13,102.13,0,0,1-9.63-10.8c-12.35-16-20.83-34.62-32.18-51.3A304.25,304.25,0,0,0,270,123c3.92-15.31,7.28-30.76,10-46.33a269.75,269.75,0,0,0,4.31-43.61c.13-11,.1-22-.34-33H269.5c0,1-.1,1.95-.14,2.92-.65,15-.57,30-1.74,45-.1,1.33-.22,2.67-.36,4-.05.49-.11,1-.16,1.47l0,.21c-.66,4.44-1.47,8.85-2.29,13.26-2.12,11.39-4.6,22.71-7.36,34Q256,106.45,254.61,112c-3-2-5.92-3.88-8.94-5.71-33.33-20.22-74.9-33.5-113.88-24C102.48,89.56,78,110.51,62.54,135.91c-15.79,25.85-22.78,57-17.9,87,5.19,31.88,27.33,61.07,56.88,74.38,66.23,29.85,119.4-45,142.8-96.85,7.83-17.35,13.75-35.47,19.14-53.71.35-1.17.68-2.35,1-3.53q5.2,4.32,10.13,8.83a297.75,297.75,0,0,1,38.54,42.43c11.45,15.45,20.08,32.59,30.49,48.71,9.05,14,19.84,28.89,35.37,36.06,12.71,5.87,26.86,11,41,12.6V272.41A111.35,111.35,0,0,1,404.06,268.35ZM249.37,131.49c-7.35,25.87-16.3,51.36-28.72,74.86-13.74,26-31.95,52.94-57.25,68.62-11.1,6.88-22.52,10.8-35.28,10.1-13.91-.77-28-8.75-38.91-18.5C46.93,228.65,57.33,162.3,95.07,124.79c21.23-21.09,48.19-29.13,78-25.46C200.69,102.72,226.58,115.22,249.37,131.49Z"/></g></g></svg>