<svg xmlns="http://www.w3.org/2000/svg" viewBox="0 0 420 420"><defs><style>.cls-1{opacity:0.5;}.cls-2{fill:#fcfcfc;}</style></defs><title>Avion_8</title><g id="Capa_2" data-name="Capa 2"><g id="Capa_1-2" data-name="Capa 1"><g class="cls-1"><path class="cls-2" d="M0,145.59c22.7,0,45.39.65,67.93,1.87,6.82.37,14.37,1.09,17.59,5,1.73,2.11,2.5,5.64,2.93,8.11,1.95,11.15.84,22.77-.33,35.07-1.26,13.19-2.56,26.83,0,40.61,3.22,17.43,13.09,33.6,27.77,45.55s32.52,18.27,50.27,17.95c9.46-.2,18.46-2.1,27.16-3.95,6.09-1.29,11.85-2.51,17.63-3.15a85.93,85.93,0,0,1,42.09,6c7.61,3.14,17.45,8.78,21.18,17.78,2.08,5,2.32,11.2,2.4,18.16.33,28.38-.7,57-3,85.4h18.08c2.28-28.46,3.29-57.16,3-85.61-.08-6.83-.19-16.19-3.77-24.84C286,297.92,275.33,288.4,259.91,282a103.94,103.94,0,0,0-51-7.24c-6.67.73-13.13,2.1-19.39,3.43-8.25,1.75-16,3.4-23.8,3.56h-1.1c-27.57,0-53.82-21.67-58.84-48.78-2.09-11.3-1-23.12.23-35.63,1.23-12.95,2.51-26.34.15-39.88-.78-4.46-2.33-11-6.73-16.4-8.52-10.42-22.86-11.2-30.56-11.62C46,128.24,23,127.61,0,127.58Z"/><path class="cls-2" d="M151.48,144.49c-3.53-.69-6.6-1.37-8.53-2.74-2.94-2.09-4.7-7-6-11.45-2.11-7.08-4.38-16.34-3.22-25.14,1-7.49,4.42-14.8,8-22.54,1.25-2.67,2.55-5.43,3.75-8.24A143.88,143.88,0,0,0,155.85,0H137.91a125.58,125.58,0,0,1-8.73,67.2c-1.09,2.54-2.27,5-3.52,7.71-4.06,8.65-8.25,17.59-9.61,27.87-1.61,12.22,1.2,23.9,3.82,32.72,2.21,7.43,5.47,15.73,12.83,21,4.8,3.41,10,4.64,15.38,5.69,21.4,4.19,48.41,6.85,67.4-9.91a83.15,83.15,0,0,0,8.89-9.6c3.39-4.09,6.6-7.95,10.32-10a15.32,15.32,0,0,1,16.39,1.42c9.4,7.54,7.65,24.14,3.29,36.07C253,174,251.31,177.9,249.56,182c-5.19,12.12-10.56,24.65-10.12,38.91.28,9.24,3.15,17.19,8.28,23,8.6,9.7,21.53,11.42,30.51,11.88a135.67,135.67,0,0,0,60.44-11c7.72-3.35,18.7-9,24.81-19.68,4.93-8.6,6-18.94,3-29.91A66.76,66.76,0,0,0,352.73,170c-4-4.71-8.43-9-12.68-13.11-7.22-7-14-13.65-18.41-21.63-6.46-11.8-8-27.57-4.53-46.88.75-4.17,1.73-8.4,3.81-11,2.8-3.54,8.44-5.42,14-7,7.58-2.22,15.58-4.3,22.84-3.25,6.35.92,11.71,4.75,13.05,9.32,1.82,6.23-2.7,14.24-7.08,22l-1,1.78c-9.27,16.52-9.84,31.11-1.62,41.07,8.95,10.85,23.86,10.38,31.86,10.14l27-.85v-18l-27.6.86c-7.41.24-14.67-.05-17.66-3.68-3.57-4.33-.57-13.51,3.44-20.65l1-1.73c5.65-10,12.68-22.44,8.69-36-3.35-11.44-14.18-20.09-27.6-22C349.51,47.69,339,50.38,330,53,322,55.34,313.08,58.45,307,66.11c-4.55,5.77-6.26,12.57-7.42,19.07-4.21,23.5-2,43.29,6.47,58.82,5.67,10.35,13.79,18.25,21.64,25.88,4.15,4,8.06,7.84,11.56,11.93,8.48,9.9,14.5,24.34,8.81,34.25-2.63,4.59-7.85,8.46-16.42,12.17a117.85,117.85,0,0,1-52.56,9.53c-9.09-.46-15-2.4-18.16-5.92-2.26-2.55-3.59-6.64-3.74-11.51-.31-10.23,4-20.42,8.66-31.2,1.77-4.13,3.6-8.41,5.19-12.77C277.8,158,279,133.46,262.14,120a32.73,32.73,0,0,0-36-3.11c-6.67,3.68-11.32,9.29-15.42,14.23a68.7,68.7,0,0,1-7,7.62C190.62,150.33,168.91,147.9,151.48,144.49Z"/></g></g></g></svg>