<svg xmlns="http://www.w3.org/2000/svg" viewBox="0 0 420 420"><defs><style>.cls-1{fill:none;}.cls-2{fill:#fcfcfc;opacity:0.5;}</style></defs><title>Avion_1</title><g id="Capa_2" data-name="Capa 2"><g id="Capa_1-2" data-name="Capa 1"><rect class="cls-1" x="0.05" y="-0.05" width="419.9" height="420" transform="translate(419.95 -0.05) rotate(90)"/><path class="cls-2" d="M273.33,420c-4.59-16.61-8.95-33.23-9.25-50.6-.32-18.28,4.25-35.62,14.3-50.94,9.71-14.79,21.49-27.66,29.52-43.57,4.59-9.09,8.8-18.36,13.25-27.51,3.87-8,8.53-15.59,12.16-23.65a64.75,64.75,0,0,0,5-16.87,52.49,52.49,0,0,0,.25-7.22c0-.65-.22-2.63-.21-2.7-.07-.3-.54-2.46-.78-3.3-.14-.48-.84-2.27-.82-2.34-.38-.76-.81-1.48-1.22-2.23a3.34,3.34,0,0,1-.39-.84,4,4,0,0,1-.67-.6c-.44-.44-2.3-2-1.91-1.83-3.59-2.5-6.19-3-10.63-3-14.19-.14-28.48,7.53-40,15.5-13.65,9.44-25.47,21.53-36.43,33.91-11.2,12.66-20.63,26.4-31.06,39.63s-24.4,20.95-41.24,15.63c-5.45-1.72-7.46-6.5-6.72-11.83,2.86-20.8,17.52-37.39,29.44-53.74a309,309,0,0,1,43-48.19c15.2-13.72,31.42-26.5,44.9-42,10.59-12.17,23.64-30.29,19.2-47.49-1.57-6.09-4.13-8.21-9.66-9.48a32.73,32.73,0,0,0-8.74-.27A54,54,0,0,0,272.82,77C255.22,82.87,243,98.7,230,111c-16.29,15.42-33.42,29.93-48.31,46.77a205.09,205.09,0,0,0-34.39,55.05c-8.43,19.57-14.3,40.24-19,61A84.74,84.74,0,0,1,112,308.37c-9.35,11.59-23,18.43-38,15.74-18.45-3.3-34.06-19.7-44.61-34.21-10.31-14.18-15.26-31-16.65-48.3-1.19-14.83-1.62-31.24,6.39-44.37,14.6-23.92,45.11-34.95,69.55-45.49,13.18-5.68,26.53-11.27,38.86-18.67q3.86-2.32,7.53-4.93a17.13,17.13,0,0,0,2.52-2c1.6-1.37,3.16-2.79,4.75-4.18,7.19-6.31,14.53-12.43,21.85-18.57,25.59-21.47,56.6-45.3,66.18-78.91A75,75,0,0,0,233,.15s0,0,0-.07h19.24s0,0,0,.07c1.77,37.74-20.64,68.25-46.95,92.91-14,13.14-29.08,25.11-43.66,37.61-11.37,9.75-22.25,18.43-35.7,25.18C100.24,168.78,71.3,177,47.93,194.28c-.7.52-1.26.95-2.73,2.21-1,.83-1.93,1.69-2.85,2.58-1.12,1.08-2.21,2.2-3.24,3.36-.4.46-.8.92-1.19,1.39l-.34.4c-.05.09-.15.24-.33.51-.83,1.21-1.62,2.44-2.33,3.73-.22.4-1,2-1.1,2.15a32.3,32.3,0,0,0-1.17,3.57c-.16.61-.72,4-.64,3-1.67,15.78-.62,33.5,5.53,48.26a72.29,72.29,0,0,0,12.81,20c6.12,6.88,13.17,13.92,21.58,17.93a27.12,27.12,0,0,0,7.81,2.22,25.69,25.69,0,0,0,3.38-.05c.14,0,1.13-.24,1.39-.32.94-.29,1.89-.53,2.81-.87-.22,0,1.89-1,2.3-1.26q1-.61,2-1.31l.28-.19.44-.38a41.62,41.62,0,0,0,3.18-3c.57-.6,1.11-1.21,1.65-1.84.14-.16,1.11-1.41,1.2-1.51,8-10.94,10-20.72,13.31-34.31a346.61,346.61,0,0,1,21.1-62,220,220,0,0,1,35.92-55c14.91-16.76,32.05-31.18,48.26-46.62C231.25,83.27,244.3,68,263,60.29c15.09-6.24,35.55-8.8,48.93,2.56C327,75.67,324.39,99,317.36,115.29c-7.84,18.1-21.84,33.35-36.19,46.59-15.48,14.28-32,27.44-46.61,42.64a216.13,216.13,0,0,0-20.28,24.58c-5.94,8.34-12.42,16.28-18,24.85a83,83,0,0,0-8.29,15.56,15.69,15.69,0,0,0,4.44-2.34c3.87-2.8,7.89-8.19,11-12.6a425.31,425.31,0,0,1,30.08-37.82c21.89-24.4,51-51.12,85.57-53.15,12.4-.73,24.48,3.8,31.87,14,7.11,9.82,7.77,22.63,6,34.2-2.49,15.92-11.28,29.37-18.25,43.58-8.73,17.8-16.29,36-28.24,52C298.69,323,286,337.7,283.79,357.85c-2.24,20.75,3.54,40.57,9,60.32a10.69,10.69,0,0,1,.33,1.82Z"/></g></g></svg>