<svg xmlns="http://www.w3.org/2000/svg" viewBox="0 0 420 420"><defs><style>.cls-1{fill:none;}.cls-2{fill:#78ccd0;}</style></defs><title>Avion_2_on</title><g id="Capa_2" data-name="Capa 2"><g id="Capa_1-2" data-name="Capa 1"><rect class="cls-1" width="420" height="420"/><path class="cls-2" d="M363,158.81c-2.65-17.33-8.74-34.44-20-48C331.3,96.76,313.5,88.16,296.06,84c-34-8-71.78-1.12-99.85,20-25,18.83-40.86,46.12-51.37,75.16-1.62,4.49-3.11,9-4.49,13.58l-.81-.8c-13.92-13.34-31.13-22.32-48.45-30.45a431.9,431.9,0,0,0-58-22.45q-15.71-4.77-31.79-8.17a11.19,11.19,0,0,0-1.24-.19v19.62A397.62,397.62,0,0,1,60.12,169c19.25,7.65,39.39,16.4,56.29,28.55a110.84,110.84,0,0,1,18.27,16.87,525.89,525.89,0,0,0-9.2,56.6c-2.1,18.24-3.82,36.53-5.73,54.79-2.29,21.94-4.21,44-3.27,66.11a213.56,213.56,0,0,0,3,27.9h19.37a12,12,0,0,0-.21-1.87c-7.73-39.93-.54-81.54,3.5-121.49,2.12-21,4.33-41.6,8.12-62.15,11.28,15.55,22.09,31.57,37.1,43.58a109.6,109.6,0,0,0,158.35-22.69C364.77,227.56,367.92,191.19,363,158.81Zm-17.45,34.29c-.77,14-3.49,28.45-9.62,40.78-23.83,47.94-86.64,63.17-130.49,33.54-21.2-14.32-34.31-37.06-49.88-57.25,6.8-26.53,17-53.68,34.82-74.39C208.92,114.16,235.06,101,264,100.06c17.24-.56,35.07,2.73,50.07,11.53,13.14,7.71,21.44,19.57,26.06,33.94C345.07,160.86,346.39,177.1,345.51,193.11Z"/></g></g></svg>