<svg id="Capa_1" data-name="Capa 1" xmlns="http://www.w3.org/2000/svg" viewBox="0 0 420 420"><defs><style>.cls-1{fill:none;}.cls-2{fill:#78ccd0;}</style></defs><title>Nave_3_on</title><rect class="cls-1" x="0.04" y="-0.07" width="420" height="420"/><path class="cls-2" d="M230,367.19a197.87,197.87,0,0,1-38.16,9.67c-11.46,1.66-25.1,1.81-36.37-1.83-.35-.11-.69-.25-1-.38S153,374,152.88,374c-1.14-.6-2.28-1.2-3.37-1.89-.51-.32-1-.66-1.5-1l-.3-.24a33.31,33.31,0,0,1-3.26-3.29c.12,0-1.48-2.18-1.75-2.66s-.56-1.05-.84-1.58l-.24-.44-.08-.22a32.25,32.25,0,0,1-2.12-9.09c-1.27-16.12,4.91-31.12,13.87-44.57,19.25-28.92,49-50.1,76.81-70.08s61.85-38.47,77.81-70.13c15.2-30.15,9-76.17-26.72-88.08-15.71-5.24-33.31-2.6-48.82,2C212.47,88.48,192.66,96.06,175,107c-17.9,11.1-34.08,26-44.36,44.57-10.93,19.74-14.27,42.26-22.59,63-14.47,36.1-53.16,68-92.83,65.08-6.46-.48-11.16-.74-15.14-.75v18c3.85.29,8.55.54,15.14.93,11.64.69,23.07-.35,34.07-4.33,19.51-7.05,37.45-18.17,51.63-33.4,15.29-16.42,24.81-35.48,31.29-56.81,6.29-20.7,11.59-41.32,26.33-57.9,13.45-15.12,30.93-25.82,49.38-33.78,16-6.9,34.52-13.89,51.66-14.48,1.88-.06,3.76-.06,5.63,0,.73,0,1.46.09,2.19.15l.86.06.31,0a43.23,43.23,0,0,1,4.59.94q1.48.38,2.93.86c.21.07,1.71.64,1.84.67a25.47,25.47,0,0,1,12.39,10.76c7.76,12.78,8.34,31.45,2.33,45.56-6.46,15.18-19.25,27-31.88,37.15-12.9,10.35-26.95,19.24-40.37,28.88-29.52,21.2-59.65,43.31-81.06,73.15-10.35,14.42-17.87,31.05-19.17,48.91-1.08,14.83,2.78,30.79,14.6,40.65,22,18.31,56.18,13,81.61,6.51,31.92-8.17,59.31-24.76,85.52-44.35,28.7-21.45,57.48-47,92.86-56.43A101.25,101.25,0,0,1,420,287.27V268C342.67,268.84,298,342.82,230,367.19Z"/></svg>