<svg id="Capa_1" data-name="Capa 1" xmlns="http://www.w3.org/2000/svg" viewBox="0 0 420 420"><defs><style>.cls-1{fill:none;}.cls-2{fill:#fcfcfc;opacity:0.5;}</style></defs><title>Nave_5</title><rect class="cls-1" x="0.04" y="-0.07" width="420" height="420"/><path class="cls-2" d="M283.23,303.78c.42,8.51.28,17,.51,25.57.3,10.71.67,21.45-.24,32.14C282,379.35,273,395,269.6,412.43c-.48,2.48-.87,5-1.1,7.49H288a72.7,72.7,0,0,1,2.52-11c2.54-8.62,6-16.92,8.61-25.53,6.45-21.66,3.92-44.55,3.82-66.77-.15-31.4-5.64-62.51-18.09-91.44a155.14,155.14,0,0,0-26.18-41.92c2.69-6.31,5.27-12.66,7.57-19.11a383.6,383.6,0,0,0,14.37-52.8A588.23,588.23,0,0,0,292.41,0H278c-2.19,24.68-5.39,49.28-9.35,73.71-5.22,32.21-12.23,65.21-24.79,95.5a101.7,101.7,0,0,0-16.94-10.88A106,106,0,0,0,180.15,147c-16.1-.21-33.22,1.1-48.34,7a81,81,0,0,0-38.18,30.9C84,199.19,76.88,217,78.46,234.54c1.73,19.12,12.62,35.33,26.64,47.92,11.45,10.28,24.86,19.38,40.39,21.67,27,4,49.74-13.19,65.69-33.3,16.23-20.45,28.13-43.8,38.75-67.55a138.51,138.51,0,0,1,13,20.7C275.46,248.46,281.9,276.64,283.23,303.78Zm-71-68.74c-6.56,11.15-13.19,21-21.6,30.09-1.84,2-3.74,3.91-5.72,5.75q-1.45,1.35-2.95,2.63c-1.68,1.44-1.81,1.54-2.57,2.1a68,68,0,0,1-7,4.59c-1.06.6-2.14,1.14-3.22,1.69-.34.17-.7.33-1.05.49s-1.48.6-1.58.63a64,64,0,0,1-6.79,1.92l-.89.17s-1,.15-1.34.17c-1.34.09-2.66.18-4,.17s-2.72-.09-4.08-.22h-.18c-.78-.13-1.55-.27-2.32-.44a47.17,47.17,0,0,1-8.54-2.67c-4.47-1.91-11.45-6.5-16.2-10.48-6.85-5.73-13.3-12.12-18-19.78-7.59-12.45-8.09-25.49-3.31-39s13.94-26.86,25.79-34.66c11.23-7.39,24.52-10.37,37.93-11.33,14.79-1.06,28.85-.6,42.89,4.17a82.52,82.52,0,0,1,28.23,16.77C228.67,204,221.21,219.87,212.28,235Z"/></svg>