<svg id="Capa_1" data-name="Capa 1" xmlns="http://www.w3.org/2000/svg" viewBox="0 0 420 420"><defs><style>.cls-1{fill:#78ccd0;}.cls-2{fill:none;}</style></defs><title>Nave_1_on</title><path class="cls-1" d="M420.1,130.41c-36.78-5.72-76.49-9.8-112.06,3.43-15.55,5.78-30.28,14.22-40,28-7.5,10.66-10.13,24-9.79,36.86.71,26.8,11.93,52.26,11,78.68a55.35,55.35,0,0,1-2.76,16.34,40.87,40.87,0,0,1-6.1,12.32c-.27.4-.56.78-.84,1.17l-.23.27c-.73.85-1.47,1.69-2.25,2.5s-1.57,1.58-2.4,2.33c-.39.35-2.3,1.88-2.34,2a56.53,56.53,0,0,1-5.21,3.36q-1.48.84-3,1.59c-.48.24-2.76,1.23-2.86,1.3-19.46,7.62-41.93,6.66-62,3.31a258.84,258.84,0,0,1-34.17-8.2,246.86,246.86,0,0,1-29.33-11C93.3,294.26,74.3,279.29,61.62,257.82c-14.53-24.62-19.73-54.19-16-82.4,3.91-29.81,17.72-58.75,42.59-76.58,14.1-10.11,29.12-19,40.25-32.56,8.68-10.6,12-23.44,14.18-36.68,1.53-9.15,2.77-18.36,4.21-27.52a7.41,7.41,0,0,0,0-2.41H133.4c-2.69,15.47-3.89,32.53-10.2,47-5.87,13.47-19.11,22.79-31,30.68C76.85,87.56,62.42,97.73,51.87,113.14a139,139,0,0,0-18.68,40.5C16.65,212.08,37.39,279.73,90.85,312c18.5,11.17,39.45,19,60.26,24.68,23,6.26,47.75,10.38,71.59,7.62,22.4-2.59,44.31-11.42,56.31-31.49,14.22-23.78,9.71-52.3,4.36-77.95-2.68-12.84-5.59-24.61-5.77-37.26-.16-11.68,2.4-21.75,10.8-30.24,11.29-11.42,27.95-17.1,43.38-20.22,18.48-3.73,37.7-3.23,56.39-1.54,10.24.92,20.42,2.33,30.57,3.95a13.62,13.62,0,0,0,1.36.14Z"/><rect class="cls-2" x="0.04" y="-0.07" width="420" height="420"/></svg>