<svg id="Capa_1" data-name="Capa 1" xmlns="http://www.w3.org/2000/svg" viewBox="0 0 420 420"><defs><style>.cls-1{fill:none;}.cls-2{fill:#fcfcfc;opacity:0.5;}</style></defs><title>Nave_8</title><rect class="cls-1" x="0.04" y="-0.07" width="420" height="420"/><path class="cls-2" d="M419.67,274.13c-22.67,0-45.34-.65-67.85-1.87-6.81-.37-14.35-1.09-17.57-5-1.73-2.11-2.5-5.64-2.93-8.11-1.95-11.14-.84-22.76.33-35.06,1.26-13.19,2.56-26.82,0-40.6-3.22-17.42-13.07-33.59-27.74-45.54S271.44,119.65,253.72,120c-9.44.2-18.44,2.1-27.13,3.95-6.09,1.29-11.84,2.51-17.61,3.15a85.76,85.76,0,0,1-42-6c-7.6-3.14-17.43-8.78-21.16-17.78-2.08-5-2.31-11.19-2.39-18.15-.33-28.37.7-57,3-85.38H128.34c-2.28,28.45-3.28,57.14-3,85.58.08,6.83.19,16.19,3.76,24.83,4.82,11.64,15.51,21.15,30.91,27.53A103.73,103.73,0,0,0,211,145c6.66-.73,13.12-2.1,19.37-3.43,8.24-1.75,16-3.4,23.78-3.56h1.1c27.53,0,53.76,21.66,58.77,48.77,2.09,11.3,1,23.11-.23,35.62-1.23,12.95-2.51,26.33-.15,39.87.78,4.46,2.32,11,6.72,16.4,8.51,10.42,22.83,11.2,30.53,11.61,22.84,1.24,45.83,1.87,68.82,1.89Z"/><path class="cls-2" d="M272.06,275.5c3.57.69,6.68,1.37,8.63,2.74,3,2.09,4.76,7,6.11,11.44,2.14,7.08,4.44,16.34,3.26,25.13-1,7.49-4.47,14.8-8.14,22.53-1.27,2.67-2.58,5.43-3.8,8.23A142.27,142.27,0,0,0,267.63,420h18.16a124.17,124.17,0,0,1,8.83-67.18c1.11-2.54,2.3-5,3.56-7.71,4.1-8.65,8.35-17.59,9.72-27.87,1.63-12.21-1.21-23.9-3.87-32.72-2.24-7.43-5.53-15.73-13-21-4.85-3.41-10.13-4.64-15.57-5.69-21.66-4.19-49-6.85-68.2,9.91a83.52,83.52,0,0,0-9,9.6c-3.43,4.09-6.68,7.95-10.45,10a15.66,15.66,0,0,1-16.58-1.42c-9.51-7.54-7.74-24.14-3.33-36.06,1.44-3.89,3.11-7.76,4.89-11.85,5.25-12.12,10.68-24.65,10.24-38.9-.29-9.24-3.18-17.18-8.38-23-8.7-9.7-21.79-11.42-30.88-11.87a138.76,138.76,0,0,0-61.16,11c-7.81,3.34-18.92,9-25.1,19.68-5,8.59-6,18.93-3,29.9A66.5,66.5,0,0,0,68.41,250c4.08,4.71,8.53,9,12.83,13.11,7.31,7,14.21,13.65,18.63,21.63,6.54,11.79,8.08,27.56,4.58,46.86-.76,4.17-1.75,8.4-3.86,11-2.83,3.54-8.54,5.42-14.15,7-7.67,2.22-15.77,4.3-23.11,3.25-6.42-.92-11.85-4.75-13.21-9.32-1.85-6.23,2.74-14.24,7.17-22l1-1.78c9.38-16.51,10-31.1,1.64-41.06-9.06-10.85-24.14-10.38-32.24-10.14l-27.37.85v18l27.93-.86c7.5-.24,14.84.05,17.87,3.68,3.62,4.33.58,13.5-3.48,20.64l-1,1.73c-5.72,10-12.83,22.44-8.8,36,3.39,11.44,14.35,20.08,27.92,22,10.87,1.55,21.52-1.13,30.65-3.78,8-2.32,17.08-5.43,23.21-13.09,4.61-5.76,6.33-12.57,7.51-19.07,4.26-23.5,2.06-43.28-6.55-58.8-5.74-10.35-14-18.24-21.9-25.88-4.2-4-8.16-7.84-11.7-11.92-8.59-9.9-14.67-24.33-8.92-34.24,2.66-4.59,7.94-8.46,16.62-12.17a120.53,120.53,0,0,1,53.18-9.53c9.2.46,15.21,2.39,18.38,5.92,2.29,2.55,3.63,6.64,3.78,11.51.32,10.23-4.09,20.41-8.77,31.19-1.79,4.13-3.64,8.41-5.25,12.76-6.81,18.42-8,42.91,9,56.41a33.45,33.45,0,0,0,36.38,3.11c6.75-3.68,11.46-9.28,15.61-14.22a69,69,0,0,1,7-7.61C232.45,269.66,254.41,272.09,272.06,275.5Z"/></svg>