<svg id="Capa_1" data-name="Capa 1" xmlns="http://www.w3.org/2000/svg" viewBox="0 0 420 420"><defs><style>.cls-1{fill:none;}.cls-2{fill:#78ccd0;}</style></defs><title>Nave_6_on</title><rect class="cls-1" x="0.04" y="-0.07" width="420" height="420"/><path class="cls-2" d="M419.92,236.42c-24.62,2.25-50.59,3.74-71.94,17.27-21,13.32-32.54,36.93-44.59,57.8-10.17,17.61-20.62,35.25-38.89,44.47q-2.1,1.06-4.24,2.05l-2.5,1.14-1.12.49,0,0c-3.84,1.57-7.74,3-11.72,4.19a94.25,94.25,0,0,1-12.28,2.86l-.45.06-1.13.12c-.92.07-1.84.16-2.76.21a53.12,53.12,0,0,1-6.35,0c-.41,0-1.78-.2-2-.21-.66-.12-1.33-.23-2-.38q-1.48-.34-2.93-.81l-1.23-.42-.28-.1-.2-.1c-4.24-2.12-5.22-2.74-8.14-6.46.81,1-.82-1.31-1-1.66-.55-.89-1-1.8-1.52-2.74a34.33,34.33,0,0,1-2.29-6.36A36,36,0,0,1,199,333.53c2.68-19.26,21.68-35,37.73-46.19,19.12-13.29,39.89-24,59.33-36.82,22.77-15,43.76-32.38,60.56-54,15.27-19.63,27.51-40.66,27.8-66.2.25-21.75-8.65-42.89-26.63-55.66-20-14.22-49.22-14.5-72.41-9.88a102.87,102.87,0,0,0-59.22,35.77,135.88,135.88,0,0,0-20.09,34.24c-4,9.74-5.34,20.24-6.05,30.69-1.48,21.79,1.1,44.81-6,65.35-3,8.88-8.07,13.74-16.7,18.68A99.55,99.55,0,0,1,141.31,262c-12.2,1.61-25.34.78-36.66-4.35a58.92,58.92,0,0,1-23.82-20.51c-22.82-34-13.08-84,18.18-110.23,7.75-6.5,17.87-10.78,27.06-15.57,10.49-5.47,21.48-11.69,29.42-20.65C164,81,167.41,69.59,164.54,56.91c-2.39-10.57-8.75-19.25-14.32-28.3S142,10,139.74,0H120c2.86,12.88,5.77,25.26,12.65,36.81,5.27,8.85,11.81,16.57,13.54,26.4A14.16,14.16,0,0,1,144,74c-2.17,3.56-6,7.13-9.83,10-9.41,6.94-20.2,11.82-30.57,17.11-41.31,21.1-61.87,71.4-52,116,5,22.76,19.35,44.46,40.13,55.67,24.77,13.36,55.35,11.08,80.71.6,11.49-4.75,23.76-10.68,31.58-20.69,6.6-8.46,10.09-18.81,11.85-29.3,3.71-22.06,1.22-46.41,4.47-67.32,3.37-21.68,17.11-43,34.3-56.46,17.86-14,40.31-19,62.68-17.55,11.06.7,21.39,2.8,30.34,9.06,6.49,4.54,12,12.5,14.48,19.88a59.92,59.92,0,0,1,2.57,26.93,71.09,71.09,0,0,1-10.63,29,208.91,208.91,0,0,1-55,58.21c-19.7,14.24-41.11,25.66-61.59,38.65C218,276.08,197.05,291,186.21,312c-10.22,19.78-9,47.42,8.11,63.33,14.4,13.37,35.19,12.8,53,7.94,16.19-4.41,33.33-11.83,45.47-23.67,17.59-17.16,27.83-40.51,40.56-61.15,5.68-9.21,11.78-18.52,20.37-25.3,10.12-8,23-11.61,35.5-13.89,10.14-1.85,20.42-2.6,30.68-3.52Z"/></svg>