<svg id="Capa_1" data-name="Capa 1" xmlns="http://www.w3.org/2000/svg" viewBox="0 0 420 420"><defs><style>.cls-1{fill:none;}.cls-2{fill:#fcfcfc;opacity:0.5;}</style></defs><title>Nave_7</title><rect class="cls-1" x="0.04" y="-0.07" width="420" height="420"/><path class="cls-2" d="M420.15,273.26c-16.62-4.59-33.25-8.95-50.63-9.25-18.29-.32-35.64,4.25-51,14.3C303.76,288,290.89,299.8,275,307.83c-9.09,4.59-18.37,8.8-27.53,13.25-8,3.87-15.59,8.53-23.67,12.16a64.81,64.81,0,0,1-16.88,5,52.54,52.54,0,0,1-7.23.25c-.65,0-2.63-.22-2.71-.21-.3-.07-2.46-.54-3.3-.78-.48-.14-2.27-.84-2.34-.82-.76-.38-1.48-.81-2.23-1.22a3.34,3.34,0,0,0-.84-.39,4,4,0,0,0-.6-.67c-.44-.44-2-2.3-1.83-1.91-2.5-3.59-3-6.19-3-10.63-.14-14.19,7.53-28.48,15.51-40,9.44-13.65,21.54-25.47,33.93-36.43,12.67-11.2,26.41-20.63,39.65-31.06s21-24.4,15.64-41.24c-1.72-5.45-6.5-7.46-11.84-6.72-20.81,2.86-37.41,17.52-53.77,29.44a309.1,309.1,0,0,0-48.22,43c-13.72,15.2-26.52,31.42-42,44.9-12.17,10.59-30.31,23.64-47.52,19.2-6.09-1.57-8.22-4.13-9.49-9.66a32.72,32.72,0,0,1-.27-8.74A54,54,0,0,1,77,272.74c5.84-17.6,21.67-29.8,34-42.8,15.43-16.29,29.94-33.42,46.8-48.31a205.21,205.21,0,0,1,55.08-34.39c19.58-8.43,40.27-14.3,61-19A84.8,84.8,0,0,0,308.46,112c11.59-9.35,18.44-23,15.75-38C320.91,55.51,304.5,39.91,290,29.36,275.8,19,259,14.09,241.66,12.7c-14.84-1.19-31.25-1.62-44.39,6.39-23.94,14.6-35,45.11-45.52,69.55-5.69,13.18-11.27,26.53-18.68,38.86q-2.32,3.86-4.93,7.53a17.13,17.13,0,0,1-2,2.52c-1.37,1.6-2.79,3.16-4.18,4.75-6.31,7.19-12.43,14.53-18.58,21.85-21.48,25.59-45.33,56.6-78.95,66.18A75,75,0,0,1,.08,233H0v19.24H.08c37.76,1.77,68.29-20.64,93-46.95,13.15-14,25.12-29.08,37.63-43.66,9.75-11.37,18.44-22.25,25.2-35.7,12.94-25.75,21.16-54.68,38.44-78.05.52-.7.95-1.26,2.21-2.73.84-1,1.69-1.93,2.58-2.85,1.08-1.12,2.2-2.21,3.36-3.24.46-.4.92-.8,1.39-1.19l.4-.34.51-.33c1.21-.83,2.44-1.62,3.73-2.33.4-.22,2-1,2.15-1.1a32.33,32.33,0,0,1,3.57-1.17c.61-.16,4-.72,3-.64,15.79-1.67,33.51-.62,48.28,5.53a72.34,72.34,0,0,1,20,12.81c6.88,6.12,13.92,13.17,17.94,21.58a27.11,27.11,0,0,1,2.22,7.81A25.68,25.68,0,0,1,305.6,83c0,.14-.24,1.13-.32,1.39-.29.94-.53,1.89-.87,2.81,0-.22-1,1.89-1.26,2.3q-.61,1-1.31,2l-.19.28-.38.44a41.63,41.63,0,0,1-3,3.18c-.6.57-1.22,1.11-1.84,1.65-.16.14-1.41,1.11-1.51,1.2-10.95,8-20.73,10-34.32,13.31a346.92,346.92,0,0,0-62.07,21.1,220.16,220.16,0,0,0-55,35.92c-16.77,14.91-31.19,32.05-46.64,48.26-13.61,14.29-28.88,27.34-36.6,46C54,278,51.45,298.43,62.82,311.81c12.82,15.09,36.19,12.51,52.46,5.47,18.11-7.84,33.37-21.84,46.61-36.19,14.29-15.48,27.45-32,42.66-46.61a216.22,216.22,0,0,1,24.6-20.28c8.34-5.94,16.29-12.42,24.86-18a83.11,83.11,0,0,1,15.56-8.29,15.69,15.69,0,0,1-2.35,4.44c-2.8,3.87-8.19,7.89-12.6,11a425.49,425.49,0,0,0-37.84,30.08c-24.41,21.89-51.15,51-53.17,85.57-.73,12.4,3.8,24.48,14,31.87,9.83,7.11,22.64,7.77,34.22,6,15.93-2.49,29.38-11.28,43.6-18.25,17.81-8.73,36.05-16.29,52-28.24,15.62-11.68,30.34-24.4,50.5-26.58,20.76-2.24,40.59,3.54,60.35,9a10.7,10.7,0,0,0,1.82.33Z"/></svg>