<svg id="Capa_1" data-name="Capa 1" xmlns="http://www.w3.org/2000/svg" viewBox="0 0 420 420"><defs><style>.cls-1{fill:none;}.cls-2{fill:#fcfcfc;opacity:0.5;}</style></defs><title>Nave_4</title><rect class="cls-1" x="0.04" y="-0.07" width="420" height="420"/><path class="cls-2" d="M272.45,419.93h19.37c-1.55-14.14-6.73-28.29-12.6-41-7.17-15.53-22.05-26.31-36.06-35.37-16.12-10.41-33.26-19-48.71-30.49A297.75,297.75,0,0,1,152,274.53q-4.49-4.92-8.83-10.13l3.53-1c18.23-5.39,36.36-11.3,53.71-19.14,51.83-23.4,126.7-76.57,96.85-142.8C284,71.89,254.78,49.76,222.89,44.57c-30-4.88-61.1,2.11-87,17.9C110.55,78,89.6,102.41,82.42,131.72c-9.55,39,3.73,80.55,24,113.88,1.83,3,3.75,6,5.71,8.94q-5.59,1.43-11.18,2.81c-11.25,2.76-22.57,5.24-34,7.36-4.41.82-8.83,1.63-13.26,2.29l-.21,0-1.47.16c-1.33.14-2.66.26-4,.36-15,1.17-30,1.09-45,1.74l-2.92.14v14.42c11,.44,22,.47,33,.34a269.75,269.75,0,0,0,43.61-4.31c15.57-2.71,31-6.07,46.33-10a304.25,304.25,0,0,0,69.78,65.49c16.69,11.35,35.29,19.82,51.3,32.18a102.13,102.13,0,0,1,10.8,9.63q1.1,1.13,2.16,2.29c-.08-.09,1.16,1.42,1.75,2.09.44.74,1.36,2.22,1.57,2.59a108.55,108.55,0,0,1,8,19.83A111.35,111.35,0,0,1,272.45,419.93ZM99.36,173c-3.67-29.82,4.37-56.79,25.46-78,37.51-37.74,103.86-48.14,141.79-5.86,9.74,10.86,17.73,25,18.5,38.91.7,12.76-3.22,24.18-10.1,35.28-15.68,25.3-42.65,43.51-68.62,57.25-23.5,12.43-49,21.37-74.86,28.72C115.26,226.51,102.76,200.62,99.36,173Z"/></svg>