<svg id="Capa_1" data-name="Capa 1" xmlns="http://www.w3.org/2000/svg" viewBox="0 0 304 304"><defs><style>.cls-1{fill:#fff;}</style></defs><title>Ico_Menu_Fiesta</title><path class="cls-1" d="M190.21,191.79l.16-.14.07-.06Z"/><path class="cls-1" d="M141.82,154.3l.1-.22,0-.1Z"/><path class="cls-1" d="M152,0A152,152,0,1,0,304,152,152.06,152.06,0,0,0,152,0Zm42.07,104.5a2.58,2.58,0,0,1,3.63.93,2.84,2.84,0,0,1-.92,3.79,2.58,2.58,0,0,1-3.63-.93A2.84,2.84,0,0,1,194.07,104.51Zm-11,57.51c1.13-.73,2.43-.68,2.91.12s0,2.05-1.18,2.78-2.43.68-2.9-.12S182,162.75,183.08,162ZM172,144.87a3.16,3.16,0,1,1-2.5,3.18A2.87,2.87,0,0,1,172,144.87ZM158.37,96a2.62,2.62,0,1,1,2.65,3A2.89,2.89,0,0,1,158.37,96Zm-.49,55.41a2.92,2.92,0,0,1-4.14-.91,3.24,3.24,0,0,1,.39-4.41,2.92,2.92,0,0,1,4.14.91A3.24,3.24,0,0,1,157.88,151.45Zm3.49,12.43a2.56,2.56,0,0,1,3.73.26,2.85,2.85,0,0,1-.29,3.9,2.56,2.56,0,0,1-3.73-.26A2.85,2.85,0,0,1,161.37,163.88Zm2-33.62a2.84,2.84,0,0,1,.92-3.79,2.58,2.58,0,0,1,3.63.93,2.84,2.84,0,0,1-.92,3.79A2.58,2.58,0,0,1,163.38,130.26ZM166.77,72c-1.39,1.1-3,1.26-3.7.36s-.06-2.52,1.33-3.63,3-1.26,3.69-.36S168.16,70.94,166.77,72Zm-64.64,34.18a3.16,3.16,0,1,1-2.5,3.18A2.87,2.87,0,0,1,102.13,106.21Zm3.48,20.55c0,1.94-1.07,3.54-2.49,3.58s-2.61-1.5-2.66-3.43,1.06-3.54,2.49-3.58S105.56,124.83,105.61,126.77ZM84.88,177.83c1.42,0,2.62,1.5,2.66,3.44s-1.07,3.54-2.49,3.58-2.61-1.5-2.66-3.43S83.45,177.87,84.88,177.83ZM67.21,214.21a3.16,3.16,0,1,1,2.5-3.18A2.87,2.87,0,0,1,67.21,214.21Zm37.55,9.86a2.58,2.58,0,0,1-3.63-.93,2.84,2.84,0,0,1,.92-3.79,2.58,2.58,0,0,1,3.63.93A2.84,2.84,0,0,1,104.76,224.07Zm8.47-26.76h0l-.06.13,0-.08c-2.35,4.72-18,.49-27.15.28,4,3.14,10.58,6.28,11.58,9.9a3.18,3.18,0,0,1,0,1.7,3.77,3.77,0,0,1-.21.63C96.94,211,95,215,94.29,216.64l0,.08,0,.07-.12.29s0-.09,0-.14c-2,3.83-7.64,2.64-12,2.16,2.83,2.94,7.09,5.37,8,4.45-.57,1.23-2.23,5-2.71,6.07-1,.83-2.55.59-4.22-.23h0l-.14-.09A15.8,15.8,0,0,1,77.22,224a5.78,5.78,0,0,1-.77-1.69v0l0-.18a2.49,2.49,0,0,1,.16-1.75c.32-.76,2.79-6.15,3.23-7h0v0h0c1.4-2.88,8.68.1,13.62-.73a8.7,8.7,0,0,0-.64-.79,23.47,23.47,0,0,0-3.29-2.73c-4.56-3.13-10.52-5.8-9.93-9a2,2,0,0,1,.07-.29s0-.08,0-.11l0-.11,0-.05v0c.53-1.24,2.86-6.38,3.24-7,0,0,0,0,0,.06,2.38-4.57,21.16,1.23,29.61,0a18,18,0,0,0-2.8-3.84,70.68,70.68,0,0,0-5.29-5c-7-6-15.8-12.27-17-18.55a6.25,6.25,0,0,1,.1-3.12,7.32,7.32,0,0,1,.33-1,70.84,70.84,0,0,1,3.31-7l0,.12c5.1-9.71,39.89,10.17,51.49-3,3.66-20.58-37.35-41.79-28.88-61.66a96,96,0,0,1,4.3-9.21C129.86,57.4,158.65,56,158.65,56l9.64,4.9s-38.08,3.07-51.87,23.92c-4.37,19.21,30.12,37.43,29.76,56.94,0,.09,0,.17,0,.26s0,.39,0,.58,0,.41-.05.61,0,.24,0,.35-.07.48-.11.73,0,.25-.07.38-.08.39-.13.59-.12.45-.18.68l-.05.17a17.07,17.07,0,0,1-.57,1.62c-1.71,3.7-1.86,3.71-3,6.37,0,.13-.11.25-.16.38s-.13.33-.21.49l0,0,0,0,0,0c-7.88,16.84-39.63.39-50.46,3.73,2.58,10,22.88,20,25.44,28.35,0,.11.07.22.1.33v0a4.56,4.56,0,0,1,.07,2.23,4.63,4.63,0,0,1-.19.69c-.92,2-2.47,5-3.25,6.92Zm-1.34-51.77c-.05-1.94,1.06-3.54,2.49-3.58s2.62,1.5,2.66,3.44-1.07,3.54-2.49,3.58S111.94,147.47,111.89,145.54Zm8.55-18.28c.82-1.34,2.19-2,3.06-1.37s.91,2.14.09,3.48-2.19,2-3.05,1.37S119.63,128.6,120.44,127.26ZM146,77.52a2.58,2.58,0,0,1-3.63-.93,2.84,2.84,0,0,1,.92-3.79,2.58,2.58,0,0,1,3.63.93A2.84,2.84,0,0,1,146,77.52Zm-5.32,32.13a2.56,2.56,0,0,1-3.73-.26,2.85,2.85,0,0,1,.28-3.9,2.56,2.56,0,0,1,3.73.26A2.85,2.85,0,0,1,140.63,109.65ZM133.7,93.05a2.92,2.92,0,0,1-4.14-.91,3.24,3.24,0,0,1,.39-4.41,2.92,2.92,0,0,1,4.14.91A3.24,3.24,0,0,1,133.7,93.05Zm-5,88.47a2.58,2.58,0,0,1-3.63-.93,2.84,2.84,0,0,1,.92-3.79,2.58,2.58,0,0,1,3.63.93A2.84,2.84,0,0,1,128.68,181.52Zm21.75,52.54c-1.42,0-2.61-1.5-2.66-3.43s1.06-3.54,2.49-3.58,2.62,1.5,2.66,3.44S151.85,234,150.43,234.07Zm20.16-27.37a3.16,3.16,0,1,1,2.5-3.18A2.87,2.87,0,0,1,170.59,206.7Zm9.3,18.63a3.16,3.16,0,1,1,2.5-3.18A2.87,2.87,0,0,1,179.89,225.33ZM214,159.79a2.92,2.92,0,0,1-4.14-.91,3.24,3.24,0,0,1,.39-4.41,2.92,2.92,0,0,1,4.14.91A3.24,3.24,0,0,1,214,159.79Zm1.16-20a2.58,2.58,0,0,1-3.63-.93,2.84,2.84,0,0,1,.92-3.79A2.58,2.58,0,0,1,216,136,2.84,2.84,0,0,1,215.11,139.82Zm16.48,7a2.58,2.58,0,0,1-3.63-.93,2.84,2.84,0,0,1,.92-3.79,2.58,2.58,0,0,1,3.63.93A2.84,2.84,0,0,1,231.59,146.77Zm-36.4-19.86c-10.36,13.44,10.3,41.42,3,56.68l-.1.2-.23.45-.26.46-.16.26q-.17.27-.35.53l-.19.27-.32.41-.39.46-.1.12a14.17,14.17,0,0,1-1,1.06c-2.68,2.24-2.8,2.2-4.67,3.84l-.26.23-.34.31,0,0,0,0,0,0c-12.28,10.19-31.43-15.32-41.17-16.94-1.56,8.9,10.85,24.82,9.88,32.41,0,.1,0,.2,0,.3v0a3.91,3.91,0,0,1-.74,1.79,3.85,3.85,0,0,1-.4.47c-1.44,1.21-3.77,3-5.06,4.18l0,0h0l-.09.08,0-.05c-3.55,2.8-14.41-6.72-21.53-10.48,2.06,4.07,6.09,9.13,5.57,12.38a2.72,2.72,0,0,1-.58,1.36,3.13,3.13,0,0,1-.39.41c-.81.68-3.79,3.11-4.93,4.09l-.05.05-.05,0-.2.18.09-.09c-3,2.23-7-.93-10.28-3,1.17,3.43,3.66,7,4.72,6.67-.9.75-3.55,3-4.32,3.72-1.06.27-2.23-.54-3.25-1.85h0l-.08-.12a14.59,14.59,0,0,1-2.68-6.5,5.18,5.18,0,0,1,0-1.64v0l0-.16a2.11,2.11,0,0,1,.75-1.32c.53-.48,4.41-3.76,5-4.22h0c2.14-1.72,6.81,3.5,11,4.79a8,8,0,0,0-.22-.88,21.71,21.71,0,0,0-1.61-3.45c-2.47-4.27-6.22-8.73-4.59-11a1.67,1.67,0,0,1,.16-.2l.06-.08.08-.07,0,0h0c.86-.77,4.55-3.91,5.07-4.24l0,0c3.53-2.67,16.26,9.31,23.38,11.66a16.46,16.46,0,0,0-.82-4.14c-.61-1.86-1.45-3.89-2.39-6-3.39-7.5-8.06-15.91-6.7-21.32a5.32,5.32,0,0,1,1.2-2.42,6.09,6.09,0,0,1,.61-.65,58.51,58.51,0,0,1,5.15-4.24l-.07.08c7.52-5.65,27.83,23.75,41.73,17.93,10.3-14.81-14.44-47.71-.6-60.05a79.35,79.35,0,0,1,6.71-5.57c17.48-13.47,40.72-3.24,40.72-3.24l5.85,7.66S213.59,115.88,195.19,126.91Z"/></svg>