<svg xmlns="http://www.w3.org/2000/svg" viewBox="0 0 420 420"><defs><style>.cls-1{fill:none;}.cls-2{fill:#ffd964;}</style></defs><title>Recurso_7_on</title><g id="Capa_2" data-name="Capa 2"><g id="Capa_1-2" data-name="Capa 1"><rect class="cls-1" width="420" height="420"/><path class="cls-2" d="M268.35,15.94a108.55,108.55,0,0,1-8,19.83c-.2.37-1.13,1.85-1.57,2.59-.59.67-1.83,2.19-1.75,2.09q-1.06,1.16-2.16,2.29a102.13,102.13,0,0,1-10.8,9.63c-16,12.35-34.62,20.83-51.3,32.18A304.25,304.25,0,0,0,123,150c-15.31-3.92-30.76-7.28-46.33-10a269.75,269.75,0,0,0-43.61-4.31c-11-.13-22-.1-33,.34V150.5l2.92.14c15,.65,30,.57,45,1.74,1.33.1,2.67.22,4,.36l1.47.16.21,0c4.44.66,8.85,1.47,13.26,2.29,11.39,2.12,22.71,4.6,34,7.36q5.58,1.37,11.18,2.81c-2,3-3.88,5.92-5.71,8.94-20.22,33.33-33.5,74.9-24,113.88,7.18,29.31,28.13,53.75,53.52,69.26,25.85,15.79,57,22.78,87,17.9,31.88-5.19,61.07-27.33,74.38-56.88,29.85-66.23-45-119.4-96.85-142.8-17.35-7.83-35.47-13.75-53.71-19.14l-3.53-1q4.32-5.2,8.83-10.13a297.75,297.75,0,0,1,42.43-38.54C209.86,95.41,227,86.78,243.12,76.37c14-9.05,28.89-19.84,36.06-35.37,5.87-12.71,11-26.86,12.6-41H272.41A111.35,111.35,0,0,1,268.35,15.94ZM131.49,170.63c25.87,7.35,51.36,16.3,74.86,28.72,26,13.74,52.94,31.95,68.62,57.25,6.88,11.1,10.8,22.52,10.1,35.28-.77,13.91-8.75,28-18.5,38.91-37.93,42.28-104.28,31.88-141.79-5.86-21.09-21.23-29.13-48.19-25.46-78C102.72,219.31,115.22,193.42,131.49,170.63Z"/></g></g></svg>