<svg xmlns="http://www.w3.org/2000/svg" viewBox="0 0 420 420"><defs><style>.cls-1{fill:none;}.cls-2{fill:#ffd964;}</style></defs><title>Recurso_5_on</title><g id="Capa_2" data-name="Capa 2"><g id="Capa_1-2" data-name="Capa 1"><rect class="cls-1" x="0.12" y="0.12" width="419.77" height="419.77" transform="translate(420.12 419.88) rotate(179.97)"/><path class="cls-2" d="M332.09,111.27c-14.6-5.68-27.49-15.1-38.39-26.25s-20.62-23.47-32.23-33.94c-24.12-21.75-56.93-29.07-88.73-24-20.62,3.32-39.7,12.4-59,19.93-12,4.7-29.76,10.47-30.12,26.28-.26,11.78,10.09,20.33,18.92,26.32,9.77,6.63,20.65,11.61,31.48,16.21,32.87,14,66.74,25.53,97.86,43.34a237.54,237.54,0,0,1,47.05,35.64c14.42,13.9,27.48,29.12,41.82,43.1,12.07,11.76,25.39,23.65,29.73,40.61,1.5,5.85,2.21,12.24.83,17.22a9.46,9.46,0,0,1-2.49,4.77,13.21,13.21,0,0,1-6,3.4c-16.26,4.11-32.53-5.31-45-14.81-14.36-10.9-26.24-24.72-38.26-38-13.25-14.69-26.74-29.2-42.31-41.48-7.61-6-15.67-11.37-23.49-17.08s-15.86-11.66-24.52-16.32a77.74,77.74,0,0,0-27.08-9c-4.31-.58-8.21,3.46-9.41,7.17-4.88,15,.91,28.82,12.61,38.67,11.18,9.42,23.82,17,35.2,26.26,24.18,19.62,52.23,44.12,59.1,76a29.92,29.92,0,0,1-.25,14.5l-.16.58c-.19.42-.4.84-.62,1.23s-1.29,1.94-1.28,2c-.53.6-1.1,1.15-1.66,1.72-.08.08-.34.3-.58.49s-1.08.73-1.21.8a25.82,25.82,0,0,1-11.28,3A47,47,0,0,1,206,337.37c-6.77-2-12.77-5.2-19-8.44-8.93-4.65-18.11-8.81-27.25-13-8.93-4.12-18-8.12-26.44-13.26-7.76-4.74-14.92-10.38-22.24-15.75C94,274.35,76.31,266.33,54.93,265.35,36.16,264.49,18,268.74,0,273.51v20.22c17.53-4.73,34.92-9.44,53.26-8.91a72.53,72.53,0,0,1,24.82,4.8c8.1,3.23,15.45,8.5,22.45,13.62,7.56,5.53,14.92,11.37,22.92,16.26,8.67,5.3,18.08,9.4,27.29,13.65s18.31,8.39,27.23,13.07c7.2,3.78,14.43,7.41,22.23,9.79,22.68,6.93,54.13,2.79,59-25.17,2.7-15.64-2.92-31.79-10.32-45.4-8.41-15.46-20.42-29-33.07-41.12a359.51,359.51,0,0,0-44.11-36.09c-5.88-4-12-7.84-17-13.08a17.41,17.41,0,0,1-3.93-6.29c14,4.84,26.6,15.94,38.17,24.22a294.72,294.72,0,0,1,43.8,37.68c24.85,26.35,49,60.34,85.39,71.17,15.24,4.53,35.31,3.86,46.07-9.48,9.87-12.23,8.53-30.19,3.53-44.21-6.4-18-19.86-31.11-33.2-44.12-14.34-14-27.4-29.2-41.82-43.1a258,258,0,0,0-48.1-37c-17.38-10.23-35.8-18.51-54.38-26.3C174.91,111.28,159.35,105.37,144,99l-.67-.28-1.51-.64-3.51-1.54q-4.19-1.87-8.32-3.87A150.68,150.68,0,0,1,114,83.89c-1.23-.8-2.43-1.63-3.62-2.47l-.7-.51c-.32-.26-.65-.51-1-.78-.86-.75-1.72-1.49-2.54-2.29-.41-.41-2-2.33-2-2.15-.36-.56-.71-1.12-1.06-1.69h0v-.06h0v0l.06-.11,1-1a24.1,24.1,0,0,0,2.19-1.53,61.33,61.33,0,0,1,10-4.45c9.65-3.7,19.15-7.79,28.82-11.47a176.4,176.4,0,0,1,29.25-8.82c9.38-1.81,18.82-1.72,28.3-.78,13.54,1.34,25.36,4.89,36.25,12.26,10.25,6.93,20,18,29,27.92,11.92,13.11,24,25.64,39.37,34.8,28.34,16.92,61.43,19.61,93.66,21.09l18.91.85V123.17C390.48,122,359.92,122.09,332.09,111.27ZM103,73.08v0a6.25,6.25,0,0,0,.07.62A1.27,1.27,0,0,1,103,73.08Zm.26.49h0v0l0,0v-.08l-.1.07A3.86,3.86,0,0,0,103,73c.17-.39.22,0,.22.4,0-.13.05-.2.11-.12Z"/></g></g></svg>