<svg xmlns="http://www.w3.org/2000/svg" viewBox="0 0 420 420"><defs><style>.cls-1{fill:#fcfcfc;opacity:0.5;}.cls-2{fill:none;}</style></defs><title>Recurso_8</title><g id="Capa_2" data-name="Capa 2"><g id="Capa_1-2" data-name="Capa 1"><path class="cls-1" d="M420,276.91c-4.85,0-9.72.22-14.74.4a76.47,76.47,0,0,1-32-5.48A113.8,113.8,0,0,1,327.67,238c-14-17.12-19.38-37.28-25.72-58-6.56-21.41-16.1-40.72-32.4-56.45-15.27-14.74-33.88-25.12-53.39-33.17-17.32-7.15-36.12-13.79-55-14.59-15.31-.64-31.56,3.63-42.17,15.26-11.85,13-16.2,32.51-14.45,49.68,3.86,37.8,36.77,61.94,65.71,81.95,28,19.35,56.63,38.84,80.19,63.59,11.48,12.06,22.36,25.94,27.57,42a56.6,56.6,0,0,1,2.88,22.83,32.79,32.79,0,0,1-1.8,8.19c-.09.28-.51,1.27-.52,1.31-.17.35-.34.7-.53,1-.44.77-.89,1.52-1.35,2.28-.13.21-.68.93-.91,1.24-.81.92-1.67,1.78-2.56,2.64-.21.21-.44.41-.68.6-.07,0-.78.58-1,.74-1.22.75-2.42,1.51-3.7,2.16-.45.23-.92.44-1.38.65-.25.08-1.48.57-1.58.6a51.56,51.56,0,0,1-17.15,2.92c-14.16.43-25.86-1.67-39.69-5.27a173.6,173.6,0,0,1-36.59-13.73c-16.79-8.73-32.18-19.87-47.26-31.22C94.57,303,64.64,278.1,27.89,269.13A123.81,123.81,0,0,0,0,265.65v19.23c36.81.47,67.77,21.86,96.13,43.13,28.61,21.45,56.64,44.1,90.92,55.92a204.12,204.12,0,0,0,39.59,9.41c13.82,1.84,28.55,2.38,42-1.87,13.77-4.35,24.52-13.74,29.16-27.56,5.47-16.31,1.81-34.76-4.85-50.1C278.29,280,247.12,255,218.35,233.46c-12.94-9.68-26.19-18.91-39.47-28.11-14.21-9.85-28.39-20.12-39.79-33.25-10.79-12.42-16.77-27.08-15.33-43.58.66-7.61,2.59-14.75,6.58-20.91a25.55,25.55,0,0,1,5.48-6.07s1.25-.95,2.42-1.67c.84-.52,1.7-1,2.57-1.44.19-.1,1.54-.69,1.73-.79,13.69-5.29,28.64-2.07,43.05,2.3,19.36,5.87,38.26,13.51,55.08,24.88C257.27,136,271,151.48,278.29,170.26c8.09,20.78,11.57,43.27,22.74,62.84,20.28,35.52,61.79,65.8,104.22,62.34,5-.4,9.86-1.12,14.74-1.91Z"/><rect class="cls-2" width="420" height="420"/></g></g></svg>