<svg xmlns="http://www.w3.org/2000/svg" viewBox="0 0 420.01 420"><defs><style>.cls-1{fill:#fff;opacity:0.5;}.cls-2{fill:none;}</style></defs><title>Recurso_3</title><g id="Capa_2" data-name="Capa 2"><g id="Capa_1-2" data-name="Capa 1"><path class="cls-1" d="M289.25,420c5.72-36.77,9.8-76.48-3.43-112.05-5.78-15.55-14.22-30.28-28-40-10.66-7.5-24-10.13-36.86-9.79-26.8.71-52.26,11.93-78.68,11A55.35,55.35,0,0,1,126,266.44a40.87,40.87,0,0,1-12.32-6.1c-.4-.27-.78-.56-1.17-.84l-.27-.23c-.85-.73-1.69-1.47-2.5-2.25s-1.58-1.57-2.33-2.4c-.35-.39-1.88-2.3-2-2.34a56.52,56.52,0,0,1-3.36-5.21q-.84-1.48-1.59-3c-.24-.48-1.23-2.76-1.3-2.86-7.62-19.46-6.66-41.92-3.31-62a258.83,258.83,0,0,1,8.2-34.17,246.84,246.84,0,0,1,11-29.33c10.31-22.47,25.29-41.47,46.76-54.15C186.47,47,216,41.8,244.25,45.5c29.81,3.91,58.75,17.72,76.58,42.59,10.11,14.1,19,29.12,32.56,40.24,10.6,8.68,23.44,12,36.68,14.18,9.15,1.53,18.36,2.77,27.52,4.21a7.41,7.41,0,0,0,2.41,0v-13.4c-15.47-2.69-32.53-3.89-47-10.2-13.47-5.87-22.79-19.11-30.68-31-10.19-15.36-20.36-29.78-35.77-40.33A139,139,0,0,0,266,33.11c-58.45-16.54-126.1,4.2-158.37,57.65C96.5,109.26,88.67,130.21,83,151c-6.26,23-10.38,47.75-7.62,71.59C78,245,86.79,266.91,106.86,278.92c23.78,14.22,52.3,9.71,77.95,4.36,12.84-2.68,24.61-5.59,37.26-5.77,11.68-.16,21.75,2.4,30.24,10.8,11.42,11.29,17.1,27.95,20.22,43.38,3.73,18.48,3.23,37.7,1.54,56.39-.92,10.24-2.33,20.42-3.95,30.57A13.62,13.62,0,0,0,270,420Z"/><rect class="cls-2" x="0.01" y="-0.01" width="419.99" height="420" transform="translate(419.99 -0.01) rotate(90)"/></g></g></svg>