<svg xmlns="http://www.w3.org/2000/svg" viewBox="0 0 420 420"><defs><style>.cls-1{fill:#ffd964;}.cls-2{fill:none;}</style></defs><title>Recurso_6_on</title><g id="Capa_2" data-name="Capa 2"><g id="Capa_1-2" data-name="Capa 1"><path class="cls-1" d="M420,130.76c-36.77-5.72-76.48-9.8-112,3.43-15.55,5.78-30.27,14.22-40,28-7.5,10.66-10.13,24-9.79,36.86.71,26.8,11.93,52.26,11,78.68A55.36,55.36,0,0,1,266.45,294a40.88,40.88,0,0,1-6.09,12.32c-.27.4-.56.78-.84,1.17l-.23.27c-.73.85-1.47,1.69-2.25,2.5s-1.57,1.58-2.4,2.33c-.39.35-2.3,1.88-2.34,2a56.52,56.52,0,0,1-5.21,3.36q-1.48.84-3,1.59c-.48.24-2.76,1.23-2.86,1.3-19.46,7.62-41.92,6.66-62,3.31A258.77,258.77,0,0,1,145,316a246.8,246.8,0,0,1-29.32-11c-22.47-10.31-41.46-25.29-54.14-46.76C47,233.54,41.84,204,45.54,175.76,49.45,146,63.26,117,88.12,99.18c14.1-10.11,29.12-19,40.24-32.56,8.67-10.6,12-23.44,14.17-36.68,1.53-9.15,2.77-18.36,4.21-27.52a7.41,7.41,0,0,0,0-2.41h-13.4c-2.69,15.47-3.89,32.53-10.2,47-5.87,13.47-19.11,22.79-31,30.68C76.8,87.9,62.38,98.07,51.83,113.48A139,139,0,0,0,33.15,154c-16.54,58.45,4.2,126.1,57.65,158.37,18.5,11.17,39.44,19,60.25,24.68,23,6.26,47.75,10.38,71.58,7.62,22.4-2.59,44.3-11.42,56.31-31.49,14.22-23.78,9.71-52.3,4.36-77.95-2.68-12.84-5.59-24.61-5.77-37.26-.16-11.68,2.4-21.75,10.8-30.24,11.28-11.42,27.94-17.1,43.37-20.22,18.48-3.73,37.7-3.23,56.38-1.54,10.24.92,20.42,2.33,30.57,3.95A13.61,13.61,0,0,0,420,150Z"/><rect class="cls-2" width="419.94" height="420"/></g></g></svg>