<?xml version="1.0" encoding="utf-8"?>
<!-- Generator: Adobe Illustrator 21.0.0, SVG Export Plug-In . SVG Version: 6.00 Build 0)  -->
<svg version="1.1" id="Capa_1" xmlns="http://www.w3.org/2000/svg" xmlns:xlink="http://www.w3.org/1999/xlink" x="0px" y="0px"
	 viewBox="0 0 329.5 289.7" style="enable-background:new 0 0 329.5 289.7;" xml:space="preserve">
<style type="text/css">
	.st0{fill:#E6E7E8;}
	.st1{fill:#F2F4F2;}
	.st2{fill:url(#SVGID_1_);}
	.st3{fill:url(#SVGID_2_);}
	.st4{fill:url(#SVGID_3_);}
	.st5{fill:url(#SVGID_4_);}
	.st6{fill:url(#SVGID_5_);}
	.st7{fill:url(#SVGID_6_);}
	.st8{fill:#6AC9D4;}
	.st9{fill:#585B57;}
</style>
<title>Radar_Nave_1</title>
<g>
	<g>
		<path class="st0" d="M104.1,280.6c3-2.6,47.2-40.1,47.2-40.1l0.3,25.1c0,0-39.3,19.9-44.1,22.3
			C102.6,290.4,101.1,283.2,104.1,280.6z"/>
		<path class="st1" d="M225.7,280.6c-3-2.6-47.2-40.1-47.2-40.1l-0.3,25.1c0,0,39.3,19.9,44.1,22.3
			C227.2,290.4,228.7,283.2,225.7,280.6z"/>
	</g>
	
		<linearGradient id="SVGID_1_" gradientUnits="userSpaceOnUse" x1="261.4" y1="143.3" x2="288.3022" y2="143.3" gradientTransform="matrix(1 0 0 -1 0 292)">
		<stop  offset="0" style="stop-color:#D5D5D5"/>
		<stop  offset="0.5112" style="stop-color:#F2F2F2"/>
		<stop  offset="1" style="stop-color:#B6B6B6"/>
	</linearGradient>
	<path class="st2" d="M272.3,169.3h5c6,0,10.9-4.9,10.9-10.9V139c0-6-4.9-10.9-10.9-10.9h-5c-6,0-10.9,4.9-10.9,10.9v19.4
		C261.4,164.4,266.3,169.3,272.3,169.3z"/>
	
		<linearGradient id="SVGID_2_" gradientUnits="userSpaceOnUse" x1="203.3305" y1="171.6" x2="230.2328" y2="171.6" gradientTransform="matrix(1 0 0 -1 0 292)">
		<stop  offset="0" style="stop-color:#D5D5D5"/>
		<stop  offset="0.5112" style="stop-color:#F2F2F2"/>
		<stop  offset="1" style="stop-color:#B6B6B6"/>
	</linearGradient>
	<path class="st3" d="M214.3,141h5c6,0,10.9-4.9,10.9-10.9v-19.4c0-6-4.9-10.9-10.9-10.9h-5c-6,0-10.9,4.9-10.9,10.9v19.4
		C203.3,136.1,208.3,141,214.3,141z"/>
	
		<linearGradient id="SVGID_3_" gradientUnits="userSpaceOnUse" x1="33.6159" y1="143.3" x2="60.5182" y2="143.3" gradientTransform="matrix(1 0 0 -1 0 292)">
		<stop  offset="0" style="stop-color:#D5D5D5"/>
		<stop  offset="0.5112" style="stop-color:#F2F2F2"/>
		<stop  offset="1" style="stop-color:#B6B6B6"/>
	</linearGradient>
	<path class="st4" d="M49.6,169.3h-5c-6,0-10.9-4.9-10.9-10.9V139c0-6,4.9-10.9,10.9-10.9h5c6,0,10.9,4.9,10.9,10.9v19.4
		C60.5,164.4,55.6,169.3,49.6,169.3z"/>
	
		<linearGradient id="SVGID_4_" gradientUnits="userSpaceOnUse" x1="91.686" y1="171.6" x2="118.5883" y2="171.6" gradientTransform="matrix(1 0 0 -1 0 292)">
		<stop  offset="0" style="stop-color:#D5D5D5"/>
		<stop  offset="0.5112" style="stop-color:#F2F2F2"/>
		<stop  offset="1" style="stop-color:#B6B6B6"/>
	</linearGradient>
	<path class="st5" d="M107.7,141h-5c-6,0-10.9-4.9-10.9-10.9v-19.4c0-6,4.9-10.9,10.9-10.9h5c6,0,10.9,4.9,10.9,10.9v19.4
		C118.6,136.1,113.7,141,107.7,141z"/>
	<g>
		<path class="st0" d="M5.2,175.3c8.9-4.9,140.9-76,140.9-76l0.3,68.6c0,0-116.8,26.7-131.3,29.8C0.7,200.8-3.5,180.1,5.2,175.3z"/>
		<path class="st1" d="M324.5,175.3c-8.9-4.9-140.9-76-140.9-76l-0.3,68.6c0,0,116.8,26.7,131.3,29.8S333.3,180.1,324.5,175.3z"/>
	</g>
	
		<linearGradient id="SVGID_5_" gradientUnits="userSpaceOnUse" x1="141.8" y1="153.8" x2="188" y2="153.8" gradientTransform="matrix(1 0 0 -1 0 292)">
		<stop  offset="0" style="stop-color:#F2F2F2"/>
		<stop  offset="1" style="stop-color:#B6B6B6"/>
	</linearGradient>
	<path class="st6" d="M188,36c0-11.9-11.4-35.6-23.1-35.6l0,0c-11.7,0-23.1,23.7-23.1,35.6l0.1,3.9l0,0l3.6,206.6
		c0,11.7,7.7,29.5,19.4,29.5l0,0c11.7,0,19.4-17.8,19.4-29.5l3.6-206.6l0,0L188,36z"/>
	
		<linearGradient id="SVGID_6_" gradientUnits="userSpaceOnUse" x1="158.8371" y1="27" x2="169.9517" y2="27" gradientTransform="matrix(1 0 0 -1 0 292)">
		<stop  offset="0" style="stop-color:#D5D5D5"/>
		<stop  offset="0.5112" style="stop-color:#F2F2F2"/>
		<stop  offset="1" style="stop-color:#B6B6B6"/>
	</linearGradient>
	<path class="st7" d="M164.4,287.9L164.4,287.9c-3.1,0-5.6-2.5-5.6-5.6v-34.6c0-3.1,2.5-5.6,5.6-5.6l0,0c3.1,0,5.6,2.5,5.6,5.6v34.6
		C170,285.4,167.5,287.9,164.4,287.9z"/>
	<path class="st8" d="M179.5,11.5l-2.4,257.1c2.3-3.1,4.1-6.8,5.3-10.7l2.2-236.4C183.3,18.1,181.5,14.6,179.5,11.5z"/>
	<path class="st8" d="M150.5,265.2l0.9-255.7c-2.2,3.1-4,6.8-5.2,10.7l-0.8,235.1C146.7,258.8,148.5,262.2,150.5,265.2z"/>
	<path class="st9" d="M164.9,9.8L164.9,9.8c-9.7,0-19.1,19.2-19.1,28.8l0.1,3.2h3.8c2.7-9.4,8.7-19.8,14.9-19.8l0,0
		c6.1,0,12.1,10.4,14.9,19.8h4.5l0.1-3.2C184,29,174.6,9.8,164.9,9.8z"/>
</g>
</svg>
