<svg xmlns="http://www.w3.org/2000/svg" xmlns:xlink="http://www.w3.org/1999/xlink" viewBox="0 0 293.47 293.47"><defs><style>.cls-1{fill:url(#Degradado_sin_nombre_9);}.cls-2{fill:#ccbeb5;}.cls-3{fill:#d0cba4;}.cls-4{fill:#4fc4d2;}.cls-5{fill:#02a9c3;}.cls-6{fill:#0f90b0;}.cls-7{fill:#f8e0c7;}.cls-8{fill:#e3c5ad;}.cls-9{fill:#fff;}.cls-10{fill:#b8e3f0;}.cls-11{fill:#eaece5;}.cls-12{fill:#bfbcb1;}.cls-13{fill:#f1cb36;}.cls-14{fill:#43b6b1;}.cls-15{fill:#0f878d;}.cls-16{fill:#2f1e4c;}.cls-17{fill:#0e5f72;}.cls-18{fill:#f7b1b6;}.cls-19{fill:#d7842d;}.cls-20{fill:#ffe429;}.cls-21{fill:#fdc030;}.cls-22{fill:#ffd004;}.cls-23{fill:#ffd33a;}</style><radialGradient id="Degradado_sin_nombre_9" cx="146.74" cy="146.74" r="146.74" gradientUnits="userSpaceOnUse"><stop offset="0" stop-color="#255572"/><stop offset="1" stop-color="#061a27"/></radialGradient></defs><title>Boton_Unicornio</title><g id="Capa_2" data-name="Capa 2"><g id="Arte"><circle class="cls-1" cx="146.74" cy="146.74" r="146.74"/><path class="cls-2" d="M256.64,133.92l-2.89-1.15a1.84,1.84,0,0,1-.66-.46,2.1,2.1,0,0,1-.59-1.5s0-.19,0-.49,0-.69,0-1.09c0-.79,0-1.59,0-1.59,0-.81-.35-.93-.83-.28l-.94,1.25-.94,1.22a2.08,2.08,0,0,1-2.21.6l-1.46-.52-1.46-.5c-.74-.25-1,0-.53.63a2.38,2.38,0,0,1,.16.22l.33.5.49.73.26.39.45.69a1.92,1.92,0,0,1,.28,1.15,2.05,2.05,0,0,1-.41,1.15l-1,1.23-.68.85c-.19.23-.3.4-.3.4-.48.67-.25,1,.5.79l1.49-.45,1.49-.43a1.93,1.93,0,0,1,1.1.05,2.08,2.08,0,0,1,1.07.77l.88,1.29.88,1.26c.44.63.82.5.85-.26l0-1.51c0-.38,0-.76,0-1s0-.48,0-.48a2.09,2.09,0,0,1,1.34-1.74l.12,0,3-.77c.38-.09.57-.24.58-.39S257,134.07,256.64,133.92Z"/><path class="cls-2" d="M150.71,268.37l-2.89-1.15a1.84,1.84,0,0,1-.66-.46,2.1,2.1,0,0,1-.59-1.5s0-.19,0-.49,0-.69,0-1.09c0-.79,0-1.59,0-1.59,0-.81-.35-.93-.83-.28l-.94,1.25-.94,1.22a2.08,2.08,0,0,1-2.21.6l-1.46-.52-1.46-.5c-.74-.25-1,0-.53.63a2.38,2.38,0,0,1,.16.22l.33.5.49.73.26.39.45.69a1.92,1.92,0,0,1,.28,1.15,2.05,2.05,0,0,1-.41,1.15l-1,1.23-.68.85c-.19.23-.3.4-.3.4-.48.67-.25,1,.5.79l1.49-.45,1.49-.43a1.93,1.93,0,0,1,1.1.05,2.08,2.08,0,0,1,1.07.77l.88,1.29.88,1.26c.44.63.82.5.85-.26l0-1.51c0-.38,0-.76,0-1s0-.48,0-.48a2.09,2.09,0,0,1,1.34-1.74l.12,0,3-.77c.38-.09.57-.24.58-.39S151.07,268.52,150.71,268.37Z"/><path class="cls-2" d="M186.66,40.9l-2.89-1.15a1.84,1.84,0,0,1-.66-.46,2.1,2.1,0,0,1-.59-1.5s0-.19,0-.49,0-.69,0-1.09c0-.79,0-1.59,0-1.59,0-.81-.35-.93-.83-.28l-.94,1.25-.94,1.22a2.08,2.08,0,0,1-2.21.6l-1.46-.52-1.46-.5c-.74-.25-1,0-.53.63a2.38,2.38,0,0,1,.16.22l.33.5.49.73.26.39.45.69a1.92,1.92,0,0,1,.28,1.15,2.05,2.05,0,0,1-.41,1.15l-1,1.23-.68.85c-.19.23-.3.4-.3.4-.48.67-.25,1,.5.79l1.49-.45,1.49-.43a1.93,1.93,0,0,1,1.1.05,2.08,2.08,0,0,1,1.07.77l.88,1.29.88,1.26c.44.63.82.5.85-.26l0-1.51c0-.38,0-.76,0-1s0-.48,0-.48a2.09,2.09,0,0,1,1.34-1.74l.12,0,3-.77c.38-.1.57-.24.58-.39S187,41.05,186.66,40.9Z"/><path class="cls-3" d="M92.37,68.09c2,1.94,3.27,4.81,4.28,8.76s1.75,9,2.93,15.27A88.6,88.6,0,0,1,97.8,76.7c0-4.09.57-7.19,2-9.64,2.89-4.89,9.33-7.24,21.93-9.21-6.3,1-11.17,1.39-15,1.09s-6.57-1.32-8.74-3.22a12.29,12.29,0,0,1-1.5-1.59,15.72,15.72,0,0,1-1.34-1.93,33.77,33.77,0,0,1-2.35-5c-1.54-3.79-3-8.64-5.58-14.47a57.52,57.52,0,0,1,4.46,14.76,22.9,22.9,0,0,1,.13,5.38,14,14,0,0,1-.42,2.23,10.85,10.85,0,0,1-.79,2c-1.27,2.43-3.53,4.2-7,5.59s-8.22,2.4-14.51,3.39C81.7,64.08,88.4,64.21,92.37,68.09Z"/><path class="cls-3" d="M186,241.22c.89,1.91,1,4.3.68,7.38s-1.18,6.86-2,11.63a67.31,67.31,0,0,1,2.89-11.44,14.12,14.12,0,0,1,4-6.3c3.38-2.69,8.58-2.62,18.06-.63a51.18,51.18,0,0,1-10.93-3.27,10.82,10.82,0,0,1-5.34-4.65,9.33,9.33,0,0,1-.64-1.54,11.94,11.94,0,0,1-.43-1.74,25.65,25.65,0,0,1-.33-4.15c-.07-3.11.17-7-.06-11.78a43.7,43.7,0,0,1-.82,11.68,17.39,17.39,0,0,1-1.36,3.85,10.66,10.66,0,0,1-.9,1.47,8.24,8.24,0,0,1-1.09,1.18c-1.55,1.38-3.64,2-6.48,2.08a53.41,53.41,0,0,1-11.22-1.51C179.55,235.49,184.27,237.38,186,241.22Z"/><path class="cls-4" d="M186.07,186c5.51-2.28,18.14-6.48,23.92-6.91a27.62,27.62,0,0,1,12,1.48c1.38.5,2.69,1.11,4,1.72a8.73,8.73,0,0,0,3.84-1.75,4,4,0,0,0,1.64-2.91,19.36,19.36,0,0,0-5.07-5.27A22.63,22.63,0,0,0,217,168.8c-3.42-.65-11.1-2.54-14.58-2.78C198.76,172.23,191.76,181.59,186.07,186Z"/><path class="cls-4" d="M135.46,182c0-.78,1.08-.73,1.17,0a19.31,19.31,0,0,1,0,4.82c4.79-6.45,15-8.27,22.37-8.48,9.41-.27,20.39,1.57,28.43,6.76,6.71-4.54,12.81-9.92,17-17a50.72,50.72,0,0,0,7.61-24.95c.31-12.37-2.11-25-8.53-35.73-5.36-8.93-13.32-16.84-23.54-19.76a.48.48,0,0,1-.19.18c-2.1,1.08-4.75,2-7.13,1.49-1-.21-4.52-1.08-5-2.33l-.16,0c-7.86.55-15.77,2-22.32,6.66-1.73,1.25-3.44,2.67-5.14,4-.74.59-5.32,3.83-5.18,4.75,1.86,11.92,12.24,22.73,24.53,23.92a20.5,20.5,0,0,0,17.1-6.58c4.78-5.16,7.05-11.7,7.58-18.63a.46.46,0,0,1,.92,0,27.65,27.65,0,0,1-12.16,23.59c2.79,3.17,2,9.24-1.42,11.7-2.55,1.83-6.19,1.8-9.19,1.54-3.45-.3-6.85-.93-10.31-1.06-8.43-.31-17.11-.27-25.26,2.16-7.53,2.24-15.36,6.56-19.4,13.58a23.29,23.29,0,0,0-2.91,14.51,31.18,31.18,0,0,0,3.06,9.2,45.28,45.28,0,0,1,3.05,6.89c1,3.68-.29,7.95-3.94,9.65a33.75,33.75,0,0,0-3.86,1.59A26.14,26.14,0,0,0,99.47,197a22,22,0,0,1-5.92,3.8l-.43.18c-1,2.11.67,4.27,2.49,5.41,3-.62,5.85-1.78,8.83-2.63a40.9,40.9,0,0,1,8.26-1.21c6.07-.46,12.75-1.52,17.31-5.95C134,192.7,135.59,187.48,135.46,182Z"/><path class="cls-5" d="M196.47,100.21a19,19,0,0,0-4.82-5.75c-1.36-1-3.63-4-5.16-4.77-5.1-2.48-9.56-2.64-15.09-3.88a4.92,4.92,0,0,1-1.63,1.8c3.18,1.8,6.91,2.54,7.31,6.95a.58.58,0,0,0,.72.55c1.37-.49,6.87-.33,4.62,1.91a.63.63,0,0,0,.44,1.06,14.16,14.16,0,0,1,6.09,1.86c3.67,3,6.77,7.2,3.13,10.25a7.6,7.6,0,0,1-.89.64.64.64,0,0,0,.15,1.16c8.91,2,3.13,17.15-3.78,18.27-.71.12-.55,1.34.17,1.26,2.64-.27,2.44,2.12,1,3.58a10.62,10.62,0,0,1-3.86,1.93.65.65,0,0,0,.17,1.27c1.26.14,3.24.61,2.94,2.3-.24,1.31-1.85,2-2.94,2.34-1.68.52-3.8.11-5.52-.09a.65.65,0,0,0-.64.48,20.3,20.3,0,0,1-2.12,6.09c-1.33,2.12-4.1,5-6.68,5.22-3.91.35-7.22-.55-11-1.62-10.42-3-21.69-4-32-.72-4.28,1.35-8.38,3.42-12.85,4.1-1.54.23-3.36.71-4.17-.92-.71-1.42,0-3.47.63-4.8,1.34-2.75,3.82-6.09,6.75-7.28.26-.11.16-.53-.12-.43-5.7,1.88-10,7.89-12.21,13.24a21.05,21.05,0,0,0-.71,15.13c1.28,3.51,3.64,6.54,4.92,10.05s1.12,8-1.87,10.28c-.93.7-2.25,1.63-1.73,2.67a1.88,1.88,0,0,0,1,.78c3.78,1.64,8.32.5,11.67-1.9s5.74-5.88,8-9.35a11.81,11.81,0,0,1,2.75-3.32,10.54,10.54,0,0,1,3.71-1.5c10.53-2.65,21.56-2.46,32.3-4.07s21.86-5.49,28.46-14.12c4.33-5.66,6.24-12.74,8.64-19.46,1.45-4.07,3.13-8.12,3.56-12.42a22.12,22.12,0,0,0-2-11.65C201,111.76,199.56,105.57,196.47,100.21ZM184,96.95l0-.05,0,0,.14.06Z"/><path class="cls-6" d="M231.48,176.27c-1.56-1.38-3.17-2.72-4.84-4-1-.75-2-2.33-3.28-2.43a5.42,5.42,0,0,1-2.8,4.07,10,10,0,0,1-5,1,20.33,20.33,0,0,1-8.49-2.08c-4.5-2.22-1.25-6.1.18-9.31,1.27-2.84,2.44-5.73,3.74-8.56,2.66-5.76,2.79-13.3,1.67-20.9l-.13.16c-.16-6.09-2.34-12.26-4.53-17.82A69.62,69.62,0,0,0,193.2,93.47a5,5,0,0,0-2.73-1.76c-1.33-.18-2.86.47-4.2.6-.33,0-2.89.66-1.34,1.11,11.52,3.33,16.75,16.91,13.6,27.85a.7.7,0,0,0,.48.85c4.56,1.92,2,7.89.19,10.95a.69.69,0,0,0,.11.83c3.18,3,2.07,7.7.17,11.11-1.75,3.16-6.49,7-10.31,5.39l-.09,0,0,0c-.35-.39-1-.58-1.07.15-.16,4.34-3.31,8.14-6.13,11.16a36.8,36.8,0,0,1-4.38,4c-1.23,1-6.79,3.46-5.29-.22.35-.86-.92-1.23-1.39-.59a23.33,23.33,0,0,1-4.54,5.29,2.85,2.85,0,0,1-1.62.62c-1.41,0-.85-1.67-.63-2.31.34-1,1-1.94,1.22-3a.74.74,0,0,0-1.22-.71c-3.73,3-7.56,6.05-12.15,7.68-.93.33-6.29,1.94-6,0,.25-1.4,1.29-2.74,1.93-4a.68.68,0,0,0-1.18-.69c-2.47,3.36-6.75,4.78-10.71,5.4a24,24,0,0,1-11.28-1.1c-2.19-.72-3.22-1.23-3.42-1a.35.35,0,0,0-.08.55c.73,2.76,1.54,5.18,1.32,8.1-.08,1-1.41,5.73-2.3,3.45a.63.63,0,0,0-1.23.17,22.92,22.92,0,0,1-.36,3.3,7.65,7.65,0,0,1-.65,1.82c-.17.37-1.79,2.51-2,.2,0-.52-.77-.83-1.06-.29-.82,1.58-4,5.67-6.11,4.77-1.18-.5-.55-1.85-1.53-1.64l0-.06a.3.3,0,0,0-.24,0,7.5,7.5,0,0,1-3.48,1.3c-.47,0-1.46.21-1,1,.57.94,3,0,2.07,2a8.91,8.91,0,0,1-2.77,3.06,5,5,0,0,1-3.32,1.07,6.81,6.81,0,0,1-1.87-.3c-1.16-.36-.34-1,.37-1.43a.31.31,0,0,0-.31-.53,13.53,13.53,0,0,0-3.78,2.88,2.5,2.5,0,0,0-.62.8,2.35,2.35,0,0,0,.49,2.07,15.92,15.92,0,0,0,1.31,1.75A4.19,4.19,0,0,0,96,206.58c1.33.39,2.67-.41,4-.94a21.2,21.2,0,0,1,3.74-1l3.48-.73c1.07-.22,2.14-.45,3.22-.59,3.6-.47,7.36,0,10.81-1.13a3.82,3.82,0,0,0,1.5-.82,18.45,18.45,0,0,0,3.19-.73,9.52,9.52,0,0,0,3.74-2.4c.88-.85,1.89-2.54,3.1-2.87a3.47,3.47,0,0,1,1.7.13c7.95,1.94,16.27,3,24.35,1.66a68.75,68.75,0,0,0,28.79-11.52c.42-.26.87-.56,1.34-.89a2.09,2.09,0,0,0-.3.87,9.84,9.84,0,0,0,2.49-1.36l-.3.31c4.77-.91,9.07-3.38,13.8-4.43,5-1.1,10.66-.43,15.58.57l1,.21a9.62,9.62,0,0,1,4.07,1.68,1,1,0,0,0,.45.26.87.87,0,0,0,.46-.12l1.87-.86c1.59-.73,3.27-1.54,4.18-3a1.85,1.85,0,0,0,.3-.82A2.33,2.33,0,0,0,231.48,176.27Z"/><path class="cls-7" d="M187.59,185.61c-7.67-5-20.77-6.66-29.77-6.41-7.65.22-17.83,2.58-22,8-.22.28-.08,2.38.18,2.1l-.81,2.9a17.43,17.43,0,0,1-1.56,2.83C164.61,204.74,188.07,185.93,187.59,185.61Z"/><path class="cls-8" d="M187.44,184.22c-1.16-.28-2.34-.91-3.46-1.2a16.64,16.64,0,0,1-2.34-.73c-.5.63-1,1.25-1.57,1.84a29.42,29.42,0,0,1-4.64,4,23,23,0,0,1-6.44,3.09c-1.33.4-7.45,2-5.7-1.44.33-.63-.13-1.47-.8-1-2.33,1.5-15.38,8.11-15.08,1.68a.77.77,0,0,0-1.14-.66c-2.26,1-4.92,1.77-7.38,1.18-3.49-.83-3.49-4.07-1.77-5.7.09-.09.22.38-.87,1a16,16,0,0,0-.74,1.64c-.88,2.25-1.75,5.25-2.76,7.45a86.63,86.63,0,0,0,21.8,2.4c1.52,0,3.6-1.08,5.1-1.27s2.78-.45,4.16-.76a66.44,66.44,0,0,0,24.52-11Z"/><path class="cls-9" d="M136,186.76c6.67-5.41,16.42-7.36,24.82-7.34,9.44,0,18.66,2.94,27.42,6.15.48.18.78-.57.34-.81-4.5-2.49-9.67-3.89-14.65-5a60.24,60.24,0,0,0-13.64-1.68c-8.56.05-18.22,1.59-24.64,7.54-.24.22.11,1.37.35,1.17Z"/><path class="cls-9" d="M145.06,94.1a5,5,0,0,0-.3.57c-1,2.16-.23,4.79.65,6.85a15.87,15.87,0,0,0,6.22,6.77c4.83,3.17,12,4.92,17.54,2.75a9.23,9.23,0,0,0,4.66-12.78c-2.54-4.67-8.11-7-13-8.26a18.73,18.73,0,0,0-10.31.23A10.6,10.6,0,0,0,145.06,94.1Z"/><path class="cls-10" d="M145.06,92.74a11.34,11.34,0,0,0,.62,10.09,20,20,0,0,0,7.57,7.53c4.54,2.56,11.38,4,16.27,1.64,5.67-2.69,7.27-9.81,4.49-15.16-3.44-6.62-12.83-8.49-19.58-7.93a.5.5,0,0,0,0,1c6.31.62,13.56,1.13,17.66,6.71,3.51,4.79,1.6,12.16-4.07,14.14-4.26,1.49-9.4.24-13.35-1.59a18.33,18.33,0,0,1-6.95-6.09c-2.37-3.29-2.57-6.26-2-10.16a.34.34,0,0,0-.66-.18Z"/><path class="cls-6" d="M164.71,87.28a2.74,2.74,0,0,1,.22-3.49c1-1.48,2.2-3,3.93-3.56a14.66,14.66,0,0,0,.44,3.24,11.25,11.25,0,0,1,0,3.77l-.11,0Z"/><path class="cls-11" d="M231.44,161a13.93,13.93,0,0,0,1.91.43c3.37.47,2.92-2.24,1.21-3.84a19.26,19.26,0,0,0-2-1.62C233.07,157.66,232.72,160.07,231.44,161Z"/><path class="cls-11" d="M134.16,103.22c-3.48,3.85-7.6,9.31-7.28,14.71a6.88,6.88,0,0,0,5.49,6.65c3.65.77,7.14-.42,10.49-1.79.6-.24,1,.52.75,1s-2.49,4.45-1.09,4.38a8.33,8.33,0,0,0,6-3.88C140.86,119.86,135.13,112.16,134.16,103.22Z"/><path class="cls-12" d="M232,158.75c.12.85-1.68,2.45-1,2.72s5.32.55,5.17-1.45c0-.16,0-.39-.13-.49-.49-.4-1.13-.16-1.72-.27a6.31,6.31,0,0,1-1.85-.91.36.36,0,0,0-.52.4Z"/><path class="cls-11" d="M91.69,201.61c-2.42,1.12-6.18,3.05-5.19,3.89,1.75,1.48,4.7,1.51,7.1,1.22A5.43,5.43,0,0,1,91.69,201.61Z"/><path class="cls-12" d="M85.86,204c-1,1.65,2.19,3.53,3.19,3.46s5.55.78,5.56-.63a17,17,0,0,0-2.11-3.27,1.65,1.65,0,0,0-1.06.25,10.64,10.64,0,0,1-1.87.61c-1.07.26-2.38.61-3-.43a.4.4,0,0,0-.68,0Z"/><path class="cls-12" d="M135.76,118.92a2.63,2.63,0,0,0-2.34-1.42.79.79,0,0,0-.28.07,1,1,0,0,0-1.11,1.06c-.11,1.5,2.34,1.58,3.33,1.28A.68.68,0,0,0,135.76,118.92Z"/><path class="cls-11" d="M227.59,183l1.06.47a9.17,9.17,0,0,0,3.54,1c1.64,0,1.35-1.86,1-3a13.63,13.63,0,0,0-.76-2A8.37,8.37,0,0,1,227.59,183Z"/><path class="cls-12" d="M226.79,182.67c-.24,1.76,4.64,3.43,6.9,2,.34-.21.58-.56.36-.9s-.9-.38-1.31-.57a4.73,4.73,0,0,1-2.23-2.5.36.36,0,0,0-.66.09Z"/><path class="cls-13" d="M173.64,69.58c.63-.34,1.16-.81,1.78-1.16h0q-.87-4.09-1.78-8.13c-.58,3.2-1.22,6.4-1.87,9.59A3.39,3.39,0,0,0,173.64,69.58Z"/><path class="cls-11" d="M91.74,182l-.68.26c-1.22.48-3.69,1.23-4.31,2.55-.75,1.6,3.35,1.7,6.31,1.55A5,5,0,0,1,91.74,182Z"/><path class="cls-12" d="M86.43,184.24c-.74,2.47,6.47,3.59,7.47,3.12.75-.35-1.18-3.53-1.92-3.22s-4.75,1.17-5,.1a.3.3,0,0,0-.58,0Z"/><path class="cls-14" d="M219.54,116.6a42.21,42.21,0,0,1-13-6.74,66.06,66.06,0,0,1,6.61,22.86.31.31,0,0,1,.18.12c.93,1.32,4.11,2,5.67,3.35a10,10,0,0,0-.52-2.51,11.23,11.23,0,0,0-.94-1.85c-1.13-1.1-2.18-2.32-3.45-3.35-.27-.22.08-.57.35-.45,2.55,1.11,4,3.81,6.7,4.75a11.08,11.08,0,0,0,6.36.33c-2.44-.74-4.52-2.89-6-4.79-1.11-1.38-2-2.86-3-4.31a14.9,14.9,0,0,0-3.19-3.26c-.93-.61-1.84-1.24-2.74-1.85a.31.31,0,0,1,.24-.56,28.85,28.85,0,0,1,5.89,2.92,20.93,20.93,0,0,0,6.89,2.43c2.78.45,6.37.76,8.88,2.43a17.42,17.42,0,0,0-4.47-5.54,22.39,22.39,0,0,0-4.84-3.18A22,22,0,0,1,219.54,116.6Z"/><path class="cls-14" d="M193.61,79.11c3.07-3.13,5.82-6,7-10.17-2.93,2.81-6.73,4.68-10,7-4.09,2.83-7.22,6.13-8.53,11a28,28,0,0,1,4.6,1.79C187.61,84.86,190.92,81.84,193.61,79.11Z"/><path class="cls-15" d="M182.12,87.32a7,7,0,0,0,1.49.55,1.4,1.4,0,0,0,.49.12c.49,0,.81-.48,1.16-.83.79-.78,2-1,2.86-1.66a10.82,10.82,0,0,0,1.9-2.33,19.93,19.93,0,0,1,2.59-2.63A36.52,36.52,0,0,0,197.74,75a16.44,16.44,0,0,0,3-6.84,16.5,16.5,0,0,0-1.81,1c-.41.53-.36,1.39-.66,2a10.38,10.38,0,0,1-3.05,3.36c-1.68,1.4-3.38,2.8-5,4.25s-2.86,3.54-4.39,5.22a9,9,0,0,1-2.69,2.14c-.37.18-1.33.29-1.27.81A.5.5,0,0,0,182.12,87.32Z"/><path class="cls-15" d="M207.06,111c.23,4.39,3.35,6.84,6.93,7.86,1.63.47,5.47,3.64,6.68,4.11a51.79,51.79,0,0,0,7.44,1.5,18.52,18.52,0,0,1,6.27,1.59c.65.35.21-1.84-.22-2.37-1.37-1.67-3.68-1.88-5.7-2.07a16.23,16.23,0,0,1-4.12-.88,45.2,45.2,0,0,1-4.25-2.32c-2.15-1-4.61-1.31-6.8-2.29-2.39-1.08-4.92-2.56-5.74-5.21-.08-.27-.51-.23-.5.07Z"/><path class="cls-13" d="M171.18,87.67a9.89,9.89,0,0,0,7.66-.68q-.41-2.81-.9-5.63a7,7,0,0,1-8.68,1.17c-.2,1.12-.37,2.25-.48,3.37a3.46,3.46,0,0,0,0,.51A10.4,10.4,0,0,0,171.18,87.67Z"/><path class="cls-14" d="M197.65,97.07a51.76,51.76,0,0,1,4.55,5.56c2.74.34,5.33,1.61,8,2.22A41.83,41.83,0,0,0,220.85,106a28,28,0,0,0,8.69-1.39,22.11,22.11,0,0,0,5.92-3.4c-4.21.29-8.55-1.43-12.4-2.82-2.66-1-5.46-2-8.32-2.12-2.48-.08-4.95.45-7.42.3A42.68,42.68,0,0,1,197.65,97.07Z"/><path class="cls-14" d="M219.16,107.48a36,36,0,0,1-7.78-1c-2.94-.72-5.68-2.11-8.56-3q.51.75,1,1.49c.65,1,1.26,2.09,1.84,3.15,5.48,2.42,10.1,6.4,16.22,7.36,4.86.76,10.79-.68,15.4,1.48C233.35,111.54,226,108.7,219.16,107.48Z"/><path class="cls-15" d="M202.25,103.3a9.75,9.75,0,0,0,3.36,5.85c2.6,1.48,9.82,5.44,12.65,6.32a32.92,32.92,0,0,0,7.23,1.2c2.74.22,5.57-.36,8.29,0,1.63.22,3.17.93,4.81,1a2.62,2.62,0,0,0-.84-1.86c-2.26-2.56-5.74-3.63-9.06-3.94a37.11,37.11,0,0,1-9.51-1.64c-1.55-.56-3-.45-4.6-.94s-3.35-.84-5-1.4c-2-.67-5-2.7-6-4.61C203.47,103,202.25,103.3,202.25,103.3Z"/><path class="cls-15" d="M197.87,97.37c2.2,3,2.25,4.44,4.67,5.75a46.06,46.06,0,0,0,8.74,2.85c1.74.42,8.7-.07,10.37.55,1.52.57,12-2.56,14.46-4.65.51-.43-.54-1.82-1.09-1.51A22.39,22.39,0,0,1,224,103c-3.38-.28-6.2-1.65-9.44-2.41-2.55-.6-5.39-.23-8-.41a15,15,0,0,1-8.29-3.2c-.25-.18-.6.18-.42.42Z"/><path class="cls-14" d="M196.91,96.3a84.68,84.68,0,0,0,10.07-1,42.21,42.21,0,0,0,10.13-3.76c4.83-2.3,11.08-5.26,16.66-4.2A26.21,26.21,0,0,0,219.49,84c-5.93.22-11.35,2.59-16.9,4.43A45.17,45.17,0,0,1,192,92,42.92,42.92,0,0,1,196.91,96.3Z"/><path class="cls-15" d="M190.38,92.54c3.69.38,2.47,4.05,6.2,4.15,3.37.08,11.72-1.11,14.72-2.5s5.41-2.09,8.37-3.43a31.92,31.92,0,0,1,6-2.12,44.2,44.2,0,0,1,7.89-1.05c.58,0-2.43-2.53-2.93-2.71-5.83-2-12.53,1.21-17.5,3.79-3.53,1.83-7.2,4.35-11.21,4.68s-7.58-1.8-11.51-1.48a.33.33,0,0,0,0,.67Z"/><path class="cls-14" d="M194.81,79.91c-2.78,2.84-5.56,5.64-7.41,9.19a34.46,34.46,0,0,1,4.12,2.56c3.34-1.71,7-2.73,10.37-4.38a42.39,42.39,0,0,0,8.42-5.69c3.86-3.21,8.36-7.48,13.5-8.67a30.23,30.23,0,0,0-18.19,1.34,63.56,63.56,0,0,0-8.88,4.54C196.12,79.15,195.47,79.52,194.81,79.91Z"/><path class="cls-15" d="M222.63,71.94c-2.13-1-4.57.08-6.6.88a40,40,0,0,0-7.87,3.82c-2.42,1.63-4,4.09-6,6.19a12.19,12.19,0,0,1-9,4.19c-.81,0-2.82,4.84-2.05,4.93,5.5.66,18-7.35,21.19-11.23,2.19-2.71,9.38-7.54,12.34-7.18a11.37,11.37,0,0,0-2.06-1.6Z"/><path class="cls-13" d="M176.49,73.94l.06,0q-.46-2.29-.93-4.58a3.45,3.45,0,0,1-4,1.38q-.5,2.47-1,4.95A5.58,5.58,0,0,0,176.49,73.94Z"/><path class="cls-14" d="M72.22,138c5.15-3.06,9.45-7.5,15.18-9.57a14.34,14.34,0,0,1,15.27,3.18c4.11,3.83,7.45,8.42,8.62,14A32.59,32.59,0,0,1,114.6,143c.73-6.29.07-12.51-4.64-17.23a24.35,24.35,0,0,0-19.5-7.11,26.94,26.94,0,0,0-10.93,3.52,70.32,70.32,0,0,0-8.63,6.61c-2.19,1.8-4.75,4.14-7.57,4.84a7.32,7.32,0,0,1-5.89-1.32,11.36,11.36,0,0,0,5.46,6.1A9.18,9.18,0,0,0,72.22,138Z"/><path class="cls-14" d="M80.39,161.4c1.31-3.8,3.05-7.45,6.15-10.14,5.89-5.11,14-5.94,20.46-1.44a.77.77,0,0,1,.24.26q.53-.73,1.11-1.43a.7.7,0,0,1-.61-.32c-4.67-6.77-12.92-13.76-21.81-10.41-5.92,2.23-10.15,9.82-17.12,9-.28,0-.4-.47-.07-.53,7.67-1.44,11.78-9.7,19.62-10.49,8.73-.88,16.18,4.55,20.59,11.74a.74.74,0,0,1,.09.23q.61-.68,1.27-1.32c-1.44-3.1-1.95-6.19-4.14-9-1.93-2.44-4-5-6.68-6.71-7-4.35-13.78-.5-19.76,3.63-4,2.79-8.36,7.16-13.65,6.55a10,10,0,0,1-8.3-1c-1.7-1-3.07-2.45-4.77-3.39a6.75,6.75,0,0,0-3.55-.6,19.89,19.89,0,0,1,1.88,1.59,49.77,49.77,0,0,0,11.35,8.48c.36.19.1.7-.26.63-4.11-.82-7.51-3.72-10.49-6.53s-6.2-5.91-10.64-4.6c-5.93,1.75-8.37,9-14.1,10.85,2.81.87,5.29,2.31,8.28.5a8.65,8.65,0,0,1,6.47-1.39,9.52,9.52,0,0,1,1-.77c2.54-1.68,6.23-3.08,9.15-1.52a.45.45,0,0,1,.23.57l0,.06h0a.44.44,0,0,1-.09.14l-.05,0-.07.06h0a12.59,12.59,0,0,0-4.24,4.2l-.36.54c2.53.31,3.44,3.27,3.88,5.53a22.61,22.61,0,0,0,1.3,5.34,5,5,0,0,0,2.74,2.66,14.66,14.66,0,0,0,1.89.17,14.25,14.25,0,0,0,7.81-2.25c3.38-2,7-5,11.19-4.76a.34.34,0,0,1,.09.67,24.52,24.52,0,0,0-7,3,45.46,45.46,0,0,1-6.25,3.67c-4.28,1.9-9.41,1.11-13.51-1,3.3,5,8.51,8.07,14.73,7.6S76.1,165.9,80.39,161.4Z"/><path class="cls-15" d="M56.77,131.91c1.15,2.55,3.87,6.88,6.09,7.32s4.91,1.3,7.68,0c6.35-3,12.1-9,16.89-10.28,4.95-1.37,7.38-1.58,11.78,1.1,5.43,3.3,11.43,9.81,11.09,15.74,0,.86,2.75.24,2.8-.62.3-5.43-2.41-11.15-6.36-15.12-3.41-3.43-8.53-4.71-13.23-4.65-5.55.06-10.26,2.66-15,5.28a40.65,40.65,0,0,1-8.87,4c-3.52,1-6.65.25-9.81-1.41C59.47,133.07,56.77,131.91,56.77,131.91Z"/><path class="cls-13" d="M177.78,80.41c-.32-1.81-.66-3.61-1-5.42-1.08,1.95-4.44,2.7-6.32,1.5v0c-.33,1.7-.7,3.41-1,5.13A8.66,8.66,0,0,0,177.78,80.41Z"/><path class="cls-15" d="M109.22,148.44c-3.72-6.62-10.54-12.37-18.3-12.31-4,0-7.27,1.8-10.46,4-4.14,2.85-6.81,5.42-11.65,6.81-.57.16-2.37.25-2,.67,2.16,2.32,5.88,2.55,8.75,3.13a15.29,15.29,0,0,1-12.93,2.09c-4.48-1.27-6.85-6.11-10.14-9a12.16,12.16,0,0,0-11.19-2.54,19.5,19.5,0,0,0-5.43,2.67c-3,1.82-6.08,1.76-9.58,2.07a.21.21,0,0,0,0,.42c3,.27,5.2,2.9,7.92,1.83,2-.78,4-1.74,6.19-1.82,1.08,0,2.08.69,3,1.15l3.33,1.6a6.72,6.72,0,0,1,1.83,1.13,5.52,5.52,0,0,1,1.32,2.48c.54,1.84.72,3.77,1.3,5.6a7.06,7.06,0,0,0,3.39,4.44,7.15,7.15,0,0,0,3.29.53,14.84,14.84,0,0,0,6-1.52c3-1.49,5.47-4,8.68-5.09a21.88,21.88,0,0,1,5-.75c-4.06,8-13.28,13.68-22.29,12A14.3,14.3,0,0,0,65.62,171a20.2,20.2,0,0,0,5.77-2,25.84,25.84,0,0,0,8.3-5.71A18.87,18.87,0,0,0,82.6,159c.77-1.58,1.13-3.64,2.3-5a29.86,29.86,0,0,1,5.7-4.35,13.88,13.88,0,0,1,16.46,1.07S109.74,149.35,109.22,148.44Z"/><path class="cls-9" d="M173.36,60.27c-1.12,9.17-4.15,16.95-5.25,26.12-.11.94,3.14,2.31,3.25,1.38q.57-4.79,1.1-9.59c.64-5.85,2-12,1.46-17.91a.28.28,0,0,0-.56,0Z"/><path class="cls-6" d="M134.4,102.42c.39,5.76,5.39,14.76,9.79,18.13,4.61,3.54,13,7.09,18.79,6.66,10.84-.8,20.73-11.53,21.54-25.91,0-.61-.68-.79-.9-.25-4,10-13.06,18-23.91,19.36-10.42,1.26-22.88-7.57-24.82-18.07a.25.25,0,0,0-.49.07Z"/><path class="cls-4" d="M218.87,160.7a41.16,41.16,0,0,1,7.93-.8,12.59,12.59,0,0,1,2.82.55h0a2.34,2.34,0,0,0,2.14-2.25,5.66,5.66,0,0,0-.24-2.95,21.14,21.14,0,0,0-5.72-2.47,47.31,47.31,0,0,0-13.07-2,49.7,49.7,0,0,1-3.24,10.89C212.62,161.4,215.74,161.14,218.87,160.7Z"/><path class="cls-6" d="M210.74,156.11c-.25.79-.38,1.92-.46,2.25q-.55,2.13-1.27,4.2l16-2c1.86-.23,3.84-.44,5.51.41a15.11,15.11,0,0,0,1.65-3c.34-.91.76-2.61.07-3.43-.48-.58-1.43-.67-2.09-.89-2.4-.81-4.39-2-7-2.28.13,2.57-2.48,3.8-4.61,4.3a14.13,14.13,0,0,1-7.16-.38C211.12,155.24,210.9,155.6,210.74,156.11Z"/><path class="cls-4" d="M104.38,173.25c-.15-.41-.29-.82-.43-1.23-1.8,3.39-5,7.18-8.35,8.56-1,.4-2,.74-3,1.1a6.42,6.42,0,0,0,.49,2.83,7,7,0,0,0,1.7,1.74c.49,0,.85-.09,1-.12,4.27-.7,8.85-1.67,12.48-4.13-.25-.59-.52-1.19-.8-1.78C106.46,177.92,105.28,175.64,104.38,173.25Z"/><path class="cls-6" d="M95.51,180.06a19.78,19.78,0,0,0-3.44,1.32,10.41,10.41,0,0,0,.77,3.16c0,.11,1.07,2.36.77,2.29,3.8.89,13.22-1.87,15-5,.23-.4-2.53-7.38-2.84-7a46.93,46.93,0,0,1-4.06,4.77,8.68,8.68,0,0,1-2.63,1.55c-.7.26-3.34.48-3-.93C96.09,180,95.87,180,95.51,180.06Z"/><path class="cls-12" d="M126.47,120.34c1.39,2.15,3.65,4.44,6.19,5.11,1.5.4,3.31-.08,4.81-.37a34,34,0,0,0,3.65-.91,12,12,0,0,1,3.19-.84.53.53,0,0,1,.32.06.44.44,0,0,1,.14.19,1.53,1.53,0,0,1-.17,1.39,7,7,0,0,1-.94,1.1,8.46,8.46,0,0,0-1.11,1.5,1.2,1.2,0,0,0-.22.81c.12.6,1.46.44,1.88.35a5.64,5.64,0,0,0,1.9-.89c1.55-1,3.05-2.44,3.21-4.28,0,.19-2.07-.68-2.29-.82a21.92,21.92,0,0,1-2.84-2.19c-.46-.41-.79-1.19-1.3-1-8.19,3.56-12.71,4.56-16,.43C126.71,119.77,126.31,120.09,126.47,120.34Z"/><path class="cls-6" d="M172.82,124.77c3.75,5.72,9.49,2.28,12-2.24,3.32-6,3.27-14.68-.29-20.58-.21-.35-.85-.11-.68.29C186.1,107.69,172.82,124.77,172.82,124.77Z"/><path class="cls-14" d="M49.78,144.08a11.16,11.16,0,0,0-8.12,3.79c-1.76,1.84-3.53,3.73-5.94,4.56a14.34,14.34,0,0,0,4.61.6c2.53-.33,4-2,5.37-4C46.76,147.52,48,145.27,49.78,144.08Zm-5.71,4.53a4.22,4.22,0,0,1-1.47,2,4.38,4.38,0,0,1-2.38.87c-.26,0-.31-.34-.12-.46a36.76,36.76,0,0,0,3.47-2.74C43.78,148.14,44.17,148.3,44.07,148.61Z"/><path class="cls-14" d="M106.25,151.11a15.26,15.26,0,0,0-21.32,4.18c-3.76,5.42-3.85,13.82-9,18.28a17,17,0,0,0,8.3-4.14,24.43,24.43,0,0,0,5.37-8.54c1.23-2.9,2.9-5.89,5.81-7.4,3.26-1.69,6.37-1.42,9.85-.64l.18.06q.47-.87,1-1.7A.75.75,0,0,1,106.25,151.11Z"/><path class="cls-16" d="M149.94,96.06c-1.68,2.23-1,5.76,2.09,6.2s4.6-3.32,3.84-5.79a.41.41,0,0,0-.81.11c-.12,1.48-.76,3.69-2.6,3.81-2.37.16-2.43-2.56-2-4.13a.27.27,0,0,0-.49-.21Z"/><path class="cls-16" d="M161.24,98.25c-2,3.63.76,8.48,5,7.61,3.32-.67,4.36-5.8,2-8-.3-.28-.93,0-.75.44.77,2,.56,5.14-2.12,5.46-3.15.38-3.51-3.77-3.59-5.4a.29.29,0,0,0-.53-.14Z"/><path class="cls-17" d="M132.93,119.43c-.35-.19-.67-.35-.56-.8a1.22,1.22,0,0,1,1-.83,1.62,1.62,0,0,1,1.49.66,2.12,2.12,0,0,1,.23,1.73c-.06.33.33.63.6.35a2.3,2.3,0,0,0,.11-2.78,2.72,2.72,0,0,0-2.86-1.1,2.24,2.24,0,0,0-1.74,1.93,1.27,1.27,0,0,0,1.64,1.34.27.27,0,0,0,.06-.49Z"/><path class="cls-17" d="M68.81,146.92c7,.83,11.2-6.76,17.12-9,8.89-3.35,18.27,4.61,22.32,11.14.47.76,1.18-.66.7-1.44-4.41-7.19-11.86-12.61-20.59-11.74-7.85.79-12,9-19.62,10.49-.32.06-.2.5.07.53Z"/><path class="cls-17" d="M74.74,174.49c6.35-4.12,6.15-13.38,10.19-19.2a15.26,15.26,0,0,1,21.32-4.18c.79.55,1.53-.74.75-1.28-6.51-4.5-14.57-3.67-20.46,1.44-3.17,2.75-4.92,6.51-6.25,10.4-1.53,4.52-2.89,8.52-6,12.21-.27.32.08.86.47.6Z"/><path class="cls-17" d="M92,181.07c-1.09,2.28.15,5.78,2.82,6.27a.41.41,0,0,0,.4-.68c-.72-.75-1.6-1.21-2.13-2.14s-.39-2.21-.54-3.3c0-.26-.41-.45-.56-.15Z"/><path class="cls-17" d="M92.88,200c-3,1.83-.31,7.7,2.86,7.49a.48.48,0,0,0,.24-.89c-2.08-1.13-4.21-3.7-2.59-6.08.21-.32-.2-.7-.51-.51Z"/><path class="cls-17" d="M225.66,183.16c2.89.63,9.23-3.62,6.56-6.86a.47.47,0,0,0-.8.33,4,4,0,0,1-1.63,3.88,9,9,0,0,1-4.12,1.81.43.43,0,0,0,0,.83Z"/><path class="cls-17" d="M231.42,155a5.47,5.47,0,0,1,.34,3.19,2.34,2.34,0,0,1-2.14,2.25c-.44.06-.39.74,0,.84,3.31.82,4-4.85,2.26-6.63-.24-.26-.6.07-.46.36Z"/><path class="cls-17" d="M239.45,118.48c-.67-4.22-5.93-7.12-9.37-8.82a33.44,33.44,0,0,0-6.19-2.33c5.27-.51,10.79-2.4,14.08-6.69a.47.47,0,0,0-.23-.75.53.53,0,0,0-.26-.08A39.38,39.38,0,0,1,229.4,99c-2.51-.63-4.93-1.59-7.37-2.44a27.11,27.11,0,0,0-7.3-1.57,14.67,14.67,0,0,0-2.81.14A28.56,28.56,0,0,0,214.87,94a101.55,101.55,0,0,1,9.94-4.33,27.52,27.52,0,0,1,10.62-1.25.38.38,0,0,0,.3-.11c.45.14.78-.51.47-.89-3.45-4.28-10.54-5.07-15.63-5.12a33.31,33.31,0,0,0-12.49,2.68l1.43-1.1c5.34-4.2,10.09-8.78,16.8-10.62l.06,0,0,0a.42.42,0,0,0,.19-.23l0,0v0a.39.39,0,0,0-.13-.42l-.06,0,0,0h0l-.09,0c-7-3.08-14.73-2.09-21.7.66a42,42,0,0,0-6.5,3.37c2.1-2.53,3.93-5.6,3.59-8.81v0c.28-.38-.16-1-.59-.7-4,3.07-8.38,5.52-12.41,8.53-3.73,2.78-7,6.62-7.41,11.4-.54-.14-1.09-.26-1.64-.36-.74-.14-1.07.95-.32,1.14,10.54,2.76,18.72,10.82,24.19,19.94,6.41,10.68,8.84,23.36,8.53,35.73a50,50,0,0,1-6.52,23c-.38.24-.44.63.16.71,3.79.45,7.7,1.2,11.26,1.88a22.63,22.63,0,0,1,9.39,3.55,17.6,17.6,0,0,1,6.85,9.18c.33,1.17.61,3-1,3a9.17,9.17,0,0,1-3.54-1c-2.26-1-4.38-2.11-6.7-3a27.62,27.62,0,0,0-12-1.48,62.82,62.82,0,0,0-22.17,5.82,1.87,1.87,0,0,0-.39.18c-1.61,1.09-3.25,2.13-4.91,3.14-14.22,8.57-32.94,11.29-48.91,6.71a18.78,18.78,0,0,0,3-12.94c-.09-.73-1.19-.78-1.17,0,.13,5.49-1.43,10.71-5.43,14.6-4.56,4.43-11.25,5.49-17.31,5.95a40.91,40.91,0,0,0-8.26,1.21c-3.16.9-6.13,2.16-9.38,2.75-2.53.46-6.43.81-8.57-1-1.38-1.16,6.44-4.45,7-4.71a22,22,0,0,0,5.92-3.8,26.15,26.15,0,0,1,3.17-2.47,33.74,33.74,0,0,1,3.86-1.59c3.66-1.71,5-6,3.94-9.65a45.28,45.28,0,0,0-3.05-6.89,31.18,31.18,0,0,1-3.06-9.2,23.29,23.29,0,0,1,2.91-14.51c4-7,11.87-11.34,19.4-13.58,8.16-2.43,16.83-2.47,25.26-2.16,3.46.13,6.86.75,10.31,1.06,3,.26,6.63.3,9.19-1.54,3.47-2.49,4.58-8.75,1.71-11.89A27.68,27.68,0,0,0,185,101.18a.46.46,0,0,0-.92,0c-.53,6.94-2.8,13.47-7.58,18.63a20.5,20.5,0,0,1-17.1,6.58c-12.29-1.2-22.67-12-24.53-23.92a50.44,50.44,0,0,1,32.63-15.41c.84-.06.84-1.36,0-1.31-1,.07-2,.17-3,.3a24.11,24.11,0,0,1,2.23-3.52c.45-.51,1-1.27,1.52-1.72.16.95.2,2.18.27,3.14.06.76,0,1.55.15,2.31a8.39,8.39,0,0,1,1-.18,36,36,0,0,0-.57-6.16.56.56,0,0,0-.92-.29c-1.21,1-4.21,4.06-5.24,6.65-12.31,2-24.3,8.64-31.84,18.53-3.37,4.42-7,10.45-4.94,16.18,2.35,6.5,10.06,5.55,15.46,3.69-.9,1.66-1.78,3.79-.06,4.68,2.75,1.43,6.76-2.32,7.86-4.65a29.38,29.38,0,0,0,10,3.23,19.71,19.71,0,0,0,12.71-2.72c2.61,3.26,1.14,9.38-2.76,10.9-4.45,1.74-10.08.05-14.63-.46a89.84,89.84,0,0,0-16.33-.07A55.88,55.88,0,0,0,122.44,139a38.28,38.28,0,0,0-6.26,3.06,20.77,20.77,0,0,0-3.54-15.31,24.77,24.77,0,0,0-16.42-9.33,28.35,28.35,0,0,0-19.77,5.08c-3.22,2.23-6,5-9.16,7.35a15.13,15.13,0,0,1-4.83,2.63c-1.82.5-3.75-.65-5.39-1.26a.35.35,0,0,0-.23,0,.42.42,0,0,0-.48.4c-.1,3.68,3.14,7,6.52,8.55a13.67,13.67,0,0,1-7.49-3.28,10.53,10.53,0,0,0-3.61-2,8.16,8.16,0,0,0-3.76.32A8.92,8.92,0,0,0,41.83,134c-7.05,1.33-9.84,9.37-16.16,12.14a.34.34,0,0,0-.19.62c2.49,1.39,5.07,2.65,8,2.41a7.65,7.65,0,0,0,3.2-1.35,9.4,9.4,0,0,1,4.14-1.1c-.58.61-1.13,1.26-1.69,1.86a17.6,17.6,0,0,1-4.87,3.49.32.32,0,0,0-.11.49.36.36,0,0,0,.14.29,8.76,8.76,0,0,0,10.31-.25,12.7,12.7,0,0,0,2.32-2.79c3.17,1.23,3,5.34,3.71,8.25a10.2,10.2,0,0,0,1.66,3.79c-1.08-.28-2.15-.58-3.23-.81a.34.34,0,0,0-.34.12.4.4,0,0,0-.34.51c1.81,6.35,8.61,9.5,14.75,9.71a22,22,0,0,0,18.11-9.59.43.43,0,0,0-.68-.52c-4.31,4.58-9.83,8-16.22,8.44-6.22.47-11.43-2.59-14.73-7.6,4.11,2.08,9.23,2.87,13.51,1a45.47,45.47,0,0,0,6.25-3.67,24.52,24.52,0,0,1,7-3,.34.34,0,0,0-.09-.67c-4.15-.2-7.81,2.73-11.19,4.76a14.25,14.25,0,0,1-7.81,2.25,14.66,14.66,0,0,1-1.89-.17,5,5,0,0,1-2.74-2.66,22.61,22.61,0,0,1-1.3-5.34c-.44-2.25-1.35-5.21-3.88-5.53l.36-.54a12.59,12.59,0,0,1,4.24-4.2h0l.07-.06.05,0a.44.44,0,0,0,.09-.14h0l0-.06a.45.45,0,0,0-.23-.57c-2.91-1.56-6.6-.16-9.15,1.52a9.53,9.53,0,0,0-1,.77A8.65,8.65,0,0,0,35.47,147c-3,1.81-5.47.37-8.28-.5,5.73-1.89,8.18-9.1,14.1-10.85,4.44-1.31,7.69,1.82,10.64,4.6s6.38,5.71,10.49,6.53c.36.07.63-.44.26-.63a49.77,49.77,0,0,1-11.35-8.48,19.9,19.9,0,0,0-1.88-1.59,6.75,6.75,0,0,1,3.55.6c1.71.94,3.08,2.42,4.77,3.39a10,10,0,0,0,8.3,1c5.29.61,9.6-3.76,13.65-6.55,6-4.13,12.8-8,19.76-3.63,2.67,1.67,4.75,4.26,6.68,6.71,2.19,2.77,2.7,5.87,4.14,9a26.48,26.48,0,0,0-4.85,6.37l-.18-.06c-3.48-.78-6.59-1.05-9.85.64-2.91,1.51-4.58,4.5-5.81,7.4a24.43,24.43,0,0,1-5.37,8.54c-2.77,2.68-6.16,3.73-9.83,4.47-.53.11-.37.87.12.9,5.87.33,11-3.78,14-8.46,1.79-2.78,2.53-6.06,4.41-8.79,2.83-4.12,7.42-4.34,11.86-3.37a23.18,23.18,0,0,0-1.57,4.58,24.7,24.7,0,0,0,.39,12.28c-2,2-3.53,4.45-5.63,6.37-1.8,1.65-3.83,2.29-6.07,3.1-1.74.63-8,2.49-6.48,5.47s7.16,2,9.7,1.63c4.55-.62,9.79-1.62,13.6-4.37a7.16,7.16,0,0,1-.1,5.43c-.95,2.09-2.92,3-5,3.67a13.29,13.29,0,0,0-4.41,2.76,26.51,26.51,0,0,1-5.41,3.85c-2,1-4.16,1.67-6.12,2.77-1.76,1-4.64,3.52-1.92,5.27,3.4,2.19,8.14,1.44,11.84.59,2.45-.56,4.8-1.48,7.19-2.27a32.34,32.34,0,0,1,7.83-1.13,38.6,38.6,0,0,0,13.39-2.93,18,18,0,0,0,6.86-5.42l.08,0c9.16,3.67,19.79,3.19,29.31,1.38A70.67,70.67,0,0,0,189,185.78c8.32-3.23,17.59-5.9,26.51-5.23,3.79.28,7.41,2,10.78,3.63,2,1,4.56,2.38,6.89,1.85s1.86-3.77,1.4-5.44c-1-3.68-3.9-6.83-6.82-9.15s-6.19-3.33-9.84-4.06A57.49,57.49,0,0,0,207.37,166c.24-.43.48-.87.71-1.31s.57-1.14.83-1.72c7.1.46,14.55-3.25,21.46-1,1.67.54,4.52,1.62,6,.06a3,3,0,0,0,.37-3.79c-1.62-2.91-5.78-5.08-8.83-6.12-4.55-1.55-10.17-2.72-15.05-2.08a57.42,57.42,0,0,0,.72-10.37q-.06-2.86-.31-5.69a6.39,6.39,0,0,0,2.24,1.78c.68.37,1.38.66,2,1.08s1,1.19,1.67,1.67a.44.44,0,0,0,.65-.26,2.19,2.19,0,0,0,0-.26.32.32,0,0,0,.11-.17,6.88,6.88,0,0,0-.66-4.49,8.59,8.59,0,0,0,2,1,9.54,9.54,0,0,0,8.75-1h0c.64-.09.43-1-.14-1.07-4-.26-6.9-3.81-9.13-6.85-.65-.88-1.27-1.71-1.91-2.46a19.55,19.55,0,0,0,4.61,1.81c1.9.45,3.86.63,5.77,1a16.79,16.79,0,0,1,6.17,2.54.43.43,0,0,0,.45,0,.46.46,0,0,0,.23-.54c-.15-3.23-2.94-6.11-5.23-8.08a18.41,18.41,0,0,0-3.24-2.26l.87,0a44.07,44.07,0,0,1,4.66,0A16.1,16.1,0,0,1,238.5,119a.54.54,0,0,0,.93-.25.4.4,0,0,0,0-.21A.59.59,0,0,0,239.45,118.48Zm-96.93,9.65c-1.41.07.81-3.8,1.09-4.38s-.16-1.22-.75-1c-3.34,1.37-6.84,2.57-10.49,1.79a6.88,6.88,0,0,1-5.49-6.65c-.32-5.4,3.8-10.85,7.28-14.71,1,8.94,6.7,16.64,14.38,21A8.32,8.32,0,0,1,142.53,128.14ZM49.78,144.08c-1.73,1.19-3,3.44-4.08,5-1.36,2-2.84,3.64-5.37,4a14.34,14.34,0,0,1-4.61-.6c2.41-.82,4.18-2.72,5.94-4.56A11.16,11.16,0,0,1,49.78,144.08Zm52.89-12.43a14.34,14.34,0,0,0-15.27-3.18c-5.74,2.07-10,6.52-15.18,9.57a9.18,9.18,0,0,1-9.33.41,11.36,11.36,0,0,1-5.46-6.1,7.32,7.32,0,0,0,5.89,1.32c2.83-.7,5.38-3,7.57-4.84a70.32,70.32,0,0,1,8.63-6.61,26.94,26.94,0,0,1,10.93-3.52,24.35,24.35,0,0,1,19.5,7.11c4.71,4.72,5.37,10.94,4.64,17.23a32.61,32.61,0,0,0-3.31,2.59C110.13,140.07,106.78,135.48,102.67,131.65Zm-6.82,54.49c-1,.17-10.19,1-9.1-1.3.62-1.33,3.09-2.07,4.31-2.55,1.5-.6,3-1.09,4.54-1.7,3.39-1.38,6.55-5.17,8.35-8.56.13.41.27.82.43,1.23.9,2.39,2.08,4.67,3.16,7,.28.59.55,1.19.8,1.78C104.7,184.47,100.12,185.44,95.85,186.14Zm86-99.26a.33.33,0,0,0,.18-.18c1.3-4.94,4.44-8.26,8.55-11.1,3.36-2.32,7.21-4.21,10.16-7.09-1.15,4.35-4,7.37-7.16,10.6l-.33.33a9.72,9.72,0,0,0-2.87,3,15.07,15.07,0,0,0-3.73,6.31A27.91,27.91,0,0,0,181.87,86.88Zm5.53,2.22c2-3.86,5.11-6.83,8.13-9.92l1.21-.69a63.57,63.57,0,0,1,8.88-4.54A30.23,30.23,0,0,1,223.8,72.6c-5.14,1.19-9.64,5.46-13.5,8.67-2.64,2.2-7,5.81-10.06,7.33-3.31,1.63-4.94,1.86-8.15,3.48A34.92,34.92,0,0,0,187.4,89.1ZM193,92.8a36.48,36.48,0,0,0,11.47-5.32c4.89-1.71,9.74-3.59,15-3.78A26.21,26.21,0,0,1,233.78,87c-5.58-1.05-11.84,1.9-16.66,4.2A42.21,42.21,0,0,1,207,95a89.21,89.21,0,0,1-10.35,1A43.53,43.53,0,0,0,193,92.8Zm4.31,3.94a44.14,44.14,0,0,0,9.12-.32.31.31,0,0,0,.23.13c2.67.29,5.36-.34,8-.26,2.86.09,5.66,1.17,8.32,2.12,3.85,1.38,8.19,3.11,12.4,2.82a22.11,22.11,0,0,1-5.92,3.4,28,28,0,0,1-8.69,1.39,41.84,41.84,0,0,1-10.63-1.17c-2.69-.61-5.28-1.88-8-2.22A51.56,51.56,0,0,0,197.34,96.74Zm28.47,56a20.66,20.66,0,0,1,8.76,4.79c1.71,1.6,2.16,4.3-1.21,3.84-2.25-.31-4.24-1.39-6.55-1.52a41.15,41.15,0,0,0-7.93.8c-3.13.44-6.25.7-9.38,1a49.7,49.7,0,0,0,3.24-10.89A47.32,47.32,0,0,1,225.81,152.79Zm4.11-32.22a17.42,17.42,0,0,1,4.47,5.54c-2.51-1.67-6.1-2-8.88-2.43a20.92,20.92,0,0,1-6.89-2.43,28.85,28.85,0,0,0-5.89-2.92.31.31,0,0,0-.24.56c.9.61,1.81,1.24,2.74,1.85a14.9,14.9,0,0,1,3.19,3.26c1,1.45,1.92,2.93,3,4.31,1.53,1.9,3.61,4,6,4.79a11.08,11.08,0,0,1-6.36-.33c-2.66-.93-4.15-3.63-6.7-4.75-.27-.12-.62.23-.35.45,1.27,1,2.31,2.25,3.45,3.35a11.23,11.23,0,0,1,.94,1.85,10,10,0,0,1,.52,2.51c-1.56-1.35-4.74-2-5.67-3.35a.31.31,0,0,0-.19-.12,66.12,66.12,0,0,0-6.6-22.86,42.21,42.21,0,0,0,13,6.74,22,22,0,0,0,5.55.78A22.39,22.39,0,0,1,229.92,120.57Zm-8.05-5c-6.12-1-10.75-4.94-16.22-7.36-.58-1.06-1.19-2.12-1.84-3.15q-.47-.75-1-1.49c2.88.85,5.63,2.24,8.56,3a36,36,0,0,0,7.78,1c6.85,1.22,14.18,4.06,18.11,9.53C232.66,114.86,226.72,116.3,221.87,115.53Z"/><path class="cls-4" d="M189.15,92.79a7.9,7.9,0,0,0,1.77-1.6c1.64-2,2.37-4.68,3.1-7.11a20.66,20.66,0,0,0-7.53,2.63,8.58,8.58,0,0,0-2.83,2.54,9.81,9.81,0,0,0-1.61,4.2c0,.7,1,.83,1.53.82A10.21,10.21,0,0,0,189.15,92.79Z"/><path class="cls-17" d="M194.32,83.19a20.61,20.61,0,0,0-7.19,2.13,10.42,10.42,0,0,0-3.06,2.33c-.51.59-2,2.77-1.85,4.54,0,.13.22.16.34.11a.43.43,0,0,0,.16-.16,41.28,41.28,0,0,1,2.19-3.84,9.74,9.74,0,0,1,2.6-2,16.57,16.57,0,0,1,3.06-1.24,27.81,27.81,0,0,0,3.09-.7c-.87,2.88-2.14,6.84-5.05,7.8a.6.6,0,0,0,.27,1.17c3.81-.83,5.13-6.34,6.11-9.48A.57.57,0,0,0,194.32,83.19Z"/><path class="cls-18" d="M189.64,87.34a10.87,10.87,0,0,0-2.6,1.23,3.61,3.61,0,0,0-1.33,2.57v0h0c-.08.31.89.39,1.23.4C189.26,91.67,190,87.22,189.64,87.34Z"/><path class="cls-9" d="M129.2,115.55c.35-2.85,2.6-5.19,4.19-7.44.26-.37-.25-.84-.61-.61-2.56,1.58-4.73,5.05-4.17,8.13.07.37.56.23.6-.08Z"/><path class="cls-10" d="M177.38,138c1.47-.83,3.2-2,3.47-3.78a.4.4,0,0,0-.67-.37c-1.13,1.17-1.91,2.64-3.12,3.74-.22.21.07.54.32.4Z"/><path class="cls-10" d="M176.5,143.31a8.08,8.08,0,0,0,3.82-3.58c.17-.37-.3-.78-.6-.44-1.15,1.29-2.53,2.29-3.57,3.69-.16.22.15.44.35.34Z"/><path class="cls-10" d="M182.79,136.76a25.73,25.73,0,0,0,1.83-2.26,4.88,4.88,0,0,0,.71-2.61.29.29,0,0,0-.55-.13c-.78,1.61-1.75,3.09-2.4,4.78-.09.23.26.4.41.22Z"/><path class="cls-10" d="M172.47,139.32c1.2-1,2.55-1.86,3-3.42.08-.25-.25-.52-.47-.35-1.62,1.25-2.79,2.51-3,3.44-.07.33.21.51.44.33Z"/><path class="cls-10" d="M177.59,134a9.58,9.58,0,0,0,1.66-4.62.36.36,0,0,0-.67-.16,15.4,15.4,0,0,0-1.45,4.6.25.25,0,0,0,.46.18Z"/><path class="cls-10" d="M169.49,145a5.78,5.78,0,0,0,2.1-1,9,9,0,0,0,1.57-1.64.25.25,0,0,0-.31-.38,10.42,10.42,0,0,0-1.84,1.06c-.6.45-1.15,1-1.75,1.41a.28.28,0,0,0,.23.51Z"/><path class="cls-10" d="M172.35,147.37c.05,0,.22-.16.28-.15a.54.54,0,0,0,.33-.05,4.51,4.51,0,0,0,.65-.38,2.8,2.8,0,0,0,.95-1.1c.11-.25-.16-.62-.42-.41s-.74.51-1.12.76a5.69,5.69,0,0,0-.51.36c-.19.16-.29.39-.49.55s.08.57.33.41Z"/><path class="cls-10" d="M181.43,131.16a6.31,6.31,0,0,0,1.78-4.43.3.3,0,0,0-.56-.14c-.73,1.37-1,2.86-1.64,4.26-.12.26.21.55.42.31Z"/><path class="cls-10" d="M165.47,143.58c.67-.3,1.37-.66,2-1A2.85,2.85,0,0,0,168.8,141a.36.36,0,0,0-.54-.39,14.48,14.48,0,0,0-1.65,1.23,8.3,8.3,0,0,0-1.49,1.29.28.28,0,0,0,.35.43Z"/><path class="cls-10" d="M163.58,147.6c1.2-.53,2.47-.66,3.13-1.94a.27.27,0,0,0-.42-.31,6.55,6.55,0,0,1-1.5.85,7.14,7.14,0,0,0-1.48,1c-.21.17,0,.56.27.45Z"/><path class="cls-4" d="M126,162.27a2.29,2.29,0,0,0-1.85,1.46.51.51,0,0,0,.43.75,2.91,2.91,0,0,0,2.52-2.13.53.53,0,0,0-.51-.67,2.06,2.06,0,0,0-1.49.76c-.33.38-.88,1.06-.84,1.59a.51.51,0,0,0,.76.43c.39-.19.56-.7.79-1a1.48,1.48,0,0,1,.92-.68l-.66-.66a1.77,1.77,0,0,1-1.49,1.41l.48.63a1.47,1.47,0,0,1,1-1.22c.31-.12.3-.66-.08-.62Z"/><path class="cls-4" d="M114.7,165.79a3.44,3.44,0,0,0-2,2.17.53.53,0,0,0,.51.67c1.71.14,2.77-1.25,3.65-2.5a.53.53,0,0,0-.19-.73c-1.82-.87-3.92,1.26-3.63,3.09a.59.59,0,0,0,.73.41,4.13,4.13,0,0,0,2.55-3c.06-.38-.24-.83-.68-.68a2.71,2.71,0,0,0-1.86,1.8c-.09.41.42.77.73.43a3.65,3.65,0,0,1,1.42-1.16l-.68-.68a3,3,0,0,1-1.8,2.18l.73.41c-.16-1,1.17-2.19,2.08-1.8l-.32-.78c-.65.94-1.46,2.07-2.74,2l.53.53a2.32,2.32,0,0,1,1.26-1.74.33.33,0,0,0-.33-.57Z"/><path class="cls-4" d="M137.71,163.08c.18,0-.08,0-.11,0l.31.08,0,0a.38.38,0,0,0-.38-.1,1,1,0,0,0-.57.93c0,.26.23.44.46.46a1.61,1.61,0,0,0,1.11-.47,2.25,2.25,0,0,0,.6-1,.54.54,0,0,0-.38-.66,1.68,1.68,0,0,0-1.81,1.51.46.46,0,0,0,.68.39c.29-.13.46-.44.62-.62a.48.48,0,0,1,.21-.16c-.08,0,.1,0,.1,0a2.33,2.33,0,0,0,.33-.11l-.79-.61a1.27,1.27,0,0,1-.3.57,4.16,4.16,0,0,1-.61.35l.69.39a1.83,1.83,0,0,1,0-.21s.06-.14,0-.05,0,0,0,0a.33.33,0,0,0,.08-.1.4.4,0,0,0,.05-.22l-.23.31c.09,0,0,0,0,0h.1c.39-.11.22-.66-.17-.6Z"/><path class="cls-4" d="M116.15,158.51c-1.57-.82-3,1.44-3.54,2.58a.57.57,0,0,0,.34.84c2,.3,3.33-2,4-3.56a.62.62,0,0,0-.53-.92c-1.87-.07-3.34,1.7-3.83,3.35a.66.66,0,0,0,1,.73,5.76,5.76,0,0,0,3-3.49.6.6,0,0,0-.88-.68,3.35,3.35,0,0,0-1.14,1c-.28.41.25.82.63.63s.75-.38,1.11-.59l-.88-.68a4.62,4.62,0,0,1-2.52,2.68l1,.73c.31-1.12,1.28-2.5,2.58-2.47l-.53-.92c-.52,1.16-1.37,3-2.82,3.06l.55.72c.22-.81,1.15-2.9,2.28-2.49.31.11.52-.38.22-.53Z"/><path class="cls-4" d="M108.48,160a6.62,6.62,0,0,0-.29.7c-.11.33-.11.72-.25,1-.21.48.35,1,.76.59a3.86,3.86,0,0,0,1-2.79.56.56,0,0,0-.95-.39c-.62.72-1.35,2-1,3a.45.45,0,0,0,.82.11,5.17,5.17,0,0,0,.39-1.17,3.59,3.59,0,0,1,.61-1.12l-.93-.25a2.83,2.83,0,0,1-.63,2.05l.89.12a3,3,0,0,1,.18-1.62c.1-.31-.39-.53-.53-.22Z"/><path class="cls-4" d="M152.79,158.75a2.66,2.66,0,0,0,1.2,2.32c.63.45,1.94.41,2.1-.55s-.66-1.37-1.26-1.74a4.4,4.4,0,0,0-2-.75.66.66,0,0,0-.65.65c-.19,1.53,1.34,2.43,2.68,2.46a.65.65,0,0,0,.63-.82,2.24,2.24,0,0,0-2.26-1.69.45.45,0,0,0-.23.83c.47.33,1,.64,1.23,1.2l.63-.82c-.7,0-1.47-.36-1.37-1.15l-.65.65c.18,0-.07,0,.07,0l.32.09a4.9,4.9,0,0,1,.61.25,6,6,0,0,1,.68.39l.19.14s.23.23.17.16c.09.12,0,.08,0-.05s.18-.27.07-.21-.25,0-.42-.11a3.18,3.18,0,0,1-1-1.33.41.41,0,0,0-.75.1Z"/><path class="cls-4" d="M177.16,154.1a6.3,6.3,0,0,0-1.92,3.14.59.59,0,0,0,.56.73c2.21.29,3.9-2.88,4.28-4.65a.66.66,0,0,0-.3-.73c-2.46-1.22-4.4,2.31-4.75,4.29a.68.68,0,0,0,.65.85c2,0,2.73-2.35,3.68-3.69a.67.67,0,0,0-.4-1c-.77-.2-1.1.24-1.28.93a.57.57,0,0,0,.95.55.67.67,0,0,0,.22-.22q.23-.31-.24,0l-.4-1c-.59.82-1.34,3-2.54,3l.65.85c.16-.95,1.39-4.2,2.8-3.52l-.3-.73c-.28,1.37-1.4,3.77-3,3.84l.58.58a5.42,5.42,0,0,1,1.34-2.87c.23-.34-.27-.69-.55-.43Z"/><path class="cls-5" d="M191.37,156.4a2.77,2.77,0,0,0-.9,2,.51.51,0,0,0,.38.5c1.79.26,3.57-3.21,1.79-4.24-1.58-.92-2,2.46-1.88,3.35.05.43.52.87,1,.55a3.23,3.23,0,0,0,1.16-3.35.51.51,0,0,0-1,0c-.13.76-.14,1.74-.83,2.24l.94.38c0,.12,0-.26,0-.34a6.23,6.23,0,0,1,.07-.68,3,3,0,0,1,.33-1.16l-.25.09q-.35-.18-.17,0a.52.52,0,0,1,.11.19,1.32,1.32,0,0,1-.12.81,1.79,1.79,0,0,1-1.14,1.16l.64.36a2.38,2.38,0,0,1,.34-1.53.3.3,0,0,0-.46-.36Z"/><path class="cls-5" d="M186.36,161.45c-1.71.48-2.3,3-2.36,4.57a.63.63,0,0,0,.63.63c1.4,0,2.49-1.54,3.13-2.61s1.08-2.61,0-3.66c-2-1.9-3.6,3.33-3.83,4.49a.71.71,0,0,0,.49.86c2.19.63,3-2.12,3.28-3.75a.7.7,0,0,0-1.27-.53,4.12,4.12,0,0,0-.73,1.38.56.56,0,0,0,.93.54,13.16,13.16,0,0,0,.89-1.08l-1.16-.67c-.12.71-.49,3.07-1.57,2.77l.49.86a12.21,12.21,0,0,1,.62-2c.12-.31.64-1.79,1-1.82-.12,0-.06,0,0,.11a.79.79,0,0,1,.16.49,3.07,3.07,0,0,1-.5,1.37c-.34.62-1.17,2-2,2l.6.46c-.18-1.18.14-3.29,1.36-3.85.31-.14.09-.64-.23-.55Z"/><path class="cls-5" d="M190.82,162.67a2.7,2.7,0,0,1-.27.88.49.49,0,0,0,.18.67c1.51.73,2.14-1.08,2.23-2.26a.6.6,0,0,0-.89-.51,3,3,0,0,0-1.05,1.12c-.24.45-.44,1.12,0,1.53a.53.53,0,0,0,.73,0,.94.94,0,0,0,.25-.56,1.79,1.79,0,0,1,.71-1.09l-.89-.51c0,.39-.11,1.44-.66,1.36l.34.6a4.06,4.06,0,0,0,.07-1.16.35.35,0,0,0-.69-.09Z"/><path class="cls-5" d="M172.49,172.27a1.89,1.89,0,0,0-2,1.39.59.59,0,0,0,.56.74c1.41.07,2.35-1.13,3-2.25.21-.38,0-1-.55-1a2.87,2.87,0,0,0-1.73.8,1.8,1.8,0,0,0-.58,1.95.56.56,0,0,0,.88.11c.3-.27.36-.72.58-1.06a1.45,1.45,0,0,1,1-.54l-.72-.94c-.38.73-.94,1.7-1.87,1.73l.58.58a.79.79,0,0,1,.83-.85.35.35,0,0,0,0-.69Z"/><path class="cls-5" d="M156,172.74c-1.28.18-2.28,1.32-3.12,2.21a.56.56,0,0,0,.11.88c2.11.9,4.25-1.23,5.23-2.9A.66.66,0,0,0,158,172c-1.93-1.48-4.6.93-5.12,2.79a.67.67,0,0,0,.47.82c2,.32,3.47-1.41,4.42-3a.64.64,0,0,0-.55-1,5.13,5.13,0,0,0-3.65,2.46c-.36.53.4,1,.84.65.81-.7,1.67-1.76,2.81-1.83l-.55-1c-.59.92-1.68,2.5-3,2.31l.47.82c.29-1.1,2-2.93,3.17-2l-.23-.89c-.79,1.37-2.13,2.74-3.83,2.51l.48.84a5.08,5.08,0,0,1,2.4-2.31.3.3,0,0,0-.16-.58Z"/><path class="cls-5" d="M161.46,173a3.56,3.56,0,0,0-1.21,1c-.23.31.09.68.4.7a2.22,2.22,0,0,0,2.07-1.72.54.54,0,0,0-.52-.68c-1.05-.08-2.29,1.38-1.81,2.39a.45.45,0,0,0,.71.09,6.39,6.39,0,0,0,.57-1c.19-.28.52-.34.81-.47l-.78-.6a1.46,1.46,0,0,1-1.17,1.09l.57.57a2,2,0,0,1,.72-.91c.25-.23-.07-.63-.36-.46Z"/><path class="cls-5" d="M129.63,177.88a5.1,5.1,0,0,0-.75.33,1.37,1.37,0,0,0-.55.81.47.47,0,0,0,.33.58,2.23,2.23,0,0,0,2.42-1.9c0-.25-.06-.59-.36-.64a1.8,1.8,0,0,0-1.45.55,1.54,1.54,0,0,0-.53,1.61c.14.33.57.28.79.1s.29-.57.5-.83a2.12,2.12,0,0,1,.82-.49l-.76-.58a1.39,1.39,0,0,1-1.3,1.24l.47.47c0-.41.37-.54.69-.71s0-.71-.32-.55Z"/><path class="cls-5" d="M130.2,182.72H130a1.49,1.49,0,0,0-.37,0,1.42,1.42,0,0,0-.74.63.54.54,0,0,0,.32.78,1.85,1.85,0,0,0,2.14-1.89.62.62,0,0,0-.77-.59,2.08,2.08,0,0,0-1.4.85,1.29,1.29,0,0,0,.11,1.77.5.5,0,0,0,.67-.18c.2-.27.14-.64.27-.89a.86.86,0,0,1,.67-.38l-.77-.59c0,.6-.43.72-.93.86l.66.66c.07-.28.3-.28.47-.41a.37.37,0,0,0-.18-.68Z"/><path class="cls-5" d="M198.87,151.94c-1.59.29-1.86,3-1.78,4.22a.69.69,0,0,0,.68.68c2.44-.19,4.39-5.23,2.37-6.85a.71.71,0,0,0-.85-.11,6.89,6.89,0,0,0-1.93,3.39c-.33,1-.89,2.52-.13,3.41a1.09,1.09,0,0,0,1.31.09c.65-.3.83-1.32.94-1.93s.16-1.35.23-2,.27-1.36-.16-1.8-1.22-.13-1.15.48a1.29,1.29,0,0,0,.13.45.51.51,0,0,0,.58.24h0l-.65-.49a9.83,9.83,0,0,1-.22,2,9.26,9.26,0,0,1-.28,1.52l-.08.22q-.19.35.5.34a1,1,0,0,1,0-.32A8.22,8.22,0,0,1,199,153a4.45,4.45,0,0,1,1-1.91l-.85-.11c1.13.91-.24,4.34-1.56,4.53l.84.47a3.64,3.64,0,0,1,.81-3.43.37.37,0,0,0-.36-.62Z"/><path class="cls-5" d="M202.37,146.38a3.9,3.9,0,0,0-.43,1.75.55.55,0,0,0,1,.28,2.39,2.39,0,0,0,.19-2.5.57.57,0,0,0-.9-.12c-.52.63-.87,1.7-.16,2.35.29.27.91.11.87-.36s-.21-.79.11-1.18l-.9-.12a1.34,1.34,0,0,1-.15,1.37H203a2.12,2.12,0,0,1,0-1.22c.06-.35-.43-.62-.61-.26Z"/><path class="cls-10" d="M177.69,101c-2.2.26-3.91,2.76-4.11,4.84a.68.68,0,0,0,.35.61c1.39.71,2.82-.59,3.66-1.59s1.82-2.57.95-3.74c-1.72-2.31-4.4,3.06-4.78,4.3a.75.75,0,0,0,.53.93c2,.41,3-2.2,3.55-3.65.29-.78-.87-1.18-1.28-.54a2.31,2.31,0,0,0-.26.56.61.61,0,0,0,.89.68,5,5,0,0,0,.48-.39l-1.17-.68c-.21.5-1.07,2.72-1.8,2.58l.53.93a9.25,9.25,0,0,1,.95-2c.22-.39.94-1.75,1.38-1.81-.2,0-.22-.25-.13,0a.79.79,0,0,1-.07.37,4.18,4.18,0,0,1-.78,1.38c-.4.51-1.33,1.64-2.09,1.34l.51.68a4.54,4.54,0,0,1,2.8-4.16c.37-.1.3-.73-.09-.68Z"/><path class="cls-10" d="M176.09,108.05a2.22,2.22,0,0,0-1.15,1.57.6.6,0,0,0,.41.73,2.68,2.68,0,0,0,2.8-2.58.64.64,0,0,0-.63-.63,2.39,2.39,0,0,0-1.67.79,2.32,2.32,0,0,0-.81,1.9.62.62,0,0,0,1,.27c.44-.51.61-1.65,1.46-1.69l-.63-.63a1.54,1.54,0,0,1-1.38,1.42l.57.43c-.06-.32.22-.63.45-.81.44-.34.06-1.06-.45-.76Z"/><path class="cls-10" d="M180.93,101.28a1.2,1.2,0,0,0-.62.83c-.09.39.27.85.69.69a1.42,1.42,0,0,0,.87-2,.6.6,0,0,0-.83-.22,1.85,1.85,0,0,0-.67.76,1.2,1.2,0,0,0,.06,1.28.55.55,0,0,0,.64.1.69.69,0,0,0,.32-.54c0-.06,0-.13,0-.19l0-.12s0,0,0,0a.58.58,0,0,1,.17-.21l-.83-.22s0,.1,0,0a.72.72,0,0,1,0,.11c0-.14,0,.08,0,0a.61.61,0,0,1-.29.27l.68.09c.09.1,0,.26.09.11a.94.94,0,0,0,.12-.38c0-.29-.32-.42-.54-.31Z"/><path class="cls-10" d="M176,97.7c-1.14,0-1.69,1.14-1.94,2.08a.61.61,0,0,0,.59.77c1.62-.16,2.2-2.1,2.48-3.45a.63.63,0,0,0-.43-.75c-2-.75-3.88,3.79-2.09,4.06a.62.62,0,0,0,.77-.58c0-.21-.11-.37-.12-.57a1.67,1.67,0,0,1,.18-.77c.12-.28.54-1.09.94-1l-.43-.75c-.18.84-.48,2.35-1.46,2.58l.77.59a1.49,1.49,0,0,1,.84-1.58.34.34,0,0,0-.09-.66Z"/><path class="cls-10" d="M172.67,94.39a1.25,1.25,0,0,0,.2,1.85.58.58,0,0,0,.81,0,1.85,1.85,0,0,0-.8-2.85.62.62,0,0,0-.61.16,1.8,1.8,0,0,0-.52,1.61,1.22,1.22,0,0,0,1.43.93.55.55,0,0,0,.24-.91,1.44,1.44,0,0,0-.34-.27.25.25,0,0,1-.09-.09.63.63,0,0,1,.18-.39l-.61.16c.49.14.19.88.16,1.23l.73-.55c-.31-.06-.34-.32-.24-.58s-.33-.54-.53-.31Z"/><path class="cls-10" d="M151.69,92.93a1.94,1.94,0,0,0-1.54.63.5.5,0,0,0,.22.83c1.09.3,2.23-.82,2.76-1.66a.57.57,0,0,0-.34-.83,3,3,0,0,0-1.92.31c-.52.26-1.34.91-1.13,1.57a.47.47,0,0,0,.56.32c.4-.08.6-.5.92-.73a1.81,1.81,0,0,1,1.27-.37l-.34-.83a2.57,2.57,0,0,1-1.79,1.27L151,94a.82.82,0,0,1,.71-.48.31.31,0,0,0,0-.63Z"/><path class="cls-10" d="M164.74,95.24a1.17,1.17,0,0,1-.18-.3l0,.28,0-.06c.2-.64-.88-.84-.93-.13-.09,1.26,1.56,1.59,2.51,1.62a.54.54,0,0,0,.47-.81A4.16,4.16,0,0,0,163.84,94a.56.56,0,0,0-.56.56A1.57,1.57,0,0,0,164.56,96a.49.49,0,0,0,.38-.89c-.21-.14-.51-.32-.53-.6l-.56.56a3.11,3.11,0,0,1,2,1.38l.38-.92c-.5,0-1.46,0-1.58-.66l-.33.58.06,0-.28,0,.34.24c.28.18.52-.21.33-.43Z"/><path class="cls-19" d="M173.36,58.56c-1.78,6.84-3.17,13.78-4.55,20.71-.45,2.26-1.54,5.23-1.22,7.57.19,1.35,4.08,2.3,5.08,2.52,2.38.51,5-.41,7.13-1.49a.61.61,0,0,0,.28-.68c-1.52-9.63-4-19.14-6.09-28.64-.1-.44-.78-.26-.68.19,2.12,9.44,4.24,19.15,5.62,28.78l.28-.68a10.07,10.07,0,0,1-8,.84,10.79,10.79,0,0,1-2.67-1.43c.43.3.21.29.28-.33.33-3.15,1.06-6.28,1.66-9.39,1.16-5.94,2.45-11.85,3.49-17.81.06-.37-.48-.54-.58-.16Z"/><path class="cls-19" d="M171,70.27c1.48,1.48,4.19.24,4.89-1.47.12-.29-.26-.5-.49-.38-.62.34-1.15.82-1.78,1.16a4.37,4.37,0,0,1-2.44.26.26.26,0,0,0-.18.43Z"/><path class="cls-19" d="M169.81,75.93c1.78,2.14,6.63,1.09,7.25-1.67.07-.31-.32-.59-.56-.32-1.77,2-4,2.28-6.44,1.56a.26.26,0,0,0-.25.43Z"/><path class="cls-19" d="M168.56,81.88c2.3,2.71,8.09,2,9.79-1.1.15-.27-.16-.64-.45-.45-2.88,2-5.72,2.51-9,1.1a.28.28,0,0,0-.34.44Z"/><path class="cls-20" d="M129.55,147.62c2.41-.32,4.71-.09,6.55-1.3a.38.38,0,0,0-.16-.68A9.19,9.19,0,0,0,129.4,147C129.09,147.2,129.18,147.67,129.55,147.62Z"/><path class="cls-20" d="M141.31,146.17a42.63,42.63,0,0,1,12.63,3.47c.46.23.72-.4.32-.73-3.27-2.67-8-4.71-12.93-3.45C140.92,145.57,140.92,146.14,141.31,146.17Z"/><path class="cls-21" d="M156.78,153c.42.11.61-.56.21-.73-5-2.2-15.4-3.75-23.33-2.45-7.14,1.17-15.48,4.74-19.16,11.41-.23.42.39.72.68.41C125.34,150.78,143.09,149.33,156.78,153Z"/><path class="cls-22" d="M158.56,155.48c-10.77-4.38-25.33-3.78-35.51,3.11-.38.26,0,.91.38.71a46.68,46.68,0,0,1,16.75-4.19c1.41-.09,2.8-.11,4.18-.09-13.26,1.43-26.42,8.66-33.22,19.92-.19.31.31.72.56.46a88.2,88.2,0,0,1,7-6.88A43.55,43.55,0,0,1,131,161.15a59.33,59.33,0,0,1,17.53-4.89,90.89,90.89,0,0,1,9.82.08A.45.45,0,0,0,158.56,155.48Z"/><path class="cls-21" d="M151,159.64c.48-.05.53-.83,0-.87-6.07-.4-13,1.52-18.51,4-5.72,2.6-11.95,7.78-15.21,13.18-.21.34.32.76.61.5,4.85-4.32,8.72-8.15,14.61-11.11A57.68,57.68,0,0,1,151,159.64Z"/><path class="cls-20" d="M151,162.27a23.28,23.28,0,0,0-7.11,1.05,37.72,37.72,0,0,0-8.45,3c-4.52,2.31-9.32,6.1-11.78,10.62-.17.31.27.66.54.44,3.81-3.09,7.43-6.18,11.74-8.66a49.23,49.23,0,0,1,15-5.47C151.46,163.13,151.57,162.31,151,162.27Z"/><path class="cls-23" d="M178.09,159.89a36.92,36.92,0,0,0-5.78-3.78,37.32,37.32,0,0,0,1.54-6.61.65.65,0,0,0-.88-.71,30.37,30.37,0,0,0-5.55,4.15c-2.57-1.29-5.25-2.68-6.44-3.07-.26-.37-1-.15-.86.33.34,1.37,1.93,4.31,2.93,6.75-2,1.61-4.47,3.43-6.47,5-.49.38-.35,1.35.31,1.31,2.51-.14,5.08-.24,7.77-.59a52.42,52.42,0,0,0,2.55,6.09c.3.47,1,.32,1.4-.15,1.48-1.5,1.11-4.63,1.83-6.92,1.87-.19,5.41-.36,7.28-.6A.69.69,0,0,0,178.09,159.89Z"/><path class="cls-23" d="M165.33,173.59a1.1,1.1,0,0,0-.17-1.6,1.91,1.91,0,0,0-1.64-.33,1.86,1.86,0,0,0-.81.31c-1.33,1,0,2.25,1.22,2.24a1.93,1.93,0,0,0,.75-.16,2.48,2.48,0,0,0,.36-.2l.12-.1Z"/><path class="cls-23" d="M179.31,148.32a.64.64,0,0,0,.57,0,1.47,1.47,0,0,0,.59-.47c1.22-1.42-.77-2.64-1.53-1.06A1.3,1.3,0,0,0,179.31,148.32Z"/><path class="cls-23" d="M181.13,150.42a1.08,1.08,0,0,0,1.46.34,1,1,0,0,0,.26-.17.73.73,0,0,0,.18-.34,1,1,0,0,0-1.58-1A.84.84,0,0,0,181.13,150.42Z"/><path class="cls-20" d="M162.5,159.24a10.86,10.86,0,0,0-1.66,1.2c-.34.26-.3,1,.25.93a4.77,4.77,0,0,0,3.35-2.51.53.53,0,0,0-.46-.79,4.9,4.9,0,0,0-3.87,2.35c-.28.41.28,1,.69.69,1-.76,1.74-2,3.17-2l-.46-.79a4,4,0,0,1-2.57,2.06l.61.61a3,3,0,0,1,1.24-1.24.3.3,0,0,0-.31-.52Z"/><path class="cls-20" d="M163.3,152.82a2.71,2.71,0,0,0,.35.88,1.43,1.43,0,0,0,.36.35c.15.11.34.11.49.2a.43.43,0,0,0,.62-.25,1.6,1.6,0,0,0-.45-1.48,2,2,0,0,0-1.49-.48.5.5,0,0,0-.35.85c.4.41.78,1,1.34,1.22.39.14.69-.34.51-.66a3.07,3.07,0,0,0-.51-.6c-.21-.22-.42-.45-.64-.66l-.35.85a1.17,1.17,0,0,1,.82.16c.25.2.23.52.3.8l.3-.52c-.37.13-.66-.68-.76-.88s-.61-.09-.53.22Z"/><path class="cls-20" d="M170.24,152.37c-.4.16-.74.11-1,.48s0,.92.45.77a4.42,4.42,0,0,0,1.66-1,.48.48,0,0,0-.34-.81,2.52,2.52,0,0,0-1.44.53c-.38.3-1,.9-.74,1.42a.4.4,0,0,0,.48.27c.38-.13.51-.5.77-.77a1.7,1.7,0,0,1,.92-.5l-.34-.81a5.57,5.57,0,0,1-1.34.81l.63.63c.12-.21.41-.22.61-.34.37-.21.12-.87-.3-.71Z"/><path class="cls-20" d="M173.46,158c-.11,0-.12-.07-.2-.14a.8.8,0,0,0-.43-.19c-.31-.05-.71.21-.57.57a2.51,2.51,0,0,0,.52.86,3.51,3.51,0,0,0,1,.62.56.56,0,0,0,.83-.48,2,2,0,0,0-2.15-1.91.56.56,0,0,0-.54.7,1.13,1.13,0,0,0,.89.7.43.43,0,0,0,.23-.83c-.08,0-.07,0-.06,0v.26a.78.78,0,0,0,0-.28l-.56.56a1.55,1.55,0,0,1,.77.25c.22.15.25.46.29.7l.68-.68a1.68,1.68,0,0,1-1.08-.82l-.17.63s0,0,0,0c-.13,0-.08,0,0,0a1,1,0,0,0,.38.1c.37,0,.42-.54.09-.64Z"/><path class="cls-20" d="M166.92,164.75a11.13,11.13,0,0,0-.07,1.85c0,.4.57.71.85.35a2.75,2.75,0,0,0,.68-3,.48.48,0,0,0-.66-.17,2.15,2.15,0,0,0-.81,1.76c0,.48.64.51.79.11s.18-.8.5-1l-.66-.17c.31.62-.17,1.33-.56,1.8l.83.22a8.38,8.38,0,0,1-.11-1.61c0-.45-.72-.57-.8-.11Z"/><path class="cls-5" d="M178.78,159.91c-.61-2.08-3.78-3.33-5.8-4,.7-1.82,1.77-4.83,1.34-6.73-.61-2.72-5.95,1.64-7.47,2.94-1.41-1-5.66-3.68-6.69-2.48a.33.33,0,0,0-.16.17c-.72,1.86.6,3.77,1.45,5.35.28.53.95,1.27.32,1.78-.85.7-1.75,1.34-2.64,2s-1.7,1.24-2.53,1.89c-1.05.82-1.29,1.88,0,2.48,2.28,1,5.26-.09,7.64-.1a8.88,8.88,0,0,0,1.23,3.67c.47.92,1.36,2.37,2.56,2.35s1.77-1.63,2-2.5a22.34,22.34,0,0,0,.72-4.38C172.48,162.45,179.55,162.53,178.78,159.91Zm-3.55,1.25c-1.53.17-3.06.23-4.59.39a.4.4,0,0,0-.33.21.44.44,0,0,0-.31.38c-.2,1.83-.2,4.7-1.55,6.11-1.14,1.19-3.48-4.43-3.57-5.29a.3.3,0,0,0-.28-.28.31.31,0,0,0-.19-.09,28.3,28.3,0,0,0-3.85,0c-.47,0-4.73.13-3.29-1.13,1.78-1.56,3.89-2.75,5.69-4.31a.46.46,0,0,0,.12-.45c-.62-2.26-2.4-4-2.46-6.33,1.17-.83,5,2,5.92,2.72a.51.51,0,0,0,.7,0,24.51,24.51,0,0,1,4.22-3.18c.26-.15,2-1.07,2-.17a8.58,8.58,0,0,1-.21,1.52c-.29,1.54-.81,3-1.16,4.52a.46.46,0,0,0,0,.34.43.43,0,0,0,.28.47,15.25,15.25,0,0,1,5.13,2.82C179,160.77,176.07,161.06,175.22,161.16Z"/><path class="cls-10" d="M123.68,146.42a2.63,2.63,0,0,0-1.59,1.4c-.15.33,0,.85.47.81a2.7,2.7,0,0,0,2.32-1.76.58.58,0,0,0-.56-.73,3.42,3.42,0,0,0-1.48.52c-.47.3-1,.71-1.08,1.31a.52.52,0,0,0,.65.49c.38-.08.64-.44.94-.67a2.62,2.62,0,0,1,1.13-.52l-.71-.71a1.62,1.62,0,0,1-1.35,1l.66.66a1.66,1.66,0,0,1,.87-1.2.34.34,0,0,0-.26-.62Z"/><path class="cls-10" d="M130.47,141a5.86,5.86,0,0,0-4.71,2,.64.64,0,0,0,.13,1c.91.52,2.22.06,3.11-.29s2.1-.94,2.37-2a.67.67,0,0,0-.63-.83,5.3,5.3,0,0,0-4.67,1.91c-.33.45.12,1,.61,1.06a5.17,5.17,0,0,0,2.57-.77c.45-.23.27-1.06-.27-1a11.23,11.23,0,0,1-2.3.36l.61,1.06a4,4,0,0,1,3.45-1.3l-.63-.83c-.14.58-1.15,1-1.64,1.15a3.09,3.09,0,0,1-2.09.32l.38.92a4.67,4.67,0,0,1,3.72-2c.52,0,.49-.73,0-.79Z"/><path class="cls-10" d="M136.72,141.51a3.37,3.37,0,0,0-2.5.43.51.51,0,0,0,.12.92,3.71,3.71,0,0,0,3.58-.75.51.51,0,0,0-.1-.8,2.53,2.53,0,0,0-1.9-.19c-.6.13-1.57.44-1.87,1-.15.28,0,.74.4.7.93-.09,1.88-1.23,2.86-.65v-.88a3.12,3.12,0,0,1-2.69.57l.22.85a2.35,2.35,0,0,1,1.8-.59c.35,0,.46-.58.09-.64Z"/><path class="cls-10" d="M114.18,149.48A5.64,5.64,0,0,0,113.1,151a.49.49,0,0,0,.42.74c1.23-.12,1.77-1.34,2.12-2.37a.53.53,0,0,0-.5-.66c-1.12.09-2.5,1.44-2.18,2.63a.55.55,0,0,0,.39.39c.72.13.63-.6.86-1a1.88,1.88,0,0,1,1.07-.95l-.64-.64a2,2,0,0,1-1.24,1.68l.6.6a3.65,3.65,0,0,1,.76-1.33.4.4,0,0,0-.57-.57Z"/><path class="cls-10" d="M116,151.83a2.84,2.84,0,0,0-.62.93c-.15.36.28.74.62.62a1.7,1.7,0,0,0,1.16-1.7.5.5,0,0,0-.63-.48,1.74,1.74,0,0,0-1.25,1.57c0,.34.48.62.74.31s.26-.41.4-.62a1.2,1.2,0,0,1,.5-.35l-.75-.43a.68.68,0,0,1-.44.73l.64.49a1.45,1.45,0,0,1,.21-.62c.19-.37-.28-.77-.58-.45Z"/><path class="cls-10" d="M151.82,140.37c-1.68-.4-4.7-1.06-5.59,1a.68.68,0,0,0,.24.91A7.38,7.38,0,0,0,150,143c.86,0,2.61.08,2.82-1.07.46-2.64-5.71-2.49-6.34-.32a.75.75,0,0,0,.52.91,6.33,6.33,0,0,0,2.48.3,9.9,9.9,0,0,0,2.51-.27.6.6,0,0,0,0-1.16c-1.48-.43-3.09.25-4.6-.29l.52.91c.15-.54,1.71-.52,2.12-.53a3.13,3.13,0,0,1,1.25.19.32.32,0,0,1,.19.17c-.15-.23.3-.43,0-.32a6,6,0,0,1-2.37,0,5.08,5.08,0,0,1-1.92-.43l.3.75c.46-1.33,3.12-.69,4.11-.5.65.13.93-.85.28-1Z"/><path class="cls-10" d="M157.16,140.78a2.15,2.15,0,0,0-2.58-.08.58.58,0,0,0,.12.91,2.83,2.83,0,0,0,2.75-.08.62.62,0,0,0-.15-1.12c-.86-.32-2.25-.41-2.65.61a.48.48,0,0,0,.58.58,2.59,2.59,0,0,1,1.73,0l-.15-1.12a1.81,1.81,0,0,1-1.68.08l.35.86c.3-.48,1-.3,1.47-.14s.45-.33.21-.49Z"/><path class="cls-10" d="M153.29,144.2a2.38,2.38,0,0,0-1.45,0,.58.58,0,0,0,0,1.11,2,2,0,0,0,2.54-.5c.26-.33,0-.79-.37-.9a4,4,0,0,0-1.57-.19c-.59,0-1.42.42-1.16,1.16a.57.57,0,0,0,.95.25c.05-.05.23-.16.09-.1a1.05,1.05,0,0,1,.39-.06,3,3,0,0,1,1,.13l-.37-.9c-.25.34-.86.11-1.17,0l.26,1a1.19,1.19,0,0,1,.79-.27.38.38,0,0,0,.1-.74Z"/><path class="cls-10" d="M142,142.19a1.6,1.6,0,0,1-.51-.07.52.52,0,0,0-.64.36.53.53,0,0,0,.5.66,3.2,3.2,0,0,0,1-.09.56.56,0,0,0,.24-.92.81.81,0,0,0-.81-.28.84.84,0,0,0-.33.19c-.09.08.1-.06,0,0a.79.79,0,0,0-.16.14.47.47,0,0,0,.09.74.66.66,0,0,0,.54.06l.23-.1a.36.36,0,0,1-.36,0l0,0L142,142a5,5,0,0,1-.67.12l.5.66,0-.09-.11.19c-.07.06,0,0,0,0l.28,0c.37-.07.27-.63-.09-.64Z"/></g></g></svg>