<svg xmlns="http://www.w3.org/2000/svg" xmlns:xlink="http://www.w3.org/1999/xlink" viewBox="0 0 289.68 289.68"><defs><style>.cls-1{fill:#0a8fa5;}.cls-2{opacity:0.4;fill:url(#Degradado_sin_nombre_8);}.cls-3{fill:#e6e7e8;}.cls-4{fill:#fff;}.cls-5{fill:#dbdcdd;}.cls-6{fill:#d0d2d3;}.cls-7{fill:#808184;}.cls-8{fill:#6ac9d4;}.cls-9{fill:#58a8b2;}.cls-10{fill:#bfe7fb;}.cls-11{fill:#89d1f4;}</style><radialGradient id="Degradado_sin_nombre_8" cx="57.22" cy="146.15" r="173.49" gradientTransform="translate(113.15 48.71) scale(0.58 0.68)" gradientUnits="userSpaceOnUse"><stop offset="0" stop-color="#fff"/><stop offset="0.1" stop-color="#fff" stop-opacity="0.98"/><stop offset="0.23" stop-color="#fff" stop-opacity="0.92"/><stop offset="0.36" stop-color="#fff" stop-opacity="0.83"/><stop offset="0.5" stop-color="#fff" stop-opacity="0.69"/><stop offset="0.65" stop-color="#fff" stop-opacity="0.52"/><stop offset="0.81" stop-color="#fff" stop-opacity="0.31"/><stop offset="0.96" stop-color="#fff" stop-opacity="0.07"/><stop offset="1" stop-color="#fff" stop-opacity="0"/></radialGradient></defs><title>Boton_Avion</title><g id="Capa_2" data-name="Capa 2"><g id="Arte"><circle class="cls-1" cx="144.84" cy="144.84" r="144.84"/><circle class="cls-2" cx="146.06" cy="148.17" r="121.46"/><polygon class="cls-3" points="123.34 121.08 142.01 121.08 187.61 156.24 147.51 156.24 123.34 121.08"/><path class="cls-4" d="M61.1,129.25c9.49,4.16,22.65,9.31,29.5,9.31h48.62c61.74,0,94.1.47,109.54,14.81,6.76,6.28,11.48,6,11.51,11.43,0,10-68.34,8.09-100.2,8.09H139c-22.43,0-44.14-1.4-55.76-9.24-4.25-2.87-14.34-10-22.19-15.51Z"/><path class="cls-5" d="M139,168.71h21c30.16,0,93.07,1.71,99.63-6.6a6,6,0,0,1,.57,2.69c0,10-68.34,8.09-100.2,8.09H139c-22.43,0-44.14-1.4-55.76-9.24-4.25-2.87-14.34-10-22.19-15.51V144C68.94,149.5,79,156.6,83.28,159.47,94.9,167.31,116.61,168.71,139,168.71Z"/><polygon class="cls-4" points="61.3 142.14 47.35 103.84 59.18 103.84 86.09 142.14 61.3 142.14"/><polygon class="cls-6" points="51.65 103.84 65.61 142.14 62.93 142.14 48.97 103.84 51.65 103.84"/><circle class="cls-7" cx="205.3" cy="153.37" r="2.59"/><circle class="cls-7" cx="193.21" cy="153.37" r="2.59"/><circle class="cls-7" cx="181.13" cy="153.37" r="2.59"/><circle class="cls-7" cx="169.05" cy="153.37" r="2.59"/><circle class="cls-7" cx="156.97" cy="153.37" r="2.59"/><circle class="cls-7" cx="144.89" cy="153.37" r="2.59"/><circle class="cls-7" cx="132.81" cy="153.37" r="2.59"/><circle class="cls-7" cx="120.72" cy="153.37" r="2.59"/><circle class="cls-7" cx="108.64" cy="153.37" r="2.59"/><circle class="cls-7" cx="96.56" cy="153.37" r="2.59"/><circle class="cls-7" cx="84.48" cy="153.37" r="2.59"/><path class="cls-7" d="M252.62,156.51H227a3.37,3.37,0,0,1,0-6.75h17.09a32.81,32.81,0,0,1,4.69,3.61A37.58,37.58,0,0,0,252.62,156.51Z"/><path class="cls-8" d="M260.26,164.8H85.07c-.62-.35-1.22-.72-1.79-1.1-.95-.64-2.2-1.5-3.64-2.5H259.07A5.41,5.41,0,0,1,260.26,164.8Z"/><path class="cls-8" d="M86.89,165.73H259.07a3,3,0,0,1,.75.41,3.92,3.92,0,0,1-.7.75H89.47Q88.13,166.34,86.89,165.73Z"/><path class="cls-9" d="M79.71,161.2h6.51a47.56,47.56,0,0,0,9.54,3.6H85.15c-.64-.37-1.27-.75-1.86-1.15C82.35,163,81.12,162.18,79.71,161.2Z"/><path class="cls-9" d="M99.61,165.73c2.09.45,4.27.83,6.52,1.16H89.46l-1-.43-.32-.14-1.08-.51-.18-.08Z"/><path class="cls-6" d="M79.53,141.82,73.7,157.09c-4.65-3.25-7.76-5.52-12.6-8.95v-6.32Z"/><polygon class="cls-4" points="47.8 160.05 56.3 160.05 79.53 141.82 61.26 141.82 47.8 160.05"/><polygon class="cls-4" points="119.98 200.5 138.64 200.5 184.25 165.35 144.15 165.35 119.98 200.5"/><circle class="cls-10" cx="97.62" cy="69.92" r="10.89"/><circle class="cls-10" cx="106.07" cy="81.01" r="10.89"/><circle class="cls-10" cx="113.08" cy="67.88" r="8.26"/><circle class="cls-10" cx="85.95" cy="77.51" r="8.26"/><circle class="cls-10" cx="118.91" cy="77.51" r="8.26"/><circle class="cls-10" cx="131.16" cy="77.21" r="8.26"/><circle class="cls-10" cx="138.45" cy="70.51" r="5.27"/><circle class="cls-10" cx="141.36" cy="78.67" r="5.27"/><circle class="cls-10" cx="94.11" cy="80.71" r="6.43"/><circle class="cls-4" cx="139.26" cy="236.02" r="10.89"/><circle class="cls-4" cx="147.72" cy="247.1" r="10.89"/><circle class="cls-4" cx="154.72" cy="233.98" r="8.26"/><circle class="cls-4" cx="127.59" cy="243.6" r="8.26"/><circle class="cls-4" cx="160.55" cy="243.6" r="8.26"/><circle class="cls-4" cx="172.8" cy="243.31" r="8.26"/><circle class="cls-4" cx="180.09" cy="236.6" r="5.27"/><circle class="cls-4" cx="183.01" cy="244.77" r="5.27"/><circle class="cls-4" cx="135.76" cy="246.81" r="6.43"/><circle class="cls-4" cx="160.01" cy="84.89" r="16.07"/><circle class="cls-4" cx="172.49" cy="101.25" r="16.07"/><circle class="cls-4" cx="182.82" cy="81.88" r="12.19"/><circle class="cls-4" cx="142.79" cy="96.09" r="12.19"/><circle class="cls-4" cx="191.43" cy="96.09" r="12.19"/><circle class="cls-4" cx="209.51" cy="95.66" r="12.19"/><circle class="cls-4" cx="220.27" cy="85.76" r="7.77"/><circle class="cls-4" cx="224.57" cy="97.81" r="7.77"/><circle class="cls-4" cx="154.84" cy="100.82" r="9.49"/><circle class="cls-10" cx="73.82" cy="210.08" r="13.77"/><circle class="cls-10" cx="84.52" cy="224.09" r="13.77"/><circle class="cls-10" cx="93.37" cy="207.5" r="10.45"/><circle class="cls-10" cx="59.07" cy="219.67" r="10.45"/><circle class="cls-10" cx="100.75" cy="219.67" r="10.45"/><circle class="cls-10" cx="116.24" cy="219.3" r="10.45"/><circle class="cls-10" cx="125.46" cy="210.82" r="6.66"/><circle class="cls-10" cx="129.15" cy="221.15" r="6.66"/><circle class="cls-10" cx="69.4" cy="223.73" r="8.13"/><circle class="cls-11" cx="193.01" cy="209.15" r="9.14"/><circle class="cls-11" cx="200.11" cy="218.46" r="9.14"/><circle class="cls-11" cx="205.99" cy="207.44" r="6.94"/><circle class="cls-11" cx="183.21" cy="215.52" r="6.94"/><circle class="cls-11" cx="210.89" cy="215.52" r="6.94"/><circle class="cls-11" cx="221.17" cy="215.28" r="6.94"/><circle class="cls-11" cx="227.3" cy="209.64" r="4.42"/><circle class="cls-11" cx="229.75" cy="216.5" r="4.42"/><circle class="cls-11" cx="190.07" cy="218.22" r="5.4"/><circle class="cls-11" cx="157.75" cy="45.08" r="9.14"/><circle class="cls-11" cx="164.85" cy="54.39" r="9.14"/><circle class="cls-11" cx="170.73" cy="43.37" r="6.94"/><circle class="cls-11" cx="147.95" cy="51.45" r="6.94"/><circle class="cls-11" cx="175.63" cy="51.45" r="6.94"/><circle class="cls-11" cx="185.91" cy="51.21" r="6.94"/><circle class="cls-11" cx="192.04" cy="45.58" r="4.42"/><circle class="cls-11" cx="194.49" cy="52.43" r="4.42"/><circle class="cls-11" cx="154.81" cy="54.15" r="5.4"/></g></g></svg>