<svg xmlns="http://www.w3.org/2000/svg" xmlns:xlink="http://www.w3.org/1999/xlink" viewBox="0 0 293.47 293.47"><defs><style>.cls-1,.cls-11,.cls-16,.cls-18{opacity:0.5;}.cls-2{fill:url(#Degradado_sin_nombre_9);}.cls-3{fill:#ccbeb5;}.cls-4{fill:#d0cba4;}.cls-17,.cls-5{fill:#26bdd1;}.cls-6,.cls-8{fill:#00488e;}.cls-7{fill:#f8fed2;stroke:#00b7ff;stroke-width:0.37px;}.cls-13,.cls-16,.cls-7{stroke-miterlimit:22.93;}.cls-10,.cls-11,.cls-14,.cls-17,.cls-18,.cls-20,.cls-21,.cls-22,.cls-23,.cls-24,.cls-25,.cls-26,.cls-7,.cls-8,.cls-9{fill-rule:evenodd;}.cls-9{fill:#019dcb;}.cls-10,.cls-19{fill:#03bddc;}.cls-11{fill:#c4ffff;}.cls-12,.cls-15,.cls-24{fill:#fff;}.cls-13,.cls-16,.cls-22{fill:#fc0;}.cls-13,.cls-16{stroke:#f60;stroke-width:0.15px;}.cls-14{fill:#c63;}.cls-15{opacity:0.82;}.cls-18{fill:#039;}.cls-20,.cls-28{fill:#05a4e2;}.cls-21{fill:#f93;}.cls-23{fill:#ff0;}.cls-25,.cls-27{fill:#024056;}.cls-26{fill:#087fa3;}</style><radialGradient id="Degradado_sin_nombre_9" cx="146.74" cy="146.74" r="146.74" gradientUnits="userSpaceOnUse"><stop offset="0" stop-color="#255572"/><stop offset="1" stop-color="#061a27"/></radialGradient></defs><title>Boton_Nave_on</title><g id="Capa_2" data-name="Capa 2"><g id="Arte"><g class="cls-1"><circle class="cls-2" cx="146.74" cy="146.74" r="146.74"/><path class="cls-3" d="M256.64,133.92l-2.89-1.15a1.84,1.84,0,0,1-.66-.46,2.1,2.1,0,0,1-.59-1.5s0-.19,0-.49,0-.69,0-1.09c0-.79,0-1.59,0-1.59,0-.81-.35-.93-.83-.28l-.94,1.25-.94,1.22a2.08,2.08,0,0,1-2.21.6l-1.46-.52-1.46-.5c-.74-.25-1,0-.53.63a2.38,2.38,0,0,1,.16.22l.33.5.49.73.26.39.45.69a1.92,1.92,0,0,1,.28,1.15,2.05,2.05,0,0,1-.41,1.15l-1,1.23-.68.85c-.19.23-.3.4-.3.4-.48.67-.25,1,.5.79l1.49-.45,1.49-.43a1.93,1.93,0,0,1,1.1.05,2.08,2.08,0,0,1,1.07.77l.88,1.29.88,1.26c.44.63.82.5.85-.26l0-1.51c0-.38,0-.76,0-1s0-.48,0-.48a2.09,2.09,0,0,1,1.34-1.74l.12,0,3-.77c.38-.09.57-.24.58-.39S257,134.07,256.64,133.92Z"/><path class="cls-3" d="M54,172.93l-2.89-1.15a1.84,1.84,0,0,1-.66-.46,2.1,2.1,0,0,1-.59-1.5s0-.19,0-.49,0-.69,0-1.09c0-.79,0-1.59,0-1.59,0-.81-.35-.93-.83-.28l-.94,1.25-.94,1.22a2.08,2.08,0,0,1-2.21.6l-1.46-.52-1.46-.5c-.74-.25-1,0-.53.63a2.38,2.38,0,0,1,.16.22l.33.5.49.73.26.39.45.69a1.92,1.92,0,0,1,.28,1.15,2.05,2.05,0,0,1-.41,1.15l-1,1.23-.68.85c-.19.23-.3.4-.3.4-.48.67-.25,1,.5.79l1.49-.45,1.49-.43a1.93,1.93,0,0,1,1.1.05,2.08,2.08,0,0,1,1.07.77l.88,1.29.88,1.26c.44.63.82.5.85-.26l0-1.51c0-.38,0-.76,0-1s0-.48,0-.48a2.09,2.09,0,0,1,1.34-1.74l.12,0,3-.77c.38-.09.57-.24.58-.39S54.32,173.07,54,172.93Z"/><path class="cls-3" d="M150.71,268.37l-2.89-1.15a1.84,1.84,0,0,1-.66-.46,2.1,2.1,0,0,1-.59-1.5s0-.19,0-.49,0-.69,0-1.09c0-.79,0-1.59,0-1.59,0-.81-.35-.93-.83-.28l-.94,1.25-.94,1.22a2.08,2.08,0,0,1-2.21.6l-1.46-.52-1.46-.5c-.74-.25-1,0-.53.63a2.38,2.38,0,0,1,.16.22l.33.5.49.73.26.39.45.69a1.92,1.92,0,0,1,.28,1.15,2.05,2.05,0,0,1-.41,1.15l-1,1.23-.68.85c-.19.23-.3.4-.3.4-.48.67-.25,1,.5.79l1.49-.45,1.49-.43a1.93,1.93,0,0,1,1.1.05,2.08,2.08,0,0,1,1.07.77l.88,1.29.88,1.26c.44.63.82.5.85-.26l0-1.51c0-.38,0-.76,0-1s0-.48,0-.48a2.09,2.09,0,0,1,1.34-1.74l.12,0,3-.77c.38-.09.57-.24.58-.39S151.07,268.52,150.71,268.37Z"/><path class="cls-3" d="M186.66,40.9l-2.89-1.15a1.84,1.84,0,0,1-.66-.46,2.1,2.1,0,0,1-.59-1.5s0-.19,0-.49,0-.69,0-1.09c0-.79,0-1.59,0-1.59,0-.81-.35-.93-.83-.28l-.94,1.25-.94,1.22a2.08,2.08,0,0,1-2.21.6l-1.46-.52-1.46-.5c-.74-.25-1,0-.53.63a2.38,2.38,0,0,1,.16.22l.33.5.49.73.26.39.45.69a1.92,1.92,0,0,1,.28,1.15,2.05,2.05,0,0,1-.41,1.15l-1,1.23-.68.85c-.19.23-.3.4-.3.4-.48.67-.25,1,.5.79l1.49-.45,1.49-.43a1.93,1.93,0,0,1,1.1.05,2.08,2.08,0,0,1,1.07.77l.88,1.29.88,1.26c.44.63.82.5.85-.26l0-1.51c0-.38,0-.76,0-1s0-.48,0-.48a2.09,2.09,0,0,1,1.34-1.74l.12,0,3-.77c.38-.1.57-.24.58-.39S187,41.05,186.66,40.9Z"/><path class="cls-4" d="M92.37,68.09c2,1.94,3.27,4.81,4.28,8.76s1.75,9,2.93,15.27A88.6,88.6,0,0,1,97.8,76.7c0-4.09.57-7.19,2-9.64,2.89-4.89,9.33-7.24,21.93-9.21-6.3,1-11.17,1.39-15,1.09s-6.57-1.32-8.74-3.22a12.29,12.29,0,0,1-1.5-1.59,15.72,15.72,0,0,1-1.34-1.93,33.77,33.77,0,0,1-2.35-5c-1.54-3.79-3-8.64-5.58-14.47a57.52,57.52,0,0,1,4.46,14.76,22.9,22.9,0,0,1,.13,5.38,14,14,0,0,1-.42,2.23,10.85,10.85,0,0,1-.79,2c-1.27,2.43-3.53,4.2-7,5.59s-8.22,2.4-14.51,3.39C81.7,64.08,88.4,64.21,92.37,68.09Z"/><path class="cls-4" d="M186,241.22c.89,1.91,1,4.3.68,7.38s-1.18,6.86-2,11.63a67.31,67.31,0,0,1,2.89-11.44,14.12,14.12,0,0,1,4-6.3c3.38-2.69,8.58-2.62,18.06-.63a51.18,51.18,0,0,1-10.93-3.27,10.82,10.82,0,0,1-5.34-4.65,9.33,9.33,0,0,1-.64-1.54,11.94,11.94,0,0,1-.43-1.74,25.65,25.65,0,0,1-.33-4.15c-.07-3.11.17-7-.06-11.78a43.7,43.7,0,0,1-.82,11.68,17.39,17.39,0,0,1-1.36,3.85,10.66,10.66,0,0,1-.9,1.47,8.24,8.24,0,0,1-1.09,1.18c-1.55,1.38-3.64,2-6.48,2.08a53.41,53.41,0,0,1-11.22-1.51C179.55,235.49,184.27,237.38,186,241.22Z"/><rect class="cls-5" x="192" y="83.06" width="57.92" height="2.14" transform="translate(-3.12 159.55) rotate(-39.45)"/><rect class="cls-5" x="229.59" y="69.58" width="15.5" height="2.14" transform="translate(9.18 166.89) rotate(-39.45)"/><rect class="cls-6" x="217.47" y="77.22" width="22.13" height="1.26" rx="0.36" ry="0.36" transform="translate(2.59 162.94) rotate(-39.45)"/><path class="cls-7" d="M219.71,85.15c9.44,11.47-1.64,36.19-24.75,55.2s-69.77,41.81-79.21,30.34,21.92-52.88,45-71.89S210.27,73.68,219.71,85.15Z"/><path class="cls-8" d="M178.44,118.73a15,15,0,1,0,2.1-21A15,15,0,0,0,178.44,118.73Z"/><path class="cls-9" d="M178.05,118.26a14.38,14.38,0,1,0,2-20.18A14.37,14.37,0,0,0,178.05,118.26Z"/><path class="cls-8" d="M179.31,117.39a12,12,0,1,0,1.68-16.8A12,12,0,0,0,179.31,117.39Z"/><path class="cls-10" d="M180.34,117.55a11.48,11.48,0,1,0,1.61-16.12A11.47,11.47,0,0,0,180.34,117.55Z"/><path class="cls-11" d="M183.33,117.57a11.5,11.5,0,0,1,7.52-18.66,11.45,11.45,0,1,0-.3,22.7l-.24,0A11.35,11.35,0,0,1,183.33,117.57Z"/><path class="cls-11" d="M199.2,99.09a14.39,14.39,0,0,1-19.71,20.64,14.38,14.38,0,1,0,18.11-22.3A14.33,14.33,0,0,1,199.2,99.09Z"/><ellipse class="cls-12" cx="240.61" cy="68.01" rx="4.06" ry="4.18" transform="translate(11.6 168.37) rotate(-39.45)"/><circle class="cls-13" cx="240.47" cy="67.9" r="4.04" transform="translate(11.64 168.26) rotate(-39.45)"/><path class="cls-14" d="M241.46,64a3.77,3.77,0,0,0-3.6.83,4.07,4.07,0,0,0-.74,5.31,3.8,3.8,0,0,0,1.43,1.3C235.71,68.23,237.28,63.78,241.46,64Z"/><path class="cls-14" d="M243,70.44a4.27,4.27,0,0,1-3.29,1.25,3.49,3.49,0,0,0,3.53-.89,4.2,4.2,0,0,0,.54-5.22,3.71,3.71,0,0,0-1.2-1.12C244.16,65.84,244.47,69.26,243,70.44Z"/><circle class="cls-15" cx="243.19" cy="67.29" r="1.14" transform="translate(12.64 169.85) rotate(-39.45)"/><circle class="cls-16" cx="240.72" cy="68.05" r="4.04" transform="translate(11.6 168.45) rotate(-39.45)"/><path class="cls-17" d="M205.86,79.37l16.85,20.48a23.89,23.89,0,0,0,.18-7.13l-10-12.15A23.89,23.89,0,0,0,205.86,79.37Z"/><path class="cls-17" d="M202.58,79.44a43.47,43.47,0,0,0-5.45.73l23.12,28.1a43.48,43.48,0,0,0,1.76-5.21Z"/><path class="cls-17" d="M194.32,80.79q-2.38.6-4.86,1.45l27.28,33.15q1.31-2.27,2.35-4.49Z"/><path class="cls-18" d="M124.86,172.57c-9.44-11.47,21.92-52.88,45-71.89C185.33,88,202.24,81,214.58,81.25c-11.91-5.52-34.06,1.3-53.81,17.55-23.11,19-54.47,60.42-45,71.89,2,2.42,5.63,3.31,10.35,3A6.77,6.77,0,0,1,124.86,172.57Z"/><path class="cls-8" d="M156.49,136.57a7.68,7.68,0,1,0,1.08-10.77A7.67,7.67,0,0,0,156.49,136.57Z"/><path class="cls-9" d="M156.29,136.33a7.36,7.36,0,1,0,1-10.33A7.36,7.36,0,0,0,156.29,136.33Z"/><ellipse class="cls-6" cx="161.67" cy="131.99" rx="6.13" ry="6.1" transform="translate(-47.03 132.79) rotate(-39.45)"/><ellipse class="cls-19" cx="162" cy="132.23" rx="5.88" ry="5.85" transform="translate(-47.11 133.05) rotate(-39.45)"/><path class="cls-11" d="M159,136a5.89,5.89,0,0,1,3.85-9.55,5.87,5.87,0,1,0-.15,11.62l-.12,0A5.81,5.81,0,0,1,159,136Z"/><path class="cls-11" d="M167.12,126.51A7.37,7.37,0,0,1,157,137.08a7.36,7.36,0,1,0,9.28-11.42A7.35,7.35,0,0,1,167.12,126.51Z"/><path class="cls-20" d="M137.35,122l29.86,36.29q1.95-1.15,3.84-2.33l-30.68-37.28Q138.85,120.32,137.35,122Z"/><path class="cls-21" d="M117.41,169.33c7.56,9.18.87,27.18-14.95,40.19s-54.81,20-56.19,18.34,13-38.59,28.82-51.6S109.85,160.14,117.41,169.33Z"/><path class="cls-22" d="M117.41,169.33c5,6.14-.08,18.7-11.45,28.05s-38.79,15.17-39.71,14,10.06-26.91,21.43-36.26S112.36,163.19,117.41,169.33Z"/><path class="cls-23" d="M117.41,169.33c5,6.14,2.36,16.69-6,23.57s-30.7,8.51-31.63,7.39,5-22.73,13.34-29.61S112.36,163.19,117.41,169.33Z"/><path class="cls-24" d="M117.41,169.33c3.78,4.59,1.48,12.72-5.13,18.16s-23.92,7.15-24.61,6.31S92,176.31,98.6,170.87,113.63,164.74,117.41,169.33Z"/><path class="cls-25" d="M127.31,135.74l-21.65-1.88-31.13,28L76,163.7l24.73-14.06,15.48,5.82C118.51,149.57,122.45,142.73,127.31,135.74Z"/><path class="cls-26" d="M126.27,136.1,106,134.72,75.55,161.9l.79,1,24.35-14.14,15,5.79A96.51,96.51,0,0,1,126.27,136.1Z"/><path class="cls-20" d="M106.72,135.11l9,18.37a90,90,0,0,1,9.87-17.08Z"/><path class="cls-20" d="M115.18,153.86l-9.07-18.56h-.06l-.87.77L101,148.51l14.1,5.46Z"/><polygon class="cls-20" points="100.24 148.55 104.11 136.96 78.13 160.13 78.83 160.98 100.24 148.55"/><path class="cls-25" d="M152.22,166l-2.33,21.6-33.51,25.15L114.9,211l18.56-21.56-2.73-16.31C137,172,144.42,169.43,152.22,166Z"/><path class="cls-26" d="M151.67,167l-2.54,20.14-32.54,24.67-.79-1,18.56-21.17-2.8-15.79A96.51,96.51,0,0,0,151.67,167Z"/><path class="cls-20" d="M148.87,186.34,132.58,174a90,90,0,0,0,18.66-6.39Z"/><path class="cls-20" d="M132.1,174.42l16.46,12.47V187l-.93.7-13,1.68L132,174.45Z"/><polygon class="cls-20" points="134.43 190.1 146.56 188.54 118.81 209.57 118.11 208.72 134.43 190.1"/><path class="cls-20" d="M169,157.71l-30.26-36.77q-1.54,1.81-3,3.66L164.82,160Q166.92,158.88,169,157.71Z"/><path class="cls-20" d="M160.14,162.39l-27.7-33.66q-1.48,1.92-2.88,3.85l26.25,31.9Q158,163.47,160.14,162.39Z"/><rect class="cls-27" x="114.92" y="162.07" width="4.62" height="14.8" transform="translate(-80.97 113.09) rotate(-39.45)"/><rect class="cls-28" x="115.45" y="162.52" width="3.57" height="13.88" rx="1.03" ry="1.03" transform="translate(-80.96 113.1) rotate(-39.45)"/><rect class="cls-27" x="115.75" y="162.94" width="2.93" height="13.09" rx="0.84" ry="0.84" transform="translate(-80.98 113.09) rotate(-39.45)"/><rect class="cls-27" x="88.45" y="166.91" width="57.92" height="4.86" transform="translate(-80.85 113.18) rotate(-39.45)"/><rect class="cls-27" x="126.05" y="153.43" width="15.5" height="4.86" transform="translate(-68.55 120.51) rotate(-39.45)"/><rect class="cls-28" x="126.5" y="153.99" width="14.53" height="3.76" rx="1.08" ry="1.08" transform="translate(-68.56 120.5) rotate(-39.45)"/><rect class="cls-28" x="90.8" y="172.42" width="41.11" height="3.76" rx="1.08" ry="1.08" transform="translate(-85.38 110.46) rotate(-39.45)"/><rect class="cls-28" x="127.62" y="158.35" width="0.38" height="4.86" rx="0.11" ry="0.11" transform="translate(-73.04 117.83) rotate(-39.45)"/></g></g></g></svg>