<svg xmlns="http://www.w3.org/2000/svg" viewBox="0 0 272 272"><defs><style>.cls-1{fill:#ff931e;}.cls-2{fill:#fff;}</style></defs><title>Btn_Experto_on</title><g id="Capa_2" data-name="Capa 2"><g id="Arte"><circle class="cls-1" cx="136" cy="136" r="136"/><path class="cls-2" d="M62.7,117H81.56v3.7H67.44v9.6H77.78v3.52H67.44v10.38H82.05v3.61H62.7Z"/><path class="cls-2" d="M85.13,146.53l7-10.48-6.64-9.9v-1.31h4.17l5.65,8.57,5.18-8.57h3.7v1.31L98,135.83l7,10.7v1.31h-4.12l-6.12-9.45-5.84,9.45h-3.8Z"/><path class="cls-2" d="M120.26,147.71a10.76,10.76,0,0,1-3.69-.56,9.22,9.22,0,0,1-2.68-1.5V155h-4.51V124.83h2.83a2.13,2.13,0,0,1,.71.11,1,1,0,0,1,.51.43,2.61,2.61,0,0,1,.31.9,11.46,11.46,0,0,1,.15,1.5,14.13,14.13,0,0,1,1.42-1.24,10.77,10.77,0,0,1,1.68-1.05,9.4,9.4,0,0,1,2-.73,9.85,9.85,0,0,1,2.37-.27,9,9,0,0,1,3.17.58,7,7,0,0,1,2.77,1.92,10,10,0,0,1,2,3.51,16.66,16.66,0,0,1,.74,5.33,16.07,16.07,0,0,1-.85,5.6,10.25,10.25,0,0,1-2.22,3.66,8.1,8.1,0,0,1-3.11,2A10.58,10.58,0,0,1,120.26,147.71Zm-.47-19.62a6.06,6.06,0,0,0-1.64.23,9.28,9.28,0,0,0-1.55.59,10.39,10.39,0,0,0-1.43.84q-.68.47-1.28,1v11.65a6.66,6.66,0,0,0,2.28,1.52,8.16,8.16,0,0,0,3,.49,7.87,7.87,0,0,0,2.31-.34,4.61,4.61,0,0,0,2-1.24,6.58,6.58,0,0,0,1.4-2.48,12.87,12.87,0,0,0,.54-4.07,14.16,14.16,0,0,0-.48-4,6.89,6.89,0,0,0-1.28-2.51,4.21,4.21,0,0,0-1.8-1.28A6.17,6.17,0,0,0,119.79,128.09Z"/><path class="cls-2" d="M137.68,137.18a12.36,12.36,0,0,0,.58,3.48,6.14,6.14,0,0,0,1.38,2.34,5.15,5.15,0,0,0,2.15,1.31,9.37,9.37,0,0,0,2.88.41,10.16,10.16,0,0,0,3.77-.62,9.58,9.58,0,0,0,2.61-1.5h1.46v3.14a13.49,13.49,0,0,1-1.43.85,12.66,12.66,0,0,1-1.84.76,14.54,14.54,0,0,1-2.32.55,18.67,18.67,0,0,1-2.9.2,12.53,12.53,0,0,1-4.68-.82,9.29,9.29,0,0,1-3.44-2.33,10,10,0,0,1-2.12-3.67,15.32,15.32,0,0,1-.72-4.87,14.43,14.43,0,0,1,.81-5,11.21,11.21,0,0,1,2.21-3.76,9.55,9.55,0,0,1,3.33-2.37,10.41,10.41,0,0,1,4.16-.83,11.48,11.48,0,0,1,4.07.68,7.63,7.63,0,0,1,3,2.05,9.25,9.25,0,0,1,1.89,3.47,16.59,16.59,0,0,1,.66,4.93c0,.3,0,.62,0,.95s0,.54,0,.62Zm5.89-9.63a6.1,6.1,0,0,0-2.09.35,4.53,4.53,0,0,0-1.74,1.15,6.43,6.43,0,0,0-1.28,2.07,11.12,11.12,0,0,0-.69,3.1h11a12.6,12.6,0,0,0-.41-3.14,5.59,5.59,0,0,0-1-2.06,3.74,3.74,0,0,0-1.62-1.14A6.29,6.29,0,0,0,143.56,127.56Z"/><path class="cls-2" d="M169,128.44a10,10,0,0,0-2.19.23,10.42,10.42,0,0,0-1.85.59,9.29,9.29,0,0,0-1.54.84,12.33,12.33,0,0,0-1.23.95v16.8h-4.51v-23h2.83a2,2,0,0,1,.71.12,1.05,1.05,0,0,1,.51.45,2.78,2.78,0,0,1,.31,1,13.3,13.3,0,0,1,.15,1.63,12.63,12.63,0,0,1,1.27-1.27,9.74,9.74,0,0,1,1.52-1.07,8.26,8.26,0,0,1,1.77-.75,7.06,7.06,0,0,1,2-.28,4.27,4.27,0,0,1,.72.05,4.56,4.56,0,0,1,.53.12v3.7l-.45,0H169Z"/><path class="cls-2" d="M172.07,124.83h2.77v-6.25h4.51v6.25h5.09V128h-5.09v13.64a5.13,5.13,0,0,0,.19,1.51,2.11,2.11,0,0,0,.59,1,2.3,2.3,0,0,0,1,.5,6.34,6.34,0,0,0,1.48.15h2.08v2.9a12.32,12.32,0,0,1-1.56.3,15.43,15.43,0,0,1-2.09.13,9.77,9.77,0,0,1-2.63-.32,4.82,4.82,0,0,1-1.94-1,4.51,4.51,0,0,1-1.21-1.84,7.9,7.9,0,0,1-.42-2.74V128h-2.77Z"/><path class="cls-2" d="M198.3,148.1a11.58,11.58,0,0,1-4.35-.81,10.14,10.14,0,0,1-3.49-2.31,10.59,10.59,0,0,1-2.32-3.67,13.51,13.51,0,0,1-.84-4.9,13.93,13.93,0,0,1,.84-5,11,11,0,0,1,2.32-3.76,10.11,10.11,0,0,1,3.49-2.37,11.86,11.86,0,0,1,8.7,0,10.12,10.12,0,0,1,3.49,2.37,11,11,0,0,1,2.32,3.76,13.93,13.93,0,0,1,.84,5,13.51,13.51,0,0,1-.84,4.9,10.59,10.59,0,0,1-2.32,3.67,10.15,10.15,0,0,1-3.49,2.31A11.58,11.58,0,0,1,198.3,148.1Zm0-3.37a6.62,6.62,0,0,0,2.65-.52,5.25,5.25,0,0,0,2-1.56,7.37,7.37,0,0,0,1.29-2.6,13.15,13.15,0,0,0,.45-3.64,13.62,13.62,0,0,0-.45-3.68A7.7,7.7,0,0,0,203,130a5.52,5.52,0,0,0-2-1.63,6.18,6.18,0,0,0-2.65-.56,6.1,6.1,0,0,0-2.64.56,5.54,5.54,0,0,0-2,1.63,7.83,7.83,0,0,0-1.3,2.67,13.3,13.3,0,0,0-.46,3.68,12.84,12.84,0,0,0,.46,3.64,7.5,7.5,0,0,0,1.3,2.6,5.26,5.26,0,0,0,2,1.56A6.54,6.54,0,0,0,198.3,144.72Z"/></g></g></svg>