<svg xmlns="http://www.w3.org/2000/svg" viewBox="0 0 272 272"><defs><style>.cls-1{opacity:0.5;}.cls-2{fill:#f8ca18;}.cls-3{fill:#fff;}</style></defs><title>Btn_Profesional</title><g id="Capa_2" data-name="Capa 2"><g id="Arte"><g class="cls-1"><circle class="cls-2" cx="136" cy="136" r="136"/><path class="cls-3" d="M30.73,120.62h9a19.73,19.73,0,0,1,4.77.53A9.46,9.46,0,0,1,48,122.81a7.43,7.43,0,0,1,2.25,2.92,10.58,10.58,0,0,1,.78,4.28,10.86,10.86,0,0,1-.77,4.3,7.44,7.44,0,0,1-2.25,3,9.72,9.72,0,0,1-3.6,1.72,19.07,19.07,0,0,1-4.83.56H35.47v11.88H30.73Zm4.75,15.45h4.11q3.42,0,5-1.44a5.88,5.88,0,0,0,1.58-4.55,8.16,8.16,0,0,0-.39-2.66,4.2,4.2,0,0,0-1.2-1.82,5,5,0,0,0-2.05-1,11.83,11.83,0,0,0-3-.32H35.47Z"/><path class="cls-3" d="M66.82,132a10,10,0,0,0-2.19.23,10.42,10.42,0,0,0-1.85.59,9.29,9.29,0,0,0-1.54.84,12.33,12.33,0,0,0-1.23.95v16.8H55.5v-23h2.83a2,2,0,0,1,.71.12,1.05,1.05,0,0,1,.51.45,2.78,2.78,0,0,1,.31,1,13.3,13.3,0,0,1,.15,1.63,12.63,12.63,0,0,1,1.27-1.27,9.74,9.74,0,0,1,1.52-1.07,8.26,8.26,0,0,1,1.77-.75,7.06,7.06,0,0,1,2-.28,4.27,4.27,0,0,1,.72.05,4.56,4.56,0,0,1,.53.12v3.7l-.45,0h-.56Z"/><path class="cls-3" d="M81.56,151.68a11.58,11.58,0,0,1-4.35-.81,10.14,10.14,0,0,1-3.49-2.31,10.59,10.59,0,0,1-2.32-3.67,13.51,13.51,0,0,1-.84-4.9,13.93,13.93,0,0,1,.84-5,11,11,0,0,1,2.32-3.76,10.11,10.11,0,0,1,3.49-2.37,11.86,11.86,0,0,1,8.7,0,10.12,10.12,0,0,1,3.49,2.37A11,11,0,0,1,91.72,135a13.93,13.93,0,0,1,.84,5,13.51,13.51,0,0,1-.84,4.9,10.59,10.59,0,0,1-2.32,3.67,10.15,10.15,0,0,1-3.49,2.31A11.58,11.58,0,0,1,81.56,151.68Zm0-3.37a6.62,6.62,0,0,0,2.65-.52,5.25,5.25,0,0,0,2-1.56,7.37,7.37,0,0,0,1.29-2.6A13.15,13.15,0,0,0,88,140a13.62,13.62,0,0,0-.45-3.68,7.7,7.7,0,0,0-1.29-2.67,5.52,5.52,0,0,0-2-1.63,6.18,6.18,0,0,0-2.65-.56,6.1,6.1,0,0,0-2.64.56,5.54,5.54,0,0,0-2,1.63,7.83,7.83,0,0,0-1.3,2.67,13.3,13.3,0,0,0-.46,3.68,12.84,12.84,0,0,0,.46,3.64,7.5,7.5,0,0,0,1.3,2.6,5.26,5.26,0,0,0,2,1.56A6.54,6.54,0,0,0,81.56,148.31Z"/><path class="cls-3" d="M94.92,128.42h2.77v-2a7.72,7.72,0,0,1,.44-2.76,4.88,4.88,0,0,1,1.27-1.9,5.17,5.17,0,0,1,2-1.11,8.73,8.73,0,0,1,2.57-.35,11.73,11.73,0,0,1,2,.14,7.44,7.44,0,0,1,1.35.35v2.81h-1.93a6.17,6.17,0,0,0-1.33.13,2.27,2.27,0,0,0-1,.47,2.16,2.16,0,0,0-.62.91,4.23,4.23,0,0,0-.21,1.47v1.8h4.71v3.16h-4.71v19.85H97.69V131.57H94.92Z"/><path class="cls-3" d="M114.11,140.77a12.36,12.36,0,0,0,.58,3.48,6.14,6.14,0,0,0,1.38,2.34,5.15,5.15,0,0,0,2.15,1.31,9.37,9.37,0,0,0,2.88.41,10.16,10.16,0,0,0,3.77-.62,9.58,9.58,0,0,0,2.61-1.5h1.46v3.14a13.49,13.49,0,0,1-1.43.85,12.66,12.66,0,0,1-1.84.76,14.54,14.54,0,0,1-2.32.55,18.67,18.67,0,0,1-2.9.2,12.53,12.53,0,0,1-4.68-.82,9.29,9.29,0,0,1-3.44-2.33,10,10,0,0,1-2.12-3.67,15.32,15.32,0,0,1-.72-4.87,14.43,14.43,0,0,1,.81-5,11.21,11.21,0,0,1,2.21-3.76,9.55,9.55,0,0,1,3.33-2.37,10.41,10.41,0,0,1,4.16-.83,11.48,11.48,0,0,1,4.07.68,7.63,7.63,0,0,1,3,2.05,9.25,9.25,0,0,1,1.89,3.47,16.59,16.59,0,0,1,.66,4.93c0,.3,0,.62,0,.95s0,.54,0,.62Zm5.89-9.62a6.1,6.1,0,0,0-2.09.35,4.53,4.53,0,0,0-1.74,1.15,6.43,6.43,0,0,0-1.28,2.07,11.12,11.12,0,0,0-.69,3.1h11a12.6,12.6,0,0,0-.41-3.14,5.59,5.59,0,0,0-1-2.06,3.74,3.74,0,0,0-1.62-1.14A6.29,6.29,0,0,0,120,131.14Z"/><path class="cls-3" d="M140.32,151.64a17.24,17.24,0,0,1-2.56-.17,13,13,0,0,1-2-.46,11.94,11.94,0,0,1-1.62-.64,11.46,11.46,0,0,1-1.3-.74v-3.48h1.44a6.78,6.78,0,0,0,1,.75,7.19,7.19,0,0,0,1.29.66,9.54,9.54,0,0,0,1.63.47,10,10,0,0,0,2,.18q4.79,0,4.79-3.33a3.18,3.18,0,0,0-.23-1.26,2.22,2.22,0,0,0-.78-.92,5.12,5.12,0,0,0-1.49-.68,17.79,17.79,0,0,0-2.33-.49,17.59,17.59,0,0,1-3.09-.72,6.93,6.93,0,0,1-2.28-1.25,5.09,5.09,0,0,1-1.41-1.92,7,7,0,0,1-.48-2.75,6.83,6.83,0,0,1,.58-2.89,5.67,5.67,0,0,1,1.65-2.11,7.49,7.49,0,0,1,2.6-1.29,12.39,12.39,0,0,1,3.44-.44,14.49,14.49,0,0,1,4,.47,12.4,12.4,0,0,1,2.74,1.14v3.44H146.4a7.85,7.85,0,0,0-2.12-1.15,9,9,0,0,0-3.17-.48,5.73,5.73,0,0,0-3.27.74,2.86,2.86,0,0,0-.79,3.41,2.28,2.28,0,0,0,.84.86,5.71,5.71,0,0,0,1.51.62,18.73,18.73,0,0,0,2.29.45,18.33,18.33,0,0,1,3.29.76,7.06,7.06,0,0,1,2.32,1.28,4.86,4.86,0,0,1,1.38,2,7.8,7.8,0,0,1,.45,2.8,8,8,0,0,1-.53,3A5.74,5.74,0,0,1,147,149.7a7.48,7.48,0,0,1-2.75,1.44A13.58,13.58,0,0,1,140.32,151.64Z"/><path class="cls-3" d="M155.89,125.86a2.51,2.51,0,0,1-1-.2,2.86,2.86,0,0,1-.84-.55,2.58,2.58,0,0,1-.58-.81,2.33,2.33,0,0,1-.21-1,2.48,2.48,0,0,1,.21-1,2.64,2.64,0,0,1,.58-.84,2.93,2.93,0,0,1,.84-.57,2.41,2.41,0,0,1,1-.21,2.44,2.44,0,0,1,1,.21,2.9,2.9,0,0,1,.85.57,2.67,2.67,0,0,1,.58.84,2.5,2.5,0,0,1,.21,1,2.35,2.35,0,0,1-.21,1,2.61,2.61,0,0,1-.58.81,2.84,2.84,0,0,1-.85.55A2.54,2.54,0,0,1,155.89,125.86Zm-2.3,25.57v-23h2.53a3.47,3.47,0,0,1,1.06.13,1,1,0,0,1,.59.49,2.71,2.71,0,0,1,.27,1q.06.68.06,1.77v19.57Z"/><path class="cls-3" d="M173.68,151.68a11.58,11.58,0,0,1-4.35-.81,10.14,10.14,0,0,1-3.49-2.31,10.59,10.59,0,0,1-2.32-3.67,13.51,13.51,0,0,1-.84-4.9,13.93,13.93,0,0,1,.84-5,11,11,0,0,1,2.32-3.76,10.11,10.11,0,0,1,3.49-2.37,11.86,11.86,0,0,1,8.7,0,10.12,10.12,0,0,1,3.49,2.37,11,11,0,0,1,2.32,3.76,13.93,13.93,0,0,1,.84,5,13.51,13.51,0,0,1-.84,4.9,10.59,10.59,0,0,1-2.32,3.67,10.15,10.15,0,0,1-3.49,2.31A11.58,11.58,0,0,1,173.68,151.68Zm0-3.37a6.62,6.62,0,0,0,2.65-.52,5.25,5.25,0,0,0,2-1.56,7.37,7.37,0,0,0,1.29-2.6,13.15,13.15,0,0,0,.45-3.64,13.62,13.62,0,0,0-.45-3.68,7.7,7.7,0,0,0-1.29-2.67,5.52,5.52,0,0,0-2-1.63,6.18,6.18,0,0,0-2.65-.56A6.1,6.1,0,0,0,171,132a5.54,5.54,0,0,0-2,1.63,7.83,7.83,0,0,0-1.3,2.67,13.3,13.3,0,0,0-.46,3.68,12.84,12.84,0,0,0,.46,3.64,7.5,7.5,0,0,0,1.3,2.6,5.26,5.26,0,0,0,2,1.56A6.54,6.54,0,0,0,173.68,148.31Z"/><path class="cls-3" d="M191.94,128.42a2.13,2.13,0,0,1,.71.11,1,1,0,0,1,.51.43,2.59,2.59,0,0,1,.31.89,11,11,0,0,1,.15,1.47,15.76,15.76,0,0,1,1.84-1.26,15.3,15.3,0,0,1,2.12-1,14.55,14.55,0,0,1,2.34-.7,12,12,0,0,1,2.49-.26,8.87,8.87,0,0,1,2.26.28,4.46,4.46,0,0,1,1.87,1,4.93,4.93,0,0,1,1.28,1.94,8.69,8.69,0,0,1,.47,3.09v17h-4.51v-16a5.73,5.73,0,0,0-.24-1.78,2.71,2.71,0,0,0-.67-1.13,2.37,2.37,0,0,0-1.08-.58,6.1,6.1,0,0,0-1.48-.16,8.14,8.14,0,0,0-1.83.2,13.64,13.64,0,0,0-1.74.53,14.79,14.79,0,0,0-1.64.73q-.78.41-1.49.82v17.34h-4.51v-23Z"/><path class="cls-3" d="M229.25,151.43a5,5,0,0,1-1.12-.11,1.58,1.58,0,0,1-.76-.4,2.05,2.05,0,0,1-.48-.78,5.48,5.48,0,0,1-.27-1.27,8.64,8.64,0,0,1-2.93,2.11,9.93,9.93,0,0,1-4,.71,9.12,9.12,0,0,1-2.89-.44,6.38,6.38,0,0,1-2.28-1.3,5.87,5.87,0,0,1-1.5-2.15,7.65,7.65,0,0,1-.54-3,6.76,6.76,0,0,1,.67-3.08,6.08,6.08,0,0,1,1.85-2.19,8.24,8.24,0,0,1,2.83-1.3,14.17,14.17,0,0,1,3.58-.43,19.68,19.68,0,0,1,2.66.16,22.49,22.49,0,0,1,2.38.46v-3a3.6,3.6,0,0,0-1.17-3,5.46,5.46,0,0,0-3.45-.93,11,11,0,0,0-3.64.55,10.35,10.35,0,0,0-2.67,1.34h-1.42V130q.77-.39,1.63-.74a14.8,14.8,0,0,1,1.88-.62,20.07,20.07,0,0,1,2.19-.44,17.74,17.74,0,0,1,2.57-.17,15.57,15.57,0,0,1,3.64.39,7,7,0,0,1,2.7,1.24,5.47,5.47,0,0,1,1.68,2.18,8.05,8.05,0,0,1,.58,3.22v16.33Zm-8.06-2.81a6.19,6.19,0,0,0,3.06-.76,6.64,6.64,0,0,0,1.2-.84,12,12,0,0,0,1-1v-4.88a19.26,19.26,0,0,0-2-.33,20.39,20.39,0,0,0-2.26-.12,9.41,9.41,0,0,0-2.13.23,5,5,0,0,0-1.67.7,3.38,3.38,0,0,0-1.1,1.21,3.74,3.74,0,0,0-.4,1.79,4.69,4.69,0,0,0,.32,1.84,3.36,3.36,0,0,0,.89,1.26,3.52,3.52,0,0,0,1.36.72A6.18,6.18,0,0,0,221.2,148.61Z"/><path class="cls-3" d="M236.76,151.43V120.62h2.5a4.18,4.18,0,0,1,1.06.11,1,1,0,0,1,.61.43,2.08,2.08,0,0,1,.28.91,15,15,0,0,1,.06,1.56v27.8Z"/></g></g></g></svg>