<svg xmlns="http://www.w3.org/2000/svg" viewBox="0 0 272 272"><defs><style>.cls-1{fill:#82bc00;}.cls-2{fill:#fff;}</style></defs><title>Btn_Principiante_on</title><g id="Capa_2" data-name="Capa 2"><g id="Arte"><circle class="cls-1" cx="136" cy="136" r="136"/><path class="cls-2" d="M23.28,117h9a19.73,19.73,0,0,1,4.77.53,9.46,9.46,0,0,1,3.57,1.67,7.43,7.43,0,0,1,2.25,2.92,10.58,10.58,0,0,1,.78,4.28,10.86,10.86,0,0,1-.77,4.3,7.44,7.44,0,0,1-2.25,3A9.72,9.72,0,0,1,37,135.4a19.07,19.07,0,0,1-4.83.56H28v11.88H23.28ZM28,132.48h4.11q3.42,0,5-1.44a5.88,5.88,0,0,0,1.58-4.55,8.16,8.16,0,0,0-.39-2.66,4.2,4.2,0,0,0-1.2-1.82,5,5,0,0,0-2.05-1,11.83,11.83,0,0,0-3-.32H28Z"/><path class="cls-2" d="M59.38,128.44a10,10,0,0,0-2.19.23,10.42,10.42,0,0,0-1.85.59,9.29,9.29,0,0,0-1.54.84,12.33,12.33,0,0,0-1.23.95v16.8H48.05v-23h2.83a2,2,0,0,1,.71.12,1.05,1.05,0,0,1,.51.45,2.78,2.78,0,0,1,.31,1,13.3,13.3,0,0,1,.15,1.63,12.63,12.63,0,0,1,1.27-1.27,9.74,9.74,0,0,1,1.52-1.07,8.26,8.26,0,0,1,1.77-.75,7.06,7.06,0,0,1,2-.28,4.27,4.27,0,0,1,.72.05,4.56,4.56,0,0,1,.53.12v3.7l-.45,0h-.56Z"/><path class="cls-2" d="M66.9,122.27a2.51,2.51,0,0,1-1-.2,2.86,2.86,0,0,1-.84-.55,2.58,2.58,0,0,1-.58-.81,2.33,2.33,0,0,1-.21-1,2.48,2.48,0,0,1,.21-1,2.64,2.64,0,0,1,.58-.84,2.93,2.93,0,0,1,.84-.57,2.41,2.41,0,0,1,1-.21,2.44,2.44,0,0,1,1,.21,2.9,2.9,0,0,1,.85.57,2.67,2.67,0,0,1,.58.84,2.5,2.5,0,0,1,.21,1,2.35,2.35,0,0,1-.21,1,2.61,2.61,0,0,1-.58.81,2.84,2.84,0,0,1-.85.55A2.54,2.54,0,0,1,66.9,122.27Zm-2.3,25.57v-23h2.53a3.47,3.47,0,0,1,1.06.13,1,1,0,0,1,.59.49,2.71,2.71,0,0,1,.27,1q.06.68.06,1.77v19.57Z"/><path class="cls-2" d="M78,124.83a2.13,2.13,0,0,1,.71.11,1,1,0,0,1,.51.43,2.59,2.59,0,0,1,.31.89,11,11,0,0,1,.15,1.47,15.76,15.76,0,0,1,1.84-1.26,15.3,15.3,0,0,1,2.12-1,14.55,14.55,0,0,1,2.34-.7,12,12,0,0,1,2.49-.26,8.87,8.87,0,0,1,2.26.28,4.46,4.46,0,0,1,1.87,1,4.93,4.93,0,0,1,1.28,1.94,8.69,8.69,0,0,1,.47,3.09v17H89.8v-16a5.73,5.73,0,0,0-.24-1.78,2.71,2.71,0,0,0-.67-1.13,2.37,2.37,0,0,0-1.08-.58,6.1,6.1,0,0,0-1.48-.16,8.14,8.14,0,0,0-1.83.2,13.64,13.64,0,0,0-1.74.53,14.79,14.79,0,0,0-1.64.73q-.78.41-1.49.82v17.34H75.12v-23Z"/><path class="cls-2" d="M109.71,148.1a12.88,12.88,0,0,1-4.69-.81,9.36,9.36,0,0,1-3.5-2.33,10.2,10.2,0,0,1-2.18-3.7,15,15,0,0,1-.75-4.92,13.59,13.59,0,0,1,.86-5,10.76,10.76,0,0,1,2.37-3.73,10.32,10.32,0,0,1,3.59-2.34,12.24,12.24,0,0,1,4.52-.82,15.12,15.12,0,0,1,2.4.17,13.14,13.14,0,0,1,1.9.44,10.49,10.49,0,0,1,1.48.59,11.61,11.61,0,0,1,1.14.64v3.5H115a6.37,6.37,0,0,0-.86-.71,5.83,5.83,0,0,0-1.13-.6,8.15,8.15,0,0,0-1.41-.42,8.45,8.45,0,0,0-1.72-.16,6.52,6.52,0,0,0-2.72.56,5.93,5.93,0,0,0-2.13,1.62,7.59,7.59,0,0,0-1.39,2.63,11.92,11.92,0,0,0-.49,3.59,13,13,0,0,0,.46,3.65,7.18,7.18,0,0,0,1.33,2.61,5.45,5.45,0,0,0,2.09,1.56,7,7,0,0,0,2.75.52,9.37,9.37,0,0,0,2-.19,7.23,7.23,0,0,0,1.56-.52,5.94,5.94,0,0,0,1.17-.72,8.66,8.66,0,0,0,.86-.78h1.68v3.27a11.33,11.33,0,0,1-1.2.81,10.37,10.37,0,0,1-1.62.76,13.1,13.1,0,0,1-2,.57A12.68,12.68,0,0,1,109.71,148.1Z"/><path class="cls-2" d="M123.87,122.27a2.51,2.51,0,0,1-1-.2,2.86,2.86,0,0,1-.84-.55,2.58,2.58,0,0,1-.58-.81,2.33,2.33,0,0,1-.21-1,2.48,2.48,0,0,1,.21-1,2.64,2.64,0,0,1,.58-.84,2.93,2.93,0,0,1,.84-.57,2.41,2.41,0,0,1,1-.21,2.44,2.44,0,0,1,1,.21,2.9,2.9,0,0,1,.85.57,2.67,2.67,0,0,1,.58.84,2.5,2.5,0,0,1,.21,1,2.35,2.35,0,0,1-.21,1,2.61,2.61,0,0,1-.58.81,2.84,2.84,0,0,1-.85.55A2.54,2.54,0,0,1,123.87,122.27Zm-2.3,25.57v-23h2.53a3.47,3.47,0,0,1,1.06.13,1,1,0,0,1,.59.49,2.71,2.71,0,0,1,.27,1q.06.68.06,1.77v19.57Z"/><path class="cls-2" d="M143,147.71a10.76,10.76,0,0,1-3.69-.56,9.22,9.22,0,0,1-2.68-1.5V155H132.1V124.83h2.83a2.13,2.13,0,0,1,.71.11,1,1,0,0,1,.51.43,2.61,2.61,0,0,1,.31.9,11.46,11.46,0,0,1,.15,1.5,14.13,14.13,0,0,1,1.42-1.24,10.77,10.77,0,0,1,1.68-1.05,9.4,9.4,0,0,1,2-.73,9.85,9.85,0,0,1,2.37-.27,9,9,0,0,1,3.17.58A7,7,0,0,1,150,127a10,10,0,0,1,2,3.51,16.66,16.66,0,0,1,.74,5.33,16.07,16.07,0,0,1-.85,5.6,10.25,10.25,0,0,1-2.22,3.66,8.1,8.1,0,0,1-3.11,2A10.58,10.58,0,0,1,143,147.71Zm-.47-19.62a6.06,6.06,0,0,0-1.64.23,9.28,9.28,0,0,0-1.55.59,10.39,10.39,0,0,0-1.43.84q-.68.47-1.28,1v11.65a6.66,6.66,0,0,0,2.28,1.52,8.16,8.16,0,0,0,3,.49,7.87,7.87,0,0,0,2.31-.34,4.61,4.61,0,0,0,2-1.24,6.58,6.58,0,0,0,1.4-2.48,12.87,12.87,0,0,0,.54-4.07,14.16,14.16,0,0,0-.48-4,6.89,6.89,0,0,0-1.28-2.51,4.21,4.21,0,0,0-1.8-1.28A6.17,6.17,0,0,0,142.51,128.09Z"/><path class="cls-2" d="M159.56,122.27a2.51,2.51,0,0,1-1-.2,2.86,2.86,0,0,1-.84-.55,2.58,2.58,0,0,1-.58-.81,2.33,2.33,0,0,1-.21-1,2.48,2.48,0,0,1,.21-1,2.64,2.64,0,0,1,.58-.84,2.93,2.93,0,0,1,.84-.57,2.41,2.41,0,0,1,1-.21,2.44,2.44,0,0,1,1,.21,2.9,2.9,0,0,1,.85.57,2.67,2.67,0,0,1,.58.84,2.5,2.5,0,0,1,.21,1,2.35,2.35,0,0,1-.21,1,2.61,2.61,0,0,1-.58.81,2.84,2.84,0,0,1-.85.55A2.54,2.54,0,0,1,159.56,122.27Zm-2.3,25.57v-23h2.53a3.47,3.47,0,0,1,1.06.13,1,1,0,0,1,.59.49,2.71,2.71,0,0,1,.27,1q.06.68.06,1.77v19.57Z"/><path class="cls-2" d="M183,147.84a5,5,0,0,1-1.12-.11,1.58,1.58,0,0,1-.76-.4,2.05,2.05,0,0,1-.48-.78,5.48,5.48,0,0,1-.27-1.27,8.64,8.64,0,0,1-2.93,2.11,9.93,9.93,0,0,1-4,.71,9.12,9.12,0,0,1-2.89-.44,6.38,6.38,0,0,1-2.28-1.3,5.87,5.87,0,0,1-1.5-2.15,7.65,7.65,0,0,1-.54-3,6.76,6.76,0,0,1,.67-3.08,6.08,6.08,0,0,1,1.85-2.19,8.24,8.24,0,0,1,2.83-1.3,14.17,14.17,0,0,1,3.58-.43,19.68,19.68,0,0,1,2.66.16,22.49,22.49,0,0,1,2.38.46v-3a3.6,3.6,0,0,0-1.17-3,5.46,5.46,0,0,0-3.45-.93,11,11,0,0,0-3.64.55,10.35,10.35,0,0,0-2.67,1.34h-1.42v-3.33q.77-.39,1.63-.74a14.8,14.8,0,0,1,1.88-.62,20.07,20.07,0,0,1,2.19-.44,17.74,17.74,0,0,1,2.57-.17,15.57,15.57,0,0,1,3.64.39,7,7,0,0,1,2.7,1.24,5.47,5.47,0,0,1,1.68,2.18,8.05,8.05,0,0,1,.58,3.22v16.33ZM175,145a6.19,6.19,0,0,0,3.06-.76,6.64,6.64,0,0,0,1.2-.84,12,12,0,0,0,1-1V137.5a19.26,19.26,0,0,0-2-.33,20.39,20.39,0,0,0-2.26-.12,9.41,9.41,0,0,0-2.13.23,5,5,0,0,0-1.67.7,3.38,3.38,0,0,0-1.1,1.21,3.74,3.74,0,0,0-.4,1.79,4.69,4.69,0,0,0,.32,1.84,3.36,3.36,0,0,0,.89,1.26,3.52,3.52,0,0,0,1.36.72A6.18,6.18,0,0,0,175,145Z"/><path class="cls-2" d="M193.32,124.83a2.13,2.13,0,0,1,.71.11,1,1,0,0,1,.51.43,2.59,2.59,0,0,1,.31.89,11,11,0,0,1,.15,1.47,15.76,15.76,0,0,1,1.84-1.26,15.3,15.3,0,0,1,2.12-1,14.55,14.55,0,0,1,2.34-.7,12,12,0,0,1,2.49-.26,8.87,8.87,0,0,1,2.26.28,4.46,4.46,0,0,1,1.87,1,4.93,4.93,0,0,1,1.28,1.94,8.69,8.69,0,0,1,.47,3.09v17h-4.51v-16a5.73,5.73,0,0,0-.24-1.78,2.71,2.71,0,0,0-.67-1.13,2.37,2.37,0,0,0-1.08-.58,6.1,6.1,0,0,0-1.48-.16,8.14,8.14,0,0,0-1.83.2,13.64,13.64,0,0,0-1.74.53,14.79,14.79,0,0,0-1.64.73q-.78.41-1.49.82v17.34H190.5v-23Z"/><path class="cls-2" d="M213.33,124.83h2.77v-6.25h4.51v6.25h5.09V128h-5.09v13.64a5.13,5.13,0,0,0,.19,1.51,2.11,2.11,0,0,0,.59,1,2.3,2.3,0,0,0,1,.5,6.34,6.34,0,0,0,1.48.15H226v2.9a12.32,12.32,0,0,1-1.56.3,15.43,15.43,0,0,1-2.09.13,9.77,9.77,0,0,1-2.63-.32,4.82,4.82,0,0,1-1.94-1,4.51,4.51,0,0,1-1.21-1.84,7.9,7.9,0,0,1-.42-2.74V128h-2.77Z"/><path class="cls-2" d="M233.18,137.18a12.36,12.36,0,0,0,.58,3.48,6.14,6.14,0,0,0,1.38,2.34,5.15,5.15,0,0,0,2.15,1.31,9.37,9.37,0,0,0,2.88.41,10.16,10.16,0,0,0,3.77-.62,9.58,9.58,0,0,0,2.61-1.5H248v3.14a13.49,13.49,0,0,1-1.43.85,12.66,12.66,0,0,1-1.84.76,14.54,14.54,0,0,1-2.32.55,18.67,18.67,0,0,1-2.9.2,12.53,12.53,0,0,1-4.68-.82,9.29,9.29,0,0,1-3.44-2.33,10,10,0,0,1-2.12-3.67,15.32,15.32,0,0,1-.72-4.87,14.43,14.43,0,0,1,.81-5,11.21,11.21,0,0,1,2.21-3.76,9.55,9.55,0,0,1,3.33-2.37,10.41,10.41,0,0,1,4.16-.83,11.48,11.48,0,0,1,4.07.68,7.63,7.63,0,0,1,3,2.05,9.25,9.25,0,0,1,1.89,3.47,16.59,16.59,0,0,1,.66,4.93c0,.3,0,.62,0,.95s0,.54,0,.62Zm5.89-9.63a6.1,6.1,0,0,0-2.09.35,4.53,4.53,0,0,0-1.74,1.15,6.43,6.43,0,0,0-1.28,2.07,11.12,11.12,0,0,0-.69,3.1h11a12.6,12.6,0,0,0-.41-3.14,5.59,5.59,0,0,0-1-2.06,3.74,3.74,0,0,0-1.62-1.14A6.29,6.29,0,0,0,239.07,127.56Z"/></g></g></svg>