<svg xmlns="http://www.w3.org/2000/svg" viewBox="0 0 1370.81 128.96"><defs><style>.cls-1{fill:#fff;}</style></defs><title>Cuadro_9digitos</title><g id="Capa_2" data-name="Capa 2"><g id="Arte"><path class="cls-1" d="M117,2a10,10,0,0,1,10,10V117a10,10,0,0,1-10,10H12A10,10,0,0,1,2,117V12A10,10,0,0,1,12,2H117m0-2H12A12,12,0,0,0,0,12V117a12,12,0,0,0,12,12H117a12,12,0,0,0,12-12V12A12,12,0,0,0,117,0Z"/><path class="cls-1" d="M263.59,2a10,10,0,0,1,10,10V117a10,10,0,0,1-10,10h-105a10,10,0,0,1-10-10V12a10,10,0,0,1,10-10h105m0-2h-105a12,12,0,0,0-12,12V117a12,12,0,0,0,12,12h105a12,12,0,0,0,12-12V12a12,12,0,0,0-12-12Z"/><path class="cls-1" d="M410.22,2a10,10,0,0,1,10,10V117a10,10,0,0,1-10,10h-105a10,10,0,0,1-10-10V12a10,10,0,0,1,10-10h105m0-2h-105a12,12,0,0,0-12,12V117a12,12,0,0,0,12,12h105a12,12,0,0,0,12-12V12a12,12,0,0,0-12-12Z"/><path class="cls-1" d="M591.25,2a10,10,0,0,1,10,10V117a10,10,0,0,1-10,10h-105a10,10,0,0,1-10-10V12a10,10,0,0,1,10-10h105m0-2h-105a12,12,0,0,0-12,12V117a12,12,0,0,0,12,12h105a12,12,0,0,0,12-12V12a12,12,0,0,0-12-12Z"/><path class="cls-1" d="M737.89,2a10,10,0,0,1,10,10V117a10,10,0,0,1-10,10h-105a10,10,0,0,1-10-10V12a10,10,0,0,1,10-10h105m0-2h-105a12,12,0,0,0-12,12V117a12,12,0,0,0,12,12h105a12,12,0,0,0,12-12V12a12,12,0,0,0-12-12Z"/><path class="cls-1" d="M884.52,2a10,10,0,0,1,10,10V117a10,10,0,0,1-10,10h-105a10,10,0,0,1-10-10V12a10,10,0,0,1,10-10h105m0-2h-105a12,12,0,0,0-12,12V117a12,12,0,0,0,12,12h105a12,12,0,0,0,12-12V12a12,12,0,0,0-12-12Z"/><path class="cls-1" d="M1065.55,2a10,10,0,0,1,10,10V117a10,10,0,0,1-10,10h-105a10,10,0,0,1-10-10V12a10,10,0,0,1,10-10h105m0-2h-105a12,12,0,0,0-12,12V117a12,12,0,0,0,12,12h105a12,12,0,0,0,12-12V12a12,12,0,0,0-12-12Z"/><path class="cls-1" d="M1212.18,2a10,10,0,0,1,10,10V117a10,10,0,0,1-10,10h-105a10,10,0,0,1-10-10V12a10,10,0,0,1,10-10h105m0-2h-105a12,12,0,0,0-12,12V117a12,12,0,0,0,12,12h105a12,12,0,0,0,12-12V12a12,12,0,0,0-12-12Z"/><path class="cls-1" d="M1358.81,2a10,10,0,0,1,10,10V117a10,10,0,0,1-10,10h-105a10,10,0,0,1-10-10V12a10,10,0,0,1,10-10h105m0-2h-105a12,12,0,0,0-12,12V117a12,12,0,0,0,12,12h105a12,12,0,0,0,12-12V12a12,12,0,0,0-12-12Z"/></g></g></svg>