<svg xmlns="http://www.w3.org/2000/svg" viewBox="0 0 350 350"><defs><style>.cls-1{fill:none;}.cls-2{fill:#4fc4d2;}.cls-3{fill:#02a9c3;}.cls-4{fill:#0f90b0;}.cls-5{fill:#f8e0c7;}.cls-6{fill:#e3c5ad;}.cls-7{fill:#fff;}.cls-8{fill:#b8e3f0;}.cls-9{fill:#eaece5;}.cls-10{fill:#bfbcb1;}.cls-11{fill:#f1cb36;}.cls-12{fill:#43b6b1;}.cls-13{fill:#0f878d;}.cls-14{fill:#2f1e4c;}.cls-15{fill:#0e5f72;}.cls-16{fill:#f7b1b6;}.cls-17{fill:#d7842d;}.cls-18{fill:#ffe429;}.cls-19{fill:#fdc030;}.cls-20{fill:#ffd004;}.cls-21{fill:#ffd33a;}</style></defs><title>Ico_inicio_unicornio</title><g id="Capa_2" data-name="Capa 2"><g id="Arte"><rect class="cls-1" width="350" height="350"/><path class="cls-2" d="M270,242.11c8-5.27,26.81-15.76,35.85-18.2a44.59,44.59,0,0,1,19.4-1.27c2.33.38,4.59.94,6.86,1.52a14.1,14.1,0,0,0,5.56-3.94,6.43,6.43,0,0,0,1.73-5.12,31.26,31.26,0,0,0-9.63-6.82c-5.22-2.39-10.31-2.78-16-2.78s-18.38-.68-24,0C285.95,216.45,277.67,233.42,270,242.11Z"/><path class="cls-2" d="M188.5,251.06c-.26-1.23,1.49-1.48,1.86-.35a31.18,31.18,0,0,1,1.47,7.65c5.65-11.67,21.22-17.63,32.91-20.21,14.84-3.27,32.81-3.68,47.13,2.12,9.27-9.23,17.31-19.61,21.86-32.05,4.94-13.54,6.88-27.54,4.52-41.86-3.24-19.71-10.92-39.07-24.32-54.08-11.19-12.54-26.21-22.67-43.31-24.21a.78.78,0,0,1-.24.34c-3,2.34-6.93,4.61-10.86,4.52-1.58,0-7.49-.34-8.67-2.17a1.17,1.17,0,0,1-.24.1c-12.3,3.26-24.42,7.86-33.38,17.31-2.37,2.5-4.64,5.27-6.93,7.9-1,1.15-7.29,7.68-6.78,9.09,6.55,18.35,26.27,32.34,46.13,30.52a33.1,33.1,0,0,0,25.14-15.6c6-9.62,7.65-20.68,6.39-31.84a.74.74,0,0,1,1.45-.28c3.4,14.22-1.54,31-12.16,41.09,5.38,4.18,6,14.05,1.29,19-3.5,3.68-9.28,4.72-14.1,5.21-5.56.56-11.14.6-16.67,1.44-13.46,2.06-27.21,4.74-39.41,11.06-11.27,5.83-22.37,15-26.66,27.4a37.61,37.61,0,0,0-.24,23.88c1.66,5,4.55,9.43,7.64,13.67,2.34,3.2,5.16,6.42,6.93,10,2.74,5.53,1.95,12.69-3.34,16.5-1.82,1.32-4,2.14-5.65,3.69a42.2,42.2,0,0,0-4.28,4.87,35.51,35.51,0,0,1-8.24,7.81l-.62.42c-1,3.65,2.36,6.57,5.59,7.82,4.63-1.91,8.74-4.59,13.21-6.84a66,66,0,0,1,12.73-4.42c9.48-2.56,19.76-6.27,25.66-14.66C189.48,268.48,190.37,259.73,188.5,251.06Z"/><path class="cls-3" d="M260.54,102.93a30.6,30.6,0,0,0-9.38-7.66c-2.46-1.22-7-5.29-9.62-6-8.84-2.4-16-1.3-25.11-1.59a8,8,0,0,1-2,3.34c5.59,1.9,11.73,1.94,13.69,8.81a.93.93,0,0,0,1.31.65c2-1.19,10.8-2.6,7.91,1.64a1,1,0,0,0,1,1.55,22.86,22.86,0,0,1,10.22,1.11c6.72,3.58,12.91,9.37,8.07,15.31a12.26,12.26,0,0,1-1.21,1.28,1,1,0,0,0,.59,1.79c14.75.54,10.15,26.26-.47,30.12-1.1.4-.47,2.29.65,2,4.1-1.22,4.51,2.63,2.63,5.38-1.29,1.88-3.64,3.08-5.54,4.23a1.05,1.05,0,0,0,.66,2c2-.16,5.33,0,5.35,2.75,0,2.15-2.33,3.73-4,4.6-2.51,1.34-6,1.33-8.79,1.53a1.06,1.06,0,0,0-.86,1c-.19,3.49-.25,7-1.53,10.3-1.47,3.76-5,9.15-9,10.29-6.09,1.73-11.62,1.32-17.91.76-17.42-1.54-35.6.26-51,8.54-6.38,3.43-12.26,8-19.14,10.39-2.37.84-5.12,2.14-6.9-.2-1.56-2-1.07-5.5-.45-7.8,1.3-4.77,4.21-10.82,8.5-13.59.38-.25.1-.88-.32-.65-8.46,4.71-13.44,15.52-15.37,24.69-1.72,8.16-.82,17,3.45,24.21,3.08,5.18,7.75,9.28,10.84,14.46s4.2,12.41.14,16.87c-1.26,1.39-3.07,3.26-1.93,4.75a3,3,0,0,0,1.82.94c6.49,1.46,13.34-1.73,17.93-6.55s7.33-11.07,9.82-17.24a19.07,19.07,0,0,1,3.36-6.1,17,17,0,0,1,5.43-3.5c15.9-7.38,33.44-10.42,50-16.22s33-15.31,40.87-31c5.16-10.29,6-22.1,7.82-33.47,1.07-6.89,2.5-13.83,1.88-20.78a35.71,35.71,0,0,0-6.75-17.86C271.27,119.87,267.07,110.49,260.54,102.93Zm-20.7-1.41,0-.09,0,0,.24.06Z"/><path class="cls-4" d="M339.06,213c-2.89-1.72-5.85-3.36-8.88-4.85-1.82-.89-3.82-3.09-5.94-2.86a8.75,8.75,0,0,1-3.22,7.29,16.18,16.18,0,0,1-7.68,3.08,32.82,32.82,0,0,1-14.1-.73c-7.8-2.16-3.83-9.29-2.53-14.82,1.15-4.89,2.13-9.82,3.34-14.7,2.47-9.95.4-21.93-3.67-33.65l-.17.29c-2.09-9.62-7.42-18.74-12.58-26.9a112.4,112.4,0,0,0-30.34-31.88c-1.46-1-3.09-2.05-4.87-2-2.17.12-4.39,1.61-6.48,2.21-.51.15-4.39,1.93-1.79,2.17,19.27,1.8,31.68,21.75,30,40.06a1.14,1.14,0,0,0,1,1.2c7.8,1.66,5.52,11.92,3.61,17.3a1.11,1.11,0,0,0,.42,1.29c5.95,3.83,5.6,11.59,3.63,17.57-1.82,5.53-8.16,13.13-14.72,11.67l-.15,0-.06-.05c-.67-.52-1.83-.6-1.65.57,1.06,6.93-2.79,13.9-6.35,19.56a59.4,59.4,0,0,1-5.72,7.72c-1.67,1.88-9.72,7.53-8.46,1.24.29-1.47-1.84-1.66-2.38-.51-1.6,3.38-3,7-5.6,9.76a4.6,4.6,0,0,1-2.37,1.48c-2.22.5-1.85-2.39-1.71-3.47.22-1.74,1-3.38,1-5.14a1.19,1.19,0,0,0-2.15-.76c-5,6-10.16,11.88-16.94,15.85-1.37.8-9.39,5-9.44,1.85,0-2.3,1.22-4.74,1.85-6.93a1.1,1.1,0,0,0-2.07-.73c-2.9,6.08-9.25,9.62-15.35,11.8a38.78,38.78,0,0,1-18.22,1.67c-3.68-.48-5.47-1-5.73-.58a.56.56,0,0,0,0,.9c2,4.16,4,7.75,4.55,12.45.18,1.59-.5,9.51-2.61,6.17a1,1,0,0,0-1.89.63,37,37,0,0,1,.43,5.34,12.35,12.35,0,0,1-.48,3.09c-.16.63-2.08,4.52-3.1.93-.23-.81-1.48-1.08-1.76-.13-.83,2.75-4.59,10.2-8.25,9.41-2-.43-1.43-2.77-2.93-2.14,0,0,0-.06,0-.1a.49.49,0,0,0-.36.15,12.1,12.1,0,0,1-5.13,3.12c-.74.2-2.26.78-1.29,1.85,1.2,1.32,4.78-.86,3.89,2.56a14.39,14.39,0,0,1-3.46,5.69,8,8,0,0,1-4.95,2.7,11,11,0,0,1-3.05.08c-2-.21-.84-1.46.16-2.38a.5.5,0,0,0-.65-.75,21.84,21.84,0,0,0-5.12,5.71,4,4,0,0,0-.74,1.45c-.24,1.17.58,2.27,1.41,3.14a25.7,25.7,0,0,0,2.61,2.38,6.76,6.76,0,0,0,3.42,1.67c2.23.21,4.12-1.46,6-2.68a34.23,34.23,0,0,1,5.62-2.76l5.3-2.21c1.63-.68,3.25-1.36,4.93-1.91,5.57-1.83,11.68-2.21,16.8-5.07a6.17,6.17,0,0,0,2.13-1.75,29.79,29.79,0,0,0,4.84-2.12,15.36,15.36,0,0,0,5.2-4.93c1.15-1.61,2.23-4.61,4.06-5.49a5.6,5.6,0,0,1,2.74-.3c13.19.68,26.71-.2,39.12-4.72,24.5-8.94,36.51-21.65,42.18-27,.58-.55,1.2-1.15,1.85-1.81a3.38,3.38,0,0,0-.22,1.48,15.88,15.88,0,0,0,3.54-2.91l-.38.57c7.29-2.88,13.36-8.09,20.55-11.19,7.52-3.24,16.77-3.91,24.88-3.81l1.61,0a15.52,15.52,0,0,1,7,1.43,1.53,1.53,0,0,0,.8.27,1.41,1.41,0,0,0,.69-.32l2.7-1.93c2.3-1.64,4.72-3.44,5.71-6.08a3,3,0,0,0,.24-1.39C341.09,214.28,340,213.55,339.06,213Z"/><path class="cls-5" d="M272.28,241.05c-13.67-5.59-35-4.29-49.15-1.16-12.06,2.66-27.51,9.48-32.52,19.31-.26.51.6,3.8.92,3.28l-.4,4.85a28.14,28.14,0,0,1-1.61,5C241.62,278.33,273.14,241.41,272.28,241.05Z"/><path class="cls-6" d="M271.62,238.88c-1.93-.1-4-.74-5.86-.85a26.86,26.86,0,0,1-3.92-.44c-.6,1.15-1.24,2.29-1.94,3.39a47.5,47.5,0,0,1-6.16,7.68,37,37,0,0,1-9.28,6.84c-2,1-11.22,5.37-9.48-.56.32-1.1-.65-2.29-1.58-1.4-3.24,3.08-21.94,17.51-23.4,7.23a1.24,1.24,0,0,0-2-.7c-3.28,2.25-7.27,4.29-11.34,4.1-5.78-.26-6.76-5.4-4.54-8.5.12-.17.47.54-1.06,1.92a25.8,25.8,0,0,0-.68,2.82c-.71,3.84-1.2,8.85-2.12,12.65a139.86,139.86,0,0,0,35.3-2.79c2.39-.52,5.38-2.8,7.71-3.55,2.16-.7,4.28-1.55,6.36-2.46a107.27,107.27,0,0,0,35.57-24.82Z"/><path class="cls-7" d="M190.76,258.48c8.95-10.59,23.82-16.63,37.15-19.15,15-2.83,30.48-1,45.34,1.46.82.13,1.06-1.15.3-1.4-7.89-2.59-16.51-3.24-24.76-3.54a97.26,97.26,0,0,0-22.14,1.47c-13.57,2.67-28.41,8-36.79,19.41-.31.42.58,2.13.91,1.75Z"/><path class="cls-7" d="M177.17,108.78a8.13,8.13,0,0,0-.31,1c-.89,3.72,1.09,7.67,3.11,10.67,2.86,4.24,7.26,6.94,11.91,8.86,8.62,3.57,20.5,4.18,28.65-.94a14.91,14.91,0,0,0,3.53-21.67c-5.44-6.64-15-8.7-23.14-9.17A30.24,30.24,0,0,0,184.63,101C181.75,102.65,178.41,105.49,177.17,108.78Z"/><path class="cls-8" d="M176.76,106.63a18.31,18.31,0,0,0,4,15.82,32.37,32.37,0,0,0,14.27,9.65c8,2.68,19.24,2.84,26.3-2.32,8.17-6,8.56-17.76,2.53-25.4-7.46-9.46-22.91-9.58-33.45-6.66a.81.81,0,0,0,.3,1.6c10.2-.92,21.84-2.31,30,5.31,7,6.53,6.21,18.8-2.17,23.65-6.31,3.65-14.83,3.22-21.66,1.51a29.6,29.6,0,0,1-12.86-7.56c-4.76-4.49-6-9.15-6.23-15.51a.55.55,0,0,0-1.1-.09Z"/><path class="cls-4" d="M206.27,92a5.92,5.92,0,0,1-1.39-3.22,5.89,5.89,0,0,1,.69-2.38c1.19-2.65,2.57-5.5,5.15-6.83a23.67,23.67,0,0,0,1.67,5,18.17,18.17,0,0,1,1.09,6l-.16.11Z"/><path class="cls-9" d="M334.37,188.75a22.49,22.49,0,0,0,3.16.1c5.48-.28,4-4.43.76-6.45a31.1,31.1,0,0,0-3.64-2C336,183,336.12,186.9,334.37,188.75Z"/><path class="cls-9" d="M162.65,126.54c-4.35,7.16-9.24,17.06-7.1,25.52,1.3,5.13,5.22,8.77,10.71,8.88,6,.12,11.2-2.83,16.09-6,.87-.57,1.71.53,1.49,1.33-.27,1-2.61,7.81-.4,7.27,3.6-.88,7.12-4.53,8.36-8C178.3,150.9,166.88,140.42,162.65,126.54Z"/><path class="cls-10" d="M334.61,185c.45,1.32-1.92,4.39-.7,4.61s8.61-.73,7.77-3.86c-.07-.25-.12-.61-.35-.74-.89-.48-1.84.09-2.8.09a10.19,10.19,0,0,1-3.21-.89.58.58,0,0,0-.7.79Z"/><path class="cls-9" d="M125,295.41c-3.5,2.5-8.87,6.71-7,7.73,3.23,1.82,7.91,1,11.62-.22C127,301.52,124.83,298.23,125,295.41Z"/><path class="cls-10" d="M116.52,301c-1.08,2.92,4.55,4.94,6.11,4.53s9-.44,8.64-2.68c-.07-.37-3.95-4.53-4.34-4.54a2.66,2.66,0,0,0-1.61.71,17.18,17.18,0,0,1-2.79,1.54c-1.61.74-3.59,1.68-4.93.23a.64.64,0,0,0-1.08.21Z"/><path class="cls-10" d="M169.93,150.94a4.25,4.25,0,0,0-4.13-1.54,1.27,1.27,0,0,0-.43.2,1.66,1.66,0,0,0-1.44,2c.28,2.41,4.19,1.79,5.66,1A1.1,1.1,0,0,0,169.93,150.94Z"/><path class="cls-9" d="M334.93,224.87l1.82.43c1.83.41,4.05,1,5.93.58,2.59-.55,1.58-3.35.71-5.11a22,22,0,0,0-1.82-3C340.68,220.61,337.73,223.52,334.93,224.87Z"/><path class="cls-10" d="M333.56,224.53c.15,2.86,8.4,4,11.55,1.15.48-.44.74-1.07.31-1.53s-1.55-.33-2.25-.5a7.63,7.63,0,0,1-4.3-3.28.58.58,0,0,0-1,.33Z"/><path class="cls-11" d="M215.08,61.25c.89-.72,1.59-1.64,2.47-2.37h0q-2.61-6.22-5.28-12.36c0,5.26,0,10.52-.07,15.77A5.48,5.48,0,0,0,215.08,61.25Z"/><path class="cls-9" d="M119.19,264.33l-1,.62c-1.79,1.14-5.48,3.06-6.06,5.35-.7,2.77,5.82,1.69,10.48.55A8,8,0,0,1,119.19,264.33Z"/><path class="cls-10" d="M111.43,269.45c-.42,4.14,11.35,3.73,12.79,2.68,1.08-.78-2.94-5.24-4-4.52s-7.17,3.28-7.86,1.66a.49.49,0,0,0-.92.18Z"/><path class="cls-12" d="M302.08,122a68.15,68.15,0,0,1-22.66-6.75,106.65,106.65,0,0,1,17.39,34.26.5.5,0,0,1,.32.14c1.88,1.81,7.12,1.93,10,3.6a16.13,16.13,0,0,0-1.58-3.83,18.12,18.12,0,0,0-2.05-2.66c-2.13-1.4-4.16-3-6.48-4.27-.5-.27-.05-.92.41-.82,4.38,1,7.56,4.82,12.06,5.5a17.89,17.89,0,0,0,10.19-1.39c-4.09-.44-8-3.22-11-5.77-2.17-1.85-4.07-3.92-6.1-5.91a24,24,0,0,0-6-4.21c-1.66-.7-3.29-1.42-4.9-2.11a.5.5,0,0,1,.21-1c3.56.31,6.86,1.75,10.22,2.84a33.78,33.78,0,0,0,11.66,1.77c4.55-.13,10.33-.72,14.81,1.17a28.12,28.12,0,0,0-8.76-7.44,36.15,36.15,0,0,0-8.63-3.58A35.55,35.55,0,0,1,302.08,122Z"/><path class="cls-12" d="M249.62,70.33c3.93-5.89,7.4-11.35,8.08-18.25-3.8,5.35-9.25,9.45-13.82,14.09-5.64,5.72-9.59,11.9-10.19,20.07a45.2,45.2,0,0,1,7.84,1.45C241.86,81.27,246.19,75.47,249.62,70.33Z"/><path class="cls-13" d="M233.89,86.83a11.38,11.38,0,0,0,2.52.42,2.26,2.26,0,0,0,.82,0c.78-.15,1.14-1,1.59-1.66,1-1.47,2.83-2.17,4-3.49a17.47,17.47,0,0,0,2.31-4.28,32.17,32.17,0,0,1,3.31-5,59,59,0,0,0,6.47-10.29,26.54,26.54,0,0,0,2.72-11.76A26.64,26.64,0,0,0,255.1,53c-.49,1-.16,2.32-.43,3.43-.6,2.41-2.29,4.38-3.82,6.26-2.24,2.74-4.52,5.46-6.68,8.26s-3.46,6.48-5.38,9.6a14.6,14.6,0,0,1-3.61,4.2c-.53.39-2,.86-1.77,1.67A.8.8,0,0,0,233.89,86.83Z"/><path class="cls-13" d="M280.61,116.9c1.69,6.89,7.38,9.83,13.37,10.37,2.73.25,9.78,4.13,11.84,4.5a83.62,83.62,0,0,0,12.25.14c3.06-.29,7.53-.3,10.43.63,1.14.36-.22-3-1.07-3.7-2.68-2.23-6.4-1.87-9.67-1.56a26.2,26.2,0,0,1-6.8-.15c-2.59-.42-4.93-1.7-7.44-2.39-3.72-1-7.7-.68-11.48-1.58-4.12-1-8.57-2.57-10.67-6.52-.21-.4-.88-.21-.77.26Z"/><path class="cls-11" d="M216.65,90.69c4.49.65,8.37-.81,12-3.39q-1.5-4.34-3.12-8.66c-2.25,4.23-9,6.53-13.41,4.48,0,1.84.1,3.67.25,5.49a5.58,5.58,0,0,0,.15.82A16.79,16.79,0,0,0,216.65,90.69Z"/><path class="cls-12" d="M261.47,97.59a83.56,83.56,0,0,1,8.89,7.44c4.45-.29,8.94.94,13.39,1.09a67.54,67.54,0,0,0,17.2-1.36,45.24,45.24,0,0,0,13.36-4.83,35.7,35.7,0,0,0,8.37-7.18c-6.59,1.73-14,.31-20.52-.72-4.51-.71-9.28-1.57-13.84-.84-3.95.63-7.71,2.2-11.67,2.72A68.9,68.9,0,0,1,261.47,97.59Z"/><path class="cls-12" d="M298.73,107.6a58,58,0,0,1-12.63.78c-4.87-.26-9.65-1.62-14.48-2.1q1,1,2,2.07c1.35,1.44,2.63,2.93,3.87,4.44,9.42,2.18,17.95,7.1,28,6.77,7.94-.26,16.91-4.33,24.87-2.32C322.46,109.75,310,107.46,298.73,107.6Z"/><path class="cls-13" d="M270.64,106.09c.56,2.76,4.83,7.5,7.09,8.27,4.57,1.56,17.23,5.66,22,6.21a53.15,53.15,0,0,0,11.83-.28c4.41-.48,8.72-2.26,13.15-2.49,2.65-.14,5.31.51,7.94.18a4.22,4.22,0,0,0-1.9-2.69c-4.36-3.38-10.2-4-15.57-3.51s-10.21,1.13-15.58.28c-2.63-.41-4.92.19-7.57-.09s-5.57-.31-8.34-.71c-3.32-.47-8.67-2.79-10.83-5.52C272.51,105.31,270.64,106.09,270.64,106.09Z"/><path class="cls-13" d="M261.92,98c4.41,4.15,4.91,6.36,9.14,7.71,3.45,1.1,10.54,1.68,14.73,1.88,2.89.14,13.77-2.74,16.62-2.26,2.57.44,18.23-7.68,21.53-11.74.68-.84-1.41-2.73-2.19-2.07C317.62,95,310.4,98.41,305.08,99s-10.33-.74-15.7-1c-4.22-.18-8.62,1.27-12.8,1.76a24.21,24.21,0,0,1-14.12-2.57.5.5,0,0,0-.54.8Z"/><path class="cls-12" d="M260.07,96.6c5.25-1.41,10.62-2.59,15.66-4.61,5.55-2.23,10.15-5.51,14.94-9,7-5.11,16-11.69,25.16-11.7a42.32,42.32,0,0,0-23.67-1c-9.34,2.14-17.21,7.53-25.46,12.14A72.92,72.92,0,0,1,251,91.28,69.29,69.29,0,0,1,260.07,96.6Z"/><path class="cls-13" d="M248.57,92.61c6-.52,5.15,5.68,11.09,4.7,5.37-.89,18.25-5.3,22.59-8.41s8-4.94,12.24-8a51.53,51.53,0,0,1,8.82-5.16c2.88-1.19,9.17-3.63,12.2-4.05.93-.13-4.61-3.28-5.47-3.41-9.86-1.44-19.5,5.7-26.61,11.3-5,4-10.1,9.08-16.37,10.81s-12.57-.56-18.7,1.13a.54.54,0,0,0,.2,1.06Z"/><path class="cls-12" d="M251.78,71.23c-3.56,5.34-7.12,10.62-9,16.82a55.63,55.63,0,0,1,7.3,2.81c4.79-3.72,10.27-6.44,15.12-10.09A68.43,68.43,0,0,0,276.85,69.2c5.16-6.27,11-14.39,18.79-17.83A48.8,48.8,0,0,0,267.2,59a102.62,102.62,0,0,0-12.71,9.89C253.63,69.64,252.7,70.41,251.78,71.23Z"/><path class="cls-13" d="M293.49,50.19c-3.67-.88-7.22,1.5-10.2,3.38A64.56,64.56,0,0,0,272,62c-3.35,3.32-5.16,7.7-7.65,11.63A19.68,19.68,0,0,1,251.4,83c-1.28.3-3,8.53-1.76,8.45,8.92-.61,26.39-17.11,30.21-24.21,2.66-5,12.6-14.79,17.4-15.12.42,0-3.34-1.82-3.74-1.91Z"/><path class="cls-11" d="M220.93,67.3a.5.5,0,0,1,.08-.1q-1.41-3.5-2.86-7c-1,2.2-3.62,4-5.94,3.41q0,4.07-.08,8.15C215.85,71.93,218.89,70.71,220.93,67.3Z"/><path class="cls-12" d="M74.93,200.49c7.24-6.41,12.72-14.75,21.19-19.77,8.2-4.86,17.13-4.64,25.18.43,7.67,4.83,14.36,11.1,17.9,19.57a52.62,52.62,0,0,1,4.46-5.11c-.75-10.2-3.67-19.86-12.56-25.92A39.31,39.31,0,0,0,98,164.3a43.49,43.49,0,0,0-16.26,8.89c-4.43,3.9-7.93,8.58-11.69,13.09-2.94,3.52-6.28,8-10.55,10-3.29,1.51-6.54,1-9.74-.3a18.34,18.34,0,0,0,10.5,8C65.64,205.62,70.74,204.19,74.93,200.49Z"/><path class="cls-12" d="M94.95,235.07c.93-6.43,2.59-12.74,6.69-17.94,7.8-9.88,20.34-13.64,32-8.46a1.25,1.25,0,0,1,.46.34q.62-1.32,1.33-2.61a1.12,1.12,0,0,1-1.07-.32c-9.45-9.32-24.65-17.92-37.74-9.92-8.71,5.32-13.13,18.64-24.43,19.43-.45,0-.77-.62-.27-.82,11.73-4.61,15.74-18.95,27.95-22.57,13.58-4,27,2.32,36.2,12.39a1.2,1.2,0,0,1,.21.33q.77-1.27,1.62-2.49c-3.21-4.47-5-9.23-9.27-13-3.8-3.29-7.88-6.77-12.63-8.61-12.35-4.8-22,3.37-30.24,11.72-5.57,5.65-11.09,13.88-19.67,14.52-4,2.4-9.14,2.48-13.46,1-3-1-5.6-3-8.6-3.94-2.15-.7-3.94-.22-5.81.13a32.12,32.12,0,0,1,3.46,1.95c6.54,4.21,13.07,7.78,20.56,10,.63.19.37,1.08-.23,1.07-6.77-.06-13-3.63-18.61-7.18s-11.63-7.5-18.27-4.09c-8.87,4.56-10.57,16.74-19.09,21.47,4.72.53,9.09,2.06,13.29-1.7,2.84-2.55,5.93-4.23,9.84-4.16a15.37,15.37,0,0,1,1.35-1.52c3.52-3.43,9-6.76,14-5.17a.73.73,0,0,1,.54.83.65.65,0,0,1,0,.1v0a.72.72,0,0,1-.1.25l-.07.08a.87.87,0,0,1-.1.12h0l0,0a20.33,20.33,0,0,0-5.45,7.95l-.4,1c4.1-.27,6.45,4.15,7.83,7.59,1.08,2.69,1.95,5.72,3.67,8.08a8.13,8.13,0,0,0,5.15,3.39,23.66,23.66,0,0,0,3.05-.31,23,23,0,0,0,11.71-5.92c4.74-4.23,9.67-10,16.31-10.93a.55.55,0,0,1,.35,1,39.58,39.58,0,0,0-10.18,6.94,73.4,73.4,0,0,1-8.8,7.71c-6.22,4.3-14.58,4.61-21.72,2.55,6.74,7,15.93,10.22,25.65,7.61C81.85,250.4,89.51,243.49,94.95,235.07Z"/><path class="cls-13" d="M48.58,195.43c2.6,3.7,8.22,9.74,11.87,9.78s8.19.58,12.18-2.32c9.18-6.65,16.49-17.86,23.68-21.41,7.43-3.67,11.23-4.73,19-1.81,9.6,3.6,21.09,12.1,22.34,21.6.18,1.38,4.44-.45,4.26-1.82-1.16-8.7-7.2-17-14.65-22.06-6.45-4.41-14.94-4.89-22.38-3.38-8.78,1.78-15.46,7.32-22.16,12.91-4,3.37-8.13,6.69-12.87,9-5.29,2.6-10.47,2.41-16,.72C53.21,196.44,48.58,195.43,48.58,195.43Z"/><path class="cls-11" d="M224.93,77.18c-1.05-2.77-2.14-5.53-3.24-8.29-1.12,3.42-6.23,5.63-9.57,4.3v0c0,2.8-.08,5.62-.07,8.45C217.17,82.52,221.21,80.85,224.93,77.18Z"/><path class="cls-13" d="M136.76,205.78c-7.91-9.38-20.46-16.43-32.74-14-6.3,1.25-11,5-15.39,9.49-5.71,5.77-9.16,10.66-16.41,14.32-.85.43-3.68,1.11-2.93,1.66,4.13,3,10.09,2.26,14.82,2.32-4.74,5.25-12.72,7.84-19.87,7.22-7.49-.65-12.71-7.62-18.8-11.25-5.79-3.45-12.48-3.38-18.52-.64-3,1.37-5.4,3.68-7.81,5.87-4.18,3.8-9.1,4.63-14.57,6.18a.34.34,0,0,0,.13.67c4.79-.46,9.12,3,13.11.52,2.92-1.84,5.86-4,9.27-4.77,1.7-.39,3.5.46,5.17.9L38,225.81a10.85,10.85,0,0,1,3.24,1.24,8.91,8.91,0,0,1,2.84,3.54c1.41,2.76,2.28,5.77,3.75,8.49s3.72,5.26,6.72,6a11.54,11.54,0,0,0,5.38-.15A24,24,0,0,0,69,240.73c4.33-3.27,7.47-8,12.22-10.7,2.37-1.36,5.07-1.92,7.67-2.69-4,13.93-16.93,25.72-31.73,25.74,5.33,2.62,11.64,3.63,17.27,1.75A32.62,32.62,0,0,0,83,250c4.31-3.13,8.59-6.88,11.44-11.56a30.46,30.46,0,0,0,3.29-7.89c.75-2.73.7-6.11,2.15-8.57,1.7-2.89,5.27-6.3,7.73-8.63A22.41,22.41,0,0,1,134,210S137.85,207.08,136.76,205.78Z"/><path class="cls-7" d="M211.83,46.57c1,14.89-1.45,28.13-.42,43,.11,1.52,5.68,2.71,5.57,1.21q-.54-7.77-1.16-15.54c-.76-9.47-.44-19.69-3.1-28.85a.46.46,0,0,0-.9.17Z"/><path class="cls-4" d="M162.77,125.19c2.36,9,13,21.78,21,25.8,8.38,4.22,22.68,7.33,31.81,4.89,17-4.54,29.39-24.56,26.33-47.6a.75.75,0,0,0-1.5-.12c-3.32,17.06-15.25,32.57-32.07,37.93-16.15,5.15-38.57-5.09-44.83-21.15-.16-.42-.86-.18-.75.25Z"/><path class="cls-2" d="M314.35,192.08c4-1.35,8.15-3.12,12.34-3.66a20.33,20.33,0,0,1,4.64,0h0c2-.69,2.77-2.08,2.71-4.21a9.14,9.14,0,0,0-1.27-4.6,34.13,34.13,0,0,0-9.81-2.19c-7-.5-14.45-.68-21.33.82a80.24,80.24,0,0,1-1.85,18.26C304.66,195.09,309.53,193.73,314.35,192.08Z"/><path class="cls-4" d="M300.08,187.26c-.16,1.32,0,3.16-.06,3.71q-.23,3.54-.74,7l24.78-8c2.87-.93,6-1.86,8.86-1a24.4,24.4,0,0,0,1.73-5.18c.27-1.55.42-4.36-.92-5.47-.94-.78-2.47-.63-3.59-.78-4.05-.55-7.57-1.88-11.77-1.5,1,4-2.78,6.78-6,8.2a22.82,22.82,0,0,1-11.47,1.56C300.41,185.78,300.18,186.41,300.08,187.26Z"/><path class="cls-2" d="M136.58,246.6c-.37-.6-.71-1.21-1-1.82-1.83,5.92-5.71,12.88-10.66,16.1-1.42.92-2.89,1.77-4.35,2.64.39,1.5.6,3.13,1.64,4.35a11.26,11.26,0,0,0,3.21,2.24c.76-.22,1.32-.4,1.57-.49,6.56-2.41,13.53-5.33,18.55-10.32-.57-.87-1.18-1.73-1.8-2.58C141.29,253.38,138.73,250.12,136.58,246.6Z"/><path class="cls-4" d="M124.58,260.09a31.93,31.93,0,0,0-5.06,3.13,16.8,16.8,0,0,0,2.17,4.78c.11.16,2.41,3.42,1.91,3.4,6.29.26,20.4-7,22.28-12.46.24-.7-6.24-10.94-6.62-10.25-1.27,2.32-3.34,6.71-5,8.79a14,14,0,0,1-3.7,3.26c-1,.63-5.16,1.77-5.09-.55C125.49,259.85,125.13,259.87,124.58,260.09Z"/><path class="cls-10" d="M155.62,156c2.86,3,7.13,5.93,11.36,6.23,2.49.18,5.23-1.13,7.51-2a54.81,54.81,0,0,0,5.51-2.55,19.37,19.37,0,0,1,4.81-2.3.85.85,0,0,1,.52,0,.71.71,0,0,1,.28.26,2.47,2.47,0,0,1,.15,2.25,11.34,11.34,0,0,1-1.16,2,13.66,13.66,0,0,0-1.31,2.71,1.94,1.94,0,0,0-.11,1.36c.38.92,2.44.26,3.09,0a9.1,9.1,0,0,0,2.75-2c2.15-2.07,4.1-4.79,3.8-7.76,0,.31-3.49-.46-3.88-.61a35.4,35.4,0,0,1-5.17-2.62c-.86-.51-1.61-1.65-2.36-1.13-11.92,8.12-18.77,11.07-25.22,5.51C155.82,155,155.28,155.66,155.62,156Z"/><path class="cls-4" d="M230.46,149c7.68,7.93,15.73.74,18.31-7.17,3.44-10.56.75-24.27-6.68-32.55-.44-.49-1.38.08-1,.66C246.37,117.92,230.46,149,230.46,149Z"/><path class="cls-12" d="M41.18,216.84c-4.94.88-8.94,4.15-11.74,8.47-2.23,3.45-4.48,7-8,9,2.5,0,5,.37,7.5-.44,3.91-1.29,5.75-4.36,7.32-7.92C37.42,223.21,38.79,219.26,41.18,216.84Zm-7.68,8.91a6.82,6.82,0,0,1-1.72,3.67,7.07,7.07,0,0,1-3.51,2.1c-.4.12-.6-.44-.34-.69a59.34,59.34,0,0,0,4.67-5.39C32.89,225.1,33.56,225.23,33.49,225.75Z"/><path class="cls-12" d="M132.86,210.93c-12.7-5.59-26.93.43-32.55,13.07-4.33,9.74-1.93,23.08-8.72,31.7,4.67-2.1,8.84-4.7,11.92-9.07,3.3-4.68,4.74-9.65,5.93-15.17,1.07-5,2.82-10.21,7-13.49,4.66-3.67,9.67-4.18,15.43-4a1.18,1.18,0,0,1,.3,0q.48-1.53,1.08-3A1.21,1.21,0,0,1,132.86,210.93Z"/><path class="cls-14" d="M185.5,110.41c-2,4,.08,9.45,5.18,9.21,4.9-.23,6.3-6.66,4.34-10.34a.67.67,0,0,0-1.25.42c.26,2.39-.09,6.08-3,6.83-3.71,1-4.63-3.32-4.46-5.94a.44.44,0,0,0-.84-.18Z"/><path class="cls-14" d="M204.09,110.47c-2,6.34,3.77,13.22,10.28,10.56,5.07-2.07,5.16-10.51.7-13.24-.57-.35-1.48.26-1.06.92,1.82,2.88,2.44,8-1.7,9.3-4.88,1.55-6.7-4.92-7.32-7.48a.47.47,0,0,0-.89-.07Z"/><path class="cls-15" d="M165.59,152.61c-.62-.19-1.17-.36-1.13-1.1a2,2,0,0,1,1.38-1.63,2.61,2.61,0,0,1,2.56.59,3.42,3.42,0,0,1,.88,2.67.58.58,0,0,0,1.06.37,3.72,3.72,0,0,0-.66-4.45,4.38,4.38,0,0,0-4.87-.87,3.62,3.62,0,0,0-2.18,3.58,2,2,0,0,0,3,1.63.43.43,0,0,0,0-.79Z"/><path class="cls-15" d="M72.22,215.6c11.3-.79,15.72-14.11,24.43-19.43,13.09-8,30.36,1.8,38.76,10.93,1,1.06,1.67-1.4.68-2.49-9.17-10.07-22.62-16.42-36.2-12.39-12.2,3.62-16.22,18-27.95,22.57-.5.19-.17.85.27.82Z"/><path class="cls-15" d="M89.95,257.52c8.83-8.46,5.72-23.07,10.36-33.52,5.62-12.64,19.85-18.66,32.55-13.07,1.42.63,2.21-1.64.8-2.26-11.68-5.18-24.22-1.42-32,8.46-4.2,5.32-5.84,11.81-6.76,18.39-1.06,7.62-2,14.39-5.86,21.19-.33.58.38,1.33.92.82Z"/><path class="cls-15" d="M119.39,262.73c-1,4,2,9.11,6.37,9.1a.66.66,0,0,0,.42-1.2c-1.37-1-2.9-1.43-4-2.76s-1.29-3.38-1.85-5.07c-.13-.4-.79-.59-.93-.07Z"/><path class="cls-15" d="M126.43,292.49c-4.2,3.81,1.83,12.3,6.8,11a.78.78,0,0,0,.11-1.49c-3.64-1.17-7.79-4.59-5.95-8.86a.61.61,0,0,0-1-.66Z"/><path class="cls-15" d="M331.91,225.66c4.77.13,13.54-8.53,8.33-12.86a.77.77,0,0,0-1.18.77,6.44,6.44,0,0,1-1.41,6.65,14.52,14.52,0,0,1-6,4.12.7.7,0,0,0,.25,1.31Z"/><path class="cls-15" d="M332.54,179.29a8.83,8.83,0,0,1,1.5,4.95c.06,2.13-.7,3.52-2.71,4.21-.68.23-.4,1.3.25,1.33,5.51.3,4.8-8.89,1.58-11.2-.46-.33-.94.29-.63.71Z"/><path class="cls-15" d="M334.24,118.91c-2.34-6.5-11.56-9.49-17.52-11.15a54,54,0,0,0-10.53-1.83c8.2-2.39,16.38-7.07,20.31-14.86a.75.75,0,0,0-.6-1.12.86.86,0,0,0-.43-.05c-4.43.64-8.55,1.39-13.06,1.13-4.16-.24-8.3-1-12.42-1.64a43.77,43.77,0,0,0-12-.28,23.68,23.68,0,0,0-4.41,1.07,46.11,46.11,0,0,0,4.31-2.74,164,164,0,0,1,14.46-9.88,44.44,44.44,0,0,1,16.46-5.2.61.61,0,0,0,.45-.27c.76.08,1.09-1,.48-1.56-6.76-5.75-18.25-4.86-26.34-3.4-7,1.26-13.13,4.35-19,8q1-1.08,1.93-2.18c7.19-8.28,13.35-17,23.44-21.92l.08-.06.06,0a.68.68,0,0,0,.24-.42s0-.05,0-.08,0-.05,0-.08a.63.63,0,0,0-.33-.63l-.1,0-.05,0h0l-.15,0c-12.11-2.76-24,1.15-34.22,7.6A67.72,67.72,0,0,0,256,64.56c2.56-4.65,4.54-10.07,3-15.06v0c.33-.69-.57-1.59-1.15-.94-5.39,6.08-11.61,11.29-17.1,17.28-5.07,5.53-9.15,12.62-8.31,20.31-.9-.06-1.81-.09-2.72-.08-1.22,0-1.4,1.82-.15,1.91,17.55,1.2,33,11.5,44.39,24.31,13.4,15,21.08,34.37,24.32,54.08,2.16,13.14.7,26-3.38,38.5-.54.49-.5,1.14.46,1.07,6.14-.44,12.57-.42,18.43-.42,5.66,0,10.75.39,16,2.78,5.59,2.56,10.89,6.93,13.64,12.49.87,1.76,1.88,4.56-.71,5.11-1.88.4-4.1-.17-5.93-.58-3.87-.86-7.59-2-11.52-2.66a44.59,44.59,0,0,0-19.4,1.27,101.43,101.43,0,0,0-33.4,15.94,3,3,0,0,0-.56.41c-2.22,2.22-4.51,4.37-6.85,6.46-20,17.9-48.82,27.86-75.54,25.42a30.31,30.31,0,0,0,.88-21.43c-.37-1.12-2.13-.87-1.86.35,1.87,8.67,1,17.42-4.2,24.8-5.89,8.4-16.18,12.1-25.66,14.66a66,66,0,0,0-12.73,4.42c-4.73,2.39-9.06,5.27-14,7.19-3.87,1.49-10,3.23-13.88,1-2.54-1.43,8.87-9,9.75-9.6a35.51,35.51,0,0,0,8.24-7.81,42.21,42.21,0,0,1,4.28-4.87c1.66-1.54,3.82-2.37,5.65-3.69,5.28-3.82,6.08-11,3.34-16.5-1.77-3.57-4.59-6.79-6.93-10-3.1-4.24-6-8.65-7.64-13.67a37.61,37.61,0,0,1,.24-23.88c4.29-12.36,15.4-21.57,26.66-27.4,12.2-6.31,25.95-9,39.41-11.06,5.53-.85,11.11-.88,16.67-1.44,4.83-.49,10.61-1.53,14.1-5.21,4.74-5,4.62-15.26-.88-19.37,10.34-10.15,15.11-26.66,11.75-40.7a.74.74,0,0,0-1.45.28c1.26,11.16-.37,22.21-6.39,31.84a33.1,33.1,0,0,1-25.14,15.6c-19.85,1.82-39.58-12.17-46.13-30.52a81.43,81.43,0,0,1,47.09-34.31c1.31-.35.93-2.42-.4-2.08-1.57.41-3.14.88-4.69,1.39A38.93,38.93,0,0,1,208,83.89c.56-.94,1.24-2.32,1.89-3.19.54,1.45,1,3.39,1.38,4.9.32,1.19.54,2.44.93,3.61a13.54,13.54,0,0,1,1.5-.58,58.18,58.18,0,0,0-2.77-9.6.91.91,0,0,0-1.54-.18c-1.63,1.94-5.45,7.71-6.3,12.13-18.91,6.89-35.93,21.05-44.89,39-4,8-8,18.69-2.95,27.16,5.7,9.6,17.64,5.76,25.63,1.19-.92,2.91-1.67,6.55,1.32,7.44,4.79,1.43,10-5.73,11.05-9.75a47.43,47.43,0,0,0,16.85,2.09A31.81,31.81,0,0,0,229.45,150c5.13,4.38,4.64,14.53-1.09,18.13-6.53,4.1-16,3.13-23.34,3.69a145,145,0,0,0-25.92,4.82,90.21,90.21,0,0,0-24.24,10.15,61.8,61.8,0,0,0-9,6.75c-.45-8.76-3.72-17.16-10.25-23.22-7.52-7-18.71-10.46-28.86-9.83a45.78,45.78,0,0,0-29.81,14c-4.43,4.51-8,9.79-12.31,14.43a24.43,24.43,0,0,1-6.86,5.63c-2.74,1.34-6.14.1-8.92-.37a.56.56,0,0,0-.36.06.68.68,0,0,0-.64.77c1,5.87,7.08,10.11,12.92,11.58-4.37.5-8.37-.65-12.87-2.93a17,17,0,0,0-6.33-2.07c-1.92-.16-4.05.85-5.86,1.65a14.4,14.4,0,0,0-10.2,0c-10.78,4.25-12.77,17.83-22,24.15a.54.54,0,0,0-.11,1c4.38,1.46,8.85,2.67,13.41,1.4a12.36,12.36,0,0,0,4.67-3.11c2-1.78,4-2.28,6.23-3-.73,1.15-1.42,2.33-2.12,3.46a28.42,28.42,0,0,1-6.67,7,.52.52,0,0,0,0,.81.57.57,0,0,0,.31.41c5.38,2.51,12.54,1,16.28-3.51a20.51,20.51,0,0,0,2.83-5.12c5.4,1,6.45,7.55,8.38,12a16.47,16.47,0,0,0,3.77,5.5c-1.79-.12-3.59-.26-5.37-.31a.55.55,0,0,0-.5.29.64.64,0,0,0-.38.9c4.78,9.52,16.53,12.46,26.33,10.93,10.85-1.69,21.81-10.48,25.82-20.69a.7.7,0,0,0-1.24-.63C89.69,243.33,82,250.37,72,253.06c-9.72,2.62-18.91-.65-25.65-7.61,7.14,2.06,15.51,1.76,21.72-2.55a73.4,73.4,0,0,0,8.8-7.71A39.58,39.58,0,0,1,87,228.25a.55.55,0,0,0-.35-1c-6.64.94-11.57,6.7-16.31,10.93a23,23,0,0,1-11.71,5.92,23.66,23.66,0,0,1-3.05.31A8.13,8.13,0,0,1,50.46,241c-1.72-2.37-2.59-5.39-3.67-8.08-1.38-3.44-3.72-7.86-7.83-7.59l.4-1a20.33,20.33,0,0,1,5.45-7.95l0,0h0a.88.88,0,0,0,.1-.12l.07-.08a.71.71,0,0,0,.1-.25v0a.64.64,0,0,0,0-.1.73.73,0,0,0-.54-.83c-5.09-1.59-10.52,1.74-14,5.17a15.38,15.38,0,0,0-1.35,1.52c-3.91-.07-7,1.61-9.84,4.16-4.2,3.77-8.57,2.23-13.29,1.7,8.52-4.73,10.21-16.9,19.09-21.47,6.64-3.41,12.74.56,18.27,4.09s11.84,7.12,18.61,7.18c.6,0,.86-.88.23-1.07-7.49-2.25-14-5.81-20.56-10a32.13,32.13,0,0,0-3.46-1.95c1.87-.35,3.66-.83,5.81-.13,3,1,5.61,2.9,8.6,3.94,4.32,1.5,9.51,1.43,13.46-1,8.58-.64,14.09-8.87,19.67-14.52,8.24-8.35,17.89-16.52,30.24-11.72,4.75,1.84,8.82,5.32,12.63,8.61,4.31,3.73,6.05,8.49,9.27,13A42.75,42.75,0,0,0,132.15,214a1.19,1.19,0,0,0-.3,0c-5.76-.19-10.77.32-15.43,4-4.16,3.28-5.91,8.52-7,13.49-1.19,5.52-2.63,10.49-5.93,15.17-3.58,5.08-8.63,7.78-14.24,10.06-.81.33-.33,1.5.47,1.39,9.41-1.24,16.32-9.32,19.68-17.66,2-4.95,2.19-10.37,4.34-15.27,3.24-7.38,10.46-9.12,17.78-8.92a37.42,37.42,0,0,0-1.11,7.74,39.88,39.88,0,0,0,4.34,19.35c-2.61,3.71-4.25,8.13-7,11.8-2.36,3.16-5.38,4.78-8.68,6.74-2.56,1.52-11.95,6.36-8.62,10.63s12,1,15.88-.35c7-2.35,15-5.53,20.25-11a11.56,11.56,0,0,1,1.49,8.64c-.87,3.59-3.71,5.68-6.78,7.32a21.46,21.46,0,0,0-6.16,5.71,42.79,42.79,0,0,1-7.42,7.74c-2.91,2.17-6.09,3.9-8.87,6.25-2.49,2.09-6.29,7-1.45,8.94,6.06,2.45,13.34-.18,18.95-2.65,3.72-1.64,7.17-3.81,10.72-5.77,3.73-2.07,8-3.08,12.08-4.16,7.21-1.91,14.21-4.37,20.35-8.69a29.09,29.09,0,0,0,9.25-10.66l.13,0c15.63,3.06,32.34-.92,46.89-6.67,15-5.92,27.57-15,38.88-26.26,12.23-7.64,26.11-14.67,40.46-16.31,6.09-.7,12.35.88,18.19,2.49,3.52,1,7.95,2.4,11.49.86s1.81-6.53.57-9c-2.72-5.53-8.25-9.66-13.57-12.45S321,203,314.94,203a92.81,92.81,0,0,0-17.21,1c.25-.76.5-1.52.72-2.3.29-1,.55-2,.8-3,11.4-1.41,22.09-9.55,33.72-8.1,2.8.35,7.66,1.2,9.54-1.72,1.38-2.15,1-4.21-.56-6.12-3.46-4.13-10.7-6.31-15.85-7-7.69-1.08-16.95-1.24-24.5,1.25a92.7,92.7,0,0,0-2-16.66q-1-4.52-2.22-8.93a10.32,10.32,0,0,0,4.09,2.14c1.18.38,2.38.64,3.54,1.1s2,1.58,3.15,2.15a.71.71,0,0,0,.94-.61,3.53,3.53,0,0,0,0-.42.51.51,0,0,0,.11-.31,11.1,11.1,0,0,0-2.41-6.93,13.87,13.87,0,0,0,3.42,1c4.69.77,10.34-.66,13.56-4.28h0c1-.34.37-1.77-.55-1.65-6.49.81-12.1-4-16.55-8.1-1.3-1.21-2.53-2.32-3.78-3.32a31.56,31.56,0,0,0,7.86,1.47c3.15.14,6.3-.17,9.45-.2a27.1,27.1,0,0,1,10.55,2.17.7.7,0,0,0,.71-.14.75.75,0,0,0,.2-.93c-1.21-5.08-6.51-8.8-10.74-11.24a29.72,29.72,0,0,0-5.81-2.61l1.37-.3a71.15,71.15,0,0,1,7.39-1.4c3.16-.37,6,.31,9,1,.55.5,1.31,0,1.4-.67a.64.64,0,0,0,0-.34A1,1,0,0,0,334.24,118.91Zm-150.8,44.61c-2.21.54.13-6.27.4-7.27.22-.8-.62-1.9-1.49-1.33-4.89,3.19-10.07,6.14-16.09,6-5.49-.11-9.41-3.75-10.71-8.88-2.14-8.46,2.74-18.36,7.1-25.52,4.23,13.88,15.65,24.36,29.16,29C190.56,159,187,162.64,183.44,163.52ZM41.18,216.84c-2.39,2.41-3.75,6.37-5,9.13-1.56,3.56-3.41,6.63-7.32,7.92-2.49.82-5,.44-7.5.44,3.57-2,5.81-5.58,8-9C32.24,221,36.24,217.72,41.18,216.84Zm80.12-35.7c-8.05-5.07-17-5.29-25.18-.43-8.47,5-13.95,13.37-21.19,19.77-4.19,3.71-9.29,5.13-14.67,3.48a18.34,18.34,0,0,1-10.5-8c3.2,1.29,6.46,1.82,9.74.3,4.27-2,7.62-6.44,10.55-10,3.76-4.51,7.26-9.19,11.69-13.09A43.49,43.49,0,0,1,98,164.3a39.31,39.31,0,0,1,33.08,5.38c8.89,6.06,11.82,15.73,12.56,25.93a52.64,52.64,0,0,0-4.46,5.1C135.66,192.24,129,186,121.3,181.14ZM127,269.62c-1.61.59-15.84,4.71-14.83.68.58-2.29,4.27-4.21,6.06-5.35,2.2-1.4,4.5-2.65,6.69-4.07,5-3.22,8.82-10.18,10.66-16.1.34.61.68,1.22,1,1.82,2.15,3.51,4.71,6.78,7.12,10.11.62.86,1.23,1.72,1.8,2.58C140.48,264.29,133.51,267.21,127,269.62ZM233.37,86.2a.53.53,0,0,0,.22-.34c.56-8.23,4.54-14.44,10.2-20.19,4.63-4.7,10.17-8.85,14-14.31-.51,7.25-4.08,12.88-8.14,19l-.42.62a15.69,15.69,0,0,0-3.66,5.59c-2.1,3.47-3.82,7.19-4,11.14A45.05,45.05,0,0,0,233.37,86.2ZM242.8,88c2-6.73,6-12.38,9.89-18.2l1.7-1.46a102.62,102.62,0,0,1,12.71-9.89,48.8,48.8,0,0,1,28.44-7.63c-7.8,3.44-13.63,11.57-18.79,17.83C273.23,73,267.47,80,263,83.37c-4.76,3.58-7.27,4.44-11.87,8A56.37,56.37,0,0,0,242.8,88Zm10.05,4.17a58.89,58.89,0,0,0,16.58-11.9c7.24-4.19,14.36-8.63,22.62-10.52a42.32,42.32,0,0,1,23.67,1c-9.17,0-18.2,6.59-25.16,11.7-4.79,3.52-9.38,6.79-14.94,9-5.18,2.08-10.73,3.27-16.12,4.73A70.27,70.27,0,0,0,252.85,92.22Zm8,4.95a71.27,71.27,0,0,0,14.37-3.27.5.5,0,0,0,.4.14c4.33-.35,8.39-2.16,12.68-2.84,4.56-.72,9.33.14,13.84.84,6.53,1,13.92,2.45,20.52.72a35.7,35.7,0,0,1-8.37,7.18A45.24,45.24,0,0,1,301,104.76a67.54,67.54,0,0,1-17.2,1.36c-4.46-.15-8.94-1.39-13.39-1.09A83.24,83.24,0,0,0,260.88,97.17ZM323,177.44a33.36,33.36,0,0,1,15.33,5c3.19,2,4.72,6.17-.76,6.45-3.66.19-7.14-.92-10.84-.43-4.19.55-8.36,2.31-12.34,3.66-4.83,1.64-9.7,3-14.57,4.44a80.25,80.25,0,0,0,1.85-18.26C308.51,176.77,316,176.94,323,177.44Zm-3.22-52.34a28.12,28.12,0,0,1,8.76,7.44c-4.48-1.89-10.27-1.3-14.81-1.17A33.78,33.78,0,0,1,302,129.6c-3.37-1.09-6.67-2.54-10.22-2.84a.5.5,0,0,0-.21,1c1.61.69,3.25,1.42,4.9,2.11a24,24,0,0,1,6,4.21c2,2,3.93,4.06,6.1,5.91,3,2.55,7,5.33,11,5.77a17.89,17.89,0,0,1-10.19,1.39c-4.5-.68-7.67-4.51-12.06-5.5-.47-.11-.91.55-.41.82,2.32,1.24,4.35,2.87,6.48,4.27a18.12,18.12,0,0,1,2.05,2.66,16.13,16.13,0,0,1,1.58,3.83c-2.89-1.67-8.13-1.79-10-3.6a.5.5,0,0,0-.33-.14,106.75,106.75,0,0,0-17.38-34.26A68.15,68.15,0,0,0,302.08,122a35.54,35.54,0,0,0,9-.43A36.14,36.14,0,0,1,319.74,125.1Zm-14.29-5.55c-10,.33-18.53-4.59-28-6.77-1.24-1.51-2.53-3-3.87-4.44q-1-1-2-2.07c4.82.48,9.6,1.85,14.48,2.1a58,58,0,0,0,12.63-.78c11.24-.14,23.72,2.15,31.59,9.64C322.36,115.22,313.39,119.29,305.45,119.55Z"/><path class="cls-2" d="M246.69,93.37A12.75,12.75,0,0,0,249,90.3c2-3.67,2.34-8.13,2.77-12.21a33.35,33.35,0,0,0-11.15,6.45,13.85,13.85,0,0,0-3.73,4.88,15.83,15.83,0,0,0-1.29,7.15c.13,1.13,1.82,1,2.68.84A16.48,16.48,0,0,0,246.69,93.37Z"/><path class="cls-15" d="M252,76.59a33.28,33.28,0,0,0-10.76,5.56,16.82,16.82,0,0,0-4.15,4.62c-.62,1.08-2.41,5-1.56,7.77.06.2.4.19.57.07a.69.69,0,0,0,.21-.31c.66-1.55,1.42-5.29,2.32-6.75a15.72,15.72,0,0,1,3.53-3.88,26.75,26.75,0,0,1,4.48-2.9c.47-.25,4.66-1.78,4.68-2-.51,4.83-1.32,11.5-5.65,13.9a1,1,0,0,0,.78,1.78c5.79-2.47,6.21-11.6,6.82-16.88A.91.91,0,0,0,252,76.59Z"/><path class="cls-16" d="M245.82,84.58a17.55,17.55,0,0,0-3.76,2.73c-1.26,1.29-1.31,2.79-1.33,4.47,0,0,0,0,0,0h0c0,.52,1.54.35,2.08.27C246.53,91.57,246.29,84.3,245.82,84.58Z"/><path class="cls-7" d="M158.51,147.59c-.31-4.63,2.55-9,4.39-13.06.31-.67-.65-1.26-1.16-.79-3.57,3.28-6,9.44-4.16,14.16.22.56,1,.2.92-.31Z"/><path class="cls-8" d="M241.7,168.68c2.08-1.76,4.48-4.06,4.36-7a.64.64,0,0,0-1.17-.38c-1.43,2.2-2.24,4.76-3.82,6.88-.29.39.28.84.63.54Z"/><path class="cls-8" d="M241.91,177.31c2.29-1.9,4.21-3.87,5-6.84.16-.64-.71-1.14-1.08-.52-1.44,2.39-3.31,4.4-4.54,6.93-.19.39.37.66.65.43Z"/><path class="cls-8" d="M249.89,165a41.54,41.54,0,0,0,2.22-4.14,7.87,7.87,0,0,0,.33-4.35.47.47,0,0,0-.91,0c-.75,2.79-1.84,5.43-2.35,8.3-.07.38.53.55.71.23Z"/><path class="cls-8" d="M234.31,172.21c1.61-1.92,3.48-3.73,3.77-6.33a.52.52,0,0,0-.86-.41c-2.2,2.47-3.67,4.83-3.71,6.36,0,.54.49.75.8.38Z"/><path class="cls-8" d="M240.81,162.14c.87-2.59,1.73-5.06,1.24-7.83a.58.58,0,0,0-1.12-.06A24.85,24.85,0,0,0,240,162a.41.41,0,0,0,.79.15Z"/><path class="cls-8" d="M231.31,182.18a9.34,9.34,0,0,0,3-2.17,14.49,14.49,0,0,0,2-3.07.4.4,0,0,0-.6-.51,16.82,16.82,0,0,0-2.6,2.24c-.81.89-1.54,1.89-2.35,2.77a.46.46,0,0,0,.51.74Z"/><path class="cls-8" d="M236.55,185c.08-.07.3-.32.39-.32a.87.87,0,0,0,.51-.18,7.28,7.28,0,0,0,.92-.8,4.51,4.51,0,0,0,1.17-2c.11-.42-.44-.93-.8-.52-.48.56-1,1-1.55,1.55a9.18,9.18,0,0,0-.69.73c-.26.32-.34.7-.6,1s.3.88.65.55Z"/><path class="cls-8" d="M246.05,156.55a10.18,10.18,0,0,0,1.49-7.57.48.48,0,0,0-.93,0c-.74,2.39-.75,4.84-1.32,7.25-.1.44.5.81.76.37Z"/><path class="cls-8" d="M224.49,181.09c1-.69,2-1.46,2.87-2.25A4.6,4.6,0,0,0,229,176a.58.58,0,0,0-1-.46,23.37,23.37,0,0,0-2.25,2.44,13.39,13.39,0,0,0-2,2.5.45.45,0,0,0,.68.58Z"/><path class="cls-8" d="M222.71,188c1.74-1.2,3.72-1.8,4.38-4a.43.43,0,0,0-.77-.37,10.57,10.57,0,0,1-2.12,1.8,11.53,11.53,0,0,0-2.07,2c-.28.33.21.88.57.63Z"/><path class="cls-2" d="M167.51,222.65a3.7,3.7,0,0,0-2.49,2.87.82.82,0,0,0,.91,1.06c2-.44,3-2.25,3.35-4.13a.86.86,0,0,0-1-.91,3.32,3.32,0,0,0-2.13,1.65c-.42.7-1.08,1.95-.85,2.77a.83.83,0,0,0,1.33.46c.55-.41.68-1.29.93-1.9a2.4,2.4,0,0,1,1.25-1.36l-1.24-.84a2.86,2.86,0,0,1-1.94,2.68l1,.86a2.38,2.38,0,0,1,1.25-2.24c.46-.28.27-1.14-.32-1Z"/><path class="cls-2" d="M150.69,231.65a5.56,5.56,0,0,0-2.45,4,.86.86,0,0,0,1,.9c2.75-.3,4-2.82,5-5.07a.85.85,0,0,0-.52-1.09c-3.16-.83-5.84,3.18-4.83,6a1,1,0,0,0,1.28.44,6.66,6.66,0,0,0,3.13-5.58c0-.61-.64-1.25-1.28-.87a4.38,4.38,0,0,0-2.4,3.42.71.71,0,0,0,1.29.46,5.89,5.89,0,0,1,1.89-2.27l-1.28-.87a4.79,4.79,0,0,1-2.2,4l1.28.44c-.55-1.47,1.19-3.82,2.76-3.49l-.74-1.14c-.75,1.69-1.69,3.73-3.74,4l1,.68a3.74,3.74,0,0,1,1.47-3.13c.52-.47-.15-1.19-.7-.8Z"/><path class="cls-2" d="M186.37,220.39c.28-.1-.13,0-.17,0l.51,0,0,0a.61.61,0,0,0-.63,0,1.59,1.59,0,0,0-.62,1.64.74.74,0,0,0,.86.59,2.6,2.6,0,0,0,1.62-1.08,3.63,3.63,0,0,0,.65-1.8.87.87,0,0,0-.8-.94,2.71,2.71,0,0,0-2.42,2.95.74.74,0,0,0,1.2.41,3.44,3.44,0,0,0,.8-1.18.78.78,0,0,1,.28-.31c-.11.09.15-.07.15-.07a3.74,3.74,0,0,0,.49-.27l-1.44-.73a2,2,0,0,1-.3,1c-.18.28-.57.46-.86.74l1.21.42a3,3,0,0,1-.07-.34s.05-.24,0-.09q0-.11,0,0a.53.53,0,0,0,.1-.18.65.65,0,0,0,0-.37l-.28.55c.13-.06-.05,0,0,0l.16-.05c.59-.29.15-1.12-.44-.9Z"/><path class="cls-2" d="M150.8,219.67c-2.73-.83-4.28,3.18-4.84,5.17-.14.51.16,1.25.79,1.22,3.25-.13,4.66-4.24,5.32-6.86a1,1,0,0,0-1.12-1.3c-3,.45-4.78,3.71-5.06,6.47a1.06,1.06,0,0,0,1.74.88,9.3,9.3,0,0,0,3.73-6.44,1,1,0,0,0-1.6-.81,5.4,5.4,0,0,0-1.5,1.92c-.32.73.64,1.23,1.18.81s1.07-.83,1.59-1.27l-1.6-.81a7.46,7.46,0,0,1-3.18,5l1.74.88c.16-1.88,1.28-4.36,3.34-4.7l-1.12-1.3c-.47,2-1.27,5.15-3.55,5.7l1.09,1c.1-1.35,1-4.95,2.86-4.63.53.09.7-.76.2-.91Z"/><path class="cls-2" d="M139.08,224.38a10.68,10.68,0,0,0-.24,1.2c-.08.55,0,1.17-.08,1.71-.18.82.86,1.5,1.38.7a6.23,6.23,0,0,0,.68-4.71.9.9,0,0,0-1.62-.34c-.76,1.33-1.53,3.57-.74,5a.73.73,0,0,0,1.33-.08,8.34,8.34,0,0,0,.27-2,5.8,5.8,0,0,1,.62-2l-1.55-.11a4.57,4.57,0,0,1-.38,3.45l1.44-.08a4.85,4.85,0,0,1-.2-2.63c.06-.52-.78-.72-.91-.2Z"/><path class="cls-2" d="M209,209a4.29,4.29,0,0,0,2.6,3.31c1.14.52,3.2.06,3.17-1.52,0-1.34-1.46-2-2.53-2.38a7.1,7.1,0,0,0-3.45-.57,1.07,1.07,0,0,0-.84,1.23c.16,2.48,2.85,3.44,5,3.08a1.06,1.06,0,0,0,.75-1.5c-.85-1.45-2.39-2.53-4.1-2a.73.73,0,0,0-.11,1.39,4.57,4.57,0,0,1,2.32,1.54l.75-1.5c-1.11.19-2.45-.12-2.53-1.41l-.84,1.23c.29,0-.12,0,.11,0a4.62,4.62,0,0,1,.53,0,7.91,7.91,0,0,1,1,.21,9.62,9.62,0,0,1,1.2.41l.33.16c.07,0,.43.3.32.19.18.16.08.11,0-.09s.2-.48.06-.35-.4.07-.69-.05a5.14,5.14,0,0,1-1.94-1.82A.67.67,0,0,0,209,209Z"/><path class="cls-2" d="M246.22,194.22a10.18,10.18,0,0,0-2.1,5.56,1,1,0,0,0,1.11,1c3.59-.2,5.31-5.74,5.39-8.67a1.06,1.06,0,0,0-.7-1.07c-4.27-1.19-6.29,5-6.24,8.23a1.11,1.11,0,0,0,1.29,1.16c3.16-.57,3.62-4.56,4.72-7a1.08,1.08,0,0,0-.92-1.43c-1.28-.08-1.68.71-1.75,1.86a.92.92,0,0,0,1.67.59,1.08,1.08,0,0,0,.28-.42q.27-.56-.38.11l-.92-1.43c-.7,1.48-1.21,5.19-3.11,5.54l1.29,1.16c0-1.56.93-7.08,3.37-6.43l-.7-1.07c0,2.26-1.07,6.4-3.64,7l1.1.74c-.31-1.81.57-3.35,1.26-5,.26-.62-.64-1-1-.51Z"/><path class="cls-3" d="M269.44,193.58a4.48,4.48,0,0,0-.81,3.48.83.83,0,0,0,.76.68c2.92-.13,4.69-6.16,1.55-7.27-2.78-1-2.41,4.5-2,5.88.21.66,1.09,1.22,1.69.58a5.21,5.21,0,0,0,.83-5.66c-.33-.71-1.57-.53-1.56.3,0,1.24.3,2.81-.63,3.81l1.6.32c.06.19-.07-.42-.09-.54a10.06,10.06,0,0,1-.1-1.11,4.81,4.81,0,0,1,.18-1.94l-.37.23q-.61-.19-.28,0a.84.84,0,0,1,.23.28,2.12,2.12,0,0,1,.05,1.32,2.88,2.88,0,0,1-1.45,2.19l1.13.38a3.85,3.85,0,0,1,.07-2.52.48.48,0,0,0-.84-.43Z"/><path class="cls-3" d="M263,203.1c-2.57,1.29-2.72,5.5-2.37,8a1,1,0,0,0,1.18.81c2.21-.45,3.48-3.19,4.18-5.09s.93-4.47-1.09-5.8c-3.68-2.41-4.7,6.38-4.72,8.28a1.15,1.15,0,0,0,1,1.22c3.67.34,4.13-4.28,4.07-6.94a1.13,1.13,0,0,0-2.17-.46,6.66,6.66,0,0,0-.74,2.41.9.9,0,0,0,1.63.58,21.25,21.25,0,0,0,1.09-2l-2-.72c0,1.16.15,5-1.65,4.87l1,1.22a19.72,19.72,0,0,1,.37-3.39c.09-.53.47-3,1.1-3.21-.19.05-.1,0,.06.17a1.28,1.28,0,0,1,.4.73,5,5,0,0,1-.39,2.32c-.35,1.08-1.27,3.46-2.54,3.82l1.1.55c-.64-1.82-.77-5.26,1-6.52.45-.32-.05-1-.53-.8Z"/><path class="cls-3" d="M270.47,203.69a4.36,4.36,0,0,1-.16,1.47.79.79,0,0,0,.48,1c2.62.71,3.07-2.36,2.85-4.25a1,1,0,0,0-1.57-.54,4.8,4.8,0,0,0-1.33,2.1c-.25.78-.35,1.91.41,2.44a.85.85,0,0,0,1.17-.18,1.51,1.51,0,0,0,.22-1,2.89,2.89,0,0,1,.8-2l-1.57-.54c.1.62.27,2.32-.63,2.36l.72.85a6.55,6.55,0,0,0-.25-1.86.57.57,0,0,0-1.13.06Z"/><path class="cls-3" d="M244.29,224.46a3.05,3.05,0,0,0-2.71,2.8,1,1,0,0,0,1.11,1c2.26-.31,3.39-2.51,4-4.46.22-.67-.38-1.61-1.17-1.36a4.63,4.63,0,0,0-2.5,1.79c-.62.87-1.08,2.37-.33,3.26a.91.91,0,0,0,1.42-.09c.39-.52.35-1.25.6-1.85a2.34,2.34,0,0,1,1.46-1.17l-1.43-1.28c-.39,1.27-1,3-2.44,3.31l1.1.75a1.28,1.28,0,0,1,1.06-1.6.56.56,0,0,0-.21-1.1Z"/><path class="cls-3" d="M218.26,230.18c-2,.68-3.22,2.79-4.27,4.45a.91.91,0,0,0,.45,1.36c3.62.79,6.37-3.24,7.42-6.19a1.07,1.07,0,0,0-.64-1.33c-3.5-1.76-7,2.87-7.27,6a1.08,1.08,0,0,0,1,1.16c3.27-.09,5.08-3.29,6.12-6a1,1,0,0,0-1.16-1.36c-2.42.66-4.07,2.78-5,5-.41.95.95,1.49,1.52.77,1.07-1.35,2.12-3.29,3.91-3.75l-1.16-1.36c-.65,1.64-1.91,4.48-4,4.55l1,1.16c.14-1.83,2.23-5.24,4.42-4.17l-.64-1.33c-.83,2.42-2.55,5-5.31,5.14l1,1.19c.5-1.52,1.64-3.6,3.1-4.39a.49.49,0,0,0-.43-.87Z"/><path class="cls-3" d="M227,228.91a5.75,5.75,0,0,0-1.61,2c-.27.55.34,1.05.85,1a3.58,3.58,0,0,0,2.77-3.35.87.87,0,0,0-1-.92c-1.69.2-3.21,2.88-2.15,4.33a.73.73,0,0,0,1.15-.07,10.32,10.32,0,0,0,.59-1.78c.22-.51.72-.7,1.13-1l-1.43-.72a2.36,2.36,0,0,1-1.52,2.08l1.08.73a3.3,3.3,0,0,1,.86-1.67c.33-.44-.3-1-.71-.63Z"/><path class="cls-3" d="M178,246.31a8.23,8.23,0,0,0-1.1.75,2.22,2.22,0,0,0-.62,1.45.76.76,0,0,0,.7.82,3.59,3.59,0,0,0,3.27-3.74c0-.4-.28-.92-.76-.9a2.9,2.9,0,0,0-2.14,1.31,2.48,2.48,0,0,0-.35,2.72c.32.48,1,.27,1.28-.08s.29-1,.54-1.46.72-.68,1.15-1l-1.38-.7a2.24,2.24,0,0,1-1.69,2.36l.89.61c-.09-.65.42-1,.88-1.34s-.14-1.13-.67-.77Z"/><path class="cls-3" d="M180.39,253.81l-.25,0a2.4,2.4,0,0,0-.57.19,2.29,2.29,0,0,0-1,1.23.87.87,0,0,0,.74,1.15c2,.13,3.07-1.91,2.83-3.64a1,1,0,0,0-1.4-.7,3.36,3.36,0,0,0-2,1.78,2.09,2.09,0,0,0,.71,2.78.8.8,0,0,0,1-.48c.24-.48,0-1.06.16-1.49a1.4,1.4,0,0,1,.95-.81l-1.4-.7c.14,1-.46,1.27-1.21,1.64l1.24.84c0-.46.39-.53.63-.79a.59.59,0,0,0-.49-1Z"/><path class="cls-3" d="M280,184.24c-2.44.95-2.06,5.26-1.55,7.24a1.11,1.11,0,0,0,1.28.87c3.81-1,5.38-9.62,1.69-11.59a1.14,1.14,0,0,0-1.38.08c-1.42,1.52-1.75,4-2,6-.24,1.62-.65,4.27.83,5.44a1.76,1.76,0,0,0,2.1-.25c.95-.67.92-2.34.91-3.34s-.16-2.19-.25-3.29c-.07-.88,0-2.23-.8-2.8s-2,.16-1.68,1.1a2.08,2.08,0,0,0,.35.67.82.82,0,0,0,1,.2h-.07l-1.18-.59a15.87,15.87,0,0,1,.25,3.23,15,15,0,0,1,0,2.49l-.06.38q-.19.62.9.39a1.69,1.69,0,0,1-.1-.51,13.28,13.28,0,0,1,.28-4c.16-1,.36-2.58,1.07-3.34l-1.38.08c2.06,1.1.94,6.95-1.11,7.65l1.47.5c-.72-2-1-3.9.24-5.68a.6.6,0,0,0-.76-.87Z"/><path class="cls-3" d="M283.86,174.36a6.29,6.29,0,0,0-.15,2.91.89.89,0,0,0,1.71.13,3.86,3.86,0,0,0-.46-4,.93.93,0,0,0-1.46.09c-.63,1.16-.87,3,.45,3.77.55.34,1.48-.1,1.26-.83s-.57-1.19-.18-1.9l-1.46.09a2.16,2.16,0,0,1,.18,2.22l1.51-.29a3.43,3.43,0,0,1-.35-1.94c0-.57-.87-.85-1-.22Z"/><path class="cls-8" d="M231,109.82c-3.41,1.08-5.36,5.56-5.05,8.91a1.1,1.1,0,0,0,.73.86c2.43.7,4.3-1.79,5.31-3.63s2.11-4.62.38-6.22c-3.43-3.14-6.06,6.19-6.28,8.26a1.22,1.22,0,0,0,1.11,1.31c3.24.06,4.11-4.4,4.53-6.87.22-1.32-1.73-1.61-2.2-.47a3.74,3.74,0,0,0-.25,1,1,1,0,0,0,1.61.81,8.09,8.09,0,0,0,.64-.76l-2.07-.73c-.17.86-.88,4.64-2.07,4.63l1.11,1.31a14.94,14.94,0,0,1,.91-3.39c.24-.68,1-3.06,1.64-3.29-.3.1-.42-.32-.2.1a1.27,1.27,0,0,1,0,.6,6.75,6.75,0,0,1-.82,2.42c-.48.94-1.61,3-2.9,2.76l1,.92c-.64-2.44.86-6.32,3.18-7.44.55-.27.26-1.25-.35-1.05Z"/><path class="cls-8" d="M230.6,121.53a3.59,3.59,0,0,0-1.34,2.84c0,.47.32,1.05.88,1,2.36-.09,4-2.72,3.66-4.94a1,1,0,0,0-1.19-.81,3.87,3.87,0,0,0-2.41,1.76,3.74,3.74,0,0,0-.72,3.25,1,1,0,0,0,1.71.12c.54-.94.47-2.8,1.8-3.13l-1.19-.81a2.48,2.48,0,0,1-1.75,2.66l1,.52a1.5,1.5,0,0,1,.47-1.42c.6-.67-.22-1.7-.94-1.08Z"/><path class="cls-8" d="M236.22,109.33a1.94,1.94,0,0,0-.72,1.51.92.92,0,0,0,1.31.89,2.29,2.29,0,0,0,.77-3.49,1,1,0,0,0-1.38-.09,3,3,0,0,0-.84,1.4,1.94,1.94,0,0,0,.48,2,.89.89,0,0,0,1.05,0,1.12,1.12,0,0,0,.35-1c0-.11,0-.21,0-.32l0-.21q0,.12,0,0a.94.94,0,0,1,.21-.39l-1.38-.09c0,.05.09.15.05,0a1.16,1.16,0,0,1,0,.18c0-.23-.05.15,0,0a1,1,0,0,1-.38.52l1.11-.07c.17.14.08.42.17.14a1.51,1.51,0,0,0,.08-.64c0-.47-.64-.58-1-.33Z"/><path class="cls-8" d="M227.39,105.12c-1.82.27-2.34,2.32-2.45,3.88a1,1,0,0,0,1.16,1c2.52-.75,2.86-4,2.88-6.22a1,1,0,0,0-.9-1.06c-3.47-.58-5,7.18-2.08,7.07a1,1,0,0,0,1-1.16c-.06-.33-.28-.56-.36-.86a2.69,2.69,0,0,1,0-1.27c.11-.48.52-1.9,1.2-1.81l-.9-1.06c0,1.39,0,3.87-1.54,4.54l1.4.7a2.41,2.41,0,0,1,.85-2.75.55.55,0,0,0-.34-1Z"/><path class="cls-8" d="M221,100.9a2,2,0,0,0,.88,2.87.93.93,0,0,0,1.29-.25,3,3,0,0,0-2.13-4.27,1,1,0,0,0-.92.44,2.9,2.9,0,0,0-.34,2.72,2,2,0,0,0,2.55,1,.89.89,0,0,0,.11-1.52,2.33,2.33,0,0,0-.62-.32.41.41,0,0,1-.18-.12,1,1,0,0,1,.17-.66l-.92.44c.82.07.57,1.33.62,1.9l1-1.1c-.51,0-.63-.41-.55-.85a.51.51,0,0,0-.93-.33Z"/><path class="cls-8" d="M187.32,104.92a3.13,3.13,0,0,0-2.25,1.46.8.8,0,0,0,.6,1.24c1.82.14,3.29-2,3.88-3.46a.92.92,0,0,0-.79-1.21,4.92,4.92,0,0,0-3,1.07c-.75.56-1.86,1.85-1.32,2.83a.76.76,0,0,0,1,.34c.61-.25.8-1,1.23-1.44a2.92,2.92,0,0,1,1.9-1l-.79-1.21a4.15,4.15,0,0,1-2.45,2.56l1.15.78a1.33,1.33,0,0,1,1-1,.51.51,0,0,0-.19-1Z"/><path class="cls-8" d="M208.73,104.64a1.88,1.88,0,0,1-.37-.42l.14.43v-.1c.13-1.07-1.64-1.06-1.51.08.24,2,3,2,4.47,1.8A.88.88,0,0,0,212,105a6.71,6.71,0,0,0-5-2.07.9.9,0,0,0-.72,1.06,2.54,2.54,0,0,0,2.47,2,.79.79,0,0,0,.33-1.53c-.37-.16-.91-.35-1-.79l-.72,1.06a5,5,0,0,1,3.56,1.59l.33-1.58c-.8.14-2.33.37-2.71-.57l-.35,1,.09-.05-.45,0,.61.28c.5.21.77-.49.4-.79Z"/><path class="cls-17" d="M211.3,43.86c-.75,11.38-.86,22.82-1,34.23,0,3.72-.86,8.76.36,12.37.71,2.08,7.16,2.42,8.82,2.46,3.93.09,7.85-2.17,10.86-4.52a1,1,0,0,0,.23-1.16c-5.33-14.82-12.07-29.16-18.32-43.59-.29-.67-1.31-.17-1,.5,6.21,14.32,12.51,29.08,17.6,43.94l.23-1.16c-3.72,2.81-7.76,4.44-12.46,3.76A17.43,17.43,0,0,1,212,89.22c.77.35.42.4.34-.61-.43-5.09-.22-10.29-.2-15.39,0-9.76.31-19.53.15-29.29,0-.61-.92-.71-1-.08Z"/><path class="cls-17" d="M211.13,63.14c2.79,1.9,6.72-.89,7.31-3.81.1-.49-.56-.72-.89-.45-.88.73-1.57,1.65-2.47,2.37a7.06,7.06,0,0,1-3.8,1.15.41.41,0,0,0-.15.74Z"/><path class="cls-17" d="M210.92,72.49c3.47,2.86,10.84-.28,11-4.84,0-.51-.69-.84-1-.35-2.2,3.69-5.58,4.81-9.74,4.42a.42.42,0,0,0-.27.76Z"/><path class="cls-17" d="M210.74,82.3c4.46,3.6,13.42.67,15.19-4.7.16-.47-.45-1-.84-.57-4,4-8.31,5.7-13.94,4.47a.45.45,0,0,0-.4.8Z"/><path class="cls-18" d="M168.75,198.35c3.72-1.23,7.44-1.57,10-4a.61.61,0,0,0-.46-1,14.84,14.84,0,0,0-10,4.09C167.89,197.82,168.18,198.53,168.75,198.35Z"/><path class="cls-18" d="M187,192.49c5-.49,14.7-.12,21.07,1.68.8.23,1-.86.29-1.26-6-3.24-14.15-5-21.55-1.56C186.16,191.65,186.34,192.55,187,192.49Z"/><path class="cls-19" d="M213.55,198.57c.7,0,.8-1.07.12-1.22-8.54-2-25.55-1.29-37.73,3.17-11,4-23.11,12.2-26.94,23.88-.24.73.83,1,1.2.45C163,204.63,190.75,197,213.55,198.57Z"/><path class="cls-20" d="M217.14,202c-18.41-3.7-41.32,1.67-55.37,15.66-.53.53.22,1.45.82,1A75.36,75.36,0,0,1,187.88,207c2.2-.58,4.4-1,6.6-1.41-20.6,6.28-39.28,21.72-46.66,41.63-.2.55.71,1,1,.55a142.4,142.4,0,0,1,9-13,70.31,70.31,0,0,1,17.23-15.39c8.35-5.61,16.74-10.2,26.32-13.05a146.74,146.74,0,0,1,15.6-2.84A.73.73,0,0,0,217.14,202Z"/><path class="cls-19" d="M206.41,210.93c.75-.23.59-1.48-.23-1.38-9.75,1.21-20.2,6.35-28.15,12-8.29,5.85-16.6,15.94-20.13,25.5-.22.6.73,1.1,1.12.6,6.39-8.32,11.37-15.56,19.81-22C186.73,219.54,197,213.82,206.41,210.93Z"/><path class="cls-18" d="M207.17,215.1c-3.9.47-7.42,2.2-11,3.81a60.89,60.89,0,0,0-12.5,7.27c-6.47,5-12.93,12.5-15.48,20.4a.58.58,0,0,0,1,.53c5.12-6.06,9.91-12.05,16-17.28a79.48,79.48,0,0,1,22.2-13.22C208.19,216.31,208.1,215,207.17,215.1Z"/><path class="cls-21" d="M249.44,203.12c-2.44-1.22-7.57-3.66-10.31-4.24.25-2.63.83-7.55.45-10.95a1,1,0,0,0-1.61-.87,49,49,0,0,0-7.55,8.26c-4.46-1.27-9.14-2.66-11.13-2.92-.52-.51-1.6.06-1.27.78,1,2.07,4.37,6.24,6.69,9.82-2.71,3.16-6.05,6.79-8.76,9.87-.66.75-.15,2.25.89,2,3.94-1,8-1.92,12.14-3.28,1.44,2.34,4.52,7.47,5.89,8.89.62.65,1.6.21,2.18-.66,1.89-2.82.37-7.68.82-11.53,2.91-.87,8.47-2.21,11.36-3.15A1.11,1.11,0,0,0,249.44,203.12Z"/><path class="cls-21" d="M233.34,228.71a1.77,1.77,0,0,0-.76-2.48,3.08,3.08,0,0,0-2.71,0,3,3,0,0,0-1.19.73c-1.81,1.94.73,3.57,2.61,3.19a3.12,3.12,0,0,0,1.14-.49,4,4,0,0,0,.51-.43l.17-.19Z"/><path class="cls-21" d="M247.87,184.41a1,1,0,0,0,.92-.1,2.37,2.37,0,0,0,.8-.92c1.5-2.61-2-4-2.74-1.22A2.1,2.1,0,0,0,247.87,184.41Z"/><path class="cls-21" d="M251.4,187.2a1.75,1.75,0,0,0,2.42.1,1.67,1.67,0,0,0,.35-.35,1.18,1.18,0,0,0,.19-.59,1.57,1.57,0,0,0-2.81-1.09A1.36,1.36,0,0,0,251.4,187.2Z"/><path class="cls-18" d="M224.51,206.81a17.53,17.53,0,0,0-2.28,2.4c-.47.52-.18,1.65.68,1.4,2.3-.67,3.74-2.86,4.56-5a.86.86,0,0,0-1-1.12c-2.48.38-4.46,2.68-5.42,4.89-.32.73.75,1.49,1.31.89,1.41-1.51,2.14-3.73,4.43-4.1l-1-1.12a6.47,6.47,0,0,1-3.46,4l1.16.79a4.86,4.86,0,0,1,1.59-2.34.49.49,0,0,0-.64-.74Z"/><path class="cls-18" d="M223.85,196.39a4.37,4.37,0,0,0,.82,1.29,2.3,2.3,0,0,0,.67.45c.26.13.57.07.83.17a.69.69,0,0,0,.91-.59,2.59,2.59,0,0,0-1.16-2.21,3.26,3.26,0,0,0-2.52-.31.81.81,0,0,0-.3,1.45,6.79,6.79,0,0,0,2.49,1.53c.66.11,1-.75.61-1.21a5,5,0,0,0-1-.79c-.4-.28-.8-.58-1.21-.85l-.3,1.45a1.9,1.9,0,0,1,1.35,0c.45.25.53.75.72,1.18l.31-.92c-.55.32-1.25-.87-1.48-1.17s-1,0-.78.52Z"/><path class="cls-18" d="M234.71,193.58c-.59.37-1.14.4-1.5,1.08s.23,1.47.94,1.09a7.13,7.13,0,0,0,2.34-2.06.77.77,0,0,0-.78-1.19,4.06,4.06,0,0,0-2.12,1.27c-.5.59-1.24,1.71-.74,2.48a.65.65,0,0,0,.85.29c.57-.32.66-.94,1-1.45A2.75,2.75,0,0,1,236,194l-.78-1.19a9,9,0,0,1-1.89,1.69l1.19.81c.13-.37.59-.47.87-.72.52-.45-.07-1.41-.68-1Z"/><path class="cls-18" d="M241.52,201.57c-.18,0-.21-.08-.36-.16a1.29,1.29,0,0,0-.73-.17c-.51,0-1.06.54-.73,1.07a4,4,0,0,0,1.08,1.2,5.66,5.66,0,0,0,1.74.69.9.9,0,0,0,1.18-1,3.28,3.28,0,0,0-4-2.38.9.9,0,0,0-.64,1.28,1.83,1.83,0,0,0,1.62.85.69.69,0,0,0,.11-1.38c-.14,0-.12-.06-.1,0l.08.42a1.26,1.26,0,0,0,0-.45l-.71,1a2.5,2.5,0,0,1,1.3.16c.39.17.54.66.67,1l.88-1.29a2.7,2.7,0,0,1-2-1l-.07,1.05s0,0,.07,0c-.21,0-.14,0,0,.05a1.63,1.63,0,0,0,.62,0c.61,0,.51-1-.06-1Z"/><path class="cls-18" d="M233.19,214.22a18,18,0,0,0,.45,3c.12.63,1.12,1,1.46.3.81-1.56,1.37-3.42.17-4.94a.77.77,0,0,0-1.09-.07,3.46,3.46,0,0,0-.76,3c.08.78,1.18.61,1.29-.07s0-1.32.49-1.8l-1.09-.07c.68.89.13,2.16-.34,3l1.39.1a13.53,13.53,0,0,1-.66-2.53c-.11-.73-1.32-.68-1.3.07Z"/><path class="cls-3" d="M250.53,202.95c-1.59-3.11-7-4.14-10.4-4.59.55-3.1,1.35-8.2.1-11.07-1.79-4.13-8.94,4.39-11,6.93-2.55-1.22-10.09-4.12-11.36-1.92a.53.53,0,0,0-.21.33c-.58,3.16,2.1,5.79,3.92,8,.61.75,1.89,1.72,1,2.73-1.14,1.37-2.37,2.65-3.58,4s-2.32,2.48-3.44,3.76c-1.42,1.62-1.48,3.36.81,3.92,3.92.95,8.31-1.74,12.08-2.47.39,2,1.87,3.92,3.06,5.45,1,1.32,2.87,3.35,4.77,3s2.31-3.11,2.48-4.59a36.07,36.07,0,0,0-.18-7.16C241.31,208.89,252.54,206.88,250.53,202.95ZM245.28,206c-2.37.74-4.78,1.29-7.16,2a.64.64,0,0,0-.46.44.72.72,0,0,0-.37.7c.24,3,1.1,7.51-.62,10.16-1.44,2.23-6.85-6-7.26-7.31a.49.49,0,0,0-.52-.37.5.5,0,0,0-.33-.08,45.68,45.68,0,0,0-6.11,1.19c-.74.17-7.46,1.64-5.56-.79,2.36-3,5.34-5.54,7.71-8.56a.74.74,0,0,0,.05-.75c-1.66-3.39-5-5.55-5.82-9.3,1.61-1.67,8.54,1.62,10.21,2.52a.82.82,0,0,0,1.11-.21,39.57,39.57,0,0,1,5.73-6.32c.37-.32,2.81-2.29,3.08-.87a13.86,13.86,0,0,1,.13,2.48c0,2.52-.38,5-.48,7.52a.74.74,0,0,0,.17.53.69.69,0,0,0,.59.65,24.61,24.61,0,0,1,9,2.92C251.09,204.26,246.58,205.6,245.28,206Z"/><path class="cls-8" d="M159.08,198.22a4.25,4.25,0,0,0-2.1,2.71c-.13.57.28,1.35,1,1.15a4.36,4.36,0,0,0,3.14-3.48.93.93,0,0,0-1.1-1,5.52,5.52,0,0,0-2.19,1.28,3.16,3.16,0,0,0-1.32,2.4.84.84,0,0,0,1.18.59c.58-.25.88-.89,1.29-1.35a4.24,4.24,0,0,1,1.63-1.17l-1.34-.91a2.61,2.61,0,0,1-1.83,2l1.25.85a2.68,2.68,0,0,1,1-2.16c.47-.4-.05-1.21-.6-.91Z"/><path class="cls-8" d="M168.22,187.6a9.45,9.45,0,0,0-6.86,4.61,1,1,0,0,0,.5,1.53c1.61.55,3.53-.57,4.84-1.41s3-2.13,3.16-3.85a1.08,1.08,0,0,0-1.26-1.13,8.56,8.56,0,0,0-6.83,4.43c-.39.82.51,1.63,1.29,1.5a8.35,8.35,0,0,0,3.84-2c.64-.51.1-1.76-.73-1.49a18.14,18.14,0,0,1-3.54,1.26l1.29,1.5c.8-1.78,3.23-2.94,5.08-3.11l-1.26-1.13c0,1-1.54,1.86-2.25,2.32-.86.55-2.14,1.36-3.21,1.14l.87,1.35a7.54,7.54,0,0,1,5.31-4.27c.83-.14.56-1.31-.24-1.25Z"/><path class="cls-8" d="M178.27,186.49a5.44,5.44,0,0,0-3.83,1.44.83.83,0,0,0,.47,1.43,6,6,0,0,0,5.45-2.28.82.82,0,0,0-.4-1.23,4.08,4.08,0,0,0-3.08.27c-.91.38-2.36,1.17-2.66,2.18-.15.49.27,1.16.85,1,1.44-.43,2.6-2.51,4.35-1.89l-.26-1.39a5,5,0,0,1-4.1,1.73l.61,1.27a3.8,3.8,0,0,1,2.67-1.48c.56-.11.55-1.06-.06-1Z"/><path class="cls-8" d="M144.94,205.94a9.11,9.11,0,0,0-1.26,2.73c-.18.52.3,1.21.89,1,1.92-.57,2.4-2.67,2.64-4.39a.85.85,0,0,0-1-.9c-1.74.48-3.53,3-2.66,4.83a.88.88,0,0,0,.73.5c1.17,0,.82-1.15,1.05-1.91a3,3,0,0,1,1.41-1.82l-1.22-.83a3.29,3.29,0,0,1-1.46,3l1.14.77a5.89,5.89,0,0,1,.8-2.33.65.65,0,0,0-1.07-.73Z"/><path class="cls-8" d="M148.5,209.12a4.59,4.59,0,0,0-.71,1.67.82.82,0,0,0,1.18.8,2.74,2.74,0,0,0,1.33-3.05.81.81,0,0,0-1.14-.57,2.81,2.81,0,0,0-1.51,2.87c.14.53.94.84,1.26.26.2-.35.29-.73.45-1.1a1.93,1.93,0,0,1,.68-.71l-1.32-.46a1.1,1.1,0,0,1-.47,1.28l1.17.58a2.35,2.35,0,0,1,.15-1,.6.6,0,0,0-1.06-.54Z"/><path class="cls-8" d="M201.88,180.11c-2.79-.12-7.77-.26-8.57,3.26a1.11,1.11,0,0,0,.65,1.37c1.67.73,4.1.34,5.83.1,1.37-.19,4.17-.66,4.14-2.54-.07-4.33-9.81-2.23-10.16,1.41a1.21,1.21,0,0,0,1.09,1.28,10.22,10.22,0,0,0,4-.28,16,16,0,0,0,3.9-1.19,1,1,0,0,0-.35-1.83c-2.48-.23-4.83,1.33-7.38.93l1.09,1.28c.08-.9,2.55-1.35,3.2-1.47a5.06,5.06,0,0,1,2-.08.52.52,0,0,1,.36.21c-.3-.32.35-.77-.15-.5a9.74,9.74,0,0,1-3.75.77,8.21,8.21,0,0,1-3.17-.11l.71,1.09c.33-2.25,4.74-2,6.36-2,1.07,0,1.22-1.62.14-1.67Z"/><path class="cls-8" d="M210.46,179.14a3.47,3.47,0,0,0-4.12.66.94.94,0,0,0,.46,1.41,4.57,4.57,0,0,0,4.34-1,1,1,0,0,0-.57-1.74c-1.46-.24-3.7,0-4,1.77a.77.77,0,0,0,1.1.75,4.18,4.18,0,0,1,2.75-.54l-.57-1.74a2.92,2.92,0,0,1-2.64.63l.81,1.25c.33-.85,1.54-.78,2.28-.66.5.08.61-.66.18-.83Z"/><path class="cls-8" d="M205.37,185.74a3.85,3.85,0,0,0-2.29.51.94.94,0,0,0,.34,1.77,3.25,3.25,0,0,0,3.88-1.55c.31-.61-.29-1.25-.86-1.32a6.51,6.51,0,0,0-2.54.17c-.91.25-2.13,1.09-1.5,2.19a.93.93,0,0,0,1.58.11c.07-.1.32-.33.1-.19a1.7,1.7,0,0,1,.6-.21,4.83,4.83,0,0,1,1.6-.08l-.86-1.32c-.29.62-1.33.44-1.85.36l.7,1.46a1.93,1.93,0,0,1,1.17-.67.61.61,0,0,0-.07-1.21Z"/><path class="cls-8" d="M186.8,186a2.59,2.59,0,0,1-.83,0,.84.84,0,0,0-.9.77.85.85,0,0,0,1,.89,5.17,5.17,0,0,0,1.51-.44.9.9,0,0,0,.11-1.53,1.31,1.31,0,0,0-1.36-.2,1.35,1.35,0,0,0-.46.4c-.12.16.14-.13,0,0a1.27,1.27,0,0,0-.2.26.76.76,0,0,0,.37,1.14,1.06,1.06,0,0,0,.87-.07,3.32,3.32,0,0,0,.33-.22.58.58,0,0,1-.58.1l0,0,.11-1.53a8,8,0,0,1-1,.39l1,.89v-.14l-.12.33c-.1.11,0,0,.07,0l.43-.15c.57-.22.23-1.07-.33-1Z"/></g></g></svg>