<svg xmlns="http://www.w3.org/2000/svg" viewBox="0 0 350 350"><defs><style>.cls-1,.cls-13{fill:#26bdd1;}.cls-2,.cls-4{fill:#00488e;}.cls-3{fill:#f8fed2;stroke:#00b7ff;stroke-width:0.48px;}.cls-12,.cls-3,.cls-9{stroke-miterlimit:22.93;}.cls-10,.cls-13,.cls-14,.cls-15,.cls-16,.cls-17,.cls-18,.cls-19,.cls-20,.cls-3,.cls-4,.cls-5,.cls-6,.cls-7,.cls-8,.cls-9{fill-rule:evenodd;}.cls-5{fill:#019dcb;}.cls-6{fill:#03bddc;}.cls-7{fill:#c4ffff;}.cls-12,.cls-14,.cls-7{opacity:0.5;}.cls-11,.cls-8{fill:#fff;}.cls-12,.cls-17,.cls-9{fill:#fc0;}.cls-12,.cls-9{stroke:#f60;stroke-width:0.19px;}.cls-10{fill:#c63;}.cls-11{opacity:0.82;}.cls-14{fill:#039;}.cls-15,.cls-22{fill:#05a4e2;}.cls-16{fill:#f93;}.cls-18{fill:#ff0;}.cls-19,.cls-21{fill:#024056;}.cls-20{fill:#087fa3;}.cls-23{fill:none;}</style></defs><title>Ico_inicio_nave</title><g id="Capa_2" data-name="Capa 2"><g id="Arte"><rect class="cls-1" x="173.52" y="8.67" width="2.79" height="75.67"/><rect class="cls-1" x="173.49" y="8.67" width="2.79" height="20.24"/><rect class="cls-2" x="174.05" y="19.2" width="1.65" height="28.91" rx="0.48" ry="0.48"/><path class="cls-3" d="M174.92,48.62c19.41,0,35.18,31.66,35.21,70.76S194.49,224.49,175.07,224.5s-35.21-66-35.24-105.06S155.5,48.64,174.92,48.62Z"/><path class="cls-4" d="M174.6,118.13a19.58,19.58,0,1,0-19.5-19.56A19.57,19.57,0,0,0,174.6,118.13Z"/><path class="cls-5" d="M173.81,118.13a18.78,18.78,0,1,0-18.7-18.76A18.77,18.77,0,0,0,173.81,118.13Z"/><path class="cls-4" d="M174,116.13a15.64,15.64,0,1,0-15.57-15.62A15.63,15.63,0,0,0,174,116.13Z"/><path class="cls-6" d="M175,115.23a15,15,0,1,0-14.94-15A15,15,0,0,0,175,115.23Z"/><path class="cls-7" d="M177.48,112.23a15,15,0,0,1-12.6-23.06,15,15,0,1,0,22.67,19.12l-.24.21A14.82,14.82,0,0,1,177.48,112.23Z"/><path class="cls-7" d="M172,80.88a18.79,18.79,0,0,1,4.5,37A18.78,18.78,0,1,0,169,81.12,18.73,18.73,0,0,1,172,80.88Z"/><path class="cls-8" d="M174.95,18.61a5.39,5.39,0,0,0,5.46-5.3,5.47,5.47,0,0,0-10.93,0A5.39,5.39,0,0,0,174.95,18.61Z"/><path class="cls-9" d="M174.72,18.63a5.27,5.27,0,1,0-5.28-5.27A5.28,5.28,0,0,0,174.72,18.63Z"/><path class="cls-10" d="M171.61,9.13a4.92,4.92,0,0,0-2.15,4.33,5.32,5.32,0,0,0,4.74,5.15,5,5,0,0,0,2.5-.36C171.1,18.44,167.91,13.16,171.61,9.13Z"/><path class="cls-10" d="M179.4,12.88c0,2.43-.63,3.45-1.47,4.36,1.33-.86,2-2.12,2-4.3s-2.26-4.65-4.82-4.87a4.85,4.85,0,0,0-2.12.29C175.7,7.92,179.4,10.44,179.4,12.88Z"/><circle class="cls-11" cx="176.36" cy="10.1" r="1.49"/><circle class="cls-12" cx="175.08" cy="13.23" r="5.27"/><path class="cls-13" d="M157.6,57.81l34.65,0a31.21,31.21,0,0,0-7-6.1l-20.56,0A31.21,31.21,0,0,0,157.6,57.81Z"/><path class="cls-13" d="M155,61.17a56.79,56.79,0,0,0-3.79,6.11l47.54,0a56.81,56.81,0,0,0-3.8-6.1Z"/><path class="cls-13" d="M149.47,70.64q-1.37,2.9-2.57,6.1L203,76.69q-1.2-3.2-2.58-6.1Z"/><path class="cls-14" d="M184.53,216.87c-19.41,0-35.21-66-35.24-105.06,0-26.14,7-49,17.44-61.24C151.27,58,139.8,86,139.83,119.44c0,39.1,15.83,105.08,35.24,105.06,4.09,0,8-2.93,11.65-7.92A8.85,8.85,0,0,1,184.53,216.87Z"/><path class="cls-4" d="M174.41,155.08a10,10,0,1,0-10-10A10,10,0,0,0,174.41,155.08Z"/><path class="cls-5" d="M174,155.08a9.62,9.62,0,1,0-9.58-9.61A9.61,9.61,0,0,0,174,155.08Z"/><path class="cls-4" d="M174.08,154.06a8,8,0,1,0-8-8A8,8,0,0,0,174.08,154.06Z"/><path class="cls-6" d="M174.6,153.6a7.68,7.68,0,1,0-7.65-7.68A7.68,7.68,0,0,0,174.6,153.6Z"/><path class="cls-7" d="M175.88,152.06a7.69,7.69,0,0,1-6.45-11.81A7.66,7.66,0,1,0,181,150l-.12.11A7.59,7.59,0,0,1,175.88,152.06Z"/><path class="cls-7" d="M173.07,136a9.62,9.62,0,0,1,2.3,19,9.62,9.62,0,1,0-3.84-18.83A9.6,9.6,0,0,1,173.07,136Z"/><path class="cls-15" d="M143.84,162.33l61.4-.06q.45-2.92.83-5.81l-63.08.06Q143.38,159.41,143.84,162.33Z"/><path class="cls-16" d="M175.07,221.7c15.54,0,28.15,21.66,28.18,48.41S178,342,175.18,342,147,296.91,147,270.16,159.53,221.71,175.07,221.7Z"/><path class="cls-17" d="M175.07,221.7c10.38,0,18.81,15.58,18.83,34.82S177,308.26,175.15,308.26s-18.82-32.46-18.84-51.7S164.69,221.71,175.07,221.7Z"/><path class="cls-18" d="M175.07,221.7c10.38,0,18.81,11.45,18.82,25.61S177,285.36,175.13,285.36s-18.82-23.87-18.83-38S164.69,221.71,175.07,221.7Z"/><path class="cls-8" d="M175.07,221.7c7.77,0,14.07,9.06,14.08,20.24S176.54,272,175.12,272,161,253.15,161,242,167.31,221.71,175.07,221.7Z"/><path class="cls-19" d="M149.38,183.85l-19.84,20.3L132,258.83h3.05l6.31-36.62,18.7-10.8C156,204.2,152.41,194.55,149.38,183.85Z"/><path class="cls-20" d="M148.88,185.2l-18.18,19.3,2.18,53.3h1.63l5.92-36.31,18.24-10.29A126.08,126.08,0,0,1,148.88,185.2Z"/><path class="cls-15" d="M131.66,204.12l26,6.17a117.6,117.6,0,0,1-9.06-24.12Z"/><path class="cls-15" d="M157.61,211.12l-26.26-6.23,0,.05.06,1.52L140.48,221l17.2-9.7Z"/><polygon class="cls-15" points="139.86 221.8 131.37 208.28 133.22 253.73 134.66 253.72 139.86 221.8"/><path class="cls-19" d="M200.59,183.81l19.88,20.26-2.39,54.68H215l-6.38-36.61-18.72-10.77C194,204.16,197.58,194.51,200.59,183.81Z"/><path class="cls-20" d="M201.09,185.15l18.22,19.27-2.08,53.3H215.6l-6-36.3-18.26-10.26A126.08,126.08,0,0,0,201.09,185.15Z"/><path class="cls-15" d="M218.34,204l-26,6.21a117.59,117.59,0,0,0,9-24.14Z"/><path class="cls-15" d="M192.4,211.09l26.25-6.28,0,.05-.06,1.52-9.08,14.52-17.22-9.67Z"/><polygon class="cls-15" points="210.17 221.74 218.64 208.2 216.86 253.65 215.43 253.65 210.17 221.74"/><path class="cls-15" d="M206.12,160l-62.21.06q.56,3.06,1.18,6.1l59.87-.05Q205.57,163,206.12,160Z"/><path class="cls-15" d="M203.5,172.8l-57,.05q.72,3.08,1.5,6.1l54,0Q202.79,175.89,203.5,172.8Z"/><rect class="cls-21" x="165.4" y="218.98" width="19.33" height="6.03"/><rect class="cls-22" x="166.01" y="219.64" width="18.13" height="4.67" rx="1.35" ry="1.35"/><rect class="cls-21" x="166.52" y="220.1" width="17.1" height="3.83" rx="1.1" ry="1.1"/><rect class="cls-21" x="171.91" y="183.86" width="6.35" height="75.67"/><rect class="cls-21" x="171.89" y="183.86" width="6.35" height="20.24"/><rect class="cls-22" x="172.59" y="184.54" width="4.91" height="18.99" rx="1.42" ry="1.42"/><rect class="cls-22" x="172.62" y="205.07" width="4.91" height="53.71" rx="1.42" ry="1.42"/><rect class="cls-22" x="171.9" y="203.86" width="6.35" height="0.49" rx="0.14" ry="0.14"/><rect class="cls-23" width="350" height="350"/></g></g></svg>