<svg xmlns="http://www.w3.org/2000/svg" xmlns:xlink="http://www.w3.org/1999/xlink" viewBox="0 0 350 350"><defs><style>.cls-1{fill:none;}.cls-2{fill:url(#Degradado_sin_nombre_23);}.cls-3{fill:url(#Degradado_sin_nombre_23-2);}.cls-4{fill:#e6e7e8;}.cls-5{fill:#fff;}.cls-6{fill:#dbdcdd;}.cls-7{fill:#d0d2d3;}.cls-8{fill:#808184;}.cls-9{fill:#6ac9d4;}.cls-10{fill:#58a8b2;}.cls-11{fill:url(#Degradado_sin_nombre_23-3);}.cls-12{fill:url(#Degradado_sin_nombre_23-4);}</style><linearGradient id="Degradado_sin_nombre_23" x1="-13001.82" y1="5868.13" x2="-12985" y2="5868.13" gradientTransform="translate(-12828.55 5984.44) rotate(180)" gradientUnits="userSpaceOnUse"><stop offset="0" stop-color="#828282"/><stop offset="0.51" stop-color="#f2f2f2"/><stop offset="1" stop-color="#949494"/></linearGradient><linearGradient id="Degradado_sin_nombre_23-2" x1="-12986.06" y1="5852.3" x2="-12969.24" y2="5852.3" gradientTransform="translate(-12794.78 5981.84) rotate(180)" xlink:href="#Degradado_sin_nombre_23"/><linearGradient id="Degradado_sin_nombre_23-3" x1="-12892.34" y1="5868.13" x2="-12875.52" y2="5868.13" gradientTransform="translate(-12702.76 6092.7) rotate(180)" xlink:href="#Degradado_sin_nombre_23"/><linearGradient id="Degradado_sin_nombre_23-4" x1="-12912.66" y1="5847.81" x2="-12895.84" y2="5847.81" gradientTransform="translate(-12706.02 6049.26) rotate(180)" xlink:href="#Degradado_sin_nombre_23"/></defs><title>Ico_inicio_avion</title><g id="Capa_2" data-name="Capa 2"><g id="Arte"><rect class="cls-1" width="350" height="350"/><rect class="cls-2" x="156.45" y="100.04" width="16.82" height="32.54" rx="7.68" ry="7.68" transform="translate(74.41 296.66) rotate(-98.57)"/><rect class="cls-3" x="174.46" y="113.27" width="16.82" height="32.54" rx="7.68" ry="7.68" transform="translate(82.01 329.66) rotate(-98.57)"/><polygon class="cls-4" points="123.47 111.52 151.94 106.53 230.93 147.97 169.75 158.7 123.47 111.52"/><path class="cls-5" d="M32.17,150.52c15.6,3.8,37.05,8.14,47.51,6.31l74.17-13c94.2-16.52,143.69-24.46,171.08-6.71,12,7.77,19.11,6,20.62,14.36,2.74,15.25-102.11,30.63-150.71,39.15l-32.08,5.63c-34.22,6-67.72,9.67-87.54.82-7.26-3.24-24.55-11.37-38-17.73Z"/><path class="cls-6" d="M161.64,189.86l32.08-5.63c46-8.07,142.45-22.29,150.24-36.72a9.25,9.25,0,0,1,1.59,4c2.74,15.25-102.11,30.63-150.71,39.15l-32.08,5.63c-34.22,6-67.72,9.67-87.54.82-7.26-3.24-24.55-11.37-38-17.73l-1.12-6.38c13.45,6.36,30.74,14.49,38,17.73C93.92,199.53,127.43,195.86,161.64,189.86Z"/><polygon class="cls-5" points="35.93 170.12 4.39 115.43 22.44 112.26 73.74 163.49 35.93 170.12"/><polygon class="cls-7" points="10.96 114.27 42.5 168.97 38.41 169.69 6.88 114.99 10.96 114.27"/><circle class="cls-8" cx="258.63" cy="148.73" r="4.01" transform="matrix(0.98, -0.17, 0.17, 0.98, -21.8, 46.91)"/><circle class="cls-8" cx="240.19" cy="151.96" r="4.01" transform="translate(-22.64 43.77) rotate(-9.95)"/><circle class="cls-8" cx="221.76" cy="155.2" r="4.01" transform="translate(-23.47 40.64) rotate(-9.95)"/><circle class="cls-8" cx="203.33" cy="158.43" r="4.01" transform="translate(-24.31 37.5) rotate(-9.95)"/><circle class="cls-8" cx="184.89" cy="161.66" r="4.01" transform="translate(-25.14 34.36) rotate(-9.95)"/><circle class="cls-8" cx="166.46" cy="164.89" r="4.01" transform="translate(-25.98 31.23) rotate(-9.95)"/><circle class="cls-8" cx="148.03" cy="168.13" r="4.01" transform="translate(-26.81 28.09) rotate(-9.95)"/><circle class="cls-8" cx="129.59" cy="171.36" r="4.01" transform="translate(-27.65 24.96) rotate(-9.95)"/><circle class="cls-8" cx="111.16" cy="174.59" r="4.01" transform="translate(-28.49 21.82) rotate(-9.95)"/><circle class="cls-8" cx="92.73" cy="177.82" r="4.01" transform="translate(-29.32 18.69) rotate(-9.95)"/><circle class="cls-8" cx="74.3" cy="181.06" r="4.01" transform="translate(-30.16 15.55) rotate(-9.95)"/><path class="cls-8" d="M331.68,140.86l-39.13,6.86a5.22,5.22,0,0,1-1.8-10.29l26.07-4.57a50.82,50.82,0,0,1,8.12,4.25A58.21,58.21,0,0,0,331.68,140.86Z"/><path class="cls-9" d="M345.55,151.46,78.26,198.33c-1-.38-2.05-.77-3-1.21-1.62-.72-3.76-1.7-6.22-2.84l273.76-48A8.38,8.38,0,0,1,345.55,151.46Z"/><path class="cls-9" d="M81.28,199.26,344,153.2a4.57,4.57,0,0,1,1.25.43,6.07,6.07,0,0,1-.87,1.33L85.53,200.34Q83.33,199.87,81.28,199.26Z"/><path class="cls-10" d="M69.11,194.28,79,192.54a73.68,73.68,0,0,0,15.53,2.94l-16.19,2.84c-1.08-.39-2.14-.8-3.15-1.25C73.63,196.35,71.53,195.4,69.11,194.28Z"/><path class="cls-10" d="M100.69,195.87c3.3.12,6.73.13,10.27,0l-25.42,4.46h0L83.88,200l-.53-.12c-.6-.15-1.2-.32-1.78-.49l-.29-.08Z"/><path class="cls-7" d="M63.66,164.76l-4.81,24.85c-8-3.71-13.31-6.35-21.62-10.28l-1.69-9.64Z"/><polygon class="cls-5" points="20.12 201.06 33.09 198.78 63.66 164.76 35.78 169.65 20.12 201.06"/><rect class="cls-11" x="172.76" y="208.3" width="16.82" height="32.54" rx="7.68" ry="7.68" transform="translate(-13.91 437.17) rotate(-98.57)"/><rect class="cls-12" x="189.83" y="185.17" width="16.82" height="32.54" rx="7.68" ry="7.68" transform="translate(28.57 427.48) rotate(-98.57)"/><polygon class="cls-5" points="141.06 243.47 169.54 238.48 229.71 172.64 168.53 183.36 141.06 243.47"/></g></g></svg>