<?xml version="1.0" encoding="utf-8"?>
<!-- Generator: Adobe Illustrator 21.0.0, SVG Export Plug-In . SVG Version: 6.00 Build 0)  -->
<svg version="1.1" id="Capa_1" xmlns="http://www.w3.org/2000/svg" xmlns:xlink="http://www.w3.org/1999/xlink" x="0px" y="0px"
	 viewBox="0 0 91.4 334.7" style="enable-background:new 0 0 91.4 334.7;" xml:space="preserve">
<style type="text/css">
	.st0{fill-rule:evenodd;clip-rule:evenodd;fill:#26BDD1;}
	.st1{fill-rule:evenodd;clip-rule:evenodd;fill:#00488E;}
	.st2{fill-rule:evenodd;clip-rule:evenodd;fill:#F8FED2;stroke:#00B7FF;stroke-width:0.4797;stroke-miterlimit:22.9256;}
	.st3{fill-rule:evenodd;clip-rule:evenodd;fill:#019DCB;}
	.st4{fill-rule:evenodd;clip-rule:evenodd;fill:#03BDDC;}
	.st5{opacity:0.5;fill-rule:evenodd;clip-rule:evenodd;fill:#C4FFFF;}
	.st6{fill-rule:evenodd;clip-rule:evenodd;fill:#FFFFFF;}
	.st7{fill-rule:evenodd;clip-rule:evenodd;fill:#FFCC00;stroke:#FF6600;stroke-width:0.1919;stroke-miterlimit:22.9256;}
	.st8{fill-rule:evenodd;clip-rule:evenodd;fill:#CC6633;}
	.st9{opacity:0.82;fill-rule:evenodd;clip-rule:evenodd;fill:#FFFFFF;}
	
		.st10{opacity:0.5;fill-rule:evenodd;clip-rule:evenodd;fill:#FFCC00;stroke:#FF6600;stroke-width:0.1919;stroke-miterlimit:22.9256;}
	.st11{opacity:0.5;fill-rule:evenodd;clip-rule:evenodd;fill:#003399;}
	.st12{fill-rule:evenodd;clip-rule:evenodd;fill:#05A4E2;}
	.st13{fill-rule:evenodd;clip-rule:evenodd;fill:#FF9933;}
	.st14{fill-rule:evenodd;clip-rule:evenodd;fill:#FFCC00;}
	.st15{fill-rule:evenodd;clip-rule:evenodd;fill:#FFFF00;}
	.st16{fill-rule:evenodd;clip-rule:evenodd;fill:#024056;}
	.st17{fill-rule:evenodd;clip-rule:evenodd;fill:#087FA3;}
</style>
<title>Radar_Nave_1</title>
<g>
	<g>
		<g>
			
				<rect x="43.3" y="0.9" transform="matrix(1 -7.500907e-03 7.500907e-03 1 -0.2894 0.3365)" class="st0" width="2.8" height="75.7"/>
			
				<rect x="43.1" y="0.9" transform="matrix(1 -7.500907e-03 7.500907e-03 1 -8.156958e-02 0.3342)" class="st0" width="2.8" height="20.2"/>
			<path class="st1" d="M44.1,11.5l0.7,0c0.3,0,0.5,0.2,0.5,0.5l0.2,28c0,0.3-0.2,0.5-0.5,0.5l-0.7,0c-0.3,0-0.5-0.2-0.5-0.5
				l-0.2-28C43.7,11.7,43.9,11.5,44.1,11.5z"/>
		</g>
		<path class="st2" d="M44.7,40.9c19.4-0.1,35.4,31.4,35.7,70.5S65.5,216.6,46.1,216.7c-19.4,0.1-35.6-65.7-35.9-104.8
			S25.3,41,44.7,40.9z"/>
		<g>
			<path class="st1" d="M44.9,110.4c10.7-0.1,19.4-8.9,19.3-19.7c-0.1-10.8-8.9-19.5-19.6-19.4c-10.7,0.1-19.4,8.9-19.3,19.7
				C25.3,101.7,34.2,110.5,44.9,110.4z"/>
			<path class="st3" d="M44.1,110.4c10.3-0.1,18.6-8.6,18.5-18.9s-8.5-18.7-18.8-18.6s-18.6,8.6-18.5,18.9
				C25.3,102.1,33.8,110.5,44.1,110.4z"/>
			<path class="st1" d="M44.2,108.4c8.6-0.1,15.5-7.1,15.4-15.8C59.6,84,52.6,77,44,77.1c-8.6,0.1-15.5,7.1-15.4,15.8
				C28.6,101.5,35.7,108.4,44.2,108.4z"/>
			<path class="st4" d="M45.2,107.5c8.2-0.1,14.9-6.9,14.8-15.1c-0.1-8.3-6.8-15-15-14.9s-14.9,6.9-14.8,15.1
				C30.3,100.8,37,107.5,45.2,107.5z"/>
			<path class="st5" d="M47.7,104.5c-8.2,0.1-15-6.6-15-14.9c0-3,0.8-5.7,2.3-8.1c-3,2.8-4.8,6.7-4.8,11.1c0.1,8.3,6.8,15,15,14.9
				c4.6,0,8.7-2.2,11.4-5.5c0.4-0.5,0.8-1,1.1-1.5c-0.1,0.1-0.2,0.1-0.2,0.2C54.9,103,51.5,104.4,47.7,104.5z"/>
			<path class="st5" d="M42,73.1c10.3-0.1,18.7,8.3,18.8,18.6c0.1,8.8-5.9,16.3-14.1,18.3c8.9-1.5,15.6-9.3,15.6-18.7
				c-0.1-10.4-8.5-18.7-18.8-18.6c-1.5,0-3,0.2-4.5,0.6C40,73.2,41,73.2,42,73.1z"/>
		</g>
		<g>
			<path class="st6" d="M44.6,10.9c3,0,5.4-2.4,5.4-5.3c0-2.9-2.5-5.3-5.5-5.3c-3,0-5.4,2.4-5.4,5.3C39.1,8.5,41.6,10.9,44.6,10.9z"
				/>
			<g>
				<path class="st7" d="M44.3,10.9c2.9,0,5.3-2.4,5.2-5.3c0-2.9-2.4-5.3-5.3-5.2c-2.9,0-5.3,2.4-5.2,5.3S41.4,10.9,44.3,10.9z"/>
				<path class="st8" d="M41.2,1.4C40,2.2,39,3.6,39,5.7c0,2.8,2.5,5,4.8,5.1c1.5,0.1,2.1-0.2,2.5-0.4C40.7,10.7,37.5,5.5,41.2,1.4z
					"/>
				<path class="st8" d="M49,5.1c0,2.4-0.6,3.5-1.4,4.4c1.3-0.9,2-2.1,2-4.3c0-2.2-2.3-4.6-4.9-4.8c-0.7,0-1.5,0-2.1,0.3
					C45.3,0.2,49,2.7,49,5.1z"/>
				
					<ellipse transform="matrix(1 -7.500907e-03 7.500907e-03 1 -1.624248e-02 0.3445)" class="st9" cx="45.9" cy="2.3" rx="1.5" ry="1.5"/>
				
					<ellipse transform="matrix(1 -7.500907e-03 7.500907e-03 1 -3.979760e-02 0.3351)" class="st10" cx="44.7" cy="5.5" rx="5.3" ry="5.3"/>
			</g>
		</g>
		<path class="st0" d="M27.5,50.2C39,50.1,50.6,50,62.1,49.9c-2.2-2.5-4.6-4.5-7.1-6C48.2,43.9,41.3,44,34.5,44
			C32,45.6,29.7,47.6,27.5,50.2z"/>
		<path class="st0" d="M24.9,53.5c-1.3,1.9-2.6,3.9-3.7,6.1c15.8-0.1,31.7-0.2,47.5-0.4c-1.2-2.2-2.5-4.2-3.8-6.1
			C51.5,53.3,38.2,53.4,24.9,53.5z"/>
		<path class="st0" d="M19.4,63c-0.9,1.9-1.7,4-2.5,6.1C35.6,69,54.3,68.9,73,68.7c-0.8-2.1-1.7-4.2-2.6-6.1
			C53.4,62.8,36.4,62.9,19.4,63z"/>
		<path class="st11" d="M55.5,209c-19.4,0.1-35.6-65.7-35.9-104.8c-0.2-26.1,6.7-49,17-61.4c-15.4,7.6-26.7,35.6-26.4,69.1
			c0.3,39.1,16.5,105,35.9,104.8c4.1,0,8-3,11.6-8C56.9,208.9,56.2,209,55.5,209z"/>
	</g>
	<g>
		<path class="st1" d="M44.9,147.3c5.5,0,9.9-4.6,9.9-10.1c0-5.5-4.6-10-10.1-10s-9.9,4.6-9.9,10.1
			C34.9,142.9,39.4,147.4,44.9,147.3z"/>
		<path class="st3" d="M44.5,147.3c5.3,0,9.5-4.4,9.5-9.7s-4.4-9.6-9.6-9.5c-5.3,0-9.5,4.4-9.5,9.7S39.2,147.4,44.5,147.3z"/>
		<path class="st1" d="M44.6,146.3c4.4,0,7.9-3.7,7.9-8.1c0-4.4-3.6-8-8-7.9c-4.4,0-7.9,3.7-7.9,8.1
			C36.6,142.8,40.2,146.3,44.6,146.3z"/>
		<path class="st4" d="M45.1,145.8c4.2,0,7.6-3.5,7.6-7.7c0-4.2-3.5-7.7-7.7-7.6s-7.6,3.5-7.6,7.7S40.9,145.9,45.1,145.8z"/>
		<path class="st5" d="M46.4,144.3c-4.2,0-7.7-3.4-7.7-7.6c0-1.5,0.4-2.9,1.2-4.1c-1.5,1.4-2.5,3.4-2.4,5.7c0,4.2,3.5,7.7,7.7,7.6
			c2.4,0,4.5-1.1,5.9-2.8c0.2-0.2,0.4-0.5,0.6-0.8c0,0-0.1,0.1-0.1,0.1C50.1,143.6,48.3,144.3,46.4,144.3z"/>
		<path class="st5" d="M43.5,128.3c5.3,0,9.6,4.2,9.6,9.5c0,4.5-3,8.3-7.2,9.4c4.6-0.8,8-4.8,8-9.6c0-5.3-4.4-9.6-9.6-9.5
			c-0.8,0-1.6,0.1-2.3,0.3C42.4,128.3,42.9,128.3,43.5,128.3z"/>
	</g>
	<path class="st12" d="M14.4,154.8l61.4-0.5c0.3-1.9,0.6-3.9,0.8-5.8L13.5,149C13.8,150.9,14.1,152.8,14.4,154.8z"/>
	<g>
		<path class="st13" d="M46,213.9c15.5-0.1,28.3,21.5,28.5,48.2c0.2,26.7-24.8,72.1-27.6,72.1c-2.8,0-28.5-44.9-28.7-71.7
			C18.1,235.8,30.5,214.1,46,213.9z"/>
		<path class="st14" d="M46,213.9c10.4-0.1,18.9,15.5,19.1,34.7s-16.5,51.8-18.4,51.9c-1.9,0-19-32.3-19.2-51.6S35.7,214,46,213.9z"
			/>
		<path class="st15" d="M46,213.9c10.4-0.1,18.9,11.3,19,25.5c0.1,14.2-16.6,38.2-18.5,38.2c-1.9,0-19-23.7-19.1-37.9
			C27.3,225.6,35.7,214,46,213.9z"/>
		<path class="st6" d="M46,213.9c7.8-0.1,14.1,9,14.2,20.1c0.1,11.2-12.4,30.2-13.8,30.2s-14.2-18.8-14.3-30
			C32,223.1,38.3,214,46,213.9z"/>
	</g>
	<g>
		<path class="st16" d="M20.1,176.3L0.4,196.7l2.9,54.7l3.1,0l6.1-36.7L31,203.7C26.9,196.6,23.2,186.9,20.1,176.3z"/>
		<path class="st17" d="M19.6,177.6L1.5,197l2.5,53.3l1.6,0l5.7-36.3l18.2-10.4C26,196.5,22.3,188,19.6,177.6z"/>
		<path class="st12" d="M2.5,196.6l26,6c-3.3-6.5-6.7-14.4-9.2-24.1L2.5,196.6z"/>
		<path class="st12" d="M28.5,203.5l-26.3-6.1l0,0.1l0.1,1.5l9.2,14.4l17.1-9.8C28.5,203.6,28.5,203.5,28.5,203.5z"/>
		<polygon class="st12" points="10.8,214.3 2.2,200.8 4.4,246.2 5.8,246.2 		"/>
	</g>
	<g>
		<path class="st16" d="M71.3,175.9l20,20.1l-2,54.7l-3.1,0l-6.6-36.6l-18.8-10.6C64.8,196.3,68.4,186.6,71.3,175.9z"/>
		<path class="st17" d="M71.8,177.2l18.3,19.1l-1.7,53.3l-1.6,0l-6.2-36.3l-18.3-10.1C65.7,196.2,69.3,187.7,71.8,177.2z"/>
		<path class="st12" d="M89.2,196l-25.9,6.4c3.2-6.6,6.5-14.5,8.9-24.2L89.2,196z"/>
		<path class="st12" d="M63.3,203.2l26.2-6.5l0,0.1l0,1.5l-9,14.6l-17.3-9.6C63.2,203.3,63.3,203.3,63.3,203.2z"/>
		<polygon class="st12" points="81.1,213.7 89.5,200.1 88,245.6 86.6,245.6 		"/>
	</g>
	<path class="st12" d="M76.7,152l-62.2,0.5c0.4,2,0.8,4.1,1.2,6.1l59.9-0.4C75.9,156.1,76.3,154.1,76.7,152z"/>
	<path class="st12" d="M74.1,164.9l-56.9,0.4c0.5,2.1,1,4.1,1.5,6.1l54-0.4C73.2,169,73.7,166.9,74.1,164.9z"/>
	<g>
		
			<rect x="36.4" y="211.2" transform="matrix(1 -7.500907e-03 7.500907e-03 1 -1.6057 0.3513)" class="st16" width="19.3" height="6"/>
		<path class="st12" d="M55.1,213.2l0,2c0,0.7-0.6,1.4-1.3,1.4l-15.4,0.1c-0.7,0-1.4-0.6-1.4-1.3l0-2c0-0.7,0.6-1.4,1.3-1.4
			l15.4-0.1C54.5,211.8,55.1,212.4,55.1,213.2z"/>
		<path class="st16" d="M54.6,213.4l0,1.6c0,0.6-0.5,1.1-1.1,1.1l-14.9,0.1c-0.6,0-1.1-0.5-1.1-1.1l0-1.6c0-0.6,0.5-1.1,1.1-1.1
			l14.9-0.1C54.1,212.3,54.6,212.8,54.6,213.4z"/>
	</g>
	<g>
		
			<rect x="42.9" y="176.1" transform="matrix(1 -7.500907e-03 7.500907e-03 1 -1.6034 0.3514)" class="st16" width="6.3" height="75.7"/>
		
			<rect x="42.7" y="176.1" transform="matrix(1 -7.500907e-03 7.500907e-03 1 -1.3956 0.3491)" class="st16" width="6.3" height="20.2"/>
		<path class="st12" d="M44.7,176.8l2.1,0c0.8,0,1.4,0.6,1.4,1.4l0.1,16.2c0,0.8-0.6,1.4-1.4,1.4l-2.1,0c-0.8,0-1.4-0.6-1.4-1.4
			l-0.1-16.2C43.3,177.4,43.9,176.8,44.7,176.8z"/>
		<path class="st12" d="M44.9,197.3l2.1,0c0.8,0,1.4,0.6,1.4,1.4l0.4,50.9c0,0.8-0.6,1.4-1.4,1.4l-2.1,0c-0.8,0-1.4-0.6-1.4-1.4
			l-0.4-50.9C43.5,198,44.1,197.3,44.9,197.3z"/>
		<path class="st12" d="M49.1,196.2l0,0.2c0,0.1-0.1,0.1-0.1,0.1l-6.1,0c-0.1,0-0.1-0.1-0.1-0.1l0-0.2c0-0.1,0.1-0.1,0.1-0.1l6.1,0
			C49,196.1,49.1,196.1,49.1,196.2z"/>
	</g>
</g>
</svg>
