<svg xmlns="http://www.w3.org/2000/svg" viewBox="0 0 999.37 508"><defs><style>.cls-1,.cls-24{fill:none;}.cls-1{stroke:#26ff15;stroke-miterlimit:10;stroke-width:2px;}.cls-14,.cls-2{fill:#26bdd1;}.cls-3,.cls-5{fill:#00488e;}.cls-4{fill:#f8fed2;stroke:#00b7ff;stroke-width:0.48px;}.cls-10,.cls-13,.cls-4{stroke-miterlimit:22.93;}.cls-10,.cls-11,.cls-14,.cls-15,.cls-16,.cls-17,.cls-18,.cls-19,.cls-20,.cls-21,.cls-4,.cls-5,.cls-6,.cls-7,.cls-8,.cls-9{fill-rule:evenodd;}.cls-6{fill:#019dcb;}.cls-7{fill:#03bddc;}.cls-8{fill:#c4ffff;}.cls-13,.cls-15,.cls-8{opacity:0.5;}.cls-12,.cls-9{fill:#fff;}.cls-10,.cls-13,.cls-18{fill:#fc0;}.cls-10,.cls-13{stroke:#f60;stroke-width:0.19px;}.cls-11{fill:#c63;}.cls-12{opacity:0.82;}.cls-15{fill:#039;}.cls-16,.cls-23{fill:#05a4e2;}.cls-17{fill:#f93;}.cls-19{fill:#ff0;}.cls-20,.cls-22{fill:#024056;}.cls-21{fill:#087fa3;}</style></defs><title>Radar_Nave_3a</title><g id="Capa_2" data-name="Capa 2"><g id="Arte"><line class="cls-1" x1="500.37" y1="499.79" x2="1.37" y2="499.79"/><line class="cls-1" x1="500.36" y1="499.78" x2="147.52" y2="147.01"/><line class="cls-1" x1="500.37" y1="499.79" x2="500.37" y2="0.89"/><line class="cls-1" x1="500.37" y1="499.78" x2="853.22" y2="147.01"/><line class="cls-1" x1="500.37" y1="499.79" x2="999.37" y2="499.79"/><path class="cls-1" d="M153.91,496.78c0-187.91,155.12-340.25,346.46-340.25S846.83,308.87,846.83,496.78"/><path class="cls-1" d="M233,499.46c0-145,119.7-262.55,267.35-262.55S767.72,354.45,767.72,499.46"/><path class="cls-1" d="M317,500.89c0-99.44,82.09-180.06,183.34-180.06s183.34,80.61,183.34,180.06"/><rect class="cls-2" x="60.71" y="357.4" width="2.79" height="75.73" transform="translate(-337.96 401.27) rotate(-81.93)"/><rect class="cls-2" x="33.25" y="381.24" width="2.79" height="20.26" transform="translate(-357.71 370.74) rotate(-81.93)"/><rect class="cls-3" x="48.56" y="378.96" width="1.65" height="28.93" rx="0.48" ry="0.48" transform="translate(-347.08 387.09) rotate(-81.93)"/><path class="cls-4" d="M64.2,395.56c-2.73,19.23,26.47,39.27,65.21,44.76s106.35-.83,109.08-20.06-60.46-44.09-99.2-49.58S66.93,376.33,64.2,395.56Z"/><path class="cls-5" d="M133.13,405a19.6,19.6,0,1,1-16.67-22A19.58,19.58,0,0,1,133.13,405Z"/><path class="cls-6" d="M133.24,404.16a18.8,18.8,0,1,1-16-21.15A18.78,18.78,0,0,1,133.24,404.16Z"/><path class="cls-5" d="M131.24,404a15.65,15.65,0,1,1-13.31-17.61A15.64,15.64,0,0,1,131.24,404Z"/><path class="cls-7" d="M130.21,404.92A15,15,0,1,1,117.44,388,15,15,0,0,1,130.21,404.92Z"/><path class="cls-8" d="M126.88,407a15,15,0,0,0-21.1-15.7,15,15,0,1,1,15.78,25.13l.25-.21A14.83,14.83,0,0,0,126.88,407Z"/><path class="cls-8" d="M96.58,397.17a18.81,18.81,0,0,0,36.06,9.62,18.8,18.8,0,1,1-35.4-12.55A18.73,18.73,0,0,0,96.58,397.17Z"/><path class="cls-9" d="M34.45,391.41A5.31,5.31,0,1,1,30,385.25,5.4,5.4,0,0,1,34.45,391.41Z"/><path class="cls-10" d="M34.5,391.18a5.28,5.28,0,1,1-4.49-6A5.29,5.29,0,0,1,34.5,391.18Z"/><path class="cls-11" d="M25.52,386.78a4.93,4.93,0,0,1,4.59-1.53,5.32,5.32,0,0,1,4.44,5.42,5,5,0,0,1-.71,2.42C34.82,387.57,30,383.67,25.52,386.78Z"/><path class="cls-11" d="M28.15,395c2.41.34,3.51-.15,4.53-.84-1,1.19-2.38,1.72-4.54,1.41s-4.29-2.89-4.15-5.46a4.86,4.86,0,0,1,.58-2.06C23.76,390.66,25.74,394.68,28.15,395Z"/><circle class="cls-12" cx="25.83" cy="391.62" r="1.49" transform="translate(-365.54 362.24) rotate(-81.93)"/><circle class="cls-13" cx="29.11" cy="390.78" r="5.28" transform="translate(-361.9 364.77) rotate(-81.93)"/><path class="cls-14" d="M75.73,379.69,70.86,414a31.22,31.22,0,0,1-5.06-7.83l2.89-20.37A31.23,31.23,0,0,1,75.73,379.69Z"/><path class="cls-14" d="M79.43,377.53a56.85,56.85,0,0,1,6.58-2.9l-6.68,47.1a56.85,56.85,0,0,1-5.51-4.61Z"/><path class="cls-14" d="M89.57,373.42q3.07-1,6.41-1.69L88.1,427.29q-3-1.64-5.69-3.41Z"/><path class="cls-15" d="M229.6,428.56c2.73-19.23-60.46-44.09-99.2-49.58-25.9-3.67-49.51.09-63.13,8.74,9.54-14.27,38.91-21.73,72-17,38.74,5.49,101.93,30.35,99.2,49.58-.57,4-4,7.53-9.48,10.44A8.85,8.85,0,0,0,229.6,428.56Z"/><path class="cls-5" d="M169.78,409.91a10,10,0,1,1-8.54-11.29A10,10,0,0,1,169.78,409.91Z"/><path class="cls-6" d="M169.84,409.51a9.63,9.63,0,1,1-8.19-10.83A9.62,9.62,0,0,1,169.84,409.51Z"/><path class="cls-5" d="M168.81,409.45a8,8,0,1,1-6.82-9A8,8,0,0,1,168.81,409.45Z"/><path class="cls-7" d="M168.28,409.9a7.69,7.69,0,1,1-6.54-8.65A7.68,7.68,0,0,1,168.28,409.9Z"/><path class="cls-8" d="M166.58,411a7.7,7.7,0,0,0-10.8-8,7.67,7.67,0,1,1,8.08,12.87l.13-.11A7.59,7.59,0,0,0,166.58,411Z"/><path class="cls-8" d="M151.07,405.93a9.63,9.63,0,0,0,18.47,4.93,9.63,9.63,0,1,1-18.13-6.43A9.6,9.6,0,0,0,151.07,405.93Z"/><path class="cls-16" d="M181.23,380.64l-8.62,60.83q-3,0-5.88,0L175.59,379Q178.4,379.77,181.23,380.64Z"/><path class="cls-17" d="M243.59,417.68c-7.47,13.64,5.51,35.12,29,48s75.28,12.37,76.65,9.88-26.11-46.4-49.59-59.26S251.06,404,243.59,417.68Z"/><path class="cls-18" d="M243.59,417.68c-5,9.11,4.65,24,21.54,33.24s53.52,10,54.44,8.37-19.47-32.11-36.36-41.36S248.58,408.57,243.59,417.68Z"/><path class="cls-19" d="M243.59,417.68c-5,9.11,1,22,13.45,28.81s41.52,3.46,42.43,1.79-11.93-28-24.35-34.78S248.58,408.57,243.59,417.68Z"/><path class="cls-9" d="M243.59,417.68c-3.73,6.81,1.2,16.7,11,22.08s32.47,3.36,33.16,2.12-9.82-21.42-19.63-26.79S247.32,410.86,243.59,417.68Z"/><path class="cls-20" d="M201.79,389.13l22.89-16.83,53.84,10.1-.43,3-37.17,1.15-13.31,17C221,398.57,212,393.62,201.79,389.13Z"/><path class="cls-21" d="M203.19,388.82l21.66-15.32,52.52,9.59-.23,1.62-36.81.8-12.74,16.64A126.19,126.19,0,0,0,203.19,388.82Z"/><path class="cls-16" d="M224.34,374.4,226.83,401a117.7,117.7,0,0,0-22.64-12.35Z"/><path class="cls-16" d="M227.66,401.09l-2.51-26.89.06,0,1.49.27,13.1,11.05-12,15.69Z"/><polygon class="cls-16" points="240.72 385 228.5 374.69 273.29 382.88 273.09 384.3 240.72 385"/><path class="cls-20" d="M194.59,439.86l17.31,22.53,54.52,5.26.43-3L231.46,453.2l-8.06-20.05C215.69,436.14,205.62,438.37,194.59,439.86Z"/><path class="cls-21" d="M195.85,440.55l16.55,20.74,53.12,5.38.23-1.62-35.14-11L223,434.53A126.21,126.21,0,0,1,195.85,440.55Z"/><path class="cls-16" d="M212.17,460.28l9.78-24.87A117.71,117.71,0,0,1,196.77,441Z"/><path class="cls-16" d="M222.77,435.56l-9.89,25.13,0,.06,1.51.15,15.66-7-7.18-18.41Z"/><polygon class="cls-16" points="230.85 454.65 216.25 461.15 261.54 465.74 261.74 464.32 230.85 454.65"/><path class="cls-16" d="M170.21,442,179,380.39q3,1,5.88,2l-8.41,59.31Q173.33,441.91,170.21,442Z"/><path class="cls-16" d="M183.28,441.22l8-56.42q3,1.14,5.84,2.33l-7.58,53.47Q186.44,440.94,183.28,441.22Z"/><rect class="cls-22" x="226.33" y="416.89" width="19.35" height="6.04" transform="matrix(0.14, -0.99, 0.99, 0.14, -212.87, 594.65)"/><rect class="cls-23" x="226.91" y="417.57" width="18.14" height="4.67" rx="1.35" ry="1.35" transform="translate(-212.88 594.63) rotate(-81.93)"/><rect class="cls-22" x="227.47" y="418" width="17.11" height="3.83" rx="1.1" ry="1.1" transform="translate(-212.85 594.67) rotate(-81.93)"/><rect class="cls-22" x="232.53" y="382.02" width="6.35" height="75.73" transform="translate(-213.11 594.31) rotate(-81.93)"/><rect class="cls-22" x="205.07" y="405.86" width="6.35" height="20.26" transform="translate(-232.86 563.78) rotate(-81.93)"/><rect class="cls-23" x="205.83" y="406.48" width="4.92" height="19" rx="1.42" ry="1.42" transform="translate(-232.82 563.81) rotate(-81.93)"/><rect class="cls-23" x="243.39" y="394.43" width="4.92" height="53.76" rx="1.42" ry="1.42" transform="translate(-205.8 605.57) rotate(-81.93)"/><rect class="cls-23" x="215.1" y="417.17" width="6.35" height="0.49" rx="0.14" ry="0.14" transform="matrix(0.14, -0.99, 0.99, 0.14, -225.64, 574.96)"/><rect class="cls-24" width="998" height="508"/></g></g></svg>