<svg xmlns="http://www.w3.org/2000/svg" xmlns:xlink="http://www.w3.org/1999/xlink" viewBox="0 0 999.37 508"><defs><style>.cls-1,.cls-2{fill:none;}.cls-1{stroke:#117a05;stroke-miterlimit:10;stroke-width:2px;}.cls-3{fill:#fff;}.cls-4{fill:url(#linear-gradient);}.cls-5{fill:url(#linear-gradient-2);}.cls-6{fill:url(#linear-gradient-3);}.cls-7{fill:url(#linear-gradient-4);}.cls-8{fill:#e6e7e8;}.cls-9{fill:url(#linear-gradient-5);}.cls-10{fill:url(#linear-gradient-6);}.cls-11{fill:#6ac9d4;}.cls-12{fill:#585b57;}</style><linearGradient id="linear-gradient" x1="314.19" y1="-738.82" x2="341.09" y2="-738.82" gradientTransform="translate(1112.07 -454.96) rotate(180)" gradientUnits="userSpaceOnUse"><stop offset="0" stop-color="#d5d5d5"/><stop offset="0.51" stop-color="#f2f2f2"/><stop offset="1" stop-color="#b6b6b6"/></linearGradient><linearGradient id="linear-gradient-2" x1="256.12" y1="-767.13" x2="283.02" y2="-767.13" gradientTransform="translate(1022.68 -539.78) rotate(180)" xlink:href="#linear-gradient"/><linearGradient id="linear-gradient-3" x1="86.4" y1="-738.82" x2="113.31" y2="-738.82" gradientTransform="translate(498.02 891.98)" xlink:href="#linear-gradient"/><linearGradient id="linear-gradient-4" x1="144.47" y1="-767.13" x2="171.38" y2="-767.13" gradientTransform="translate(503.75 930.42)" xlink:href="#linear-gradient"/><linearGradient id="linear-gradient-5" x1="194.6" y1="-749.32" x2="240.77" y2="-749.32" gradientTransform="translate(92.17 700.97) rotate(35.01)" gradientUnits="userSpaceOnUse"><stop offset="0" stop-color="#f2f2f2"/><stop offset="1" stop-color="#b6b6b6"/></linearGradient><linearGradient id="linear-gradient-6" x1="211.62" y1="-622.47" x2="222.74" y2="-622.47" gradientTransform="translate(410.02 938.24)" xlink:href="#linear-gradient"/></defs><title>Radar_Avion_2b</title><g id="Capa_2" data-name="Capa 2"><g id="Arte"><path class="cls-1" d="M153.91,496.78c0-187.91,155.12-340.25,346.46-340.25S846.83,308.87,846.83,496.78"/><path class="cls-1" d="M233,499.46c0-145,119.7-262.55,267.35-262.55S767.72,354.45,767.72,499.46"/><path class="cls-1" d="M317,500.89c0-99.44,82.09-180.06,183.34-180.06s183.34,80.61,183.34,180.06"/><line class="cls-1" x1="500.37" y1="499.79" x2="1.37" y2="499.79"/><line class="cls-1" x1="500.36" y1="499.78" x2="147.52" y2="147.01"/><line class="cls-1" x1="500.37" y1="499.79" x2="500.37" y2="0.89"/><line class="cls-1" x1="500.37" y1="499.78" x2="853.22" y2="147.01"/><line class="cls-1" x1="500.37" y1="499.79" x2="999.37" y2="499.79"/><rect class="cls-2" width="998" height="508"/><path class="cls-3" d="M568.83,293.93c3.92-.39,61.69-5.71,61.69-5.71l-14.19,20.72s-43.58-6.22-48.93-7S565,294.31,568.83,293.93Z"/><path class="cls-3" d="M668.49,363.75c-1-3.81-15.7-59.93-15.7-59.93l-14.63,20.41s20.73,38.83,23.33,43.58S669.45,367.51,668.49,363.75Z"/><rect class="cls-4" x="770.98" y="263.23" width="26.9" height="41.27" rx="10.93" ry="10.93" transform="translate(1264.01 966.43) rotate(-144.99)"/><rect class="cls-5" x="739.66" y="206.72" width="26.9" height="41.27" rx="10.93" ry="10.93" transform="translate(1239.47 845.67) rotate(-144.99)"/><rect class="cls-6" x="584.42" y="132.53" width="26.9" height="41.27" rx="10.93" ry="10.93" transform="translate(196.09 -315.32) rotate(35.01)"/><rect class="cls-7" x="648.22" y="142.66" width="26.9" height="41.27" rx="10.93" ry="10.93" transform="translate(213.45 -350.1) rotate(35.01)"/><path class="cls-8" d="M548.35,150.95c10.1,1.11,159,18.62,159,18.62l-39.13,56.36s-111-45.19-124.59-50.94S538.39,149.85,548.35,150.95Z"/><path class="cls-3" d="M809.87,334.16c-4.49-9.12-71.81-143.08-71.81-143.08l-39.6,56s80.38,88.85,90.43,99.7S814.3,343.15,809.87,334.16Z"/><path class="cls-9" d="M777.95,141.71C784.78,132,789,106,779.44,99.34h0c-9.58-6.71-32.48,6.13-39.31,15.88L738,118.43h0L622.34,289.7c-6.71,9.58-10.56,28.58-1,35.29h0c9.58,6.71,26.12-3.4,32.83-13L775.66,144.84h0Z"/><rect class="cls-10" x="621.65" y="292.91" width="11.11" height="45.71" rx="5.56" ry="5.56" transform="translate(294.7 -302.73) rotate(35.01)"/><path class="cls-11" d="M785,116.84,635.52,326A37.82,37.82,0,0,0,646,320.29L783.52,128A58.45,58.45,0,0,0,785,116.84Z"/><path class="cls-11" d="M615.71,308,763.15,99.08a37.62,37.62,0,0,0-10.41,5.72L617.15,296.92A58.13,58.13,0,0,0,615.71,308Z"/><path class="cls-12" d="M774,107h0c-7.91-5.54-26.62,4.78-32.16,12.69l-1.76,2.61,3.1,2.18c7.6-6.09,18.5-11.19,23.51-7.68h0c5,3.51,3.94,15.5.81,24.72l3.71,2.6,1.85-2.55C778.65,133.69,782,112.58,774,107Z"/></g></g></svg>