<svg xmlns="http://www.w3.org/2000/svg" xmlns:xlink="http://www.w3.org/1999/xlink" viewBox="0 0 999.37 508"><defs><style>.cls-1,.cls-2{fill:none;}.cls-1{stroke:#117a05;stroke-miterlimit:10;stroke-width:2px;}.cls-3{fill:#fff;}.cls-4{fill:url(#linear-gradient);}.cls-5{fill:url(#linear-gradient-2);}.cls-6{fill:url(#linear-gradient-3);}.cls-7{fill:url(#linear-gradient-4);}.cls-8{fill:#e6e7e8;}.cls-9{fill:url(#linear-gradient-5);}.cls-10{fill:url(#linear-gradient-6);}.cls-11{fill:#6ac9d4;}.cls-12{fill:#585b57;}</style><linearGradient id="linear-gradient" x1="-3261.18" y1="2454.78" x2="-3234.28" y2="2454.78" gradientTransform="matrix(-1, 0, 0, 1, -3096.57, -2021.92)" gradientUnits="userSpaceOnUse"><stop offset="0" stop-color="#d5d5d5"/><stop offset="0.51" stop-color="#f2f2f2"/><stop offset="1" stop-color="#b6b6b6"/></linearGradient><linearGradient id="linear-gradient-2" x1="-3319.25" y1="2426.47" x2="-3292.35" y2="2426.47" gradientTransform="matrix(-1, 0, 0, 1, -3151.81, -2058.15)" xlink:href="#linear-gradient"/><linearGradient id="linear-gradient-3" x1="-3488.96" y1="2454.78" x2="-3462.06" y2="2454.78" gradientTransform="matrix(1, 0, 0, -1, 3735.37, 2687.47)" xlink:href="#linear-gradient"/><linearGradient id="linear-gradient-4" x1="-3430.89" y1="2426.47" x2="-3403.99" y2="2426.47" gradientTransform="matrix(1, 0, 0, -1, 3624.71, 2696.68)" xlink:href="#linear-gradient"/><linearGradient id="linear-gradient-5" x1="-3380.77" y1="2444.27" x2="-3334.6" y2="2444.27" gradientTransform="matrix(-0.48, 0.88, 0.88, 0.48, -3555.98, 2115.37)" gradientUnits="userSpaceOnUse"><stop offset="0" stop-color="#f2f2f2"/><stop offset="1" stop-color="#b6b6b6"/></linearGradient><linearGradient id="linear-gradient-6" x1="-3363.74" y1="2571.13" x2="-3352.63" y2="2571.13" gradientTransform="matrix(1, 0, 0, -1, 3664.29, 2962.45)" xlink:href="#linear-gradient"/></defs><title>Radar_Avion_3a</title><g id="Capa_2" data-name="Capa 2"><g id="Arte"><path class="cls-1" d="M153.91,496.78c0-187.91,155.12-340.25,346.46-340.25S846.83,308.87,846.83,496.78"/><path class="cls-1" d="M233,499.46c0-145,119.7-262.55,267.35-262.55S767.72,354.45,767.72,499.46"/><path class="cls-1" d="M317,500.89c0-99.44,82.09-180.06,183.34-180.06s183.34,80.61,183.34,180.06"/><line class="cls-1" x1="500.37" y1="499.79" x2="1.37" y2="499.79"/><line class="cls-1" x1="500.36" y1="499.78" x2="147.52" y2="147.01"/><line class="cls-1" x1="500.37" y1="499.79" x2="500.37" y2="0.89"/><line class="cls-1" x1="500.37" y1="499.78" x2="853.22" y2="147.01"/><line class="cls-1" x1="500.37" y1="499.79" x2="999.37" y2="499.79"/><rect class="cls-2" width="998" height="508"/><path class="cls-3" d="M348.62,345.74c-3.68,1.4-57.76,22.39-57.76,22.39l21.94,12.22s36.23-25,40.66-28.12S352.25,344.36,348.62,345.74Z"/><path class="cls-3" d="M290.55,452.68c-.83-3.85-12.67-60.64-12.67-60.64l22.19,11.75s-1.24,44-1.45,49.42S291.37,456.47,290.55,452.68Z"/><rect class="cls-4" x="137.7" y="412.23" width="26.9" height="41.27" rx="10.93" ry="10.93" transform="translate(-301.37 359.11) rotate(-61.49)"/><rect class="cls-5" x="140.53" y="347.69" width="26.9" height="41.27" rx="10.93" ry="10.93" transform="translate(-243.17 327.86) rotate(-61.49)"/><rect class="cls-6" x="246.41" y="212.06" width="26.9" height="41.27" rx="10.93" ry="10.93" transform="translate(588.36 115.38) rotate(118.51)"/><rect class="cls-7" x="193.81" y="249.58" width="26.9" height="41.27" rx="10.93" ry="10.93" transform="translate(543.63 217.02) rotate(118.51)"/><path class="cls-8" d="M303.2,208.63c-8.55,5.5-134,87.56-134,87.56l60.16,33S308.5,239.26,318.15,228,311.63,203.21,303.2,208.63Z"/><path class="cls-3" d="M150.81,489.23c0-10.16.47-160.09.47-160.09l60.43,32.49S179.39,477,175.23,491.2,150.85,499.25,150.81,489.23Z"/><path class="cls-9" d="M93.57,302.74c-10.46-5.68-25.81-27-20.23-37.26h0c5.58-10.28,31.8-9,42.26-3.32l3.38,1.91h0L298.84,365.82C309.12,371.4,321,386.69,315.45,397h0c-5.58,10.28-24.89,8.6-35.17,3L97,304.52h0Z"/><rect class="cls-10" x="300.55" y="368.46" width="11.11" height="45.71" rx="5.56" ry="5.56" transform="translate(796.08 309.07) rotate(118.51)"/><path class="cls-11" d="M76.14,283.63,303.21,404.17a37.82,37.82,0,0,1-11.94-.41L82.46,292.91A58.45,58.45,0,0,1,76.14,283.63Z"/><path class="cls-11" d="M312.93,379.24,87.81,258a37.62,37.62,0,0,1,11.87.48L306.71,370A58.13,58.13,0,0,1,312.93,379.24Z"/><path class="cls-12" d="M81.6,270h0c4.61-8.49,26-7.6,34.45-3l2.74,1.55L117,271.86c-9.52-2.06-21.55-1.77-24.47,3.61h0c-2.92,5.38,3.38,15.63,10.3,22.49l-2.16,4-2.79-1.46C89.37,295.88,77,278.45,81.6,270Z"/></g></g></svg>