<svg xmlns="http://www.w3.org/2000/svg" viewBox="0 0 999.37 508"><defs><style>.cls-1,.cls-25{fill:none;}.cls-1{stroke:#26ff15;stroke-miterlimit:10;stroke-width:2px;}.cls-14,.cls-2{fill:#26bdd1;}.cls-3,.cls-5{fill:#00488e;}.cls-4{fill:#f8fed2;stroke:#00b7ff;stroke-width:0.48px;}.cls-10,.cls-13,.cls-4{stroke-miterlimit:22.93;}.cls-11,.cls-14,.cls-15,.cls-16,.cls-17,.cls-18,.cls-19,.cls-20,.cls-21,.cls-22,.cls-4,.cls-5,.cls-6,.cls-7,.cls-8{fill-rule:evenodd;}.cls-6{fill:#019dcb;}.cls-7{fill:#03bddc;}.cls-8{fill:#c4ffff;}.cls-13,.cls-15,.cls-8{opacity:0.5;}.cls-12,.cls-20,.cls-9{fill:#fff;}.cls-10,.cls-13,.cls-18{fill:#fc0;}.cls-10,.cls-13{stroke:#f60;stroke-width:0.19px;}.cls-11{fill:#c63;}.cls-12{opacity:0.82;}.cls-15{fill:#039;}.cls-16,.cls-24{fill:#05a4e2;}.cls-17{fill:#f93;}.cls-19{fill:#ff0;}.cls-21,.cls-23{fill:#024056;}.cls-22{fill:#087fa3;}</style></defs><title>Radar_Nave_2a</title><g id="Capa_2" data-name="Capa 2"><g id="Arte"><line class="cls-1" x1="500.37" y1="499.79" x2="1.37" y2="499.79"/><line class="cls-1" x1="500.36" y1="499.78" x2="147.52" y2="147.01"/><line class="cls-1" x1="500.37" y1="499.79" x2="500.37" y2="0.89"/><line class="cls-1" x1="500.37" y1="499.78" x2="853.22" y2="147.01"/><line class="cls-1" x1="500.37" y1="499.79" x2="999.37" y2="499.79"/><path class="cls-1" d="M153.91,496.78c0-187.91,155.12-340.25,346.46-340.25S846.83,308.87,846.83,496.78"/><path class="cls-1" d="M233,499.46c0-145,119.7-262.55,267.35-262.55S767.72,354.45,767.72,499.46"/><path class="cls-1" d="M317,500.89c0-99.44,82.09-180.06,183.34-180.06s183.34,80.61,183.34,180.06"/><rect class="cls-2" x="203.34" y="129.39" width="2.79" height="75.72" transform="translate(-58.87 187.19) rotate(-43.57)"/><rect class="cls-2" x="184.22" y="137.03" width="2.79" height="20.26" transform="translate(-50.3 168.48) rotate(-43.57)"/><rect class="cls-3" x="195.07" y="143.45" width="1.65" height="28.93" rx="0.48" ry="0.48" transform="translate(-54.87 178.53) rotate(-43.57)"/><path class="cls-4" d="M206.19,168.78c-14.07,13.39-3.62,47.22,23.35,75.56s83.92,65.33,98,51.94-20-72.09-47-100.43S220.27,155.39,206.19,168.78Z"/><path class="cls-5" d="M254.42,218.9a19.59,19.59,0,1,1,.61-27.63A19.59,19.59,0,0,1,254.42,218.9Z"/><path class="cls-6" d="M255,218.36a18.79,18.79,0,1,1,.59-26.5A18.79,18.79,0,0,1,255,218.36Z"/><path class="cls-5" d="M253.5,217A15.65,15.65,0,1,1,254,195,15.64,15.64,0,0,1,253.5,217Z"/><path class="cls-7" d="M252.15,217.06a15,15,0,1,1,.47-21.17A15,15,0,0,1,252.15,217.06Z"/><path class="cls-8" d="M248.26,216.62a15,15,0,0,0-6.8-25.4,15,15,0,1,1-3.22,29.5h.32A14.84,14.84,0,0,0,248.26,216.62Z"/><path class="cls-8" d="M230.59,190.12A18.81,18.81,0,0,0,252.9,220a18.79,18.79,0,1,1-20-31.81A18.74,18.74,0,0,0,230.59,190.12Z"/><ellipse class="cls-9" cx="181.79" cy="143.22" rx="5.47" ry="5.3" transform="translate(-48.63 164.8) rotate(-43.58)"/><circle class="cls-10" cx="181.99" cy="143.09" r="5.28" transform="translate(-48.49 164.91) rotate(-43.58)"/><path class="cls-11" d="M181.32,137.89a4.93,4.93,0,0,1,4.55,1.65,5.32,5.32,0,0,1,.12,7,5,5,0,0,1-2.06,1.46C188.11,144.29,186.78,138.26,181.32,137.89Z"/><path class="cls-11" d="M178.26,146c1.68,1.76,2.84,2.06,4.07,2.15-1.56.29-2.93-.13-4.44-1.71s-1.57-4.93.13-6.86a4.86,4.86,0,0,1,1.74-1.26C177.52,139.85,176.58,144.22,178.26,146Z"/><circle class="cls-12" cx="178.55" cy="141.88" r="1.49" transform="translate(-48.6 162.2) rotate(-43.58)"/><circle class="cls-13" cx="181.64" cy="143.26" r="5.28" transform="translate(-48.7 164.71) rotate(-43.58)"/><path class="cls-14" d="M225.09,163.48,200,187.38a31.22,31.22,0,0,1,.89-9.28l14.91-14.18A31.24,31.24,0,0,1,225.09,163.48Z"/><path class="cls-14" d="M229.33,164.08a56.85,56.85,0,0,1,7,1.81l-34.47,32.79a56.83,56.83,0,0,1-1.46-7Z"/><path class="cls-14" d="M239.83,167.15q3,1.16,6.08,2.65l-40.66,38.68q-1.33-3.15-2.34-6.2Z"/><path class="cls-15" d="M315.42,297.27c14.07-13.39-20-72.09-47-100.43-18-18.95-38.88-30.64-54.93-32.31,16.34-5.27,44,7.1,67,31.32,27,28.34,61.1,87,47,100.43-3,2.82-7.83,3.41-13.91,2.31A8.85,8.85,0,0,0,315.42,297.27Z"/><path class="cls-5" d="M280.08,245.53a10,10,0,1,1,.31-14.15A10,10,0,0,1,280.08,245.53Z"/><path class="cls-6" d="M280.38,245.25a9.62,9.62,0,1,1,.3-13.57A9.62,9.62,0,0,1,280.38,245.25Z"/><path class="cls-5" d="M279.61,244.57a8,8,0,1,1,.25-11.3A8,8,0,0,1,279.61,244.57Z"/><path class="cls-7" d="M278.92,244.59a7.69,7.69,0,1,1,.24-10.84A7.68,7.68,0,0,1,278.92,244.59Z"/><path class="cls-8" d="M276.93,244.36a7.7,7.7,0,0,0-3.48-13,7.67,7.67,0,1,1-1.65,15.11H272A7.6,7.6,0,0,0,276.93,244.36Z"/><path class="cls-8" d="M267.88,230.8a9.63,9.63,0,0,0,11.42,15.32,9.62,9.62,0,1,1-10.23-16.29A9.6,9.6,0,0,0,267.88,230.8Z"/><path class="cls-16" d="M307.23,229.68,262.72,272q-2.34-1.8-4.62-3.63l45.73-43.51Q305.55,227.25,307.23,229.68Z"/><path class="cls-17" d="M331.62,296.12c-13.74,7.28-14.73,32.35-2.2,56s56.05,51.75,58.56,50.42,3.74-53.11-8.79-76.76S345.36,288.84,331.62,296.12Z"/><path class="cls-18" d="M331.62,296.12c-9.18,4.86-9.32,22.59-.31,39.61s39.17,37.82,40.85,36.94,1.41-37.52-7.6-54.54S340.8,291.26,331.62,296.12Z"/><path class="cls-19" d="M331.62,296.12c-9.18,4.86-11.25,18.95-4.62,31.46s32.76,25.73,34.44,24.84,5.44-29.93-1.19-42.44S340.8,291.26,331.62,296.12Z"/><path class="cls-20" d="M331.62,296.12c-6.87,3.64-8.19,14.6-3,24.49s25.26,20.67,26.52,20,3.59-23.28-1.65-33.18S338.49,292.48,331.62,296.12Z"/><path class="cls-21" d="M318.08,249.09l28.39,1,36,41.32-2.21,2.1-29.86-22.16-21,5.09C327.3,268.42,323.28,258.93,318.08,249.09Z"/><path class="cls-22" d="M319.37,249.71l26.5,1.42,35.23,40.11-1.18,1.12-29.36-22.21-20.32,5.14A126.15,126.15,0,0,0,319.37,249.71Z"/><path class="cls-16" d="M344.91,251.53l-14.57,22.41a117.66,117.66,0,0,0-10.09-23.73Z"/><path class="cls-16" d="M330.94,274.52l14.72-22.64h.07l1,1.14,3.42,16.8L331,274.67Z"/><polygon class="cls-16" points="351.18 270 347.99 254.34 378.03 288.54 376.99 289.53 351.18 270"/><path class="cls-21" d="M280.95,284.41l-.41,28.4,39.49,38,2.21-2.1-20.66-30.92L307.71,297C299.81,294.58,290.53,290.09,280.95,284.41Z"/><path class="cls-22" d="M281.51,285.73l.11,26.53,38.32,37.17,1.18-1.12-20.73-30.42,6.15-20A126.2,126.2,0,0,1,281.51,285.73Z"/><path class="cls-16" d="M282.06,311.32l23.11-13.43A117.7,117.7,0,0,1,282,286.63Z"/><path class="cls-16" d="M305.72,298.52l-23.35,13.57v.07l1.09,1.06,16.61,4.25,5.8-18.9Z"/><polygon class="cls-16" points="300.2 318.5 284.72 314.54 317.39 346.23 318.43 345.25 300.2 318.5"/><path class="cls-16" d="M260.49,271l45.11-42.91q1.71,2.6,3.36,5.23L265.55,274.6Q263,272.82,260.49,271Z"/><path class="cls-16" d="M271.24,278.46l41.29-39.28q1.61,2.73,3.13,5.45l-39.13,37.23Q273.89,280.2,271.24,278.46Z"/><rect class="cls-23" x="316.13" y="291.43" width="19.35" height="6.04" transform="translate(-113.2 305.77) rotate(-43.58)"/><rect class="cls-24" x="316.72" y="292.1" width="18.15" height="4.67" rx="1.35" ry="1.35" transform="translate(-113.19 305.76) rotate(-43.58)"/><rect class="cls-23" x="317.27" y="292.55" width="17.11" height="3.83" rx="1.1" ry="1.1" transform="translate(-113.2 305.79) rotate(-43.58)"/><rect class="cls-23" x="322.42" y="256.39" width="6.35" height="75.72" transform="translate(-113.12 305.48) rotate(-43.57)"/><rect class="cls-23" x="303.3" y="264.03" width="6.35" height="20.26" transform="translate(-104.54 286.77) rotate(-43.57)"/><rect class="cls-24" x="304.05" y="264.68" width="4.92" height="19" rx="1.42" ry="1.42" transform="translate(-104.54 286.8) rotate(-43.57)"/><rect class="cls-24" x="330.2" y="274.78" width="4.92" height="53.75" rx="1.42" ry="1.42" transform="translate(-116.28 312.39) rotate(-43.57)"/><rect class="cls-24" x="310.28" y="281.25" width="6.35" height="0.49" rx="0.14" ry="0.14" transform="translate(-107.67 293.69) rotate(-43.58)"/><rect class="cls-25" width="998" height="508"/></g></g></svg>