<svg xmlns="http://www.w3.org/2000/svg" xmlns:xlink="http://www.w3.org/1999/xlink" viewBox="0 0 999.37 508"><defs><style>.cls-1,.cls-2{fill:none;}.cls-1{stroke:#117a05;stroke-miterlimit:10;stroke-width:2px;}.cls-3{fill:#fff;}.cls-4{fill:url(#linear-gradient);}.cls-5{fill:url(#linear-gradient-2);}.cls-6{fill:url(#linear-gradient-3);}.cls-7{fill:url(#linear-gradient-4);}.cls-8{fill:#e6e7e8;}.cls-9{fill:url(#linear-gradient-5);}.cls-10{fill:url(#linear-gradient-6);}.cls-11{fill:#6ac9d4;}.cls-12{fill:#585b57;}</style><linearGradient id="linear-gradient" x1="-1332.59" y1="-3085.18" x2="-1305.69" y2="-3085.18" gradientTransform="translate(-469.67 -2652.31) rotate(180)" gradientUnits="userSpaceOnUse"><stop offset="0" stop-color="#d5d5d5"/><stop offset="0.51" stop-color="#f2f2f2"/><stop offset="1" stop-color="#b6b6b6"/></linearGradient><linearGradient id="linear-gradient-2" x1="-1390.66" y1="-3113.49" x2="-1363.76" y2="-3113.49" gradientTransform="translate(-530.57 -2745.17) rotate(180)" xlink:href="#linear-gradient"/><linearGradient id="linear-gradient-3" x1="-1560.38" y1="-3085.18" x2="-1533.48" y2="-3085.18" gradientTransform="translate(2287.69 3317.87)" xlink:href="#linear-gradient"/><linearGradient id="linear-gradient-4" x1="-1502.31" y1="-3113.49" x2="-1475.41" y2="-3113.49" gradientTransform="translate(2282.22 3383.7)" xlink:href="#linear-gradient"/><linearGradient id="linear-gradient-5" x1="-1452.19" y1="-3095.68" x2="-1406.01" y2="-3095.68" gradientTransform="translate(-1232.16 3064.45) rotate(61.49)" gradientUnits="userSpaceOnUse"><stop offset="0" stop-color="#f2f2f2"/><stop offset="1" stop-color="#b6b6b6"/></linearGradient><linearGradient id="linear-gradient-6" x1="-1435.16" y1="-2968.83" x2="-1424.04" y2="-2968.83" gradientTransform="translate(2124.12 3360.15)" xlink:href="#linear-gradient"/></defs><title>Radar_Avion_3b</title><g id="Capa_2" data-name="Capa 2"><g id="Arte"><path class="cls-1" d="M153.91,496.78c0-187.91,155.12-340.25,346.46-340.25S846.83,308.87,846.83,496.78"/><path class="cls-1" d="M233,499.46c0-145,119.7-262.55,267.35-262.55S767.72,354.45,767.72,499.46"/><path class="cls-1" d="M317,500.89c0-99.44,82.09-180.06,183.34-180.06s183.34,80.61,183.34,180.06"/><line class="cls-1" x1="500.37" y1="499.79" x2="1.37" y2="499.79"/><line class="cls-1" x1="500.36" y1="499.78" x2="147.52" y2="147.01"/><line class="cls-1" x1="500.37" y1="499.79" x2="500.37" y2="0.89"/><line class="cls-1" x1="500.37" y1="499.78" x2="853.22" y2="147.01"/><line class="cls-1" x1="500.37" y1="499.79" x2="999.37" y2="499.79"/><rect class="cls-2" width="998" height="508"/><path class="cls-3" d="M652,345.74c3.68,1.4,57.76,22.39,57.76,22.39l-21.94,12.22s-36.23-25-40.66-28.12S648.37,344.36,652,345.74Z"/><path class="cls-3" d="M710.07,452.68c.83-3.85,12.67-60.64,12.67-60.64l-22.19,11.75s1.24,44,1.45,49.42S709.26,456.47,710.07,452.68Z"/><rect class="cls-4" x="836.02" y="412.23" width="26.9" height="41.27" rx="10.93" ry="10.93" transform="translate(874.48 1385.94) rotate(-118.51)"/><rect class="cls-5" x="833.19" y="347.69" width="26.9" height="41.27" rx="10.93" ry="10.93" transform="translate(927.02 1288.1) rotate(-118.51)"/><rect class="cls-6" x="727.32" y="212.06" width="26.9" height="41.27" rx="10.93" ry="10.93" transform="translate(591.73 -529.32) rotate(61.49)"/><rect class="cls-7" x="779.91" y="249.58" width="26.9" height="41.27" rx="10.93" ry="10.93" transform="translate(652.19 -555.93) rotate(61.49)"/><path class="cls-8" d="M697.43,208.63c8.55,5.5,134,87.56,134,87.56l-60.16,33S692.12,239.26,682.48,228,689,203.21,697.43,208.63Z"/><path class="cls-3" d="M849.81,489.23c0-10.16-.47-160.09-.47-160.09l-60.43,32.49S821.23,477,825.39,491.2,849.77,499.25,849.81,489.23Z"/><path class="cls-9" d="M907.06,302.74c10.46-5.68,25.81-27,20.23-37.26h0c-5.58-10.28-31.8-9-42.26-3.32l-3.38,1.91h0L701.79,365.82c-10.28,5.58-22.19,20.87-16.61,31.15h0c5.58,10.28,24.89,8.6,35.17,3l183.26-95.47h0Z"/><rect class="cls-10" x="688.96" y="368.46" width="11.11" height="45.71" rx="5.56" ry="5.56" transform="translate(706.95 -405.76) rotate(61.49)"/><path class="cls-11" d="M924.49,283.63,697.41,404.17a37.82,37.82,0,0,0,11.94-.41L918.17,292.91A58.45,58.45,0,0,0,924.49,283.63Z"/><path class="cls-11" d="M687.7,379.24,912.82,258a37.62,37.62,0,0,0-11.87.48L693.92,370A58.13,58.13,0,0,0,687.7,379.24Z"/><path class="cls-12" d="M919,270h0c-4.61-8.49-26-7.6-34.45-3l-2.74,1.55,1.81,3.33c9.52-2.06,21.55-1.77,24.47,3.61h0c2.92,5.38-3.38,15.63-10.3,22.49l2.16,4,2.79-1.46C911.26,295.88,923.63,278.45,919,270Z"/></g></g></svg>