<svg xmlns="http://www.w3.org/2000/svg" viewBox="0 0 999.37 508"><defs><style>.cls-1,.cls-25{fill:none;}.cls-1{stroke:#26ff15;stroke-miterlimit:10;stroke-width:2px;}.cls-14,.cls-2{fill:#26bdd1;}.cls-3,.cls-5{fill:#00488e;}.cls-4{fill:#f8fed2;stroke:#00b7ff;stroke-width:0.48px;}.cls-10,.cls-13,.cls-4{stroke-miterlimit:22.93;}.cls-11,.cls-14,.cls-15,.cls-16,.cls-17,.cls-18,.cls-19,.cls-20,.cls-21,.cls-22,.cls-4,.cls-5,.cls-6,.cls-7,.cls-8{fill-rule:evenodd;}.cls-6{fill:#019dcb;}.cls-7{fill:#03bddc;}.cls-8{fill:#c4ffff;}.cls-13,.cls-15,.cls-8{opacity:0.5;}.cls-12,.cls-20,.cls-9{fill:#fff;}.cls-10,.cls-13,.cls-18{fill:#fc0;}.cls-10,.cls-13{stroke:#f60;stroke-width:0.19px;}.cls-11{fill:#c63;}.cls-12{opacity:0.82;}.cls-15{fill:#039;}.cls-16,.cls-24{fill:#05a4e2;}.cls-17{fill:#f93;}.cls-19{fill:#ff0;}.cls-21,.cls-23{fill:#024056;}.cls-22{fill:#087fa3;}</style></defs><title>Radar_Nave_2b</title><g id="Capa_2" data-name="Capa 2"><g id="Arte"><line class="cls-1" x1="500.37" y1="499.79" x2="1.37" y2="499.79"/><line class="cls-1" x1="500.36" y1="499.78" x2="147.52" y2="147.01"/><line class="cls-1" x1="500.37" y1="499.79" x2="500.37" y2="0.89"/><line class="cls-1" x1="500.37" y1="499.78" x2="853.22" y2="147.01"/><line class="cls-1" x1="500.37" y1="499.79" x2="999.37" y2="499.79"/><path class="cls-1" d="M153.91,496.78c0-187.91,155.12-340.25,346.46-340.25S846.83,308.87,846.83,496.78"/><path class="cls-1" d="M233,499.46c0-145,119.7-262.55,267.35-262.55S767.72,354.45,767.72,499.46"/><path class="cls-1" d="M317,500.89c0-99.44,82.09-180.06,183.34-180.06s183.34,80.61,183.34,180.06"/><rect class="cls-2" x="752.07" y="164.03" width="75.72" height="2.79" transform="translate(125.61 623.72) rotate(-46.43)"/><rect class="cls-2" x="798.92" y="143.94" width="20.26" height="2.79" transform="translate(146.1 631.33) rotate(-46.43)"/><rect class="cls-3" x="784.31" y="155.27" width="28.93" height="1.65" rx="0.48" ry="0.48" transform="translate(135.12 627.22) rotate(-46.43)"/><path class="cls-4" d="M788.47,167c14.07,13.39,3.62,47.22-23.35,75.56s-83.92,65.33-98,51.94,20-72.09,47-100.43S774.4,153.57,788.47,167Z"/><path class="cls-5" d="M740.25,217.09a19.59,19.59,0,1,0-.61-27.63A19.59,19.59,0,0,0,740.25,217.09Z"/><path class="cls-6" d="M739.67,216.54a18.79,18.79,0,1,0-.59-26.5A18.79,18.79,0,0,0,739.67,216.54Z"/><path class="cls-5" d="M741.17,215.2a15.65,15.65,0,1,0-.49-22.06A15.64,15.64,0,0,0,741.17,215.2Z"/><path class="cls-7" d="M742.52,215.24a15,15,0,1,0-.47-21.17A15,15,0,0,0,742.52,215.24Z"/><path class="cls-8" d="M746.41,214.8a15,15,0,0,1,6.8-25.4,15,15,0,1,0,3.22,29.5h-.32A14.84,14.84,0,0,1,746.41,214.8Z"/><path class="cls-8" d="M764.08,188.31a18.81,18.81,0,0,1-22.31,29.92,18.79,18.79,0,1,0,20-31.81A18.74,18.74,0,0,1,764.08,188.31Z"/><ellipse class="cls-9" cx="812.88" cy="141.4" rx="5.3" ry="5.47" transform="translate(150.04 632.74) rotate(-46.42)"/><circle class="cls-10" cx="812.68" cy="141.27" r="5.28" transform="translate(150.07 632.56) rotate(-46.42)"/><path class="cls-11" d="M813.35,136.07a4.93,4.93,0,0,0-4.55,1.65,5.32,5.32,0,0,0-.12,7,5,5,0,0,0,2.06,1.46C806.56,142.47,807.88,136.44,813.35,136.07Z"/><path class="cls-11" d="M816.41,144.17c-1.68,1.76-2.84,2.06-4.07,2.15,1.56.29,2.93-.13,4.44-1.71s1.57-4.93-.13-6.86a4.86,4.86,0,0,0-1.74-1.26C817.15,138,818.08,142.41,816.41,144.17Z"/><circle class="cls-12" cx="816.12" cy="140.06" r="1.49" transform="translate(152.02 634.67) rotate(-46.42)"/><circle class="cls-13" cx="813.03" cy="141.44" r="5.28" transform="translate(150.06 632.86) rotate(-46.42)"/><path class="cls-14" d="M769.58,161.66l25.12,23.9a31.22,31.22,0,0,0-.89-9.28L778.9,162.1A31.24,31.24,0,0,0,769.58,161.66Z"/><path class="cls-14" d="M765.34,162.27a56.85,56.85,0,0,0-7,1.81l34.47,32.79a56.83,56.83,0,0,0,1.46-7Z"/><path class="cls-14" d="M754.84,165.34q-3,1.16-6.08,2.65l40.66,38.68q1.33-3.15,2.34-6.2Z"/><path class="cls-15" d="M679.25,295.45c-14.07-13.39,20-72.09,47-100.43,18-18.95,38.88-30.64,54.93-32.31-16.34-5.27-44,7.1-67,31.32-27,28.34-61.1,87-47,100.43,3,2.82,7.83,3.41,13.91,2.31A8.85,8.85,0,0,1,679.25,295.45Z"/><path class="cls-5" d="M714.59,243.72a10,10,0,1,0-.31-14.15A10,10,0,0,0,714.59,243.72Z"/><path class="cls-6" d="M714.29,243.43a9.62,9.62,0,1,0-.3-13.57A9.62,9.62,0,0,0,714.29,243.43Z"/><path class="cls-5" d="M715.06,242.75a8,8,0,1,0-.25-11.3A8,8,0,0,0,715.06,242.75Z"/><path class="cls-7" d="M715.75,242.77a7.69,7.69,0,1,0-.24-10.84A7.68,7.68,0,0,0,715.75,242.77Z"/><path class="cls-8" d="M717.74,242.55a7.7,7.7,0,0,1,3.48-13,7.67,7.67,0,1,0,1.65,15.11h-.16A7.6,7.6,0,0,1,717.74,242.55Z"/><path class="cls-8" d="M726.79,229a9.63,9.63,0,0,1-11.42,15.32A9.62,9.62,0,1,0,725.59,228,9.6,9.6,0,0,1,726.79,229Z"/><path class="cls-16" d="M687.44,227.86,732,270.21q2.34-1.8,4.62-3.63l-45.73-43.51Q689.12,225.43,687.44,227.86Z"/><path class="cls-17" d="M663,294.3c13.74,7.28,14.73,32.35,2.2,56S609.2,402,606.69,400.72,603,347.61,615.48,324,649.3,287,663,294.3Z"/><path class="cls-18" d="M663,294.3c9.18,4.86,9.32,22.59.31,39.61s-39.17,37.82-40.85,36.94-1.41-37.52,7.6-54.54S653.87,289.44,663,294.3Z"/><path class="cls-19" d="M663,294.3c9.18,4.86,11.25,18.95,4.62,31.46s-32.76,25.73-34.44,24.84-5.44-29.93,1.19-42.44S653.87,289.44,663,294.3Z"/><path class="cls-20" d="M663,294.3c6.87,3.64,8.19,14.6,3,24.49s-25.26,20.67-26.52,20-3.59-23.28,1.65-33.18S656.18,290.66,663,294.3Z"/><path class="cls-21" d="M676.59,247.27l-28.39,1-36,41.32,2.21,2.1,29.86-22.16,21,5.09C667.37,266.6,671.39,257.11,676.59,247.27Z"/><path class="cls-22" d="M675.3,247.9l-26.5,1.42-35.23,40.11,1.18,1.12,29.36-22.21,20.32,5.14A126.15,126.15,0,0,1,675.3,247.9Z"/><path class="cls-16" d="M649.76,249.71l14.57,22.41a117.66,117.66,0,0,1,10.09-23.73Z"/><path class="cls-16" d="M663.72,272.71,649,250.06h-.07l-1,1.14L644.51,268l19.16,4.85Z"/><polygon class="cls-16" points="643.49 268.19 646.68 252.53 616.64 286.73 617.68 287.71 643.49 268.19"/><path class="cls-21" d="M713.72,282.59l.41,28.4-39.49,38-2.21-2.1,20.66-30.92L687,295.2C694.86,292.76,704.14,288.27,713.72,282.59Z"/><path class="cls-22" d="M713.16,283.91,713,310.44l-38.32,37.17-1.18-1.12,20.73-30.42-6.15-20A126.2,126.2,0,0,0,713.16,283.91Z"/><path class="cls-16" d="M712.61,309.5,689.5,296.07a117.7,117.7,0,0,0,23.21-11.26Z"/><path class="cls-16" d="M688.95,296.7l23.35,13.57v.07l-1.09,1.06-16.61,4.25-5.8-18.9Z"/><polygon class="cls-16" points="694.47 316.68 709.95 312.72 677.28 344.42 676.24 343.43 694.47 316.68"/><path class="cls-16" d="M734.18,269.16l-45.11-42.91q-1.71,2.6-3.36,5.23l43.41,41.29Q731.66,271,734.18,269.16Z"/><path class="cls-16" d="M723.43,276.64l-41.29-39.28q-1.61,2.73-3.13,5.45L718.14,280Q720.78,278.38,723.43,276.64Z"/><rect class="cls-23" x="665.84" y="282.96" width="6.04" height="19.35" transform="translate(-4.23 575.39) rotate(-46.42)"/><rect class="cls-24" x="666.54" y="283.55" width="4.67" height="18.15" rx="1.35" ry="1.35" transform="translate(-4.22 575.4) rotate(-46.42)"/><rect class="cls-23" x="666.93" y="284.09" width="3.83" height="17.11" rx="1.1" ry="1.1" transform="translate(-4.25 575.38) rotate(-46.42)"/><rect class="cls-23" x="631.22" y="289.25" width="75.72" height="6.35" transform="translate(-3.96 575.62) rotate(-46.43)"/><rect class="cls-23" x="678.07" y="269.17" width="20.26" height="6.35" transform="translate(16.53 583.23) rotate(-46.43)"/><rect class="cls-24" x="678.66" y="269.9" width="19" height="4.92" rx="1.42" ry="1.42" transform="translate(16.51 583.21) rotate(-46.43)"/><rect class="cls-24" x="635.13" y="297.38" width="53.75" height="4.92" rx="1.42" ry="1.42" transform="translate(-11.52 572.8) rotate(-46.43)"/><rect class="cls-24" x="680.97" y="276.5" width="0.49" height="6.35" rx="0.14" ry="0.14" transform="translate(8.99 580.31) rotate(-46.42)"/><rect class="cls-25" width="998" height="508"/></g></g></svg>