<svg xmlns="http://www.w3.org/2000/svg" viewBox="0 0 999.37 508"><defs><style>.cls-1,.cls-2{fill:none;}.cls-1{stroke:#1ff900;stroke-miterlimit:10;stroke-width:2px;}.cls-3{fill:#2f1e4c;}.cls-4{fill:#4fc4d2;}.cls-5{fill:#eaece5;}.cls-6{fill:#bfbcb1;}.cls-7{fill:#0f90b0;}.cls-8{fill:#43b6b1;}.cls-9{fill:#3c8f94;}.cls-10{fill:#e69fa5;}.cls-11{fill:#b8e3f0;}.cls-12{fill:#fff;}.cls-13{fill:#f1cb36;}.cls-14{fill:#d7842d;}</style></defs><title>Radar_Unicornio_1</title><g id="Capa_2" data-name="Capa 2"><g id="Arte"><line class="cls-1" x1="500.37" y1="499.79" x2="1.37" y2="499.79"/><line class="cls-1" x1="500.36" y1="499.78" x2="147.52" y2="147.01"/><line class="cls-1" x1="500.37" y1="499.79" x2="500.37" y2="0.89"/><line class="cls-1" x1="500.37" y1="499.78" x2="853.22" y2="147.01"/><line class="cls-1" x1="500.37" y1="499.79" x2="999.37" y2="499.79"/><path class="cls-1" d="M153.91,496.78c0-187.91,155.12-340.25,346.46-340.25S846.83,308.87,846.83,496.78"/><path class="cls-1" d="M233,499.46c0-145,119.7-262.55,267.35-262.55S767.72,354.45,767.72,499.46"/><path class="cls-1" d="M317,500.89c0-99.44,82.09-180.06,183.34-180.06s183.34,80.61,183.34,180.06"/><rect class="cls-2" width="998" height="508"/><path class="cls-3" d="M502.52,237.66c-30,0-51-27.06-51-65.81,0-19.86,5.37-40.34,14.72-56.17,9.92-16.79,22.8-26,36.26-26s26.34,9.25,36.26,26c9.36,15.83,14.72,36.31,14.72,56.17C553.5,210.6,532.53,237.66,502.52,237.66Zm0-145.73C477.13,91.93,454,130,454,171.86c0,37.4,20,63.53,48.52,63.53S551,209.26,551,171.86C551,130,527.91,91.93,502.52,91.93Z"/><path class="cls-4" d="M463.1,130.32c-1.35-2.6-6.28-15.28-8.27-18.59s-6.84-10.65-7.64-12.64-.24-5,3.34-5.22,9.15,2.87,11.06,4,8.11,9.55,9.23,11.32S480,121.5,481,123.48s-1,7.42-6.52,9.26S464.14,132.3,463.1,130.32Z"/><path class="cls-5" d="M459,97.53c-2.33-1.74-5-3-7.62-2.72-5.79.71-1.78,6.21-.05,8.72l.54.81C452.46,100.71,455.23,97.44,459,97.53Z"/><path class="cls-6" d="M449,94.11c-.33,1.7-2,2.74-1,4.2.75,1.12,2.8,7.94,4.29,7.49.38-.12,1.89-5.58,1.61-5.82-2.83-2.29-3.87-4.55-3.93-5.8a.47.47,0,0,0-.93-.07Z"/><path class="cls-3" d="M481.62,123a2.3,2.3,0,0,1-.08-.25l-1-1.42C476.87,116,472.83,110,470,105.9A41.24,41.24,0,0,0,459.1,95c-3-2-9.7-4.29-12.52-.65-1.59,2-.79,4.56.25,6.67,1.65,3.33,4.06,6.41,5.85,9.7,2.4,4.43,4.45,9.13,6.51,13.7.9,2,1.75,4,2.47,6.09.68.64,2.5.22,2.36-.78,0,0,0,0,0,0-.71-1.94-1.58-3.84-2.36-5.62-1.69-3.88-3.56-7.71-5.34-11.56a61.61,61.61,0,0,0-5-9c-1.72-2.51-5.73-8,.05-8.72,4.95-.6,9.88,4.44,12.75,7.47,3.34,3.52,5.72,7.57,8.37,11.53,2,2.95,4.35,6.74,7.07,10.44C480.39,124.78,482.21,124.36,481.62,123Z"/><path class="cls-4" d="M539.7,130.32c1.35-2.6,6.28-15.28,8.27-18.59s6.84-10.65,7.64-12.64.24-5-3.34-5.22-9.15,2.87-11.06,4-8.11,9.55-9.23,11.32-9.15,12.27-10.18,14.25,1,7.42,6.52,9.26S538.67,132.3,539.7,130.32Z"/><path class="cls-5" d="M543.81,97.53c2.33-1.74,5-3,7.62-2.72,5.79.71,1.78,6.21.05,8.72l-.54.81C550.34,100.71,547.57,97.44,543.81,97.53Z"/><path class="cls-6" d="M553.76,94.11c.33,1.7,2,2.74,1,4.2-.75,1.12-2.8,7.94-4.29,7.49-.38-.12-1.89-5.58-1.61-5.82,2.83-2.29,3.87-4.55,3.93-5.8a.47.47,0,0,1,.93-.07Z"/><path class="cls-3" d="M521.18,123a2.3,2.3,0,0,0,.08-.25l1-1.42C525.94,116,530,110,532.82,105.9A41.24,41.24,0,0,1,543.7,95c3-2,9.7-4.29,12.52-.65,1.59,2,.79,4.56-.25,6.67-1.65,3.33-4.06,6.41-5.85,9.7-2.4,4.43-4.45,9.13-6.51,13.7-.9,2-1.75,4-2.47,6.09-.68.64-2.5.22-2.36-.78,0,0,0,0,0,0,.71-1.94,1.58-3.84,2.36-5.62,1.69-3.88,3.56-7.71,5.34-11.56a61.61,61.61,0,0,1,5-9c1.72-2.51,5.73-8-.05-8.72-4.95-.6-9.88,4.44-12.75,7.47-3.34,3.52-5.72,7.57-8.37,11.53-2,2.95-4.35,6.74-7.07,10.44C522.42,124.78,520.59,124.36,521.18,123Z"/><path class="cls-4" d="M477.39,206.31C476,209.5,467.59,223.71,466,228s-4.87,14.16-6.16,16.41-4.65,4.19-7.72,1.4-4.52-9.86-4.91-12.37,2.78-14.34,3.6-16.67,4.59-17.36,5.69-19.8,8-5.13,14.18-2S478.49,203.87,477.39,206.31Z"/><path class="cls-5" d="M461.72,237.14c-.43,3.29-1.52,6.46-4.09,8.22-5.62,3.86-7.15-4-7.94-7.46-.08-.37-.18-.74-.27-1.11C453.24,239.46,458.57,240.12,461.72,237.14Z"/><path class="cls-6" d="M456.27,247.77c-1.82-1.21-4.21-.8-4.69-2.82-.37-1.55-4.78-9-3.09-9.75.43-.19,6.68,3.34,6.65,3.76-.36,4.15.8,6.91,1.87,8,.48.5-.14,1.18-.74.78Z"/><path class="cls-3" d="M455.54,196.81a2.92,2.92,0,0,1-.19.27q-.28,1-.58,2c-2.2,7.27-4.88,15.47-6.54,21.06a44.32,44.32,0,0,0-1.88,17.7c.49,4,3.58,11.45,9.37,10.88,3.25-.32,5.05-3,6.27-5.54,1.91-4,3-8.47,4.73-12.58,2.37-5.52,5.3-11,8.08-16.33,1.22-2.34,2.51-4.66,3.93-6.9.08-1.07-1.78-2.24-2.64-1.33l0,0c-1.32,2.14-2.46,4.38-3.56,6.44-2.41,4.5-4.63,9.1-6.94,13.64a72.46,72.46,0,0,0-4.73,11.33c-1.06,3.43-3.19,11.14-8.49,6.91-4.53-3.61-3.59-11.72-2.94-16.51.75-5.57,2.78-10.78,4.49-16.13,1.28-4,3.06-9,4.48-14.18C458.23,196.43,456.37,195.25,455.54,196.81Z"/><path class="cls-4" d="M529,206.31c1.44,3.19,9.8,17.4,11.42,21.68s4.87,14.16,6.16,16.41,4.65,4.19,7.72,1.4,4.52-9.86,4.91-12.37-2.78-14.34-3.6-16.67S551,199.4,549.88,197s-8-5.13-14.18-2S527.87,203.87,529,206.31Z"/><path class="cls-5" d="M543.66,237.18c1,3.4,2.74,6.57,5.89,8.08,6.88,3.28,7.32-5.15,7.63-8.93,0-.4.08-.8.12-1.2C553.49,238.44,547.66,239.88,543.66,237.18Z"/><path class="cls-6" d="M551.46,247.6c1.84-1.52,4.55-1.42,4.76-3.61.16-1.68,3.87-10.12,1.87-10.68-.51-.14-6.9,4.43-6.79,4.87,1.07,4.32.23,7.37-.79,8.69-.45.59.35,1.22.95.72Z"/><path class="cls-3" d="M550.47,195.54a2.92,2.92,0,0,0,.19.27q.28,1,.58,2c2.2,7.27,4.88,15.47,6.54,21.06a44.32,44.32,0,0,1,1.88,17.7c-.49,4-3.58,11.45-9.37,10.88-3.25-.32-5.05-3-6.27-5.54-1.91-4-3-8.47-4.73-12.58-2.37-5.52-5.3-11-8.08-16.33-1.22-2.34-2.51-4.66-3.93-6.9-.08-1.07,1.78-2.24,2.64-1.33l0,0c1.32,2.14,2.46,4.38,3.56,6.44,2.41,4.5,4.63,9.1,6.94,13.64a72.46,72.46,0,0,1,4.73,11.33c1.06,3.43,3.19,11.14,8.49,6.91,4.53-3.61,3.59-11.72,2.94-16.51-.75-5.57-2.78-10.78-4.49-16.13-1.28-4-3.06-9-4.48-14.18C547.77,195.16,549.64,194,550.47,195.54Z"/><path class="cls-4" d="M551.5,171.56c0,39.54-21.93,63.54-49,63.54s-49-24-49-63.54,21.93-79.65,49-79.65S551.5,132,551.5,171.56Z"/><path class="cls-7" d="M482.58,174.81a.92.92,0,0,0,1.48.32,42.86,42.86,0,0,0,14.28-21.52c2.46-9.3-.62-17.18-5-25.58a33.13,33.13,0,0,1-4.59,19.18c-.4.09-.65-.37-.75-.74-1.3-5.05-2.59-10.17-5.17-14.78-.73-1.3-1.55-2.55-2.29-3.84a31.54,31.54,0,0,1-3.83-11.4,14.27,14.27,0,0,1-.13-5.39,27.17,27.17,0,0,1,2.9-6.61c.29-.5-6.56,4.1-11.53,13.44a24.19,24.19,0,0,0-1.12,20.79c1.5,3.62,3.67,7,5.43,10.54.77,1.55,5,14.91,4.06,16.21,2.27-1.33,4.09-6.11,3.56-9,3.2,5,3.55,11.88,2.68,18A.86.86,0,0,0,482.58,174.81Z"/><path class="cls-7" d="M516.26,186.13a1.06,1.06,0,0,1-1.7.37c-7.72-6.33-13.89-15.2-16.4-24.72-2.82-10.68.71-19.74,5.73-29.39a38.07,38.07,0,0,0,5.28,22c.46.11.75-.43.86-.85,1.5-5.8,3-11.69,5.94-17,.84-1.49,1.78-2.93,2.63-4.42a36.24,36.24,0,0,0,4.4-13.1c.27-2,.67-4.22.15-6.19a31.21,31.21,0,0,0-3.33-7.59c-.33-.57,7.54,4.71,13.25,15.44a27.8,27.8,0,0,1,1.29,23.88c-1.72,4.16-4.22,8.07-6.24,12.11-.89,1.78-5.77,17.13-4.66,18.63-2.6-1.52-4.7-7-4.09-10.36-3.68,5.7-4.08,13.65-3.08,20.71A1,1,0,0,1,516.26,186.13Z"/><path class="cls-8" d="M465.89,288.89c7.33-7.8,19.7-13.13,22-23.84.1-.47.82-.3.77.15-.73,6.51-5.32,11.46-10.39,15.7-5.23,4.38-13.15,9.16-15.13,15.8-1.87,6.29.88,15.78,8.77,17.42,4.56.95,9-.58,13.07-2.51a9.52,9.52,0,0,1-6.81-1.89,9.32,9.32,0,0,1-2.27-11.26c2.39-4.74,7.29-7.93,11.32-11.41,4.81-4.16,9.14-8.66,10.51-14.79.09-.43.87-.39.84.06a18.08,18.08,0,0,1-3.29,9,12.39,12.39,0,0,1-1.29,2.11c-1.61,2.07-3.44,4-4.93,6.15s-3.27,5-2.83,7.83a11.56,11.56,0,0,0,1.06,3.11c1.55-5.72,8.15-10.16,12.7-13.62,5.71-4.35,11.48-9.42,14.78-15.64a81,81,0,0,0,4.36-14.94c.08-.5.9-.41.93.07.41,7.85-3.43,14.92-5.73,22.27-1.88,6-2.37,11.63-.82,17.42.71-5.9,5-11.28,8.26-16.29,4.06-6.33,8.4-13,9.74-20.35,2.77-15.33-5.42-30.59-20.81-36.7q-.62.5-1.25,1c4,2.87,7,6.79,7.24,10.71,0,.51-.77.63-.94.15-2.48-7-14-15.8-22.54-12.74,11.74,6.4,21.51,20.94,19,33.61-.1.5-1,.44-1-.07.06-12.87-7.78-26.85-20.53-32.74a14.49,14.49,0,0,0-5.66.14c-2.89.87-2.63,3.27-2.36,5.52,1.35,3.53.59,7.5-.63,11-1.64,4.69-5.35,8.15-8.81,11.74,4.67.05,8.38-3.46,10.74-7.25a9.67,9.67,0,0,0,.56-8.07c-.28-.66.75-1,1.16-.49,4.61,5.82-3,14.5-6.87,18.75-2.8,3-5.82,5.84-8.84,8.68-3.24,3.05-6.23,6.22-7.07,10.32,2.32-2,6.2-3.3,8.52-4.38,4.23-2,9.06-4.08,10.54-8.57a.33.33,0,0,1,.15-.18v0c.09-.4.81-.37.79.06-.13,3.75-2.76,7.11-5.25,9.9-3.78,4.25-8.42,7.3-13.2,10.5-5.39,3.61-10.59,8.08-11.47,14.53-.47,3.42.84,6,2.84,8.48C455,298.13,461.09,292.57,465.89,288.89Z"/><path class="cls-9" d="M456.84,304.8c-.09-2.84,1.31-4.85,1.85-7.46.49-2.38-.06-4.42,1.16-6.77,2.24-4.27,6.94-6.94,11.17-9.32,5.65-3.18,10.11-7.41,15-11.42a10.85,10.85,0,0,0-1.11,4.19l-.26.31a45.17,45.17,0,0,1-3.82,3.76c-3.65,3.3-7.37,6.54-11.28,9.58a24,24,0,0,0-4.62,4.2c-2.53,3.34-2.73,7.73-2.21,11.78a13.44,13.44,0,0,0,2.37,6.71,14.8,14.8,0,0,0,3.37,2.95,11.37,11.37,0,0,0,6.23,2.44,11.92,11.92,0,0,0,3.47-.66,62.08,62.08,0,0,0,8.78-3.44c-3.79-1.37-8.4-1-11.69-3.19a9,9,0,0,1-3.82-9c1-5.1,4.72-9.5,8.41-13.21s8.19-7.22,11.3-11.5c2.55-3.51,4.37-7.38,6.45-11.13-.38.69.25,3,.26,3.83a26.07,26.07,0,0,1-.33,4.38,29.23,29.23,0,0,1-2,7.51c-2.61,5.41-8.11,9.27-9.59,15.22-.58,2.33-.35,5.05,1.52,6.71a51.27,51.27,0,0,1,8.52-9.86.81.81,0,0,0,.7-.69c.54-4,2.53-7.38,4.8-10.78a112.59,112.59,0,0,0,6.7-11,66.9,66.9,0,0,0,5-12.65,47.07,47.07,0,0,0,1.43-6.26,23.61,23.61,0,0,1,.64-4.33c2.25,2.92,2.71,6.21,2.76,9.85.09,5.66-1.29,10.44-3,15.81a103.8,103.8,0,0,0-4,17.53c-.45,3.28-.51,7.14,2.24,9.26.17.13,1.71-5.42,1.86-5.85.37-1,1.18-1.44,1.65-2.2s.34-1.94.44-3c.51-4.83,2.66-9.32,3.72-14a68.33,68.33,0,0,0,1.42-18.6,84.92,84.92,0,0,0-2.45-15.95c-.4-1.64-1.89-8.31,2.22-6.65,1.83.74,3.31,2.32,4.83,3.48.42.32.93-.21.57-.57-2.84-2.82-5.7-5.62-8.81-8.19a29.09,29.09,0,0,0-5.82-4.06,5.21,5.21,0,0,0-2.19-.7c-1.49,0-2.07,1.34-3.43,1.8a17.85,17.85,0,0,0-7.48-3.26,11.72,11.72,0,0,0-8,1.41l2.29,1.69c-2.52-.93-6.16-1.63-8.79-1-3.31.82-3.26,3.24-2.76,5.83a16.37,16.37,0,0,1-1,8.47,39.23,39.23,0,0,1-3.8,7.36,32.43,32.43,0,0,0,7.38-6.36c2.29,2,1.15,6,.78,8.52q-.72,4.93-1.8,9.8a24.91,24.91,0,0,1-7.3,13.24c-3.89,3.73-8.73,6.47-13.19,9.61s-8.69,6.92-10.57,11.8S452.24,301.84,456.84,304.8Zm55.42-54.44v-.13l0,0Zm5.53-4.45a2.66,2.66,0,0,1,.1.32c-.16-.29-.34-.59-.52-.87A3.11,3.11,0,0,1,517.8,245.91Zm-20.63-12a35.69,35.69,0,0,1,3.64,7.35,45.37,45.37,0,0,0,.2,5.13c-6.4-3.87-9-11.42-10.81-17.9l0,0A13.94,13.94,0,0,1,497.17,233.9Z"/><path class="cls-9" d="M512,221.66c6.22,1.34,11.95,6.39,15.32,11a36,36,0,0,1,6.55,16.94c1.42,5.16,2.81,10.16,6.7,14.17-2-9.65-2.13-20.09-6.44-29.07-3.87-8.06-11.55-11.92-19.73-15.33C513.65,220.17,512.85,220.93,512,221.66Z"/><path class="cls-3" d="M493.23,244c.73,2.68-.63,5.42.61,8.07a.51.51,0,0,0,1-.16c.07-1.44.41-2.85.48-4.29a6.72,6.72,0,0,0-1.29-4,.43.43,0,0,0-.77.33Z"/><path class="cls-3" d="M497.3,260.24a42.8,42.8,0,0,1-.74,4.31c-.37,1.42-1,2.81-1.27,4.24a.42.42,0,0,0,.72.34c2.36-2.12,3.62-6.23,2-9a.4.4,0,0,0-.71.12Z"/><path class="cls-3" d="M491.19,271c-1.33,2.23-3.18,4.26-4.33,6.57a.4.4,0,0,0,.58.49,9.14,9.14,0,0,0,4.53-6.8.42.42,0,0,0-.78-.26Z"/><path class="cls-3" d="M485.19,282.21c-2.11,1.87-4.82,3.11-6.43,5.43-.23.33.25.62.56.47,2.7-1.32,5.14-2.91,6.52-5.48.21-.39-.33-.7-.65-.42Z"/><path class="cls-3" d="M474.42,288a8.77,8.77,0,0,0-3,2.6c-.83,1-1.94,2.13-2.17,3.4a.46.46,0,0,0,.6.51,6,6,0,0,0,2.66-2.28,15.92,15.92,0,0,0,2.46-3.8.36.36,0,0,0-.52-.44Z"/><path class="cls-3" d="M471.41,297.18c-.41.62-.94,1.11-1.3,1.76a8.7,8.7,0,0,0-.69,1.89,5.25,5.25,0,0,0,.53,4,.45.45,0,0,0,.81-.23,13,13,0,0,1,.51-3.75c.16-.57.39-1.13.57-1.7s.19-1.14.39-1.69-.58-.65-.83-.27Z"/><path class="cls-3" d="M504.52,255.47c.56,3.23-1.06,6.38-2.09,9.37-.11.31.36.62.63.41a7.87,7.87,0,0,0,2.2-10c-.18-.32-.8-.15-.74.21Z"/><path class="cls-3" d="M507.52,268a73.3,73.3,0,0,0-3.79,6.28.45.45,0,0,0,.56.61c2.86-1.06,3.6-4.1,4.11-6.61.1-.5-.61-.7-.87-.29Z"/><path class="cls-3" d="M516.51,239.24c1.56,2.28,2,5.55,2.56,8.17.09.44.73.31.84,0a7.13,7.13,0,0,0-2.91-8.63.36.36,0,0,0-.49.49Z"/><path class="cls-3" d="M523.49,250.08a13.57,13.57,0,0,1,.29,4c0,.57,0,1.14,0,1.72a8.16,8.16,0,0,0,.35,1.8.38.38,0,0,0,.68.05,6.76,6.76,0,0,0,.68-1.72,11.93,11.93,0,0,0,.14-2.27,8.3,8.3,0,0,0-1.48-3.89c-.19-.36-.81-.08-.68.29Z"/><path class="cls-3" d="M522,264.53c-.15,2.07-1.14,4.21-1.63,6.23-.09.38.4.55.68.32,2.18-1.82,2.24-4.08,1.81-6.59a.43.43,0,0,0-.86,0Z"/><path class="cls-3" d="M527.69,259a28.91,28.91,0,0,0-1.16,5.1c0,.35.47.43.69.23,1.66-1.41,1.44-3.39,1.29-5.27a.43.43,0,0,0-.83-.06Z"/><path class="cls-3" d="M519.28,276c0,.92-.88,2.06-1.26,2.9a15.81,15.81,0,0,0-.91,2.84c-.1.42.5.56.73.24a19.72,19.72,0,0,0,2-3,5.47,5.47,0,0,0,.35-3.06.47.47,0,0,0-.94,0Z"/><path class="cls-3" d="M513.77,258.42a26.22,26.22,0,0,0-.85,3.3c-.14,1.17-.24,2.32-.34,3.49,0,.3.49.48.68.23a6.51,6.51,0,0,0,1.4-3,15.08,15.08,0,0,0-.16-4,.38.38,0,0,0-.73-.06Z"/><path class="cls-3" d="M501.43,278.78c-.64.94-1.35,1.83-2.07,2.72a6,6,0,0,0-1.41,2.31.38.38,0,0,0,.49.41c2.2-.7,3.38-3.23,3.74-5.2.08-.43-.51-.6-.75-.25Z"/><path class="cls-3" d="M504.19,244.26a44,44,0,0,1,1,6.69c.05.36.62.56.81.16a6.25,6.25,0,0,0,.58-3.71,10.52,10.52,0,0,0-1.51-3.51c-.26-.47-1-.1-.88.37Z"/><path class="cls-3" d="M492,254.23c-.11,2.11-.65,4.38-.18,6.47.09.39.67.36.85.07,1.23-2,1.6-4.79.22-6.79a.49.49,0,0,0-.89.26Z"/><path class="cls-3" d="M488.4,247.65a21.59,21.59,0,0,1-1.49,3.42,19.75,19.75,0,0,1-1.6,3.05c-.23.34.26.67.59.5a5.68,5.68,0,0,0,2.7-2.75,8.29,8.29,0,0,0,.5-4.17c0-.37-.61-.41-.69-.05Z"/><path class="cls-3" d="M506.08,228.41c.6,1,1.35,1.93,2,2.93a19.59,19.59,0,0,0,1.84,3,.51.51,0,0,0,.93-.27,7.3,7.3,0,0,0-4.2-6.22c-.38-.15-.74.2-.53.54Z"/><path class="cls-3" d="M523.11,237.6c.6,1.14,1.1,2.28,1.6,3.47a30.34,30.34,0,0,0,1.3,3.44.44.44,0,0,0,.73,0c1.39-2.5-.85-5.84-2.95-7.4a.44.44,0,0,0-.68.53Z"/><path class="cls-3" d="M484.32,264.24a12.76,12.76,0,0,1-1.51,2.91c-.6,1-1.15,2-1.76,3-.17.28.22.62.51.43,2.42-1.62,3.56-3.52,3.48-6.3,0-.4-.62-.42-.72-.06Z"/><path class="cls-3" d="M475.22,275.41a16.34,16.34,0,0,1-2.81,2.47,28.66,28.66,0,0,0-3.09,2.09.46.46,0,0,0,.39.77c2.73-.42,5.46-2.53,6.14-5,.09-.32-.39-.56-.63-.3Z"/><path class="cls-3" d="M463,284.11a9.36,9.36,0,0,0-5.45,5.27c-.13.4.44.58.72.34,1.74-1.5,4.17-3.08,5.19-5.1a.37.37,0,0,0-.46-.51Z"/><path class="cls-3" d="M479.46,258.22c-1.91,2.42-4.61,4.22-6.44,6.67-.21.28.18.64.49.54,3.35-1.11,5.33-3.88,6.56-6.83.14-.33-.34-.72-.6-.39Z"/><path class="cls-3" d="M509.47,222.26c16.22,5.76,24.93,21.44,22.09,37.19-1.33,7.37-5.67,14-9.74,20.35-3.82,6-9.26,12.44-8.26,19.69a.76.76,0,0,0,1.5-.06c.19-8.16,6.69-15.58,10.94-22.42s7.61-13.75,8.07-21.56a35.86,35.86,0,0,0-6.72-22.77c-3.79-5.21-10.56-11-17.66-11.35a.49.49,0,0,0-.22.94Z"/><path class="cls-3" d="M519.19,256.32c-1.34,8.46-5.16,16-7.46,24.2-1.66,5.94-2.79,14.52,2,19.55.4.43,1.2-.08,1-.58-2.84-7-2.56-13.65-.32-20.83,2.3-7.36,6.14-14.42,5.73-22.27,0-.48-.85-.57-.93-.07Z"/><path class="cls-3" d="M517,265.63c-2.14,8.88-9.61,15.68-17,21.27-5.27,4-13.28,9.32-13,16.42a.84.84,0,0,0,1.63.13c1.66-8,9.47-12.49,15.68-17.52,6.47-5.25,12.68-12,13.37-20.24,0-.37-.6-.4-.68-.05Z"/><path class="cls-3" d="M497.77,272.27c-1.36,6.14-5.7,10.63-10.51,14.79-4,3.48-8.93,6.67-11.32,11.41a9.32,9.32,0,0,0,2.27,11.26c3.28,2.71,8.31,2.21,12,.62.67-.29.14-1.28-.53-1.07-4.93,1.5-10.5.76-12.2-4.38s2.69-9.07,6.24-12.16c6.75-5.88,14.2-11.22,14.93-20.41,0-.45-.74-.49-.84-.06Z"/><path class="cls-3" d="M487.93,265.06c-3.4,15.61-28.16,19.8-27.5,36.88.24,6.05,4.6,12.42,11.1,14s13.67-2.25,18.64-5.64a.58.58,0,0,0-.65-1c-5.29,2.69-11.28,6.06-17.56,4.76-7.9-1.64-10.64-11.13-8.77-17.42,2-6.64,9.9-11.42,15.13-15.8,5.06-4.24,9.66-9.19,10.39-15.7.05-.46-.67-.63-.77-.15Z"/><path class="cls-3" d="M469.06,286.56c-5.31,3.81-17.95,12.89-11.5,20,.55.61,1.5.07,1.13-.66-3.92-7.84,6.83-13.38,10.88-18.95.2-.27-.24-.63-.51-.43Z"/><path class="cls-3" d="M482.17,259.82c-1.14,4.85-6.13,9.26-9.94,12.54-5.23,4.5-11.78,7.41-16.53,12.43a17.4,17.4,0,0,0-4.9,12.51c.19,3.87,3,7,6.23,9.28.71.5,1.5-.32.92-.93-3.06-3.24-5.54-6.31-4.92-10.82.89-6.45,6.09-10.92,11.47-14.53,4.78-3.21,9.42-6.26,13.2-10.5,2.49-2.79,5.11-6.16,5.25-9.9,0-.43-.7-.46-.79-.06Z"/><path class="cls-3" d="M484.57,235.72c3,7.26-5.32,14.93-10.16,19.84-5.35,5.42-15,11.63-13.23,20.07.18.83,1.52.53,1.52-.24,0-5.32,3.48-9.1,7.32-12.72,3-2.85,6-5.65,8.84-8.68,3.91-4.25,11.48-12.94,6.87-18.75-.41-.52-1.44-.17-1.16.49Z"/><path class="cls-3" d="M482,260c-1.48,4.49-6.31,6.61-10.54,8.57-3.06,1.42-8.86,3.25-10.17,6.51a.69.69,0,0,0,1,.84c2-1.14,3.69-2.71,5.79-3.81,2.39-1.24,4.88-2.32,7.26-3.56,3.52-1.84,7.08-4.52,7.36-8.51,0-.4-.59-.39-.7-.05Z"/><path class="cls-3" d="M516.74,234.43c-.6-9.49-17.12-19-26.13-13.4a.89.89,0,0,0,.08,1.59c12.79,5.87,20.65,19.88,20.59,32.77,0,.51.86.58,1,.07,2.65-13.27-8.19-28.6-20.66-34.47l.08,1.59c8.66-4.92,21.5,4.53,24.14,12,.17.48,1,.36.94-.15Z"/><path class="cls-3" d="M487.64,227.84c7.1,4,11.43,11.48,12.75,18.92.09.53,1,.73,1.12.09.92-7.64-5.35-17.66-13.61-19.68a.36.36,0,0,0-.26.67Z"/><path class="cls-3" d="M513.19,218.86c8.63,3.55,16.9,7.38,21,15.85,4.73,9.86,4.44,21.49,7.08,31.89l1.52-.89c-6.91-5.26-7.74-12.9-10.09-20.36-.25-.79-1.44-.4-1.29.37,1.57,8,2.95,15.79,10.11,21.26a.93.93,0,0,0,1.52-.89c-2.52-11.1-2.33-23.62-7.95-33.92-4.17-7.63-12.76-12.51-21.62-14-.43-.07-.69.51-.26.68Z"/><path class="cls-3" d="M481.38,227.6c2.52,9.4-5.11,16.93-10.94,23.53a.94.94,0,0,0,.55,1.58c8,1.5,14.4-5.42,15.83-12,.12-.55-.8-.89-1-.34-2.16,5.23-7.32,12-14.37,10.49l.55,1.58c3.79-4.1,8.27-7.83,10.12-13.11,1.35-3.86,2.14-8.29.15-12.08-.25-.47-1-.09-.86.37Z"/><path class="cls-3" d="M496.4,276.83c-1.81,2.3-3,4.88-5,7.1a48.76,48.76,0,0,0-5.59,7.07c-2.59,4.24-1.87,8.95,1.43,12.61.45.5,1.43.21,1.19-.5-.66-1.94-1.86-3.64-2.18-5.69-.44-2.83,1.26-5.55,2.83-7.83s3.32-4.08,4.93-6.15c1.42-1.83,2.1-4.1,3.08-6.14.19-.4-.41-.85-.72-.46Z"/><path class="cls-3" d="M490.5,314.11c-4.34,4.21-10.85,7.35-17.23,6.77-.58-.05-.86.6-.34.89,6.3,3.58,15-2.44,18.22-7.24.24-.36-.35-.71-.65-.42Z"/><ellipse class="cls-7" cx="500.06" cy="71.27" rx="26.84" ry="42.56"/><path class="cls-4" d="M513.12,44.69a68.24,68.24,0,0,0-13.06-1.44,75.65,75.65,0,0,0-13.23,1.46c-4.69,6.28-7.69,15.85-7.69,26.57,0,18.91,9.33,34.25,20.84,34.25s20.84-15.33,20.84-34.25C520.82,60.54,517.82,51,513.12,44.69Z"/><path class="cls-10" d="M481.13,65.23a6.62,6.62,0,0,0,3.11-2.93c1.28-2.11,1.34-5.26-1.57-5.92s-5.31,3.65-5.57,5.8C476.79,64.64,478.52,66.4,481.13,65.23Z"/><path class="cls-10" d="M516.26,59.73c.26,2.14,2.54,6.49,5.57,5.8s2.86-3.8,1.57-5.92a6.62,6.62,0,0,0-3.11-2.93C517.68,55.52,516,57.28,516.26,59.73Z"/><path class="cls-11" d="M503,58.26a5.4,5.4,0,0,0,4.91-1.4,1.26,1.26,0,0,0,0-1.88,5.06,5.06,0,0,0-6.46.46,1.35,1.35,0,0,0-.26,1.74,3.9,3.9,0,0,0,4,1.48,4.35,4.35,0,0,0,3.47-2.22c.23-.52-.26-1.13-.79-1.27a3.91,3.91,0,0,0-2.47.34c-.29.11-1.24.55-1.5.24l-.26,1.74a2.06,2.06,0,0,1,2.52-.43l-.51-1.82a2.41,2.41,0,0,1-2.37,1C502,56,501.79,58,503,58.26Z"/><path class="cls-11" d="M490.06,61.46a5.4,5.4,0,0,0,4.91-1.4,1.26,1.26,0,0,0,0-1.88,5.06,5.06,0,0,0-6.46.46,1.35,1.35,0,0,0-.26,1.74,3.9,3.9,0,0,0,4,1.48,4.35,4.35,0,0,0,3.47-2.22c.23-.52-.26-1.13-.79-1.27a3.91,3.91,0,0,0-2.47.34c-.29.11-1.24.55-1.5.24l-.26,1.74a2.06,2.06,0,0,1,2.52-.43l-.51-1.82a2.41,2.41,0,0,1-2.37,1c-1.3-.15-1.51,1.78-.29,2.07Z"/><path class="cls-11" d="M507.29,52.28a5.4,5.4,0,0,0,4.91-1.4,1.26,1.26,0,0,0,0-1.88,5.06,5.06,0,0,0-6.46.46,1.35,1.35,0,0,0-.26,1.74,3.9,3.9,0,0,0,4,1.48A4.35,4.35,0,0,0,513,50.46c.23-.52-.26-1.13-.79-1.27a3.91,3.91,0,0,0-2.47.34c-.29.11-1.24.55-1.5.24l-.26,1.74a2.06,2.06,0,0,1,2.52-.43L510,49.26a2.41,2.41,0,0,1-2.37,1c-1.3-.15-1.51,1.78-.29,2.07Z"/><path class="cls-12" d="M483.37,76.57c2.88,3.19,8.07,4,12.78,4.11,7,.18,16-1.35,20.64-5.85a5.71,5.71,0,0,0,1.06-7.13c-2.68-4.43-10.11-5.84-15.6-5.56-6.22.31-14.42,2.46-18.53,6.4A5.71,5.71,0,0,0,483.37,76.57Z"/><path class="cls-3" d="M515.6,72.35a3.71,3.71,0,0,0-4.47-4.89c-3.34.29-5.71,3.88-4.82,6.25.12.33.79.47.95.07.63-1.64,1.22-3.12,3.16-3.9,3-1.19,3.47,1.18,4.15,2.49.2.39.84.29,1,0Z"/><path class="cls-3" d="M498.61,73a4.43,4.43,0,0,0-4.69-6c-4.12.34-6.85,3.91-5.23,6.92.24.45,1.1.3,1.16-.16.29-2.14,1.34-4.32,4-4.62,2.31-.26,3.18,2.08,3.74,3.75.13.38.87.47,1,.07Z"/><path class="cls-11" d="M518,73c-2.43,3.66-8.59,5.46-13.41,6.25a40.13,40.13,0,0,1-16.12-.75,11.83,11.83,0,0,1-5.35-2.77c-2.38-2.33-.9-5.16,1.17-7.16,3.16-3.07,8.54-4.53,13.3-5.26a34.22,34.22,0,0,1,13.88.61,11.9,11.9,0,0,1,6.39,3.89c1.82,2.36.25,4.53-1.63,6.46-3.66,3.76-8.74,5.61-14.67,6.13A32.87,32.87,0,0,1,484.39,77c-.64-.3-1.32.42-.68.74a34.33,34.33,0,0,0,19,3.47,25.42,25.42,0,0,0,16-7.2c3.81-3.89,1.2-8.32-3.69-10.68s-11.45-2.49-17-1.85c-5.84.67-11.43,2.6-15.4,6.07s-3.12,8.38,1.77,10.95,12,2.68,17.68,2.24c5.85-.46,12.81-2.38,15.89-6.58a8.79,8.79,0,0,0,.67-1c.18-.31-.42-.47-.61-.18Z"/><path class="cls-11" d="M486,83.68c.83.59,2.29.08,3.16-.21a7.3,7.3,0,0,0,3.39-2,.58.58,0,0,0-.19-.92c-2.46-1.15-6.49.48-7.81,2.24-.31.41-.15.88.42,1.08,2.52.9,6.17-.6,7.44-2.37a.69.69,0,0,0-.43-1.12c-2.44-.74-5.72.66-7.25,2.12-.4.39-.09.93.43,1.11,1.48.52,3.88-.07,4.66-1.21.36-.52-.19-1.23-1-.94s-1.88,1.17-3,.77l.43,1.11c1-.94,3.47-2.06,5.06-1.59l-.43-1.12c-.87,1.23-3.45,2.53-5.26,1.9l.42,1.08c.9-1.23,3.73-2.56,5.54-1.93l-.49-.85c-.6,1.11-3.24,2.39-4.78,2.2-.48-.06-.6.42-.3.63Z"/><path class="cls-11" d="M509.08,61.73c2.16.31,4.85.16,6.48-1.11.29-.23.42-.61.1-.87-2.06-1.71-6-.5-8.17.55-.42.21-.76.73-.31,1.06,2,1.48,6.08.91,7.9-.57.33-.27.54-.76.13-1.07-2-1.52-6.24-.37-7.9,1.05-.51.44,0,1.13.69,1.19,1.73.14,3.94,0,5.15-1.09.44-.4-.13-1.13-.79-1a12.84,12.84,0,0,1-4.18.57l.69,1.19c.87-.75,3.93-1.6,5-.82l-.22-1.06c-1.07.92-4,1.51-5.3.6l0,1.09c1.55-.78,4.5-1.82,6.17-.81l-.18-.86c-1.12,1.14-3.55,1.38-5.26,1.28-.56,0-.62.59-.08.67Z"/><path class="cls-11" d="M502.5,61.83c2.17.39,5.59-.3,6.67-2,.24-.37-.2-.91-.72-.9-2.69,0-5.38.37-7.37,1.9a.64.64,0,0,0,.05,1.13c2.48,1.19,6.8-.13,8.29-1.94.41-.49.06-1.18-.72-1.23a10.05,10.05,0,0,0-6.36,1.67c-.56.39-.41,1.08.28,1.31a3.63,3.63,0,0,0,3.58-.65c.68-.54-.15-1.33-1-.9a2.47,2.47,0,0,1-1.93.11l.28,1.31a7.93,7.93,0,0,1,4.91-1.3l-.72-1.23c-.84,1.07-4,2.42-5.59,1.68l.05,1.13c1.7-1.34,4-1.58,6.27-1.68l-.95-.9c-.55,1.29-3.45,1.87-5,1.74-.58,0-.62.59-.08.69Z"/><path class="cls-11" d="M497.73,83.45a14.12,14.12,0,0,0,9.32-2.59c.66-.51.16-1.24-.71-1.2-3,.12-6.33.75-8.52,2.4-.6.45-.29,1.14.5,1.26a11.29,11.29,0,0,0,4.3-.44c1.41-.35,3-.74,3.74-1.84.28-.45-.44-.9-1-.7-2,.77-4.56,1.91-6.91,1.56l.5,1.26c2-1.52,5-2,7.66-2.15l-.87-1.08c-1.6,1.75-5.3,2.8-8,2.83-.56,0-.66.63-.08.69Z"/><path class="cls-6" d="M522.28,47.4c-4.83-11.27-13-18.68-22.22-18.68s-17.39,7.41-22.22,18.68a61.61,61.61,0,0,1,44.45,0Z"/><path class="cls-3" d="M500.06,27.48c-15.54,0-28.18,19.64-28.18,43.79,0,15,4.92,28.31,12.37,36.19a1.27,1.27,0,0,0,.66.7l.11.11,0-.05a1.44,1.44,0,0,0,.47.09,1.31,1.31,0,0,0,1.36-1.25,1.21,1.21,0,0,0-.59-1h0c-7.06-7.36-11.74-20.19-11.74-34.76,0-22.79,11.44-41.33,25.51-41.33s25.51,18.54,25.51,41.33c0,14-4.34,26.43-10.95,33.9h0a1.26,1.26,0,0,0-.83,1.16,1.32,1.32,0,0,0,1.36,1.26,1.41,1.41,0,0,0,.86-.3v0l.06-.07a1.3,1.3,0,0,0,.1-.11c7.28-7.93,12-21,12-35.87C528.24,47.13,515.6,27.48,500.06,27.48Z"/><path class="cls-5" d="M513.12,44.71C512.35,43,511.71,40.28,510,40c-5.27-.9-1.74-3-2.87-4.21-2.33-2.48-4.55-4-7.19-4-2.86,0-7.91.9-7.78,4.64.05,1.57-.45,3-3.1,3.85-1.54.46-1.55,2.84-2.27,4.46a46.57,46.57,0,0,1,13.23-2.45A42,42,0,0,1,513.12,44.71Z"/><path class="cls-3" d="M524.71,49.71l-3-1.18a60.19,60.19,0,0,0-43.39,0l-3,1.18,1.18-2.77c5.22-12.19,14-19.46,23.46-19.46s18.24,7.28,23.46,19.46ZM500.06,42a62.67,62.67,0,0,1,19.73,3.14c-4.85-9.58-12.08-15.21-19.73-15.21s-14.88,5.63-19.73,15.21A62.67,62.67,0,0,1,500.06,42Z"/><path class="cls-3" d="M489.39,40.48c2.44.52,4.54-1.39,3.7-3.62a2.9,2.9,0,0,0-2.14-1.79,2.7,2.7,0,0,0-2.78,1.39.43.43,0,0,0,.57.54c.64-.25,1.19-.58,1.73-.41a1.61,1.61,0,0,1,.92.9,1.48,1.48,0,0,1,0,1.32c-.34.66-1.41.85-2.08,1-.39.1-.23.59.08.65Z"/><path class="cls-3" d="M509.82,40.58c-2.44.52-4.54-1.39-3.7-3.62a2.9,2.9,0,0,1,2.14-1.79A2.7,2.7,0,0,1,511,36.56a.43.43,0,0,1-.57.54c-.64-.25-1.19-.58-1.73-.41a1.61,1.61,0,0,0-.92.9,1.48,1.48,0,0,0,0,1.32c.34.66,1.41.85,2.08,1,.39.1.23.59-.08.65Z"/><path class="cls-7" d="M519.11,86.61c1.73,0,5.46.06,8.19,1.15s6.14,4.54,7.56,6,4.17,6.8,4.17,6.8a75.18,75.18,0,0,1-7.7.21,25.64,25.64,0,0,1-7-1.72,8.69,8.69,0,0,1-3.49-2.68c-1.11-1.4-2.43-2.85-2.61-5.22A9.48,9.48,0,0,1,519.11,86.61Z"/><path class="cls-3" d="M539.94,100.26a33,33,0,0,0-7.27-9.93,18.1,18.1,0,0,0-5.45-3.54c-1.23-.49-5.1-1.72-6.16-.46a.43.43,0,0,0,0,.57.77.77,0,0,0,.35.17,37.52,37.52,0,0,1,5.18,1.32,16.9,16.9,0,0,1,4.58,3,27.08,27.08,0,0,1,3.65,4.07c.32.44,2.48,4.37,2.77,4.37-5.21.06-12.4,0-15.51-3.94-.77-1-2.48-.12-1.8,1,3.36,5.4,13.13,4.76,18.83,4.74A.91.91,0,0,0,539.94,100.26Z"/><path class="cls-7" d="M482.87,85.13c-1.69.34-5.35,1-7.82,2.53s-5.13,5.51-6.24,7.15-2.74,7.39-2.74,7.39a74.82,74.82,0,0,0,7.61-1.1,25,25,0,0,0,6.58-2.89,8.33,8.33,0,0,0,2.9-3.23c.81-1.57,1.82-3.21,1.52-5.58A9.74,9.74,0,0,0,482.87,85.13Z"/><path class="cls-3" d="M465.13,102.09a31.72,31.72,0,0,1,5.16-11,17.35,17.35,0,0,1,4.64-4.41c1.11-.69,4.66-2.56,6-1.5a.43.43,0,0,1,.12.56.74.74,0,0,1-.31.23,36.5,36.5,0,0,0-4.82,2.18,16.2,16.2,0,0,0-3.9,3.74,26,26,0,0,0-2.77,4.62c-.23.49-1.57,4.72-1.85,4.77,5.13-.83,12.2-2.07,14.46-6.52.56-1.1,2.41-.54,2,.65-2.22,5.88-12,6.91-17.56,7.87A.93.93,0,0,1,465.13,102.09Z"/><path class="cls-7" d="M466.38,130.32c.33-1.75.33-8.61-.91-12.42s-5.2-9.75-6.68-12.12a46.23,46.23,0,0,0-4.88-5.8l-1.35,5.28s1.21,2.24,2.3,4.14,2.7,6,4.39,9.37,3.58,8,3.58,8-.71,2-1.07,2.9a72.09,72.09,0,0,0-4.28,12.2c-1.21,5.48-2.26,6.27-4.2,31.45-.61,7.93,1.33,14.77,2.06,17.79.45,1.88,1.37,4.71,2,6.58v.11c.18.45.38,1,.52,1.38l.15.43s-3.69,10.86-4.5,13.29-3.53,11.46-4.14,15.75a20.07,20.07,0,0,0-.1,6.52s6.08,4.79,5.86,3.79,3.42-18.61,4.93-23,3.83-19.29,2.93-23.21a12.53,12.53,0,0,0-1-2.64c-1.57-4.58-2.58-17.41-2.24-22.53h0c.31-3.54,1-4.85,1.4-9.17C461.76,152.61,466.38,130.32,466.38,130.32Z"/><path class="cls-7" d="M556.37,224.93c-1-4.35-3.43-12.67-4.86-15.44s-3.18-11.13-3.52-12,.95-3.21.8-4.27,2.43-8.58,2.43-12.67a4.13,4.13,0,0,0-.1-.9,51.65,51.65,0,0,0,.35-9.19c-1.45-24.23-2.91-23.87-4.12-29.21a90.65,90.65,0,0,0-4.4-12.88c-.36-.87-1.84-4.11-1.84-4.11a43.75,43.75,0,0,1,2.52-5.76c1.7-3.27,3.3-7.27,4.39-9.12s2.3-4,2.3-4L549,100.25a45.32,45.32,0,0,0-4.88,5.65c-1.48,2.3-5.44,8.08-6.68,11.79s-1.24,10.38-.91,12.09c0,0,6.78,21,7.39,26.69a95.77,95.77,0,0,1,.73,14.21v16.89c-.86,7.67-2.9,14.83-2,20.73,1,6.33,6,15.57,6.71,20.05s1.92,9.82,1.92,9.82a11.75,11.75,0,0,1,2.94-2.83,18.82,18.82,0,0,1,3.14-1.45A46,46,0,0,0,556.37,224.93Z"/><path class="cls-8" d="M506,93.77c2.36-.56,4.74-1.06,7.12-1.56,5.83-2.69,9.82-10,8.26-15.79a9,9,0,0,1-2.2,4.57A17.67,17.67,0,0,1,514,84.35c-5,2.18-8.68,4.06-10.93,8.85l.9,1C504.69,94,505.46,93.91,506,93.77Z"/><path class="cls-3" d="M513.32,85.92c-2,1.64-5,2.43-6.12,4.83a.48.48,0,0,0,.64.6,14.77,14.77,0,0,0,6.09-4.86c.24-.36-.21-.91-.61-.57Z"/><path class="cls-3" d="M502.92,93.52c2.23-5,6-6.95,11.08-9.17A17.67,17.67,0,0,0,519.21,81a9,9,0,0,0,2.2-4.57c1.8,6.75-3.8,15.41-11.1,16.69a.55.55,0,0,0-.49.73c2.07-.26,4.14-.81,6.23-1.13,6.43-3.78,9.59-13.57,6.14-19.47a1,1,0,0,0-1.82,0c-1.26,2.78-1.33,5.52-4,7.59-2.3,1.77-5.39,2.61-8,4-3.45,1.79-6.38,4.62-6.78,8.39A.72.72,0,0,0,502.92,93.52Z"/><path class="cls-8" d="M500.71,95.11l1-1c-1.91-4.91-5.44-7-10.29-9.48a17.42,17.42,0,0,1-5-3.66,8.89,8.89,0,0,1-1.88-4.69c-2,5.73,1.51,13.22,7.15,16.25,2.34.64,4.68,1.28,7,2C499.25,94.72,500,94.88,500.71,95.11Z"/><path class="cls-3" d="M492,86.29c1.85,1.76,4.78,2.72,5.77,5.19A.48.48,0,0,1,497,92a14.56,14.56,0,0,1-5.74-5.21c-.21-.37.27-.89.65-.53Z"/><path class="cls-3" d="M501.81,94.49c-1.88-5.16-5.46-7.28-10.42-9.81a17.42,17.42,0,0,1-5-3.66,8.89,8.89,0,0,1-1.88-4.69c-2.26,6.63,2.73,15.6,9.92,17.32a.54.54,0,0,1,.44.76c-2.05-.38-4.08-1.06-6.14-1.49-6.16-4.16-8.63-14.11-4.78-19.79a1,1,0,0,1,1.82.1c1.06,2.85.94,5.58,3.49,7.81,2.17,1.9,5.2,2.92,7.69,4.42,3.32,2,6.05,5,6.19,8.77A.72.72,0,0,1,501.81,94.49Z"/><ellipse class="cls-8" cx="500.98" cy="108.49" rx="20.18" ry="16.22"/><path class="cls-8" d="M501.4,116.13a93.15,93.15,0,0,1-9,8.72l-.67.57c-.72,6.17,1.24,11.95,2.41,17.9a68.79,68.79,0,0,1,4.29,15.53c.35,2.89-.68,9.47-1.3,12.57.32-1.62,3.7-6.09,4.51-7.49,1-1.78,1.17-4.41,1.19-6.4a36.11,36.11,0,0,0-3-14.28c-.15-.35.4-.59.61-.28a25.78,25.78,0,0,1,3.8,9.09c1.17,3.5,2.07,7.11,3.72,10.43a26.15,26.15,0,0,0,8.09,9.43c-3.27-8.61-1.23-18.35-2.05-27.29C513,134.1,509.27,123.68,501.4,116.13Z"/><path class="cls-9" d="M498.44,168.27c.19-4,.5-12.94,1.12-16.9.41-2.6,1.6-5.53.54-8.11,0-.07-.1-.39-.21-.89.37.83.68,1.65,1,2.23,1,2,2.48,4.15,2.85,6.36.27,1.66.47,3.23.58,4.67.54,7.06,5.32,12.66,12,17,1.08.7-.8-10.19-1.85-10.88-7.13-4.64-7.75-15.79-8.78-23-1-7.06-2.93-14.51-9.5-18.85-.4-.27-3,3.28-3,3.28a5.58,5.58,0,0,0-2.24,2.72,7.8,7.8,0,0,0-.19,2.67,41.39,41.39,0,0,0,1,7c.06.27.14.55.23.83a114.84,114.84,0,0,0,3.16,13.47,93.7,93.7,0,0,1,3,13.67C498.21,164.11,498.42,168.83,498.44,168.27Z"/><path class="cls-3" d="M499.16,125.3c2.18,1.56,2.49,4.51,4.22,6.4.26.29.71,0,.71-.33a9.83,9.83,0,0,0-1.14-4.13,4.31,4.31,0,0,0-3.46-2.56c-.33,0-.64.39-.32.62Z"/><path class="cls-3" d="M495,131c-.2,2.16,0,5,1.91,6.46a.49.49,0,0,0,.81-.38,22.17,22.17,0,0,0-.67-3.26,10.31,10.31,0,0,0-1.18-3c-.2-.31-.82-.25-.85.16Z"/><path class="cls-3" d="M500.63,135.67a32.57,32.57,0,0,0,1.47,3.38c.57,1.09,1,2.28,1.63,3.33a.46.46,0,0,0,.82-.15c.85-2.69-1.36-5.27-3.13-7.06a.49.49,0,0,0-.79.5Z"/><path class="cls-3" d="M508.44,140a15.31,15.31,0,0,1,1,3.65,23.53,23.53,0,0,0,.62,3.57c.1.39.68.31.76,0a10.74,10.74,0,0,0,.35-4.24c-.19-1.26-.83-2.89-2.16-3.38-.3-.11-.65.12-.53.45Z"/><path class="cls-3" d="M507.09,149.82a16.75,16.75,0,0,0,1.55,5.85c.19.37.69.1.7-.23.06-2,.27-4.58-1.63-5.92-.24-.17-.66-.06-.62.29Z"/><path class="cls-3" d="M497,143.28a35.54,35.54,0,0,0,2.36,6.66.45.45,0,0,0,.8-.15,8.66,8.66,0,0,0-2.58-6.88c-.26-.26-.67.06-.58.37Z"/><path class="cls-3" d="M491,124.17c-3.55,5.75-.31,14.72,1,20.72a25.89,25.89,0,0,1-.23,12.86c-.76,2.58-2,5-2.68,7.64-.18.73.85,1,1.22.4a29.67,29.67,0,0,0,4.5-17.55c-.62-8.08-4.33-15.56-3-23.81a.43.43,0,0,0-.8-.27Z"/><path class="cls-3" d="M492.18,140.33c1.87,10.56,7,21.32,3.3,32.08-.18.52.67.91,1,.48,2.9-3.83,2.48-9.59,1.94-14.05-.78-6.41-3.19-12.64-5.47-18.66-.15-.39-.85-.3-.77.15Z"/><path class="cls-3" d="M499.83,143.24a36.11,36.11,0,0,1,3,14.28c0,5.65-4.07,10.25-7.19,14.63-.34.47.17,1.25.74.84,10.08-7.31,10.5-20.33,4.07-30-.2-.31-.76-.07-.61.28Z"/><path class="cls-3" d="M502.57,149.61c1,9.27,4.43,21,14.57,24.42.52.18,1.14-.48.6-.86-4.24-3-7.49-6-9.79-10.68-2.05-4.15-2.94-8.74-4.65-13-.15-.37-.78-.29-.73.14Z"/><path class="cls-3" d="M501.06,115.79c8.11,7.58,11.95,18.15,12.93,28.83.88,9.58-1.53,20.07,2.83,29.11a.59.59,0,0,0,1.13-.36,52.61,52.61,0,0,1-1.65-16.26c.21-5.12.5-10.16-.2-15.26-1.4-10.12-5.8-20.47-14.42-26.72-.47-.34-1,.26-.62.66Z"/><path class="cls-8" d="M518.49,117.33c-1.92-4.61-4.84-8.3-7.94-12.16a61.35,61.35,0,0,1-8.14,5.92l.22.33c5.43,6.53,6.79,15.71,8,23.7,1.08,7.28,1.74,16.4,6.95,22.23-1.78-8,2.71-17,3.31-24.87A32.86,32.86,0,0,0,518.49,117.33Z"/><path class="cls-9" d="M501.43,111.11c5.64,6.24,5.69,11.58,7.44,19.9,1.56,7.45,3.32,23.73,9,27.38.8.52,1.32-7,.74-7.62-5.46-5.84-4.31-16.56-4.81-23.8-.46-6.63.06-15.8-6.08-20-.56-.38-1.05.44-.67.88Z"/><path class="cls-3" d="M514.94,118.39c.58,2.18.18,4.75,1.25,6.8a.49.49,0,0,0,.89-.12,6.91,6.91,0,0,0-1.59-7,.33.33,0,0,0-.54.31Z"/><path class="cls-3" d="M512.6,125.45c-.38,2.69-.73,5.52,1.29,7.7.31.33.75,0,.7-.4-.4-2.46-.42-4.93-1.26-7.31-.11-.31-.67-.38-.72,0Z"/><path class="cls-3" d="M516.07,136.1a15.55,15.55,0,0,0-.17,6.62.39.39,0,0,0,.75,0,11.71,11.71,0,0,0,.85-3.32,8.92,8.92,0,0,0-.64-3.4c-.13-.41-.81-.34-.78.11Z"/><path class="cls-3" d="M501.43,111.11c2,4.19,4.08,8.09,5.26,12.62,1.34,5.16,1.67,10.55,2.44,15.8,1,6.68,2.07,17.58,9.49,20.74.69.29,1.51-.57.84-1.1-7-5.6-7.67-16-8.87-24.06-1.23-8.29-2.64-17.88-8.6-24.44-.3-.33-.75.1-.58.44Z"/><path class="cls-3" d="M510,104.54c3.28,4.09,6.42,7.93,8.44,12.79a32.86,32.86,0,0,1,2.37,15.14c-.66,8.73-6.07,18.72-2.53,27.37.26.63,1.42.61,1.31-.18-1.39-10.35,3.51-19.82,3.62-30,.1-9.28-4.4-20.16-12.09-25.93-.59-.44-1.68.18-1.13.86Z"/><path class="cls-8" d="M483.95,136c.6,7.9,5.09,16.83,3.31,24.87,5.2-5.83,5.87-14.95,6.95-22.23,1.18-8,2.55-17.18,8-23.7l.22-.33a61.35,61.35,0,0,1-8.14-5.92c-3.1,3.86-6,7.55-7.94,12.16A32.86,32.86,0,0,0,483.95,136Z"/><path class="cls-9" d="M503.38,114.69c-5.64,6.24-5.69,11.58-7.44,19.9-1.56,7.45-3.32,23.73-9,27.38-.8.52-1.32-7-.74-7.62,5.46-5.84,4.31-16.56,4.81-23.8.46-6.63-.06-15.8,6.08-20,.56-.38,1.05.44.67.88Z"/><path class="cls-3" d="M489.88,122c-.58,2.18-.18,4.75-1.25,6.8a.49.49,0,0,1-.89-.12,6.91,6.91,0,0,1,1.59-7,.33.33,0,0,1,.54.31Z"/><path class="cls-3" d="M492.21,129c.38,2.69.73,5.52-1.29,7.7-.31.33-.75,0-.7-.4.4-2.46.42-4.93,1.26-7.31.11-.31.67-.38.72,0Z"/><path class="cls-3" d="M488.74,139.68a15.55,15.55,0,0,1,.17,6.62.39.39,0,0,1-.75,0,11.71,11.71,0,0,1-.85-3.32,8.92,8.92,0,0,1,.64-3.4c.13-.41.81-.34.78.11Z"/><path class="cls-3" d="M503.38,114.69c-2,4.19-4.08,8.09-5.26,12.62-1.34,5.16-1.67,10.55-2.44,15.8-1,6.68-2.07,17.58-9.49,20.74-.69.29-1.51-.57-.84-1.1,7-5.6,7.67-16,8.87-24.06,1.23-8.29,2.64-17.88,8.6-24.44.3-.33.75.1.58.44Z"/><path class="cls-3" d="M494.77,108.12c-3.28,4.09-6.42,7.93-8.44,12.79A32.86,32.86,0,0,0,483.95,136c.66,8.73,6.07,18.72,2.53,27.37-.26.63-1.42.61-1.31-.18,1.39-10.35-3.51-19.82-3.62-30-.1-9.28,4.4-20.16,12.09-25.93.59-.44,1.68.18,1.13.86Z"/><path class="cls-8" d="M504.82,103q-.67,1.42-1.44,2.82l-.2.34a31.64,31.64,0,0,1,12.46,9.3c9.12,8.16,9.35,23.17,19.37,30.67-3.14-9.85-1.55-20.7-5.37-30.33-3.63-9.18-15.12-14.1-24.7-12.79Z"/><path class="cls-9" d="M535.26,144.85c-.57-2-2.15-2.87-3.14-4.75-1.5-2.85-2.34-7-3.09-10.07-1.2-4.94-1.66-9.75-4-14.32-3.58-6.88-12.1-13.06-20.15-13.37-1.26,0-3.45,3-2.33,3.55,5.41,2.46,13,8.17,16,15.65,1.83,4.56,4.94,7,6.21,11.7,1.13,4.22,5.51,10.56,10.78,14.42.32.24-.19-2.46-.28-2.81Z"/><path class="cls-3" d="M510.09,106.61c.9.51,1.7,1.19,2.6,1.7a33.91,33.91,0,0,1,3.19,1.83.49.49,0,0,0,.75-.62,5.31,5.31,0,0,0-2.33-2.37,27.24,27.24,0,0,0-3.84-1.25.4.4,0,0,0-.37.72Z"/><path class="cls-3" d="M519.33,108.67a23.86,23.86,0,0,1,2.39,2.16,7.63,7.63,0,0,0,2.63,2.07c.3.12.76-.14.59-.5-.92-1.94-3-4.19-5.29-4.35-.33,0-.64.37-.32.62Z"/><path class="cls-3" d="M518.82,113.76c1.43,1.84,2.87,4.07,4.78,5.48a.48.48,0,0,0,.77-.49,8.41,8.41,0,0,0-5.07-5.51c-.32-.13-.72.21-.48.52Z"/><path class="cls-3" d="M526.69,122.54a11.36,11.36,0,0,1,1.35,3.35c.32,1.06.47,2.27.88,3.28a.43.43,0,0,0,.78.05c.64-1.08.36-2.75,0-3.88a6.09,6.09,0,0,0-2.44-3.29c-.34-.25-.87.12-.6.49Z"/><path class="cls-3" d="M529,132.07c.09.46,0,1,.09,1.43s.21,1.11.34,1.66a6.91,6.91,0,0,0,1.37,3.12c.22.26.82.19.73-.24-.21-1-.39-2-.64-3-.14-.59-.29-1.17-.46-1.76a7.61,7.61,0,0,0-.77-1.39c-.16-.31-.72-.12-.66.21Z"/><path class="cls-3" d="M536.63,147.31c-1.34-6.38-1.76-12.91-2.47-19.37-.55-5.06-1.12-10.67-3.65-15.21-4.77-8.55-16.08-13.08-25.71-11.85-1.38.18-1.24,2.28.14,2.1,9.58-1.31,21.07,3.61,24.7,12.79,4,10.15,2,21.64,5.9,31.89a.57.57,0,0,0,1.08-.35Z"/><path class="cls-3" d="M536.25,147c-11.94-7.59-11.05-25-22.46-33-.65-.45-1.45.36-.85.91,5.51,5.07,8,12,11.24,18.46,2.65,5.38,5.61,12,11.48,14.77a.64.64,0,0,0,.59-1.14Z"/><path class="cls-8" d="M500.08,100.43c-9.58-1.31-21.07,3.61-24.7,12.79-3.81,9.64-2.22,20.48-5.37,30.33,10-7.5,10.25-22.51,19.37-30.67a31.64,31.64,0,0,1,12.46-9.3l-.2-.34q-.78-1.39-1.44-2.82Z"/><path class="cls-9" d="M469.77,142.3c.57-2,2.15-2.87,3.14-4.75,1.5-2.85,2.34-7,3.09-10.07,1.2-4.94,1.66-9.75,4-14.32,3.58-6.88,12.1-13.06,20.15-13.37,1.26,0,3.45,3,2.33,3.55-5.41,2.46-13,8.17-16,15.65-1.83,4.56-4.94,7-6.21,11.7-1.13,4.22-5.51,10.56-10.78,14.42-.32.24.19-2.46.28-2.81Z"/><path class="cls-3" d="M494.94,104.06c-.9.51-1.7,1.19-2.6,1.7a33.91,33.91,0,0,0-3.19,1.83.49.49,0,0,1-.75-.62,5.31,5.31,0,0,1,2.33-2.37,27.24,27.24,0,0,1,3.84-1.25.4.4,0,0,1,.37.72Z"/><path class="cls-3" d="M485.7,106.12a23.86,23.86,0,0,0-2.39,2.16,7.63,7.63,0,0,1-2.63,2.07c-.3.12-.76-.14-.59-.5.92-1.94,3-4.19,5.29-4.35.33,0,.64.37.32.62Z"/><path class="cls-3" d="M486.21,111.21c-1.43,1.84-2.87,4.07-4.78,5.48a.48.48,0,0,1-.77-.49,8.41,8.41,0,0,1,5.07-5.51c.32-.13.72.21.48.52Z"/><path class="cls-3" d="M478.34,120a11.36,11.36,0,0,0-1.35,3.35c-.32,1.06-.47,2.27-.88,3.28a.43.43,0,0,1-.78.05c-.64-1.08-.36-2.75,0-3.88a6.09,6.09,0,0,1,2.44-3.29c.34-.25.87.12.6.49Z"/><path class="cls-3" d="M476.07,129.52c-.09.46,0,1-.09,1.43s-.21,1.11-.34,1.66a6.91,6.91,0,0,1-1.37,3.12c-.22.26-.82.19-.73-.24.21-1,.39-2,.64-3,.14-.59.29-1.17.46-1.76a7.61,7.61,0,0,1,.77-1.39c.16-.31.72-.12.66.21Z"/><path class="cls-3" d="M468.4,144.76c1.34-6.38,1.76-12.91,2.47-19.37.55-5.06,1.12-10.67,3.65-15.21,4.77-8.55,16.08-13.08,25.71-11.85,1.38.18,1.24,2.28-.14,2.1-9.58-1.31-21.07,3.61-24.7,12.79-4,10.15-2,21.64-5.9,31.89a.57.57,0,0,1-1.08-.35Z"/><path class="cls-3" d="M468.78,144.41c11.94-7.59,11.05-25,22.46-33,.65-.45,1.45.36.85.91-5.51,5.07-8,12-11.24,18.46-2.65,5.38-5.61,12-11.48,14.77a.64.64,0,0,1-.59-1.14Z"/><path class="cls-8" d="M502.22,100.16a27.07,27.07,0,0,1,7.8,3.32.66.66,0,0,1,.22.07c4.29,2.42,8.26,5.76,13.32,6.53,5.51.84,11.86-.16,15.63-4.32-5.53-.33-10.39-2.39-15.08-5.41A42.08,42.08,0,0,0,516,96a37.7,37.7,0,0,0-6.85-1.54l-2.71-.21A34.15,34.15,0,0,1,502.22,100.16Z"/><path class="cls-9" d="M539.54,104.71c-3.33.87-6.48,3.32-10.13,3.37s-7.16-2.17-10-4.41c-4-3.25-8.79-8.38-14.59-7.82-1,.1-5.7,5.09-4.67,5.13,6.86.3,11.41,4.14,16.73,7.6,2.41,1.57,9.39,2.79,12.28,2.91,3.87.16,8.07-2.6,10.28-5.16.29-.33.4-.79-.09-.78Z"/><path class="cls-3" d="M528.16,105.21c-2-.71-4-1.63-6-2.47-.35-.14-.86.17-.6.56a6.51,6.51,0,0,0,2.58,2.23,7.34,7.34,0,0,0,3.92.58.46.46,0,0,0,.14-.9Z"/><path class="cls-3" d="M518.7,104.29c-.78-2-4.35-4.13-6.55-3.58a.47.47,0,0,0-.13.87c1,.64,2.08,1.15,3.11,1.73a11.88,11.88,0,0,0,3,1.53c.31.08.73-.21.59-.56Z"/><path class="cls-3" d="M515.83,98.11a4.83,4.83,0,0,0-6.57-.78.38.38,0,0,0,.26.65,16.07,16.07,0,0,1,5.91.77c.41.16.61-.38.4-.64Z"/><path class="cls-3" d="M507.27,94.11c3,.6,5.85.83,8.71,1.88a42.09,42.09,0,0,1,8.13,4.36c5.24,3.37,10.68,5.56,17,5.46l-.85-1.47c-3.51,5.36-10.65,6.68-16.75,5.75-5.06-.77-9-4.11-13.32-6.53-.65-.37-1.44.53-.84,1,4.5,3.89,9.66,6.94,15.75,7.58,6.36.67,13.34-1.5,16.9-6.84a1,1,0,0,0-.85-1.47c-7,.07-12.19-2.83-17.92-6.28-4.42-2.65-10.68-5.65-16-4.12-.31.09-.38.58,0,.65Z"/><path class="cls-8" d="M494,93.82l-2.67.51a37.49,37.49,0,0,0-6.63,2.29,41.69,41.69,0,0,0-7.56,5.23c-4.3,3.52-8.88,6.11-14.34,7,4.23,3.71,10.66,4,16,2.56,4.94-1.33,8.49-5.08,12.46-8a.65.65,0,0,1,.21-.1,26.85,26.85,0,0,1,7.35-4.16A34.5,34.5,0,0,1,494,93.82Z"/><path class="cls-9" d="M462.32,107.89c3.41.49,6.83,2.58,10.46,2.22s6.86-2.94,9.37-5.48c3.64-3.67,7.75-9.3,13.57-9.38,1,0,6.26,4.42,5.24,4.58-6.78,1.06-10.85,5.37-15.72,9.4-2.21,1.82-9,3.81-11.85,4.25-3.82.59-8.32-1.69-10.82-4-.32-.3-.49-.74,0-.79Z"/><path class="cls-3" d="M473.69,107.12c1.95-.93,3.82-2.07,5.7-3.12.33-.18.88.08.66.49a6.44,6.44,0,0,1-2.3,2.5,7.31,7.31,0,0,1-3.83,1,.46.46,0,0,1-.24-.88Z"/><path class="cls-3" d="M483,105.17c.54-2.05,3.84-4.59,6.09-4.28a.47.47,0,0,1,.23.85c-.91.74-1.93,1.37-2.88,2.07a11.77,11.77,0,0,1-2.78,1.85c-.3.11-.75-.13-.66-.49Z"/><path class="cls-3" d="M485.1,98.7a4.81,4.81,0,0,1,6.44-1.5.38.38,0,0,1-.19.68,16,16,0,0,0-5.78,1.42c-.39.2-.65-.31-.47-.59Z"/><path class="cls-3" d="M493.13,93.79c-2.87.92-5.72,1.47-8.43,2.83a41.69,41.69,0,0,0-7.56,5.23c-4.8,3.93-10,6.71-16.29,7.31l.67-1.56c4.12,4.94,11.37,5.46,17.32,3.85,4.94-1.33,8.49-5.08,12.46-8,.61-.44,1.49.36,1,.94-4,4.37-8.78,8-14.75,9.28-6.23,1.37-13.43,0-17.59-4.93a1,1,0,0,1,.67-1.56c6.93-.7,11.77-4.16,17.07-8.22,4.07-3.12,9.95-6.8,15.39-5.86.32.06.44.53.09.65Z"/><path class="cls-13" d="M519.16,85.81c.52.6,1.21,1,1.76,1.57h0q4-2.48,7.95-5c-3.48.59-7,1.1-10.46,1.61A3.73,3.73,0,0,0,519.16,85.81Z"/><path class="cls-13" d="M515.49,90.62l.06,0q2.25-1.36,4.48-2.73a3.61,3.61,0,0,1-2.53-3.81l-5.4.8a6.86,6.86,0,0,0,.67,3.24A5.2,5.2,0,0,0,515.49,90.62Z"/><path class="cls-13" d="M509.12,94.46q2.68-1.54,5.33-3.13c-2.29-.42-4-3.81-3.28-6.26l-.45.07-2.48.37a6.92,6.92,0,0,1-2.7.43A9.33,9.33,0,0,0,509.12,94.46Z"/><path class="cls-13" d="M502.95,97.89c.55.42,2.77-1.08,2.75-1.26s0-.16,0-.25L508.15,95a5.39,5.39,0,0,1-2.53-2.17,9.34,9.34,0,0,0-1.34-5.17,6.38,6.38,0,0,1,.32-1.6l-1.73.33a6.29,6.29,0,0,0-2.71-.77,34.84,34.84,0,0,0-.42,5.15,10.8,10.8,0,0,0,2.84,7.31Z"/><path class="cls-12" d="M529,81.74c-9.89,2.48-19,2.58-29,4.35-.88.15-1.64,4.38-.78,4.15,9.84-2.6,20.25-4.38,29.91-7.88.39-.14.25-.72-.14-.62Z"/><path class="cls-14" d="M530.59,81.41c-7.58.67-15.16,1.79-22.72,2.92-1.87.28-3.74.56-5.6.9a6.43,6.43,0,0,0-2.6.66c-1.33,1-1.35,5.28-1.2,6.59a12.69,12.69,0,0,0,3.46,6.95.61.61,0,0,0,.78.07c9.57-5.29,18.83-11.55,28.06-17.42.43-.28.08-1-.36-.68-9.22,5.86-18.69,11.82-28.31,16.94l.78.07a11,11,0,0,1-3.13-7.64,14,14,0,0,1,.74-4c0,.09-.43.22.31,0,3.26-.83,6.63-1.22,9.92-1.73,6.62-1,13.25-1.88,19.85-3,.4-.07.44-.72,0-.68Z"/><path class="cls-14" d="M517.8,83.31c-1.19,2.11.92,4.66,2.85,4.73a.41.41,0,0,0,.27-.66c-.55-.57-1.23-1-1.76-1.57a5,5,0,0,1-.87-2.46.26.26,0,0,0-.5,0Z"/><path class="cls-14" d="M511.59,84.14c-1.78,2.68.7,7.63,3.7,7.2.32,0,.55-.56.2-.72a5.2,5.2,0,0,1-2.72-2.46,7.79,7.79,0,0,1-.66-3.9c0-.31-.35-.36-.51-.12Z"/><path class="cls-14" d="M505.08,85c-2.12,3.45.1,9.56,3.8,10.15.31,0,.64-.4.36-.64a9.41,9.41,0,0,1-3.61-9.3c.05-.35-.34-.55-.54-.22Z"/><path class="cls-11" d="M529.43,147.43c-.49,2.17-1.53,4.23-2.17,6.36-.53,1.77-1.06,3.61-1.73,5.31a.63.63,0,0,1-1.23-.28c.09-4.15,1.08-9.77,4.4-12.12.42-.3.83.27.73.73Z"/><path class="cls-11" d="M533.49,161.24c1,3.42,1.12,8.26-.9,11.25a.78.78,0,0,1-1.47-.33c-.38-3.65,1.13-7.16,1-10.82,0-1,1.14-.87,1.37-.1Z"/><path class="cls-11" d="M530.7,200.52c1,3.42,1.12,8.26-.9,11.25a.78.78,0,0,1-1.47-.33c-.38-3.65,1.13-7.16,1-10.82,0-1,1.14-.87,1.37-.1Z"/><path class="cls-11" d="M541.59,147.38a22.93,22.93,0,0,1,.74,12.7.88.88,0,0,1-1.74-.13,38.5,38.5,0,0,1-.08-12.32c.09-.56.85-.94,1.08-.25Z"/><path class="cls-11" d="M538.09,173c.44,4.13.9,9.4-.95,13.17-.37.76-1.32.42-1.48-.33-.85-4,.46-9,1.24-12.93a.6.6,0,0,1,1.19.09Z"/><path class="cls-11" d="M532.92,185.3a41,41,0,0,0-2.1,6.94c-.54,2.2-.76,4.63-1.83,6.59-.39.71-1.29.32-1.41-.4-.8-4.72,1.29-10.89,4.55-13.8a.54.54,0,0,1,.79.67Z"/><path class="cls-11" d="M525.38,173.52a30.27,30.27,0,0,1-1,5.06c-.23.81-.43,1.63-.68,2.44-.3,1-.85,1.79-1.23,2.73s-1.63.73-1.46-.33.11-2,.25-2.95a25.26,25.26,0,0,1,.65-2.84,9.5,9.5,0,0,1,2.56-4.64.58.58,0,0,1,1,.54Z"/><path class="cls-11" d="M543.91,180.73a30.82,30.82,0,0,0,.32,5.19c.11.84.2,1.69.33,2.53.16,1,.58,1.93.83,2.92s1.51,1,1.49-.05.17-2,.16-3a25.8,25.8,0,0,0-.24-2.92,10,10,0,0,0-1.87-5.06.57.57,0,0,0-1,.35Z"/><path class="cls-11" d="M540.72,166.27a30.82,30.82,0,0,0,.32,5.19c.11.84.2,1.69.33,2.53.16,1,.58,1.93.83,2.92s1.51,1,1.49-.05.17-2,.17-3a25.8,25.8,0,0,0-.24-2.92,10,10,0,0,0-1.87-5.06.57.57,0,0,0-1,.35Z"/><path class="cls-11" d="M530.71,156.22c-.49,2.17-1.53,4.23-2.17,6.36-.53,1.77-1.06,3.61-1.73,5.31a.63.63,0,0,1-1.23-.28c.09-4.15,1.08-9.77,4.4-12.12.42-.3.83.27.73.73Z"/><path class="cls-11" d="M542,197.48c-.1,2.24.35,4.57.4,6.82,0,1.87.07,3.81.26,5.67.08.8,1,1,1.24.16,1-4,1.53-9.69-1-13.09-.32-.43-.86,0-.89.44Z"/><path class="cls-11" d="M531,173c1,3.42,1.12,8.26-.9,11.25a.78.78,0,0,1-1.47-.33c-.38-3.65,1.13-7.16,1-10.82,0-1,1.14-.87,1.37-.1Z"/><path class="cls-11" d="M538.06,156.6a22.93,22.93,0,0,1,.74,12.7.88.88,0,0,1-1.74-.13,38.5,38.5,0,0,1-.08-12.32c.09-.56.85-.94,1.08-.25Z"/><path class="cls-11" d="M541.47,183.79c.44,4.13.9,9.4-.95,13.17-.37.76-1.32.42-1.48-.33-.85-4,.46-9,1.24-12.93a.6.6,0,0,1,1.19.09Z"/><path class="cls-11" d="M535.09,190.4a42.74,42.74,0,0,0-.15,7.34c.07,2.28.5,4.67,0,6.92a.76.76,0,0,1-1.45.12,17.48,17.48,0,0,1,.66-14.74.51.51,0,0,1,.93.36Z"/><path class="cls-11" d="M526.54,183.31a30.27,30.27,0,0,1-1,5.06c-.23.81-.43,1.63-.68,2.44-.3,1-.85,1.79-1.23,2.73s-1.63.73-1.46-.33.11-2,.25-2.95a25.26,25.26,0,0,1,.65-2.84,9.5,9.5,0,0,1,2.56-4.64.58.58,0,0,1,1,.54Z"/><path class="cls-11" d="M536.42,197.75a30.88,30.88,0,0,0,.06,5.2c.07.85.12,1.7.2,2.55.11,1,.49,2,.69,3s1.45,1.12,1.49,0,.26-1.95.31-2.94a25.87,25.87,0,0,0-.09-2.93,10.15,10.15,0,0,0-1.62-5.18.56.56,0,0,0-1,.28Z"/><path class="cls-11" d="M474.45,145.72c.71,2,2,3.87,2.86,5.83.72,1.63,1.44,3.32,2.3,4.88a.67.67,0,0,0,1.27-.39c-.46-3.95-2-9.2-5.73-11.09-.47-.24-.86.34-.71.77Z"/><path class="cls-11" d="M471.36,159.32c-.77,3.36-.46,8,2,10.62a.86.86,0,0,0,1.52-.47c.08-3.52-1.83-6.7-2-10.2-.05-.95-1.28-.71-1.46,0Z"/><path class="cls-11" d="M477.8,196.44c-.77,3.36-.46,8,2,10.62a.86.86,0,0,0,1.52-.47c.08-3.52-1.83-6.7-2-10.2-.05-.95-1.28-.71-1.46,0Z"/><path class="cls-11" d="M461.56,147a19.87,19.87,0,0,0,.34,12.18,1,1,0,0,0,1.83-.3,33.18,33.18,0,0,0-1-11.75c-.15-.52-1-.8-1.16-.13Z"/><path class="cls-11" d="M467.54,171c-.1,4-.12,9.05,2.17,12.45a.86.86,0,0,0,1.54-.47c.54-3.94-1.29-8.5-2.46-12.19a.65.65,0,0,0-1.25.21Z"/><path class="cls-11" d="M474.1,182.18a36.15,36.15,0,0,1,2.84,6.39c.76,2,1.22,4.33,2.52,6.08.47.64,1.39.17,1.46-.53a14.94,14.94,0,0,0-6-12.66c-.43-.28-1.09.22-.78.72Z"/><path class="cls-11" d="M481,170.16a26.31,26.31,0,0,0,1.55,4.71c.32.75.6,1.51.94,2.25a27.42,27.42,0,0,0,1.55,2.47c.42.73,1.79.52,1.52-.47s-.29-1.86-.53-2.78a22,22,0,0,0-.94-2.63,8.8,8.8,0,0,0-3.12-4.15.62.62,0,0,0-1,.61Z"/><path class="cls-11" d="M462.06,179a26.61,26.61,0,0,1,.13,5c0,.82-.06,1.63-.12,2.45a28.17,28.17,0,0,1-.62,2.88c-.15.84-1.5,1.13-1.58.11s-.35-1.85-.44-2.8a22.29,22.29,0,0,1,0-2.81,9.07,9.07,0,0,1,1.53-5,.61.61,0,0,1,1.11.22Z"/><path class="cls-11" d="M464.16,164.87a26.61,26.61,0,0,1,.13,5c0,.82-.06,1.63-.12,2.45a28.17,28.17,0,0,1-.62,2.88c-.15.84-1.5,1.13-1.58.11s-.35-1.85-.44-2.8a22.29,22.29,0,0,1,0-2.81,9.07,9.07,0,0,1,1.53-5,.61.61,0,0,1,1.11.22Z"/><path class="cls-11" d="M473.87,154.23c.71,2,2,3.87,2.86,5.83.72,1.63,1.44,3.32,2.3,4.88a.67.67,0,0,0,1.27-.39c-.46-3.95-2-9.2-5.73-11.09-.47-.24-.86.34-.71.77Z"/><path class="cls-11" d="M465.61,194.74c.31,2.12,0,4.39.18,6.54.12,1.79.27,3.63.23,5.43a.67.67,0,0,1-1.3.29c-1.41-3.7-2.48-9.08-.08-12.58.3-.44.91-.12,1,.33Z"/><path class="cls-11" d="M475.1,170.27c-.77,3.36-.46,8,2,10.62a.86.86,0,0,0,1.52-.47c.08-3.52-1.83-6.7-2-10.2-.05-.95-1.28-.71-1.46,0Z"/><path class="cls-11" d="M466.12,155.37a19.87,19.87,0,0,0,.34,12.18,1,1,0,0,0,1.83-.3,33.18,33.18,0,0,0-1-11.75c-.15-.52-1-.8-1.16-.13Z"/><path class="cls-11" d="M464.92,181.65c-.1,4-.12,9.05,2.17,12.45a.86.86,0,0,0,1.54-.47c.54-3.94-1.29-8.5-2.46-12.19a.65.65,0,0,0-1.25.21Z"/><path class="cls-11" d="M472.26,187.27a36.78,36.78,0,0,1,.81,7c.13,2.18-.12,4.51.6,6.59a.83.83,0,0,0,1.54,0,15.2,15.2,0,0,0-2-14c-.32-.4-1.1-.13-1,.44Z"/><path class="cls-11" d="M480.68,179.6a26.31,26.31,0,0,0,1.55,4.71c.32.75.6,1.51.94,2.25a27.42,27.42,0,0,0,1.55,2.47c.42.73,1.79.52,1.52-.47s-.29-1.86-.53-2.78a22,22,0,0,0-.94-2.63,8.8,8.8,0,0,0-3.12-4.15.62.62,0,0,0-1,.61Z"/><path class="cls-11" d="M471.51,194.42a26.59,26.59,0,0,1,.39,5c0,.82,0,1.63,0,2.45a28.23,28.23,0,0,1-.47,2.91c-.1.85-1.44,1.22-1.58.2s-.45-1.83-.59-2.77a22.29,22.29,0,0,1-.16-2.8,9.1,9.1,0,0,1,1.26-5.1.61.61,0,0,1,1.12.16Z"/></g></g></svg>