<svg xmlns="http://www.w3.org/2000/svg" viewBox="0 0 999.37 508"><defs><style>.cls-1,.cls-2{fill:none;}.cls-1{stroke:#1ff900;stroke-miterlimit:10;stroke-width:2px;}.cls-3{fill:#02a9c3;}.cls-4{fill:#4fc4d2;}.cls-5{fill:#0f90b0;}.cls-6{fill:#f8e0c7;}.cls-7{fill:#e3c5ad;}.cls-8{fill:#2f1e4c;}.cls-9{fill:#eaece5;}.cls-10{fill:#bfbcb1;}.cls-11{fill:#43b6b1;}.cls-12{fill:#3c8f94;}.cls-13{fill:#fff;}.cls-14{fill:#f1cb36;}.cls-15{fill:#e69fa5;}.cls-16{fill:#b8e3f0;}.cls-17{fill:#d7842d;}.cls-18{fill:#ffe429;}.cls-19{fill:#fdc030;}.cls-20{fill:#ffd004;}.cls-21{fill:#ffd33a;}</style></defs><title>Radar_Unicornio_2a</title><g id="Capa_2" data-name="Capa 2"><g id="Arte"><line class="cls-1" x1="500.37" y1="499.79" x2="1.37" y2="499.79"/><line class="cls-1" x1="500.36" y1="499.78" x2="147.52" y2="147.01"/><line class="cls-1" x1="500.37" y1="499.79" x2="500.37" y2="0.89"/><line class="cls-1" x1="500.37" y1="499.78" x2="853.22" y2="147.01"/><line class="cls-1" x1="500.37" y1="499.79" x2="999.37" y2="499.79"/><path class="cls-1" d="M153.91,496.78c0-187.91,155.12-340.25,346.46-340.25S846.83,308.87,846.83,496.78"/><path class="cls-1" d="M233,499.46c0-145,119.7-262.55,267.35-262.55S767.72,354.45,767.72,499.46"/><path class="cls-1" d="M317,500.89c0-99.44,82.09-180.06,183.34-180.06s183.34,80.61,183.34,180.06"/><rect class="cls-2" width="998" height="508"/><path class="cls-3" d="M195.3,204.84a20.41,20.41,0,0,1,2-2.71c2.28-2.09,4.37-4.33,4.72-7.62-5.56-.07-11.14,2.42-16.7,2.92-4.28.38-8.54.52-12.72,1.6-1.07.28-2.36.62-3.67,1.07-1.25,1.8-2,3.71-.48,5.76a11.92,11.92,0,0,0,4.18,3.23c1.82,0,3.65,0,5.44.13,3.86.24,7.73.4,11.58.72l.77.06C191.69,210.11,193.69,207.2,195.3,204.84Z"/><path class="cls-4" d="M297.63,315.43a8,8,0,0,0,.32-6.42c-2.23-1.46-4.5-2.88-6.69-4.4a36.7,36.7,0,0,1-9.31-9.36,14.32,14.32,0,0,1-2.85.36c-.91,0-.94-1.26-.16-1.51,7.26-2.33,13.94-4.69,20-9.48a51.19,51.19,0,0,0,9.09-8.85,55.63,55.63,0,0,0,3.47-5.27c.74-1.24,2-2.64,2.52-4,.56-1.57-.36-3.48-.77-5q-.87-3.2-1.76-6.38c-.31-1.12-.77-2.4-1.87-2.78-1.69-.58-2.5-.46-1.89-2.55a11,11,0,0,1,1.93-3.64,15.84,15.84,0,0,1,3.2-3c.33-.24,3.8-2.12,3.8-2.16A45.85,45.85,0,0,0,311,223.74a47.21,47.21,0,0,0-13.58-14.81,18.47,18.47,0,0,1-.16,7.48.4.4,0,0,1-.08.25.39.39,0,0,1-.38.22.44.44,0,0,1-.51-.25c-2.51-6.28-7.53-10.42-12.82-14.29a28.41,28.41,0,0,1,5.35,12.59c.09.62-.76,1-1.08.42l-.09-.19c-6.19-7.12-19.39-9.61-23.43-18.57a38.72,38.72,0,0,0,1.25,9.78c.11.48-.6.79-.82.32a23.3,23.3,0,0,1-2-12.1c1.25-13.74,5.33-29.53-2.25-42.2l-.23.32a.8.8,0,0,1-.89.34,15.55,15.55,0,0,1-7.8-5c-.87-1.12-3.05-4.85-2.65-6.71-7.74-4.36-17.18-6-25.85-6.12a91.31,91.31,0,0,0-26.75,3.51,26.66,26.66,0,0,0-3.75,9.93,43.74,43.74,0,0,0,0,11.79,29,29,0,0,0,12.23,20.4c8.15,5.67,17.38,7.94,27,4.84a41.14,41.14,0,0,0,12.59-6.54,52.94,52.94,0,0,0,8.05-8.27c.52-.62,1.3.2,1,.81-3.88,8.29-14.19,14.29-22.73,16.46a30,30,0,0,1-16.84-.47,1.24,1.24,0,0,1-.35.8c-2.66,2.87-6.14,4.16-9.83,4.79-.59.24-1.18.45-1.72.65s-1.24.42-1.92.61c.15,3.76-1.77,7.82-3.74,10.85a37.85,37.85,0,0,1-3.61,4.77,23.91,23.91,0,0,1,8.65,2c1.79.92,3.39,3.08,2,5.06-1.86,2.63-5.76,3.54-8.7,4.23A102.33,102.33,0,0,1,183,223.39,39.91,39.91,0,0,0,171,226.6c-.22,2-.3,4,.92,5.68A8,8,0,0,0,175,234.7c14.61,0,29.42,2.32,41.61,10.95a90.08,90.08,0,0,1,26,29.18A31.94,31.94,0,0,1,244,261c.18-.54,1.12-.44,1,.17a41.57,41.57,0,0,0,.63,18,44.23,44.23,0,0,0,8.55,15.39,67.24,67.24,0,0,0,24.93,19.18,61.41,61.41,0,0,0,14.77,4.7h0A6.7,6.7,0,0,0,297.63,315.43Z"/><path class="cls-3" d="M291.1,256.52a8.51,8.51,0,0,1-2.54-.33c-3.46-1.09-6.44-4.6-8.9-7.12-.49-.5-1.63-.22-1.55.6a12.19,12.19,0,0,1-1,6.28c-1.44,3.13-4.79,1.9-6.81.17-3.3-2.83-4.15-8.42-5.17-12.92-.15-.66-.71-.82-1.1-.47-1.22,1.87-2.49,2.54-3.7,1.78a7.83,7.83,0,0,1-2.6-3.71c-1.19-2.67-1.2-5.27-1.7-8.07s-1.37-.83-1.95.6a4.75,4.75,0,0,1-1.84,2.25c-2.6,1.7-4.81-2.22-5.76-3.9-1.82-3.2-2.71-6.92-3.51-10.48-.17-.73-1.38-.84-1.53,0-.23,1.17-.85,4.07-2.64,2.08a9.7,9.7,0,0,1-2-4.47,16,16,0,0,1,.12-7.12c.15-.63,2-4.78-.53-3.34-1,.55-1.44,1.62-2.63,2.05-2.8,1-1-5.69-.63-6.73a47.47,47.47,0,0,1,3.56-7.31c1.29-2.4,5.19-5.95,6.33-8.48s-1.67,1.27-2,1.47c-4.53,3.19-11.51,3.84-16.79,5.86-3.42,1.31-6.94,2.91-9.07,5.89-1.7,2.38-2.3,5.35-2.72,8.24-.54,3.72-.84,7.63.5,11.15a21.52,21.52,0,0,0,4.44,6.58c10.57,11.65,25.12,20.13,32.14,34.21,2.22,4.45,3.59,9.3,6.09,13.6s6.53,8.14,11.48,8.61c3.22.3,6.37-.85,9.5-1.65,5.12-1.31,10.43-1.69,15.61-2.7s10.42-2.73,14.35-6.26c5.22-4.67,7.45-11.8,8.82-18.67a56.16,56.16,0,0,0,1.2-17c-.94-8.59-5.88-14.93-10.41-21.94a.33.33,0,0,0-.57.32c4.62,8.67,9.39,17.72,6.28,27.75-1.26,4-4.34,6.88-8.07,8.69-4.36,2.12-9.06.16-13.11-1.69-.77-.35-2,.4-1.35,1.3a37.41,37.41,0,0,0,2.53,3.07C293.14,256,292.29,256.48,291.1,256.52Z"/><path class="cls-5" d="M298.39,314.1c.51-2.1,1.24-8.43-2.7-7.61a7,7,0,0,0-1.54.64c-4.35,2.08-9.84.42-13.19-3a8.7,8.7,0,0,1-2.52-4.56c-.74-4.7,4.42-5.5,7.72-7,4.29-2,8.72-4.06,12.45-7,4.67-3.66,13.3-11.07,15.69-18.4a12,12,0,0,0,.39-1.56,31.05,31.05,0,0,0-2.69-2.42l-.18-.13c-.08.21-.17.41-.27.63-1-.79-2.23-1.93-2.43-2-1.55-.85-1.52-.2-2.26,1.54-1.32,3.11-2.57,6.34-5.06,8.73-1.38,1.32-3.81,3.14-5.87,2.53-1.14-.34-1.65-3.19-3-1.34-.73,1-1,2.22-1.63,3.24a4.73,4.73,0,0,1-1.8,1.64,1.58,1.58,0,0,1-2.27-.4,6.75,6.75,0,0,1-1.21-3.28c-.88-4.34-2,.18-2.7,1.88-.87,2.24-3.44,3.79-5.69,4.25a12.55,12.55,0,0,1-8.11-1.39,15.49,15.49,0,0,1-7.31-7.83,13.49,13.49,0,0,1-1-5c0-1.32,1.24-3.55-.28-4.49-1.85-1.14-4.21,1.59-5.89-1-1.1-1.72.21-4.13-.59-6a6.24,6.24,0,0,0-2.38-2.36c-7.28-5.15-13.05-13.55-14.3-22.46-.46-3.25-2.27-.54-4.21-.49a5.66,5.66,0,0,1-4.18-2.31c-2.12-2.43-3.84-6.51-3.27-9.79a.92.92,0,0,0-1.09-1.15c-2.54.69-5.25.61-4.36-2.69a9.87,9.87,0,0,1,4.29-5.41.8.8,0,0,0-.57-1.47c-1.17.29-3.73,1-3.71-1a6.69,6.69,0,0,1,1.4-3.23c.17-.27.36-.52.55-.78a45,45,0,0,1,8.09-5.36l.24-.07a.29.29,0,0,0,.19-.16c4.36-2.4,8.86-4.75,12-8.08,4.33-4.58,7.94-9.44,8.94-15.71.08-.52.37-1.33-.07-1.07-12,7-28.72,11.36-42,4.75-6.67-3.32-12.57-10.55-14.08-17.77s-1.79-14.39,1.85-20.91c-1.55.25,0,.05-1.52.46a2.4,2.4,0,0,0-1.12.53,2.38,2.38,0,0,0-.48.9c-1.66,4.67-3.1,9.5-3.15,14.46a39.85,39.85,0,0,0,.29,4.76c.66,6,2.14,12.38,6,17.19,1.34,1.66,6.85,5,8.31,8,.67.4,1.32.82,2,1.24,1.28.81,3.41,2.54,5.06,2,1.22-.38,1.79,1.19,1.1,2-.66.16-1.9,1.83-2.56,2.28a15.82,15.82,0,0,1-3.28,1.67c-2.31.89-4.59,1.74-7,2.51a2.7,2.7,0,0,0-.82.37,3.11,3.11,0,0,0-.66.83,13.11,13.11,0,0,1-7.06,5.06c-2.62.85-5.29.65-7.93,1.24a20,20,0,0,1-5.43.88,10.27,10.27,0,0,1-5.16-1.36c-.38-.24-3.61-3.65-2.93-3.93-.56.23-3.49.9-3.69,1.36-2.33,5.53,1.78,9.45,6,10.11,6.49,1,13.13.83,19.65,1.66,4.05.52,6.64.72,8.76,4.39a21,21,0,0,1,1.83,3.77,8.55,8.55,0,0,1,.48,1.86c.56,5.56-8.91,7-12.84,7.44-5.05.52-10.77-.36-14.18-4.49-.25-.3-7.1,1.27-7.1,1.27-.86,3.27.1,7.19,3.16,9.07,3.22,2,7.65,1.49,11.25,1.67a69.61,69.61,0,0,1,12.16,1.83,58.18,58.18,0,0,1,22.72,11c5.74,4.56,10.56,10.16,15.33,15.72,2.61,3,5.26,6.14,7,9.78,1.38,3,3.2,5.7,4.45,8.81a44.3,44.3,0,0,0,4.53,9.27,41.88,41.88,0,0,0,4.36,5c2.51,2.57,5,5.15,7.76,7.48a70.71,70.71,0,0,0,27.74,14.17,7.32,7.32,0,0,0,3.08.35C296.38,319.29,297.78,316.57,298.39,314.1Z"/><path class="cls-6" d="M202.11,239.46c7.54,1.41,9.13,5.07,17.55,9.73,6.38,3.53,21.16,21.63,24.78,30.25a43.38,43.38,0,0,1-1.49-9.39,17.1,17.1,0,0,1,1.67-6.85c1.29-8-7.7-14.81-13.68-18.45-8.17-5-19.43-7.45-28.9-5.95-.38.06-.29.63.07.65Z"/><path class="cls-7" d="M203.66,237.53a3.69,3.69,0,0,0-2.58,1.34,48.35,48.35,0,0,1,17.48,9.86A148.56,148.56,0,0,1,233.25,263a112.65,112.65,0,0,1,9.84,13.91c.21-3.85-.09-8.18.72-12,.25-1.15.85-2,.77-3.21,0-.7-1.28-2.52-1.22-2.83l-.33,1.85c-.2,1.08-.52,2.33-1.54,2.74a2.14,2.14,0,0,1-1.83-.21,5.1,5.1,0,0,1-1.38-1.3,17.3,17.3,0,0,1-3.14-6.2c-.37-1.36-.61-3.47-2.14-3.4-1,0-2.08,1.58-2.94.31s-1.06-3-1.44-4.43a1,1,0,0,0-1.39-.61c-3.36,1.7-7.69-3.47-10.38-5.12C214.34,241,207.8,237,203.66,237.53Z"/><path class="cls-3" d="M199.33,136.52c-3.88,1.21-5.39,6.66-5.49,10.26-.09,3.21.33,6.45.24,9.73a20.75,20.75,0,0,0,.17,4.16,15.68,15.68,0,0,0,3.12,6.5c8.86,11.86,27.3,17.35,41.17,12a.75.75,0,0,0-.35-1.46c-4.87.78-9.62,1.47-14.57,1a22.61,22.61,0,0,1-7.6-2.18c-.77-.38-4.4-2.43-2.6-2.74,1.15-.2,1-1.76.06-2.11-1.88-.69-3.84-.81-5.65-1.72-.94-.47-1.88-.92-2.8-1.44-1.41-.8-2.87-3.14-.29-3.49,1.16-.16.9-2-.21-2a6.58,6.58,0,0,1-4.16-1.39,2.22,2.22,0,0,1-.77-1.08,1.15,1.15,0,0,1,.36-1.21c.6-.44,3.48,0,2-1.43-.36-.36-1.22-.61-1.67-1a11.12,11.12,0,0,1-1.5-1.45,14.16,14.16,0,0,1-3.14-7.88c-.34-3.48.89-8.31,3.94-10.3C200,137,199.8,136.37,199.33,136.52Z"/><path class="cls-3" d="M248,139.8a2.94,2.94,0,0,0,.34-1.16,4.73,4.73,0,0,0-.44-1.94c-.84-2.18-1.81-4.53-3.82-5.71a19,19,0,0,1-1.57,3.94,14.57,14.57,0,0,0-.9,3C243.74,138.46,245.89,139.06,248,139.8Z"/><path class="cls-8" d="M245.17,130.45a.73.73,0,0,0-1.25.07,46.76,46.76,0,0,0-2.66,7.58,10.88,10.88,0,0,1,1.17.53c.37-.93.6-1.92.91-2.86.39-1.19.83-2.73,1.33-3.87.49.73,1,1.87,1.37,2.65a15.65,15.65,0,0,1,1.46,4.52l.09-.16c.27-.45.54-.9.78-1.36a2.09,2.09,0,0,1,.24-.38C248.27,134.72,246.47,132.21,245.17,130.45Z"/><path class="cls-9" d="M306,296.25a18.35,18.35,0,0,0,3.56.27c1.25,0,5.11-.54,3.65-2.77a11.94,11.94,0,0,0-2.8-2.81l-1.34-1.06A7.7,7.7,0,0,1,306,296.25Z"/><path class="cls-10" d="M312.89,292.48c-.26,1.12-1.72,1.61-4.38.55-.76-.3-4.25,3.48-3.51,3.77,1.17.46,5.66.07,6.92.28s2.87-2.25,1.59-4.59c-.14-.26-.54-.34-.62,0Z"/><path class="cls-9" d="M299.2,315.84a9.36,9.36,0,0,1-2.48,3,25,25,0,0,0,5.05.12,11,11,0,0,0,3.71-.81c2.27-1.09,1-2.69-.37-3.87a55,55,0,0,0-5.75-4.36A7,7,0,0,1,299.2,315.84Z"/><path class="cls-10" d="M305.93,313.84c-.23,1.76-1.71,2.74-6.57.56-.44-.2-4.23,5.08-3.94,5.44s3.4.15,3.95.38c.82.34,5.88-1.19,6.75-1,2.57.57,3-2.93.4-5-.27-.22-.34-.62-.59-.36Z"/><path class="cls-11" d="M347.64,304.77c-2.48-9.21-.69-20.72-7.78-27.89-.31-.32.16-.74.49-.47,4.64,3.87,6.25,9.67,7.09,15.45.87,6,.76,14,4.91,18.86,3.93,4.57,12.52,7.52,17.53,2.77,2.9-2.74,3.83-6.65,4.3-10.55a7.68,7.68,0,0,1-4.69,3.85,9.1,9.1,0,0,1-9.71-4.2c-2.49-4.13-2.61-9.25-3.36-13.9-.9-5.55-2.28-10.94-6.33-15.06-.28-.29.12-.82.45-.56a17.57,17.57,0,0,1,5.32,7,11.66,11.66,0,0,1,1,2c.82,2.2,1.43,4.5,2.37,6.66s2.28,4.89,4.65,6a11.29,11.29,0,0,0,2.89.85c-3.65-4-3.91-11-4.39-16-.61-6.28-1.76-13-4.95-18.53A79.54,79.54,0,0,0,348,250.24c-.34-.31.12-.85.5-.62,6.21,3.76,9.8,10.12,14.34,15.54a30.2,30.2,0,0,0,13,9.56c-4.18-3.54-6.24-9.39-8.55-14.25-2.92-6.14-5.95-12.64-11-17.38-10.43-9.87-26-11.93-38-4.18q.09.7.16,1.39c4.11-1.37,8.53-1.45,11.66.4a.41.41,0,0,1-.33.75c-6.57-1.87-18.76,1.75-20.5,9.39,10.5-5,26.29-4.44,34.81,3.89a.42.42,0,0,1-.52.64c-9.84-6.68-24.29-8.33-34.88-2.34a11.44,11.44,0,0,0-2.59,4.08c-.7,2.49,1.25,3.55,3.11,4.52,3.35.86,6,3.45,8.13,6.12,2.81,3.58,3.7,8,4.8,12.29,2.27-3.28,1.34-7.72-.44-11.35a9.6,9.6,0,0,0-5.92-4.56c-.64-.15-.42-1.05.17-1.08,6.65-.26,9.71,9.57,11.1,14.53,1,3.55,1.7,7.13,2.45,10.74.8,3.87,1.8,7.61,4.55,10.33-.42-2.67.42-6.09.7-8.29.51-4,1.18-8.52-1.56-11.88a.3.3,0,0,1-.07-.2l0,0c-.26-.27.1-.76.42-.53,2.81,2,4.14,5.62,5.09,8.82,1.45,4.87,1.58,9.72,1.76,14.76.2,5.68,1.15,11.66,5.67,15.61,2.4,2.1,5,2.5,7.85,2.36C349.51,317.28,348.17,310.06,347.64,304.77Z"/><path class="cls-5" d="M296.34,228.86a.55.55,0,0,0,.84-.43,29,29,0,0,0-2.57-16.73c-2.87-5.74-7.74-8.55-13.45-11.1a23.7,23.7,0,0,1,6.14,11.66c-.15.21-.47.07-.68-.08a43,43,0,0,0-8.85-5.5c-.91-.37-1.84-.68-2.75-1.05a22.37,22.37,0,0,1-6.75-4.3,10.35,10.35,0,0,1-2.4-2.71,19,19,0,0,1-1.49-4.54c-.08-.37-1.33,4.73.37,11.5a17.43,17.43,0,0,0,8.48,11.09c2.28,1.25,4.78,2.13,7.14,3.22,1,.48,8.83,5.62,8.95,6.68.5-1.59-.71-4.76-2.22-6,3.66,1.26,6.83,4.66,9.08,8.16A.62.62,0,0,0,296.34,228.86Z"/><path class="cls-11" d="M266.74,173.52a84.66,84.66,0,0,1-1,11.36c0,.26-.08.53-.12.79,3.19,4.77,8,7.71,12.33,11.23a65.12,65.12,0,0,1,12.2,8.47c2,1.84,5.19,7.07,6.62,9.62-.74-1.33-1.11-6.44-1.39-7.89-.36-1.85-1.83-3.79-3-5.2a34.26,34.26,0,0,0-10.57-8.34c-.31-.16-.08-.65.25-.55a24.23,24.23,0,0,1,8,4.21,76.37,76.37,0,0,0,8.77,5.21,24,24,0,0,0,11.16,2c-7.38-4.18-11.79-12.23-17.69-18.06C285.4,179.47,276.63,174.29,266.74,173.52Z"/><path class="cls-5" d="M249.13,142.85c2.42,6.47,6.76,9.66,9.43,16.15,2.88,7,2.73,14.56,2.45,21.3-.42,10-2.44,24.8,7.17,31.13.63.42,1.42-.53.84-1-9.33-8.17-4.26-23.74-3.94-34.87.17-6,.33-12.19-1.38-18-1.91-6.54-11.1-8.9-14-14.9-.16-.34-.75-.11-.61.24Z"/><path class="cls-12" d="M295.83,212c-2.25-2.93-7.39-9.41-9.32-12.56-1.27-2.07-2.21-4.83-4.47-6-.06,0-.3-.22-.67-.5.75.38,1.45.77,2,1,1.88.79,4.17,1.49,5.75,2.84,1.18,1,2.25,2,3.18,3,4.58,4.67,11.19,5.85,18.35,5,1.15-.13-6.63-6.72-7.76-6.6-7.64.85-14.72-6.65-19.73-11.15s-10.67-8.53-17.74-7.8c-.44,0-.12,4.07-.12,4.07a5.12,5.12,0,0,0,.09,3.21,7.42,7.42,0,0,0,1.46,2,39.36,39.36,0,0,0,4.86,4.37c.21.16.42.31.65.46a108.89,108.89,0,0,0,10.2,7.67,88.9,88.9,0,0,1,10.23,7.88C293.19,209.2,296.15,212.41,295.83,212Z"/><path class="cls-11" d="M279.29,163.51c-4.52-.81-8.8-.4-13.3.05a55,55,0,0,1,.75,9.08h.36c7.69-.91,15.53,2.56,22.34,5.59,6.21,2.76,13.66,6.73,20.7,5.64-7.14-2.6-12-10.39-17.89-14.72A31.22,31.22,0,0,0,279.29,163.51Z"/><path class="cls-12" d="M355.52,319.38c-2.22-1.4-3.09-3.43-4.84-5.16-1.59-1.57-3.42-2.23-4.63-4.31-2.21-3.78-2-8.49-1.82-12.71.25-5.64-.87-11-1.61-16.51a10.68,10.68,0,0,0,2.68,2.95l.12.34a40.22,40.22,0,0,1,1.06,4.65c.79,4.29,1.51,8.59,2,12.92a21.18,21.18,0,0,0,1,5.44c1.36,3.51,4.62,5.92,8,7.63a10.66,10.66,0,0,0,10.13.91,9.29,9.29,0,0,0,4.83-3.15,9.49,9.49,0,0,0,1.14-2.8,50.64,50.64,0,0,0,1.54-8c-2.86,2-4.73,5.46-8,6.63a8.66,8.66,0,0,1-8.74-1.95c-3.43-3.33-5-8.24-6.12-12.77s-1.64-9.52-3.44-13.93a98,98,0,0,0-5.46-10.3c.35.63,2.41,1.36,3.06,1.79a26,26,0,0,1,3.2,2.49,28.78,28.78,0,0,1,4.8,5.3c2.9,4.64,3.25,10.52,7.1,14.64,1.51,1.61,3.71,2.85,5.87,2.38a46.52,46.52,0,0,1-3.5-11.11.72.72,0,0,0-.2-.85c-2.82-2.45-4.45-5.6-6-9a105.92,105.92,0,0,0-5.22-10.4,64.89,64.89,0,0,0-7.31-10.08,46.55,46.55,0,0,0-4.11-4.24,23.49,23.49,0,0,1-3-2.68c3.31-.09,6.05,1.29,8.87,3.12,4.38,2.86,7.39,6.3,10.68,10.28a102.65,102.65,0,0,0,11.54,11.86c2.3,2,5.23,4,8.16,3.19.18-.05-3.34-4-3.6-4.34-.62-.8-.54-1.58-.9-2.3s-1.33-1.24-2.05-1.83c-3.46-2.85-5.88-6.69-9-9.88a68.19,68.19,0,0,0-13.58-10.59,84.47,84.47,0,0,0-13.39-6.49c-1.45-.56-7.27-2.95-4-5,1.44-.91,3.36-1.15,5-1.62a.36.36,0,0,0-.17-.7c-3.51.56-7,1.14-10.47,2a24.89,24.89,0,0,0-5.88,2,4.21,4.21,0,0,0-1.58,1.19c-.68,1.08,0,2.16-.25,3.36a14.68,14.68,0,0,0-6.06,3.62,9.36,9.36,0,0,0-2.73,6.4l2.38-.75c-1.91,1.3-4.18,3.53-4.93,5.72-1,2.77.93,4,3.16,5a16.27,16.27,0,0,1,6,5.1,37.41,37.41,0,0,1,3.83,6.49,28.43,28.43,0,0,0-1.36-8.5c2.65-.58,5.16,2.29,6.9,3.84q3.43,3,6.65,6.33a23.6,23.6,0,0,1,6.68,12c1,4.68.8,9.52,1.09,14.29s1.17,9.72,4,13.57S351.06,321.11,355.52,319.38Zm-15.34-67.31-.11-.06h0Zm-.78-6.21.29.1c-.3,0-.61-.06-.92-.08A2.86,2.86,0,0,1,339.41,245.85Zm-19,8.42a34.14,34.14,0,0,1,7.37,1.21,45.35,45.35,0,0,0,4,2.5c-6,2.54-13,.46-18.87-1.58l0,0A12.1,12.1,0,0,1,320.37,254.27Z"/><path class="cls-12" d="M266.3,173.4c7.57-1.21,11.77,1.37,19.11,4.13,6.57,2.47,20.15,9.13,25.69,6.65.78-.35-4.84-4.44-5.61-4.3-7.17,1.27-15-4.86-20.91-8-5.41-2.91-12.34-7.8-18.52-5.19-.56.24-.16,1,.37.94Z"/><path class="cls-11" d="M265,159q.39,1.39.7,2.82l.07.35a28.42,28.42,0,0,1,14.07-.66c11.1.47,20.22,10.92,31.54,10.42-8-5.12-13.41-13.69-21.77-18.28-8-4.37-18.75-1.19-24.52,5.27Z"/><path class="cls-12" d="M310.76,170.89c-1.61-1.11-3.19-.78-5-1.53-2.73-1.14-5.75-3.56-8.12-5.31-3.76-2.79-7-5.92-11.3-7.76-6.56-2.78-16.07-2.21-21.75,2.23-.89.69-.55,4.14.53,3.85,5.16-1.4,13.78-1.78,20.3,1.76,4,2.16,7.55,2.07,11.23,4.66,3.29,2.32,10.07,4.25,16,3.93.36,0-1.6-1.63-1.87-1.81Z"/><path class="cls-11" d="M264.3,156.88a23.86,23.86,0,0,1,6.18-4.47.58.58,0,0,1,.16-.14c3.87-2.18,8.33-3.69,11.24-7.24,3.17-3.86,5.24-9.24,3.64-14.09-2.77,4.12-6.61,6.91-11.14,9.12a37.33,37.33,0,0,0-7.15,4.24,32.89,32.89,0,0,0-4.33,4.58c-.46.67-.93,1.33-1.4,2A31.56,31.56,0,0,1,264.3,156.88Z"/><path class="cls-12" d="M284.83,130.17c-.82,3-.29,6.55-1.91,9.4s-5,4.52-8,5.63c-4.42,1.61-10.66,2.87-12.84,7.62-.37.8,1.47,6.78,2,6,3.35-5.16,8.46-6.88,13.63-9.37,2.34-1.13,6.48-6,7.88-8.12,1.88-2.91,1.58-7.45.55-10.36-.13-.38-.45-.67-.66-.3Z"/><path class="cls-9" d="M190.5,159.35c-.57-5.91-.56-14.57,3.38-19.83a69.18,69.18,0,0,0-7.32,2.9c-5.18,2.41-9.84,6.47-9.84,12.71,0,7.37,4.72,13.5,12.15,14.43a1,1,0,0,1,.19,1.87c-.81.18-5.55,2.18-1.41,3.18a15.55,15.55,0,0,0,4,.5,33.7,33.7,0,0,0,4.24-.42A32.88,32.88,0,0,1,190.5,159.35Z"/><path class="cls-10" d="M178,148.9c-2.18,4.85-3.37,11.95.74,16.34a15.5,15.5,0,0,0,3.82,2.81c.84.47,4.14,1.37,4.16,2.46a1.84,1.84,0,0,1-.55,1.18,4.15,4.15,0,0,0-.79,1.06,2,2,0,0,0,.36,1.95,3.78,3.78,0,0,0,1.72,1.12c2.79,1,5.87.16,8.71-.69a.37.37,0,0,0,.29-.61c-.37-.84-3.71-11.78-4-11.69a11.28,11.28,0,0,1-4.52.57.32.32,0,0,1-.24-.11c-.08-.12,0-.26.1-.37a3.61,3.61,0,0,0-.58-4.43,2.58,2.58,0,0,0-2.86-.35,1.73,1.73,0,0,0-1,1.87c.22.76,1.13,1.19,1.28,2a.63.63,0,0,1-.08.49.67.67,0,0,1-.71.17,5.89,5.89,0,0,1-2.21-1.49c-3.2-3-4.08-7.83-2.95-12C178.7,148.81,178.13,148.52,178,148.9Z"/><path class="cls-9" d="M169.64,227.27l-.13.06c-2.18,1.12-5.21,2.62-5.33,5.46s4.73,2.32,7.72,2A7.36,7.36,0,0,1,169.64,227.27Z"/><path class="cls-9" d="M166.72,201c-2.33,1.05-4.41,2.53-5.16,4.68-1.63,4.71,4.44,3.93,7.17,3.66l.87-.08C166.84,207.27,165.21,203.8,166.72,201Z"/><path class="cls-13" d="M236.41,168.38c2.85-4,2.16-9.09.8-13.49-2-6.57-6.69-14.28-13.48-16.71a8.63,8.63,0,0,0-8.77,1.92c-4.39,4.28-3.69,11.72-1.62,16.69,2.34,5.63,7.49,12.34,13.46,14.54A8.61,8.61,0,0,0,236.41,168.38Z"/><path class="cls-11" d="M251.43,139c1.69-1.21,3.41-2.39,5.13-3.55,3.73-4.12,4.46-11.61,1.26-16.15a8.6,8.6,0,0,1-.21,4.62,15,15,0,0,1-3,4.51c-3.26,3.43-5.54,6.19-5.71,11l1.05.59C250.44,139.61,251,139.28,251.43,139Z"/><path class="cls-14" d="M270.2,130.54c.92.31,1.89.33,2.82.6h0q2.93-4.56,5.77-9.13c-3.46,2.43-7,4.79-10.47,7.14A4.48,4.48,0,0,0,270.2,130.54Z"/><path class="cls-3" d="M293.57,290.51A30.94,30.94,0,0,0,304,295.82c3-.94,3.86-4.08,3.85-6.92-1.82-1.5-3.58-3.07-5.25-4.74-1.08.92-2.18,1.78-3.26,2.57A56.72,56.72,0,0,1,293.57,290.51Z"/><path class="cls-14" d="M269,137.21h.09q1.67-2.52,3.3-5.06c-1.86.37-4.34-.58-5-2.38L262,133.43a7.79,7.79,0,0,0,2.6,2.82A6.92,6.92,0,0,0,269,137.21Z"/><path class="cls-12" d="M318.07,237.43c4-3.71,10.59-5.17,15.74-5.17a34.94,34.94,0,0,1,16.1,4.09c4.63,1.66,9.13,3.25,14.05,2.56-8.34-3.57-16.42-8.85-25.35-10.42-8-1.41-14.64,2-21.15,6.06C317.7,235.52,317.9,236.48,318.07,237.43Z"/><path class="cls-11" d="M276.75,205.34c3.15,1.77,6.8,3.6,9.47,6.24-.37-1.07-.75-2.13-1.21-3.16a24.64,24.64,0,0,0-7.52-9.2c-3.8-3-9.84-6.63-12.18-11.42-.3,1.75-.61,3.51-.82,5.27a22.67,22.67,0,0,0,4.62,6.88A36.88,36.88,0,0,0,276.75,205.34Z"/><path class="cls-14" d="M264.25,144.36q2-2.93,4-5.91c-2.74.81-6.58-1.59-7.21-4.38l-.45.31-2.49,1.68a8.62,8.62,0,0,1-2.69,1.86C257.12,141.71,260.19,143.56,264.25,144.36Z"/><path class="cls-14" d="M259.51,151c.84.12,2.39-2.54,2.27-2.7l-.16-.24c.63-.89,1.27-1.77,1.89-2.66a7.21,7.21,0,0,1-4-.78,10.78,10.78,0,0,0-4.46-4.35,6.56,6.56,0,0,1-.58-1.73q-.86.61-1.7,1.25a8.52,8.52,0,0,0-3.4.69,36.61,36.61,0,0,0,2.53,5.27,12.89,12.89,0,0,0,7.33,5.65Z"/><path class="cls-11" d="M278.35,217.39a54.89,54.89,0,0,1-9.08-7.41c.73,2.35,1.16,4.85,2.41,7a13.82,13.82,0,0,0,5.61,5.39c3.25,1.7,6.87,2.45,10.21,3.89A38.72,38.72,0,0,0,278.35,217.39Z"/><path class="cls-8" d="M188.62,160.38a3.26,3.26,0,0,0-4.69-3.45,3.21,3.21,0,0,0-1.8,2.55,2.86,2.86,0,0,0,2,2.78.48.48,0,0,0,.55-.68c-.37-.65-.83-1.2-.7-1.8a1.81,1.81,0,0,1,.92-1.12,1.86,1.86,0,0,1,1.53-.19c.81.27,1.17,1.39,1.45,2.09.16.4.71.17.75-.18Z"/><path class="cls-8" d="M221.17,140.28a6.75,6.75,0,0,0-4,1.86,3.76,3.76,0,0,0-.36,4.26c1.4,3,6.4,3.7,8.92,1.92.35-.25.31-.92-.22-.9-2.14.08-4.08.14-5.61-1.34-2.35-2.26.29-3.69,1.63-4.85a.56.56,0,0,0-.37-1Z"/><path class="cls-8" d="M227.32,155.73c-3.24.2-7.28,3.1-5.57,6.76a6.38,6.38,0,0,0,9.85,2,.6.6,0,0,0-.55-1c-2.62.6-5.54.52-6.74-1.83-1-2,1.45-3.79,3.25-5,.41-.27.28-1-.23-1Z"/><path class="cls-15" d="M221.89,173.15a5.33,5.33,0,0,0-1.22-3.22c-1.19-1.65-3.57-2.8-5-1s1.06,5,2.61,6C220,176,221.93,175.39,221.89,173.15Z"/><path class="cls-15" d="M210.87,142.24c1.27-.87,1.32-3.22.72-4.82-.29-1.36-1.07-2.57-2.4-2.73-2.3-.27-3,2.8-2.6,4.5C207,141.11,208.7,143.73,210.87,142.24Z"/><path class="cls-8" d="M270.68,181.29c2.42-.16,4.39,1.74,6.7,2.07.35.05.48-.42.28-.64a9.3,9.3,0,0,0-3.25-2.25,3.87,3.87,0,0,0-3.89.2c-.25.16-.2.65.15.62Z"/><path class="cls-8" d="M271.19,187.71c1.15,1.64,3,3.53,5.16,3.45a.44.44,0,0,0,.33-.73,21,21,0,0,0-2.41-1.91,9.7,9.7,0,0,0-2.58-1.41c-.33-.1-.71.3-.49.61Z"/><path class="cls-8" d="M277.87,187.75a30.59,30.59,0,0,0,3,1.53c1,.44,2,1,3.1,1.41.37.13.6-.28.47-.58-1-2.39-4.07-2.93-6.35-3.17a.44.44,0,0,0-.24.81Z"/><path class="cls-8" d="M285.81,186.3a14.5,14.5,0,0,1,2.84,2,22.36,22.36,0,0,0,2.55,2.16c.3.22.65-.18.49-.47a10.22,10.22,0,0,0-2.29-3.19c-.88-.78-2.29-1.56-3.49-1.14a.34.34,0,0,0-.1.62Z"/><path class="cls-8" d="M290.74,194a15.86,15.86,0,0,0,4.56,3.23c.35.15.53-.33.34-.56-1.16-1.46-2.55-3.38-4.65-3.23-.26,0-.49.35-.25.56Z"/><path class="cls-8" d="M269.13,168.5c1.21.26,6,1.16,7.18,1a.45.45,0,0,0,.13-.81,9.79,9.79,0,0,0-7.19-.84c-.36.09-.54.61-.11.7Z"/><path class="cls-8" d="M278.42,166.73c2,.63,3.81,2.2,5.91,2.39a.44.44,0,0,0,.33-.73,6.53,6.53,0,0,0-6.22-2.22.29.29,0,0,0,0,.56Z"/><path class="cls-8" d="M282.84,172c1.92,1.6,4,3.26,6.64,2.8.41-.07.33-.59,0-.72-2.11-.91-4.06-2.1-6.32-2.63-.29-.07-.61.32-.34.55Z"/><path class="cls-8" d="M270.72,158.49c.92-.16,1.87-.15,2.79-.31a30.15,30.15,0,0,1,3.27-.56.45.45,0,0,0,.14-.87,4.83,4.83,0,0,0-3-.32,23.87,23.87,0,0,0-3.37,1.34.37.37,0,0,0,.17.72Z"/><path class="cls-8" d="M278.28,154.6a21.61,21.61,0,0,1,2.92.14,6.87,6.87,0,0,0,3-.06c.28-.09.44-.54.11-.69-1.79-.84-4.52-1.24-6.22,0-.24.18-.21.63.15.62Z"/><path class="cls-8" d="M281,158.48c2.08.47,4.39,1.21,6.54,1.1a.43.43,0,0,0,.24-.79,7.68,7.68,0,0,0-6.75-.95c-.29.09-.36.56,0,.64Z"/><path class="cls-8" d="M291.58,160.12a10.68,10.68,0,0,1,2.92,1.58c.85.56,1.67,1.33,2.56,1.8a.38.38,0,0,0,.57-.41,5.1,5.1,0,0,0-2.3-2.75,5.62,5.62,0,0,0-3.63-.91c-.38,0-.53.59-.11.69Z"/><path class="cls-8" d="M298.82,165.52c.34.28.59.66.91,1s.81.66,1.22,1a6.49,6.49,0,0,0,2.8,1.41c.31.06.67-.34.36-.59-.75-.6-1.47-1.2-2.25-1.77-.45-.33-.9-.66-1.36-1a7.1,7.1,0,0,0-1.36-.53c-.29-.12-.57.33-.32.53Z"/><path class="cls-8" d="M292.82,174.57a14.81,14.81,0,0,0,5.1,3.38.35.35,0,0,0,.35-.57,11.09,11.09,0,0,0-2.2-2.27,8.47,8.47,0,0,0-3-1.18.36.36,0,0,0-.29.65Z"/><path class="cls-8" d="M280.08,139.2c-1.49,1.25-3.13,2.36-4.7,3.51-.27.2-.25.75.18.73a5.89,5.89,0,0,0,2.95-.95,6.39,6.39,0,0,0,2.23-2.76.43.43,0,0,0-.66-.53Z"/><path class="cls-8" d="M275.06,146.08c-1.93-.32-5.26,1.43-5.82,3.39a.44.44,0,0,0,.63.51c1-.47,1.86-1.07,2.79-1.59a10.52,10.52,0,0,0,2.57-1.59c.2-.21.16-.66-.17-.72Z"/><path class="cls-8" d="M268.83,145.41a4.23,4.23,0,0,0-3.6,4.71.35.35,0,0,0,.64.1,14,14,0,0,1,3.3-4.21c.31-.24,0-.65-.33-.61Z"/><path class="cls-8" d="M279.95,195.2a33.52,33.52,0,0,0,5.59,3.33A.4.4,0,0,0,286,198a8.14,8.14,0,0,0-5.87-3.35c-.34,0-.43.43-.18.59Z"/><path class="cls-8" d="M254.58,130c-1,2-3.13,3.63-3.24,6.06a.42.42,0,0,0,.71.32,12.84,12.84,0,0,0,3.21-6.07c.07-.38-.47-.72-.68-.3Z"/><path class="cls-8" d="M326.28,262.29c2.4.86,3.86,3.24,6.48,3.73a.43.43,0,0,0,.34-.77c-1.07-.79-2-1.76-3.06-2.55a6.56,6.56,0,0,0-3.64-1.13.37.37,0,0,0-.12.72Z"/><path class="cls-8" d="M340.63,267.76c1,.9,2,1.75,2.95,2.75s1.68,2.15,2.65,3.09a.36.36,0,0,0,.61-.33c-.5-2.77-3-5.78-6-6.06a.34.34,0,0,0-.25.56Z"/><path class="cls-8" d="M345.93,277.6c1.07,2.1,1.75,4.45,3,6.45a.35.35,0,0,0,.65-.16,8.5,8.5,0,0,0-3.05-6.72.36.36,0,0,0-.57.42Z"/><path class="cls-8" d="M351.7,287.66c.43,2.46.09,5,1.1,7.35.14.33.59.14.62-.15.28-2.59.22-5.14-1.1-7.45a.34.34,0,0,0-.63.25Z"/><path class="cls-8" d="M351,298.25a7.68,7.68,0,0,0,.54,3.5,7.92,7.92,0,0,0,1.58,3.29.41.41,0,0,0,.68-.16,5.21,5.21,0,0,0-.48-3.06,14.89,14.89,0,0,0-1.74-3.7.32.32,0,0,0-.58.14Z"/><path class="cls-8" d="M356.62,305.13c.28.61.4,1.24.73,1.83a8.47,8.47,0,0,0,1.12,1.46,5.2,5.2,0,0,0,3.3,1.68c.39,0,.5-.5.21-.69a13,13,0,0,1-2.63-2.3c-.36-.41-.68-.86-1-1.28s-.78-.72-1.11-1.15-.77.08-.6.45Z"/><path class="cls-8" d="M340.41,260.18c2.74,1.27,4.39,4,6.19,6.31a.36.36,0,0,0,.62-.24,7.67,7.67,0,0,0-6.62-6.71.34.34,0,0,0-.19.63Z"/><path class="cls-8" d="M351.47,264.54c.93,2,1.89,4,3,5.92a.4.4,0,0,0,.73-.08c.55-2.57-1.43-4.67-3.11-6.31a.4.4,0,0,0-.64.47Z"/><path class="cls-8" d="M333.68,243.33c2.49.07,5.23,1.42,7.48,2.4.37.16.58-.36.37-.61-2-2.4-5-3.61-8-2.39-.31.13-.15.59.15.6Z"/><path class="cls-8" d="M345.32,244a13.55,13.55,0,0,1,3.22,1.86c.44.28.88.58,1.32.88a8.09,8.09,0,0,0,1.55.68.31.31,0,0,0,.36-.45,6.56,6.56,0,0,0-1-1.37,11.92,11.92,0,0,0-1.67-1.27,8.06,8.06,0,0,0-3.68-1c-.37,0-.44.53-.1.63Z"/><path class="cls-8" d="M355.68,252.47c1.52,1.17,2.68,3,4,4.36a.34.34,0,0,0,.57-.31c-.36-2.48-2.06-3.69-4.19-4.68a.37.37,0,0,0-.38.63Z"/><path class="cls-8" d="M354.13,245.59a28.59,28.59,0,0,0,3.36,3.45c.26.2.55-.11.51-.37-.29-1.9-1.91-2.77-3.42-3.63a.36.36,0,0,0-.44.55Z"/><path class="cls-8" d="M363.16,260.31a9.34,9.34,0,0,1,1.62,2.38,15.48,15.48,0,0,0,1.74,2.11c.28.29.67-.06.53-.39a18.34,18.34,0,0,0-1.3-3,5.44,5.44,0,0,0-2.18-1.82.4.4,0,0,0-.42.68Z"/><path class="cls-8" d="M273.85,217.14a21.35,21.35,0,0,0,2,2.56,8.12,8.12,0,0,0,2.8,1.51.4.4,0,0,0,.46-.58,7.79,7.79,0,0,0-2.1-1.86c-1-.68-1.7-1.58-2.71-2.2-.37-.23-.7.25-.45.56Z"/><path class="cls-8" d="M267.12,194.37c1.24,1.58,2,3.18,4,4,.37.15.58-.35.37-.61-1.2-1.48-2.19-3-3.91-3.9a.33.33,0,0,0-.41.52Z"/><path class="cls-8" d="M273.84,200.7a7,7,0,0,0,2.31,1.6c.87.45,1.74.91,2.59,1.39a.35.35,0,0,0,.49-.47,3.87,3.87,0,0,0-2.2-1.92c-.93-.42-1.89-.8-2.83-1.19-.37-.15-.57.35-.36.6Z"/><path class="cls-8" d="M347.08,255.16a25.86,25.86,0,0,0,2.12,2.3c.83.7,1.66,1.37,2.51,2a.33.33,0,0,0,.5-.36,6.24,6.24,0,0,0-1.63-2.54,15.06,15.06,0,0,0-3.11-1.93.32.32,0,0,0-.39.49Z"/><path class="cls-8" d="M356.81,274.39c.42.94.76,1.9,1.1,2.87a5.62,5.62,0,0,0,1.09,2.19.33.33,0,0,0,.55-.13c.52-1.92-.87-4.05-2.2-5.33a.34.34,0,0,0-.54.4Z"/><path class="cls-8" d="M331.66,254.64a43.74,43.74,0,0,1,5.6,2.74c.3.15.72-.15.51-.49a6.2,6.2,0,0,0-2.57-2.32,10.15,10.15,0,0,0-3.41-.74c-.48-.06-.56.67-.13.81Z"/><path class="cls-8" d="M333.48,268.44c1.57,1.17,3,2.71,4.88,3.46.34.14.59-.29.45-.56a6.34,6.34,0,0,0-5.1-3.66.42.42,0,0,0-.23.76Z"/><path class="cls-8" d="M326.74,267.57a20.83,20.83,0,0,1,1.91,2.82,18.82,18.82,0,0,1,1.58,2.71c.15.34.64.16.66-.16a5.08,5.08,0,0,0-.82-3.33,8.24,8.24,0,0,0-3-2.5.3.3,0,0,0-.37.46Z"/><path class="cls-8" d="M320.41,245.13c1.06.09,2.12,0,3.18.12a18.43,18.43,0,0,0,3.19.25.43.43,0,0,0,.24-.79,6.77,6.77,0,0,0-6.77-.23.35.35,0,0,0,.16.66Z"/><path class="cls-8" d="M335.57,237.81c1.16.17,2.28.39,3.42.65a29.5,29.5,0,0,0,3.26.85.36.36,0,0,0,.32-.53c-1.25-2.27-4.88-2.41-7.08-1.73a.38.38,0,0,0,.08.75Z"/><path class="cls-8" d="M337.51,279a12.17,12.17,0,0,1,1.52,2.57c.48.94,1,1.86,1.47,2.8a.31.31,0,0,0,.57-.14,6.42,6.42,0,0,0-3.17-5.71c-.31-.2-.61.22-.39.48Z"/><path class="cls-8" d="M341.74,291.21a14.35,14.35,0,0,1,.55,3.26,24.45,24.45,0,0,0,.13,3.27.43.43,0,0,0,.77.12,6.79,6.79,0,0,0-.93-6.94.31.31,0,0,0-.53.29Z"/><path class="cls-8" d="M342.59,304.36a8.32,8.32,0,0,0,1.44,6.57c.24.3.66,0,.61-.33-.32-2-.37-4.54-1.44-6.31a.34.34,0,0,0-.61.07Z"/><path class="cls-8" d="M330.58,279.35c.95,2.6,1,5.44,2,8,.11.29.58.2.65-.07.74-2.95-.43-5.77-2.11-8.16-.19-.27-.72-.13-.58.23Z"/><path class="cls-5" d="M271.34,217.86c.44,4.07,1.35,7.86,4.71,10.47s8,3.53,12,4.36c.46.1.54-.16.36-.7a12.69,12.69,0,0,0-3.9-5.82c-1.81-1.51-3.85-.93-6-1.67-3-1-5.4-4-6.45-6.8A.34.34,0,0,0,271.34,217.86Z"/><path class="cls-5" d="M307.23,287.27c-.35,2.54-2.4,2.41-4.47,1.88a11.7,11.7,0,0,1-5-2.45c-.68-.64-6.33,3-5.66,3.63,1.84,1.81,9.15,5.77,11.65,6.1s5.28-5.7,4-9.22a.31.31,0,0,0-.6.06Z"/><path class="cls-10" d="M160.08,207.14c1.28,1,1.49,2.67,3.07,2.53,1.22-.11,7.63,1.16,7.82-.16,0-.33-3.88-3.76-4.18-3.64-3,1.21-5.24,1.06-6.29.59a.4.4,0,0,0-.42.68Z"/><path class="cls-10" d="M162.88,231c1,.86.6,4.48,1.92,4.68a35.13,35.13,0,0,0,8-.17c.77-.2-1.69-4.53-2.46-4.36-2.57.57-4.72.91-7.05-.62-.29-.19-.64.24-.38.47Z"/><path class="cls-13" d="M278.58,121.31c-9.35,7.7-19.19,12.62-29.09,19.7-.86.62.74,5.16,1.55,4.48,9.22-7.79,19.55-15.08,28.05-23.64a.37.37,0,0,0-.51-.53Z"/><path class="cls-8" d="M196.23,137.17c-6.27,4.6-6.4,15.26-5.73,22.18a31.43,31.43,0,0,0,11.8,22.14c8.4,6.49,17.91,9.36,28.38,6.7,8.54-2.17,18.85-8.16,22.73-16.46.29-.61-.5-1.43-1-.81a52.94,52.94,0,0,1-8.05,8.27,41.14,41.14,0,0,1-12.59,6.54c-9.66,3.1-18.89.83-27-4.84a29,29,0,0,1-12.23-20.4,43.74,43.74,0,0,1,0-11.79,28.21,28.21,0,0,1,4.33-10.91c.21-.35-.22-.9-.6-.62Z"/><path class="cls-8" d="M196.7,174.57a37.67,37.67,0,0,1-5,.54,15.55,15.55,0,0,1-4-.5c-4.14-1,.6-3,1.41-3.18a1,1,0,0,0-.19-1.87c-7.43-.93-12.14-7.06-12.15-14.43,0-6.23,4.65-10.29,9.84-12.71,11.35-5.29,24-7.26,36.44-7.15,9.08.08,19,1.92,26.94,6.76a5.48,5.48,0,0,1,.93-1.49,47.24,47.24,0,0,0-8.53-4.05c-11.82-4.29-25.05-3.73-37.28-1.84a72.83,72.83,0,0,0-16.34,4.58c-4.6,1.86-8.79,3.92-11.66,8.13-3.21,4.7-2.85,10.77-.59,15.76a14.36,14.36,0,0,0,9.46,7.77c-1.68,1.16-3,2.87-1.13,4.33,3.21,2.48,8.6,1.72,12.2.62A.65.65,0,0,0,196.7,174.57Z"/><path class="cls-8" d="M265.47,206.38a37.78,37.78,0,0,1-1.25-10.19,109.91,109.91,0,0,1,1.56-11.31c1.12-7.71,1.47-15.42-.13-23.08a33.62,33.62,0,0,0-4.92-12.09c-.19.38-.39.75-.6,1.11l-.3.68c8.34,12.82,4.09,29,2.81,43.1a23.3,23.3,0,0,0,2,12.1C264.87,207.17,265.58,206.86,265.47,206.38Z"/><path class="cls-8" d="M263.09,192.21c1.15,12.87,17.82,14.85,24.79,23.23.38.46,1.08-.11.82-.6-2.42-4.54-7.64-7.08-11.95-9.49a36.88,36.88,0,0,1-7.64-5.38c-2.38-2.27-3.76-5-5.14-8-.19-.41-.93-.25-.89.22Z"/><path class="cls-8" d="M264.46,185.18c1,6.11,8.57,10.56,13,14a24.64,24.64,0,0,1,7.52,9.2c1,2.26,1.61,4.73,2.73,6.93.32.62,1.17.2,1.08-.42a28.08,28.08,0,0,0-7.4-15c-5.24-5.34-12.25-8.47-16.25-15.06a.38.38,0,0,0-.71.28Z"/><path class="cls-8" d="M274.88,195.92c7.58,6.37,17.52,11,21.41,20.71.19.47,1,.26,1-.23-.3-4.38-4-8.2-7.06-11-4.36-4.07-9.72-7.07-14.87-10-.34-.19-.76.28-.44.55Z"/><path class="cls-8" d="M281.84,193.55a34.26,34.26,0,0,1,10.57,8.34c3.34,4,3.33,9.59,3.81,14.48.05.53.86.78,1,.16,2.53-11-5-20.42-15.14-23.53-.32-.1-.56.39-.25.55Z"/><path class="cls-8" d="M287.51,196.45c6.23,5.95,15.54,12.23,24.53,8.78.46-.18.49-1-.1-1-4.69.34-8.72.08-13.07-1.87-3.88-1.74-7.23-4.46-10.95-6.49-.33-.18-.71.25-.42.52Z"/><path class="cls-8" d="M266.3,173.48c10.07.65,19,5.89,26,12.85,6.32,6.24,10.93,15,19.31,18.89a.53.53,0,0,0,.55-.91,50.07,50.07,0,0,1-10.83-10.51,81,81,0,0,0-9.25-10.64c-7-6.32-16.18-11.08-25.81-10.5a.41.41,0,0,0,0,.82Z"/><path class="cls-8" d="M266.3,173.4c4.24.52,8.27.87,12.38,2.21,4.67,1.52,9,3.91,13.53,5.9,5.69,2.53,14.74,7.06,20.75,3,.56-.38.27-1.43-.46-1.18-7.7,2.55-16.14-2-23-5.09-7.07-3.14-15.25-6.78-23.21-5.48-.4.06-.28.61.07.66Z"/><path class="cls-8" d="M265.26,163.64c4.76-.48,9.26-1,14-.13a31.22,31.22,0,0,1,13,5.63c6.52,4.79,11.76,13.79,20.21,15.36.61.11,1.15-.78.48-1.09-8.76-4-13.83-12.4-21.78-17.5-7.22-4.63-17.87-6.56-26-3.56-.62.23-.66,1.36.13,1.28Z"/><path class="cls-8" d="M313.16,171.83c-4.72-3.72-8.91-8.08-13.24-12.23-3.39-3.25-7.13-6.87-11.57-8.61-8.36-3.27-18.8.08-24.65,6.52-.84.92.51,2.33,1.35,1.4,5.76-6.47,16.56-9.64,24.52-5.27,8.8,4.83,14.3,14.08,23.07,19.07a.51.51,0,0,0,.53-.87Z"/><path class="cls-8" d="M318.54,241.42c-.83-13.38-9.58-28.83-22.16-34.49,0,.44.08.89.09,1.33A47.89,47.89,0,0,1,311,223.74a45.91,45.91,0,0,1,5.77,17.86C316.86,242.62,318.6,242.43,318.54,241.42Z"/><path class="cls-8" d="M314.43,265.77c-2.2,3.31-3.94,6.83-6.37,10a51.19,51.19,0,0,1-9.09,8.85c-6.08,4.79-12.76,7.15-20,9.48-.78.25-.75,1.53.16,1.51,3.39-.06,6.84-1.6,9.92-2.88a49.55,49.55,0,0,0,10.34-6C306,281.83,313.31,274.47,315,266a.34.34,0,0,0-.62-.28Z"/><path class="cls-8" d="M302.47,284a80.92,80.92,0,0,0,8,6.94,11.94,11.94,0,0,1,2.8,2.81c1.46,2.23-2.4,2.74-3.65,2.77-5.93.15-12.16-2.9-16.67-6.52a.87.87,0,0,0-1.26,1.21c2.47,2.8,6.33,4.39,9.78,5.59s7.37,2.05,10.84,1.07c2.66-.75,3.61-3.09,2.09-5.36a13.25,13.25,0,0,0-3.11-2.94c-2.7-2.07-5.3-4.24-7.89-6.44-.6-.51-1.48.28-.9.87Z"/><path class="cls-8" d="M307.85,288c.21,3.06-.56,6.79-3.88,7.8-.59.18-.56,1.21.12,1.14,3.58-.34,6.24-6,4.43-9.1-.17-.28-.69-.21-.66.16Z"/><path class="cls-8" d="M297.78,308.54a8.05,8.05,0,0,1-.14,6.89c-1.13,2.22-3.14,2.66-5.15,3.7a.59.59,0,0,0,.26,1.09c2.74.32,5.32-2.12,6.46-4.39a7.31,7.31,0,0,0-.82-7.64.35.35,0,0,0-.61.34Z"/><path class="cls-8" d="M168.75,198.8c-5.79,3.91-1,11.34,4.72,12a.56.56,0,0,0,.31-1c-2-1.15-3.91-2-5.32-3.88-1.69-2.29-.57-4.41.93-6.39.29-.38-.25-.93-.64-.67Z"/><path class="cls-8" d="M170.37,225.64c-3,4.83.89,11.16,6.51,11,.47,0,.78-.71.28-1-2-1-3.87-1.6-5.21-3.45s-1.1-4.25-.83-6.42c.05-.42-.55-.55-.75-.22Z"/><path class="cls-8" d="M312.69,171.8c-12.69,1.56-22.49-11.25-35-10.27a.57.57,0,0,0,0,1.13c6.79.38,12.64,3.78,18.7,6.51,5,2.26,11,5.25,16.66,3.77a.59.59,0,0,0-.28-1.14Z"/><path class="cls-8" d="M248.87,139.73c.08-5,2.4-7.83,5.73-11.33a15,15,0,0,0,3-4.51,8.6,8.6,0,0,0,.21-4.62c3.7,5.25,2.15,14.44-3.22,17.81a.51.51,0,0,0-.15.78c1.56-.86,3-2,4.57-2.9,3.84-5.25,3.06-14.65-1.66-18.66a.85.85,0,0,0-1.45.56c-.06,2.79.8,5.16-.65,7.78-1.23,2.24-3.41,3.92-5,5.88-2.14,2.61-3.52,6-2.57,9.33A.61.61,0,0,0,248.87,139.73Z"/><path class="cls-8" d="M261.77,150.15c1.82-2,3.31-4.13,5.44-5.85a37.33,37.33,0,0,1,7.15-4.24c5.06-2.47,9.27-5.65,12.07-10.62l-1.56,0c2.68,5.22.5,11.35-3,15.62-2.91,3.55-7.36,5.05-11.24,7.24-.59.33-.23,1.36.44,1.14,5.14-1.66,9.9-4.22,13.18-8.62,3.41-4.6,4.85-11,2.2-16.25a.91.91,0,0,0-1.56,0c-3.1,5.42-7.78,8.09-13.12,10.92-4.11,2.17-9.34,5.61-10.52,10.42-.07.28.29.56.52.31Z"/><path class="cls-8" d="M268.1,208.9c.68,5.34,2.11,10.11,6.45,13.55,3.78,3,9.2,3.95,13.7,5.35.6.19,1-.73.45-1-3.66-1.82-7.77-2.53-11.41-4.43a13.82,13.82,0,0,1-5.61-5.39c-1.47-2.52-1.8-5.56-2.84-8.24a.38.38,0,0,0-.74.18Z"/><path class="cls-8" d="M268.36,209a51.63,51.63,0,0,0,10,8.4,40.12,40.12,0,0,1,10.19,10.24.57.57,0,0,0,1-.56c-1.69-3.84-5-7-8.22-9.54-4-3.16-8.28-6.31-12.51-9.12-.36-.24-.73.27-.46.57Z"/><path class="cls-8" d="M317.31,239.56c12.14-8.51,28.31-6.6,39,3.53,5,4.74,8,11.25,11,17.38,2.75,5.78,5.13,13,11.16,16a.64.64,0,0,0,.67-1.09c-6.17-4.34-8.75-12.76-12-19.3s-6.91-12.48-12.69-16.83a35.1,35.1,0,0,0-20.65-7c-5.8,0-13.42,1.83-17.11,6.65-.27.36.24.9.61.64Z"/><path class="cls-8" d="M348,250.24c5.85,5.31,9.8,11.9,15,17.76,3.76,4.24,9.81,9.46,15.93,8.68.52-.07.51-.89,0-1-6.74-1.61-11.68-5.23-16.12-10.51s-8.13-11.78-14.34-15.54c-.38-.23-.84.31-.5.62Z"/><path class="cls-8" d="M354.14,256.58c5.79,6.09,7.44,14.89,8.23,23,.56,5.8.82,14.21,6.38,17.7a.71.71,0,0,0,.87-1.09c-5.36-5.31-5.06-13.14-6-20.14-.94-7.29-3.16-15.16-9.15-19.9-.27-.21-.59.22-.37.46Z"/><path class="cls-8" d="M350.08,273.62c4.05,4.13,5.44,9.51,6.33,15.06.75,4.65.86,9.76,3.36,13.9a9.1,9.1,0,0,0,9.71,4.2c3.64-.92,5.65-4.75,6.18-8.16.1-.63-.91-.76-1.08-.17-1.2,4.27-4.42,7.83-9.17,6.38s-5.67-6.58-6.35-10.68c-1.29-7.81-1.84-15.84-8.54-21.09-.33-.26-.73.27-.45.56Z"/><path class="cls-8" d="M339.86,276.88c10.35,10.46,1.77,30.15,15.17,38.48,4.75,3,11.71,3.15,16-.62s4.79-10.84,4.55-16.1a.52.52,0,0,0-1,0c-.45,5.14-.72,11.11-4.71,14.89-5,4.75-13.6,1.8-17.53-2.77-4.15-4.82-4-12.9-4.91-18.86-.84-5.77-2.45-11.58-7.09-15.45-.33-.27-.8.15-.49.47Z"/><path class="cls-8" d="M347.36,301.32c.39,5.73,1.33,19.36,9.88,18.47a.57.57,0,0,0,0-1.14c-7.88-1.27-7-11.73-9.34-17.47a.31.31,0,0,0-.58.14Z"/><path class="cls-8" d="M333.1,278.26c3.17,3.31,4.17,9.11,4.88,13.5,1,6,.07,12.16,1.66,18.11a16.82,16.82,0,0,0,7.25,9.92c3.05,1.86,6.85,1.48,10.08.37a.58.58,0,0,0-.27-1.13c-3.94.49-7.47.67-10.63-2.1-4.52-4-5.47-9.94-5.67-15.61-.18-5-.31-9.9-1.76-14.76-1-3.2-2.28-6.79-5.09-8.82-.32-.23-.69.25-.42.53Z"/><path class="cls-8" d="M315.77,264.13c7,1.59,8.91,11.46,10.37,17.42,1.61,6.58,1.76,16.63,9.09,19.71.72.3,1.13-.8.53-1.2-4.09-2.72-5.32-7.15-6.27-11.74-.74-3.61-1.45-7.19-2.45-10.74-1.39-5-4.45-14.79-11.1-14.53-.59,0-.81.93-.17,1.08Z"/><path class="cls-8" d="M333.19,278.48c2.74,3.36,2.06,7.87,1.56,11.88-.37,2.9-1.73,7.95.15,10.56a.6.6,0,0,0,1.12-.27c.09-2-.32-4-.16-6.06.18-2.33.55-4.65.73-7,.26-3.44-.09-7.34-3-9.6-.29-.22-.58.22-.38.47Z"/><path class="cls-8" d="M330.1,240.69c-7.56-4.47-22.74,2.31-22.72,11.59a.85.85,0,0,0,1.25.76c10.59-6,25.07-4.38,34.93,2.31a.42.42,0,0,0,.52-.64c-8.91-8.72-25.82-8.94-36.26-3.14l1.25.76c.36-8.67,13.71-12.89,20.7-10.9a.41.41,0,0,0,.33-.75Z"/><path class="cls-8" d="M311.19,257.89c6.48-2.95,14.24-2.17,20.58.73.45.21,1.05-.36.6-.75-5.42-4.59-16.09-5.31-21.57-.5-.3.26.07.67.39.52Z"/><path class="cls-8" d="M316.48,235.18c6.83-4.28,13.71-8.16,22.14-6.68,9.81,1.73,18.59,7.93,27.81,11.42l0-1.54c-7.33,2.18-13.57-1.16-20.41-3.35-.73-.23-1,.81-.33,1.1,6.9,3,13.51,6.05,21.11,3.8a.8.8,0,0,0,0-1.54c-9.7-3.94-19.22-10.53-29.79-11.86-7.83-1-15.67,2.58-21,8.1-.26.27.06.75.4.54Z"/><path class="cls-8" d="M308,262.2c8.4,3.06,10.55,12.35,12.83,19.88a.89.89,0,0,0,1.47.43c5-4.88,2.7-13-1.68-17.41-.36-.37-1.07.11-.75.55,3,4.22,5.68,11.36,1.2,15.58l1.47.43c-1.34-4.8-2.06-9.89-5.23-13.92-2.32-2.94-5.34-5.79-9.18-6.33-.48-.07-.54.65-.13.8Z"/><path class="cls-8" d="M352.92,276.95c.9,2.47,2.33,4.62,3.08,7.17a44.69,44.69,0,0,0,2.76,7.61,10,10,0,0,0,10.35,5.49c.59-.06.84-.91.18-1.1-1.81-.53-3.67-.56-5.4-1.39-2.38-1.15-3.65-3.75-4.65-6s-1.55-4.46-2.37-6.66c-.73-1.94-2.15-3.6-3.24-5.34-.21-.34-.85-.15-.7.27Z"/><path class="cls-16" d="M247.94,200.75c1,.69,2.17,1.11,3.21,1.72.86.51,1.74,1,2.64,1.47a.39.39,0,0,0,.48-.6c-1.47-1.65-3.87-3.54-6.23-3.18-.3,0-.3.44-.09.59Z"/><path class="cls-16" d="M250.78,208c.7,1.79,2.32,3.81,4.29,4.22.38.08.84-.32.58-.72-1.08-1.64-3-2.46-4.19-4-.32-.42-.83.1-.68.5Z"/><path class="cls-16" d="M242.22,205.56a10.68,10.68,0,0,0,4,5.46.56.56,0,0,0,.77-.74,17.82,17.82,0,0,0-4.2-5c-.24-.19-.72,0-.59.33Z"/><path class="cls-16" d="M251.2,215.54c1.22,1.85,2.81,4.18,5,5,.44.16.76-.35.58-.72-1-2-3.3-3.46-5-4.77-.3-.23-.73.2-.53.51Z"/><path class="cls-16" d="M258.45,216.4a19.76,19.76,0,0,1,2.6,2.93,13.14,13.14,0,0,0,2.37,2.82c.36.26.8-.14.72-.53a8.2,8.2,0,0,0-5.38-5.73c-.28-.08-.56.3-.31.52Z"/><path class="cls-16" d="M258.81,209.75a14.27,14.27,0,0,0,2.23,1.64c.39.24.76.49,1.16.72a15.18,15.18,0,0,0,1.52.62c.43.2,1-.35.57-.72s-.73-.76-1.13-1.1a12,12,0,0,0-1.28-.9,4.92,4.92,0,0,0-2.8-.87c-.29,0-.51.37-.27.6Z"/><path class="cls-16" d="M243.62,215.26c.52,1.75,1.78,4.08,3.82,4.26a.63.63,0,0,0,.47-1.06c-.54-.53-1.18-1-1.76-1.46a12.39,12.39,0,0,1-1.82-2c-.24-.32-.84-.17-.71.28Z"/><path class="cls-16" d="M308.36,230.46c-.58.61-1.08,1.26-1.69,1.85a28,28,0,0,0-2.24,1.83.55.55,0,0,0,.36.93c2.06,0,3.72-2.5,4.08-4.31.05-.28-.27-.55-.5-.31Z"/><path class="cls-16" d="M308,237.67a18.53,18.53,0,0,0-3,1.05,8,8,0,0,1-3.65.59.5.5,0,0,0-.27.92c2.62,1.7,5.22-.3,7.19-2a.35.35,0,0,0-.32-.59Z"/><path class="cls-16" d="M302.11,229.37a7.77,7.77,0,0,1-2.36,1.83c-1,.52-2.19,1.39-3.32,1.27-.42,0-.47.56-.11.69a5.1,5.1,0,0,0,4.24-.48c1.07-.59,2.35-1.81,2.12-3.15a.34.34,0,0,0-.56-.17Z"/><path class="cls-16" d="M298.59,236.6a11.69,11.69,0,0,1-3.36.58c-1.2,0-2.33-.46-3.51-.55a.55.55,0,0,0-.41.93,5.68,5.68,0,0,0,7.69-.2c.3-.3,0-.89-.41-.76Z"/><path class="cls-16" d="M293.71,243.71c2.53,2.15,5.85,1.63,8.37-.23.31-.23,0-.69-.34-.62a17.8,17.8,0,0,1-7.56.08c-.41-.09-.86.44-.47.77Z"/><path class="cls-16" d="M307.63,243.7a18.86,18.86,0,0,1-5,3.94.36.36,0,0,0,.16.67c2.91,0,4.38-1.71,5.49-4.23.16-.35-.38-.64-.63-.38Z"/><path class="cls-16" d="M287,229.15c1.71,1.84,4,2.61,6.3,1.23a.44.44,0,0,0-.31-.82,11,11,0,0,1-5.64-1c-.34-.14-.58.34-.35.58Z"/><path class="cls-16" d="M283.39,235.93c.6,2.27,3.39,4.42,5.78,3.93a.45.45,0,0,0,.13-.82,26.35,26.35,0,0,0-2.68-1.54c-1-.57-1.78-1.36-2.74-1.92a.33.33,0,0,0-.49.36Z"/><path class="cls-16" d="M283.94,243.3c1.81,2.31,4.25,3.69,7.12,2.41.43-.19.21-.8-.2-.84-2.37-.22-4.34-1.5-6.59-2.12a.34.34,0,0,0-.34.55Z"/><path class="cls-16" d="M292.71,250.06c2.06,1.33,5.21,2.48,7.09.13.21-.26-.06-.65-.36-.66-1,0-2,.2-2.93.2a10.38,10.38,0,0,1-3.38-.61c-.57-.21-.9.63-.42.94Z"/><path class="cls-16" d="M286.24,251.33a3.29,3.29,0,0,0,1.62,1.85c.75.37,2,.56,2.63-.17a.4.4,0,0,0-.07-.62,9.08,9.08,0,0,0-1.88-.74,15.39,15.39,0,0,0-1.85-.73c-.23-.06-.55.16-.45.42Z"/><path class="cls-8" d="M296.17,325.22c5,3.52,12.63,6.83,17.94,2.12.58-.51-.13-1.24-.74-1-5.76,2.28-11.41.9-16.79-1.81a.4.4,0,0,0-.42.68Z"/><path class="cls-8" d="M310.53,301.66c2.81,2.15,9.43,3,11.59-.5a.6.6,0,0,0-.8-.83c-3.07,1.79-7.13,1.41-10.44.55a.43.43,0,0,0-.35.78Z"/><path class="cls-8" d="M316.3,307.15c2.1,1.37,5.63,2.46,8,.94.37-.24.42-1-.12-1.06a22.91,22.91,0,0,0-3.5,0,22,22,0,0,1-4.06-.51.36.36,0,0,0-.29.64Z"/><path class="cls-8" d="M307.38,333.85a10.2,10.2,0,0,0,10.06.38.58.58,0,0,0-.26-1.08c-3.18,0-6.31.91-9.45-.07a.43.43,0,0,0-.34.77Z"/><path class="cls-4" d="M259.61,168.66c2.68,2.75,9,2.07,12.74,1.69-2.56-4.2-8.18-10.53-13.44-10,0,.16.36,2.06.38,2.22A44,44,0,0,1,259.61,168.66Z"/><path class="cls-8" d="M273.56,170.27a26.75,26.75,0,0,0-6.13-7.56,13.52,13.52,0,0,0-4.32-2.51c-1-.31-3.93-1.06-4.63,0a.37.37,0,0,0,0,.46.56.56,0,0,0,.28.12,26.4,26.4,0,0,1,4,.73,12.64,12.64,0,0,1,3.63,2.14,21.5,21.5,0,0,1,3,3.05,36.08,36.08,0,0,0,2.37,3.35c-3.89.38-9.26.84-11.86-2.18-.64-.75-1.86.06-1.27.9,2.89,4.15,10.14,3,14.4,2.61A.73.73,0,0,0,273.56,170.27Z"/><path class="cls-15" d="M266.26,166.71a14.1,14.1,0,0,0-2.76-2.51c-1.22-.78-2.41-.58-3.74-.32h0c-.41.05,0,1.27.13,1.68C260.88,168.41,266.56,167,266.26,166.71Z"/><path class="cls-8" d="M378.68,300.34c1.16,5.25.46,11.47-3,15.69a.44.44,0,0,0,.52.7c5.75-2.62,5.27-11.88,3.12-16.64-.16-.36-.71-.12-.63.25Z"/><path class="cls-13" d="M188.81,144.34c-3.11.43-8,2.6-8.35,6.25a.55.55,0,0,0,.93.41c1.19-1,2.13-2.22,3.41-3.15s2.87-1.85,4.26-2.88a.35.35,0,0,0-.25-.65Z"/><path class="cls-4" d="M263.66,252.39c.25-1.14.08-3.55-1.47-3.73-.87-.1-1.33.79-1.56,1.48a3.79,3.79,0,0,0,0,2.11A2.48,2.48,0,0,0,262,254a1.49,1.49,0,0,0,1.84-.69,4.31,4.31,0,0,0-.61-4.13.83.83,0,0,0-1.38.34,3.12,3.12,0,0,0-.3,2.06.64.64,0,0,0,1.06.31,4.81,4.81,0,0,0,.82-1.9l-1.38.34c-.13-.15.07.13.09.18a3.09,3.09,0,0,1,.17.49,4.15,4.15,0,0,1,.18,1.18,1.26,1.26,0,0,1-.06.39.13.13,0,0,1,.12,0c-.12,0-.26-.51-.3-.64a3.25,3.25,0,0,1-.16-1,2.06,2.06,0,0,1,.11-.48,2,2,0,0,1,.11-.28c.1-.21,0,0-.22,0,.2,0,.42.62.49.78a3.07,3.07,0,0,1,.24,1.41c0,.5.77.65.88.14Z"/><path class="cls-4" d="M273.76,267.3c1-2.76-4.76-8.41-6.09-4.7-.81,2.26,1.62,9.44,4.9,8.16,3.48-1.36.64-8.74-2.47-8.94-1.91-.12-2.44,1.57-1.77,3.11s2.32,3.51,4.27,3.55a1,1,0,0,0,1-.91,4.09,4.09,0,0,0-3.25-4.57.94.94,0,0,0-1.17.84,2.41,2.41,0,0,0,.28,1.44c.27.65,1.36.36,1.33-.32a.72.72,0,0,1,.08-.62l-1,.4a2.39,2.39,0,0,1,1.9,2.77l1-.91c-.92,0-1.68-.93-2.17-1.63a4,4,0,0,1-.56-1.18c-.11-.4.09-.12-.14-.1a.84.84,0,0,1,.55.21,5.55,5.55,0,0,1,1.71,2.93c.09.29.46,2.53-.27,2.19-1.58-.75-2.54-3.8-2.59-5.39s1.65,0,2.08.44a4.84,4.84,0,0,1,1.61,3.07.46.46,0,0,0,.89.14Z"/><path class="cls-4" d="M272.74,269.14l0,0,0,.24c.14-.47-.35-1-.69-1.32l.16.42A.6.6,0,0,0,272,268a.58.58,0,0,0-.91.1.85.85,0,0,0-.07.14c0,.08.07-.15,0,0l.22-.22a.93.93,0,0,0-.44.86.69.69,0,0,0,.67.71h0a.7.7,0,0,0,.62-1l0-.06.09.36c.05-.75-.78-1.09-1.39-1-.85.13-.66,1.43.15,1.46.17,0,.12,0,0,0s-.07-.06,0,0a.89.89,0,0,0,.37.21l-.41-.33,0,.06.44-1h0l.85.69c0-.3,0-.54-.21-.79l.15.28c0-.11,0,.18,0,.19l-.86.33h0l-.26-.36c.06.3.33.39.55.54s.27.23.41.34a.45.45,0,0,0,.53.08h0l-.37-.06.05.07c.21.27.67-.07.48-.36Z"/><path class="cls-4" d="M276.16,262.05c-.07.11.24-.11.27-.17a.72.72,0,0,0,.08-.67.55.55,0,0,0-.9-.26,1.59,1.59,0,0,0-.33,1.94,2,2,0,0,0,1.94.92.66.66,0,0,0,.65-.8,4.1,4.1,0,0,0-1.55-2.55.93.93,0,0,0-1.28.52.87.87,0,0,0,.08.64l.14.2c-.19-.24,0,0,0,.09a.59.59,0,0,0,.79.22.67.67,0,0,0,.37-.48.9.9,0,0,0,0-.42l0-.07q-.13-.36,0,0l-.21.48-.09.07-.54-.08a3.1,3.1,0,0,1,1,1.65l.48-.78a.75.75,0,0,1-.71-.25c-.16-.24,0-.55.12-.78l-.91.22c.22.19,0-.24.06,0,0-.06.05-.26,0,0-.17.37.32.69.55.33Z"/><path class="cls-4" d="M288.9,266.85c.78-2.25-1.73-5.23-4-5a.68.68,0,0,0-.69.65,5,5,0,0,0,4.85,4.89.74.74,0,0,0,.73-.9,4.82,4.82,0,0,0-4.18-4.11.79.79,0,0,0-.82.77,2,2,0,0,0,1,1.72c.39.25,1-.15.86-.63a3.12,3.12,0,0,1-.29-1l-.82.77a3.4,3.4,0,0,1,2.82,2.86l.73-.9c-2,.16-3.36-1.76-3.58-3.57l-.49.81c1.62-.33,3.6,2,3.25,3.53a.34.34,0,0,0,.65.2Z"/><path class="cls-4" d="M286.44,264.69a8.78,8.78,0,0,0,.75.84,8.92,8.92,0,0,0,.83.62c.45.34.93-.27.73-.7a5.14,5.14,0,0,0-1.61-1.83.68.68,0,0,0-1,.38,1.19,1.19,0,0,0,.23,1.19,2,2,0,0,0,.85.42c.34.12.78-.25.64-.61a1.24,1.24,0,0,0-.42-.6l-.09-.08q-.14-.16,0,.18a.22.22,0,0,1,0-.13l-1,.38a3.94,3.94,0,0,1,1.4,1.18l.33-.76c-.51.1-1-.6-1.29-.92s-.67.12-.43.42Z"/><path class="cls-4" d="M283.34,256.91a1.22,1.22,0,0,0-.14-.75,1.54,1.54,0,0,0-.79-.56.69.69,0,0,0-.88.63,2.19,2.19,0,0,0,1.29,1.64A.78.78,0,0,0,284,257c0,.22,0-.14,0-.21a2.18,2.18,0,0,0-.16-.38,1.81,1.81,0,0,0-.5-.54,1.57,1.57,0,0,0-.54-.26.92.92,0,0,0-1.06.35.73.73,0,0,0,0,.73.8.8,0,0,0,.48.41l.13,0c.21.06-.13-.07.05,0s.07,0,0,0,.16.18,0,0l.07.12c-.13-.25.11.31,0,.06l1-.92c.09,0-.15-.08-.18-.1l-.13-.09,0,0s-.19-.21-.14-.15a2.66,2.66,0,0,0-.25-.33l-.33,1.14,0,0c-.08,0,.08,0,0,0s0,0,0,.06,0-.06,0,0a.45.45,0,0,0,.88-.09Z"/><path class="cls-4" d="M298,265c-.21-1-1.43-1.68-2.23-2.07-1-.49-2.23-.61-2.74.59s1.06,1.94,1.87,2.25a9.22,9.22,0,0,0,2.94.62.84.84,0,0,0,.85-.8c.12-1-.87-1.65-1.63-2a7.22,7.22,0,0,0-3-.81.89.89,0,0,0-.79,1.3,3.43,3.43,0,0,0,1.91,1.62,4,4,0,0,0,2.48.43.86.86,0,0,0,.54-1.24,1,1,0,0,0-1.22-.49.71.71,0,0,0-.34,1.17c.09.09.64.52.2.14l-.23-.59v.15l.87-.82c-.88-.12-2.28-.27-2.69-1.22l-.79,1.3a5.36,5.36,0,0,1,1.73.37,5.28,5.28,0,0,1,.93.42,1.62,1.62,0,0,1,.34.25c.17.16,0-.22,0,0l.85-.8a7,7,0,0,1-1.58-.24,3.66,3.66,0,0,1-1.83-.77c.08.09,0,.2,0,.21a2.1,2.1,0,0,1,.93.21c.43.16,1.44.63,1.59,1.09a.53.53,0,0,0,1-.25Z"/><path class="cls-4" d="M243.29,231a2.38,2.38,0,0,0-.37-2.09,1.2,1.2,0,0,0-2,.21c-.59,1.25.12,3.48,1.62,3.66a.85.85,0,0,0,.85-.61c.26-1.19.25-3.18-1.28-3.41a.87.87,0,0,0-.87.63.88.88,0,0,0,.21.86c.05.06.63.51.18.11-.14-.12,0,.09,0,0a2.82,2.82,0,0,1,.1,1.32l.85-.61c.17,0,.27.16.1,0a3.12,3.12,0,0,0-.16-.31,2.22,2.22,0,0,1-.15-.74,1.57,1.57,0,0,1,0-.17c0,.16.09-.11,0,.07s-.38.32-.5.16a1.4,1.4,0,0,1,.25.79c0,.64,1,.84,1.13.18Z"/><path class="cls-4" d="M244,235.35a1.14,1.14,0,0,0-.06.84.42.42,0,0,0,.39.32h0c-.16,0,.23,0,.13,0l.18,0a.55.55,0,0,0,.56-.53,1.32,1.32,0,0,0-.58-1.34.75.75,0,0,0-1.11.42c-.13.61,0,1.53.76,1.64a.57.57,0,0,0,.6-.49c0-.24,0-.56.08-.72l-1.11.42.27.17-.08-.06q.07.08,0,0l.17.23.21-.74-.16.09-.13.1c.05,0,0,0,0,0l.5.08c-.06-.08,0-.34,0-.44-.05-.34-.51-.28-.61,0Z"/><path class="cls-4" d="M229.28,202a3.29,3.29,0,0,0-2.62,2.16.77.77,0,0,0,.43,1.12c1.72.44,3.41-1.11,3.84-2.69a.82.82,0,0,0-.74-1c-1.68-.26-2.94,1.51-3.35,2.92-.32,1.11,1.22,1.49,1.66.5a1.66,1.66,0,0,0,.17-.47.77.77,0,0,0-1.27-.77,4.28,4.28,0,0,0-.47.54l1.57.7c.23-.72.72-1.93,1.64-1.81l-.74-1a2,2,0,0,1-2.06,1.66l.71,1a2.58,2.58,0,0,1,1.45-1.9.46.46,0,0,0-.21-.87Z"/><path class="cls-4" d="M228.15,208.28a1.62,1.62,0,0,0-2,1.94.77.77,0,0,0,.72.59,2.84,2.84,0,0,0,2.79-2.72.79.79,0,0,0-.57-.79,2.23,2.23,0,0,0-2.13.73,4.86,4.86,0,0,0-.66.95,1.34,1.34,0,0,0-.17,1.13.63.63,0,0,0,.74.45H227a.87.87,0,0,0,.45-.29,5.09,5.09,0,0,0,.47-.74c.22-.36.42-.7.87-.65L228,208c0,.8-.63,1.14-1.34,1.25l.85.37c-.22-.33.15-.56.47-.57s.61-.71.13-.81Z"/><path class="cls-4" d="M231.54,217.86a3,3,0,0,0-.7,3.14.73.73,0,0,0,.87.53c.92-.21,1.41-1.34,1.68-2.15s.34-2.13-.62-2.57c-2.28-1-2.78,2.64-2.18,4.06a.83.83,0,0,0,.93.41.92.92,0,0,0,.75-1.11.64.64,0,0,0-.29-.42l-.17-.08s-.57-.1-.24,0l.57.6c0,.25,0,0,0-.05s0-.29,0-.39a6,6,0,0,1,0-.83,2.72,2.72,0,0,1,.15-.7c.06-.16,0,0-.15,0s-.22-.25-.11-.05c0-.07,0,.15,0,.18a2.51,2.51,0,0,1-.14.77,1.68,1.68,0,0,1-.67,1l1,.28a2,2,0,0,1,0-2.08c.32-.43-.31-.81-.67-.54Z"/><path class="cls-3" d="M254.26,280.56c-.24-1.92-2.7-8.62-5.5-7.58-2,.74-1.55,3.65-1,5.14.82,2.13,2.55,4.22,4.9,4.59a.89.89,0,0,0,.81-.44c1.29-2.63-1-9.28-4.5-9a1,1,0,0,0-1,.95c-.28,3.06,1.08,6.92,4,8.38a1,1,0,0,0,1.48-.57c.72-2.25-1.37-6.28-3.7-6.86a1,1,0,0,0-.56,1.87c1.23.46,2.76,3.13,2.35,4.41l1.48-.57c-2.28-1.15-3.23-4.21-3-6.61l-1,.95c1.87-.15,3.68,4.67,3,6.13l.81-.44c-1.6-.23-2.73-2.06-3.35-3.38-.27-.57-.84-3.8.42-2.71a11.35,11.35,0,0,1,3.29,6.06c.11.76,1.25.47,1.16-.28Z"/><path class="cls-3" d="M257.56,285a6,6,0,0,0-2.79-4.37.8.8,0,0,0-1.09.26c-1.64,2.23,1.58,5.9,3.82,6.11a.91.91,0,0,0,.9-1.11,6.29,6.29,0,0,0-3.8-4.91,1,1,0,0,0-1.25.9c.09,1.57,1.14,2.4,2.33,3.26.74.54,1.38-.53.92-1.15s-1.25-1.32-1.31-2.05l-1.25.9a4.46,4.46,0,0,1,2.61,3.48l.9-1.11c-1.35-.1-3-2.4-2.44-3.67l-1,.53a4.63,4.63,0,0,1,2.52,3c.13.48,1,.44.91-.09Z"/><path class="cls-3" d="M258,268.71a2.24,2.24,0,0,0-.31-2,1.82,1.82,0,0,0-2-.37.91.91,0,0,0-.67.82,4.5,4.5,0,0,0,1,3.73.92.92,0,0,0,1.27,0c1.22-1.05.93-3,0-4.2a.94.94,0,0,0-1.11-.17,1.22,1.22,0,0,0-.64,1.62.75.75,0,0,0,1.25.36,1.65,1.65,0,0,0,.28-.43c.18-.43,0,.11-.22.16L256,268a1.33,1.33,0,0,1,0,1.62l1.27,0a3,3,0,0,1-.54-2.43l-.45.74.25-.06c.08,0-.16-.09.05,0-.09-.05-.05-.09,0,.1a1.45,1.45,0,0,1,0,.43.74.74,0,0,0,1.45.24Z"/><path class="cls-3" d="M263.89,297.07a2.57,2.57,0,0,0-1.63-1.23.67.67,0,0,0-.74.29v0a.71.71,0,0,0-.12.81,3.1,3.1,0,0,0,2.56,1.9.73.73,0,0,0,.73-.53,1.79,1.79,0,0,0-.54-1.71,2.85,2.85,0,0,0-1.66-.79.67.67,0,0,0-.5,1.12,4,4,0,0,0,.92.66c.19.12.34.25.33.48l.76-.71c-.71,0-1.1-.52-1.43-1.07V297a3,3,0,0,0,.15-.32l-.64.46a1.22,1.22,0,0,1,.84.51c.41.6,1.37.1,1-.56Z"/><path class="cls-3" d="M221.29,220.24a8,8,0,0,0-3.12,1.33c-.85.54-2.1,1.41-2.18,2.52-.21,2.68,3.79,1.69,5,.77a5.6,5.6,0,0,0,2.18-2.74,1.69,1.69,0,0,0-1.64-2.11,5.23,5.23,0,0,0-3,1.48,5.8,5.8,0,0,0-2.1,2.55.92.92,0,0,0,.62,1.14c2.17.51,4.23-.82,5.38-2.61a.88.88,0,0,0-.71-1.32,2,2,0,0,0-1.88.67c-.47.51-.06,1.48.69,1.25a2.45,2.45,0,0,1,.92-.23l-.49-1.28c-.73,1-2,2.07-3.38,1.75l.62,1.14c.27-1,1.79-2,2.64-2.53a2.5,2.5,0,0,1,.72-.29c-.07,0-.05,0-.18.27a5,5,0,0,1-1.56,1.61,3.92,3.92,0,0,1-1.47.53c-.89.19-1,0-.4-.66a7.38,7.38,0,0,1,3.56-2.24c.67-.12.4-1.09-.25-1Z"/><path class="cls-3" d="M220.49,230.22a3.37,3.37,0,0,0-2.53-.72c-.9.06-2.11.92-1.48,2,.5.82,1.61.82,2.46.76a6.6,6.6,0,0,0,2.83-.67.85.85,0,0,0,.32-1.12c-.79-1.83-4.27-1.54-5.39-.23a.91.91,0,0,0,.59,1.54,5.76,5.76,0,0,0,3.45-.77.56.56,0,0,0-.25-1,13.4,13.4,0,0,1-2.92.06l.36,1.5c.49-.5,2.35-.92,2.7-.26l.32-1.12a5.27,5.27,0,0,1-2.93.57l-.3,0c.14.13,0,.3.11.24a1.22,1.22,0,0,1,.39-.1,2.4,2.4,0,0,1,1.64.22c.45.35,1-.36.6-.75Z"/><path class="cls-3" d="M208.3,202.43a9.56,9.56,0,0,0-5.94.27.66.66,0,0,0-.48.79c.81,2.77,8.75,3.55,9,.1.21-3.07-7-2-8.66-1.47a.94.94,0,0,0-.59,1.36c1.41,2.47,5.21,1.53,7.36.76a1,1,0,0,0,.27-1.72c-1.58-1.2-3.92-.91-5.69-.37a.81.81,0,0,0,.38,1.58c1.35-.15,3.18-.47,4.33.4l.27-1.72c-1.19.42-4.41,1.57-5.29.16l-.59,1.36a11.67,11.67,0,0,1,6.46-.39s.29.18.21.07,0,.11-.3.28a4.06,4.06,0,0,1-2.18.44c-1.06,0-3.29-.11-3.76-1.3l-.25.89a7.42,7.42,0,0,1,5.15-.41.55.55,0,0,0,.32-1.05Z"/><path class="cls-3" d="M210.7,198.36a23.63,23.63,0,0,0-2.6.16.68.68,0,0,0-.6,1c.83,1.48,3.62,1.63,5,1.2a1.53,1.53,0,0,0,1.2-1.75c-.14-1-1.2-1.28-2-1.45a5.86,5.86,0,0,0-3,0,1.51,1.51,0,0,0-.8,2.35c1.15,1.55,4,.6,5.33-.25a.91.91,0,0,0,0-1.56,4,4,0,0,0-4.07-.09.64.64,0,0,0,.29,1.19,6.36,6.36,0,0,1,2.84.45l0-1.56a5.26,5.26,0,0,1-2.76.79c-.2,0-.21-.13-.16,0,.12.33-.41.41.1.29a5.1,5.1,0,0,1,1.73,0,4.75,4.75,0,0,1,.74.17c.23.07.17.11.14,0s.16-.24-.08-.12a1.84,1.84,0,0,1-.57.12c-.84.09-2.35.07-3-.62l-.16,1a6.39,6.39,0,0,1,2.38-.58c.48-.05.37-.8-.09-.82Z"/><path class="cls-3" d="M222.61,193.82a2.64,2.64,0,0,0-3.06,1.25.63.63,0,0,0,.21.86c1.56.87,4.22.41,4.5-1.62a.77.77,0,0,0-.55-.76,4,4,0,0,0-2.47-.28,1.63,1.63,0,0,0-1.37,1.9.61.61,0,0,0,1,.29c.32-.28.47-.61.9-.72a2.62,2.62,0,0,1,1.5.27l-.55-.76c-.07.92-1.91.75-2.46.53l.42.78a1.53,1.53,0,0,1,1.77-.84.47.47,0,0,0,.15-.92Z"/><path class="cls-16" d="M221.12,137.82c5.1.76,9.19,5.72,11.66,9.86A31,31,0,0,1,237,162.9a11,11,0,0,1-1.58,6.07c-2,3.15-5.82,2.93-8.84,1.83-4.63-1.68-8.08-6.05-10.45-10.16a26.4,26.4,0,0,1-3.69-13.09,11.62,11.62,0,0,1,2.57-7.49c2.21-2.64,5.27-2.07,8.16-1.12,5.61,1.85,9.41,5.8,11.91,11.08,2.65,5.61,2.76,11.27,1.53,17.23-.15.71.92,1,1.09.33a27.4,27.4,0,0,0-1.94-19,22.9,22.9,0,0,0-13.6-11.87c-5.81-1.94-10.21,2.28-11.46,7.75s.7,11.61,3.23,16.5A24.69,24.69,0,0,0,226,172.75a8.88,8.88,0,0,0,12.38-6.09c1.49-5.62-.65-12.2-3-17.26-2.41-5.22-6.89-10.88-12.84-12a11.69,11.69,0,0,0-1.43-.2c-.42,0-.42.58,0,.64Z"/><path class="cls-16" d="M237.25,152.77v.06l.74-.08v-.06l-.2.34h0a.55.55,0,0,0,.27-.61,2.57,2.57,0,0,0-.55-.91c-.35-.39-1.18-.14-1.12.43a5,5,0,0,0,3.24,4,.8.8,0,0,0,1-.54c.28-1.41-.63-2.72-1.51-3.73-.73-.83-2.23-2.1-3.17-.88a.62.62,0,0,0,.21.86,6.06,6.06,0,0,1,1.72,1.22c.39.4,1.33,1.44,1.21,2.07l1-.54a4.73,4.73,0,0,1-2.48-2.76l-.91.87a3.08,3.08,0,0,1,.42.41.54.54,0,0,0,.53.15h0l-.38-.11,0,0c.29.3.84-.08.6-.44l0-.05a.36.36,0,0,0-.67.26Z"/><path class="cls-16" d="M244,163.06c.43-1-.63-2.15-1.25-2.84a7.06,7.06,0,0,0-3.46-2.32.83.83,0,0,0-1,.55c-.57,2.74,2.63,5.81,5.13,6.31a.91.91,0,0,0,1.15-.83c.26-2.7-2.67-5.46-5.17-5.92a.94.94,0,0,0-1.19.86c-.1,2.55,2.6,5,4.82,5.84a.93.93,0,0,0,1.18-.85,3.94,3.94,0,0,0-2.91-3.82c-.72-.12-1.4.68-.79,1.3s2,1.26,1.87,2.46l1.18-.85c-1.42-.53-3.54-2.38-3.49-4l-1.19.86c1.73.3,4.09,2.16,3.92,4.09l1.15-.83c-1.74-.33-4.21-2.41-4-4.34l-.85.79c1.5.1,3.86,2,4.13,3.53.08.47.69.38.84,0Z"/><path class="cls-16" d="M249,168.37a3.19,3.19,0,0,0-.27-.77A1.61,1.61,0,0,0,248,167a.58.58,0,0,0-.74.53,1.69,1.69,0,0,0,.38,1.26,1.88,1.88,0,0,0,1.24.58l-.33-.1.06,0a.71.71,0,0,0,1.06-.57,1.71,1.71,0,0,0-.51-1.18,2.13,2.13,0,0,0-.44-.31,1.87,1.87,0,0,0-.3-.13.7.7,0,0,0-.37,0h-.12c-.68.16-.51.94-.08,1.27l.18.13q.1.08,0,0l.1.09c.14.14,0-.11.06.07s0,.09,0,0a1.18,1.18,0,0,0,.05.16l.51-.84h0c.11,0-.09,0-.1,0a.26.26,0,0,1-.13-.08q-.07-.08,0,0s-.09-.18-.05-.07a2.13,2.13,0,0,1-.1-.42l-.42.69c.14,0,.13-.05.21,0a2.63,2.63,0,0,1,.29.42c.18.29.7.13.58-.23Z"/><path class="cls-16" d="M243.5,168.23a6.77,6.77,0,0,0-1.74-1.37.79.79,0,0,0-1.17.85,5,5,0,0,0,3.69,3.65.83.83,0,0,0,1.06-.76,3.37,3.37,0,0,0-1.2-2.33,7.33,7.33,0,0,0-2.35-1.61A.84.84,0,0,0,241,168a14.34,14.34,0,0,0,1.63,1.16c.4.29,1.08.8,1.11,1.35l1.06-.76a3.53,3.53,0,0,1-2.65-2.43l-1.17.85a5.49,5.49,0,0,1,1.48,1.08c.69.67,1.75-.34,1.08-1Z"/><path class="cls-16" d="M210.68,150.63c-.32-2.12-1.35-4.55-3.38-5.55a.78.78,0,0,0-1.06.26c-1.37,2.61,1.33,5.79,3.25,7.33.38.3,1.1.41,1.35-.15,1.1-2.46-.86-6-3.18-7.07a1,1,0,0,0-1.31.32c-1.15,2.49,1.54,5.92,3.76,6.88.68.3,1.33-.49,1.18-1.12-.39-1.66-1.25-3.65-2.93-4.32a.78.78,0,0,0-.9,1.12,10,10,0,0,1,2,3.63l1.18-1.12c-1.16-.51-3.14-3-2.57-4.31l-1.18.64c1.43.61,3.07,3.12,2.4,4.65l1.27-.49c-1.41-1.12-3.58-3.42-2.92-5.38l-1,.52c1.71.57,2.77,2.72,3.19,4.34a.42.42,0,0,0,.82-.2Z"/><path class="cls-16" d="M204.57,142.61a2.84,2.84,0,0,0-2-2,.8.8,0,0,0-1,.54,2.65,2.65,0,0,0,2,3,.86.86,0,0,0,1-.38,2.08,2.08,0,0,0-.28-2.37,2.41,2.41,0,0,0-2.1-1,.62.62,0,0,0-.46.75,2,2,0,0,0,.84,1.11c.13.11.62.45.52.66l1-.38a1.08,1.08,0,0,1-.9-1.1l-.82.77a1.29,1.29,0,0,1,1.14.88c.27.68,1.34.22,1.17-.46Z"/><path class="cls-16" d="M203.93,147.7a3.79,3.79,0,0,0-.26-.8,1.08,1.08,0,0,0-1-.41c-.3,0-.66.25-.63.6a1.8,1.8,0,0,0,1.91,1.84.71.71,0,0,0,.73-.69c0-1.12-1.18-2.45-2.35-1.94a.72.72,0,0,0-.38.62.77.77,0,0,0,.35.65,1.3,1.3,0,0,0,.49.2h0s.21.14.11.05l.11.11s.15.19.08.09a1.22,1.22,0,0,1,.15.36l.34-.79c.09,0-.05,0,0,0s-.09,0,0,0-.16-.12-.1-.06a.84.84,0,0,1-.22-.55l-.3.68s.23-.06.11-.06l-.08,0h0a4.51,4.51,0,0,1,.19.43c.2.41.9.14.75-.29Z"/><path class="cls-16" d="M212.89,156.67c-.23-2.17-2.14-5-4.43-5.38a.84.84,0,0,0-.84,1c.88,2.48,2.14,4.83,4.59,6a.91.91,0,0,0,1.33-.51c.61-2.77-2.32-6.23-4.93-6.88a1,1,0,0,0-1.23,1.17,8.29,8.29,0,0,0,4,5.2,1,1,0,0,0,1.46-.79,3,3,0,0,0-1.91-3,.73.73,0,0,0-.76,1.25,1.94,1.94,0,0,1,.74,1.74l1.46-.79a6.54,6.54,0,0,1-3.09-4l-1.23,1.17c1.54.34,4.14,2.73,3.77,4.49l1.33-.51c-2.13-1-3.12-3-4-5.11l-.76,1.24c1.69,0,3.31,2.43,3.64,3.91.13.56.9.33.84-.2Z"/><path class="cls-16" d="M246.5,159.2s0-.22-.05-.31a.71.71,0,0,0-.4-.3.48.48,0,0,0-.55.21c-.73,1.1.56,2.28,1.55,2.53a.67.67,0,0,0,.83-.45,1.86,1.86,0,0,0-.52-1.87c-.46-.49-1.3-1-2-.62a.63.63,0,0,0-.24.85c.34.6,1.43.61,1.42,1.43l.68-.64a.83.83,0,0,1-.87-1l-.37.45h0l-.29-.13-.07-.14a.35.35,0,0,0,0,.17.57.57,0,0,0,.15.23c.29.29.85-.08.6-.44Z"/><path class="cls-16" d="M240,152.3a11.72,11.72,0,0,0-6-7.57.87.87,0,0,0-1.2,1.15c1.08,2.68,2.9,5.55,5.55,6.9a.9.9,0,0,0,1.33-1,8.78,8.78,0,0,0-1.89-3.8c-.86-1.16-1.85-2.51-3.37-2.71a.7.7,0,0,0-.52,1.17c1.56,1.56,3.71,3.44,4,5.76l1.33-1c-2.42-1.22-3.94-3.8-5-6.21l-1,1.24c2.58.77,5,3.77,5.88,6.22a.43.43,0,0,0,.84-.2Z"/><path class="cls-16" d="M239.57,171a3.68,3.68,0,0,0-1.57-2.14.73.73,0,0,0-1.24.48c0,1.79,1.47,3.78,3.37,3.58a.8.8,0,0,0,.58-1,5.18,5.18,0,0,0-1.12-2.18,4.26,4.26,0,0,0-2.18-1.53c-.69-.13-1.51.76-.81,1.33.47.38,1,.62,1.48,1a3.36,3.36,0,0,1,1.08,1.75l.58-1c-.93.12-1.47-1.52-1.58-2.18l-.9.86a2.57,2.57,0,0,1,1.51,1.26.43.43,0,0,0,.78-.31Z"/><path class="cls-16" d="M239.42,171.07a2.88,2.88,0,0,0-2.7-1.9.77.77,0,0,0-.78.74c-.06,2.11,2,3.29,3.75,3.85a.85.85,0,0,0,1.08-.78,4.83,4.83,0,0,0-2.9-3.89.94.94,0,0,0-1.28.31,1.39,1.39,0,0,0-.16,1.12.73.73,0,0,0,1.32.21q-.2.1.08,0l-.93,0c.87.46,2.09,1.15,2.19,2.25l1.08-.78c-1.25-.36-2.55-1-2.74-2.39l-.56.92a1.48,1.48,0,0,1,1.71.73c.26.39,1,.18.83-.32Z"/><path class="cls-13" d="M244.21,261.37a2,2,0,0,1,.73-.41c-1.86-9-9.22-15-17.11-18.77-8.16-4-18.65-6.39-27.64-4.27a.4.4,0,0,0,.08.78c16.68-.54,37.66,5.43,43.86,22.74Z"/><path class="cls-8" d="M244,261c-8.08,25.12,16.43,47.38,37.28,55.94a56.78,56.78,0,0,0,16.14,4c2.66.25,11.13.58,11.51-3.57.2-2.15-1.51-3.79-3-5.1a77.19,77.19,0,0,0-8.21-5.94c-5.6-3.77-10.63-7-14.45-12.8-.72-1.08-2.49-.11-1.77,1a36.83,36.83,0,0,0,9.79,10.05c4.62,3.22,9.62,6,13.86,9.71,1.33,1.18,2.64,2.78.37,3.87a11,11,0,0,1-3.71.81,31.13,31.13,0,0,1-7.92-.54,61.41,61.41,0,0,1-14.77-4.7,67.24,67.24,0,0,1-24.93-19.18,44.23,44.23,0,0,1-8.55-15.39,41.57,41.57,0,0,1-.63-18c.1-.6-.85-.71-1-.17Z"/><path class="cls-8" d="M245.35,279.94c-6.75-13.53-16.32-25.5-28.73-34.28-12.6-8.92-28-11.1-43.08-10.94-2.23,0-9.5,1.5-9.36-1.92.12-2.84,3.15-4.34,5.33-5.46A39.18,39.18,0,0,1,183,223.39a102.32,102.32,0,0,0,11.64-1.88c2.95-.69,6.85-1.6,8.7-4.23,1.4-2-.2-4.15-2-5.06-3.44-1.76-7.88-1.94-11.65-2.26s-7.73-.48-11.58-.72a58.45,58.45,0,0,0-9.35.08c-2.73.27-8.81,1-7.17-3.66,1.4-4,7.45-5.69,11.05-6.63,4.18-1.08,8.44-1.22,12.72-1.6,9.35-.83,26-1.24,30-10.1.48-1.07-1.12-1.5-1.73-.52-3.34,5.32-10.68,6.74-18.93,7.61-5.78.61-12.35,1.16-16.79,1.65a36.79,36.79,0,0,0-13.16,3.77c-2.77,1.47-7.26,5.62-5.34,9.28,1.08,2.06,3.46,2.5,5.6,2.57,3.38.12,6.84-.44,10.24-.43,4.57,0,9.24.39,13.8.72a65.93,65.93,0,0,1,7.4.88c1.53.28,4.26.65,5.17,2.11,1.59,2.56-6.7,4.33-8,4.62-7.65,1.77-15.24,1.78-22.63,4.74-3.7,1.48-7.76,3.43-8.82,7.57-1.53,6,5.94,5.11,9.49,5,15.15-.36,30.12,1.65,43,10.09,12.4,8.11,22.62,20.57,30,33.31a.41.41,0,0,0,.71-.4Z"/><path class="cls-17" d="M280.11,120.15c-7.88,4.69-15.5,9.83-23.09,15-1.88,1.27-3.75,2.54-5.59,3.86-.74.53-2,1.18-2.45,2-.87,1.68,1.59,5.89,2.52,7.1a15.55,15.55,0,0,0,7.8,5,.8.8,0,0,0,.89-.34c7.37-10.27,13.84-21.34,20.51-32a.46.46,0,0,0-.78-.48c-6.66,10.66-13.54,21.53-21.06,31.67l.89-.34c-3.25-1.08-6.13-2.77-7.84-5.82a14.41,14.41,0,0,1-1.48-4.27c0,.1-.34.45.36-.14,3.08-2.55,6.52-4.73,9.82-7,6.63-4.52,13.36-8.89,19.89-13.55.4-.28.06-.94-.38-.68Z"/><path class="cls-17" d="M267.26,128.82c-.07,2.7,3.71,4.08,5.85,3.12a.44.44,0,0,0-.09-.79c-.93-.27-1.9-.29-2.82-.6a5.89,5.89,0,0,1-2.37-1.94.33.33,0,0,0-.57.22Z"/><path class="cls-17" d="M261,132.94c-.39,3.57,5.18,7.11,8.21,5.08.32-.21.27-.84-.2-.81a6.92,6.92,0,0,1-4.4-1,8.75,8.75,0,0,1-3-3.46.34.34,0,0,0-.63.15Z"/><path class="cls-17" d="M254.4,137.29c-.32,4.51,5.65,9.31,10,7.93.36-.11.47-.73,0-.82-4.41-.83-7.66-2.85-9.33-7.19a.36.36,0,0,0-.72.07Z"/><path class="cls-18" d="M278.92,244.12c-1.57-2.36-3.53-4.21-3.88-6.74a.44.44,0,0,1,.72-.38,10.72,10.72,0,0,1,3.84,6.76C279.65,244.21,279.16,244.48,278.92,244.12Z"/><path class="cls-18" d="M271.18,232.68a49.71,49.71,0,0,0-12.72-8.44c-.56-.23-.2-.95.4-.84,4.85.83,10.29,3.44,12.94,8.72C272,232.56,271.51,233,271.18,232.68Z"/><path class="cls-19" d="M253.37,224.28c-.42-.28,0-1,.48-.75,5.74,2.68,15.09,10.66,20,18.62,4.45,7.17,7.69,17.24,4.66,25.58-.19.52-.93.21-.88-.28C279.37,250.24,267,233.53,253.37,224.28Z"/><path class="cls-20" d="M249.78,224.65c12.11,6.11,22.73,19.37,24.48,33.58.07.53-.77.73-.92.21a54.43,54.43,0,0,0-9.15-17.93c-1-1.31-2-2.55-3.13-3.74,8.9,12.75,12.64,29.85,8,44.45-.13.4-.87.28-.83-.14a102.84,102.84,0,0,0,.69-11.41A50.78,50.78,0,0,0,266,253.25a69.18,69.18,0,0,0-9.14-19.15,106,106,0,0,0-7.59-8.57C248.8,225.15,249.23,224.38,249.78,224.65Z"/><path class="cls-19" d="M251.92,234.48c-.32-.46.33-1.1.74-.68,5,5,8.64,12.61,10.66,19.35,2.1,7,2.32,16.46.07,23.46a.48.48,0,0,1-.9-.16c.08-7.57.48-13.91-1.44-21.35A67.25,67.25,0,0,0,251.92,234.48Z"/><path class="cls-18" d="M249.62,236.51c2,2,3.23,4.56,4.52,7a44,44,0,0,1,3.86,9.7c1.43,5.74,1.78,12.87-.3,18.49a.42.42,0,0,1-.8-.14c-.21-5.72-.26-11.27-1.39-17a57.4,57.4,0,0,0-6.72-17.41C248.5,236.75,249.15,236,249.62,236.51Z"/><path class="cls-21" d="M230.16,212.11c1.22,1.83,3.78,5.06,5,6.86-1.46,2.38-4.49,4.47-4.67,6.91-.06.75.31,1.44.95,1.35a61.12,61.12,0,0,0,7.31-2.43c1.75,2.63,3.63,5,5.43,7.28.48.61,1.44,0,1.4-.73-.16-3-.45-6.51-.58-9.51,2.92-1,6.72-1.84,8.18-2.6.51-.26.15-1.07-.37-1-1.24-.74-4.52-2-7.63-3.31a35.41,35.41,0,0,0-.61-8.06.75.75,0,0,0-1.3-.23,43.52,43.52,0,0,0-4.63,6.42,43,43,0,0,0-7.75-2.18A.8.8,0,0,0,230.16,212.11Z"/><path class="cls-21" d="M228.69,232.58c0-.78.83-1.14,1.54-1.07a2.23,2.23,0,0,1,1.55,1.19,2.17,2.17,0,0,1,.35.95c.17,1.91-2,1.7-2.91.65a2.25,2.25,0,0,1-.43-.78,2.89,2.89,0,0,1-.1-.47,1.63,1.63,0,0,1,0-.18A2.7,2.7,0,0,1,228.69,232.58Z"/><path class="cls-21" d="M240.18,200.93a.75.75,0,0,1-.48-.47,1.71,1.71,0,0,1,0-.88c.31-2.16,2.91-1.35,2.1.53A1.52,1.52,0,0,1,240.18,200.93Z"/><path class="cls-21" d="M236.93,200.95a1.26,1.26,0,0,1-1.42-1,1.2,1.2,0,0,1,0-.36.85.85,0,0,1,.16-.42,1.14,1.14,0,0,1,2.08.63A1,1,0,0,1,236.93,200.95Z"/></g></g></svg>