<svg xmlns="http://www.w3.org/2000/svg" viewBox="0 0 999.37 508"><defs><style>.cls-1,.cls-2{fill:none;}.cls-1{stroke:#1ff900;stroke-miterlimit:10;stroke-width:2px;}.cls-3{fill:#43b6b1;}.cls-4{fill:#0f878d;}.cls-5{fill:#4fc4d2;}.cls-6{fill:#02a9c3;}.cls-7{fill:#f8e0c7;}.cls-8{fill:#0f90b0;}.cls-9{fill:#fff;}.cls-10{fill:#f1cb36;}.cls-11{fill:#3c8f94;}.cls-12{fill:#eaece5;}.cls-13{fill:#bfbcb1;}.cls-14{fill:#2f1e4c;}.cls-15{fill:#e69fa5;}.cls-16{fill:#b8e3f0;}.cls-17{fill:#d7842d;}.cls-18{fill:#f38898;}</style></defs><title>Radar_Unicornio_3a</title><g id="Capa_2" data-name="Capa 2"><g id="Arte"><line class="cls-1" x1="500.37" y1="499.79" x2="1.37" y2="499.79"/><line class="cls-1" x1="500.36" y1="499.78" x2="147.52" y2="147.01"/><line class="cls-1" x1="500.37" y1="499.79" x2="500.37" y2="0.89"/><line class="cls-1" x1="500.37" y1="499.78" x2="853.22" y2="147.01"/><line class="cls-1" x1="500.37" y1="499.79" x2="999.37" y2="499.79"/><path class="cls-1" d="M153.91,496.78c0-187.91,155.12-340.25,346.46-340.25S846.83,308.87,846.83,496.78"/><path class="cls-1" d="M233,499.46c0-145,119.7-262.55,267.35-262.55S767.72,354.45,767.72,499.46"/><path class="cls-1" d="M317,500.89c0-99.44,82.09-180.06,183.34-180.06s183.34,80.61,183.34,180.06"/><rect class="cls-2" width="998" height="508"/><path class="cls-3" d="M297.23,461.72a.69.69,0,0,1,1.2-.68l.38.56a18,18,0,0,0,9.27,4.76c-4-4.44-5.92-10.54-7.4-16.18a69.72,69.72,0,0,0-4.4-13.09c-1.86-3.83-4.28-7.28-6.41-11a.66.66,0,0,1,1-.78c.49.52.95,1.06,1.4,1.6,2.68,2,4.9,4.52,7.28,6.83.29-3.31-1.62-6.9-3.21-9.58a40.36,40.36,0,0,0-6.27-8.23c-6.55-6.45-14.67-10.6-24-10-.74,0-.83-1.1-.14-1.27a18.37,18.37,0,0,1,6.5-.37,37,37,0,0,0,6.05-1.15c-10.6-7.72-24.27-11.9-36.52-5.56a60.68,60.68,0,0,1-2.93,7.82,74,74,0,0,1-7.84,13.38c-.47,5.74,2.06,12.8,5.36,17.58a53.49,53.49,0,0,1,1.41-7.27.85.85,0,0,1,1.63,0c1.34,4.45,2.37,8.75,4.42,13a48.49,48.49,0,0,0,8.06,12c3,3.25,6.3,6.12,9.54,9.12a51.83,51.83,0,0,0,7.08,6,33.62,33.62,0,0,0-8-12.94c-.47-.49.25-1.17.75-.73l.4.36a39.31,39.31,0,0,1,12.75,11.94c3.33,5.17,4.42,11.07,6,16.91a15.16,15.16,0,0,0,1.08-9.18c-.08-.57.72-1,1-.4.09.19.17.38.24.57a13.33,13.33,0,0,1,2.76,8.86l12.55-3.16C300.94,475.14,300.48,468.5,297.23,461.72Z"/><path class="cls-4" d="M300.25,479.64c1.55-5.32.79-10.64-.61-15.91a16.14,16.14,0,0,0,9.84,2.68,11.14,11.14,0,0,1-4.24-5c-2.5-5.17-3-10.74-4.67-16.2a74.89,74.89,0,0,0-6.89-16,26.54,26.54,0,0,1,6.17,5.57c.65-15.27-15.54-27.36-29.39-29.31a47.19,47.19,0,0,1,9.65-1.67c-5.22-3.84-10.79-7.43-17.08-9-6.94-1.77-14.39-1-21.16,1.41a1.64,1.64,0,0,0-.65.35,1.73,1.73,0,0,0-.34,1.14,14.62,14.62,0,0,1-2,7.31c-.88,1.37-1.45,2.94-2.2,4.4a10,10,0,0,1-1.62,2.36,32.06,32.06,0,0,0,12.34-1.17,55.81,55.81,0,0,1,6-1.83,13.12,13.12,0,0,1,2.86-.3c.32,0,2.51.49,2.6.4-2.51,2.32-5.6,4.53-7.26,7.59a.83.83,0,0,0-.13.41c0,.37.49.55.86.49,2.94-.51,5.71-2.15,8.64-2.86,2.57-.62,5.77-1,8,.72-2.4,1.21-5.89,2.11-7.3,4.59-.1.18-.19.41-.07.58a.56.56,0,0,0,.46.16,37,37,0,0,1,5,.07,19.44,19.44,0,0,1,4.58,1.32,26.94,26.94,0,0,1,4.22,2.28c.68.45,1.35.92,2,1.41.5.37,1.27,1.28,1.85,1.44-1.15-.33-2.29-.69-3.46-.9s-5.39-.32-6.63.19c-.49.2,4.3,1.67,4.94,1.93A33.76,33.76,0,0,1,279.7,431a37.58,37.58,0,0,1,8.63,7.47c5,5.88,5.52,13.7,8.91,20.35-3.58-2-6.86-4.54-10.49-6.47a.72.72,0,0,0-1,1c1.59,3.7,4.14,6.83,6.08,10.34,2.56,4.65,2.38,10,1.25,15a35.68,35.68,0,0,1-1.32,4.49l8-2A14.73,14.73,0,0,0,300.25,479.64Z"/><path class="cls-5" d="M91.42,369.25a83,83,0,0,0-10.92,16.24.76.76,0,0,1-.15.3c-.65,1.35-1.25,2.73-1.77,4.14a72.22,72.22,0,0,0-3.86,18.48c-.22,2.28-.48,4.7-.58,7.13l.48-.26a.87.87,0,0,1,1,.14c2.72,2.57,4.89,5.76,5.37,9.52.14,1.09.36,5.23-.65,6.77,7,15,16.36,29.9,28.81,41.09,5.19-2.66,10.43-5,15.26-8.34,5.41-3.76,9.68-8.16,14.12-12.89,6.37-8.53,2.69-21.36-2.92-29.29-7-9.95-18.07-15.72-30.08-17.17-.72-.09-.72-1.2,0-1.14a46,46,0,0,1,16.67,4.29,73.82,73.82,0,0,1,36.45-3.12,96.17,96.17,0,0,1,23,6.65c6.6,2.87,13.52,6.2,19.11,10.79.57.47.06,1.23-.54,1.27-3.52,2.25-5.26,6.68-5.42,10.73-.14,3.82,1.2,7.08,3.09,10.35a50.82,50.82,0,0,0,3.24,5c3.34.74,5.78-.77,8.36-2.79-1-3-1.66-5.92.2-8.58,4.42-6.32,11.07-10.39,16.06-16.19,9.59-11.14,17.79-26.74,16.48-41.86-1.14-13.15-8.74-28.09-19.69-35.8A76,76,0,0,0,189.25,332c-28-3.82-56.87,3.68-79.83,20.07A95.83,95.83,0,0,0,91.42,369.25Z"/><path class="cls-6" d="M108.47,473.17c3.62-1.16,6.22-3.32,9.43-5.4a76.8,76.8,0,0,0,12.52-9.44,25.08,25.08,0,0,0,7.09-11.71,24.33,24.33,0,0,0-.5-12,61.53,61.53,0,0,0-4.61-11.19,32.92,32.92,0,0,0-2.65-4.62c-2.71-3.75-6.75-6.21-10.86-8.2-1.86-.9-4.84-3.46-6.71-4.25-2.13-.91-7.3-1.65-6.63-1.27a34.63,34.63,0,0,1,11.57,10.7c2.55,4,6.78,10.4,4.08,15.08-.54.94.47,1.74,1.35,1.38,2.62-1.07,3.63-.19,3.08,2.45a12.3,12.3,0,0,1-2.58,5.28c-.51.61-.08,1.84.84,1.51,1.55-.55,5.47-3.49,5.52-.25s-4.33,6.12-6.75,7.42a.91.91,0,0,0,.42,1.69,14,14,0,0,1,2.83.06c1.93.31.74,3.07.41,4.09-1,3.06-3.28,5.78-5.34,8.17-3.71,4.29-8.79,6.51-13.79,8.91C106.76,471.8,108,473.31,108.47,473.17Z"/><path class="cls-6" d="M174.72,351.16a28.69,28.69,0,0,0-3.19,9.05c-.73,3.3-2.06,7.91-.21,11a20.62,20.62,0,0,1,2.11,4.18c.2.6,2.1,3.79,2.52,1.38.81-4.59,1.62-12,7.46-12.58,6.39-.69,11.68,6.46,12,12.18,0,.51.42,1.13,1,1.07a11.37,11.37,0,0,1,3.76.09c2.72.59.95,3.31,0,4.51a1,1,0,0,0,.42,1.67c1.42.38,4,2.41,5.08,3.21,1.49-8.32,7.29-19.92,14.69-15.7,4.41,2.52,2.49,10.48,1.42,14.26a46.45,46.45,0,0,1-3.66,9.45,27.22,27.22,0,0,1-3.21,4.89c-2.31,2.68-4,3.43-2.6,7.31a12.65,12.65,0,0,1,.41,7.79,8.32,8.32,0,0,1-5.21,5.59c-.72.23-1.69.72-1.38,1.41.14.32.52.45.82.63,1.52.91,1,2.39,0,3.42-2.46,2.75-6.22,4.15-8.15,7.42-1.83,3.12-.76,7.15.63,10.2a31.21,31.21,0,0,0,3.05,5.19c.36.5,1,1.78,1.62,2a1.77,1.77,0,0,0,1-.08,18.78,18.78,0,0,0,2.32-1.07,22,22,0,0,1,6.83-23.73c2.26-1.81,4.87-3.15,7.22-4.85,6.87-5,11.25-12.82,13.37-21a21.71,21.71,0,0,0,.81-8.13,27.42,27.42,0,0,0-2.3-7.15,118.43,118.43,0,0,0-7.58-15.63,74.47,74.47,0,0,0-9.65-12.34c-5.55-5.84-12.12-11.17-20-13S179,344.29,174.72,351.16Z"/><path class="cls-7" d="M195,413.45a15.29,15.29,0,0,0,7-6.23c5.22-8.57-2.75-18.8-9.55-23.41a44.41,44.41,0,0,0-28.21-7.44c-10.94.87-39.22,11.77-22.16,25.44,3.07,2.46,7.86,3.18,11.7,3.45a64,64,0,0,1,11.75,2.11c5.42,1.41,11.34,2.91,16.35,5.43A15.42,15.42,0,0,0,195,413.45Z"/><path class="cls-6" d="M158.39,371.46a7.14,7.14,0,0,0,1.8,5.15,21.06,21.06,0,0,1,8.35-1.41c-1.51-3.12-2.8-8.1-4.64-8.55-2.26-.55-3.76-4.23-4.51-6C159.06,359.95,158.43,370.75,158.39,371.46Z"/><path class="cls-6" d="M77.91,411.94c-.83,2.78-1.8,6.86.36,9.29.52.58,1.35-.25.86-.84-1.83-2.2,0-6.94.74-9.28.86-2.57,2.09-5.87,4.25-7.67h-1.2a9.07,9.07,0,0,1,1.54,3c.28.72,1.5,1,1.7,0,1.22-6,1.5-12.27,4.14-17.88.82-1.75,3.19-6.77,5.49-4.38,1.41,1.46,1.83,3.76,2.94,5.43.45.68,1.86.56,1.75-.44a21.59,21.59,0,0,1,.59-8.48c.9-2.9,2.47.31,2.94,1.41.28.63.84,2.86,2,1.4a1.73,1.73,0,0,0,.29-.74c.34-1.73-.11-3.64.74-5.18,1.27-2.29,2.3,1.68,2.49,2.49.15.61.31,1.47,1.06,1.55a1,1,0,0,0,1.08-.94c.33-6,2.2-12.34,6.77-16.54,4.07-3.74,6.06,2.33,6,4.47,0,1.27,1.08,2.16,2.42-.33,2.4-4.5,7-6.69,9.63-5.72,4.68,1.71,5.28,7.7,6.89,11.7.25.61,1.29.19,1.08-.43-1.09-3.3-2.32-6.29-2.72-9.82a91.72,91.72,0,0,1-.28-11.6,2.64,2.64,0,0,0-3-3.1c-5.57-.81-11.37-1.23-16.74.49a40.91,40.91,0,0,0-6.08,2.68,67.88,67.88,0,0,0-12.8,7.95c-7.8,6.52-12.63,15.83-17,25a57.81,57.81,0,0,0-4.14,10.27c-.57,2.15-.39,4.39-.88,6.5C80,405.54,78.9,408.63,77.91,411.94Z"/><path class="cls-8" d="M89.22,381.61c2.3-3.07,8.77-9.65,13-7.44a.83.83,0,0,0,1.19-.47c1.9-4.39,4-8.9,8-11.77,3.28-2.36,8.95-5,12.43-1.87.88.8,3.28-1.87,3.79-2.2,1.12-.74,2.29-1.4,3.47-2a10,10,0,0,1,9.65-.15c1.67.85.61-3.76,0-4.43a6.9,6.9,0,0,0-3-1.66c-8-2.67-17.08-1.15-24.45,3a25.24,25.24,0,0,0-5.71,4.24,37.93,37.93,0,0,0-3.85,4.91l-4.09,5.85a34.21,34.21,0,0,0-2.66,4.24,6.73,6.73,0,0,1-1.78,2.69,23.63,23.63,0,0,0-2.41,1.39,20.09,20.09,0,0,0-4.33,5.28A.4.4,0,0,0,89.22,381.61Z"/><path class="cls-9" d="M147.59,404.45c-5.5-3.06-11.22-8.31-7.69-15.12,2.28-4.41,8.54-6.8,13.12-7.64,1.32-.24.81-2.26-.5-2-5.82,1.08-12.65,4.28-15,10.07-3,7.45,3.69,12.87,9.74,15.44.43.18.72-.52.32-.74Z"/><path class="cls-9" d="M186.77,415.54c7.68.56,14.87-2,17-10,1.77-6.61-1.75-14.11-6-19C193,381.09,185.94,377.78,179,376a42,42,0,0,0-10.63-1.2c-3.37,0-7.45.18-10.27,2.22a.69.69,0,0,0,.67,1.19c5.47-2.43,13.12-1.41,18.76-.14A37.93,37.93,0,0,1,193.74,386a22.8,22.8,0,0,1,8.1,15.93,11.63,11.63,0,0,1-3.84,9.13c-2.89,2.69-7.49,3.09-11.2,3.42a.51.51,0,0,0,0,1Z"/><path class="cls-8" d="M81.62,437.6A54.16,54.16,0,0,1,79.21,431a4,4,0,0,0-2,.69,5.19,5.19,0,0,0-1.29,1.75c-1.22,2.25-2.47,4.72-2,7.23a20.9,20.9,0,0,1,4.39-1.51A15.85,15.85,0,0,0,81.62,437.6Z"/><path class="cls-3" d="M106,352.16l.42-.31c-5.37-2.63-9.52-7.54-14.46-10.81-2.54-1.68-9.56-4.55-12.59-2.16,3.8.81,6.74,4.79,8.81,7.72,2.64,3.74,4.24,8.54,7.06,12.22l1.7,1.36A79.83,79.83,0,0,1,106,352.16Z"/><path class="cls-3" d="M85.88,373.19c-6-1.24-10.53-6.38-14.39-10.79-3.46-3.95-7.33-9.24-12.91-8.76,4,3.89,4.29,10.65,6.21,15.62,2.45,6.34,7.92,12.45,14.31,15A75,75,0,0,1,85.88,373.19Z"/><path class="cls-3" d="M88.33,370c2.34-2.91,4.77-5.76,7.33-8.47C88.94,358,84.72,351,78.31,347c-5.15-3.21-10.73-3.28-16.18-1.43a27.75,27.75,0,0,1,13.78,10.23c3.68,4.9,6.17,12,11.27,15.69C87.57,371,87.94,370.46,88.33,370Z"/><path class="cls-3" d="M73.89,401.08l-.14,0c-7.35-3.33-16.3-3.27-22.8-8.22.36,4.56,4.72,10.18,8.46,11.93,2.37,1.11,5,1.27,7.23,2.8,1.14.8,1.54,2.31,2.74,3a12.15,12.15,0,0,0,3.54,1.3c0-.91.1-1.8.16-2.67C73.25,406.47,73.5,403.76,73.89,401.08Z"/><path class="cls-3" d="M108.06,350.64q3.24-2.32,6.64-4.42c-3.66-2.65-4.8-7.49-6.62-11.41-1.61-3.46-6.32-9.08-10.76-7.52,6.68,5.74,4.6,16.62,10.62,23A.39.39,0,0,1,108.06,350.64Z"/><path class="cls-3" d="M74.13,399.45a50.64,50.64,0,0,1,2.35-9.17c.49-1.34,1-2.65,1.63-3.94-4.75.46-9.16-1.39-13.61-3-2.42-.88-5.07-1.87-7.7-1.62a9.69,9.69,0,0,0-5.91,2.94c8.56-.15,13.36,8.41,20,13.13A19,19,0,0,1,74.13,399.45Z"/><path class="cls-3" d="M132.88,337.1c-.51-4.59.25-14.31-4.36-16.05a10.28,10.28,0,0,1-.58,8.2c-1,2.14-2.28,4.22-3.05,6.44a12,12,0,0,0-.49,5.18Q128.57,338.82,132.88,337.1Z"/><path class="cls-3" d="M114.19,332.94c-.2,4.07-1.06,9.14,1.95,12.42q3.19-1.9,6.5-3.6c-2-2.05-2.66-5.73-3.38-8.33-1.09-3.94-2.5-8.13-6.5-9.32C114.16,326.8,114.34,329.8,114.19,332.94Z"/><path class="cls-10" d="M66.56,421.57q-3.42,1.92-6.81,3.92c3.17.53,5.78,4.58,5,7.71l.46-.07c2.29-.34,4.61-.64,6.92-1C72.19,427.65,70.21,424.28,66.56,421.57Z"/><path class="cls-10" d="M58.57,426.37a.46.46,0,0,1-.15-.1q-2.86,1.69-5.7,3.41c2.07.52,4,2.59,3.72,4.71l7.1-1C63.17,430.22,61.69,427.64,58.57,426.37Z"/><path class="cls-10" d="M54,432.33c-.75-.74-1.66-1.27-2.46-2q-5.06,3.08-10.06,6.21c4.56-.74,9.14-1.38,13.71-2A5,5,0,0,0,54,432.33Z"/><path class="cls-10" d="M74.88,417.06q-3.57,1.87-7.1,3.84c4,1.36,6.83,7,5.61,11,1.62-.27,3.23-.58,4.82-1a3,3,0,0,0,.61-.21,14.82,14.82,0,0,0,.55-3.88C79.35,422.92,77.56,419.81,74.88,417.06Z"/><path class="cls-11" d="M71.82,371.71a20.32,20.32,0,0,0,6.85,5.65c1,.51,3,1.44,4.23,1,1.4-.52,1.18-2.18,1.84-3.36.21-.37,1.72-2.48,2-2.44-4.6-.69-8.45-3.82-11.53-7.28s-5.67-7.39-9.11-10.49a9.14,9.14,0,0,0-4.18-2c-1.65-.43-3.71-.7-4.9.51.38-.39,2.29,3.23,2.34,3.55a8.2,8.2,0,0,1,6,3.48,32,32,0,0,1,3.34,6.28A25.37,25.37,0,0,0,71.82,371.71Z"/><path class="cls-11" d="M69.25,350.14c.81.32,1.91.33,2.71.56,4,1.13,7.38,3.68,10.34,6.57,2.49,2.44,4.68,5.22,7.46,7.35,1.79,1.38,2.39,2,4,.26a35.38,35.38,0,0,1,4.33-4,26.32,26.32,0,0,1-5.83-3,30.42,30.42,0,0,1-3.58-3.34c-4.75-4.91-10.15-9.94-16.93-10.85a16.32,16.32,0,0,0-11,2.47c1.11-.73,5.14,1.38,6.13,1.93s1.32,1.48,1.93,1.89A2.23,2.23,0,0,0,69.25,350.14Z"/><path class="cls-11" d="M94,347.84a85.21,85.21,0,0,0,7.32,8.7c1.64,1.7,5.87-3.64,7.18-4.76-.78.67-11.65-8.28-12.88-9.15a44,44,0,0,0-6.92-4.22c-2.15-1-8.08-1.74-9.61.62.39.19,3.51,2.42,3.53,2.42a9.27,9.27,0,0,1,8,2.17,20.3,20.3,0,0,1,2.71,3.34Z"/><path class="cls-11" d="M111.91,348.79a20,20,0,0,1,4.59-2.68c-2.77-1.94-4.46-5-5.95-8.08s-3-6.49-5.53-9a10.37,10.37,0,0,0-4.12-2.6,6.22,6.22,0,0,0-2.67-.21c-.22,0-2,.68-2,.68.61.51.74,1.52,1.47,1.84a2.48,2.48,0,0,0,.8.14,6.08,6.08,0,0,1,4.56,2.77,12,12,0,0,1,1.06,2.41c1.07,3,1.95,6.1,3,9.12.2.58,3.17,7,4.17,6.16Z"/><path class="cls-11" d="M116.06,329.64a13.46,13.46,0,0,1,.14,2.12c-.11,4.18-.18,8.91,1.87,12.74.54,1,5.09-1.93,6.07-2.27a27.49,27.49,0,0,1-3.46-7c-1.39-4.26-2-7.74-5.9-10.38a14,14,0,0,1,1.24,4.52Z"/><path class="cls-11" d="M128.55,340.21c.51-.27,1.08-.66,1.34-.77,1.33-.56,2.7-1,4.05-1.54-.21-2.52,0-5.06-.08-7.59a12.31,12.31,0,0,0-2.23-7.13c-.85-1.07-2.61-3.17-4.12-3.12l.09,1.12c1.21,0,1.85,1.41,2.18,2.57a11.21,11.21,0,0,1,.41,6c-.4,1.43-4.91,9.64-2.54,10.7C127.83,340.55,128.18,340.41,128.55,340.21Z"/><path class="cls-11" d="M75.94,393l.94,0L79.3,386c-3.5.64-7.07-.44-10.38-1.73s-6.61-2.81-10.15-3.11-7.49.92-9.31,4c.41-.69,2.08.12,2.67.13a10.9,10.9,0,0,0,3.11-.69c3-.79,6.14.48,8.69,2.22s4.76,4,7.47,5.42A9.41,9.41,0,0,0,75.94,393Z"/><path class="cls-11" d="M52.43,396.41a19.73,19.73,0,0,0,7.76,4.18c1.61.39,3.27.52,4.87.94a14.06,14.06,0,0,1,5.59,3c1.36,1.18,2.23,3.09,3.74,4,0-1,.63-7.71,0-8.15-4-2.61-9-2.82-13.58-4a42.61,42.61,0,0,1-5.83-2.06c-1.59-.68-3.4-1.91-5.06-2.21A6.92,6.92,0,0,0,52.43,396.41Z"/><path class="cls-9" d="M42.52,436.09a.39.39,0,0,0,.19.75c2.94-.36,5.87-.92,8.79-1.52a88.43,88.43,0,0,0,10.42-1.22c2.79-.41,5.6-.5,8.4-.78,2.49-.25,10.3-.57,9.53-4.7-.11-.59.39-1.15-.14-1-5.85,1.13-12.83,2.56-18.67,3.79C54.85,432.65,48.43,433.82,42.52,436.09Z"/><path class="cls-11" d="M262.9,465.66l.08.14c1,1.85,3.75,3.36,5.54,4.36a2.64,2.64,0,0,0,1.76.47,50.29,50.29,0,0,0-4.81-10.07,20.08,20.08,0,0,1,7.27,6.41,5,5,0,0,0,1.31,1.5,30.08,30.08,0,0,0-7.39-14.24,38.76,38.76,0,0,0-6.08-5.44,39.7,39.7,0,0,0-3.39-2.2,34.26,34.26,0,0,1-3.54-1.81.68.68,0,0,0-.93.9c1.93,4.8,4.64,9.21,7.14,13.73C261,461.44,261.81,463.65,262.9,465.66Z"/><path class="cls-11" d="M235.52,436.2c.5.87,1.12,1.68,1.68,2.53.39-.06.5-.57.53-1a26.51,26.51,0,0,1,1.29-6.56c2.57,4.4,3.42,9.65,6.06,14a7.84,7.84,0,0,1,1.34,2.87c-.91-2.85-3.16-14.62-4.24-17.48-1.27-3.36-2.48-7.12-4.39-10.19a.69.69,0,0,0-1.13,0c-1.5,1.71-2.36,5.21-2.42,9.08a19.31,19.31,0,0,0,.52,4.88A7.1,7.1,0,0,0,235.52,436.2Z"/><path class="cls-12" d="M217.35,410.4c1.17.74,3.67,1.75,4.53-.06.6-1.26.17-2.88-.18-4.14-.41-1.54-1-3.07-1.43-4.63-2,2.13-5.57,2.88-8.47,2.41C213.26,406.44,215,408.93,217.35,410.4Z"/><path class="cls-13" d="M218.79,411.92a5.8,5.8,0,0,0,3.24-.64,3.24,3.24,0,0,0,.8-1.65c.56-2.61-.49-5.28-1.69-7.66a1.07,1.07,0,0,0-.35-.46c-.75-.47-4,2.5-4.32,1.9,1.13,2,3.21,5.54,1.79,7.8C218,411.64,218.28,411.85,218.79,411.92Z"/><path class="cls-12" d="M202.13,451.13c.45.54.91,1.06,1.4,1.56,1.16,1.17,8.46,7.1,8.17,1.93a22.05,22.05,0,0,0-1.64-6A9.15,9.15,0,0,1,202.13,451.13Z"/><path class="cls-13" d="M207.68,456.61a12.42,12.42,0,0,0,2,.66,1.91,1.91,0,0,0,1.55,0,1.63,1.63,0,0,0,.56-.84,7.57,7.57,0,0,0,.14-4.27,18.93,18.93,0,0,0-1.57-4,.84.84,0,0,0-.94.05c-.28.18-.5.44-.78.63-.63.43-1.18.84-1.8.4a.53.53,0,0,0-.78.58,18.13,18.13,0,0,0,1.23,2.57,10.62,10.62,0,0,1,.78,3.59l.32-.53c-.32.18-.65.33-1,.48C206.95,456.11,207.2,456.38,207.68,456.61Z"/><path class="cls-12" d="M154.59,431.19a16.94,16.94,0,0,0,2.27,1.89c1.76,1.21,6.07,2.91,5.38-.88A27.84,27.84,0,0,0,161,428C159.53,429.71,156.88,430.73,154.59,431.19Z"/><path class="cls-13" d="M161.17,435.06a3.13,3.13,0,0,0,.74-.32,2.31,2.31,0,0,0,.94-1.45,5.64,5.64,0,0,0-.18-2.33,5.9,5.9,0,0,0-1.83-3.62c-.56.2-3.24,1.06-2.74,2a18.06,18.06,0,0,0,1.78,2,3.33,3.33,0,0,1,.6,3.32C160.31,435.19,160.74,435.18,161.17,435.06Z"/><path class="cls-12" d="M125.94,465.29c-4.82,3.22-10.34,6.6-16.06,8.13l.86.76c6.19,5.31,17.23,13.44,25.87,9a15.82,15.82,0,0,0,7.94-10.82c1.08-5.52-3.25-7.91-6.58-11.37a.64.64,0,0,1,.13-1,.58.58,0,0,1,.4-.38c1.25-.32,2.54-.43,3.8-.72.72-.17,2.77-.42,1.67-1.43-1.63-1.5-4-1.65-5.8-2.82C134.88,458.87,130.23,462.42,125.94,465.29Z"/><path class="cls-13" d="M131.36,485.09c5.47-.79,13.89-6.23,14.57-11.38.43-3.29-1-6.23-3.17-8.61l-4-4.5c1.61-1,3.63-.88,5.44-1.37a1.64,1.64,0,0,0,1.11-.72c.36-.74-.38-1.52-1.07-2A28.47,28.47,0,0,0,138,453.4s-4.11,4.77-4.73,5.16-1.52.38-1.75,1.12c-.31,1,1.33,1.78,2,2.33,3.36,2.79,6,6.16,6.17,10.7.18,4.83-3.7,10.63-8.47,11.76C130.79,484.57,131,485.15,131.36,485.09Z"/><path class="cls-6" d="M147.22,406.1c.24,4.37-.31,8.91.62,13.2a25.71,25.71,0,0,0,6,11.1c2.54-1,4.8-1.78,6.69-3.86-.17-.48-.34-1-.5-1.46-1.86-5.79,1.3-11.71,4-16.91-2.18-.48-4.38-.9-6.59-1.2A91.33,91.33,0,0,0,147.22,406.1Z"/><path class="cls-12" d="M155.8,385.6c2.41,1.22,7,1.88,6.26-2.2a30.55,30.55,0,0,0-2.65-7.05,11,11,0,0,1-8.85,4.87A17.6,17.6,0,0,0,155.8,385.6Z"/><path class="cls-13" d="M158.18,386.74a9.56,9.56,0,0,0,2,.3,2.23,2.23,0,0,0,1.6-.79,2.64,2.64,0,0,0,.44-1.18c.44-2.71-.83-5.36-2.06-7.81a1.45,1.45,0,0,0-.71-.81c-.52-.18-1,.26-1.34.72-.15.23-.36.78-.62.89s-.49-.17-.79-.11-1.38.14-.76.92c1.11,1.38,4.51,5.66,1.89,7.17C157.3,386.34,157.62,386.58,158.18,386.74Z"/><path class="cls-8" d="M154,430.9a19.63,19.63,0,0,0,3.3-.67,10.44,10.44,0,0,0,4.46-3c-.36-3.25-1.57-5.68-.87-9,.78-3.75,2.66-7.55,4.09-11.09l-2.25-.37c-2-.33-4-.74-6-.87-1.13-.07-3.11-.81-4.09-.57-1.89.46-2,4.45-2,5.93a24.89,24.89,0,0,0,1.25,7.4c1.17,3.9,4.42,8.22,1.64,12.1C153.45,430.87,153.65,430.92,154,430.9Z"/><path class="cls-9" d="M101.36,419.57c-5.67,1.92-7.5,9.39-7.84,14.61a49.75,49.75,0,0,0,1.27,15.06c.78,3,2.54,7,5.39,8.92a6.85,6.85,0,0,0,8.06-.47c4.28-3.34,5.25-9.2,5.68-14.28.49-5.74.51-10.92-1-16.52C111.57,421.65,106.68,417.77,101.36,419.57Z"/><path class="cls-8" d="M131,338.92c-13.6,5.88-30.34,15.77-45.83,36.82-4.67,6.35-8.57,17.12-10.17,24.8a66.27,66.27,0,0,0-1.29,14.93c1.1,0,2.39,1.39,3,2.12a12.26,12.26,0,0,1,1.29,2l.19.33a74.91,74.91,0,0,1,2.43-18.15A65,65,0,0,1,90.86,379.7,73.52,73.52,0,0,1,112.73,360c6.11-3.69,18.45-11.59,25.93-8.48,1.12.47,2.9,2.06,2.45,3.19,1.26-1.44,2.81-2.27,4.54-1.46,3.07,1.44,3.28,5.32,3.15,8.23a19.67,19.67,0,0,0,1.9,8.82c1.8,4.1,2.18,7-1.23,10.36a.43.43,0,0,0,.51.68c2.48-1.39,6.92-2.35,8.46-4.95.9-1.51.54-3.35.2-5-.6-2.78-1-5.2,0-8,2.45,4.8,5.62,12.37,10.38,15.33a4.42,4.42,0,0,0,4.24.43c2.14-1.09,2.42-4,2.18-6.4-.35-3.53-1.18-7-.95-10.57s1.82-7.27,5-8.86c3.61-1.8,8-1.07,11.47.46,6.23,2.72,16.47,11.15,20.08,19.8,2.1-.52,4.16-1.74,6.33-.95a3.79,3.79,0,0,1,2.48,2.75c.75,4.15-4.41,7.33-5.54,10.89-.81,2.53,0,5.26.07,7.91.15,3.55-1.6,5.79-4.55,7.47a17.35,17.35,0,0,0,1.3,2.06c4.65.08,9.47-1.14,9.8-6.46.14-2.24.14-4.4,1.89-6a14.45,14.45,0,0,1,3-2l.64-.35c.37,1.15,2.83,7.57,1.63,13.21a31.6,31.6,0,0,1-3.15,8.5c-2.9,5.32-7.74,10-12,14.21-3.64,3.59-8.25,6.45-10.37,11.28-1.37,3.12-.67,7,.52,10,.38,1,1.38,3.81,2.47,4.22a1.31,1.31,0,0,0,.86,0c1.43-.47,3.5-2.48,4.4-3.12a10.76,10.76,0,0,1,1.48-9.52,31,31,0,0,1,4.54-4.46,33.31,33.31,0,0,0,3.88-4.22c5.4-5.38,12.25-13.18,14.28-18.07,2.78-6.7,9.54-19.73,8.63-26.79-1.94-15.1-8.78-31.27-21-39.47-10.87-7.32-29.29-16.36-46.25-14.53C155.77,332.41,145.33,332.72,131,338.92Z"/><path class="cls-8" d="M105.81,403.81c-.52,1.48,1.39,1.57,2.23,2.08,1.81,1.1,3.6,2.22,5.35,3.4a59,59,0,0,1,9.55,7.85,43.41,43.41,0,0,1,11.14,19.78c1.89,7.73-.58,14.67-5.59,20.74a41.23,41.23,0,0,1-9,8.38c-3.36,2.24-6.94,4.9-10.9,6a.44.44,0,0,0,.21.85c4.11-.58,9.84-3.73,13.25-5.89,3.7-2.35,10.54-7,13.49-10.29,5-5.58,8.49-12.27,7.52-19.71-1.68-13-11.81-24-26.63-30.46a53.94,53.94,0,0,1,6.05,2.27,46.55,46.55,0,0,1,8.1-2.41c.33-.07,5.28-.48,4.48-1.42-3.9-4.6-10.64-6.84-16.27-6.25C110.79,399.62,106.06,403.11,105.81,403.81Z"/><path class="cls-14" d="M74,412a13.16,13.16,0,0,1-4.59-1.5c-1.2-.68-1.61-2.19-2.74-3-2.19-1.53-4.85-1.69-7.23-2.8-4.19-2-9.16-8.77-8.43-13.52l-1.31.52c6.57,6,16.23,5.74,24.08,9.29a.76.76,0,0,0,.79-1.31c-7.22-5-16.84-3.16-23.77-9a.77.77,0,0,0-1.31.52c-.38,5.62,3.45,11.63,7.83,14.86,2.89,2.13,7.14,1.46,9.32,4.6,1.54,2.22,4.88,2.47,7.35,2.18a.42.42,0,0,0,0-.81Z"/><path class="cls-14" d="M74.55,399.85c-9.42-3.78-14.33-17.29-26.11-14.94l.84,1.51c2-2.43,4.29-4.4,7.51-4.71,2.63-.25,5.28.73,7.7,1.62,5,1.82,10,3.95,15.38,2.74,1.13-.25.69-1.94-.43-1.73-6.2,1.2-11.59-2-17.32-3.71s-10.39-.05-14.09,4.51a.9.9,0,0,0,.84,1.51c10.55-1.82,15.78,12.17,25.42,14.1a.47.47,0,0,0,.26-.9Z"/><path class="cls-14" d="M79.86,384.53c-6.71-2.33-12.52-8.69-15.07-15.27-2.17-5.61-2.24-13.5-7.95-17L56.58,354c6.68-2.12,11.05,4,14.9,8.36s8.39,9.55,14.41,10.79a.71.71,0,0,0,.4-1.37c-6.8-2.74-11.32-8.38-16-13.71-3.75-4.23-8.22-7.71-14.14-5.93a1,1,0,0,0-.26,1.75c5.93,4.25,5.14,13.8,8.61,19.76,3,5.15,8.69,11.92,15.17,12.22a.71.71,0,0,0,.22-1.38Z"/><path class="cls-14" d="M87.92,371.95c-5.61-3.48-8.15-11.06-12-16.19-4.18-5.56-9.47-9.41-16.31-10.91l.18,1.6c6.17-2.72,12.63-3.15,18.52.52,6.62,4.12,10.9,11.51,18,14.89.79.38,1.84-.68,1-1.31a117.93,117.93,0,0,1-10-8.66c-3.09-3.06-6.35-6.05-10.28-8-5.82-2.91-12.53-1.55-18.13,1.06a.88.88,0,0,0,.18,1.6c7.59,1.83,13.09,7.31,17.21,13.67,3,4.67,5.63,10.62,11.07,12.94.7.3,1.13-.81.52-1.19Z"/><path class="cls-14" d="M97.53,361.29c-4.41-3.73-6.08-10-9.36-14.68-2.33-3.31-5.76-7.95-10.28-7.88l.63,1.14c2.27-4,10.61-.69,13.43,1.17,5.33,3.52,9.75,9,15.78,11.4.68.27,1.32-.78.74-1.24-3.21-2.57-6.67-4.85-9.91-7.4-2.59-2-5.14-4.19-8.18-5.51-3.8-1.65-10.33-3.32-13.16.79a.76.76,0,0,0,.63,1.14c4.41.41,7.89,6.38,10.06,9.69,2.79,4.26,4.42,9.38,9,12.1.45.27,1-.39.59-.74Z"/><path class="cls-14" d="M107.95,350.32c-6.32-6.71-3.71-18.37-11.67-23.84l0,1.33c4.72-3,10.08,3.27,11.82,7,1.89,4.07,3,9.14,7.05,11.71a.69.69,0,0,0,.85-1.08c-4.47-4.42-4.86-10.84-8.8-15.52-2.66-3.15-7.74-5.75-11.68-3.46a.77.77,0,0,0-.17,1.21c7,5.69,3.31,19.38,12.11,23.28.41.18.85-.28.51-.64Z"/><path class="cls-14" d="M116.31,345.55c-3.22-3.27-2.32-8.46-2.12-12.62.18-3.82-.13-7.45-2.54-10.55l-.62,1.42c5.36.37,7,5.16,8.23,9.62.8,2.89,1.46,7.12,4.12,9a.75.75,0,0,0,1-1c-4.18-6.54-3.32-18.56-13.34-19.25-.81-.06-1,.89-.62,1.42,5.08,6.53-2.14,17,5.44,22.53.32.23.69-.26.42-.53Z"/><path class="cls-14" d="M124.48,341.69a13.14,13.14,0,0,1,.41-6c.77-2.23,2.07-4.3,3.05-6.44,1.5-3.26,1.71-6.5-.11-9.66l-.71,1.19c6.69.2,5,13.24,5.94,17.45a.62.62,0,0,0,1.21-.14,42.35,42.35,0,0,0-.69-11.76c-.79-3.71-2.64-6-6.22-7.11a.8.8,0,0,0-1,1c1.71,4.89-.18,8.22-2.25,12.64a10.54,10.54,0,0,0-.49,9c.15.42.91.43.85-.1Z"/><path class="cls-14" d="M102.47,455.48c3.3.25,6.89-3.71,5.32-6.92-1.49-3-6.72-3.43-9-1.09a.65.65,0,0,0,.77,1c1.71-.7,5-1,6.16.81,1.41,2.16-2,4.31-3.52,5.1a.58.58,0,0,0,.27,1.07Z"/><path class="cls-14" d="M103.13,436.32c4.33.09,8.65-4.53,6.92-8.85-1.55-3.86-7.14-3.9-10-1.53-.5.41,0,1.16.58,1,2.17-.47,5.58-1.41,7.07.87,2.24,3.43-2.57,6.12-4.76,7.66a.44.44,0,0,0,.2.81Z"/><path class="cls-14" d="M138.48,460.74c2.37.46,8.43.62,7.91-3.15-.22-1.62-2.39-2.52-3.67-3.06a15,15,0,0,0-4.76-1.32.55.55,0,0,0-.41.93c1.8,1.63,4.59,1.61,6.42,3.3,1.1,1-1,1.27-1.67,1.43-1.26.29-2.55.4-3.8.72-.54.14-.62,1,0,1.14Z"/><path class="cls-14" d="M138.58,454.16c4.5-3.17,5.35-9.53,5.3-14.61-.07-6.21-2.23-11.76-5.47-17-7.16-11.51-19.5-17.7-32.82-18.62-.75-.05-.75,1.06,0,1.14,12,1.45,23.05,7.22,30.08,17.17,5.88,8.32,9.65,22,1.92,30.52-.63.69.19,2,1,1.37Z"/><path class="cls-14" d="M122.09,409.58c3.79-.76,7.54-1.76,11.34-2.46a74.72,74.72,0,0,1,24-.13,94.65,94.65,0,0,1,22,6c7.25,2.9,13.59,7.11,20.43,10.76.73.39,1.64-.62.94-1.19-5.59-4.59-12.5-7.92-19.11-10.79a96.17,96.17,0,0,0-23-6.65,73.86,73.86,0,0,0-36.9,3.28.61.61,0,0,0,.29,1.18Z"/><path class="cls-14" d="M138,461c3.33,3.47,7.66,5.86,6.58,11.37a15.82,15.82,0,0,1-7.94,10.82c-8.64,4.46-19.68-3.67-25.87-9C97.33,462.71,87.39,447,80.08,431.11c-.32-.68-1.45-.22-1.23.49C82,441.54,88.51,451,94.68,459.22c6,8.08,12.93,15.65,21.34,21.31,7.53,5.05,18,8.69,25.51,1.7,3.33-3.09,5.85-8.49,5.48-13s-4.79-7.18-8.25-9.22a.65.65,0,0,0-.8,1Z"/><path class="cls-14" d="M145.92,405a41.6,41.6,0,0,0,0,15.25c1.13,5.58,5.74,11.8,10.35,15,1.88,1.29,4.61,2.08,6.73.9,1.89-1.06,1.48-3.75,1.09-5.46-.65-2.92-2.08-5.61-2.66-8.55-.42-2.14,1-4.92,1.68-6.9.91-2.6,2.05-5.1,3-7.67.32-.84-1-1.41-1.43-.62-2.84,5.49-6.7,11.9-4.69,18.17a57.49,57.49,0,0,1,2.22,7.11c.7,3.79-3.62,2.09-5.38.88-4.17-2.86-8-8.84-9-13.78-1-4.58-.3-9.45-.68-14.1-.05-.66-1.1-.95-1.24-.19Z"/><path class="cls-14" d="M230.43,417c-2.51,6.9,1.6,16.9,6,22.25a.92.92,0,0,0,1.53-.39c.58-3.09.71-6.28,1.61-9.3l-1.63,0c1.3,4.26,2.24,8.44,4.1,12.51a50.7,50.7,0,0,0,8,12.55,126.94,126.94,0,0,0,10.23,9.93c2.94,2.68,5.74,5.78,9.42,7.45a1,1,0,0,0,1.41-1c-1.44-6.33-4.91-11.09-9.71-15.34-.5-.44-1.22.24-.75.73a32.43,32.43,0,0,1,8.62,15.07l1.41-1c-3.53-1.59-6.26-4.55-9.06-7.14-3.24-3-6.54-5.87-9.54-9.12a48.49,48.49,0,0,1-8.06-12c-2-4.21-3.08-8.51-4.42-13a.85.85,0,0,0-1.63,0,88.72,88.72,0,0,0-1.75,9.26l1.53-.39c-4.17-5.07-7.59-14.08-6.36-20.69a.5.5,0,0,0-1-.28Z"/><path class="cls-14" d="M297.74,462.16c3.11,4.39,8,5.83,13.07,6.67.81.13,1.81-.92,1-1.59-6-4.72-8.06-12.68-9.84-19.76-2-7.89-5.39-16.12-11-22.12a.66.66,0,0,0-1,.78c2.13,3.68,4.54,7.12,6.41,11a69.72,69.72,0,0,1,4.4,13.09c1.74,6.66,4.14,14,9.72,18.4l1-1.59c-4.75-.76-9.27-1.93-12.68-5.53-.45-.47-1.32.15-.93.7Z"/><path class="cls-14" d="M290.24,426.71c3.17,3.08,6,6.47,9.26,9.47a.91.91,0,0,0,1.5-.38c1.2-3.54-.39-7.27-2-10.42a44.46,44.46,0,0,0-7.09-10c-6.25-6.77-16.43-13-26-10.67-.69.17-.6,1.31.14,1.27,9.37-.56,17.48,3.59,24,10a40.36,40.36,0,0,1,6.27,8.23c1.84,3.1,4.11,7.4,2.91,11.09l1.5-.38c-3.29-3-6.12-6.66-10-9a.48.48,0,0,0-.58.74Z"/><path class="cls-14" d="M266.93,405.47a30.42,30.42,0,0,0,13.62-1.16.88.88,0,0,0,.24-1.58c-10.66-8.34-27.6-15.2-40-6.1-.71.52-.13,1.66.69,1.22,12.91-7,27.48-2.11,38.4,6.37l.24-1.58c-4.12,1.5-8.82,1.9-13.18,2.08a.38.38,0,0,0,0,.76Z"/><path class="cls-14" d="M234.41,385.09c-5.82.52-15.46,5.85-14.91,12.68.23,2.89,1.46,5.65,2.21,8.42.34,1.27.77,2.89.18,4.14-.86,1.81-3.36.8-4.53.06-3.05-1.92-5.13-5.61-6.81-8.68a32.3,32.3,0,0,1-3.66-11c-1.66-11.27,7.74-19.65,16.53-24.86.68-.4.27-1.57-.53-1.32-9.14,2.93-17.56,13-18.13,22.59-.48,8.15,3.8,17,9.22,22.89,1.91,2.06,4.58,3.91,7.49,3,2.63-.8,2.91-3.51,2.58-5.82-.5-3.54-2.51-6.77-2.69-10.38-.15-2.94,3.18-5.57,5.32-7.11,2.44-1.75,5.28-2.63,7.9-4,.29-.15.19-.69-.16-.65Z"/><path class="cls-14" d="M141.22,353c-2.39,8.38-.24,17.48,4.25,24.75,3.18,5.16,8.73,12,15.59,10.79,6.37-1.12,1.62-10.35.13-13.44-4.09-8.49-1.74-17.08,5.3-23.29.45-.4-.11-1.11-.62-.83-6.24,3.42-9.3,10.51-8.93,17.39.29,5.48,4.1,9.74,5.11,15,.78,4.08-3.85,3.42-6.26,2.2-3.24-1.65-5.76-4.81-7.78-7.73a36.56,36.56,0,0,1-6-24.74c.05-.49-.7-.58-.83-.13Z"/><path class="cls-14" d="M106,352.16A100.05,100.05,0,0,0,88.33,370a73,73,0,0,0-11.85,20.31c-2.21,6-3,12.52-3.4,18.87a80.65,80.65,0,0,0-.24,8.07l.11-.06a7.16,7.16,0,0,1,1.17-.75c.07-2.73.36-5.46.61-8a72.22,72.22,0,0,1,3.86-18.48c2.86-7.62,7.67-14.45,12.84-20.68a95.83,95.83,0,0,1,18-17.16c23-16.39,51.88-23.89,79.83-20.07a76,76,0,0,1,33.34,12.7c11,7.71,18.56,22.65,19.69,35.8,1.31,15.12-6.89,30.72-16.48,41.86-5,5.8-11.65,9.86-16.06,16.19-3.44,4.92,1.67,10.84,2,16.06s-7-.76-8.17-1.93a37.79,37.79,0,0,1-5.6-7.79c-1.89-3.27-3.23-6.53-3.09-10.35.15-4.07,1.92-8.54,5.48-10.78.78-.49.1-1.72-.71-1.25-5.07,3-7.06,9.47-6.5,15,.57,5.73,4.79,11.66,8.51,15.87,2.24,2.54,8.44,8,11.51,3.59,1-1.46.41-3.88.06-5.44-.73-3.25-2.68-6.34-2.71-9.7,0-2.06,2.34-4.25,3.59-5.65a47.63,47.63,0,0,1,3.85-3.77,118.44,118.44,0,0,0,9.25-8.71A71.23,71.23,0,0,0,239,405.42c5.75-12.49,7-26,1.83-38.81-4.45-11-11.51-20.18-21.69-26.35-10.82-6.55-23.19-9.81-35.75-10.88C156,327.06,128,335.64,106,352.16Z"/><path class="cls-14" d="M108.69,473.72c6.13-1.35,12.09-5,17.25-8.43s11.14-8.12,14.29-13.76c.33-.59-.46-1.26-.95-.74-4.71,5-9.14,9.71-14.85,13.68-5.05,3.51-10.55,5.89-16,8.7a.3.3,0,0,0,.22.55Z"/><path class="cls-14" d="M152.9,431.44c3.1-.28,8-1.8,9.07-5.13.19-.59-.59-.82-.92-.4-2.25,2.9-5.07,3.54-8.29,4.94a.32.32,0,0,0,.15.59Z"/><path class="cls-14" d="M199.89,450.28c3.68,2.23,9.05.5,11.29-3.1.35-.56-.39-1-.85-.67-3.15,2.52-5.94,4.59-10.16,3.14a.35.35,0,0,0-.28.63Z"/><path class="cls-14" d="M210.57,403.69c3.66,1.14,9.13,0,10.84-3.79.25-.56-.38-1.16-.88-.69a12.14,12.14,0,0,1-4.32,3.05,22,22,0,0,1-5.55.83.3.3,0,0,0-.09.59Z"/><path class="cls-14" d="M149,381.07c4,.91,10-2.16,11.06-6.37a.54.54,0,0,0-.89-.53c-1.26,1.09-1.91,2.64-3.29,3.67-2,1.51-4.5,2-6.86,2.65a.3.3,0,0,0,0,.58Z"/><path class="cls-14" d="M133.34,473.42A2.25,2.25,0,0,1,131.7,470a1.63,1.63,0,0,1,1.8-.52c.77.23,1,1.07,1.46,1.63a.57.57,0,0,0,.95-.24c.35-1.36-.76-2.54-1.93-3a3.22,3.22,0,0,0-3.61,1.09,3.41,3.41,0,0,0-.17,4.06c.72,1.07,2.09,1.89,3.32,1.13a.37.37,0,0,0-.17-.69Z"/><path class="cls-14" d="M283.31,472.23c0-2.84-1.87-6.51-4.62-7.58a.52.52,0,0,0-.59.75c.8,1.13,1.71,2.16,2.45,3.34s1.27,2.5,2,3.68a.39.39,0,0,0,.73-.18Z"/><path class="cls-14" d="M282.25,460.23c-1.11-1.15-2.27-2.25-3.39-3.39s-1.83-2.55-2.93-3.62a.42.42,0,0,0-.71.28c-.21,3.31,3.93,6.35,6.66,7.34.36.13.61-.36.37-.61Z"/><path class="cls-14" d="M269.92,454a7.09,7.09,0,0,0-4.8-6.65c-.44-.14-.68.4-.42.71a43.21,43.21,0,0,1,4.55,6.12.36.36,0,0,0,.67-.17Z"/><path class="cls-14" d="M261.1,447a30.42,30.42,0,0,1-6.27-7.15c-.2-.32-.82-.25-.79.2.24,3.33,3.47,7.1,6.81,7.51a.34.34,0,0,0,.25-.57Z"/><path class="cls-14" d="M250,441.41c-.86-2.95-2.12-6.66-4.2-9-.33-.37-.81,0-.76.43a17.8,17.8,0,0,0,4.37,8.86.36.36,0,0,0,.6-.33Z"/><path class="cls-14" d="M255.54,434.21c-2.43-2.24-3.95-5.55-6.66-7.46-.45-.32-.84.26-.68.66a15,15,0,0,0,6.86,7.4c.37.18.81-.28.47-.59Z"/><path class="cls-14" d="M244.49,423.85c-1.88-2.42-3-5.76-5.65-7.51a.44.44,0,0,0-.65.48,14.64,14.64,0,0,0,5.9,7.53.33.33,0,0,0,.4-.5Z"/><path class="cls-14" d="M248.67,419.47c-1.52-3.07-3.1-6.08-6.18-7.88-.39-.23-1,.24-.67.65a52.21,52.21,0,0,0,6.28,7.66.36.36,0,0,0,.57-.43Z"/><path class="cls-14" d="M267.11,438.17a24.41,24.41,0,0,1-3.28-3,31.19,31.19,0,0,0-3.1-3.45.4.4,0,0,0-.67.37c.52,3,3.76,6.2,6.71,6.87a.43.43,0,0,0,.34-.77Z"/><path class="cls-14" d="M290.68,472.44a7.35,7.35,0,0,0-2.54-8.63c-.38-.25-.75.22-.59.57.57,1.26,1.29,2.45,1.76,3.76a17.41,17.41,0,0,1,.72,4.19.34.34,0,0,0,.66.1Z"/><path class="cls-14" d="M290.4,460c-.67-2.64-1.52-6-3.79-7.7-.27-.21-.63.12-.56.41a18.31,18.31,0,0,0,3.8,7.6.33.33,0,0,0,.55-.31Z"/><path class="cls-14" d="M280.33,450.21a9.89,9.89,0,0,0-6-7.54c-.43-.17-.66.41-.42.7.91,1.13,1.94,2.19,2.91,3.28s1.91,2.56,3,3.77a.32.32,0,0,0,.54-.21Z"/><path class="cls-14" d="M287.87,444.23c-2.25-2.45-3.54-6.47-6.58-8.12a.54.54,0,0,0-.74.72c1.63,3,3.89,6.23,6.86,8a.38.38,0,0,0,.47-.59Z"/><path class="cls-14" d="M275.43,435.19c-.71-3.18-2.52-8-6.15-8.81-.39-.09-.76.4-.42.71,2.63,2.37,3.83,5.7,6,8.44.23.29.67,0,.6-.33Z"/><path class="cls-14" d="M261,425.06a9.42,9.42,0,0,0-6.19-6.16.38.38,0,0,0-.37.62c2.06,1.84,3.9,4,5.84,5.94a.43.43,0,0,0,.72-.41Z"/><path class="cls-14" d="M266.66,416.58c-2.56-1.72-4.91-4.14-7.79-5.31-.35-.14-.65.38-.38.63,2.14,1.92,4.66,6,8.07,5.31a.35.35,0,0,0,.1-.64Z"/><path class="cls-14" d="M253,410.08c-1.53-2-3.6-4.42-6.41-4.07a.51.51,0,0,0-.14.92c2.15,1.09,3.91,2.66,6,3.83a.44.44,0,0,0,.54-.69Z"/><path class="cls-14" d="M247.46,401.36a19.87,19.87,0,0,0,3.46-.28c1.27-.14,2.57-.08,3.84-.11a.51.51,0,0,0,.15-1,8.85,8.85,0,0,0-7.66.54.45.45,0,0,0,.21.84Z"/><path class="cls-14" d="M279.91,426.47a10.42,10.42,0,0,0-7.6-7.28.47.47,0,0,0-.37.85,48.87,48.87,0,0,1,7.29,6.81.4.4,0,0,0,.68-.38Z"/><path class="cls-14" d="M277.8,413.65a10.74,10.74,0,0,0-8.29-3.56.44.44,0,0,0-.13.85c1.36.56,2.74,1.05,4.09,1.66a17.92,17.92,0,0,0,4,1.62.35.35,0,0,0,.34-.57Z"/><path class="cls-14" d="M297.91,454.48c-.56-2.5-1.52-6.5-3.87-7.93a.44.44,0,0,0-.65.48,22,22,0,0,0,1.54,3.82,12,12,0,0,0,2.32,4,.39.39,0,0,0,.66-.37Z"/><path class="cls-14" d="M290.85,437.49a12.25,12.25,0,0,0-5.07-7.25c-.47-.29-.92.34-.58.73,1.88,2.16,2.89,4.92,5,6.88a.39.39,0,0,0,.65-.36Z"/><path class="cls-14" d="M259.24,401.16a50.82,50.82,0,0,1,6.24.58c.38.09.79-.42.43-.72a6.43,6.43,0,0,0-6.87-.66.43.43,0,0,0,.2.79Z"/><path class="cls-14" d="M288.52,420.42c-1.27-2-3-4.71-5.55-5.16-.39-.07-.89.34-.6.76a21,21,0,0,0,5.7,4.85.33.33,0,0,0,.45-.44Z"/><path class="cls-14" d="M257.55,453.95a29.18,29.18,0,0,0-5.08-5.59c-.26-.21-.82,0-.66.37.88,2.24,2.64,5.35,5.25,5.85.32.06.74-.28.49-.62Z"/><path class="cls-14" d="M85.23,357.2c-1.6-1.29-2.62-3.61-4.57-4.42-.34-.14-.55.28-.43.54a9.7,9.7,0,0,0,4.65,4.33c.27.13.64-.23.36-.45Z"/><path class="cls-14" d="M77.37,351.16c-1.37-1.81-2.74-3.2-5-3.69a.39.39,0,0,0-.31.71c1.63,1.1,3.33,2.21,4.84,3.47a.36.36,0,0,0,.51-.5Z"/><path class="cls-14" d="M91.14,363.44c-.73-.54-1.34-1.28-2-1.88a11.61,11.61,0,0,0-1.93-1.38.37.37,0,0,0-.51.5A6.35,6.35,0,0,0,90.92,364a.28.28,0,0,0,.22-.51Z"/><path class="cls-14" d="M100.67,354.68c-1.39-1.15-2.52-2.68-3.94-3.8a.36.36,0,0,0-.6.33,4.65,4.65,0,0,0,1.35,2.33,7.91,7.91,0,0,0,2.77,1.67c.32.15.74-.27.42-.53Z"/><path class="cls-14" d="M94.56,347.13c-1-2.05-2.13-4.24-4.54-4.85a.32.32,0,0,0-.25.58c1.8,1.19,2.65,3.27,4.33,4.62a.3.3,0,0,0,.47-.35Z"/><path class="cls-14" d="M110.18,347.1a11.42,11.42,0,0,1-1.41-2.43,7.81,7.81,0,0,0-1.33-2.3c-.19-.18-.61-.14-.66.17-.32,2,1.45,4.08,3,5.09.34.22.65-.25.42-.53Z"/><path class="cls-14" d="M106.42,338.33c0-1.71-.41-4-1.69-5.27a.41.41,0,0,0-.69.27,12.21,12.21,0,0,0,1.76,5.15.34.34,0,0,0,.63-.16Z"/><path class="cls-14" d="M119.18,341.54a13.42,13.42,0,0,1-.91-2.75c-.2-.75-.26-1.79-.88-2.31a.39.39,0,0,0-.65.16c-.37.88.14,2.22.4,3.1a4,4,0,0,0,1.66,2.18.28.28,0,0,0,.38-.37Z"/><path class="cls-14" d="M127.94,338.16a32.75,32.75,0,0,1,1.48-5.26.35.35,0,0,0-.55-.43,5.83,5.83,0,0,0-1.51,5.68.3.3,0,0,0,.58,0Z"/><path class="cls-14" d="M81.88,375.12a33.2,33.2,0,0,1-3.2-1.68c-1-.63-1.87-1.64-3-2.18a.35.35,0,0,0-.52.38,5.12,5.12,0,0,0,2.43,2.86,6.4,6.4,0,0,0,4.07,1.22c.29,0,.51-.46.18-.61Z"/><path class="cls-14" d="M71.65,369.19a11.22,11.22,0,0,1-2-2.42A16,16,0,0,0,68,364.11a.36.36,0,0,0-.61.24,5.6,5.6,0,0,0,3.93,5.39c.3.06.61-.31.33-.56Z"/><path class="cls-14" d="M78.63,378.95a15.08,15.08,0,0,1-3-2.09c-.78-.75-1.46-1.86-2.44-2.35a.37.37,0,0,0-.56.31c0,1.32,1.26,2.49,2.19,3.29s2.42,1.75,3.77,1.43a.32.32,0,0,0,.09-.58Z"/><path class="cls-14" d="M73.61,394.69a10.26,10.26,0,0,1-5.31-2c-.33-.25-.71.21-.54.53,1,1.88,4.12,3.65,6.08,2,.24-.2,0-.54-.22-.57Z"/><path class="cls-14" d="M63.8,387.12c1.66,1.1,4.19,2.47,6.26,2.25.34,0,.68-.48.33-.76a6.78,6.78,0,0,0-2.64-1.08c-1.23-.34-2.49-.56-3.71-.94a.29.29,0,0,0-.23.53Z"/><path class="cls-14" d="M71.91,406.28a9.62,9.62,0,0,1-2.88-.75,4.54,4.54,0,0,0-2.34-.56.36.36,0,0,0-.17.6c1.16,1.29,4,2.5,5.56,1.35a.35.35,0,0,0-.16-.65Z"/><path class="cls-14" d="M68.67,402.41c-1.56-1-4-2.11-5.85-1.25a.37.37,0,0,0,.08.67c.9.24,1.8.44,2.69.7a7.38,7.38,0,0,0,2.91.47.32.32,0,0,0,.17-.59Z"/><path class="cls-14" d="M59.29,400.73c-.55-.37-1.13-.7-1.69-1.07-.25-.17-.48-.36-.72-.53a9.56,9.56,0,0,0-1-.48.31.31,0,0,0-.43.42A8.94,8.94,0,0,0,56,400a4.32,4.32,0,0,0,.95.8,3.57,3.57,0,0,0,2.13.71.39.39,0,0,0,.21-.72Z"/><path class="cls-14" d="M61.84,384.81c-.39-.29-.66-.72-1-1a7.31,7.31,0,0,0-1.22-.73,2.84,2.84,0,0,0-2.33-.27.37.37,0,0,0-.08.58,9.32,9.32,0,0,0,1.93,1l1.09.5c.44.2.95.24,1.39.43a.27.27,0,0,0,.28-.47Z"/><path class="cls-14" d="M86.62,365.59c-.63-1.86-1.54-4-3.45-4.83a.43.43,0,0,0-.53.67A36.08,36.08,0,0,1,86,365.84c.2.3.77.14.64-.25Z"/><path class="cls-15" d="M114.49,422.66a10.43,10.43,0,0,0,2.49,5.52c2.84,2.28,3.61-1.59,3-3.79-.47-1.79-1.79-4.55-4-4.25C114.73,420.32,114.37,421.37,114.49,422.66Zm.72.71h0Z"/><path class="cls-15" d="M113.35,459.58a2.64,2.64,0,0,0,2.6,1.82c2-.16,1.67-3.27,1.44-4.58s-1.07-4.24-2.89-3.27S112.44,457.56,113.35,459.58Z"/><path class="cls-9" d="M128.81,480.91c-3.18-1.78-5.61-4.47-8.48-6.63a.53.53,0,0,0-.8.44c.09,1.75,1.61,3.15,2.92,4.16a13,13,0,0,0,6.14,2.8c.42.06.56-.58.22-.77Z"/><path class="cls-14" d="M248.24,388.26c2.64-5.22,3-11.65.31-16.89a.45.45,0,0,0-.83.21c.3,5.63.82,10.72-.27,16.33-.09.46.56.83.8.35Z"/><path class="cls-14" d="M254.38,375.72c.2-3.75.14-7.57-1.5-11a.44.44,0,0,0-.82.21,32.77,32.77,0,0,0,1.56,10.91.39.39,0,0,0,.76-.09Z"/><path class="cls-14" d="M217.89,460.78c3-3.32,2.75-9.37-.8-12.22a.63.63,0,0,0-1,.74c1.78,3.51,2.43,7.18.82,10.9-.24.54.59,1,1,.58Z"/><path class="cls-14" d="M247.49,366.11a16.29,16.29,0,0,0-.22-3,2.85,2.85,0,0,0-.79-1.38c-.25-.19-.53.07-.57.31a7,7,0,0,0,.64,4.27.51.51,0,0,0,.95-.24Z"/><path class="cls-14" d="M164.93,424.61a14.23,14.23,0,0,1,2.65,9.38.87.87,0,0,0,1.61.46c2.18-3.6-1-8.16-3.75-10.34-.29-.23-.72.2-.51.5Z"/><path class="cls-14" d="M164,374.54a32.74,32.74,0,0,1,2.51,4.46c.74,1.6,1.07,3.35,1.81,4.95a.84.84,0,0,0,1.56-.39c-.31-3.65-2.61-7.08-5.25-9.49-.32-.29-.9.08-.64.48Z"/><path class="cls-6" d="M81.17,403.51c-2-3.69-8.77-4.87-12.86-5.61,1.4,5.18,5.38,13.51,11.07,14.5,0-.17.25-2.27.28-2.44A48,48,0,0,1,81.17,403.51Z"/><path class="cls-14" d="M67,397.62a29,29,0,0,0,4.13,9.77,14.69,14.69,0,0,0,3.76,3.93c.91.62,3.8,2.3,4.87,1.36a.4.4,0,0,0,.1-.49.61.61,0,0,0-.25-.2,28.79,28.79,0,0,1-3.93-2,13.73,13.73,0,0,1-3.16-3.34,23.34,23.34,0,0,1-2.23-4.11c-.18-.43-1.24-4.19-1.47-4.23,4.2.77,10,1.91,11.79,5.86a.85.85,0,0,0,1.61-.56c-1.77-5.22-9.73-6.19-14.32-7.07A.8.8,0,0,0,67,397.62Z"/><path class="cls-15" d="M73.59,403.55A15.31,15.31,0,0,0,75.73,407c1,1.19,2.35,1.33,3.83,1.46h0c.45.07.41-1.32.38-1.8C79.76,403.39,73.38,403.11,73.59,403.55Z"/><path class="cls-14" d="M72.63,440.12a.79.79,0,0,0,.95,1,51.37,51.37,0,0,0,8.18-3.21,11.81,11.81,0,0,1-.39-1.35c-1,.36-2,.87-3,1.28-1.27.53-2.86,1.26-4.16,1.66.26-.92.86-2.13,1.22-3A17.14,17.14,0,0,1,78.11,432l-.2,0c-.56.1-1.13.2-1.69.33a2.3,2.3,0,0,1-.49.07C74,434.52,73.16,437.79,72.63,440.12Z"/><path class="cls-16" d="M99.48,401.26c.8-2.23,1.65-5.15,3.54-6.71.43-.36-.11-1-.57-.76-2.82,1.57-3.72,4.26-3.93,7.32,0,.58.78.65,1,.15Z"/><path class="cls-16" d="M106.31,399.37c1-.8,2-1.6,2.95-2.42a16.67,16.67,0,0,0,2.88-2.62.57.57,0,0,0-.62-.84,10.23,10.23,0,0,0-5.89,5.34.44.44,0,0,0,.69.54Z"/><path class="cls-16" d="M106.12,391.1a9,9,0,0,0,2.82-1.77c1.05-.89,2.24-1.59,3.29-2.48a.51.51,0,0,0-.34-.87c-2.68-.12-4.84,2.48-6.26,4.45a.45.45,0,0,0,.49.66Z"/><path class="cls-16" d="M98.49,392.9c.62-1.11,1.24-2.25,1.93-3.33a21.52,21.52,0,0,1,3-3.17c.28-.29.13-1-.36-.9-3.22.37-5.44,4.18-5.42,7.15a.46.46,0,0,0,.85.24Z"/><path class="cls-16" d="M110.13,382.68c.79-.53,1.53-1.1,2.28-1.69a27.7,27.7,0,0,1,2.62-1.6.46.46,0,0,0-.1-.83c-2.52-.68-4.25,1.7-5.36,3.55-.21.34.2.82.56.58Z"/><path class="cls-16" d="M118.07,384.84c1.71-1.32,3.88-1.94,5.42-3.49a.41.41,0,0,0-.28-.7c-2.59,0-4.24,1.7-5.76,3.56a.44.44,0,0,0,.62.63Z"/><path class="cls-16" d="M95,402.72a17.52,17.52,0,0,1,.33-5.57.38.38,0,0,0-.63-.38c-1.78,1.63-1.55,4.31-.45,6.25a.41.41,0,0,0,.75-.3Z"/><path class="cls-16" d="M115.87,391.82a38,38,0,0,1,5.25-2.9c.38-.17.24-.73-.11-.83-2.33-.67-4.29,1.46-5.68,3-.32.36.09,1,.53.69Z"/><path class="cls-16" d="M92.39,394.52c.2-1.91,1.61-3.5,2.27-5.24.16-.42-.34-.66-.67-.53-2.09.85-2.58,3.8-2.47,5.75a.43.43,0,0,0,.86,0Z"/><path class="cls-16" d="M101.57,458.73c4.39,3.19,9.45-1.34,11.5-5.17,1.5-2.81,1.91-6.09,2.34-9.19a54.19,54.19,0,0,0,.52-11.14c-.38-5.79-2.59-12.49-8.55-14.56S96.22,420.84,94,425.9c-2.69,6-2.61,13.31-1.64,19.68.9,5.89,3.07,11.73,8.94,14.12,5.11,2.09,9.82-1.57,11.9-6a28.92,28.92,0,0,0,2.18-15.45c-.07-.53-1-.42-.93.11.24,6.58-1.49,21.63-11.17,19.9-5.37-1-7.42-6.79-8.46-11.37a38.69,38.69,0,0,1-.09-16c1.09-5.39,4.12-10.35,10.19-10.31,6.24,0,8.29,7.72,8.79,12.65a54,54,0,0,1-1.07,15.33c-.94,4.9-4.72,11.56-10.72,9.54-.43-.15-.63.45-.3.69Z"/><path class="cls-16" d="M91.56,427.15c.11,1.52.07,3.49,1.72,4.16.53.22,1-.3,1-.76a5.27,5.27,0,0,0-1.55-4.61.87.87,0,0,0-1.35.16,4.43,4.43,0,0,0,.79,4.77c.63.7,1.6,0,1.48-.83a3.54,3.54,0,0,0-.63-1.79c-.42-.56-1.3-.08-1.32.52a8.84,8.84,0,0,0,.24,1.7l1.48-.83a2.67,2.67,0,0,1-.58-2.67l-1.18.3c.89.7,1,2.2,1,3.24l1-.76c-1.14-.17-1.18-1.9-1.54-2.77-.12-.31-.66-.16-.64.16Z"/><path class="cls-16" d="M94.37,416a16.11,16.11,0,0,0-.22,5.38c.17,1.26,1.62,3.53,3.07,2,1.25-1.35.72-3.78.39-5.38s-1-4.12-2.81-4.6a1.06,1.06,0,0,0-1.29.71c-.93,2.76-.78,7.79,1.46,9.92a1.07,1.07,0,0,0,1.67-.2,3.27,3.27,0,0,0-.18-3.36.85.85,0,0,0-1.58.4,6.46,6.46,0,0,1-.07,1.87l1.67-.2c-1.71-1.59-1.67-5.79-1-7.85l-1.29.71c.78.21,1.13,2.1,1.3,2.75a8.75,8.75,0,0,1,.32,3.59q-.16.34.07.12c.23-.17,0-.21-.09-.55a9.68,9.68,0,0,1-.44-2,13.86,13.86,0,0,1-.25-3.2.39.39,0,0,0-.76-.12Z"/><path class="cls-16" d="M96.07,419.12v0l-.06.42a1.73,1.73,0,0,0,0-1.22c0-.19-.06-.38-.1-.57l0-.3c0-.29-.06.29,0,.14.31-1.18-1.48-1.48-1.67-.25a6.51,6.51,0,0,0,.23,2,1.94,1.94,0,0,0,.72,1.5l.61-1.39h0a.7.7,0,0,0-.7.18,1.51,1.51,0,0,0-.14.17.77.77,0,0,0,1,1.05c.65-.39.49-1.13.35-1.75s-.27-1.27-.39-1.91l-1.43.8,0,0-.21-.37c.24.63.32,1.72.94,2.09l-.25-.34v0a.55.55,0,0,0,1.07-.27Z"/><path class="cls-16" d="M98,410.5c-.06,1.36-.23,3,1,3.94.63.45,1.32-.16,1.41-.78A3.49,3.49,0,0,0,98.92,410a1,1,0,0,0-1.47.81c-.11,1.27.29,3,1.64,3.45a.8.8,0,0,0,1-.95,5.94,5.94,0,0,0-.5-1.15,2.64,2.64,0,0,1-.18-1.31l-1.47.81c.71.33.7,1.26.69,1.95l1.41-.78c-.83-.36-.83-1.68-1-2.46-.1-.58-1-.44-1,.11Z"/><path class="cls-16" d="M97.1,417.74c0,1.19.06,2.63,1.48,3,.52.12,1.26-.24,1.2-.88-.15-1.45-.34-3.27-1.91-3.83a1,1,0,0,0-1.24.91c-.08,1.39.15,3.71,1.73,4.21a.88.88,0,0,0,1-1.27,6.35,6.35,0,0,1-.66-1.31,5,5,0,0,1-.14-1.59l-1.24.91c.49.17.51,1.76.62,2.18l.93-1.16c-.62,0-.73-.76-.85-1.24a.47.47,0,0,0-.91.1Z"/><path class="cls-16" d="M103.08,413.56c.41,2.2.76,4,2.79,5.28a.83.83,0,0,0,1-.12c2-2-1.19-6.31-3-7.37a.94.94,0,0,0-1.36.54c-.64,2.56,1.09,5,3.1,6.36,1,.73,2.08-1,1-1.7-1.28-.85-2.73-2.49-2.35-4.15l-1.36.54c1.18.65,3.47,3.34,2.71,4.78l.93-.37c-1.7-.47-2.14-2.53-2.61-4a.43.43,0,0,0-.83.21Z"/><path class="cls-16" d="M107.24,416.77a4.93,4.93,0,0,0,2.5,4.32c.53.25,1.38,0,1.33-.73-.15-2.08-1.5-4.95-3.7-5.5a1,1,0,0,0-1.19.87c-.24,2,1,4.89,3.21,5.34a.81.81,0,0,0,.8-1.33c-1.12-1.19-2.32-2.16-2.15-4l-1.19.87c1.52.36,2.22,2.58,2.5,3.91l1.1-1.05c-1.2-.37-1.86-1.74-2.23-2.84-.17-.5-1-.48-1,.11Z"/><path class="cls-16" d="M99.73,406.69a2,2,0,0,0,1.36,2A.74.74,0,0,0,102,408a2.57,2.57,0,0,0-1.53-2.65.76.76,0,0,0-1,.71,3.44,3.44,0,0,0,.27,1.24,1.23,1.23,0,0,0,1,.89.66.66,0,0,0,.66-.48,1.19,1.19,0,0,0-.19-.92,1.62,1.62,0,0,1-.22-.7l-1,.71c.43.18.43,1,.52,1.35l.53-.88c-.32,0-.42-.5-.45-.71-.08-.53-1-.42-.93.11Z"/><path class="cls-16" d="M115.33,444a4.67,4.67,0,0,0,2.06,6.08c.53.23,1-.22,1.21-.66.86-2,.29-5.95-1.48-7.34a1,1,0,0,0-1.43,0c-1.74,2.18-.9,6.19,1.18,7.91a1.1,1.1,0,0,0,1.7-.2c.93-1.77-.06-4.46-1.17-5.93-.56-.74-2-.39-1.67.67.23.69.46,1.38.67,2.08.15.5.58,1.56.33,2.08l1.7-.2c-1.29-1-2.26-3.74-1.15-5.16l-1.39.35c1.19.92,1.3,3.94.86,5.23l1.21-.66c-1.16-.39-1.81-2.69-1.6-3.78.11-.58-.69-1-1-.44Z"/><path class="cls-16" d="M114.48,450a1.43,1.43,0,0,0,.49,2.07.84.84,0,0,0,1.14-.29c1-1.46.35-4.19-1.5-4.6a.91.91,0,0,0-1.12.61,5.52,5.52,0,0,0,.16,2.88c.34.94,1.28,2.2,2.4,1.58a.94.94,0,0,0,.47-.79,1.13,1.13,0,0,0-.44-.9.79.79,0,0,0-.92-.13l-.06,0a.87.87,0,0,0-.41,1,1.47,1.47,0,0,0,0,.18l.1-.69,0,.05.57-.43-.15,0,.91.26c-.92-.77-.89-1.64-.87-2.76l-.92.88c.23,0,.37.55.41.71a2,2,0,0,1-.05,1.27l.94-.37q-.39-.13-.13,0c0-.15-.05-.31-.1-.47a.51.51,0,0,0-.92-.13Z"/><path class="cls-16" d="M103.42,459.86a4.17,4.17,0,0,0,2.29,3.52.84.84,0,0,0,1.22-.48,3.44,3.44,0,0,0-2.65-4.32.9.9,0,0,0-.93.88c.15,1.57.65,3.77,2.57,3.93.94.08,1.08-1.12.46-1.59a2.35,2.35,0,0,1-.93-1,4.36,4.36,0,0,1-.3-1.35l-.93.88c1,.12,1.11,1.54,1.07,2.27l1.06-.78c-1.15-.32-1.56-1.3-2.08-2.24a.47.47,0,0,0-.88.22Z"/><path class="cls-6" d="M211.71,363.74c1.12.77,3.14-.11,3.81-1.12a.76.76,0,0,0-.26-1c-1.89-1-5.72-.08-6.13,2.29a.83.83,0,0,0,.77,1,5.27,5.27,0,0,0,4.71-2c.48-.68-.28-1.39-1-1.29a3.46,3.46,0,0,0-2.23,1,.66.66,0,0,0,.62,1.1,14.28,14.28,0,0,1,1.8-.44l-.59-1.49a3.94,3.94,0,0,1-3.31,1.38l.8.84c.16-1.4,3-1.52,3.92-1.16l-.44-1.12c-.47,1-1.56.8-2.4,1.14a.42.42,0,0,0-.11.76Z"/><path class="cls-6" d="M207.58,357.78c1.91.17,4.84-1.07,5.39-3.11.27-1-.61-1.66-1.54-1.7a6.21,6.21,0,0,0-3.56,1.25c-1.49,1-4.27,4.1-1.21,5.16,2.77,1,5.44-2.33,6.16-4.68a1,1,0,0,0-1.17-1.22,9.81,9.81,0,0,0-4.85,3.21c-.8.85.34,1.92,1.23,1.25,1.32-1,2.4-2.24,4.1-2.57l-1.17-1.22a5.35,5.35,0,0,1-3.13,3.51.91.91,0,0,1-.7-.13.12.12,0,0,1,0,.1,1.21,1.21,0,0,1,.19-.43,5.69,5.69,0,0,1,1.63-1.56,5.36,5.36,0,0,1,1.73-.82,2.23,2.23,0,0,1,.94-.11c-.41-.07,0-.6-.35,0a4.73,4.73,0,0,1-3.67,2.11.5.5,0,0,0,0,1Z"/><path class="cls-6" d="M146.64,347.14l-.33.56a.61.61,0,0,0,.5.91c1.37.2,2.94-1.23,3.51-2.35a2.12,2.12,0,0,0-1.65-3.09c-1.3-.16-2.36,1.35-2.95,2.27a8.67,8.67,0,0,0-1.44,3.72.93.93,0,0,0,.91.95,6.06,6.06,0,0,0,5.1-4.41c.13-.63-.41-1.48-1.16-1.2a6.65,6.65,0,0,0-3.77,4,.93.93,0,0,0,1.12,1.16,2.8,2.8,0,0,0,1.06-.43.79.79,0,0,0-.36-1.46,6.12,6.12,0,0,0-.9.06l.87,1.18a4.87,4.87,0,0,1,2.46-2.67l-1.16-1.2c-.28,1.31-1.79,3-3.2,3.09l.91.95a7.35,7.35,0,0,1,1.95-3.94c.43-.45,1-.4.79.37a3.46,3.46,0,0,1-2.2,1.8l.75.59.09-.5a.48.48,0,0,0-.88-.38Z"/><path class="cls-6" d="M123.88,355.62a2,2,0,0,0,1-.68,1.57,1.57,0,0,0,.19-1.24.69.69,0,0,0-.66-.53,2.16,2.16,0,0,0-1.71.89,2.21,2.21,0,0,0-.25,1.9.74.74,0,0,0,.88.53A1.73,1.73,0,0,0,124.7,354a.62.62,0,0,0-1.07,0,2.41,2.41,0,0,0-.17.47c0,.08-.05.15-.08.23s-.1.23,0,.1q-.07.11,0,0s-.18.16-.06.07a.67.67,0,0,1-.33.15l.81.35a.65.65,0,0,1,.59-.85l-.66-.53a.6.6,0,0,1,0,.23.1.1,0,0,1,0-.08q-.06.1,0,0c-.12.15-.29.28-.42.42-.36.38,0,1.21.55,1Z"/><path class="cls-6" d="M119,354a2.19,2.19,0,0,0-2.35-2.54.59.59,0,0,0-.57.42,3.08,3.08,0,0,0,.52,2.57,1.53,1.53,0,0,0,2.58-1.4,2,2,0,0,0-1.9-1.4c-.5,0-.89.67-.45,1,.2.17.55.4.64.48a1.7,1.7,0,0,1,.22.21c-.16-.18.08.24,0,0l0,.09c0,.16,0-.19,0,0s.05-.16,0,0c.1-.28-.13.12.06-.1-.05.06-.26.22,0,.07-.17.12,0,0,0,0l-.08,0c-.15,0,.19,0,0,0s-.05,0,.06,0l-.12,0q.15.07,0,0c-.14-.08.11.11,0,0s0,0-.1-.12a.79.79,0,0,1-.1-.22,4.16,4.16,0,0,1-.14-1l-.44.55a1.21,1.21,0,0,1,1.55,1.29c0,.39.59.48.68.1Z"/><path class="cls-6" d="M101.73,368.27c1.79,2.08,3.07-2.88,3-4a.75.75,0,0,0-.72-.76c-2.62,0-4.21,3.76-3.32,5.93a.8.8,0,0,0,.89.38c2.11-.27,2.79-2.62,2.74-4.44a.85.85,0,0,0-1.25-.75c-1.06.48-2.57,3-1.34,3.9.6.46,1.47-.42,1.05-1,.15.22,0,.54.13.13a4.4,4.4,0,0,1,.2-.6,1.6,1.6,0,0,1,.77-.94l-1.25-.75c0,1.11-.08,2.73-1.44,2.93l.89.38c-.47-1.09.58-3.63,1.89-3.66l-.72-.76a6.31,6.31,0,0,1-.19,1.9,5,5,0,0,1-.34,1c-.14.29-.13.38-.32.25-.53-.37-1,.4-.67.84Z"/><path class="cls-6" d="M97.86,370.76a2.65,2.65,0,0,0,.56-.86,1.67,1.67,0,0,0-.13-1.19.61.61,0,0,0-.84-.23,1.35,1.35,0,0,0-.71,1.22,1.29,1.29,0,0,0,1,1.28c.35,0,.56-.29.61-.58a.76.76,0,0,0-.15-.52l-.08-.12s-.09-.21,0-.08q0-.12,0,0c0-.16,0,.08,0-.07q0,.08,0,0s.12-.12.11-.11l-1-.14c.1.17.15.27.12.4a4.28,4.28,0,0,1-.23.6c-.17.42.46.78.75.45Z"/><path class="cls-16" d="M134.53,393.42a6.3,6.3,0,0,0,4.16-2.7.88.88,0,0,0-.51-1.3c-2.37-.38-7.79,1.37-5.85,4.64a1,1,0,0,0,1,.44,6.61,6.61,0,0,0,4.71-3.06,1,1,0,0,0-1-1.4,5.6,5.6,0,0,0-3.39,2c-.37.46-.07,1.41.64,1.15,1.1-.4,2-1.19,3.21-1.35l-1-1.4a4.82,4.82,0,0,1-3.53,2.22l1,.44c-.84-1.4,3.08-2.1,3.95-2l-.83-1.13a4,4,0,0,1-2.81,2.36.54.54,0,0,0,.26,1Z"/><path class="cls-16" d="M136.46,389.12c1.88-.4,4.39-1.34,4-3.7a.85.85,0,0,0-.81-.65,7,7,0,0,0-6.37,4.36.87.87,0,0,0,.39,1c2.69,1.18,5.56-1.2,6.32-3.75a1,1,0,0,0-.9-1.23c-2-.21-3.72,1.44-4.84,2.94-.56.75.48,1.71,1.23,1.26a2.35,2.35,0,0,0,.78-.82c.43-.62-.35-1.17-.91-.93l-.29.05.61,1.56c.9-1,1.9-2.26,3.37-2.14l-.9-1.23c-.41,1.47-2.11,3.36-3.77,2.68l.6,1.09c.67-2.09,2.87-2.9,4.86-3.16l-1-.62c.4,1.21-1.82,1.94-2.67,2.31-.56.25-.17,1.08.38,1Z"/><path class="cls-16" d="M138.1,381.26a13.22,13.22,0,0,0,1.54-.54c.49-.21.89-.55,1.36-.78a.85.85,0,0,0-.18-1.54,4.39,4.39,0,0,0-4.39,1.55.9.9,0,0,0,.31,1.23,2.73,2.73,0,0,0,2.66.17c.81-.35,2-1.14,1.79-2.15a.77.77,0,0,0-.72-.58c-1,0-1.66,1.73-2.8,1l.31,1.23a2.87,2.87,0,0,1,2.6-.82l-.79-1.08c.06-.17-.26.2-.28.21a4.09,4.09,0,0,1-.54.32,8.3,8.3,0,0,1-1.17.48c-.79.28-.51,1.51.32,1.28Z"/><path class="cls-16" d="M145.05,366.69c-.13,1.6.25,3.66,2.12,4a.9.9,0,0,0,1.09-.6c.41-1.88-.93-3.9-2.5-4.84a.94.94,0,0,0-1.36.53c-.66,1.65.7,4.24,2.65,4.11.5,0,1-.61.67-1.11-.59-.8-2-1.3-1.55-2.49l-1.36.53a3.38,3.38,0,0,1,1.72,3l.9-.86c-1,0-1.14-1.47-1.15-2.24a.62.62,0,0,0-1.24,0Z"/><path class="cls-16" d="M211.07,385.27q-.17-.18,0,0a.8.8,0,0,0,.31.2,1.57,1.57,0,0,0,.62,0,2.54,2.54,0,0,0,1.21-.68,1.69,1.69,0,0,0,.13-2.49c-1.39-1.35-3.61,1-3.84,2.41a.89.89,0,0,0,.81,1.11,2.62,2.62,0,0,0,2.45-1.22,4.34,4.34,0,0,0,.61-1.29,1.11,1.11,0,0,0-.43-1.38.79.79,0,0,0-.83,0,1,1,0,0,0-.31.29l-.08.18q-.08.38,0,0c-.52.4,0,1.2.59,1.06a.94.94,0,0,0,.25-.09l.14-.1q.18-.14-.1,0l-.94-.75a.72.72,0,0,0,.07.37l.1-.65c-.32.7-.52,1.9-1.51,1.79l.85.88c0,.18.05-.07.11-.17a4.93,4.93,0,0,1,.38-.59,1.84,1.84,0,0,1,.78-.65.21.21,0,0,1-.21-.06s0,0,0,0a.6.6,0,0,1-.18.35,1.63,1.63,0,0,1-.5.39l-.21.09c-.09,0-.51.2-.21.14a.44.44,0,0,0-.12.8Z"/><path class="cls-17" d="M74.62,415.27c-12.18,6.58-23.86,14.36-35.53,21.66-.55.34-.06,1.21.49.87l.07,0c9.77-.85,19.49-2.23,29.2-3.61,2.52-.36,5-.73,7.54-1.15a12.17,12.17,0,0,0,3.48-.81c1.57-.81,1.3-6,1.15-7.25-.47-3.76-2.65-7-5.37-9.52A.87.87,0,0,0,74.62,415.27Zm-9.41,17.87-.46.07c.78-3.13-1.83-7.19-5-7.71q3.39-2,6.81-3.92c3.65,2.7,5.64,6.08,5.57,10.56C69.82,432.5,67.5,432.8,65.21,433.14Zm-8.78,1.25c.26-2.12-1.64-4.18-3.72-4.71q2.84-1.72,5.7-3.41a.46.46,0,0,0,.15.1c3.13,1.27,4.61,3.85,5,7Zm-4.84-4c.79.69,1.7,1.22,2.46,2a5,5,0,0,1,1.2,2.22c-4.58.64-9.15,1.29-13.71,2Q46.54,433.46,51.59,430.37Zm27.77-3.48a14.82,14.82,0,0,1-.55,3.88,3,3,0,0,1-.61.21c-1.59.38-3.2.69-4.82,1,1.22-4.08-1.58-9.67-5.61-11q3.53-2,7.1-3.84C77.56,419.81,79.35,422.92,79.37,426.89Z"/><path class="cls-18" d="M170.4,396.41c-2.45.41-5.11,3.74-2.62,5.45,3.49,2.4,8.51.37,11.94-1.72.49-.3.87-.78.57-1.32-2.09-3.66-5.34-9.25-9.87-9.81C166.34,388.5,166.18,394,170.4,396.41Z"/><path class="cls-14" d="M298.43,461a.69.69,0,0,0-1.2.68c3.25,6.78,3.71,13.41.93,19.79l2.4-.6A19.41,19.41,0,0,0,298.43,461Z"/><path class="cls-14" d="M282.57,475.45c-.39-.47-1,.12-.79.6a18.16,18.16,0,0,1,1.78,9.15l2.07-.52A13.31,13.31,0,0,0,282.57,475.45Z"/><path class="cls-14" d="M290.49,477.18c-.42-.25-.78.22-.62.6a12.39,12.39,0,0,1,1.19,3.94,11.28,11.28,0,0,1,0,1.58l1.45-.37C293,480.77,292.58,478.44,290.49,477.18Z"/><path class="cls-14" d="M282.07,485.57a11.71,11.71,0,0,0,.54-10.32c-.28-.6-1.09-.16-1,.4a15.16,15.16,0,0,1-1.08,9.18c-1.53-5.83-2.63-11.74-6-16.91a39.41,39.41,0,0,0-13-12.08c-.38-.22-.85.33-.49.62,4.45,3.65,8.75,7.48,12,12.29,3.51,5.24,4.43,11.57,6.08,17.54Z"/></g></g></svg>