<svg xmlns="http://www.w3.org/2000/svg" viewBox="0 0 999.37 508"><defs><style>.cls-1,.cls-24{fill:none;}.cls-1{stroke:#26ff15;stroke-miterlimit:10;stroke-width:2px;}.cls-14,.cls-2{fill:#26bdd1;}.cls-3,.cls-5{fill:#00488e;}.cls-4{fill:#f8fed2;stroke:#00b7ff;stroke-width:0.48px;}.cls-10,.cls-13,.cls-4{stroke-miterlimit:22.93;}.cls-10,.cls-11,.cls-14,.cls-15,.cls-16,.cls-17,.cls-18,.cls-19,.cls-20,.cls-21,.cls-4,.cls-5,.cls-6,.cls-7,.cls-8,.cls-9{fill-rule:evenodd;}.cls-6{fill:#019dcb;}.cls-7{fill:#03bddc;}.cls-8{fill:#c4ffff;}.cls-13,.cls-15,.cls-8{opacity:0.5;}.cls-12,.cls-9{fill:#fff;}.cls-10,.cls-13,.cls-18{fill:#fc0;}.cls-10,.cls-13{stroke:#f60;stroke-width:0.19px;}.cls-11{fill:#c63;}.cls-12{opacity:0.82;}.cls-15{fill:#039;}.cls-16,.cls-23{fill:#05a4e2;}.cls-17{fill:#f93;}.cls-19{fill:#ff0;}.cls-20,.cls-22{fill:#024056;}.cls-21{fill:#087fa3;}</style></defs><title>Radar_Nave_3b</title><g id="Capa_2" data-name="Capa 2"><g id="Arte"><line class="cls-1" x1="500.37" y1="499.79" x2="1.37" y2="499.79"/><line class="cls-1" x1="500.36" y1="499.78" x2="147.52" y2="147.01"/><line class="cls-1" x1="500.37" y1="499.79" x2="500.37" y2="0.89"/><line class="cls-1" x1="500.37" y1="499.78" x2="853.22" y2="147.01"/><line class="cls-1" x1="500.37" y1="499.79" x2="999.37" y2="499.79"/><path class="cls-1" d="M153.91,496.78c0-187.91,155.12-340.25,346.46-340.25S846.83,308.87,846.83,496.78"/><path class="cls-1" d="M233,499.46c0-145,119.7-262.55,267.35-262.55S767.72,354.45,767.72,499.46"/><path class="cls-1" d="M317,500.89c0-99.44,82.09-180.06,183.34-180.06s183.34,80.61,183.34,180.06"/><rect class="cls-2" x="897.2" y="393.87" width="75.73" height="2.79" transform="translate(-46.23 135.18) rotate(-8.07)"/><rect class="cls-2" x="952.4" y="389.98" width="20.26" height="2.79" transform="translate(-45.41 138.99) rotate(-8.07)"/><rect class="cls-3" x="933.33" y="392.6" width="28.93" height="1.65" rx="0.48" ry="0.48" transform="translate(-45.84 136.95) rotate(-8.07)"/><path class="cls-4" d="M933,395.56c2.73,19.23-26.47,39.27-65.21,44.76s-106.35-.83-109.08-20.06,60.46-44.09,99.2-49.58S930.25,376.33,933,395.56Z"/><path class="cls-5" d="M864,405a19.6,19.6,0,1,0,16.67-22A19.58,19.58,0,0,0,864,405Z"/><path class="cls-6" d="M863.93,404.16a18.8,18.8,0,1,0,16-21.15A18.78,18.78,0,0,0,863.93,404.16Z"/><path class="cls-5" d="M865.93,404a15.65,15.65,0,1,0,13.31-17.61A15.64,15.64,0,0,0,865.93,404Z"/><path class="cls-7" d="M867,404.92A15,15,0,1,0,879.74,388,15,15,0,0,0,867,404.92Z"/><path class="cls-8" d="M870.29,407a15,15,0,0,1,21.1-15.7,15,15,0,1,0-15.78,25.13l-.25-.21A14.83,14.83,0,0,1,870.29,407Z"/><path class="cls-8" d="M900.59,397.17a18.81,18.81,0,0,1-36.06,9.62,18.8,18.8,0,1,0,35.4-12.55A18.73,18.73,0,0,1,900.59,397.17Z"/><path class="cls-9" d="M962.72,391.41a5.31,5.31,0,1,0,4.48-6.16A5.4,5.4,0,0,0,962.72,391.41Z"/><path class="cls-10" d="M962.67,391.18a5.28,5.28,0,1,0,4.49-6A5.29,5.29,0,0,0,962.67,391.18Z"/><path class="cls-11" d="M971.65,386.78a4.93,4.93,0,0,0-4.59-1.53,5.32,5.32,0,0,0-4.44,5.42,5,5,0,0,0,.71,2.42C962.35,387.57,967.14,383.67,971.65,386.78Z"/><path class="cls-11" d="M969,395c-2.41.34-3.51-.15-4.53-.84,1,1.19,2.38,1.72,4.54,1.41s4.29-2.89,4.15-5.46a4.86,4.86,0,0,0-.58-2.06C973.41,390.66,971.43,394.68,969,395Z"/><circle class="cls-12" cx="971.35" cy="391.62" r="1.49" transform="translate(-45.34 140.18) rotate(-8.07)"/><circle class="cls-13" cx="968.07" cy="390.78" r="5.28" transform="translate(-45.26 139.71) rotate(-8.07)"/><path class="cls-14" d="M921.45,379.69,926.31,414a31.22,31.22,0,0,0,5.06-7.83l-2.89-20.37A31.23,31.23,0,0,0,921.45,379.69Z"/><path class="cls-14" d="M917.75,377.53a56.85,56.85,0,0,0-6.58-2.9l6.68,47.1a56.85,56.85,0,0,0,5.51-4.61Z"/><path class="cls-14" d="M907.6,373.42q-3.07-1-6.41-1.69l7.88,55.56q3-1.64,5.69-3.41Z"/><path class="cls-15" d="M767.58,428.56c-2.73-19.23,60.46-44.09,99.2-49.58,25.9-3.67,49.51.09,63.13,8.74-9.54-14.27-38.91-21.73-72-17C819.15,376.17,756,401,758.69,420.26c.57,4,4,7.53,9.48,10.44A8.85,8.85,0,0,1,767.58,428.56Z"/><path class="cls-5" d="M827.39,409.91a10,10,0,1,0,8.54-11.29A10,10,0,0,0,827.39,409.91Z"/><path class="cls-6" d="M827.34,409.51a9.63,9.63,0,1,0,8.19-10.83A9.62,9.62,0,0,0,827.34,409.51Z"/><path class="cls-5" d="M828.36,409.45a8,8,0,1,0,6.82-9A8,8,0,0,0,828.36,409.45Z"/><path class="cls-7" d="M828.89,409.9a7.69,7.69,0,1,0,6.54-8.65A7.68,7.68,0,0,0,828.89,409.9Z"/><path class="cls-8" d="M830.59,411a7.7,7.7,0,0,1,10.8-8,7.67,7.67,0,1,0-8.08,12.87l-.13-.11A7.59,7.59,0,0,1,830.59,411Z"/><path class="cls-8" d="M846.11,405.93a9.63,9.63,0,0,1-18.47,4.93,9.63,9.63,0,1,0,18.13-6.43A9.6,9.6,0,0,1,846.11,405.93Z"/><path class="cls-16" d="M815.94,380.64l8.62,60.83q3,0,5.88,0L821.58,379Q818.77,379.77,815.94,380.64Z"/><path class="cls-17" d="M753.59,417.68c7.47,13.64-5.51,35.12-29,48S649.32,478,648,475.53s26.11-46.4,49.59-59.26S746.12,404,753.59,417.68Z"/><path class="cls-18" d="M753.59,417.68c5,9.11-4.65,24-21.54,33.24s-53.52,10-54.44,8.37,19.47-32.11,36.36-41.36S748.6,408.57,753.59,417.68Z"/><path class="cls-19" d="M753.59,417.68c5,9.11-1,22-13.45,28.81s-41.52,3.46-42.43,1.79,11.93-28,24.35-34.78S748.6,408.57,753.59,417.68Z"/><path class="cls-9" d="M753.59,417.68c3.73,6.81-1.2,16.7-11,22.08s-32.47,3.36-33.16,2.12,9.82-21.42,19.63-26.79S749.85,410.86,753.59,417.68Z"/><path class="cls-20" d="M795.39,389.13,772.5,372.3l-53.84,10.1.43,3,37.17,1.15,13.31,17C776.16,398.57,785.21,393.62,795.39,389.13Z"/><path class="cls-21" d="M794,388.82l-21.66-15.32-52.52,9.59.23,1.62,36.81.8,12.74,16.64A126.19,126.19,0,0,1,794,388.82Z"/><path class="cls-16" d="M772.83,374.4,770.35,401A117.7,117.7,0,0,1,793,388.66Z"/><path class="cls-16" d="M769.51,401.09,772,374.21l-.06,0-1.49.27-13.1,11.05,12,15.69Z"/><polygon class="cls-16" points="756.45 385 768.67 374.69 723.89 382.88 724.09 384.3 756.45 385"/><path class="cls-20" d="M802.58,439.86l-17.31,22.53-54.52,5.26-.43-3,35.39-11.43,8.06-20.05C781.48,436.14,791.55,438.37,802.58,439.86Z"/><path class="cls-21" d="M801.32,440.55l-16.55,20.74-53.12,5.38-.23-1.62,35.14-11,7.62-19.53A126.21,126.21,0,0,0,801.32,440.55Z"/><path class="cls-16" d="M785,460.28l-9.78-24.87A117.71,117.71,0,0,0,800.41,441Z"/><path class="cls-16" d="M774.4,435.56l9.89,25.13,0,.06-1.51.15-15.66-7,7.18-18.41Z"/><polygon class="cls-16" points="766.33 454.65 780.93 461.15 735.64 465.74 735.43 464.32 766.33 454.65"/><path class="cls-16" d="M827,442l-8.74-61.64q-3,1-5.88,2l8.41,59.31Q823.85,441.91,827,442Z"/><path class="cls-16" d="M813.89,441.22l-8-56.42q-3,1.14-5.84,2.33l7.58,53.47Q810.73,440.94,813.89,441.22Z"/><rect class="cls-22" x="758.16" y="410.24" width="6.04" height="19.35" transform="matrix(0.99, -0.14, 0.14, 0.99, -51.39, 110.96)"/><rect class="cls-23" x="758.86" y="410.84" width="4.67" height="18.14" rx="1.35" ry="1.35" transform="translate(-51.39 110.97) rotate(-8.07)"/><rect class="cls-22" x="759.24" y="411.36" width="3.83" height="17.11" rx="1.1" ry="1.1" transform="translate(-51.39 110.96) rotate(-8.07)"/><rect class="cls-22" x="723.6" y="416.71" width="75.73" height="6.35" transform="matrix(0.99, -0.14, 0.14, 0.99, -51.4, 111.05)"/><rect class="cls-22" x="778.8" y="412.82" width="20.26" height="6.35" transform="translate(-50.58 114.87) rotate(-8.07)"/><rect class="cls-23" x="779.39" y="413.52" width="19" height="4.92" rx="1.42" ry="1.42" transform="translate(-50.58 114.86) rotate(-8.07)"/><rect class="cls-23" x="724.45" y="418.85" width="53.76" height="4.92" rx="1.42" ry="1.42" transform="translate(-51.7 109.64) rotate(-8.07)"/><rect class="cls-23" x="778.65" y="414.24" width="0.49" height="6.35" rx="0.14" ry="0.14" transform="translate(-50.87 113.43) rotate(-8.07)"/><rect class="cls-24" width="998" height="508"/></g></g></svg>