<svg xmlns="http://www.w3.org/2000/svg" xmlns:xlink="http://www.w3.org/1999/xlink" viewBox="0 0 999.37 508"><defs><style>.cls-1,.cls-2{fill:none;}.cls-1{stroke:#117a05;stroke-miterlimit:10;stroke-width:2px;}.cls-3{fill:#fff;}.cls-4{fill:url(#linear-gradient);}.cls-5{fill:url(#linear-gradient-2);}.cls-6{fill:url(#linear-gradient-3);}.cls-7{fill:url(#linear-gradient-4);}.cls-8{fill:#e6e7e8;}.cls-9{fill:url(#linear-gradient-5);}.cls-10{fill:url(#linear-gradient-6);}.cls-11{fill:#6ac9d4;}.cls-12{fill:#585b57;}</style><linearGradient id="linear-gradient" x1="597.5" y1="159.34" x2="624.4" y2="159.34" gradientTransform="translate(1221.9 318.68) rotate(180)" gradientUnits="userSpaceOnUse"><stop offset="0" stop-color="#d5d5d5"/><stop offset="0.51" stop-color="#f2f2f2"/><stop offset="1" stop-color="#b6b6b6"/></linearGradient><linearGradient id="linear-gradient-2" x1="539.43" y1="131.03" x2="566.33" y2="131.03" gradientTransform="translate(1105.76 262.05) rotate(180)" xlink:href="#linear-gradient"/><linearGradient id="linear-gradient-3" x1="369.71" y1="159.34" x2="396.62" y2="159.34" gradientTransform="matrix(1, 0, 0, 1, 0, 0)" xlink:href="#linear-gradient"/><linearGradient id="linear-gradient-4" x1="427.78" y1="131.03" x2="454.69" y2="131.03" gradientTransform="matrix(1, 0, 0, 1, 0, 0)" xlink:href="#linear-gradient"/><linearGradient id="linear-gradient-5" x1="477.91" y1="148.83" x2="524.08" y2="148.83" gradientUnits="userSpaceOnUse"><stop offset="0" stop-color="#f2f2f2"/><stop offset="1" stop-color="#b6b6b6"/></linearGradient><linearGradient id="linear-gradient-6" x1="494.93" y1="275.69" x2="506.05" y2="275.69" gradientTransform="matrix(1, 0, 0, 1, 0, 0)" xlink:href="#linear-gradient"/></defs><title>Radar_Avion_1</title><g id="Capa_2" data-name="Capa 2"><g id="Arte"><path class="cls-1" d="M153.91,496.78c0-187.91,155.12-340.25,346.46-340.25S846.83,308.87,846.83,496.78"/><path class="cls-1" d="M233,499.46c0-145,119.7-262.55,267.35-262.55S767.72,354.45,767.72,499.46"/><path class="cls-1" d="M317,500.89c0-99.44,82.09-180.06,183.34-180.06s183.34,80.61,183.34,180.06"/><line class="cls-1" x1="500.37" y1="499.79" x2="1.37" y2="499.79"/><line class="cls-1" x1="500.36" y1="499.78" x2="147.52" y2="147.01"/><line class="cls-1" x1="500.37" y1="499.79" x2="500.37" y2="0.89"/><line class="cls-1" x1="500.37" y1="499.78" x2="853.22" y2="147.01"/><line class="cls-1" x1="500.37" y1="499.79" x2="999.37" y2="499.79"/><rect class="cls-2" width="998" height="508"/><path class="cls-3" d="M440.15,291.3c3-2.56,47.25-40.07,47.25-40.07l.27,25.11s-39.26,19.91-44.12,22.31S437.2,293.83,440.15,291.3Z"/><path class="cls-3" d="M561.83,291.3c-3-2.56-47.25-40.07-47.25-40.07l-.27,25.11s39.26,19.91,44.12,22.31S564.78,293.83,561.83,291.3Z"/><rect class="cls-4" x="597.5" y="138.71" width="26.9" height="41.27" rx="10.93" ry="10.93" transform="translate(1221.9 318.68) rotate(-180)"/><rect class="cls-5" x="539.43" y="110.39" width="26.9" height="41.27" rx="10.93" ry="10.93" transform="translate(1105.76 262.05) rotate(-180)"/><rect class="cls-6" x="369.71" y="138.71" width="26.9" height="41.27" rx="10.93" ry="10.93"/><rect class="cls-7" x="427.78" y="110.39" width="26.9" height="41.27" rx="10.93" ry="10.93"/><path class="cls-8" d="M341.34,185.94c8.91-4.89,140.91-76,140.91-76l.28,68.61s-116.81,26.65-131.27,29.77S332.55,190.76,341.34,185.94Z"/><path class="cls-3" d="M660.65,185.94c-8.91-4.89-140.91-76-140.91-76l-.28,68.61s116.81,26.65,131.27,29.77S669.43,190.76,660.65,185.94Z"/><path class="cls-9" d="M524.08,46.63c0-11.9-11.39-35.56-23.09-35.56h0c-11.69,0-23.09,23.65-23.09,35.56l.07,3.88h0l3.57,206.61c0,11.69,7.75,29.46,19.44,29.46h0c11.69,0,19.44-17.77,19.44-29.46L524,50.52h0Z"/><rect class="cls-10" x="494.93" y="252.83" width="11.11" height="45.71" rx="5.56" ry="5.56"/><path class="cls-11" d="M515.61,22.2l-2.45,257.07a37.82,37.82,0,0,0,5.34-10.69l2.25-236.4A58.45,58.45,0,0,0,515.61,22.2Z"/><path class="cls-11" d="M486.62,275.92l.88-255.7a37.62,37.62,0,0,0-5.25,10.66L481.44,266A58.13,58.13,0,0,0,486.62,275.92Z"/><path class="cls-12" d="M501,20.48h0c-9.66,0-19.06,19.19-19.06,28.84l.05,3.15h3.79c2.73-9.35,8.73-19.78,14.85-19.78h0c6.12,0,12.12,10.43,14.85,19.78H520l.05-3.15C520.06,39.67,510.65,20.48,501,20.48Z"/></g></g></svg>