<svg xmlns="http://www.w3.org/2000/svg" viewBox="0 0 999.37 508"><defs><style>.cls-1,.cls-24{fill:none;}.cls-1{stroke:#26ff15;stroke-miterlimit:10;stroke-width:2px;}.cls-14,.cls-2{fill:#26bdd1;}.cls-3,.cls-5{fill:#00488e;}.cls-4{fill:#f8fed2;stroke:#00b7ff;stroke-width:0.48px;}.cls-10,.cls-13,.cls-4{stroke-miterlimit:22.93;}.cls-10,.cls-11,.cls-14,.cls-15,.cls-16,.cls-17,.cls-18,.cls-19,.cls-20,.cls-21,.cls-4,.cls-5,.cls-6,.cls-7,.cls-8,.cls-9{fill-rule:evenodd;}.cls-6{fill:#019dcb;}.cls-7{fill:#03bddc;}.cls-8{fill:#c4ffff;}.cls-13,.cls-15,.cls-8{opacity:0.5;}.cls-12,.cls-9{fill:#fff;}.cls-10,.cls-13,.cls-18{fill:#fc0;}.cls-10,.cls-13{stroke:#f60;stroke-width:0.19px;}.cls-11{fill:#c63;}.cls-12{opacity:0.82;}.cls-15{fill:#039;}.cls-16,.cls-23{fill:#05a4e2;}.cls-17{fill:#f93;}.cls-19{fill:#ff0;}.cls-20,.cls-22{fill:#024056;}.cls-21{fill:#087fa3;}</style></defs><title>Radar_Nave_1</title><g id="Capa_2" data-name="Capa 2"><g id="Arte"><line class="cls-1" x1="500.37" y1="499.79" x2="1.37" y2="499.79"/><line class="cls-1" x1="500.36" y1="499.78" x2="147.52" y2="147.01"/><line class="cls-1" x1="500.37" y1="499.79" x2="500.37" y2="0.89"/><line class="cls-1" x1="500.37" y1="499.78" x2="853.22" y2="147.01"/><line class="cls-1" x1="500.37" y1="499.79" x2="999.37" y2="499.79"/><path class="cls-1" d="M153.91,496.78c0-187.91,155.12-340.25,346.46-340.25S846.83,308.87,846.83,496.78"/><path class="cls-1" d="M233,499.46c0-145,119.7-262.55,267.35-262.55S767.72,354.45,767.72,499.46"/><path class="cls-1" d="M317,500.89c0-99.44,82.09-180.06,183.34-180.06s183.34,80.61,183.34,180.06"/><rect class="cls-2" x="499.07" y="18.99" width="2.79" height="75.72" transform="translate(-0.41 3.75) rotate(-0.43)"/><rect class="cls-2" x="498.87" y="18.99" width="2.79" height="20.26" transform="translate(-0.2 3.75) rotate(-0.43)"/><rect class="cls-3" x="499.52" y="29.53" width="1.65" height="28.93" rx="0.48" ry="0.48" transform="translate(-0.32 3.75) rotate(-0.43)"/><path class="cls-4" d="M500.49,59c19.43-.15,35.42,31.45,35.71,70.57s-15,105.28-34.39,105.42-35.67-65.78-36-104.89S481.06,59.11,500.49,59Z"/><path class="cls-5" d="M500.63,128.51A19.59,19.59,0,1,0,481,109.07,19.58,19.58,0,0,0,500.63,128.51Z"/><path class="cls-6" d="M499.84,128.52A18.79,18.79,0,1,0,481,109.87,18.78,18.78,0,0,0,499.84,128.52Z"/><path class="cls-5" d="M500,126.52A15.65,15.65,0,1,0,484.3,111,15.64,15.64,0,0,0,500,126.52Z"/><path class="cls-7" d="M501,125.61a15,15,0,1,0-15-14.9A15,15,0,0,0,501,125.61Z"/><path class="cls-8" d="M503.47,122.59a15,15,0,0,1-12.76-23,15,15,0,1,0,22.82,19l-.24.22A14.84,14.84,0,0,1,503.47,122.59Z"/><path class="cls-8" d="M497.77,91.26a18.8,18.8,0,0,1,4.74,37,18.79,18.79,0,1,0-7.74-36.75A18.75,18.75,0,0,1,497.77,91.26Z"/><path class="cls-9" d="M500.32,28.93a5.31,5.31,0,1,0-5.51-5.26A5.4,5.4,0,0,0,500.32,28.93Z"/><path class="cls-10" d="M500.09,29a5.28,5.28,0,1,0-5.32-5.24A5.29,5.29,0,0,0,500.09,29Z"/><path class="cls-11" d="M496.92,19.47a4.93,4.93,0,0,0-2.13,4.34,5.32,5.32,0,0,0,4.78,5.12,5,5,0,0,0,2.5-.38C496.47,28.79,493.24,23.53,496.92,19.47Z"/><path class="cls-11" d="M504.74,23.17c0,2.43-.61,3.46-1.44,4.37,1.32-.87,2-2.13,2-4.31s-2.3-4.64-4.86-4.84a4.86,4.86,0,0,0-2.12.3C501,18.24,504.72,20.74,504.74,23.17Z"/><circle class="cls-12" cx="501.68" cy="20.41" r="1.49" transform="translate(-0.14 3.76) rotate(-0.43)"/><circle class="cls-13" cx="500.41" cy="23.55" r="5.28" transform="translate(-0.16 3.75) rotate(-0.43)"/><path class="cls-14" d="M483.22,68.28,517.89,68A31.23,31.23,0,0,0,510.8,62l-20.58.15A31.23,31.23,0,0,0,483.22,68.28Z"/><path class="cls-14" d="M480.59,71.65a56.83,56.83,0,0,0-3.75,6.13l47.58-.36a56.84,56.84,0,0,0-3.84-6.08Z"/><path class="cls-14" d="M475.17,81.16q-1.35,2.91-2.53,6.13l56.13-.42q-1.23-3.19-2.62-6.09Z"/><path class="cls-15" d="M511.22,227.25c-19.43.15-35.67-65.78-36-104.89-.2-26.15,6.67-49,17.05-61.39-15.42,7.56-26.71,35.66-26.46,69.1.29,39.12,16.54,105,36,104.89,4.09,0,8-3,11.61-8A8.86,8.86,0,0,1,511.22,227.25Z"/><path class="cls-5" d="M500.68,165.49a10,10,0,1,0-10.06-10A10,10,0,0,0,500.68,165.49Z"/><path class="cls-6" d="M500.27,165.5a9.62,9.62,0,1,0-9.65-9.55A9.62,9.62,0,0,0,500.27,165.5Z"/><path class="cls-5" d="M500.35,164.47a8,8,0,1,0-8-8A8,8,0,0,0,500.35,164.47Z"/><path class="cls-7" d="M500.86,164a7.69,7.69,0,1,0-7.71-7.63A7.68,7.68,0,0,0,500.86,164Z"/><path class="cls-8" d="M502.14,162.46a7.7,7.7,0,0,1-6.54-11.77,7.67,7.67,0,1,0,11.68,9.72l-.12.11A7.6,7.6,0,0,1,502.14,162.46Z"/><path class="cls-8" d="M499.22,146.42a9.63,9.63,0,0,1,2.43,19,9.62,9.62,0,1,0-4-18.82A9.61,9.61,0,0,1,499.22,146.42Z"/><path class="cls-16" d="M470.13,172.95l61.45-.46q.43-2.92.8-5.82l-63.13.47Q469.66,170,470.13,172.95Z"/><path class="cls-17" d="M501.79,232.14c15.55-.12,28.32,21.49,28.52,48.25s-24.78,72.14-27.62,72.16-28.5-45-28.7-71.74S486.24,232.26,501.79,232.14Z"/><path class="cls-18" d="M501.79,232.14c10.39-.08,18.93,15.47,19.07,34.72s-16.52,51.88-18.42,51.89-19.05-32.36-19.2-51.61S491.4,232.22,501.79,232.14Z"/><path class="cls-19" d="M501.79,232.14c10.39-.08,18.9,11.34,19,25.5s-16.63,38.19-18.52,38.2-19-23.76-19.1-37.92S491.4,232.22,501.79,232.14Z"/><path class="cls-9" d="M501.79,232.14c7.77-.06,14.14,9,14.22,20.16s-12.43,30.18-13.85,30.19-14.21-18.79-14.3-30S494,232.2,501.79,232.14Z"/><path class="cls-20" d="M475.82,194.44l-19.73,20.44,2.85,54.69,3.05,0,6.08-36.68,18.65-10.93C482.62,214.76,478.92,205.13,475.82,194.44Z"/><path class="cls-21" d="M475.33,195.79l-18.07,19.43,2.53,53.32h1.63l5.68-36.37,18.19-10.42A126.14,126.14,0,0,1,475.33,195.79Z"/><path class="cls-16" d="M458.22,214.84l26,6A117.65,117.65,0,0,1,475,196.76Z"/><path class="cls-16" d="M484.24,221.67l-26.32-6.06,0,.05.07,1.52,9.21,14.45,17.15-9.82Z"/><polygon class="cls-16" points="466.55 232.48 457.96 219 460.12 264.46 461.55 264.45 466.55 232.48"/><path class="cls-20" d="M527.07,194.06l20,20.14-2,54.73L542,269l-6.63-36.59-18.81-10.65C520.58,214.47,524.13,204.79,527.07,194.06Z"/><path class="cls-21" d="M527.58,195.4l18.36,19.16-1.73,53.35h-1.63l-6.23-36.28L518,221.49A126.14,126.14,0,0,0,527.58,195.4Z"/><path class="cls-16" d="M545,214.19l-26,6.39a117.65,117.65,0,0,0,8.87-24.21Z"/><path class="cls-16" d="M519.06,221.41,545.28,215l0,.05,0,1.52-9,14.59L519,221.55Z"/><polygon class="cls-16" points="536.91 231.95 545.3 218.34 543.82 263.84 542.39 263.85 536.91 231.95"/><path class="cls-16" d="M532.45,170.19l-62.26.47q.58,3.06,1.22,6.1l59.91-.45Q531.92,173.26,532.45,170.19Z"/><path class="cls-16" d="M529.92,183l-57,.43q.74,3.08,1.54,6.09l54-.41Q529.23,186.13,529.92,183Z"/><rect class="cls-22" x="492.11" y="229.42" width="19.35" height="6.04" transform="translate(-1.73 3.77) rotate(-0.43)"/><rect class="cls-23" x="492.71" y="230.08" width="18.15" height="4.67" rx="1.35" ry="1.35" transform="translate(-1.73 3.77) rotate(-0.43)"/><rect class="cls-22" x="493.23" y="230.55" width="17.11" height="3.83" rx="1.1" ry="1.1" transform="translate(-1.73 3.77) rotate(-0.43)"/><rect class="cls-22" x="498.62" y="194.28" width="6.35" height="75.72" transform="translate(-1.73 3.77) rotate(-0.43)"/><rect class="cls-22" x="498.42" y="194.29" width="6.35" height="20.26" transform="translate(-1.52 3.77) rotate(-0.43)"/><rect class="cls-23" x="499.12" y="194.96" width="4.92" height="19" rx="1.42" ry="1.42" transform="translate(-1.52 3.77) rotate(-0.43)"/><rect class="cls-23" x="499.4" y="215.51" width="4.92" height="53.75" rx="1.42" ry="1.42" transform="translate(-1.8 3.77) rotate(-0.43)"/><rect class="cls-23" x="498.49" y="214.3" width="6.35" height="0.49" rx="0.14" ry="0.14" transform="translate(-1.6 3.77) rotate(-0.43)"/><rect class="cls-24" width="998" height="508"/></g></g></svg>