<svg xmlns="http://www.w3.org/2000/svg" xmlns:xlink="http://www.w3.org/1999/xlink" viewBox="0 0 999.37 508"><defs><style>.cls-1,.cls-2{fill:none;}.cls-1{stroke:#117a05;stroke-miterlimit:10;stroke-width:2px;}.cls-3{fill:#fff;}.cls-4{fill:url(#linear-gradient);}.cls-5{fill:url(#linear-gradient-2);}.cls-6{fill:url(#linear-gradient-3);}.cls-7{fill:url(#linear-gradient-4);}.cls-8{fill:#e6e7e8;}.cls-9{fill:url(#linear-gradient-5);}.cls-10{fill:url(#linear-gradient-6);}.cls-11{fill:#6ac9d4;}.cls-12{fill:#585b57;}</style><linearGradient id="linear-gradient" x1="-358.1" y1="460.77" x2="-331.2" y2="460.77" gradientTransform="matrix(-1, 0, 0, 1, -128.45, -176.91)" gradientUnits="userSpaceOnUse"><stop offset="0" stop-color="#d5d5d5"/><stop offset="0.51" stop-color="#f2f2f2"/><stop offset="1" stop-color="#b6b6b6"/></linearGradient><linearGradient id="linear-gradient-2" x1="-416.17" y1="432.46" x2="-389.27" y2="432.46" gradientTransform="matrix(-1, 0, 0, 1, -155.21, -205.11)" xlink:href="#linear-gradient"/><linearGradient id="linear-gradient-3" x1="-585.88" y1="460.77" x2="-558.98" y2="460.77" gradientTransform="matrix(1, 0, 0, -1, 975.19, 613.93)" xlink:href="#linear-gradient"/><linearGradient id="linear-gradient-4" x1="-527.81" y1="432.46" x2="-500.91" y2="432.46" gradientTransform="matrix(1, 0, 0, -1, 853.31, 595.75)" xlink:href="#linear-gradient"/><linearGradient id="linear-gradient-5" x1="-477.69" y1="450.26" x2="-431.52" y2="450.26" gradientTransform="matrix(-0.82, 0.57, 0.57, 0.82, -330.45, 104.24)" gradientUnits="userSpaceOnUse"><stop offset="0" stop-color="#f2f2f2"/><stop offset="1" stop-color="#b6b6b6"/></linearGradient><linearGradient id="linear-gradient-6" x1="-460.66" y1="577.11" x2="-449.55" y2="577.11" gradientTransform="matrix(1, 0, 0, -1, 828.53, 892.88)" xlink:href="#linear-gradient"/></defs><title>Radar_Avion_2a</title><g id="Capa_2" data-name="Capa 2"><g id="Arte"><path class="cls-1" d="M153.91,496.78c0-187.91,155.12-340.25,346.46-340.25S846.83,308.87,846.83,496.78"/><path class="cls-1" d="M233,499.46c0-145,119.7-262.55,267.35-262.55S767.72,354.45,767.72,499.46"/><path class="cls-1" d="M317,500.89c0-99.44,82.09-180.06,183.34-180.06s183.34,80.61,183.34,180.06"/><line class="cls-1" x1="500.37" y1="499.79" x2="1.37" y2="499.79"/><line class="cls-1" x1="500.36" y1="499.78" x2="147.52" y2="147.01"/><line class="cls-1" x1="500.37" y1="499.79" x2="500.37" y2="0.89"/><line class="cls-1" x1="500.37" y1="499.78" x2="853.22" y2="147.01"/><line class="cls-1" x1="500.37" y1="499.79" x2="999.37" y2="499.79"/><rect class="cls-2" width="998" height="508"/><path class="cls-3" d="M431.8,293.93c-3.92-.39-61.69-5.71-61.69-5.71l14.19,20.72s43.58-6.22,48.93-7S435.66,294.31,431.8,293.93Z"/><path class="cls-3" d="M332.14,363.75c1-3.81,15.7-59.93,15.7-59.93l14.63,20.41s-20.73,38.83-23.33,43.58S331.17,367.51,332.14,363.75Z"/><rect class="cls-4" x="202.75" y="263.23" width="26.9" height="41.27" rx="10.93" ry="10.93" transform="translate(-123.74 175.43) rotate(-35.01)"/><rect class="cls-5" x="234.06" y="206.72" width="26.9" height="41.27" rx="10.93" ry="10.93" transform="translate(-85.65 183.17) rotate(-35.01)"/><rect class="cls-6" x="389.31" y="132.53" width="26.9" height="41.27" rx="10.93" ry="10.93" transform="translate(820.5 47.51) rotate(144.99)"/><rect class="cls-7" x="325.5" y="142.66" width="26.9" height="41.27" rx="10.93" ry="10.93" transform="translate(710.25 102.54) rotate(144.99)"/><path class="cls-8" d="M452.28,150.95c-10.1,1.11-159,18.62-159,18.62l39.13,56.36S443.37,180.73,457,175,462.24,149.85,452.28,150.95Z"/><path class="cls-3" d="M190.76,334.16c4.49-9.12,71.81-143.08,71.81-143.08l39.6,56s-80.38,88.85-90.43,99.7S186.33,343.15,190.76,334.16Z"/><path class="cls-9" d="M222.68,141.71c-6.83-9.75-11.07-35.66-1.49-42.37h0c9.58-6.71,32.48,6.13,39.31,15.88l2.17,3.22h0L378.28,289.7c6.71,9.58,10.56,28.58,1,35.29h0c-9.58,6.71-26.12-3.4-32.83-13L225,144.84h0Z"/><rect class="cls-10" x="367.86" y="292.91" width="11.11" height="45.71" rx="5.56" ry="5.56" transform="translate(860.44 360.13) rotate(144.99)"/><path class="cls-11" d="M215.6,116.84,365.1,326a37.82,37.82,0,0,1-10.51-5.69L217.11,128A58.45,58.45,0,0,1,215.6,116.84Z"/><path class="cls-11" d="M384.92,308,237.48,99.08a37.62,37.62,0,0,1,10.41,5.72L383.48,296.92A58.13,58.13,0,0,1,384.92,308Z"/><path class="cls-12" d="M226.58,107h0c7.91-5.54,26.62,4.78,32.16,12.69l1.76,2.61-3.1,2.18c-7.6-6.09-18.5-11.19-23.51-7.68h0c-5,3.51-3.94,15.5-.81,24.72l-3.71,2.6-1.85-2.55C222,133.69,218.67,112.58,226.58,107Z"/></g></g></svg>