<svg xmlns="http://www.w3.org/2000/svg" xmlns:xlink="http://www.w3.org/1999/xlink" viewBox="0 0 644.44 371"><defs><style>.cls-1{fill:none;}.cls-2{fill:url(#linear-gradient);}.cls-3{fill:#f9a0c0;}.cls-4{fill:#c64a5f;}.cls-5{fill:#dd5f6f;}.cls-6{fill:url(#linear-gradient-2);}.cls-7{fill:#931b5d;}.cls-8{fill:url(#linear-gradient-3);}.cls-9{fill:url(#linear-gradient-4);}.cls-10{fill:url(#linear-gradient-5);}.cls-11{fill:url(#linear-gradient-6);}.cls-12{fill:#cc3a7c;}.cls-13{fill:#b73074;}.cls-14{fill:url(#linear-gradient-7);}.cls-15{fill:url(#linear-gradient-8);}.cls-16{fill:#dd8ed2;}.cls-17{fill:#ff888d;}.cls-18{fill:url(#linear-gradient-9);}.cls-19{fill:#fcaeb4;}.cls-20{fill:url(#linear-gradient-10);}.cls-21{fill:#c2da57;}.cls-22{fill:#8eaa1c;}.cls-23{fill:url(#linear-gradient-11);}.cls-24{fill:url(#linear-gradient-12);}.cls-25{fill:url(#linear-gradient-13);}.cls-26{fill:url(#linear-gradient-14);}.cls-27{fill:#aeba3f;}.cls-28{fill:#ede60a;}</style><linearGradient id="linear-gradient" x1="270.49" y1="98.01" x2="270.49" y2="175.86" gradientUnits="userSpaceOnUse"><stop offset="0.33" stop-color="#f9a0c0"/><stop offset="1" stop-color="#fff"/></linearGradient><linearGradient id="linear-gradient-2" x1="353.32" y1="65.09" x2="353.32" y2="118.62" xlink:href="#linear-gradient"/><linearGradient id="linear-gradient-3" x1="276.39" y1="167.74" x2="260.7" y2="170.44" gradientUnits="userSpaceOnUse"><stop offset="0" stop-color="#c64a5f"/><stop offset="0.99" stop-color="#82313e"/></linearGradient><linearGradient id="linear-gradient-4" x1="382.05" y1="166.75" x2="393.82" y2="168.47" xlink:href="#linear-gradient-3"/><linearGradient id="linear-gradient-5" x1="327.7" y1="63.44" x2="327.7" y2="177.49" gradientUnits="userSpaceOnUse"><stop offset="0" stop-color="#ff888d"/><stop offset="1" stop-color="#c64a5f"/></linearGradient><linearGradient id="linear-gradient-6" x1="327.12" y1="69.69" x2="327.12" y2="147.33" gradientUnits="userSpaceOnUse"><stop offset="0" stop-color="#ffb3b6"/><stop offset="1" stop-color="#ff888d"/></linearGradient><linearGradient id="linear-gradient-7" x1="328.93" y1="202.83" x2="328.93" y2="176.22" gradientUnits="userSpaceOnUse"><stop offset="0" stop-color="#dd5f6f"/><stop offset="0.99" stop-color="#82313e"/></linearGradient><linearGradient id="linear-gradient-8" x1="332.28" y1="214.07" x2="332.28" y2="185.35" gradientUnits="userSpaceOnUse"><stop offset="0" stop-color="#ba455f"/><stop offset="0.99" stop-color="#82313e"/></linearGradient><linearGradient id="linear-gradient-9" x1="249.88" y1="143.76" x2="223.4" y2="180.72" gradientUnits="userSpaceOnUse"><stop offset="0" stop-color="#ff888d"/><stop offset="0.91" stop-color="#dd5f6f"/></linearGradient><linearGradient id="linear-gradient-10" x1="413.41" y1="141.18" x2="433.27" y2="183.65" xlink:href="#linear-gradient-9"/><linearGradient id="linear-gradient-11" x1="158.15" y1="281.3" x2="185.65" y2="317.71" gradientUnits="userSpaceOnUse"><stop offset="0" stop-color="#efadbb"/><stop offset="1" stop-color="#ef4c7c"/></linearGradient><linearGradient id="linear-gradient-12" x1="173.52" y1="302.5" x2="184.36" y2="324.2" gradientTransform="translate(284.67 -27.05) rotate(48.88)" gradientUnits="userSpaceOnUse"><stop offset="0" stop-color="#fcdc54"/><stop offset="0.91" stop-color="#ffaf18"/></linearGradient><linearGradient id="linear-gradient-13" x1="1518.46" y1="-1878.56" x2="1540.39" y2="-1849.54" gradientTransform="matrix(0.81, 0.58, -0.58, 0.81, -1833.9, 932.08)" xlink:href="#linear-gradient-11"/><linearGradient id="linear-gradient-14" x1="1530.72" y1="-1861.66" x2="1539.36" y2="-1844.37" gradientTransform="matrix(0.66, 0.75, -0.75, 0.66, -1915.64, 378.9)" xlink:href="#linear-gradient-12"/></defs><title>Resultado_unicornio_crash</title><g id="Capa_2" data-name="Capa 2"><g id="Arte"><rect class="cls-1" y="0.37" width="644.44" height="370.55"/><polygon class="cls-2" points="250.02 97.89 250.75 211.41 290.96 214.1 284.59 97.4 250.02 97.89"/><path class="cls-3" d="M291.78,81l-23.4-1.84v-.28l-1.73.14-1.84-.14v.29L243.15,81s-.49,7.44,3.93,19.22H287.7C292.4,88.45,291.78,81,291.78,81Z"/><polygon class="cls-4" points="248.67 80.97 249.28 88.08 253.21 87.96 253.82 81.34 248.67 80.97"/><polygon class="cls-5" points="264.49 80.97 265.1 88.08 269.02 87.96 269.63 81.34 264.49 80.97"/><polygon class="cls-4" points="281.4 80.97 282.02 88.08 285.94 87.96 286.55 81.34 281.4 80.97"/><path class="cls-5" d="M293.42,81.21C279.25,70.12,270.2,39.15,269,35v-.23H269l-.07-.24-1.53.12-1.53-.12-.07.24h-.06V35c-1.17,4.18-10.22,35.14-24.38,46.22,0,0,15.8.68,26,.49C277.62,81.89,293.42,81.21,293.42,81.21Z"/><circle class="cls-5" cx="267.4" cy="32.82" r="4.14"/><polygon class="cls-6" points="344.4 52.75 344.73 120.51 362.23 122.29 359.45 52.42 344.4 52.75"/><path class="cls-3" d="M362.51,41.54l-10.27-1.17v-.18l-.69.09-.74-.09v.19l-9.41,1.16a49.59,49.59,0,0,0,1.73,12.66h17.68A42.73,42.73,0,0,0,362.51,41.54Z"/><path class="cls-5" d="M363.3,41.72c-6.17-7.33-9.74-35.9-10.25-38.65V2.91h0l0-.16-.67.08-.67-.08,0,.16h0v.15c-.51,2.76-4.81,31.32-11,38.65,0,0,6.88.45,11.34.33C356.42,42.17,363.3,41.72,363.3,41.72Z"/><path class="cls-5" d="M347.85,28.87c-2,.55-5.27-.24-5.27-.24l.12,10.54S349.3,31.35,347.85,28.87Z"/><path class="cls-5" d="M355.81,28.87c2.14.64,5.27-.24,5.27-.24L361,39.17S354.36,31.35,355.81,28.87Z"/><circle class="cls-5" cx="352.54" cy="1.93" r="1.93"/><path class="cls-5" d="M350.46,50.09v-6s-2.16-.1-2.9.92-.06,5.09-.06,5.09Z"/><path class="cls-5" d="M352.6,50.09v-6s2.18-.1,2.93.92.08,5.09.08,5.09Z"/><path class="cls-5" d="M353.17,64.84q0-.21,0-.43c0-2.46-.56-4.46-1.24-4.46s-1.24,2-1.24,4.46c0,.17,0,.35,0,.51C351.52,64.87,352.35,64.84,353.17,64.84Z"/><path class="cls-5" d="M353.36,79.46q0-.21,0-.43c0-2.46-.56-4.46-1.24-4.46s-1.24,2-1.24,4.46c0,.17,0,.35,0,.51C351.71,79.49,352.53,79.46,353.36,79.46Z"/><path class="cls-5" d="M353.45,93.89q0-.21,0-.43c0-2.46-.56-4.46-1.24-4.46S351,91,351,93.46c0,.17,0,.35,0,.51C351.8,93.92,352.62,93.9,353.45,93.89Z"/><path class="cls-7" d="M246,178.92s2.57,37.51,3.68,37.88,32-4.41,32-4.41l-1.84-38.62Z"/><polygon class="cls-8" points="279.8 156.49 250.38 165.31 239.35 182.97 279.8 177.82 279.8 156.49"/><path class="cls-7" d="M406,177.45s-2.4,37.51-3.42,37.88-29.77-4.41-29.77-4.41l1.71-38.62Z"/><polygon class="cls-9" points="374.72 155.02 402.02 163.84 412.32 181.5 374.72 176.35 374.72 155.02"/><polygon class="cls-4" points="279.44 116.82 292.31 116.82 291.76 118.63 280.36 121.4 279.44 116.82"/><path class="cls-4" d="M284.63,126.42c-1.05-2.68-7.47-19.34-7.88-29.51H275c-.41,10-6.8,26.14-8.1,29.32C272.78,126.23,278.72,126.36,284.63,126.42Z"/><path class="cls-4" d="M387.4,126.31c-1.19-2.93-7.72-19.36-8.14-29.42h-1.8c-.41,10.19-6.92,26.91-8,29.53C375.46,126.3,381.43,126.28,387.4,126.31Z"/><polygon class="cls-4" points="374.75 116.82 361.82 116.82 362.38 118.62 373.83 121.4 374.75 116.82"/><path class="cls-10" d="M385.29,126.11l-14,.29c-6.16-5.68-36.06-53.69-40.85-61.41q-3.19.06-6.39.07c-5.48,8.94-34.07,55.39-40,61l-13.85-.29s-1.1,4.26,2.58,5.49c0,0-2,6.13,4.17,6.13l1,79.44,45.74-2.27,53.87,2.64,1-79.44c6.21,0,4.22-6.13,4.22-6.13C386.4,130.37,385.29,126.11,385.29,126.11Z"/><path class="cls-11" d="M370.79,154.11c.24-14-5.7-14.91-5.7-14.91V123.42h-5.53v-7.67H354v-8.21h-5.53V99.87h-5.35V91.3h-5.89V83.63h-5.89V76.32h-8.92v7.32h-5.89V91.3H311v8.56h-5.53v7.67H300v8.21h-5.53v7.67h-5.35V139.2s-5.92.94-5.68,14.91,0,65.3,0,65.3h87.51S370.55,168.09,370.79,154.11Z"/><path class="cls-7" d="M325.83,115.66V101.32s-3.09-.24-4.07,2.21,0,12.26,0,12.26Z"/><path class="cls-12" d="M328,115.66V101.32s3.08-.24,4.09,2.21,0,12.26,0,12.26Z"/><path class="cls-7" d="M296,174.51V160.16s-3.09-.24-4.07,2.21,0,12.26,0,12.26Z"/><path class="cls-12" d="M298.18,174.51V160.16s3.09-.24,4.09,2.21,0,12.26,0,12.26Z"/><path class="cls-12" d="M325.48,174.51V160.16s-3.1-.24-4.08,2.21,0,12.26,0,12.26Z"/><path class="cls-7" d="M327.62,174.51V160.16s3.08-.24,4.08,2.21,0,12.26,0,12.26Z"/><path class="cls-12" d="M354.92,174.51V160.16s-3.11-.24-4.09,2.21,0,12.26,0,12.26Z"/><path class="cls-7" d="M357.06,174.51V160.16s3.07-.24,4.07,2.21,0,12.26,0,12.26Z"/><path class="cls-7" d="M291.94,153.93h21v-3.39H292C292,152.5,291.94,153.93,291.94,153.93Z"/><path class="cls-13" d="M303.63,128.29c-6.87-.25-11.54,8.55-11.54,10.27,0,1.17-.08,7.88-.11,12h21v-11.7S310.5,128.54,303.63,128.29Z"/><path class="cls-7" d="M316.4,153.93h20.85v-3.39H316.42C316.41,152.5,316.4,153.93,316.4,153.93Z"/><path class="cls-13" d="M328,128.29c-6.87-.25-11.5,8.55-11.5,10.27,0,1.17-.05,7.88-.08,12h20.83v-11.7S334.86,128.54,328,128.29Z"/><path class="cls-7" d="M340.89,150.54c0,2,0,3.39,0,3.39h21v-3.39Z"/><path class="cls-13" d="M361.87,138.83s-2.48-10.3-9.34-10.54S341,136.84,341,138.56c0,1.17-.07,7.88-.11,12h21Z"/><circle class="cls-7" cx="314.72" cy="127.4" r="2.91"/><circle class="cls-7" cx="339.36" cy="128.14" r="2.91"/><circle class="cls-4" cx="326.84" cy="71.3" r="1.43"/><path class="cls-14" d="M399.3,196.1c-3.63-.39-7.35-.77-11.13-1l-.61,9.14-7.17.36-1.18-10.1q-4.73-.24-9.54-.4l-.56,8.4-7.17.37-1-9q-4.8-.08-9.6-.08l-.64,9.54-7.17.37-1.15-9.85q-4.81.06-9.54.18l-.59,8.88-7.17.37-1-9q-4.9.17-9.62.39l-.61,9.09-7.17.37-1.05-9c-3.32.18-6.54.37-9.63.57l-.6,8.93-7.17.37-1-8.7c-3.48.25-6.74.51-9.73.75l-.53,8-7.17.37-.89-7.63c-7.4.67-11.74,1.25-11.74,1.25l.32,14.74,143.41-4.67Z"/><polygon class="cls-15" points="407.18 264.55 400.8 209.06 257.38 213.72 258.48 264.55 407.18 264.55"/><path class="cls-12" d="M222.35,127l3.5.74.18-2.41L223,124l.28-1.45,2.82,1.93.06-1.23s-5.45-5.24-10.79-3.56-2.3,7.12-6.91,6.81-8.47,1.61-10.25,4c0,0,4.91-.77,7.74,2s11.21,2.83,11.52.11,5.61-2.5,8.33-1.66l-.06-1.49-3.42-.49Z"/><polygon class="cls-16" points="229.18 167.64 226.36 120.51 225.5 120.45 224.94 168.01 229.18 167.64"/><circle class="cls-16" cx="225.93" cy="119.89" r="1.29"/><path class="cls-17" d="M202.64,193.29s-21.27,52.52-13.91,71.26h73.43L259,191.77Z"/><path class="cls-18" d="M258.92,148.35l-.7,8.54-8.34-.1.54-9c-3.87-.16-7.61-.16-11.21,0l0,9.25-8.32.53-.15-9.22c-3.57.34-7,.8-10.17,1.34l.68,9.2L212.94,160l-.84-8.73c-3.49.8-6.63,1.66-9.41,2.5l1.72,9.69-8.09,2-1.78-8.92c-3.6,1.38-5.57,2.37-5.57,2.37l8.83,35.8L265,192.53l4.66-42.66C266,149.2,262.41,148.71,258.92,148.35Z"/><path class="cls-13" d="M218.54,199.51a1.53,1.53,0,0,0-.51-.17c-3.86-.55-3.13,14.9-3.13,14.9H217C216.39,205.31,217.6,201.29,218.54,199.51Z"/><path class="cls-7" d="M218.54,199.51c-.94,1.78-2.15,5.8-1.55,14.72h3.24S221.73,201.23,218.54,199.51Z"/><path class="cls-13" d="M227.14,199.6a1.55,1.55,0,0,0-.66-.26c-3.86-.55-3.13,14.9-3.13,14.9h2.49C225.24,205.85,226.24,201.61,227.14,199.6Z"/><path class="cls-7" d="M227.14,199.6c-.91,2-1.91,6.25-1.3,14.64h2.84S230.14,201.63,227.14,199.6Z"/><path class="cls-4" d="M195.25,170.48c-2.29,3.14,2.5,3.12,4.26,2.92,2.33-.26,5.1-.19,7-1.75,3.17-2.67-.8-4.47-3.39-4C200.75,168.13,196.75,168.42,195.25,170.48Z"/><path class="cls-4" d="M202.05,175c-.46,1.71,2.36,1.9,3.5,1.87,1.53-.05,5-.62,6-2.09,1.45-2.3-2.6-1.93-3.74-1.78C206.36,173.14,202.53,173.21,202.05,175Z"/><path class="cls-4" d="M214.5,169.14c2.78-2.64-3.86-3.31-5.26-2C206.39,169.87,212.71,170.84,214.5,169.14Z"/><path class="cls-4" d="M253.48,184.59c-1.42,2.32,1.59,2.73,3.15,2.79,1.89.08,6.14,1.19,7.57-.51C267.25,183.26,255.48,181.33,253.48,184.59Z"/><path class="cls-4" d="M248.79,182c-1.91-.84-.84-2.22.63-2.71a13.5,13.5,0,0,1,6.73-.24c2.27.68,1.52,3-.4,3.27S250.46,182.7,248.79,182Z"/><path class="cls-4" d="M245.9,187.14c1.75.93,7.36-1.21,5-2.8C249.41,183.39,242.69,185.43,245.9,187.14Z"/><path class="cls-19" d="M190.44,245.36c.22,3.3,4.34,2.45,6.75,2.45,2.66,0,5.81.62,6.71-2.21.59-1.87,2.09-6.85-.2-8-1.68-.82-4.48-.18-6.23-.12-1.56.05-4.73,0-6,1.18C190.1,240,190.32,243.61,190.44,245.36Z"/><path class="cls-19" d="M206.25,242.91c-.33,1.6-1.39,4.12.2,4.9s4.31,0,5.94-.33c1.09-.21,3-.16,3.92-.79,1.83-1.24.86-4.36-.89-5.21-2.33-1.13-6.06-.34-8.43.09Z"/><path class="cls-19" d="M198.31,252c.49,4.26,4.73,3.31,8,3.19,2.53-.09,5.81-.91,4.66-4.29-1-2.83-4.8-1.23-7-1.86S197.92,248.61,198.31,252Z"/><path class="cls-19" d="M210.76,238c1.15-2.14-3.78-3.36-4.66-1.7C204.84,238.67,209.48,240.37,210.76,238Z"/><path class="cls-19" d="M228.45,215.55c1.17,0,5.69,0,2.7,1.62-2.17,1.21-6.35.71-8.75.61-1.56-.06-5.4.44-5.92-1.59C219.8,214.58,224.85,215.69,228.45,215.55Z"/><path class="cls-19" d="M214.84,215.7c.36,1.85-3.83,2-4.65,1.07-1.58-1.8,3.63-1.26,4.29-1.19Z"/><path class="cls-17" d="M321,217c-12.59,1.33-18,11.25-20.15,21.7,3.85.25,11.46.27,9.33-3.61,0,0,3.08,2.7,1.12,5.15a8.26,8.26,0,0,1,4.06,2,11.55,11.55,0,0,1-4.06,1.92c2,2.45-1.12,5.1-1.12,5.1,2.33-4.26-7-3.8-10.32-3.51a86.89,86.89,0,0,0,.55,18.93l25.25.09-3.34-47.82C321.88,216.91,321.44,216.94,321,217Z"/><path class="cls-17" d="M352.26,264.8a110.24,110.24,0,0,0-3.48-19.45c-2.87-.28-12.71-.93-10.36,3.48,0,0-3-2.65-1.09-5.1a11.09,11.09,0,0,1-4-1.92,7.94,7.94,0,0,1,4-2c-1.91-2.45,1.09-5.15,1.09-5.15-1.9,3.57,4.19,3.84,8.1,3.67-4.2-11.17-11.36-21.6-23.42-21.5l4.37,47.84Z"/><path class="cls-19" d="M310.18,249.2s3.08-2.65,1.12-5.1a11.55,11.55,0,0,0,4.06-1.92,8.26,8.26,0,0,0-4.06-2c2-2.45-1.12-5.15-1.12-5.15,2.13,3.89-5.48,3.86-9.33,3.61a60.72,60.72,0,0,0-1,7C303.15,245.4,312.51,244.93,310.18,249.2Z"/><path class="cls-19" d="M338.42,234.7s-3,2.7-1.09,5.15a7.94,7.94,0,0,0-4,2,11.09,11.09,0,0,0,4,1.92c-1.91,2.45,1.09,5.1,1.09,5.1-2.35-4.41,7.49-3.76,10.36-3.48-.63-2.3-1.38-4.65-2.26-7C342.61,238.54,336.52,238.27,338.42,234.7Z"/><path class="cls-19" d="M323.1,216.87h-.78l3.34,47.82h1.81Z"/><path class="cls-5" d="M261.6,218.27c2.74.15,5.66-.17,8.46-.18,1.81,0,2.39-.26,2.94,1.47a14.19,14.19,0,0,1,.16,4,90.92,90.92,0,0,1-11.16.18c-.52-1.5-.22-3.49-.22-5.12Z"/><path class="cls-5" d="M269.47,226.18c-1.37,3.05,1,3.94,3.35,4,1.25.05,2.56.06,3.81,0,1.9-.1,1.88.11,2.44-1.47C280.9,223.58,270.77,223.28,269.47,226.18Z"/><path class="cls-5" d="M274.32,223.39c1.2-.13,2.37-.49,3.62-.55.19,0-.72-3-1.75-3.16C274,219.33,274.45,222,274.32,223.39Z"/><path class="cls-5" d="M267.09,238.71a25.63,25.63,0,0,1-.16,4.76c-.25,2-.17,2.59-2.2,2.19-2.21-.43-2.41-2.61-2.33-4.49,0-1.09-.09-1.75.75-2.31C263.42,238.7,267.11,238.91,267.09,238.71Z"/><path class="cls-5" d="M270.44,235c-.31-2.33-5.86-2.14-6.27.13C263.56,238.48,270.85,238.1,270.44,235Z"/><path class="cls-5" d="M262.34,233.17a2.09,2.09,0,0,0,2.76-1.1c.44-1.18-.37-4-2.1-3.64C261.61,228.7,261.1,232.5,262.34,233.17Z"/><path class="cls-5" d="M387.52,249.35c-1.79,0-4,.54-4.74-.92s.23-4-.17-5.49c2.63-.54,9.5-1.81,11,1.23C396,249.14,390.5,249.35,387.52,249.35Z"/><path class="cls-5" d="M389.62,251.22c-.12,2-.07,3.31.87,3.92a5.27,5.27,0,0,0,3.12.43c.57,0,0-3-.31-3.4C392.46,251.14,390.81,251.13,389.62,251.22Z"/><path class="cls-5" d="M392.16,257.95c-1.47-.71-4.63-.61-6.22-.14-.12,3.14.38,3,3.45,3,3.71,0,3,.17,3.88-2.86Z"/><path class="cls-12" d="M428.43,128.08l3.44.74.15-2.41-3-1.34.27-1.45,2.82,1.93.06-1.23s-5.45-5.24-10.79-3.56-2.3,7.12-6.91,6.81-8.47,1.61-10.25,4c0,0,4.91-.77,7.74,2s11.21,2.83,11.52.11,5.61-2.5,8.33-1.66v-1.49l-3.36-.49Z"/><polygon class="cls-16" points="435.13 168.75 432.31 121.61 431.45 121.55 430.89 169.11 435.13 168.75"/><circle class="cls-16" cx="431.88" cy="121" r="1.29"/><path class="cls-17" d="M454.4,193.29s21.7,52.52,14.2,71.26H393.67l3.26-72.78Z"/><path class="cls-20" d="M397,148.35l.71,8.54,8.51-.1-.56-9c3.94-.16,7.76-.16,11.44,0l.05,9.25,8.49.53.15-9.22c3.65.34,7.11.8,10.38,1.34l-.7,9.2,8.42,1.19.86-8.73c3.56.8,6.77,1.66,9.6,2.5l-1.75,9.69,8.26,2,1.82-8.92c3.68,1.38,5.68,2.37,5.68,2.37l-9,35.8-68.55-2.21L386,149.87C389.76,149.2,393.4,148.71,397,148.35Z"/><path class="cls-13" d="M438.17,199.51a1.58,1.58,0,0,1,.53-.17c3.94-.55,3.19,14.9,3.19,14.9h-2.14C440.36,205.31,439.13,201.29,438.17,199.51Z"/><path class="cls-7" d="M438.17,199.51c1,1.78,2.19,5.8,1.58,14.72h-3.3S434.92,201.23,438.17,199.51Z"/><path class="cls-13" d="M429.39,199.6a1.61,1.61,0,0,1,.68-.26c3.94-.55,3.19,14.9,3.19,14.9h-2.54C431.34,205.85,430.32,201.61,429.39,199.6Z"/><path class="cls-7" d="M429.39,199.6c.92,2,1.95,6.25,1.33,14.64h-2.9S426.33,201.63,429.39,199.6Z"/><path class="cls-4" d="M461.93,170.48c2.34,3.14-2.55,3.12-4.34,2.92-2.38-.26-5.21-.19-7.1-1.75-3.24-2.67.81-4.47,3.46-4C456.33,168.13,460.4,168.42,461.93,170.48Z"/><path class="cls-4" d="M455,175c.47,1.71-2.41,1.9-3.57,1.87-1.56-.05-5.13-.62-6.07-2.09-1.48-2.3,2.65-1.93,3.82-1.78C450.6,173.14,454.51,173.21,455,175Z"/><path class="cls-4" d="M442.29,169.14c-2.84-2.64,3.94-3.31,5.37-2C450.57,169.87,444.13,170.84,442.29,169.14Z"/><path class="cls-4" d="M402.52,184.59c1.45,2.32-1.63,2.73-3.22,2.79-1.93.08-6.26,1.19-7.73-.51C388.47,183.26,400.48,181.33,402.52,184.59Z"/><path class="cls-4" d="M407.3,182c1.95-.84.85-2.22-.65-2.71a14,14,0,0,0-6.87-.24c-2.32.68-1.55,3,.41,3.27S405.6,182.7,407.3,182Z"/><path class="cls-4" d="M410.26,187.14c-1.79.93-7.51-1.21-5.05-2.8C406.67,183.39,413.53,185.43,410.26,187.14Z"/><path class="cls-19" d="M466.84,245.36c-.22,3.3-4.43,2.45-6.89,2.45-2.71,0-5.93.62-6.84-2.21-.61-1.87-2.13-6.85.21-8,1.72-.82,4.57-.18,6.36-.12,1.59.05,4.83,0,6.09,1.18C467.19,240,467,243.61,466.84,245.36Z"/><path class="cls-19" d="M450.71,242.91c.34,1.6,1.41,4.12-.21,4.9s-4.4,0-6.06-.33c-1.11-.21-3-.16-4-.79-1.87-1.24-.88-4.36.91-5.21,2.37-1.13,6.18-.34,8.61.09Z"/><path class="cls-19" d="M458.81,252c-.5,4.26-4.83,3.31-8.2,3.19-2.58-.09-5.93-.91-4.75-4.29,1-2.83,4.89-1.23,7.11-1.86S459.21,248.61,458.81,252Z"/><path class="cls-19" d="M446.1,238c-1.17-2.14,3.86-3.36,4.75-1.7C452.15,238.67,447.42,240.37,446.1,238Z"/><path class="cls-19" d="M428.06,215.55c-1.19,0-5.8,0-2.75,1.62,2.21,1.21,6.48.71,8.93.61,1.59-.06,5.51.44,6-1.59C436.89,214.58,431.73,215.69,428.06,215.55Z"/><path class="cls-19" d="M442,215.7c-.37,1.85,3.91,2,4.75,1.07,1.62-1.8-3.7-1.26-4.37-1.19Z"/><path class="cls-7" d="M351.48,264.51a111.71,111.71,0,0,0-3.41-18.86c-.67-2.44-1.42-4.77-2.24-6.94-5.25-14-12.83-21.1-22.55-21.1h-.94c-.42,0-.85.05-1.27.1-10.28,1.09-16.85,8.23-19.5,21.2a60.87,60.87,0,0,0-1,6.94,87.77,87.77,0,0,0,.47,18.3l-1.46.2a89.36,89.36,0,0,1-.47-18.63,62.13,62.13,0,0,1,1-7.11c1.24-6.06,3.36-11,6.3-14.63a20.73,20.73,0,0,1,14.49-7.73c.46,0,.91-.08,1.36-.1h1c10.39,0,18.44,7.42,23.92,22.06.83,2.21,1.59,4.59,2.28,7.07a113.2,113.2,0,0,1,3.46,19.12Z"/><path class="cls-21" d="M423.79,259.91H228.69C115.07,255.81,90.54,360.09,89.05,371c24.86-.07,57.08-.06,81.94-.07q76.65,0,153.3,0h4.4q76.25,0,152.5,0,37.1,0,74.2.09C553.91,360.09,536.82,255.81,423.79,259.91Z"/><path class="cls-22" d="M527.05,332.8a6.49,6.49,0,0,1-6.86,1.48,6.92,6.92,0,0,1-4.42-5.48,4.73,4.73,0,0,1,2-4.81,3.76,3.76,0,0,1,4.11-.21,4,4,0,0,1,2,3.61,3,3,0,0,1-2,2.62c-1.29.51-2.15.31-2.8-.67a1,1,0,0,0-.1-.15,1.16,1.16,0,0,1,.06-1.62,1.14,1.14,0,0,1,1.62.06,2.63,2.63,0,0,1,.24.3l.14-.05c.5-.2.58-.47.59-.66a1.76,1.76,0,0,0-.89-1.46,1.5,1.5,0,0,0-1.69.13,2.49,2.49,0,0,0-1,2.58,4.67,4.67,0,0,0,2.83,3.63c3.07.94,4.61-.58,5.35-2,1.4-2.69,1-7.23-1.81-9.44-3.28-2.57-6.81-3.12-10.2-1.58-5.35,2.42-9.68,9.59-10.08,16.68-.16,2.9.28,8.2,5.07,11a1.14,1.14,0,1,1-1.17,2c-4.32-2.56-6.51-7.23-6.19-13.14.44-7.88,5.35-15.89,11.42-18.64,2.94-1.33,7.51-2.09,12.56,1.87,3.75,2.94,4.28,8.74,2.42,12.3A7.23,7.23,0,0,1,527.05,332.8Z"/><path class="cls-23" d="M175.51,288.35c-1.39-.74-1.34-1.47-2.87-.73a4.47,4.47,0,0,0-2.21,2.57c-.76,2.24,0,5.08.75,7.16v0a2.41,2.41,0,0,0-.73.57l-.1.13a20.85,20.85,0,0,0-5.57-3.44c-.9-.4-2.26-.82-3.18-.18-1.09.75-.67,1.92-1.16,3-.64,1.44-1.36,1.45-.52,2.92a4.47,4.47,0,0,0,2.72,2c2.29.59,5.07-.35,7.09-1.27l.52-.24a2.41,2.41,0,0,0,.22.29,20.47,20.47,0,0,0-4.37,5.1c-.53.83-1.14,2.12-.65,3.12.58,1.19,1.8.95,2.81,1.59,1.33.84,1.23,1.56,2.81.95a4.47,4.47,0,0,0,2.39-2.39c.92-2.18.41-5.06-.21-7.2-.05-.18-.1-.35-.15-.51a2.41,2.41,0,0,0,.52-.26,20.56,20.56,0,0,0,5.54,3.72c.89.43,2.23.89,3.18.29,1.11-.71.74-1.9,1.26-3,.69-1.42,1.41-1.4.62-2.9a4.47,4.47,0,0,0-2.65-2.1c-2.24-.66-5,.16-7,1a2.41,2.41,0,0,0-.28-.5,21.12,21.12,0,0,0,3.76-5.22c.47-.87,1-2.2.41-3.16C177.76,288.58,176.57,288.91,175.51,288.35Z"/><circle class="cls-24" cx="172.1" cy="299.66" r="3.54" transform="translate(-166.83 232.25) rotate(-48.88)"/><path class="cls-25" d="M501.94,299.63c-.56-1.12-.19-1.57-1.52-1.81a3.57,3.57,0,0,0-2.62.64c-1.53,1.1-2.37,3.28-2.84,5v0a1.94,1.94,0,0,0-.73,0l-.12,0a16.63,16.63,0,0,0-2-4.81c-.4-.68-1.09-1.58-2-1.59-1.05,0-1.33.93-2.15,1.42-1.08.64-1.56.31-1.69,1.65a3.57,3.57,0,0,0,.83,2.57c1.21,1.45,3.45,2.12,5.19,2.46l.45.08a1.92,1.92,0,0,0,0,.29,16.33,16.33,0,0,0-5.2,1.28c-.73.29-1.72.84-1.87,1.72-.17,1,.73,1.45,1.08,2.34.47,1.16.07,1.58,1.38,1.92a3.56,3.56,0,0,0,2.66-.44c1.61-1,2.61-3.1,3.2-4.77l.14-.4a1.87,1.87,0,0,0,.46.07,16.38,16.38,0,0,0,1.87,5c.38.69,1,1.62,1.93,1.66,1.05.05,1.36-.89,2.2-1.34,1.1-.6,1.57-.25,1.75-1.59a3.57,3.57,0,0,0-.74-2.59c-1.15-1.47-3.32-2.22-5-2.62a1.94,1.94,0,0,0,0-.45,16.82,16.82,0,0,0,4.86-1.64c.71-.35,1.66-1,1.74-1.86C503.29,300.83,502.37,300.48,501.94,299.63Z"/><circle class="cls-26" cx="494.48" cy="305.38" r="2.82" transform="translate(-57.05 122.11) rotate(-13.32)"/><path class="cls-27" d="M261.21,298.29a6.37,6.37,0,0,0-6,3.9,4.82,4.82,0,0,0-.26,2.27c-2.62.58-5.63,1.91-6.5,4.43-.4,1.15-.62,3.42,2.34,5.74,2.18,1.71,5.12,2,7.78,2a24.35,24.35,0,0,0-3.23,3.58c-2.47,3.31-1.95,5.57-1.42,6.62a4.16,4.16,0,0,0,3.84,2.22,5.46,5.46,0,0,0,.57,0,7.46,7.46,0,0,0,.89,4.45,4.4,4.4,0,0,0,3.86,2.09,8.44,8.44,0,0,0,3.93-1.16c2.81-1.49,4.27-4.21,5-7.19a10.64,10.64,0,0,0,3.09,2.64,9.49,9.49,0,0,0,4.51,1.15c2.87,0,5.17-1.35,5.87-3.43a4.19,4.19,0,0,0,.18-1.89,6.22,6.22,0,0,0,3.42-2.79,7.89,7.89,0,0,0-1.81-10.74,10.77,10.77,0,0,0-7-2.22c-.85,0-1.67.05-2.47.11s-1.47.1-2.17.1a8,8,0,0,1-2.55-.34c-1.27-.42-2.22-2.26-3.23-4.21a17.37,17.37,0,0,0-3.93-5.58,7.3,7.3,0,0,0-4.71-1.75Z"/><path class="cls-27" d="M221.11,293.28a4.8,4.8,0,0,0-4.08,2.07,4.3,4.3,0,0,0-.26.46,11,11,0,0,0-2.23-.25c-2.53,0-3.73,1.06-4.3,2s-1,2.4.07,4.66a8.82,8.82,0,0,0,3.71,3.66,20.27,20.27,0,0,0-2.28,1c-3.89,2-3.6,4.56-3.43,5.32a3.73,3.73,0,0,0,1.94,2.43,5.26,5.26,0,0,0-.5,4.05c.37,1.07,1.51,2.87,5.06,2.87h.29a8.17,8.17,0,0,0,5.6-2.63,8,8,0,0,0,1,2.07,7.28,7.28,0,0,0,5.7,3.2,4,4,0,0,0,3.49-1.81,3.79,3.79,0,0,0,.19-.36h.34a5.71,5.71,0,0,0,2.86-.86,6.54,6.54,0,0,0,2.65-8.62c-1.42-3-4-4.08-6-4.94a9.1,9.1,0,0,1-2.95-1.66c-.56-.56-.58-2.1-.6-3.58a13.62,13.62,0,0,0-.81-5.35,6,6,0,0,0-5.46-3.68Z"/><path class="cls-22" d="M448.93,322c-2.48,3.28,1.24,7.56,3.71,4.3-.15,2.62,2.17,8.76,5.1,4.65,2-2.77.2-8.33.81-11.38a13.47,13.47,0,0,0,5.69,7.3c3.84,2.6,5.31-.6,2.35-3.58,2.94,1.25,8.35,1.25,5.55-3.46-2.15-3.62-8.24-3.17-11.81-3,2.83-.09,6.76-2.07,8-4.65,1.7-3.51-.83-8-3.79-3.64.43-2.12.69-3.29-1.31-4.48a4.27,4.27,0,0,0-5.79,1.26c-2.41,3.37-.07,6.91-1,10.34C455.58,318.63,450.92,319.42,448.93,322Z"/><path class="cls-22" d="M188,317.49c-1.52-.2-3.56.44-1.5,1.95-1.08-.42-4.81-.57-4.38,1.54.24,1.15,4.06,1.63,5,2.13-2.36-.11-6,.5-7.07,2.8a4.62,4.62,0,0,0,3.35.56c-1.86.58-4.57,3.15-2.08,4.29,2,.93,5.75-1.61,7.34-2.69-2.75,2.38-1.32,7.2,1,3.38-1.08,1.59-.43,3.92,1.71,2.47.87-.59,2.06-4.05,2.26-5,.51-2.49-1.05-2.18-1.37-3.74s1.48-2.74.82-4.44C192.53,319.33,189.38,317.67,188,317.49Z"/><polygon class="cls-28" points="216.56 94.94 221.79 150.49 254.1 105 230.85 155.72 281.58 132.48 236.09 164.78 291.63 170.01 236.09 175.24 281.58 207.55 230.85 184.3 254.1 235.02 221.79 189.53 216.56 245.08 211.33 189.53 179.03 235.02 202.27 184.3 151.55 207.55 197.04 175.24 141.49 170.01 197.04 164.78 151.55 132.48 202.27 155.72 179.03 105 211.33 150.49 216.56 94.94"/></g></g></svg>