<svg xmlns="http://www.w3.org/2000/svg" xmlns:xlink="http://www.w3.org/1999/xlink" viewBox="0 0 644.44 371"><defs><style>.cls-1{fill:none;}.cls-2{fill:url(#linear-gradient);}.cls-3{fill:#f9a0c0;}.cls-4{fill:#c64a5f;}.cls-5{fill:#dd5f6f;}.cls-6{fill:url(#linear-gradient-2);}.cls-7{fill:#931b5d;}.cls-8{fill:url(#linear-gradient-3);}.cls-9{fill:url(#linear-gradient-4);}.cls-10{fill:url(#linear-gradient-5);}.cls-11{fill:url(#linear-gradient-6);}.cls-12{fill:#cc3a7c;}.cls-13{fill:#b73074;}.cls-14{fill:url(#linear-gradient-7);}.cls-15{fill:url(#linear-gradient-8);}.cls-16{fill:#dd8ed2;}.cls-17{fill:#ff888d;}.cls-18{fill:url(#linear-gradient-9);}.cls-19{fill:#fcaeb4;}.cls-20{fill:url(#linear-gradient-10);}.cls-21{fill:#c2da57;}.cls-22{fill:#8eaa1c;}.cls-23{fill:url(#linear-gradient-11);}.cls-24{fill:url(#linear-gradient-12);}.cls-25{fill:url(#linear-gradient-13);}.cls-26{fill:url(#linear-gradient-14);}.cls-27{fill:#aeba3f;}.cls-28{fill:#4fc4d2;}.cls-29{fill:#02a9c3;}.cls-30{fill:#0f90b0;}.cls-31{fill:#f8e0c7;}.cls-32{fill:#e3c5ad;}.cls-33{fill:#fff;}.cls-34{fill:#b8e3f0;}.cls-35{fill:#eaece5;}.cls-36{fill:#bfbcb1;}.cls-37{fill:#f1cb36;}.cls-38{fill:#43b6b1;}.cls-39{fill:#0f878d;}.cls-40{fill:#2f1e4c;}.cls-41{fill:#0e5f72;}.cls-42{fill:#f7b1b6;}.cls-43{fill:#d7842d;}.cls-44{fill:#ffe429;}.cls-45{fill:#fdc030;}.cls-46{fill:#ffd004;}.cls-47{fill:#ffd33a;}</style><linearGradient id="linear-gradient" x1="340.35" y1="98.01" x2="340.35" y2="175.86" gradientUnits="userSpaceOnUse"><stop offset="0.33" stop-color="#f9a0c0"/><stop offset="1" stop-color="#fff"/></linearGradient><linearGradient id="linear-gradient-2" x1="423.17" y1="65.09" x2="423.17" y2="118.62" xlink:href="#linear-gradient"/><linearGradient id="linear-gradient-3" x1="346.24" y1="167.74" x2="330.55" y2="170.44" gradientUnits="userSpaceOnUse"><stop offset="0" stop-color="#c64a5f"/><stop offset="0.99" stop-color="#82313e"/></linearGradient><linearGradient id="linear-gradient-4" x1="451.9" y1="166.75" x2="463.67" y2="168.47" xlink:href="#linear-gradient-3"/><linearGradient id="linear-gradient-5" x1="397.56" y1="63.44" x2="397.56" y2="177.49" gradientUnits="userSpaceOnUse"><stop offset="0" stop-color="#ff888d"/><stop offset="1" stop-color="#c64a5f"/></linearGradient><linearGradient id="linear-gradient-6" x1="396.98" y1="69.69" x2="396.98" y2="147.33" gradientUnits="userSpaceOnUse"><stop offset="0" stop-color="#ffb3b6"/><stop offset="1" stop-color="#ff888d"/></linearGradient><linearGradient id="linear-gradient-7" x1="398.79" y1="202.83" x2="398.79" y2="176.22" gradientUnits="userSpaceOnUse"><stop offset="0" stop-color="#dd5f6f"/><stop offset="0.99" stop-color="#82313e"/></linearGradient><linearGradient id="linear-gradient-8" x1="402.14" y1="214.07" x2="402.14" y2="185.35" gradientUnits="userSpaceOnUse"><stop offset="0" stop-color="#ba455f"/><stop offset="0.99" stop-color="#82313e"/></linearGradient><linearGradient id="linear-gradient-9" x1="319.73" y1="143.76" x2="293.25" y2="180.72" gradientUnits="userSpaceOnUse"><stop offset="0" stop-color="#ff888d"/><stop offset="0.91" stop-color="#dd5f6f"/></linearGradient><linearGradient id="linear-gradient-10" x1="483.27" y1="141.18" x2="503.13" y2="183.65" xlink:href="#linear-gradient-9"/><linearGradient id="linear-gradient-11" x1="228" y1="281.3" x2="255.5" y2="317.71" gradientUnits="userSpaceOnUse"><stop offset="0" stop-color="#efadbb"/><stop offset="1" stop-color="#ef4c7c"/></linearGradient><linearGradient id="linear-gradient-12" x1="243.37" y1="302.5" x2="254.22" y2="324.2" gradientTransform="translate(308.59 -79.67) rotate(48.88)" gradientUnits="userSpaceOnUse"><stop offset="0" stop-color="#fcdc54"/><stop offset="0.91" stop-color="#ffaf18"/></linearGradient><linearGradient id="linear-gradient-13" x1="1722.68" y1="-1459.65" x2="1744.6" y2="-1430.63" gradientTransform="matrix(0.81, 0.58, -0.58, 0.81, -1686.53, 472.53)" xlink:href="#linear-gradient-11"/><linearGradient id="linear-gradient-14" x1="1734.93" y1="-1442.75" x2="1743.58" y2="-1425.46" gradientTransform="matrix(0.66, 0.75, -0.75, 0.66, -1664.51, -50.44)" xlink:href="#linear-gradient-12"/></defs><title>Resultado_unicornio</title><g id="Capa_2" data-name="Capa 2"><g id="Arte"><rect class="cls-1" y="0.37" width="644.44" height="370.55"/><polygon class="cls-2" points="319.87 97.89 320.61 211.41 360.82 214.1 354.44 97.4 319.87 97.89"/><path class="cls-3" d="M361.64,81l-23.4-1.84v-.28l-1.73.14-1.84-.14v.29L313,81s-.49,7.44,3.93,19.22h40.62C362.25,88.45,361.64,81,361.64,81Z"/><polygon class="cls-4" points="318.52 80.97 319.14 88.08 323.06 87.96 323.67 81.34 318.52 80.97"/><polygon class="cls-5" points="334.34 80.97 334.95 88.08 338.88 87.96 339.49 81.34 334.34 80.97"/><polygon class="cls-4" points="351.26 80.97 351.87 88.08 355.79 87.96 356.4 81.34 351.26 80.97"/><path class="cls-5" d="M363.27,81.21C349.1,70.12,340.05,39.15,338.88,35v-.23h-.06l-.07-.24-1.53.12-1.53-.12-.07.24h-.06V35c-1.17,4.18-10.22,35.14-24.38,46.22,0,0,15.8.68,26,.49C347.47,81.89,363.27,81.21,363.27,81.21Z"/><circle class="cls-5" cx="337.25" cy="32.82" r="4.14"/><polygon class="cls-6" points="414.26 52.75 414.58 120.51 432.08 122.29 429.31 52.42 414.26 52.75"/><path class="cls-3" d="M432.36,41.54l-10.27-1.17v-.18l-.69.09-.74-.09v.19l-9.41,1.16A49.59,49.59,0,0,0,413,54.19h17.68A42.73,42.73,0,0,0,432.36,41.54Z"/><path class="cls-5" d="M433.15,41.72C427,34.39,423.41,5.82,422.9,3.06V2.91h0l0-.16-.67.08-.67-.08,0,.16h0v.15c-.51,2.76-4.81,31.32-11,38.65,0,0,6.88.45,11.34.33C426.27,42.17,433.15,41.72,433.15,41.72Z"/><path class="cls-5" d="M417.7,28.87c-2,.55-5.27-.24-5.27-.24l.12,10.54S419.16,31.35,417.7,28.87Z"/><path class="cls-5" d="M425.67,28.87c2.14.64,5.27-.24,5.27-.24l-.12,10.54S424.21,31.35,425.67,28.87Z"/><circle class="cls-5" cx="422.39" cy="1.93" r="1.93"/><path class="cls-5" d="M420.31,50.09v-6s-2.16-.1-2.9.92-.06,5.09-.06,5.09Z"/><path class="cls-5" d="M422.45,50.09v-6s2.18-.1,2.93.92.08,5.09.08,5.09Z"/><path class="cls-5" d="M423,64.84q0-.21,0-.43c0-2.46-.56-4.46-1.24-4.46s-1.24,2-1.24,4.46c0,.17,0,.35,0,.51C421.38,64.87,422.2,64.84,423,64.84Z"/><path class="cls-5" d="M423.21,79.46q0-.21,0-.43c0-2.46-.56-4.46-1.24-4.46s-1.24,2-1.24,4.46c0,.17,0,.35,0,.51C421.56,79.49,422.39,79.46,423.21,79.46Z"/><path class="cls-5" d="M423.3,93.89q0-.21,0-.43c0-2.46-.56-4.46-1.24-4.46s-1.24,2-1.24,4.46c0,.17,0,.35,0,.51C421.65,93.92,422.48,93.9,423.3,93.89Z"/><path class="cls-7" d="M315.83,178.92s2.57,37.51,3.68,37.88,32-4.41,32-4.41l-1.84-38.62Z"/><polygon class="cls-8" points="349.65 156.49 320.24 165.31 309.2 182.97 349.65 177.82 349.65 156.49"/><path class="cls-7" d="M475.9,177.45s-2.4,37.51-3.42,37.88-29.77-4.41-29.77-4.41l1.71-38.62Z"/><polygon class="cls-9" points="444.57 155.02 471.87 163.84 482.18 181.5 444.57 176.35 444.57 155.02"/><polygon class="cls-4" points="349.3 116.82 362.17 116.82 361.62 118.63 350.21 121.4 349.3 116.82"/><path class="cls-4" d="M354.48,126.42c-1.05-2.68-7.47-19.34-7.88-29.51H344.8c-.41,10-6.8,26.14-8.1,29.32C342.63,126.23,348.57,126.36,354.48,126.42Z"/><path class="cls-4" d="M457.25,126.31c-1.19-2.93-7.72-19.36-8.14-29.42h-1.8c-.41,10.19-6.92,26.91-8,29.53C445.31,126.3,451.28,126.28,457.25,126.31Z"/><polygon class="cls-4" points="444.6 116.82 431.68 116.82 432.23 118.62 443.68 121.4 444.6 116.82"/><path class="cls-10" d="M455.14,126.11l-14,.29C434.95,120.71,405,72.71,400.25,65q-3.19.06-6.39.07c-5.48,8.94-34.07,55.39-40,61L340,125.74s-1.1,4.26,2.58,5.49c0,0-2,6.13,4.17,6.13l1,79.44,45.74-2.27,53.87,2.64,1-79.44c6.21,0,4.22-6.13,4.22-6.13C456.25,130.37,455.14,126.11,455.14,126.11Z"/><path class="cls-11" d="M440.64,154.11c.24-14-5.7-14.91-5.7-14.91V123.42h-5.53v-7.67h-5.53v-8.21h-5.53V99.87H413V91.3h-5.89V83.63h-5.89V76.32H392.3v7.32h-5.89V91.3h-5.53v8.56h-5.53v7.67h-5.53v8.21h-5.53v7.67h-5.35V139.2s-5.92.94-5.68,14.91,0,65.3,0,65.3h87.51S440.4,168.09,440.64,154.11Z"/><path class="cls-7" d="M395.69,115.66V101.32s-3.09-.24-4.07,2.21,0,12.26,0,12.26Z"/><path class="cls-12" d="M397.83,115.66V101.32s3.08-.24,4.09,2.21,0,12.26,0,12.26Z"/><path class="cls-7" d="M365.89,174.51V160.16s-3.09-.24-4.07,2.21,0,12.26,0,12.26Z"/><path class="cls-12" d="M368,174.51V160.16s3.09-.24,4.09,2.21,0,12.26,0,12.26Z"/><path class="cls-12" d="M395.33,174.51V160.16s-3.1-.24-4.08,2.21,0,12.26,0,12.26Z"/><path class="cls-7" d="M397.47,174.51V160.16s3.08-.24,4.08,2.21,0,12.26,0,12.26Z"/><path class="cls-12" d="M424.77,174.51V160.16s-3.11-.24-4.09,2.21,0,12.26,0,12.26Z"/><path class="cls-7" d="M426.91,174.51V160.16s3.07-.24,4.07,2.21,0,12.26,0,12.26Z"/><path class="cls-7" d="M361.8,153.93h21v-3.39h-21C361.81,152.5,361.8,153.93,361.8,153.93Z"/><path class="cls-13" d="M373.48,128.29c-6.87-.25-11.54,8.55-11.54,10.27,0,1.17-.08,7.88-.11,12h21v-11.7S380.35,128.54,373.48,128.29Z"/><path class="cls-7" d="M386.26,153.93h20.85v-3.39H386.27C386.26,152.5,386.26,153.93,386.26,153.93Z"/><path class="cls-13" d="M397.85,128.29c-6.87-.25-11.5,8.55-11.5,10.27,0,1.17-.05,7.88-.08,12h20.83v-11.7S404.71,128.54,397.85,128.29Z"/><path class="cls-7" d="M410.74,150.54c0,2,0,3.39,0,3.39h21v-3.39Z"/><path class="cls-13" d="M431.73,138.83s-2.48-10.3-9.34-10.54-11.54,8.55-11.54,10.27c0,1.17-.07,7.88-.11,12h21Z"/><circle class="cls-7" cx="384.57" cy="127.4" r="2.91"/><circle class="cls-7" cx="409.21" cy="128.14" r="2.91"/><circle class="cls-4" cx="396.69" cy="71.3" r="1.43"/><path class="cls-14" d="M469.16,196.1c-3.63-.39-7.35-.77-11.13-1l-.61,9.14-7.17.36-1.18-10.1q-4.73-.24-9.54-.4l-.56,8.4-7.17.37-1-9q-4.8-.08-9.6-.08l-.64,9.54-7.17.37-1.15-9.85q-4.81.06-9.54.18l-.59,8.88-7.17.37-1-9q-4.9.17-9.62.39l-.61,9.09-7.17.37-1.05-9c-3.32.18-6.54.37-9.63.57l-.6,8.93L358,205l-1-8.7c-3.48.25-6.74.51-9.73.75l-.53,8-7.17.37-.89-7.63c-7.4.67-11.74,1.25-11.74,1.25l.32,14.74,143.41-4.67Z"/><polygon class="cls-15" points="477.03 264.55 470.65 209.06 327.24 213.72 328.33 264.55 477.03 264.55"/><path class="cls-12" d="M292.2,127l3.5.74.18-2.41-3-1.34.28-1.45,2.82,1.93.06-1.23s-5.45-5.24-10.79-3.56-2.3,7.12-6.91,6.81-8.47,1.61-10.25,4c0,0,4.91-.77,7.74,2s11.21,2.83,11.52.11,5.61-2.5,8.33-1.66l-.06-1.49-3.42-.49Z"/><polygon class="cls-16" points="299.04 167.64 296.21 120.51 295.36 120.45 294.79 168.01 299.04 167.64"/><circle class="cls-16" cx="295.78" cy="119.89" r="1.29"/><path class="cls-17" d="M272.49,193.29s-21.27,52.52-13.91,71.26H332l-3.2-72.78Z"/><path class="cls-18" d="M328.77,148.35l-.7,8.54-8.34-.1.54-9c-3.87-.16-7.61-.16-11.21,0l0,9.25-8.32.53-.15-9.22c-3.57.34-7,.8-10.17,1.34l.68,9.2L282.8,160l-.84-8.73c-3.49.8-6.63,1.66-9.41,2.5l1.72,9.69-8.09,2-1.78-8.92c-3.6,1.38-5.57,2.37-5.57,2.37l8.83,35.8,67.18-2.21,4.66-42.66C335.84,149.2,332.27,148.71,328.77,148.35Z"/><path class="cls-13" d="M288.39,199.51a1.53,1.53,0,0,0-.51-.17c-3.86-.55-3.13,14.9-3.13,14.9h2.09C286.25,205.31,287.45,201.29,288.39,199.51Z"/><path class="cls-7" d="M288.39,199.51c-.94,1.78-2.15,5.8-1.55,14.72h3.24S291.58,201.23,288.39,199.51Z"/><path class="cls-13" d="M297,199.6a1.55,1.55,0,0,0-.66-.26c-3.86-.55-3.13,14.9-3.13,14.9h2.49C295.09,205.85,296.09,201.61,297,199.6Z"/><path class="cls-7" d="M297,199.6c-.91,2-1.91,6.25-1.3,14.64h2.84S300,201.63,297,199.6Z"/><path class="cls-4" d="M265.11,170.48c-2.29,3.14,2.5,3.12,4.26,2.92,2.33-.26,5.1-.19,7-1.75,3.17-2.67-.8-4.47-3.39-4C270.6,168.13,266.61,168.42,265.11,170.48Z"/><path class="cls-4" d="M271.91,175c-.46,1.71,2.36,1.9,3.5,1.87,1.53-.05,5-.62,6-2.09,1.45-2.3-2.6-1.93-3.74-1.78C276.22,173.14,272.38,173.21,271.91,175Z"/><path class="cls-4" d="M284.35,169.14c2.78-2.64-3.86-3.31-5.26-2C276.25,169.87,282.56,170.84,284.35,169.14Z"/><path class="cls-4" d="M323.34,184.59c-1.42,2.32,1.59,2.73,3.15,2.79,1.89.08,6.14,1.19,7.57-.51C337.11,183.26,325.33,181.33,323.34,184.59Z"/><path class="cls-4" d="M318.65,182c-1.91-.84-.84-2.22.63-2.71A13.5,13.5,0,0,1,326,179c2.27.68,1.52,3-.4,3.27S320.32,182.7,318.65,182Z"/><path class="cls-4" d="M315.75,187.14c1.75.93,7.36-1.21,5-2.8C319.27,183.39,312.54,185.43,315.75,187.14Z"/><path class="cls-19" d="M260.29,245.36c.22,3.3,4.34,2.45,6.75,2.45,2.66,0,5.81.62,6.71-2.21.59-1.87,2.09-6.85-.2-8-1.68-.82-4.48-.18-6.23-.12-1.56.05-4.73,0-6,1.18C260,240,260.18,243.61,260.29,245.36Z"/><path class="cls-19" d="M276.11,242.91c-.33,1.6-1.39,4.12.2,4.9s4.31,0,5.94-.33c1.09-.21,3-.16,3.92-.79,1.83-1.24.86-4.36-.89-5.21-2.33-1.13-6.06-.34-8.43.09Z"/><path class="cls-19" d="M268.17,252c.49,4.26,4.73,3.31,8,3.19,2.53-.09,5.81-.91,4.66-4.29-1-2.83-4.8-1.23-7-1.86S267.78,248.61,268.17,252Z"/><path class="cls-19" d="M280.62,238c1.15-2.14-3.78-3.36-4.66-1.7C274.7,238.67,279.33,240.37,280.62,238Z"/><path class="cls-19" d="M298.3,215.55c1.17,0,5.69,0,2.7,1.62-2.17,1.21-6.35.71-8.75.61-1.56-.06-5.4.44-5.92-1.59C289.65,214.58,294.71,215.69,298.3,215.55Z"/><path class="cls-19" d="M284.69,215.7c.36,1.85-3.83,2-4.65,1.07-1.58-1.8,3.63-1.26,4.29-1.19Z"/><path class="cls-17" d="M390.85,217c-12.59,1.33-18,11.25-20.15,21.7,3.85.25,11.46.27,9.33-3.61,0,0,3.08,2.7,1.12,5.15a8.26,8.26,0,0,1,4.06,2,11.55,11.55,0,0,1-4.06,1.92c2,2.45-1.12,5.1-1.12,5.1,2.33-4.26-7-3.8-10.32-3.51a86.89,86.89,0,0,0,.55,18.93l25.25.09-3.34-47.82C391.74,216.91,391.3,216.94,390.85,217Z"/><path class="cls-17" d="M422.11,264.8a110.24,110.24,0,0,0-3.48-19.45c-2.87-.28-12.71-.93-10.36,3.48,0,0-3-2.65-1.09-5.1a11.09,11.09,0,0,1-4-1.92,7.94,7.94,0,0,1,4-2c-1.91-2.45,1.09-5.15,1.09-5.15-1.9,3.57,4.19,3.84,8.1,3.67-4.2-11.17-11.36-21.6-23.42-21.5l4.37,47.84Z"/><path class="cls-19" d="M380,249.2s3.08-2.65,1.12-5.1a11.55,11.55,0,0,0,4.06-1.92,8.26,8.26,0,0,0-4.06-2c2-2.45-1.12-5.15-1.12-5.15,2.13,3.89-5.48,3.86-9.33,3.61a60.72,60.72,0,0,0-1,7C373,245.4,382.37,244.93,380,249.2Z"/><path class="cls-19" d="M408.27,234.7s-3,2.7-1.09,5.15a7.94,7.94,0,0,0-4,2,11.09,11.09,0,0,0,4,1.92c-1.91,2.45,1.09,5.1,1.09,5.1-2.35-4.41,7.49-3.76,10.36-3.48-.63-2.3-1.38-4.65-2.26-7C412.47,238.54,406.37,238.27,408.27,234.7Z"/><path class="cls-19" d="M393,216.87h-.78l3.34,47.82h1.81Z"/><path class="cls-5" d="M331.46,218.27c2.74.15,5.66-.17,8.46-.18,1.81,0,2.39-.26,2.94,1.47a14.19,14.19,0,0,1,.16,4,90.92,90.92,0,0,1-11.16.18c-.52-1.5-.22-3.49-.22-5.12Z"/><path class="cls-5" d="M339.32,226.18c-1.37,3.05,1,3.94,3.35,4,1.25.05,2.56.06,3.81,0,1.9-.1,1.88.11,2.44-1.47C350.75,223.58,340.63,223.28,339.32,226.18Z"/><path class="cls-5" d="M344.17,223.39c1.2-.13,2.37-.49,3.62-.55.19,0-.72-3-1.75-3.16C343.85,219.33,344.3,222,344.17,223.39Z"/><path class="cls-5" d="M336.95,238.71a25.63,25.63,0,0,1-.16,4.76c-.25,2-.17,2.59-2.2,2.19-2.21-.43-2.41-2.61-2.33-4.49,0-1.09-.09-1.75.75-2.31C333.27,238.7,337,238.91,336.95,238.71Z"/><path class="cls-5" d="M340.29,235c-.31-2.33-5.86-2.14-6.27.13C333.41,238.48,340.7,238.1,340.29,235Z"/><path class="cls-5" d="M332.19,233.17a2.09,2.09,0,0,0,2.76-1.1c.44-1.18-.37-4-2.1-3.64C331.46,228.7,331,232.5,332.19,233.17Z"/><path class="cls-5" d="M457.38,249.35c-1.79,0-4,.54-4.74-.92s.23-4-.17-5.49c2.63-.54,9.5-1.81,11,1.23C465.87,249.14,460.35,249.35,457.38,249.35Z"/><path class="cls-5" d="M459.47,251.22c-.12,2-.07,3.31.87,3.92a5.27,5.27,0,0,0,3.12.43c.57,0,0-3-.31-3.4C462.31,251.14,460.67,251.13,459.47,251.22Z"/><path class="cls-5" d="M462,257.95c-1.47-.71-4.63-.61-6.22-.14-.12,3.14.38,3,3.45,3,3.71,0,3,.17,3.88-2.86Z"/><path class="cls-12" d="M498.28,128.08l3.44.74.15-2.41-3-1.34.27-1.45,2.82,1.93.06-1.23s-5.45-5.24-10.79-3.56-2.3,7.12-6.91,6.81-8.47,1.61-10.25,4c0,0,4.91-.77,7.74,2s11.21,2.83,11.52.11,5.61-2.5,8.33-1.66v-1.49l-3.36-.49Z"/><polygon class="cls-16" points="504.99 168.75 502.17 121.61 501.31 121.55 500.74 169.11 504.99 168.75"/><circle class="cls-16" cx="501.74" cy="121" r="1.29"/><path class="cls-17" d="M524.25,193.29s21.7,52.52,14.2,71.26H463.52l3.26-72.78Z"/><path class="cls-20" d="M466.82,148.35l.71,8.54,8.51-.1-.56-9c3.94-.16,7.76-.16,11.44,0L487,157l8.49.53.15-9.22c3.65.34,7.11.8,10.38,1.34l-.7,9.2,8.42,1.19.86-8.73c3.56.8,6.77,1.66,9.6,2.5l-1.75,9.69,8.26,2,1.82-8.92c3.68,1.38,5.68,2.37,5.68,2.37l-9,35.8-68.55-2.21-4.75-42.66C459.61,149.2,463.26,148.71,466.82,148.35Z"/><path class="cls-13" d="M508,199.51a1.58,1.58,0,0,1,.53-.17c3.94-.55,3.19,14.9,3.19,14.9h-2.14C510.22,205.31,509,201.29,508,199.51Z"/><path class="cls-7" d="M508,199.51c1,1.78,2.19,5.8,1.58,14.72h-3.3S504.77,201.23,508,199.51Z"/><path class="cls-13" d="M499.25,199.6a1.61,1.61,0,0,1,.68-.26c3.94-.55,3.19,14.9,3.19,14.9h-2.54C501.19,205.85,500.17,201.61,499.25,199.6Z"/><path class="cls-7" d="M499.25,199.6c.92,2,1.95,6.25,1.33,14.64h-2.9S496.19,201.63,499.25,199.6Z"/><path class="cls-4" d="M531.79,170.48c2.34,3.14-2.55,3.12-4.34,2.92-2.38-.26-5.21-.19-7.1-1.75-3.24-2.67.81-4.47,3.46-4C526.18,168.13,530.26,168.42,531.79,170.48Z"/><path class="cls-4" d="M524.85,175c.47,1.71-2.41,1.9-3.57,1.87-1.56-.05-5.13-.62-6.07-2.09-1.48-2.3,2.65-1.93,3.82-1.78C520.45,173.14,524.36,173.21,524.85,175Z"/><path class="cls-4" d="M512.15,169.14c-2.84-2.64,3.94-3.31,5.37-2C520.42,169.87,514,170.84,512.15,169.14Z"/><path class="cls-4" d="M472.37,184.59c1.45,2.32-1.63,2.73-3.22,2.79-1.93.08-6.26,1.19-7.73-.51C458.32,183.26,470.34,181.33,472.37,184.59Z"/><path class="cls-4" d="M477.16,182c1.95-.84.85-2.22-.65-2.71a14,14,0,0,0-6.87-.24c-2.32.68-1.55,3,.41,3.27S475.45,182.7,477.16,182Z"/><path class="cls-4" d="M480.11,187.14c-1.79.93-7.51-1.21-5.05-2.8C476.52,183.39,483.39,185.43,480.11,187.14Z"/><path class="cls-19" d="M536.7,245.36c-.22,3.3-4.43,2.45-6.89,2.45-2.71,0-5.93.62-6.84-2.21-.61-1.87-2.13-6.85.21-8,1.72-.82,4.57-.18,6.36-.12,1.59.05,4.83,0,6.09,1.18C537,240,536.82,243.61,536.7,245.36Z"/><path class="cls-19" d="M520.56,242.91c.34,1.6,1.41,4.12-.21,4.9s-4.4,0-6.06-.33c-1.11-.21-3-.16-4-.79-1.87-1.24-.88-4.36.91-5.21,2.37-1.13,6.18-.34,8.61.09Z"/><path class="cls-19" d="M528.66,252c-.5,4.26-4.83,3.31-8.2,3.19-2.58-.09-5.93-.91-4.75-4.29,1-2.83,4.89-1.23,7.11-1.86S529.06,248.61,528.66,252Z"/><path class="cls-19" d="M516,238c-1.17-2.14,3.86-3.36,4.75-1.7C522,238.67,517.27,240.37,516,238Z"/><path class="cls-19" d="M497.91,215.55c-1.19,0-5.8,0-2.75,1.62,2.21,1.21,6.48.71,8.93.61,1.59-.06,5.51.44,6-1.59C506.74,214.58,501.58,215.69,497.91,215.55Z"/><path class="cls-19" d="M511.81,215.7c-.37,1.85,3.91,2,4.75,1.07,1.62-1.8-3.7-1.26-4.37-1.19Z"/><path class="cls-7" d="M421.34,264.51a111.71,111.71,0,0,0-3.41-18.86c-.67-2.44-1.42-4.77-2.24-6.94-5.25-14-12.83-21.1-22.55-21.1h-.94c-.42,0-.85.05-1.27.1-10.28,1.09-16.85,8.23-19.5,21.2a60.87,60.87,0,0,0-1,6.94,87.77,87.77,0,0,0,.47,18.3l-1.46.2a89.36,89.36,0,0,1-.47-18.63,62.13,62.13,0,0,1,1-7.11c1.24-6.06,3.36-11,6.3-14.63a20.73,20.73,0,0,1,14.49-7.73c.46,0,.91-.08,1.36-.1h1c10.39,0,18.44,7.42,23.92,22.06.83,2.21,1.59,4.59,2.28,7.07a113.2,113.2,0,0,1,3.46,19.12Z"/><path class="cls-21" d="M493.64,259.91H298.54C184.92,255.81,160.39,360.09,158.91,371c24.86-.07,57.08-.06,81.94-.07q76.65,0,153.3,0h4.4q76.25,0,152.5,0,37.1,0,74.2.09C623.76,360.09,606.68,255.81,493.64,259.91Z"/><path class="cls-22" d="M596.91,332.8a6.49,6.49,0,0,1-6.86,1.48,6.92,6.92,0,0,1-4.42-5.48,4.73,4.73,0,0,1,2-4.81,3.76,3.76,0,0,1,4.11-.21,4,4,0,0,1,2,3.61,3,3,0,0,1-2,2.62c-1.29.51-2.15.31-2.8-.67a1,1,0,0,0-.1-.15,1.16,1.16,0,0,1,.06-1.62,1.14,1.14,0,0,1,1.62.06,2.63,2.63,0,0,1,.24.3l.14-.05c.5-.2.58-.47.59-.66a1.76,1.76,0,0,0-.89-1.46,1.5,1.5,0,0,0-1.69.13,2.49,2.49,0,0,0-1,2.58,4.67,4.67,0,0,0,2.83,3.63c3.07.94,4.61-.58,5.35-2,1.4-2.69,1-7.23-1.81-9.44-3.28-2.57-6.81-3.12-10.2-1.58-5.35,2.42-9.68,9.59-10.08,16.68-.16,2.9.28,8.2,5.07,11a1.14,1.14,0,1,1-1.17,2c-4.32-2.56-6.51-7.23-6.19-13.14.44-7.88,5.35-15.89,11.42-18.64,2.94-1.33,7.51-2.09,12.56,1.87,3.75,2.94,4.28,8.74,2.42,12.3A7.23,7.23,0,0,1,596.91,332.8Z"/><path class="cls-23" d="M245.37,288.35c-1.39-.74-1.34-1.47-2.87-.73a4.47,4.47,0,0,0-2.21,2.57c-.76,2.24,0,5.08.75,7.16v0a2.41,2.41,0,0,0-.73.57l-.1.13a20.85,20.85,0,0,0-5.57-3.44c-.9-.4-2.26-.82-3.18-.18-1.09.75-.67,1.92-1.16,3-.64,1.44-1.36,1.45-.52,2.92a4.47,4.47,0,0,0,2.72,2c2.29.59,5.07-.35,7.09-1.27l.52-.24a2.41,2.41,0,0,0,.22.29,20.47,20.47,0,0,0-4.37,5.1c-.53.83-1.14,2.12-.65,3.12.58,1.19,1.8.95,2.81,1.59,1.33.84,1.23,1.56,2.81.95a4.47,4.47,0,0,0,2.39-2.39c.92-2.18.41-5.06-.21-7.2-.05-.18-.1-.35-.15-.51a2.41,2.41,0,0,0,.52-.26A20.56,20.56,0,0,0,249,305.3c.89.43,2.23.89,3.18.29,1.11-.71.74-1.9,1.26-3,.69-1.42,1.41-1.4.62-2.9a4.47,4.47,0,0,0-2.65-2.1c-2.24-.66-5,.16-7,1a2.41,2.41,0,0,0-.28-.5,21.12,21.12,0,0,0,3.76-5.22c.47-.87,1-2.2.41-3.16C247.62,288.58,246.42,288.91,245.37,288.35Z"/><circle class="cls-24" cx="241.95" cy="299.66" r="3.54" transform="translate(-142.91 284.87) rotate(-48.88)"/><path class="cls-25" d="M571.8,299.63c-.56-1.12-.19-1.57-1.52-1.81a3.57,3.57,0,0,0-2.62.64c-1.53,1.1-2.37,3.28-2.84,5v0a1.94,1.94,0,0,0-.73,0l-.12,0a16.63,16.63,0,0,0-2-4.81c-.4-.68-1.09-1.58-2-1.59-1.05,0-1.33.93-2.15,1.42-1.08.64-1.56.31-1.69,1.65a3.57,3.57,0,0,0,.83,2.57c1.21,1.45,3.45,2.12,5.19,2.46l.45.08a1.92,1.92,0,0,0,0,.29,16.33,16.33,0,0,0-5.2,1.28c-.73.29-1.72.84-1.87,1.72-.17,1,.73,1.45,1.08,2.34.47,1.16.07,1.58,1.38,1.92a3.56,3.56,0,0,0,2.66-.44c1.61-1,2.61-3.1,3.2-4.77l.14-.4a1.87,1.87,0,0,0,.46.07,16.38,16.38,0,0,0,1.87,5c.38.69,1,1.62,1.93,1.66,1.05.05,1.36-.89,2.2-1.34,1.1-.6,1.57-.25,1.75-1.59a3.57,3.57,0,0,0-.74-2.59c-1.15-1.47-3.32-2.22-5-2.62a1.94,1.94,0,0,0,0-.45,16.82,16.82,0,0,0,4.86-1.64c.71-.35,1.66-1,1.74-1.86C573.15,300.83,572.22,300.48,571.8,299.63Z"/><circle class="cls-26" cx="564.33" cy="305.38" r="2.82" transform="translate(-55.17 138.2) rotate(-13.32)"/><path class="cls-27" d="M331.07,298.29a6.37,6.37,0,0,0-6,3.9,4.82,4.82,0,0,0-.26,2.27c-2.62.58-5.63,1.91-6.5,4.43-.4,1.15-.62,3.42,2.34,5.74,2.18,1.71,5.12,2,7.78,2a24.35,24.35,0,0,0-3.23,3.58c-2.47,3.31-1.95,5.57-1.42,6.62a4.16,4.16,0,0,0,3.84,2.22,5.46,5.46,0,0,0,.57,0,7.46,7.46,0,0,0,.89,4.45,4.4,4.4,0,0,0,3.86,2.09,8.44,8.44,0,0,0,3.93-1.16c2.81-1.49,4.27-4.21,5-7.19a10.64,10.64,0,0,0,3.09,2.64,9.49,9.49,0,0,0,4.51,1.15c2.87,0,5.17-1.35,5.87-3.43a4.19,4.19,0,0,0,.18-1.89,6.22,6.22,0,0,0,3.42-2.79,7.89,7.89,0,0,0-1.81-10.74,10.77,10.77,0,0,0-7-2.22c-.85,0-1.67.05-2.47.11s-1.47.1-2.17.1a8,8,0,0,1-2.55-.34c-1.27-.42-2.22-2.26-3.23-4.21a17.37,17.37,0,0,0-3.93-5.58,7.3,7.3,0,0,0-4.71-1.75Z"/><path class="cls-27" d="M291,293.28a4.8,4.8,0,0,0-4.08,2.07,4.3,4.3,0,0,0-.26.46,11,11,0,0,0-2.23-.25c-2.53,0-3.73,1.06-4.3,2s-1,2.4.07,4.66a8.82,8.82,0,0,0,3.71,3.66,20.27,20.27,0,0,0-2.28,1c-3.89,2-3.6,4.56-3.43,5.32a3.73,3.73,0,0,0,1.94,2.43,5.26,5.26,0,0,0-.5,4.05c.37,1.07,1.51,2.87,5.06,2.87h.29a8.17,8.17,0,0,0,5.6-2.63,8,8,0,0,0,1,2.07,7.28,7.28,0,0,0,5.7,3.2,4,4,0,0,0,3.49-1.81A3.79,3.79,0,0,0,301,322h.34a5.71,5.71,0,0,0,2.86-.86,6.54,6.54,0,0,0,2.65-8.62c-1.42-3-4-4.08-6-4.94a9.1,9.1,0,0,1-2.95-1.66c-.56-.56-.58-2.1-.6-3.58a13.62,13.62,0,0,0-.81-5.35,6,6,0,0,0-5.46-3.68Z"/><path class="cls-22" d="M518.79,322c-2.48,3.28,1.24,7.56,3.71,4.3-.15,2.62,2.17,8.76,5.1,4.65,2-2.77.2-8.33.81-11.38a13.47,13.47,0,0,0,5.69,7.3c3.84,2.6,5.31-.6,2.35-3.58,2.94,1.25,8.35,1.25,5.55-3.46-2.15-3.62-8.24-3.17-11.81-3,2.83-.09,6.76-2.07,8-4.65,1.7-3.51-.83-8-3.79-3.64.43-2.12.69-3.29-1.31-4.48a4.27,4.27,0,0,0-5.79,1.26c-2.41,3.37-.07,6.91-1,10.34C525.43,318.63,520.77,319.42,518.79,322Z"/><path class="cls-22" d="M257.86,317.49c-1.52-.2-3.56.44-1.5,1.95-1.08-.42-4.81-.57-4.38,1.54.24,1.15,4.06,1.63,5,2.13-2.36-.11-6,.5-7.07,2.8a4.62,4.62,0,0,0,3.35.56c-1.86.58-4.57,3.15-2.08,4.29,2,.93,5.75-1.61,7.34-2.69-2.75,2.38-1.32,7.2,1,3.38-1.08,1.59-.43,3.92,1.71,2.47.87-.59,2.06-4.05,2.26-5,.51-2.49-1.05-2.18-1.37-3.74s1.48-2.74.82-4.44C262.38,319.33,259.23,317.67,257.86,317.49Z"/><path class="cls-28" d="M225.36,229.36c5.31-4.49,17.87-13.64,24.14-16.18a32.24,32.24,0,0,1,13.81-2.6c1.71.07,3.38.28,5.05.49a10.19,10.19,0,0,0,3.65-3.31,4.65,4.65,0,0,0,.79-3.82,22.6,22.6,0,0,0-7.51-4.06c-4-1.26-7.64-1.1-11.7-.61s-13.25,1.12-17.2,2.08C234.58,209.56,230.12,222.46,225.36,229.36Z"/><path class="cls-28" d="M167.67,242.88c-.3-.86.94-1.19,1.31-.42a22.54,22.54,0,0,1,1.72,5.36c3-8.87,13.69-14.5,21.86-17.37,10.36-3.64,23.23-5.49,34-2.58,5.85-7.43,10.72-15.58,12.89-24.9a59.2,59.2,0,0,0-.4-30.44c-4-13.86-11.24-27.09-22.16-36.69-9.13-8-20.79-14-33.19-13.61a.56.56,0,0,1-.14.26c-2,1.94-4.57,3.91-7.4,4.19-1.13.11-5.41.41-6.41-.8l-.17.09c-8.54,3.41-16.84,7.77-22.45,15.33-1.48,2-2.87,4.18-4.29,6.27-.62.92-4.56,6.14-4.08,7.12,6.3,12.6,21.67,20.92,35.76,17.89a23.93,23.93,0,0,0,16.68-13.39c3.48-7.43,3.69-15.51,1.81-23.41a.54.54,0,0,1,1-.33A32.27,32.27,0,0,1,188.89,166c4.23,2.53,5.51,9.56,2.58,13.51-2.19,2.95-6.25,4.2-9.67,5-3.94.89-7.94,1.4-11.84,2.49-9.48,2.65-19.11,5.77-27.32,11.37-7.58,5.17-14.75,12.74-16.75,22a27.19,27.19,0,0,0,1.91,17.16,36.39,36.39,0,0,0,6.67,9.15c2,2.1,4.26,4.16,5.84,6.57,2.45,3.73,2.5,8.94-1,12.13-1.19,1.1-2.68,1.89-3.73,3.14a30.51,30.51,0,0,0-2.65,3.87,25.67,25.67,0,0,1-5.23,6.32l-.41.35c-.38,2.7,2.27,4.51,4.69,5.13,3.16-1.77,5.88-4.06,8.88-6.06a47.74,47.74,0,0,1,8.75-4.28c6.58-2.66,13.64-6.22,17.14-12.76C169.88,255.3,169.76,248.94,167.67,242.88Z"/><path class="cls-29" d="M206.47,130.3a22.12,22.12,0,0,0-7.4-4.68c-1.87-.66-5.47-3.19-7.43-3.47-6.55-1-11.56.46-18.16,1a5.75,5.75,0,0,1-1.18,2.58c4.18.88,8.58.37,10.59,5.13a.67.67,0,0,0,1,.36c1.35-1,7.53-2.8,5.82.49a.73.73,0,0,0,.87,1,16.52,16.52,0,0,1,7.43-.09c5.13,2,10.08,5.6,7.12,10.29a8.87,8.87,0,0,1-.76,1,.75.75,0,0,0,.58,1.24c10.64-.89,9.57,18,2.28,21.66-.75.38-.14,1.68.64,1.35,2.83-1.23,3.46,1.49,2.35,3.63-.76,1.46-2.34,2.53-3.61,3.52a.76.76,0,0,0,.64,1.35c1.45-.29,3.82-.47,4.08,1.51.2,1.54-1.34,2.88-2.44,3.64-1.69,1.18-4.19,1.47-6.17,1.86a.76.76,0,0,0-.54.77A23.69,23.69,0,0,1,202,192c-.72,2.82-2.79,7-5.58,8.17-4.22,1.77-8.22,2-12.79,2.1-12.63.41-25.53,3.29-35.86,10.57-4.28,3-8.1,6.78-12.83,9.13-1.63.81-3.49,2-5,.46-1.3-1.33-1.25-3.86-1-5.56.51-3.54,2.08-8.13,4.92-10.49.25-.21,0-.64-.29-.44-5.66,4.12-8.29,12.31-8.88,19.05a24.57,24.57,0,0,0,4.58,17.08c2.66,3.45,6.37,6,9,9.43s4.09,8.54,1.57,12.09c-.79,1.11-1.92,2.61-1,3.58a2.19,2.19,0,0,0,1.39.52c4.79.48,9.42-2.4,12.3-6.26s4.3-8.58,5.55-13.22a13.78,13.78,0,0,1,1.88-4.67,12.31,12.31,0,0,1,3.59-3c10.77-6.68,23.09-10.39,34.46-16s22.36-13.86,26.63-25.8c2.81-7.83,2.42-16.39,2.7-24.7.17-5,.59-10.14-.46-15.07a25.82,25.82,0,0,0-6.4-12.23C215.64,141.53,211.81,135.16,206.47,130.3Zm-15,.79V131h0l.18,0Z"/><path class="cls-30" d="M272.4,202.44c-2.23-1-4.49-1.9-6.79-2.71-1.38-.48-3-1.89-4.51-1.54a6.32,6.32,0,0,1-1.67,5.51,11.7,11.7,0,0,1-5.24,2.88,23.73,23.73,0,0,1-10.18.7c-5.79-.87-3.56-6.34-3.1-10.42.4-3.61.68-7.24,1.12-10.84.91-7.35-1.62-15.77-5.56-23.83l-.09.22c-2.34-6.72-7-12.8-11.37-18.21A81.26,81.26,0,0,0,200.44,124a5.88,5.88,0,0,0-3.66-1c-1.55.27-3,1.53-4.45,2.15-.35.15-3,1.76-1.1,1.71,14-.39,24.63,12.85,25,26.14a.82.82,0,0,0,.84.77c5.74.51,5,8.08,4.1,12.1a.8.8,0,0,0,.41.89c4.6,2.23,5,7.83,4.14,12.3-.83,4.13-4.71,10.13-9.55,9.66h-.11l0,0c-.53-.31-1.37-.27-1.14.55,1.37,4.88-.79,10.22-2.86,14.59a42.94,42.94,0,0,1-3.43,6c-1,1.5-6.32,6.25-6,1.63.08-1.08-1.46-1-1.75-.16-.85,2.56-1.57,5.27-3.17,7.49a3.33,3.33,0,0,1-1.57,1.27c-1.55.55-1.53-1.55-1.53-2.34,0-1.27.4-2.51.29-3.78a.86.86,0,0,0-1.61-.36c-3.06,4.71-6.26,9.41-10.78,12.85-.92.7-6.31,4.39-6.62,2.15-.23-1.65.46-3.51.72-5.13a.8.8,0,0,0-1.55-.35c-1.55,4.62-5.8,7.71-10,9.8a28,28,0,0,1-12.93,2.79c-2.69,0-4-.23-4.16.08a.4.4,0,0,0,.1.64c1.79,2.81,3.55,5.21,4.35,8.54.27,1.13.47,6.87-1.33,4.66a.73.73,0,0,0-1.3.62,26.75,26.75,0,0,1,.77,3.8,8.93,8.93,0,0,1-.07,2.26c-.06.47-1.1,3.43-2.14.93-.24-.56-1.15-.64-1.28.06-.35,2-2.41,7.72-5.1,7.47-1.48-.13-1.27-1.87-2.29-1.28,0,0,0,0,0-.07a.35.35,0,0,0-.25.14,8.75,8.75,0,0,1-3.41,2.69c-.51.21-1.55.76-.76,1.44,1,.84,3.35-1,3,1.5a10.4,10.4,0,0,1-2,4.38,5.78,5.78,0,0,1-3.32,2.37,8,8,0,0,1-2.18.32c-1.42,0-.73-1-.1-1.72a.36.36,0,0,0-.53-.48,15.79,15.79,0,0,0-3.18,4.54,2.91,2.91,0,0,0-.41,1.11,2.75,2.75,0,0,0,1.28,2.13,18.58,18.58,0,0,0,2.08,1.48,4.88,4.88,0,0,0,2.6.9c1.62,0,2.83-1.41,4.06-2.45a24.75,24.75,0,0,1,3.79-2.47l3.61-2c1.11-.63,2.22-1.26,3.37-1.8,3.84-1.8,8.19-2.6,11.62-5.1a4.46,4.46,0,0,0,1.38-1.44,21.53,21.53,0,0,0,3.29-1.94,11.11,11.11,0,0,0,3.3-4c.68-1.26,1.2-3.5,2.43-4.29a4.05,4.05,0,0,1,1.94-.46c9.52-.66,19.15-2.47,27.66-6.8,16.8-8.55,24.32-18.71,27.92-23,.37-.44.76-.93,1.17-1.46a2.44,2.44,0,0,0,0,1.08,11.48,11.48,0,0,0,2.29-2.39l-.22.45c5-2.7,8.89-7,13.77-9.82,5.12-3,11.7-4.27,17.52-4.9l1.16-.11a11.22,11.22,0,0,1,5.12.42,1.11,1.11,0,0,0,.6.12,1,1,0,0,0,.47-.29l1.77-1.62c1.51-1.38,3.09-2.88,3.57-4.86a2.15,2.15,0,0,0,0-1C274,203.2,273.14,202.77,272.4,202.44Z"/><path class="cls-31" d="M226.92,228.41c-10.3-2.82-25.46,0-35.37,3.45-8.43,3-18.91,9.19-21.65,16.69-.14.39.76,2.67.95,2.28l.13,3.52a20.34,20.34,0,0,1-.72,3.7C208.16,257.83,227.57,228.58,226.92,228.41Z"/><path class="cls-32" d="M226.25,226.91c-1.39.1-2.93-.18-4.28-.1a19.42,19.42,0,0,1-2.85,0c-.33.88-.69,1.75-1.1,2.6a34.34,34.34,0,0,1-3.75,6,26.78,26.78,0,0,1-6.07,5.72c-1.34.92-7.59,4.83-6.85.42.14-.82-.67-1.59-1.26-.87-2.06,2.49-14.22,14.47-16.17,7.22a.9.9,0,0,0-1.51-.32c-2.16,1.9-4.84,3.71-7.78,3.93-4.17.32-5.32-3.28-4-5.71.07-.13.38.35-.59,1.47a18.65,18.65,0,0,0-.24,2.08c-.18,2.82-.09,6.46-.42,9.26a101.11,101.11,0,0,0,25.09-5.07c1.67-.58,3.62-2.48,5.22-3.22s2.94-1.48,4.35-2.32a77.55,77.55,0,0,0,23.36-20.91Z"/><path class="cls-33" d="M169.93,248c5.5-8.38,15.65-14,25-17,10.5-3.33,21.79-3.35,32.66-2.9.6,0,.66-.91.09-1-5.89-1.17-12.13-.89-18.08-.38a70.31,70.31,0,0,0-15.76,3c-9.5,3.1-19.69,8.24-24.71,17.13-.19.33.6,1.48.8,1.18Z"/><path class="cls-33" d="M147.14,141.76a5.88,5.88,0,0,0-.13.74c-.31,2.75,1.45,5.41,3.16,7.39a18.52,18.52,0,0,0,9.31,5.32C166,157,174.56,156.42,180,152a10.78,10.78,0,0,0,.65-15.86c-4.48-4.29-11.51-4.94-17.4-4.57a21.86,21.86,0,0,0-11.38,3.92C149.9,137,147.75,139.29,147.14,141.76Z"/><path class="cls-34" d="M146.66,140.25a13.24,13.24,0,0,0,4.27,11A23.4,23.4,0,0,0,162,156.94c6,1.23,14.06.36,18.67-4,5.35-5,4.6-13.49-.39-18.45-6.18-6.14-17.27-4.88-24.58-1.87a.59.59,0,0,0,.36,1.12c7.24-1.55,15.47-3.56,22,1.2,5.6,4.07,6.1,13,.5,17.16-4.21,3.17-10.36,3.6-15.41,3a21.4,21.4,0,0,1-9.89-4.31c-3.8-2.81-5.08-6-5.82-10.59a.4.4,0,0,0-.8,0Z"/><path class="cls-30" d="M166.57,127.2a3.2,3.2,0,0,1-1-4c.63-2,1.36-4.17,3.1-5.35a17.11,17.11,0,0,0,1.64,3.44,13.13,13.13,0,0,1,1.3,4.21l-.11.09Z"/><path class="cls-35" d="M266.92,185.47a16.26,16.26,0,0,0,2.28-.2c3.91-.68,2.45-3.53,0-4.7a22.48,22.48,0,0,0-2.78-1.1C267.56,181.18,268,184,266.92,185.47Z"/><path class="cls-35" d="M138.27,155.77c-2.5,5.52-5.15,13-2.87,18.93a8,8,0,0,0,8.46,5.44c4.33-.44,7.79-3,11-5.72.58-.48,1.27.23,1.19.82s-1.19,5.83.35,5.25a9.72,9.72,0,0,0,5.31-6.45C151.62,171.89,142.51,165.36,138.27,155.77Z"/><path class="cls-36" d="M266.77,182.77c.44.91-1,3.32-.1,3.37s6.11-1.27,5.24-3.45c-.07-.18-.14-.43-.32-.5-.68-.27-1.31.23-2,.31a7.37,7.37,0,0,1-2.38-.36.42.42,0,0,0-.43.63Z"/><path class="cls-35" d="M126,280.24c-2.29,2.1-5.78,5.59-4.39,6.16,2.48,1,5.76,0,8.32-1.17A6.34,6.34,0,0,1,126,280.24Z"/><path class="cls-36" d="M120.35,285c-.52,2.19,3.69,3.15,4.78,2.72s6.44-1.1,6-2.67a19.79,19.79,0,0,0-3.51-2.88,1.92,1.92,0,0,0-1.09.65,12.42,12.42,0,0,1-1.87,1.35c-1.09.67-2.43,1.52-3.52.6a.47.47,0,0,0-.76.24Z"/><path class="cls-36" d="M145.62,172.65a3.07,3.07,0,0,0-3.1-.75.92.92,0,0,0-.29.18,1.2,1.2,0,0,0-.86,1.57c.41,1.71,3.16.92,4.15.24A.8.8,0,0,0,145.62,172.65Z"/><path class="cls-35" d="M270.47,211.34l1.34.15a10.7,10.7,0,0,0,4.3-.1c1.81-.62.84-2.54.06-3.73a15.91,15.91,0,0,0-1.57-2A9.77,9.77,0,0,1,270.47,211.34Z"/><path class="cls-36" d="M269.45,211.22c.36,2,6.38,2.16,8.39-.18.31-.36.44-.83.09-1.12s-1.14-.11-1.66-.16a5.52,5.52,0,0,1-3.37-2,.42.42,0,0,0-.7.33Z"/><path class="cls-37" d="M170.21,104.35c.58-.6,1-1.32,1.56-1.92h0q-2.41-4.25-4.86-8.41c.49,3.77.91,7.55,1.32,11.33A4,4,0,0,0,170.21,104.35Z"/><path class="cls-35" d="M119.08,258.44l-.67.53c-1.18,1-3.67,2.67-3.88,4.37-.26,2,4.32.7,7.57-.52A5.8,5.8,0,0,1,119.08,258.44Z"/><path class="cls-36" d="M114,262.79c.06,3,8.47,1.69,9.42.81.71-.65-2.57-3.51-3.27-2.9s-4.86,3-5.5,1.88a.35.35,0,0,0-.65.21Z"/><path class="cls-38" d="M237.93,140.34a49.27,49.27,0,0,1-16.85-2.87,77.1,77.1,0,0,1,15.46,23.07.36.36,0,0,1,.24.07c1.5,1.14,5.28.76,7.5,1.71a11.66,11.66,0,0,0-1.47-2.61,13.1,13.1,0,0,0-1.7-1.73c-1.65-.82-3.25-1.81-5-2.5-.38-.15-.12-.66.23-.62,3.23.33,5.85,2.8,9.13,2.9a12.93,12.93,0,0,0,7.19-1.89c-3,0-6.05-1.61-8.42-3.18-1.72-1.14-3.26-2.46-4.9-3.71a17.38,17.38,0,0,0-4.7-2.5c-1.25-.35-2.48-.73-3.7-1.09a.36.36,0,0,1,.06-.71c2.58-.09,5.07.66,7.58,1.15a24.42,24.42,0,0,0,8.52.25c3.25-.49,7.35-1.42,10.73-.45a20.33,20.33,0,0,0-6.93-4.57,26.13,26.13,0,0,0-6.51-1.82A25.7,25.7,0,0,1,237.93,140.34Z"/><path class="cls-38" d="M195.79,107.86c2.31-4.57,4.32-8.79,4.21-13.8-2.26,4.17-5.82,7.59-8.69,11.31-3.55,4.6-5.85,9.38-5.57,15.29a32.67,32.67,0,0,1,5.76.36C191.17,116.39,193.78,111.85,195.79,107.86Z"/><path class="cls-39" d="M185.94,121.07a8.23,8.23,0,0,0,1.85.08,1.63,1.63,0,0,0,.59,0c.54-.18.73-.82,1-1.33.6-1.14,1.84-1.8,2.59-2.86a12.63,12.63,0,0,0,1.29-3.27,23.26,23.26,0,0,1,1.94-3.84,42.62,42.62,0,0,0,3.75-7.95,19.19,19.19,0,0,0,.93-8.68,19.26,19.26,0,0,0-1.66,1.74c-.27.74.09,1.68,0,2.5a12.11,12.11,0,0,1-2.2,4.82c-1.37,2.16-2.77,4.31-4.07,6.51s-1.92,5-3,7.36a10.55,10.55,0,0,1-2.23,3.33c-.35.33-1.38.79-1.12,1.35A.58.58,0,0,0,185.94,121.07Z"/><path class="cls-39" d="M222.08,138.58c1.81,4.8,6.16,6.41,10.5,6.28,2-.06,7.38,2.11,8.89,2.2a60.45,60.45,0,0,0,8.81-1,21.61,21.61,0,0,1,7.54-.46c.85.16-.42-2.12-1.09-2.56-2.12-1.37-4.76-.79-7.07-.28a18.94,18.94,0,0,1-4.89.49c-1.9-.08-3.69-.79-5.55-1.07-2.76-.41-5.59.18-8.37-.13-3-.35-6.37-1.1-8.22-3.75-.19-.27-.65-.07-.53.25Z"/><path class="cls-37" d="M173.9,125.34a11.55,11.55,0,0,0,8.28-3.47q-1.45-3-3-5.94c-1.25,3.23-5.92,5.48-9.23,4.38.18,1.32.39,2.63.66,3.92a4,4,0,0,0,.18.57A12.14,12.14,0,0,0,173.9,125.34Z"/><path class="cls-38" d="M206.67,126.39a60.41,60.41,0,0,1,7,4.57c3.17-.6,6.5-.1,9.71-.38a48.82,48.82,0,0,0,12.23-2.48,32.71,32.71,0,0,0,9.17-4.63,25.81,25.81,0,0,0,5.38-5.88c-4.58,1.82-10,1.44-14.79,1.27-3.3-.12-6.8-.32-10,.6-2.78.79-5.34,2.25-8.14,3A49.81,49.81,0,0,1,206.67,126.39Z"/><path class="cls-38" d="M234.28,130.33a42,42,0,0,1-9,1.66c-3.52.24-7.07-.33-10.57-.25q.83.65,1.62,1.31c1.09.92,2.14,1.87,3.17,2.85,6.95.74,13.5,3.53,20.65,2.42,5.67-.88,11.76-4.58,17.65-3.83C251.49,129.81,242.33,129.25,234.28,130.33Z"/><path class="cls-39" d="M214,131.69c.64,1.93,4.12,5,5.81,5.32,3.42.72,12.85,2.56,16.31,2.54a38.42,38.42,0,0,0,8.47-1.23c3.13-.73,6.06-2.38,9.22-2.93,1.89-.33,3.86-.1,5.72-.56a3.05,3.05,0,0,0-1.6-1.76c-3.43-2-7.67-2-11.48-1.16s-7.23,1.7-11.16,1.56c-1.92-.07-3.52.57-5.44.59s-4,.26-6,.22c-2.42,0-6.46-1.25-8.25-3C215.26,131,214,131.69,214,131.69Z"/><path class="cls-39" d="M207,126.65c3.53,2.59,4.08,4.13,7.23,4.74,2.57.49,7.71.29,10.73.06,2.09-.15,9.64-3.17,11.73-3.07,1.89.09,12.41-7.1,14.43-10.3.42-.66-1.25-1.83-1.75-1.29a26.13,26.13,0,0,1-11.3,6.8c-3.86.89-7.47.37-11.35.67-3,.24-6.08,1.66-9,2.38a17.5,17.5,0,0,1-10.36-.61.36.36,0,0,0-.32.62Z"/><path class="cls-38" d="M205.57,125.8a98.83,98.83,0,0,0,10.84-4.67,49.27,49.27,0,0,0,9.93-7.77c4.55-4.27,10.45-9.78,17-10.59a30.59,30.59,0,0,0-17.07,1.36c-6.51,2.35-11.7,6.9-17.21,10.93a52.71,52.71,0,0,1-10.48,7.72A50.09,50.09,0,0,1,205.57,125.8Z"/><path class="cls-39" d="M197,123.94c4.23-.89,4.19,3.63,8.37,2.41,3.78-1.1,12.63-5.39,15.48-8s5.28-4.24,8.09-6.78a37.25,37.25,0,0,1,5.88-4.47c2-1.1,6.26-3.41,8.4-4,.66-.17-3.6-2-4.22-2-7.2-.18-13.5,5.79-18.11,10.42-3.28,3.29-6.46,7.39-10.81,9.18s-9.07.69-13.32,2.44a.39.39,0,0,0,.24.74Z"/><path class="cls-38" d="M197.42,108.32c-2.09,4.14-4.19,8.24-5,12.85a40.22,40.22,0,0,1,5.48,1.38c3.11-3.08,6.81-5.52,10-8.56a49.47,49.47,0,0,0,7.34-9.31c3.16-4.95,6.64-11.29,11.93-14.43a35.28,35.28,0,0,0-19.75,8,74.18,74.18,0,0,0-8.26,8.2C198.61,107,198,107.65,197.42,108.32Z"/><path class="cls-39" d="M225.52,89.59c-2.71-.31-5,1.71-7,3.32a46.67,46.67,0,0,0-7.39,7c-2.11,2.68-3,6-4.48,9a14.23,14.23,0,0,1-8.47,7.84c-.89.32-1.42,6.39-.53,6.22,6.35-1.21,17.45-14.57,19.57-20,1.48-3.79,7.76-11.71,11.17-12.37a13.27,13.27,0,0,0-2.85-1Z"/><path class="cls-37" d="M174.93,108.19a.36.36,0,0,1,.05-.08q-1.32-2.39-2.66-4.76c-.49,1.66-2.24,3.21-4,3q.32,2.93.65,5.86A6.51,6.51,0,0,0,174.93,108.19Z"/><path class="cls-38" d="M81.76,216.48c4.64-5.23,7.84-11.69,13.48-16a16.74,16.74,0,0,1,18.11-1.89c5.93,2.8,11.27,6.72,14.55,12.48a38,38,0,0,1,2.76-4.05c-1.42-7.25-4.37-13.93-11.27-17.51a28.42,28.42,0,0,0-24.21-1,31.44,31.44,0,0,0-10.9,7.79c-2.84,3.18-4.94,6.85-7.25,10.42-1.8,2.78-3.81,6.29-6.7,8.07a8.55,8.55,0,0,1-7,.63,13.26,13.26,0,0,0,8.23,4.84A10.72,10.72,0,0,0,81.76,216.48Z"/><path class="cls-38" d="M99.13,239.55c.11-4.69.75-9.37,3.24-13.46,4.74-7.77,13.41-11.56,22.24-8.86a.9.9,0,0,1,.36.2q.33-1,.73-2a.81.81,0,0,1-.79-.13c-7.59-5.87-19.25-10.71-27.95-3.83-5.79,4.58-7.8,14.52-15.84,16.07-.32.06-.61-.38-.27-.56,8-4.33,9.65-15,18.09-18.63,9.39-4.07,19.6-.69,27.06,5.74a.87.87,0,0,1,.18.22q.44-1,.94-1.92c-2.7-2.93-4.36-6.19-7.78-8.49-3-2-6.24-4.17-9.81-5.08-9.28-2.37-15.49,4.34-20.68,11C85.35,214.41,82.11,220.8,76,222a11.72,11.72,0,0,1-9.57,1.87c-2.24-.49-4.28-1.64-6.51-2.08a7.87,7.87,0,0,0-4.16.6,23.22,23.22,0,0,1,2.65,1.1A58.09,58.09,0,0,0,74,228.89c.47.08.36.74-.07.79-4.86.55-9.67-1.47-14-3.54s-9-4.37-13.46-1.34c-6,4-6.13,12.93-11.83,17.07,3.43,0,6.7.69,9.39-2.38a10.1,10.1,0,0,1,6.7-3.84,11.11,11.11,0,0,1,.84-1.21c2.23-2.77,5.84-5.63,9.63-4.94a.53.53,0,0,1,.46.55.47.47,0,0,1,0,.07h0a.53.53,0,0,1-.05.19l0,.07a.63.63,0,0,1-.06.1h0a14.69,14.69,0,0,0-3.22,6.18l-.2.73c2.92-.55,5,2.42,6.28,4.76a26.39,26.39,0,0,0,3.34,5.48,5.87,5.87,0,0,0,4,2,17.11,17.11,0,0,0,2.17-.49,16.63,16.63,0,0,0,7.89-5.27c3-3.45,6.07-8,10.75-9.26a.4.4,0,0,1,.34.71,28.62,28.62,0,0,0-6.7,5.87,53.06,53.06,0,0,1-5.64,6.3c-4.09,3.63-10.06,4.58-15.37,3.72,5.45,4.41,12.32,6,19.07,3.23S96,246.07,99.13,239.55Z"/><path class="cls-39" d="M62.41,215.14c2.19,2.43,6.75,6.27,9.37,6s5.92-.3,8.54-2.73c6-5.57,10.28-14.25,15.13-17.42,5-3.28,7.64-4.37,13.49-3,7.2,1.75,16.19,6.85,17.92,13.56.25,1,3.15-.71,2.9-1.68-1.59-6.14-6.64-11.54-12.43-14.55-5-2.6-11.15-2.21-16.36-.48-6.15,2-10.46,6.6-14.78,11.19a47.44,47.44,0,0,1-8.45,7.59c-3.57,2.33-7.3,2.64-11.41,1.91C65.82,215.47,62.41,215.14,62.41,215.14Z"/><path class="cls-37" d="M178.67,114.92q-1.49-2.84-3-5.66c-.51,2.55-4,4.58-6.49,3.92v0c.23,2,.43,4,.69,6.07C173.56,119.44,176.32,117.89,178.67,114.92Z"/><path class="cls-39" d="M126.59,214.89c-6.49-6-16.11-10-24.72-7.19-4.41,1.44-7.45,4.58-10.22,8.15-3.6,4.64-5.65,8.45-10.53,11.7-.57.38-2.54,1.12-2,1.45,3.23,1.81,7.44.75,10.83.37-2.94,4.18-8.45,6.74-13.63,6.91-5.43.18-9.78-4.36-14.47-6.43A14.2,14.2,0,0,0,48.56,231a22.75,22.75,0,0,0-5.09,4.89c-2.67,3.09-6.13,4.12-9.92,5.71a.25.25,0,0,0,.15.47c3.4-.75,6.81,1.38,9.45-.77,1.93-1.57,3.86-3.36,6.24-4.23,1.19-.43,2.55,0,3.79.2l4.27.59a7.84,7.84,0,0,1,2.43.61,6.44,6.44,0,0,1,2.34,2.29c1.25,1.86,2.14,3.94,3.43,5.77A8.24,8.24,0,0,0,71,250.27a8.34,8.34,0,0,0,3.85-.58A17.32,17.32,0,0,0,81,245.87c2.82-2.72,4.66-6.37,7.84-8.74a25.54,25.54,0,0,1,5.27-2.6c-1.67,10.34-9.91,19.93-20.53,21.23a16.69,16.69,0,0,0,12.55-.25,23.58,23.58,0,0,0,5.72-4.23,30.16,30.16,0,0,0,7.2-9.29,22,22,0,0,0,1.67-6c.3-2,0-4.44.8-6.34a34.85,34.85,0,0,1,4.79-6.86A16.2,16.2,0,0,1,125,218.18S127.49,215.73,126.59,214.89Z"/><path class="cls-33" d="M166.6,94.1c2,10.6,1.41,20.31,3.44,30.91.21,1.08,4.31,1.45,4.11.38q-1.06-5.53-2.19-11.05c-1.37-6.73-2-14.1-4.73-20.44a.33.33,0,0,0-.63.2Z"/><path class="cls-30" d="M138.24,154.79c2.48,6.26,11.24,14.5,17.32,16.69,6.38,2.3,16.92,3.29,23.25.74,11.77-4.74,19-20.18,14.75-36.45a.54.54,0,0,0-1.08,0c-.9,12.54-8.11,24.7-19.71,30-11.14,5.1-28.12-.29-34-11.27-.15-.29-.64-.06-.52.25Z"/><path class="cls-28" d="M252.85,189.6c2.74-1.32,5.58-2.95,8.54-3.7a14.69,14.69,0,0,1,3.33-.38h0a2.73,2.73,0,0,0,1.58-3.26,6.61,6.61,0,0,0-1.31-3.19,24.68,24.68,0,0,0-7.23-.72c-5,.25-10.43.77-15.24,2.45a58,58,0,0,1,.26,13.26C246.15,192.6,249.52,191.2,252.85,189.6Z"/><path class="cls-30" d="M242.18,187.38c0,1,.26,2.27.28,2.67q.14,2.56.08,5.12l17.08-7.9c2-.92,4.11-1.85,6.27-1.5a17.64,17.64,0,0,0,.79-3.87c.06-1.14-.08-3.17-1.14-3.85-.74-.48-1.83-.24-2.65-.25-3,0-5.59-.69-8.57-.05,1.05,2.81-1.41,5.11-3.6,6.41a16.49,16.49,0,0,1-8.09,2.12C242.29,186.29,242.18,186.77,242.18,187.38Z"/><path class="cls-28" d="M130,244.2c-.31-.4-.62-.8-.91-1.21-.8,4.4-3,9.74-6.25,12.48-.94.79-1.92,1.53-2.89,2.27a7.49,7.49,0,0,0,1.55,3,8.14,8.14,0,0,0,2.5,1.33c.53-.22.91-.4,1.09-.49,4.49-2.3,9.25-5,12.41-9-.48-.57-1-1.14-1.52-1.7C134,248.66,131.87,246.54,130,244.2Z"/><path class="cls-30" d="M122.57,254.92a23.08,23.08,0,0,0-3.36,2.68,12.15,12.15,0,0,0,2,3.24c.09.11,2,2.25,1.67,2.27,4.54-.36,14-6.77,14.91-10.88.11-.52-5.43-7.3-5.64-6.78a54.77,54.77,0,0,1-2.82,6.74,10.13,10.13,0,0,1-2.37,2.66c-.69.54-3.55,1.72-3.7,0C123.21,254.67,122.95,254.72,122.57,254.92Z"/><path class="cls-36" d="M135.79,177.54c2.31,1.89,5.63,3.64,8.7,3.48,1.81-.09,3.66-1.26,5.21-2.11a39.62,39.62,0,0,0,3.73-2.31,14,14,0,0,1,3.25-2.07.62.62,0,0,1,.38,0,.51.51,0,0,1,.22.16,1.79,1.79,0,0,1,.3,1.6,8.2,8.2,0,0,1-.66,1.56,9.88,9.88,0,0,0-.7,2.06,1.4,1.4,0,0,0,0,1c.35.63,1.78,0,2.22-.27a6.58,6.58,0,0,0,1.8-1.66c1.36-1.67,2.53-3.8,2.05-5.9,0,.22-2.54,0-2.84-.1a25.59,25.59,0,0,1-3.94-1.43c-.66-.29-1.3-1-1.79-.61-7.85,6.87-12.51,9.58-17.62,6.15C135.85,176.81,135.52,177.31,135.79,177.54Z"/><path class="cls-30" d="M188.89,166c6.2,5,11.36-.84,12.52-6.74,1.55-7.87-1.58-17.48-7.63-22.78-.36-.31-1,.18-.65.56C197.6,142.3,188.89,166,188.89,166Z"/><path class="cls-38" d="M59,231.15a13,13,0,0,0-7.69,7.1c-1.3,2.67-2.6,5.41-5,7.18,1.8-.22,3.63-.17,5.34-1,2.69-1.26,3.75-3.63,4.56-6.32C56.82,236,57.45,233.09,59,231.15Zm-4.74,7.07a4.93,4.93,0,0,1-.91,2.78A5.11,5.11,0,0,1,51,242.81c-.28.12-.47-.27-.3-.47a42.9,42.9,0,0,0,2.89-4.27C53.73,237.8,54.22,237.83,54.22,238.22Z"/><path class="cls-38" d="M124.24,218.93c-9.6-2.91-19.29,2.65-22.22,12.21-2.26,7.36.63,16.73-3.5,23.51a19.85,19.85,0,0,0,7.76-7.55c2-3.65,2.56-7.33,2.94-11.4.34-3.66,1.13-7.58,3.84-10.29,3-3,6.57-3.84,10.73-4.21a.86.86,0,0,1,.22,0q.21-1.14.52-2.25A.87.87,0,0,1,124.24,218.93Z"/><path class="cls-40" d="M153.27,142.21c-1.08,3.08.88,6.78,4.52,6.16s3.94-5.32,2.21-7.79a.48.48,0,0,0-.86.41c.4,1.69.46,4.37-1.53,5.16-2.58,1-3.61-2-3.72-3.88a.32.32,0,0,0-.62-.06Z"/><path class="cls-40" d="M166.61,140.63c-.9,4.73,3.85,9.16,8.29,6.68,3.46-1.93,2.79-8-.65-9.56-.44-.2-1,.32-.68.75,1.56,1.91,2.44,5.52-.41,6.82-3.37,1.54-5.24-3-5.9-4.73a.34.34,0,0,0-.65,0Z"/><path class="cls-41" d="M142.65,174.23c-.46-.08-.87-.16-.9-.69a1.43,1.43,0,0,1,.85-1.29,1.89,1.89,0,0,1,1.89.2,2.47,2.47,0,0,1,.87,1.84.42.42,0,0,0,.79.18,2.69,2.69,0,0,0-.86-3.13,3.17,3.17,0,0,0-3.57-.2,2.62,2.62,0,0,0-1.25,2.76,1.48,1.48,0,0,0,2.3.91.31.31,0,0,0-.1-.56Z"/><path class="cls-41" d="M81.13,227.56c8-1.55,10.05-11.5,15.84-16.07,8.7-6.88,21.95-1.36,28.77,4.47.79.67,1.08-1.15.27-1.85-7.46-6.43-17.66-9.81-27.06-5.74C90.51,212,88.87,222.66,80.86,227c-.34.18-.05.62.27.56Z"/><path class="cls-41" d="M97.5,256.1c5.6-6.84,2.09-17.06,4.52-25,2.93-9.56,12.62-15.12,22.22-12.21,1.08.33,1.44-1.37.38-1.7-8.83-2.7-17.5,1.09-22.24,8.86-2.55,4.18-3.16,9-3.25,13.78-.1,5.56-.19,10.5-2.36,15.72-.19.45.39.92.73.51Z"/><path class="cls-41" d="M119.08,257.27c-.4,2.93,2.22,6.37,5.37,6a.48.48,0,0,0,.2-.9c-1.07-.58-2.2-.78-3.13-1.63s-1.22-2.32-1.77-3.48c-.13-.27-.62-.36-.67,0Z"/><path class="cls-41" d="M126.72,278c-2.68,3.1,2.38,8.67,5.84,7.31a.56.56,0,0,0,0-1.08c-2.72-.52-6-2.62-5-5.84a.44.44,0,0,0-.75-.39Z"/><path class="cls-41" d="M268.37,212.17c3.43-.33,9-7.3,4.86-10a.55.55,0,0,0-.78.66,4.65,4.65,0,0,1-.44,4.9,10.5,10.5,0,0,1-3.94,3.48.5.5,0,0,0,.29.92Z"/><path class="cls-41" d="M264.79,178.83a6.38,6.38,0,0,1,1.51,3.42,2.73,2.73,0,0,1-1.58,3.26c-.47.23-.17,1,.3.94,4-.26,2.67-6.8.16-8.17-.36-.2-.65.29-.39.56Z"/><path class="cls-41" d="M260.75,135.36c-2.24-4.46-9.12-5.81-13.54-6.48a39,39,0,0,0-7.71-.39c5.68-2.43,11.14-6.5,13.28-12.43a.55.55,0,0,0-.53-.75.62.62,0,0,0-.32,0,46,46,0,0,1-9.28,2c-3,.19-6,0-9.06-.09a31.64,31.64,0,0,0-8.67.85,17.12,17.12,0,0,0-3.07,1.15,33.33,33.33,0,0,0,2.85-2.34,118.52,118.52,0,0,1,9.52-8.35,32.12,32.12,0,0,1,11.36-5.16.44.44,0,0,0,.3-.23c.55,0,.69-.84.21-1.16-5.35-3.54-13.52-1.9-19.2-.15A38.88,38.88,0,0,0,214,109.18q.61-.86,1.2-1.73c4.44-6.57,8.1-13.34,14.91-17.77l.05-.05,0,0a.49.49,0,0,0,.14-.32s0,0,0-.06,0,0,0-.06a.46.46,0,0,0-.29-.43l-.08,0h-.16c-8.93-.93-17.12,2.91-23.89,8.44a49,49,0,0,0-6,6.05c1.43-3.56,2.38-7.62.86-11.07v0c.17-.52-.55-1.09-.91-.57-3.34,4.83-7.35,9.12-10.76,13.89-3.16,4.41-5.47,9.85-4.19,15.3-.65,0-1.31.1-2,.18-.87.11-.85,1.43.06,1.38,12.7-.67,24.66,5.39,34,13.58,10.92,9.6,18.12,22.83,22.16,36.69a58.29,58.29,0,0,1,.93,27.92c-.34.4-.26.86.43.73,4.37-.85,9-1.39,13.19-1.9s7.75-.65,11.7.61a20.54,20.54,0,0,1,10.88,7.78c.78,1.18,1.74,3.11-.06,3.73a10.7,10.7,0,0,1-4.3.1c-2.85-.28-5.62-.79-8.5-.9a32.24,32.24,0,0,0-13.81,2.6,73.32,73.32,0,0,0-22.58,14.35,2.19,2.19,0,0,0-.37.34c-1.4,1.78-2.86,3.53-4.35,5.23-12.77,14.58-32.61,24.25-52,24.82A21.91,21.91,0,0,0,169,242.46c-.36-.77-1.6-.44-1.31.42,2.09,6.06,2.22,12.42-.86,18.16-3.5,6.54-10.56,10.09-17.14,12.76a47.74,47.74,0,0,0-8.75,4.28c-3.19,2.12-6,4.57-9.45,6.38-2.65,1.41-6.86,3.18-9.88,1.94-1.95-.8,5.58-7.24,6.16-7.74a25.67,25.67,0,0,0,5.23-6.32,30.51,30.51,0,0,1,2.65-3.87c1.06-1.25,2.54-2,3.73-3.14,3.46-3.2,3.41-8.4,1-12.13-1.58-2.41-3.88-4.47-5.84-6.57a36.39,36.39,0,0,1-6.67-9.15,27.19,27.19,0,0,1-1.91-17.16c2-9.24,9.17-16.82,16.75-22,8.21-5.59,17.84-8.72,27.32-11.37,3.9-1.09,7.9-1.6,11.84-2.49,3.42-.77,7.48-2,9.67-5,3-4,2-11.35-2.32-13.82A32.3,32.3,0,0,0,194,135.46a.54.54,0,0,0-1,.33c1.88,7.9,1.67,16-1.81,23.41a23.93,23.93,0,0,1-16.68,13.39c-14.09,3-29.46-5.29-35.76-17.89A58.87,58.87,0,0,1,169.58,126c.91-.36.45-1.82-.46-1.45-1.09.43-2.17.9-3.24,1.4a28.14,28.14,0,0,1,1.23-4.7c.32-.72.68-1.77,1.08-2.45.51,1,1,2.35,1.42,3.4.33.82.6,1.7,1,2.51a9.79,9.79,0,0,1,1-.55,42.06,42.06,0,0,0-2.82-6.65.65.65,0,0,0-1.12,0c-1,1.54-3.24,6-3.46,9.25-13,6.59-23.95,18.23-28.82,31.9-2.18,6.11-4.09,14.11.25,19.75,4.92,6.39,13.16,2.6,18.5-1.38-.41,2.17-.63,4.84,1.6,5.22,3.56.61,6.69-5,7.08-8a34.29,34.29,0,0,0,12.27,0,23,23,0,0,0,13.17-7.53c4.06,2.69,4.6,10,.8,13.1-4.33,3.51-11.19,3.64-16.43,4.68a104.85,104.85,0,0,0-18.18,5.72,65.22,65.22,0,0,0-16.51,9.39,44.67,44.67,0,0,0-5.88,5.63,24.24,24.24,0,0,0-9.37-15.77c-6-4.36-14.34-5.87-21.57-4.54a33.09,33.09,0,0,0-20.17,12.67c-2.79,3.63-4.89,7.72-7.58,11.42a17.66,17.66,0,0,1-4.43,4.64c-1.85,1.2-4.4.61-6.44.51a.4.4,0,0,0-.25.07.49.49,0,0,0-.39.61c1.19,4.13,6,6.64,10.28,7.19-3.09.74-6.06.27-9.49-1a12.29,12.29,0,0,0-4.72-.93,9.53,9.53,0,0,0-4.06,1.69,10.41,10.41,0,0,0-7.32.9c-7.37,4-7.61,13.91-13.66,19.24a.39.39,0,0,0,0,.76c3.27.66,6.58,1.14,9.75-.16A8.93,8.93,0,0,0,45.71,240a11,11,0,0,1,4.21-2.69c-.43.89-.81,1.8-1.22,2.67a20.54,20.54,0,0,1-4.17,5.61.37.37,0,0,0,0,.59.41.41,0,0,0,.26.27,10.22,10.22,0,0,0,11.38-3.94,14.82,14.82,0,0,0,1.59-3.92c4,.24,5.28,4.86,7.05,7.86A11.91,11.91,0,0,0,68,250c-1.3.07-2.6.12-3.88.24a.39.39,0,0,0-.34.26.46.46,0,0,0-.2.68c4.26,6.41,12.95,7.5,19.85,5.55,7.64-2.16,14.74-9.42,16.73-17.09a.51.51,0,0,0-.94-.34c-3.17,6.62-8.1,12.34-15,15.14-6.75,2.72-13.62,1.18-19.07-3.23,5.3.86,11.28-.09,15.37-3.72a53.06,53.06,0,0,0,5.64-6.3,28.61,28.61,0,0,1,6.7-5.87.4.4,0,0,0-.34-.71c-4.69,1.25-7.72,5.81-10.75,9.26a16.63,16.63,0,0,1-7.89,5.27,17.11,17.11,0,0,1-2.17.49,5.87,5.87,0,0,1-4-2,26.39,26.39,0,0,1-3.34-5.48c-1.29-2.35-3.36-5.32-6.28-4.76l.2-.73a14.69,14.69,0,0,1,3.22-6.18h0a.62.62,0,0,0,.06-.1l0-.07a.52.52,0,0,0,.05-.19v0a.46.46,0,0,0,0-.07.53.53,0,0,0-.46-.55c-3.79-.7-7.4,2.16-9.63,4.94a11.12,11.12,0,0,0-.84,1.21,10.1,10.1,0,0,0-6.7,3.84c-2.69,3.07-6,2.35-9.39,2.38,5.7-4.13,5.86-13,11.83-17.07,4.47-3,9.19-.71,13.46,1.34s9.12,4.08,14,3.54c.43,0,.54-.71.07-.79a58.08,58.08,0,0,1-15.63-5.4,23.22,23.22,0,0,0-2.65-1.1,7.87,7.87,0,0,1,4.16-.6c2.23.44,4.28,1.59,6.51,2.08A11.72,11.72,0,0,0,76,222c6.1-1.2,9.34-7.59,12.85-12.13,5.19-6.71,11.4-13.41,20.68-11,3.57.91,6.79,3.05,9.81,5.08,3.42,2.3,5.08,5.56,7.78,8.5a30.91,30.91,0,0,0-3.13,8.81.86.86,0,0,0-.22,0c-4.15.36-7.7,1.17-10.73,4.21-2.7,2.71-3.5,6.63-3.84,10.29-.37,4.07-1,7.75-2.94,11.4-2.13,4-5.52,6.33-9.34,8.46-.55.31-.1,1.1.46,1,6.64-1.71,10.9-8.11,12.58-14.39,1-3.72.67-7.63,1.78-11.34,1.68-5.58,6.71-7.46,12-8a27.05,27.05,0,0,0-.12,5.65,28.83,28.83,0,0,0,4.8,13.51c-1.55,2.89-2.34,6.2-4,9.08-1.42,2.47-3.45,3.9-5.64,5.6-1.71,1.31-8,5.61-5.26,8.38s8.66-.35,11.37-1.63c4.84-2.3,10.31-5.28,13.57-9.69a8.36,8.36,0,0,1,1.82,6.07c-.31,2.66-2.17,4.4-4.23,5.85a15.51,15.51,0,0,0-3.92,4.63,30.93,30.93,0,0,1-4.65,6.2c-1.9,1.81-4,3.33-5.82,5.26-1.61,1.72-3.91,5.56-.26,6.54,4.56,1.23,9.56-1.29,13.37-3.55,2.53-1.5,4.81-3.36,7.19-5.07a37.74,37.74,0,0,1,8.3-4c5-2,9.81-4.37,13.84-8a21,21,0,0,0,5.71-8.46l.1,0c11.48.83,23.13-3.48,33.07-8.87,10.25-5.55,18.48-13.16,25.62-22.23,8.11-6.55,17.46-12.8,27.62-15.23,4.31-1,8.94-.44,13.27.21,2.61.39,5.91,1,8.32-.39s.73-4.85-.38-6.54c-2.44-3.73-6.76-6.21-10.82-7.75s-8.06-1.51-12.38-1A67.09,67.09,0,0,0,242,199.6c.11-.57.22-1.13.32-1.71.12-.74.22-1.47.32-2.21,8.06-2,15-8.77,23.49-8.75,2,0,5.6.19,6.69-2.07a3.45,3.45,0,0,0-.94-4.34c-2.84-2.66-8.23-3.6-12-3.67-5.61-.11-12.27.59-17.47,3a67,67,0,0,0-2.88-11.78q-1.08-3.16-2.37-6.22a7.46,7.46,0,0,0,3.12,1.18c.88.17,1.77.25,2.64.48s1.56,1,2.45,1.27a.51.51,0,0,0,.62-.52,2.56,2.56,0,0,0-.06-.3.37.37,0,0,0,.06-.23,8,8,0,0,0-2.33-4.76,10,10,0,0,0,2.54.45c3.43.14,7.37-1.37,9.36-4.25h0c.68-.33.11-1.3-.54-1.14-4.59,1.14-9-1.79-12.58-4.37-1-.75-2-1.45-3-2.06a22.82,22.82,0,0,0,5.77.37c2.27-.17,4.51-.67,6.76-1a19.59,19.59,0,0,1,7.76.64.51.51,0,0,0,.49-.16.54.54,0,0,0,.06-.68c-1.31-3.54-5.44-5.75-8.69-7.13a21.48,21.48,0,0,0-4.4-1.36l1-.34a51.44,51.44,0,0,1,5.18-1.65,18.8,18.8,0,0,1,6.55-.07c.44.31.94-.12.94-.6a.46.46,0,0,0,0-.24ZM156.41,180.5c-1.54.58-.45-4.51-.35-5.25s-.61-1.31-1.19-.82c-3.23,2.71-6.7,5.28-11,5.72a8,8,0,0,1-8.46-5.44c-2.27-5.89.37-13.41,2.87-18.93,4.25,9.59,13.35,16.12,23.45,18.28A9.72,9.72,0,0,1,156.41,180.5ZM59,231.15c-1.5,1.94-2.14,4.89-2.77,7-.81,2.69-1.87,5.05-4.56,6.32-1.71.8-3.54.75-5.34,1,2.39-1.77,3.69-4.51,5-7.18A13,13,0,0,1,59,231.15Zm54.39-32.6a16.74,16.74,0,0,0-18.11,1.89c-5.64,4.34-8.85,10.81-13.48,16a10.72,10.72,0,0,1-10.22,3.77,13.26,13.26,0,0,1-8.23-4.84,8.55,8.55,0,0,0,7-.63c2.89-1.78,4.9-5.29,6.7-8.07,2.31-3.57,4.41-7.23,7.25-10.42a31.44,31.44,0,0,1,10.9-7.79,28.42,28.42,0,0,1,24.21,1c6.91,3.58,9.85,10.26,11.27,17.51A38.05,38.05,0,0,0,127.9,211C124.62,205.27,119.28,201.35,113.35,198.56Zm11.76,63c-1.1.56-11,4.76-10.58,1.78.21-1.69,2.7-3.4,3.88-4.37,1.46-1.2,3-2.29,4.45-3.5,3.27-2.74,5.45-8.08,6.25-12.48.3.41.6.82.91,1.21,1.85,2.33,4,4.45,6,6.64.52.56,1,1.12,1.52,1.7C134.35,256.56,129.6,259.26,125.11,261.56Zm60.4-140.89a.39.39,0,0,0,.13-.26c-.31-6,2-10.76,5.56-15.38,2.91-3.77,6.53-7.24,8.78-11.49.27,5.25-1.8,9.6-4.19,14.33l-.24.48a11.34,11.34,0,0,0-2.14,4.33A17.58,17.58,0,0,0,191.5,121,32.57,32.57,0,0,0,185.51,120.67Zm6.93.5c.86-5,3.26-9.41,5.51-13.92l1.1-1.2a74.19,74.19,0,0,1,8.26-8.2,35.28,35.28,0,0,1,19.75-8c-5.3,3.15-8.78,9.49-11.93,14.43-2.16,3.38-5.68,8.93-8.58,11.72-3.1,3-4.83,3.82-7.82,6.76A40.75,40.75,0,0,0,192.44,121.17Zm7.58,2.12a42.57,42.57,0,0,0,10.86-10c4.83-3.64,9.56-7.45,15.32-9.52a30.59,30.59,0,0,1,17.07-1.36c-6.58.81-12.49,6.32-17,10.59a49.27,49.27,0,0,1-9.93,7.77,104.12,104.12,0,0,1-11.15,4.8A50.8,50.8,0,0,0,200,123.29Zm6.19,2.85a51.52,51.52,0,0,0,10-3.6.36.36,0,0,0,.3.06c3.08-.63,5.84-2.28,8.85-3.14,3.21-.92,6.71-.72,10-.6,4.78.17,10.21.55,14.79-1.27a25.81,25.81,0,0,1-5.38,5.88,32.71,32.71,0,0,1-9.17,4.63,48.83,48.83,0,0,1-12.23,2.48c-3.21.28-6.54-.22-9.71.38A60.18,60.18,0,0,0,206.21,126.14Zm51.54,52.2a24.12,24.12,0,0,1,11.44,2.22c2.47,1.17,3.93,4,0,4.7-2.61.45-5.2,0-7.82.63-3,.76-5.8,2.39-8.54,3.7-3.32,1.6-6.7,3-10.07,4.45a58,58,0,0,0-.26-13.26C247.32,179.12,252.72,178.59,257.75,178.34Zm-6.87-37.28a20.33,20.33,0,0,1,6.93,4.57c-3.38-1-7.48,0-10.73.45a24.42,24.42,0,0,1-8.52-.25c-2.51-.49-5-1.24-7.58-1.15a.36.36,0,0,0-.06.71c1.22.36,2.46.73,3.7,1.09a17.38,17.38,0,0,1,4.7,2.5c1.63,1.25,3.17,2.57,4.9,3.71,2.37,1.57,5.45,3.22,8.42,3.18a12.93,12.93,0,0,1-7.19,1.89c-3.29-.1-5.9-2.57-9.13-2.9-.34,0-.61.47-.23.62,1.78.69,3.37,1.68,5,2.5a13.1,13.1,0,0,1,1.7,1.73,11.66,11.66,0,0,1,1.47,2.61c-2.22-.95-6-.58-7.5-1.71a.36.36,0,0,0-.25-.07,77.17,77.17,0,0,0-15.45-23.07,49.27,49.27,0,0,0,16.85,2.87,25.69,25.69,0,0,0,6.44-1.1A26.13,26.13,0,0,1,250.88,141.06Zm-10.74-2.74c-7.15,1.11-13.7-1.68-20.65-2.42-1-1-2.07-1.93-3.17-2.85q-.79-.66-1.62-1.31c3.5-.08,7.05.49,10.57.25a42,42,0,0,0,9-1.66c8.05-1.08,17.21-.52,23.51,4.17C251.9,133.74,245.82,137.45,240.14,138.33Z"/><path class="cls-28" d="M195.69,124.65a9.22,9.22,0,0,0,1.4-2.41c1.12-2.81,1-6,.93-9a24.11,24.11,0,0,0-7.44,5.6,10,10,0,0,0-2.25,3.83,11.44,11.44,0,0,0-.3,5.24c.19.8,1.39.57,2,.37A11.92,11.92,0,0,0,195.69,124.65Z"/><path class="cls-41" d="M198,112.15a24.06,24.06,0,0,0-7.24,4.92,12.16,12.16,0,0,0-2.58,3.68c-.35.83-1.29,3.81-.44,5.71.06.14.3.1.41,0a.5.5,0,0,0,.12-.24c.34-1.17.56-3.92,1.08-5a11.37,11.37,0,0,1,2.19-3.09,19.34,19.34,0,0,1,3-2.47,32.46,32.46,0,0,0,3.18-1.88c.05,3.51.05,8.36-2.85,10.47-.72.52-.09,1.67.71,1.21,3.94-2.28,3.45-8.86,3.43-12.71A.66.66,0,0,0,198,112.15Z"/><path class="cls-42" d="M194.3,118.42a12.69,12.69,0,0,0-2.46,2.29,4.21,4.21,0,0,0-.57,3.33v0h0c0,.37,1.13.11,1.52,0C195.42,123.37,194.62,118.17,194.3,118.42Z"/><path class="cls-33" d="M137.13,171.24c-.62-3.3,1-6.69,2-9.75.16-.51-.57-.85-.9-.46-2.28,2.67-3.46,7.29-1.75,10.52.2.39.7.06.64-.3Z"/><path class="cls-34" d="M198.67,179.13c1.34-1.44,2.86-3.31,2.51-5.43a.46.46,0,0,0-.87-.17c-.84,1.7-1.19,3.61-2.14,5.27-.18.31.27.58.5.33Z"/><path class="cls-34" d="M199.57,185.31a9.43,9.43,0,0,0,3-5.34c.06-.47-.61-.76-.82-.28-.82,1.84-2,3.44-2.65,5.37-.1.3.32.44.51.25Z"/><path class="cls-34" d="M204.23,175.8a30,30,0,0,0,1.23-3.16,5.69,5.69,0,0,0-.14-3.15.34.34,0,0,0-.66,0c-.3,2.07-.84,4.05-1,6.16,0,.28.43.35.53.11Z"/><path class="cls-34" d="M193.67,182.31c1-1.52,2.17-3,2.16-4.87a.37.37,0,0,0-.65-.22c-1.36,2-2.21,3.79-2.11,4.89,0,.39.42.5.6.21Z"/><path class="cls-34" d="M197.46,174.52c.4-1.94.8-3.78.21-5.73a.42.42,0,0,0-.81.06,18,18,0,0,0,0,5.63.29.29,0,0,0,.58,0Z"/><path class="cls-34" d="M192.39,189.72a6.75,6.75,0,0,0,2-1.82,10.47,10.47,0,0,0,1.16-2.38.29.29,0,0,0-.48-.32A12.16,12.16,0,0,0,193.4,187c-.5.71-.94,1.49-1.44,2.19a.33.33,0,0,0,.43.49Z"/><path class="cls-34" d="M196.39,191.3c0-.06.19-.25.25-.27a.63.63,0,0,0,.35-.18,5.26,5.26,0,0,0,.59-.65,3.26,3.26,0,0,0,.66-1.56c0-.31-.4-.63-.62-.3s-.65.83-1,1.25a6.64,6.64,0,0,0-.43.58c-.16.25-.18.53-.34.79s.29.61.51.34Z"/><path class="cls-34" d="M200.74,170a7.36,7.36,0,0,0,.41-5.56.35.35,0,0,0-.67,0c-.32,1.78-.11,3.54-.31,5.32,0,.33.43.54.58.2Z"/><path class="cls-34" d="M187.4,189.53c.64-.58,1.28-1.22,1.86-1.86a3.33,3.33,0,0,0,.93-2.16.42.42,0,0,0-.73-.25,16.89,16.89,0,0,0-1.4,1.95,9.68,9.68,0,0,0-1.19,2,.33.33,0,0,0,.54.36Z"/><path class="cls-34" d="M186.72,194.67c1.15-1,2.51-1.61,2.8-3.27a.31.31,0,0,0-.58-.2,7.64,7.64,0,0,1-1.36,1.48,8.34,8.34,0,0,0-1.31,1.59c-.17.26.23.61.46.4Z"/><path class="cls-28" d="M150.13,224.32a2.67,2.67,0,0,0-1.54,2.28.59.59,0,0,0,.75.68,3.4,3.4,0,0,0,2-3.26.62.62,0,0,0-.81-.57,2.4,2.4,0,0,0-1.39,1.37,3.18,3.18,0,0,0-.37,2.06.6.6,0,0,0,1,.21c.36-.35.38-1,.51-1.44a1.73,1.73,0,0,1,.78-1.09l-1-.5a2.06,2.06,0,0,1-1.16,2.09l.76.53a1.72,1.72,0,0,1,.7-1.72c.31-.24.09-.84-.32-.66Z"/><path class="cls-28" d="M138.84,232.25a4,4,0,0,0-1.41,3.1.62.62,0,0,0,.8.56c1.95-.45,2.63-2.37,3.18-4.08a.62.62,0,0,0-.47-.74c-2.34-.32-3.92,2.79-2.94,4.72a.69.69,0,0,0,1,.2,4.82,4.82,0,0,0,1.76-4.28c-.07-.44-.56-.84-1-.51a3.16,3.16,0,0,0-1.42,2.66.52.52,0,0,0,1,.21,4.26,4.26,0,0,1,1.16-1.8l-1-.51a3.46,3.46,0,0,1-1.23,3.07l1,.2c-.52-1,.52-2.85,1.68-2.74l-.63-.75c-.39,1.28-.89,2.82-2.34,3.18l.77.4a2.71,2.71,0,0,1,.78-2.38c.33-.38-.21-.84-.57-.52Z"/><path class="cls-28" d="M163.46,221.06c.19-.1-.09,0-.12,0l.37,0,0,0a.44.44,0,0,0-.45,0,1.15,1.15,0,0,0-.3,1.23.54.54,0,0,0,.67.34,1.88,1.88,0,0,0,1.07-.92,2.62,2.62,0,0,0,.31-1.35.63.63,0,0,0-.65-.6,2,2,0,0,0-1.48,2.33.53.53,0,0,0,.9.19,2.49,2.49,0,0,0,.47-.91.57.57,0,0,1,.17-.25c-.07.07.1-.07.1-.07a2.7,2.7,0,0,0,.33-.24l-1.1-.4a1.48,1.48,0,0,1-.13.74c-.11.21-.37.38-.55.61l.9.19a2.14,2.14,0,0,1-.08-.24s0-.18,0-.07q0-.08,0,0a.39.39,0,0,0,.06-.14.47.47,0,0,0,0-.27l-.15.42c.09-.06,0,0,0,0l.11-.05c.4-.26,0-.82-.4-.61Z"/><path class="cls-28" d="M137.87,223.64c-2-.36-2.79,2.66-3,4.13-.06.38.22.88.67.81,2.32-.37,3-3.45,3.22-5.38a.72.72,0,0,0-.92-.84c-2.1.58-3.11,3.08-3.07,5.09a.77.77,0,0,0,1.32.48A6.72,6.72,0,0,0,138.2,223a.7.7,0,0,0-1.22-.44,3.91,3.91,0,0,0-.91,1.51c-.16.55.57.83.92.47s.69-.69,1-1L136.8,223A5.39,5.39,0,0,1,135,226.9l1.32.48c0-1.36.54-3.24,2-3.66l-.92-.84c-.16,1.47-.46,3.81-2.05,4.4l.87.61c0-1,.25-3.63,1.65-3.57.39,0,.44-.61.06-.67Z"/><path class="cls-28" d="M129.87,228a7.72,7.72,0,0,0-.07.88c0,.4.13.84.09,1.23-.06.6.75,1,1.05.38a4.5,4.5,0,0,0,.08-3.44.65.65,0,0,0-1.19-.1c-.43,1-.79,2.69-.1,3.67a.53.53,0,0,0,1-.17,6,6,0,0,0,0-1.45,4.19,4.19,0,0,1,.28-1.46l-1.12.06a3.3,3.3,0,0,1,0,2.51l1-.19a3.5,3.5,0,0,1-.37-1.87c0-.38-.62-.45-.67-.06Z"/><path class="cls-28" d="M178.69,210.9a3.1,3.1,0,0,0,2.16,2.15c.86.27,2.3-.24,2.14-1.36-.13-1-1.22-1.29-2-1.49a5.13,5.13,0,0,0-2.53-.11.78.78,0,0,0-.49,1c.33,1.76,2.35,2.22,3.85,1.78a.76.76,0,0,0,.41-1.14,2.61,2.61,0,0,0-3.12-1.07.52.52,0,0,0,0,1,3.3,3.3,0,0,1,1.8.9l.41-1.14c-.78.23-1.77.13-1.94-.79l-.49,1c.2-.06-.08,0,.08,0h.39a5.72,5.72,0,0,1,.76.06,7,7,0,0,1,.89.19l.25.08c.05,0,.33.17.25.11.14.1.07.07,0-.06s.1-.36,0-.26-.28.09-.5,0a3.71,3.71,0,0,1-1.55-1.14.48.48,0,0,0-.8.38Z"/><path class="cls-28" d="M204.13,197.07a7.36,7.36,0,0,0-1,4.18.69.69,0,0,0,.88.62c2.56-.46,3.31-4.58,3.11-6.69a.77.77,0,0,0-.59-.71c-3.17-.48-4.08,4.13-3.76,6.45a.8.8,0,0,0,1,.72c2.21-.68,2.2-3.58,2.78-5.41a.78.78,0,0,0-.79-.94c-.93.06-1.14.66-1.09,1.49a.67.67,0,0,0,1.25.28.78.78,0,0,0,.16-.33q.14-.42-.26.11l-.79-.94c-.37,1.12-.42,3.83-1.75,4.25l1,.72c-.15-1.11.05-5.16,1.86-4.91l-.59-.71c.17,1.62-.21,4.68-2,5.34l.85.44c-.38-1.27.12-2.45.47-3.66.14-.46-.55-.67-.77-.28Z"/><path class="cls-29" d="M220.74,194.58a3.24,3.24,0,0,0-.28,2.57.6.6,0,0,0,.6.42c2.08-.35,2.83-4.83.48-5.35-2.08-.46-1.34,3.44-.9,4.39.21.46.89.78,1.26.27a3.77,3.77,0,0,0,.11-4.14c-.3-.48-1.17-.25-1.09.35.12.89.46,2-.12,2.79L222,196c.06.13-.08-.3-.11-.38a7.27,7.27,0,0,1-.17-.78,3.48,3.48,0,0,1,0-1.41l-.25.19q-.45-.08-.2,0a.61.61,0,0,1,.19.18,1.54,1.54,0,0,1,.15.94,2.08,2.08,0,0,1-.85,1.7l.84.18a2.78,2.78,0,0,1-.17-1.82.35.35,0,0,0-.64-.23Z"/><path class="cls-29" d="M217,202c-1.73,1.15-1.48,4.19-1,5.92a.74.74,0,0,0,.92.47c1.55-.52,2.22-2.59,2.55-4s.28-3.29-1.29-4.07c-2.85-1.41-2.82,5-2.67,6.35a.83.83,0,0,0,.85.78c2.66-.08,2.59-3.43,2.32-5.34a.81.81,0,0,0-1.6-.14,4.81,4.81,0,0,0-.32,1.8.65.65,0,0,0,1.22.27,15.36,15.36,0,0,0,.61-1.52l-1.53-.34c.11.83.55,3.59-.76,3.64l.85.78a14.25,14.25,0,0,1,0-2.47c0-.39.07-2.22.51-2.4-.13.05-.07,0,.06.12a.92.92,0,0,1,.35.49,3.58,3.58,0,0,1-.07,1.7c-.16.81-.61,2.59-1.49,3l.84.3c-.62-1.25-1-3.71.15-4.77.3-.27-.13-.74-.45-.52Z"/><path class="cls-29" d="M222.37,201.75a3.15,3.15,0,0,1,0,1.07.57.57,0,0,0,.43.68c1.94.28,2-2,1.67-3.3a.7.7,0,0,0-1.18-.25,3.47,3.47,0,0,0-.77,1.62c-.11.58-.09,1.4.5,1.71a.62.62,0,0,0,.82-.23,1.1,1.1,0,0,0,.08-.71,2.09,2.09,0,0,1,.4-1.47l-1.18-.25c.12.44.39,1.64-.25,1.75l.59.55a4.74,4.74,0,0,0-.34-1.31.41.41,0,0,0-.8.14Z"/><path class="cls-29" d="M205.38,218.93a2.21,2.21,0,0,0-1.7,2.24.69.69,0,0,0,.88.62c1.59-.42,2.21-2.1,2.51-3.55.1-.5-.42-1.12-1-.88a3.35,3.35,0,0,0-1.64,1.5,2.1,2.1,0,0,0,0,2.37.66.66,0,0,0,1-.19c.23-.41.14-.93.27-1.38a1.69,1.69,0,0,1,.95-1l-1.14-.79c-.17.95-.44,2.22-1.46,2.59l.85.44a.92.92,0,0,1,.62-1.24.4.4,0,0,0-.25-.77Z"/><path class="cls-29" d="M187.2,225.31c-1.36.66-2.07,2.28-2.68,3.57a.66.66,0,0,0,.44.94c2.67.25,4.29-2.88,4.78-5.09a.77.77,0,0,0-.57-.9c-2.67-1-4.79,2.67-4.7,4.91a.78.78,0,0,0,.81.75c2.34-.35,3.36-2.8,3.87-4.85a.75.75,0,0,0-1-.87,6,6,0,0,0-3.18,4c-.21.72.81,1,1.16.42.65-1.06,1.23-2.55,2.48-3l-1-.87c-.32,1.24-1,3.38-2.47,3.62l.81.75c-.06-1.32,1.15-4,2.81-3.38l-.57-.9c-.39,1.81-1.4,3.8-3.37,4.15l.84.77a5.93,5.93,0,0,1,1.84-3.42.35.35,0,0,0-.38-.59Z"/><path class="cls-29" d="M193.37,223.63a4.16,4.16,0,0,0-1,1.56c-.14.42.34.73.7.64a2.59,2.59,0,0,0,1.7-2.64.63.63,0,0,0-.81-.57c-1.2.29-2.06,2.34-1.16,3.3a.53.53,0,0,0,.82-.15,7.46,7.46,0,0,0,.27-1.33c.11-.38.45-.56.73-.81l-1.09-.39a1.7,1.7,0,0,1-.91,1.62l.84.43a2.39,2.39,0,0,1,.47-1.27c.2-.35-.3-.67-.56-.39Z"/><path class="cls-29" d="M159.73,240.39a6,6,0,0,0-.72.63,1.6,1.6,0,0,0-.32,1.09.55.55,0,0,0,.57.53,2.6,2.6,0,0,0,2-3c0-.29-.28-.64-.63-.58a2.1,2.1,0,0,0-1.42,1.12,1.79,1.79,0,0,0,0,2c.27.31.73.11.92-.17s.12-.74.26-1.1.45-.55.73-.84l-1.05-.38a1.62,1.62,0,0,1-1,1.84l.69.36c-.12-.46.22-.74.51-1s-.2-.8-.55-.5Z"/><path class="cls-29" d="M162.08,245.56l-.18,0a1.73,1.73,0,0,0-.4.19,1.66,1.66,0,0,0-.6,1,.63.63,0,0,0,.63.76,2.16,2.16,0,0,0,1.71-2.86.72.72,0,0,0-1.07-.38,2.43,2.43,0,0,0-1.26,1.45,1.51,1.51,0,0,0,.75,1.93.58.58,0,0,0,.68-.43c.13-.37-.08-.77,0-1.09a1,1,0,0,1,.61-.67l-1.07-.38c.19.67-.22.95-.73,1.28l1,.5c0-.33.24-.41.38-.62a.43.43,0,0,0-.44-.69Z"/><path class="cls-29" d="M227.5,187c-1.67.89-1,4-.48,5.33a.8.8,0,0,0,1,.51c2.64-1.08,3-7.37.2-8.46a.83.83,0,0,0-1,.18c-.88,1.22-.91,3-.95,4.46,0,1.18-.09,3.12,1.07,3.83a1.27,1.27,0,0,0,1.48-.36c.62-.57.45-1.76.36-2.48s-.3-1.56-.47-2.34-.18-1.6-.82-1.94-1.41.29-1.11.94a1.5,1.5,0,0,0,.31.45.59.59,0,0,0,.73.06h0l-.9-.32a11.48,11.48,0,0,1,.46,2.3,10.81,10.81,0,0,1,.22,1.79v.27q-.09.46.68.2a1.22,1.22,0,0,1-.12-.36,9.6,9.6,0,0,1-.15-2.92,5.19,5.19,0,0,1,.47-2.49l-1,.18c1.58.61,1.28,4.91-.13,5.59l1.1.23a4.25,4.25,0,0,1-.32-4.1.43.43,0,0,0-.62-.56Z"/><path class="cls-29" d="M229.42,179.54a4.55,4.55,0,0,0,.15,2.1.65.65,0,0,0,1.24-.06,2.79,2.79,0,0,0-.68-2.85.67.67,0,0,0-1,.19c-.35.89-.37,2.2.65,2.67.42.19,1.06-.2.83-.71s-.51-.8-.3-1.35l-1,.19a1.56,1.56,0,0,1,.32,1.58l1.06-.34a2.48,2.48,0,0,1-.42-1.36c-.05-.41-.7-.53-.77-.07Z"/><path class="cls-34" d="M185.86,137.82c-2.35,1.07-3.37,4.46-2.85,6.84a.8.8,0,0,0,.6.55c1.8.29,2.93-1.66,3.5-3.07s1.12-3.5-.27-4.49c-2.73-2-3.81,5-3.79,6.47a.88.88,0,0,0,.91.84c2.33-.24,2.56-3.52,2.65-5.32,0-1-1.38-1-1.62-.15a2.7,2.7,0,0,0-.09.71.71.71,0,0,0,1.23.44,5.85,5.85,0,0,0,.4-.6L185,139.7c0,.63-.23,3.41-1.08,3.5l.91.84a10.8,10.8,0,0,1,.36-2.51c.11-.51.43-2.28.89-2.5-.21.1-.33-.2-.14.09a.92.92,0,0,1,.06.43,4.88,4.88,0,0,1-.38,1.81c-.26.71-.9,2.3-1.84,2.23l.81.57c-.67-1.7.06-4.61,1.63-5.61.37-.24.08-.92-.34-.72Z"/><path class="cls-34" d="M186.6,146.26a2.59,2.59,0,0,0-.72,2.16c0,.34.32.73.72.66a3.12,3.12,0,0,0,2.2-3.86.74.74,0,0,0-.93-.48,2.79,2.79,0,0,0-1.58,1.47,2.71,2.71,0,0,0-.23,2.4.72.72,0,0,0,1.23-.06c.31-.72.09-2,1-2.4l-.93-.48a1.79,1.79,0,0,1-1,2.07l.79.28a1.09,1.09,0,0,1,.22-1.06c.37-.53-.31-1.2-.77-.69Z"/><path class="cls-34" d="M189.57,137a1.4,1.4,0,0,0-.39,1.15.67.67,0,0,0,1,.53,1.66,1.66,0,0,0,.25-2.57.71.71,0,0,0-1,.05,2.16,2.16,0,0,0-.48,1.08,1.4,1.4,0,0,0,.52,1.41.64.64,0,0,0,.75-.12.81.81,0,0,0,.17-.71c0-.08,0-.15,0-.23s0-.1,0-.15,0,0,0,0a.68.68,0,0,1,.12-.3l-1,.05s.07.1,0,0a.84.84,0,0,1,0,.13c0-.16,0,.11,0,0a.71.71,0,0,1-.23.41l.79-.14c.13.08.09.29.13.09a1.09,1.09,0,0,0,0-.47.42.42,0,0,0-.71-.15Z"/><path class="cls-34" d="M182.87,134.76c-1.28.35-1.48,1.87-1.42,3a.71.71,0,0,0,.93.65c1.74-.75,1.7-3.12,1.53-4.72a.73.73,0,0,0-.74-.68c-2.54-.11-3,5.59-.88,5.25a.72.72,0,0,0,.65-.92c-.07-.23-.25-.37-.34-.59a1.94,1.94,0,0,1-.08-.92c0-.36.21-1.41.71-1.41l-.74-.68c.1,1,.3,2.78-.71,3.39l1.06.38a1.74,1.74,0,0,1,.37-2,.39.39,0,0,0-.33-.7Z"/><path class="cls-34" d="M177.95,132.28a1.45,1.45,0,0,0,.88,2,.67.67,0,0,0,.9-.29,2.15,2.15,0,0,0-1.9-2.88.73.73,0,0,0-.62.4,2.1,2.1,0,0,0,0,2,1.42,1.42,0,0,0,1.92.53.65.65,0,0,0-.06-1.1,1.68,1.68,0,0,0-.47-.17.3.3,0,0,1-.14-.07.74.74,0,0,1,.06-.49l-.62.4c.59,0,.53.9.61,1.31l.61-.87c-.37,0-.49-.24-.47-.56a.37.37,0,0,0-.69-.15Z"/><path class="cls-34" d="M154.09,138.11a2.27,2.27,0,0,0-1.49,1.24.58.58,0,0,0,.54.84c1.32-.06,2.19-1.7,2.48-2.82a.66.66,0,0,0-.67-.8,3.56,3.56,0,0,0-2,1c-.49.47-1.17,1.49-.7,2.15a.55.55,0,0,0,.74.16c.42-.23.49-.77.76-1.14a2.11,2.11,0,0,1,1.28-.87l-.67-.8a3,3,0,0,1-1.54,2l.89.46a1,1,0,0,1,.62-.79.37.37,0,0,0-.22-.7Z"/><path class="cls-34" d="M169.43,136a1.36,1.36,0,0,1-.3-.27l.14.3V136c0-.78-1.27-.62-1.08.19.35,1.43,2.3,1.21,3.36.91a.63.63,0,0,0,.23-1.07,4.85,4.85,0,0,0-3.8-1,.65.65,0,0,0-.42.82,1.84,1.84,0,0,0,1.95,1.2.57.57,0,0,0,.1-1.12c-.28-.08-.69-.17-.8-.48l-.42.82a3.63,3.63,0,0,1,2.69.83l.1-1.16c-.56.17-1.64.47-2-.18l-.16.76.06,0-.32.06.46.15c.37.11.51-.42.22-.6Z"/><path class="cls-43" d="M166,92.2c.45,8.23,1.37,16.45,2.29,24.65.3,2.67.14,6.36,1.33,8.85.69,1.43,5.35,1.11,6.54,1,2.83-.28,5.45-2.24,7.4-4.19a.72.72,0,0,0,.07-.85c-5.11-10.17-11.2-19.87-16.94-29.68-.27-.46-1,0-.69.45,5.7,9.74,11.51,19.78,16.46,30l.07-.85c-2.43,2.34-5.18,3.86-8.62,3.78a12.6,12.6,0,0,1-3.48-.64c.58.19.34.25.19-.47-.75-3.62-1.05-7.36-1.48-11-.82-7-1.48-14-2.44-21-.06-.44-.72-.43-.7,0Z"/><path class="cls-43" d="M167.54,106.05c2.17,1.12,4.74-1.22,4.91-3.37,0-.36-.47-.47-.68-.24-.57.6-1,1.32-1.56,1.92a5.1,5.1,0,0,1-2.62,1.16.3.3,0,0,0,0,.55Z"/><path class="cls-43" d="M168.21,112.78c2.74,1.75,7.76-1.14,7.46-4.43,0-.36-.57-.54-.74-.16-1.26,2.84-3.59,3.94-6.6,4a.3.3,0,0,0-.13.57Z"/><path class="cls-43" d="M168.93,119.84c3.52,2.19,9.69-.68,10.49-4.69.07-.35-.41-.65-.65-.34-2.5,3.22-5.47,4.82-9.61,4.42a.33.33,0,0,0-.22.61Z"/><path class="cls-44" d="M148.9,206.77c2.57-1.21,5.21-1.77,6.82-3.76a.44.44,0,0,0-.42-.7,10.73,10.73,0,0,0-6.79,3.8C148.23,206.47,148.51,207,148.9,206.77Z"/><path class="cls-44" d="M161.47,201a49.75,49.75,0,0,1,15.27-.63c.59.09.66-.71.1-.93-4.59-1.81-10.59-2.39-15.6.76C160.81,200.45,161,201.08,161.47,201Z"/><path class="cls-45" d="M181.07,203c.51,0,.48-.83,0-.89-6.3-.68-18.45,1.3-26.8,5.56-7.53,3.84-15.52,10.77-17.26,19.48-.11.55.69.67.9.22C145.35,211.78,164.56,203.86,181.07,203Z"/><path class="cls-46" d="M183.95,205.21c-13.53-1.05-29.51,4.79-38.37,16.06-.33.42.28,1,.68.66a54.48,54.48,0,0,1,17.13-10.61c1.53-.61,3.07-1.12,4.62-1.58-14.24,6.3-26.3,19-29.86,33.94-.1.41.6.69.79.31a102.94,102.94,0,0,1,5.32-10.13,50.82,50.82,0,0,1,11-12.55A69.25,69.25,0,0,1,173,209.65a106.08,106.08,0,0,1,10.94-3.4A.53.53,0,0,0,183.95,205.21Z"/><path class="cls-45" d="M177,212.52c.51-.23.29-1.11-.28-1-6.89,1.72-13.94,6.32-19.16,11-5.44,4.92-10.52,12.89-12.23,20.05-.11.45.62.73.86.33,3.86-6.53,6.8-12.15,12.3-17.53A67.31,67.31,0,0,1,177,212.52Z"/><path class="cls-44" d="M177.93,215.45c-2.76.68-5.13,2.22-7.53,3.69a44,44,0,0,0-8.34,6.3c-4.2,4.18-8.19,10.1-9.33,16a.42.42,0,0,0,.75.29c3.14-4.79,6.06-9.51,10-13.79a57.45,57.45,0,0,1,14.78-11.42C178.77,216.23,178.59,215.29,177.93,215.45Z"/><path class="cls-47" d="M207.22,203.17a43.09,43.09,0,0,0-7.77-2.15,43.56,43.56,0,0,0-.63-7.9.75.75,0,0,0-1.23-.48,35.44,35.44,0,0,0-4.7,6.59c-3.31-.53-6.79-1.11-8.24-1.12-.42-.32-1.14.18-.84.67.86,1.4,3.68,4.1,5.66,6.47-1.67,2.5-3.75,5.4-5.43,7.85-.41.6.09,1.63.81,1.35,2.74-1,5.56-2.07,8.42-3.41a61.18,61.18,0,0,0,5,5.87c.5.41,1.17,0,1.51-.66,1.11-2.19-.41-5.55-.42-8.34,2-.88,5.89-2.32,7.88-3.25A.8.8,0,0,0,207.22,203.17Z"/><path class="cls-47" d="M197.9,222.94a1.28,1.28,0,0,0-.76-1.72,2.23,2.23,0,0,0-1.94.22,2.17,2.17,0,0,0-.79.63c-1.13,1.55.84,2.49,2.15,2.06a2.26,2.26,0,0,0,.77-.45,2.89,2.89,0,0,0,.33-.35l.1-.15Z"/><path class="cls-47" d="M204.47,189.88a.75.75,0,0,0,.65-.15,1.72,1.72,0,0,0,.49-.73c.85-2-1.8-2.66-2.07-.63A1.52,1.52,0,0,0,204.47,189.88Z"/><path class="cls-47" d="M207.24,191.58a1.27,1.27,0,0,0,1.75-.14,1.2,1.2,0,0,0,.22-.28.86.86,0,0,0,.08-.44,1.14,1.14,0,0,0-2.11-.54A1,1,0,0,0,207.24,191.58Z"/><path class="cls-44" d="M189.66,208a12.68,12.68,0,0,0-1.43,1.92c-.29.41,0,1.2.61.94a5.56,5.56,0,0,0,2.84-4,.62.62,0,0,0-.79-.72c-1.75.49-3,2.31-3.47,4-.16.55.67,1,1,.52.88-1.21,1.21-2.86,2.82-3.33l-.79-.72a4.68,4.68,0,0,1-2.13,3.2l.9.46a3.52,3.52,0,0,1,.94-1.82.35.35,0,0,0-.52-.47Z"/><path class="cls-44" d="M188.27,200.57a3.16,3.16,0,0,0,.7.86,1.66,1.66,0,0,0,.52.27c.2.07.42,0,.61.05a.5.5,0,0,0,.6-.5,1.87,1.87,0,0,0-1-1.48,2.36,2.36,0,0,0-1.83,0,.58.58,0,0,0-.09,1.06,4.91,4.91,0,0,0,1.92.88.53.53,0,0,0,.33-.92,3.58,3.58,0,0,0-.78-.48c-.31-.17-.62-.35-.94-.51l-.09,1.06a1.37,1.37,0,0,1,1-.11c.35.14.44.49.62.79l.14-.69c-.37.28-1-.52-1.16-.71s-.71.12-.51.44Z"/><path class="cls-44" d="M195.82,197.61c-.39.32-.78.39-1,.91s.29,1,.77.7a5.15,5.15,0,0,0,1.5-1.68c.23-.4-.22-1-.66-.79a2.94,2.94,0,0,0-1.41,1.1c-.31.47-.74,1.33-.32,1.84a.47.47,0,0,0,.64.13c.38-.28.39-.73.58-1.13a2,2,0,0,1,.85-.88l-.66-.79a6.5,6.5,0,0,1-1.21,1.38l.92.48c.06-.28.38-.39.56-.59.33-.37-.18-1-.58-.68Z"/><path class="cls-44" d="M201.41,202.75c-.13,0-.16,0-.27-.09a.93.93,0,0,0-.54-.06c-.36,0-.71.48-.43.83a2.93,2.93,0,0,0,.88.77,4.09,4.09,0,0,0,1.31.34.65.65,0,0,0,.76-.83,2.37,2.37,0,0,0-3.07-1.36.65.65,0,0,0-.35,1,1.32,1.32,0,0,0,1.24.47.5.5,0,0,0,0-1c-.1,0-.09,0-.07,0l.09.29a.91.91,0,0,0-.06-.32l-.42.81a1.81,1.81,0,0,1,.95,0c.29.09.44.43.57.67l.52-1a2,2,0,0,1-1.49-.53l0,.76s0,0,.05,0c-.15.05-.1,0,0,0a1.18,1.18,0,0,0,.45,0c.43-.08.28-.75-.13-.74Z"/><path class="cls-44" d="M196.53,212.55a13,13,0,0,0,.58,2.09c.14.44.88.59,1.07.09.45-1.19.69-2.58-.31-3.56a.56.56,0,0,0-.79,0,2.5,2.5,0,0,0-.28,2.24c.13.55.9.33.92-.16a2.4,2.4,0,0,1,.19-1.33l-.79,0c.56.58.28,1.54,0,2.2l1-.05a9.78,9.78,0,0,1-.69-1.76c-.14-.51-1-.37-.93.16Z"/><path class="cls-29" d="M208,203c-1.41-2.09-5.39-2.36-7.87-2.39.13-2.27.25-6-.89-8-1.64-2.81-6,3.93-7.26,5.93-1.94-.65-7.6-2.08-8.32-.39a.38.38,0,0,0-.12.25c-.14,2.32,2,4,3.51,5.43.5.49,1.5,1.07,1,1.87-.7,1.08-1.47,2.11-2.23,3.15s-1.45,2-2.14,3c-.88,1.29-.77,2.54.92,2.74,2.9.34,5.81-2,8.46-2.82a10.36,10.36,0,0,0,2.67,3.64c.85.86,2.35,2.15,3.68,1.7s1.39-2.44,1.38-3.51a26.08,26.08,0,0,0-.75-5.12C201.89,208,209.78,205.6,208,203Zm-3.5,2.65c-1.64.73-3.32,1.35-5,2.06a.47.47,0,0,0-.29.36.52.52,0,0,0-.21.53c.43,2.11,1.45,5.29.44,7.34-.84,1.72-5.44-3.69-5.85-4.61a.35.35,0,0,0-.41-.22.36.36,0,0,0-.25,0,33,33,0,0,0-4.28,1.39c-.52.19-5.21,1.83-4.06-.08,1.43-2.37,3.35-4.44,4.79-6.81a.54.54,0,0,0,0-.54c-1.49-2.29-4.08-3.55-5-6.16,1-1.34,6.27.42,7.54.92a.59.59,0,0,0,.78-.25,28.61,28.61,0,0,1,3.56-5c.24-.26,1.82-1.89,2.13-.89a10,10,0,0,1,.31,1.77c.23,1.81.16,3.63.31,5.44a.53.53,0,0,0,.17.36.5.5,0,0,0,.48.42,17.79,17.79,0,0,1,6.71,1.31C208.5,203.85,205.39,205.2,204.49,205.61Z"/><path class="cls-34" d="M141.95,207.53a3.07,3.07,0,0,0-1.27,2.12c0,.42.32.94.81.74a3.16,3.16,0,0,0,2-2.77.67.67,0,0,0-.88-.61,4,4,0,0,0-1.46,1.11,2.28,2.28,0,0,0-.74,1.84.6.6,0,0,0,.9.32c.4-.23.55-.72.81-1.08a3.06,3.06,0,0,1,1.07-1l-1-.54a1.89,1.89,0,0,1-1.14,1.59l1,.5a1.93,1.93,0,0,1,.54-1.64c.3-.33-.14-.87-.51-.6Z"/><path class="cls-34" d="M147.58,199.11a6.83,6.83,0,0,0-4.52,3.91.74.74,0,0,0,.49,1.05c1.2.26,2.49-.72,3.35-1.43s2-1.79,1.93-3a.78.78,0,0,0-1-.7,6.19,6.19,0,0,0-4.52,3.78c-.21.62.51,1.12,1.05,1a6,6,0,0,0,2.58-1.77c.41-.42-.08-1.27-.65-1a13.11,13.11,0,0,1-2.43,1.21l1.05,1a4.72,4.72,0,0,1,3.38-2.67l-1-.7c0,.69-.94,1.47-1.41,1.86a3.61,3.61,0,0,1-2.2,1.1l.74.89a5.45,5.45,0,0,1,3.44-3.52c.58-.17.29-1-.28-.88Z"/><path class="cls-34" d="M154.7,197.44a3.93,3.93,0,0,0-2.62,1.36.6.6,0,0,0,.46,1,4.33,4.33,0,0,0,3.71-2.11.6.6,0,0,0-.4-.85,3,3,0,0,0-2.19.46c-.62.35-1.6,1-1.72,1.79-.06.37.29.81.69.64,1-.43,1.65-2,3-1.73l-.31-1a3.64,3.64,0,0,1-2.79,1.6l.55.86a2.74,2.74,0,0,1,1.79-1.29c.39-.13.3-.81-.13-.74Z"/><path class="cls-34" d="M132.47,214.29a6.58,6.58,0,0,0-.66,2.07c-.08.39.32.85.73.67,1.33-.57,1.49-2.12,1.51-3.38a.61.61,0,0,0-.8-.56c-1.21.5-2.26,2.49-1.49,3.7a.64.64,0,0,0,.57.29c.84-.11.49-.9.59-1.46a2.19,2.19,0,0,1,.85-1.43l-.94-.49a2.38,2.38,0,0,1-.78,2.31l.88.46a4.26,4.26,0,0,1,.37-1.74.47.47,0,0,0-.83-.43Z"/><path class="cls-34" d="M135.3,216.26a3.32,3.32,0,0,0-.36,1.26.6.6,0,0,0,.92.47,2,2,0,0,0,.69-2.31.59.59,0,0,0-.87-.31,2,2,0,0,0-.83,2.19c.15.37.75.52.93.08.11-.27.14-.55.23-.83a1.4,1.4,0,0,1,.43-.57l-1-.21a.79.79,0,0,1-.23,1l.89.32a1.7,1.7,0,0,1,0-.76.44.44,0,0,0-.81-.29Z"/><path class="cls-34" d="M171.09,190.8c-2,.15-5.6.49-5.87,3.08a.8.8,0,0,0,.59.92c1.26.38,3-.11,4.2-.43,1-.25,2.94-.84,2.75-2.19-.42-3.1-7.23-.74-7.17,1.89a.88.88,0,0,0,.89.83,7.39,7.39,0,0,0,2.86-.55,11.55,11.55,0,0,0,2.7-1.2.71.71,0,0,0-.41-1.29c-1.8.05-3.35,1.38-5.21,1.31l.89.83c0-.65,1.72-1.19,2.17-1.34a3.65,3.65,0,0,1,1.45-.23.38.38,0,0,1,.27.12c-.24-.21.18-.58-.15-.34a7,7,0,0,1-2.62.88,5.93,5.93,0,0,1-2.29.2l.6.72c0-1.64,3.22-1.88,4.39-2,.77-.09.74-1.27,0-1.21Z"/><path class="cls-34" d="M177.16,189.36a2.51,2.51,0,0,0-2.9.83.68.68,0,0,0,.46,1,3.3,3.3,0,0,0,3-1.07.73.73,0,0,0-.56-1.2c-1.07,0-2.65.34-2.72,1.62a.56.56,0,0,0,.86.44,3,3,0,0,1,1.93-.63l-.56-1.2a2.11,2.11,0,0,1-1.84.69l.69.83c.17-.64,1-.69,1.58-.68.37,0,.38-.52.06-.61Z"/><path class="cls-34" d="M174.08,194.54a2.78,2.78,0,0,0-1.6.57c-.62.39-.22,1.19.4,1.24a2.35,2.35,0,0,0,2.65-1.45c.17-.46-.32-.87-.73-.87a4.71,4.71,0,0,0-1.81.34c-.63.26-1.43,1-.88,1.7a.67.67,0,0,0,1.14-.06c0-.07.2-.27.06-.15a1.23,1.23,0,0,1,.41-.21,3.49,3.49,0,0,1,1.14-.2l-.73-.87c-.16.47-.92.43-1.3.42l.63,1c.15-.32.48-.44.78-.58a.44.44,0,0,0-.15-.86Z"/><path class="cls-34" d="M160.78,196.32a1.87,1.87,0,0,1-.59.1.61.61,0,0,0-.58.63.62.62,0,0,0,.79.55,3.74,3.74,0,0,0,1-.45.65.65,0,0,0-.06-1.11,1,1,0,0,0-1,0,1,1,0,0,0-.3.33c-.07.12.09-.11,0,0a.92.92,0,0,0-.12.21.55.55,0,0,0,.37.78.77.77,0,0,0,.62-.13,2.4,2.4,0,0,0,.22-.19.42.42,0,0,1-.4.12l0,0-.06-1.11a5.78,5.78,0,0,1-.71.37l.79.55v-.1l-.05.24c-.06.09,0,0,0,0l.3-.14c.39-.21.07-.79-.32-.68Z"/></g></g></svg>