<svg xmlns="http://www.w3.org/2000/svg" xmlns:xlink="http://www.w3.org/1999/xlink" viewBox="0 0 700 450"><defs><style>.cls-1{fill:url(#radial-gradient);}.cls-2{fill:#e183ff;}.cls-3{fill:url(#radial-gradient-2);}.cls-4{fill:#d4ff00;}.cls-5{fill:#ff931e;}.cls-6{fill:url(#radial-gradient-3);}.cls-7{fill:#f9e5bd;}.cls-8{fill:#ffd26e;}.cls-21,.cls-9{fill:#26bdd1;}.cls-10,.cls-12{fill:#00488e;}.cls-11{fill:#f8fed2;stroke:#00b7ff;stroke-width:0.28px;}.cls-11,.cls-17,.cls-20{stroke-miterlimit:22.93;}.cls-11,.cls-12,.cls-13,.cls-14,.cls-15,.cls-18,.cls-21,.cls-22,.cls-24,.cls-25,.cls-26{fill-rule:evenodd;}.cls-13{fill:#019dcb;}.cls-14,.cls-23{fill:#03bddc;}.cls-15{fill:#c4ffff;}.cls-15,.cls-20,.cls-22{opacity:0.5;}.cls-16,.cls-19{fill:#fff;}.cls-17,.cls-20{fill:#fc0;stroke:#f60;stroke-width:0.11px;}.cls-18{fill:#c63;}.cls-19{opacity:0.82;}.cls-22{fill:#039;}.cls-24,.cls-28{fill:#05a4e2;}.cls-25,.cls-27{fill:#024056;}.cls-26{fill:#087fa3;}.cls-29{fill:none;}</style><radialGradient id="radial-gradient" cx="633.17" cy="292.86" r="111.88" gradientUnits="userSpaceOnUse"><stop offset="0.01" stop-color="#f25fff"/><stop offset="1" stop-color="#bd00ff"/></radialGradient><radialGradient id="radial-gradient-2" cx="86.99" cy="192.52" r="51.9" gradientUnits="userSpaceOnUse"><stop offset="0" stop-color="#b4ff00"/><stop offset="1" stop-color="#87bf00"/></radialGradient><radialGradient id="radial-gradient-3" cx="325.13" cy="236.57" r="132.83" gradientUnits="userSpaceOnUse"><stop offset="0" stop-color="#df7800"/><stop offset="1" stop-color="#bf6d00"/></radialGradient></defs><title>Resultado_nave_ok</title><g id="Capa_2" data-name="Capa 2"><g id="Arte"><path class="cls-1" d="M660.29,315.44a49.72,49.72,0,1,1-60.55-35.75A49.72,49.72,0,0,1,660.29,315.44Z"/><path class="cls-2" d="M656.75,316.42a46.48,46.48,0,0,0-87.65-6.94,46.46,46.46,0,0,1,79.43,46.89A46.42,46.42,0,0,0,656.75,316.42Z"/><path class="cls-3" d="M112.13,206a32.51,32.51,0,1,1-39.59-23.37A32.5,32.5,0,0,1,112.13,206Z"/><path class="cls-4" d="M109.81,206.66a30.38,30.38,0,0,0-57.3-4.54,30.37,30.37,0,0,1,51.93,30.65A30.31,30.31,0,0,0,109.81,206.66Z"/><path class="cls-5" d="M475.64,225.28A160.48,160.48,0,1,1,280.21,109.92,160.48,160.48,0,0,1,475.64,225.28Z"/><path class="cls-6" d="M464.2,228.46A150,150,0,0,0,181.29,206a150,150,0,0,1,256.4,151.35A149.66,149.66,0,0,0,464.2,228.46Z"/><path class="cls-7" d="M610.39,212c-5.29-20.52-62.65-25-144.76-14.78,1.06,2.28,1.95,4.67,2.91,7,62.85-6.95,105.57-3.41,109.52,12,4.61,17.84-44,46.93-119.79,75.09A1247,1247,0,0,1,336.41,329a1254.29,1254.29,0,0,1-123,25.52C132.5,366.82,74.94,365,70.3,347c-4-15.42,32-39.26,90.71-63.63-.31-2.59-.69-5.18-.86-7.74-78,31-127,63-121.62,83.7,5.66,22,70.85,25.53,162.24,12.47,41.8-6,89.05-15.43,138.62-28.2,50.45-13,97.15-27.85,137.08-43.11C561.58,268,616,233.75,610.39,212Z"/><path class="cls-8" d="M70.3,347c4.64,18,62.19,19.84,143.15,7.57a1254.29,1254.29,0,0,0,123-25.52,1247,1247,0,0,0,121.85-37.77C534,263.09,582.66,234,578.05,216.16c-3.95-15.37-46.67-18.91-109.52-12a159.93,159.93,0,0,1,6.35,18.31c20.33,1.1,33.12,5.35,35.07,13,2.14,8.31-9,19.36-29.5,31.32-31.34,18.26-84.69,38.65-146.79,54.64C272.94,337.07,217.48,345,181.13,344.56c-25.14-.31-41.12-4.64-43.32-13.23-2-7.88,7.82-18.23,26.35-29.48A160.82,160.82,0,0,1,161,283.35C102.26,307.72,66.33,331.55,70.3,347Z"/><rect class="cls-9" x="308.35" y="25.57" width="43.6" height="1.61" transform="translate(299.47 356.15) rotate(-89.25)"/><rect class="cls-9" x="324.52" y="9.61" width="11.66" height="1.61" transform="translate(315.64 340.61) rotate(-89.25)"/><rect class="cls-10" x="321.9" y="18.5" width="16.66" height="0.95" rx="0.27" ry="0.27" transform="translate(306.95 348.93) rotate(-89.25)"/><path class="cls-11" d="M330.13,27.59c11.18.15,20,18.52,19.72,41s-9.86,60.42-21,60.28-19.75-38.29-19.46-60.81S318.95,27.45,330.13,27.59Z"/><path class="cls-12" d="M329.39,67.63a11.28,11.28,0,1,0-11.07-11.43A11.27,11.27,0,0,0,329.39,67.63Z"/><path class="cls-13" d="M328.94,67.63a10.82,10.82,0,1,0-10.62-11A10.81,10.81,0,0,0,328.94,67.63Z"/><path class="cls-12" d="M329,66.48a9,9,0,1,0-8.84-9.12A9,9,0,0,0,329,66.48Z"/><path class="cls-14" d="M329.63,66a8.64,8.64,0,1,0-8.48-8.75A8.64,8.64,0,0,0,329.63,66Z"/><path class="cls-15" d="M331.1,64.26A8.65,8.65,0,0,1,324,50.87a8.62,8.62,0,1,0,12.91,11.2l-.14.12A8.54,8.54,0,0,1,331.1,64.26Z"/><path class="cls-15" d="M328.19,46.16a10.83,10.83,0,0,1,2.29,21.36,10.82,10.82,0,1,0-4-21.25A10.79,10.79,0,0,1,328.19,46.16Z"/><ellipse class="cls-16" cx="330.43" cy="7.25" rx="3.05" ry="3.15" transform="translate(318.87 337.56) rotate(-89.25)"/><circle class="cls-17" cx="330.3" cy="7.28" r="3.04" transform="translate(318.72 337.45) rotate(-89.25)"/><path class="cls-18" d="M328.54,4.82a2.84,2.84,0,0,0-1.27,2.47,3.06,3.06,0,0,0,2.69,3,2.86,2.86,0,0,0,1.44-.19C328.18,10.18,326.38,7.11,328.54,4.82Z"/><path class="cls-18" d="M333,7a3.21,3.21,0,0,1-.88,2.5,2.63,2.63,0,0,0,1.2-2.46,3.16,3.16,0,0,0-2.74-2.84,2.8,2.8,0,0,0-1.23.15C330.91,4.16,333,5.64,333,7Z"/><circle class="cls-19" cx="331.27" cy="5.42" r="0.86" transform="translate(321.54 336.59) rotate(-89.25)"/><circle class="cls-20" cx="330.51" cy="7.21" r="3.04" transform="translate(318.99 337.6) rotate(-89.25)"/><path class="cls-21" d="M320.08,32.75,340,33a18,18,0,0,0-4-3.57l-11.85-.15A18,18,0,0,0,320.08,32.75Z"/><path class="cls-21" d="M318.53,34.67a32.72,32.72,0,0,0-2.23,3.49l27.39.36A32.73,32.73,0,0,0,341.55,35Z"/><path class="cls-21" d="M315.3,40.07q-.81,1.66-1.53,3.5l32.31.42q-.67-1.85-1.44-3.53Z"/><path class="cls-22" d="M334.32,124.59c-11.18-.15-19.75-38.29-19.46-60.81.2-15.06,4.42-28.15,10.54-35.14-9,4.17-15.79,20.21-16,39.46-.29,22.52,8.28,60.66,19.46,60.81,2.35,0,4.64-1.63,6.78-4.47A5.1,5.1,0,0,1,334.32,124.59Z"/><path class="cls-12" d="M329,88.92a5.78,5.78,0,1,0-5.67-5.85A5.77,5.77,0,0,0,329,88.92Z"/><path class="cls-13" d="M328.75,88.92a5.54,5.54,0,1,0-5.44-5.61A5.54,5.54,0,0,0,328.75,88.92Z"/><ellipse class="cls-10" cx="328.86" cy="83.72" rx="4.61" ry="4.59" transform="translate(240.87 411.46) rotate(-89.25)"/><ellipse class="cls-23" cx="329.16" cy="83.64" rx="4.43" ry="4.4" transform="translate(241.24 411.69) rotate(-89.25)"/><path class="cls-15" d="M329.86,87.19a4.43,4.43,0,0,1-3.62-6.85,4.42,4.42,0,1,0,6.61,5.73l-.07.06A4.37,4.37,0,0,1,329.86,87.19Z"/><path class="cls-15" d="M328.37,77.92a5.54,5.54,0,0,1,1.17,10.94A5.54,5.54,0,1,0,327.48,78,5.53,5.53,0,0,1,328.37,77.92Z"/><path class="cls-24" d="M311.32,92.85l35.37.46q.28-1.68.53-3.34l-36.34-.47Q311.08,91.16,311.32,92.85Z"/><path class="cls-25" d="M314.33,105.29l-11.59,11.53,1,31.52,1.76,0,3.93-21,10.86-6.07A75.45,75.45,0,0,1,314.33,105.29Z"/><path class="cls-26" d="M314,106.06,303.4,117l.83,30.72h.94l3.7-20.87,10.59-5.78A72.64,72.64,0,0,1,314,106.06Z"/><path class="cls-24" d="M304,116.82l14.92,3.76a67.75,67.75,0,0,1-5-14Z"/><path class="cls-24" d="M318.86,121.07l-15.08-3.8,0,0,0,.87,5.13,8.43,10-5.45Z"/><polygon class="cls-24" points="308.55 127.08 303.76 119.22 304.47 145.41 305.29 145.43 308.55 127.08"/><path class="cls-25" d="M343.84,105.68l11.29,11.83L353.31,149l-1.76,0-3.38-21.14-10.7-6.35A75.45,75.45,0,0,0,343.84,105.68Z"/><path class="cls-26" d="M344.11,106.45l10.34,11.24-1.63,30.69h-.94l-3.16-21-10.44-6.06A72.64,72.64,0,0,0,344.11,106.45Z"/><path class="cls-24" d="M353.9,117.47l-15,3.37A67.75,67.75,0,0,0,344.28,107Z"/><path class="cls-24" d="M338.9,121.33l15.17-3.41,0,0,0,.87-5.35,8.29-9.84-5.71Z"/><polygon class="cls-24" points="349.05 127.6 354.04 119.87 352.65 146.04 351.82 146.03 349.05 127.6"/><path class="cls-24" d="M347.22,92l-35.84-.47q.3,1.77.63,3.52l34.49.45Q346.87,93.76,347.22,92Z"/><path class="cls-24" d="M345.6,99.36l-32.81-.43q.39,1.78.81,3.53l31.09.41Q345.17,101.14,345.6,99.36Z"/><rect class="cls-27" x="327.09" y="121.9" width="3.48" height="11.14" transform="translate(197.08 454.61) rotate(-89.25)"/><rect class="cls-28" x="327.48" y="122.24" width="2.69" height="10.45" rx="0.78" ry="0.78" transform="matrix(0.01, -1, 1, 0.01, 197.09, 454.6)"/><rect class="cls-27" x="327.73" y="122.56" width="2.2" height="9.85" rx="0.64" ry="0.64" transform="translate(197.07 454.62) rotate(-89.25)"/><rect class="cls-27" x="307.04" y="125.47" width="43.6" height="3.66" transform="matrix(0.01, -1, 1, 0.01, 197.26, 454.45)"/><rect class="cls-27" x="323.22" y="109.51" width="11.66" height="3.66" transform="matrix(0.01, -1, 1, 0.01, 213.43, 438.91)"/><rect class="cls-28" x="323.57" y="109.95" width="10.94" height="2.83" rx="0.82" ry="0.82" transform="translate(213.4 438.92) rotate(-89.25)"/><rect class="cls-28" x="313.28" y="131.78" width="30.94" height="2.83" rx="0.82" ry="0.82" transform="translate(191.29 460.19) rotate(-89.25)"/><rect class="cls-28" x="328.83" y="115.34" width="0.28" height="3.66" rx="0.08" ry="0.08" transform="translate(207.53 444.58) rotate(-89.25)"/><rect class="cls-29" width="700" height="450"/></g></g></svg>