<svg xmlns="http://www.w3.org/2000/svg" viewBox="0 0 700 450"><defs><style>.cls-1{fill:#9590a0;}.cls-2{fill:#fff;}.cls-3{fill:#787289;}.cls-4{fill:#ede60a;}.cls-5{fill:none;}</style></defs><title>Resultado_avion_crash</title><g id="Capa_2" data-name="Capa 2"><g id="Arte"><g id="g4840"><path id="path3828" class="cls-1" d="M328.84,2.34,484,280.18l53.12-48.82L673.7,447.66H26.3L163.08,175l47.52,48.81L328.84,2.34Z"/><polygon class="cls-2" points="295.06 92.44 300.53 156.2 324.31 99.97 344.48 122.49 344.48 96.17 387.27 108.05 328.92 2.34 278.33 96.96 295.06 92.44"/><polygon class="cls-2" points="518.24 258.84 516.21 271.83 532.31 258.28 541.94 270.54 546.79 259.02 569.99 282.96 537.08 231.36 496.08 269.1 518.24 258.84"/><polygon class="cls-2" points="198.07 210.95 163.08 175.01 134.56 231.87 155.06 217.73 165.44 241.66 179.35 202.78 198.07 210.95"/></g><polygon class="cls-3" points="182.92 249.94 150.8 293.19 107.64 285.49 26.3 447.66 673.7 447.66 596.85 325.93 569.99 351.59 540.03 310.7 522.02 334.08 483.96 280.18 473.22 290.83 457.82 282.96 423.12 351.59 379.47 241.66 341.29 301.39 286.96 231.36 266.42 277.98 210.6 223.82 202.22 215.2 182.92 249.94"/><polygon class="cls-4" points="248.09 118.29 253.29 173.59 285.46 128.3 262.31 178.8 312.81 155.66 267.52 187.82 322.83 193.03 267.52 198.24 312.81 230.4 262.31 207.26 285.46 257.76 253.29 212.47 248.09 267.77 242.88 212.47 210.71 257.76 233.85 207.26 183.35 230.4 228.65 198.24 173.34 193.03 228.65 187.82 183.35 155.66 233.85 178.8 210.71 128.3 242.88 173.59 248.09 118.29"/><rect class="cls-5" width="700" height="450"/></g></g></svg>