<svg xmlns="http://www.w3.org/2000/svg" xmlns:xlink="http://www.w3.org/1999/xlink" viewBox="0 0 700 450"><defs><style>.cls-1{fill:url(#radial-gradient);}.cls-2{fill:#e183ff;}.cls-3{fill:url(#radial-gradient-2);}.cls-4{fill:#d4ff00;}.cls-5{fill:#ff931e;}.cls-6{fill:url(#radial-gradient-3);}.cls-7{fill:#f9e5bd;}.cls-8{fill:#ffd26e;}.cls-9{fill:#ede60a;}.cls-10{fill:none;}</style><radialGradient id="radial-gradient" cx="633.17" cy="267.96" r="111.88" gradientUnits="userSpaceOnUse"><stop offset="0.01" stop-color="#f25fff"/><stop offset="1" stop-color="#bd00ff"/></radialGradient><radialGradient id="radial-gradient-2" cx="86.99" cy="167.61" r="51.9" gradientUnits="userSpaceOnUse"><stop offset="0" stop-color="#b4ff00"/><stop offset="1" stop-color="#87bf00"/></radialGradient><radialGradient id="radial-gradient-3" cx="325.13" cy="211.66" r="132.83" gradientUnits="userSpaceOnUse"><stop offset="0" stop-color="#df7800"/><stop offset="1" stop-color="#bf6d00"/></radialGradient></defs><title>Resultado_Nave_crash</title><g id="Capa_2" data-name="Capa 2"><g id="Arte"><path class="cls-1" d="M660.29,290.53a49.72,49.72,0,1,1-60.55-35.75A49.72,49.72,0,0,1,660.29,290.53Z"/><path class="cls-2" d="M656.75,291.51a46.48,46.48,0,0,0-87.65-6.94,46.46,46.46,0,0,1,79.43,46.89A46.42,46.42,0,0,0,656.75,291.51Z"/><path class="cls-3" d="M112.13,181.11a32.51,32.51,0,1,1-39.59-23.37A32.5,32.5,0,0,1,112.13,181.11Z"/><path class="cls-4" d="M109.81,181.75a30.38,30.38,0,0,0-57.3-4.54,30.37,30.37,0,0,1,51.93,30.65A30.31,30.31,0,0,0,109.81,181.75Z"/><path class="cls-5" d="M475.64,200.37A160.48,160.48,0,1,1,280.21,85,160.48,160.48,0,0,1,475.64,200.37Z"/><path class="cls-6" d="M464.2,203.55a150,150,0,0,0-282.9-22.42,150,150,0,0,1,256.4,151.35A149.66,149.66,0,0,0,464.2,203.55Z"/><path class="cls-7" d="M610.39,187.06c-5.29-20.52-62.65-25-144.76-14.78,1.06,2.28,1.95,4.67,2.91,7,62.85-6.95,105.57-3.41,109.52,12,4.61,17.84-44,46.93-119.79,75.09a1247,1247,0,0,1-121.85,37.77,1254.29,1254.29,0,0,1-123,25.52c-81,12.27-138.51,10.42-143.15-7.57-4-15.42,32-39.26,90.71-63.63-.31-2.59-.69-5.18-.86-7.74-78,31-127,63-121.62,83.7,5.66,22,70.85,25.53,162.24,12.47,41.8-6,89.05-15.43,138.62-28.2,50.45-13,97.15-27.85,137.08-43.11C561.58,243.09,616,208.85,610.39,187.06Z"/><path class="cls-8" d="M70.3,322.07c4.64,18,62.19,19.84,143.15,7.57a1254.29,1254.29,0,0,0,123-25.52,1247,1247,0,0,0,121.85-37.77c75.74-28.15,124.39-57.25,119.79-75.09-3.95-15.37-46.67-18.91-109.52-12a159.93,159.93,0,0,1,6.35,18.31c20.33,1.1,33.12,5.35,35.07,13,2.14,8.31-9,19.36-29.5,31.32-31.34,18.26-84.69,38.65-146.79,54.64-60.73,15.65-116.19,23.59-152.54,23.14C156,319.34,140,315,137.82,306.43c-2-7.88,7.82-18.23,26.35-29.48A160.82,160.82,0,0,1,161,258.44C102.26,282.81,66.33,306.64,70.3,322.07Z"/><polygon class="cls-9" points="269.61 49.08 274.84 104.63 307.14 59.14 283.9 109.86 334.62 86.61 289.13 118.92 344.68 124.15 289.13 129.38 334.62 161.68 283.9 138.44 307.14 189.16 274.84 143.67 269.61 199.22 264.38 143.67 232.07 189.16 255.32 138.44 204.6 161.68 250.09 129.38 194.54 124.15 250.09 118.92 204.6 86.61 255.32 109.86 232.07 59.14 264.38 104.63 269.61 49.08"/><rect class="cls-10" width="700" height="450"/></g></g></svg>