<svg xmlns="http://www.w3.org/2000/svg" viewBox="0 0 700 450"><defs><style>.cls-1{fill:#4b9839;}.cls-2{fill:#0f8537;}.cls-3{fill:#8bc53f;}.cls-4{fill:#d98036;}.cls-5{fill:#b8532a;}.cls-6{fill:#faaf40;}.cls-7{fill:#f6921e;}.cls-8{fill:#56b8d5;}.cls-9{fill:#005486;}.cls-10{fill:#131f44;}.cls-11{fill:#0091a0;}.cls-12{fill:#29acb8;}.cls-13{fill:#2d2932;}.cls-14{fill:#fff;}.cls-15{fill:#92cdd3;}.cls-16{fill:#5b85b2;}.cls-17{fill:#003864;}.cls-18{fill:#486c85;}.cls-19{fill:#e8413c;}.cls-20{fill:#f26e42;}.cls-21{fill:#efd5b2;}.cls-22{fill:#81b73a;}.cls-23{fill:#2b983e;}.cls-24{fill:#ffdd15;}.cls-25{fill:#37b34a;}.cls-26{fill:#61adb5;}.cls-27{fill:#116974;}.cls-28{fill:#69bac2;}.cls-29{fill:#008a99;}.cls-30{fill:#0b6779;}.cls-31{fill:#356f24;}.cls-32{fill:#b4d234;}.cls-33{fill:#4c301f;}.cls-34{fill:#4c4231;}.cls-35{fill:#e6e7e8;}.cls-36{fill:#dbdcdd;}.cls-37{fill:#d0d2d3;}.cls-38{fill:#808184;}.cls-39{fill:#6ac9d4;}.cls-40{fill:#58a8b2;}.cls-41,.cls-42,.cls-43{fill:none;}.cls-41,.cls-42{stroke:#fff;stroke-miterlimit:10;stroke-width:1.18px;}.cls-42{stroke-dasharray:4.69 4.69;}</style></defs><title>Resultado_Avion_ok</title><g id="Capa_2" data-name="Capa 2"><g id="Arte"><path class="cls-1" d="M332.14,324.19a13.89,13.89,0,0,1-2.1-7,14.4,14.4,0,0,1,14.4-14.42,14,14,0,0,1,6.06,1.43,37.13,37.13,0,0,1,66.76,17c.17,0,.35-.06.52-.06a21.29,21.29,0,1,1-15.7,35.57,36.94,36.94,0,0,1-43.31,0,21.24,21.24,0,1,1-26.63-32.48Z"/><path class="cls-1" d="M43,369.27A13.89,13.89,0,0,1,39.26,363a14.4,14.4,0,0,1,10.34-17.56,14,14,0,0,1,6.22-.13A37.12,37.12,0,0,1,124.7,345c.17,0,.33-.14.49-.19a21.29,21.29,0,1,1-6.3,38.37A36.93,36.93,0,0,1,77,394.06,21.24,21.24,0,1,1,43,369.27Z"/><path class="cls-1" d="M237.13,325a8.91,8.91,0,0,1,7.8-13.61,8.89,8.89,0,0,1,3.82.91A23.53,23.53,0,0,1,291,323l.35,0a13.49,13.49,0,1,1-10,22.53,23.4,23.4,0,0,1-27.44,0A13.45,13.45,0,1,1,237.13,325Z"/><path class="cls-2" d="M218.22,343.32a8.91,8.91,0,0,1-1.33-4.49,9.13,9.13,0,0,1,9.13-9.11,8.7,8.7,0,0,1,3.85.93,23.5,23.5,0,0,1,42.3,10.75c.11,0,.21-.06.35-.06a13.5,13.5,0,1,1-10,22.55,23.41,23.41,0,0,1-27.45,0,13.45,13.45,0,1,1-16.89-20.56Z"/><path class="cls-2" d="M130.4,359.38a8.89,8.89,0,0,1-2.06-4.2,9.13,9.13,0,0,1,7.48-10.51,8.72,8.72,0,0,1,3.95.27,23.5,23.5,0,0,1,43.5,3.52c.11,0,.2-.09.33-.12a13.5,13.5,0,0,1,4.52,26.61,13.38,13.38,0,0,1-10.56-2.72,23.41,23.41,0,0,1-27.06,4.59,13.45,13.45,0,1,1-20.09-17.44Z"/><path class="cls-3" d="M404.1,339.75a10.21,10.21,0,0,1-1.52-5.12A10.45,10.45,0,0,1,413,324.19a10.16,10.16,0,0,1,4.38,1.06,26.89,26.89,0,0,1,48.35,12.29c.12,0,.26,0,.4,0a15.41,15.41,0,1,1,0,30.82,15.27,15.27,0,0,1-11.38-5.09,26.71,26.71,0,0,1-31.36,0,15.37,15.37,0,1,1-19.3-23.48Z"/><path class="cls-3" d="M229.16,350.24a6.46,6.46,0,0,0,.56-3.32,6.65,6.65,0,0,0-7.42-5.8,6.8,6.8,0,0,0-2.69,1A17.14,17.14,0,0,0,190,353.73h-.26A9.82,9.82,0,1,0,199,369.12a17,17,0,0,0,19.82-2.48,9.8,9.8,0,1,0,10.33-16.41Z"/><path class="cls-3" d="M58,389.39a9.88,9.88,0,0,0-6.73-6.93,6.45,6.45,0,0,0,.13-3.37,6.66,6.66,0,0,0-8.1-4.81,6.78,6.78,0,0,0-2.54,1.35,17.08,17.08,0,0,0-21.53-.11v33.81A10,10,0,0,0,23.73,405a17,17,0,0,0,19.35-5A9.8,9.8,0,0,0,58,389.39Z"/><path class="cls-3" d="M287.63,341.76A9.28,9.28,0,0,1,286.2,337a9.65,9.65,0,0,1,9.66-9.65,9.11,9.11,0,0,1,4.06,1,24.89,24.89,0,0,1,44.77,11.37l.33,0a14.27,14.27,0,1,1-10.51,23.82,24.72,24.72,0,0,1-29,0,14.22,14.22,0,1,1-17.83-21.74Z"/><path class="cls-4" d="M487,205.44S482.39,202,457.16,202s-29.82,3.46-29.82,3.46V71A130.43,130.43,0,0,1,487,71Z"/><polygon class="cls-5" points="427.34 70.96 414.21 81.07 414.21 200.3 427.34 200.3 427.34 70.96"/><path class="cls-6" d="M501.52,403.34s-6.35-4.79-41.29-4.79-41.29,4.79-41.29,4.79v-317a180.57,180.57,0,0,1,82.59,0Z"/><polygon class="cls-7" points="418.93 86.32 400.74 100.31 400.74 396.23 418.93 396.23 418.93 86.32"/><path class="cls-7" d="M495.54,105.46s-5.48-4.79-35.61-4.79-35.61,4.79-35.61,4.79v-4.79a135,135,0,0,1,71.21,0Z"/><path class="cls-7" d="M495.54,115s-5.48-4.79-35.61-4.79S424.33,115,424.33,115v-4.79a134.82,134.82,0,0,1,71.21,0Z"/><path class="cls-7" d="M495.54,124.6s-5.48-4.78-35.61-4.78-35.61,4.78-35.61,4.78v-4.78a134.89,134.89,0,0,1,71.21,0Z"/><path class="cls-7" d="M495.54,134.17s-5.48-4.79-35.61-4.79-35.61,4.79-35.61,4.79v-4.79a134.89,134.89,0,0,1,71.21,0Z"/><path class="cls-7" d="M495.54,143.74S490.07,139,459.94,139s-35.61,4.79-35.61,4.79V139a134.86,134.86,0,0,1,71.21,0Z"/><path class="cls-7" d="M495.54,153.31s-5.48-4.78-35.61-4.78-35.61,4.78-35.61,4.78v-4.78a134.94,134.94,0,0,1,71.21,0Z"/><path class="cls-7" d="M495.54,162.88s-5.48-4.79-35.61-4.79-35.61,4.79-35.61,4.79V158.1a134.84,134.84,0,0,1,71.21,0Z"/><path class="cls-7" d="M494.75,172.45s-5.48-4.79-35.6-4.79-35.61,4.79-35.61,4.79v-4.79a134.85,134.85,0,0,1,71.22,0Z"/><path class="cls-7" d="M494.75,182s-5.48-4.79-35.6-4.79S423.53,182,423.53,182v-4.79a134.95,134.95,0,0,1,71.22,0Z"/><path class="cls-7" d="M494.49,189.38s-5.48-4.79-35.61-4.79-35.61,4.79-35.61,4.79V184.6a134.85,134.85,0,0,1,71.22,0Z"/><rect class="cls-8" x="352.58" y="140.85" width="49.45" height="232.88"/><polygon class="cls-9" points="402.04 373.73 424.62 373.73 424.62 166.21 402.04 140.85 402.04 373.73"/><rect class="cls-10" x="356.75" y="152.09" width="5.33" height="7.66"/><rect class="cls-10" x="366.04" y="152.09" width="5.32" height="7.66"/><rect class="cls-10" x="375.33" y="152.09" width="5.32" height="7.66"/><rect class="cls-10" x="384.61" y="152.09" width="5.33" height="7.66"/><rect class="cls-10" x="366.04" y="163.13" width="5.32" height="7.66"/><rect class="cls-10" x="384.61" y="163.13" width="5.33" height="7.66"/><rect class="cls-10" x="393.89" y="163.13" width="5.33" height="7.66"/><rect class="cls-10" x="356.75" y="174.18" width="5.33" height="7.66"/><rect class="cls-10" x="366.04" y="174.18" width="5.32" height="7.66"/><rect class="cls-10" x="375.33" y="174.18" width="5.32" height="7.66"/><rect class="cls-10" x="384.61" y="174.18" width="5.33" height="7.66"/><rect class="cls-10" x="393.89" y="174.18" width="5.33" height="7.66"/><rect class="cls-10" x="356.75" y="185.22" width="5.33" height="7.66"/><rect class="cls-10" x="366.04" y="185.22" width="5.32" height="7.66"/><rect class="cls-10" x="384.61" y="185.22" width="5.33" height="7.66"/><rect class="cls-10" x="366.04" y="196.27" width="5.32" height="7.66"/><rect class="cls-10" x="375.33" y="196.27" width="5.32" height="7.66"/><rect class="cls-10" x="384.61" y="196.27" width="5.33" height="7.66"/><rect class="cls-10" x="393.89" y="196.27" width="5.33" height="7.66"/><rect class="cls-10" x="356.75" y="207.31" width="5.33" height="7.66"/><rect class="cls-10" x="366.04" y="207.31" width="5.32" height="7.66"/><rect class="cls-10" x="375.33" y="207.31" width="5.32" height="7.66"/><rect class="cls-10" x="393.89" y="207.31" width="5.33" height="7.66"/><rect class="cls-10" x="356.75" y="218.35" width="5.33" height="7.66"/><rect class="cls-10" x="375.33" y="218.35" width="5.32" height="7.66"/><rect class="cls-10" x="384.61" y="218.35" width="5.33" height="7.66"/><rect class="cls-10" x="356.75" y="229.39" width="5.33" height="7.66"/><rect class="cls-10" x="366.04" y="229.39" width="5.32" height="7.66"/><rect class="cls-10" x="393.89" y="229.39" width="5.33" height="7.66"/><rect class="cls-10" x="366.04" y="240.44" width="5.32" height="7.66"/><rect class="cls-10" x="375.33" y="240.44" width="5.32" height="7.66"/><rect class="cls-10" x="384.61" y="240.44" width="5.33" height="7.66"/><rect class="cls-10" x="393.89" y="240.44" width="5.33" height="7.66"/><rect class="cls-10" x="356.75" y="250.08" width="5.33" height="7.66"/><rect class="cls-10" x="375.33" y="250.08" width="5.32" height="7.66"/><rect class="cls-10" x="384.61" y="250.08" width="5.33" height="7.66"/><rect class="cls-10" x="393.89" y="250.08" width="5.33" height="7.66"/><rect class="cls-10" x="366.04" y="261.13" width="5.32" height="7.66"/><rect class="cls-10" x="384.61" y="261.13" width="5.33" height="7.66"/><rect class="cls-10" x="356.75" y="272.17" width="5.33" height="7.66"/><rect class="cls-10" x="375.33" y="272.17" width="5.32" height="7.66"/><rect class="cls-10" x="393.89" y="272.17" width="5.33" height="7.66"/><rect class="cls-11" x="95.33" y="150.04" width="40.63" height="25.06"/><rect class="cls-12" x="89.48" y="169.25" width="55.02" height="213.82"/><rect class="cls-13" x="119.95" y="100.76" width="2.35" height="49.28"/><rect class="cls-14" x="95.32" y="174.57" width="4.54" height="7.39"/><rect class="cls-14" x="103.23" y="174.57" width="4.54" height="7.39"/><rect class="cls-14" x="111.15" y="174.57" width="4.54" height="7.39"/><rect class="cls-14" x="119.06" y="174.57" width="4.54" height="7.39"/><rect class="cls-14" x="126.98" y="174.57" width="4.55" height="7.39"/><rect class="cls-14" x="95.32" y="185.26" width="4.54" height="7.39"/><rect class="cls-14" x="103.23" y="185.26" width="4.54" height="7.39"/><rect class="cls-14" x="111.15" y="185.26" width="4.54" height="7.39"/><rect class="cls-14" x="119.06" y="185.26" width="4.54" height="7.39"/><rect class="cls-14" x="126.98" y="185.26" width="4.55" height="7.39"/><rect class="cls-14" x="95.32" y="195.95" width="4.54" height="7.4"/><rect class="cls-14" x="103.23" y="195.95" width="4.54" height="7.4"/><rect class="cls-14" x="111.15" y="195.95" width="4.54" height="7.4"/><rect class="cls-14" x="119.06" y="195.95" width="4.54" height="7.4"/><rect class="cls-14" x="126.98" y="195.95" width="4.55" height="7.4"/><rect class="cls-14" x="95.32" y="206.64" width="4.54" height="7.39"/><rect class="cls-14" x="103.23" y="206.64" width="4.54" height="7.39"/><rect class="cls-14" x="111.15" y="206.64" width="4.54" height="7.39"/><rect class="cls-14" x="119.06" y="206.64" width="4.54" height="7.39"/><rect class="cls-14" x="126.98" y="206.64" width="4.55" height="7.39"/><rect class="cls-14" x="95.32" y="217.32" width="4.54" height="7.39"/><rect class="cls-14" x="103.23" y="217.32" width="4.54" height="7.39"/><rect class="cls-14" x="111.15" y="217.32" width="4.54" height="7.39"/><rect class="cls-14" x="119.06" y="217.32" width="4.54" height="7.39"/><rect class="cls-14" x="126.98" y="217.32" width="4.55" height="7.39"/><rect class="cls-14" x="95.32" y="228.01" width="4.54" height="7.39"/><rect class="cls-14" x="103.23" y="228.01" width="4.54" height="7.39"/><rect class="cls-14" x="111.15" y="228.01" width="4.54" height="7.39"/><rect class="cls-14" x="119.06" y="228.01" width="4.54" height="7.39"/><rect class="cls-14" x="126.98" y="228.01" width="4.55" height="7.39"/><rect class="cls-14" x="95.32" y="238.7" width="4.54" height="7.4"/><rect class="cls-14" x="103.23" y="238.7" width="4.54" height="7.4"/><rect class="cls-14" x="111.15" y="238.7" width="4.54" height="7.4"/><rect class="cls-14" x="119.06" y="238.7" width="4.54" height="7.4"/><rect class="cls-14" x="126.98" y="238.7" width="4.55" height="7.4"/><rect class="cls-14" x="134.25" y="174.57" width="4.55" height="7.39"/><rect class="cls-14" x="134.25" y="185.26" width="4.55" height="7.39"/><rect class="cls-14" x="134.25" y="195.95" width="4.55" height="7.4"/><rect class="cls-14" x="134.25" y="206.64" width="4.55" height="7.39"/><rect class="cls-14" x="134.25" y="217.32" width="4.55" height="7.39"/><rect class="cls-14" x="134.25" y="228.01" width="4.55" height="7.39"/><rect class="cls-14" x="134.25" y="238.7" width="4.55" height="7.4"/><rect class="cls-14" x="95.25" y="250.42" width="4.55" height="7.4"/><rect class="cls-14" x="103.16" y="250.42" width="4.55" height="7.4"/><rect class="cls-14" x="111.08" y="250.42" width="4.55" height="7.4"/><rect class="cls-14" x="119" y="250.42" width="4.54" height="7.4"/><rect class="cls-14" x="126.91" y="250.42" width="4.54" height="7.4"/><rect class="cls-14" x="95.25" y="261.11" width="4.55" height="7.39"/><rect class="cls-14" x="103.16" y="261.11" width="4.55" height="7.39"/><rect class="cls-14" x="111.08" y="261.11" width="4.55" height="7.39"/><rect class="cls-14" x="119" y="261.11" width="4.54" height="7.39"/><rect class="cls-14" x="126.91" y="261.11" width="4.54" height="7.39"/><rect class="cls-14" x="95.25" y="271.8" width="4.55" height="7.39"/><rect class="cls-14" x="103.16" y="271.8" width="4.55" height="7.39"/><rect class="cls-14" x="111.08" y="271.8" width="4.55" height="7.39"/><rect class="cls-14" x="119" y="271.8" width="4.54" height="7.39"/><rect class="cls-14" x="126.91" y="271.8" width="4.54" height="7.39"/><rect class="cls-14" x="95.25" y="282.48" width="4.55" height="7.39"/><rect class="cls-14" x="103.16" y="282.48" width="4.55" height="7.39"/><rect class="cls-14" x="111.08" y="282.48" width="4.55" height="7.39"/><rect class="cls-14" x="119" y="282.48" width="4.54" height="7.39"/><rect class="cls-14" x="126.91" y="282.48" width="4.54" height="7.39"/><rect class="cls-14" x="95.25" y="293.17" width="4.55" height="7.39"/><rect class="cls-14" x="103.16" y="293.17" width="4.55" height="7.39"/><rect class="cls-14" x="111.08" y="293.17" width="4.55" height="7.39"/><rect class="cls-14" x="119" y="293.17" width="4.54" height="7.39"/><rect class="cls-14" x="126.91" y="293.17" width="4.54" height="7.39"/><rect class="cls-14" x="95.25" y="303.86" width="4.55" height="7.39"/><rect class="cls-14" x="103.16" y="303.86" width="4.55" height="7.39"/><rect class="cls-14" x="111.08" y="303.86" width="4.55" height="7.39"/><rect class="cls-14" x="119" y="303.86" width="4.54" height="7.39"/><rect class="cls-14" x="126.91" y="303.86" width="4.54" height="7.39"/><rect class="cls-14" x="95.25" y="314.55" width="4.55" height="7.39"/><rect class="cls-14" x="103.16" y="314.55" width="4.55" height="7.39"/><rect class="cls-14" x="111.08" y="314.55" width="4.55" height="7.39"/><rect class="cls-14" x="119" y="314.55" width="4.54" height="7.39"/><rect class="cls-14" x="126.91" y="314.55" width="4.54" height="7.39"/><rect class="cls-14" x="134.18" y="250.42" width="4.54" height="7.4"/><rect class="cls-14" x="134.18" y="261.11" width="4.54" height="7.39"/><rect class="cls-14" x="134.18" y="271.8" width="4.54" height="7.39"/><rect class="cls-14" x="134.18" y="282.48" width="4.54" height="7.39"/><rect class="cls-14" x="134.18" y="293.17" width="4.54" height="7.39"/><rect class="cls-14" x="134.18" y="303.86" width="4.54" height="7.39"/><rect class="cls-14" x="134.18" y="314.55" width="4.54" height="7.39"/><polygon class="cls-15" points="198.01 383.84 147.14 383.84 147.14 215.13 178.74 170.03 198.01 170.03 198.01 383.84"/><polygon class="cls-16" points="229.62 211.48 197.46 247.26 197.46 384.72 229.62 384.72 229.62 211.48"/><rect class="cls-17" x="206.17" y="249.63" width="2.59" height="5.2"/><rect class="cls-17" x="210.67" y="249.63" width="2.58" height="5.2"/><rect class="cls-17" x="215.17" y="249.63" width="2.58" height="5.2"/><rect class="cls-17" x="219.67" y="249.63" width="2.59" height="5.2"/><rect class="cls-17" x="201.67" y="257.15" width="2.59" height="5.21"/><rect class="cls-17" x="206.17" y="257.15" width="2.59" height="5.21"/><rect class="cls-17" x="210.67" y="257.15" width="2.58" height="5.21"/><rect class="cls-17" x="215.17" y="257.15" width="2.58" height="5.21"/><rect class="cls-17" x="219.67" y="257.15" width="2.59" height="5.21"/><rect class="cls-17" x="201.67" y="264.68" width="2.59" height="5.21"/><rect class="cls-17" x="206.17" y="264.68" width="2.59" height="5.21"/><rect class="cls-17" x="210.67" y="264.68" width="2.58" height="5.21"/><rect class="cls-17" x="215.17" y="264.68" width="2.58" height="5.21"/><rect class="cls-17" x="219.67" y="264.68" width="2.59" height="5.21"/><rect class="cls-17" x="201.67" y="272.21" width="2.59" height="5.21"/><rect class="cls-17" x="206.17" y="272.21" width="2.59" height="5.21"/><rect class="cls-17" x="210.67" y="272.21" width="2.58" height="5.21"/><rect class="cls-17" x="215.17" y="272.21" width="2.58" height="5.21"/><rect class="cls-17" x="219.67" y="272.21" width="2.59" height="5.21"/><rect class="cls-17" x="201.67" y="279.74" width="2.59" height="5.2"/><rect class="cls-17" x="206.17" y="279.74" width="2.59" height="5.2"/><rect class="cls-17" x="210.67" y="279.74" width="2.58" height="5.2"/><rect class="cls-17" x="215.17" y="279.74" width="2.58" height="5.2"/><rect class="cls-17" x="219.67" y="279.74" width="2.59" height="5.2"/><rect class="cls-17" x="201.67" y="287.27" width="2.59" height="5.21"/><rect class="cls-17" x="206.17" y="287.27" width="2.59" height="5.21"/><rect class="cls-17" x="210.67" y="287.27" width="2.58" height="5.21"/><rect class="cls-17" x="215.17" y="287.27" width="2.58" height="5.21"/><rect class="cls-17" x="219.67" y="287.27" width="2.59" height="5.21"/><rect class="cls-17" x="201.67" y="294.79" width="2.59" height="5.21"/><rect class="cls-17" x="206.17" y="294.79" width="2.59" height="5.21"/><rect class="cls-17" x="210.67" y="294.79" width="2.58" height="5.21"/><rect class="cls-17" x="215.17" y="294.79" width="2.58" height="5.21"/><rect class="cls-17" x="219.67" y="294.79" width="2.59" height="5.21"/><rect class="cls-17" x="223.8" y="249.63" width="2.59" height="5.2"/><rect class="cls-18" x="156.64" y="221.94" width="3.17" height="152.31"/><rect class="cls-18" x="162.71" y="221.94" width="3.17" height="152.31"/><rect class="cls-18" x="168.78" y="221.94" width="3.17" height="152.31"/><rect class="cls-18" x="174.84" y="221.94" width="3.17" height="152.31"/><rect class="cls-18" x="180.91" y="221.94" width="3.17" height="152.31"/><rect class="cls-18" x="186.97" y="221.94" width="3.17" height="152.31"/><rect class="cls-17" x="223.8" y="257.15" width="2.59" height="5.21"/><rect class="cls-17" x="223.8" y="264.68" width="2.59" height="5.21"/><rect class="cls-17" x="223.8" y="272.21" width="2.59" height="5.21"/><rect class="cls-17" x="223.8" y="279.74" width="2.59" height="5.2"/><rect class="cls-17" x="223.8" y="287.27" width="2.59" height="5.21"/><rect class="cls-17" x="223.8" y="294.79" width="2.59" height="5.21"/><rect class="cls-17" x="219.67" y="227.59" width="2.59" height="5.21"/><rect class="cls-17" x="215.17" y="235.12" width="2.58" height="5.21"/><rect class="cls-17" x="219.67" y="235.12" width="2.59" height="5.21"/><rect class="cls-17" x="210.67" y="242.65" width="2.58" height="5.21"/><rect class="cls-17" x="215.17" y="242.65" width="2.58" height="5.21"/><rect class="cls-17" x="219.67" y="242.65" width="2.59" height="5.21"/><rect class="cls-17" x="223.8" y="227.59" width="2.59" height="5.21"/><rect class="cls-17" x="223.8" y="235.12" width="2.59" height="5.21"/><rect class="cls-17" x="223.8" y="242.65" width="2.59" height="5.21"/><rect class="cls-19" x="240.33" y="114.84" width="66.54" height="258.56"/><rect class="cls-20" x="249.03" y="91.61" width="49.13" height="281.85"/><rect class="cls-13" x="272.17" y="32.02" width="2.85" height="59.59"/><rect class="cls-21" x="256" y="99.7" width="3.92" height="9.34"/><rect class="cls-21" x="262.82" y="99.7" width="3.91" height="9.34"/><rect class="cls-21" x="269.64" y="99.7" width="3.92" height="9.34"/><rect class="cls-21" x="276.45" y="99.7" width="3.91" height="9.34"/><rect class="cls-21" x="283.27" y="99.7" width="3.92" height="9.34"/><rect class="cls-21" x="256" y="113.21" width="3.92" height="9.34"/><rect class="cls-21" x="262.82" y="113.21" width="3.91" height="9.34"/><rect class="cls-21" x="269.64" y="113.21" width="3.92" height="9.34"/><rect class="cls-21" x="276.45" y="113.21" width="3.91" height="9.34"/><rect class="cls-21" x="283.27" y="113.21" width="3.92" height="9.34"/><rect class="cls-21" x="256" y="126.72" width="3.92" height="9.34"/><rect class="cls-21" x="262.82" y="126.72" width="3.91" height="9.34"/><rect class="cls-21" x="269.64" y="126.72" width="3.92" height="9.34"/><rect class="cls-21" x="276.45" y="126.72" width="3.91" height="9.34"/><rect class="cls-21" x="283.27" y="126.72" width="3.92" height="9.34"/><rect class="cls-21" x="256" y="140.22" width="3.92" height="9.35"/><rect class="cls-21" x="262.82" y="140.22" width="3.91" height="9.35"/><rect class="cls-21" x="269.64" y="140.22" width="3.92" height="9.35"/><rect class="cls-21" x="276.45" y="140.22" width="3.91" height="9.35"/><rect class="cls-21" x="283.27" y="140.22" width="3.92" height="9.35"/><rect class="cls-21" x="256" y="153.73" width="3.92" height="9.35"/><rect class="cls-21" x="262.82" y="153.73" width="3.91" height="9.35"/><rect class="cls-21" x="269.64" y="153.73" width="3.92" height="9.35"/><rect class="cls-21" x="276.45" y="153.73" width="3.91" height="9.35"/><rect class="cls-21" x="283.27" y="153.73" width="3.92" height="9.35"/><rect class="cls-21" x="256" y="167.24" width="3.92" height="9.34"/><rect class="cls-21" x="262.82" y="167.24" width="3.91" height="9.34"/><rect class="cls-21" x="269.64" y="167.24" width="3.92" height="9.34"/><rect class="cls-21" x="276.45" y="167.24" width="3.91" height="9.34"/><rect class="cls-21" x="283.27" y="167.24" width="3.92" height="9.34"/><rect class="cls-21" x="256" y="180.75" width="3.92" height="9.34"/><rect class="cls-21" x="262.82" y="180.75" width="3.91" height="9.34"/><rect class="cls-21" x="269.64" y="180.75" width="3.92" height="9.34"/><rect class="cls-21" x="276.45" y="180.75" width="3.91" height="9.34"/><rect class="cls-21" x="283.27" y="180.75" width="3.92" height="9.34"/><rect class="cls-21" x="289.53" y="99.7" width="3.92" height="9.34"/><rect class="cls-21" x="289.53" y="113.21" width="3.92" height="9.34"/><rect class="cls-21" x="289.53" y="126.72" width="3.92" height="9.34"/><rect class="cls-21" x="289.53" y="140.22" width="3.92" height="9.35"/><rect class="cls-21" x="289.53" y="153.73" width="3.92" height="9.35"/><rect class="cls-21" x="289.53" y="167.24" width="3.92" height="9.34"/><rect class="cls-21" x="289.53" y="180.75" width="3.92" height="9.34"/><rect class="cls-21" x="256" y="202.21" width="3.92" height="9.34"/><rect class="cls-21" x="262.82" y="202.21" width="3.91" height="9.34"/><rect class="cls-21" x="269.64" y="202.21" width="3.92" height="9.34"/><rect class="cls-21" x="276.45" y="202.21" width="3.91" height="9.34"/><rect class="cls-21" x="283.27" y="202.21" width="3.92" height="9.34"/><rect class="cls-21" x="256" y="215.72" width="3.92" height="9.34"/><rect class="cls-21" x="262.82" y="215.72" width="3.91" height="9.34"/><rect class="cls-21" x="269.64" y="215.72" width="3.92" height="9.34"/><rect class="cls-21" x="276.45" y="215.72" width="3.91" height="9.34"/><rect class="cls-21" x="283.27" y="215.72" width="3.92" height="9.34"/><rect class="cls-21" x="256" y="229.23" width="3.92" height="9.35"/><rect class="cls-21" x="262.82" y="229.23" width="3.91" height="9.35"/><rect class="cls-21" x="269.64" y="229.23" width="3.92" height="9.35"/><rect class="cls-21" x="276.45" y="229.23" width="3.91" height="9.35"/><rect class="cls-21" x="283.27" y="229.23" width="3.92" height="9.35"/><rect class="cls-21" x="256" y="242.74" width="3.92" height="9.34"/><rect class="cls-21" x="262.82" y="242.74" width="3.91" height="9.34"/><rect class="cls-21" x="269.64" y="242.74" width="3.92" height="9.34"/><rect class="cls-21" x="276.45" y="242.74" width="3.91" height="9.34"/><rect class="cls-21" x="283.27" y="242.74" width="3.92" height="9.34"/><rect class="cls-21" x="256" y="256.24" width="3.92" height="9.34"/><rect class="cls-21" x="262.82" y="256.24" width="3.91" height="9.34"/><rect class="cls-21" x="269.64" y="256.24" width="3.92" height="9.34"/><rect class="cls-21" x="276.45" y="256.24" width="3.91" height="9.34"/><rect class="cls-21" x="283.27" y="256.24" width="3.92" height="9.34"/><rect class="cls-21" x="256" y="269.75" width="3.92" height="9.34"/><rect class="cls-21" x="262.82" y="269.75" width="3.91" height="9.34"/><rect class="cls-21" x="269.64" y="269.75" width="3.92" height="9.34"/><rect class="cls-21" x="276.45" y="269.75" width="3.91" height="9.34"/><rect class="cls-21" x="283.27" y="269.75" width="3.92" height="9.34"/><rect class="cls-21" x="256" y="283.26" width="3.92" height="9.34"/><rect class="cls-21" x="262.82" y="283.26" width="3.91" height="9.34"/><rect class="cls-21" x="269.64" y="283.26" width="3.92" height="9.34"/><rect class="cls-21" x="276.45" y="283.26" width="3.91" height="9.34"/><rect class="cls-21" x="283.27" y="283.26" width="3.92" height="9.34"/><rect class="cls-21" x="289.53" y="202.21" width="3.92" height="9.34"/><rect class="cls-21" x="289.53" y="215.72" width="3.92" height="9.34"/><rect class="cls-21" x="289.53" y="229.23" width="3.92" height="9.35"/><rect class="cls-21" x="289.53" y="242.74" width="3.92" height="9.34"/><rect class="cls-21" x="289.53" y="256.24" width="3.92" height="9.34"/><rect class="cls-21" x="289.53" y="269.75" width="3.92" height="9.34"/><rect class="cls-21" x="289.53" y="283.26" width="3.92" height="9.34"/><rect class="cls-21" x="299.66" y="121.91" width="3.91" height="9.34"/><rect class="cls-21" x="299.66" y="135.42" width="3.91" height="9.34"/><rect class="cls-21" x="299.66" y="148.93" width="3.91" height="9.34"/><rect class="cls-21" x="299.66" y="162.44" width="3.91" height="9.34"/><rect class="cls-21" x="299.66" y="175.94" width="3.91" height="9.34"/><rect class="cls-21" x="299.66" y="189.45" width="3.91" height="9.34"/><rect class="cls-21" x="299.66" y="202.96" width="3.91" height="9.34"/><rect class="cls-21" x="244.02" y="122.05" width="3.91" height="9.34"/><rect class="cls-21" x="244.02" y="135.55" width="3.91" height="9.34"/><rect class="cls-21" x="244.02" y="149.06" width="3.91" height="9.34"/><rect class="cls-21" x="244.02" y="162.57" width="3.91" height="9.34"/><rect class="cls-21" x="244.02" y="176.08" width="3.91" height="9.34"/><rect class="cls-21" x="244.02" y="189.59" width="3.91" height="9.34"/><rect class="cls-21" x="244.02" y="203.09" width="3.91" height="9.34"/><rect class="cls-19" x="275.99" y="360.54" width="9.43" height="12.55"/><rect class="cls-19" x="264.92" y="361.09" width="9.43" height="12.55"/><polygon class="cls-22" points="574.74 314.94 525.25 314.94 525.25 237.05 574.74 215.1 574.74 314.94"/><polygon class="cls-23" points="606.02 230.01 574.74 215.1 574.74 314.94 606.02 314.94 606.02 230.01"/><polygon class="cls-24" points="537.44 240.78 532.96 243.06 532.82 248.35 537.31 246.1 537.44 240.78"/><polygon class="cls-24" points="545.23 237.06 540.76 239.16 540.65 244.49 545.13 242.4 545.23 237.06"/><polygon class="cls-24" points="553.02 233.65 548.55 235.57 548.47 240.9 552.96 238.98 553.02 233.65"/><polygon class="cls-24" points="560.82 230.56 556.35 232.29 556.29 237.61 560.78 235.85 560.82 230.56"/><polygon class="cls-24" points="568.61 227.77 564.14 229.33 564.12 234.6 568.61 233 568.61 227.77"/><polygon class="cls-24" points="537.25 248.45 532.76 250.69 532.61 256 537.13 253.77 537.25 248.45"/><polygon class="cls-24" points="545.09 244.75 540.59 246.84 540.48 252.18 545 250.1 545.09 244.75"/><polygon class="cls-24" points="552.93 241.33 548.44 243.26 548.35 248.6 552.87 246.66 552.93 241.33"/><polygon class="cls-24" points="560.77 238.19 556.27 239.96 556.22 245.28 560.74 243.48 560.77 238.19"/><polygon class="cls-24" points="568.61 235.31 564.11 236.93 564.1 242.2 568.61 240.54 568.61 235.31"/><polygon class="cls-24" points="537.08 256.13 532.55 258.34 532.41 263.66 536.95 261.47 537.08 256.13"/><polygon class="cls-24" points="544.96 252.46 540.43 254.53 540.32 259.89 544.86 257.81 544.96 252.46"/><polygon class="cls-24" points="552.84 249.02 548.32 250.97 548.24 256.32 552.78 254.36 552.84 249.02"/><polygon class="cls-24" points="560.73 245.82 556.2 247.63 556.16 252.95 560.69 251.12 560.73 245.82"/><polygon class="cls-24" points="568.61 242.85 564.09 244.52 564.07 249.8 568.61 248.08 568.61 242.85"/><polygon class="cls-24" points="536.89 263.83 532.34 266.02 532.2 271.35 536.77 269.18 536.89 263.83"/><polygon class="cls-24" points="544.82 260.18 540.27 262.25 540.16 267.61 544.73 265.54 544.82 260.18"/><polygon class="cls-24" points="552.75 256.73 548.2 258.69 548.12 264.04 552.69 262.07 552.75 256.73"/><polygon class="cls-24" points="560.68 253.46 556.13 255.31 556.08 260.64 560.65 258.76 560.68 253.46"/><polygon class="cls-24" points="568.61 250.39 564.06 252.13 564.04 257.4 568.61 255.62 568.61 250.39"/><polygon class="cls-24" points="536.71 271.55 532.14 273.7 531.99 279.05 536.59 276.91 536.71 271.55"/><polygon class="cls-24" points="544.69 267.91 540.11 269.98 540 275.35 544.59 273.28 544.69 267.91"/><polygon class="cls-24" points="552.66 264.43 548.09 266.41 548 271.78 552.6 269.78 552.66 264.43"/><polygon class="cls-24" points="560.63 261.1 556.06 262.99 556.01 268.33 560.6 266.41 560.63 261.1"/><polygon class="cls-24" points="568.61 257.93 564.03 259.73 564.01 265.01 568.61 263.16 568.61 257.93"/><polygon class="cls-24" points="536.53 279.28 531.93 281.41 531.79 286.77 536.41 284.66 536.53 279.28"/><polygon class="cls-24" points="544.55 275.66 539.95 277.73 539.84 283.1 544.46 281.04 544.55 275.66"/><polygon class="cls-24" points="552.57 272.15 547.97 274.15 547.89 279.52 552.51 277.51 552.57 272.15"/><polygon class="cls-24" points="560.59 268.75 555.99 270.69 555.94 276.03 560.56 274.06 560.59 268.75"/><polygon class="cls-24" points="568.61 265.47 564.01 267.34 563.99 272.62 568.61 270.69 568.61 265.47"/><polygon class="cls-24" points="536.35 287.04 531.73 289.14 531.58 294.51 536.23 292.42 536.35 287.04"/><polygon class="cls-24" points="544.41 283.42 539.79 285.49 539.67 290.88 544.32 288.81 544.41 283.42"/><polygon class="cls-24" points="552.48 279.87 547.86 281.9 547.77 287.29 552.42 285.25 552.48 279.87"/><polygon class="cls-24" points="560.55 276.4 555.92 278.39 555.87 283.74 560.51 281.72 560.55 276.4"/><polygon class="cls-24" points="568.61 273.01 563.98 274.95 563.96 280.23 568.61 278.23 568.61 273.01"/><polygon class="cls-24" points="536.17 294.8 531.52 296.89 531.37 302.27 536.05 300.2 536.17 294.8"/><polygon class="cls-24" points="544.28 291.2 539.63 293.26 539.51 298.66 544.18 296.59 544.28 291.2"/><polygon class="cls-24" points="552.39 287.62 547.74 289.66 547.66 295.05 552.33 292.99 552.39 287.62"/><polygon class="cls-24" points="560.5 284.06 555.85 286.1 555.8 291.45 560.47 289.38 560.5 284.06"/><polygon class="cls-24" points="568.61 280.54 563.95 282.56 563.93 287.84 568.61 285.77 568.61 280.54"/><polygon class="cls-3" points="575.29 402.06 518.85 402.06 518.85 313.22 575.29 288.19 575.29 402.06"/><polygon class="cls-25" points="610.97 305.2 575.29 288.19 575.29 402.06 610.97 402.06 610.97 305.2"/><polygon class="cls-24" points="532.75 318.04 527.65 320.24 527.48 326.31 532.6 324.3 532.75 318.04"/><polygon class="cls-24" points="541.63 314.19 536.53 316.39 536.41 322.82 541.53 320.81 541.63 314.19"/><polygon class="cls-24" points="550.52 310.34 545.42 312.55 545.33 319.31 550.45 317.31 550.52 310.34"/><polygon class="cls-24" points="559.41 306.49 554.31 308.7 554.25 315.81 559.38 313.8 559.41 306.49"/><polygon class="cls-24" points="568.3 302.65 563.2 304.85 563.17 312.31 568.3 310.31 568.3 302.65"/><polygon class="cls-24" points="532.54 327.07 527.41 329 527.25 335.07 532.39 333.35 532.54 327.07"/><polygon class="cls-24" points="541.48 323.73 536.35 325.65 536.22 332.07 541.37 330.35 541.48 323.73"/><polygon class="cls-24" points="550.42 320.38 545.29 322.3 545.2 329.07 550.35 327.35 550.42 320.38"/><polygon class="cls-24" points="559.36 317.03 554.23 318.95 554.17 326.07 559.32 324.35 559.36 317.03"/><polygon class="cls-24" points="568.3 313.69 563.17 315.61 563.15 323.07 568.3 321.35 568.3 313.69"/><polygon class="cls-24" points="532.33 336.12 527.17 337.75 527.01 343.83 532.19 342.39 532.33 336.12"/><polygon class="cls-24" points="541.33 333.27 536.16 334.9 536.04 341.33 541.22 339.89 541.33 333.27"/><polygon class="cls-24" points="550.32 330.43 545.15 332.06 545.07 338.83 550.25 337.39 550.32 330.43"/><polygon class="cls-24" points="559.31 327.57 554.15 329.21 554.09 336.32 559.27 334.89 559.31 327.57"/><polygon class="cls-24" points="568.3 324.73 563.14 326.36 563.12 333.82 568.3 332.38 568.3 324.73"/><polygon class="cls-24" points="532.13 345.16 526.94 346.51 526.78 352.58 531.98 351.43 532.13 345.16"/><polygon class="cls-24" points="541.17 342.82 535.98 344.16 535.86 350.58 541.06 349.43 541.17 342.82"/><polygon class="cls-24" points="550.21 340.47 545.03 341.82 544.93 348.58 550.14 347.43 550.21 340.47"/><polygon class="cls-24" points="559.26 338.12 554.07 339.47 554.01 346.58 559.22 345.43 559.26 338.12"/><polygon class="cls-24" points="568.3 335.77 563.11 337.12 563.09 344.58 568.3 343.43 568.3 335.77"/><polygon class="cls-24" points="531.92 354.2 526.71 355.26 526.54 361.34 531.78 360.48 531.92 354.2"/><polygon class="cls-24" points="541.02 352.36 535.8 353.42 535.67 359.84 540.91 358.98 541.02 352.36"/><polygon class="cls-24" points="550.11 350.51 544.89 351.57 544.8 358.34 550.04 357.48 550.11 350.51"/><polygon class="cls-24" points="559.21 348.66 553.99 349.72 553.93 356.83 559.17 355.98 559.21 348.66"/><polygon class="cls-24" points="568.3 346.82 563.08 347.88 563.06 355.33 568.3 354.48 568.3 346.82"/><polygon class="cls-24" points="531.72 363.25 526.47 364.02 526.3 370.09 531.58 369.52 531.72 363.25"/><polygon class="cls-24" points="540.86 361.9 535.61 362.67 535.48 369.09 540.75 368.52 540.86 361.9"/><polygon class="cls-24" points="550.01 360.55 544.76 361.32 544.67 368.09 549.94 367.52 550.01 360.55"/><polygon class="cls-24" points="559.15 359.21 553.9 359.98 553.85 367.09 559.12 366.52 559.15 359.21"/><polygon class="cls-24" points="568.3 357.86 563.05 358.63 563.03 366.09 568.3 365.52 568.3 357.86"/><polygon class="cls-24" points="531.51 372.29 526.24 372.77 526.07 378.85 531.37 378.56 531.51 372.29"/><polygon class="cls-24" points="540.71 371.44 535.43 371.93 535.3 378.35 540.6 378.06 540.71 371.44"/><polygon class="cls-24" points="549.91 370.6 544.63 371.08 544.53 377.85 549.83 377.56 549.91 370.6"/><polygon class="cls-24" points="559.1 369.75 553.83 370.23 553.77 377.35 559.07 377.06 559.1 369.75"/><polygon class="cls-24" points="568.3 368.9 563.02 369.39 563 376.85 568.3 376.56 568.3 368.9"/><polygon class="cls-24" points="531.31 381.33 526 381.53 525.83 387.6 531.16 387.6 531.31 381.33"/><polygon class="cls-24" points="540.56 380.99 535.25 381.19 535.12 387.6 540.44 387.6 540.56 380.99"/><polygon class="cls-24" points="549.8 380.64 544.5 380.84 544.4 387.6 549.73 387.6 549.8 380.64"/><polygon class="cls-24" points="559.05 380.29 553.74 380.49 553.69 387.6 559.02 387.6 559.05 380.29"/><polygon class="cls-24" points="568.3 379.94 562.99 380.14 562.97 387.6 568.3 387.6 568.3 379.94"/><rect class="cls-26" x="421.1" y="168.1" width="36.61" height="80.86"/><polygon class="cls-27" points="457.71 168.1 475.95 178.25 475.95 259.1 457.71 248.95 457.71 168.1"/><rect class="cls-28" x="414.98" y="234.8" width="46.49" height="145.95"/><polygon class="cls-29" points="461.47 234.79 480.7 246.17 480.7 380.75 461.47 380.75 461.47 234.79"/><rect class="cls-30" x="433.54" y="173.02" width="4.28" height="6.14"/><rect class="cls-30" x="448.44" y="173.02" width="4.27" height="6.14"/><rect class="cls-30" x="426.09" y="181.87" width="4.28" height="6.15"/><rect class="cls-30" x="433.54" y="181.87" width="4.28" height="6.15"/><rect class="cls-30" x="440.99" y="181.87" width="4.27" height="6.15"/><rect class="cls-30" x="448.44" y="181.87" width="4.27" height="6.15"/><rect class="cls-30" x="433.54" y="190.73" width="4.28" height="6.14"/><rect class="cls-30" x="448.44" y="190.73" width="4.27" height="6.14"/><rect class="cls-30" x="426.09" y="199.6" width="4.28" height="6.14"/><rect class="cls-30" x="433.54" y="199.6" width="4.28" height="6.14"/><rect class="cls-30" x="440.99" y="199.6" width="4.27" height="6.14"/><rect class="cls-30" x="448.44" y="199.6" width="4.27" height="6.14"/><rect class="cls-30" x="426.09" y="208.45" width="4.28" height="6.14"/><rect class="cls-30" x="433.54" y="208.45" width="4.28" height="6.14"/><rect class="cls-30" x="448.44" y="208.45" width="4.27" height="6.14"/><rect class="cls-30" x="433.54" y="217.31" width="4.28" height="6.15"/><rect class="cls-30" x="440.99" y="217.31" width="4.27" height="6.15"/><rect class="cls-30" x="448.44" y="217.31" width="4.27" height="6.15"/><rect class="cls-30" x="425.5" y="245.35" width="4.27" height="6.15"/><rect class="cls-30" x="440.4" y="245.35" width="4.27" height="6.15"/><rect class="cls-30" x="418.05" y="254.2" width="4.27" height="6.14"/><rect class="cls-30" x="425.5" y="254.2" width="4.27" height="6.14"/><rect class="cls-30" x="432.95" y="254.2" width="4.27" height="6.14"/><rect class="cls-30" x="440.4" y="254.2" width="4.27" height="6.14"/><rect class="cls-30" x="425.5" y="263.06" width="4.27" height="6.14"/><rect class="cls-30" x="440.4" y="263.06" width="4.27" height="6.14"/><rect class="cls-30" x="418.05" y="271.93" width="4.27" height="6.14"/><rect class="cls-30" x="425.5" y="271.93" width="4.27" height="6.14"/><rect class="cls-30" x="432.95" y="271.93" width="4.27" height="6.14"/><rect class="cls-30" x="440.4" y="271.93" width="4.27" height="6.14"/><rect class="cls-30" x="418.05" y="280.79" width="4.27" height="6.14"/><rect class="cls-30" x="425.5" y="280.79" width="4.27" height="6.14"/><rect class="cls-30" x="440.4" y="280.79" width="4.27" height="6.14"/><rect class="cls-30" x="425.5" y="289.64" width="4.27" height="6.15"/><rect class="cls-30" x="432.95" y="289.64" width="4.27" height="6.15"/><rect class="cls-30" x="440.4" y="289.64" width="4.27" height="6.15"/><rect class="cls-30" x="446.85" y="245.35" width="4.28" height="6.15"/><rect class="cls-30" x="446.85" y="263.06" width="4.28" height="6.14"/><rect class="cls-30" x="446.85" y="280.79" width="4.28" height="6.14"/><rect class="cls-30" x="453.31" y="254.2" width="4.27" height="6.14"/><rect class="cls-30" x="453.31" y="271.93" width="4.27" height="6.14"/><rect class="cls-30" x="453.31" y="280.79" width="4.27" height="6.14"/><rect class="cls-30" x="453.31" y="289.64" width="4.27" height="6.15"/><path class="cls-31" d="M697.64,449.24V406.12S487.86,355,315.68,355,2.81,406.12,2.81,406.12v43.11Z"/><path class="cls-3" d="M170.66,306.53a53.06,53.06,0,1,1-53.06-53.07A53.06,53.06,0,0,1,170.66,306.53Z"/><circle class="cls-32" cx="117.59" cy="306.52" r="48.02"/><rect class="cls-33" x="112.56" y="331.73" width="10.08" height="88.36"/><polyline class="cls-33" points="117.6 345.17 152.89 321.16 119.75 353.82"/><polyline class="cls-33" points="114.95 337.49 83.75 306.53 114.95 345.17"/><polyline class="cls-33" points="122.64 337.49 122.64 285.15 117.6 335.09 104.16 300.52 113.4 335.94"/><polyline class="cls-33" points="113.4 347.22 89.38 331.73 114.95 353.82"/><polyline class="cls-33" points="133.59 334.3 135.24 315.53 138 334.3"/><polyline class="cls-33" points="122.64 310.13 131.88 302.2 122.64 316.97"/><polyline class="cls-33" points="94.27 316.97 94.27 298.24 99.35 322.01"/><polyline class="cls-33" points="99.35 340.34 87.59 342.77 104.16 342.77"/><rect class="cls-34" x="3.05" y="406.47" width="694.46" height="24.31"/><polygon class="cls-35" points="397.37 379.45 412.21 379.45 448.46 407.4 416.59 407.4 397.37 379.45"/><path class="cls-14" d="M347.89,385.94c7.55,3.3,18,7.4,23.46,7.4H410c49.08,0,74.81.37,87.08,11.77,5.37,5,9.13,4.73,9.15,9.09,0,8-54.33,6.43-79.66,6.43H409.85c-17.83,0-35.09-1.11-44.33-7.35-3.38-2.28-11.4-7.93-17.64-12.33Z"/><path class="cls-36" d="M409.85,417.31h16.72c24,0,74,1.36,79.21-5.25a4.75,4.75,0,0,1,.45,2.14c0,8-54.33,6.43-79.66,6.43H409.85c-17.83,0-35.09-1.11-44.33-7.35-3.38-2.28-11.4-7.93-17.64-12.33v-3.32c6.24,4.41,14.26,10,17.64,12.33C374.76,416.2,392,417.31,409.85,417.31Z"/><polygon class="cls-14" points="348.05 396.19 336.95 365.74 346.36 365.74 367.75 396.19 348.05 396.19"/><polygon class="cls-37" points="340.38 365.74 351.47 396.19 349.34 396.19 338.25 365.74 340.38 365.74"/><circle class="cls-38" cx="462.52" cy="405.12" r="2.06"/><circle class="cls-38" cx="452.92" cy="405.12" r="2.06"/><circle class="cls-38" cx="443.31" cy="405.12" r="2.06"/><circle class="cls-38" cx="433.71" cy="405.12" r="2.06"/><circle class="cls-38" cx="424.1" cy="405.12" r="2.06"/><circle class="cls-38" cx="414.5" cy="405.12" r="2.06"/><circle class="cls-38" cx="404.89" cy="405.12" r="2.06"/><circle class="cls-38" cx="395.29" cy="405.12" r="2.06"/><circle class="cls-38" cx="385.68" cy="405.12" r="2.06"/><circle class="cls-38" cx="376.08" cy="405.12" r="2.06"/><circle class="cls-38" cx="366.47" cy="405.12" r="2.06"/><path class="cls-38" d="M500.15,407.61H479.76a2.68,2.68,0,0,1,0-5.36h13.59a26.08,26.08,0,0,1,3.73,2.87A29.88,29.88,0,0,0,500.15,407.61Z"/><path class="cls-39" d="M506.22,414.2H366.94c-.49-.28-1-.57-1.42-.88l-2.89-2H505.28A4.3,4.3,0,0,1,506.22,414.2Z"/><path class="cls-39" d="M368.39,414.94H505.28a2.34,2.34,0,0,1,.6.33,3.12,3.12,0,0,1-.56.59H370.44Q369.38,415.43,368.39,414.94Z"/><path class="cls-40" d="M362.68,411.34h5.17a37.81,37.81,0,0,0,7.59,2.86H367c-.51-.29-1-.59-1.48-.91Z"/><path class="cls-40" d="M378.5,414.94c1.66.36,3.39.66,5.19.92H370.43l-.79-.34-.26-.11-.86-.4-.14-.07Z"/><path class="cls-37" d="M362.54,395.94l-4.63,12.14c-3.7-2.58-6.17-4.39-10-7.11v-5Z"/><polygon class="cls-14" points="337.31 410.43 344.07 410.43 362.54 395.94 348.01 395.94 337.31 410.43"/><polygon class="cls-14" points="394.69 442.59 409.53 442.59 445.79 414.64 413.91 414.64 394.69 442.59"/><line class="cls-41" x1="2.36" y1="418.59" x2="4.71" y2="418.59"/><line class="cls-42" x1="9.41" y1="418.59" x2="692.51" y2="418.59"/><line class="cls-41" x1="694.85" y1="418.59" x2="697.21" y2="418.59"/><rect class="cls-11" x="496.99" y="283.88" width="28.27" height="25.06"/><rect class="cls-12" x="492.92" y="303.09" width="38.28" height="92.25"/><rect class="cls-13" x="514.11" y="234.6" width="1.64" height="49.28"/><rect class="cls-14" x="496.98" y="308.41" width="3.16" height="7.39"/><rect class="cls-14" x="502.49" y="308.41" width="3.16" height="7.39"/><rect class="cls-14" x="507.99" y="308.41" width="3.16" height="7.39"/><rect class="cls-14" x="513.5" y="308.41" width="3.16" height="7.39"/><rect class="cls-14" x="519.01" y="308.41" width="3.16" height="7.39"/><rect class="cls-14" x="496.98" y="319.1" width="3.16" height="7.39"/><rect class="cls-14" x="502.49" y="319.1" width="3.16" height="7.39"/><rect class="cls-14" x="507.99" y="319.1" width="3.16" height="7.39"/><rect class="cls-14" x="513.5" y="319.1" width="3.16" height="7.39"/><rect class="cls-14" x="519.01" y="319.1" width="3.16" height="7.39"/><rect class="cls-14" x="496.98" y="329.79" width="3.16" height="7.4"/><rect class="cls-14" x="502.49" y="329.79" width="3.16" height="7.4"/><rect class="cls-14" x="507.99" y="329.79" width="3.16" height="7.4"/><rect class="cls-14" x="513.5" y="329.79" width="3.16" height="7.4"/><rect class="cls-14" x="519.01" y="329.79" width="3.16" height="7.4"/><rect class="cls-14" x="496.98" y="340.48" width="3.16" height="7.39"/><rect class="cls-14" x="502.49" y="340.48" width="3.16" height="7.39"/><rect class="cls-14" x="507.99" y="340.48" width="3.16" height="7.39"/><rect class="cls-14" x="513.5" y="340.48" width="3.16" height="7.39"/><rect class="cls-14" x="519.01" y="340.48" width="3.16" height="7.39"/><rect class="cls-14" x="496.98" y="351.16" width="3.16" height="7.39"/><rect class="cls-14" x="502.49" y="351.16" width="3.16" height="7.39"/><rect class="cls-14" x="507.99" y="351.16" width="3.16" height="7.39"/><rect class="cls-14" x="513.5" y="351.16" width="3.16" height="7.39"/><rect class="cls-14" x="519.01" y="351.16" width="3.16" height="7.39"/><rect class="cls-14" x="496.98" y="361.85" width="3.16" height="7.39"/><rect class="cls-14" x="502.49" y="361.85" width="3.16" height="7.39"/><rect class="cls-14" x="507.99" y="361.85" width="3.16" height="7.39"/><rect class="cls-14" x="513.5" y="361.85" width="3.16" height="7.39"/><rect class="cls-14" x="519.01" y="361.85" width="3.16" height="7.39"/><rect class="cls-14" x="524.06" y="308.41" width="3.16" height="7.39"/><rect class="cls-14" x="524.06" y="319.1" width="3.16" height="7.39"/><rect class="cls-14" x="524.06" y="329.79" width="3.16" height="7.4"/><rect class="cls-14" x="524.06" y="340.48" width="3.16" height="7.39"/><rect class="cls-14" x="524.06" y="351.16" width="3.16" height="7.39"/><rect class="cls-14" x="524.06" y="361.85" width="3.16" height="7.39"/><rect class="cls-43" width="700" height="450"/></g></g></svg>