<?xml version="1.0" encoding="utf-8"?>
<!-- Generator: Adobe Illustrator 21.0.0, SVG Export Plug-In . SVG Version: 6.00 Build 0)  -->
<svg version="1.1" id="Capa_1" xmlns="http://www.w3.org/2000/svg" xmlns:xlink="http://www.w3.org/1999/xlink" x="0px" y="0px"
	 viewBox="0 0 116.4 297" style="enable-background:new 0 0 116.4 297;" xml:space="preserve">
<style type="text/css">
	.st0{fill:#2F1E4C;}
	.st1{fill:#4FC4D2;}
	.st2{fill:#EAECE5;}
	.st3{fill:#BFBCB1;}
	.st4{fill:#0F90B0;}
	.st5{fill:#43B6B1;}
	.st6{fill:#3C8F94;}
	.st7{fill:#E69FA5;}
	.st8{fill:#B8E3F0;}
	.st9{fill:#FFFFFF;}
	.st10{fill:#F1CB36;}
	.st11{fill:#D7842D;}
</style>
<title>Radar_Nave_1</title>
<g>
	<path class="st0" d="M58.3,211.4c-30,0-51-27.1-51-65.8c0-19.9,5.4-40.3,14.7-56.2c9.9-16.8,22.8-26,36.3-26s26.3,9.2,36.3,26
		c9.4,15.8,14.7,36.3,14.7,56.2C109.2,184.3,88.3,211.4,58.3,211.4z M58.3,65.6c-25.4,0-48.5,38.1-48.5,79.9
		c0,37.4,20,63.5,48.5,63.5s48.5-26.1,48.5-63.5C106.8,103.7,83.7,65.6,58.3,65.6z"/>
	<g>
		<path class="st1" d="M18.8,104c-1.4-2.6-6.3-15.3-8.3-18.6S3.7,74.8,2.9,72.8s-0.2-5,3.3-5.2c3.6-0.2,9.1,2.9,11.1,4
			c1.9,1.2,8.1,9.6,9.2,11.3c1.1,1.8,9.1,12.3,10.2,14.3c1,2-1,7.4-6.5,9.3S19.9,106,18.8,104z"/>
		<path class="st2" d="M14.7,71.2c-2.3-1.7-5-3-7.6-2.7c-5.8,0.7-1.8,6.2-0.1,8.7c0.2,0.3,0.4,0.5,0.5,0.8
			C8.2,74.4,11,71.2,14.7,71.2z"/>
		<g>
			<path class="st3" d="M4.8,67.8c-0.3,1.7-2,2.7-1,4.2C4.5,73.1,6.6,80,8,79.5c0.4-0.1,1.9-5.6,1.6-5.8c-2.8-2.3-3.9-4.6-3.9-5.8
				C5.7,67.3,4.9,67.3,4.8,67.8L4.8,67.8z"/>
		</g>
		<path class="st0" d="M37.4,96.7c0-0.1,0-0.2-0.1-0.3c-0.3-0.5-0.7-0.9-1-1.4c-3.7-5.3-7.7-11.4-10.6-15.4
			c-2.9-4.1-6.5-8-10.9-10.9c-3-2-9.7-4.3-12.5-0.6c-1.6,2-0.8,4.6,0.3,6.7c1.6,3.3,4.1,6.4,5.8,9.7c2.4,4.4,4.5,9.1,6.5,13.7
			c0.9,2,1.7,4,2.5,6.1c0.7,0.6,2.5,0.2,2.4-0.8c0,0,0,0,0,0c-0.7-1.9-1.6-3.8-2.4-5.6c-1.7-3.9-3.6-7.7-5.3-11.6
			c-1.4-3.1-3.1-6.2-5-9c-1.7-2.5-5.7-8,0.1-8.7C12.1,67.9,17,73,19.9,76c3.3,3.5,5.7,7.6,8.4,11.5c2,2.9,4.3,6.7,7.1,10.4
			C36.1,98.5,38,98.1,37.4,96.7z"/>
	</g>
	<g>
		<path class="st1" d="M95.4,104c1.4-2.6,6.3-15.3,8.3-18.6s6.8-10.7,7.6-12.6s0.2-5-3.3-5.2c-3.6-0.2-9.1,2.9-11.1,4
			c-1.9,1.2-8.1,9.6-9.2,11.3c-1.1,1.8-9.1,12.3-10.2,14.3c-1,2,1,7.4,6.5,9.3S94.4,106,95.4,104z"/>
		<path class="st2" d="M99.6,71.2c2.3-1.7,5-3,7.6-2.7c5.8,0.7,1.8,6.2,0.1,8.7c-0.2,0.3-0.4,0.5-0.5,0.8
			C106.1,74.4,103.3,71.2,99.6,71.2z"/>
		<g>
			<path class="st3" d="M109.5,67.8c0.3,1.7,2,2.7,1,4.2c-0.8,1.1-2.8,7.9-4.3,7.5c-0.4-0.1-1.9-5.6-1.6-5.8
				c2.8-2.3,3.9-4.6,3.9-5.8C108.6,67.3,109.4,67.3,109.5,67.8L109.5,67.8z"/>
		</g>
		<path class="st0" d="M76.9,96.7c0-0.1,0-0.2,0.1-0.3c0.3-0.5,0.7-0.9,1-1.4c3.7-5.3,7.7-11.4,10.6-15.4c2.9-4.1,6.5-8,10.9-10.9
			c3-2,9.7-4.3,12.5-0.6c1.6,2,0.8,4.6-0.3,6.7c-1.6,3.3-4.1,6.4-5.8,9.7c-2.4,4.4-4.5,9.1-6.5,13.7c-0.9,2-1.7,4-2.5,6.1
			c-0.7,0.6-2.5,0.2-2.4-0.8c0,0,0,0,0,0c0.7-1.9,1.6-3.8,2.4-5.6c1.7-3.9,3.6-7.7,5.3-11.6c1.4-3.1,3.1-6.2,5-9
			c1.7-2.5,5.7-8-0.1-8.7c-4.9-0.6-9.9,4.4-12.8,7.5c-3.3,3.5-5.7,7.6-8.4,11.5c-2,2.9-4.3,6.7-7.1,10.4
			C78.2,98.5,76.3,98.1,76.9,96.7z"/>
	</g>
	<path class="st1" d="M33.1,180c-1.4,3.2-9.8,17.4-11.4,21.7c-1.6,4.3-4.9,14.2-6.2,16.4c-1.3,2.2-4.7,4.2-7.7,1.4
		c-3.1-2.8-4.5-9.9-4.9-12.4c-0.4-2.5,2.8-14.3,3.6-16.7c0.8-2.3,4.6-17.4,5.7-19.8c1.1-2.4,8-5.1,14.2-2S34.2,177.6,33.1,180z"/>
	<g>
		<path class="st2" d="M17.5,210.9c-0.4,3.3-1.5,6.5-4.1,8.2c-5.6,3.9-7.1-4-7.9-7.5c-0.1-0.4-0.2-0.7-0.3-1.1
			C9,213.2,14.3,213.8,17.5,210.9z"/>
		<g>
			<path class="st3" d="M12,221.5c-1.8-1.2-4.2-0.8-4.7-2.8c-0.4-1.5-4.8-9-3.1-9.8c0.4-0.2,6.7,3.3,6.6,3.8c-0.4,4.2,0.8,6.9,1.9,8
				C13.2,221.2,12.6,221.9,12,221.5L12,221.5z"/>
		</g>
	</g>
	<path class="st0" d="M11.3,170.5c-0.1,0.1-0.1,0.2-0.2,0.3c-0.2,0.7-0.4,1.3-0.6,2C8.3,180,5.6,188.2,4,193.8
		c-1.7,5.7-2.6,11.8-1.9,17.7c0.5,4,3.6,11.5,9.4,10.9c3.2-0.3,5.1-3,6.3-5.5c1.9-4,3-8.5,4.7-12.6c2.4-5.5,5.3-11,8.1-16.3
		c1.2-2.3,2.5-4.7,3.9-6.9c0.1-1.1-1.8-2.2-2.6-1.3c0,0,0,0,0,0c-1.3,2.1-2.5,4.4-3.6,6.4c-2.4,4.5-4.6,9.1-6.9,13.6
		c-1.8,3.6-3.5,7.5-4.7,11.3c-1.1,3.4-3.2,11.1-8.5,6.9c-4.5-3.6-3.6-11.7-2.9-16.5c0.7-5.6,2.8-10.8,4.5-16.1c1.3-4,3.1-9,4.5-14.2
		C14,170.1,12.1,169,11.3,170.5z"/>
	<path class="st1" d="M84.7,180c1.4,3.2,9.8,17.4,11.4,21.7s4.9,14.2,6.2,16.4s4.7,4.2,7.7,1.4c3.1-2.8,4.5-9.9,4.9-12.4
		c0.4-2.5-2.8-14.3-3.6-16.7c-0.8-2.3-4.6-17.4-5.7-19.8c-1.1-2.4-8-5.1-14.2-2C85.2,171.8,83.6,177.6,84.7,180z"/>
	<path class="st2" d="M99.4,210.9c1,3.4,2.7,6.6,5.9,8.1c6.9,3.3,7.3-5.2,7.6-8.9c0-0.4,0.1-0.8,0.1-1.2
		C109.2,212.2,103.4,213.6,99.4,210.9z"/>
	<g>
		<path class="st3" d="M107.2,221.3c1.8-1.5,4.6-1.4,4.8-3.6c0.2-1.7,3.9-10.1,1.9-10.7c-0.5-0.1-6.9,4.4-6.8,4.9
			c1.1,4.3,0.2,7.4-0.8,8.7C105.8,221.2,106.6,221.8,107.2,221.3L107.2,221.3z"/>
	</g>
	<path class="st0" d="M106.2,169.3c0.1,0.1,0.1,0.2,0.2,0.3c0.2,0.7,0.4,1.3,0.6,2c2.2,7.3,4.9,15.5,6.5,21.1
		c1.7,5.7,2.6,11.8,1.9,17.7c-0.5,4-3.6,11.5-9.4,10.9c-3.2-0.3-5.1-3-6.3-5.5c-1.9-4-3-8.5-4.7-12.6c-2.4-5.5-5.3-11-8.1-16.3
		c-1.2-2.3-2.5-4.7-3.9-6.9c-0.1-1.1,1.8-2.2,2.6-1.3c0,0,0,0,0,0c1.3,2.1,2.5,4.4,3.6,6.4c2.4,4.5,4.6,9.1,6.9,13.6
		c1.8,3.6,3.5,7.5,4.7,11.3c1.1,3.4,3.2,11.1,8.5,6.9c4.5-3.6,3.6-11.7,2.9-16.5c-0.7-5.6-2.8-10.8-4.5-16.1c-1.3-4-3.1-9-4.5-14.2
		C103.5,168.9,105.4,167.7,106.2,169.3z"/>
	<path class="st1" d="M107.2,145.3c0,39.5-21.9,63.5-49,63.5s-49-24-49-63.5s21.9-79.7,49-79.7S107.2,105.7,107.2,145.3z"/>
	<g>
		<path class="st4" d="M38.3,148.5c0.2,0.6,0.9,0.8,1.5,0.3c6.7-5.5,12.1-13.2,14.3-21.5c2.5-9.3-0.6-17.2-5-25.6
			c0.5,6.6-1.1,13.4-4.6,19.2c-0.4,0.1-0.7-0.4-0.7-0.7c-1.3-5.1-2.6-10.2-5.2-14.8c-0.7-1.3-1.6-2.5-2.3-3.8
			c-2-3.5-3.3-7.4-3.8-11.4c-0.2-1.8-0.6-3.7-0.1-5.4c0.6-2.3,1.7-4.6,2.9-6.6c0.3-0.5-6.6,4.1-11.5,13.4c-3.5,6.5-3.9,14-1.1,20.8
			c1.5,3.6,3.7,7,5.4,10.5c0.8,1.6,5,14.9,4.1,16.2c2.3-1.3,4.1-6.1,3.6-9c3.2,5,3.6,11.9,2.7,18C38.3,148.3,38.3,148.4,38.3,148.5z
			"/>
	</g>
	<g>
		<path class="st4" d="M72,159.8c-0.2,0.6-1.1,0.9-1.7,0.4c-7.7-6.3-13.9-15.2-16.4-24.7c-2.8-10.7,0.7-19.7,5.7-29.4
			c-0.5,7.6,1.3,15.3,5.3,22c0.5,0.1,0.8-0.4,0.9-0.9c1.5-5.8,3-11.7,5.9-17c0.8-1.5,1.8-2.9,2.6-4.4c2.3-4.1,3.8-8.5,4.4-13.1
			c0.3-2,0.7-4.2,0.2-6.2C78.2,84,77,81.4,75.6,79c-0.3-0.6,7.5,4.7,13.3,15.4c4,7.5,4.5,16.1,1.3,23.9c-1.7,4.2-4.2,8.1-6.2,12.1
			c-0.9,1.8-5.8,17.1-4.7,18.6c-2.6-1.5-4.7-7-4.1-10.4c-3.7,5.7-4.1,13.6-3.1,20.7C72.1,159.6,72,159.7,72,159.8z"/>
	</g>
	<g>
		<path class="st5" d="M21.6,262.6c7.3-7.8,19.7-13.1,22-23.8c0.1-0.5,0.8-0.3,0.8,0.2c-0.7,6.5-5.3,11.5-10.4,15.7
			c-5.2,4.4-13.2,9.2-15.1,15.8c-1.9,6.3,0.9,15.8,8.8,17.4c4.6,0.9,9-0.6,13.1-2.5c-2.5,0.2-4.9-0.3-6.8-1.9
			c-3.3-2.7-4.1-7.5-2.3-11.3c2.4-4.7,7.3-7.9,11.3-11.4c4.8-4.2,9.1-8.7,10.5-14.8c0.1-0.4,0.9-0.4,0.8,0.1c-0.3,3.5-1.5,6.4-3.3,9
			c-0.4,0.7-0.8,1.5-1.3,2.1c-1.6,2.1-3.4,4-4.9,6.2c-1.6,2.3-3.3,5-2.8,7.8c0.2,1.1,0.6,2.1,1.1,3.1c1.6-5.7,8.1-10.2,12.7-13.6
			c5.7-4.3,11.5-9.4,14.8-15.6c1.8-4.9,3.5-9.7,4.4-14.9c0.1-0.5,0.9-0.4,0.9,0.1c0.4,7.8-3.4,14.9-5.7,22.3
			c-1.9,6-2.4,11.6-0.8,17.4c0.7-5.9,5-11.3,8.3-16.3c4.1-6.3,8.4-13,9.7-20.4c2.8-15.3-5.4-30.6-20.8-36.7c-0.4,0.3-0.8,0.7-1.2,1
			c4,2.9,7,6.8,7.2,10.7c0,0.5-0.8,0.6-0.9,0.2c-2.5-7-14-15.8-22.5-12.7c11.7,6.4,21.5,20.9,19,33.6c-0.1,0.5-1,0.4-1-0.1
			c0.1-12.9-7.8-26.9-20.5-32.7c-1.9-0.2-3.9-0.4-5.7,0.1c-2.9,0.9-2.6,3.3-2.4,5.5c1.4,3.5,0.6,7.5-0.6,11
			c-1.6,4.7-5.4,8.2-8.8,11.7c4.7,0.1,8.4-3.5,10.7-7.3c1.2-2.6,1.7-5.4,0.6-8.1c-0.3-0.7,0.8-1,1.2-0.5c4.6,5.8-3,14.5-6.9,18.8
			c-2.8,3-5.8,5.8-8.8,8.7c-3.2,3.1-6.2,6.2-7.1,10.3c2.3-2,6.2-3.3,8.5-4.4c4.2-2,9.1-4.1,10.5-8.6c0-0.1,0.1-0.1,0.1-0.2
			c0,0,0,0,0,0c0.1-0.4,0.8-0.4,0.8,0.1c-0.1,3.7-2.8,7.1-5.2,9.9c-3.8,4.2-8.4,7.3-13.2,10.5c-5.4,3.6-10.6,8.1-11.5,14.5
			c-0.5,3.4,0.8,6,2.8,8.5C10.7,271.8,16.8,266.3,21.6,262.6z"/>
		<path class="st6" d="M12.6,278.5c-0.1-2.8,1.3-4.9,1.8-7.5c0.5-2.4-0.1-4.4,1.2-6.8c2.2-4.3,6.9-6.9,11.2-9.3
			c5.7-3.2,10.1-7.4,15-11.4c-0.7,1.3-1,2.7-1.1,4.2c-0.1,0.1-0.2,0.2-0.3,0.3c-1.2,1.3-2.5,2.6-3.8,3.8c-3.6,3.3-7.4,6.5-11.3,9.6
			c-1.7,1.3-3.4,2.6-4.6,4.2c-2.5,3.3-2.7,7.7-2.2,11.8c0.3,2.4,0.9,4.8,2.4,6.7c0.9,1.2,2.1,2.1,3.4,2.9c1.8,1.3,3.9,2.4,6.2,2.4
			c1.2,0,2.3-0.3,3.5-0.7c3-0.9,6-2.1,8.8-3.4c-3.8-1.4-8.4-1-11.7-3.2c-3-2-4.5-5.7-3.8-9c1-5.1,4.7-9.5,8.4-13.2
			c3.8-3.8,8.2-7.2,11.3-11.5c2.5-3.5,4.4-7.4,6.4-11.1c-0.4,0.7,0.3,3,0.3,3.8c0,1.5-0.1,2.9-0.3,4.4c-0.4,2.4-1,5.3-2,7.5
			c-2.6,5.4-8.1,9.3-9.6,15.2c-0.6,2.3-0.3,5.1,1.5,6.7c2.4-3.6,5.2-6.9,8.5-9.9c0.3-0.1,0.6-0.3,0.7-0.7c0.5-4,2.5-7.4,4.8-10.8
			c2.4-3.6,4.7-7.2,6.7-11c2.1-4.1,3.8-8.3,5-12.7c0.6-2.1,1.1-4.2,1.4-6.3c0.2-1.4,0.2-3,0.6-4.3c2.3,2.9,2.7,6.2,2.8,9.9
			c0.1,5.7-1.3,10.4-3,15.8c-1.8,5.7-3.2,11.6-4,17.5c-0.5,3.3-0.5,7.1,2.2,9.3c0.2,0.1,1.7-5.4,1.9-5.9c0.4-1,1.2-1.4,1.6-2.2
			c0.5-0.8,0.3-1.9,0.4-3c0.5-4.8,2.7-9.3,3.7-14c1.4-6.1,1.7-12.4,1.4-18.6c-0.3-5.4-1.2-10.7-2.4-15.9c-0.4-1.6-1.9-8.3,2.2-6.6
			c1.8,0.7,3.3,2.3,4.8,3.5c0.4,0.3,0.9-0.2,0.6-0.6c-2.8-2.8-5.7-5.6-8.8-8.2c-1.8-1.5-3.7-3-5.8-4.1c-0.6-0.3-1.4-0.7-2.2-0.7
			c-1.5,0-2.1,1.3-3.4,1.8c-2.2-1.6-4.7-2.8-7.5-3.3c-2.7-0.4-5.7,0-8,1.4c0.8,0.6,1.5,1.1,2.3,1.7c-2.5-0.9-6.2-1.6-8.8-1
			c-3.3,0.8-3.3,3.2-2.8,5.8c0.5,2.8-0.1,5.8-1,8.5c-0.9,2.6-2.3,5-3.8,7.4c2.8-1.8,5.3-3.9,7.4-6.4c2.3,2,1.1,6,0.8,8.5
			c-0.5,3.3-1.1,6.6-1.8,9.8c-1.2,5.2-3.3,9.4-7.3,13.2c-3.9,3.7-8.7,6.5-13.2,9.6s-8.7,6.9-10.6,11.8C6.9,269.4,8,275.6,12.6,278.5
			z M68,224.1c0,0,0-0.1,0-0.1C68,224,68,224,68,224.1C68,224,68,224,68,224.1z M73.5,219.6c0,0.1,0.1,0.2,0.1,0.3
			c-0.2-0.3-0.3-0.6-0.5-0.9C73.3,219.3,73.5,219.5,73.5,219.6z M52.9,207.6c1.6,2.3,2.6,4.8,3.6,7.4c0,1.7,0,3.4,0.2,5.1
			c-6.4-3.9-9-11.4-10.8-17.9c0,0,0,0,0,0C48.9,203.1,51.2,205.2,52.9,207.6z"/>
		<path class="st6" d="M67.8,195.4c6.2,1.3,11.9,6.4,15.3,11c3.6,4.9,5.9,10.9,6.5,16.9c1.4,5.2,2.8,10.2,6.7,14.2
			c-2-9.6-2.1-20.1-6.4-29.1c-3.9-8.1-11.6-11.9-19.7-15.3C69.4,193.9,68.6,194.6,67.8,195.4z"/>
		<g>
			<path class="st0" d="M49,217.8c0.7,2.7-0.6,5.4,0.6,8.1c0.2,0.5,0.9,0.4,1-0.2c0.1-1.4,0.4-2.8,0.5-4.3c0.1-1.4-0.5-2.8-1.3-4
				C49.5,217,48.9,217.3,49,217.8L49,217.8z"/>
		</g>
		<g>
			<path class="st0" d="M53,234c-0.2,1.4-0.4,2.9-0.7,4.3c-0.4,1.4-1,2.8-1.3,4.2c-0.1,0.4,0.4,0.6,0.7,0.3c2.4-2.1,3.6-6.2,2-9
				C53.6,233.6,53.1,233.6,53,234L53,234z"/>
		</g>
		<g>
			<path class="st0" d="M46.9,244.7c-1.3,2.2-3.2,4.3-4.3,6.6c-0.2,0.3,0.2,0.7,0.6,0.5c2.6-1.4,4.2-4.1,4.5-6.8
				C47.8,244.5,47.2,244.3,46.9,244.7L46.9,244.7z"/>
		</g>
		<g>
			<path class="st0" d="M40.9,255.9c-2.1,1.9-4.8,3.1-6.4,5.4c-0.2,0.3,0.2,0.6,0.6,0.5c2.7-1.3,5.1-2.9,6.5-5.5
				C41.8,256,41.3,255.6,40.9,255.9L40.9,255.9z"/>
		</g>
		<g>
			<path class="st0" d="M30.2,261.7c-1.3,0.6-2.2,1.5-3,2.6c-0.8,1-1.9,2.1-2.2,3.4c-0.1,0.3,0.3,0.6,0.6,0.5
				c1.2-0.4,1.9-1.4,2.7-2.3c1-1.2,1.9-2.4,2.5-3.8C30.8,261.8,30.5,261.5,30.2,261.7L30.2,261.7z"/>
		</g>
		<g>
			<path class="st0" d="M27.2,270.9c-0.4,0.6-0.9,1.1-1.3,1.8c-0.3,0.6-0.5,1.3-0.7,1.9c-0.4,1.3-0.2,2.8,0.5,4
				c0.2,0.4,0.8,0.1,0.8-0.2c0-1.3,0.2-2.5,0.5-3.7c0.2-0.6,0.4-1.1,0.6-1.7c0.2-0.6,0.2-1.1,0.4-1.7
				C28.2,270.7,27.4,270.5,27.2,270.9L27.2,270.9z"/>
		</g>
		<g>
			<path class="st0" d="M60.3,229.2c0.6,3.2-1.1,6.4-2.1,9.4c-0.1,0.3,0.4,0.6,0.6,0.4c3.1-2.3,4-6.8,2.2-10
				C60.8,228.7,60.2,228.8,60.3,229.2L60.3,229.2z"/>
		</g>
		<g>
			<path class="st0" d="M63.3,241.8c-1.3,2-2.7,4.1-3.8,6.3c-0.2,0.3,0.2,0.8,0.6,0.6c2.9-1.1,3.6-4.1,4.1-6.6
				C64.2,241.5,63.5,241.3,63.3,241.8L63.3,241.8z"/>
		</g>
		<g>
			<path class="st0" d="M72.3,213c1.6,2.3,2,5.6,2.6,8.2c0.1,0.4,0.7,0.3,0.8,0c1.1-3.2,0.2-6.7-2.9-8.6
				C72.4,212.3,72.1,212.7,72.3,213L72.3,213z"/>
		</g>
		<g>
			<path class="st0" d="M79.2,223.8c0.4,1.2,0.3,2.8,0.3,4c0,0.6,0,1.1,0,1.7c0,0.7,0.2,1.1,0.4,1.8c0.1,0.3,0.6,0.3,0.7,0.1
				c0.3-0.6,0.6-1,0.7-1.7c0.1-0.8,0.2-1.5,0.1-2.3c0-1.5-0.8-2.6-1.5-3.9C79.7,223.2,79.1,223.4,79.2,223.8L79.2,223.8z"/>
		</g>
		<g>
			<path class="st0" d="M77.8,238.2c-0.2,2.1-1.1,4.2-1.6,6.2c-0.1,0.4,0.4,0.6,0.7,0.3c2.2-1.8,2.2-4.1,1.8-6.6
				C78.5,237.7,77.8,237.7,77.8,238.2L77.8,238.2z"/>
		</g>
		<g>
			<path class="st0" d="M83.4,232.7c-0.4,1.7-1,3.3-1.2,5.1c0,0.4,0.5,0.4,0.7,0.2c1.7-1.4,1.4-3.4,1.3-5.3
				C84.2,232.3,83.5,232.3,83.4,232.7L83.4,232.7z"/>
		</g>
		<g>
			<path class="st0" d="M75,249.7c0,0.9-0.9,2.1-1.3,2.9c-0.4,0.9-0.7,1.9-0.9,2.8c-0.1,0.4,0.5,0.6,0.7,0.2c0.7-1,1.5-1.9,2-3
				c0.5-1.1,0.4-1.9,0.3-3.1C75.9,249.1,75,249.1,75,249.7L75,249.7z"/>
		</g>
		<g>
			<path class="st0" d="M69.5,232.1c-0.3,1.1-0.7,2.1-0.8,3.3c-0.1,1.2-0.2,2.3-0.3,3.5c0,0.3,0.5,0.5,0.7,0.2c0.7-1,1.2-1.8,1.4-3
				c0.2-1.4-0.1-2.6-0.2-4C70.2,231.8,69.6,231.8,69.5,232.1L69.5,232.1z"/>
		</g>
		<g>
			<path class="st0" d="M57.2,252.5c-0.6,0.9-1.4,1.8-2.1,2.7c-0.6,0.8-1.2,1.4-1.4,2.3c-0.1,0.3,0.2,0.5,0.5,0.4
				c2.2-0.7,3.4-3.2,3.7-5.2C58,252.3,57.4,252.1,57.2,252.5L57.2,252.5z"/>
		</g>
		<g>
			<path class="st0" d="M59.9,218c0.7,2.1,0.7,4.5,1,6.7c0.1,0.4,0.6,0.6,0.8,0.2c0.6-1.2,0.8-2.4,0.6-3.7c-0.2-1.3-0.9-2.3-1.5-3.5
				C60.6,217.1,59.8,217.5,59.9,218L59.9,218z"/>
		</g>
		<g>
			<path class="st0" d="M47.7,227.9c-0.1,2.1-0.6,4.4-0.2,6.5c0.1,0.4,0.7,0.4,0.8,0.1c1.2-2,1.6-4.8,0.2-6.8
				C48.3,227.3,47.7,227.5,47.7,227.9L47.7,227.9z"/>
		</g>
		<g>
			<path class="st0" d="M44.1,221.4c-0.3,1.2-1,2.3-1.5,3.4c-0.5,1-1,2.1-1.6,3.1c-0.2,0.3,0.3,0.7,0.6,0.5c1.3-0.7,2.1-1.5,2.7-2.8
				c0.7-1.5,0.5-2.6,0.5-4.2C44.8,221,44.2,221,44.1,221.4L44.1,221.4z"/>
		</g>
		<g>
			<path class="st0" d="M61.8,202.1c0.6,1,1.3,1.9,2,2.9c0.6,1,1,2.1,1.8,3c0.3,0.4,0.9,0.2,0.9-0.3c0.1-2.3-1.9-5.3-4.2-6.2
				C62,201.4,61.6,201.8,61.8,202.1L61.8,202.1z"/>
		</g>
		<g>
			<path class="st0" d="M78.9,211.3c0.6,1.1,1.1,2.3,1.6,3.5c0.5,1.1,0.7,2.3,1.3,3.4c0.2,0.3,0.6,0.2,0.7,0
				c1.4-2.5-0.8-5.8-2.9-7.4C79.1,210.5,78.6,210.9,78.9,211.3L78.9,211.3z"/>
		</g>
		<g>
			<path class="st0" d="M40.1,237.9c-0.3,1-0.9,2-1.5,2.9c-0.6,1-1.2,2-1.8,3c-0.2,0.3,0.2,0.6,0.5,0.4c2.4-1.6,3.6-3.5,3.5-6.3
				C40.8,237.6,40.2,237.6,40.1,237.9L40.1,237.9z"/>
		</g>
		<g>
			<path class="st0" d="M31,249.1c-0.8,0.9-1.8,1.7-2.8,2.5c-1,0.7-2.2,1.3-3.1,2.1c-0.3,0.3,0,0.8,0.4,0.8c2.7-0.4,5.5-2.5,6.1-5
				C31.7,249.1,31.2,248.9,31,249.1L31,249.1z"/>
		</g>
		<g>
			<path class="st0" d="M18.7,257.8c-2.4,0.9-4.7,3-5.5,5.3c-0.1,0.4,0.4,0.6,0.7,0.3c1.7-1.5,4.2-3.1,5.2-5.1
				C19.3,258.1,19.1,257.7,18.7,257.8L18.7,257.8z"/>
		</g>
		<g>
			<path class="st0" d="M35.2,231.9c-1.9,2.4-4.6,4.2-6.4,6.7c-0.2,0.3,0.2,0.6,0.5,0.5c3.4-1.1,5.3-3.9,6.6-6.8
				C35.9,232,35.5,231.6,35.2,231.9L35.2,231.9z"/>
		</g>
		<g>
			<path class="st0" d="M65.2,196c16.2,5.8,24.9,21.4,22.1,37.2c-1.3,7.4-5.7,14-9.7,20.4c-3.8,6-9.3,12.4-8.3,19.7
				c0.1,0.9,1.5,0.8,1.5-0.1c0.2-8.2,6.7-15.6,10.9-22.4c4.2-6.7,7.6-13.7,8.1-21.6c0.5-7.9-2-16.2-6.7-22.8
				c-3.8-5.2-10.6-11-17.7-11.4C64.9,195,64.7,195.8,65.2,196L65.2,196z"/>
		</g>
		<g>
			<path class="st0" d="M74.9,230c-1.3,8.5-5.2,16-7.5,24.2c-1.7,5.9-2.8,14.5,2,19.6c0.4,0.4,1.2-0.1,1-0.6
				c-2.8-7-2.6-13.7-0.3-20.8c2.3-7.4,6.1-14.4,5.7-22.3C75.8,229.6,75,229.5,74.9,230L74.9,230z"/>
		</g>
		<g>
			<path class="st0" d="M72.7,239.3c-2.1,8.9-9.6,15.7-17,21.3c-5.3,4-13.3,9.3-13,16.4c0,0.9,1.5,1,1.6,0.1
				c1.7-8,9.5-12.5,15.7-17.5c6.5-5.2,12.7-12,13.4-20.2C73.5,239,72.8,239,72.7,239.3L72.7,239.3z"/>
		</g>
		<g>
			<path class="st0" d="M53.5,246c-1.4,6.1-5.7,10.6-10.5,14.8c-4,3.5-8.9,6.7-11.3,11.4c-1.9,3.7-1.1,8.5,2.3,11.3
				c3.3,2.7,8.3,2.2,12,0.6c0.7-0.3,0.1-1.3-0.5-1.1c-4.9,1.5-10.5,0.8-12.2-4.4c-1.7-5,2.7-9.1,6.2-12.2
				c6.8-5.9,14.2-11.2,14.9-20.4C54.4,245.6,53.6,245.6,53.5,246L53.5,246z"/>
		</g>
		<g>
			<path class="st0" d="M43.7,238.8c-3.4,15.6-28.2,19.8-27.5,36.9c0.2,6.1,4.6,12.4,11.1,14c6.5,1.6,13.7-2.3,18.6-5.6
				c0.6-0.4,0-1.3-0.6-1c-5.3,2.7-11.3,6.1-17.6,4.8c-7.9-1.6-10.6-11.1-8.8-17.4c2-6.6,9.9-11.4,15.1-15.8
				c5.1-4.2,9.7-9.2,10.4-15.7C44.5,238.5,43.8,238.3,43.7,238.8L43.7,238.8z"/>
		</g>
		<g>
			<path class="st0" d="M24.8,260.3c-5.3,3.8-17.9,12.9-11.5,20c0.6,0.6,1.5,0.1,1.1-0.7c-3.9-7.8,6.8-13.4,10.9-18.9
				C25.5,260.4,25.1,260.1,24.8,260.3L24.8,260.3z"/>
		</g>
		<g>
			<path class="st0" d="M37.9,233.5c-1.1,4.8-6.1,9.3-9.9,12.5c-5.2,4.5-11.8,7.4-16.5,12.4c-3.2,3.4-5.1,8-4.9,12.5
				c0.2,3.9,3,7,6.2,9.3c0.7,0.5,1.5-0.3,0.9-0.9c-3.1-3.2-5.5-6.3-4.9-10.8c0.9-6.4,6.1-10.9,11.5-14.5c4.8-3.2,9.4-6.3,13.2-10.5
				c2.5-2.8,5.1-6.2,5.2-9.9C38.7,233.2,38,233.1,37.9,233.5L37.9,233.5z"/>
		</g>
		<g>
			<path class="st0" d="M40.3,209.4c3,7.3-5.3,14.9-10.2,19.8c-5.3,5.4-15,11.6-13.2,20.1c0.2,0.8,1.5,0.5,1.5-0.2
				c0-5.3,3.5-9.1,7.3-12.7c3-2.8,6-5.6,8.8-8.7c3.9-4.2,11.5-12.9,6.9-18.8C41.1,208.4,40,208.8,40.3,209.4L40.3,209.4z"/>
		</g>
		<g>
			<path class="st0" d="M37.8,233.7c-1.5,4.5-6.3,6.6-10.5,8.6c-3.1,1.4-8.9,3.2-10.2,6.5c-0.2,0.6,0.4,1.2,1,0.8
				c2-1.1,3.7-2.7,5.8-3.8c2.4-1.2,4.9-2.3,7.3-3.6c3.5-1.8,7.1-4.5,7.4-8.5C38.5,233.4,37.9,233.4,37.8,233.7L37.8,233.7z"/>
		</g>
		<g>
			<path class="st0" d="M72.5,208.1c-0.6-9.5-17.1-19-26.1-13.4c-0.6,0.4-0.6,1.3,0.1,1.6c12.8,5.9,20.6,19.9,20.6,32.8
				c0,0.5,0.9,0.6,1,0.1c2.6-13.3-8.2-28.6-20.7-34.5c0,0.5,0.1,1.1,0.1,1.6c8.7-4.9,21.5,4.5,24.1,12
				C71.7,208.8,72.5,208.7,72.5,208.1L72.5,208.1z"/>
		</g>
		<g>
			<path class="st0" d="M43.4,201.6c7.1,4,11.4,11.5,12.8,18.9c0.1,0.5,1,0.7,1.1,0.1c0.9-7.6-5.4-17.7-13.6-19.7
				C43.2,200.8,43,201.4,43.4,201.6L43.4,201.6z"/>
		</g>
		<g>
			<path class="st0" d="M68.9,192.6c8.6,3.5,16.9,7.4,21,15.9c4.7,9.9,4.4,21.5,7.1,31.9c0.5-0.3,1-0.6,1.5-0.9
				c-6.9-5.3-7.7-12.9-10.1-20.4c-0.2-0.8-1.4-0.4-1.3,0.4c1.6,8,2.9,15.8,10.1,21.3c0.7,0.6,1.7-0.1,1.5-0.9
				c-2.5-11.1-2.3-23.6-7.9-33.9c-4.2-7.6-12.8-12.5-21.6-14C68.8,191.8,68.5,192.4,68.9,192.6L68.9,192.6z"/>
		</g>
		<g>
			<path class="st0" d="M37.1,201.3c2.5,9.4-5.1,16.9-10.9,23.5c-0.5,0.5-0.3,1.4,0.5,1.6c8,1.5,14.4-5.4,15.8-12
				c0.1-0.5-0.8-0.9-1-0.3c-2.2,5.2-7.3,12-14.4,10.5c0.2,0.5,0.4,1.1,0.5,1.6c3.8-4.1,8.3-7.8,10.1-13.1c1.3-3.9,2.1-8.3,0.2-12.1
				C37.7,200.5,37,200.9,37.1,201.3L37.1,201.3z"/>
		</g>
		<g>
			<path class="st0" d="M52.1,250.5c-1.8,2.3-3,4.9-5,7.1c-2,2.3-4,4.5-5.6,7.1c-2.6,4.2-1.9,8.9,1.4,12.6c0.4,0.5,1.4,0.2,1.2-0.5
				c-0.7-1.9-1.9-3.6-2.2-5.7c-0.4-2.8,1.3-5.5,2.8-7.8c1.5-2.1,3.3-4.1,4.9-6.2c1.4-1.8,2.1-4.1,3.1-6.1
				C53.1,250.6,52.5,250.2,52.1,250.5L52.1,250.5z"/>
		</g>
		<g>
			<path class="st0" d="M46.2,287.8c-4.3,4.2-10.9,7.3-17.2,6.8c-0.6-0.1-0.9,0.6-0.3,0.9c6.3,3.6,15-2.4,18.2-7.2
				C47.1,287.9,46.5,287.5,46.2,287.8L46.2,287.8z"/>
		</g>
	</g>
	<g>
		<g>
			<ellipse class="st4" cx="55.8" cy="45" rx="26.8" ry="42.6"/>
			<path class="st1" d="M68.9,18.4c-3.7-0.8-8.7-1.5-13.1-1.4c-4.5,0-9.5,0.7-13.2,1.5c-4.7,6.3-7.7,15.8-7.7,26.6
				c0,18.9,9.3,34.2,20.8,34.2S76.6,63.9,76.6,45C76.6,34.3,73.6,24.7,68.9,18.4z"/>
			<path class="st7" d="M36.9,38.9c1.3-0.6,2.5-1.7,3.1-2.9c1.3-2.1,1.3-5.3-1.6-5.9c-3-0.7-5.3,3.7-5.6,5.8
				C32.5,38.4,34.3,40.1,36.9,38.9z"/>
			<path class="st7" d="M72,33.4c0.3,2.1,2.5,6.5,5.6,5.8c2.9-0.7,2.9-3.8,1.6-5.9c-0.6-1.3-1.8-2.4-3.1-2.9
				C73.4,29.2,71.7,31,72,33.4z"/>
			<g>
				<path class="st8" d="M58.7,32c1.9,0.4,3.6-0.2,4.9-1.4c0.5-0.5,0.6-1.4,0-1.9c-2-1.5-4.7-1.2-6.5,0.5c-0.5,0.4-0.7,1.2-0.3,1.7
					c1,1.3,2.3,1.7,4,1.5c1.4-0.2,2.9-1,3.5-2.2c0.2-0.5-0.3-1.1-0.8-1.3c-0.9-0.2-1.6,0-2.5,0.3c-0.3,0.1-1.2,0.6-1.5,0.2
					c-0.1,0.6-0.2,1.2-0.3,1.7c0.7-0.7,1.6-0.9,2.5-0.4c-0.2-0.6-0.3-1.2-0.5-1.8c-0.6,0.8-1.4,1.1-2.4,1
					C57.7,29.7,57.5,31.7,58.7,32L58.7,32z"/>
			</g>
			<g>
				<path class="st8" d="M45.8,35.2c1.9,0.4,3.6-0.2,4.9-1.4c0.5-0.5,0.6-1.4,0-1.9c-2-1.5-4.7-1.2-6.5,0.5
					c-0.5,0.4-0.7,1.2-0.3,1.7c1,1.3,2.3,1.7,4,1.5c1.4-0.2,2.9-1,3.5-2.2c0.2-0.5-0.3-1.1-0.8-1.3c-0.9-0.2-1.6,0-2.5,0.3
					c-0.3,0.1-1.2,0.6-1.5,0.2c-0.1,0.6-0.2,1.2-0.3,1.7c0.7-0.7,1.6-0.9,2.5-0.4c-0.2-0.6-0.3-1.2-0.5-1.8c-0.6,0.8-1.4,1.1-2.4,1
					C44.8,32.9,44.6,34.9,45.8,35.2L45.8,35.2z"/>
			</g>
			<g>
				<path class="st8" d="M63,26c1.9,0.4,3.6-0.2,4.9-1.4c0.5-0.5,0.6-1.4,0-1.9c-2-1.5-4.7-1.2-6.5,0.5c-0.5,0.4-0.7,1.2-0.3,1.7
					c1,1.3,2.3,1.7,4,1.5c1.4-0.2,2.9-1,3.5-2.2c0.2-0.5-0.3-1.1-0.8-1.3c-0.9-0.2-1.6,0-2.5,0.3c-0.3,0.1-1.2,0.6-1.5,0.2
					c-0.1,0.6-0.2,1.2-0.3,1.7c0.7-0.7,1.6-0.9,2.5-0.4c-0.2-0.6-0.3-1.2-0.5-1.8c-0.6,0.8-1.4,1.1-2.4,1C62,23.8,61.8,25.7,63,26
					L63,26z"/>
			</g>
			<g>
				<path class="st9" d="M39.1,50.3c2.9,3.2,8.1,4,12.8,4.1c7,0.2,16-1.3,20.6-5.8c2-2,2.4-4.9,1.1-7.1C70.9,37,63.5,35.6,58,35.9
					c-6.2,0.3-14.4,2.5-18.5,6.4C37.2,44.5,37,48,39.1,50.3z"/>
				<g>
					<path class="st0" d="M71.3,46.1c0.3-0.9,0.2-2.5-0.5-3.5c-0.9-1.2-2.4-1.5-4-1.4c-3.3,0.3-5.7,3.9-4.8,6.2
						c0.1,0.3,0.8,0.5,0.9,0.1c0.6-1.6,1.2-3.1,3.2-3.9c3-1.2,3.5,1.2,4.1,2.5C70.5,46.5,71.1,46.4,71.3,46.1L71.3,46.1z"/>
				</g>
				<g>
					<path class="st0" d="M54.4,46.7c0.9-2.5-0.6-6.3-4.7-6c-4.1,0.3-6.8,3.9-5.2,6.9c0.2,0.4,1.1,0.3,1.2-0.2
						c0.3-2.1,1.3-4.3,4-4.6c2.3-0.3,3.2,2.1,3.7,3.8C53.5,47,54.2,47.1,54.4,46.7L54.4,46.7z"/>
				</g>
				<g>
					<path class="st8" d="M73.7,46.7c-2.4,3.7-8.6,5.5-13.4,6.3c-5.2,0.9-11,0.6-16.1-0.8c-2.1-0.5-4-1.4-5.3-2.8
						c-2.4-2.3-0.9-5.2,1.2-7.2c3.2-3.1,8.5-4.5,13.3-5.3c4.6-0.7,9.5-0.6,13.9,0.6c2.6,0.7,4.9,2,6.4,3.9c1.8,2.4,0.2,4.5-1.6,6.5
						c-3.7,3.8-8.7,5.6-14.7,6.1c-6.3,0.5-11.8-0.8-17.2-3.3c-0.6-0.3-1.3,0.4-0.7,0.7c5.9,2.9,12,4.1,19,3.5
						c6.4-0.6,12.1-3.2,16-7.2c3.8-3.9,1.2-8.3-3.7-10.7c-4.9-2.4-11.5-2.5-17-1.8c-5.8,0.7-11.4,2.6-15.4,6.1
						c-4,3.5-3.1,8.4,1.8,10.9c4.9,2.6,12,2.7,17.7,2.2c5.8-0.5,12.8-2.4,15.9-6.6c0.3-0.4,0.4-0.6,0.7-1
						C74.5,46.5,73.9,46.4,73.7,46.7L73.7,46.7z"/>
				</g>
				<g>
					<path class="st8" d="M41.7,57.4c0.8,0.6,2.3,0.1,3.2-0.2c1.2-0.4,2.7-1.1,3.4-2c0.2-0.3,0.2-0.7-0.2-0.9
						c-2.5-1.1-6.5,0.5-7.8,2.2c-0.3,0.4-0.2,0.9,0.4,1.1c2.5,0.9,6.2-0.6,7.4-2.4c0.3-0.4,0.2-0.9-0.4-1.1
						c-2.4-0.7-5.7,0.7-7.2,2.1c-0.4,0.4-0.1,0.9,0.4,1.1c1.5,0.5,3.9-0.1,4.7-1.2c0.4-0.5-0.2-1.2-1-0.9c-0.9,0.3-1.9,1.2-3,0.8
						c0.1,0.4,0.3,0.7,0.4,1.1c1-0.9,3.5-2.1,5.1-1.6c-0.1-0.4-0.3-0.7-0.4-1.1c-0.9,1.2-3.4,2.5-5.3,1.9
						C41.5,56.6,41.6,57,41.7,57.4c0.9-1.3,3.8-2.6,5.6-2c-0.2-0.3-0.3-0.6-0.5-0.8c-0.6,1.1-3.2,2.4-4.8,2.2
						C41.6,56.7,41.4,57.2,41.7,57.4L41.7,57.4z"/>
				</g>
				<g>
					<path class="st8" d="M64.8,35.4c2.2,0.3,4.9,0.2,6.5-1.1c0.3-0.2,0.4-0.6,0.1-0.9c-2.1-1.7-6-0.5-8.2,0.6
						c-0.4,0.2-0.8,0.7-0.3,1.1c2,1.5,6.1,0.9,7.9-0.6c0.3-0.3,0.5-0.8,0.1-1.1c-2-1.5-6.2-0.4-7.9,1.1c-0.5,0.4,0,1.1,0.7,1.2
						c1.7,0.1,3.9,0,5.1-1.1c0.4-0.4-0.1-1.1-0.8-1c-1.4,0.3-2.7,0.7-4.2,0.6c0.2,0.4,0.5,0.8,0.7,1.2c0.9-0.7,3.9-1.6,5-0.8
						c-0.1-0.4-0.1-0.7-0.2-1.1c-1.1,0.9-4,1.5-5.3,0.6c0,0.4,0,0.7,0,1.1c1.5-0.8,4.5-1.8,6.2-0.8c-0.1-0.3-0.1-0.6-0.2-0.9
						c-1.1,1.1-3.5,1.4-5.3,1.3C64.3,34.7,64.3,35.4,64.8,35.4L64.8,35.4z"/>
				</g>
				<g>
					<path class="st8" d="M58.2,35.5c2.2,0.4,5.6-0.3,6.7-2c0.2-0.4-0.2-0.9-0.7-0.9c-2.7,0-5.4,0.4-7.4,1.9
						c-0.4,0.3-0.5,0.9,0.1,1.1c2.5,1.2,6.8-0.1,8.3-1.9c0.4-0.5,0.1-1.2-0.7-1.2c-2.3-0.2-4.6,0.5-6.4,1.7
						c-0.6,0.4-0.4,1.1,0.3,1.3c1.4,0.5,2.6,0.2,3.6-0.7c0.7-0.5-0.2-1.3-1-0.9c-0.6,0.3-1.3,0.3-1.9,0.1c0.1,0.4,0.2,0.9,0.3,1.3
						c1.4-0.9,3.1-1.4,4.9-1.3c-0.2-0.4-0.5-0.8-0.7-1.2c-0.8,1.1-4,2.4-5.6,1.7c0,0.4,0,0.8,0.1,1.1c1.7-1.3,4-1.6,6.3-1.7
						c-0.3-0.3-0.6-0.6-0.9-0.9c-0.5,1.3-3.5,1.9-5,1.7C57.7,34.8,57.7,35.4,58.2,35.5L58.2,35.5z"/>
				</g>
				<g>
					<path class="st8" d="M53.5,57.2c3.3,0.3,7-0.8,9.3-2.6c0.7-0.5,0.2-1.2-0.7-1.2c-3,0.1-6.3,0.8-8.5,2.4
						c-0.6,0.5-0.3,1.1,0.5,1.3c1.4,0.2,3-0.1,4.3-0.4c1.4-0.4,3-0.7,3.7-1.8c0.3-0.4-0.4-0.9-1-0.7c-2,0.8-4.6,1.9-6.9,1.6
						c0.2,0.4,0.3,0.8,0.5,1.3c2-1.5,5-2,7.7-2.1c-0.3-0.4-0.6-0.7-0.9-1.1c-1.6,1.8-5.3,2.8-8,2.8C53,56.5,52.9,57.1,53.5,57.2
						L53.5,57.2z"/>
				</g>
			</g>
			<path class="st3" d="M78,21.1C73.2,9.8,65.1,2.4,55.8,2.4S38.4,9.8,33.6,21.1c6.6-2.6,14.2-4.1,22.2-4.1S71.4,18.5,78,21.1z"/>
			<path class="st0" d="M55.8,1.2C40.3,1.2,27.6,20.8,27.6,45c0,15,4.9,28.3,12.4,36.2c0.1,0.3,0.4,0.6,0.7,0.7c0,0,0.1,0.1,0.1,0.1
				c0,0,0,0,0-0.1c0.1,0.1,0.3,0.1,0.5,0.1c0.7,0,1.4-0.6,1.4-1.3c0-0.4-0.2-0.8-0.6-1c0,0,0,0,0,0C35,72.4,30.3,59.6,30.3,45
				c0-22.8,11.4-41.3,25.5-41.3S81.3,22.2,81.3,45c0,14-4.3,26.4-10.9,33.9c0,0,0,0,0,0c-0.5,0.2-0.8,0.6-0.8,1.2
				c0,0.7,0.6,1.3,1.4,1.3c0.3,0,0.6-0.1,0.9-0.3c0,0,0,0,0,0c0,0,0,0,0.1-0.1c0,0,0.1-0.1,0.1-0.1c7.3-7.9,12-21,12-35.9
				C84,20.8,71.3,1.2,55.8,1.2z"/>
			<path class="st2" d="M68.9,18.4c-0.8-1.7-1.4-4.4-3.1-4.7c-5.3-0.9-1.7-3-2.9-4.2c-2.3-2.5-4.5-4-7.2-4c-2.9,0-7.9,0.9-7.8,4.6
				c0.1,1.6-0.5,3-3.1,3.8c-1.5,0.5-1.6,2.8-2.3,4.5c3.7-1.2,8.7-2.4,13.2-2.5C60.2,16,65.2,17.2,68.9,18.4z"/>
			<path class="st0" d="M80.5,23.4l-3-1.2c-6.6-2.6-14.1-4-21.7-4s-15.1,1.4-21.7,4l-3,1.2l1.2-2.8c5.2-12.2,14-19.5,23.5-19.5
				s18.2,7.3,23.5,19.5L80.5,23.4z M55.8,15.7c6.8,0,13.6,1.1,19.7,3.1C70.7,9.3,63.5,3.7,55.8,3.7S40.9,9.3,36.1,18.9
				C42.2,16.8,49,15.7,55.8,15.7z"/>
			<g>
				<path class="st0" d="M45.1,14.2c2.4,0.5,4.5-1.4,3.7-3.6c-0.3-0.9-1.1-1.6-2.1-1.8c-1.1-0.2-2.4,0.5-2.8,1.4
					c-0.1,0.3,0.2,0.7,0.6,0.5c0.6-0.2,1.2-0.6,1.7-0.4c0.4,0.1,0.7,0.5,0.9,0.9c0.2,0.4,0.2,0.9,0,1.3c-0.3,0.7-1.4,0.8-2.1,1
					C44.7,13.6,44.8,14.1,45.1,14.2L45.1,14.2z"/>
			</g>
			<g>
				<path class="st0" d="M65.6,14.3c-2.4,0.5-4.5-1.4-3.7-3.6C62.2,9.8,63,9.1,64,8.9c1.1-0.2,2.4,0.5,2.8,1.4
					c0.1,0.3-0.2,0.7-0.6,0.5c-0.6-0.2-1.2-0.6-1.7-0.4c-0.4,0.1-0.7,0.5-0.9,0.9c-0.2,0.4-0.2,0.9,0,1.3c0.3,0.7,1.4,0.8,2.1,1
					C66,13.7,65.9,14.2,65.6,14.3L65.6,14.3z"/>
			</g>
		</g>
		<g>
			<path class="st4" d="M74.9,60.3c1.7,0,5.5,0.1,8.2,1.2s6.1,4.5,7.6,6s4.2,6.8,4.2,6.8s-5.4,0.4-7.7,0.2c-2.3-0.2-5.6-1-7-1.7
				s-2.4-1.3-3.5-2.7c-1.1-1.4-2.4-2.8-2.6-5.2C73.8,62.5,74.9,60.3,74.9,60.3z"/>
			<g>
				<path class="st0" d="M95.7,74c-1.8-3.6-4.2-7.1-7.3-9.9c-1.6-1.4-3.4-2.7-5.4-3.5c-1.2-0.5-5.1-1.7-6.2-0.5
					c-0.1,0.2-0.2,0.4,0,0.6c0.1,0.1,0.2,0.1,0.4,0.2c1.7,0.5,3.5,0.6,5.2,1.3c1.7,0.7,3.2,1.8,4.6,3c1.4,1.2,2.6,2.6,3.6,4.1
					c0.3,0.4,2.5,4.4,2.8,4.4c-5.2,0.1-12.4,0-15.5-3.9c-0.8-1-2.5-0.1-1.8,1c3.4,5.4,13.1,4.8,18.8,4.7C95.6,75.3,96,74.6,95.7,74z
					"/>
			</g>
		</g>
		<g>
			<path class="st4" d="M38.6,58.8c-1.7,0.3-5.4,1-7.8,2.5c-2.5,1.5-5.1,5.5-6.2,7.2c-1.1,1.6-2.7,7.4-2.7,7.4s5.4-0.5,7.6-1.1
				s5.3-2,6.6-2.9c1.2-0.9,2.1-1.7,2.9-3.2c0.8-1.6,1.8-3.2,1.5-5.6S38.6,58.8,38.6,58.8z"/>
			<g>
				<path class="st0" d="M20.9,75.8c1-3.9,2.7-7.7,5.2-11c1.3-1.7,2.8-3.3,4.6-4.4c1.1-0.7,4.7-2.6,6-1.5c0.2,0.1,0.2,0.4,0.1,0.6
					c-0.1,0.1-0.2,0.2-0.3,0.2c-1.6,0.8-3.3,1.2-4.8,2.2c-1.5,1-2.8,2.3-3.9,3.7c-1.1,1.4-2,3-2.8,4.6c-0.2,0.5-1.6,4.7-1.8,4.8
					c5.1-0.8,12.2-2.1,14.5-6.5c0.6-1.1,2.4-0.5,2,0.6C37.3,75,27.6,76,22,77C21.2,77.1,20.7,76.4,20.9,75.8z"/>
			</g>
		</g>
	</g>
	<path class="st4" d="M22.1,104c0.3-1.8,0.3-8.6-0.9-12.4c-1.2-3.8-5.2-9.8-6.7-12.1s-4.9-5.8-4.9-5.8L8.3,79c0,0,1.2,2.2,2.3,4.1
		s2.7,6,4.4,9.4c1.7,3.4,3.6,8,3.6,8s-0.7,2-1.1,2.9c-0.4,0.9-3.1,6.7-4.3,12.2C12,121.1,11,121.8,9,147c-0.6,7.9,1.3,14.8,2.1,17.8
		c0.5,1.9,1.4,4.7,2,6.6l0,0.1c0.2,0.4,0.4,1,0.5,1.4c0.1,0.3,0.2,0.4,0.2,0.4s-3.7,10.9-4.5,13.3c-0.8,2.4-3.5,11.5-4.1,15.7
		S5,208.9,5,208.9s6.1,4.8,5.9,3.8c-0.2-1,3.4-18.6,4.9-23c1.5-4.4,3.8-19.3,2.9-23.2c-0.2-0.9-0.6-1.8-1-2.6
		c-1.6-4.6-2.6-17.4-2.2-22.5l0,0c0.3-3.5,1-4.8,1.4-9.2C17.5,126.3,22.1,104,22.1,104z"/>
	<path class="st4" d="M112.1,198.6c-1-4.4-3.4-12.7-4.9-15.4c-1.4-2.8-3.2-11.1-3.5-12c-0.3-0.8,0.9-3.2,0.8-4.3
		c-0.1-1.1,2.4-8.6,2.4-12.7c0-0.3,0-0.6-0.1-0.9c0.3-2.8,0.5-6,0.3-9.2c-1.5-24.2-2.9-23.9-4.1-29.2s-4-12-4.4-12.9
		c-0.4-0.9-1.8-4.1-1.8-4.1s0.8-2.5,2.5-5.8s3.3-7.3,4.4-9.1s2.3-4,2.3-4l-1.4-5.1c0,0-3.4,3.3-4.9,5.6c-1.5,2.3-5.4,8.1-6.7,11.8
		c-1.2,3.7-1.2,10.4-0.9,12.1c0,0,6.8,21,7.4,26.7c0.6,5.7,0.7,6.7,0.7,14.2c0,5.9,0,12.7,0,16.9c-0.9,7.7-2.9,14.8-2,20.7
		c1,6.3,6,15.6,6.7,20.1s1.9,9.8,1.9,9.8s1.4-1.9,2.9-2.8c1.6-0.9,3.1-1.5,3.1-1.5S113.1,203,112.1,198.6z"/>
	<g>
		<path class="st5" d="M61.8,67.5c2.4-0.6,4.7-1.1,7.1-1.6c5.8-2.7,9.8-10,8.3-15.8c-0.4,1.7-0.9,3.3-2.2,4.6
			c-1.5,1.4-3.2,2.5-5.2,3.4c-5,2.2-8.7,4.1-10.9,8.9c0.3,0.3,0.6,0.7,0.9,1C60.4,67.7,61.2,67.6,61.8,67.5z"/>
		<g>
			<path class="st0" d="M69.1,59.6c-2,1.6-5,2.4-6.1,4.8c-0.2,0.3,0.3,0.8,0.6,0.6c2.4-1.2,4.7-2.7,6.1-4.9
				C69.9,59.8,69.5,59.3,69.1,59.6L69.1,59.6z"/>
		</g>
		<g>
			<path class="st0" d="M58.7,67.2c2.2-5,6-6.9,11.1-9.2c2-0.9,3.7-1.9,5.2-3.4c1.3-1.2,1.8-2.9,2.2-4.6c1.8,6.7-3.8,15.4-11.1,16.7
				c-0.5,0.1-0.6,0.4-0.5,0.7c2.1-0.3,4.1-0.8,6.2-1.1c6.4-3.8,9.6-13.6,6.1-19.5c-0.4-0.7-1.5-0.8-1.8,0c-1.3,2.8-1.3,5.5-4,7.6
				c-2.3,1.8-5.4,2.6-8,4c-3.4,1.8-6.4,4.6-6.8,8.4C57.2,67.6,58.4,67.9,58.7,67.2z"/>
		</g>
	</g>
	<g>
		<path class="st5" d="M56.5,68.8c0.3-0.3,0.6-0.6,1-1c-1.9-4.9-5.4-7-10.3-9.5c-1.9-1-3.6-2.1-5-3.7c-1.2-1.3-1.6-3-1.9-4.7
			c-2,5.7,1.5,13.2,7.1,16.2c2.3,0.6,4.7,1.3,7,2C55,68.4,55.8,68.6,56.5,68.8z"/>
		<g>
			<path class="st0" d="M47.7,60c1.8,1.8,4.8,2.7,5.8,5.2c0.1,0.4-0.3,0.8-0.7,0.6c-2.3-1.3-4.5-2.9-5.7-5.2
				C46.8,60.2,47.3,59.6,47.7,60L47.7,60z"/>
		</g>
		<g>
			<path class="st0" d="M57.6,68.2c-1.9-5.2-5.5-7.3-10.4-9.8c-1.9-1-3.6-2.1-5-3.7c-1.2-1.3-1.6-3-1.9-4.7
				C38,56.7,43,65.6,50.2,67.4c0.5,0.1,0.6,0.5,0.4,0.8c-2.1-0.4-4.1-1.1-6.1-1.5c-6.2-4.2-8.6-14.1-4.8-19.8
				c0.4-0.6,1.5-0.7,1.8,0.1c1.1,2.9,0.9,5.6,3.5,7.8c2.2,1.9,5.2,2.9,7.7,4.4c3.3,2,6.1,5,6.2,8.8C59,68.7,57.8,68.9,57.6,68.2z"/>
		</g>
	</g>
	<g>
		<ellipse class="st5" cx="56.7" cy="82.2" rx="20.2" ry="16.2"/>
		<g>
			<g>
				<path class="st5" d="M57.1,89.8c-2.8,3.1-5.8,6-9,8.7c-0.2,0.2-0.4,0.4-0.7,0.6c-0.7,6.2,1.2,11.9,2.4,17.9
					c1.9,5,3.6,10.2,4.3,15.5c0.4,2.9-0.7,9.5-1.3,12.6c0.3-1.6,3.7-6.1,4.5-7.5c1-1.8,1.2-4.4,1.2-6.4c0-4.8-1.1-9.8-3-14.3
					c-0.2-0.4,0.4-0.6,0.6-0.3c1.9,2.8,3.2,5.9,3.8,9.1c1.2,3.5,2.1,7.1,3.7,10.4c2,4,4.7,6.8,8.1,9.4c-3.3-8.6-1.2-18.4-2.1-27.3
					C68.8,107.8,65,97.4,57.1,89.8z"/>
				<path class="st6" d="M54.2,142c0.2-4,0.5-12.9,1.1-16.9c0.4-2.6,1.6-5.5,0.5-8.1c0-0.1-0.1-0.4-0.2-0.9c0.4,0.8,0.7,1.6,1,2.2
					c1,2,2.5,4.1,2.8,6.4c0.3,1.7,0.5,3.2,0.6,4.7c0.5,7.1,5.3,12.7,12,17c1.1,0.7-0.8-10.2-1.9-10.9c-7.1-4.6-7.7-15.8-8.8-23
					c-1-7.1-2.9-14.5-9.5-18.8c-0.4-0.3-3,3.3-3,3.3c-0.9,0.6-1.9,1.7-2.2,2.7c-0.3,0.9-0.2,1.8-0.2,2.7c0.1,2.4,0.5,4.7,1,7
					c0.1,0.3,0.1,0.6,0.2,0.8c0.5,3.8,2.4,10.9,3.2,13.5c1.4,4.7,2.6,10.1,3,13.7C54,137.8,54.2,142.5,54.2,142z"/>
				<g>
					<path class="st0" d="M54.9,99c2.2,1.6,2.5,4.5,4.2,6.4c0.3,0.3,0.7,0,0.7-0.3c0-1.5-0.5-2.8-1.1-4.1c-0.7-1.5-1.8-2.3-3.5-2.6
						C54.9,98.4,54.6,98.8,54.9,99L54.9,99z"/>
				</g>
				<g>
					<path class="st0" d="M50.7,104.7c-0.2,2.2,0,5,1.9,6.5c0.3,0.2,0.8,0.1,0.8-0.4c-0.1-1.1-0.4-2.2-0.7-3.3c-0.2-1-0.6-2.1-1.2-3
						C51.4,104.2,50.7,104.3,50.7,104.7L50.7,104.7z"/>
				</g>
				<g>
					<path class="st0" d="M56.4,109.4c0.4,1.1,0.9,2.3,1.5,3.4c0.6,1.1,1,2.3,1.6,3.3c0.2,0.4,0.7,0.2,0.8-0.2
						c0.9-2.7-1.4-5.3-3.1-7.1C56.8,108.5,56.2,109,56.4,109.4L56.4,109.4z"/>
				</g>
				<g>
					<path class="st0" d="M64.2,113.7c0.4,1.2,0.8,2.3,1,3.7c0.1,1.2,0.3,2.4,0.6,3.6c0.1,0.4,0.7,0.3,0.8,0
						c0.3-1.5,0.6-2.7,0.3-4.2c-0.2-1.3-0.8-2.9-2.2-3.4C64.4,113.2,64.1,113.4,64.2,113.7L64.2,113.7z"/>
				</g>
				<g>
					<path class="st0" d="M62.8,123.5c0.3,2.1,0.6,4,1.6,5.9c0.2,0.4,0.7,0.1,0.7-0.2c0.1-2,0.3-4.6-1.6-5.9
						C63.2,123.1,62.8,123.2,62.8,123.5L62.8,123.5z"/>
				</g>
				<g>
					<path class="st0" d="M52.8,117c0.7,2.2,1.2,4.6,2.4,6.7c0.2,0.3,0.8,0.2,0.8-0.2c0.3-2.6-0.8-5.1-2.6-6.9
						C53.1,116.4,52.7,116.7,52.8,117L52.8,117z"/>
				</g>
				<g>
					<path class="st0" d="M46.8,97.9c-3.5,5.7-0.3,14.7,1,20.7c0.9,4.3,1,8.6-0.2,12.9c-0.8,2.6-2,5-2.7,7.6c-0.2,0.7,0.9,1,1.2,0.4
						c3.2-5.1,5-11.7,4.5-17.5c-0.6-8.1-4.3-15.6-3-23.8C47.7,97.7,47,97.5,46.8,97.9L46.8,97.9z"/>
				</g>
				<g>
					<path class="st0" d="M47.9,114c1.9,10.6,7,21.3,3.3,32.1c-0.2,0.5,0.7,0.9,1,0.5c2.9-3.8,2.5-9.6,1.9-14.1
						c-0.8-6.4-3.2-12.6-5.5-18.7C48.5,113.5,47.8,113.6,47.9,114L47.9,114z"/>
				</g>
				<g>
					<path class="st0" d="M55.6,117c1.9,4.5,3,9.5,3,14.3c0,5.7-4.1,10.3-7.2,14.6c-0.3,0.5,0.2,1.2,0.7,0.8
						c10.1-7.3,10.5-20.3,4.1-30C56,116.4,55.4,116.6,55.6,117L55.6,117z"/>
				</g>
				<g>
					<path class="st0" d="M58.3,123.3c1,9.3,4.4,21,14.6,24.4c0.5,0.2,1.1-0.5,0.6-0.9c-4.2-3-7.5-6-9.8-10.7
						c-2.1-4.2-2.9-8.7-4.6-13C58.9,122.8,58.3,122.9,58.3,123.3L58.3,123.3z"/>
				</g>
				<g>
					<path class="st0" d="M56.8,89.5c8.1,7.6,11.9,18.2,12.9,28.8c0.9,9.6-1.5,20.1,2.8,29.1c0.3,0.7,1.3,0.4,1.1-0.4
						c-1.5-5.4-1.9-10.7-1.6-16.3c0.2-5.1,0.5-10.2-0.2-15.3c-1.4-10.1-5.8-20.5-14.4-26.7C56.9,88.5,56.4,89.1,56.8,89.5L56.8,89.5
						z"/>
				</g>
			</g>
			<g>
				<path class="st5" d="M74.2,91c-1.9-4.6-4.8-8.3-7.9-12.2c-2.6,2.2-5.3,4.2-8.1,5.9c0.1,0.1,0.1,0.2,0.2,0.3
					c5.4,6.5,6.8,15.7,8,23.7c1.1,7.3,1.7,16.4,6.9,22.2c-1.8-8,2.7-17,3.3-24.9C77,101,76.2,95.8,74.2,91z"/>
				<g>
					<path class="st6" d="M57.2,84.8c5.6,6.2,5.7,11.6,7.4,19.9c1.6,7.5,3.3,23.7,9,27.4c0.8,0.5,1.3-7,0.7-7.6
						c-5.5-5.8-4.3-16.6-4.8-23.8c-0.5-6.6,0.1-15.8-6.1-20c-0.6-0.4-1.1,0.4-0.7,0.9L57.2,84.8z"/>
				</g>
				<g>
					<path class="st0" d="M70.7,92.1c0.6,2.2,0.2,4.8,1.2,6.8c0.2,0.4,0.8,0.2,0.9-0.1c0.8-2.3,0.2-5.3-1.6-7
						C71,91.6,70.6,91.8,70.7,92.1L70.7,92.1z"/>
				</g>
				<g>
					<path class="st0" d="M68.3,99.2c-0.4,2.7-0.7,5.5,1.3,7.7c0.3,0.3,0.8,0,0.7-0.4c-0.4-2.5-0.4-4.9-1.3-7.3
						C69,98.8,68.4,98.8,68.3,99.2L68.3,99.2z"/>
				</g>
				<g>
					<path class="st0" d="M71.8,109.8c-0.6,2.2-0.6,5.5-0.2,6.6c0.1,0.4,0.6,0.3,0.7,0c0.4-1.1,0.7-2.1,0.8-3.3
						c0.1-1.2-0.3-2.3-0.6-3.4C72.5,109.3,71.8,109.4,71.8,109.8L71.8,109.8z"/>
				</g>
				<g>
					<path class="st0" d="M57.2,84.8c2,4.2,4.1,8.1,5.3,12.6c1.3,5.2,1.7,10.5,2.4,15.8c1,6.7,2.1,17.6,9.5,20.7
						c0.7,0.3,1.5-0.6,0.8-1.1c-7-5.6-7.7-16-8.9-24.1c-1.2-8.3-2.6-17.9-8.6-24.4C57.5,84.1,57,84.5,57.2,84.8L57.2,84.8z"/>
				</g>
				<g>
					<path class="st0" d="M65.8,78.3c3.3,4.1,6.4,7.9,8.4,12.8c2,4.8,2.8,10,2.4,15.1c-0.7,8.7-6.1,18.7-2.5,27.4
						c0.3,0.6,1.4,0.6,1.3-0.2c-1.4-10.3,3.5-19.8,3.6-30c0.1-9.3-4.4-20.2-12.1-25.9C66.3,77,65.3,77.6,65.8,78.3L65.8,78.3z"/>
				</g>
			</g>
			<g>
				<path class="st5" d="M39.7,109.8c0.6,7.9,5.1,16.8,3.3,24.9c5.2-5.8,5.9-14.9,6.9-22.2c1.2-8,2.6-17.2,8-23.7
					c0.1-0.1,0.1-0.2,0.2-0.3c-2.9-1.8-5.6-3.7-8.1-5.9c-3.1,3.9-6,7.6-7.9,12.2C40.1,99.4,39.3,104.6,39.7,109.8z"/>
				<g>
					<path class="st6" d="M59.1,88.4c-5.6,6.2-5.7,11.6-7.4,19.9c-1.6,7.5-3.3,23.7-9,27.4c-0.8,0.5-1.3-7-0.7-7.6
						c5.5-5.8,4.3-16.6,4.8-23.8c0.5-6.6-0.1-15.8,6.1-20c0.6-0.4,1.1,0.4,0.7,0.9L59.1,88.4z"/>
				</g>
				<g>
					<path class="st0" d="M45.6,95.7c-0.6,2.2-0.2,4.8-1.2,6.8c-0.2,0.4-0.8,0.2-0.9-0.1c-0.8-2.3-0.2-5.3,1.6-7
						C45.3,95.2,45.7,95.4,45.6,95.7L45.6,95.7z"/>
				</g>
				<g>
					<path class="st0" d="M48,102.7c0.4,2.7,0.7,5.5-1.3,7.7c-0.3,0.3-0.8,0-0.7-0.4c0.4-2.5,0.4-4.9,1.3-7.3
						C47.3,102.4,47.9,102.4,48,102.7L48,102.7z"/>
				</g>
				<g>
					<path class="st0" d="M44.5,113.4c0.6,2.2,0.6,5.5,0.2,6.6c-0.1,0.4-0.6,0.3-0.7,0c-0.4-1.1-0.7-2.1-0.8-3.3
						c-0.1-1.2,0.3-2.3,0.6-3.4C43.8,112.9,44.5,112.9,44.5,113.4L44.5,113.4z"/>
				</g>
				<g>
					<path class="st0" d="M59.1,88.4c-2,4.2-4.1,8.1-5.3,12.6c-1.3,5.2-1.7,10.5-2.4,15.8c-1,6.7-2.1,17.6-9.5,20.7
						c-0.7,0.3-1.5-0.6-0.8-1.1c7-5.6,7.7-16,8.9-24.1c1.2-8.3,2.6-17.9,8.6-24.4C58.8,87.6,59.3,88.1,59.1,88.4L59.1,88.4z"/>
				</g>
				<g>
					<path class="st0" d="M50.5,81.8c-3.3,4.1-6.4,7.9-8.4,12.8c-2,4.8-2.8,10-2.4,15.1c0.7,8.7,6.1,18.7,2.5,27.4
						c-0.3,0.6-1.4,0.6-1.3-0.2c1.4-10.3-3.5-19.8-3.6-30c-0.1-9.3,4.4-20.2,12.1-25.9C50,80.5,51.1,81.2,50.5,81.8L50.5,81.8z"/>
				</g>
			</g>
			<g>
				<path class="st5" d="M60.6,76.7c-0.4,0.9-0.9,1.9-1.4,2.8c-0.1,0.1-0.1,0.2-0.2,0.3c4.7,1.8,9.1,5.2,12.5,9.3
					c9.1,8.2,9.4,23.2,19.4,30.7c-3.1-9.8-1.6-20.7-5.4-30.3c-3.6-9.2-15.1-14.1-24.7-12.8C60.6,76.7,60.6,76.7,60.6,76.7z"/>
				<g>
					<path class="st6" d="M91,118.6c-0.6-2-2.2-2.9-3.1-4.8c-1.5-2.9-2.3-7-3.1-10.1c-1.2-4.9-1.7-9.8-4-14.3
						c-3.6-6.9-12.1-13.1-20.1-13.4c-1.3,0-3.5,3-2.3,3.5c5.4,2.5,13,8.2,16,15.6c1.8,4.6,4.9,7,6.2,11.7
						c1.1,4.2,5.5,10.6,10.8,14.4C91.6,121.6,91.1,118.9,91,118.6L91,118.6z"/>
				</g>
				<g>
					<path class="st0" d="M65.8,80.3c0.9,0.5,1.7,1.2,2.6,1.7c1.1,0.6,2.2,1.1,3.2,1.8c0.5,0.3,1-0.1,0.7-0.6
						c-0.5-1.1-1.3-1.8-2.3-2.4c-1.2-0.7-2.6-0.8-3.8-1.3C65.7,79.4,65.4,80.1,65.8,80.3L65.8,80.3z"/>
				</g>
				<g>
					<path class="st0" d="M75.1,82.4c0.9,0.7,1.6,1.4,2.4,2.2c0.8,0.8,1.5,1.7,2.6,2.1c0.3,0.1,0.8-0.1,0.6-0.5
						c-0.9-1.9-3-4.2-5.3-4.4C75.1,81.7,74.8,82.1,75.1,82.4L75.1,82.4z"/>
				</g>
				<g>
					<path class="st0" d="M74.6,87.5c1.4,1.8,2.9,4.1,4.8,5.5c0.4,0.3,0.9,0,0.8-0.5C79.6,90,77.4,87.9,75,87
						C74.7,86.8,74.3,87.2,74.6,87.5L74.6,87.5z"/>
				</g>
				<g>
					<path class="st0" d="M82.4,96.3c0.7,0.9,1,2.3,1.3,3.3c0.3,1.1,0.5,2.3,0.9,3.3c0.1,0.3,0.6,0.4,0.8,0.1c0.6-1.1,0.4-2.8,0-3.9
						c-0.4-1.4-1.3-2.4-2.4-3.3C82.7,95.5,82.2,95.9,82.4,96.3L82.4,96.3z"/>
				</g>
				<g>
					<path class="st0" d="M84.7,105.8c0.1,0.5,0,1,0.1,1.4c0.1,0.6,0.2,1.1,0.3,1.7c0.3,1.2,0.6,2.2,1.4,3.1
						c0.2,0.3,0.8,0.2,0.7-0.2c-0.2-1-0.4-2-0.6-3c-0.1-0.6-0.3-1.2-0.5-1.8c-0.2-0.5-0.5-0.9-0.8-1.4
						C85.2,105.3,84.6,105.4,84.7,105.8L84.7,105.8z"/>
				</g>
				<g>
					<path class="st0" d="M92.4,121c-1.3-6.4-1.8-12.9-2.5-19.4c-0.5-5.1-1.1-10.7-3.7-15.2c-4.8-8.6-16.1-13.1-25.7-11.8
						c-1.4,0.2-1.2,2.3,0.1,2.1c9.6-1.3,21.1,3.6,24.7,12.8c4,10.1,2,21.6,5.9,31.9C91.5,122.1,92.5,121.7,92.4,121L92.4,121z"/>
				</g>
				<g>
					<path class="st0" d="M92,120.7c-11.9-7.6-11.1-25-22.5-33c-0.6-0.5-1.4,0.4-0.8,0.9c5.5,5.1,8,12,11.2,18.5
						c2.6,5.4,5.6,12,11.5,14.8C92.2,122.2,92.7,121.1,92,120.7L92,120.7z"/>
				</g>
			</g>
			<g>
				<path class="st5" d="M55.8,74.1c-9.6-1.3-21.1,3.6-24.7,12.8c-3.8,9.6-2.2,20.5-5.4,30.3c10-7.5,10.2-22.5,19.4-30.7
					c3.4-4.1,7.7-7.5,12.5-9.3c-0.1-0.1-0.1-0.2-0.2-0.3c-0.5-0.9-1-1.9-1.4-2.8C55.9,74.1,55.9,74.1,55.8,74.1z"/>
				<g>
					<path class="st6" d="M25.5,116c0.6-2,2.2-2.9,3.1-4.8c1.5-2.9,2.3-7,3.1-10.1c1.2-4.9,1.7-9.8,4-14.3
						c3.6-6.9,12.1-13.1,20.1-13.4c1.3,0,3.5,3,2.3,3.5c-5.4,2.5-13,8.2-16,15.6c-1.8,4.6-4.9,7-6.2,11.7
						c-1.1,4.2-5.5,10.6-10.8,14.4C24.9,119.1,25.4,116.4,25.5,116L25.5,116z"/>
				</g>
				<g>
					<path class="st0" d="M50.7,77.8c-0.9,0.5-1.7,1.2-2.6,1.7c-1.1,0.6-2.2,1.1-3.2,1.8c-0.5,0.3-1-0.1-0.7-0.6
						c0.5-1.1,1.3-1.8,2.3-2.4c1.2-0.7,2.6-0.8,3.8-1.3C50.8,76.9,51.1,77.5,50.7,77.8L50.7,77.8z"/>
				</g>
				<g>
					<path class="st0" d="M41.4,79.8c-0.9,0.7-1.6,1.4-2.4,2.2c-0.8,0.8-1.5,1.7-2.6,2.1c-0.3,0.1-0.8-0.1-0.6-0.5
						c0.9-1.9,3-4.2,5.3-4.4C41.5,79.2,41.8,79.6,41.4,79.8L41.4,79.8z"/>
				</g>
				<g>
					<path class="st0" d="M42,84.9c-1.4,1.8-2.9,4.1-4.8,5.5c-0.4,0.3-0.9,0-0.8-0.5c0.5-2.5,2.7-4.6,5.1-5.5
						C41.8,84.3,42.2,84.6,42,84.9L42,84.9z"/>
				</g>
				<g>
					<path class="st0" d="M34.1,93.7c-0.7,0.9-1,2.3-1.3,3.3c-0.3,1.1-0.5,2.3-0.9,3.3c-0.1,0.3-0.6,0.4-0.8,0.1
						c-0.6-1.1-0.4-2.8,0-3.9c0.4-1.4,1.3-2.4,2.4-3.3C33.8,93,34.4,93.3,34.1,93.7L34.1,93.7z"/>
				</g>
				<g>
					<path class="st0" d="M31.8,103.2c-0.1,0.5,0,1-0.1,1.4c-0.1,0.6-0.2,1.1-0.3,1.7c-0.3,1.2-0.6,2.2-1.4,3.1
						c-0.2,0.3-0.8,0.2-0.7-0.2c0.2-1,0.4-2,0.6-3c0.1-0.6,0.3-1.2,0.5-1.8c0.2-0.5,0.5-0.9,0.8-1.4
						C31.3,102.7,31.9,102.9,31.8,103.2L31.8,103.2z"/>
				</g>
				<g>
					<path class="st0" d="M24.1,118.5c1.3-6.4,1.8-12.9,2.5-19.4c0.5-5.1,1.1-10.7,3.7-15.2C35,75.3,46.3,70.8,56,72
						c1.4,0.2,1.2,2.3-0.1,2.1c-9.6-1.3-21.1,3.6-24.7,12.8c-4,10.1-2,21.6-5.9,31.9C25,119.5,24,119.2,24.1,118.5L24.1,118.5z"/>
				</g>
				<g>
					<path class="st0" d="M24.5,118.1c11.9-7.6,11.1-25,22.5-33c0.6-0.5,1.4,0.4,0.8,0.9c-5.5,5.1-8,12-11.2,18.5
						c-2.6,5.4-5.6,12-11.5,14.8C24.3,119.6,23.8,118.6,24.5,118.1L24.5,118.1z"/>
				</g>
			</g>
			<g>
				<path class="st5" d="M58,73.9c2.7,0.7,5.4,1.8,7.8,3.3c0.1,0,0.2,0,0.2,0.1c4.3,2.4,8.3,5.8,13.3,6.5c5.5,0.8,11.9-0.2,15.6-4.3
					c-5.5-0.3-10.4-2.4-15.1-5.4c-2.6-1.7-5.2-3.3-8.1-4.4c-2.3-0.8-4.5-1.1-6.9-1.5C64,68.1,63.1,68,62.2,68
					C61,70.1,59.6,72,58,73.9z"/>
				<g>
					<path class="st6" d="M95.3,78.4c-3.3,0.9-6.5,3.3-10.1,3.4c-3.8,0.1-7.2-2.2-10-4.4c-4-3.2-8.8-8.4-14.6-7.8
						c-1,0.1-5.7,5.1-4.7,5.1c6.9,0.3,11.4,4.1,16.7,7.6c2.4,1.6,9.4,2.8,12.3,2.9c3.9,0.2,8.1-2.6,10.3-5.2
						c0.3-0.3,0.4-0.8-0.1-0.8L95.3,78.4z"/>
				</g>
				<g>
					<path class="st0" d="M83.9,78.9c-2-0.7-4-1.6-6-2.5c-0.3-0.1-0.9,0.2-0.6,0.6c0.7,1,1.5,1.7,2.6,2.2c1.3,0.6,2.5,0.7,3.9,0.6
						C84.3,79.8,84.4,79.1,83.9,78.9L83.9,78.9z"/>
				</g>
				<g>
					<path class="st0" d="M74.4,78c-0.8-2-4.4-4.1-6.6-3.6c-0.4,0.1-0.5,0.6-0.1,0.9c1,0.6,2.1,1.1,3.1,1.7c1,0.6,1.9,1.3,3,1.5
						C74.2,78.6,74.6,78.3,74.4,78L74.4,78z"/>
				</g>
				<g>
					<path class="st0" d="M71.6,71.8C70,69.9,66.9,69.4,65,71c-0.3,0.2-0.1,0.7,0.3,0.7c1.9,0,4.1,0.1,5.9,0.8
						C71.6,72.6,71.8,72.1,71.6,71.8L71.6,71.8z"/>
				</g>
				<g>
					<path class="st0" d="M63,67.8c3,0.6,5.9,0.8,8.7,1.9c2.9,1.1,5.6,2.7,8.1,4.4c5.2,3.4,10.7,5.6,17,5.5c-0.3-0.5-0.6-1-0.8-1.5
						c-3.5,5.4-10.7,6.7-16.7,5.7c-5.1-0.8-9-4.1-13.3-6.5c-0.7-0.4-1.4,0.5-0.8,1c4.5,3.9,9.7,6.9,15.7,7.6
						c6.4,0.7,13.3-1.5,16.9-6.8c0.4-0.6-0.1-1.5-0.8-1.5c-7,0.1-12.2-2.8-17.9-6.3c-4.4-2.7-10.7-5.7-16-4.1
						C62.7,67.3,62.7,67.8,63,67.8L63,67.8z"/>
				</g>
			</g>
			<g>
				<path class="st5" d="M49.7,67.5c-0.9,0.2-1.8,0.4-2.7,0.5c-2.3,0.6-4.5,1.2-6.6,2.3c-2.7,1.4-5.2,3.3-7.6,5.2
					c-4.3,3.5-8.9,6.1-14.3,7c4.2,3.7,10.7,4,16,2.6c4.9-1.3,8.5-5.1,12.5-8c0.1,0,0.1-0.1,0.2-0.1c2.2-1.8,4.7-3.2,7.4-4.2
					C52.8,71.3,51.2,69.5,49.7,67.5z"/>
				<g>
					<path class="st6" d="M18.1,81.6c3.4,0.5,6.8,2.6,10.5,2.2c3.8-0.4,6.9-2.9,9.4-5.5c3.6-3.7,7.7-9.3,13.6-9.4
						c1,0,6.3,4.4,5.2,4.6c-6.8,1.1-10.8,5.4-15.7,9.4c-2.2,1.8-9,3.8-11.9,4.3c-3.8,0.6-8.3-1.7-10.8-4c-0.3-0.3-0.5-0.7,0-0.8
						L18.1,81.6z"/>
				</g>
				<g>
					<path class="st0" d="M29.4,80.8c1.9-0.9,3.8-2.1,5.7-3.1c0.3-0.2,0.9,0.1,0.7,0.5c-0.5,1-1.3,1.9-2.3,2.5
						c-1.2,0.8-2.4,0.9-3.8,1C29.1,81.7,28.9,81.1,29.4,80.8L29.4,80.8z"/>
				</g>
				<g>
					<path class="st0" d="M38.7,78.9c0.5-2.1,3.8-4.6,6.1-4.3c0.4,0.1,0.6,0.6,0.2,0.8c-0.9,0.7-1.9,1.4-2.9,2.1
						c-0.9,0.7-1.7,1.5-2.8,1.9C39.1,79.5,38.6,79.2,38.7,78.9L38.7,78.9z"/>
				</g>
				<g>
					<path class="st0" d="M40.8,72.4c1.3-2,4.3-2.9,6.4-1.5c0.3,0.2,0.1,0.6-0.2,0.7c-1.9,0.2-4.1,0.5-5.8,1.4
						C40.9,73.2,40.7,72.7,40.8,72.4L40.8,72.4z"/>
				</g>
				<g>
					<path class="st0" d="M48.9,67.5c-2.9,0.9-5.7,1.5-8.4,2.8c-2.7,1.4-5.2,3.3-7.6,5.2c-4.8,3.9-10,6.7-16.3,7.3
						c0.2-0.5,0.4-1,0.7-1.6c4.1,4.9,11.4,5.5,17.3,3.9c4.9-1.3,8.5-5.1,12.5-8c0.6-0.4,1.5,0.4,1,0.9c-4,4.4-8.8,8-14.8,9.3
						c-6.2,1.4-13.4,0-17.6-4.9c-0.5-0.6-0.1-1.5,0.7-1.6c6.9-0.7,11.8-4.2,17.1-8.2c4.1-3.1,9.9-6.8,15.4-5.9
						C49.1,66.9,49.2,67.4,48.9,67.5L48.9,67.5z"/>
				</g>
			</g>
		</g>
	</g>
	<g>
		<path class="st10" d="M74.9,59.5c0.5,0.6,1.2,1,1.8,1.6l0,0c2.7-1.7,5.3-3.3,7.9-5c-3.5,0.6-7,1.1-10.5,1.6
			C74.3,58.4,74.5,59,74.9,59.5z"/>
		<path class="st10" d="M71.2,64.3C71.3,64.3,71.3,64.4,71.2,64.3c1.6-0.9,3.1-1.8,4.5-2.7c-1.5-0.4-2.8-2.1-2.5-3.8
			c-1.8,0.3-3.6,0.5-5.4,0.8c0,1.1,0.1,2.2,0.7,3.2C69.2,63.1,70,63.8,71.2,64.3z"/>
		<path class="st10" d="M64.9,68.2c1.8-1,3.6-2.1,5.3-3.1c-2.3-0.4-4-3.8-3.3-6.3c-0.2,0-0.3,0-0.5,0.1c-0.8,0.1-1.7,0.2-2.5,0.4
			c-0.9,0.3-1.8,0.5-2.7,0.4C60.9,63.3,62.3,66,64.9,68.2z"/>
		<path class="st10" d="M58.7,71.6c0.5,0.4,2.8-1.1,2.8-1.3c0-0.1,0-0.2,0-0.2c0.8-0.5,1.6-0.9,2.5-1.4c-1-0.4-1.9-1.2-2.5-2.2
			c-0.1-1.8-0.3-3.8-1.3-5.2c0-0.6,0.1-1.1,0.3-1.6c-0.6,0.1-1.2,0.2-1.7,0.3c-0.7-0.4-1.6-0.7-2.7-0.8c-0.3,1-0.4,4.1-0.4,5.2
			c-0.1,2.9,1.1,5.3,2.8,7.3C58.4,71.7,58.6,71.7,58.7,71.6z"/>
		<g>
			<path class="st9" d="M84.8,55.5c-9.9,2.5-19,2.6-29,4.4c-0.9,0.2-1.6,4.4-0.8,4.1c9.8-2.6,20.3-4.4,29.9-7.9
				C85.3,55.9,85.1,55.4,84.8,55.5L84.8,55.5z"/>
		</g>
		<g>
			<g>
				<path class="st11" d="M86.3,55.1c-7.6,0.7-15.2,1.8-22.7,2.9c-1.9,0.3-3.7,0.6-5.6,0.9c-0.8,0.1-1.9,0.2-2.6,0.7
					c-1.3,1-1.3,5.3-1.2,6.6c0.3,2.7,1.7,5.1,3.5,6.9c0.2,0.2,0.5,0.2,0.8,0.1c9.6-5.3,18.8-11.6,28.1-17.4c0.4-0.3,0.1-1-0.4-0.7
					C76.9,61,67.5,66.9,57.8,72.1c0.3,0,0.5,0,0.8,0.1c-1.9-2.1-3.2-4.6-3.1-7.6c0-1.3,0.3-2.7,0.7-4c0,0.1-0.4,0.2,0.3,0
					c3.3-0.8,6.6-1.2,9.9-1.7c6.6-1,13.2-1.9,19.9-3C86.7,55.7,86.8,55.1,86.3,55.1L86.3,55.1z"/>
			</g>
			<g>
				<path class="st11" d="M73.5,57c-1.2,2.1,0.9,4.7,2.9,4.7c0.3,0,0.5-0.5,0.3-0.7c-0.5-0.6-1.2-1-1.8-1.6
					c-0.6-0.7-0.7-1.6-0.9-2.5C74,56.8,73.7,56.8,73.5,57L73.5,57z"/>
			</g>
			<g>
				<path class="st11" d="M67.3,57.9c-1.8,2.7,0.7,7.6,3.7,7.2c0.3,0,0.5-0.6,0.2-0.7c-1.2-0.6-2.1-1.2-2.7-2.5
					c-0.6-1.2-0.7-2.5-0.7-3.9C67.9,57.7,67.5,57.6,67.3,57.9L67.3,57.9z"/>
			</g>
			<g>
				<path class="st11" d="M60.8,58.8c-2.1,3.5,0.1,9.6,3.8,10.2c0.3,0,0.6-0.4,0.4-0.6c-2.8-2.4-4.3-5.2-3.6-9.3
					C61.4,58.6,61,58.4,60.8,58.8L60.8,58.8z"/>
			</g>
		</g>
	</g>
	<g>
		<g>
			<path class="st8" d="M85.2,121.1c-0.5,2.2-1.5,4.2-2.2,6.4c-0.5,1.8-1.1,3.6-1.7,5.3c-0.3,0.7-1.2,0.6-1.2-0.3
				c0.1-4.2,1.1-9.8,4.4-12.1C84.9,120.1,85.3,120.7,85.2,121.1L85.2,121.1z"/>
		</g>
		<g>
			<path class="st8" d="M89.2,135c1,3.4,1.1,8.3-0.9,11.2c-0.4,0.6-1.4,0.6-1.5-0.3c-0.4-3.7,1.1-7.2,1-10.8
				C87.8,134.1,89,134.2,89.2,135L89.2,135z"/>
		</g>
		<g>
			<path class="st8" d="M86.4,174.2c1,3.4,1.1,8.3-0.9,11.2c-0.4,0.6-1.4,0.6-1.5-0.3c-0.4-3.7,1.1-7.2,1-10.8
				C85,173.3,86.2,173.5,86.4,174.2L86.4,174.2z"/>
		</g>
		<g>
			<path class="st8" d="M97.3,121.1c1.3,4.1,1.8,8.5,0.7,12.7c-0.3,1-1.6,0.9-1.7-0.1c-0.7-4-0.7-8.3-0.1-12.3
				C96.3,120.8,97.1,120.4,97.3,121.1L97.3,121.1z"/>
		</g>
		<g>
			<path class="st8" d="M93.8,146.7c0.4,4.1,0.9,9.4-0.9,13.2c-0.4,0.8-1.3,0.4-1.5-0.3c-0.9-4,0.5-9,1.2-12.9
				C92.8,145.9,93.8,146,93.8,146.7L93.8,146.7z"/>
		</g>
		<g>
			<path class="st8" d="M88.7,159c-1,2.2-1.5,4.5-2.1,6.9c-0.5,2.2-0.8,4.6-1.8,6.6c-0.4,0.7-1.3,0.3-1.4-0.4
				c-0.8-4.7,1.3-10.9,4.5-13.8C88.3,158,88.9,158.5,88.7,159L88.7,159z"/>
		</g>
		<g>
			<path class="st8" d="M81.1,147.2c-0.2,1.7-0.6,3.4-1,5.1c-0.2,0.8-0.4,1.6-0.7,2.4c-0.3,1-0.8,1.8-1.2,2.7
				c-0.3,0.8-1.6,0.7-1.5-0.3c0.2-1,0.1-2,0.3-2.9c0.1-1,0.4-1.9,0.6-2.8c0.5-1.7,1.3-3.5,2.6-4.6C80.5,146.4,81.2,146.6,81.1,147.2
				L81.1,147.2z"/>
		</g>
		<g>
			<path class="st8" d="M99.7,154.4c-0.1,1.7,0.1,3.5,0.3,5.2c0.1,0.8,0.2,1.7,0.3,2.5c0.2,1,0.6,1.9,0.8,2.9c0.2,0.9,1.5,1,1.5-0.1
				c0-1,0.2-2,0.2-3c0-1-0.1-2-0.2-2.9c-0.2-1.8-0.8-3.7-1.9-5.1C100.4,153.7,99.7,153.8,99.7,154.4L99.7,154.4z"/>
		</g>
		<g>
			<path class="st8" d="M96.5,140c-0.1,1.7,0.1,3.5,0.3,5.2c0.1,0.8,0.2,1.7,0.3,2.5c0.2,1,0.6,1.9,0.8,2.9c0.2,0.9,1.5,1,1.5-0.1
				c0-1,0.2-2,0.2-3c0-1-0.1-2-0.2-2.9c-0.2-1.8-0.8-3.7-1.9-5.1C97.2,139.2,96.5,139.3,96.5,140L96.5,140z"/>
		</g>
		<g>
			<path class="st8" d="M86.5,129.9c-0.5,2.2-1.5,4.2-2.2,6.4c-0.5,1.8-1.1,3.6-1.7,5.3c-0.3,0.7-1.2,0.6-1.2-0.3
				c0.1-4.2,1.1-9.8,4.4-12.1C86.1,128.9,86.6,129.5,86.5,129.9L86.5,129.9z"/>
		</g>
		<g>
			<path class="st8" d="M97.7,171.2c-0.1,2.2,0.3,4.6,0.4,6.8c0,1.9,0.1,3.8,0.3,5.7c0.1,0.8,1,1,1.2,0.2c1-4,1.5-9.7-1-13.1
				C98.3,170.3,97.7,170.7,97.7,171.2L97.7,171.2z"/>
		</g>
		<g>
			<path class="st8" d="M86.7,146.7c1,3.4,1.1,8.3-0.9,11.2c-0.4,0.6-1.4,0.6-1.5-0.3c-0.4-3.7,1.1-7.2,1-10.8
				C85.3,145.8,86.5,146,86.7,146.7L86.7,146.7z"/>
		</g>
		<g>
			<path class="st8" d="M93.8,130.3c1.3,4.1,1.8,8.5,0.7,12.7c-0.3,1-1.6,0.9-1.7-0.1c-0.7-4-0.7-8.3-0.1-12.3
				C92.8,130,93.6,129.6,93.8,130.3L93.8,130.3z"/>
		</g>
		<g>
			<path class="st8" d="M97.2,157.5c0.4,4.1,0.9,9.4-0.9,13.2c-0.4,0.8-1.3,0.4-1.5-0.3c-0.9-4,0.5-9,1.2-12.9
				C96.2,156.7,97.1,156.8,97.2,157.5L97.2,157.5z"/>
		</g>
		<g>
			<path class="st8" d="M90.8,164.1c-0.3,2.5-0.2,4.9-0.2,7.3c0.1,2.3,0.5,4.7,0,6.9c-0.2,0.8-1.1,0.8-1.4,0.1
				c-2-4.2-1.7-10.8,0.7-14.7C90.2,163.3,90.9,163.5,90.8,164.1L90.8,164.1z"/>
		</g>
		<g>
			<path class="st8" d="M82.3,157c-0.2,1.7-0.6,3.4-1,5.1c-0.2,0.8-0.4,1.6-0.7,2.4c-0.3,1-0.8,1.8-1.2,2.7
				c-0.3,0.8-1.6,0.7-1.5-0.3c0.2-1,0.1-2,0.3-2.9c0.1-1,0.4-1.9,0.6-2.8c0.5-1.7,1.3-3.5,2.6-4.6C81.7,156.2,82.4,156.4,82.3,157
				L82.3,157z"/>
		</g>
		<g>
			<path class="st8" d="M92.2,171.5c-0.1,1.7-0.1,3.5,0.1,5.2c0.1,0.9,0.1,1.7,0.2,2.5c0.1,1,0.5,2,0.7,3c0.2,0.9,1.5,1.1,1.5,0
				c0-1,0.3-1.9,0.3-2.9c0-1,0-2-0.1-2.9c-0.1-1.8-0.6-3.8-1.6-5.2C92.9,170.8,92.2,170.8,92.2,171.5L92.2,171.5z"/>
		</g>
	</g>
	<g>
		<g>
			<path class="st8" d="M30.2,119.4c0.7,2,2,3.9,2.9,5.8c0.7,1.6,1.4,3.3,2.3,4.9c0.4,0.7,1.4,0.4,1.3-0.4c-0.5-3.9-2-9.2-5.7-11.1
				C30.4,118.4,30,119,30.2,119.4L30.2,119.4z"/>
		</g>
		<g>
			<path class="st8" d="M27.1,133c-0.8,3.4-0.5,8,2,10.6c0.5,0.5,1.5,0.4,1.5-0.5c0.1-3.5-1.8-6.7-2-10.2
				C28.5,132,27.3,132.3,27.1,133L27.1,133z"/>
		</g>
		<g>
			<path class="st8" d="M33.6,170.2c-0.8,3.4-0.5,8,2,10.6c0.5,0.5,1.5,0.4,1.5-0.5c0.1-3.5-1.8-6.7-2-10.2
				C35,169.2,33.7,169.4,33.6,170.2L33.6,170.2z"/>
		</g>
		<g>
			<path class="st8" d="M17.3,120.7c-1.1,4-1.2,8.3,0.3,12.2c0.4,0.9,1.7,0.7,1.8-0.3c0.4-3.9,0-8-1-11.7
				C18.3,120.3,17.5,120,17.3,120.7L17.3,120.7z"/>
		</g>
		<g>
			<path class="st8" d="M23.3,144.7c-0.1,4-0.1,9.1,2.2,12.5c0.5,0.7,1.4,0.3,1.5-0.5c0.5-3.9-1.3-8.5-2.5-12.2
				C24.3,143.9,23.3,144.1,23.3,144.7L23.3,144.7z"/>
		</g>
		<g>
			<path class="st8" d="M29.8,155.9c1.2,2,2,4.2,2.8,6.4c0.8,2,1.2,4.3,2.5,6.1c0.5,0.6,1.4,0.2,1.5-0.5c0.4-4.6-2.3-10.2-6-12.7
				C30.2,154.9,29.5,155.4,29.8,155.9L29.8,155.9z"/>
		</g>
		<g>
			<path class="st8" d="M36.8,143.9c0.3,1.6,0.9,3.2,1.6,4.7c0.3,0.7,0.6,1.5,0.9,2.2c0.4,0.9,1.1,1.6,1.5,2.5
				c0.4,0.7,1.8,0.5,1.5-0.5c-0.2-0.9-0.3-1.9-0.5-2.8c-0.2-0.9-0.6-1.8-0.9-2.6c-0.6-1.6-1.7-3.2-3.1-4.2
				C37.3,143,36.7,143.3,36.8,143.9L36.8,143.9z"/>
		</g>
		<g>
			<path class="st8" d="M17.8,152.7c0.2,1.6,0.2,3.3,0.1,5c0,0.8-0.1,1.6-0.1,2.4c-0.1,1-0.4,1.9-0.6,2.9c-0.1,0.8-1.5,1.1-1.6,0.1
				c-0.1-0.9-0.4-1.8-0.4-2.8c-0.1-0.9,0-1.9,0-2.8c0.1-1.7,0.5-3.6,1.5-5C17,152.1,17.7,152.1,17.8,152.7L17.8,152.7z"/>
		</g>
		<g>
			<path class="st8" d="M19.9,138.6c0.2,1.6,0.2,3.3,0.1,5c0,0.8-0.1,1.6-0.1,2.4c-0.1,1-0.4,1.9-0.6,2.9c-0.1,0.8-1.5,1.1-1.6,0.1
				c-0.1-0.9-0.4-1.8-0.4-2.8c-0.1-0.9,0-1.9,0-2.8c0.1-1.7,0.5-3.6,1.5-5C19.1,138,19.8,138,19.9,138.6L19.9,138.6z"/>
		</g>
		<g>
			<path class="st8" d="M29.6,127.9c0.7,2,2,3.9,2.9,5.8c0.7,1.6,1.4,3.3,2.3,4.9c0.4,0.7,1.4,0.4,1.3-0.4c-0.5-3.9-2-9.2-5.7-11.1
				C29.9,126.9,29.5,127.5,29.6,127.9L29.6,127.9z"/>
		</g>
		<g>
			<path class="st8" d="M21.4,168.5c0.3,2.1,0,4.4,0.2,6.5c0.1,1.8,0.3,3.6,0.2,5.4c0,0.8-1,1.1-1.3,0.3c-1.4-3.7-2.5-9.1-0.1-12.6
				C20.7,167.7,21.3,168,21.4,168.5L21.4,168.5z"/>
		</g>
		<g>
			<path class="st8" d="M30.8,144c-0.8,3.4-0.5,8,2,10.6c0.5,0.5,1.5,0.4,1.5-0.5c0.1-3.5-1.8-6.7-2-10.2
				C32.3,143,31,143.2,30.8,144L30.8,144z"/>
		</g>
		<g>
			<path class="st8" d="M21.9,129.1c-1.1,4-1.2,8.3,0.3,12.2c0.4,0.9,1.7,0.7,1.8-0.3c0.4-3.9,0-8-1-11.7
				C22.9,128.7,22,128.4,21.9,129.1L21.9,129.1z"/>
		</g>
		<g>
			<path class="st8" d="M20.7,155.4c-0.1,4-0.1,9.1,2.2,12.5c0.5,0.7,1.4,0.3,1.5-0.5c0.5-3.9-1.3-8.5-2.5-12.2
				C21.7,154.5,20.7,154.7,20.7,155.4L20.7,155.4z"/>
		</g>
		<g>
			<path class="st8" d="M28,161c0.6,2.3,0.7,4.6,0.8,7c0.1,2.2-0.1,4.5,0.6,6.6c0.3,0.8,1.3,0.6,1.5,0c1.8-4.2,0.8-10.5-2-14
				C28.6,160.1,27.9,160.4,28,161L28,161z"/>
		</g>
		<g>
			<path class="st8" d="M36.4,153.3c0.3,1.6,0.9,3.2,1.6,4.7c0.3,0.7,0.6,1.5,0.9,2.2c0.4,0.9,1.1,1.6,1.5,2.5
				c0.4,0.7,1.8,0.5,1.5-0.5c-0.2-0.9-0.3-1.9-0.5-2.8c-0.2-0.9-0.6-1.8-0.9-2.6c-0.6-1.6-1.7-3.2-3.1-4.2
				C37,152.4,36.3,152.7,36.4,153.3L36.4,153.3z"/>
		</g>
		<g>
			<path class="st8" d="M27.3,168.1c0.3,1.6,0.4,3.3,0.4,5c0,0.8,0,1.6,0,2.4c0,1-0.3,1.9-0.5,2.9c-0.1,0.8-1.4,1.2-1.6,0.2
				c-0.1-0.9-0.5-1.8-0.6-2.8c-0.1-0.9-0.1-1.9-0.2-2.8c0-1.7,0.3-3.7,1.3-5.1C26.4,167.6,27.1,167.5,27.3,168.1L27.3,168.1z"/>
		</g>
	</g>
</g>
</svg>
