<svg xmlns="http://www.w3.org/2000/svg" viewBox="0 0 204.35 419.1"><defs><style>.cls-1{opacity:0.5;}.cls-2,.cls-5{fill:#f5e8d5;}.cls-2,.cls-3{fill-rule:evenodd;}.cls-3,.cls-4{fill:#685b40;}</style></defs><title>Camioneta_8</title><g id="Capa_2" data-name="Capa 2"><g id="Capa_1-2" data-name="Capa 1"><g class="cls-1"><path class="cls-2" d="M271.52,279.42l68.43.51c.29-38.55-30.12-70-67.91-70.32Z" transform="translate(-135.6 -0.5)"/><path class="cls-3" d="M271.52,279.42l56.69.42c.24-31.78-25.1-58-56.25-58.25Z" transform="translate(-135.6 -0.5)"/><path class="cls-2" d="M271.52,279.42l36.26.27c.15-20.32-16.07-37.11-36-37.26Z" transform="translate(-135.6 -0.5)"/><path class="cls-3" d="M271.52,279.42l32.17.24c.14-18.23-14.05-32.93-31.93-33.06Z" transform="translate(-135.6 -0.5)"/><path class="cls-2" d="M271.52,279.42l11.74.09a11.67,11.67,0,0,0-11.65-12.07Z" transform="translate(-135.6 -0.5)"/><rect class="cls-4" x="300.34" y="264.03" width="5.21" height="26.04" transform="translate(-111.97 577.42) rotate(-89.57)"/><polygon class="cls-3" points="180.02 254.77 177.5 250.59 154.93 263.44 157.45 268.15 180.02 254.77"/><polygon class="cls-3" points="162.25 240.57 158.19 237.42 143.21 259.19 147.27 262.34 162.25 240.57"/><rect class="cls-4" x="261" y="248.5" width="26.57" height="5.11" transform="translate(-114.42 522.96) rotate(-89.57)"/><rect class="cls-4" x="270.57" y="280.37" width="69.81" height="68.43" transform="translate(-146.99 617.2) rotate(-89.57)"/><rect class="cls-5" x="242.23" y="308.5" width="69.81" height="11.74" transform="translate(-174.91 588.65) rotate(-89.57)"/><rect class="cls-5" x="298.75" y="340.93" width="13.02" height="4.09" transform="translate(-175.59 645.17) rotate(-89.57)"/><rect class="cls-5" x="298.63" y="321.92" width="13.55" height="4.09" transform="translate(-156.44 626.44) rotate(-89.57)"/><rect class="cls-5" x="298.77" y="303.16" width="13.54" height="4.09" transform="translate(-137.54 607.96) rotate(-89.57)"/><rect class="cls-5" x="299.18" y="284.15" width="13.02" height="4.09" transform="translate(-118.39 589.23) rotate(-89.57)"/><rect class="cls-5" x="298.91" y="308.92" width="69.81" height="11.75" transform="translate(-119.07 645.75) rotate(-89.57)"/><rect class="cls-4" x="135.27" y="139.72" width="69.81" height="68.43" transform="translate(-140.63 342.31) rotate(-89.57)"/><rect class="cls-5" x="106.92" y="167.85" width="69.81" height="11.74" transform="translate(-168.55 313.75) rotate(-89.57)"/><rect class="cls-5" x="163.45" y="200.28" width="13.02" height="4.09" transform="translate(-169.24 370.27) rotate(-89.57)"/><rect class="cls-5" x="163.33" y="181.27" width="13.55" height="4.09" transform="translate(-150.08 351.54) rotate(-89.57)"/><rect class="cls-5" x="163.46" y="163.31" width="13.55" height="4.09" transform="translate(-131.99 333.85) rotate(-89.57)"/><rect class="cls-5" x="163.6" y="145.35" width="13.55" height="4.09" transform="translate(-113.9 316.16) rotate(-89.57)"/><rect class="cls-5" x="163.61" y="168.27" width="69.81" height="11.75" transform="translate(-112.71 370.86) rotate(-89.57)"/><rect class="cls-4" x="135.79" y="70.58" width="69.81" height="68.43" transform="translate(-70.98 274.2) rotate(-89.57)"/><rect class="cls-5" x="107.44" y="98.71" width="69.81" height="11.74" transform="translate(-98.9 245.65) rotate(-89.57)"/><rect class="cls-5" x="163.97" y="131.14" width="13.02" height="4.09" transform="translate(-99.58 302.17) rotate(-89.57)"/><rect class="cls-5" x="163.85" y="112.13" width="13.55" height="4.09" transform="translate(-80.43 283.44) rotate(-89.57)"/><rect class="cls-5" x="163.98" y="94.17" width="13.55" height="4.09" transform="translate(-62.34 265.75) rotate(-89.57)"/><rect class="cls-5" x="164.12" y="76.21" width="13.55" height="4.09" transform="translate(-44.25 248.06) rotate(-89.57)"/><rect class="cls-5" x="164.13" y="99.13" width="69.81" height="11.75" transform="translate(-43.06 302.75) rotate(-89.57)"/><rect class="cls-4" x="136.3" y="1.44" width="69.81" height="68.43" transform="translate(-1.33 206.1) rotate(-89.57)"/><rect class="cls-5" x="107.96" y="29.57" width="69.81" height="11.74" transform="translate(-29.25 177.54) rotate(-89.57)"/><rect class="cls-5" x="164.48" y="62" width="13.02" height="4.09" transform="translate(-29.93 234.06) rotate(-89.57)"/><rect class="cls-5" x="164.36" y="42.99" width="13.55" height="4.09" transform="translate(-10.78 215.33) rotate(-89.57)"/><rect class="cls-5" x="164.5" y="25.03" width="13.55" height="4.09" transform="translate(7.31 197.64) rotate(-89.57)"/><rect class="cls-5" x="164.63" y="7.07" width="13.55" height="4.09" transform="translate(25.4 179.96) rotate(-89.57)"/><rect class="cls-5" x="164.65" y="29.99" width="69.81" height="11.75" transform="translate(26.59 234.65) rotate(-89.57)"/><rect class="cls-4" x="269.94" y="350.22" width="69.81" height="68.43" transform="translate(-217.47 685.9) rotate(-89.57)"/><rect class="cls-5" x="241.6" y="378.36" width="69.81" height="11.74" transform="translate(-245.39 657.35) rotate(-89.57)"/><rect class="cls-5" x="298.12" y="410.79" width="13.02" height="4.09" transform="translate(-246.07 713.87) rotate(-89.57)"/><rect class="cls-5" x="298" y="391.77" width="13.55" height="4.09" transform="translate(-226.92 695.14) rotate(-89.57)"/><rect class="cls-5" x="298.14" y="373.82" width="13.55" height="4.09" transform="translate(-208.83 677.45) rotate(-89.57)"/><rect class="cls-5" x="298.27" y="355.86" width="13.55" height="4.09" transform="translate(-190.73 659.76) rotate(-89.57)"/><rect class="cls-5" x="298.28" y="378.78" width="69.81" height="11.75" transform="translate(-189.55 714.46) rotate(-89.57)"/><rect class="cls-4" x="202.66" y="210.05" width="69.81" height="68.44" transform="translate(-144.08 479.5) rotate(-89.57)"/><rect class="cls-5" x="231.79" y="181.14" width="11.98" height="68.44" transform="translate(-114.95 451.02) rotate(-89.57)"/><rect class="cls-5" x="244.67" y="237.7" width="4.17" height="13.28" transform="translate(-135.02 488.76) rotate(-89.57)"/><rect class="cls-5" x="226.61" y="237.56" width="4.17" height="13.28" transform="translate(-152.81 470.56) rotate(-89.57)"/><rect class="cls-5" x="208.55" y="237.43" width="4.17" height="13.28" transform="translate(-170.6 452.37) rotate(-89.57)"/><rect class="cls-5" x="263.31" y="238.09" width="4.17" height="12.77" transform="translate(-116.66 507.54) rotate(-89.57)"/><rect class="cls-5" x="231.36" y="238.96" width="11.98" height="68.44" transform="translate(-173.2 507.98) rotate(-89.57)"/><path class="cls-2" d="M204,209.08l-68.44-.51c-.29,38.55,30.12,70,67.91,70.32Z" transform="translate(-135.6 -0.5)"/><path class="cls-3" d="M204,209.08l-56.69-.42c-.24,31.78,25.1,58,56.26,58.25Z" transform="translate(-135.6 -0.5)"/><path class="cls-2" d="M204,209.08l-36.26-.27c-.15,20.32,16.07,37.11,36,37.26Z" transform="translate(-135.6 -0.5)"/><path class="cls-3" d="M204,209.08l-32.18-.24c-.14,18.23,14.06,32.93,31.93,33.06Z" transform="translate(-135.6 -0.5)"/><path class="cls-2" d="M204,209.08,192.29,209A11.68,11.68,0,0,0,204,221.06Z" transform="translate(-135.6 -0.5)"/><rect class="cls-4" x="170.01" y="198.42" width="5.21" height="26.05" transform="translate(-175.72 381.98) rotate(-89.57)"/><polygon class="cls-3" points="24.33 232.74 26.86 236.93 49.43 224.07 46.91 219.36 24.33 232.74"/><polygon class="cls-3" points="42.1 246.94 46.17 250.09 61.14 228.32 57.08 225.17 42.1 246.94"/><rect class="cls-4" x="187.99" y="234.9" width="26.57" height="5.11" transform="translate(-173.28 436.45) rotate(-89.57)"/></g></g></g></svg>