<svg xmlns="http://www.w3.org/2000/svg" viewBox="0 0 204 418.2"><defs><style>.cls-1,.cls-4{fill:#f5e8d5;}.cls-1,.cls-2{fill-rule:evenodd;}.cls-2,.cls-3{fill:#685b40;}</style></defs><title>Camioneta_1_on</title><g id="Capa_2" data-name="Capa 2"><g id="Capa_1-2" data-name="Capa 1"><path class="cls-1" d="M217.11,279.17l68.31.51c.29-38.47-30.07-69.88-67.8-70.17Z" transform="translate(-81.42 -0.85)"/><path class="cls-2" d="M217.11,279.17l56.59.43c.24-31.71-25.06-57.89-56.16-58.12Z" transform="translate(-81.42 -0.85)"/><path class="cls-1" d="M217.11,279.17l36.2.27c.15-20.27-16-37-35.92-37.18Z" transform="translate(-81.42 -0.85)"/><path class="cls-2" d="M217.11,279.17l32.12.24c.14-18.19-14-32.86-31.87-33Z" transform="translate(-81.42 -0.85)"/><path class="cls-1" d="M217.11,279.17l11.72.09a11.65,11.65,0,0,0-11.63-12Z" transform="translate(-81.42 -0.85)"/><rect class="cls-3" x="245.88" y="263.81" width="5.2" height="26" transform="translate(-111.59 522.38) rotate(-89.57)"/><polygon class="cls-2" points="179.71 254.22 177.19 250.05 154.66 262.88 157.18 267.57 179.71 254.22"/><polygon class="cls-2" points="161.97 240.06 157.92 236.91 142.97 258.63 147.02 261.78 161.97 240.06"/><rect class="cls-3" x="206.61" y="248.31" width="26.51" height="5.1" transform="translate(-114.07 467.99) rotate(-89.57)"/><rect class="cls-3" x="216.18" y="280.1" width="69.66" height="68.32" transform="translate(-146.53 562.07) rotate(-89.57)"/><rect class="cls-4" x="187.88" y="308.18" width="69.66" height="11.72" transform="translate(-174.41 533.56) rotate(-89.57)"/><rect class="cls-4" x="244.3" y="340.55" width="13" height="4.08" transform="translate(-175.07 589.98) rotate(-89.57)"/><rect class="cls-4" x="244.18" y="321.57" width="13.52" height="4.08" transform="translate(-155.96 571.29) rotate(-89.57)"/><rect class="cls-4" x="244.32" y="302.86" width="13.51" height="4.08" transform="translate(-137.11 552.85) rotate(-89.57)"/><rect class="cls-4" x="244.72" y="283.89" width="13" height="4.08" transform="translate(-118 534.16) rotate(-89.57)"/><rect class="cls-4" x="244.47" y="308.61" width="69.66" height="11.73" transform="translate(-118.66 590.57) rotate(-89.57)"/><rect class="cls-3" x="81.1" y="139.75" width="69.66" height="68.32" transform="translate(-140.26 287.7) rotate(-89.57)"/><rect class="cls-4" x="52.81" y="167.83" width="69.66" height="11.72" transform="translate(-168.13 259.19) rotate(-89.57)"/><rect class="cls-4" x="109.22" y="200.2" width="13" height="4.08" transform="translate(-168.8 315.6) rotate(-89.57)"/><rect class="cls-4" x="109.1" y="181.22" width="13.52" height="4.08" transform="translate(-149.68 296.91) rotate(-89.57)"/><rect class="cls-4" x="109.24" y="163.31" width="13.52" height="4.08" transform="translate(-131.63 279.26) rotate(-89.57)"/><rect class="cls-4" x="109.37" y="145.39" width="13.52" height="4.08" transform="translate(-113.58 261.61) rotate(-89.57)"/><rect class="cls-4" x="109.4" y="168.26" width="69.66" height="11.73" transform="translate(-112.39 316.2) rotate(-89.57)"/><rect class="cls-3" x="81.62" y="70.76" width="69.66" height="68.32" transform="translate(-70.76 219.74) rotate(-89.57)"/><rect class="cls-4" x="53.32" y="98.84" width="69.66" height="11.72" transform="translate(-98.63 191.23) rotate(-89.57)"/><rect class="cls-4" x="109.74" y="131.21" width="13" height="4.08" transform="translate(-99.3 247.64) rotate(-89.57)"/><rect class="cls-4" x="109.62" y="112.24" width="13.52" height="4.08" transform="translate(-80.19 228.95) rotate(-89.57)"/><rect class="cls-4" x="109.75" y="94.32" width="13.52" height="4.08" transform="translate(-62.14 211.3) rotate(-89.57)"/><rect class="cls-4" x="109.88" y="76.4" width="13.52" height="4.08" transform="translate(-44.09 193.65) rotate(-89.57)"/><rect class="cls-4" x="109.91" y="99.27" width="69.66" height="11.73" transform="translate(-42.89 248.24) rotate(-89.57)"/><rect class="cls-3" x="82.13" y="1.77" width="69.66" height="68.32" transform="translate(-1.26 151.77) rotate(-89.57)"/><rect class="cls-4" x="53.84" y="29.85" width="69.66" height="11.72" transform="translate(-29.14 123.27) rotate(-89.57)"/><rect class="cls-4" x="110.25" y="62.22" width="13" height="4.08" transform="translate(-29.8 179.68) rotate(-89.57)"/><rect class="cls-4" x="110.13" y="43.25" width="13.52" height="4.08" transform="translate(-10.69 160.99) rotate(-89.57)"/><rect class="cls-4" x="110.27" y="25.33" width="13.52" height="4.08" transform="translate(7.36 143.34) rotate(-89.57)"/><rect class="cls-4" x="110.4" y="7.41" width="13.52" height="4.08" transform="translate(25.41 125.69) rotate(-89.57)"/><rect class="cls-4" x="110.43" y="30.28" width="69.66" height="11.73" transform="translate(26.61 180.28) rotate(-89.57)"/><rect class="cls-3" x="215.55" y="349.8" width="69.66" height="68.32" transform="translate(-216.86 630.63) rotate(-89.57)"/><rect class="cls-4" x="187.26" y="377.89" width="69.66" height="11.72" transform="translate(-244.73 602.12) rotate(-89.57)"/><rect class="cls-4" x="243.67" y="410.25" width="13" height="4.08" transform="translate(-245.4 658.54) rotate(-89.57)"/><rect class="cls-4" x="243.55" y="391.28" width="13.52" height="4.08" transform="translate(-226.28 639.85) rotate(-89.57)"/><rect class="cls-4" x="243.68" y="373.36" width="13.52" height="4.08" transform="translate(-208.23 622.19) rotate(-89.57)"/><rect class="cls-4" x="243.82" y="355.44" width="13.52" height="4.08" transform="translate(-190.18 604.54) rotate(-89.57)"/><rect class="cls-4" x="243.85" y="378.31" width="69.66" height="11.73" transform="translate(-188.99 659.13) rotate(-89.57)"/><rect class="cls-3" x="148.38" y="209.93" width="69.66" height="68.32" transform="translate(-143.67 424.61) rotate(-89.57)"/><rect class="cls-4" x="177.45" y="181.08" width="11.96" height="68.32" transform="translate(-114.61 396.19) rotate(-89.57)"/><rect class="cls-4" x="190.31" y="237.53" width="4.16" height="13.26" transform="translate(-134.64 433.86) rotate(-89.57)"/><rect class="cls-4" x="172.28" y="237.39" width="4.16" height="13.26" transform="translate(-152.4 415.69) rotate(-89.57)"/><rect class="cls-4" x="154.25" y="237.26" width="4.16" height="13.26" transform="translate(-170.15 397.53) rotate(-89.57)"/><rect class="cls-4" x="208.91" y="237.92" width="4.16" height="12.75" transform="translate(-116.31 452.6) rotate(-89.57)"/><rect class="cls-4" x="177.02" y="238.78" width="11.96" height="68.32" transform="translate(-172.74 453.03) rotate(-89.57)"/><path class="cls-1" d="M149.74,209l-68.32-.51c-.29,38.47,30.07,69.88,67.8,70.17Z" transform="translate(-81.42 -0.85)"/><path class="cls-2" d="M149.74,209l-56.59-.43c-.24,31.71,25.06,57.89,56.16,58.12Z" transform="translate(-81.42 -0.85)"/><path class="cls-1" d="M149.74,209l-36.2-.27c-.15,20.27,16,37,35.92,37.18Z" transform="translate(-81.42 -0.85)"/><path class="cls-2" d="M149.74,209l-32.12-.24c-.14,18.19,14,32.86,31.88,33Z" transform="translate(-81.42 -0.85)"/><path class="cls-1" d="M149.74,209,138,208.89a11.66,11.66,0,0,0,11.64,12Z" transform="translate(-81.42 -0.85)"/><rect class="cls-3" x="115.77" y="198.34" width="5.2" height="26" transform="translate(-175.27 327.28) rotate(-89.57)"/><polygon class="cls-2" points="24.29 232.23 26.81 236.41 49.34 223.58 46.83 218.88 24.29 232.23"/><polygon class="cls-2" points="42.03 246.4 46.09 249.55 61.03 227.83 56.98 224.68 42.03 246.4"/><rect class="cls-3" x="133.73" y="234.74" width="26.51" height="5.1" transform="translate(-172.82 381.63) rotate(-89.57)"/></g></g></svg>