<svg xmlns="http://www.w3.org/2000/svg" viewBox="0 0 411.19 411.19"><defs><style>.cls-1{fill:#685b40;}.cls-2{fill:#f5e8d5;}</style></defs><title>Camioneta_7_on</title><g id="Capa_2" data-name="Capa 2"><g id="Capa_1-2" data-name="Capa 1"><rect class="cls-1" y="138.6" width="68.73" height="68.43"/><rect class="cls-2" y="138.6" width="68.73" height="11.74"/><rect class="cls-2" y="170.78" width="12.82" height="4.09"/><rect class="cls-2" x="18.46" y="170.78" width="13.34" height="4.09"/><rect class="cls-2" x="36.14" y="170.78" width="13.34" height="4.09"/><rect class="cls-2" x="53.82" y="170.78" width="13.34" height="4.09"/><rect class="cls-2" y="195.29" width="68.73" height="11.75"/><rect class="cls-1" x="68.07" y="138.6" width="68.73" height="68.43"/><rect class="cls-2" x="68.07" y="138.6" width="68.73" height="11.74"/><rect class="cls-2" x="68.07" y="170.78" width="12.82" height="4.09"/><rect class="cls-2" x="86.53" y="170.78" width="13.34" height="4.09"/><rect class="cls-2" x="104.21" y="170.78" width="13.34" height="4.09"/><rect class="cls-2" x="121.89" y="170.78" width="13.34" height="4.09"/><rect class="cls-2" x="68.07" y="195.29" width="68.73" height="11.75"/><rect class="cls-1" x="136.14" y="138.6" width="68.73" height="68.43"/><rect class="cls-2" x="136.14" y="138.6" width="68.73" height="11.74"/><rect class="cls-2" x="136.14" y="170.78" width="12.82" height="4.09"/><rect class="cls-2" x="154.6" y="170.78" width="13.34" height="4.09"/><rect class="cls-2" x="172.28" y="170.78" width="13.34" height="4.09"/><rect class="cls-2" x="189.96" y="170.78" width="13.34" height="4.09"/><rect class="cls-2" x="136.14" y="195.29" width="68.73" height="11.75"/><rect class="cls-1" x="204.69" y="138.6" width="68.73" height="68.43"/><rect class="cls-2" x="204.69" y="138.6" width="68.73" height="11.74"/><rect class="cls-2" x="204.69" y="170.78" width="12.82" height="4.09"/><rect class="cls-2" x="223.15" y="170.78" width="13.34" height="4.09"/><rect class="cls-2" x="240.83" y="170.78" width="13.34" height="4.09"/><rect class="cls-2" x="258.51" y="170.78" width="13.34" height="4.09"/><rect class="cls-2" x="204.69" y="195.29" width="68.73" height="11.75"/><rect class="cls-1" x="273.53" y="138.6" width="68.73" height="68.43"/><rect class="cls-2" x="273.53" y="138.6" width="68.73" height="11.74"/><rect class="cls-2" x="273.53" y="170.78" width="12.82" height="4.09"/><rect class="cls-2" x="292" y="170.78" width="13.34" height="4.09"/><rect class="cls-2" x="309.68" y="170.78" width="13.34" height="4.09"/><rect class="cls-2" x="327.36" y="170.78" width="13.34" height="4.09"/><rect class="cls-2" x="273.53" y="195.29" width="68.73" height="11.75"/><rect class="cls-1" x="342.46" y="138.6" width="68.73" height="68.43"/><rect class="cls-2" x="342.46" y="138.6" width="68.73" height="11.74"/><rect class="cls-2" x="342.46" y="170.78" width="12.82" height="4.09"/><rect class="cls-2" x="360.93" y="170.78" width="13.34" height="4.09"/><rect class="cls-2" x="378.61" y="170.78" width="13.34" height="4.09"/><rect class="cls-2" x="396.28" y="170.78" width="13.34" height="4.09"/><rect class="cls-2" x="342.46" y="195.29" width="68.73" height="11.75"/><rect class="cls-1" x="118.74" y="342.46" width="68.43" height="68.73"/><rect class="cls-2" x="118.74" y="342.46" width="11.74" height="68.73"/><rect class="cls-2" x="150.91" y="398.37" width="4.09" height="12.82"/><rect class="cls-2" x="150.91" y="379.39" width="4.09" height="13.34"/><rect class="cls-2" x="150.91" y="361.71" width="4.09" height="13.34"/><rect class="cls-2" x="150.91" y="344.03" width="4.09" height="13.34"/><rect class="cls-2" x="175.43" y="342.46" width="11.75" height="68.73"/><rect class="cls-1" x="118.74" y="274.39" width="68.43" height="68.73"/><rect class="cls-2" x="118.74" y="274.39" width="11.74" height="68.73"/><rect class="cls-2" x="150.91" y="330.3" width="4.09" height="12.82"/><rect class="cls-2" x="150.91" y="311.32" width="4.09" height="13.34"/><rect class="cls-2" x="150.91" y="293.64" width="4.09" height="13.34"/><rect class="cls-2" x="150.91" y="275.96" width="4.09" height="13.34"/><rect class="cls-2" x="175.43" y="274.39" width="11.75" height="68.73"/><rect class="cls-1" x="118.74" y="206.32" width="68.43" height="68.73"/><rect class="cls-2" x="118.74" y="206.32" width="11.74" height="68.73"/><rect class="cls-2" x="150.91" y="262.23" width="4.09" height="12.82"/><rect class="cls-2" x="150.91" y="243.25" width="4.09" height="13.34"/><rect class="cls-2" x="150.91" y="225.57" width="4.09" height="13.34"/><rect class="cls-2" x="150.91" y="207.89" width="4.09" height="13.34"/><rect class="cls-2" x="175.43" y="206.32" width="11.75" height="68.73"/><rect class="cls-1" x="118.74" y="137.78" width="68.43" height="68.73"/><rect class="cls-2" x="118.74" y="137.78" width="11.74" height="68.73"/><rect class="cls-2" x="150.91" y="193.68" width="4.09" height="12.82"/><rect class="cls-2" x="150.91" y="174.7" width="4.09" height="13.34"/><rect class="cls-2" x="150.91" y="157.02" width="4.09" height="13.34"/><rect class="cls-2" x="150.91" y="139.34" width="4.09" height="13.34"/><rect class="cls-2" x="175.43" y="137.78" width="11.75" height="68.73"/><rect class="cls-1" x="118.74" y="68.93" width="68.43" height="68.73"/><rect class="cls-2" x="118.74" y="68.93" width="11.74" height="68.73"/><rect class="cls-2" x="150.91" y="124.83" width="4.09" height="12.82"/><rect class="cls-2" x="150.91" y="105.86" width="4.09" height="13.34"/><rect class="cls-2" x="150.91" y="88.18" width="4.09" height="13.34"/><rect class="cls-2" x="150.91" y="70.5" width="4.09" height="13.34"/><rect class="cls-2" x="175.43" y="68.93" width="11.75" height="68.73"/><rect class="cls-1" x="118.74" width="68.43" height="68.73"/><rect class="cls-2" x="118.74" width="11.74" height="68.73"/><rect class="cls-2" x="150.91" y="55.9" width="4.09" height="12.82"/><rect class="cls-2" x="150.91" y="36.93" width="4.09" height="13.34"/><rect class="cls-2" x="150.91" y="19.25" width="4.09" height="13.34"/><rect class="cls-2" x="150.91" y="1.57" width="4.09" height="13.34"/><rect class="cls-2" x="175.43" width="11.75" height="68.73"/></g></g></svg>