<svg xmlns="http://www.w3.org/2000/svg" viewBox="0 0 415.08 339.38"><defs><style>.cls-1,.cls-4{fill:#f5e8d5;}.cls-1,.cls-2{fill-rule:evenodd;}.cls-2,.cls-3{fill:#685b40;}</style></defs><title>Camioneta_6_on</title><g id="Capa_2" data-name="Capa 2"><g id="Capa_1-2" data-name="Capa 1"><path class="cls-1" d="M208.51,133.56v66.17c38,0,68.73-29.63,68.73-66.17Z" transform="translate(-1.43 -1.24)"/><path class="cls-2" d="M208.51,133.56v54.81c31.29,0,56.93-24.69,56.93-54.81Z" transform="translate(-1.43 -1.24)"/><path class="cls-1" d="M208.51,133.56v35.06c20,0,36.41-15.8,36.41-35.06Z" transform="translate(-1.43 -1.24)"/><path class="cls-2" d="M208.51,133.56v31.11c18,0,32.31-13.82,32.31-31.11Z" transform="translate(-1.43 -1.24)"/><path class="cls-1" d="M208.51,133.56v11.36c6.67,0,11.8-4.94,11.8-11.36Z" transform="translate(-1.43 -1.24)"/><rect class="cls-3" x="207.08" y="150.1" width="5.13" height="25.18"/><polygon class="cls-2" points="231.19 174.79 235.29 172.32 222.47 150.59 217.85 153.06 231.19 174.79"/><polygon class="cls-2" points="245.04 157.5 248.11 153.56 226.57 139.23 223.5 143.18 245.04 157.5"/><rect class="cls-3" x="221.96" y="132.32" width="26.16" height="4.94"/><rect class="cls-3" x="138.36" y="132.32" width="68.73" height="66.17"/><rect class="cls-4" x="138.36" y="132.32" width="68.73" height="11.36"/><rect class="cls-4" x="138.36" y="163.43" width="12.82" height="3.95"/><rect class="cls-4" x="156.82" y="163.43" width="13.34" height="3.95"/><rect class="cls-4" x="175.28" y="163.43" width="13.33" height="3.95"/><rect class="cls-4" x="194.26" y="163.43" width="12.82" height="3.95"/><rect class="cls-4" x="138.36" y="187.13" width="68.73" height="11.36"/><rect class="cls-3" x="69.58" y="132.22" width="68.73" height="66.17"/><rect class="cls-4" x="69.58" y="132.22" width="68.73" height="11.36"/><rect class="cls-4" x="69.58" y="163.33" width="12.82" height="3.95"/><rect class="cls-4" x="88.04" y="163.33" width="13.34" height="3.95"/><rect class="cls-4" x="105.72" y="163.33" width="13.34" height="3.95"/><rect class="cls-4" x="123.4" y="163.33" width="13.34" height="3.95"/><rect class="cls-4" x="69.58" y="187.03" width="68.73" height="11.36"/><rect class="cls-3" y="132.22" width="68.73" height="66.17"/><rect class="cls-4" y="132.22" width="68.73" height="11.36"/><rect class="cls-4" y="163.33" width="12.82" height="3.95"/><rect class="cls-4" x="18.46" y="163.33" width="13.34" height="3.95"/><rect class="cls-4" x="36.14" y="163.33" width="13.34" height="3.95"/><rect class="cls-4" x="53.82" y="163.33" width="13.34" height="3.95"/><rect class="cls-4" y="187.03" width="68.73" height="11.36"/><rect class="cls-3" x="207.08" y="66.15" width="68.73" height="66.17"/><rect class="cls-4" x="264.01" y="66.15" width="11.8" height="66.17"/><rect class="cls-4" x="239.39" y="101.71" width="4.1" height="12.84"/><rect class="cls-4" x="239.39" y="84.24" width="4.1" height="12.84"/><rect class="cls-4" x="239.39" y="66.78" width="4.1" height="12.84"/><rect class="cls-4" x="239.39" y="119.98" width="4.1" height="12.35"/><rect class="cls-4" x="207.08" y="66.15" width="11.8" height="66.17"/><rect class="cls-3" x="207.08" width="68.73" height="66.17"/><rect class="cls-4" x="264.01" width="11.8" height="66.17"/><rect class="cls-4" x="239.39" y="35.55" width="4.1" height="12.84"/><rect class="cls-4" x="239.39" y="18.09" width="4.1" height="12.84"/><rect class="cls-4" x="239.39" y="0.63" width="4.1" height="12.84"/><rect class="cls-4" x="239.39" y="53.82" width="4.1" height="12.35"/><rect class="cls-4" x="207.08" width="11.8" height="66.17"/><rect class="cls-3" x="3.89" y="270.94" width="68.73" height="68.43"/><rect class="cls-4" x="3.89" y="270.94" width="68.73" height="11.74"/><rect class="cls-4" x="3.89" y="303.12" width="12.82" height="4.09"/><rect class="cls-4" x="22.35" y="303.12" width="13.34" height="4.09"/><rect class="cls-4" x="40.03" y="303.12" width="13.34" height="4.09"/><rect class="cls-4" x="57.71" y="303.12" width="13.34" height="4.09"/><rect class="cls-4" x="3.89" y="327.63" width="68.73" height="11.75"/><rect class="cls-3" x="71.96" y="270.94" width="68.73" height="68.43"/><rect class="cls-4" x="71.96" y="270.94" width="68.73" height="11.74"/><rect class="cls-4" x="71.96" y="303.12" width="12.82" height="4.09"/><rect class="cls-4" x="90.42" y="303.12" width="13.34" height="4.09"/><rect class="cls-4" x="108.1" y="303.12" width="13.34" height="4.09"/><rect class="cls-4" x="125.78" y="303.12" width="13.34" height="4.09"/><rect class="cls-4" x="71.96" y="327.63" width="68.73" height="11.75"/><rect class="cls-3" x="140.02" y="270.94" width="68.73" height="68.43"/><rect class="cls-4" x="140.02" y="270.94" width="68.73" height="11.74"/><rect class="cls-4" x="140.02" y="303.12" width="12.82" height="4.09"/><rect class="cls-4" x="158.49" y="303.12" width="13.34" height="4.09"/><rect class="cls-4" x="176.17" y="303.12" width="13.34" height="4.09"/><rect class="cls-4" x="193.85" y="303.12" width="13.34" height="4.09"/><rect class="cls-4" x="140.02" y="327.63" width="68.73" height="11.75"/><rect class="cls-3" x="208.57" y="270.94" width="68.73" height="68.43"/><rect class="cls-4" x="208.57" y="270.94" width="68.73" height="11.74"/><rect class="cls-4" x="208.57" y="303.12" width="12.82" height="4.09"/><rect class="cls-4" x="227.04" y="303.12" width="13.34" height="4.09"/><rect class="cls-4" x="244.72" y="303.12" width="13.34" height="4.09"/><rect class="cls-4" x="262.4" y="303.12" width="13.34" height="4.09"/><rect class="cls-4" x="208.57" y="327.63" width="68.73" height="11.75"/><rect class="cls-3" x="277.42" y="270.94" width="68.73" height="68.43"/><rect class="cls-4" x="277.42" y="270.94" width="68.73" height="11.74"/><rect class="cls-4" x="277.42" y="303.12" width="12.82" height="4.09"/><rect class="cls-4" x="295.88" y="303.12" width="13.34" height="4.09"/><rect class="cls-4" x="313.56" y="303.12" width="13.34" height="4.09"/><rect class="cls-4" x="331.24" y="303.12" width="13.34" height="4.09"/><rect class="cls-4" x="277.42" y="327.63" width="68.73" height="11.75"/><rect class="cls-3" x="346.35" y="270.94" width="68.73" height="68.43"/><rect class="cls-4" x="346.35" y="270.94" width="68.73" height="11.74"/><rect class="cls-4" x="346.35" y="303.12" width="12.82" height="4.09"/><rect class="cls-4" x="364.81" y="303.12" width="13.34" height="4.09"/><rect class="cls-4" x="382.49" y="303.12" width="13.34" height="4.09"/><rect class="cls-4" x="400.17" y="303.12" width="13.34" height="4.09"/><rect class="cls-4" x="346.35" y="327.63" width="68.73" height="11.75"/></g></g></svg>