<svg xmlns="http://www.w3.org/2000/svg" viewBox="0 0 418.24 419.01"><defs><style>.cls-1{opacity:0.5;}.cls-2,.cls-5{fill:#f5e8d5;}.cls-2,.cls-3{fill-rule:evenodd;}.cls-3,.cls-4{fill:#685b40;}</style></defs><title>Camioneta_5</title><g id="Capa_2" data-name="Capa 2"><g id="Capa_1-2" data-name="Capa 1"><g class="cls-1"><path class="cls-2" d="M283.66,133.41H215.87c0,36.55,30.36,66.18,67.79,66.18Z" transform="translate(-0.99 -0.99)"/><path class="cls-3" d="M283.66,133.41H227.5c0,30.13,25.3,54.82,56.16,54.82Z" transform="translate(-0.99 -0.99)"/><path class="cls-2" d="M283.66,133.41H247.74c0,19.26,16.19,35.07,35.92,35.07Z" transform="translate(-0.99 -0.99)"/><path class="cls-3" d="M283.66,133.41H251.79c0,17.29,14.16,31.12,31.87,31.12Z" transform="translate(-0.99 -0.99)"/><path class="cls-2" d="M283.66,133.41H272a11.31,11.31,0,0,0,11.63,11.36Z" transform="translate(-0.99 -0.99)"/><rect class="cls-4" x="238.66" y="132.42" width="25.8" height="4.94"/><polygon class="cls-3" points="239.16 155.63 241.69 159.58 263.95 147.23 261.42 142.79 239.16 155.63"/><polygon class="cls-3" points="256.87 168.97 260.91 171.93 275.59 151.19 271.54 148.22 256.87 168.97"/><rect class="cls-4" x="277.61" y="146.74" width="5.06" height="25.19"/><rect class="cls-4" x="214.88" y="66.23" width="67.79" height="66.18"/><rect class="cls-5" x="271.04" y="66.23" width="11.63" height="66.18"/><rect class="cls-5" x="246.75" y="66.23" width="4.05" height="12.35"/><rect class="cls-5" x="246.75" y="84.01" width="4.05" height="12.84"/><rect class="cls-5" x="246.75" y="101.79" width="4.05" height="12.84"/><rect class="cls-5" x="246.75" y="120.07" width="4.05" height="12.35"/><rect class="cls-5" x="214.88" y="66.23" width="11.64" height="66.18"/><rect class="cls-4" x="214.98" width="67.79" height="66.18"/><rect class="cls-5" x="271.14" width="11.63" height="66.18"/><rect class="cls-5" x="246.85" width="4.05" height="12.35"/><rect class="cls-5" x="246.85" y="17.78" width="4.05" height="12.84"/><rect class="cls-5" x="246.85" y="34.81" width="4.05" height="12.84"/><rect class="cls-5" x="246.85" y="51.83" width="4.05" height="12.84"/><rect class="cls-5" x="214.98" width="11.64" height="66.18"/><rect class="cls-4" x="282.67" y="132.42" width="67.8" height="66.18"/><rect class="cls-5" x="282.67" y="187.24" width="67.8" height="11.36"/><rect class="cls-5" x="300.88" y="163.53" width="13.15" height="3.95"/><rect class="cls-5" x="318.78" y="163.53" width="13.15" height="3.95"/><rect class="cls-5" x="336.67" y="163.53" width="13.15" height="3.95"/><rect class="cls-5" x="282.67" y="163.53" width="12.65" height="3.95"/><rect class="cls-5" x="282.67" y="132.42" width="67.8" height="11.36"/><rect class="cls-4" x="350.45" y="132.42" width="67.8" height="66.18"/><rect class="cls-5" x="350.45" y="187.24" width="67.8" height="11.36"/><rect class="cls-5" x="368.66" y="163.53" width="13.15" height="3.95"/><rect class="cls-5" x="386.55" y="163.53" width="13.15" height="3.95"/><rect class="cls-5" x="404.45" y="163.53" width="13.15" height="3.95"/><rect class="cls-5" x="350.45" y="163.53" width="12.65" height="3.95"/><rect class="cls-5" x="350.45" y="132.42" width="67.8" height="11.36"/><path class="cls-2" d="M282.35,283.38V215.06c38.6,0,69.89,30.59,69.89,68.32Z" transform="translate(-0.99 -0.99)"/><path class="cls-3" d="M282.35,283.38V226.79c31.82,0,57.9,25.49,57.9,56.59Z" transform="translate(-0.99 -0.99)"/><path class="cls-2" d="M282.35,283.38v-36.2c20.34,0,37,16.32,37,36.2Z" transform="translate(-0.99 -0.99)"/><path class="cls-3" d="M282.35,283.38V251.26c18.26,0,32.86,14.27,32.86,32.12Z" transform="translate(-0.99 -0.99)"/><path class="cls-2" d="M282.35,283.38V271.66a11.67,11.67,0,0,1,12,11.72Z" transform="translate(-0.99 -0.99)"/><rect class="cls-4" x="281.36" y="238.04" width="5.22" height="26"/><polygon class="cls-3" points="305.88 238.55 310.05 241.1 297.01 263.53 292.31 260.98 305.88 238.55"/><polygon class="cls-3" points="319.96 256.39 323.09 260.47 301.18 275.26 298.05 271.18 319.96 256.39"/><rect class="cls-4" x="296.49" y="277.3" width="26.6" height="5.1"/><rect class="cls-4" x="211.47" y="214.08" width="69.89" height="68.32"/><rect class="cls-5" x="211.47" y="270.67" width="69.89" height="11.72"/><rect class="cls-5" x="211.47" y="246.19" width="13.04" height="4.08"/><rect class="cls-5" x="230.25" y="246.19" width="13.56" height="4.08"/><rect class="cls-5" x="249.02" y="246.19" width="13.56" height="4.08"/><rect class="cls-5" x="268.32" y="246.19" width="13.04" height="4.08"/><rect class="cls-5" x="211.47" y="214.08" width="69.89" height="11.73"/><rect class="cls-4" x="141.53" y="214.18" width="69.89" height="68.32"/><rect class="cls-5" x="141.53" y="270.78" width="69.89" height="11.72"/><rect class="cls-5" x="141.53" y="246.3" width="13.04" height="4.08"/><rect class="cls-5" x="160.3" y="246.3" width="13.56" height="4.08"/><rect class="cls-5" x="178.28" y="246.3" width="13.56" height="4.08"/><rect class="cls-5" x="196.26" y="246.3" width="13.56" height="4.08"/><rect class="cls-5" x="141.53" y="214.18" width="69.89" height="11.73"/><rect class="cls-4" x="70.76" y="214.18" width="69.89" height="68.32"/><rect class="cls-5" x="70.76" y="270.78" width="69.89" height="11.72"/><rect class="cls-5" x="70.76" y="246.3" width="13.04" height="4.08"/><rect class="cls-5" x="89.54" y="246.3" width="13.56" height="4.08"/><rect class="cls-5" x="107.52" y="246.3" width="13.56" height="4.08"/><rect class="cls-5" x="125.5" y="246.3" width="13.56" height="4.08"/><rect class="cls-5" x="70.76" y="214.18" width="69.89" height="11.73"/><rect class="cls-4" y="214.18" width="69.89" height="68.32"/><rect class="cls-5" y="270.78" width="69.89" height="11.72"/><rect class="cls-5" y="246.3" width="13.04" height="4.08"/><rect class="cls-5" x="18.78" y="246.3" width="13.56" height="4.08"/><rect class="cls-5" x="36.76" y="246.3" width="13.56" height="4.08"/><rect class="cls-5" x="54.74" y="246.3" width="13.56" height="4.08"/><rect class="cls-5" y="214.18" width="69.89" height="11.73"/><rect class="cls-4" x="281.36" y="282.39" width="69.89" height="68.32"/><rect class="cls-5" x="339.26" y="282.39" width="12" height="68.32"/><rect class="cls-5" x="314.22" y="300.75" width="4.17" height="13.26"/><rect class="cls-5" x="314.22" y="318.78" width="4.17" height="13.26"/><rect class="cls-5" x="314.22" y="336.81" width="4.17" height="13.26"/><rect class="cls-5" x="314.22" y="282.39" width="4.17" height="12.75"/><rect class="cls-5" x="281.36" y="282.39" width="12" height="68.32"/><rect class="cls-4" x="281.36" y="350.69" width="69.89" height="68.32"/><rect class="cls-5" x="339.26" y="350.69" width="12" height="68.32"/><rect class="cls-5" x="314.22" y="369.05" width="4.17" height="13.26"/><rect class="cls-5" x="314.22" y="387.08" width="4.17" height="13.26"/><rect class="cls-5" x="314.22" y="405.11" width="4.17" height="13.26"/><rect class="cls-5" x="314.22" y="350.69" width="4.17" height="12.75"/><rect class="cls-5" x="281.36" y="350.69" width="12" height="68.32"/></g></g></g></svg>