<svg xmlns="http://www.w3.org/2000/svg" viewBox="0 0 210.33 205.99"><defs><style>.cls-1,.cls-4{fill:#f5e8d5;}.cls-1,.cls-2{fill-rule:evenodd;}.cls-2,.cls-3{fill:#685b40;}</style></defs><title>Camioneta_2_on</title><g id="Capa_2" data-name="Capa 2"><g id="Capa_1-2" data-name="Capa 1"><path class="cls-1" d="M278.09,282.36V213.69c-38.71,0-70.09,30.75-70.09,68.67Z" transform="translate(-208 -213.69)"/><path class="cls-2" d="M278.09,282.36V225.48c-31.91,0-58.06,25.63-58.06,56.88Z" transform="translate(-208 -213.69)"/><path class="cls-1" d="M278.09,282.36V246c-20.4,0-37.14,16.4-37.14,36.39Z" transform="translate(-208 -213.69)"/><path class="cls-2" d="M278.09,282.36V250.08c-18.31,0-33,14.35-33,32.28Z" transform="translate(-208 -213.69)"/><path class="cls-1" d="M278.09,282.36V270.58a11.72,11.72,0,0,0-12,11.78Z" transform="translate(-208 -213.69)"/><rect class="cls-3" x="64.86" y="24.09" width="5.23" height="26.13"/><polygon class="cls-2" points="45.51 24.6 41.32 27.16 54.4 49.71 59.11 47.15 45.51 24.6"/><polygon class="cls-2" points="31.39 42.53 28.25 46.63 50.22 61.49 53.35 57.4 31.39 42.53"/><rect class="cls-3" x="28.25" y="63.54" width="26.68" height="5.12"/><rect class="cls-3" x="70.09" width="70.09" height="68.67"/><rect class="cls-4" x="70.09" y="56.88" width="70.09" height="11.78"/><rect class="cls-4" x="127.11" y="32.28" width="13.08" height="4.1"/><rect class="cls-4" x="107.76" y="32.28" width="13.6" height="4.1"/><rect class="cls-4" x="88.93" y="32.28" width="13.6" height="4.1"/><rect class="cls-4" x="70.09" y="32.28" width="13.08" height="4.1"/><rect class="cls-4" x="70.09" width="70.09" height="11.79"/><rect class="cls-3" x="140.24" y="0.11" width="70.09" height="68.67"/><rect class="cls-4" x="140.24" y="56.99" width="70.09" height="11.78"/><rect class="cls-4" x="197.26" y="32.39" width="13.08" height="4.1"/><rect class="cls-4" x="177.9" y="32.39" width="13.6" height="4.1"/><rect class="cls-4" x="159.87" y="32.39" width="13.6" height="4.1"/><rect class="cls-4" x="141.84" y="32.39" width="13.6" height="4.1"/><rect class="cls-4" x="140.24" y="0.11" width="70.09" height="11.79"/><rect class="cls-3" y="68.67" width="70.09" height="68.67"/><rect class="cls-4" y="68.67" width="12.03" height="68.67"/><rect class="cls-4" x="32.96" y="87.12" width="4.18" height="13.32"/><rect class="cls-4" x="32.96" y="105.24" width="4.18" height="13.32"/><rect class="cls-4" x="32.96" y="123.36" width="4.18" height="13.32"/><rect class="cls-4" x="32.96" y="68.67" width="4.18" height="12.81"/><rect class="cls-4" x="58.06" y="68.67" width="12.03" height="68.67"/><rect class="cls-3" y="137.32" width="70.09" height="68.67"/><rect class="cls-4" y="137.32" width="12.03" height="68.67"/><rect class="cls-4" x="32.96" y="155.77" width="4.18" height="13.32"/><rect class="cls-4" x="32.96" y="173.89" width="4.18" height="13.32"/><rect class="cls-4" x="32.96" y="192.02" width="4.18" height="13.32"/><rect class="cls-4" x="32.96" y="137.32" width="4.18" height="12.81"/><rect class="cls-4" x="58.06" y="137.32" width="12.03" height="68.67"/></g></g></svg>