<svg xmlns="http://www.w3.org/2000/svg" viewBox="0 0 419.26 419.26"><defs><style>.cls-1{opacity:0.5;}.cls-2,.cls-5{fill:#f5e8d5;}.cls-2,.cls-3{fill-rule:evenodd;}.cls-3,.cls-4{fill:#685b40;}</style></defs><title>Camioneta_4</title><g id="Capa_2" data-name="Capa 2"><g id="Capa_1-2" data-name="Capa 1"><g class="cls-1"><path class="cls-2" d="M136.89,146.2h68.43c0-37.52-30.64-67.94-68.43-67.94Z" transform="translate(-0.03 -0.44)"/><path class="cls-3" d="M136.89,146.2h56.69c0-30.93-25.54-56.28-56.69-56.28Z" transform="translate(-0.03 -0.44)"/><path class="cls-2" d="M136.89,146.2h36.26a36.27,36.27,0,0,0-36.26-36Z" transform="translate(-0.03 -0.44)"/><path class="cls-3" d="M136.89,146.2h32.17a31.92,31.92,0,0,0-32.17-31.94Z" transform="translate(-0.03 -0.44)"/><path class="cls-2" d="M136.89,146.2h11.74a11.51,11.51,0,0,0-11.74-11.66Z" transform="translate(-0.03 -0.44)"/><rect class="cls-4" x="155.24" y="140.68" width="26.04" height="5.07"/><polygon class="cls-3" points="180.77 121.92 178.22 117.87 155.75 130.54 158.31 135.11 180.77 121.92"/><polygon class="cls-3" points="162.9 108.23 158.82 105.19 144 126.49 148.09 129.53 162.9 108.23"/><rect class="cls-4" x="136.85" y="105.19" width="5.11" height="25.86"/><rect class="cls-4" x="136.85" y="145.75" width="68.43" height="67.94"/><rect class="cls-5" x="136.85" y="145.75" width="11.74" height="67.94"/><rect class="cls-5" x="169.03" y="201.02" width="4.09" height="12.68"/><rect class="cls-5" x="169.03" y="182.26" width="4.09" height="13.19"/><rect class="cls-5" x="169.03" y="164.01" width="4.09" height="13.18"/><rect class="cls-5" x="169.03" y="145.75" width="4.09" height="12.68"/><rect class="cls-5" x="193.54" y="145.75" width="11.75" height="67.94"/><rect class="cls-4" x="136.75" y="213.74" width="68.43" height="67.94"/><rect class="cls-5" x="136.75" y="213.74" width="11.74" height="67.94"/><rect class="cls-5" x="168.92" y="269.01" width="4.09" height="12.68"/><rect class="cls-5" x="168.92" y="250.25" width="4.09" height="13.19"/><rect class="cls-5" x="168.92" y="232.77" width="4.09" height="13.19"/><rect class="cls-5" x="168.92" y="215.29" width="4.09" height="13.19"/><rect class="cls-5" x="193.44" y="213.74" width="11.75" height="67.94"/><rect class="cls-4" x="136.75" y="282.53" width="68.43" height="67.94"/><rect class="cls-5" x="136.75" y="282.53" width="11.74" height="67.94"/><rect class="cls-5" x="168.92" y="337.8" width="4.09" height="12.68"/><rect class="cls-5" x="168.92" y="319.04" width="4.09" height="13.19"/><rect class="cls-5" x="168.92" y="301.56" width="4.09" height="13.19"/><rect class="cls-5" x="168.92" y="284.08" width="4.09" height="13.19"/><rect class="cls-5" x="193.44" y="282.53" width="11.75" height="67.94"/><rect class="cls-4" x="136.75" y="351.32" width="68.43" height="67.94"/><rect class="cls-5" x="136.75" y="351.32" width="11.74" height="67.94"/><rect class="cls-5" x="168.92" y="406.59" width="4.09" height="12.68"/><rect class="cls-5" x="168.92" y="387.83" width="4.09" height="13.19"/><rect class="cls-5" x="168.92" y="370.35" width="4.09" height="13.19"/><rect class="cls-5" x="168.92" y="352.87" width="4.09" height="13.19"/><rect class="cls-5" x="193.44" y="351.32" width="11.75" height="67.94"/><rect class="cls-4" x="68.42" y="77.81" width="68.44" height="67.94"/><rect class="cls-5" x="68.42" y="77.81" width="68.44" height="11.66"/><rect class="cls-5" x="105.19" y="109.76" width="13.28" height="4.06"/><rect class="cls-5" x="87.13" y="109.76" width="13.28" height="4.06"/><rect class="cls-5" x="69.06" y="109.76" width="13.28" height="4.06"/><rect class="cls-5" x="124.09" y="109.76" width="12.77" height="4.06"/><rect class="cls-5" x="68.42" y="134.09" width="68.44" height="11.66"/><rect class="cls-4" y="77.81" width="68.44" height="67.94"/><rect class="cls-5" y="77.81" width="68.44" height="11.66"/><rect class="cls-5" x="36.77" y="109.76" width="13.28" height="4.06"/><rect class="cls-5" x="18.71" y="109.76" width="13.28" height="4.06"/><rect class="cls-5" x="0.65" y="109.76" width="13.28" height="4.06"/><rect class="cls-5" x="55.67" y="109.76" width="12.77" height="4.06"/><rect class="cls-5" y="134.09" width="68.44" height="11.66"/><path class="cls-2" d="M280.93,277.11H211.74c0,38,31,68.73,69.19,68.73Z" transform="translate(-0.03 -0.44)"/><path class="cls-3" d="M280.93,277.11H223.61c0,31.29,25.82,56.93,57.31,56.93Z" transform="translate(-0.03 -0.44)"/><path class="cls-2" d="M280.93,277.11H244.26a36.68,36.68,0,0,0,36.66,36.41Z" transform="translate(-0.03 -0.44)"/><path class="cls-3" d="M280.93,277.11H248.4a32.28,32.28,0,0,0,32.53,32.31Z" transform="translate(-0.03 -0.44)"/><path class="cls-2" d="M280.93,277.11H269.05a11.64,11.64,0,0,0,11.87,11.8Z" transform="translate(-0.03 -0.44)"/><rect class="cls-4" x="235.97" y="276.67" width="26.33" height="5.13"/><polygon class="cls-3" points="236.49 300.77 239.07 304.87 261.79 292.05 259.21 287.44 236.49 300.77"/><polygon class="cls-3" points="254.56 314.62 258.69 317.69 273.67 296.15 269.54 293.08 254.56 314.62"/><rect class="cls-4" x="275.73" y="291.54" width="5.16" height="26.16"/><rect class="cls-4" x="211.7" y="207.94" width="69.19" height="68.73"/><rect class="cls-5" x="269.02" y="207.94" width="11.87" height="68.73"/><rect class="cls-5" x="244.23" y="207.94" width="4.13" height="12.82"/><rect class="cls-5" x="244.23" y="226.4" width="4.13" height="13.34"/><rect class="cls-5" x="244.23" y="244.87" width="4.13" height="13.33"/><rect class="cls-5" x="244.23" y="263.84" width="4.13" height="12.82"/><rect class="cls-5" x="211.7" y="207.94" width="11.88" height="68.73"/><rect class="cls-4" x="211.81" y="139.16" width="69.19" height="68.73"/><rect class="cls-5" x="269.13" y="139.16" width="11.87" height="68.73"/><rect class="cls-5" x="244.34" y="139.16" width="4.13" height="12.82"/><rect class="cls-5" x="244.34" y="157.63" width="4.13" height="13.34"/><rect class="cls-5" x="244.34" y="175.31" width="4.13" height="13.34"/><rect class="cls-5" x="244.34" y="192.99" width="4.13" height="13.34"/><rect class="cls-5" x="211.81" y="139.16" width="11.88" height="68.73"/><rect class="cls-4" x="211.81" y="69.58" width="69.19" height="68.73"/><rect class="cls-5" x="269.13" y="69.58" width="11.87" height="68.73"/><rect class="cls-5" x="244.34" y="69.58" width="4.13" height="12.82"/><rect class="cls-5" x="244.34" y="88.04" width="4.13" height="13.34"/><rect class="cls-5" x="244.34" y="105.72" width="4.13" height="13.34"/><rect class="cls-5" x="244.34" y="123.4" width="4.13" height="13.34"/><rect class="cls-5" x="211.81" y="69.58" width="11.88" height="68.73"/><rect class="cls-4" x="211.81" width="69.19" height="68.73"/><rect class="cls-5" x="269.13" width="11.87" height="68.73"/><rect class="cls-5" x="244.34" width="4.13" height="12.82"/><rect class="cls-5" x="244.34" y="18.46" width="4.13" height="13.34"/><rect class="cls-5" x="244.34" y="36.14" width="4.13" height="13.34"/><rect class="cls-5" x="244.34" y="53.82" width="4.13" height="13.34"/><rect class="cls-5" x="211.81" width="11.88" height="68.73"/><rect class="cls-4" x="280.9" y="276.67" width="69.19" height="68.73"/><rect class="cls-5" x="280.9" y="333.59" width="69.19" height="11.8"/><rect class="cls-5" x="299.48" y="308.98" width="13.43" height="4.1"/><rect class="cls-5" x="317.75" y="308.98" width="13.43" height="4.1"/><rect class="cls-5" x="336.01" y="308.98" width="13.43" height="4.1"/><rect class="cls-5" x="280.9" y="308.98" width="12.91" height="4.1"/><rect class="cls-5" x="280.9" y="276.67" width="69.19" height="11.8"/><rect class="cls-4" x="350.07" y="276.67" width="69.19" height="68.73"/><rect class="cls-5" x="350.07" y="333.59" width="69.19" height="11.8"/><rect class="cls-5" x="368.66" y="308.98" width="13.43" height="4.1"/><rect class="cls-5" x="386.92" y="308.98" width="13.43" height="4.1"/><rect class="cls-5" x="405.18" y="308.98" width="13.43" height="4.1"/><rect class="cls-5" x="350.07" y="308.98" width="12.91" height="4.1"/><rect class="cls-5" x="350.07" y="276.67" width="69.19" height="11.8"/></g></g></g></svg>