<svg xmlns="http://www.w3.org/2000/svg" viewBox="0 0 417.01 204.88"><defs><style>.cls-1{opacity:0.5;}.cls-2,.cls-5{fill:#f5e8d5;}.cls-2,.cls-3{fill-rule:evenodd;}.cls-3,.cls-4{fill:#685b40;}</style></defs><title>Camioneta_3</title><g id="Capa_2" data-name="Capa 2"><g id="Capa_1-2" data-name="Capa 1"><g class="cls-1"><path class="cls-2" d="M278.73,146.35V77.91c-38.5,0-69.71,30.64-69.71,68.43Z" transform="translate(-1.19 -77.91)"/><path class="cls-3" d="M278.73,146.35V89.66C247,89.66,221,115.2,221,146.35Z" transform="translate(-1.19 -77.91)"/><path class="cls-2" d="M278.73,146.35V110.09c-20.29,0-36.94,16.34-36.94,36.26Z" transform="translate(-1.19 -77.91)"/><path class="cls-3" d="M278.73,146.35V114.17c-18.21,0-32.78,14.3-32.78,32.17Z" transform="translate(-1.19 -77.91)"/><path class="cls-2" d="M278.73,146.35V134.6a11.67,11.67,0,0,0-12,11.74Z" transform="translate(-1.19 -77.91)"/><rect class="cls-4" x="272.33" y="24" width="5.2" height="26.04"/><polygon class="cls-3" points="253.08 24.52 248.92 27.07 261.93 49.54 266.61 46.98 253.08 24.52"/><polygon class="cls-3" points="239.04 42.39 235.92 46.47 257.76 61.29 260.89 57.2 239.04 42.39"/><rect class="cls-4" x="235.92" y="63.33" width="26.53" height="5.11"/><rect class="cls-4" x="277.53" width="69.71" height="68.43"/><rect class="cls-5" x="277.53" y="56.69" width="69.71" height="11.74"/><rect class="cls-5" x="334.24" y="32.17" width="13.01" height="4.09"/><rect class="cls-5" x="314.99" y="32.17" width="13.53" height="4.09"/><rect class="cls-5" x="296.26" y="32.17" width="13.53" height="4.09"/><rect class="cls-5" x="277.53" y="32.17" width="13.01" height="4.09"/><rect class="cls-5" x="277.53" width="69.71" height="11.75"/><rect class="cls-4" x="138.09" y="136.35" width="69.71" height="68.43"/><rect class="cls-5" x="138.09" y="193.04" width="69.71" height="11.74"/><rect class="cls-5" x="194.8" y="168.52" width="13.01" height="4.09"/><rect class="cls-5" x="175.55" y="168.52" width="13.53" height="4.09"/><rect class="cls-5" x="157.62" y="168.52" width="13.53" height="4.09"/><rect class="cls-5" x="139.68" y="168.52" width="13.53" height="4.09"/><rect class="cls-5" x="138.09" y="136.35" width="69.71" height="11.75"/><rect class="cls-4" x="69.05" y="136.35" width="69.71" height="68.43"/><rect class="cls-5" x="69.05" y="193.04" width="69.71" height="11.74"/><rect class="cls-5" x="125.75" y="168.52" width="13.01" height="4.09"/><rect class="cls-5" x="106.5" y="168.52" width="13.53" height="4.09"/><rect class="cls-5" x="88.57" y="168.52" width="13.53" height="4.09"/><rect class="cls-5" x="70.64" y="168.52" width="13.53" height="4.09"/><rect class="cls-5" x="69.05" y="136.35" width="69.71" height="11.75"/><rect class="cls-4" y="136.35" width="69.71" height="68.43"/><rect class="cls-5" y="193.04" width="69.71" height="11.74"/><rect class="cls-5" x="56.71" y="168.52" width="13.01" height="4.09"/><rect class="cls-5" x="37.46" y="168.52" width="13.53" height="4.09"/><rect class="cls-5" x="19.52" y="168.52" width="13.53" height="4.09"/><rect class="cls-5" x="1.59" y="168.52" width="13.53" height="4.09"/><rect class="cls-5" y="136.35" width="69.71" height="11.75"/><rect class="cls-4" x="347.3" y="0.11" width="69.71" height="68.43"/><rect class="cls-5" x="347.3" y="56.8" width="69.71" height="11.74"/><rect class="cls-5" x="404" y="32.28" width="13.01" height="4.09"/><rect class="cls-5" x="384.75" y="32.28" width="13.53" height="4.09"/><rect class="cls-5" x="366.82" y="32.28" width="13.53" height="4.09"/><rect class="cls-5" x="348.89" y="32.28" width="13.53" height="4.09"/><rect class="cls-5" x="347.3" y="0.11" width="69.71" height="11.75"/><rect class="cls-4" x="207.82" y="68.43" width="69.71" height="68.44"/><rect class="cls-5" x="207.82" y="68.43" width="11.97" height="68.44"/><rect class="cls-5" x="240.6" y="86.82" width="4.16" height="13.28"/><rect class="cls-5" x="240.6" y="104.88" width="4.16" height="13.28"/><rect class="cls-5" x="240.6" y="122.95" width="4.16" height="13.28"/><rect class="cls-5" x="240.6" y="68.43" width="4.16" height="12.77"/><rect class="cls-5" x="265.57" y="68.43" width="11.97" height="68.44"/><path class="cls-2" d="M209,214.35v68.44c38.5,0,69.71-30.64,69.71-68.44Z" transform="translate(-1.19 -77.91)"/><path class="cls-3" d="M209,214.35V271c31.74,0,57.75-25.54,57.75-56.69Z" transform="translate(-1.19 -77.91)"/><path class="cls-2" d="M209,214.35v36.26c20.29,0,36.94-16.34,36.94-36.26Z" transform="translate(-1.19 -77.91)"/><path class="cls-3" d="M209,214.35v32.18c18.21,0,32.78-14.3,32.78-32.18Z" transform="translate(-1.19 -77.91)"/><path class="cls-2" d="M209,214.35V226.1a11.67,11.67,0,0,0,12-11.75Z" transform="translate(-1.19 -77.91)"/><rect class="cls-4" x="207.79" y="154.82" width="5.2" height="26.05"/><polygon class="cls-3" points="232.24 180.36 236.4 177.81 223.4 155.33 218.72 157.89 232.24 180.36"/><polygon class="cls-3" points="246.29 162.49 249.41 158.4 227.56 143.59 224.44 147.68 246.29 162.49"/><rect class="cls-4" x="222.88" y="136.44" width="26.53" height="5.11"/></g></g></g></svg>