<svg xmlns="http://www.w3.org/2000/svg" viewBox="0 0 400 230"><defs><style>.cls-1{fill:#4b9839;}.cls-2{fill:#0f8537;}.cls-3{fill:#8bc53f;}.cls-4{fill:#d98036;}.cls-5{fill:#b8532a;}.cls-6{fill:#faaf40;}.cls-7{fill:#f6921e;}.cls-8{fill:#56b8d5;}.cls-9{fill:#005486;}.cls-10{fill:#131f44;}.cls-11{fill:#0091a0;}.cls-12{fill:#29acb8;}.cls-13{fill:#2d2932;}.cls-14{fill:#fff;}.cls-15{fill:#92cdd3;}.cls-16{fill:#5b85b2;}.cls-17{fill:#003864;}.cls-18{fill:#486c85;}.cls-19{fill:#e8413c;}.cls-20{fill:#f26e42;}.cls-21{fill:#efd5b2;}.cls-22{fill:#81b73a;}.cls-23{fill:#2b983e;}.cls-24{fill:#ffdd15;}.cls-25{fill:#37b34a;}.cls-26{fill:#61adb5;}.cls-27{fill:#116974;}.cls-28{fill:#69bac2;}.cls-29{fill:#008a99;}.cls-30{fill:#0b6779;}.cls-31{fill:#356f24;}.cls-32{fill:#b4d234;}.cls-33{fill:#4c301f;}.cls-34{fill:none;}</style></defs><title>Juego_Avion_2</title><g id="Capa_2" data-name="Capa 2"><g id="Arte"><path class="cls-1" d="M190.15,161.76a7.57,7.57,0,0,1-1.14-3.83,7.85,7.85,0,0,1,7.85-7.85,7.65,7.65,0,0,1,3.3.78,20.23,20.23,0,0,1,36.37,9.25c.09,0,.19,0,.28,0a11.6,11.6,0,1,1-8.55,19.38,20.12,20.12,0,0,1-23.6,0,11.57,11.57,0,1,1-14.51-17.7Z"/><path class="cls-1" d="M32.63,186.33a7.57,7.57,0,0,1-2.06-3.42,7.85,7.85,0,0,1,5.63-9.57,7.65,7.65,0,0,1,3.39-.07,20.23,20.23,0,0,1,37.53-.15c.09,0,.18-.08.27-.1A11.6,11.6,0,1,1,74,193.93a20.12,20.12,0,0,1-22.85,5.9,11.57,11.57,0,1,1-18.48-13.51Z"/><path class="cls-1" d="M138.38,162.2a4.85,4.85,0,0,1,4.25-7.42,4.84,4.84,0,0,1,2.08.5,12.82,12.82,0,0,1,23,5.86h.19a7.35,7.35,0,1,1-5.43,12.28,12.75,12.75,0,0,1-15,0,7.33,7.33,0,1,1-9.19-11.2Z"/><path class="cls-2" d="M128.08,172.19a4.86,4.86,0,0,1-.72-2.45,5,5,0,0,1,5-5,4.74,4.74,0,0,1,2.1.5,12.81,12.81,0,0,1,23,5.86c.06,0,.12,0,.19,0a7.35,7.35,0,1,1-5.43,12.28,12.75,12.75,0,0,1-15,0,7.33,7.33,0,1,1-9.2-11.2Z"/><path class="cls-2" d="M80.23,180.94a4.84,4.84,0,0,1-1.12-2.29,5,5,0,0,1,4.07-5.73,4.75,4.75,0,0,1,2.15.15A12.81,12.81,0,0,1,109,175c.06,0,.11-.05.18-.06a7.35,7.35,0,0,1,2.46,14.5,7.29,7.29,0,0,1-5.76-1.48,12.75,12.75,0,0,1-14.75,2.5,7.33,7.33,0,1,1-10.95-9.5Z"/><path class="cls-3" d="M229.36,170.24a5.56,5.56,0,0,1-.83-2.79,5.69,5.69,0,0,1,5.68-5.69,5.53,5.53,0,0,1,2.38.58,14.65,14.65,0,0,1,26.34,6.7l.22,0a8.4,8.4,0,1,1,0,16.8A8.32,8.32,0,0,1,257,183a14.55,14.55,0,0,1-17.09,0,8.38,8.38,0,1,1-10.52-12.79Z"/><path class="cls-3" d="M134,176a3.52,3.52,0,0,0,.31-1.81,3.63,3.63,0,0,0-4-3.16,3.7,3.7,0,0,0-1.47.55,9.34,9.34,0,0,0-16.12,6.32h-.14a5.35,5.35,0,1,0,5,8.38,9.27,9.27,0,0,0,10.8-1.35A5.34,5.34,0,1,0,134,176Z"/><path class="cls-3" d="M40.76,197.29a5.38,5.38,0,0,0-3.67-3.78,3.51,3.51,0,0,0,.07-1.83,3.63,3.63,0,0,0-4.41-2.62,3.7,3.7,0,0,0-1.38.74,9.31,9.31,0,0,0-11.73-.06v18.42a5.42,5.42,0,0,0,2.47-2.35,9.28,9.28,0,0,0,10.54-2.71,5.34,5.34,0,0,0,8.11-5.81Z"/><path class="cls-3" d="M165.9,171.34a5.06,5.06,0,0,1-.78-2.58,5.26,5.26,0,0,1,5.27-5.26,5,5,0,0,1,2.21.53A13.56,13.56,0,0,1,197,170.22h.18a7.77,7.77,0,1,1-5.73,13,13.47,13.47,0,0,1-15.83,0,7.75,7.75,0,1,1-9.72-11.85Z"/><path class="cls-4" d="M274.51,97.06s-2.5-1.88-16.25-1.88S242,97.06,242,97.06V23.79a71.07,71.07,0,0,1,32.49,0Z"/><polygon class="cls-5" points="242.02 23.79 234.86 29.3 234.86 94.26 242.02 94.26 242.02 23.79"/><path class="cls-6" d="M282.43,204.89s-3.46-2.61-22.5-2.61-22.5,2.61-22.5,2.61V32.16a98.39,98.39,0,0,1,45,0Z"/><polygon class="cls-7" points="237.43 32.16 227.52 39.78 227.52 201.02 237.43 201.02 237.43 32.16"/><path class="cls-7" d="M279.18,42.59s-3-2.61-19.4-2.61-19.4,2.61-19.4,2.61V40a73.55,73.55,0,0,1,38.8,0Z"/><path class="cls-7" d="M279.18,47.8s-3-2.61-19.4-2.61-19.4,2.61-19.4,2.61V45.19a73.46,73.46,0,0,1,38.8,0Z"/><path class="cls-7" d="M279.18,53s-3-2.61-19.4-2.61S240.38,53,240.38,53V50.41a73.49,73.49,0,0,1,38.8,0Z"/><path class="cls-7" d="M279.18,58.23s-3-2.61-19.4-2.61-19.4,2.61-19.4,2.61V55.62a73.5,73.5,0,0,1,38.8,0Z"/><path class="cls-7" d="M279.18,63.45s-3-2.61-19.4-2.61-19.4,2.61-19.4,2.61V60.84a73.48,73.48,0,0,1,38.8,0Z"/><path class="cls-7" d="M279.18,68.66s-3-2.61-19.4-2.61-19.4,2.61-19.4,2.61V66.05a73.52,73.52,0,0,1,38.8,0Z"/><path class="cls-7" d="M279.18,73.87s-3-2.61-19.4-2.61-19.4,2.61-19.4,2.61V71.27a73.47,73.47,0,0,1,38.8,0Z"/><path class="cls-7" d="M278.75,79.09s-3-2.61-19.4-2.61-19.4,2.61-19.4,2.61V76.48a73.48,73.48,0,0,1,38.8,0Z"/><path class="cls-7" d="M278.75,84.3s-3-2.61-19.4-2.61-19.4,2.61-19.4,2.61V81.7a73.53,73.53,0,0,1,38.8,0Z"/><path class="cls-7" d="M278.6,88.31s-3-2.61-19.4-2.61-19.4,2.61-19.4,2.61V85.71a73.47,73.47,0,0,1,38.8,0Z"/><rect class="cls-8" x="201.29" y="61.87" width="26.94" height="126.89"/><polygon class="cls-9" points="228.23 188.76 240.53 188.76 240.53 75.69 228.23 61.87 228.23 188.76"/><rect class="cls-10" x="203.56" y="67.99" width="2.9" height="4.17"/><rect class="cls-10" x="208.62" y="67.99" width="2.9" height="4.17"/><rect class="cls-10" x="213.68" y="67.99" width="2.9" height="4.17"/><rect class="cls-10" x="218.73" y="67.99" width="2.9" height="4.17"/><rect class="cls-10" x="208.62" y="74.01" width="2.9" height="4.17"/><rect class="cls-10" x="218.73" y="74.01" width="2.9" height="4.17"/><rect class="cls-10" x="223.79" y="74.01" width="2.9" height="4.17"/><rect class="cls-10" x="203.56" y="80.03" width="2.9" height="4.17"/><rect class="cls-10" x="208.62" y="80.03" width="2.9" height="4.17"/><rect class="cls-10" x="213.68" y="80.03" width="2.9" height="4.17"/><rect class="cls-10" x="218.73" y="80.03" width="2.9" height="4.17"/><rect class="cls-10" x="223.79" y="80.03" width="2.9" height="4.17"/><rect class="cls-10" x="203.56" y="86.05" width="2.9" height="4.17"/><rect class="cls-10" x="208.62" y="86.05" width="2.9" height="4.17"/><rect class="cls-10" x="218.73" y="86.05" width="2.9" height="4.17"/><rect class="cls-10" x="208.62" y="92.06" width="2.9" height="4.17"/><rect class="cls-10" x="213.68" y="92.06" width="2.9" height="4.17"/><rect class="cls-10" x="218.73" y="92.06" width="2.9" height="4.17"/><rect class="cls-10" x="223.79" y="92.06" width="2.9" height="4.17"/><rect class="cls-10" x="203.56" y="98.08" width="2.9" height="4.17"/><rect class="cls-10" x="208.62" y="98.08" width="2.9" height="4.17"/><rect class="cls-10" x="213.68" y="98.08" width="2.9" height="4.17"/><rect class="cls-10" x="223.79" y="98.08" width="2.9" height="4.17"/><rect class="cls-10" x="203.56" y="104.1" width="2.9" height="4.17"/><rect class="cls-10" x="213.68" y="104.1" width="2.9" height="4.17"/><rect class="cls-10" x="218.73" y="104.1" width="2.9" height="4.17"/><rect class="cls-10" x="203.56" y="110.11" width="2.9" height="4.17"/><rect class="cls-10" x="208.62" y="110.11" width="2.9" height="4.17"/><rect class="cls-10" x="223.79" y="110.11" width="2.9" height="4.17"/><rect class="cls-10" x="208.62" y="116.13" width="2.9" height="4.17"/><rect class="cls-10" x="213.68" y="116.13" width="2.9" height="4.17"/><rect class="cls-10" x="218.73" y="116.13" width="2.9" height="4.17"/><rect class="cls-10" x="223.79" y="116.13" width="2.9" height="4.17"/><rect class="cls-10" x="203.56" y="121.38" width="2.9" height="4.17"/><rect class="cls-10" x="213.68" y="121.38" width="2.9" height="4.17"/><rect class="cls-10" x="218.73" y="121.38" width="2.9" height="4.17"/><rect class="cls-10" x="223.79" y="121.38" width="2.9" height="4.17"/><rect class="cls-10" x="208.62" y="127.4" width="2.9" height="4.17"/><rect class="cls-10" x="218.73" y="127.4" width="2.9" height="4.17"/><rect class="cls-10" x="203.56" y="133.42" width="2.9" height="4.17"/><rect class="cls-10" x="213.68" y="133.42" width="2.9" height="4.17"/><rect class="cls-10" x="223.79" y="133.42" width="2.9" height="4.17"/><rect class="cls-11" x="61.12" y="66.88" width="22.14" height="13.65"/><rect class="cls-12" x="57.93" y="77.34" width="29.98" height="116.5"/><rect class="cls-13" x="74.53" y="40.03" width="1.28" height="26.85"/><rect class="cls-14" x="61.11" y="80.25" width="2.47" height="4.03"/><rect class="cls-14" x="65.42" y="80.25" width="2.47" height="4.03"/><rect class="cls-14" x="69.74" y="80.25" width="2.47" height="4.03"/><rect class="cls-14" x="74.05" y="80.25" width="2.48" height="4.03"/><rect class="cls-14" x="78.36" y="80.25" width="2.48" height="4.03"/><rect class="cls-14" x="61.11" y="86.07" width="2.47" height="4.03"/><rect class="cls-14" x="65.42" y="86.07" width="2.47" height="4.03"/><rect class="cls-14" x="69.74" y="86.07" width="2.47" height="4.03"/><rect class="cls-14" x="74.05" y="86.07" width="2.48" height="4.03"/><rect class="cls-14" x="78.36" y="86.07" width="2.48" height="4.03"/><rect class="cls-14" x="61.11" y="91.89" width="2.47" height="4.03"/><rect class="cls-14" x="65.42" y="91.89" width="2.47" height="4.03"/><rect class="cls-14" x="69.74" y="91.89" width="2.47" height="4.03"/><rect class="cls-14" x="74.05" y="91.89" width="2.48" height="4.03"/><rect class="cls-14" x="78.36" y="91.89" width="2.48" height="4.03"/><rect class="cls-14" x="61.11" y="97.71" width="2.47" height="4.03"/><rect class="cls-14" x="65.42" y="97.71" width="2.47" height="4.03"/><rect class="cls-14" x="69.74" y="97.71" width="2.47" height="4.03"/><rect class="cls-14" x="74.05" y="97.71" width="2.48" height="4.03"/><rect class="cls-14" x="78.36" y="97.71" width="2.48" height="4.03"/><rect class="cls-14" x="61.11" y="103.54" width="2.47" height="4.03"/><rect class="cls-14" x="65.42" y="103.54" width="2.47" height="4.03"/><rect class="cls-14" x="69.74" y="103.54" width="2.47" height="4.03"/><rect class="cls-14" x="74.05" y="103.54" width="2.48" height="4.03"/><rect class="cls-14" x="78.36" y="103.54" width="2.48" height="4.03"/><rect class="cls-14" x="61.11" y="109.36" width="2.47" height="4.03"/><rect class="cls-14" x="65.42" y="109.36" width="2.47" height="4.03"/><rect class="cls-14" x="69.74" y="109.36" width="2.47" height="4.03"/><rect class="cls-14" x="74.05" y="109.36" width="2.48" height="4.03"/><rect class="cls-14" x="78.36" y="109.36" width="2.48" height="4.03"/><rect class="cls-14" x="61.11" y="115.18" width="2.47" height="4.03"/><rect class="cls-14" x="65.42" y="115.18" width="2.47" height="4.03"/><rect class="cls-14" x="69.74" y="115.18" width="2.47" height="4.03"/><rect class="cls-14" x="74.05" y="115.18" width="2.48" height="4.03"/><rect class="cls-14" x="78.36" y="115.18" width="2.48" height="4.03"/><rect class="cls-14" x="82.32" y="80.25" width="2.48" height="4.03"/><rect class="cls-14" x="82.32" y="86.07" width="2.48" height="4.03"/><rect class="cls-14" x="82.32" y="91.89" width="2.48" height="4.03"/><rect class="cls-14" x="82.32" y="97.71" width="2.48" height="4.03"/><rect class="cls-14" x="82.32" y="103.54" width="2.48" height="4.03"/><rect class="cls-14" x="82.32" y="109.36" width="2.48" height="4.03"/><rect class="cls-14" x="82.32" y="115.18" width="2.48" height="4.03"/><rect class="cls-14" x="61.08" y="121.57" width="2.48" height="4.03"/><rect class="cls-14" x="65.39" y="121.57" width="2.48" height="4.03"/><rect class="cls-14" x="69.7" y="121.57" width="2.48" height="4.03"/><rect class="cls-14" x="74.01" y="121.57" width="2.48" height="4.03"/><rect class="cls-14" x="78.32" y="121.57" width="2.48" height="4.03"/><rect class="cls-14" x="61.08" y="127.4" width="2.48" height="4.03"/><rect class="cls-14" x="65.39" y="127.4" width="2.48" height="4.03"/><rect class="cls-14" x="69.7" y="127.4" width="2.48" height="4.03"/><rect class="cls-14" x="74.01" y="127.4" width="2.48" height="4.03"/><rect class="cls-14" x="78.32" y="127.4" width="2.48" height="4.03"/><rect class="cls-14" x="61.08" y="133.22" width="2.48" height="4.03"/><rect class="cls-14" x="65.39" y="133.22" width="2.48" height="4.03"/><rect class="cls-14" x="69.7" y="133.22" width="2.48" height="4.03"/><rect class="cls-14" x="74.01" y="133.22" width="2.48" height="4.03"/><rect class="cls-14" x="78.32" y="133.22" width="2.48" height="4.03"/><rect class="cls-14" x="61.08" y="139.04" width="2.48" height="4.03"/><rect class="cls-14" x="65.39" y="139.04" width="2.48" height="4.03"/><rect class="cls-14" x="69.7" y="139.04" width="2.48" height="4.03"/><rect class="cls-14" x="74.01" y="139.04" width="2.48" height="4.03"/><rect class="cls-14" x="78.32" y="139.04" width="2.48" height="4.03"/><rect class="cls-14" x="61.08" y="144.86" width="2.48" height="4.03"/><rect class="cls-14" x="65.39" y="144.86" width="2.48" height="4.03"/><rect class="cls-14" x="69.7" y="144.86" width="2.48" height="4.03"/><rect class="cls-14" x="74.01" y="144.86" width="2.48" height="4.03"/><rect class="cls-14" x="78.32" y="144.86" width="2.48" height="4.03"/><rect class="cls-14" x="61.08" y="150.69" width="2.48" height="4.03"/><rect class="cls-14" x="65.39" y="150.69" width="2.48" height="4.03"/><rect class="cls-14" x="69.7" y="150.69" width="2.48" height="4.03"/><rect class="cls-14" x="74.01" y="150.69" width="2.48" height="4.03"/><rect class="cls-14" x="78.32" y="150.69" width="2.48" height="4.03"/><rect class="cls-14" x="61.08" y="156.51" width="2.48" height="4.03"/><rect class="cls-14" x="65.39" y="156.51" width="2.48" height="4.03"/><rect class="cls-14" x="69.7" y="156.51" width="2.48" height="4.03"/><rect class="cls-14" x="74.01" y="156.51" width="2.48" height="4.03"/><rect class="cls-14" x="78.32" y="156.51" width="2.48" height="4.03"/><rect class="cls-14" x="82.29" y="121.57" width="2.48" height="4.03"/><rect class="cls-14" x="82.29" y="127.4" width="2.48" height="4.03"/><rect class="cls-14" x="82.29" y="133.22" width="2.48" height="4.03"/><rect class="cls-14" x="82.29" y="139.04" width="2.48" height="4.03"/><rect class="cls-14" x="82.29" y="144.86" width="2.48" height="4.03"/><rect class="cls-14" x="82.29" y="150.69" width="2.48" height="4.03"/><rect class="cls-14" x="82.29" y="156.51" width="2.48" height="4.03"/><polygon class="cls-15" points="117.07 194.27 89.35 194.27 89.35 102.34 106.56 77.77 117.07 77.77 117.07 194.27"/><polygon class="cls-16" points="134.28 100.35 116.77 119.85 116.77 194.74 134.28 194.74 134.28 100.35"/><rect class="cls-17" x="121.51" y="121.14" width="1.41" height="2.84"/><rect class="cls-17" x="123.96" y="121.14" width="1.41" height="2.84"/><rect class="cls-17" x="126.41" y="121.14" width="1.41" height="2.84"/><rect class="cls-17" x="128.86" y="121.14" width="1.41" height="2.84"/><rect class="cls-17" x="119.06" y="125.24" width="1.41" height="2.84"/><rect class="cls-17" x="121.51" y="125.24" width="1.41" height="2.84"/><rect class="cls-17" x="123.96" y="125.24" width="1.41" height="2.84"/><rect class="cls-17" x="126.41" y="125.24" width="1.41" height="2.84"/><rect class="cls-17" x="128.86" y="125.24" width="1.41" height="2.84"/><rect class="cls-17" x="119.06" y="129.34" width="1.41" height="2.84"/><rect class="cls-17" x="121.51" y="129.34" width="1.41" height="2.84"/><rect class="cls-17" x="123.96" y="129.34" width="1.41" height="2.84"/><rect class="cls-17" x="126.41" y="129.34" width="1.41" height="2.84"/><rect class="cls-17" x="128.86" y="129.34" width="1.41" height="2.84"/><rect class="cls-17" x="119.06" y="133.44" width="1.41" height="2.84"/><rect class="cls-17" x="121.51" y="133.44" width="1.41" height="2.84"/><rect class="cls-17" x="123.96" y="133.44" width="1.41" height="2.84"/><rect class="cls-17" x="126.41" y="133.44" width="1.41" height="2.84"/><rect class="cls-17" x="128.86" y="133.44" width="1.41" height="2.84"/><rect class="cls-17" x="119.06" y="137.55" width="1.41" height="2.84"/><rect class="cls-17" x="121.51" y="137.55" width="1.41" height="2.84"/><rect class="cls-17" x="123.96" y="137.55" width="1.41" height="2.84"/><rect class="cls-17" x="126.41" y="137.55" width="1.41" height="2.84"/><rect class="cls-17" x="128.86" y="137.55" width="1.41" height="2.84"/><rect class="cls-17" x="119.06" y="141.65" width="1.41" height="2.84"/><rect class="cls-17" x="121.51" y="141.65" width="1.41" height="2.84"/><rect class="cls-17" x="123.96" y="141.65" width="1.41" height="2.84"/><rect class="cls-17" x="126.41" y="141.65" width="1.41" height="2.84"/><rect class="cls-17" x="128.86" y="141.65" width="1.41" height="2.84"/><rect class="cls-17" x="119.06" y="145.75" width="1.41" height="2.84"/><rect class="cls-17" x="121.51" y="145.75" width="1.41" height="2.84"/><rect class="cls-17" x="123.96" y="145.75" width="1.41" height="2.84"/><rect class="cls-17" x="126.41" y="145.75" width="1.41" height="2.84"/><rect class="cls-17" x="128.86" y="145.75" width="1.41" height="2.84"/><rect class="cls-17" x="131.11" y="121.14" width="1.41" height="2.84"/><rect class="cls-18" x="94.53" y="106.06" width="1.73" height="82.99"/><rect class="cls-18" x="97.83" y="106.06" width="1.73" height="82.99"/><rect class="cls-18" x="101.14" y="106.06" width="1.73" height="82.99"/><rect class="cls-18" x="104.44" y="106.06" width="1.73" height="82.99"/><rect class="cls-18" x="107.75" y="106.06" width="1.73" height="82.99"/><rect class="cls-18" x="111.05" y="106.06" width="1.73" height="82.99"/><rect class="cls-17" x="131.11" y="125.24" width="1.41" height="2.84"/><rect class="cls-17" x="131.11" y="129.34" width="1.41" height="2.84"/><rect class="cls-17" x="131.11" y="133.44" width="1.41" height="2.84"/><rect class="cls-17" x="131.11" y="137.55" width="1.41" height="2.84"/><rect class="cls-17" x="131.11" y="141.65" width="1.41" height="2.84"/><rect class="cls-17" x="131.11" y="145.75" width="1.41" height="2.84"/><rect class="cls-17" x="128.86" y="109.13" width="1.41" height="2.84"/><rect class="cls-17" x="126.41" y="113.23" width="1.41" height="2.84"/><rect class="cls-17" x="128.86" y="113.23" width="1.41" height="2.84"/><rect class="cls-17" x="123.96" y="117.34" width="1.41" height="2.84"/><rect class="cls-17" x="126.41" y="117.34" width="1.41" height="2.84"/><rect class="cls-17" x="128.86" y="117.34" width="1.41" height="2.84"/><rect class="cls-17" x="131.11" y="109.13" width="1.41" height="2.84"/><rect class="cls-17" x="131.11" y="113.23" width="1.41" height="2.84"/><rect class="cls-17" x="131.11" y="117.34" width="1.41" height="2.84"/><rect class="cls-19" x="140.12" y="47.7" width="36.25" height="140.88"/><rect class="cls-20" x="144.86" y="35.04" width="26.77" height="153.57"/><rect class="cls-13" x="157.47" y="2.58" width="1.55" height="32.47"/><rect class="cls-21" x="148.66" y="39.45" width="2.13" height="5.09"/><rect class="cls-21" x="152.38" y="39.45" width="2.13" height="5.09"/><rect class="cls-21" x="156.09" y="39.45" width="2.13" height="5.09"/><rect class="cls-21" x="159.81" y="39.45" width="2.13" height="5.09"/><rect class="cls-21" x="163.52" y="39.45" width="2.13" height="5.09"/><rect class="cls-21" x="148.66" y="46.81" width="2.13" height="5.09"/><rect class="cls-21" x="152.38" y="46.81" width="2.13" height="5.09"/><rect class="cls-21" x="156.09" y="46.81" width="2.13" height="5.09"/><rect class="cls-21" x="159.81" y="46.81" width="2.13" height="5.09"/><rect class="cls-21" x="163.52" y="46.81" width="2.13" height="5.09"/><rect class="cls-21" x="148.66" y="54.17" width="2.13" height="5.09"/><rect class="cls-21" x="152.38" y="54.17" width="2.13" height="5.09"/><rect class="cls-21" x="156.09" y="54.17" width="2.13" height="5.09"/><rect class="cls-21" x="159.81" y="54.17" width="2.13" height="5.09"/><rect class="cls-21" x="163.52" y="54.17" width="2.13" height="5.09"/><rect class="cls-21" x="148.66" y="61.53" width="2.13" height="5.09"/><rect class="cls-21" x="152.38" y="61.53" width="2.13" height="5.09"/><rect class="cls-21" x="156.09" y="61.53" width="2.13" height="5.09"/><rect class="cls-21" x="159.81" y="61.53" width="2.13" height="5.09"/><rect class="cls-21" x="163.52" y="61.53" width="2.13" height="5.09"/><rect class="cls-21" x="148.66" y="68.89" width="2.13" height="5.09"/><rect class="cls-21" x="152.38" y="68.89" width="2.13" height="5.09"/><rect class="cls-21" x="156.09" y="68.89" width="2.13" height="5.09"/><rect class="cls-21" x="159.81" y="68.89" width="2.13" height="5.09"/><rect class="cls-21" x="163.52" y="68.89" width="2.13" height="5.09"/><rect class="cls-21" x="148.66" y="76.25" width="2.13" height="5.09"/><rect class="cls-21" x="152.38" y="76.25" width="2.13" height="5.09"/><rect class="cls-21" x="156.09" y="76.25" width="2.13" height="5.09"/><rect class="cls-21" x="159.81" y="76.25" width="2.13" height="5.09"/><rect class="cls-21" x="163.52" y="76.25" width="2.13" height="5.09"/><rect class="cls-21" x="148.66" y="83.61" width="2.13" height="5.09"/><rect class="cls-21" x="152.38" y="83.61" width="2.13" height="5.09"/><rect class="cls-21" x="156.09" y="83.61" width="2.13" height="5.09"/><rect class="cls-21" x="159.81" y="83.61" width="2.13" height="5.09"/><rect class="cls-21" x="163.52" y="83.61" width="2.13" height="5.09"/><rect class="cls-21" x="166.93" y="39.45" width="2.13" height="5.09"/><rect class="cls-21" x="166.93" y="46.81" width="2.13" height="5.09"/><rect class="cls-21" x="166.93" y="54.17" width="2.13" height="5.09"/><rect class="cls-21" x="166.93" y="61.53" width="2.13" height="5.09"/><rect class="cls-21" x="166.93" y="68.89" width="2.13" height="5.09"/><rect class="cls-21" x="166.93" y="76.25" width="2.13" height="5.09"/><rect class="cls-21" x="166.93" y="83.61" width="2.13" height="5.09"/><rect class="cls-21" x="148.66" y="95.3" width="2.13" height="5.09"/><rect class="cls-21" x="152.38" y="95.3" width="2.13" height="5.09"/><rect class="cls-21" x="156.09" y="95.3" width="2.13" height="5.09"/><rect class="cls-21" x="159.81" y="95.3" width="2.13" height="5.09"/><rect class="cls-21" x="163.52" y="95.3" width="2.13" height="5.09"/><rect class="cls-21" x="148.66" y="102.66" width="2.13" height="5.09"/><rect class="cls-21" x="152.38" y="102.66" width="2.13" height="5.09"/><rect class="cls-21" x="156.09" y="102.66" width="2.13" height="5.09"/><rect class="cls-21" x="159.81" y="102.66" width="2.13" height="5.09"/><rect class="cls-21" x="163.52" y="102.66" width="2.13" height="5.09"/><rect class="cls-21" x="148.66" y="110.02" width="2.13" height="5.09"/><rect class="cls-21" x="152.38" y="110.02" width="2.13" height="5.09"/><rect class="cls-21" x="156.09" y="110.02" width="2.13" height="5.09"/><rect class="cls-21" x="159.81" y="110.02" width="2.13" height="5.09"/><rect class="cls-21" x="163.52" y="110.02" width="2.13" height="5.09"/><rect class="cls-21" x="148.66" y="117.38" width="2.13" height="5.09"/><rect class="cls-21" x="152.38" y="117.38" width="2.13" height="5.09"/><rect class="cls-21" x="156.09" y="117.38" width="2.13" height="5.09"/><rect class="cls-21" x="159.81" y="117.38" width="2.13" height="5.09"/><rect class="cls-21" x="163.52" y="117.38" width="2.13" height="5.09"/><rect class="cls-21" x="148.66" y="124.74" width="2.13" height="5.09"/><rect class="cls-21" x="152.38" y="124.74" width="2.13" height="5.09"/><rect class="cls-21" x="156.09" y="124.74" width="2.13" height="5.09"/><rect class="cls-21" x="159.81" y="124.74" width="2.13" height="5.09"/><rect class="cls-21" x="163.52" y="124.74" width="2.13" height="5.09"/><rect class="cls-21" x="148.66" y="132.1" width="2.13" height="5.09"/><rect class="cls-21" x="152.38" y="132.1" width="2.13" height="5.09"/><rect class="cls-21" x="156.09" y="132.1" width="2.13" height="5.09"/><rect class="cls-21" x="159.81" y="132.1" width="2.13" height="5.09"/><rect class="cls-21" x="163.52" y="132.1" width="2.13" height="5.09"/><rect class="cls-21" x="148.66" y="139.46" width="2.13" height="5.09"/><rect class="cls-21" x="152.38" y="139.46" width="2.13" height="5.09"/><rect class="cls-21" x="156.09" y="139.46" width="2.13" height="5.09"/><rect class="cls-21" x="159.81" y="139.46" width="2.13" height="5.09"/><rect class="cls-21" x="163.52" y="139.46" width="2.13" height="5.09"/><rect class="cls-21" x="166.93" y="95.3" width="2.13" height="5.09"/><rect class="cls-21" x="166.93" y="102.66" width="2.13" height="5.09"/><rect class="cls-21" x="166.93" y="110.02" width="2.13" height="5.09"/><rect class="cls-21" x="166.93" y="117.38" width="2.13" height="5.09"/><rect class="cls-21" x="166.93" y="124.74" width="2.13" height="5.09"/><rect class="cls-21" x="166.93" y="132.1" width="2.13" height="5.09"/><rect class="cls-21" x="166.93" y="139.46" width="2.13" height="5.09"/><rect class="cls-21" x="172.45" y="51.55" width="2.13" height="5.09"/><rect class="cls-21" x="172.45" y="58.91" width="2.13" height="5.09"/><rect class="cls-21" x="172.45" y="66.27" width="2.13" height="5.09"/><rect class="cls-21" x="172.45" y="73.63" width="2.13" height="5.09"/><rect class="cls-21" x="172.45" y="80.99" width="2.13" height="5.09"/><rect class="cls-21" x="172.45" y="88.35" width="2.13" height="5.09"/><rect class="cls-21" x="172.45" y="95.71" width="2.13" height="5.09"/><rect class="cls-21" x="142.13" y="51.63" width="2.13" height="5.09"/><rect class="cls-21" x="142.13" y="58.98" width="2.13" height="5.09"/><rect class="cls-21" x="142.13" y="66.34" width="2.13" height="5.09"/><rect class="cls-21" x="142.13" y="73.7" width="2.13" height="5.09"/><rect class="cls-21" x="142.13" y="81.06" width="2.13" height="5.09"/><rect class="cls-21" x="142.13" y="88.43" width="2.13" height="5.09"/><rect class="cls-21" x="142.13" y="95.78" width="2.13" height="5.09"/><rect class="cls-19" x="159.55" y="181.57" width="5.14" height="6.84"/><rect class="cls-19" x="153.52" y="181.87" width="5.14" height="6.84"/><polygon class="cls-22" points="322.33 156.72 295.36 156.72 295.36 114.29 322.33 102.33 322.33 156.72"/><polygon class="cls-23" points="339.37 110.45 322.33 102.33 322.33 156.72 339.37 156.72 339.37 110.45"/><polygon class="cls-24" points="302 116.32 299.57 117.56 299.49 120.44 301.94 119.21 302 116.32"/><polygon class="cls-24" points="306.25 114.29 303.81 115.43 303.75 118.34 306.2 117.2 306.25 114.29"/><polygon class="cls-24" points="310.5 112.43 308.06 113.48 308.02 116.39 310.46 115.34 310.5 112.43"/><polygon class="cls-24" points="314.74 110.75 312.31 111.69 312.28 114.59 314.73 113.63 314.74 110.75"/><polygon class="cls-24" points="318.99 109.23 316.55 110.08 316.54 112.95 318.99 112.08 318.99 109.23"/><polygon class="cls-24" points="301.9 120.5 299.46 121.72 299.38 124.61 301.84 123.4 301.9 120.5"/><polygon class="cls-24" points="306.18 118.48 303.73 119.62 303.66 122.53 306.13 121.39 306.18 118.48"/><polygon class="cls-24" points="310.45 116.62 308 117.67 307.95 120.58 310.41 119.52 310.45 116.62"/><polygon class="cls-24" points="314.72 114.91 312.27 115.87 312.24 118.77 314.7 117.79 314.72 114.91"/><polygon class="cls-24" points="318.99 113.34 316.54 114.22 316.53 117.09 318.99 116.19 318.99 113.34"/><polygon class="cls-24" points="301.81 124.68 299.34 125.89 299.26 128.78 301.74 127.59 301.81 124.68"/><polygon class="cls-24" points="306.1 122.68 303.64 123.81 303.58 126.73 306.05 125.6 306.1 122.68"/><polygon class="cls-24" points="310.4 120.81 307.93 121.87 307.89 124.78 310.37 123.72 310.4 120.81"/><polygon class="cls-24" points="314.69 119.06 312.23 120.05 312.2 122.95 314.68 121.95 314.69 119.06"/><polygon class="cls-24" points="318.99 117.45 316.52 118.36 316.51 121.23 318.99 120.3 318.99 117.45"/><polygon class="cls-24" points="301.71 128.88 299.23 130.07 299.15 132.97 301.64 131.79 301.71 128.88"/><polygon class="cls-24" points="306.03 126.89 303.55 128.02 303.49 130.94 305.98 129.81 306.03 126.89"/><polygon class="cls-24" points="310.35 125.01 307.87 126.07 307.83 128.99 310.31 127.92 310.35 125.01"/><polygon class="cls-24" points="314.67 123.22 312.19 124.23 312.16 127.14 314.65 126.11 314.67 123.22"/><polygon class="cls-24" points="318.99 121.55 316.51 122.5 316.5 125.37 318.99 124.4 318.99 121.55"/><polygon class="cls-24" points="301.61 133.08 299.12 134.26 299.04 137.17 301.54 136 301.61 133.08"/><polygon class="cls-24" points="305.95 131.1 303.46 132.23 303.4 135.15 305.9 134.03 305.95 131.1"/><polygon class="cls-24" points="310.3 129.21 307.81 130.28 307.76 133.21 310.26 132.12 310.3 129.21"/><polygon class="cls-24" points="314.64 127.39 312.15 128.42 312.13 131.33 314.63 130.28 314.64 127.39"/><polygon class="cls-24" points="318.99 125.66 316.5 126.64 316.49 129.52 318.99 128.51 318.99 125.66"/><polygon class="cls-24" points="301.51 137.3 299 138.46 298.93 141.38 301.44 140.23 301.51 137.3"/><polygon class="cls-24" points="305.88 135.32 303.37 136.45 303.31 139.38 305.83 138.25 305.88 135.32"/><polygon class="cls-24" points="310.25 133.41 307.74 134.5 307.7 137.43 310.22 136.33 310.25 133.41"/><polygon class="cls-24" points="314.62 131.56 312.11 132.61 312.09 135.52 314.6 134.45 314.62 131.56"/><polygon class="cls-24" points="318.99 129.77 316.48 130.79 316.47 133.66 318.99 132.62 318.99 129.77"/><polygon class="cls-24" points="301.41 141.52 298.89 142.67 298.81 145.59 301.35 144.45 301.41 141.52"/><polygon class="cls-24" points="305.81 139.55 303.29 140.68 303.22 143.61 305.76 142.49 305.81 139.55"/><polygon class="cls-24" points="310.2 137.62 307.68 138.72 307.64 141.66 310.17 140.54 310.2 137.62"/><polygon class="cls-24" points="314.6 135.73 312.07 136.81 312.05 139.72 314.58 138.62 314.6 135.73"/><polygon class="cls-24" points="318.99 133.88 316.47 134.93 316.46 137.81 318.99 136.72 318.99 133.88"/><polygon class="cls-24" points="301.32 145.75 298.78 146.89 298.7 149.82 301.25 148.69 301.32 145.75"/><polygon class="cls-24" points="305.73 143.79 303.2 144.91 303.14 147.85 305.68 146.73 305.73 143.79"/><polygon class="cls-24" points="310.15 141.84 307.62 142.95 307.57 145.89 310.12 144.76 310.15 141.84"/><polygon class="cls-24" points="314.57 139.9 312.04 141.01 312.01 143.92 314.55 142.8 314.57 139.9"/><polygon class="cls-24" points="318.99 137.98 316.45 139.08 316.44 141.96 318.99 140.83 318.99 137.98"/><polygon class="cls-3" points="322.63 204.19 291.88 204.19 291.88 155.79 322.63 142.15 322.63 204.19"/><polygon class="cls-25" points="342.07 151.42 322.63 142.15 322.63 204.19 342.07 204.19 342.07 151.42"/><polygon class="cls-24" points="299.45 158.41 296.67 159.61 296.58 162.92 299.37 161.83 299.45 158.41"/><polygon class="cls-24" points="304.29 156.31 301.51 157.52 301.44 161.02 304.23 159.92 304.29 156.31"/><polygon class="cls-24" points="309.13 154.22 306.35 155.42 306.3 159.11 309.1 158.01 309.13 154.22"/><polygon class="cls-24" points="313.98 152.12 311.2 153.32 311.17 157.2 313.96 156.1 313.98 152.12"/><polygon class="cls-24" points="318.82 150.03 316.04 151.23 316.03 155.29 318.82 154.2 318.82 150.03"/><polygon class="cls-24" points="299.34 163.34 296.54 164.38 296.45 167.69 299.26 166.75 299.34 163.34"/><polygon class="cls-24" points="304.21 161.51 301.41 162.56 301.34 166.06 304.15 165.12 304.21 161.51"/><polygon class="cls-24" points="309.08 159.69 306.29 160.74 306.23 164.42 309.04 163.49 309.08 159.69"/><polygon class="cls-24" points="313.95 157.87 311.15 158.91 311.13 162.79 313.93 161.85 313.95 157.87"/><polygon class="cls-24" points="318.82 156.04 316.02 157.09 316.01 161.15 318.82 160.22 318.82 156.04"/><polygon class="cls-24" points="299.22 168.26 296.41 169.16 296.32 172.46 299.15 171.68 299.22 168.26"/><polygon class="cls-24" points="304.12 166.71 301.31 167.6 301.24 171.1 304.06 170.32 304.12 166.71"/><polygon class="cls-24" points="309.02 165.16 306.21 166.05 306.16 169.74 308.98 168.96 309.02 165.16"/><polygon class="cls-24" points="313.92 163.61 311.11 164.5 311.08 168.38 313.9 167.59 313.92 163.61"/><polygon class="cls-24" points="318.82 162.06 316.01 162.95 316 167.01 318.82 166.23 318.82 162.06"/><polygon class="cls-24" points="299.11 173.19 296.29 173.93 296.2 177.23 299.03 176.61 299.11 173.19"/><polygon class="cls-24" points="304.04 171.91 301.21 172.65 301.14 176.15 303.98 175.52 304.04 171.91"/><polygon class="cls-24" points="308.96 170.63 306.14 171.37 306.09 175.06 308.93 174.43 308.96 170.63"/><polygon class="cls-24" points="313.89 169.35 311.07 170.09 311.04 173.97 313.87 173.34 313.89 169.35"/><polygon class="cls-24" points="318.82 168.07 315.99 168.81 315.98 172.88 318.82 172.25 318.82 168.07"/><polygon class="cls-24" points="299 178.12 296.16 178.7 296.07 182.01 298.92 181.54 299 178.12"/><polygon class="cls-24" points="303.95 177.11 301.11 177.69 301.04 181.19 303.9 180.72 303.95 177.11"/><polygon class="cls-24" points="308.91 176.11 306.07 176.68 306.01 180.37 308.87 179.9 308.91 176.11"/><polygon class="cls-24" points="313.87 175.1 311.02 175.68 310.99 179.55 313.84 179.08 313.87 175.1"/><polygon class="cls-24" points="318.82 174.09 315.98 174.67 315.96 178.73 318.82 178.27 318.82 174.09"/><polygon class="cls-24" points="298.89 183.04 296.03 183.47 295.94 186.78 298.81 186.46 298.89 183.04"/><polygon class="cls-24" points="303.87 182.31 301.01 182.73 300.94 186.23 303.81 185.92 303.87 182.31"/><polygon class="cls-24" points="308.85 181.58 306 182 305.94 185.68 308.81 185.37 308.85 181.58"/><polygon class="cls-24" points="313.84 180.84 310.98 181.26 310.95 185.14 313.82 184.83 313.84 180.84"/><polygon class="cls-24" points="318.82 180.11 315.96 180.53 315.95 184.6 318.82 184.28 318.82 180.11"/><polygon class="cls-24" points="298.78 187.97 295.9 188.24 295.81 191.55 298.7 191.39 298.78 187.97"/><polygon class="cls-24" points="303.79 187.51 300.91 187.78 300.84 191.27 303.73 191.12 303.79 187.51"/><polygon class="cls-24" points="308.8 187.05 305.92 187.31 305.87 191 308.76 190.85 308.8 187.05"/><polygon class="cls-24" points="313.81 186.59 310.94 186.85 310.9 190.73 313.79 190.57 313.81 186.59"/><polygon class="cls-24" points="318.82 186.13 315.94 186.39 315.93 190.46 318.82 190.3 318.82 186.13"/><polygon class="cls-24" points="298.67 192.9 295.77 193.01 295.68 196.32 298.58 196.32 298.67 192.9"/><polygon class="cls-24" points="303.7 192.71 300.81 192.82 300.74 196.32 303.64 196.32 303.7 192.71"/><polygon class="cls-24" points="308.74 192.52 305.85 192.63 305.8 196.32 308.7 196.32 308.74 192.52"/><polygon class="cls-24" points="313.78 192.33 310.89 192.44 310.86 196.32 313.76 196.32 313.78 192.33"/><polygon class="cls-24" points="318.82 192.14 315.93 192.25 315.92 196.32 318.82 196.32 318.82 192.14"/><rect class="cls-26" x="238.62" y="76.72" width="19.95" height="44.05"/><polygon class="cls-27" points="258.56 76.72 268.5 82.25 268.5 126.3 258.56 120.77 258.56 76.72"/><rect class="cls-28" x="235.28" y="113.06" width="25.33" height="79.52"/><polygon class="cls-29" points="260.61 113.06 271.09 119.25 271.09 192.58 260.61 192.58 260.61 113.06"/><rect class="cls-30" x="245.4" y="79.4" width="2.33" height="3.35"/><rect class="cls-30" x="253.51" y="79.4" width="2.33" height="3.35"/><rect class="cls-30" x="241.34" y="84.22" width="2.33" height="3.35"/><rect class="cls-30" x="245.4" y="84.22" width="2.33" height="3.35"/><rect class="cls-30" x="249.46" y="84.22" width="2.33" height="3.35"/><rect class="cls-30" x="253.51" y="84.22" width="2.33" height="3.35"/><rect class="cls-30" x="245.4" y="89.05" width="2.33" height="3.35"/><rect class="cls-30" x="253.51" y="89.05" width="2.33" height="3.35"/><rect class="cls-30" x="241.34" y="93.88" width="2.33" height="3.35"/><rect class="cls-30" x="245.4" y="93.88" width="2.33" height="3.35"/><rect class="cls-30" x="249.46" y="93.88" width="2.33" height="3.35"/><rect class="cls-30" x="253.51" y="93.88" width="2.33" height="3.35"/><rect class="cls-30" x="241.34" y="98.7" width="2.33" height="3.35"/><rect class="cls-30" x="245.4" y="98.7" width="2.33" height="3.35"/><rect class="cls-30" x="253.51" y="98.7" width="2.33" height="3.35"/><rect class="cls-30" x="245.4" y="103.53" width="2.33" height="3.35"/><rect class="cls-30" x="249.46" y="103.53" width="2.33" height="3.35"/><rect class="cls-30" x="253.51" y="103.53" width="2.33" height="3.35"/><rect class="cls-30" x="241.02" y="118.81" width="2.33" height="3.35"/><rect class="cls-30" x="249.13" y="118.81" width="2.33" height="3.35"/><rect class="cls-30" x="236.96" y="123.63" width="2.33" height="3.35"/><rect class="cls-30" x="241.02" y="123.63" width="2.33" height="3.35"/><rect class="cls-30" x="245.07" y="123.63" width="2.33" height="3.35"/><rect class="cls-30" x="249.13" y="123.63" width="2.33" height="3.35"/><rect class="cls-30" x="241.02" y="128.46" width="2.33" height="3.35"/><rect class="cls-30" x="249.13" y="128.46" width="2.33" height="3.35"/><rect class="cls-30" x="236.96" y="133.29" width="2.33" height="3.35"/><rect class="cls-30" x="241.02" y="133.29" width="2.33" height="3.35"/><rect class="cls-30" x="245.07" y="133.29" width="2.33" height="3.35"/><rect class="cls-30" x="249.13" y="133.29" width="2.33" height="3.35"/><rect class="cls-30" x="236.96" y="138.12" width="2.33" height="3.35"/><rect class="cls-30" x="241.02" y="138.12" width="2.33" height="3.35"/><rect class="cls-30" x="249.13" y="138.12" width="2.33" height="3.35"/><rect class="cls-30" x="241.02" y="142.94" width="2.33" height="3.35"/><rect class="cls-30" x="245.07" y="142.94" width="2.33" height="3.35"/><rect class="cls-30" x="249.13" y="142.94" width="2.33" height="3.35"/><rect class="cls-30" x="252.65" y="118.81" width="2.33" height="3.35"/><rect class="cls-30" x="252.65" y="128.46" width="2.33" height="3.35"/><rect class="cls-30" x="252.65" y="138.12" width="2.33" height="3.35"/><rect class="cls-30" x="256.17" y="123.63" width="2.33" height="3.35"/><rect class="cls-30" x="256.17" y="133.29" width="2.33" height="3.35"/><rect class="cls-30" x="256.17" y="138.12" width="2.33" height="3.35"/><rect class="cls-30" x="256.17" y="142.94" width="2.33" height="3.35"/><path class="cls-31" d="M389.29,229.9V206.41S275,178.58,181.18,178.58,10.71,206.41,10.71,206.41V229.9Z"/><circle class="cls-3" cx="73.25" cy="152.14" r="28.91"/><circle class="cls-32" cx="73.25" cy="152.14" r="26.16"/><rect class="cls-33" x="70.5" y="165.87" width="5.49" height="48.14"/><polyline class="cls-33" points="73.25 173.2 92.48 160.12 74.43 177.91"/><polyline class="cls-33" points="71.81 169.01 54.81 152.14 71.81 173.2"/><polyline class="cls-33" points="76 169.01 76 140.5 73.25 167.7 65.93 148.87 70.96 168.17"/><polyline class="cls-33" points="70.96 174.31 57.88 165.87 71.81 177.91"/><polyline class="cls-33" points="81.96 167.27 82.86 157.05 84.37 167.27"/><polyline class="cls-33" points="76 154.1 81.04 149.78 76 157.83"/><polyline class="cls-33" points="60.54 157.83 60.54 147.63 63.31 160.58"/><polyline class="cls-33" points="63.31 170.56 56.9 171.89 65.93 171.89"/><rect class="cls-34" width="400" height="230"/></g></g></svg>