<svg xmlns="http://www.w3.org/2000/svg" viewBox="0 0 400 230"><defs><style>.cls-1{fill:none;}.cls-2,.cls-3{fill:#fff;}.cls-3{opacity:0.6;}.cls-4{fill:#e6e7e8;}.cls-5{fill:#dbdcdd;}.cls-6{fill:#d0d2d3;}.cls-7{fill:#808184;}.cls-8{fill:#6ac9d4;}.cls-9{fill:#58a8b2;}</style></defs><title>Juego_Avion_1</title><g id="Capa_2" data-name="Capa 2"><g id="Arte"><rect class="cls-1" width="400" height="230"/><path class="cls-2" d="M79.94,34.44a11.15,11.15,0,0,0-7.78-15.23,12.93,12.93,0,0,0-22.49-7.36,19.3,19.3,0,0,0-33.46,19,14.71,14.71,0,0,0,4.67,28.66h48.6A14.71,14.71,0,0,0,79.94,34.44Z"/><path class="cls-3" d="M360.39,154.54a11.28,11.28,0,0,0-7.88-15.41,13.09,13.09,0,0,0-22.77-7.45A19.54,19.54,0,0,0,295.12,149a13.06,13.06,0,0,0-17.91,1.45,19.54,19.54,0,0,0-33.87,19.23,14.89,14.89,0,0,0,4.73,29h49.2a14.84,14.84,0,0,0,14.37-18.77h38.18a14.89,14.89,0,0,0,10.58-25.37Z"/><path class="cls-2" d="M379.33,189.52a11.28,11.28,0,0,0-7.88-15.41,13.09,13.09,0,0,0-22.77-7.45,19.54,19.54,0,0,0-33.87,19.23,14.89,14.89,0,0,0,4.73,29h49.2a14.89,14.89,0,0,0,10.58-25.37Z"/><path class="cls-2" d="M261.5,151.19a7.56,7.56,0,0,0-5.28-10.33,8.78,8.78,0,0,0-15.26-5,13.1,13.1,0,0,0-22.71,12.89,10,10,0,0,0,3.17,19.45h33a10,10,0,0,0,7.09-17Z"/><polygon class="cls-4" points="154.22 64.72 182.37 64.72 251.14 117.74 190.67 117.74 154.22 64.72"/><path class="cls-2" d="M60.35,77c14.32,6.27,34.16,14,44.49,14h73.32c93.11,0,141.9.71,165.19,22.33,10.19,9.47,17.32,9,17.36,17.24.07,15.08-103.07,12.2-151.1,12.2H177.89c-33.82,0-66.57-2.11-84.08-13.94-6.41-4.33-21.63-15-33.46-23.39Z"/><path class="cls-5" d="M177.89,136.55H209.6c45.49,0,140.35,2.58,150.25-9.95a9,9,0,0,1,.86,4.05c.07,15.08-103.07,12.2-151.1,12.2H177.89c-33.82,0-66.57-2.11-84.08-13.94-6.41-4.33-21.63-15-33.46-23.39V99.22c11.83,8.36,27,19.06,33.46,23.39C111.33,134.44,144.07,136.55,177.89,136.55Z"/><polygon class="cls-2" points="60.66 96.48 39.62 38.73 57.46 38.73 98.03 96.48 60.66 96.48"/><polygon class="cls-6" points="46.11 38.73 67.15 96.48 63.11 96.48 42.07 38.73 46.11 38.73"/><circle class="cls-7" cx="277.81" cy="113.41" r="3.9"/><circle class="cls-7" cx="259.59" cy="113.41" r="3.9"/><circle class="cls-7" cx="241.37" cy="113.41" r="3.9"/><circle class="cls-7" cx="223.15" cy="113.41" r="3.9"/><circle class="cls-7" cx="204.93" cy="113.41" r="3.9"/><circle class="cls-7" cx="186.71" cy="113.41" r="3.9"/><circle class="cls-7" cx="168.49" cy="113.41" r="3.9"/><circle class="cls-7" cx="150.27" cy="113.41" r="3.9"/><circle class="cls-7" cx="132.05" cy="113.41" r="3.9"/><circle class="cls-7" cx="113.83" cy="113.41" r="3.9"/><circle class="cls-7" cx="95.61" cy="113.41" r="3.9"/><path class="cls-7" d="M349.18,118.15H310.51a5.09,5.09,0,0,1,0-10.17h25.77a49.48,49.48,0,0,1,7.07,5.44A56.67,56.67,0,0,0,349.18,118.15Z"/><path class="cls-8" d="M360.7,130.65H96.5c-.93-.53-1.84-1.08-2.7-1.66-1.43-1-3.32-2.26-5.49-3.77H358.91A8.16,8.16,0,0,1,360.7,130.65Z"/><path class="cls-8" d="M99.24,132H358.91a4.44,4.44,0,0,1,1.13.62A5.91,5.91,0,0,1,359,133.8H103.14Q101.11,133,99.24,132Z"/><path class="cls-9" d="M88.41,125.23h9.81a71.73,71.73,0,0,0,14.39,5.43h-16c-1-.55-1.92-1.13-2.81-1.73C92.4,128,90.55,126.7,88.41,125.23Z"/><path class="cls-9" d="M118.43,132.06c3.15.68,6.44,1.25,9.84,1.75H103.12c-.51-.21-1-.42-1.5-.64l-.48-.21c-.55-.25-1.09-.51-1.63-.77l-.27-.13Z"/><path class="cls-6" d="M88.15,96l-8.79,23c-7-4.9-11.7-8.33-19-13.49V96Z"/><polygon class="cls-2" points="40.29 123.49 53.12 123.49 88.15 96 60.59 96 40.29 123.49"/><polygon class="cls-2" points="149.14 184.49 177.29 184.49 246.06 131.47 185.59 131.47 149.14 184.49"/></g></g></svg>