<svg xmlns="http://www.w3.org/2000/svg" xmlns:xlink="http://www.w3.org/1999/xlink" viewBox="0 0 400 230"><defs><style>.cls-1{fill:none;}.cls-2{fill:url(#radial-gradient);}.cls-3{fill:#e183ff;}.cls-4{fill:url(#radial-gradient-2);}.cls-5{fill:#d4ff00;}.cls-6{fill:url(#linear-gradient);}.cls-7{fill:url(#linear-gradient-2);}.cls-8{fill:#fdb609;}.cls-9{fill:url(#radial-gradient-3);}</style><radialGradient id="radial-gradient" cx="372.44" cy="132.2" r="68.03" gradientTransform="translate(49.66 -84.87) rotate(14.45)" gradientUnits="userSpaceOnUse"><stop offset="0.01" stop-color="#f25fff"/><stop offset="1" stop-color="#bd00ff"/></radialGradient><radialGradient id="radial-gradient-2" cx="40.3" cy="71.17" r="31.56" gradientTransform="translate(22.18 -6.43) rotate(14.45)" gradientUnits="userSpaceOnUse"><stop offset="0" stop-color="#b4ff00"/><stop offset="1" stop-color="#87bf00"/></radialGradient><linearGradient id="linear-gradient" x1="226.66" y1="30.8" x2="134.28" y2="206.45" gradientUnits="userSpaceOnUse"><stop offset="0" stop-color="#ff655f"/><stop offset="0.47" stop-color="#ff2f1f"/><stop offset="1" stop-color="#7f0400"/></linearGradient><linearGradient id="linear-gradient-2" x1="233.82" y1="47.41" x2="151.85" y2="154.1" gradientUnits="userSpaceOnUse"><stop offset="0" stop-color="#ff907c"/><stop offset="1" stop-color="#ff2f1f"/></linearGradient><radialGradient id="radial-gradient-3" cx="184.54" cy="125.34" r="114.68" gradientUnits="userSpaceOnUse"><stop offset="0" stop-color="#df7800"/><stop offset="1" stop-color="#bf6d00"/></radialGradient></defs><title>Juego_Nave_2</title><g id="Capa_2" data-name="Capa 2"><g id="Arte"><rect class="cls-1" width="400" height="230"/><circle class="cls-2" cx="359.65" cy="153.46" r="30.23" transform="translate(-26.91 94.57) rotate(-14.45)"/><path class="cls-3" d="M386.78,146.52a28.26,28.26,0,0,0-53.3-4.22,28.25,28.25,0,0,1,48.3,28.51A28.23,28.23,0,0,0,386.78,146.52Z"/><circle class="cls-4" cx="36.45" cy="84.31" r="19.77" transform="translate(-19.88 11.76) rotate(-14.45)"/><path class="cls-5" d="M54.18,79.77A18.48,18.48,0,0,0,19.34,77,18.47,18.47,0,0,1,50.91,95.65,18.43,18.43,0,0,0,54.18,79.77Z"/><path class="cls-6" d="M276.65,91.1A97.59,97.59,0,1,1,157.81,20.94,97.59,97.59,0,0,1,276.65,91.1Z"/><path class="cls-7" d="M269.69,93a91.22,91.22,0,0,0-172-13.63,91.19,91.19,0,0,1,155.92,92A91,91,0,0,0,269.69,93Z"/><path class="cls-8" d="M358.59,83c-3.22-12.48-38.1-15.18-88-9,.64,1.39,1.19,2.84,1.77,4.26,38.22-4.22,64.2-2.07,66.6,7.27,2.8,10.85-26.79,28.54-72.84,45.66a758.28,758.28,0,0,1-74.1,23,762.74,762.74,0,0,1-74.77,15.52C68,177.17,33,176,30.16,165.1c-2.42-9.38,19.43-23.87,55.16-38.69-.19-1.58-.42-3.15-.52-4.71-47.43,18.86-77.21,38.3-74,50.9,3.44,13.35,43.09,15.52,98.66,7.58A793,793,0,0,0,193.79,163a786.7,786.7,0,0,0,83.36-26.21C328.9,117.07,362,96.25,358.59,83Z"/><path class="cls-9" d="M30.16,165.1C33,176,68,177.17,117.21,169.7A762.74,762.74,0,0,0,192,154.18a758.28,758.28,0,0,0,74.1-23c46.06-17.12,75.64-34.81,72.84-45.66-2.4-9.35-28.38-11.5-66.6-7.27a97.25,97.25,0,0,1,3.86,11.13c12.36.67,20.14,3.25,21.33,7.88,1.3,5.05-5.46,11.77-17.94,19-19.06,11.1-51.5,23.5-89.26,33.23-36.93,9.52-70.66,14.35-92.76,14.07-15.29-.19-25-2.82-26.34-8C70,150.8,76,144.5,87.24,137.66a97.8,97.8,0,0,1-1.92-11.25C49.59,141.23,27.74,155.72,30.16,165.1Z"/></g></g></svg>