<svg xmlns="http://www.w3.org/2000/svg" viewBox="0 0 400 230"><defs><style>.cls-1{fill:#6b9890;}.cls-2{fill:#96c4bd;}.cls-3{fill:#c9d7db;}.cls-4{fill:#67822b;}.cls-5{fill:#7dc25d;}.cls-6{fill:#9d3b23;}.cls-7{fill:#c24b31;}.cls-8{fill:#7eb2a9;}.cls-9{fill:#f5e8d5;}.cls-10{fill:#d3bc91;}.cls-11{fill:#e7d3b2;}.cls-12{fill:#5d9647;}.cls-13{fill:#92805d;}.cls-14{fill:#e8a330;}.cls-15{fill:#e58a30;}.cls-16{fill:#5a827d;}.cls-17{fill:#c47127;}.cls-18{fill:none;}</style></defs><title>Juego_Auto_2</title><g id="Capa_2" data-name="Capa 2"><g id="Arte"><polygon class="cls-1" points="227.62 183.31 326.5 183.31 274 85.56 227.62 183.31"/><polygon class="cls-2" points="263.96 118.18 272.8 113.22 285.31 118.89 286.53 108.89 274 85.56 263.13 108.47 263.96 118.18"/><polygon class="cls-2" points="192.22 183.31 278.27 183.31 230.67 105.39 192.22 183.31"/><polygon class="cls-3" points="221.85 145.8 228.56 131.99 240.47 139.78 245.53 129.71 230.67 105.39 216.31 134.49 221.85 145.8"/><path class="cls-4" d="M243.11,203.5c-21.89-37.91-53.15-61.65-87.86-61.65s-66,23.74-87.86,61.65Z"/><path class="cls-5" d="M306.34,227.18C303,189,261.81,158.87,211.48,158.87S120,189,116.63,227.18Z"/><path class="cls-4" d="M141.75,227.18c-16.91-40.33-41.06-65.58-67.88-65.58S22.89,186.85,6,227.18Z"/><path class="cls-4" d="M293.36,227.19l-32.42-40.55c-6.25-7.82-23.53-7.82-29.78,0l-32.42,40.55Z"/><path class="cls-5" d="M394.44,227.19,368,181.39c-5.1-8.83-19.18-8.83-24.27,0l-26.43,45.8Z"/><path class="cls-5" d="M371.75,227.19,331.8,156.13c-7.7-13.7-29-13.7-36.69,0l-39.95,71.06Z"/><rect class="cls-6" x="365" y="69.52" width="2.12" height="25.21"/><polygon class="cls-6" points="379.31 78 365.63 78 365.63 69.52 379.31 69.52 376.85 73.56 379.31 78"/><polygon class="cls-7" points="374.61 118.38 368.98 118.38 362.81 118.38 357.18 118.38 352.35 203.03 362.81 203.03 368.98 203.03 379.43 203.03 374.61 118.38"/><polygon class="cls-6" points="372.89 118.38 372.25 118.38 371.07 118.38 370 118.38 369.07 203.03 371.07 203.03 372.25 203.03 378.14 203.03 372.89 118.38"/><rect class="cls-8" x="356.71" y="102.27" width="18.37" height="16.34"/><rect class="cls-2" x="362.07" y="102.27" width="8.19" height="16.34"/><polygon class="cls-6" points="366.3 116.25 365.48 116.25 350.7 116.25 350.7 118.64 359.36 121.24 365.48 121.24 366.3 121.24 372.42 121.24 381.09 118.64 381.09 116.25 366.3 116.25"/><polygon class="cls-9" points="375.05 126.16 356.74 126.16 356.33 133.32 375.46 133.32 375.05 126.16"/><polygon class="cls-9" points="375.93 141.64 355.85 141.64 355.44 148.8 376.34 148.8 375.93 141.64"/><polygon class="cls-9" points="376.82 157.13 354.97 157.13 354.56 164.29 377.23 164.29 376.82 157.13"/><polygon class="cls-9" points="377.7 172.61 354.09 172.61 353.68 179.77 378.11 179.77 377.7 172.61"/><polygon class="cls-9" points="378.58 188.1 353.2 188.1 352.8 195.25 378.99 195.25 378.58 188.1"/><path class="cls-6" d="M369.69,129.48a3.7,3.7,0,1,0-7.31,0h0v9.45h7.31v-9.45Z"/><path class="cls-8" d="M368.5,130.69c0-1.81-1.11-3.27-2.47-3.27s-2.46,1.46-2.47,3.27h0V138h4.93v-7.3Z"/><path class="cls-1" d="M366,127.42A2.44,2.44,0,0,0,363.9,129a1.86,1.86,0,0,1,.63-.11c1.36,0,2.46,1.46,2.47,3.27V138h1.5v-7.3C368.49,128.89,367.39,127.42,366,127.42Z"/><rect class="cls-8" x="362.01" y="137.34" width="8.03" height="2.21"/><path class="cls-6" d="M369.69,151.57a3.7,3.7,0,1,0-7.31,0h0V161h7.31v-9.45Z"/><path class="cls-8" d="M368.5,152.78c0-1.81-1.11-3.27-2.47-3.27s-2.46,1.46-2.47,3.27h0v7.3h4.93v-7.3Z"/><path class="cls-1" d="M366,149.51a2.44,2.44,0,0,0-2.13,1.63,1.88,1.88,0,0,1,.63-.11c1.36,0,2.46,1.46,2.47,3.27v5.78h1.5v-7.3C368.49,151,367.39,149.51,366,149.51Z"/><rect class="cls-8" x="362.01" y="159.42" width="8.03" height="2.21"/><polygon class="cls-1" points="356.97 104.41 375.08 104.05 375.08 108.25 356.97 104.41"/><polygon class="cls-8" points="362.07 105.49 370.25 107.23 370.25 104.15 362.07 104.31 362.07 105.49"/><path class="cls-7" d="M378.2,99.24c-1-6.88-6.1-12.14-12.3-12.14s-11.34,5.26-12.3,12.14Z"/><rect class="cls-6" x="353.59" y="99.01" width="24.61" height="5.6"/><polygon class="cls-10" points="373.37 126.16 369.91 126.16 369.83 133.32 373.82 133.32 373.37 126.16"/><polygon class="cls-10" points="374.33 141.64 369.74 141.64 369.66 148.8 374.78 148.8 374.33 141.64"/><polygon class="cls-10" points="375.29 157.13 369.57 157.13 369.5 164.29 375.74 164.29 375.29 157.13"/><polygon class="cls-10" points="376.25 172.61 369.41 172.61 369.33 179.77 376.69 179.77 376.25 172.61"/><polygon class="cls-10" points="377.21 188.1 369.24 188.1 369.16 195.25 377.65 195.25 377.21 188.1"/><path class="cls-10" d="M374.66,180.75c0-5.52-3.87-10-8.62-10s-8.61,4.47-8.62,10h0V203h17.25V180.75Z"/><path class="cls-8" d="M373.19,181.82c0-5-3.17-9-7.05-9s-7,4-7.06,9h0v20.1h14.11v-20.1Z"/><path class="cls-1" d="M373.19,181.82c0-5-3.17-9-7.05-9a6.8,6.8,0,0,0-5.85,4,6,6,0,0,1,3.86-1.47c3.89,0,7,4,7.06,9h0v17.6h2v-20.1Z"/><rect class="cls-6" x="350.05" y="201.17" width="31.64" height="5.91"/><rect class="cls-2" x="50.59" y="57.56" width="52.58" height="117.58"/><polygon class="cls-1" points="103.18 58.26 50.59 58.26 53.08 34 100.69 34 103.18 58.26"/><rect class="cls-1" x="55.59" y="65.81" width="5.91" height="15.79"/><rect class="cls-1" x="64.52" y="65.81" width="5.91" height="15.79"/><rect class="cls-1" x="73.45" y="65.81" width="5.91" height="15.79"/><rect class="cls-1" x="82.38" y="65.81" width="5.91" height="15.79"/><rect class="cls-1" x="91.31" y="65.81" width="5.91" height="15.79"/><rect class="cls-1" x="55.59" y="85.97" width="5.91" height="15.79"/><rect class="cls-1" x="64.52" y="85.97" width="5.91" height="15.79"/><rect class="cls-1" x="73.45" y="85.97" width="5.91" height="15.79"/><rect class="cls-1" x="82.38" y="85.97" width="5.91" height="15.79"/><rect class="cls-1" x="91.31" y="85.97" width="5.91" height="15.79"/><rect class="cls-1" x="55.59" y="106.12" width="5.91" height="15.79"/><rect class="cls-1" x="64.52" y="106.12" width="5.91" height="15.79"/><rect class="cls-1" x="73.45" y="106.12" width="5.91" height="15.79"/><rect class="cls-1" x="82.38" y="106.12" width="5.91" height="15.79"/><rect class="cls-1" x="91.31" y="106.12" width="5.91" height="15.79"/><rect class="cls-1" x="55.59" y="126.28" width="5.91" height="15.79"/><rect class="cls-1" x="64.52" y="126.28" width="5.91" height="15.79"/><rect class="cls-1" x="73.45" y="126.28" width="5.91" height="15.79"/><rect class="cls-1" x="82.38" y="126.28" width="5.91" height="15.79"/><rect class="cls-1" x="91.31" y="126.28" width="5.91" height="15.79"/><rect class="cls-1" x="55.59" y="146.44" width="5.91" height="15.79"/><rect class="cls-1" x="73.45" y="146.44" width="5.91" height="15.79"/><rect class="cls-1" x="91.31" y="146.44" width="5.91" height="15.79"/><rect class="cls-1" x="63.8" y="144.24" width="25.75" height="30.9"/><rect class="cls-9" x="66.05" y="146.15" width="21.06" height="29"/><polygon class="cls-11" points="87.11 174.99 85.35 147.5 67.22 146.15 87.11 146.15 87.11 174.99"/><polygon class="cls-12" points="134.99 185.88 160.8 185.88 148.05 147.62 134.99 185.88"/><polygon class="cls-5" points="136.76 175.68 159.04 175.68 148.03 142.66 136.76 175.68"/><polygon class="cls-12" points="139.75 162.56 156.04 162.56 148 138.41 139.75 162.56"/><polygon class="cls-13" points="150.28 163.48 149.68 163.43 148.74 171.86 148.01 153.56 147.29 153.62 146.57 199.66 148.29 199.66 149.37 199.66 151.09 199.66 150.47 172.04 150.28 163.48"/><polygon class="cls-12" points="181.98 190.89 207.79 190.89 195.04 152.63 181.98 190.89"/><polygon class="cls-5" points="183.75 180.69 206.03 180.69 195.02 147.67 183.75 180.69"/><polygon class="cls-12" points="186.74 167.57 203.03 167.57 194.98 143.42 186.74 167.57"/><polygon class="cls-13" points="197.27 168.49 196.66 168.44 195.73 176.87 195 158.56 194.28 158.63 193.56 204.66 195.28 204.66 196.36 204.66 198.08 204.66 197.46 177.05 197.27 168.49"/><path class="cls-5" d="M176.31,182.33c0-12-2.62-13.57-10.29-29.2h0c-7.67,15.63-10.29,17.16-10.29,29.19s4.4,16.08,10.29,17.45h0C171.91,198.41,176.31,194.36,176.31,182.33Z"/><polygon class="cls-13" points="165.64 170.34 166.38 170.41 168.17 217.15 166.4 217.15 165.3 217.15 163.53 217.15 165.64 170.34"/><polygon class="cls-13" points="162.35 174.5 165.88 180.43 171.05 173.63 171.62 173.92 166.13 185.05 161.72 175.24 162.35 174.5"/><polygon class="cls-13" points="160.63 180.12 165.82 190.17 172.79 178.9 173.59 179.31 165.92 194.86 159.75 181.15 160.63 180.12"/><rect class="cls-8" x="111.59" y="70.44" width="61.46" height="79.21"/><polygon class="cls-1" points="173.05 70.92 111.59 70.92 114.49 54.26 170.14 54.26 173.05 70.92"/><rect class="cls-8" x="119.93" y="17.16" width="44.77" height="50.99"/><polygon class="cls-1" points="164.7 17.51 119.93 17.51 122.05 5.38 162.58 5.38 164.7 17.51"/><rect class="cls-1" x="121.57" y="20.53" width="7.38" height="10.72"/><rect class="cls-1" x="130.1" y="20.53" width="7.38" height="10.72"/><rect class="cls-1" x="138.63" y="20.53" width="7.38" height="10.72"/><rect class="cls-1" x="147.15" y="20.53" width="7.38" height="10.72"/><rect class="cls-1" x="155.68" y="20.53" width="7.38" height="10.72"/><rect class="cls-1" x="121.57" y="32.58" width="7.38" height="10.71"/><rect class="cls-1" x="130.1" y="32.58" width="7.38" height="10.71"/><rect class="cls-1" x="138.63" y="32.58" width="7.38" height="10.71"/><rect class="cls-1" x="147.15" y="32.58" width="7.38" height="10.71"/><rect class="cls-1" x="155.68" y="32.58" width="7.38" height="10.71"/><rect class="cls-1" x="121.57" y="44.63" width="7.38" height="10.71"/><rect class="cls-1" x="130.1" y="44.63" width="7.38" height="10.71"/><rect class="cls-1" x="138.63" y="44.63" width="7.38" height="10.71"/><rect class="cls-1" x="147.15" y="44.63" width="7.38" height="10.71"/><rect class="cls-1" x="155.68" y="44.63" width="7.38" height="10.71"/><rect class="cls-1" x="121.57" y="56.67" width="7.38" height="10.71"/><rect class="cls-1" x="130.1" y="56.67" width="7.38" height="10.71"/><rect class="cls-1" x="138.63" y="56.67" width="7.38" height="10.71"/><rect class="cls-1" x="147.15" y="56.67" width="7.38" height="10.71"/><rect class="cls-1" x="155.68" y="56.67" width="7.38" height="10.71"/><rect class="cls-9" x="121.57" y="19.62" width="7.38" height="10.71"/><rect class="cls-9" x="130.1" y="19.62" width="7.38" height="10.71"/><rect class="cls-9" x="138.63" y="19.62" width="7.38" height="10.71"/><rect class="cls-9" x="147.15" y="19.62" width="7.38" height="10.71"/><rect class="cls-9" x="155.68" y="19.62" width="7.38" height="10.71"/><rect class="cls-9" x="121.57" y="31.66" width="7.38" height="10.72"/><rect class="cls-9" x="130.1" y="31.66" width="7.38" height="10.72"/><rect class="cls-9" x="138.63" y="31.66" width="7.38" height="10.72"/><rect class="cls-9" x="147.15" y="31.66" width="7.38" height="10.72"/><rect class="cls-9" x="155.68" y="31.66" width="7.38" height="10.72"/><rect class="cls-9" x="121.57" y="43.71" width="7.38" height="10.71"/><rect class="cls-9" x="130.1" y="43.71" width="7.38" height="10.71"/><rect class="cls-9" x="138.63" y="43.71" width="7.38" height="10.71"/><rect class="cls-9" x="147.15" y="43.71" width="7.38" height="10.71"/><rect class="cls-9" x="155.68" y="43.71" width="7.38" height="10.71"/><rect class="cls-9" x="121.57" y="55.75" width="7.38" height="10.71"/><rect class="cls-9" x="130.1" y="55.75" width="7.38" height="10.71"/><rect class="cls-9" x="138.63" y="55.75" width="7.38" height="10.71"/><rect class="cls-9" x="147.15" y="55.75" width="7.38" height="10.71"/><rect class="cls-9" x="155.68" y="55.75" width="7.38" height="10.71"/><rect class="cls-1" x="113.22" y="74.02" width="7.38" height="10.72"/><rect class="cls-1" x="121.69" y="74.02" width="7.38" height="10.72"/><rect class="cls-1" x="130.16" y="74.02" width="7.38" height="10.72"/><rect class="cls-1" x="138.63" y="74.02" width="7.38" height="10.72"/><rect class="cls-1" x="147.1" y="74.02" width="7.38" height="10.72"/><rect class="cls-1" x="155.57" y="74.02" width="7.38" height="10.72"/><rect class="cls-1" x="164.04" y="74.02" width="7.38" height="10.72"/><rect class="cls-1" x="113.22" y="86.73" width="7.38" height="10.72"/><rect class="cls-1" x="121.69" y="86.73" width="7.38" height="10.72"/><rect class="cls-1" x="130.16" y="86.73" width="7.38" height="10.72"/><rect class="cls-1" x="138.63" y="86.73" width="7.38" height="10.72"/><rect class="cls-1" x="147.1" y="86.73" width="7.38" height="10.72"/><rect class="cls-1" x="155.57" y="86.73" width="7.38" height="10.72"/><rect class="cls-1" x="164.04" y="86.73" width="7.38" height="10.72"/><rect class="cls-1" x="113.22" y="99.43" width="7.38" height="10.72"/><rect class="cls-1" x="121.69" y="99.43" width="7.38" height="10.72"/><rect class="cls-1" x="130.16" y="99.43" width="7.38" height="10.72"/><rect class="cls-1" x="138.63" y="99.43" width="7.38" height="10.72"/><rect class="cls-1" x="147.1" y="99.43" width="7.38" height="10.72"/><rect class="cls-1" x="155.57" y="99.43" width="7.38" height="10.72"/><rect class="cls-1" x="164.04" y="99.43" width="7.38" height="10.72"/><rect class="cls-1" x="113.22" y="112.14" width="7.38" height="10.72"/><rect class="cls-1" x="121.69" y="112.14" width="7.38" height="10.72"/><rect class="cls-1" x="130.16" y="112.14" width="7.38" height="10.72"/><rect class="cls-1" x="138.63" y="112.14" width="7.38" height="10.72"/><rect class="cls-1" x="147.1" y="112.14" width="7.38" height="10.72"/><rect class="cls-1" x="155.57" y="112.14" width="7.38" height="10.72"/><rect class="cls-1" x="164.04" y="112.14" width="7.38" height="10.72"/><rect class="cls-1" x="113.22" y="124.85" width="7.38" height="10.71"/><rect class="cls-1" x="121.69" y="124.85" width="7.38" height="10.71"/><rect class="cls-1" x="130.16" y="124.85" width="7.38" height="10.71"/><rect class="cls-1" x="138.63" y="124.85" width="7.38" height="10.71"/><rect class="cls-1" x="147.1" y="124.85" width="7.38" height="10.71"/><rect class="cls-1" x="155.57" y="124.85" width="7.38" height="10.71"/><rect class="cls-1" x="164.04" y="124.85" width="7.38" height="10.71"/><rect class="cls-1" x="113.22" y="136.94" width="7.38" height="10.72"/><rect class="cls-1" x="121.69" y="136.94" width="7.38" height="10.72"/><rect class="cls-1" x="130.16" y="136.94" width="7.38" height="10.72"/><rect class="cls-1" x="138.63" y="136.94" width="7.38" height="10.72"/><rect class="cls-1" x="147.1" y="136.94" width="7.38" height="10.72"/><rect class="cls-1" x="155.57" y="136.94" width="7.38" height="10.72"/><rect class="cls-1" x="164.04" y="136.94" width="7.38" height="10.72"/><rect class="cls-9" x="113.22" y="73.06" width="7.38" height="10.72"/><rect class="cls-9" x="121.69" y="73.06" width="7.38" height="10.72"/><rect class="cls-9" x="130.16" y="73.06" width="7.38" height="10.72"/><rect class="cls-9" x="138.63" y="73.06" width="7.38" height="10.72"/><rect class="cls-9" x="147.1" y="73.06" width="7.38" height="10.72"/><rect class="cls-9" x="155.57" y="73.06" width="7.38" height="10.72"/><rect class="cls-9" x="164.04" y="73.06" width="7.38" height="10.72"/><rect class="cls-9" x="113.22" y="85.76" width="7.38" height="10.72"/><rect class="cls-9" x="121.69" y="85.76" width="7.38" height="10.72"/><rect class="cls-9" x="130.16" y="85.76" width="7.38" height="10.72"/><rect class="cls-9" x="138.63" y="85.76" width="7.38" height="10.72"/><rect class="cls-9" x="147.1" y="85.76" width="7.38" height="10.72"/><rect class="cls-9" x="155.57" y="85.76" width="7.38" height="10.72"/><rect class="cls-9" x="164.04" y="85.76" width="7.38" height="10.72"/><rect class="cls-9" x="113.22" y="98.47" width="7.38" height="10.71"/><rect class="cls-9" x="121.69" y="98.47" width="7.38" height="10.71"/><rect class="cls-9" x="130.16" y="98.47" width="7.38" height="10.71"/><rect class="cls-9" x="138.63" y="98.47" width="7.38" height="10.71"/><rect class="cls-9" x="147.1" y="98.47" width="7.38" height="10.71"/><rect class="cls-9" x="155.57" y="98.47" width="7.38" height="10.71"/><rect class="cls-9" x="164.04" y="98.47" width="7.38" height="10.71"/><rect class="cls-9" x="113.22" y="111.17" width="7.38" height="10.72"/><rect class="cls-9" x="121.69" y="111.17" width="7.38" height="10.72"/><rect class="cls-9" x="130.16" y="111.17" width="7.38" height="10.72"/><rect class="cls-9" x="138.63" y="111.17" width="7.38" height="10.72"/><rect class="cls-9" x="147.1" y="111.17" width="7.38" height="10.72"/><rect class="cls-9" x="155.57" y="111.17" width="7.38" height="10.72"/><rect class="cls-9" x="164.04" y="111.17" width="7.38" height="10.72"/><rect class="cls-9" x="113.22" y="123.88" width="7.38" height="10.72"/><rect class="cls-9" x="121.69" y="123.88" width="7.38" height="10.72"/><rect class="cls-9" x="130.16" y="123.88" width="7.38" height="10.72"/><rect class="cls-9" x="138.63" y="123.88" width="7.38" height="10.72"/><rect class="cls-9" x="147.1" y="123.88" width="7.38" height="10.72"/><rect class="cls-9" x="155.57" y="123.88" width="7.38" height="10.72"/><rect class="cls-9" x="164.04" y="123.88" width="7.38" height="10.72"/><rect class="cls-9" x="113.22" y="135.98" width="7.38" height="10.72"/><rect class="cls-9" x="121.69" y="135.98" width="7.38" height="10.72"/><rect class="cls-9" x="130.16" y="135.98" width="7.38" height="10.72"/><rect class="cls-9" x="138.63" y="135.98" width="7.38" height="10.72"/><rect class="cls-9" x="147.1" y="135.98" width="7.38" height="10.72"/><rect class="cls-9" x="155.57" y="135.98" width="7.38" height="10.72"/><rect class="cls-9" x="164.04" y="135.98" width="7.38" height="10.72"/><rect class="cls-1" x="150.41" y="112.76" width="7.11" height="36.89"/><rect class="cls-1" x="109.48" y="149.38" width="65.72" height="3.87"/><rect class="cls-8" x="129.72" y="120.14" width="25.65" height="35.49"/><rect class="cls-14" x="124.18" y="119.94" width="36.72" height="5.49"/><polygon class="cls-15" points="160.9 120.22 124.18 120.22 125.92 110.27 159.17 110.27 160.9 120.22"/><polygon class="cls-16" points="155.37 127.46 155.37 125.45 129.7 125.45 155.37 127.46"/><rect class="cls-9" x="133.34" y="127.55" width="18.4" height="28.08"/><rect class="cls-15" x="134.95" y="129.28" width="15.05" height="26.35"/><polygon class="cls-17" points="150 155.49 148.74 130.51 135.79 129.28 150 129.28 150 155.49"/><rect class="cls-18" width="400" height="230"/></g></g></svg>