<svg xmlns="http://www.w3.org/2000/svg" viewBox="0 0 400 230"><defs><style>.cls-1{fill:#ffd964;}.cls-2{fill:#2f1e4c;}.cls-3{fill:#ef5c84;}.cls-4{fill:#4fc4d2;}.cls-5{fill:#02a9c3;}.cls-6{fill:#0f90b0;}.cls-7{fill:#f8e0c7;}.cls-8{fill:#e3c5ad;}.cls-9{fill:#fff;}.cls-10{fill:#b8e3f0;}.cls-11{fill:#eaece5;}.cls-12{fill:#bfbcb1;}.cls-13{fill:#f1cb36;}.cls-14{fill:#43b6b1;}.cls-15{fill:#0f878d;}.cls-16{fill:#0e5f72;}.cls-17{fill:#f7b1b6;}.cls-18{fill:#d7842d;}.cls-19{fill:#ffe429;}.cls-20{fill:#fdc030;}.cls-21{fill:#ffd004;}.cls-22{fill:#ffd33a;}.cls-23{fill:none;}</style></defs><title>Juego_Unicornio_1</title><g id="Capa_2" data-name="Capa 2"><g id="Arte"><path class="cls-1" d="M365.3,180.13a1.17,1.17,0,0,1-.95-.66,1.19,1.19,0,0,1-.08-1.14c1.05-2.67,2.26-5.28,3.21-8s2.68-6.83,2-9.93c-1.11-4.85-11.21,4.52-13,6.16a1.47,1.47,0,0,1-2.18-.2,1.56,1.56,0,0,1-.41-.39,36,36,0,0,0-4.21-4.79c-1.46-1.41-3.29-3.3-5.35-3.78-4.16-1-.79,14.76-.35,16.82a1.42,1.42,0,0,1-.47,1.42,1.33,1.33,0,0,1-1.24.72,35.21,35.21,0,0,0-8.3,1.36c-2.94.74-6.93,1.54-9.2,3.73s4.11,3.87,5.53,4.22a97.14,97.14,0,0,0,10.61,1.87c1.16.16,1.29,1.31.78,2.1,0,5-.3,10.09.76,15,.29,1.36.45,3.07,1.25,4.25.93,1.38,2.72.2,3.67-.63,4.64-4.07,7.43-10.18,10.06-15.66a1.2,1.2,0,0,1,1.42-.71H359c5,0,9.89.28,14.8-.77,1.56-.33,8.51-1.9,6-4.6C376.43,182.91,370.07,180.88,365.3,180.13Z"/><path class="cls-2" d="M376.06,180.61a40.66,40.66,0,0,0-8.36-3c1.14-2.79,2.33-5.55,3.26-8.43,1.09-3.36,2.39-7.71.76-11.1-3-6.17-12.19,1.71-16.15,5.33a42.35,42.35,0,0,0-5-5.35c-1.9-1.72-4.47-3.83-7.2-3.66-3.21.21-3.83,3.85-4,6.39-.35,4.2.55,8.56,1.44,12.7a48.15,48.15,0,0,0-9.1,1.79c-3.22.87-7.88,2.09-9.86,5.06-4.58,6.86,11.23,9.12,16.89,9.86,0,5.49-.07,10.89,1.09,16.3.59,2.77,2,6.74,5.64,5.93s6.16-4.15,8.21-7.06a74.59,74.59,0,0,0,5.9-10.55c5.66.05,11.18.12,16.72-1.28,2.89-.73,7.8-2.86,6.87-6.69C382.39,183.69,378.75,181.88,376.06,180.61Zm-2.31,10.52c-4.91,1-9.82.81-14.8.77h-.14a1.2,1.2,0,0,0-1.42.71c-2.63,5.47-5.41,11.59-10.06,15.66-.94.83-2.74,2-3.67.63-.79-1.18-1-2.89-1.25-4.25-1.05-4.92-.79-10-.76-15,.51-.79.38-1.94-.78-2.1a97.14,97.14,0,0,1-10.61-1.87c-1.42-.36-7.91-1.92-5.53-4.22s6.26-3,9.2-3.73a35.21,35.21,0,0,1,8.3-1.36,1.33,1.33,0,0,0,1.24-.72,1.42,1.42,0,0,0,.47-1.42c-.44-2.06-3.8-17.78.35-16.82,2.06.47,3.89,2.37,5.35,3.78a36,36,0,0,1,4.21,4.79,1.56,1.56,0,0,0,.41.39,1.47,1.47,0,0,0,2.18.2c1.78-1.64,11.87-11,13-6.16.71,3.1-1,7.06-2,9.93s-2.16,5.32-3.21,8a1.19,1.19,0,0,0,.08,1.14,1.17,1.17,0,0,0,.95.66c4.77.74,11.13,2.78,14.47,6.4C382.27,189.24,375.32,190.81,373.76,191.14Z"/><path class="cls-1" d="M48.82,32.77a1.26,1.26,0,0,1-.38-1.57C49.75,24.82,52.75,18.65,52.1,12c-.05-.52-.17-2.7-1.08-2.18a10.48,10.48,0,0,0-2.92,2.83C44.06,17.81,41,24,38.36,30a1.23,1.23,0,0,1-1.64.71A1.47,1.47,0,0,1,35.41,30a44.31,44.31,0,0,0-8.55-9.17c-1.07-.91-6.93-5.88-6.75-1.72s2.71,8.14,4.74,11.51a40.64,40.64,0,0,0,5.61,7.94,1.46,1.46,0,0,1,.44.81,1.43,1.43,0,0,1,.26,1.29c-1.76,7.15-7.63,12.59-10.09,19.55-.46,1.29-3.28,9.68.73,7.8,6.1-2.87,10.58-8.66,15.38-13.22a1.58,1.58,0,0,1,2.63,1.05c2.88,5.5,4.34,13,9.87,16.48,1.73,1.1,2.91,1.19,3.35-1.07a19.32,19.32,0,0,0,.2-5.39,48.91,48.91,0,0,0-2.67-11.12,1.36,1.36,0,0,1,1.12-1.83,1.21,1.21,0,0,1,1.43.1,40.27,40.27,0,0,0,9.77,5.77c1.22.44,4.8,1.74,5.32-.33a7.62,7.62,0,0,0-.57-4.74c-1.69-4-4.73-7.49-7.7-10.6A142.08,142.08,0,0,0,48.82,32.77Z"/><path class="cls-2" d="M51.59,31.12C53.09,24.5,56.1,17.91,55,11c-.55-3.67-3.44-5.59-6.59-3.13-3.41,2.66-5.68,7-7.75,10.69-1.46,2.61-2.84,5.28-4.11,8C32.17,21,20.49,8.87,17.41,16.93,15.84,21,19,26.4,20.88,29.86c2,3.61,4.25,7.6,7.15,10.59-1.12,3.84-3.68,7.08-5.79,10.42a39.75,39.75,0,0,0-5.09,11.78c-.71,3-1.09,8.94,3.51,8.77,3.8-.15,7.5-3.83,10.15-6.18,2.42-2.13,4.64-4.46,6.92-6.72,1.67,3.43,2.9,7.07,4.81,10.39,1.69,2.93,5.07,7.11,8.75,7.36,3.38.23,4.71-3.07,5-5.94A34.6,34.6,0,0,0,54.76,57.9a31.7,31.7,0,0,0,9.09,4.41c4.37,1.18,7.75-1.21,7.57-5.76s-3.34-8.54-6-11.87A104.09,104.09,0,0,0,51.59,31.12ZM68.21,58.46c-.52,2.08-4.1.77-5.32.33A40.27,40.27,0,0,1,53.12,53a1.21,1.21,0,0,0-1.43-.1,1.36,1.36,0,0,0-1.12,1.83,48.91,48.91,0,0,1,2.67,11.12,19.32,19.32,0,0,1-.2,5.39c-.44,2.26-1.63,2.17-3.35,1.07-5.54-3.52-7-11-9.87-16.48a1.58,1.58,0,0,0-2.63-1.05C32.38,59.35,27.9,65.14,21.8,68c-4,1.88-1.18-6.51-.73-7.8,2.46-7,8.33-12.4,10.09-19.55a1.43,1.43,0,0,0-.26-1.29,1.46,1.46,0,0,0-.44-.81,40.64,40.64,0,0,1-5.61-7.94c-2-3.37-4.57-7.47-4.74-11.51s5.67.81,6.75,1.72A44.31,44.31,0,0,1,35.41,30a1.47,1.47,0,0,0,1.32.71A1.23,1.23,0,0,0,38.36,30c2.66-6,5.7-12.2,9.73-17.39A10.48,10.48,0,0,1,51,9.79c.91-.51,1,1.67,1.08,2.18.65,6.67-2.35,12.84-3.66,19.22a1.26,1.26,0,0,0,.38,1.57A142.08,142.08,0,0,1,59.94,43.12c3,3.12,6,6.59,7.7,10.6A7.62,7.62,0,0,1,68.21,58.46Z"/><path class="cls-3" d="M74.75,168.83l-2.35,1.31a1.21,1.21,0,0,1,.82-.85,1.87,1.87,0,0,0-2,1.22,2.3,2.3,0,0,0-.07.38,5.39,5.39,0,0,0-2.06.65l-.77,1.09a7.73,7.73,0,0,0,.35,4c0,.15.08.29.13.45a1.83,1.83,0,0,0,1.47,2.79l1.62-.81c-.17.33-.53.5-.5.52a3.39,3.39,0,0,0,2.44-.68l.42,0c2.49,0,4.21-3,4.59-5.07L78,172.17a3.81,3.81,0,0,1-1.23-1.28A6.82,6.82,0,0,0,74.75,168.83Z"/><path class="cls-3" d="M28.23,173.79l2.57-1.18c0,.11-.18.27,0,.28l1.05,0a3.77,3.77,0,0,0,1.32-.19c2.26-.85,5-3.41,5.4-5.58a2.58,2.58,0,0,0-.87-2.5l-1.28.31a8.68,8.68,0,0,0-2.64-2.89,5.59,5.59,0,0,1-1.14-1l-1.78-2.14a6.68,6.68,0,0,0-2.41,1.22,3.25,3.25,0,0,1-2.47.77l-1.72,1.28a17.55,17.55,0,0,0-.24,2.15c0,.19,0,.42,0,.46a3.76,3.76,0,0,1-.58.58L24,168c.44.16.6,1.43.73,2.45A17,17,0,0,0,25,172.3l1.84,1.18A2.22,2.22,0,0,1,28.23,173.79Z"/><path class="cls-4" d="M250.76,204c9.32-1,30.26-1.91,39.2-.05a43.48,43.48,0,0,1,17.44,7.43c1.86,1.36,3.58,2.84,5.3,4.34a13.75,13.75,0,0,0,6.57-1,6.27,6.27,0,0,0,3.76-3.69,30.48,30.48,0,0,0-5.38-10.17c-3.49-4.38-7.74-7-12.67-9.45s-15.69-8.68-20.85-10.56C275.94,188.72,261.27,199.84,250.76,204Z"/><path class="cls-4" d="M175.92,175.94c.31-1.18,2-.63,1.78.51a30.4,30.4,0,0,1-2.08,7.3c10.06-7.67,26.23-6,37.53-3.1,14.35,3.68,30.16,11.24,40.07,22.59,12.13-3.95,23.69-9.44,33.12-18.27,10.26-9.6,18.11-20.94,22.36-34.43,5.86-18.58,7.7-38.8,2.64-57.76-4.22-15.84-12.83-31.27-27-40.13a.76.76,0,0,1-.36.19c-3.65.72-8.06,1-11.44-.85-1.36-.73-6.37-3.6-6.59-5.7a1.14,1.14,0,0,1-.26,0c-12.13-2.58-24.71-3.91-36.66.37-3.16,1.13-6.36,2.54-9.51,3.82-1.38.56-9.72,3.47-9.9,4.93-2.38,18.85,8.62,39.7,26.7,46.86A32.28,32.28,0,0,0,265,99.73c9.48-5.72,15.76-14.63,19.58-24.89a.72.72,0,0,1,1.39.4c-3.3,13.87-15,26.27-28.67,30.4,2.84,6-1,14.85-7.23,17.08-4.66,1.66-10.15,0-14.57-1.67-5.08-2-10-4.39-15.14-6.08-12.62-4.13-25.76-7.85-39.16-7.73-12.37.11-26.09,3.24-35.26,12.1A36.67,36.67,0,0,0,135.27,140c-.77,5.1-.19,10.2.63,15.26.62,3.82,1.66,7.86,1.63,11.75,0,6-3.89,11.9-10.17,12.89-2.17.34-4.41.11-6.53.72A41.15,41.15,0,0,0,115,183a34.62,34.62,0,0,1-10.61,3.17l-.72.09c-2.44,2.75-.84,6.76,1.42,9.27,4.87.38,9.63-.15,14.5-.14a64.39,64.39,0,0,1,13,1.76c9.38,1.94,20,3.25,28.78-1.46C169.1,191.53,173.73,184.31,175.92,175.94Z"/><path class="cls-5" d="M303.81,78.76A29.83,29.83,0,0,0,299,68c-1.6-2.14-3.74-7.67-5.73-9.46-6.63-6-13.31-8.15-21.15-12.43a7.75,7.75,0,0,1-3.25,2c4,4.11,9.35,6.85,8,13.69a.91.91,0,0,0,.85,1.15c2.28-.15,10.54,2.49,6.16,4.9a1,1,0,0,0,.2,1.8,22.29,22.29,0,0,1,8.41,5.47c4.27,6.07,7.1,13.84.28,16.87a12,12,0,0,1-1.62.58,1,1,0,0,0-.28,1.82c12.6,7-2.73,27.32-13.67,26-1.13-.14-1.41,1.79-.29,2,4.1.74,2.77,4.27-.08,5.83-2,1.07-4.52,1.08-6.68,1.24a1,1,0,0,0-.29,2c1.84.76,4.64,2.34,3.45,4.75-.93,1.88-3.66,2.22-5.47,2.26-2.78.06-5.8-1.49-8.32-2.54a1,1,0,0,0-1.17.46c-1.71,3-3.3,6-5.86,8.29-2.93,2.62-8.37,5.76-12.38,5-6.06-1.17-10.69-4-15.92-7.22-14.47-9-31.09-15.44-48.14-15-7.06.18-14.17,1.53-21.23.62-2.43-.32-5.39-.4-5.91-3.21-.46-2.46,1.49-5.26,3-7,3.23-3.58,8.43-7.56,13.38-8.08.44,0,.47-.73,0-.71-9.44.37-18.53,7.59-24.24,14.71-5.09,6.35-8.22,14.47-7.66,22.58.4,5.87,2.66,11.48,3.06,17.35s-1.81,12.65-7.3,14.74c-1.71.65-4.11,1.49-3.78,3.29a3,3,0,0,0,1.17,1.62c5,4.12,12.37,4.37,18.48,2.2s11.25-6.4,16.13-10.67a18.59,18.59,0,0,1,5.61-3.82,16.6,16.6,0,0,1,6.26-.66c17.09.57,33.68,5.66,50.63,7.89s35.46,1.21,49.2-9c9-6.68,15-16.56,21.54-25.68,4-5.52,8.27-10.93,10.79-17.25a34.83,34.83,0,0,0,2-18.51C305.68,98.23,306.16,88.22,303.81,78.76ZM286.42,68.42l.06-.07,0,0,.18.15Z"/><path class="cls-6" d="M323.69,209.08c-1.76-2.77-3.61-5.5-5.59-8.12-1.19-1.57-2-4.37-3.91-5.1a8.53,8.53,0,0,1-6,4.93,15.78,15.78,0,0,1-8-.7,32,32,0,0,1-11.94-6.84c-5.84-5.31.76-9.77,4.33-14,3.15-3.75,6.18-7.61,9.38-11.32,6.53-7.56,10-18.91,11.62-30.89l-.27.18c2.42-9.29,1.79-19.57.9-28.94A109.6,109.6,0,0,0,301.8,67.16C301,65.62,300,64,298.43,63.31c-1.94-.85-4.52-.53-6.61-.92-.51-.1-4.67-.26-2.51,1.1,16,10,18,32.87,8.45,48.06a1.11,1.11,0,0,0,.36,1.49c6.06,4.88-.44,12.8-4.48,16.65a1.09,1.09,0,0,0-.2,1.3c3.49,5.95-.23,12.55-4.58,16.89-4,4-12.88,7.83-17.95,3.67l-.12-.09,0-.07c-.36-.75-1.33-1.33-1.69-.24-2.12,6.5-8.55,10.87-14.14,14.22a57.92,57.92,0,0,1-8.38,4.2c-2.28.9-11.77,2.28-7.91-2.64.9-1.15-.86-2.26-1.85-1.49-2.88,2.24-5.71,4.73-9.17,6a4.49,4.49,0,0,1-2.72.24c-2.15-.54-.56-2.89,0-3.77,1-1.41,2.33-2.51,3.15-4a1.16,1.16,0,0,0-1.54-1.61c-7,3-14.07,5.87-21.72,6.34-1.55.1-10.37.2-9-2.55,1-2,3.15-3.59,4.66-5.21a1.07,1.07,0,0,0-1.48-1.55c-5.2,4-12.29,4.3-18.55,3.51a37.82,37.82,0,0,1-16.59-6.57c-3-2-4.33-3.26-4.73-3a.54.54,0,0,0-.36.8c-.1,4.5.08,8.51-1.53,12.84-.55,1.47-4.62,8.05-5,4.22a1,1,0,0,0-1.93-.28,36.08,36.08,0,0,1-2,4.84,12,12,0,0,1-1.77,2.47c-.42.48-3.8,3-3.1-.56.16-.81-.81-1.59-1.47-.89-1.93,2-8.48,6.85-11.32,4.56-1.56-1.26,0-3-1.61-3.15l.05-.08a.47.47,0,0,0-.38,0,11.8,11.8,0,0,1-5.84.46c-.73-.15-2.31-.32-1.94,1,.46,1.68,4.53,1.36,2.26,3.94a14,14,0,0,1-5.52,3.42,7.79,7.79,0,0,1-5.5.17,10.73,10.73,0,0,1-2.69-1.27c-1.6-1-.09-1.64,1.18-2a.49.49,0,0,0-.24-.94,21.3,21.3,0,0,0-7,2.71,3.93,3.93,0,0,0-1.29.94c-.72.91-.5,2.23-.16,3.35a25.06,25.06,0,0,0,1.22,3.22,6.59,6.59,0,0,0,2.24,3c1.84,1.16,4.22.54,6.39.3a33.38,33.38,0,0,1,6.1.07l5.58.41c1.71.12,3.43.25,5.13.51,5.65.86,11.13,3.22,16.85,3a6,6,0,0,0,2.62-.59,29,29,0,0,0,5.14.29,15,15,0,0,0,6.7-2c1.71-.9,4-3,5.95-3a5.47,5.47,0,0,1,2.52.94c11.18,6.4,23.33,11.59,36.11,13.11,25.25,3,41.3-2.76,48.57-4.9.75-.22,1.55-.47,2.41-.76a3.3,3.3,0,0,0-.84,1.19,15.48,15.48,0,0,0,4.36-1l-.58.33c7.61.7,15.19-1.16,22.8-.69,8,.49,16.31,4,23.32,7.64l1.38.74a15.14,15.14,0,0,1,5.43,4.31,1.5,1.5,0,0,0,.57.59,1.37,1.37,0,0,0,.74,0L316,216c2.72-.42,5.62-.91,7.65-2.77a2.91,2.91,0,0,0,.82-1.11C324.87,211.11,324.27,210,323.69,209.08Z"/><path class="cls-7" d="M253.22,204.11C243.78,193.23,224.69,185,211,181.47c-11.67-3-28.1-3.86-36.79,2.49-.45.33-1.15,3.57-.64,3.26l-2.49,4a27.44,27.44,0,0,1-3.59,3.61C210.14,223.05,253.81,204.8,253.22,204.11Z"/><path class="cls-8" d="M253.6,201.93c-1.63-.93-3.15-2.4-4.72-3.32a26.19,26.19,0,0,1-3.22-2.11c-1,.74-2.09,1.45-3.18,2.09a46.32,46.32,0,0,1-8.74,4,36.12,36.12,0,0,1-11.09,1.87c-2.19,0-12.13-.27-8-4.66.77-.81.44-2.28-.76-1.92-4.18,1.25-26.79,5.58-23.54-4,.32-.95-.61-1.6-1.45-1.49-3.85.51-8.21.53-11.67-1.42-4.92-2.77-3.5-7.67-.2-9.4.18-.09.17.68-1.77,1.21a25.15,25.15,0,0,0-1.83,2.15c-2.31,3-4.94,7.18-7.41,10.07A136.38,136.38,0,0,0,198,208.07c2.31.6,5.92-.07,8.27.3,2.19.34,4.4.54,6.62.66a104.6,104.6,0,0,0,41.87-5.94Z"/><path class="cls-9" d="M174.62,183.39c12.45-5.28,28-4,40.75-.31,14.27,4.13,26.95,12.57,38.81,21.23.65.48,1.43-.53.87-1.08-5.73-5.73-12.94-10.09-20-14a94.83,94.83,0,0,0-19.91-8.47c-13-3.65-28.25-5.52-40.55.69-.46.23-.43,2.11,0,1.92Z"/><path class="cls-9" d="M228.69,47.16a7.93,7.93,0,0,0-.71.73c-2.41,2.85-2.43,7.15-2,10.65.62,4.95,3.27,9.23,6.46,12.95,5.93,6.89,16,12.66,25.35,11.79A14.54,14.54,0,0,0,270.41,66c-1.81-8.18-9.2-14.16-16.09-18.16a29.49,29.49,0,0,0-15.71-4.13C235.37,43.84,231.22,44.84,228.69,47.16Z"/><path class="cls-10" d="M229.28,45.11a17.85,17.85,0,0,0-3.45,15.54A31.56,31.56,0,0,0,234,75.33c5.76,5.85,15.49,10.94,23.9,9.56,9.74-1.6,15.26-11.68,13.39-21C269,52.38,255.57,45.48,245.11,43.38a.79.79,0,0,0-.44,1.52c9.28,3.69,20,7.6,23.79,17.84,3.23,8.77-2.87,19.09-12.3,19.62-7.09.4-14.32-3.73-19.51-8.22a28.86,28.86,0,0,1-7.86-12.24c-2.16-6-1.17-10.59,1.41-16.24a.54.54,0,0,0-.92-.56Z"/><path class="cls-6" d="M261.39,45.39a5.77,5.77,0,0,1,.2-3.41,5.74,5.74,0,0,1,1.64-1.77c2.21-1.78,4.65-3.65,7.49-3.67a23.08,23.08,0,0,0-.75,5.09,17.71,17.71,0,0,1-1.69,5.7l-.19,0Z"/><path class="cls-11" d="M330.27,185.94a21.93,21.93,0,0,0,2.71,1.48c4.89,2.17,5.39-2.12,3.5-5.28a30.32,30.32,0,0,0-2.3-3.32C334.19,181.61,332.6,185.1,330.27,185.94Z"/><path class="cls-11" d="M208.24,56.22C201.3,60.53,192.69,67,190.83,75.3c-1.13,5,.68,9.93,5.41,12.45,5.18,2.76,11,2.47,16.65,1.85,1-.11,1.25,1.21.71,1.81s-5.71,5.65-3.55,6.15c3.52.81,8.18-.81,10.79-3.26C211.13,84.3,205.81,70.16,208.24,56.22Z"/><path class="cls-12" d="M332.11,182.8c-.19,1.34-3.6,3-2.64,3.7s7.81,3.15,8.46.06c.05-.25.16-.59,0-.8-.56-.81-1.65-.73-2.48-1.15a9.94,9.94,0,0,1-2.4-2.18.56.56,0,0,0-1,.38Z"/><path class="cls-11" d="M101.17,186.59c-4.15.64-10.67,1.93-9.54,3.62,2,3,6.45,4.33,10.21,4.93C100.17,192.76,99.76,189,101.17,186.59Z"/><path class="cls-12" d="M91.3,187.71c-2.22,2.06,1.78,6.3,3.32,6.63s8.05,3.59,8.69,1.47a26.69,26.69,0,0,0-1.77-5.86,2.59,2.59,0,0,0-1.72-.09,16.76,16.76,0,0,1-3.1.11c-1.73-.07-3.87-.12-4.39-2a.63.63,0,0,0-1-.3Z"/><path class="cls-12" d="M203.83,80.66a4.14,4.14,0,0,0-2.92-3.16,1.24,1.24,0,0,0-.46,0,1.62,1.62,0,0,0-2.14,1.11c-.82,2.22,2.86,3.4,4.47,3.38A1.08,1.08,0,0,0,203.83,80.66Z"/><path class="cls-11" d="M314.85,217.62l1.39,1.17c1.41,1.16,3.09,2.64,4.9,3.11,2.49.66,2.85-2.22,2.87-4.13a21.46,21.46,0,0,0-.25-3.43C321.73,216.44,317.89,217.67,314.85,217.62Z"/><path class="cls-12" d="M313.81,216.71c-1.13,2.55,5.54,7.21,9.55,6.08.61-.17,1.12-.6.94-1.2s-1.2-1-1.74-1.43a7.44,7.44,0,0,1-2.29-4.75.57.57,0,0,0-1-.16Z"/><path class="cls-13" d="M282.6,22.49c1.09-.23,2.11-.73,3.19-1h0q.47-6.57.85-13.08c-2.27,4.6-4.63,9.15-7,13.69A5.34,5.34,0,0,0,282.6,22.49Z"/><path class="cls-11" d="M109.77,157l-1.15.1c-2.05.2-6.12.25-7.63,2-1.83,2.1,4.32,4,8.88,5.09A7.82,7.82,0,0,1,109.77,157Z"/><path class="cls-12" d="M100.76,158c-2.19,3.42,8.23,8.24,10,8,1.28-.2-.25-5.86-1.5-5.7s-7.69-.3-7.57-2a.48.48,0,0,0-.88-.25Z"/><path class="cls-14" d="M331.58,113.6a66.45,66.45,0,0,1-16.74-15.85,104,104,0,0,1,0,37.46.48.48,0,0,1,.22.26c.83,2.4,5.35,4.81,7.13,7.54a15.72,15.72,0,0,0,.31-4,17.67,17.67,0,0,0-.61-3.21c-1.24-2.16-2.29-4.46-3.76-6.57-.32-.45.36-.82.72-.53,3.38,2.8,4.46,7.52,8.07,10.09a17.44,17.44,0,0,0,9.48,3.27c-3.36-2.18-5.58-6.34-7.06-9.88-1.08-2.57-1.82-5.2-2.71-7.83a23.45,23.45,0,0,0-3.4-6.33c-1.13-1.33-2.24-2.68-3.34-4a.49.49,0,0,1,.6-.75c3,1.83,5.2,4.54,7.64,7a32.94,32.94,0,0,0,9.36,6.67c4,1.89,9.31,3.92,12.38,7.54a27.42,27.42,0,0,0-4.35-10.32,35.25,35.25,0,0,0-5.93-6.92A34.66,34.66,0,0,1,331.58,113.6Z"/><path class="cls-14" d="M308.66,45.6c6-3.39,11.43-6.62,15.07-12.32-5.66,3-12.21,4.15-18.22,6.17-7.42,2.5-13.59,6.13-17.7,13A44.07,44.07,0,0,1,294,57.14C297.09,51.7,303.41,48.56,308.66,45.6Z"/><path class="cls-15" d="M287.71,53a11.1,11.1,0,0,0,2,1.47,2.2,2.2,0,0,0,.69.4c.74.21,1.44-.37,2.12-.74,1.53-.84,3.42-.64,5-1.26a17,17,0,0,0,3.89-2.7,31.37,31.37,0,0,1,5.06-2.86,57.49,57.49,0,0,0,10.16-6.1,25.88,25.88,0,0,0,7.55-9,26,26,0,0,0-3.17.71c-.86.63-1.16,1.95-1.89,2.8-1.58,1.84-3.92,2.81-6.08,3.76-3.16,1.39-6.33,2.76-9.45,4.25s-5.87,4.11-8.91,6a14.23,14.23,0,0,1-5,2.07c-.64.11-2.14-.15-2.27.67A.78.78,0,0,0,287.71,53Z"/><path class="cls-15" d="M315.12,99.75c-1.57,6.74,2.1,11.8,7.07,14.91,2.27,1.42,6.69,7.9,8.32,9.13a81.53,81.53,0,0,0,10.6,5.51c2.79,1.09,6.68,3.05,8.8,5.14.83.82,1.12-2.69.69-3.69-1.35-3.12-4.75-4.45-7.72-5.61A25.54,25.54,0,0,1,337,122c-2.07-1.51-3.54-3.65-5.43-5.36-2.79-2.52-6.4-4-9.29-6.42-3.15-2.67-6.33-6-6.41-10.37,0-.44-.68-.57-.78-.11Z"/><path class="cls-13" d="M271,48.79c3.62,2.54,7.64,3,11.89,2.31q.61-4.43,1.09-8.91c-3.82,2.69-10.75,1.7-13.64-2-.78,1.61-1.53,3.24-2.2,4.89a5.44,5.44,0,0,0-.23.78A16.37,16.37,0,0,0,271,48.79Z"/><path class="cls-14" d="M307,74.54a81.48,81.48,0,0,1,4.46,10.39c4,1.7,7.36,4.75,11.17,6.85a65.85,65.85,0,0,0,15.57,6.39,44.11,44.11,0,0,0,13.75,1.68,34.81,34.81,0,0,0,10.44-2.56c-6.5-1.39-12.3-5.89-17.53-9.66-3.61-2.6-7.38-5.45-11.67-6.83-3.71-1.19-7.68-1.48-11.35-2.77A67.19,67.19,0,0,1,307,74.54Z"/><path class="cls-14" d="M335,99.64a56.59,56.59,0,0,1-11.34-4.88c-4.13-2.37-7.68-5.66-11.67-8.2q.44,1.35.83,2.69c.54,1.85,1,3.71,1.42,5.57,7.23,6,12.49,14.08,21.34,18.19,7,3.27,16.62,3.67,22.66,8.93C354.67,112,344.82,104.47,335,99.64Z"/><path class="cls-15" d="M311.2,86c-.73,2.65.9,8.65,2.53,10.32,3.29,3.37,12.5,12.5,16.39,15.07a51.82,51.82,0,0,0,10.42,5c4.05,1.53,8.58,1.87,12.54,3.62,2.36,1,4.4,2.78,6.83,3.65a4.12,4.12,0,0,0-.47-3.18c-2.31-4.86-7.1-8-12-9.91s-9.38-3.51-13.68-6.61c-2.1-1.52-4.37-2-6.55-3.41s-4.71-2.72-6.95-4.29c-2.68-1.87-6.31-6.24-7-9.57C313.17,86.11,311.2,86,311.2,86Z"/><path class="cls-15" d="M307.17,75.08c2,5.55,1.47,7.69,4.56,10.73,2.52,2.48,8.43,6.1,12,8.11,2.46,1.39,13.19,3.68,15.45,5.35,2,1.51,19.24,1.35,23.9-.74,1-.43,0-3-1-2.76-5.09,1.19-12.89,1-17.77-.84s-8.66-5.19-13.24-7.75c-3.59-2-8.06-2.69-11.92-4.1A23.6,23.6,0,0,1,308,74.63a.49.49,0,0,0-.82.45Z"/><path class="cls-14" d="M306.18,73.05c5.18,1.09,10.38,2.42,15.66,2.88,5.81.5,11.25-.32,17-1.27,8.3-1.38,19-3.13,27,.89a41.27,41.27,0,0,0-20.17-11.27c-9.06-2.25-18.29-1-27.49-.64a71.1,71.1,0,0,1-17.54.8A67.56,67.56,0,0,1,306.18,73.05Z"/><path class="cls-15" d="M297.93,64.52c5.41,2.17,2,7.21,7.58,9,5.06,1.59,18.21,3.42,23.36,2.63s9.1-.8,14.16-1.54A50.25,50.25,0,0,1,353,74c3,.24,9.57.87,12.4,1.84.87.3-2.57-4.89-3.26-5.37-7.94-5.59-19.48-3.62-28.12-1.88-6.14,1.24-12.78,3.45-19,2.2s-10.69-6-16.77-7.25a.53.53,0,0,0-.29,1Z"/><path class="cls-14" d="M310.14,47.33c-5.45,3.08-10.87,6.11-15.21,10.68A54.25,54.25,0,0,1,300,63.67c5.8-1.13,11.77-1.08,17.59-2.12a66.73,66.73,0,0,0,15.21-4.94c7.24-3.18,15.9-7.69,24.2-7.24a47.58,47.58,0,0,0-28.1-5.88,100.06,100.06,0,0,0-15.41,3C312.45,46.76,311.3,47,310.14,47.33Z"/><path class="cls-15" d="M355.69,47.39c-2.81-2.38-6.94-1.87-10.36-1.54a63,63,0,0,0-13.56,2.35c-4.38,1.42-7.88,4.43-11.78,6.75a19.19,19.19,0,0,1-15.37,2.45c-1.24-.31-6.38,6.1-5.25,6.57,8,3.4,30.49-3.27,36.94-7.77,4.5-3.14,17.48-7.32,21.79-5.5.38.16-2.1-3-2.41-3.31Z"/><path class="cls-13" d="M285,30.33l.12,0q.31-3.67.58-7.33c-1.8,1.49-4.92,1.92-6.67.35q-1.84,3.52-3.66,7.05C278.57,32.12,281.75,32.4,285,30.33Z"/><path class="cls-14" d="M99.36,81.94c9.12-2.39,17.56-7.24,27.14-7.88,9.27-.62,16.95,3.5,21.72,11.46,4.55,7.58,7.61,16,7,24.9a51.31,51.31,0,0,1,6.13-2.48c3.84-9.2,5.54-18.89.48-28.08a38.33,38.33,0,0,0-26.41-19.25,42.41,42.41,0,0,0-18.06.57c-5.57,1.44-10.68,4-15.93,6.25-4.1,1.77-9,4.2-13.56,4-3.53-.13-6.13-2-8.34-4.55a17.89,17.89,0,0,0,5.6,11.6C89,82.32,94.09,83.33,99.36,81.94Z"/><path class="cls-14" d="M101.56,120.84c3.64-5.18,7.86-9.94,13.72-12.66,11.14-5.16,23.7-2.91,31.59,6.73a1.22,1.22,0,0,1,.25.5q1.12-.88,2.31-1.68a1.1,1.1,0,0,1-.79-.74c-4.11-12.27-13.56-26.44-28.47-25.24-9.92.8-19.63,10.44-29.81,6.15-.4-.17-.4-.88.12-.83,12.23,1.15,22-9.56,34.25-7.34,13.59,2.47,22.5,13.92,26,26.71a1.17,1.17,0,0,1,0,.38q1.23-.76,2.5-1.45c-.83-5.31-.25-10.21-2.36-15.35-1.86-4.54-3.88-9.36-7.19-13.05-8.63-9.61-20.63-6.75-31.47-3.11-7.34,2.46-15.76,7.2-23.5,4-4.5.35-9-1.87-12.14-5.08-2.14-2.22-3.57-5-5.75-7.21-1.56-1.56-3.33-1.93-5.11-2.45a31.32,31.32,0,0,1,2.15,3.22c3.84,6.54,7.95,12.52,13.48,17.77.47.44-.15,1.1-.67.83-5.86-3-9.75-8.9-13-14.44s-6.82-11.64-14.09-11.6c-9.73.06-16.56,9.91-26.06,10.27,3.87,2.54,7,5.8,12.31,4.37,3.59-1,7-1.07,10.39.71a15,15,0,0,1,1.84-.73c4.58-1.44,10.77-1.94,14.5,1.68a.72.72,0,0,1,.1,1l-.05.09,0,0a.7.7,0,0,1-.2.17l-.1,0a.85.85,0,0,1-.14.06h0a19.82,19.82,0,0,0-8.24,4.52l-.77.66c3.69,1.57,3.79,6.45,3.47,10-.25,2.81-.82,5.83-.37,8.65a7.92,7.92,0,0,0,3,5.21A23.07,23.07,0,0,0,66,112.7a22.42,22.42,0,0,0,12.79,0c6-1.59,12.81-4.44,19-2.33a.54.54,0,0,1-.15,1A38.6,38.6,0,0,0,85.75,113a71.57,71.57,0,0,1-11.05,2.83c-7.3,1-14.72-2.41-20-7.35,2.81,9,9.36,15.91,19,17.91C83.42,128.42,93.12,125.78,101.56,120.84Z"/><path class="cls-15" d="M78.67,65.94c.63,4.36,2.87,12.1,6,13.73s6.87,4.1,11.62,3.34c10.91-1.75,22.21-8.28,30-8.2,8.08.08,11.85.82,17.34,6.79,6.77,7.36,13,19.81,9.93,28.63-.45,1.29,4.06,1.57,4.51.29,2.82-8.08,1.2-17.92-3-25.64-3.67-6.68-10.85-10.83-18-12.8-8.42-2.32-16.68-.44-25,1.48-5,1.16-10,2.24-15.16,2.18-5.75-.07-10.17-2.51-14.22-6.41C82.25,68.87,78.67,65.94,78.67,65.94Z"/><path class="cls-13" d="M284.16,40.68c.31-2.87.57-5.75.83-8.64-2.48,2.48-7.9,2.16-10.22-.47l0,0C273.5,34,272.2,36.46,271,38.93,275.05,41.92,279.3,42.25,284.16,40.68Z"/><path class="cls-15" d="M150.83,113.77c-2.75-11.64-10.57-23.3-22.33-26.59-6-1.69-11.79-.45-17.57,1.48-7.51,2.51-12.66,5.24-20.58,5.23-.93,0-3.69-.65-3.28.15,2.26,4.45,7.78,6.41,11.87,8.54-6.43,2.48-14.52,1.22-20.47-2.47-6.23-3.87-7.7-12.22-11.41-18.06-3.52-5.55-9.37-8.44-15.83-8.71-3.22-.14-6.31.83-9.38,1.67-5.31,1.46-10,0-15.4-1a.34.34,0,0,0-.18.64c4.37,1.7,6.6,6.65,11.18,6.22,3.35-.31,6.85-.88,10.17-.07,1.66.41,2.85,1.94,4.1,3.06l4.35,3.87a10.58,10.58,0,0,1,2.27,2.5,8.69,8.69,0,0,1,.91,4.33c0,3-.55,6-.47,9s.92,6.21,3.19,8.2A11.25,11.25,0,0,0,66.72,114a23.36,23.36,0,0,0,9.77.33c5.2-.94,10-3.65,15.34-3.93,2.66-.14,5.26.56,7.86,1-9.63,10.35-26.05,14.92-38.93,8.43,3.48,4.62,8.53,8.29,14.26,9.12a31.81,31.81,0,0,0,9.58-.46c5.13-.82,10.5-2.21,15-5A29.7,29.7,0,0,0,106,118.1c1.85-2,3.29-5,5.64-6.51,2.75-1.76,7.36-3.16,10.52-4.11a21.86,21.86,0,0,1,24.43,8.78S151.21,115.38,150.83,113.77Z"/><path class="cls-9" d="M286.23,8.29c-5.68,13.39-13.65,23.83-19.3,37.24-.58,1.37,3.75,4.86,4.32,3.5q3-7,5.83-14c3.51-8.58,8.29-17.33,10-26.47a.44.44,0,0,0-.85-.25Z"/><path class="cls-6" d="M208.94,55.1C207,64,210.68,79.78,215.86,86.79c5.44,7.36,16.51,16.37,25.52,18.25,16.75,3.51,36.38-8.43,43.86-29.82.32-.91-.68-1.49-1.25-.76-10.4,13.39-27.61,21.62-44.6,18.88-16.32-2.63-31.32-21.41-29.69-38.13a.39.39,0,0,0-.76-.11Z"/><path class="cls-4" d="M311.38,180c4.06.57,8.47.88,12.35,2.24a19.82,19.82,0,0,1,4,2.06h0c2,.29,3.33-.59,4.21-2.47a8.91,8.91,0,0,0,.92-4.56,33.28,33.28,0,0,0-7.57-6.22c-5.83-3.49-12.28-7-18.92-8.67a78.24,78.24,0,0,1-9.65,15.07C301.62,178.37,306.46,179.33,311.38,180Z"/><path class="cls-6" d="M301.08,169.54c-.72,1.08-1.41,2.74-1.68,3.2q-1.76,3-3.75,5.81l25.08,3.94c2.91.46,6,1,8.15,3a23.79,23.79,0,0,0,3.78-3.75c.92-1.23,2.29-3.61,1.61-5.16-.48-1.09-1.87-1.64-2.78-2.26-3.28-2.27-5.76-5-9.58-6.48-.92,3.94-5.41,4.68-8.84,4.49a22.25,22.25,0,0,1-10.66-3.69C302,168.4,301.55,168.85,301.08,169.54Z"/><path class="cls-4" d="M132.71,149.21c-.06-.68-.09-1.36-.11-2-4.2,4.34-10.64,8.7-16.36,9.31-1.64.18-3.3.27-4.95.38-.32,1.48-.85,3-.49,4.5a11,11,0,0,0,1.81,3.37c.76.14,1.33.24,1.59.27,6.76.79,14.12,1.32,20.68-.81-.11-1-.27-2-.43-3C133.82,157.18,133,153.21,132.71,149.21Z"/><path class="cls-6" d="M116.33,155.65a31.13,31.13,0,0,0-5.78.49,16.38,16.38,0,0,0-.21,5.11c0,.19.59,4,.16,3.8,5.36,3,20.81,2.93,24.87-1,.51-.5-.62-12.26-1.25-11.84-2.13,1.46-5.86,4.37-8.21,5.45a13.67,13.67,0,0,1-4.65,1.21c-1.18.09-5.27-.73-4.19-2.72C117.22,155.85,116.9,155.71,116.33,155.65Z"/><path class="cls-12" d="M189.15,78.77c1.17,3.85,3.59,8.3,7.14,10.42,2.09,1.25,5,1.32,7.43,1.54a53.45,53.45,0,0,0,5.92.21,18.89,18.89,0,0,1,5.19.12.83.83,0,0,1,.46.23.69.69,0,0,1,.13.35,2.41,2.41,0,0,1-.86,2,11.06,11.06,0,0,1-1.9,1.26,13.32,13.32,0,0,0-2.33,1.78,1.89,1.89,0,0,0-.69,1.13c-.08,1,2,1.3,2.69,1.35a8.87,8.87,0,0,0,3.26-.51c2.78-.86,5.68-2.36,6.72-5.08-.11.28-2.84-1.93-3.11-2.24a34.51,34.51,0,0,1-3.34-4.55c-.53-.82-.67-2.14-1.55-2-13.94,1.82-21.21,1.37-24.36-6.31C189.76,78,189,78.31,189.15,78.77Z"/><path class="cls-6" d="M257.34,105.64c3.19,10.28,13.36,7.57,19.09,1.82,7.64-7.67,11.34-20.79,8.52-31.26-.17-.62-1.23-.54-1.15.14C284.87,85.57,257.34,105.64,257.34,105.64Z"/><path class="cls-14" d="M62.8,81.32c-4.68-1.41-9.6-.33-13.94,2.2-3.46,2-7,4.11-11,4.31,2.18,1.1,4.19,2.53,6.72,2.91,4,.6,6.92-1.26,9.85-3.67C56.73,85.2,59.66,82.36,62.8,81.32ZM52.19,85.69a6.65,6.65,0,0,1-3.11,2.44,6.9,6.9,0,0,1-4,.28c-.41-.07-.33-.65,0-.75A57.87,57.87,0,0,0,51.55,85C52,84.85,52.48,85.26,52.19,85.69Z"/><path class="cls-14" d="M145.18,116.53c-8.59-10.46-23.62-11.48-34.08-3-8.05,6.57-11.84,19.23-21.54,23.75,5,.23,9.76-.2,14.36-2.64,4.93-2.62,8.37-6.31,11.84-10.59,3.12-3.85,7-7.65,12-8.67,5.67-1.14,10.25.62,15.18,3.32a1.15,1.15,0,0,1,.24.17q1.09-1.12,2.26-2.14A1.18,1.18,0,0,1,145.18,116.53Z"/><path class="cls-2" d="M235.22,52.25c-3.52,2.65-4.09,8.26.46,10.29,4.37,2,8.41-3,8.33-7.08a.65.65,0,0,0-1.27-.19c-.82,2.19-2.76,5.25-5.59,4.64-3.65-.79-2.57-4.93-1.27-7.14.26-.44-.29-.81-.66-.53Z"/><path class="cls-2" d="M251.37,60.48c-4.55,4.63-2.54,13.16,4.29,13.71,5.32.43,9.11-6.87,6.44-11.21-.34-.55-1.4-.42-1.33.34.32,3.31-1.4,8-5.58,7.34-4.93-.8-3.66-7.24-3.08-9.73a.45.45,0,0,0-.75-.45Z"/><path class="cls-16" d="M199.32,80.2c-.45-.44-.86-.83-.5-1.46a1.93,1.93,0,0,1,1.92-.81,2.55,2.55,0,0,1,2,1.64,3.33,3.33,0,0,1-.41,2.71c-.23.48.23,1.1.76.79a3.63,3.63,0,0,0,1.38-4.16,4.27,4.27,0,0,0-3.85-2.9,3.53,3.53,0,0,0-3.48,2.15,2,2,0,0,0,1.9,2.74.42.42,0,0,0,.31-.71Z"/><path class="cls-16" d="M90.35,93.9c10.18,4.29,19.89-5.36,29.81-6.15,14.91-1.2,25.63,14.93,28.92,26.57.38,1.35,2.07-.49,1.69-1.87-3.55-12.8-12.45-24.24-26-26.71-12.21-2.22-22,8.49-34.25,7.34-.52,0-.53.66-.12.83Z"/><path class="cls-16" d="M87.32,138.18c11.41-3.47,15.13-17.56,23.77-24.61,10.45-8.52,25.49-7.5,34.08,3,1,1.17,2.64-.46,1.7-1.62-7.88-9.64-20.45-11.89-31.59-6.73-6,2.78-10.28,7.7-14,13-4.28,6.17-8.08,11.63-14.43,15.86-.54.36-.25,1.33.44,1.12Z"/><path class="cls-16" d="M110.65,155.67c-2.64,3-2.28,8.81,1.54,10.72a.65.65,0,0,0,.9-.86c-.76-1.45-1.89-2.52-2.29-4.17s.37-3.51.62-5.22c.06-.4-.43-.86-.78-.47Z"/><path class="cls-16" d="M103.67,184.67c-5.33,1.47-3.82,11.51,1.07,12.57a.76.76,0,0,0,.75-1.24c-2.65-2.62-4.75-7.43-1.27-10.33a.59.59,0,0,0-.55-1Z"/><path class="cls-16" d="M311.88,217c4.1,2.21,15.54-1.46,12.91-7.52a.75.75,0,0,0-1.36.15,6.28,6.28,0,0,1-4.16,5.16,14.16,14.16,0,0,1-7,1,.68.68,0,0,0-.36,1.25Z"/><path class="cls-16" d="M332.84,176.9a8.61,8.61,0,0,1-.87,5c-.88,1.88-2.16,2.76-4.21,2.47-.69-.1-.92,1-.37,1.27,4.66,2.69,8.09-5.62,6.31-9-.26-.49-.94-.16-.86.34Z"/><path class="cls-16" d="M360.89,125.12c.83-6.68-5.88-13.35-10.33-17.41a52.64,52.64,0,0,0-8.36-6.22c8.19,1.53,17.37,1.06,24.21-4a.74.74,0,0,0,0-1.24A.84.84,0,0,0,366,96c-4.13-1.39-8.05-2.56-11.86-4.76-3.52-2-6.77-4.55-10.09-6.89a42.68,42.68,0,0,0-10.36-5.55,23.09,23.09,0,0,0-4.31-1,45,45,0,0,0,5-.49,159.87,159.87,0,0,1,16.93-2.23,43.33,43.33,0,0,1,16.61,2.72.59.59,0,0,0,.51,0c.62.4,1.4-.43,1.11-1.14-3.35-8-13.74-12.26-21.42-14.55-6.62-2-13.34-2-20.06-1.38q1.33-.51,2.64-1c9.9-4,19.09-8.89,30-8.76l.1,0h.08a.67.67,0,0,0,.39-.26l0-.06,0-.06a.62.62,0,0,0,0-.7.67.67,0,0,0-.07-.09l0,0h0l-.12-.09C351.81,41.81,339.75,40,328,41.1a66,66,0,0,0-11.3,2.27c4.28-2.92,8.38-6.76,9.26-11.77,0,0,0,0,0,0,.59-.46.21-1.63-.59-1.32C318,33.16,310.31,35,302.9,37.76c-6.85,2.58-13.51,7-16.17,14-.76-.45-1.54-.87-2.33-1.27-1.06-.53-2,1-1,1.59,14.74,8.77,23.61,24.52,27.92,40.69,5.05,19,3.21,39.18-2.64,57.76a78.63,78.63,0,0,1-19.88,32c-.68.19-.94.77-.07,1.14,5.54,2.32,11.12,5.17,16.22,7.75,4.93,2.49,9.18,5.08,12.67,9.45,3.74,4.68,6.42,10.83,6.37,16.87,0,1.91-.37,4.79-2.87,4.13-1.81-.48-3.49-2-4.9-3.11-3-2.46-5.72-5.09-8.85-7.38A43.48,43.48,0,0,0,290,204a98.9,98.9,0,0,0-36.08-.84,3,3,0,0,0-.67.11c-2.91,1-5.85,1.81-8.8,2.61-25.25,6.78-54.74,2.75-76.92-11.14a29.56,29.56,0,0,0,10.2-18.26c.18-1.14-1.47-1.7-1.78-.51-2.19,8.37-6.82,15.59-14.58,19.73-8.82,4.71-19.4,3.41-28.78,1.46a64.39,64.39,0,0,0-13-1.76c-5.17,0-10.21.6-15.38.07-4-.41-10.08-1.58-12.53-5.23-1.58-2.36,11.68-3.93,12.71-4.06A34.62,34.62,0,0,0,115,183a41.16,41.16,0,0,1,5.87-2.36c2.12-.61,4.37-.38,6.53-.72,6.28-1,10.12-6.87,10.17-12.89,0-3.89-1-7.93-1.63-11.75-.83-5.06-1.4-10.16-.63-15.26A36.67,36.67,0,0,1,146,119.34c9.17-8.86,22.89-12,35.26-12.1,13.4-.12,26.54,3.59,39.16,7.73,5.18,1.7,10.06,4.13,15.14,6.08,4.41,1.7,9.9,3.34,14.57,1.67,6.33-2.26,10.74-11.24,7.76-17.24,13.47-4.28,24.88-16.55,28.14-30.24a.72.72,0,0,0-1.39-.4C280.81,85.11,274.52,94,265,99.73a32.28,32.28,0,0,1-28.74,2.51c-18.07-7.16-29.08-28-26.7-46.86a79.4,79.4,0,0,1,56.08-9.12c1.29.27,1.87-1.7.57-2-1.55-.34-3.11-.62-4.69-.86a38,38,0,0,1,4.91-4.35c.9-.57,2.1-1.48,3.05-1.94-.17,1.5-.65,3.38-1,4.87-.25,1.17-.6,2.36-.78,3.56a13.2,13.2,0,0,1,1.56.15,56.73,56.73,0,0,0,1.82-9.57.88.88,0,0,0-1.27-.83c-2.27,1-8.14,4.31-10.82,7.78-19.49-2.33-40.52,2.5-56.23,14.18-7,5.22-15.16,12.76-14.52,22.33.73,10.86,12.81,12.77,21.78,12.32C208,94,205.77,96.87,208,99c3.54,3.35,11.24-.57,13.91-3.62a46.25,46.25,0,0,0,13.74,9.24A31,31,0,0,0,256,106c2.54,6.07-2.36,14.68-8.93,15.29-7.48.69-15.28-4.31-21.93-7.06A141.42,141.42,0,0,0,200.52,107,88,88,0,0,0,175,105.18a60.26,60.26,0,0,0-10.81,1.91c3.46-7.82,4.32-16.57,1.3-24.71C162,73,153.78,65,144.67,61.12a44.64,44.64,0,0,0-32.11-.91c-5.84,2-11.28,5-17.06,7.13a23.82,23.82,0,0,1-8.44,1.88c-3,0-5.39-2.61-7.6-4.25a.55.55,0,0,0-.34-.11.67.67,0,0,0-.9.39C76.46,70.77,79.93,77.16,84.36,81c-4-1.49-7-4.25-9.9-8.22a16.58,16.58,0,0,0-4.59-4.59c-1.6-1-3.9-1-5.83-1.15a14,14,0,0,0-8.88-4.48c-11.25-1-19,9.89-29.73,11.34a.53.53,0,0,0-.56.86C28,78,31.39,81,35.92,81.91a12,12,0,0,0,5.43-.65c2.5-.68,4.49-.22,6.74.14-1.14.68-2.26,1.41-3.37,2.08a27.71,27.71,0,0,1-8.89,3.17.51.51,0,0,0-.39.69.56.56,0,0,0,.09.5,13.79,13.79,0,0,0,15.71,4.11A20,20,0,0,0,56,88.73c4.27,3.24,2.29,9.41,2,14.1a16.06,16.06,0,0,0,.86,6.45c-1.51-.89-3-1.81-4.54-2.64a.53.53,0,0,0-.57,0,.63.63,0,0,0-.73.62c0,10.39,8.9,18.12,18.09,21.1,10.18,3.3,23.59.49,31.57-6.64a.68.68,0,0,0-.8-1.09c-8.51,5-18.33,7.77-28.22,5.71-9.61-2-16.16-8.89-19-17.91,5.31,4.94,12.72,8.35,20,7.35A71.57,71.57,0,0,0,85.75,113a38.6,38.6,0,0,1,11.92-1.56.54.54,0,0,0,.15-1c-6.19-2.11-13,.74-19,2.33a22.42,22.42,0,0,1-12.79,0,23.07,23.07,0,0,1-2.79-1.08,7.92,7.92,0,0,1-3-5.21c-.46-2.82.12-5.83.37-8.65.32-3.6.22-8.48-3.47-10l.77-.66a19.82,19.82,0,0,1,8.25-4.52h0a.85.85,0,0,0,.14-.06l.1,0a.7.7,0,0,0,.2-.17l0,0,.05-.09a.72.72,0,0,0-.1-1c-3.73-3.62-9.92-3.12-14.5-1.68a15,15,0,0,0-1.84.73c-3.37-1.78-6.8-1.68-10.39-.71-5.31,1.43-8.44-1.83-12.31-4.37C37,74.79,43.88,64.94,53.61,64.88c7.28,0,10.84,6.1,14.09,11.6s7.17,11.41,13,14.44c.52.27,1.14-.39.67-.83-5.53-5.25-9.64-11.23-13.48-17.77a31.33,31.33,0,0,0-2.15-3.22c1.78.52,3.55.89,5.11,2.45,2.18,2.17,3.6,5,5.75,7.21,3.1,3.21,7.64,5.43,12.14,5.08,7.74,3.22,16.17-1.51,23.5-4,10.85-3.64,22.84-6.5,31.47,3.11,3.32,3.69,5.33,8.52,7.19,13.05,2.11,5.14,1.53,10.05,2.36,15.36a41.69,41.69,0,0,0-10.12,7.53,1.16,1.16,0,0,0-.24-.17c-4.93-2.7-9.52-4.46-15.18-3.32-5.07,1-8.89,4.81-12,8.67-3.47,4.28-6.91,8-11.84,10.59-5.35,2.85-10.94,3-16.82,2.49-.85-.07-.94,1.16-.21,1.42,8.73,3.06,18.3-.92,24.9-6.71,3.91-3.43,6.47-8.06,10.5-11.38,6.07-5,13.11-3.33,19.4.07a36.49,36.49,0,0,0-4.37,6.25,38.88,38.88,0,0,0-4.75,18.74c-3.9,2.07-7.28,5.2-11.29,7.18-3.45,1.7-6.79,1.79-10.52,2-2.9.2-13.2.28-12.18,5.45s10,6.1,14,6.69c7.16,1,15.52,1.8,22.48-.69a11.27,11.27,0,0,1-2.51,8.17c-2.34,2.75-5.73,3.31-9.12,3.39a20.93,20.93,0,0,0-7.87,2.26,41.73,41.73,0,0,1-9.86,3.47c-3.49.61-7,.72-10.47,1.53-3.09.72-8.55,3.31-5.2,7.14,4.2,4.8,11.68,5.72,17.65,6,4,.21,7.91-.16,11.86-.3,4.16-.16,8.3.84,12.34,1.7,7.11,1.51,14.28,2.45,21.53,1.39a28.37,28.37,0,0,0,12.74-5.21l.1.09c12.25,9.54,28.55,13.43,43.74,14.84,15.65,1.45,30.59-.9,45.39-5.73,14-1.27,29.18-1.27,42.38,3.62,5.61,2.08,10.36,6.2,14.73,10.17,2.63,2.39,5.86,5.59,9.62,5.8s4.45-4.89,4.48-7.62c.06-6-2.93-12-6.33-16.8s-7.92-7.73-13.12-10.42a90.5,90.5,0,0,0-15.43-6.68c.55-.55,1.1-1.1,1.64-1.68.69-.73,1.35-1.48,2-2.24,10.54,3.79,23.42,1.41,32.9,7.8,2.29,1.54,6.14,4.41,9.05,2.7,2.15-1.26,2.75-3.2,2.2-5.57C338.3,179,333,173.88,328.79,171c-6.21-4.33-14.2-8.54-21.87-9.7a90.39,90.39,0,0,0,5.6-15.38q1.16-4.35,2-8.75a10.06,10.06,0,0,0,2.61,3.67c.86.85,1.79,1.6,2.6,2.51s1,2.25,1.8,3.26a.69.69,0,0,0,1.09-.12,3.45,3.45,0,0,0,.16-.38.5.5,0,0,0,.23-.22,10.83,10.83,0,0,0,1-7.09,13.52,13.52,0,0,0,2.51,2.41c3.74,2.73,9.29,4,13.68,2.24h0c1,.14,1.1-1.38.25-1.68-6-2.16-8.78-8.77-10.83-14.33-.6-1.62-1.18-3.13-1.82-4.56a30.77,30.77,0,0,0,6.2,4.74c2.67,1.51,5.56,2.63,8.31,4a26.43,26.43,0,0,1,8.23,6.53.68.68,0,0,0,.67.19.73.73,0,0,0,.58-.72c1.18-4.95-1.79-10.52-4.4-14.51a29,29,0,0,0-3.91-4.83l1.32.34a69.38,69.38,0,0,1,7,2c2.91,1.06,5.06,2.9,7.4,4.83a.85.85,0,0,0,1.51,0,.62.62,0,0,0,.14-.3A.92.92,0,0,0,360.89,125.12ZM210.05,97.55c-2.16-.5,2.88-5.4,3.55-6.15s.3-1.92-.71-1.81c-5.66.62-11.47.91-16.65-1.85-4.73-2.51-6.54-7.41-5.41-12.45,1.86-8.31,10.47-14.76,17.41-19.08-2.43,13.94,2.9,28.08,12.6,38.07C218.23,96.75,213.57,98.37,210.05,97.55ZM62.8,81.32c-3.14,1-6.07,3.89-8.34,5.76-2.93,2.41-5.88,4.27-9.85,3.67-2.52-.38-4.54-1.81-6.72-2.91,4-.2,7.51-2.29,11-4.31C53.2,81,58.12,79.9,62.8,81.32Zm85.43,4.21c-4.78-8-12.45-12.08-21.72-11.46-9.58.64-18,5.49-27.14,7.88-5.28,1.38-10.34.37-14.29-3.43a17.89,17.89,0,0,1-5.6-11.6c2.22,2.54,4.82,4.42,8.34,4.55,4.58.17,9.46-2.25,13.56-4,5.26-2.27,10.36-4.8,15.93-6.25a42.41,42.41,0,0,1,18.06-.57,38.33,38.33,0,0,1,26.41,19.25c5.07,9.19,3.36,18.88-.48,28.09a51.33,51.33,0,0,0-6.13,2.48C155.84,101.51,152.78,93.11,148.22,85.52ZM114.2,165c-1.66-.19-15.86-2.88-13.2-5.93,1.51-1.74,5.57-1.79,7.63-2,2.53-.25,5.08-.32,7.62-.59,5.72-.62,12.16-5,16.36-9.31,0,.68.06,1.36.11,2,.33,4,1.11,8,1.74,11.93.16,1,.32,2,.43,3C128.31,166.32,121,165.79,114.2,165ZM287.53,52.25a.52.52,0,0,0,.34-.2C292,45.14,298.18,41.49,305.64,39c6.09-2.05,12.75-3.23,18.46-6.3-3.63,6.08-9.22,9.42-15.44,12.93L308,46a15.3,15.3,0,0,0-5.64,3.26c-3.35,2.1-6.49,4.57-8.4,7.92A43.93,43.93,0,0,0,287.53,52.25Zm7.4,5.76c4.71-5,10.7-8.11,16.61-11.48l2.13-.52a100.07,100.07,0,0,1,15.41-3,47.58,47.58,0,0,1,28.11,5.88c-8.3-.44-17,4.06-24.2,7.24-5,2.17-13.07,5.76-18.41,6.71-5.72,1-8.28.67-13.84,1.72A55,55,0,0,0,294.92,58Zm6.91,8.05A57.42,57.42,0,0,0,321.5,63c8.15-.46,16.3-1.19,24.32.8A41.27,41.27,0,0,1,366,75.08c-8-4-18.74-2.27-27-.89-5.71,1-11.16,1.78-17,1.27-5.43-.47-10.77-1.87-16.11-3A68.52,68.52,0,0,0,301.83,66.06Zm4.8,7.84a69.49,69.49,0,0,0,13.94,3.48.49.49,0,0,0,.29.3c3.92,1.6,8.26,1.81,12.28,3.11,4.29,1.38,8.06,4.23,11.67,6.83,5.23,3.77,11,8.26,17.53,9.66a34.81,34.81,0,0,1-10.44,2.56,44.12,44.12,0,0,1-13.75-1.68,65.86,65.86,0,0,1-15.57-6.39c-3.81-2.09-7.17-5.14-11.17-6.85A81.17,81.17,0,0,0,306.64,73.9Zm18.68,97.17a32.53,32.53,0,0,1,11.16,11.06c1.89,3.17,1.39,7.45-3.5,5.28-3.27-1.45-5.81-3.94-9.24-5.15-3.88-1.37-8.29-1.67-12.35-2.24-4.93-.7-9.76-1.65-14.63-2.55a78.25,78.25,0,0,0,9.65-15.07C313,164.13,319.49,167.58,325.32,171.08Zm20.24-47a27.42,27.42,0,0,1,4.35,10.32c-3.07-3.62-8.36-5.65-12.38-7.54a32.94,32.94,0,0,1-9.36-6.67c-2.45-2.43-4.68-5.14-7.64-7a.49.49,0,0,0-.6.75c1.1,1.31,2.2,2.66,3.34,4a23.45,23.45,0,0,1,3.4,6.33c.89,2.63,1.63,5.27,2.71,7.83,1.48,3.53,3.7,7.7,7.06,9.88a17.44,17.44,0,0,1-9.48-3.27c-3.61-2.57-4.69-7.3-8.07-10.09-.36-.3-1,.07-.72.53,1.47,2.11,2.52,4.41,3.76,6.57a17.67,17.67,0,0,1,.61,3.21,15.73,15.73,0,0,1-.31,4c-1.78-2.73-6.29-5.14-7.13-7.54a.48.48,0,0,0-.23-.27,104.09,104.09,0,0,0,0-37.46,66.46,66.46,0,0,0,16.74,15.85,34.66,34.66,0,0,0,8,3.6A35.24,35.24,0,0,1,345.56,124.12Zm-10-11.12c-8.85-4.12-14.11-12.15-21.34-18.19-.42-1.86-.88-3.72-1.42-5.57q-.39-1.34-.83-2.69c4,2.54,7.54,5.83,11.67,8.2A56.59,56.59,0,0,0,335,99.64c9.84,4.83,19.69,12.31,23.25,22.29C352.18,116.68,342.58,116.27,335.56,113Z"/><path class="cls-4" d="M296,64.35a12.43,12.43,0,0,0,3.38-1.65c3.36-2.31,5.62-6,7.79-9.4a32.52,32.52,0,0,0-12.54.71,13.5,13.5,0,0,0-5.39,2.61,15.44,15.44,0,0,0-4.27,5.65c-.38,1,1.13,1.68,2,1.91A16.07,16.07,0,0,0,296,64.35Z"/><path class="cls-16" d="M308,52.09a32.45,32.45,0,0,0-11.81.1,16.4,16.4,0,0,0-5.65,2.2c-1,.67-4.3,3.3-4.78,6.07,0,.2.26.34.46.31a.68.68,0,0,0,.32-.17c1.26-1.06,3.56-4,5-4.86a15.33,15.33,0,0,1,4.78-1.83,26.09,26.09,0,0,1,5.17-.55c.52,0,4.84.5,5,.28-2.58,4-6.21,9.42-11,9.61a1,1,0,0,0-.11,1.89c6.12.4,10.51-7.36,13.37-11.69A.89.89,0,0,0,308,52.09Z"/><path class="cls-17" d="M299.07,56.32a17.11,17.11,0,0,0-4.47.72c-1.66.57-2.37,1.85-3.13,3.31l0,0h0c-.26.43,1.18,1,1.69,1.15C296.61,62.71,299.61,56.29,299.07,56.32Z"/><path class="cls-9" d="M195.37,72.71c1.77-4.16,6.18-6.72,9.57-9.43.56-.45,0-1.38-.66-1.2-4.56,1.28-9.35,5.58-9.85,10.49-.06.59.75.59.94.14Z"/><path class="cls-10" d="M258.47,127.69c2.58-.61,5.68-1.56,6.89-4.21a.63.63,0,0,0-.85-.85c-2.21,1.28-4,3.16-6.35,4.31-.43.21-.13.85.31.75Z"/><path class="cls-10" d="M254.85,135.28c2.83-.64,5.37-1.51,7.33-3.76.42-.48-.12-1.31-.71-.93-2.3,1.45-4.82,2.37-7,4-.34.26,0,.74.38.66Z"/><path class="cls-10" d="M267.21,128.11a40.51,40.51,0,0,0,3.75-2.63,7.68,7.68,0,0,0,2.2-3.63.46.46,0,0,0-.77-.44c-1.88,2.1-4,3.91-5.7,6.18-.23.3.22.72.52.52Z"/><path class="cls-10" d="M250.48,127.5c2.25-1,4.66-1.71,6.07-3.85.23-.35-.16-.89-.56-.73-3,1.18-5.32,2.59-6,3.9-.25.46.09.87.52.68Z"/><path class="cls-10" d="M260.57,121.6c1.9-1.87,3.74-3.64,4.53-6.27a.57.57,0,0,0-.95-.54,24.24,24.24,0,0,0-4.2,6.33c-.17.39.28.81.62.48Z"/><path class="cls-10" d="M243.49,134.85a9.1,9.1,0,0,0,3.6-.55,14.13,14.13,0,0,0,3.08-1.8.39.39,0,0,0-.3-.71,16.4,16.4,0,0,0-3.25.81c-1.1.42-2.17,1-3.26,1.38a.45.45,0,0,0,.12.87Z"/><path class="cls-10" d="M246.8,139.63c.1,0,.4-.14.48-.11a.84.84,0,0,0,.53.07,7.1,7.1,0,0,0,1.15-.29,4.4,4.4,0,0,0,1.91-1.25c.28-.32,0-1-.46-.8-.67.27-1.35.44-2,.66a9,9,0,0,0-.92.33c-.36.16-.6.46-1,.63s-.13.9.32.77Z"/><path class="cls-10" d="M267.6,119a9.93,9.93,0,0,0,4.62-5.93.47.47,0,0,0-.79-.45c-1.69,1.76-2.78,3.88-4.34,5.73-.29.34.08.92.5.65Z"/><path class="cls-10" d="M238,130.9c1.15-.17,2.36-.41,3.48-.69a4.49,4.49,0,0,0,2.67-1.73.57.57,0,0,0-.64-.83,22.79,22.79,0,0,0-3,1.13,13.06,13.06,0,0,0-2.81,1.31.44.44,0,0,0,.33.8Z"/><path class="cls-10" d="M233.43,136.15c2-.28,4,.07,5.58-1.57a.42.42,0,0,0-.5-.66,10.3,10.3,0,0,1-2.64.63,11.24,11.24,0,0,0-2.66.8.43.43,0,0,0,.22.8Z"/><path class="cls-4" d="M170.16,142a3.61,3.61,0,0,0-3.43,1.4.8.8,0,0,0,.33,1.33c2,.51,3.59-.65,4.74-2.12a.84.84,0,0,0-.48-1.24,3.24,3.24,0,0,0-2.58.5c-.67.43-1.79,1.22-2,2a.8.8,0,0,0,1,1c.66-.12,1.16-.82,1.65-1.24a2.34,2.34,0,0,1,1.69-.63l-.71-1.28a2.79,2.79,0,0,1-2.87,1.48l.45,1.17A2.32,2.32,0,0,1,170,143c.52,0,.74-.87.14-1Z"/><path class="cls-4" d="M151.56,142.41a5.42,5.42,0,0,0-3.9,2.43.84.84,0,0,0,.48,1.23c2.52,1,4.73-.69,6.62-2.19a.83.83,0,0,0,0-1.18c-2.38-2.11-6.49.2-6.84,3.09a.93.93,0,0,0,.92.94,6.5,6.5,0,0,0,5.18-3.48c.26-.54,0-1.37-.73-1.32a4.27,4.27,0,0,0-3.59,1.92c-.32.57.31,1.35.93,1a5.75,5.75,0,0,1,2.65-1.14l-.73-1.32a4.67,4.67,0,0,1-3.68,2.52l.92.94c.17-1.52,2.72-2.8,3.93-1.82l-.14-1.32c-1.4,1.14-3.11,2.5-5,1.81l.57,1a3.65,3.65,0,0,1,2.66-2.08.52.52,0,0,0-.26-1Z"/><path class="cls-4" d="M187.56,148.32c.29,0-.13,0-.16,0l.43.26,0,0a.6.6,0,0,0-.53-.31c-.69.07-1,.55-1.26,1.16a.72.72,0,0,0,.49.89,2.54,2.54,0,0,0,1.88-.23,3.54,3.54,0,0,0,1.36-1.28.85.85,0,0,0-.28-1.17,2.64,2.64,0,0,0-3.4,1.5.72.72,0,0,0,.86.89,3.36,3.36,0,0,0,1.21-.67.76.76,0,0,1,.38-.15c-.14,0,.17,0,.16,0a3.67,3.67,0,0,0,.55,0l-.93-1.27a2,2,0,0,1-.7.74,6.55,6.55,0,0,1-1.07.27l.87.89a2.88,2.88,0,0,1,.09-.32s.15-.18.05-.07q.08-.07,0,0a.52.52,0,0,0,.16-.11.64.64,0,0,0,.17-.31l-.48.36c.14,0,0,0,0,0l.16,0c.64,0,.63-.91,0-1Z"/><path class="cls-4" d="M156.93,132c-2-1.92-5.12.89-6.48,2.37a.9.9,0,0,0,.15,1.41c2.88,1.32,5.92-1.64,7.65-3.62a1,1,0,0,0-.4-1.62c-2.79-.92-5.79,1.12-7.25,3.4a1,1,0,0,0,1.13,1.53,9.07,9.07,0,0,0,6.08-4,1,1,0,0,0-1-1.41,5.27,5.27,0,0,0-2.15,1c-.6.49,0,1.35.68,1.22s1.29-.25,1.94-.4l-1-1.41a7.27,7.27,0,0,1-5,3l1.13,1.53c1-1.56,3-3.23,5-2.62l-.4-1.62c-1.29,1.53-3.37,3.92-5.6,3.39l.52,1.33c.69-1.13,3-3.89,4.53-2.77.42.31.95-.35.57-.71Z"/><path class="cls-4" d="M144.66,131a10.42,10.42,0,0,0-.74.94c-.31.45-.48,1-.82,1.45-.52.63.09,1.68.9,1.22a6.07,6.07,0,0,0,2.67-3.8.88.88,0,0,0-1.26-1c-1.25.82-2.9,2.43-2.86,4a.71.71,0,0,0,1.19.52,8.13,8.13,0,0,0,1.11-1.6,5.66,5.66,0,0,1,1.41-1.43l-1.3-.77a4.46,4.46,0,0,1-1.85,2.83l1.29.56a4.73,4.73,0,0,1,1-2.38c.28-.43-.36-1-.71-.57Z"/><path class="cls-4" d="M212.26,148.34a4.18,4.18,0,0,0,.81,4c.76,1,2.76,1.46,3.42.08.57-1.17-.4-2.36-1.15-3.19a6.93,6.93,0,0,0-2.75-2,1,1,0,0,0-1.27.7c-1,2.23,1,4.25,3,4.88a1,1,0,0,0,1.31-1,3.52,3.52,0,0,0-2.69-3.54.71.71,0,0,0-.7,1.16,4.45,4.45,0,0,1,1.34,2.36l1.31-1c-1-.33-2.08-1.18-1.58-2.34l-1.27.7c.27.08-.1-.06.1,0a4.51,4.51,0,0,1,.44.28,7.71,7.71,0,0,1,.81.64,9.38,9.38,0,0,1,.86.88,3,3,0,0,1,.22.29c0,.06.24.45.19.31.08.22,0,.13.06-.07s.39-.33.2-.28-.38-.11-.58-.35a5,5,0,0,1-.89-2.44.65.65,0,0,0-1.18-.18Z"/><path class="cls-4" d="M251.15,151.89a9.92,9.92,0,0,0-4.28,3.92.93.93,0,0,0,.53,1.35c3.22,1.4,7.15-2.65,8.51-5.18a1,1,0,0,0-.13-1.24c-3.2-2.91-7.67,1.57-9.06,4.42a1.08,1.08,0,0,0,.61,1.57c3,.89,5.15-2.37,7.17-4a1.05,1.05,0,0,0-.18-1.65c-1.08-.63-1.77-.12-2.34.85a.9.9,0,0,0,1.2,1.25,1,1,0,0,0,.43-.24q.48-.37-.38-.07l-.18-1.65c-1.25,1-3.34,4-5.15,3.45l.61,1.57c.66-1.36,3.93-5.75,5.76-4.11l-.13-1.24c-1,2-3.75,5.09-6.25,4.49l.63,1.13c.53-1.71,2-2.66,3.27-3.76.5-.42-.11-1.16-.65-.89Z"/><path class="cls-5" d="M271.64,161.55a4.37,4.37,0,0,0-2.24,2.67.81.81,0,0,0,.36.93c2.6,1.17,6.8-3.3,4.55-5.64-2-2.08-4.08,2.86-4.3,4.25-.11.67.41,1.54,1.21,1.25a5.08,5.08,0,0,0,3.22-4.56c0-.76-1.13-1.16-1.49-.43-.53,1.09-1,2.57-2.23,3l1.25,1c0,.2.13-.4.16-.51a9.81,9.81,0,0,1,.4-1,4.69,4.69,0,0,1,1-1.61l-.42,0q-.45-.43-.24-.12a.82.82,0,0,1,.08.34,2.07,2.07,0,0,1-.54,1.17,2.81,2.81,0,0,1-2.23,1.27l.81.83a3.75,3.75,0,0,1,1.17-2.17.47.47,0,0,0-.55-.74Z"/><path class="cls-5" d="M261.88,167c-2.8,0-4.79,3.59-5.56,5.88a1,1,0,0,0,.68,1.22c2.13.58,4.43-1.25,5.88-2.59s2.78-3.48,1.6-5.53c-2.14-3.72-6.9,3.48-7.75,5.12a1.12,1.12,0,0,0,.37,1.52c3,1.91,5.48-1.9,6.6-4.25A1.1,1.1,0,0,0,262,167a6.49,6.49,0,0,0-1.71,1.77.88.88,0,0,0,1.17,1.22,20.72,20.72,0,0,0,1.82-1.25l-1.46-1.53c-.49,1-2.08,4.43-3.58,3.51l.37,1.52a19.23,19.23,0,0,1,1.81-2.79c.31-.42,1.74-2.44,2.36-2.31-.18,0-.09,0,0,.18a1.24,1.24,0,0,1,0,.81,4.83,4.83,0,0,1-1.36,1.85c-.78.79-2.63,2.45-3.89,2.2l.71,1c.24-1.87,1.65-4.92,3.74-5.24.54-.08.41-.92-.11-.92Z"/><path class="cls-5" d="M268.09,170.81a4.25,4.25,0,0,1-.79,1.21.77.77,0,0,0,0,1.09c2,1.77,3.71-.7,4.35-2.44a.94.94,0,0,0-1.13-1.17,4.68,4.68,0,0,0-2.08,1.24c-.56.57-1.15,1.5-.72,2.3a.83.83,0,0,0,1.09.36c.33-.15.45-.45.62-.74a2.82,2.82,0,0,1,1.55-1.35l-1.13-1.17c-.19.58-.79,2.14-1.59,1.77l.26,1.06a6.39,6.39,0,0,0,.6-1.73.56.56,0,0,0-1-.44Z"/><path class="cls-5" d="M236.17,177.35a3,3,0,0,0-3.59,1.24.92.92,0,0,0,.53,1.36c2.1.72,4.05-.69,5.48-2.11a1,1,0,0,0-.42-1.7,4.52,4.52,0,0,0-3,.45c-.92.48-2,1.59-1.73,2.69a.89.89,0,0,0,1.28.55c.57-.28.85-.94,1.34-1.34a2.28,2.28,0,0,1,1.79-.37l-.69-1.74c-.9.94-2.15,2.16-3.58,1.81l.63,1.13a1.24,1.24,0,0,1,1.62-.92.55.55,0,0,0,.3-1Z"/><path class="cls-5" d="M211,170.88c-2-.28-4,1-5.68,2a.89.89,0,0,0-.21,1.38c2.8,2.28,7,0,9.18-2.12a1,1,0,0,0,0-1.44c-2.27-3.07-7.37-.59-9,2a1.06,1.06,0,0,0,.35,1.45c2.89,1.36,5.87-.62,8-2.54a1,1,0,0,0-.42-1.69c-2.4-.5-4.77.63-6.59,2.13-.78.64.17,1.72,1,1.34,1.53-.7,3.29-1.93,5.05-1.54l-.42-1.69c-1.29,1.14-3.64,3.05-5.49,2.2l.35,1.45c.92-1.53,4.25-3.58,5.68-1.68l0-1.44c-1.79,1.74-4.42,3.22-6.89,2.14l.37,1.49c1.1-1.1,3-2.41,4.63-2.45a.48.48,0,0,0,0-.95Z"/><path class="cls-5" d="M219.18,173.62a5.61,5.61,0,0,0-2.28,1c-.47.36-.17,1.07.3,1.23a3.49,3.49,0,0,0,3.88-1.69.85.85,0,0,0-.49-1.25c-1.56-.57-4.06,1.09-3.77,2.82a.71.71,0,0,0,1,.44c.51-.28.85-.91,1.3-1.28a2.56,2.56,0,0,1,1.42-.36l-.92-1.25a2.3,2.3,0,0,1-2.24,1.14l.62,1.11a3.22,3.22,0,0,1,1.49-1.07.47.47,0,0,0-.34-.86Z"/><path class="cls-5" d="M168.89,167.2a8,8,0,0,0-1.28.17,2.16,2.16,0,0,0-1.18,1,.75.75,0,0,0,.25,1,3.5,3.5,0,0,0,4.49-1.81.82.82,0,0,0-.27-1.12,2.83,2.83,0,0,0-2.43.2,2.42,2.42,0,0,0-1.5,2.21c.07.56.74.67,1.15.5s.7-.74,1.11-1a3.34,3.34,0,0,1,1.45-.39l-.89-1.21a2.18,2.18,0,0,1-2.51,1.31l.51.92c.2-.61.8-.66,1.36-.78s.38-1-.25-1Z"/><path class="cls-5" d="M167.65,174.77l-.23-.09a2.34,2.34,0,0,0-.58-.09,2.23,2.23,0,0,0-1.39.64.84.84,0,0,0,.14,1.32c1.66,1,3.51-.31,4.06-1.92a1,1,0,0,0-.91-1.22,3.28,3.28,0,0,0-2.49.68,2,2,0,0,0-.6,2.73.78.78,0,0,0,1.09,0c.42-.32.49-.92.8-1.23a1.36,1.36,0,0,1,1.18-.29l-.91-1.22c-.29.89-1,.9-1.77.89l.71,1.28c.22-.39.58-.29.89-.41a.58.58,0,0,0,0-1.1Z"/><path class="cls-5" d="M284.93,158.07c-2.54-.25-4.11,3.67-4.53,5.62a1.08,1.08,0,0,0,.73,1.32c3.77.77,8.92-6,6.57-9.34a1.12,1.12,0,0,0-1.24-.54c-1.91.7-3.28,2.7-4.4,4.29-.92,1.3-2.45,3.43-1.68,5.1a1.72,1.72,0,0,0,1.94.71c1.12-.17,1.83-1.63,2.26-2.51s.83-2,1.23-3c.32-.8,1-1.93.54-2.79s-1.79-.73-1.95.22a2,2,0,0,0,0,.74.8.8,0,0,0,.77.61l-.06,0-.77-1a15.48,15.48,0,0,1-1.2,2.92,14.58,14.58,0,0,1-1.09,2.17l-.22.3q-.44.45.61.73a1.65,1.65,0,0,1,.14-.49,13,13,0,0,1,2-3.39c.56-.77,1.45-2.09,2.4-2.44l-1.24-.54c1.31,1.86-2.25,6.46-4.33,6.17l1.06,1.08c.23-2,.86-3.83,2.71-4.83a.58.58,0,0,0-.27-1.09Z"/><path class="cls-5" d="M292.65,151.18a6.14,6.14,0,0,0-1.41,2.47.87.87,0,0,0,1.43.87,3.76,3.76,0,0,0,1.38-3.71.9.9,0,0,0-1.31-.57c-1.06.73-2.06,2.19-1.27,3.48.33.53,1.33.57,1.46-.17s0-1.28.68-1.74l-1.31-.57a2.11,2.11,0,0,1-.82,2l1.44.41a3.34,3.34,0,0,1,.55-1.84c.25-.5-.38-1.12-.81-.65Z"/><path class="cls-10" d="M275.06,71.75c-3.44-.56-7.11,2.48-8.32,5.53a1.07,1.07,0,0,0,.26,1.07c1.8,1.68,4.53.34,6.22-.82s3.87-3.09,3.06-5.24c-1.6-4.24-8,2.72-9.1,4.42a1.19,1.19,0,0,0,.39,1.63c2.79,1.48,5.51-2,7-4,.78-1.05-.8-2.16-1.71-1.38a3.64,3.64,0,0,0-.64.73,1,1,0,0,0,1,1.42,7.89,7.89,0,0,0,.89-.38l-1.48-1.54c-.53.67-2.81,3.65-3.84,3.12l.39,1.63a14.57,14.57,0,0,1,2.28-2.54c.51-.49,2.19-2.24,2.87-2.14-.31,0-.22-.47-.22,0,0,.17-.18.39-.26.52a6.58,6.58,0,0,1-1.78,1.75c-.83.6-2.73,1.91-3.74,1.12l.48,1.25c.51-2.41,3.53-5.12,6-5.07.6,0,.78-1,.16-1.07Z"/><path class="cls-10" d="M269.57,81.77a3.5,3.5,0,0,0-2.42,1.88.94.94,0,0,0,.31,1.28c2.09,1,4.66-.61,5.36-2.69a1,1,0,0,0-.68-1.23,3.77,3.77,0,0,0-2.87.47A3.65,3.65,0,0,0,267.21,84a1,1,0,0,0,1.43.85c.89-.58,1.64-2.23,2.95-1.93l-.68-1.23a2.42,2.42,0,0,1-2.7,1.55l.67.91c0-.52.61-.86,1-1,.81-.32.55-1.58-.34-1.35Z"/><path class="cls-10" d="M279.83,73.63a1.89,1.89,0,0,0-1.29,1,.9.9,0,0,0,.75,1.35,2.24,2.24,0,0,0,2.21-2.7,1,1,0,0,0-1.16-.69,2.91,2.91,0,0,0-1.35.85,1.89,1.89,0,0,0-.47,2,.86.86,0,0,0,.93.43,1.09,1.09,0,0,0,.72-.67c0-.09.09-.19.14-.28l.11-.17q-.09.09,0,0a.92.92,0,0,1,.36-.25l-1.16-.69c0,.06,0,.17,0,.07a1.13,1.13,0,0,1-.05.17c.07-.21-.11.1,0,0a1,1,0,0,1-.56.29l1,.43c.08.19-.11.4.09.2a1.48,1.48,0,0,0,.35-.52c.17-.42-.3-.78-.68-.7Z"/><path class="cls-10" d="M274,66.08c-1.7-.56-3.06,1-3.84,2.3a1,1,0,0,0,.55,1.42c2.52.46,4.25-2.23,5.25-4.15a1,1,0,0,0-.32-1.32c-2.76-2-7.52,4-4.92,5.23a1,1,0,0,0,1.42-.55c.09-.31,0-.61.06-.91a2.62,2.62,0,0,1,.6-1.08c.31-.37,1.29-1.42,1.85-1l-.32-1.32c-.64,1.2-1.74,3.34-3.33,3.27l.91,1.22c.22-.94.89-2,1.95-2a.53.53,0,0,0,.15-1Z"/><path class="cls-10" d="M270.34,59.61a2,2,0,0,0-.5,2.88.91.91,0,0,0,1.23.35,2.91,2.91,0,0,0,0-4.66,1,1,0,0,0-1,0,2.83,2.83,0,0,0-1.5,2.21,1.91,1.91,0,0,0,1.76,2,.87.87,0,0,0,.76-1.27,2.27,2.27,0,0,0-.4-.55.4.4,0,0,1-.1-.18c0-.1.21-.36.44-.51l-1,0c.68.42-.09,1.41-.3,1.93l1.34-.52c-.44-.22-.37-.64-.1-1s-.26-1-.66-.69Z"/><path class="cls-10" d="M239.22,48.27a3.06,3.06,0,0,0-2.6.28.78.78,0,0,0,0,1.35c1.52.92,3.73-.27,4.9-1.3a.89.89,0,0,0-.15-1.4,4.8,4.8,0,0,0-3-.37c-.9.16-2.43.79-2.4,1.89a.74.74,0,0,0,.71.73c.64.05,1.12-.5,1.7-.71a2.85,2.85,0,0,1,2.09,0l-.15-1.4A4,4,0,0,1,237,48.45l.66,1.18a1.3,1.3,0,0,1,1.29-.42.5.5,0,0,0,.27-1Z"/><path class="cls-10" d="M258,57.45a1.84,1.84,0,0,1-.14-.53l-.07.44.05-.08c.58-.88-1-1.65-1.35-.59-.69,1.87,1.68,3.08,3.09,3.54.56.18,1.29-.42,1.06-1a6.55,6.55,0,0,0-3.48-4,.88.88,0,0,0-1.09.6,2.48,2.48,0,0,0,1.28,2.81.77.77,0,0,0,1-1.18c-.25-.3-.64-.71-.54-1.14l-1.09.6a4.89,4.89,0,0,1,2.4,3l1-1.23c-.75-.23-2.19-.7-2.1-1.69l-.75.74h.1l-.41-.18c.14.17.26.34.41.51.34.4.88-.09.69-.51Z"/><path class="cls-18" d="M287,5.69c-5.67,9.57-10.8,19.47-15.9,29.36-1.67,3.22-4.61,7.25-5.13,10.92-.3,2.12,5.17,5.26,6.59,6,3.38,1.81,7.79,1.57,11.44.85a1,1,0,0,0,.71-.91c1.89-15.24,2.34-30.68,3.24-46,0-.71-1.07-.73-1.11,0-.9,15.2-1.91,30.81-4,46l.71-.91c-4.47.81-8.71.45-12.5-2.21a17,17,0,0,1-3.42-3.33c.51.64.19.53.56-.38,1.87-4.62,4.33-9,6.6-13.48,4.34-8.47,8.86-16.86,13-25.42.26-.53-.49-1-.8-.49Z"/><path class="cls-18" d="M278.33,22.4c1.59,2.88,6.24,2.18,8-.1.3-.39-.17-.88-.58-.78-1.08.25-2.1.74-3.19,1a6.88,6.88,0,0,1-3.81-.67.4.4,0,0,0-.46.58Z"/><path class="cls-18" d="M274,30.44c1.77,4,9.56,4.53,11.69.63.24-.43-.23-1-.7-.73-3.54,2.24-7,1.73-10.42-.44-.37-.23-.73.19-.57.55Z"/><path class="cls-18" d="M269.55,38.89c2.3,5.09,11.38,6.49,15.28,2.6.34-.34,0-1-.48-.87-5.22,1.73-9.74,1.3-14.1-2.25a.44.44,0,0,0-.7.52Z"/><path class="cls-19" d="M181.94,121.38c3.78.57,7.17,1.91,10.47.89a.6.6,0,0,0,.05-1.09,14.47,14.47,0,0,0-10.47-.83C181.42,120.54,181.36,121.29,181.94,121.38Z"/><path class="cls-19" d="M200.37,124.31c4.55,1.77,12.84,6.37,17.59,10.74.6.55,1.27-.3.8-1-3.79-5.46-10.09-10.62-18.06-10.84C200,123.22,199.79,124.08,200.37,124.31Z"/><path class="cls-20" d="M220.82,141.29c.59.35,1.16-.58.64-1-6.56-5.48-21.66-12.37-34.22-13.86-11.32-1.34-25.48.44-34,8.92-.53.53.27,1.26.84.92C174.2,124.33,201.69,129.86,220.82,141.29Z"/><path class="cls-21" d="M222.41,145.9c-14.39-11.32-36.68-16.74-55.07-10.75-.69.23-.45,1.36.27,1.25a73.49,73.49,0,0,1,27.16.94c2.17.47,4.28,1,6.36,1.68-20.69-3.6-43.74,1.61-58.92,15.68-.42.39.16,1.22.65.94a138.85,138.85,0,0,1,13.57-7.37,68.56,68.56,0,0,1,21.76-5.81c9.74-1.21,19.06-1.51,28.65.23a143.09,143.09,0,0,1,14.82,4.39C222.37,147.38,223.07,146.41,222.41,145.9Z"/><path class="cls-20" d="M209.17,148.91c.75.13,1.16-1,.41-1.3-9-3.24-20.37-3.36-29.76-2-9.79,1.45-21.46,6.57-28.74,13.32-.46.43.15,1.28.71,1,9.22-4.43,16.74-8.53,26.93-10.44C188.26,147.73,199.68,147.27,209.17,148.91Z"/><path class="cls-19" d="M208,152.87c-3.6-1.31-7.42-1.35-11.21-1.5a59.37,59.37,0,0,0-14.08.82c-7.84,1.53-16.75,5.18-22.45,10.94a.57.57,0,0,0,.62.9c7.12-3,13.93-6.12,21.53-8a77.5,77.5,0,0,1,25.13-1.73C208.35,154.38,208.85,153.18,208,152.87Z"/><path class="cls-22" d="M250,161.06c-1.59-2.13-5-6.52-7.1-8.23,1.37-2.18,4-6.21,5.21-9.33a1,1,0,0,0-1-1.46,47.8,47.8,0,0,0-10.2,3.86c-3.32-3.07-6.78-6.34-8.4-7.44-.23-.68-1.42-.65-1.45.12-.09,2.22,1.05,7.36,1.5,11.49-3.75,1.56-8.25,3.24-12,4.73-.91.36-1.12,1.89-.1,2.13,3.86.89,7.79,1.85,12,2.48.22,2.67.65,8.49,1.21,10.33.26.84,1.3.89,2.19.39,2.88-1.62,3.7-6.53,5.79-9.67,2.91.52,8.34,1.81,11.27,2.26A1.08,1.08,0,0,0,250,161.06Z"/><path class="cls-22" d="M224.77,176.23a1.73,1.73,0,0,0,.44-2.49,3,3,0,0,0-2.34-1.21,2.93,2.93,0,0,0-1.36.11c-2.43.89-.93,3.43.87,3.93a3,3,0,0,0,1.2.08,3.9,3.9,0,0,0,.64-.15l.23-.09Z"/><path class="cls-22" d="M256.91,144.08a1,1,0,0,0,.85.32,2.31,2.31,0,0,0,1.1-.45c2.46-1.61,0-4.33-1.85-2.27A2,2,0,0,0,256.91,144.08Z"/><path class="cls-22" d="M258.75,148.06a1.71,1.71,0,0,0,2.06,1.15,1.62,1.62,0,0,0,.46-.15,1.15,1.15,0,0,0,.42-.43,1.53,1.53,0,0,0-2-2.19A1.32,1.32,0,0,0,258.75,148.06Z"/><path class="cls-19" d="M226.73,153.29a17.1,17.1,0,0,0-3,1.09c-.63.25-.89,1.35,0,1.51,2.3.43,4.51-.84,6.16-2.33a.84.84,0,0,0-.34-1.4c-2.33-.77-5.06.37-6.87,1.87-.6.49,0,1.62.75,1.35,1.89-.7,3.51-2.3,5.66-1.62l-.34-1.4a6.31,6.31,0,0,1-4.79,2l.66,1.19a4.74,4.74,0,0,1,2.41-1.33.48.48,0,0,0-.23-.92Z"/><path class="cls-19" d="M230.74,143.93a4.27,4.27,0,0,0,.15,1.49,2.24,2.24,0,0,0,.39.69c.17.23.46.32.65.52a.67.67,0,0,0,1.06-.11,2.52,2.52,0,0,0,0-2.43,3.18,3.18,0,0,0-2.05-1.38.79.79,0,0,0-.9,1.13,6.62,6.62,0,0,0,1.49,2.43c.53.39,1.19-.22,1.06-.78a4.83,4.83,0,0,0-.51-1.12c-.23-.43-.44-.86-.68-1.28l-.9,1.13a1.85,1.85,0,0,1,1.17.61c.28.42.13.89.11,1.35l.68-.66c-.62,0-.7-1.31-.77-1.67-.1-.52-.88-.4-.9.11Z"/><path class="cls-19" d="M241.43,146.27c-.67.06-1.17-.15-1.78.28s-.44,1.38.34,1.36a7,7,0,0,0,2.94-.76.76.76,0,0,0-.16-1.38,4,4,0,0,0-2.4.17c-.7.29-1.83.94-1.74,1.83a.63.63,0,0,0,.61.63c.64,0,1-.53,1.5-.83a2.68,2.68,0,0,1,1.61-.35l-.16-1.38a8.76,8.76,0,0,1-2.39.64l.68,1.23c.27-.27.72-.15,1.07-.24.65-.16.56-1.26-.14-1.2Z"/><path class="cls-19" d="M243.84,156.22c-.15-.1-.15-.16-.24-.3a1.25,1.25,0,0,0-.56-.47c-.44-.22-1.16,0-1.11.61a4,4,0,0,0,.41,1.52,5.52,5.52,0,0,0,1.21,1.36.88.88,0,0,0,1.47-.36,3.2,3.2,0,0,0-2.43-3.83.88.88,0,0,0-1.12.83,1.78,1.78,0,0,0,1,1.45.68.68,0,0,0,.71-1.15c-.11-.08-.08-.1-.09,0l-.12.4a1.22,1.22,0,0,0,.17-.41l-1.08.6a2.43,2.43,0,0,1,1.06.71,1.59,1.59,0,0,1,.14,1.19l1.33-.73a2.64,2.64,0,0,1-1.28-1.71l-.53.89s0,0,.08,0c-.2-.05-.12-.06,0,.05a1.59,1.59,0,0,0,.53.31c.55.23.88-.63.41-.93Z"/><path class="cls-19" d="M231,163.56a17.52,17.52,0,0,0-.91,2.78c-.17.6.55,1.32,1.13.9,1.4-1,2.7-2.38,2.33-4.22a.75.75,0,0,0-.92-.55,3.38,3.38,0,0,0-2,2.31c-.27.72.76,1,1.15.51s.62-1.13,1.21-1.35l-.92-.55c.2,1.07-.84,1.94-1.62,2.48l1.16.7a13.19,13.19,0,0,1,.54-2.49c.23-.68-.85-1.17-1.16-.51Z"/><path class="cls-5" d="M251.07,161.38c0-3.41-4.27-6.68-7-8.57,1.85-2.46,4.78-6.54,5-9.59.26-4.38-9.71-.11-12.58,1.21-1.69-2.18-7-8-9-6.67a.52.52,0,0,0-.32.19c-1.9,2.49-.73,6-.13,8.73.2.92.88,2.33-.29,2.84-1.59.69-3.23,1.26-4.86,1.86s-3.11,1.14-4.65,1.76c-2,.78-2.77,2.28-1,3.76,3,2.55,8,2.14,11.6,3.17-.53,1.89-.1,4.24.27,6.09.31,1.6,1,4.18,2.85,4.67s3.38-1.69,4.18-2.9a35.18,35.18,0,0,0,3-6.3C240.43,162.49,251.09,165.69,251.07,161.38Zm-5.92.35c-2.39-.4-4.73-1-7.11-1.4a.63.63,0,0,0-.59.18.7.7,0,0,0-.63.44c-1.09,2.69-2.34,7-5,8.57-2.24,1.3-3.33-8.21-3.1-9.55a.48.48,0,0,0-.3-.55.49.49,0,0,0-.25-.22,44.55,44.55,0,0,0-5.84-1.65c-.72-.17-7.21-1.85-4.49-3.13,3.38-1.59,7.08-2.47,10.48-4a.72.72,0,0,0,.38-.63c0-3.68-1.92-7-1-10.65,2.13-.75,6.72,5.17,7.77,6.69a.8.8,0,0,0,1.06.3,38.58,38.58,0,0,1,7.76-3c.46-.11,3.45-.75,3.06.59a13.51,13.51,0,0,1-1,2.21c-1.1,2.2-2.54,4.19-3.72,6.33a.72.72,0,0,0-.08.54.67.67,0,0,0,.23.83,24,24,0,0,1,6.54,6.5C251,162.77,246.47,162,245.15,161.74Z"/><path class="cls-10" d="M173.58,117a4.15,4.15,0,0,0-3,1.43c-.37.44-.35,1.29.35,1.43a4.26,4.26,0,0,0,4.27-1.65.91.91,0,0,0-.52-1.35,5.38,5.38,0,0,0-2.46.15c-.84.24-1.88.63-2.21,1.51a.82.82,0,0,0,.77,1,4.29,4.29,0,0,0,1.71-.6,4.13,4.13,0,0,1,1.93-.3l-.76-1.38a2.55,2.55,0,0,1-2.47.93l.71,1.29a2.61,2.61,0,0,1,1.83-1.43.54.54,0,0,0-.13-1.05Z"/><path class="cls-10" d="M186.21,111.8a9.22,9.22,0,0,0-8,1,1,1,0,0,0-.24,1.55c1.16,1.19,3.33,1.06,4.83.91s3.59-.51,4.44-2a1.06,1.06,0,0,0-.6-1.54,8.35,8.35,0,0,0-7.89.85,1.12,1.12,0,0,0,.46,1.87,8.15,8.15,0,0,0,4.22-.06c.78-.16.86-1.49,0-1.62a17.68,17.68,0,0,1-3.63-.46l.46,1.87c1.48-1.19,4.1-1.13,5.79-.47l-.6-1.54c-.46.81-2.16.94-3,1-1,.1-2.46.24-3.29-.42l.17,1.56a7.35,7.35,0,0,1,6.5-1.38c.78.24,1.07-.9.34-1.19Z"/><path class="cls-10" d="M195.44,115.26a5.3,5.3,0,0,0-4-.44.81.81,0,0,0-.22,1.45,5.84,5.84,0,0,0,5.74.42.8.8,0,0,0,.19-1.25,4,4,0,0,0-2.8-1.12c-1-.07-2.57,0-3.27.72a.74.74,0,0,0,.3,1.23c1.44.26,3.37-1,4.61.27l.38-1.33a4.91,4.91,0,0,1-4.33-.3l0,1.38a3.7,3.7,0,0,1,3-.11c.54.15.94-.68.41-.93Z"/><path class="cls-10" d="M157.88,117.5a8.88,8.88,0,0,0-2.3,1.82.78.78,0,0,0,.32,1.3c1.92.35,3.26-1.26,4.23-2.66a.83.83,0,0,0-.48-1.22c-1.73-.35-4.41,1.1-4.44,3a.86.86,0,0,0,.42.75c1,.51,1.22-.64,1.76-1.2a3,3,0,0,1,2-1l-.69-1.25a3.21,3.21,0,0,1-2.61,2l.65,1.17a5.74,5.74,0,0,1,1.72-1.68.63.63,0,0,0-.61-1.1Z"/><path class="cls-10" d="M159.58,121.84a4.47,4.47,0,0,0-1.35,1.14.8.8,0,0,0,.67,1.22,2.67,2.67,0,0,0,2.5-2.07.79.79,0,0,0-.74-1,2.74,2.74,0,0,0-2.58,1.84c-.11.52.45,1.15,1,.78.33-.22.57-.51.87-.76a1.88,1.88,0,0,1,.9-.31l-.95-1a1.07,1.07,0,0,1-1,.91l.76,1a2.29,2.29,0,0,1,.59-.84c.44-.47-.09-1.28-.69-.94Z"/><path class="cls-10" d="M218.79,120.1c-2.37-1.33-6.65-3.65-8.89-.94a1.08,1.08,0,0,0,0,1.47c1.13,1.37,3.42,2.1,5,2.66,1.27.44,3.92,1.26,4.72-.39,1.85-3.8-7.55-6.25-9.46-3.25a1.18,1.18,0,0,0,.38,1.6,10,10,0,0,0,3.62,1.53,15.58,15.58,0,0,0,3.92.68,1,1,0,0,0,.5-1.75c-2.06-1.29-4.79-1-6.83-2.44l.38,1.6c.46-.74,2.81,0,3.43.13a4.93,4.93,0,0,1,1.81.83.51.51,0,0,1,.22.34c-.12-.41.64-.52.09-.5a9.5,9.5,0,0,1-3.6-1,8,8,0,0,1-2.71-1.49l.14,1.26c1.28-1.82,5,.31,6.43,1,.93.48,1.78-.87.85-1.4Z"/><path class="cls-10" d="M226.68,123a3.38,3.38,0,0,0-3.88-1.24.92.92,0,0,0-.22,1.43,4.45,4.45,0,0,0,4.2,1.07,1,1,0,0,0,.27-1.77c-1.16-.86-3.23-1.61-4.27-.23a.75.75,0,0,0,.63,1.14,4.08,4.08,0,0,1,2.63.74l.27-1.77a2.85,2.85,0,0,1-2.58-.61l.15,1.45c.66-.59,1.68,0,2.28.43.4.29.82-.3.52-.65Z"/><path class="cls-10" d="M219.35,126.53a3.75,3.75,0,0,0-2.22-.56c-1,0-1.13,1.17-.49,1.69a3.17,3.17,0,0,0,4.06.35,1,1,0,0,0-.16-1.53,6.35,6.35,0,0,0-2.28-1c-.91-.18-2.34,0-2.27,1.25a.9.9,0,0,0,1.33.79c.1-.05.42-.15.17-.12a1.66,1.66,0,0,1,.61.08,4.71,4.71,0,0,1,1.43.63l-.16-1.53c-.53.41-1.35-.2-1.77-.5l0,1.57a1.88,1.88,0,0,1,1.32-.06.6.6,0,0,0,.48-1.08Z"/><path class="cls-10" d="M203.09,118.56a2.52,2.52,0,0,1-.74-.33.82.82,0,0,0-1.12.27.83.83,0,0,0,.47,1.21,5,5,0,0,0,1.5.28.87.87,0,0,0,.77-1.29,1.27,1.27,0,0,0-1.1-.77,1.32,1.32,0,0,0-.58.15c-.17.08.18-.05,0,0a1.24,1.24,0,0,0-.29.14.74.74,0,0,0-.18,1.15,1,1,0,0,0,.79.32,3.23,3.23,0,0,0,.39,0,.57.57,0,0,1-.55-.16l0,.05.77-1.29a7.8,7.8,0,0,1-1.07-.12l.47,1.21.07-.12-.24.23c-.14.06,0,0,.06,0l.44.06c.59.06.67-.83.15-1Z"/><rect class="cls-23" width="400" height="230"/></g></g></svg>