<svg xmlns="http://www.w3.org/2000/svg" xmlns:xlink="http://www.w3.org/1999/xlink" viewBox="0 0 400 230"><defs><style>.cls-1{fill:#c2da57;}.cls-2{fill:#8eaa1c;}.cls-3{fill:url(#linear-gradient);}.cls-4{fill:url(#linear-gradient-2);}.cls-5{fill:url(#linear-gradient-3);}.cls-6{fill:url(#linear-gradient-4);}.cls-7{fill:#aeba3f;}.cls-8{fill:none;}.cls-9{fill:url(#linear-gradient-5);}.cls-10{fill:#f9a0c0;}.cls-11{fill:#c64a5f;}.cls-12{fill:#dd5f6f;}.cls-13{fill:url(#linear-gradient-6);}.cls-14{fill:#931b5d;}.cls-15{fill:url(#linear-gradient-7);}.cls-16{fill:url(#linear-gradient-8);}.cls-17{fill:url(#linear-gradient-9);}.cls-18{fill:url(#linear-gradient-10);}.cls-19{fill:#cc3a7c;}.cls-20{fill:#b73074;}.cls-21{fill:url(#linear-gradient-11);}.cls-22{fill:url(#linear-gradient-12);}.cls-23{fill:#dd8ed2;}.cls-24{fill:#ff888d;}.cls-25{fill:url(#linear-gradient-13);}.cls-26{fill:#fcaeb4;}.cls-27{fill:url(#linear-gradient-14);}</style><linearGradient id="linear-gradient" x1="62.99" y1="174.02" x2="83.42" y2="201.06" gradientUnits="userSpaceOnUse"><stop offset="0" stop-color="#efadbb"/><stop offset="1" stop-color="#ef4c7c"/></linearGradient><linearGradient id="linear-gradient-2" x1="74.38" y1="189.48" x2="81.41" y2="203.55" gradientUnits="userSpaceOnUse"><stop offset="0" stop-color="#fcdc54"/><stop offset="0.91" stop-color="#ffaf18"/></linearGradient><linearGradient id="linear-gradient-3" x1="-610.37" y1="1489.83" x2="-597.38" y2="1507.02" gradientTransform="matrix(0.81, 0.58, -0.58, 0.81, 1708.94, -676.87)" xlink:href="#linear-gradient"/><linearGradient id="linear-gradient-4" x1="-603.09" y1="1499.84" x2="-597.94" y2="1510.16" gradientTransform="matrix(0.81, 0.58, -0.58, 0.81, 1708.94, -676.87)" xlink:href="#linear-gradient-2"/><linearGradient id="linear-gradient-5" x1="158.81" y1="80.99" x2="158.81" y2="144.41" gradientUnits="userSpaceOnUse"><stop offset="0.33" stop-color="#f9a0c0"/><stop offset="1" stop-color="#fff"/></linearGradient><linearGradient id="linear-gradient-6" x1="226.28" y1="54.18" x2="226.28" y2="97.78" xlink:href="#linear-gradient-5"/><linearGradient id="linear-gradient-7" x1="163.61" y1="137.79" x2="150.83" y2="139.99" gradientUnits="userSpaceOnUse"><stop offset="0" stop-color="#c64a5f"/><stop offset="0.99" stop-color="#82313e"/></linearGradient><linearGradient id="linear-gradient-8" x1="249.68" y1="136.99" x2="259.27" y2="138.38" xlink:href="#linear-gradient-7"/><linearGradient id="linear-gradient-9" x1="205.41" y1="52.83" x2="205.41" y2="145.73" gradientUnits="userSpaceOnUse"><stop offset="0" stop-color="#ff888d"/><stop offset="1" stop-color="#c64a5f"/></linearGradient><linearGradient id="linear-gradient-10" x1="204.94" y1="57.93" x2="204.94" y2="121.17" gradientUnits="userSpaceOnUse"><stop offset="0" stop-color="#ffb3b6"/><stop offset="1" stop-color="#ff888d"/></linearGradient><linearGradient id="linear-gradient-11" x1="206.41" y1="166.37" x2="206.41" y2="144.7" gradientUnits="userSpaceOnUse"><stop offset="0" stop-color="#dd5f6f"/><stop offset="0.99" stop-color="#82313e"/></linearGradient><linearGradient id="linear-gradient-12" x1="209.14" y1="175.53" x2="209.14" y2="152.14" gradientUnits="userSpaceOnUse"><stop offset="0" stop-color="#ba455f"/><stop offset="0.99" stop-color="#82313e"/></linearGradient><linearGradient id="linear-gradient-13" x1="142.01" y1="118.26" x2="120.44" y2="148.37" gradientUnits="userSpaceOnUse"><stop offset="0" stop-color="#ff888d"/><stop offset="0.91" stop-color="#dd5f6f"/></linearGradient><linearGradient id="linear-gradient-14" x1="275.23" y1="116.16" x2="291.41" y2="150.76" xlink:href="#linear-gradient-13"/></defs><title>Juego_Unicornio_2</title><g id="Capa_2" data-name="Capa 2"><g id="Arte"><path class="cls-1" d="M286.43,164.22H121.34c-96.14-2.42-116.9,59-118.16,65.42,21,0,48.3,0,69.33,0l129.72,0H335q31.39,0,62.79.05C396.54,223.22,382.08,161.81,286.43,164.22Z"/><path class="cls-2" d="M373.81,207.15A7.29,7.29,0,0,1,368,208a4.8,4.8,0,0,1-3.74-3.23A2.51,2.51,0,0,1,366,202a4.37,4.37,0,0,1,3.48-.12,2.32,2.32,0,0,1,1.72,2.12c-.07.7-.7,1.26-1.71,1.54a2.16,2.16,0,0,1-2.37-.39L367,205a.55.55,0,0,1,.05-1,1.28,1.28,0,0,1,1.37,0,1.81,1.81,0,0,1,.2.18l.12,0c.42-.12.49-.28.5-.39,0-.3-.3-.68-.76-.86a1.73,1.73,0,0,0-1.43.08,1.28,1.28,0,0,0-.86,1.52,3.19,3.19,0,0,0,2.4,2.14c2.6.55,3.9-.34,4.53-1.19a3.8,3.8,0,0,0-1.53-5.56,10.85,10.85,0,0,0-8.63-.93c-4.53,1.43-8.19,5.65-8.53,9.82-.14,1.71.24,4.83,4.29,6.51.46.19.61.6.34.92a1.23,1.23,0,0,1-1.33.23c-3.65-1.51-5.51-4.26-5.23-7.74.37-4.64,4.52-9.36,9.66-11a13.33,13.33,0,0,1,10.63,1.1c3.17,1.73,3.62,5.15,2.05,7.24A4.68,4.68,0,0,1,373.81,207.15Z"/><path class="cls-3" d="M76.35,181c-1.17-.44-1.14-.87-2.43-.43A3.2,3.2,0,0,0,72,182c-.64,1.32,0,3,.63,4.22v0a2.12,2.12,0,0,0-.61.33l-.08.07a20.08,20.08,0,0,0-4.71-2,4.08,4.08,0,0,0-2.69-.11c-.92.44-.57,1.13-1,1.78-.54.85-1.16.85-.44,1.72a4,4,0,0,0,2.3,1.19,13.52,13.52,0,0,0,6-.75l.44-.14.19.17a14.64,14.64,0,0,0-3.7,3c-.45.49-1,1.25-.55,1.84s1.52.56,2.38.94c1.12.5,1,.92,2.38.56a3.45,3.45,0,0,0,2-1.41c.78-1.28.34-3-.17-4.24l-.13-.3a2.48,2.48,0,0,0,.44-.15A19.18,19.18,0,0,0,79.45,191a4.06,4.06,0,0,0,2.69.17c.94-.42.62-1.12,1.07-1.75.58-.83,1.2-.82.52-1.71a3.84,3.84,0,0,0-2.25-1.24,13.53,13.53,0,0,0-6,.59,1.39,1.39,0,0,0-.24-.29,13.78,13.78,0,0,0,3.18-3.08c.39-.51.83-1.29.35-1.86S77.24,181.3,76.35,181Z"/><path class="cls-4" d="M75.43,186.06a1.69,1.69,0,0,1,.29,2.94,4,4,0,0,1-4.23.2,1.69,1.69,0,0,1-.29-2.94A4,4,0,0,1,75.43,186.06Z"/><path class="cls-5" d="M352.57,187.61c-.47-.66-.16-.93-1.29-1.07a4.07,4.07,0,0,0-2.22.38,5.36,5.36,0,0,0-2.4,2.94v0a2.35,2.35,0,0,0-.62,0l-.1,0a8.52,8.52,0,0,0-1.7-2.83,2.35,2.35,0,0,0-1.68-.94c-.89,0-1.12.55-1.82.83-.91.38-1.32.18-1.43,1a1.73,1.73,0,0,0,.7,1.51,9.52,9.52,0,0,0,4.39,1.45l.38,0a.79.79,0,0,0,0,.17,18.92,18.92,0,0,0-4.4.76c-.62.17-1.46.5-1.58,1s.61.85.92,1.38c.4.68.06.93,1.17,1.13a4.17,4.17,0,0,0,2.25-.26,5.8,5.8,0,0,0,2.71-2.81l.12-.24a2.23,2.23,0,0,0,.39,0,8.11,8.11,0,0,0,1.58,2.94,2.28,2.28,0,0,0,1.63,1c.89,0,1.15-.52,1.86-.79.93-.35,1.33-.15,1.48-.94a1.68,1.68,0,0,0-.63-1.53,9.22,9.22,0,0,0-4.26-1.54.81.81,0,0,0,0-.27,18.79,18.79,0,0,0,4.11-1c.6-.2,1.4-.57,1.47-1.09S352.92,188.12,352.57,187.61Z"/><path class="cls-6" d="M348.58,190.62c.3.89-.49,1.79-1.77,2a2.57,2.57,0,0,1-2.87-1.24c-.3-.89.49-1.79,1.77-2A2.57,2.57,0,0,1,348.58,190.62Z"/><path class="cls-7" d="M148.87,186.82c-2.3,0-4.4.94-5.1,2.3a2,2,0,0,0-.22,1.34c-2.21.34-4.77,1.13-5.5,2.61-.34.68-.52,2,2,3.38,1.84,1,4.33,1.18,6.58,1.2a17.92,17.92,0,0,0-2.73,2.11c-2.09,1.95-1.65,3.28-1.2,3.9a4,4,0,0,0,3.25,1.3l.48,0a3.32,3.32,0,0,0,.75,2.62,4.31,4.31,0,0,0,3.27,1.23,9.59,9.59,0,0,0,3.33-.68,6.87,6.87,0,0,0,4.27-4.24,8.93,8.93,0,0,0,2.61,1.56,10.91,10.91,0,0,0,3.81.68c2.43,0,4.37-.79,5-2a1.77,1.77,0,0,0,.15-1.11,5.33,5.33,0,0,0,2.89-1.64c2-2.09,1.34-4.75-1.53-6.32a12.07,12.07,0,0,0-5.94-1.31c-.72,0-1.41,0-2.09.06s-1.25.06-1.83.06a9.52,9.52,0,0,1-2.15-.2c-1.07-.25-1.88-1.33-2.73-2.48a11.18,11.18,0,0,0-3.32-3.29,8,8,0,0,0-4-1Z"/><path class="cls-7" d="M114.93,183.87a4.79,4.79,0,0,0-3.46,1.22,2.5,2.5,0,0,0-.22.27,13.21,13.21,0,0,0-1.89-.15c-2.14,0-3.16.63-3.64,1.15s-.84,1.41.06,2.74a6.86,6.86,0,0,0,3.14,2.16q-1,.24-1.93.58c-3.29,1.15-3.05,2.69-2.9,3.13a2.56,2.56,0,0,0,1.64,1.43,2.29,2.29,0,0,0-.42,2.39c.31.63,1.28,1.69,4.28,1.69h.24a8.42,8.42,0,0,0,4.74-1.55,4.33,4.33,0,0,0,.86,1.22,7.12,7.12,0,0,0,4.82,1.89,3.94,3.94,0,0,0,3-1.07l.16-.21h.29a6.45,6.45,0,0,0,2.42-.51c2.59-1,3.53-3.17,2.24-5.08s-3.36-2.4-5.09-2.91a9,9,0,0,1-2.49-1c-.47-.33-.49-1.23-.51-2.11a5.84,5.84,0,0,0-.69-3.15,5.39,5.39,0,0,0-4.62-2.17Z"/><path class="cls-2" d="M307.71,200.82c-2.1,1.93,1.05,4.45,3.14,2.53-.13,1.54,1.83,5.16,4.31,2.74,1.67-1.63.17-4.91.68-6.7a9.14,9.14,0,0,0,4.81,4.3c3.25,1.53,4.49-.35,2-2.11,2.49.74,7.06.74,4.7-2-1.82-2.13-7-1.87-10-1.78,2.39-.05,5.72-1.22,6.77-2.74,1.44-2.07-.7-4.69-3.21-2.14.37-1.25.58-1.94-1.11-2.64a4.65,4.65,0,0,0-4.9.74c-2,2-.06,4.07-.88,6.09C313.33,198.8,309.39,199.27,307.71,200.82Z"/><path class="cls-2" d="M86.92,198.13c-1.29-.12-3,.26-1.27,1.15-.91-.25-4.07-.34-3.71.91.2.68,3.44,1,4.24,1.25-2-.06-5.05.3-6,1.65a5.41,5.41,0,0,0,2.84.33c-1.58.34-3.87,1.85-1.76,2.53,1.72.55,4.86-.95,6.21-1.59-2.33,1.4-1.11,4.24.83,2-.91.94-.37,2.31,1.44,1.45.74-.35,1.74-2.39,1.91-3,.43-1.47-.89-1.28-1.16-2.2s1.25-1.61.69-2.62C90.75,199.22,88.08,198.24,86.92,198.13Z"/><rect class="cls-8" width="400" height="230"/><polygon class="cls-9" points="142.13 80.89 142.73 173.36 175.48 175.56 170.29 80.49 142.13 80.89"/><path class="cls-10" d="M176.15,67.14l-19.06-1.5v-.23l-1.41.12-1.5-.12v.24l-17.65,1.49s-.4,6.06,3.2,15.65h33.09C176.65,73.2,176.15,67.14,176.15,67.14Z"/><polygon class="cls-11" points="141.03 67.11 141.53 72.9 144.73 72.8 145.23 67.41 141.03 67.11"/><polygon class="cls-12" points="153.91 67.11 154.41 72.9 157.61 72.8 158.11 67.41 153.91 67.11"/><polygon class="cls-11" points="167.69 67.11 168.19 72.9 171.39 72.8 171.89 67.41 167.69 67.11"/><path class="cls-12" d="M177.48,67.3c-11.55-9-18.92-34.26-19.87-37.66v-.18h0l-.05-.2-1.25.1-1.25-.1-.05.2h0v.19c-1,3.41-8.32,28.62-19.86,37.65,0,0,12.87.56,21.22.4C164.61,67.86,177.48,67.3,177.48,67.3Z"/><circle class="cls-12" cx="156.29" cy="27.89" r="3.37"/><polygon class="cls-13" points="219.02 44.12 219.28 99.32 233.53 100.77 231.28 43.86 219.02 44.12"/><path class="cls-10" d="M233.76,35l-8.36-1v-.15l-.56.08-.6-.08V34l-7.67.94A40.4,40.4,0,0,0,218,45.3h14.4A34.81,34.81,0,0,0,233.76,35Z"/><path class="cls-12" d="M234.41,35.14c-5-6-7.94-29.24-8.35-31.49V3.53h0l0-.13-.54.06-.54-.06,0,.13h0v.12c-.42,2.25-3.92,25.51-8.95,31.49,0,0,5.6.37,9.24.27C228.8,35.5,234.41,35.14,234.41,35.14Z"/><path class="cls-12" d="M221.82,24.67a10.9,10.9,0,0,1-4.29-.2l.1,8.59S223,26.69,221.82,24.67Z"/><path class="cls-12" d="M228.31,24.67a9.4,9.4,0,0,0,4.29-.2l-.1,8.59S227.12,26.69,228.31,24.67Z"/><circle class="cls-12" cx="225.64" cy="2.73" r="1.57"/><path class="cls-12" d="M223.95,42V37.1s-1.76-.08-2.36.75-.05,4.15-.05,4.15Z"/><path class="cls-12" d="M225.69,42V37.1s1.78-.08,2.39.75.07,4.15.07,4.15Z"/><path class="cls-12" d="M226.16,54q0-.17,0-.35c0-2-.45-3.63-1-3.63s-1,1.63-1,3.63c0,.14,0,.28,0,.42C224.82,54,225.49,54,226.16,54Z"/><path class="cls-12" d="M226.31,65.88q0-.17,0-.35c0-2-.45-3.63-1-3.63s-1,1.63-1,3.63c0,.14,0,.28,0,.42C225,65.9,225.64,65.88,226.31,65.88Z"/><path class="cls-12" d="M226.38,77.64q0-.17,0-.35c0-2-.45-3.63-1-3.63s-1,1.63-1,3.63c0,.14,0,.28,0,.42C225,77.66,225.71,77.64,226.38,77.64Z"/><path class="cls-14" d="M138.84,146.9s2.1,30.56,3,30.86,26.06-3.59,26.06-3.59l-1.5-31.46Z"/><polygon class="cls-15" points="166.39 128.63 142.43 135.82 133.44 150.2 166.39 146 166.39 128.63"/><path class="cls-14" d="M269.23,145.7s-2,30.56-2.79,30.86-24.25-3.6-24.25-3.6l1.39-31.46Z"/><polygon class="cls-16" points="243.71 127.43 265.95 134.62 274.34 149 243.71 144.8 243.71 127.43"/><polygon class="cls-11" points="166.1 96.31 176.58 96.31 176.13 97.79 166.85 100.05 166.1 96.31"/><path class="cls-11" d="M170.32,104.13c-.86-2.18-6.09-15.75-6.42-24h-1.46c-.33,8.11-5.54,21.29-6.6,23.89C160.67,104,165.51,104.09,170.32,104.13Z"/><path class="cls-11" d="M254,104c-1-2.38-6.29-15.77-6.63-24h-1.47c-.34,8.3-5.64,21.92-6.48,24.05C244.31,104,249.18,104,254,104Z"/><polygon class="cls-11" points="243.74 96.31 233.2 96.31 233.66 97.78 242.98 100.04 243.74 96.31"/><path class="cls-17" d="M252.32,103.88l-11.43.23c-5-4.63-29.37-43.74-33.28-50q-2.6,0-5.2.06c-4.46,7.28-27.75,45.12-32.62,49.67l-11.28-.23s-.89,3.47,2.1,4.47c0,0-1.6,5,3.4,5l.8,64.71,37.26-1.85,43.88,2.15.81-64.71c5.06,0,3.44-5,3.44-5C253.22,107.36,252.32,103.88,252.32,103.88Z"/><path class="cls-18" d="M240.51,126.69c.2-11.38-4.65-12.15-4.65-12.15V101.69h-4.51V95.44h-4.51V88.75h-4.51V82.5H218v-7h-4.8V69.28h-4.8v-6h-7.27v6h-4.8v6.25h-4.51v7h-4.51v6.25h-4.51v6.69h-4.51v6.25h-4.36v12.86s-4.82.76-4.62,12.15,0,53.19,0,53.19h71.29S240.31,138.08,240.51,126.69Z"/><path class="cls-14" d="M203.89,95.37V83.69s-2.52-.2-3.32,1.8,0,10,0,10Z"/><path class="cls-19" d="M205.63,95.37V83.69s2.51-.2,3.33,1.8,0,10,0,10Z"/><path class="cls-14" d="M179.62,143.31V131.62s-2.52-.2-3.31,1.8,0,10,0,10Z"/><path class="cls-19" d="M181.36,143.31V131.62s2.52-.2,3.33,1.8,0,10,0,10Z"/><path class="cls-19" d="M203.6,143.31V131.62s-2.52-.2-3.32,1.8,0,10,0,10Z"/><path class="cls-14" d="M205.34,143.31V131.62s2.51-.2,3.33,1.8,0,10,0,10Z"/><path class="cls-19" d="M227.58,143.31V131.62s-2.53-.2-3.33,1.8,0,10,0,10Z"/><path class="cls-14" d="M229.32,143.31V131.62s2.5-.2,3.32,1.8,0,10,0,10Z"/><path class="cls-14" d="M176.28,126.54h17.14v-2.76H176.31C176.29,125.38,176.28,126.54,176.28,126.54Z"/><path class="cls-20" d="M185.8,105.66c-5.59-.2-9.4,7-9.4,8.36,0,1-.06,6.42-.09,9.76h17.12v-9.53S191.39,105.86,185.8,105.66Z"/><path class="cls-14" d="M196.21,126.54h17v-2.76h-17C196.21,125.38,196.21,126.54,196.21,126.54Z"/><path class="cls-20" d="M205.65,105.66c-5.59-.2-9.36,7-9.36,8.36,0,1,0,6.42-.06,9.76h17v-9.53S211.24,105.86,205.65,105.66Z"/><path class="cls-14" d="M216.15,123.78c0,1.6,0,2.76,0,2.76h17.12v-2.76Z"/><path class="cls-20" d="M233.25,114.25s-2-8.39-7.61-8.59-9.4,7-9.4,8.36c0,1-.06,6.42-.09,9.76h17.1Z"/><circle class="cls-14" cx="194.83" cy="104.93" r="2.37"/><circle class="cls-14" cx="214.9" cy="105.53" r="2.37"/><circle class="cls-11" cx="204.71" cy="59.23" r="1.16"/><path class="cls-21" d="M263.74,160.89c-3-.32-6-.62-9.06-.85l-.5,7.45-5.84.29-1-8.23q-3.85-.2-7.77-.32l-.46,6.84-5.84.3-.85-7.31q-3.91-.06-7.82-.06l-.52,7.77-5.84.3-.94-8q-3.92,0-7.77.14l-.48,7.23-5.84.3-.85-7.32q-4,.14-7.84.32l-.49,7.4-5.84.3-.86-7.34c-2.71.15-5.33.3-7.85.47l-.49,7.27-5.84.3-.83-7.08c-2.84.21-5.49.41-7.93.61l-.43,6.52-5.84.3-.72-6.21c-6,.55-9.56,1-9.56,1l.26,12L265,171.48Z"/><polygon class="cls-22" points="270.15 216.65 264.95 171.45 148.13 175.25 149.02 216.65 270.15 216.65"/><path class="cls-19" d="M119.59,104.58l2.85.6.15-2-2.45-1.09.23-1.18,2.3,1.57.05-1s-4.44-4.27-8.79-2.9-1.88,5.8-5.63,5.55-6.9,1.31-8.35,3.27c0,0,4-.63,6.3,1.59s9.13,2.3,9.39.09,4.57-2,6.78-1.35l-.05-1.21-2.79-.4Z"/><polygon class="cls-23" points="125.16 137.71 122.86 99.32 122.16 99.27 121.7 138.01 125.16 137.71"/><circle class="cls-23" cx="122.51" cy="98.82" r="1.05"/><path class="cls-24" d="M103.53,158.61s-17.33,42.78-11.33,58H152l-2.6-59.28Z"/><path class="cls-25" d="M149.38,122l-.57,7-6.79-.08.44-7.37c-3.15-.13-6.2-.13-9.13,0l0,7.53-6.78.43-.12-7.51c-2.91.28-5.68.66-8.29,1.09l.55,7.5-6.72,1-.68-7.11c-2.84.65-5.4,1.35-7.67,2l1.4,7.9L98.39,136l-1.45-7.27c-2.94,1.13-4.54,1.93-4.54,1.93l7.19,29.16,54.72-1.8,3.79-34.75C155.14,122.69,152.23,122.29,149.38,122Z"/><path class="cls-20" d="M116.49,163.67a1.25,1.25,0,0,0-.42-.14c-3.15-.45-2.55,12.13-2.55,12.13h1.71C114.74,168.4,115.72,165.12,116.49,163.67Z"/><path class="cls-14" d="M116.49,163.67c-.76,1.45-1.75,4.73-1.26,12h2.64S119.09,165.07,116.49,163.67Z"/><path class="cls-20" d="M123.5,163.74a1.26,1.26,0,0,0-.54-.21c-3.15-.45-2.55,12.13-2.55,12.13h2C121.94,168.84,122.76,165.38,123.5,163.74Z"/><path class="cls-14" d="M123.5,163.75c-.74,1.64-1.55,5.09-1.06,11.92h2.32S125.94,165.4,123.5,163.75Z"/><path class="cls-11" d="M97.52,140c-1.86,2.56,2,2.54,3.47,2.38,1.9-.21,4.16-.15,5.66-1.42,2.58-2.17-.65-3.64-2.76-3.23C102,138.11,98.74,138.35,97.52,140Z"/><path class="cls-11" d="M103.06,143.68c-.38,1.39,1.93,1.55,2.85,1.52,1.25,0,4.1-.51,4.85-1.7,1.18-1.87-2.12-1.57-3-1.45C106.57,142.19,103.45,142.25,103.06,143.68Z"/><path class="cls-11" d="M113.2,138.93c2.27-2.15-3.15-2.69-4.28-1.61C106.59,139.53,111.73,140.32,113.2,138.93Z"/><path class="cls-11" d="M145,151.52c-1.16,1.89,1.3,2.22,2.57,2.27,1.54.06,5,1,6.17-.42C156.17,150.44,146.58,148.86,145,151.52Z"/><path class="cls-11" d="M141.13,149.38c-1.55-.68-.68-1.81.51-2.21a11,11,0,0,1,5.48-.2c1.85.55,1.24,2.41-.32,2.66S142.49,150,141.13,149.38Z"/><path class="cls-11" d="M138.77,153.59c1.43.76,6-1,4-2.28C141.64,150.54,136.16,152.2,138.77,153.59Z"/><path class="cls-26" d="M93.6,201c.18,2.68,3.54,2,5.5,2,2.16,0,4.73.5,5.46-1.8.48-1.52,1.7-5.58-.17-6.49-1.37-.67-3.65-.15-5.08-.1-1.27,0-3.86,0-4.86,1S93.5,199.59,93.6,201Z"/><path class="cls-26" d="M106.48,199c-.27,1.31-1.13,3.35.17,4s3.51,0,4.84-.27c.89-.17,2.43-.13,3.19-.65,1.49-1,.7-3.55-.72-4.24-1.89-.92-4.93-.28-6.87.07Z"/><path class="cls-26" d="M100,206.42c.4,3.47,3.85,2.7,6.55,2.6,2.06-.08,4.74-.74,3.8-3.5-.79-2.31-3.91-1-5.68-1.52S99.69,203.67,100,206.42Z"/><path class="cls-26" d="M110.15,195c.94-1.74-3.08-2.74-3.79-1.39C105.33,195.57,109.11,197,110.15,195Z"/><path class="cls-26" d="M124.56,176.74c1,0,4.63,0,2.2,1.32-1.77,1-5.17.58-7.13.5-1.27-.05-4.4.36-4.82-1.3C117.51,175.95,121.63,176.85,124.56,176.74Z"/><path class="cls-26" d="M113.47,176.86c.29,1.51-3.12,1.64-3.79.87-1.29-1.47,3-1,3.49-1Z"/><path class="cls-24" d="M199.95,177.91c-10.26,1.09-14.66,9.17-16.41,17.67,3.14.2,9.33.22,7.6-2.94,0,0,2.51,2.2.91,4.19a6.73,6.73,0,0,1,3.31,1.6A9.41,9.41,0,0,1,192,200c1.6,2-.91,4.16-.91,4.16,1.9-3.47-5.73-3.09-8.41-2.86a70.78,70.78,0,0,0,.45,15.42l20.57.07L201,177.83C200.67,177.84,200.31,177.87,199.95,177.91Z"/><path class="cls-24" d="M225.41,216.85A89.8,89.8,0,0,0,222.58,201c-2.34-.23-10.35-.75-8.44,2.84,0,0-2.44-2.16-.89-4.16a9,9,0,0,1-3.22-1.56,6.47,6.47,0,0,1,3.22-1.6c-1.56-2,.89-4.19.89-4.19-1.55,2.91,3.42,3.13,6.6,3-3.42-9.1-9.25-17.6-19.08-17.51l3.56,39Z"/><path class="cls-26" d="M191.14,204.15s2.51-2.16.91-4.16a9.41,9.41,0,0,0,3.31-1.56,6.73,6.73,0,0,0-3.31-1.6c1.6-2-.91-4.19-.91-4.19,1.73,3.17-4.46,3.15-7.6,2.94a49.46,49.46,0,0,0-.81,5.7C185.41,201.05,193,200.67,191.14,204.15Z"/><path class="cls-26" d="M214.14,192.34s-2.44,2.2-.89,4.19a6.47,6.47,0,0,0-3.22,1.6,9,9,0,0,0,3.22,1.56c-1.56,2,.89,4.16.89,4.16-1.91-3.59,6.1-3.06,8.44-2.84-.52-1.87-1.13-3.79-1.84-5.68C217.56,195.47,212.59,195.25,214.14,192.34Z"/><path class="cls-26" d="M201.66,177.81H201l2.72,38.95h1.48Z"/><path class="cls-12" d="M151.57,179c2.23.13,4.61-.14,6.89-.15,1.47,0,1.94-.21,2.4,1.2a11.56,11.56,0,0,1,.13,3.27,74.06,74.06,0,0,1-9.09.15,13.7,13.7,0,0,1-.18-4.17Z"/><path class="cls-12" d="M158,185.4c-1.12,2.49.79,3.21,2.73,3.3,1,0,2.08.05,3.1,0,1.55-.08,1.53.09,2-1.2C167.28,183.28,159,183,158,185.4Z"/><path class="cls-12" d="M161.93,183.13c1-.11,1.93-.4,2.95-.45.16,0-.58-2.44-1.43-2.57C161.66,179.82,162,182,161.93,183.13Z"/><path class="cls-12" d="M156,195.61a20.88,20.88,0,0,1-.13,3.88c-.2,1.62-.14,2.11-1.79,1.79-1.8-.35-2-2.13-1.9-3.66,0-.89-.08-1.42.61-1.88C153,195.59,156,195.77,156,195.61Z"/><path class="cls-12" d="M158.76,192.6c-.25-1.9-4.77-1.74-5.11.11C153.16,195.42,159.1,195.11,158.76,192.6Z"/><path class="cls-12" d="M152.17,191.09a1.7,1.7,0,0,0,2.24-.9c.36-1-.3-3.25-1.71-3C151.57,187.45,151.16,190.55,152.17,191.09Z"/><path class="cls-12" d="M254.14,204.27c-1.46,0-3.26.44-3.86-.75s.19-3.23-.14-4.47c2.14-.44,7.73-1.47,8.94,1C261.06,204.1,256.56,204.27,254.14,204.27Z"/><path class="cls-12" d="M255.85,205.79c-.09,1.67-.06,2.69.71,3.2a4.29,4.29,0,0,0,2.54.35c.47,0,0-2.46-.25-2.77C258.16,205.73,256.82,205.72,255.85,205.79Z"/><path class="cls-12" d="M257.92,211.28a9,9,0,0,0-5.07-.11c-.1,2.56.31,2.44,2.81,2.44,3,0,2.42.14,3.16-2.33Z"/><path class="cls-19" d="M287.46,105.48l2.8.6.12-2L287.93,103l.22-1.18,2.29,1.57,0-1s-4.44-4.27-8.79-2.9-1.88,5.8-5.63,5.55-6.9,1.31-8.35,3.27c0,0,4-.63,6.3,1.59s9.13,2.3,9.39.09,4.57-2,6.79-1.35v-1.21l-2.74-.4Z"/><polygon class="cls-23" points="292.92 138.61 290.62 100.22 289.93 100.17 289.47 138.91 292.92 138.61"/><circle class="cls-23" cx="290.27" cy="99.72" r="1.05"/><path class="cls-24" d="M308.62,158.61s17.68,42.78,11.56,58h-61l2.66-59.28Z"/><path class="cls-27" d="M261.83,122l.58,7,6.93-.08-.45-7.37c3.21-.13,6.32-.13,9.32,0l0,7.53,6.92.43.13-7.51c3,.28,5.79.66,8.45,1.09l-.57,7.5,6.86,1,.7-7.11c2.9.65,5.51,1.35,7.82,2l-1.43,7.9,6.73,1.65,1.48-7.27c3,1.13,4.63,1.93,4.63,1.93l-7.34,29.16L256.8,158l-3.87-34.75C256,122.69,258.93,122.29,261.83,122Z"/><path class="cls-20" d="M295.4,163.67a1.29,1.29,0,0,1,.43-.14c3.21-.45,2.6,12.13,2.6,12.13h-1.74C297.18,168.4,296.18,165.12,295.4,163.67Z"/><path class="cls-14" d="M295.4,163.67c.78,1.45,1.78,4.73,1.29,12H294S292.75,165.07,295.4,163.67Z"/><path class="cls-20" d="M288.25,163.74a1.31,1.31,0,0,1,.55-.21c3.21-.45,2.6,12.13,2.6,12.13h-2.07C289.83,168.84,289,165.38,288.25,163.74Z"/><path class="cls-14" d="M288.25,163.75c.75,1.64,1.59,5.09,1.08,11.92H287S285.75,165.4,288.25,163.75Z"/><path class="cls-11" d="M314.75,140c1.9,2.56-2.08,2.54-3.54,2.38-1.94-.21-4.24-.15-5.78-1.42-2.64-2.17.66-3.64,2.82-3.23C310.19,138.11,313.51,138.35,314.75,140Z"/><path class="cls-11" d="M309.1,143.68c.38,1.39-2,1.55-2.91,1.52-1.27,0-4.18-.51-4.95-1.7-1.2-1.87,2.16-1.57,3.11-1.45C305.52,142.19,308.71,142.25,309.1,143.68Z"/><path class="cls-11" d="M298.76,138.93c-2.31-2.15,3.21-2.69,4.37-1.61C305.5,139.53,300.25,140.32,298.76,138.93Z"/><path class="cls-11" d="M266.35,151.52c1.18,1.89-1.32,2.22-2.62,2.27-1.57.06-5.1,1-6.29-.42C254.91,150.44,264.7,148.86,266.35,151.52Z"/><path class="cls-11" d="M270.25,149.38c1.59-.68.7-1.81-.53-2.21a11.44,11.44,0,0,0-5.6-.2c-1.89.55-1.27,2.41.33,2.66S268.86,150,270.25,149.38Z"/><path class="cls-11" d="M272.66,153.59c-1.46.76-6.12-1-4.12-2.28C269.74,150.54,275.33,152.2,272.66,153.59Z"/><path class="cls-26" d="M318.75,201c-.18,2.68-3.61,2-5.61,2-2.21,0-4.83.5-5.57-1.8-.49-1.52-1.74-5.58.17-6.49,1.4-.67,3.72-.15,5.18-.1,1.29,0,3.94,0,5,1S318.85,199.59,318.75,201Z"/><path class="cls-26" d="M305.61,199c.28,1.31,1.15,3.35-.17,4s-3.58,0-4.94-.27c-.9-.17-2.48-.13-3.25-.65-1.52-1-.72-3.55.74-4.24,1.93-.92,5-.28,7,.07Z"/><path class="cls-26" d="M312.21,206.42c-.41,3.47-3.93,2.7-6.68,2.6-2.1-.08-4.83-.74-3.87-3.5.81-2.31,4-1,5.79-1.52S312.53,203.67,312.21,206.42Z"/><path class="cls-26" d="M301.86,195c-1-1.74,3.14-2.74,3.87-1.39C306.78,195.57,302.93,197,301.86,195Z"/><path class="cls-26" d="M287.16,176.74c-1,0-4.73,0-2.24,1.32,1.8,1,5.28.58,7.28.5,1.3-.05,4.49.36,4.92-1.3C294.35,175.95,290.15,176.85,287.16,176.74Z"/><path class="cls-26" d="M298.48,176.86c-.3,1.51,3.18,1.64,3.87.87,1.32-1.47-3-1-3.56-1Z"/><path class="cls-14" d="M224.78,216.62A91,91,0,0,0,222,201.26c-.55-2-1.16-3.89-1.82-5.65-4.27-11.41-10.45-17.19-18.37-17.19h-.76c-.34,0-.69,0-1,.08-8.38.89-13.72,6.7-15.89,17.27a49.58,49.58,0,0,0-.8,5.66,71.5,71.5,0,0,0,.38,14.91l-1.19.16a72.79,72.79,0,0,1-.39-15.17,50.61,50.61,0,0,1,.82-5.79,27.68,27.68,0,0,1,5.14-11.92,16.88,16.88,0,0,1,11.8-6.3c.37,0,.74-.07,1.11-.08h.82c8.46,0,15,6,19.49,18,.67,1.8,1.3,3.74,1.85,5.76A92.22,92.22,0,0,1,226,216.52Z"/></g></g></svg>