<svg xmlns="http://www.w3.org/2000/svg" viewBox="0 0 400 230"><defs><style>.cls-1,.cls-13{fill:#26bdd1;}.cls-2,.cls-4{fill:#00488e;}.cls-3{fill:#f8fed2;stroke:#00b7ff;stroke-width:0.56px;}.cls-12,.cls-3,.cls-9{stroke-miterlimit:22.93;}.cls-10,.cls-13,.cls-14,.cls-15,.cls-16,.cls-17,.cls-18,.cls-19,.cls-20,.cls-3,.cls-4,.cls-5,.cls-6,.cls-7,.cls-8,.cls-9{fill-rule:evenodd;}.cls-5{fill:#019dcb;}.cls-6{fill:#03bddc;}.cls-7{fill:#c4ffff;}.cls-12,.cls-14,.cls-7{opacity:0.5;}.cls-11,.cls-8{fill:#fff;}.cls-12,.cls-17,.cls-9{fill:#fc0;}.cls-12,.cls-9{stroke:#f60;stroke-width:0.22px;}.cls-10{fill:#c63;}.cls-11{opacity:0.82;}.cls-14{fill:#039;}.cls-15,.cls-22{fill:#05a4e2;}.cls-16{fill:#f93;}.cls-18{fill:#ff0;}.cls-19,.cls-21{fill:#024056;}.cls-20{fill:#087fa3;}.cls-23{fill:none;}</style></defs><title>Juego_Nave_1</title><g id="Capa_2" data-name="Capa 2"><g id="Arte"><rect class="cls-1" x="326.16" y="141.58" width="3.23" height="87.64" transform="translate(18.61 400.39) rotate(-64.31)"/><rect class="cls-1" x="355.08" y="187.58" width="3.23" height="23.45" transform="translate(22.45 434.33) rotate(-64.31)"/><rect class="cls-2" x="340.25" y="175.07" width="1.91" height="33.48" rx="0.55" ry="0.55" transform="translate(20.43 416.12) rotate(-64.31)"/><path class="cls-3" d="M325.57,184.33c-9.75,20.26-50.72,20.77-91.52,1.14S132.27,116.28,142,96s86.53-3.55,127.33,16.08S335.32,164.07,325.57,184.33Z"/><path class="cls-4" d="M253.22,149a22.68,22.68,0,1,0,30.22-10.5A22.66,22.66,0,0,0,253.22,149Z"/><path class="cls-5" d="M253.62,148.21a21.75,21.75,0,1,0,29-10.07A21.74,21.74,0,0,0,253.62,148.21Z"/><path class="cls-4" d="M255.62,149.38A18.11,18.11,0,1,0,279.75,141,18.1,18.1,0,0,0,255.62,149.38Z"/><path class="cls-6" d="M256.06,150.89a17.37,17.37,0,1,0,23.15-8A17.36,17.36,0,0,0,256.06,150.89Z"/><path class="cls-7" d="M257.92,155a17.39,17.39,0,0,1,30.4-1.55,17.33,17.33,0,1,0-31.35,14l-.1-.35A17.17,17.17,0,0,1,257.92,155Z"/><path class="cls-7" d="M293.39,165.06a21.77,21.77,0,0,1-40.88-13.93,21.75,21.75,0,1,0,42.13,10.69A21.69,21.69,0,0,1,293.39,165.06Z"/><path class="cls-8" d="M356.86,199.46a6.14,6.14,0,1,0,8.28-3A6.25,6.25,0,0,0,356.86,199.46Z"/><path class="cls-9" d="M357,199.21a6.11,6.11,0,1,0,8.15-2.86A6.12,6.12,0,0,0,357,199.21Z"/><path class="cls-10" d="M368.43,200.75a5.7,5.7,0,0,0-3.43-4.42,6.16,6.16,0,0,0-7.76,2.36,5.75,5.75,0,0,0-.88,2.79C359,195.54,366.09,194.86,368.43,200.75Z"/><path class="cls-10" d="M360.6,207c-2.54-1.22-3.28-2.4-3.81-3.72.23,1.82,1.19,3.18,3.46,4.28s6,0,7.51-2.58a5.62,5.62,0,0,0,.77-2.36C367.63,205.63,363.14,208.21,360.6,207Z"/><circle class="cls-11" cx="365.02" cy="205.22" r="1.72" transform="translate(21.84 445.19) rotate(-64.31)"/><circle class="cls-12" cx="362.41" cy="202.3" r="6.11" transform="translate(22.99 441.18) rotate(-64.31)"/><path class="cls-13" d="M324.69,161.65,307.3,197.8a36.14,36.14,0,0,0,9.9-4.28l10.33-21.46A36.14,36.14,0,0,0,324.69,161.65Z"/><path class="cls-13" d="M322.52,157.19a65.77,65.77,0,0,0-4.46-7l-23.87,49.61a65.79,65.79,0,0,0,8.27-.89Z"/><path class="cls-13" d="M315.41,146.71q-2.34-2.89-5.08-5.75l-28.16,58.53q3.94.35,7.66.38Z"/><path class="cls-14" d="M145.23,109.73c9.75-20.26,86.53-3.55,127.33,16.08,27.28,13.12,47.57,31.92,55.11,49,0-19.87-23.45-45.93-58.32-62.7C228.54,92.48,151.76,75.77,142,96c-2.05,4.27-1,9.83,2.4,16.14A10.25,10.25,0,0,1,145.23,109.73Z"/><path class="cls-4" d="M214.77,130.25a11.61,11.61,0,1,0,15.47-5.38A11.61,11.61,0,0,0,214.77,130.25Z"/><path class="cls-5" d="M215,129.82a11.14,11.14,0,1,0,14.84-5.16A11.13,11.13,0,0,0,215,129.82Z"/><path class="cls-4" d="M216,130.42a9.27,9.27,0,1,0,12.36-4.29A9.27,9.27,0,0,0,216,130.42Z"/><path class="cls-6" d="M216.22,131.19a8.9,8.9,0,1,0,11.85-4.12A8.89,8.89,0,0,0,216.22,131.19Z"/><path class="cls-7" d="M217.18,133.31a8.91,8.91,0,0,1,15.57-.79,8.88,8.88,0,1,0-16.05,7.19l-.05-.18A8.79,8.79,0,0,1,217.18,133.31Z"/><path class="cls-7" d="M235.34,138.45a11.15,11.15,0,0,1-20.93-7.13A11.14,11.14,0,1,0,236,136.79,11.11,11.11,0,0,1,235.34,138.45Z"/><path class="cls-15" d="M222.58,94.71l-30.83,64.08q2.82,1.94,5.64,3.79l31.67-65.83Q225.86,95.7,222.58,94.71Z"/><path class="cls-16" d="M144.94,97.43c-7.8,16.22-36.76,18.47-64.67,5S17.92,40,19.35,37s61.26-6.69,89.17,6.74S152.74,81.22,144.94,97.43Z"/><path class="cls-17" d="M144.94,97.43c-5.21,10.83-25.71,11.78-45.79,2.12S53.66,56,54.61,54,97.94,50.67,118,60.33,150.15,86.6,144.94,97.43Z"/><path class="cls-18" d="M144.94,97.43c-5.21,10.83-21.41,13.86-36.18,6.75S77.55,67.45,78.5,65.47s34.37-7.62,49.14-.52S150.15,86.6,144.94,97.43Z"/><path class="cls-8" d="M144.94,97.43c-3.9,8.1-16.52,10.12-28.2,4.5s-25-28.29-24.32-29.77,26.77-5.19,38.44.43S148.84,89.33,144.94,97.43Z"/><path class="cls-19" d="M197.35,89.67,186.16,58.75,127.87,33.85,126.34,37l35,25L163.22,87C172.77,86.38,184.66,87.44,197.35,89.67Z"/><path class="cls-20" d="M196.2,88.47l-11-28.68-56.7-24.54L127.7,37l34.9,24.44,1.56,24.21A146,146,0,0,1,196.2,88.47Z"/><path class="cls-15" d="M185.12,61l-19.5,24a136.19,136.19,0,0,1,29.73,2.68Z"/><path class="cls-15" d="M164.76,84.54l19.71-24.26,0-.08-1.61-.7-19.71,2.21,1.47,22.83Z"/><polygon class="cls-15" points="162.55 60.65 180.93 58.6 132.58 37.67 131.86 39.17 162.55 60.65"/><path class="cls-19" d="M171.64,143.11,140.5,153.66l-55.84-30,1.53-3.18,41.4,11.76,20.65-14.12C153.73,126,162,134.58,171.64,143.11Z"/><path class="cls-20" d="M170,143l-29.26,9.31-54.56-29,.82-1.7,40.88,12,19.89-13.89A146,146,0,0,0,170,143Z"/><path class="cls-15" d="M141.6,151.45l6.58-30.22a136.18,136.18,0,0,0,20.64,21.55Z"/><path class="cls-15" d="M147.29,120.85l-6.65,30.54-.08,0-1.55-.82L128.43,133.8l18.75-13.1Z"/><polygon class="cls-15" points="127.25 134.03 137.11 149.67 90.59 124.96 91.31 123.46 127.25 134.03"/><path class="cls-15" d="M193.7,160.87l31.24-64.93q-3.47-1-7-1.84l-30.06,62.48Q190.78,158.75,193.7,160.87Z"/><path class="cls-15" d="M181.65,151.69l28.59-59.43q-3.58-.81-7.12-1.51L176,147.07Q178.78,149.39,181.65,151.69Z"/><rect class="cls-21" x="133.44" y="93.79" width="22.39" height="6.99" transform="translate(-5.74 185.44) rotate(-64.31)"/><rect class="cls-22" x="134.15" y="94.59" width="21" height="5.41" rx="1.56" ry="1.56" transform="translate(-5.73 185.46) rotate(-64.31)"/><rect class="cls-21" x="134.71" y="95.06" width="19.8" height="4.43" rx="1.28" ry="1.28" transform="translate(-5.74 185.42) rotate(-64.31)"/><rect class="cls-21" x="141.26" y="53.63" width="7.35" height="87.64" transform="translate(-5.71 185.81) rotate(-64.31)"/><rect class="cls-21" x="170.18" y="99.64" width="7.35" height="23.45" transform="matrix(0.43, -0.9, 0.9, 0.43, -1.87, 219.75)"/><rect class="cls-22" x="170.98" y="100.33" width="5.69" height="21.99" rx="1.64" ry="1.64" transform="translate(-1.86 219.7) rotate(-64.31)"/><rect class="cls-22" x="131.42" y="61.19" width="5.69" height="62.21" rx="1.64" ry="1.64" transform="translate(-7.12 173.27) rotate(-64.31)"/><rect class="cls-22" x="159.62" y="105.99" width="7.35" height="0.57" rx="0.16" ry="0.16" transform="translate(-3.27 207.35) rotate(-64.31)"/><rect class="cls-23" width="400" height="230"/></g></g></svg>