<svg xmlns="http://www.w3.org/2000/svg" xmlns:xlink="http://www.w3.org/1999/xlink" viewBox="0 0 505.03 351.6"><defs><style>.cls-1{fill:#c2da57;}.cls-2{fill:#8eaa1c;}.cls-3{fill:url(#linear-gradient);}.cls-4{fill:url(#linear-gradient-2);}.cls-5{fill:url(#linear-gradient-3);}.cls-6{fill:url(#linear-gradient-4);}.cls-7{fill:#aeba3f;}.cls-8{fill:url(#linear-gradient-5);}.cls-9{fill:#f9a0c0;}.cls-10{fill:#c64a5f;}.cls-11{fill:#dd5f6f;}.cls-12{fill:url(#linear-gradient-6);}.cls-13{fill:#931b5d;}.cls-14{fill:url(#linear-gradient-7);}.cls-15{fill:url(#linear-gradient-8);}.cls-16{fill:url(#linear-gradient-9);}.cls-17{fill:url(#linear-gradient-10);}.cls-18{fill:#cc3a7c;}.cls-19{fill:#b73074;}.cls-20{fill:url(#linear-gradient-11);}.cls-21{fill:url(#linear-gradient-12);}.cls-22{fill:#dd8ed2;}.cls-23{fill:#ff888d;}.cls-24{fill:url(#linear-gradient-13);}.cls-25{fill:#fcaeb4;}.cls-26{fill:url(#linear-gradient-14);}</style><linearGradient id="linear-gradient" x1="74.85" y1="254.43" x2="104.64" y2="293.86" gradientTransform="translate(0.02 -0.03) rotate(0.01)" gradientUnits="userSpaceOnUse"><stop offset="0" stop-color="#efadbb"/><stop offset="1" stop-color="#ef4c7c"/></linearGradient><linearGradient id="linear-gradient-2" x1="91.5" y1="277.39" x2="103.25" y2="300.88" gradientTransform="matrix(0.66, 0.75, -0.75, 0.66, 237.44, 26.12)" gradientUnits="userSpaceOnUse"><stop offset="0" stop-color="#fcdc54"/><stop offset="0.91" stop-color="#ffaf18"/></linearGradient><linearGradient id="linear-gradient-3" x1="474.47" y1="725.18" x2="498.22" y2="756.62" gradientTransform="matrix(0.81, 0.58, -0.58, 0.81, 474.4, -605.26)" xlink:href="#linear-gradient"/><linearGradient id="linear-gradient-4" x1="487.74" y1="743.48" x2="497.11" y2="762.21" gradientTransform="translate(677.38 -573.33) rotate(48.88)" xlink:href="#linear-gradient-2"/><linearGradient id="linear-gradient-5" x1="196.53" y1="106.14" x2="196.53" y2="190.45" gradientTransform="translate(0.02 -0.03) rotate(0.01)" gradientUnits="userSpaceOnUse"><stop offset="0.33" stop-color="#f9a0c0"/><stop offset="1" stop-color="#fff"/></linearGradient><linearGradient id="linear-gradient-6" x1="286.23" y1="70.49" x2="286.23" y2="128.46" xlink:href="#linear-gradient-5"/><linearGradient id="linear-gradient-7" x1="202.92" y1="181.65" x2="185.92" y2="184.57" gradientTransform="translate(0.02 -0.03) rotate(0.01)" gradientUnits="userSpaceOnUse"><stop offset="0" stop-color="#c64a5f"/><stop offset="0.99" stop-color="#82313e"/></linearGradient><linearGradient id="linear-gradient-8" x1="317.34" y1="180.58" x2="330.09" y2="182.44" xlink:href="#linear-gradient-7"/><linearGradient id="linear-gradient-9" x1="258.49" y1="68.7" x2="258.49" y2="192.21" gradientTransform="translate(0.02 -0.03) rotate(0.01)" gradientUnits="userSpaceOnUse"><stop offset="0" stop-color="#ff888d"/><stop offset="1" stop-color="#c64a5f"/></linearGradient><linearGradient id="linear-gradient-10" x1="257.86" y1="75.47" x2="257.86" y2="159.55" gradientTransform="translate(0.02 -0.03) rotate(0.01)" gradientUnits="userSpaceOnUse"><stop offset="0" stop-color="#ffb3b6"/><stop offset="1" stop-color="#ff888d"/></linearGradient><linearGradient id="linear-gradient-11" x1="259.82" y1="219.65" x2="259.82" y2="190.84" gradientTransform="translate(0.02 -0.03) rotate(0.01)" gradientUnits="userSpaceOnUse"><stop offset="0" stop-color="#dd5f6f"/><stop offset="0.99" stop-color="#82313e"/></linearGradient><linearGradient id="linear-gradient-12" x1="263.45" y1="231.83" x2="263.45" y2="200.72" gradientTransform="translate(0.02 -0.03) rotate(0.01)" gradientUnits="userSpaceOnUse"><stop offset="0" stop-color="#ba455f"/><stop offset="0.99" stop-color="#82313e"/></linearGradient><linearGradient id="linear-gradient-13" x1="174.2" y1="155.69" x2="145.53" y2="195.72" gradientTransform="translate(0.02 -0.03) rotate(0.01)" gradientUnits="userSpaceOnUse"><stop offset="0" stop-color="#ff888d"/><stop offset="0.91" stop-color="#dd5f6f"/></linearGradient><linearGradient id="linear-gradient-14" x1="351.31" y1="152.89" x2="372.82" y2="198.89" xlink:href="#linear-gradient-13"/></defs><title>Juego_Unicornio_2b</title><g id="Capa_2" data-name="Capa 2"><g id="Arte"><path class="cls-1" d="M362.53,231.27H151.24C28.19,226.78,1.61,339.72,0,351.53c26.92-.08,61.81-.06,88.74-.06q83,0,166,0h4.76q82.58,0,165.16,0,40.18,0,80.36.1C503.43,339.78,484.94,226.84,362.53,231.27Z"/><path class="cls-2" d="M474.35,310.23a7,7,0,0,1-7.43,1.6,7.5,7.5,0,0,1-4.79-5.93,5.12,5.12,0,0,1,2.16-5.21,4.07,4.07,0,0,1,4.46-.23,4.31,4.31,0,0,1,2.2,3.91,3.28,3.28,0,0,1-2.19,2.84c-1.4.56-2.33.33-3-.73a1.07,1.07,0,0,0-.11-.16,1.25,1.25,0,0,1,.07-1.75,1.24,1.24,0,0,1,1.75.07,2.85,2.85,0,0,1,.26.33l.15-.06c.54-.22.62-.51.64-.72a1.9,1.9,0,0,0-1-1.58,1.62,1.62,0,0,0-1.83.14,2.69,2.69,0,0,0-1.1,2.79,5.05,5.05,0,0,0,3.06,3.93c3.32,1,5-.63,5.8-2.18,1.52-2.92,1.09-7.84-2-10.23-3.55-2.79-7.37-3.38-11-1.72-5.79,2.62-10.49,10.39-10.92,18.06-.18,3.15.3,8.88,5.49,12a1.24,1.24,0,1,1-1.26,2.13c-4.68-2.78-7.05-7.83-6.7-14.23.47-8.53,5.79-17.21,12.37-20.18,3.19-1.44,8.14-2.26,13.6,2,4.06,3.19,4.64,9.46,2.62,13.32A7.83,7.83,0,0,1,474.35,310.23Z"/><path class="cls-3" d="M93.65,262c-1.5-.8-1.45-1.59-3.11-.8A4.84,4.84,0,0,0,88.14,264c-.82,2.43,0,5.5.81,7.76v0a2.61,2.61,0,0,0-.79.61l-.11.14a22.59,22.59,0,0,0-6-3.73c-1-.43-2.45-.89-3.45-.2-1.18.81-.73,2.08-1.26,3.26-.69,1.56-1.48,1.57-.56,3.16a4.84,4.84,0,0,0,2.95,2.18c2.48.64,5.49-.38,7.68-1.38l.56-.26a2.61,2.61,0,0,0,.24.32,22.17,22.17,0,0,0-4.73,5.53c-.57.9-1.24,2.29-.71,3.38.63,1.28,1.95,1,3,1.72,1.44.91,1.33,1.69,3,1A4.84,4.84,0,0,0,91.44,285c1-2.36.44-5.49-.22-7.8-.06-.2-.11-.38-.16-.55a2.61,2.61,0,0,0,.56-.28,22.26,22.26,0,0,0,6,4c1,.47,2.42,1,3.44.31,1.2-.77.8-2.05,1.36-3.22.74-1.53,1.53-1.52.67-3.14a4.84,4.84,0,0,0-2.87-2.28c-2.43-.71-5.42.17-7.63,1.08a2.61,2.61,0,0,0-.3-.54,22.88,22.88,0,0,0,4.07-5.65c.5-.94,1.06-2.38.45-3.42C96.09,262.29,94.79,262.64,93.65,262Z"/><circle class="cls-4" cx="89.95" cy="274.29" r="3.84" transform="translate(-175.82 161.64) rotate(-48.87)"/><path class="cls-5" d="M447.16,274.3c-.6-1.22-.21-1.71-1.65-2a3.86,3.86,0,0,0-2.84.69c-1.66,1.2-2.57,3.56-3.07,5.41v0a2.11,2.11,0,0,0-.79,0l-.13,0a18,18,0,0,0-2.18-5.21c-.43-.73-1.18-1.71-2.15-1.73-1.14,0-1.44,1-2.33,1.53-1.17.69-1.68.33-1.83,1.79a3.86,3.86,0,0,0,.9,2.78c1.31,1.57,3.74,2.3,5.62,2.67l.48.09a2.08,2.08,0,0,0,0,.32,17.69,17.69,0,0,0-5.63,1.39c-.79.32-1.87.91-2,1.87-.19,1.13.79,1.57,1.17,2.53.51,1.26.08,1.72,1.5,2.08a3.86,3.86,0,0,0,2.88-.48c1.74-1.07,2.83-3.35,3.47-5.16l.15-.43a2,2,0,0,0,.5.08,17.74,17.74,0,0,0,2,5.4c.41.75,1.12,1.75,2.09,1.8,1.14.06,1.47-1,2.38-1.46,1.19-.65,1.7-.27,1.89-1.73a3.87,3.87,0,0,0-.81-2.81c-1.24-1.59-3.59-2.4-5.45-2.84a2.1,2.1,0,0,0,.05-.49,18.21,18.21,0,0,0,5.26-1.78c.76-.38,1.79-1,1.88-2C448.63,275.59,447.62,275.22,447.16,274.3Z"/><circle class="cls-6" cx="439.08" cy="280.53" r="3.06" transform="translate(-52.79 108.62) rotate(-13.31)"/><path class="cls-7" d="M186.46,272.81a6.89,6.89,0,0,0-6.53,4.22,5.22,5.22,0,0,0-.28,2.46c-2.83.63-6.1,2.07-7,4.8-.43,1.24-.67,3.7,2.54,6.22,2.36,1.85,5.54,2.17,8.43,2.2a26.37,26.37,0,0,0-3.49,3.88c-2.67,3.58-2.11,6-1.54,7.17a4.5,4.5,0,0,0,4.16,2.4,5.91,5.91,0,0,0,.62,0,8.08,8.08,0,0,0,1,4.82,4.77,4.77,0,0,0,4.18,2.27,9.14,9.14,0,0,0,4.26-1.25c3-1.62,4.63-4.56,5.46-7.79a11.52,11.52,0,0,0,3.35,2.86,10.27,10.27,0,0,0,4.88,1.25c3.11,0,5.6-1.46,6.36-3.71a4.54,4.54,0,0,0,.19-2.05,6.73,6.73,0,0,0,3.7-3,8.55,8.55,0,0,0-2-11.63,11.66,11.66,0,0,0-7.61-2.4c-.92,0-1.81.06-2.67.11s-1.6.1-2.35.1a8.64,8.64,0,0,1-2.76-.37c-1.37-.46-2.41-2.45-3.5-4.56a18.81,18.81,0,0,0-4.25-6,7.91,7.91,0,0,0-5.1-1.9Z"/><path class="cls-7" d="M143,267.38a5.2,5.2,0,0,0-4.42,2.24,4.66,4.66,0,0,0-.28.49,11.89,11.89,0,0,0-2.42-.27c-2.74,0-4,1.15-4.66,2.12s-1.08,2.6.07,5a9.55,9.55,0,0,0,4,4,22,22,0,0,0-2.47,1.06c-4.21,2.12-3.9,4.94-3.71,5.76a4,4,0,0,0,2.1,2.63,5.69,5.69,0,0,0-.54,4.39c.4,1.16,1.63,3.11,5.48,3.11h.31a8.84,8.84,0,0,0,6.07-2.85,8.63,8.63,0,0,0,1.1,2.25,7.89,7.89,0,0,0,6.17,3.47,4.31,4.31,0,0,0,3.78-2,4.11,4.11,0,0,0,.21-.39h.37a6.18,6.18,0,0,0,3.1-.94,7.08,7.08,0,0,0,2.87-9.34c-1.53-3.25-4.3-4.42-6.51-5.35a9.85,9.85,0,0,1-3.19-1.8c-.61-.61-.63-2.27-.65-3.88a14.75,14.75,0,0,0-.88-5.79,6.44,6.44,0,0,0-5.92-4Z"/><path class="cls-2" d="M389.75,298.57c-2.69,3.55,1.34,8.19,4,4.65-.17,2.84,2.35,9.49,5.52,5,2.14-3,.22-9,.88-12.33a14.58,14.58,0,0,0,6.16,7.9c4.16,2.81,5.75-.65,2.55-3.87,3.19,1.36,9,1.35,6-3.75-2.33-3.92-8.92-3.43-12.79-3.27,3.06-.1,7.32-2.24,8.67-5,1.85-3.8-.9-8.62-4.11-3.94.47-2.29.74-3.56-1.42-4.85a4.62,4.62,0,0,0-6.27,1.37c-2.61,3.65-.08,7.49-1.13,11.2C396.95,294.86,391.9,295.72,389.75,298.57Z"/><path class="cls-2" d="M107.18,293.6c-1.65-.21-3.85.48-1.62,2.11-1.17-.45-5.21-.62-4.75,1.67.25,1.25,4.4,1.76,5.42,2.3-2.56-.12-6.46.54-7.66,3a5,5,0,0,0,3.63.6c-2,.62-4.95,3.41-2.26,4.65,2.2,1,6.22-1.74,7.95-2.92-3,2.58-1.43,7.8,1.06,3.66-1.16,1.72-.47,4.25,1.85,2.67.94-.64,2.23-4.39,2.44-5.43.55-2.7-1.14-2.36-1.48-4.05s1.6-3,.89-4.81C112.07,295.59,108.66,293.79,107.18,293.6Z"/><polygon class="cls-8" points="174.36 106 175.15 228.94 218.69 231.86 211.8 105.47 174.36 106"/><path class="cls-9" d="M219.6,87.72l-25.34-2v-.3l-1.87.15-2-.15v.32l-23.46,2s-.53,8.06,4.25,20.81h44C220.26,95.78,219.6,87.72,219.6,87.72Z"/><polygon class="cls-10" points="172.91 87.67 173.57 95.38 177.82 95.24 178.48 88.08 172.91 87.67"/><polygon class="cls-11" points="190.03 87.68 190.69 95.38 194.94 95.25 195.61 88.08 190.03 87.68"/><polygon class="cls-10" points="208.35 87.68 209.02 95.38 213.26 95.25 213.93 88.08 208.35 87.68"/><path class="cls-11" d="M221.37,87.94C206,75.93,196.22,42.39,195,37.87v-.25h-.06l-.07-.26-1.66.13-1.66-.13-.07.26h-.06v.25c-1.27,4.53-11.07,38.05-26.41,50.06,0,0,17.11.74,28.21.54C204.25,88.67,221.37,87.94,221.37,87.94Z"/><circle class="cls-11" cx="193.19" cy="35.54" r="4.48"/><polygon class="cls-12" points="276.59 57.12 276.93 130.51 295.88 132.44 292.88 56.77 276.59 57.12"/><path class="cls-9" d="M296.19,45l-11.12-1.27v-.2l-.75.1-.8-.1v.21L273.33,45a53.71,53.71,0,0,0,1.87,13.71h19.15A46.28,46.28,0,0,0,296.19,45Z"/><path class="cls-11" d="M297,45.18C290.37,37.24,286.51,6.3,286,3.32V3.16h0l0-.17-.72.08L284.45,3l0,.17h0v.16c-.55,3-5.22,33.92-11.9,41.86,0,0,7.45.49,12.28.36C289.6,45.67,297,45.18,297,45.18Z"/><path class="cls-11" d="M280.32,31.26c-2.19.6-5.71-.27-5.71-.27l.13,11.42S281.89,34,280.32,31.26Z"/><path class="cls-11" d="M288.95,31.27c2.32.7,5.71-.26,5.71-.26l-.13,11.42S287.37,34,288.95,31.27Z"/><circle class="cls-11" cx="285.4" cy="2.09" r="2.09"/><path class="cls-11" d="M283.14,54.25V47.79s-2.34-.11-3.14,1-.07,5.52-.07,5.52Z"/><path class="cls-11" d="M285.46,54.25V47.79s2.36-.11,3.18,1,.09,5.52.09,5.52Z"/><path class="cls-11" d="M286.08,70.22q0-.23,0-.47c0-2.67-.6-4.83-1.34-4.83s-1.34,2.16-1.35,4.83c0,.19,0,.37,0,.56C284.3,70.25,285.19,70.23,286.08,70.22Z"/><path class="cls-11" d="M286.28,86.05q0-.23,0-.47c0-2.67-.6-4.83-1.34-4.83s-1.34,2.16-1.34,4.83c0,.19,0,.37,0,.56C284.5,86.08,285.39,86.06,286.28,86.05Z"/><path class="cls-11" d="M286.38,101.68q0-.23,0-.47c0-2.67-.6-4.83-1.34-4.83s-1.34,2.16-1.34,4.83c0,.19,0,.37,0,.56C284.59,101.72,285.48,101.69,286.38,101.68Z"/><path class="cls-13" d="M170,193.75s2.78,40.63,4,41S208.6,230,208.6,230l-2-41.82Z"/><polygon class="cls-14" points="206.61 169.46 174.75 179.02 162.79 198.13 206.6 192.56 206.61 169.46"/><path class="cls-13" d="M343.33,192.18s-2.6,40.62-3.71,41-32.24-4.78-32.24-4.78l1.86-41.82Z"/><polygon class="cls-15" points="309.4 167.88 338.97 177.44 350.12 196.56 309.4 190.98 309.4 167.88"/><polygon class="cls-10" points="206.22 126.5 220.16 126.5 219.57 128.47 207.22 131.47 206.22 126.5"/><path class="cls-10" d="M211.84,136.9c-1.14-2.9-8.09-20.95-8.53-32h-1.94c-.44,10.78-7.37,28.31-8.77,31.75C199,136.69,205.44,136.84,211.84,136.9Z"/><path class="cls-10" d="M323.14,136.8c-1.29-3.17-8.36-21-8.81-31.87h-1.95c-.45,11-7.5,29.14-8.62,32C310.21,136.78,316.68,136.76,323.14,136.8Z"/><polygon class="cls-10" points="309.44 126.51 295.44 126.51 296.04 128.47 308.44 131.47 309.44 126.51"/><path class="cls-16" d="M320.85,136.58l-15.2.31c-6.67-6.16-39-58.15-44.24-66.52q-3.45.06-6.92.08c-5.93,9.68-36.91,60-43.37,66l-15-.31s-1.19,4.62,2.8,5.95c0,0-2.12,6.64,4.51,6.64l1.05,86L254,232.33l58.34,2.86,1.09-86c6.73,0,4.58-6.64,4.58-6.64C322.06,141.2,320.85,136.58,320.85,136.58Z"/><path class="cls-17" d="M305.15,166.9c.27-15.13-6.17-16.15-6.17-16.15V133.66h-6v-8.31h-6v-8.89h-6v-8.31h-5.8V98.88h-6.38V90.57h-6.38V82.65H252.8v7.92h-6.38v8.31h-6v9.27h-6v8.31h-6v8.89h-6v8.31h-5.8v17.09s-6.41,1-6.15,16.15-.05,70.71-.05,70.71h94.78S304.88,182,305.15,166.9Z"/><path class="cls-13" d="M256.47,125.26V109.73s-3.35-.27-4.41,2.39,0,13.28,0,13.28Z"/><path class="cls-18" d="M258.79,125.26V109.73s3.34-.26,4.43,2.39,0,13.28,0,13.28Z"/><path class="cls-13" d="M224.19,189V173.45s-3.34-.27-4.41,2.39,0,13.28,0,13.28Z"/><path class="cls-18" d="M226.51,189V173.45s3.34-.26,4.43,2.39,0,13.28,0,13.28Z"/><path class="cls-18" d="M256.07,189V173.45s-3.35-.27-4.42,2.39,0,13.28,0,13.28Z"/><path class="cls-13" d="M258.39,189V173.45s3.33-.26,4.42,2.39,0,13.28,0,13.28Z"/><path class="cls-18" d="M288,189V173.46s-3.36-.27-4.43,2.39,0,13.28,0,13.28Z"/><path class="cls-13" d="M290.27,189V173.46s3.32-.26,4.41,2.39,0,13.28,0,13.28Z"/><path class="cls-13" d="M219.76,166.69h22.79V163H219.79C219.77,165.15,219.76,166.69,219.76,166.69Z"/><path class="cls-19" d="M232.42,138.93c-7.43-.27-12.5,9.26-12.5,11.12,0,1.27-.08,8.53-.12,13h22.76V150.35S239.85,139.2,232.42,138.93Z"/><path class="cls-13" d="M246.25,166.7h22.58V163H246.27C246.26,165.15,246.25,166.7,246.25,166.7Z"/><path class="cls-19" d="M258.8,138.93c-7.43-.27-12.45,9.26-12.45,11.12,0,1.27-.06,8.53-.08,13h22.56V150.35S266.24,139.2,258.8,138.93Z"/><path class="cls-13" d="M272.77,163c0,2.13,0,3.67,0,3.67h22.76V163Z"/><path class="cls-19" d="M295.5,150.36s-2.68-11.15-10.12-11.42-12.5,9.26-12.5,11.12c0,1.27-.08,8.53-.12,13h22.73Z"/><circle class="cls-13" cx="244.43" cy="137.97" r="3.15"/><circle class="cls-13" cx="271.11" cy="138.77" r="3.15"/><circle class="cls-10" cx="257.56" cy="77.21" r="1.54"/><path class="cls-20" d="M336,212.38c-3.93-.42-8-.83-12.05-1.13l-.66,9.9-7.77.39-1.27-10.94q-5.12-.27-10.33-.43l-.61,9.1-7.77.4-1.13-9.72q-5.2-.08-10.39-.08l-.69,10.33-7.77.4-1.24-10.67q-5.21.06-10.33.19l-.64,9.62-7.77.4-1.13-9.73q-5.31.19-10.42.42l-.66,9.84-7.77.4-1.14-9.76c-3.6.2-7.08.4-10.43.62l-.65,9.67-7.77.4-1.1-9.42c-3.77.27-7.3.55-10.54.81l-.58,8.67-7.77.4-1-8.26c-8,.73-12.71,1.36-12.71,1.36l.34,16,155.31-5Z"/><polygon class="cls-21" points="344.54 286.51 337.64 226.42 182.32 231.44 183.5 286.49 344.54 286.51"/><path class="cls-18" d="M144.39,137.49l3.79.8.2-2.61-3.25-1.45.3-1.57,3.05,2.09.07-1.33s-5.9-5.67-11.68-3.86-2.5,7.71-7.49,7.37-9.17,1.74-11.1,4.35c0,0,5.32-.83,8.38,2.12s12.14,3.07,12.48.12,6.07-2.7,9-1.79l-.07-1.61-3.71-.53Z"/><polygon class="cls-22" points="151.79 181.54 148.74 130.49 147.81 130.42 147.19 181.93 151.79 181.54"/><circle class="cls-22" cx="148.27" cy="129.83" r="1.39"/><path class="cls-23" d="M123,209.31S100,266.19,108,286.48h79.52L184,207.68Z"/><path class="cls-24" d="M184,160.64l-.76,9.25-9-.11.59-9.8c-4.19-.18-8.24-.18-12.14,0l-.05,10-9,.58-.16-10c-3.87.37-7.55.87-11,1.45l.74,10-8.94,1.29-.91-9.45c-3.78.87-7.18,1.8-10.19,2.71L125,177l-8.76,2.19-1.93-9.67c-3.9,1.5-6,2.56-6,2.56l9.55,38.77,72.76-2.38,5.05-46.2C191.65,161.57,187.78,161,184,160.64Z"/><path class="cls-19" d="M140.25,216a1.66,1.66,0,0,0-.56-.18c-4.18-.6-3.39,16.13-3.39,16.13h2.27C137.93,222.33,139.24,218,140.25,216Z"/><path class="cls-13" d="M140.25,216c-1,1.93-2.33,6.28-1.68,15.95h3.51S143.71,217.91,140.25,216Z"/><path class="cls-19" d="M149.58,216.14a1.68,1.68,0,0,0-.72-.28c-4.18-.6-3.39,16.13-3.39,16.13h2.7C147.51,222.91,148.59,218.32,149.58,216.14Z"/><path class="cls-13" d="M149.58,216.15c-1,2.18-2.07,6.77-1.41,15.85h3.08S152.82,218.35,149.58,216.15Z"/><path class="cls-10" d="M115,184.6c-2.48,3.4,2.71,3.38,4.61,3.17,2.53-.28,5.53-.21,7.53-1.89,3.43-2.89-.86-4.84-3.67-4.3C121,182.07,116.67,182.38,115,184.6Z"/><path class="cls-10" d="M122.41,189.47c-.5,1.85,2.56,2.06,3.79,2,1.66-.06,5.44-.67,6.45-2.26,1.57-2.49-2.81-2.09-4.05-1.93C127.07,187.49,122.92,187.56,122.41,189.47Z"/><path class="cls-10" d="M135.89,183.16c3-2.86-4.19-3.58-5.7-2.14C127.11,183.95,133.94,185,135.89,183.16Z"/><path class="cls-10" d="M178.1,199.89c-1.54,2.52,1.72,3,3.42,3,2,.08,6.64,1.28,8.2-.56C193,198.46,180.26,196.36,178.1,199.89Z"/><path class="cls-10" d="M173,197.05c-2.07-.91-.91-2.41.68-2.93a14.62,14.62,0,0,1,7.29-.26c2.46.74,1.65,3.21-.43,3.54S174.83,197.84,173,197.05Z"/><path class="cls-10" d="M169.89,202.65c1.9,1,8-1.3,5.36-3C173.7,198.59,166.41,200.8,169.89,202.65Z"/><path class="cls-25" d="M109.82,265.7c.24,3.57,4.71,2.65,7.31,2.66,2.88,0,6.29.67,7.26-2.39.64-2,2.26-7.42-.22-8.63-1.82-.89-4.85-.2-6.75-.13-1.68.05-5.13,0-6.47,1.27C109.45,259.93,109.69,263.8,109.82,265.7Z"/><path class="cls-25" d="M126.95,263.05c-.36,1.74-1.5,4.46.22,5.3s4.67,0,6.43-.36c1.18-.22,3.23-.17,4.24-.86,2-1.35.93-4.72-1-5.64-2.52-1.22-6.56-.37-9.13.1Z"/><path class="cls-25" d="M118.35,272.87c.53,4.62,5.12,3.59,8.71,3.46,2.74-.1,6.3-1,5-4.65-1-3.07-5.19-1.33-7.55-2S117.92,269.22,118.35,272.87Z"/><path class="cls-25" d="M131.83,257.71c1.24-2.32-4.09-3.64-5-1.85C125.42,258.45,130.44,260.3,131.83,257.71Z"/><path class="cls-25" d="M151,233.42c1.27-.05,6.16,0,2.92,1.76-2.35,1.31-6.88.77-9.48.66-1.69-.07-5.85.48-6.41-1.73C141.62,232.37,147.09,233.57,151,233.42Z"/><path class="cls-25" d="M136.24,233.58c.39,2-4.15,2.18-5,1.16-1.71-2,3.93-1.36,4.64-1.29Z"/><path class="cls-23" d="M251.22,235c-13.64,1.44-19.49,12.19-21.82,23.49,4.17.27,12.41.3,10.1-3.91,0,0,3.33,2.92,1.21,5.58a9,9,0,0,1,4.4,2.12,12.51,12.51,0,0,1-4.4,2.07c2.12,2.66-1.21,5.53-1.21,5.53,2.53-4.62-7.61-4.11-11.18-3.81a94.11,94.11,0,0,0,.59,20.5l27.35.1-3.61-51.78C252.17,234.9,251.7,234.94,251.22,235Z"/><path class="cls-23" d="M285.06,286.77a119.38,119.38,0,0,0-3.77-21.07c-3.11-.3-13.76-1-11.22,3.77,0,0-3.25-2.87-1.18-5.53a12,12,0,0,1-4.28-2.08,8.6,8.6,0,0,1,4.28-2.12c-2.07-2.66,1.18-5.58,1.18-5.58-2.06,3.87,4.54,4.16,8.77,4-4.55-12.09-12.29-23.4-25.36-23.28l4.73,51.81Z"/><path class="cls-25" d="M239.5,269.87s3.34-2.87,1.21-5.53a12.51,12.51,0,0,0,4.4-2.07,9,9,0,0,0-4.4-2.12c2.12-2.65-1.21-5.58-1.21-5.58,2.31,4.21-5.93,4.18-10.1,3.91a65.76,65.76,0,0,0-1.08,7.58C231.88,265.75,242,265.25,239.5,269.87Z"/><path class="cls-25" d="M270.08,254.17s-3.25,2.92-1.18,5.58a8.6,8.6,0,0,0-4.28,2.12,12,12,0,0,0,4.28,2.08c-2.07,2.65,1.18,5.53,1.18,5.53-2.54-4.78,8.11-4.07,11.22-3.77-.69-2.49-1.5-5-2.44-7.56C274.62,258.33,268,258,270.08,254.17Z"/><path class="cls-25" d="M253.49,234.86l-.85,0,3.61,51.78h2Z"/><path class="cls-11" d="M186.89,236.37c3,.17,6.13-.19,9.16-.2,2,0,2.58-.28,3.19,1.59a15.37,15.37,0,0,1,.17,4.35,98.47,98.47,0,0,1-12.09.19c-.56-1.62-.23-3.78-.23-5.54Z"/><path class="cls-11" d="M195.41,244.94c-1.48,3.31,1,4.27,3.63,4.38,1.35.06,2.77.07,4.12,0,2.06-.11,2,.12,2.64-1.59C207.79,242.12,196.82,241.79,195.41,244.94Z"/><path class="cls-11" d="M200.66,241.92c1.3-.14,2.57-.53,3.92-.6.21,0-.78-3.24-1.9-3.42C200.31,237.53,200.81,240.41,200.66,241.92Z"/><path class="cls-11" d="M192.83,258.51a27.75,27.75,0,0,1-.17,5.16c-.27,2.16-.19,2.8-2.38,2.37-2.4-.47-2.61-2.83-2.52-4.86,0-1.18-.1-1.89.81-2.5C188.86,258.49,192.85,258.72,192.83,258.51Z"/><path class="cls-11" d="M196.46,254.51c-.33-2.52-6.34-2.32-6.79.14C189,258.26,196.9,257.85,196.46,254.51Z"/><path class="cls-11" d="M187.69,252.5a2.26,2.26,0,0,0,3-1.19c.48-1.27-.4-4.32-2.28-3.94C186.89,247.67,186.35,251.78,187.69,252.5Z"/><path class="cls-11" d="M323.26,270c-1.94,0-4.34.59-5.13-1s.25-4.29-.18-5.94c2.85-.58,10.28-2,11.89,1.34C332.45,269.83,326.48,270,323.26,270Z"/><path class="cls-11" d="M325.52,272.07c-.13,2.22-.08,3.58.94,4.25a5.71,5.71,0,0,0,3.38.47c.62,0,0-3.27-.33-3.68C328.6,272,326.82,272,325.52,272.07Z"/><path class="cls-11" d="M328.28,279.36c-1.59-.77-5-.66-6.74-.15-.13,3.4.41,3.24,3.73,3.25,4,0,3.21.19,4.2-3.1Z"/><path class="cls-18" d="M367.57,138.72l3.73.8.16-2.61-3.27-1.45.3-1.57,3.05,2.09.07-1.33s-5.9-5.67-11.68-3.86-2.5,7.71-7.49,7.37-9.18,1.74-11.1,4.35c0,0,5.32-.83,8.38,2.12s12.14,3.07,12.48.12,6.07-2.7,9-1.8v-1.61l-3.64-.53Z"/><polygon class="cls-22" points="374.83 182.76 371.78 131.71 370.85 131.65 370.23 183.16 374.83 182.76"/><circle class="cls-22" cx="371.31" cy="131.05" r="1.39"/><path class="cls-23" d="M395.69,209.35s23.5,56.88,15.37,77.17H329.91l3.54-78.81Z"/><path class="cls-26" d="M333.5,160.66l.77,9.25,9.22-.11-.6-9.8c4.27-.17,8.41-.17,12.39,0l.05,10,9.2.58.17-10c3.95.37,7.7.87,11.24,1.45l-.75,10,9.12,1.29.93-9.45c3.85.87,7.33,1.8,10.4,2.71l-1.9,10.5,8.94,2.19,2-9.67c4,1.5,6.16,2.56,6.16,2.56L401,210.91l-74.24-2.4-5.14-46.2C325.69,161.59,329.64,161.05,333.5,160.66Z"/><path class="cls-19" d="M378.12,216.07a1.71,1.71,0,0,1,.57-.18c4.27-.6,3.45,16.13,3.45,16.13h-2.31C380.49,222.36,379.16,218,378.12,216.07Z"/><path class="cls-13" d="M378.12,216.08c1,1.93,2.37,6.29,1.71,15.95h-3.58S374.59,217.94,378.12,216.08Z"/><path class="cls-19" d="M368.61,216.17a1.74,1.74,0,0,1,.73-.28c4.27-.6,3.45,16.13,3.45,16.13H370C370.71,222.94,369.61,218.35,368.61,216.17Z"/><path class="cls-13" d="M368.61,216.17c1,2.18,2.11,6.77,1.43,15.85H366.9S365.29,218.37,368.61,216.17Z"/><path class="cls-10" d="M403.85,184.64c2.53,3.4-2.76,3.38-4.7,3.17-2.58-.28-5.64-.21-7.68-1.89-3.5-2.89.88-4.84,3.75-4.3C397.78,182.1,402.19,182.41,403.85,184.64Z"/><path class="cls-10" d="M396.34,189.5c.51,1.85-2.61,2.06-3.86,2-1.69-.06-5.56-.68-6.58-2.26-1.6-2.49,2.87-2.09,4.13-1.93C391.58,187.52,395.81,187.6,396.34,189.5Z"/><path class="cls-10" d="M382.58,183.19c-3.07-2.86,4.27-3.58,5.81-2.14C391.54,184,384.57,185,382.58,183.19Z"/><path class="cls-10" d="M339.5,199.91c1.57,2.52-1.76,3-3.49,3-2.09.08-6.78,1.28-8.37-.56C324.29,198.48,337.3,196.38,339.5,199.91Z"/><path class="cls-10" d="M344.69,197.07c2.11-.91.93-2.4-.7-2.93a15.21,15.21,0,0,0-7.44-.26c-2.51.74-1.68,3.21.44,3.54S342.84,197.86,344.69,197.07Z"/><path class="cls-10" d="M347.88,202.67c-1.94,1-8.14-1.31-5.47-3C344,198.62,351.43,200.83,347.88,202.67Z"/><path class="cls-25" d="M409.16,265.74c-.24,3.57-4.8,2.65-7.46,2.65-2.94,0-6.42.67-7.41-2.39-.66-2-2.31-7.42.23-8.63,1.86-.89,4.95-.2,6.89-.13,1.72.06,5.23,0,6.6,1.28C409.54,260,409.29,263.84,409.16,265.74Z"/><path class="cls-25" d="M391.69,263.08c.37,1.74,1.53,4.46-.23,5.3s-4.76,0-6.56-.36c-1.2-.22-3.29-.17-4.33-.86-2-1.35-.95-4.72,1-5.64,2.57-1.22,6.69-.37,9.32.1Z"/><path class="cls-25" d="M400.46,272.91c-.55,4.62-5.23,3.59-8.89,3.45-2.79-.1-6.43-1-5.15-4.65,1.07-3.07,5.3-1.33,7.7-2S400.89,269.26,400.46,272.91Z"/><path class="cls-25" d="M386.7,257.74c-1.27-2.32,4.18-3.64,5.15-1.84C393.24,258.49,388.12,260.33,386.7,257.74Z"/><path class="cls-25" d="M367.16,233.45c-1.29-.05-6.28,0-3,1.75,2.39,1.31,7,.77,9.67.67,1.73-.07,6,.48,6.54-1.73C376.72,232.4,371.14,233.6,367.16,233.45Z"/><path class="cls-25" d="M382.21,233.61c-.4,2,4.23,2.18,5.14,1.16,1.75-2-4-1.36-4.74-1.29Z"/><path class="cls-13" d="M284.22,286.46A121,121,0,0,0,280.53,266c-.73-2.64-1.54-5.17-2.42-7.52-5.68-15.17-13.9-22.86-24.42-22.86h-1c-.46,0-.92.06-1.38.1-11.14,1.18-18.25,8.91-21.13,23a65.92,65.92,0,0,0-1.07,7.52,95.05,95.05,0,0,0,.5,19.82l-1.58.22a96.77,96.77,0,0,1-.51-20.17,67.29,67.29,0,0,1,1.09-7.7c1.34-6.56,3.64-11.89,6.83-15.85a22.45,22.45,0,0,1,15.69-8.37c.49-.05,1-.09,1.48-.11l.75,0h.34c11.25,0,20,8,25.9,23.89.9,2.39,1.73,5,2.46,7.65a122.6,122.6,0,0,1,3.75,20.71Z"/></g></g></svg>