<svg xmlns="http://www.w3.org/2000/svg" viewBox="0 0 689.19 327.15"><defs><style>.cls-1{fill:#6b9890;}.cls-2{fill:#96c4bd;}.cls-3{fill:#c9d7db;}.cls-4{fill:#67822b;}.cls-5{fill:#7dc25d;}.cls-6{fill:#9d3b23;}.cls-7{fill:#c24b31;}.cls-8{fill:#7eb2a9;}.cls-9{fill:#f5e8d5;}.cls-10{fill:#d3bc91;}.cls-11{fill:#e7d3b2;}.cls-12{fill:#5d9647;}.cls-13{fill:#92805d;}.cls-14{fill:#e8a330;}.cls-15{fill:#e58a30;}.cls-16{fill:#5a827d;}.cls-17{fill:#c47127;}</style></defs><title>Juego_Auto_3</title><g id="Capa_2" data-name="Capa 2"><g id="Arte"><polygon class="cls-1" points="363.73 253.13 463.39 253.13 410.48 168.25 363.73 253.13"/><polygon class="cls-2" points="400.36 196.57 409.27 192.26 421.88 197.18 423.11 188.5 410.48 168.25 399.52 188.15 400.36 196.57"/><polygon class="cls-2" points="328.06 253.13 414.78 253.13 366.81 185.47 328.06 253.13"/><polygon class="cls-3" points="357.92 220.55 364.69 208.56 376.68 215.33 381.78 206.58 366.81 185.47 352.34 210.73 357.92 220.55"/><path class="cls-4" d="M420.71,291.93c-38.83-56.39-94.29-91.69-155.88-91.69S147.78,235.54,109,291.93Z"/><path class="cls-5" d="M532.89,327.15c-5.92-56.75-79-101.6-168.29-101.6S202.23,270.4,196.31,327.15Z"/><path class="cls-4" d="M240.88,327.15c-30-60-72.85-97.53-120.44-97.53S30,267.17,0,327.15Z"/><path class="cls-4" d="M509.86,327l-57.53-61.94c-11.09-11.94-41.75-11.94-52.84,0L342,327Z"/><path class="cls-5" d="M689.19,327,642.3,257.1c-9-13.48-34-13.48-43.07,0L552.35,327Z"/><path class="cls-5" d="M648.94,327,578.06,218.51c-13.66-20.92-51.43-20.93-65.1,0L442.09,327Z"/><rect class="cls-6" x="636.96" y="98.04" width="3.76" height="38.53"/><polygon class="cls-6" points="662.35 111.01 638.08 111.01 638.08 98.04 662.35 98.04 657.98 104.22 662.35 111.01"/><polygon class="cls-7" points="654.01 172.72 644.02 172.72 633.08 172.72 623.09 172.72 614.53 302.12 633.08 302.12 644.02 302.12 662.57 302.12 654.01 172.72"/><polygon class="cls-6" points="650.97 172.72 649.82 172.72 647.74 172.72 645.83 172.72 644.19 302.12 647.74 302.12 649.82 302.12 660.27 302.12 650.97 172.72"/><rect class="cls-8" x="622.25" y="148.11" width="32.6" height="24.98"/><rect class="cls-2" x="631.76" y="148.11" width="14.52" height="24.98"/><polygon class="cls-6" points="639.28 169.47 637.82 169.47 611.6 169.47 611.6 173.13 626.96 177.1 637.82 177.1 639.28 177.1 650.14 177.1 665.51 173.13 665.51 169.47 639.28 169.47"/><polygon class="cls-9" points="654.8 184.62 622.3 184.62 621.58 195.56 655.52 195.56 654.8 184.62"/><polygon class="cls-9" points="656.36 208.28 620.74 208.28 620.01 219.23 657.09 219.23 656.36 208.28"/><polygon class="cls-9" points="657.93 231.95 619.17 231.95 618.45 242.89 658.66 242.89 657.93 231.95"/><polygon class="cls-9" points="659.5 255.62 617.6 255.62 616.88 266.56 660.22 266.56 659.5 255.62"/><polygon class="cls-9" points="661.07 279.29 616.04 279.29 615.31 290.23 661.79 290.23 661.07 279.29"/><path class="cls-6" d="M645.28,189.69a6.49,6.49,0,0,0-13,0h0v14.44h13V189.69Z"/><path class="cls-8" d="M643.17,191.54c0-2.76-2-5-4.37-5s-4.37,2.24-4.38,5h0V202.7h8.75V191.54Z"/><path class="cls-1" d="M638.8,186.55A4.3,4.3,0,0,0,635,189a3.77,3.77,0,0,1,1.11-.17c2.41,0,4.37,2.24,4.38,5v8.84h2.66V191.54C643.16,188.78,641.21,186.55,638.8,186.55Z"/><rect class="cls-8" x="631.67" y="201.7" width="14.26" height="3.38"/><path class="cls-6" d="M645.28,223.45a6.49,6.49,0,0,0-13,0h0v14.44h13V223.45Z"/><path class="cls-8" d="M643.17,225.3c0-2.76-2-5-4.37-5s-4.37,2.24-4.38,5h0v11.16h8.75V225.3Z"/><path class="cls-1" d="M638.8,220.31a4.31,4.31,0,0,0-3.78,2.48,3.82,3.82,0,0,1,1.11-.17c2.41,0,4.37,2.24,4.38,5v8.84h2.66V225.3C643.16,222.54,641.21,220.31,638.8,220.31Z"/><rect class="cls-8" x="631.67" y="235.46" width="14.26" height="3.38"/><polygon class="cls-1" points="622.71 151.37 654.85 150.82 654.85 157.25 622.71 151.37"/><polygon class="cls-8" points="631.76 153.03 646.29 155.68 646.29 150.97 631.76 151.22 631.76 153.03"/><path class="cls-7" d="M660.38,143.47a22.12,22.12,0,0,0-43.66,0Z"/><rect class="cls-6" x="616.72" y="143.11" width="43.66" height="8.56"/><polygon class="cls-10" points="651.82 184.62 645.68 184.62 645.54 195.56 652.61 195.56 651.82 184.62"/><polygon class="cls-10" points="653.52 208.28 645.38 208.28 645.24 219.23 654.31 219.23 653.52 208.28"/><polygon class="cls-10" points="655.23 231.95 645.08 231.95 644.94 242.89 656.01 242.89 655.23 231.95"/><polygon class="cls-10" points="656.93 255.62 644.78 255.62 644.64 266.56 657.71 266.56 656.93 255.62"/><polygon class="cls-10" points="658.63 279.29 644.48 279.29 644.34 290.23 659.42 290.23 658.63 279.29"/><path class="cls-10" d="M654.1,268.06a15.3,15.3,0,0,0-30.59,0h0v34.05h30.6V268.06Z"/><path class="cls-8" d="M651.49,269.69c0-7.61-5.62-13.77-12.52-13.77s-12.5,6.16-12.52,13.77h0v30.72h25V269.69Z"/><path class="cls-1" d="M651.49,269.69c0-7.61-5.62-13.77-12.52-13.77A12.24,12.24,0,0,0,628.59,262a11.64,11.64,0,0,1,6.85-2.25c6.9,0,12.5,6.16,12.52,13.77h0v26.9h3.53V269.69Z"/><rect class="cls-6" x="610.43" y="299.26" width="56.13" height="9.04"/><rect class="cls-2" x="79.14" y="79.76" width="93.3" height="179.73"/><polygon class="cls-1" points="172.44 80.83 79.14 80.83 83.56 43.75 168.03 43.75 172.44 80.83"/><rect class="cls-1" x="88" y="92.37" width="10.48" height="24.14"/><rect class="cls-1" x="103.85" y="92.37" width="10.48" height="24.14"/><rect class="cls-1" x="119.69" y="92.37" width="10.48" height="24.14"/><rect class="cls-1" x="135.54" y="92.37" width="10.48" height="24.14"/><rect class="cls-1" x="151.38" y="92.37" width="10.48" height="24.14"/><rect class="cls-1" x="88" y="123.18" width="10.48" height="24.13"/><rect class="cls-1" x="103.85" y="123.18" width="10.48" height="24.13"/><rect class="cls-1" x="119.69" y="123.18" width="10.48" height="24.13"/><rect class="cls-1" x="135.54" y="123.18" width="10.48" height="24.13"/><rect class="cls-1" x="151.38" y="123.18" width="10.48" height="24.13"/><rect class="cls-1" x="88" y="153.99" width="10.48" height="24.13"/><rect class="cls-1" x="103.85" y="153.99" width="10.48" height="24.13"/><rect class="cls-1" x="119.69" y="153.99" width="10.48" height="24.13"/><rect class="cls-1" x="135.54" y="153.99" width="10.48" height="24.13"/><rect class="cls-1" x="151.38" y="153.99" width="10.48" height="24.13"/><rect class="cls-1" x="88" y="184.8" width="10.48" height="24.13"/><rect class="cls-1" x="103.85" y="184.8" width="10.48" height="24.13"/><rect class="cls-1" x="119.69" y="184.8" width="10.48" height="24.13"/><rect class="cls-1" x="135.54" y="184.8" width="10.48" height="24.13"/><rect class="cls-1" x="151.38" y="184.8" width="10.48" height="24.13"/><rect class="cls-1" x="88" y="215.61" width="10.48" height="24.13"/><rect class="cls-1" x="119.69" y="215.61" width="10.48" height="24.13"/><rect class="cls-1" x="151.38" y="215.61" width="10.48" height="24.13"/><rect class="cls-1" x="102.58" y="212.25" width="45.69" height="47.24"/><rect class="cls-9" x="106.56" y="215.17" width="37.37" height="44.32"/><polygon class="cls-11" points="143.93 259.25 140.8 217.23 108.65 215.17 143.93 215.17 143.93 259.25"/><polygon class="cls-12" points="50.03 276.87 95.82 276.87 73.2 218.39 50.03 276.87"/><polygon class="cls-5" points="53.16 261.28 92.69 261.28 73.16 210.81 53.16 261.28"/><polygon class="cls-12" points="58.47 241.23 87.38 241.23 73.1 204.31 58.47 241.23"/><polygon class="cls-13" points="77.16 242.63 76.08 242.55 74.42 255.44 73.13 227.46 71.84 227.55 70.57 297.93 73.63 297.93 75.53 297.93 78.59 297.93 77.5 255.72 77.16 242.63"/><polygon class="cls-12" points="133.39 284.53 179.19 284.53 156.57 226.04 133.39 284.53"/><polygon class="cls-5" points="136.53 268.94 176.05 268.94 156.53 218.46 136.53 268.94"/><polygon class="cls-12" points="141.84 248.88 170.74 248.88 156.47 211.97 141.84 248.88"/><polygon class="cls-13" points="160.53 250.29 159.44 250.21 157.79 263.09 156.5 235.12 155.21 235.21 153.94 305.58 157 305.58 158.9 305.58 161.96 305.58 160.87 263.37 160.53 250.29"/><path class="cls-5" d="M123.33,271.44c0-18.4-4.64-20.74-18.26-44.63h0C91.45,250.71,86.81,253,86.81,271.44s7.8,24.58,18.26,26.67h0C115.53,296,123.33,289.84,123.33,271.44Z"/><polygon class="cls-13" points="104.4 253.12 105.72 253.22 108.88 324.67 105.75 324.67 103.8 324.67 100.66 324.67 104.4 253.12"/><polygon class="cls-13" points="98.56 259.48 104.83 268.55 114 258.14 115.01 258.58 105.27 275.59 97.44 260.6 98.56 259.48"/><polygon class="cls-13" points="95.51 268.07 104.71 283.43 117.09 266.19 118.5 266.82 104.89 290.59 93.95 269.63 95.51 268.07"/><rect class="cls-8" x="187.36" y="99.45" width="109.04" height="121.08"/><polygon class="cls-1" points="296.4 100.18 187.36 100.18 192.52 74.72 291.24 74.72 296.4 100.18"/><rect class="cls-8" x="202.16" y="18.01" width="79.43" height="77.94"/><polygon class="cls-1" points="281.59 18.55 202.16 18.55 205.92 0 277.84 0 281.59 18.55"/><rect class="cls-1" x="205.07" y="23.17" width="13.09" height="16.38"/><rect class="cls-1" x="220.2" y="23.17" width="13.09" height="16.38"/><rect class="cls-1" x="235.33" y="23.17" width="13.09" height="16.38"/><rect class="cls-1" x="250.46" y="23.17" width="13.09" height="16.38"/><rect class="cls-1" x="265.59" y="23.17" width="13.09" height="16.38"/><rect class="cls-1" x="205.07" y="41.58" width="13.09" height="16.38"/><rect class="cls-1" x="220.2" y="41.58" width="13.09" height="16.38"/><rect class="cls-1" x="235.33" y="41.58" width="13.09" height="16.38"/><rect class="cls-1" x="250.46" y="41.58" width="13.09" height="16.38"/><rect class="cls-1" x="265.59" y="41.58" width="13.09" height="16.38"/><rect class="cls-1" x="205.07" y="60" width="13.09" height="16.38"/><rect class="cls-1" x="220.2" y="60" width="13.09" height="16.38"/><rect class="cls-1" x="235.33" y="60" width="13.09" height="16.38"/><rect class="cls-1" x="250.46" y="60" width="13.09" height="16.38"/><rect class="cls-1" x="265.59" y="60" width="13.09" height="16.38"/><rect class="cls-1" x="205.07" y="78.41" width="13.09" height="16.38"/><rect class="cls-1" x="220.2" y="78.41" width="13.09" height="16.38"/><rect class="cls-1" x="235.33" y="78.41" width="13.09" height="16.38"/><rect class="cls-1" x="250.46" y="78.41" width="13.09" height="16.38"/><rect class="cls-1" x="265.59" y="78.41" width="13.09" height="16.38"/><rect class="cls-9" x="205.07" y="21.76" width="13.09" height="16.38"/><rect class="cls-9" x="220.2" y="21.76" width="13.09" height="16.38"/><rect class="cls-9" x="235.33" y="21.76" width="13.09" height="16.38"/><rect class="cls-9" x="250.46" y="21.76" width="13.09" height="16.38"/><rect class="cls-9" x="265.59" y="21.76" width="13.09" height="16.38"/><rect class="cls-9" x="205.07" y="40.18" width="13.09" height="16.38"/><rect class="cls-9" x="220.2" y="40.18" width="13.09" height="16.38"/><rect class="cls-9" x="235.33" y="40.18" width="13.09" height="16.38"/><rect class="cls-9" x="250.46" y="40.18" width="13.09" height="16.38"/><rect class="cls-9" x="265.59" y="40.18" width="13.09" height="16.38"/><rect class="cls-9" x="205.07" y="58.59" width="13.09" height="16.38"/><rect class="cls-9" x="220.2" y="58.59" width="13.09" height="16.38"/><rect class="cls-9" x="235.33" y="58.59" width="13.09" height="16.38"/><rect class="cls-9" x="250.46" y="58.59" width="13.09" height="16.38"/><rect class="cls-9" x="265.59" y="58.59" width="13.09" height="16.38"/><rect class="cls-9" x="205.07" y="77" width="13.09" height="16.38"/><rect class="cls-9" x="220.2" y="77" width="13.09" height="16.38"/><rect class="cls-9" x="235.33" y="77" width="13.09" height="16.38"/><rect class="cls-9" x="250.46" y="77" width="13.09" height="16.38"/><rect class="cls-9" x="265.59" y="77" width="13.09" height="16.38"/><rect class="cls-1" x="190.25" y="104.93" width="13.09" height="16.38"/><rect class="cls-1" x="205.28" y="104.93" width="13.09" height="16.38"/><rect class="cls-1" x="220.31" y="104.93" width="13.09" height="16.38"/><rect class="cls-1" x="235.33" y="104.93" width="13.09" height="16.38"/><rect class="cls-1" x="250.36" y="104.93" width="13.09" height="16.38"/><rect class="cls-1" x="265.39" y="104.93" width="13.09" height="16.38"/><rect class="cls-1" x="280.42" y="104.93" width="13.09" height="16.38"/><rect class="cls-1" x="190.25" y="124.34" width="13.09" height="16.38"/><rect class="cls-1" x="205.28" y="124.34" width="13.09" height="16.38"/><rect class="cls-1" x="220.31" y="124.34" width="13.09" height="16.38"/><rect class="cls-1" x="235.33" y="124.34" width="13.09" height="16.38"/><rect class="cls-1" x="250.36" y="124.34" width="13.09" height="16.38"/><rect class="cls-1" x="265.39" y="124.34" width="13.09" height="16.38"/><rect class="cls-1" x="280.42" y="124.34" width="13.09" height="16.38"/><rect class="cls-1" x="190.25" y="143.77" width="13.09" height="16.38"/><rect class="cls-1" x="205.28" y="143.77" width="13.09" height="16.38"/><rect class="cls-1" x="220.31" y="143.77" width="13.09" height="16.38"/><rect class="cls-1" x="235.33" y="143.77" width="13.09" height="16.38"/><rect class="cls-1" x="250.36" y="143.77" width="13.09" height="16.38"/><rect class="cls-1" x="265.39" y="143.77" width="13.09" height="16.38"/><rect class="cls-1" x="280.42" y="143.77" width="13.09" height="16.38"/><rect class="cls-1" x="190.25" y="163.18" width="13.09" height="16.38"/><rect class="cls-1" x="205.28" y="163.18" width="13.09" height="16.38"/><rect class="cls-1" x="220.31" y="163.18" width="13.09" height="16.38"/><rect class="cls-1" x="235.33" y="163.18" width="13.09" height="16.38"/><rect class="cls-1" x="250.36" y="163.18" width="13.09" height="16.38"/><rect class="cls-1" x="265.39" y="163.18" width="13.09" height="16.38"/><rect class="cls-1" x="280.42" y="163.18" width="13.09" height="16.38"/><rect class="cls-1" x="190.25" y="182.61" width="13.09" height="16.38"/><rect class="cls-1" x="205.28" y="182.61" width="13.09" height="16.38"/><rect class="cls-1" x="220.31" y="182.61" width="13.09" height="16.38"/><rect class="cls-1" x="235.33" y="182.61" width="13.09" height="16.38"/><rect class="cls-1" x="250.36" y="182.61" width="13.09" height="16.38"/><rect class="cls-1" x="265.39" y="182.61" width="13.09" height="16.38"/><rect class="cls-1" x="280.42" y="182.61" width="13.09" height="16.38"/><rect class="cls-1" x="190.25" y="201.1" width="13.09" height="16.38"/><rect class="cls-1" x="205.28" y="201.1" width="13.09" height="16.38"/><rect class="cls-1" x="220.31" y="201.1" width="13.09" height="16.38"/><rect class="cls-1" x="235.33" y="201.1" width="13.09" height="16.38"/><rect class="cls-1" x="250.36" y="201.1" width="13.09" height="16.38"/><rect class="cls-1" x="265.39" y="201.1" width="13.09" height="16.38"/><rect class="cls-1" x="280.42" y="201.1" width="13.09" height="16.38"/><rect class="cls-9" x="190.25" y="103.45" width="13.09" height="16.38"/><rect class="cls-9" x="205.28" y="103.45" width="13.09" height="16.38"/><rect class="cls-9" x="220.31" y="103.45" width="13.09" height="16.38"/><rect class="cls-9" x="235.33" y="103.45" width="13.09" height="16.38"/><rect class="cls-9" x="250.36" y="103.45" width="13.09" height="16.38"/><rect class="cls-9" x="265.39" y="103.45" width="13.09" height="16.38"/><rect class="cls-9" x="280.42" y="103.45" width="13.09" height="16.38"/><rect class="cls-9" x="190.25" y="122.87" width="13.09" height="16.38"/><rect class="cls-9" x="205.28" y="122.87" width="13.09" height="16.38"/><rect class="cls-9" x="220.31" y="122.87" width="13.09" height="16.38"/><rect class="cls-9" x="235.33" y="122.87" width="13.09" height="16.38"/><rect class="cls-9" x="250.36" y="122.87" width="13.09" height="16.38"/><rect class="cls-9" x="265.39" y="122.87" width="13.09" height="16.38"/><rect class="cls-9" x="280.42" y="122.87" width="13.09" height="16.38"/><rect class="cls-9" x="190.25" y="142.29" width="13.09" height="16.38"/><rect class="cls-9" x="205.28" y="142.29" width="13.09" height="16.38"/><rect class="cls-9" x="220.31" y="142.29" width="13.09" height="16.38"/><rect class="cls-9" x="235.33" y="142.29" width="13.09" height="16.38"/><rect class="cls-9" x="250.36" y="142.29" width="13.09" height="16.38"/><rect class="cls-9" x="265.39" y="142.29" width="13.09" height="16.38"/><rect class="cls-9" x="280.42" y="142.29" width="13.09" height="16.38"/><rect class="cls-9" x="190.25" y="161.71" width="13.09" height="16.38"/><rect class="cls-9" x="205.28" y="161.71" width="13.09" height="16.38"/><rect class="cls-9" x="220.31" y="161.71" width="13.09" height="16.38"/><rect class="cls-9" x="235.33" y="161.71" width="13.09" height="16.38"/><rect class="cls-9" x="250.36" y="161.71" width="13.09" height="16.38"/><rect class="cls-9" x="265.39" y="161.71" width="13.09" height="16.38"/><rect class="cls-9" x="280.42" y="161.71" width="13.09" height="16.38"/><rect class="cls-9" x="190.25" y="181.13" width="13.09" height="16.38"/><rect class="cls-9" x="205.28" y="181.13" width="13.09" height="16.38"/><rect class="cls-9" x="220.31" y="181.13" width="13.09" height="16.38"/><rect class="cls-9" x="235.33" y="181.13" width="13.09" height="16.38"/><rect class="cls-9" x="250.36" y="181.13" width="13.09" height="16.38"/><rect class="cls-9" x="265.39" y="181.13" width="13.09" height="16.38"/><rect class="cls-9" x="280.42" y="181.13" width="13.09" height="16.38"/><rect class="cls-9" x="190.25" y="199.62" width="13.09" height="16.38"/><rect class="cls-9" x="205.28" y="199.62" width="13.09" height="16.38"/><rect class="cls-9" x="220.31" y="199.62" width="13.09" height="16.38"/><rect class="cls-9" x="235.33" y="199.62" width="13.09" height="16.38"/><rect class="cls-9" x="250.36" y="199.62" width="13.09" height="16.38"/><rect class="cls-9" x="265.39" y="199.62" width="13.09" height="16.38"/><rect class="cls-9" x="280.42" y="199.62" width="13.09" height="16.38"/><rect class="cls-1" x="256.24" y="164.13" width="12.62" height="56.39"/><rect class="cls-1" x="183.62" y="220.11" width="116.6" height="5.91"/><rect class="cls-8" x="219.53" y="175.41" width="45.51" height="54.25"/><rect class="cls-14" x="209.71" y="175.1" width="65.15" height="8.39"/><polygon class="cls-15" points="274.86 175.54 209.71 175.54 212.79 160.33 271.78 160.33 274.86 175.54"/><polygon class="cls-16" points="265.04 186.61 265.04 183.54 219.5 183.54 265.04 186.61"/><rect class="cls-9" x="225.96" y="186.74" width="32.65" height="42.92"/><rect class="cls-15" x="228.8" y="189.39" width="26.71" height="40.27"/><polygon class="cls-17" points="255.51 229.45 253.28 191.26 230.3 189.39 255.51 189.39 255.51 229.45"/></g></g></svg>