<svg id="Capa_1" data-name="Capa 1" xmlns="http://www.w3.org/2000/svg" viewBox="0 0 304 304"><defs><style>.cls-1{fill:none;}.cls-2{fill:#005697;}</style></defs><title>Ico_Menu_Misterio_on</title><path class="cls-1" d="M139,196.54h0c3.41-1.89,6.94-3.84,10.56-5.81h0l2.73-9.15a.14.14,0,0,0-.2-.17c-8.91,4.8-17.74,9.7-26.56,14.65a.14.14,0,0,0,.07.26Z"/><path class="cls-1" d="M140.42,206.6a25.79,25.79,0,0,1-2.56-2.1,36.82,36.82,0,0,1-3.76-4.13h0l-8.46-.14a.14.14,0,0,0-.12.22,53.26,53.26,0,0,0,7.59,9.17c.7.65,1.43,1.28,2.18,1.87a.22.22,0,0,0,.29,0l4.84-4.87Z"/><path class="cls-1" d="M148.61,209.15h0a7.1,7.1,0,0,1-4.15-.36l-.49-.19h0l-5,5a.22.22,0,0,0,0,.34c4.13,2.27,8.69,3.2,13,1.38h0a.22.22,0,0,0,.1-.31Z"/><path class="cls-1" d="M150.45,192.31c-4,2.17-8.2,4.5-12.76,7a1.31,1.31,0,0,0-.33,2c.59.64,1.17,1.24,1.76,1.78a18.11,18.11,0,0,0,6,3.9,4.84,4.84,0,0,0,3.6.14,5.28,5.28,0,0,0,1.16-.69,9.78,9.78,0,0,0,3.7-6.67A15.06,15.06,0,0,0,152.3,193h0A1.31,1.31,0,0,0,150.45,192.31Z"/><path class="cls-1" d="M154.79,202.57h0a11.83,11.83,0,0,1-.84,1.88,11.69,11.69,0,0,1-2,2.64h0l3.54,5.87a.22.22,0,0,0,.32.05,18.64,18.64,0,0,0,6.46-12,.22.22,0,0,0-.27-.24Z"/><path class="cls-1" d="M144.38,167.91a30.56,30.56,0,0,0-23.84,49.32L91.16,246.66l5.49,5.48L126,222.69a30.56,30.56,0,1,0,18.34-54.79Zm.49,53.36a22.8,22.8,0,1,1,22.6-23A22.8,22.8,0,0,1,144.87,221.27Z"/><path class="cls-1" d="M156.23,182l-2.73,9.13h0q.27.61.5,1.22a18.74,18.74,0,0,1,1.38,6h0l6.48-1.59a.22.22,0,0,0,.16-.25c-1-5.2-3.86-11.34-5.54-14.59A.14.14,0,0,0,156.23,182Z"/><path class="cls-2" d="M144.45,175.66a22.8,22.8,0,1,0,23,22.6A22.8,22.8,0,0,0,144.45,175.66ZM152.3,193a15.06,15.06,0,0,1,1.23,6.85,9.78,9.78,0,0,1-3.7,6.67,5.28,5.28,0,0,1-1.16.69,4.84,4.84,0,0,1-3.6-.14,18.11,18.11,0,0,1-6-3.9c-.59-.55-1.17-1.14-1.76-1.78a1.31,1.31,0,0,1,.33-2c4.57-2.54,8.79-4.87,12.76-7a1.31,1.31,0,0,1,1.85.67Zm-26.79,3.05c8.82-4.95,17.65-9.84,26.56-14.65a.14.14,0,0,1,.2.17l-2.73,9.15h0c-3.62,2-7.15,3.92-10.56,5.81h0l-13.4-.22A.14.14,0,0,1,125.51,196.05Zm9.79,15.44c-.75-.59-1.48-1.21-2.18-1.87a53.26,53.26,0,0,1-7.59-9.17.14.14,0,0,1,.12-.22l8.46.14h0a36.82,36.82,0,0,0,3.76,4.13,25.79,25.79,0,0,0,2.56,2.1h0l-4.84,4.87A.22.22,0,0,1,135.29,211.49Zm16.77,3.85h0c-4.36,1.82-8.92.89-13-1.38a.22.22,0,0,1,0-.34l5-5h0l.49.19a7.1,7.1,0,0,0,4.15.36h0l3.55,5.89A.22.22,0,0,1,152.06,215.34ZM162.27,201a18.64,18.64,0,0,1-6.46,12,.22.22,0,0,1-.32-.05l-3.54-5.87h0a11.69,11.69,0,0,0,2-2.64,11.83,11.83,0,0,0,.84-1.88h0L162,200.8A.22.22,0,0,1,162.27,201Zm-.39-4.24-6.48,1.59h0a18.74,18.74,0,0,0-1.38-6q-.24-.61-.5-1.22h0l2.73-9.13a.14.14,0,0,1,.26,0c1.67,3.25,4.58,9.39,5.54,14.59A.22.22,0,0,1,161.87,196.79Z"/><path class="cls-1" d="M95.67,154.2a53.74,53.74,0,0,0,4.63,8.39.28.28,0,0,0,.43,0l4.16-4.51a.28.28,0,0,0,0-.33,46.85,46.85,0,0,1-2.45-4.39q-.82-1.66-1.53-3.43a.28.28,0,0,0-.43-.11l-4.75,4A.28.28,0,0,0,95.67,154.2Z"/><path class="cls-1" d="M119.68,121.92l-3.23,2.64-4.83.51-3.76,3.08-4.83.51-2.66,2.18q.17,1.87.44,3.69l3.48-2.85,4.83-.51,3.76-3.08,4.83-.51,3.76-3.08.25,0q-.51-.68-1-1.35T119.68,121.92Z"/><path class="cls-1" d="M129.87,130.15q.35.67.69,1.35a60.73,60.73,0,0,1,3.38,8.34.28.28,0,0,0,.25.19l6.29.25a.28.28,0,0,0,.28-.35,67.17,67.17,0,0,0-4.13-10.8.28.28,0,0,0-.28-.15l-6.28.77A.28.28,0,0,0,129.87,130.15Z"/><path class="cls-1" d="M113.25,160.36l7.08-8.54a4.87,4.87,0,0,1,2.6-1.62l8.13-2,.15-.05a1,1,0,0,0,.62-1.16q-.26-1.27-.58-2.54-.17-.68-.36-1.36l-1.58.17-3.76,3.08-4.83.51L117,149.94l-4.83.51-3.76,3.08-1.38.15a38,38,0,0,0,4.7,6.71h0a1,1,0,0,0,1.57,0Z"/><path class="cls-1" d="M114.84,174.7h0l12.25-14.79a.28.28,0,0,1,.15-.09l14.86-3.62h0l.16,0-7-4.88a.28.28,0,0,0-.22,0l-9.39,2.29-2,.49a.27.27,0,0,0-.15.09l-1.32,1.59L113.6,166a.28.28,0,0,0-.06.2l.83,8.33A.28.28,0,0,0,114.84,174.7Z"/><path class="cls-1" d="M112.35,174.54a.28.28,0,0,0,.43-.26l-.8-8.06a.28.28,0,0,0-.09-.18,35.63,35.63,0,0,1-3.11-3.11,39.35,39.35,0,0,1-2.67-3.38.28.28,0,0,0-.43,0L101.57,164a.28.28,0,0,0,0,.35A41.79,41.79,0,0,0,112.35,174.54Z"/><path class="cls-1" d="M123.85,130.2l-3.76,3.08-4.83.51-3.76,3.08-4.83.51-3.76,3.08-.93.1q.38,1.56.83,3.06l1.36-.14,3.76-3.08,4.83-.51,3.76-3.08,4.83-.51,3.76-3.08L127,133q-.76-1.52-1.6-3Z"/><path class="cls-1" d="M122,125.84l-3.76,3.08-4.83.51-3.76,3.08-4.83.51-3.76,3.08h0q.27,1.56.6,3.08l.69-.07,3.76-3.08,4.83-.51,3.76-3.08,4.83-.51,3.76-3.08,1.31-.14q-.92-1.51-1.94-2.94Z"/><path class="cls-1" d="M100.28,123.25l.37-.3,4.83-.51,3.76-3.08,4.83-.51,1.53-1.25q-1.16-1.09-2.38-2.1l-.41.34-4.83.51-3.76,3.08-3.43.36A28.58,28.58,0,0,0,100.28,123.25Z"/><path class="cls-1" d="M134.59,142q.22.78.42,1.56a58.84,58.84,0,0,1,1.26,6.48.27.27,0,0,0,.12.19l6.84,4.74a1.41,1.41,0,0,0,0-.14,64.64,64.64,0,0,0-1.88-12.72.28.28,0,0,0-.26-.21l-6.22-.25A.28.28,0,0,0,134.59,142Z"/><path class="cls-1" d="M112,114.53c-2.42-1.88-3.23-2-3.47-2a12.91,12.91,0,0,0-3.51.93,8.15,8.15,0,0,0-2.48,1.47,1,1,0,0,0-.22.3,19.16,19.16,0,0,0-1.18,3.14l2.51-.26,3.76-3.08Z"/><path class="cls-1" d="M118.9,142.5l-3.76,3.08-4.83.51-3.76,3.08-1.68.18q.51,1.19,1.07,2.34l.33.66,1.53-.16,3.76-3.08,4.83-.51,3.76-3.08L125,145l3.76-3.08,1.74-.18q-.47-1.53-1-3l-2,.21L123.73,142Z"/><path class="cls-1" d="M125.67,134.56l-3.76,3.08-4.83.51-3.76,3.08-4.83.51-3.76,3.08-1.5.16q.51,1.55,1.09,3l1.67-.17,3.76-3.08,4.83-.51,3.76-3.08,4.83-.51,3.76-3.08,2-.21q-.61-1.52-1.31-3Z"/><path class="cls-1" d="M100.24,129.14l2.23-1.83,4.83-.51,3.76-3.08,4.83-.51,2.87-2.35q-1-1.17-2.16-2.28l-2,1.62-4.83.51L106,123.79l-4.83.51-1,.85C100.12,126.58,100.16,127.93,100.24,129.14Z"/><path class="cls-1" d="M125.36,122.89a59.82,59.82,0,0,1,3.42,5.28.28.28,0,0,0,.27.14l6.36-.78a.28.28,0,0,0,.21-.4,66.36,66.36,0,0,0-5.71-9,.28.28,0,0,0-.42,0l-4.12,4.44A.28.28,0,0,0,125.36,122.89Z"/><path class="cls-1" d="M95.24,152.27l4.81-4.08a.27.27,0,0,0,.08-.3,66.16,66.16,0,0,1-3.25-13.42.28.28,0,0,0-.28-.24l-6,.24a.28.28,0,0,0-.26.31,71.71,71.71,0,0,0,4.43,17.38A.28.28,0,0,0,95.24,152.27Z"/><path class="cls-1" d="M144.38,167.91a30.56,30.56,0,0,0-23.84,49.32L91.16,246.66l5.49,5.48L126,222.69a30.56,30.56,0,1,0,18.34-54.79Z"/><path class="cls-1" d="M96.38,132.69a.28.28,0,0,0,.26-.31q-.14-1.33-.24-2.68a39.39,39.39,0,0,1,.52-10.21.28.28,0,0,0-.17-.31l-5.59-2.3a.28.28,0,0,0-.37.19,44.55,44.55,0,0,0-.87,13.1q.09,1.25.22,2.51a.28.28,0,0,0,.29.25Z"/><path class="cls-1" d="M91.49,115.34,97,117.62a.28.28,0,0,0,.37-.18,22.81,22.81,0,0,1,1.6-4.21c.45-.9,1.88-2.25,4.55-3.36a16.74,16.74,0,0,1,4.64-1.21c1.55-.15,3.13.51,5.62,2.37a.28.28,0,0,0,.44-.24l-.43-7.24a.28.28,0,0,0-.16-.23,11.59,11.59,0,0,0-6.1-1.14,23.11,23.11,0,0,0-6.53,1.68c-3.33,1.39-6.41,3.57-7.85,6.44A28.86,28.86,0,0,0,91.33,115,.28.28,0,0,0,91.49,115.34Z"/><path class="cls-1" d="M116,112.78a56.53,56.53,0,0,1,7.7,7.93l.39.49a.28.28,0,0,0,.42,0l4.09-4.42a.28.28,0,0,0,0-.36,62.63,62.63,0,0,0-9.86-9.81,35.3,35.3,0,0,0-2.88-2.09.28.28,0,0,0-.42.25l.46,7.79A.28.28,0,0,0,116,112.78Z"/><path class="cls-2" d="M152-.06a152,152,0,1,0,152,152A152.06,152.06,0,0,0,152-.06Zm62.08,69.59a44.68,44.68,0,0,1,2.71,12.88q.09,1.26.13,2.52a.28.28,0,0,1-.25.29l-6,.6a.28.28,0,0,1-.3-.27q0-1.34-.14-2.69a39.5,39.5,0,0,0-2-10.07.28.28,0,0,1,.12-.33l5.23-3.07A.28.28,0,0,1,214.11,69.54ZM189.45,59.1a11.63,11.63,0,0,1,5.9-2,23.17,23.17,0,0,1,6.72.75c3.5.91,6.86,2.64,8.7,5.29a29,29,0,0,1,2.51,4.41.28.28,0,0,1-.11.35L208,71a.28.28,0,0,1-.39-.13,22.91,22.91,0,0,0-2.18-4c-.58-.83-2.19-2-5-2.7a16.79,16.79,0,0,0-4.78-.55c-1.56.07-3,.94-5.25,3.15a.28.28,0,0,1-.47-.17l-.6-7.25A.28.28,0,0,1,189.45,59.1Zm13.89,43.12-4.17-2.53-4.87.18-4.17-2.53-4.87.18L181.09,95l-2,.07q.39-1.6.87-3.17l2-.07,4.17,2.53,4.87-.18,4.17,2.53,4.87-.18L204.16,99l1.51-.05q-.28,1.61-.65,3.17Zm1.32,1.35q-.34,1.26-.73,2.47l-.24.71-1.54.06L198,104.27l-4.87.18-4.17-2.53-4.87.18-4.17-2.53-1.75.06q.25-1.59.59-3.16l2-.07,4.17,2.53,4.87-.18,4.17,2.53,4.87-.18,4.17,2.53Zm-.13-5.94-4.17-2.53-4.87.18-4.17-2.53-4.87.18-4.17-2.53-1.9.07q.54-1.61,1.17-3.19l1.55-.06,4.17,2.53,4.87-.18,4.17,2.53,4.87-.18,4.17,2.53.94,0q-.16,1.6-.39,3.16ZM205.72,93l-4.17-2.53-4.87.18-4.17-2.53-4.87.18-4.17-2.53-1.32,0q.71-1.63,1.51-3.2l.64,0,4.17,2.53,4.87-.18,4.17,2.53,4.87-.18,4.17,2.53h0q0,1.59-.16,3.15Zm-3-7.11-4.87.18-4.17-2.53-4.87.18-4.17-2.53h-.25q.41-.75.85-1.49t.82-1.34l3.58,2.17,4.87-.18,4.17,2.53,4.87-.18,2.94,1.79q.09,1.88.09,3.72Zm-5.83-14.69,4.17,2.53,3.45-.13a28.64,28.64,0,0,1,1,3.37l-.41-.25-4.87.18-4.17-2.53-4.87.18-1.69-1q1-1.25,2.06-2.42l.45.28ZM192.66,70c2.14-2.21,2.92-2.48,3.16-2.5a12.94,12.94,0,0,1,3.62.43A8.18,8.18,0,0,1,202.11,69a1,1,0,0,1,.26.27,19.23,19.23,0,0,1,1.61,3l-2.53.09-4.17-2.53Zm-1.81,6,4.87-.18,4.17,2.53,4.87-.18,1.15.7c.25,1.41.4,2.76.49,4l-2.47-1.5-4.87.18L194.9,79l-4.87.18-3.19-1.93q.88-1.32,1.82-2.57Zm-14.41-1.77a62.8,62.8,0,0,1,8.41-11.13,35.38,35.38,0,0,1,2.57-2.48.28.28,0,0,1,.46.19l.64,7.8a.28.28,0,0,1-.07.21,56.72,56.72,0,0,0-6.53,9l-.31.54a.28.28,0,0,1-.42.08l-4.68-3.81A.28.28,0,0,1,176.45,74.23ZM171,85.84a66.58,66.58,0,0,1,4.4-9.75.28.28,0,0,1,.42-.08l4.71,3.83a.28.28,0,0,1,.07.34,60,60,0,0,0-2.65,5.73.28.28,0,0,1-.25.17l-6.43.12A.28.28,0,0,1,171,85.84ZM170.26,88a.28.28,0,0,1,.26-.19l6.34-.12a.28.28,0,0,1,.27.37q-.26.72-.5,1.44a61,61,0,0,0-2.19,8.76.28.28,0,0,1-.22.23L168,99.59a.28.28,0,0,1-.33-.31A67.37,67.37,0,0,1,170.26,88Zm-2.85,13.51a.28.28,0,0,1,.23-.24l6.15-1.12a.28.28,0,0,1,.32.31q-.11.8-.2,1.61a59.18,59.18,0,0,0-.33,6.61.28.28,0,0,1-.09.2l-6.13,5.67a1.29,1.29,0,0,1,0-.14A64.79,64.79,0,0,1,167.41,101.48Zm-1.81,27.61q13.65,5,27.16,10.32a.14.14,0,0,1,0,.26l-12.68,2h0c-3.49-1.34-7.1-2.71-10.8-4.09h0l-3.83-8.31A.14.14,0,0,1,165.61,129.09Zm2.71,21.05a9.2,9.2,0,0,1-1.61-3.36,14.43,14.43,0,0,1,.24-6.66h0a1.25,1.25,0,0,1,1.66-.89c4.06,1.52,8.38,3.16,13.05,5a1.26,1.26,0,0,1,.59,1.88c-.47.69-.95,1.33-1.43,1.93a17.36,17.36,0,0,1-5.13,4.5,4.64,4.64,0,0,1-3.39.62,5.07,5.07,0,0,1-1.19-.5A9.2,9.2,0,0,1,168.32,150.14Zm.86,3.3-2.57,6a.21.21,0,0,1-.3.1,17.86,17.86,0,0,1-7.74-10.5.21.21,0,0,1,.22-.26l7.08.71h0a11.35,11.35,0,0,0,1,1.67,11.19,11.19,0,0,0,2.26,2.24Zm-7.7-23.23a.14.14,0,0,1,.25,0l3.82,8.3h0q-.17.62-.31,1.22a18,18,0,0,0-.5,5.92h0l-6.36-.64a.21.21,0,0,1-.19-.21C158.39,139.73,160.32,133.51,161.48,130.21Zm-20.13,11.85a64.64,64.64,0,0,1,1.88,12.72,1.41,1.41,0,0,1,0,.14l-6.84-4.74a.27.27,0,0,1-.12-.19,58.84,58.84,0,0,0-1.26-6.48q-.2-.78-.42-1.56a.28.28,0,0,1,.28-.35l6.22.25A.28.28,0,0,1,141.34,142.06Zm-37.12-22.63,3.76-3.08,4.83-.51.41-.34q1.21,1,2.38,2.1l-1.53,1.25-4.83.51-3.76,3.08-4.83.51-.37.3a28.58,28.58,0,0,1,.51-3.46Zm-3.07-1.08a19.16,19.16,0,0,1,1.18-3.14,1,1,0,0,1,.22-.3,8.15,8.15,0,0,1,2.48-1.47,12.91,12.91,0,0,1,3.51-.93c.24,0,1,.14,3.47,2l-4.59.48-3.76,3.08Zm.06,5.94,4.83-.51,3.76-3.08,4.83-.51,2-1.62q1.11,1.1,2.16,2.28l-2.87,2.35-4.83.51-3.76,3.08-4.83.51-2.23,1.83c-.08-1.21-.12-2.56-.07-4Zm25.72,13.28-3.76,3.08-4.83.51-3.76,3.08-4.83.51L106,147.82l-1.67.17q-.58-1.48-1.09-3l1.5-.16,3.76-3.08,4.83-.51,3.76-3.08,4.83-.51,3.76-3.08,2-.21q.7,1.49,1.31,3Zm2.53,1.14q.56,1.51,1,3l-1.74.18L125,145l-4.83.51-3.76,3.08-4.83.51-3.76,3.08-1.53.16-.33-.66q-.56-1.14-1.07-2.34l1.68-.18,3.76-3.08,4.83-.51,3.76-3.08,4.83-.51,3.76-3.08Zm-4.35-5.49-3.76,3.08-4.83.51-3.76,3.08-4.83.51-3.76,3.08-1.36.14q-.45-1.5-.83-3.06l.93-.1,3.76-3.08,4.83-.51,3.76-3.08,4.83-.51,3.76-3.08,1.54-.16q.84,1.46,1.6,3Zm-1.82-4.36-3.76,3.08-4.83.51-3.76,3.08-4.83.51-3.76,3.08-.69.07q-.33-1.52-.6-3.08h0l3.76-3.08,4.83-.51,3.76-3.08,4.83-.51,3.76-3.08.63-.07q1,1.44,1.94,2.94Zm-1.82-4.36-3.76,3.08-4.83.51-3.76,3.08-4.83.51-3.48,2.85q-.27-1.82-.44-3.69l2.66-2.18,4.83-.51,3.76-3.08,4.83-.51,3.23-2.64q.5.59,1,1.2t1,1.35Zm-21,25.35a.28.28,0,0,1,.43.11q.72,1.77,1.53,3.43a46.85,46.85,0,0,0,2.45,4.39.28.28,0,0,1,0,.33l-4.16,4.51a.28.28,0,0,1-.43,0,53.74,53.74,0,0,1-4.63-8.39.28.28,0,0,1,.07-.32ZM101.57,164l4.11-4.46a.28.28,0,0,1,.43,0,39.35,39.35,0,0,0,2.67,3.38,35.63,35.63,0,0,0,3.11,3.11.28.28,0,0,1,.09.18l.8,8.06a.28.28,0,0,1-.43.26,41.79,41.79,0,0,1-10.8-10.19A.28.28,0,0,1,101.57,164Zm10.12-3.61h0a38,38,0,0,1-4.7-6.71l1.38-.15,3.76-3.08,4.83-.51,3.76-3.08,4.83-.51,3.76-3.08,1.58-.17q.19.68.36,1.36.32,1.26.58,2.54a1,1,0,0,1-.62,1.16l-.15.05-8.13,2a4.87,4.87,0,0,0-2.6,1.62l-7.08,8.54a1,1,0,0,1-1.57,0ZM113.6,166l8.55-10.32,1.32-1.59a.27.27,0,0,1,.15-.09l2-.49,9.39-2.29a.28.28,0,0,1,.22,0l7,4.88-.16,0h0l-14.86,3.62a.28.28,0,0,0-.15.09L114.85,174.7h0a.28.28,0,0,1-.48-.16l-.83-8.33A.28.28,0,0,1,113.6,166Zm23-36.88a67.17,67.17,0,0,1,4.13,10.8.28.28,0,0,1-.28.35L134.2,140a.28.28,0,0,1-.25-.19,60.73,60.73,0,0,0-3.38-8.34q-.34-.68-.69-1.35a.28.28,0,0,1,.21-.4l6.28-.77A.28.28,0,0,1,136.64,129.13Zm-6.72-11a66.36,66.36,0,0,1,5.71,9,.28.28,0,0,1-.21.4l-6.36.78a.28.28,0,0,1-.27-.14,59.82,59.82,0,0,0-3.42-5.28.28.28,0,0,1,0-.35l4.12-4.44A.28.28,0,0,1,129.93,118.12Zm-14.06-13.58a35.3,35.3,0,0,1,2.88,2.09,62.63,62.63,0,0,1,9.86,9.81.28.28,0,0,1,0,.36l-4.09,4.42a.28.28,0,0,1-.42,0l-.39-.49a56.53,56.53,0,0,0-7.7-7.93.28.28,0,0,1-.1-.19l-.46-7.79A.28.28,0,0,1,115.86,104.54ZM93.18,110.3c1.44-2.87,4.52-5.05,7.85-6.44a23.11,23.11,0,0,1,6.53-1.68,11.59,11.59,0,0,1,6.1,1.14.28.28,0,0,1,.16.23l.43,7.24a.28.28,0,0,1-.44.24c-2.49-1.86-4.08-2.52-5.62-2.37a16.74,16.74,0,0,0-4.64,1.21c-2.66,1.11-4.09,2.47-4.55,3.36a22.81,22.81,0,0,0-1.6,4.21.28.28,0,0,1-.37.18l-5.53-2.28a.28.28,0,0,1-.16-.33A28.86,28.86,0,0,1,93.18,110.3Zm-3.05,22.38q-.13-1.25-.22-2.51a44.55,44.55,0,0,1,.87-13.1.28.28,0,0,1,.37-.19l5.59,2.3a.28.28,0,0,1,.17.31,39.39,39.39,0,0,0-.52,10.21q.1,1.35.24,2.68a.28.28,0,0,1-.26.31l-6,.24A.28.28,0,0,1,90.13,132.68Zm.51,1.79,6-.24a.28.28,0,0,1,.28.24,66.16,66.16,0,0,0,3.25,13.42.27.27,0,0,1-.08.3l-4.81,4.08a.28.28,0,0,1-.44-.11,71.71,71.71,0,0,1-4.43-17.38A.28.28,0,0,1,90.64,134.47ZM144.94,229A30.42,30.42,0,0,1,126,222.69L96.65,252.14l-5.49-5.48,29.38-29.44a30.56,30.56,0,1,1,24.4,11.8Zm37.43-70.81c-3.61,2.71-7.81,4.2-12.19,3.06h0A.21.21,0,0,1,170,161l2.58-6.06h0a6.79,6.79,0,0,0,3.89-.9l.44-.24h0l5.42,4.1A.21.21,0,0,1,182.37,158.22Zm5-4.91c-.58.71-1.18,1.4-1.82,2.06a.21.21,0,0,1-.27,0l-5.25-4h0a24.85,24.85,0,0,0,2.14-2.33,35.27,35.27,0,0,0,3-4.42h0l8-1.27a.14.14,0,0,1,.14.2A51,51,0,0,1,187.38,153.31Zm10.95-23.15h0l-14.25-13a.28.28,0,0,0-.16-.07l-15.26-1.5h0l-.16,0,6.3-5.84a.28.28,0,0,1,.22-.07l9.65.95,2.06.2a.28.28,0,0,1,.16.07l1.53,1.39,10,9a.28.28,0,0,1,.09.19l.35,8.39A.28.28,0,0,1,198.33,130.16Zm1.12-14.66a1,1,0,0,1-1.56.2l-8.23-7.49a4.89,4.89,0,0,0-2.81-1.25l-8.35-.82-.16,0a1,1,0,0,1-.78-1.06q.08-1.3.22-2.6.07-.7.17-1.4l1.59-.06,4.17,2.53,4.87-.18,4.17,2.53,4.87-.18,4.17,2.53,1.39-.05a38.07,38.07,0,0,1-3.72,7.32ZM210.07,118a41.9,41.9,0,0,1-9.29,11.65.28.28,0,0,1-.46-.2l-.34-8.11a.28.28,0,0,1,.07-.19,35.74,35.74,0,0,0,2.65-3.52,39.38,39.38,0,0,0,2.17-3.73.28.28,0,0,1,.42-.09l4.71,3.85A.28.28,0,0,1,210.07,118Zm1-1.92a.28.28,0,0,1-.42.09l-4.76-3.89a.28.28,0,0,1-.08-.33,47.06,47.06,0,0,0,1.82-4.7q.58-1.76,1-3.62a.28.28,0,0,1,.42-.17l5.29,3.33a.28.28,0,0,1,.12.31A53.93,53.93,0,0,1,211.07,116.08Zm4-11.13a.28.28,0,0,1-.42.17l-5.36-3.37a.28.28,0,0,1-.12-.29,66.39,66.39,0,0,0,1.33-13.79.28.28,0,0,1,.25-.28l6-.61a.28.28,0,0,1,.31.27A71.89,71.89,0,0,1,215,104.95Z"/></svg>