<svg id="Capa_1" data-name="Capa 1" xmlns="http://www.w3.org/2000/svg" viewBox="0 0 304 304"><defs><style>.cls-1{fill:#fff;}</style></defs><title>Ico_Menu_Construye_Suenos</title><path class="cls-1" d="M152,0A152,152,0,1,0,304,152,152.06,152.06,0,0,0,152,0ZM81.65,202.66A22.16,22.16,0,1,1,103.8,180.5,22.15,22.15,0,0,1,81.65,202.66Zm131.61,0a22.16,22.16,0,1,1,22.16-22.16A22.15,22.15,0,0,1,213.25,202.66Zm53.07-43.07c0,2.95-1.91,5.34-4.26,5.34h-6.29a3.63,3.63,0,0,1-2.21-.79c.47,1.86.92,3.54.92,3.54v6.14c0,3.39-3.47,6.14-7.76,6.14H239a25.84,25.84,0,0,0-49.26-10.8l-2.15,7.09a25.59,25.59,0,0,0-.29,3.71h-79.6a25.84,25.84,0,0,0-49.26-10.8l-2.15,7.09a25.38,25.38,0,0,0-.29,3.71H46.3a7.76,7.76,0,0,1-7.76-7.76v-5.94H38v-7.07h.55v-2.89c0-3.84,1.33-9.89,4.71-11.72,6.33-3.41,21.11-7.92,55.58-11,0,0,23.94-23.93,43-27.4a24.82,24.82,0,0,1,3.68-2.71,10.66,10.66,0,0,1,2.34-1,7.93,7.93,0,0,1,1.28-.28c.44,0,.9,0,1.27,0l4.68,0c1.56,0,3.12,0,4.68,0,6.23,0,12.47-.23,18.7-.24,3.12,0,6.23,0,9.35,0l9.35.06c6.23,0,12.47.08,18.7.2h.12l.11,0a4.68,4.68,0,0,1,.52.21c.14.07.3.14.43.21s.55.3.81.46c.53.31,1,.66,1.52,1,.78.56,1.52,1.15,2.26,1.75a32,32,0,0,1,11.13,3c6.44,3.51,15.93,9.7,18.84,16.82.27-2.62,2-4.64,4.21-4.64h6.29c2.36,0,4.26,2.39,4.26,5.34v33.24Z"/><path class="cls-1" d="M188.11,105.74v-2h-.34c-3.12,0-6.23.05-9.35,0-6.23,0-12.47-.19-18.7-.24-1.56,0-3.12,0-4.68,0l-4.68,0a5.72,5.72,0,0,0-3.87,1.44,9.69,9.69,0,0,0-.85.8l.5,0Z"/><path class="cls-1" d="M216.65,104.5c-.18-.22-.37-.4-.56-.6s-.19-.18-.28-.27l-.18-.17c-6.17.12-12.35.18-18.52.2h-1.22v2.06h21.78C217.34,105.32,217,104.89,216.65,104.5Z"/><path class="cls-1" d="M53.65,147.22H44.38c-.82,0-2,2-2,5s1.2,5,2,5a1.23,1.23,0,0,0,.43-.13c2.21-.57,9.61-2.73,12.25-6.37.44-.6.9-1.45.61-2.06C57.18,147.71,54.93,147.27,53.65,147.22Z"/><path class="cls-1" d="M246.36,144.27c0,2.72,3.14,6.6,6.21,8.78V142.58C250.14,142.22,246.36,142,246.36,144.27Z"/><path class="cls-1" d="M129.8,121.88l-.65.53a3.5,3.5,0,0,1,.45,1.3l1.12,8.29h32.41l2-12.56,1.32-8.28H142.89Z"/><polygon class="cls-1" points="171.4 119.01 169.63 132 203.86 132 206.32 116.61 207.19 111.16 172.47 111.16 171.4 119.01"/><path class="cls-1" d="M231.26,114.89c-1.37-1.32-2.74-2.59-4.06-3.73H212.5l-.69,5.07L209.66,132h33.73C243.81,128.49,237.61,121,231.26,114.89Z"/><path class="cls-1" d="M125.19,125.09c-.17-1.23-1.67-1.89-3.27-1.3-2.53.93-3.91,5.06-4.4,7.32l-1.61,1.74,1.37,1.31,1.3-.43a12.2,12.2,0,0,0,4.72.49c1.73,0,3-1,2.83-2.27Z"/><path class="cls-1" d="M213.17,167.57a9.74,9.74,0,0,0-5.63,1.63l4,6.91c.9,1.55,2.36,1.55,3.26,0l4-6.91A9.65,9.65,0,0,0,213.17,167.57Z"/><path class="cls-1" d="M209.58,183.6l-7.18,3.49a10.51,10.51,0,0,0,9.33,6.29l.55-8C212.41,183.63,211.2,182.81,209.58,183.6Z"/><path class="cls-1" d="M215.06,185.1,216.3,193A10.51,10.51,0,0,0,225,185.9l-7.45-2.85C215.91,182.41,214.78,183.33,215.06,185.1Z"/><path class="cls-1" d="M209.42,177.93,204,172.09a10.52,10.52,0,0,0-3.29,10.76l7.78-1.8C210.22,180.63,210.64,179.24,209.42,177.93Z"/><path class="cls-1" d="M221.78,171.28l-4.91,6.29c-1.1,1.42-.56,2.77,1.22,3l7.9,1.12a10.51,10.51,0,0,0-4.21-10.43Z"/><path class="cls-1" d="M81.56,167.57a9.74,9.74,0,0,0-5.63,1.63l4,6.91c.9,1.55,2.36,1.55,3.26,0l4-6.91A9.65,9.65,0,0,0,81.56,167.57Z"/><path class="cls-1" d="M78,183.6l-7.18,3.49a10.51,10.51,0,0,0,9.33,6.29l.55-8C80.8,183.63,79.59,182.81,78,183.6Z"/><path class="cls-1" d="M86,183.05c-1.68-.64-2.81.28-2.53,2L84.69,193a10.51,10.51,0,0,0,8.75-7.08Z"/><path class="cls-1" d="M77.81,177.93l-5.44-5.84a10.52,10.52,0,0,0-3.29,10.76l7.78-1.8C78.61,180.63,79,179.24,77.81,177.93Z"/><path class="cls-1" d="M90.17,171.28l-4.91,6.29c-1.1,1.42-.56,2.77,1.22,3l7.9,1.12a10.51,10.51,0,0,0-4.21-10.43Z"/></svg>