<svg id="Capa_1" data-name="Capa 1" xmlns="http://www.w3.org/2000/svg" viewBox="0 0 304 304"><defs><style>.cls-1{fill:#005697;}</style></defs><title>Ico_Menu_Maquina_Tiempo_on</title><path class="cls-1" d="M156.08,120.48a3.4,3.4,0,0,0,1.73-2l0,0v-.05a3.4,3.4,0,1,0-1.76,2.09Z"/><path class="cls-1" d="M175.51,129.91a3.4,3.4,0,0,0,3.85-4.91l0-.05,0,0a3.41,3.41,0,1,0-3.8,5Z"/><path class="cls-1" d="M126.87,197.26a3.41,3.41,0,1,0-5.26-3.42v0a.4.4,0,0,0,0,.05,3.4,3.4,0,0,0,5.28,3.33Z"/><path class="cls-1" d="M184.5,197.85a3.4,3.4,0,0,0,2.38-5.84l0,0,0,0a3.41,3.41,0,1,0-2.31,5.91Z"/><path class="cls-1" d="M122.83,150.32a3.41,3.41,0,1,0,1.73-6h-.1a3.4,3.4,0,0,0-1.63,6Z"/><path class="cls-1" d="M130.5,129.28l0,0,0,0a3.25,3.25,0,1,0-.08-.06Z"/><path class="cls-1" d="M118.09,85.8c.87,1,1.93,2.23,3.14,3.81a27.43,27.43,0,0,1,4-4.28L124,83.6a3.8,3.8,0,0,1-.47-4.05,3.65,3.65,0,0,1,.28-.46l-.08-.1c-1.71-2.09-3.48-4.26-6.54-3.62a3.3,3.3,0,0,0-2.26,1.43A4.38,4.38,0,0,0,114.6,80C115.07,82.31,116.21,83.62,118.09,85.8Z"/><path class="cls-1" d="M184.48,174.46a3.41,3.41,0,1,0-2.41-5.8l0,0,0,0a3.4,3.4,0,0,0,2.47,5.73Z"/><path class="cls-1" d="M175.47,73.56a3.89,3.89,0,0,1,.48,3.55l-.87,2.79q.71.32,1.41.67l1.09-2a3.82,3.82,0,0,1,3.36-2.17,3.69,3.69,0,0,1,1.1.17,10.31,10.31,0,0,0,1.64-5.27,4.38,4.38,0,0,0-1-3.1,3.29,3.29,0,0,0-2.5-.94c-3.12,0-4.41,2.48-5.65,4.89l-.22.41A3.63,3.63,0,0,1,175.47,73.56Z"/><path class="cls-1" d="M149.88,62.24v2.87h2.6a.74.74,0,0,1,.74.74v3.81h1a.75.75,0,0,1,.53.22l1.77,1.77a.74.74,0,0,1,.22.53v3.61q1.44.06,2.85.18V73.61a3.94,3.94,0,0,1,1.15-2.94,3.58,3.58,0,0,1,1.8-.94V58.49c0-5.36-4.05-7.81-7.82-7.81s-7.82,2.44-7.82,7.81v3h2.27A.74.74,0,0,1,149.88,62.24Z"/><path class="cls-1" d="M198.4,145.19l1.77,1.77a.75.75,0,0,1,.22.53v1h3.81a.74.74,0,0,1,.74.74v2.6h2.87a.74.74,0,0,1,.74.74v2.27h3c5.36,0,7.81-4.05,7.81-7.82s-2.44-7.82-7.81-7.82H200.32a3.58,3.58,0,0,1-.94,1.8,3.94,3.94,0,0,1-2.94,1.15h-3.76V145h5.2A.74.74,0,0,1,198.4,145.19Z"/><path class="cls-1" d="M186.34,150.53a3.4,3.4,0,0,0-1.15-6.2h-.09a3.41,3.41,0,1,0,1.25,6.22Z"/><path class="cls-1" d="M125.86,174.34a3.39,3.39,0,0,0,2.08-1.64l0,0,0-.05a3.4,3.4,0,1,0-2.12,1.72Z"/><path class="cls-1" d="M119.57,176.17l-.11,0,.15,0Z"/><path class="cls-1" d="M154.89,160a11.37,11.37,0,1,0-11.37-11.37A11.37,11.37,0,0,0,154.89,160Zm0-21a9.67,9.67,0,1,1-9.67,9.67A9.67,9.67,0,0,1,154.89,139Z"/><path class="cls-1" d="M152.08,0a152,152,0,1,0,152,152A152.06,152.06,0,0,0,152.08,0ZM113.64,76a4.78,4.78,0,0,1,3.22-2.11c3.94-.83,6.19,1.92,8,4.13v0a3.67,3.67,0,0,1,1.92-.55,3.89,3.89,0,0,1,3.15,1.74l1.37,1.89a40.23,40.23,0,0,1,4.22-2v-7a.74.74,0,0,1,.22-.53l1.77-1.77a.75.75,0,0,1,.53-.22h1V65.85a.74.74,0,0,1,.74-.74h2.6V62.24a.74.74,0,0,1,.74-.74h2.27v-3a9.3,9.3,0,0,1,18.61,0V69.73a3.58,3.58,0,0,1,1.8.94,3.94,3.94,0,0,1,1.15,2.94v3.54l1.18.3.79-2.53a3.76,3.76,0,0,1,3.58-2.85l.41,0,.33-.63c1.31-2.54,2.94-5.69,7-5.69a4.78,4.78,0,0,1,3.59,1.4,5.79,5.79,0,0,1,1.38,4.12,11.66,11.66,0,0,1-1.83,6,3.67,3.67,0,0,1,.78.92,3.85,3.85,0,0,1-.06,3.88l-1.32,2.44a25.3,25.3,0,0,1,9.94,20.42v.3a.73.73,0,0,1,0,.08s0,.06,0,.09v4.77H116.26v-4.77s0-.06,0-.09a.73.73,0,0,1,0-.08v-.3a25.19,25.19,0,0,1,4.07-14c-1.29-1.71-2.39-3-3.36-4.11-2-2.28-3.27-3.78-3.83-6.42A5.79,5.79,0,0,1,113.64,76Zm-18,61.65H106.9a3.58,3.58,0,0,1,.94-1.8,3.94,3.94,0,0,1,2.94-1.15h5.48V111.67h76.41v23.07h3.76a3.94,3.94,0,0,1,2.94,1.15,3.58,3.58,0,0,1,.94,1.8h11.25a9.3,9.3,0,0,1,0,18.61h-3v2.27a.74.74,0,0,1-.74.74h-2.87v2.6a.74.74,0,0,1-.74.74h-3.81v1a.75.75,0,0,1-.22.53l-1.77,1.77a.74.74,0,0,1-.53.22h-5.2v52.07H176V146.08q0-.25,0-.51a21,21,0,0,0-42,0q0,.26,0,.51v72.13H116.26V166.14h-6.92a.74.74,0,0,1-.53-.22L107,164.14a.75.75,0,0,1-.22-.53v-1H103a.74.74,0,0,1-.74-.74v-2.6H99.41a.74.74,0,0,1-.74-.74V156.3h-3a9.3,9.3,0,0,1,0-18.61Zm12.62,29.21h6.87v19.24h-6.89c-3.28,0-5.94-2.32-5.94-5.17V165.24a4.57,4.57,0,0,1,.36-1.78h3.24l-.08,1.15Zm-5.8,52.89h3.27v0h76.41v0h23.09a.85.85,0,0,1,.52.17l10.76,8.24,0,0,0,0,.07.08,0,0,.07.12v0l0,.1v0a.69.69,0,0,1,0,.1v5.18H90.91v-5.17a.68.68,0,0,1,0-.11v0l0-.1v0l.07-.12v0l.08-.09,0,0,0,0L102,220A.85.85,0,0,1,102.48,219.79Zm33.26-73.88a19.28,19.28,0,0,1,38.55,0q0,.23,0,.47v71.83H135.75V146.38Q135.74,146.15,135.74,145.91Zm57.91,40.23V166.9H199l2.44-2.29v-1.15h5.79a4.57,4.57,0,0,1,.36,1.78V181c0,2.86-2.66,5.17-5.94,5.17ZM221,244.45c0,.41-.25.74-.55.74H84.79c-.31,0-.55-.33-.55-.74v-7.92c0-.41.25-.74.55-.74h6.12v-.33H216.83v.33h3.62c.31,0,.55.33.55.74Z"/><circle class="cls-1" cx="154.89" cy="148.63" r="7.24"/><path class="cls-1" d="M95.66,154.81h3v-2.27a.74.74,0,0,1,.74-.74h2.87v-2.6a.74.74,0,0,1,.74-.74h3.81v-1A.75.75,0,0,1,107,147l1.77-1.77a.74.74,0,0,1,.53-.22h6.92v-2.85h-5.48a3.94,3.94,0,0,1-2.94-1.15,3.58,3.58,0,0,1-.94-1.8H95.66c-5.36,0-7.81,4.05-7.81,7.82S90.29,154.81,95.66,154.81Z"/></svg>