<svg id="Capa_1" data-name="Capa 1" xmlns="http://www.w3.org/2000/svg" viewBox="0 0 304 304"><defs><style>.cls-1{fill:#fff;}</style></defs><title>Ico_Menu_Maquina_Tiempo</title><path class="cls-1" d="M156,120.52a3.4,3.4,0,0,0,1.73-2l0,0v-.05a3.4,3.4,0,1,0-1.76,2.09Z"/><path class="cls-1" d="M175.43,129.94a3.4,3.4,0,0,0,3.85-4.91l0-.05,0,0a3.41,3.41,0,1,0-3.8,5Z"/><path class="cls-1" d="M126.8,197.3a3.41,3.41,0,1,0-5.26-3.42v0a.4.4,0,0,0,0,.05,3.4,3.4,0,0,0,5.28,3.33Z"/><path class="cls-1" d="M184.42,197.88A3.4,3.4,0,0,0,186.8,192l0,0,0,0a3.41,3.41,0,1,0-2.31,5.91Z"/><path class="cls-1" d="M122.75,150.35a3.41,3.41,0,1,0,1.73-6h-.1a3.4,3.4,0,0,0-1.63,6Z"/><path class="cls-1" d="M130.42,129.31l0,0,0,0a3.25,3.25,0,1,0-.08-.06Z"/><path class="cls-1" d="M118,85.83c.87,1,1.93,2.23,3.14,3.81a27.43,27.43,0,0,1,4-4.28l-1.26-1.73a3.8,3.8,0,0,1-.47-4.05,3.65,3.65,0,0,1,.28-.46l-.08-.1c-1.71-2.09-3.48-4.26-6.54-3.62a3.3,3.3,0,0,0-2.26,1.43,4.38,4.38,0,0,0-.31,3.23C115,82.34,116.13,83.66,118,85.83Z"/><path class="cls-1" d="M184.41,174.49a3.41,3.41,0,1,0-2.41-5.8l0,0,0,0a3.4,3.4,0,0,0,2.47,5.73Z"/><path class="cls-1" d="M175.39,73.59a3.89,3.89,0,0,1,.48,3.55L175,79.93q.71.32,1.41.67l1.09-2a3.82,3.82,0,0,1,3.36-2.17,3.69,3.69,0,0,1,1.1.17,10.31,10.31,0,0,0,1.64-5.27,4.38,4.38,0,0,0-1-3.1,3.29,3.29,0,0,0-2.5-.94c-3.12,0-4.41,2.48-5.65,4.89l-.22.41A3.63,3.63,0,0,1,175.39,73.59Z"/><path class="cls-1" d="M149.8,62.27v2.87h2.6a.74.74,0,0,1,.74.74v3.81h1a.75.75,0,0,1,.53.22l1.77,1.77a.74.74,0,0,1,.22.53v3.61q1.44.06,2.85.18V73.65a3.94,3.94,0,0,1,1.15-2.94,3.58,3.58,0,0,1,1.8-.94V58.52c0-5.36-4.05-7.81-7.82-7.81s-7.82,2.44-7.82,7.81v3h2.27A.74.74,0,0,1,149.8,62.27Z"/><path class="cls-1" d="M198.32,145.22,200.1,147a.75.75,0,0,1,.22.53v1h3.81a.74.74,0,0,1,.74.74v2.6h2.87a.74.74,0,0,1,.74.74v2.27h3c5.36,0,7.81-4.05,7.81-7.82s-2.44-7.82-7.81-7.82H200.24a3.58,3.58,0,0,1-.94,1.8,3.94,3.94,0,0,1-2.94,1.15H192.6V145h5.2A.74.74,0,0,1,198.32,145.22Z"/><path class="cls-1" d="M186.26,150.56a3.4,3.4,0,0,0-1.15-6.2H185a3.41,3.41,0,1,0,1.25,6.22Z"/><path class="cls-1" d="M125.79,174.37a3.39,3.39,0,0,0,2.08-1.64l0,0,0-.05a3.4,3.4,0,1,0-2.12,1.72Z"/><path class="cls-1" d="M119.49,176.2l-.11,0,.15,0Z"/><path class="cls-1" d="M154.82,160a11.37,11.37,0,1,0-11.37-11.37A11.37,11.37,0,0,0,154.82,160Zm0-21a9.67,9.67,0,1,1-9.67,9.67A9.67,9.67,0,0,1,154.82,139Z"/><path class="cls-1" d="M152,0A152,152,0,1,0,304,152,152.06,152.06,0,0,0,152,0ZM113.56,76.07A4.78,4.78,0,0,1,116.78,74c3.94-.83,6.19,1.92,8,4.13v0a3.67,3.67,0,0,1,1.92-.55,3.89,3.89,0,0,1,3.15,1.74l1.37,1.89a40.23,40.23,0,0,1,4.22-2v-7a.74.74,0,0,1,.22-.53l1.77-1.77a.75.75,0,0,1,.53-.22h1V65.88a.74.74,0,0,1,.74-.74h2.6V62.27a.74.74,0,0,1,.74-.74h2.27v-3a9.3,9.3,0,0,1,18.61,0V69.77a3.58,3.58,0,0,1,1.8.94,3.94,3.94,0,0,1,1.15,2.94v3.54l1.18.3.79-2.53a3.76,3.76,0,0,1,3.58-2.85l.41,0,.33-.63c1.31-2.54,2.94-5.69,7-5.69a4.78,4.78,0,0,1,3.59,1.4,5.79,5.79,0,0,1,1.38,4.12,11.66,11.66,0,0,1-1.83,6,3.67,3.67,0,0,1,.78.92,3.85,3.85,0,0,1-.06,3.88l-1.32,2.44A25.3,25.3,0,0,1,192.6,105v.3a.73.73,0,0,1,0,.08s0,.06,0,.09v4.77H116.19v-4.77s0-.06,0-.09a.73.73,0,0,1,0-.08V105a25.19,25.19,0,0,1,4.07-14c-1.29-1.71-2.39-3-3.36-4.11-2-2.28-3.27-3.78-3.83-6.42A5.79,5.79,0,0,1,113.56,76.07Zm-18,61.65h11.25a3.58,3.58,0,0,1,.94-1.8,3.94,3.94,0,0,1,2.94-1.15h5.48V111.7H192.6v23.07h3.76a3.94,3.94,0,0,1,2.94,1.15,3.58,3.58,0,0,1,.94,1.8h11.25a9.3,9.3,0,0,1,0,18.61h-3v2.27a.74.74,0,0,1-.74.74h-2.87v2.6a.74.74,0,0,1-.74.74h-3.81v1a.75.75,0,0,1-.22.53L198.32,166a.74.74,0,0,1-.53.22h-5.2v52.07H175.89V146.11q0-.25,0-.51a21,21,0,0,0-42,0q0,.26,0,.51v72.13H116.19V166.17h-6.92a.74.74,0,0,1-.53-.22L107,164.18a.75.75,0,0,1-.22-.53v-1h-3.81a.74.74,0,0,1-.74-.74v-2.6H99.33a.74.74,0,0,1-.74-.74v-2.27h-3a9.3,9.3,0,0,1,0-18.61Zm12.62,29.21h6.87v19.24h-6.89c-3.28,0-5.94-2.32-5.94-5.17V165.27a4.57,4.57,0,0,1,.36-1.78h3.24l-.08,1.15Zm-5.8,52.89h3.27v0h76.41v0h23.09a.85.85,0,0,1,.52.17l10.76,8.24,0,0,0,0,.07.08,0,0,.07.12v0l0,.1v0a.69.69,0,0,1,0,.1V234H90.84v-5.17a.68.68,0,0,1,0-.11v0l0-.1v0l.07-.12v0l.08-.09,0,0,0,0L101.89,220A.85.85,0,0,1,102.4,219.83Zm33.26-73.88a19.28,19.28,0,0,1,38.55,0q0,.23,0,.47v71.83H135.67V146.41Q135.67,146.18,135.66,145.95Zm57.91,40.23V166.93h5.37l2.44-2.29V163.5h5.79a4.57,4.57,0,0,1,.36,1.78V181c0,2.86-2.66,5.17-5.94,5.17Zm27.34,58.31c0,.41-.25.74-.55.74H84.71c-.31,0-.55-.33-.55-.74v-7.92c0-.41.25-.74.55-.74h6.12v-.33H216.75v.33h3.62c.31,0,.55.33.55.74Z"/><circle class="cls-1" cx="154.82" cy="148.66" r="7.24"/><path class="cls-1" d="M95.58,154.84h3v-2.27a.74.74,0,0,1,.74-.74h2.87v-2.6a.74.74,0,0,1,.74-.74h3.81v-1A.75.75,0,0,1,107,147l1.77-1.77a.74.74,0,0,1,.53-.22h6.92v-2.85h-5.48a3.94,3.94,0,0,1-2.94-1.15,3.58,3.58,0,0,1-.94-1.8H95.58c-5.36,0-7.81,4.05-7.81,7.82S90.22,154.84,95.58,154.84Z"/></svg>