<svg id="Capa_1" data-name="Capa 1" xmlns="http://www.w3.org/2000/svg" viewBox="0 0 304 304"><defs><style>.cls-1{fill:#005697;}</style></defs><title>Ico_Menu_Navega_on</title><path class="cls-1" d="M118.55,159l-.26-.82c-4.13-2.88-10.5-3.71-16.89-1.69a15.55,15.55,0,0,0-2.14.88C107.06,155.65,114.22,156.34,118.55,159Z"/><path class="cls-1" d="M107,182a15.54,15.54,0,0,0,2.26-.51c6.39-2,11.13-6.34,12.87-11.07l-.26-.82C119.88,174.29,114.4,179,107,182Z"/><path class="cls-1" d="M121.85,169.44l.07.21a10.44,10.44,0,0,0,.72-2.3l-.06,0A9.25,9.25,0,0,1,121.85,169.44Z"/><path class="cls-1" d="M122.77,165.85a8.36,8.36,0,0,1-.14,1.5l.23-.07a10.18,10.18,0,0,0,0-1.45Z"/><path class="cls-1" d="M122.65,164.47c-.06-.29-.12-.58-.21-.86s-.21-.55-.32-.82l0-.06a6.52,6.52,0,0,1,.57,1.8Z"/><path class="cls-1" d="M122,162.63a7.51,7.51,0,0,0-.6-1h0A7.11,7.11,0,0,1,122,162.63Z"/><path class="cls-1" d="M121.57,161.57l25.44-8,1.33,4.23L134.91,162h0l-12,3.78a12.16,12.16,0,0,1,.08,1.43l25.79-8.13a1.39,1.39,0,0,0,.9-1.74l-1.33-4.23a1.38,1.38,0,0,0-1.32-1,1.37,1.37,0,0,0-.42.06l-25.78,8.12A12.16,12.16,0,0,1,121.57,161.57Z"/><path class="cls-1" d="M121.52,161.59a10.18,10.18,0,0,0-.82-1.19l-.22.07a8.35,8.35,0,0,1,1,1.15Z"/><path class="cls-1" d="M120.41,160.48l.06,0a10.43,10.43,0,0,0-1.92-1.49l.07.21A9.23,9.23,0,0,1,120.41,160.48Z"/><path class="cls-1" d="M122.74,165.47c0,.13,0,.25,0,.38h0C122.77,165.72,122.75,165.6,122.74,165.47Z"/><path class="cls-1" d="M119.15,160.88l-.54-1.7c-3.22-1.79-7.91-2.18-12.64-.69-7.46,2.35-17.4,14.75-17.1,15.7s15.55,5.41,23,3.06c4.73-1.49,8.35-4.49,10-7.81l-.53-1.68,1.25-.4a7.77,7.77,0,0,0,.18-1.51l-24.87,7.84-1.33-4.23,24.88-7.84a7.75,7.75,0,0,0-1-1.14Z"/><path class="cls-1" d="M80,177c-.37-1.17,10.22-15.22,19.28-19.65-1.32.29-2.66.64-4,1.06-12.83,4-30.94,22.14-30.54,23.41s25.61,5.71,38.44,1.66c1.35-.42,2.64-.9,3.89-1.43C97.08,183.61,80.35,178.17,80,177Z"/><path class="cls-1" d="M152-.72a152,152,0,1,0,152,152A152.06,152.06,0,0,0,152-.72Zm76.12,118.4,7.25,23.12c-.51.84-1,1.68-1.67,2.51l-8.38-26.73C226.3,116.9,227.23,117.28,228.12,117.67Zm-20.87-38.2,2.08-11.54,2.08,11.54L223,77.88l-10.33,5.54L217.78,94l-8.46-8.11L200.86,94,206,83.42l-10.33-5.54ZM137,51.45,139.29,39l2.25,12.49,12.58-1.72-11.19,6,5.52,11.43-9.16-8.79-9.16,8.79,5.52-11.43-11.19-6ZM122.9,128l17.7,9a91.59,91.59,0,0,0-16.13,12.92l-11.13-10.21-25.75,3.46-.64-2Zm-62.59-2.14,1.63-9.05,1.63,9.05,9.11-1.25L64.58,129l4,8.28-6.64-6.37-6.64,6.37,4-8.28-8.11-4.35Zm63.32,116.54-6.49-6.22-6.49,6.22,3.91-8.09-7.92-4.25,8.9,1.22,1.59-8.84,1.59,8.84,8.9-1.22-7.92,4.25Zm19.92-50.36-37,9.86-.64-2L129,188l3.26-14.75a91.55,91.55,0,0,0,20.63,1.34Zm-17.34-22.55-3.71,1.17c-2.26,8.61-12.52,17.49-26.46,21.88-17.84,5.62-53.27-1.76-53.87-3.65s24.2-28.26,42-33.88c13.94-4.39,27.43-3,34.23,2.75l3.71-1.17c3.71-6.2,12.56-13.39,23.13-20l11.34,36C144.19,173.28,132.82,172.46,126.22,169.51ZM161,172.33l-12-38q2.06-1.21,4.17-2.38l12.58,39.91Q163.4,172.14,161,172.33Zm9.1-.94L157,129.92c1.41-.74,2.82-1.46,4.24-2.16l13.54,43C173.26,171,171.69,171.18,170.11,171.38Zm32.71,93.88-8.46-8.11-8.46,8.11,5.1-10.55-10.33-5.54,11.61,1.59,2.08-11.54,2.08,11.54L208,249.17l-10.33,5.54ZM198,165.56a150.43,150.43,0,0,1-19,4.47l-13.91-44.14a150.37,150.37,0,0,1,18.1-7.21,86.09,86.09,0,0,1,30-4.22L225,151.83A86.12,86.12,0,0,1,198,165.56ZM228.55,149l-10.7-34.11c.89.12,1.75.27,2.6.44l10,31.81C229.83,147.76,229.21,148.38,228.55,149Zm20.72,52.14-6.64-6.37L236,201.14l4-8.28-8.11-4.35,9.11,1.25,1.63-9.05,1.63,9.05,9.11-1.25-8.11,4.35Zm13.3-77.6a3.72,3.72,0,0,1-4.28-1.69l-20.17,6.45a14,14,0,0,1-.18,6.45l-4.27-13.62a13.89,13.89,0,0,1,3.87,5.3L257.67,120a3.25,3.25,0,0,1,0-.55s0-.06,0-.09a3.59,3.59,0,0,1,.08-.39,3.69,3.69,0,0,1,2.48-2.77,3.61,3.61,0,0,1,.9-.15h.24a3.52,3.52,0,0,1,.48,0,3.07,3.07,0,0,1,.46.09l.24.08a3.38,3.38,0,0,1,.4.16,3.69,3.69,0,0,1,1.23,1l.15.19v0s0,.09.08.12a3.84,3.84,0,0,1,.26.38,3.66,3.66,0,0,1-.71,4.68A3.57,3.57,0,0,1,262.58,123.54Z"/><path class="cls-1" d="M200.4,124.49l-.26.1-.27.07a13.12,13.12,0,0,0-8.6,16.41c0,.09.07.17.1.26s0,.18.07.27a13.69,13.69,0,1,0,9-17.11Zm11.52,10.63a9.85,9.85,0,1,1-12.34-6.38A9.84,9.84,0,0,1,211.92,135.12Z"/><path class="cls-1" d="M177.9,138.36l-.19.07-.1,0c-.1,0-.18.08-.28.12l-.27.12a7,7,0,0,0-4.19,8l.06.29c0,.1,0,.2.06.3l0,.09c0,.06,0,.13.05.19a7.36,7.36,0,1,0,4.82-9.2ZM181,150a4.69,4.69,0,1,1,3.09-5.89A4.71,4.71,0,0,1,181,150Z"/></svg>